<?xml version="1.0" encoding="UTF-8" standalone="no"?>
<!DOCTYPE svg PUBLIC "-//W3C//DTD SVG 1.1//EN"
 "http://www.w3.org/Graphics/SVG/1.1/DTD/svg11.dtd">
<!-- Generated by graphviz version 2.40.1 (20161225.0304)
 -->
<!-- Title: oneDegreeRelationshipsDiagram Pages: 1 -->
<svg width="512pt" height="619pt"
 viewBox="0.00 0.00 512.00 618.70" xmlns="http://www.w3.org/2000/svg" xmlns:xlink="http://www.w3.org/1999/xlink">
<g id="graph0" class="graph" transform="scale(1 1) rotate(0) translate(4 614.7)">
<title>oneDegreeRelationshipsDiagram</title>
<polygon fill="#ffffff" stroke="transparent" points="-4,4 -4,-614.7 508,-614.7 508,4 -4,4"/>
<text text-anchor="middle" x="72.4936" y="-7.3" font-family="Helvetica,sans-Serif" font-size="11.00" fill="#000000">Generated by SchemaSpy</text>
<!-- arch_tl_polygons_EPSG3857 -->
<g id="node1" class="node">
<title>arch_tl_polygons_EPSG3857</title>
<g id="a_node1"><a xlink:href="../../tables/arch_tl_polygons_EPSG3857.html" xlink:title="arch_tl_polygons_EPSG3857" target="_top">
<polygon fill="#ffffff" stroke="transparent" points="186,-428.7 186,-606.7 496,-606.7 496,-428.7 186,-428.7"/>
<polygon fill="#f5f5f5" stroke="transparent" points="188,-581.7 188,-604.7 494,-604.7 494,-581.7 188,-581.7"/>
<polygon fill="none" stroke="#000000" points="188,-581.7 188,-604.7 494,-604.7 494,-581.7 188,-581.7"/>
<text text-anchor="start" x="193" y="-590.8" font-family="Helvetica,sans-Serif" font-weight="bold" font-size="11.00" fill="#000000">arch_tl_polygons_EPSG3857</text>
<text text-anchor="start" x="459.0437" y="-589.8" font-family="Helvetica,sans-Serif" font-size="11.00" fill="#000000">[table]</text>
<polygon fill="none" stroke="#000000" points="188,-559.7 188,-581.7 375,-581.7 375,-559.7 188,-559.7"/>
<image xlink:href="../../images/primaryKeys.png" width="11px" height="12px" preserveAspectRatio="xMinYMin meet" x="193" y="-576.7"/>
<text text-anchor="start" x="208" y="-566.8" font-family="Helvetica,sans-Serif" font-size="11.00" fill="#000000">id</text>
<polygon fill="none" stroke="#000000" points="375,-559.7 375,-581.7 494,-581.7 494,-559.7 375,-559.7"/>
<text text-anchor="start" x="378" y="-567.4" font-family="Helvetica,sans-Serif" font-size="11.00" fill="#000000">serial[10]</text>
<polygon fill="#ffffff" stroke="transparent" points="188,-537.7 188,-559.7 375,-559.7 375,-537.7 188,-537.7"/>
<polygon fill="none" stroke="#000000" points="188,-537.7 188,-559.7 375,-559.7 375,-537.7 188,-537.7"/>
<text text-anchor="start" x="208" y="-544.8" font-family="Helvetica,sans-Serif" font-size="11.00" fill="#000000">geom</text>
<polygon fill="none" stroke="#000000" points="375,-537.7 375,-559.7 494,-559.7 494,-537.7 375,-537.7"/>
<text text-anchor="start" x="377.9485" y="-545.4" font-family="Helvetica,sans-Serif" font-size="11.00" fill="#000000">geometry[2147483647]</text>
<polygon fill="none" stroke="#000000" points="188,-515.7 188,-537.7 375,-537.7 375,-515.7 188,-515.7"/>
<image xlink:href="../../images/primaryKeys.png" width="11px" height="12px" preserveAspectRatio="xMinYMin meet" x="193" y="-532.7"/>
<text text-anchor="start" x="208" y="-522.8" font-family="Helvetica,sans-Serif" font-size="11.00" fill="#000000">OBSID1</text>
<polygon fill="none" stroke="#000000" points="375,-515.7 375,-537.7 494,-537.7 494,-515.7 375,-515.7"/>
<text text-anchor="start" x="378" y="-523.4" font-family="Helvetica,sans-Serif" font-size="11.00" fill="#000000">text[2147483647]</text>
<polygon fill="none" stroke="#000000" points="188,-493.7 188,-515.7 375,-515.7 375,-493.7 188,-493.7"/>
<text text-anchor="start" x="208" y="-500.8" font-family="Helvetica,sans-Serif" font-size="11.00" fill="#000000">OBSID2</text>
<polygon fill="none" stroke="#000000" points="375,-493.7 375,-515.7 494,-515.7 494,-493.7 375,-493.7"/>
<text text-anchor="start" x="378" y="-501.4" font-family="Helvetica,sans-Serif" font-size="11.00" fill="#000000">text[2147483647]</text>
<polygon fill="none" stroke="#000000" points="188,-471.7 188,-493.7 375,-493.7 375,-471.7 188,-471.7"/>
<text text-anchor="start" x="208" y="-478.8" font-family="Helvetica,sans-Serif" font-size="11.00" fill="#000000">CREATED_AT</text>
<polygon fill="none" stroke="#000000" points="375,-471.7 375,-493.7 494,-493.7 494,-471.7 375,-471.7"/>
<text text-anchor="start" x="378" y="-479.4" font-family="Helvetica,sans-Serif" font-size="11.00" fill="#000000">timestamptz[35,6]</text>
<polygon fill="none" stroke="#000000" points="188,-449.7 188,-471.7 375,-471.7 375,-449.7 188,-449.7"/>
<text text-anchor="start" x="208" y="-456.8" font-family="Helvetica,sans-Serif" font-size="11.00" fill="#000000">UPDATED_AT</text>
<polygon fill="none" stroke="#000000" points="375,-449.7 375,-471.7 494,-471.7 494,-449.7 375,-449.7"/>
<text text-anchor="start" x="378" y="-457.4" font-family="Helvetica,sans-Serif" font-size="11.00" fill="#000000">timestamptz[35,6]</text>
<polygon fill="#ffffff" stroke="transparent" points="188,-430.7 188,-449.7 267,-449.7 267,-430.7 188,-430.7"/>
<polygon fill="none" stroke="#000000" points="188,-430.7 188,-449.7 267,-449.7 267,-430.7 188,-430.7"/>
<text text-anchor="start" x="191" y="-436.8" font-family="Helvetica,sans-Serif" font-size="11.00" fill="#000000">&lt; 1</text>
<polygon fill="#ffffff" stroke="transparent" points="267,-430.7 267,-449.7 375,-449.7 375,-430.7 267,-430.7"/>
<polygon fill="none" stroke="#000000" points="267,-430.7 267,-449.7 375,-449.7 375,-430.7 267,-430.7"/>
<text text-anchor="start" x="327.3807" y="-436.8" font-family="Helvetica,sans-Serif" font-size="11.00" fill="#000000">240 rows</text>
<polygon fill="#ffffff" stroke="transparent" points="375,-430.7 375,-449.7 494,-449.7 494,-430.7 375,-430.7"/>
<polygon fill="none" stroke="#000000" points="375,-430.7 375,-449.7 494,-449.7 494,-430.7 375,-430.7"/>
<text text-anchor="start" x="475.4053" y="-436.8" font-family="Helvetica,sans-Serif" font-size="11.00" fill="#000000">0 &gt;</text>
<polygon fill="none" stroke="#000000" stroke-width="2" points="187,-429.7 187,-605.7 495,-605.7 495,-429.7 187,-429.7"/>
</a>
</g>
</g>
<!-- arch_tl_DataCore -->
<g id="node2" class="node">
<title>arch_tl_DataCore</title>
<g id="a_node2"><a xlink:href="../../tables/arch_tl_DataCore.html" xlink:title="arch_tl_DataCore" target="_top">
<polygon fill="#ffffff" stroke="transparent" points="8,-38.2 8,-561.2 137,-561.2 137,-38.2 8,-38.2"/>
<polygon fill="#f5f5f5" stroke="transparent" points="8.5,-537.7 8.5,-560.7 137.5,-560.7 137.5,-537.7 8.5,-537.7"/>
<polygon fill="none" stroke="#000000" points="8.5,-537.7 8.5,-560.7 137.5,-560.7 137.5,-537.7 8.5,-537.7"/>
<text text-anchor="start" x="13.4103" y="-546.8" font-family="Helvetica,sans-Serif" font-weight="bold" font-size="11.00" fill="#000000">arch_tl_DataCore</text>
<text text-anchor="start" x="103.0219" y="-545.8" font-family="Helvetica,sans-Serif" font-size="11.00" fill="#000000">[table]</text>
<polygon fill="none" stroke="#000000" points="8.5,-515.7 8.5,-537.7 137.5,-537.7 137.5,-515.7 8.5,-515.7"/>
<image xlink:href="../../images/primaryKeys.png" width="11px" height="12px" preserveAspectRatio="xMinYMin meet" x="13.5" y="-532.7"/>
<text text-anchor="start" x="33.5" y="-522.8" font-family="Helvetica,sans-Serif" font-size="11.00" fill="#000000">OBSID1</text>
<polygon fill="none" stroke="#000000" points="8.5,-493.7 8.5,-515.7 137.5,-515.7 137.5,-493.7 8.5,-493.7"/>
<image xlink:href="../../images/foreignKeys.png" width="11px" height="12px" preserveAspectRatio="xMinYMin meet" x="13.5" y="-510.7"/>
<text text-anchor="start" x="33.5" y="-500.8" font-family="Helvetica,sans-Serif" font-size="11.00" fill="#000000">SMPID</text>
<polygon fill="none" stroke="#000000" points="8.5,-471.7 8.5,-493.7 137.5,-493.7 137.5,-471.7 8.5,-471.7"/>
<image xlink:href="../../images/foreignKeys.png" width="11px" height="12px" preserveAspectRatio="xMinYMin meet" x="13.5" y="-488.7"/>
<text text-anchor="start" x="33.5" y="-478.8" font-family="Helvetica,sans-Serif" font-size="11.00" fill="#000000">LAB_ORIGID</text>
<polygon fill="none" stroke="#000000" points="8.5,-449.7 8.5,-471.7 137.5,-471.7 137.5,-449.7 8.5,-449.7"/>
<image xlink:href="../../images/foreignKeys.png" width="11px" height="12px" preserveAspectRatio="xMinYMin meet" x="13.5" y="-466.7"/>
<text text-anchor="start" x="33.5" y="-456.8" font-family="Helvetica,sans-Serif" font-size="11.00" fill="#000000">METHODID</text>
<polygon fill="none" stroke="#000000" points="8.5,-427.7 8.5,-449.7 137.5,-449.7 137.5,-427.7 8.5,-427.7"/>
<image xlink:href="../../images/foreignKeys.png" width="11px" height="12px" preserveAspectRatio="xMinYMin meet" x="13.5" y="-444.7"/>
<text text-anchor="start" x="33.5" y="-434.8" font-family="Helvetica,sans-Serif" font-size="11.00" fill="#000000">DBDOI</text>
<polygon fill="none" stroke="#000000" points="8.5,-405.7 8.5,-427.7 137.5,-427.7 137.5,-405.7 8.5,-405.7"/>
<image xlink:href="../../images/foreignKeys.png" width="11px" height="12px" preserveAspectRatio="xMinYMin meet" x="13.5" y="-422.7"/>
<text text-anchor="start" x="33.5" y="-412.8" font-family="Helvetica,sans-Serif" font-size="11.00" fill="#000000">REFDBID1</text>
<polygon fill="none" stroke="#000000" points="8.5,-383.7 8.5,-405.7 137.5,-405.7 137.5,-383.7 8.5,-383.7"/>
<image xlink:href="../../images/foreignKeys.png" width="11px" height="12px" preserveAspectRatio="xMinYMin meet" x="13.5" y="-400.7"/>
<text text-anchor="start" x="33.5" y="-390.8" font-family="Helvetica,sans-Serif" font-size="11.00" fill="#000000">REFDBID2</text>
<polygon fill="none" stroke="#000000" points="8.5,-361.7 8.5,-383.7 137.5,-383.7 137.5,-361.7 8.5,-361.7"/>
<image xlink:href="../../images/foreignKeys.png" width="11px" height="12px" preserveAspectRatio="xMinYMin meet" x="13.5" y="-378.7"/>
<text text-anchor="start" x="33.5" y="-368.8" font-family="Helvetica,sans-Serif" font-size="11.00" fill="#000000">REFDBID3</text>
<polygon fill="none" stroke="#000000" points="8.5,-339.7 8.5,-361.7 137.5,-361.7 137.5,-339.7 8.5,-339.7"/>
<image xlink:href="../../images/foreignKeys.png" width="11px" height="12px" preserveAspectRatio="xMinYMin meet" x="13.5" y="-356.7"/>
<text text-anchor="start" x="33.5" y="-346.8" font-family="Helvetica,sans-Serif" font-size="11.00" fill="#000000">REFDBID4</text>
<polygon fill="none" stroke="#000000" points="8.5,-317.7 8.5,-339.7 137.5,-339.7 137.5,-317.7 8.5,-317.7"/>
<image xlink:href="../../images/foreignKeys.png" width="11px" height="12px" preserveAspectRatio="xMinYMin meet" x="13.5" y="-334.7"/>
<text text-anchor="start" x="33.5" y="-324.8" font-family="Helvetica,sans-Serif" font-size="11.00" fill="#000000">COL_MTDID</text>
<polygon fill="none" stroke="#000000" points="8.5,-295.7 8.5,-317.7 137.5,-317.7 137.5,-295.7 8.5,-295.7"/>
<image xlink:href="../../images/foreignKeys.png" width="11px" height="12px" preserveAspectRatio="xMinYMin meet" x="13.5" y="-312.7"/>
<text text-anchor="start" x="33.5" y="-302.8" font-family="Helvetica,sans-Serif" font-size="11.00" fill="#000000">LUM_MATID</text>
<polygon fill="none" stroke="#000000" points="8.5,-273.7 8.5,-295.7 137.5,-295.7 137.5,-273.7 8.5,-273.7"/>
<image xlink:href="../../images/foreignKeys.png" width="11px" height="12px" preserveAspectRatio="xMinYMin meet" x="13.5" y="-290.7"/>
<text text-anchor="start" x="33.5" y="-280.8" font-family="Helvetica,sans-Serif" font-size="11.00" fill="#000000">MINERALID</text>
<polygon fill="none" stroke="#000000" points="8.5,-251.7 8.5,-273.7 137.5,-273.7 137.5,-251.7 8.5,-251.7"/>
<image xlink:href="../../images/foreignKeys.png" width="11px" height="12px" preserveAspectRatio="xMinYMin meet" x="13.5" y="-268.7"/>
<text text-anchor="start" x="33.5" y="-258.8" font-family="Helvetica,sans-Serif" font-size="11.00" fill="#000000">ED_PROCID</text>
<polygon fill="none" stroke="#000000" points="8.5,-229.7 8.5,-251.7 137.5,-251.7 137.5,-229.7 8.5,-229.7"/>
<image xlink:href="../../images/foreignKeys.png" width="11px" height="12px" preserveAspectRatio="xMinYMin meet" x="13.5" y="-246.7"/>
<text text-anchor="start" x="33.5" y="-236.8" font-family="Helvetica,sans-Serif" font-size="11.00" fill="#000000">AGEMODELID</text>
<polygon fill="none" stroke="#000000" points="8.5,-207.7 8.5,-229.7 137.5,-229.7 137.5,-207.7 8.5,-207.7"/>
<image xlink:href="../../images/foreignKeys.png" width="11px" height="12px" preserveAspectRatio="xMinYMin meet" x="13.5" y="-224.7"/>
<text text-anchor="start" x="33.5" y="-214.8" font-family="Helvetica,sans-Serif" font-size="11.00" fill="#000000">U_MTDID</text>
<polygon fill="none" stroke="#000000" points="8.5,-185.7 8.5,-207.7 137.5,-207.7 137.5,-185.7 8.5,-185.7"/>
<image xlink:href="../../images/foreignKeys.png" width="11px" height="12px" preserveAspectRatio="xMinYMin meet" x="13.5" y="-202.7"/>
<text text-anchor="start" x="33.5" y="-192.8" font-family="Helvetica,sans-Serif" font-size="11.00" fill="#000000">TH_MTDID</text>
<polygon fill="none" stroke="#000000" points="8.5,-163.7 8.5,-185.7 137.5,-185.7 137.5,-163.7 8.5,-163.7"/>
<image xlink:href="../../images/foreignKeys.png" width="11px" height="12px" preserveAspectRatio="xMinYMin meet" x="13.5" y="-180.7"/>
<text text-anchor="start" x="33.5" y="-170.8" font-family="Helvetica,sans-Serif" font-size="11.00" fill="#000000">U_TH_MTDID</text>
<polygon fill="none" stroke="#000000" points="8.5,-141.7 8.5,-163.7 137.5,-163.7 137.5,-141.7 8.5,-141.7"/>
<image xlink:href="../../images/foreignKeys.png" width="11px" height="12px" preserveAspectRatio="xMinYMin meet" x="13.5" y="-158.7"/>
<text text-anchor="start" x="33.5" y="-148.8" font-family="Helvetica,sans-Serif" font-size="11.00" fill="#000000">K_MTDID</text>
<polygon fill="none" stroke="#000000" points="8.5,-119.7 8.5,-141.7 137.5,-141.7 137.5,-119.7 8.5,-119.7"/>
<image xlink:href="../../images/foreignKeys.png" width="11px" height="12px" preserveAspectRatio="xMinYMin meet" x="13.5" y="-136.7"/>
<text text-anchor="start" x="33.5" y="-126.8" font-family="Helvetica,sans-Serif" font-size="11.00" fill="#000000">ALPH_MTDID</text>
<polygon fill="none" stroke="#000000" points="8.5,-97.7 8.5,-119.7 137.5,-119.7 137.5,-97.7 8.5,-97.7"/>
<image xlink:href="../../images/foreignKeys.png" width="11px" height="12px" preserveAspectRatio="xMinYMin meet" x="13.5" y="-114.7"/>
<text text-anchor="start" x="33.5" y="-104.8" font-family="Helvetica,sans-Serif" font-size="11.00" fill="#000000">BETA_MTDID</text>
<polygon fill="none" stroke="#000000" points="8.5,-75.7 8.5,-97.7 137.5,-97.7 137.5,-75.7 8.5,-75.7"/>
<image xlink:href="../../images/foreignKeys.png" width="11px" height="12px" preserveAspectRatio="xMinYMin meet" x="13.5" y="-92.7"/>
<text text-anchor="start" x="33.5" y="-82.8" font-family="Helvetica,sans-Serif" font-size="11.00" fill="#000000">GMMA_MTDID</text>
<polygon fill="none" stroke="#000000" points="8.5,-56.7 8.5,-75.7 137.5,-75.7 137.5,-56.7 8.5,-56.7"/>
<text text-anchor="start" x="11.5" y="-62.8" font-family="Helvetica,sans-Serif" font-size="11.00" fill="#000000">...</text>
<polygon fill="#ffffff" stroke="transparent" points="8.5,-37.7 8.5,-56.7 50.5,-56.7 50.5,-37.7 8.5,-37.7"/>
<polygon fill="none" stroke="#000000" points="8.5,-37.7 8.5,-56.7 50.5,-56.7 50.5,-37.7 8.5,-37.7"/>
<text text-anchor="start" x="11.5" y="-43.8" font-family="Helvetica,sans-Serif" font-size="11.00" fill="#000000">&lt; 20</text>
<polygon fill="#ffffff" stroke="transparent" points="50.5,-37.7 50.5,-56.7 108.5,-56.7 108.5,-37.7 50.5,-37.7"/>
<polygon fill="none" stroke="#000000" points="50.5,-37.7 50.5,-56.7 108.5,-56.7 108.5,-37.7 50.5,-37.7"/>
<text text-anchor="start" x="60.8807" y="-43.8" font-family="Helvetica,sans-Serif" font-size="11.00" fill="#000000">240 rows</text>
<polygon fill="#ffffff" stroke="transparent" points="108.5,-37.7 108.5,-56.7 137.5,-56.7 137.5,-37.7 108.5,-37.7"/>
<polygon fill="none" stroke="#000000" points="108.5,-37.7 108.5,-56.7 137.5,-56.7 137.5,-37.7 108.5,-37.7"/>
<text text-anchor="start" x="118.9053" y="-43.8" font-family="Helvetica,sans-Serif" font-size="11.00" fill="#000000">1 &gt;</text>
</a>
</g>
</g>
<!-- arch_tl_polygons_EPSG3857&#45;&gt;arch_tl_DataCore -->
<g id="edge1" class="edge">
<title>arch_tl_polygons_EPSG3857:w&#45;&gt;arch_tl_DataCore:e</title>
<path fill="none" stroke="#000000" d="M177.3362,-526.7C162.9956,-526.7 155.9115,-526.7 137.5,-526.7"/>
<polygon fill="#000000" stroke="#000000" points="187.2,-522.7 187.2,-530.7 185.6,-530.7 185.6,-522.7 187.2,-522.7"/>
<polyline fill="none" stroke="#000000" points="188,-526.7 184,-526.7 "/>
<ellipse fill="none" stroke="#000000" cx="180.8" cy="-526.7001" rx="3.2" ry="3.2"/>
</g>
</g>
</svg>
