<?xml version="1.0" encoding="UTF-8" standalone="no"?>
<!DOCTYPE svg PUBLIC "-//W3C//DTD SVG 1.1//EN"
 "http://www.w3.org/Graphics/SVG/1.1/DTD/svg11.dtd">
<!-- Generated by graphviz version 2.40.1 (20161225.0304)
 -->
<!-- Title: twoDegreesRelationshipsDiagram Pages: 1 -->
<svg width="600pt" height="339pt"
 viewBox="0.00 0.00 600.00 338.70" xmlns="http://www.w3.org/2000/svg" xmlns:xlink="http://www.w3.org/1999/xlink">
<g id="graph0" class="graph" transform="scale(1 1) rotate(0) translate(4 334.7)">
<title>twoDegreesRelationshipsDiagram</title>
<polygon fill="#ffffff" stroke="transparent" points="-4,4 -4,-334.7 596,-334.7 596,4 -4,4"/>
<text text-anchor="middle" x="72.4936" y="-7.3" font-family="Helvetica,sans-Serif" font-size="11.00" fill="#000000">Generated by SchemaSpy</text>
<!-- arch_c14_DataCore -->
<g id="node1" class="node">
<title>arch_c14_DataCore</title>
<g id="a_node1"><a xlink:href="../../tables/arch_c14_DataCore.html" xlink:title="arch_c14_DataCore" target="_top">
<polygon fill="#ffffff" stroke="transparent" points="433,-265.7 433,-326.7 584,-326.7 584,-265.7 433,-265.7"/>
<polygon fill="#f5f5f5" stroke="transparent" points="433.5,-303.2 433.5,-326.2 584.5,-326.2 584.5,-303.2 433.5,-303.2"/>
<polygon fill="none" stroke="#000000" points="433.5,-303.2 433.5,-326.2 584.5,-326.2 584.5,-303.2 433.5,-303.2"/>
<text text-anchor="start" x="438.5" y="-311.8" font-family="Helvetica,sans-Serif" font-weight="bold" font-size="11.00" fill="#000000">arch_c14_DataCore</text>
<text text-anchor="start" x="550.0219" y="-311.3" font-family="Helvetica,sans-Serif" font-size="11.00" fill="#000000">[table]</text>
<polygon fill="none" stroke="#000000" points="433.5,-284.2 433.5,-303.2 584.5,-303.2 584.5,-284.2 433.5,-284.2"/>
<text text-anchor="start" x="436.5" y="-290.3" font-family="Helvetica,sans-Serif" font-size="11.00" fill="#000000">...</text>
<polygon fill="#ffffff" stroke="transparent" points="433.5,-265.2 433.5,-284.2 482.5,-284.2 482.5,-265.2 433.5,-265.2"/>
<polygon fill="none" stroke="#000000" points="433.5,-265.2 433.5,-284.2 482.5,-284.2 482.5,-265.2 433.5,-265.2"/>
<text text-anchor="start" x="436.5" y="-271.3" font-family="Helvetica,sans-Serif" font-size="11.00" fill="#000000">&lt; 24</text>
<polygon fill="#ffffff" stroke="transparent" points="482.5,-265.2 482.5,-284.2 552.5,-284.2 552.5,-265.2 482.5,-265.2"/>
<polygon fill="none" stroke="#000000" points="482.5,-265.2 482.5,-284.2 552.5,-284.2 552.5,-265.2 482.5,-265.2"/>
<text text-anchor="start" x="495.7089" y="-271.3" font-family="Helvetica,sans-Serif" font-size="11.00" fill="#000000">9.501 rows</text>
<polygon fill="#ffffff" stroke="transparent" points="552.5,-265.2 552.5,-284.2 584.5,-284.2 584.5,-265.2 552.5,-265.2"/>
<polygon fill="none" stroke="#000000" points="552.5,-265.2 552.5,-284.2 584.5,-284.2 584.5,-265.2 552.5,-265.2"/>
<text text-anchor="start" x="565.9053" y="-271.3" font-family="Helvetica,sans-Serif" font-size="11.00" fill="#000000">1 &gt;</text>
</a>
</g>
</g>
<!-- arch_Sample -->
<g id="node2" class="node">
<title>arch_Sample</title>
<g id="a_node2"><a xlink:href="../../tables/arch_Sample.html" xlink:title="arch_Sample" target="_top">
<polygon fill="#ffffff" stroke="transparent" points="271,-118.7 271,-245.7 384,-245.7 384,-118.7 271,-118.7"/>
<polygon fill="#f5f5f5" stroke="transparent" points="271.5,-222.2 271.5,-245.2 384.5,-245.2 384.5,-222.2 271.5,-222.2"/>
<polygon fill="none" stroke="#000000" points="271.5,-222.2 271.5,-245.2 384.5,-245.2 384.5,-222.2 271.5,-222.2"/>
<text text-anchor="start" x="276.5" y="-230.8" font-family="Helvetica,sans-Serif" font-weight="bold" font-size="11.00" fill="#000000">arch_Sample</text>
<text text-anchor="start" x="350.0219" y="-230.3" font-family="Helvetica,sans-Serif" font-size="11.00" fill="#000000">[table]</text>
<polygon fill="none" stroke="#000000" points="271.5,-200.2 271.5,-222.2 384.5,-222.2 384.5,-200.2 271.5,-200.2"/>
<image xlink:href="../../images/primaryKeys.png" width="11px" height="12px" preserveAspectRatio="xMinYMin meet" x="276.5" y="-217.2"/>
<text text-anchor="start" x="296.5" y="-207.3" font-family="Helvetica,sans-Serif" font-size="11.00" fill="#000000">SMPID</text>
<polygon fill="none" stroke="#000000" points="271.5,-178.2 271.5,-200.2 384.5,-200.2 384.5,-178.2 271.5,-178.2"/>
<image xlink:href="../../images/foreignKeys.png" width="11px" height="12px" preserveAspectRatio="xMinYMin meet" x="276.5" y="-195.2"/>
<text text-anchor="start" x="296.5" y="-185.3" font-family="Helvetica,sans-Serif" font-size="11.00" fill="#000000">SITEID</text>
<polygon fill="none" stroke="#000000" points="271.5,-156.2 271.5,-178.2 384.5,-178.2 384.5,-156.2 271.5,-156.2"/>
<image xlink:href="../../images/foreignKeys.png" width="11px" height="12px" preserveAspectRatio="xMinYMin meet" x="276.5" y="-173.2"/>
<text text-anchor="start" x="296.5" y="-163.3" font-family="Helvetica,sans-Serif" font-size="11.00" fill="#000000">FEATDATEID</text>
<polygon fill="none" stroke="#000000" points="271.5,-137.2 271.5,-156.2 384.5,-156.2 384.5,-137.2 271.5,-137.2"/>
<text text-anchor="start" x="274.5" y="-143.3" font-family="Helvetica,sans-Serif" font-size="11.00" fill="#000000">...</text>
<polygon fill="#ffffff" stroke="transparent" points="271.5,-118.2 271.5,-137.2 295.5,-137.2 295.5,-118.2 271.5,-118.2"/>
<polygon fill="none" stroke="#000000" points="271.5,-118.2 271.5,-137.2 295.5,-137.2 295.5,-118.2 271.5,-118.2"/>
<text text-anchor="start" x="274.5" y="-124.3" font-family="Helvetica,sans-Serif" font-size="11.00" fill="#000000">&lt; 2</text>
<polygon fill="#ffffff" stroke="transparent" points="295.5,-118.2 295.5,-137.2 361.5,-137.2 361.5,-118.2 295.5,-118.2"/>
<polygon fill="none" stroke="#000000" points="295.5,-118.2 295.5,-137.2 361.5,-137.2 361.5,-118.2 295.5,-118.2"/>
<text text-anchor="start" x="298.594" y="-124.3" font-family="Helvetica,sans-Serif" font-size="11.00" fill="#000000">10.412 rows</text>
<polygon fill="#ffffff" stroke="transparent" points="361.5,-118.2 361.5,-137.2 384.5,-137.2 384.5,-118.2 361.5,-118.2"/>
<polygon fill="none" stroke="#000000" points="361.5,-118.2 361.5,-137.2 384.5,-137.2 384.5,-118.2 361.5,-118.2"/>
<text text-anchor="start" x="365.9053" y="-124.3" font-family="Helvetica,sans-Serif" font-size="11.00" fill="#000000">3 &gt;</text>
</a>
</g>
</g>
<!-- arch_c14_DataCore&#45;&gt;arch_Sample -->
<g id="edge1" class="edge">
<title>arch_c14_DataCore:w&#45;&gt;arch_Sample:e</title>
<path fill="none" stroke="#000000" d="M419.5294,-288.5564C399.788,-271.2098 420.8194,-211.2 384.5,-211.2"/>
<polygon fill="#000000" stroke="#000000" points="425.9084,-290.6766 432.3645,-296.6162 429.7042,-291.9383 433.5,-293.2 433.5,-293.2 433.5,-293.2 429.7042,-291.9383 434.6355,-289.7838 425.9084,-290.6766 425.9084,-290.6766"/>
<ellipse fill="none" stroke="#000000" cx="422.8717" cy="-289.6673" rx="3.2" ry="3.2"/>
</g>
<!-- arch_featdatedID -->
<g id="node4" class="node">
<title>arch_featdatedID</title>
<g id="a_node4"><a xlink:href="../../tables/arch_featdatedID.html" xlink:title="arch_featdatedID" target="_top">
<polygon fill="#ffffff" stroke="transparent" points="8,-38.2 8,-172.2 222,-172.2 222,-38.2 8,-38.2"/>
<polygon fill="#f5f5f5" stroke="transparent" points="10,-147.2 10,-170.2 220,-170.2 220,-147.2 10,-147.2"/>
<polygon fill="none" stroke="#000000" points="10,-147.2 10,-170.2 220,-170.2 220,-147.2 10,-147.2"/>
<text text-anchor="start" x="15" y="-155.8" font-family="Helvetica,sans-Serif" font-weight="bold" font-size="11.00" fill="#000000">arch_featdatedID</text>
<text text-anchor="start" x="185.0437" y="-155.3" font-family="Helvetica,sans-Serif" font-size="11.00" fill="#000000">[table]</text>
<polygon fill="none" stroke="#000000" points="10,-125.2 10,-147.2 128,-147.2 128,-125.2 10,-125.2"/>
<image xlink:href="../../images/primaryKeys.png" width="11px" height="12px" preserveAspectRatio="xMinYMin meet" x="15" y="-142.2"/>
<text text-anchor="start" x="30" y="-132.3" font-family="Helvetica,sans-Serif" font-size="11.00" fill="#000000">FEATDATEID</text>
<polygon fill="none" stroke="#000000" points="128,-125.2 128,-147.2 220,-147.2 220,-125.2 128,-125.2"/>
<text text-anchor="start" x="131" y="-132.9" font-family="Helvetica,sans-Serif" font-size="11.00" fill="#000000">int2[5]</text>
<polygon fill="none" stroke="#000000" points="10,-103.2 10,-125.2 128,-125.2 128,-103.2 10,-103.2"/>
<text text-anchor="start" x="30" y="-110.3" font-family="Helvetica,sans-Serif" font-size="11.00" fill="#000000">FEATDATED</text>
<polygon fill="none" stroke="#000000" points="128,-103.2 128,-125.2 220,-125.2 220,-103.2 128,-103.2"/>
<text text-anchor="start" x="131" y="-110.9" font-family="Helvetica,sans-Serif" font-size="11.00" fill="#000000">text[2147483647]</text>
<polygon fill="none" stroke="#000000" points="10,-81.2 10,-103.2 128,-103.2 128,-81.2 10,-81.2"/>
<text text-anchor="start" x="30" y="-88.3" font-family="Helvetica,sans-Serif" font-size="11.00" fill="#000000">CREATED_AT</text>
<polygon fill="none" stroke="#000000" points="128,-81.2 128,-103.2 220,-103.2 220,-81.2 128,-81.2"/>
<text text-anchor="start" x="130.6023" y="-88.9" font-family="Helvetica,sans-Serif" font-size="11.00" fill="#000000">timestamptz[35,6]</text>
<polygon fill="none" stroke="#000000" points="10,-59.2 10,-81.2 128,-81.2 128,-59.2 10,-59.2"/>
<text text-anchor="start" x="30" y="-66.3" font-family="Helvetica,sans-Serif" font-size="11.00" fill="#000000">UPDATED_AT</text>
<polygon fill="none" stroke="#000000" points="128,-59.2 128,-81.2 220,-81.2 220,-59.2 128,-59.2"/>
<text text-anchor="start" x="130.6023" y="-66.9" font-family="Helvetica,sans-Serif" font-size="11.00" fill="#000000">timestamptz[35,6]</text>
<polygon fill="#ffffff" stroke="transparent" points="10,-40.2 10,-59.2 60,-59.2 60,-40.2 10,-40.2"/>
<polygon fill="none" stroke="#000000" points="10,-40.2 10,-59.2 60,-59.2 60,-40.2 10,-40.2"/>
<text text-anchor="start" x="13" y="-46.3" font-family="Helvetica,sans-Serif" font-size="11.00" fill="#000000">&lt; 0</text>
<polygon fill="#ffffff" stroke="transparent" points="60,-40.2 60,-59.2 128,-59.2 128,-40.2 60,-40.2"/>
<polygon fill="none" stroke="#000000" points="60,-40.2 60,-59.2 128,-59.2 128,-40.2 60,-40.2"/>
<text text-anchor="start" x="92.6105" y="-46.3" font-family="Helvetica,sans-Serif" font-size="11.00" fill="#000000">8 rows</text>
<polygon fill="#ffffff" stroke="transparent" points="128,-40.2 128,-59.2 220,-59.2 220,-40.2 128,-40.2"/>
<polygon fill="none" stroke="#000000" points="128,-40.2 128,-59.2 220,-59.2 220,-40.2 128,-40.2"/>
<text text-anchor="start" x="201.4053" y="-46.3" font-family="Helvetica,sans-Serif" font-size="11.00" fill="#000000">1 &gt;</text>
<polygon fill="none" stroke="#000000" stroke-width="2" points="9,-39.2 9,-171.2 221,-171.2 221,-39.2 9,-39.2"/>
</a>
</g>
</g>
<!-- arch_Sample&#45;&gt;arch_featdatedID -->
<g id="edge3" class="edge">
<title>arch_Sample:w&#45;&gt;arch_featdatedID:e</title>
<path fill="none" stroke="#000000" d="M257.4805,-163.3988C244.2585,-155.1209 240.8716,-136.2 220,-136.2"/>
<polygon fill="#000000" stroke="#000000" points="263.7788,-165.1064 270.5579,-170.6745 267.6394,-166.1532 271.5,-167.2 271.5,-167.2 271.5,-167.2 267.6394,-166.1532 272.4421,-163.7255 263.7788,-165.1064 263.7788,-165.1064"/>
<ellipse fill="none" stroke="#000000" cx="260.6903" cy="-164.269" rx="3.2" ry="3.2"/>
</g>
<!-- global_SiteMaster -->
<g id="node5" class="node">
<title>global_SiteMaster</title>
<g id="a_node5"><a xlink:href="../../tables/global_SiteMaster.html" xlink:title="global_SiteMaster" target="_top">
<polygon fill="#ffffff" stroke="transparent" points="44.5,-193.7 44.5,-254.7 185.5,-254.7 185.5,-193.7 44.5,-193.7"/>
<polygon fill="#f5f5f5" stroke="transparent" points="45,-231.2 45,-254.2 186,-254.2 186,-231.2 45,-231.2"/>
<polygon fill="none" stroke="#000000" points="45,-231.2 45,-254.2 186,-254.2 186,-231.2 45,-231.2"/>
<text text-anchor="start" x="50" y="-239.8" font-family="Helvetica,sans-Serif" font-weight="bold" font-size="11.00" fill="#000000">global_SiteMaster</text>
<text text-anchor="start" x="151.5219" y="-239.3" font-family="Helvetica,sans-Serif" font-size="11.00" fill="#000000">[table]</text>
<polygon fill="none" stroke="#000000" points="45,-212.2 45,-231.2 186,-231.2 186,-212.2 45,-212.2"/>
<text text-anchor="start" x="48" y="-218.3" font-family="Helvetica,sans-Serif" font-size="11.00" fill="#000000">...</text>
<polygon fill="#ffffff" stroke="transparent" points="45,-193.2 45,-212.2 83,-212.2 83,-193.2 45,-193.2"/>
<polygon fill="none" stroke="#000000" points="45,-193.2 45,-212.2 83,-212.2 83,-193.2 45,-193.2"/>
<text text-anchor="start" x="48" y="-199.3" font-family="Helvetica,sans-Serif" font-size="11.00" fill="#000000">&lt; 8</text>
<polygon fill="#ffffff" stroke="transparent" points="83,-193.2 83,-212.2 156,-212.2 156,-193.2 83,-193.2"/>
<polygon fill="none" stroke="#000000" points="83,-193.2 83,-212.2 156,-212.2 156,-193.2 83,-193.2"/>
<text text-anchor="start" x="93.094" y="-199.3" font-family="Helvetica,sans-Serif" font-size="11.00" fill="#000000">25.221 rows</text>
<polygon fill="#ffffff" stroke="transparent" points="156,-193.2 156,-212.2 186,-212.2 186,-193.2 156,-193.2"/>
<polygon fill="none" stroke="#000000" points="156,-193.2 156,-212.2 186,-212.2 186,-193.2 156,-193.2"/>
<text text-anchor="start" x="167.4053" y="-199.3" font-family="Helvetica,sans-Serif" font-size="11.00" fill="#000000">6 &gt;</text>
</a>
</g>
</g>
<!-- arch_Sample&#45;&gt;global_SiteMaster -->
<g id="edge4" class="edge">
<title>arch_Sample:w&#45;&gt;global_SiteMaster:e</title>
<path fill="none" stroke="#000000" d="M257.0808,-190.7434C229.1309,-197.1355 221.1855,-221.2 186,-221.2"/>
<polygon fill="#000000" stroke="#000000" points="263.5454,-190.0515 271.8832,-192.7796 267.5227,-189.6258 271.5,-189.2 271.5,-189.2 271.5,-189.2 267.5227,-189.6258 271.1168,-185.6204 263.5454,-190.0515 263.5454,-190.0515"/>
<ellipse fill="none" stroke="#000000" cx="260.3636" cy="-190.3921" rx="3.2" ry="3.2"/>
</g>
<!-- arch_osl_DataCore -->
<g id="node3" class="node">
<title>arch_osl_DataCore</title>
<g id="a_node3"><a xlink:href="../../tables/arch_osl_DataCore.html" xlink:title="arch_osl_DataCore" target="_top">
<polygon fill="#ffffff" stroke="transparent" points="434.5,-183.7 434.5,-244.7 582.5,-244.7 582.5,-183.7 434.5,-183.7"/>
<polygon fill="#f5f5f5" stroke="transparent" points="434.5,-221.2 434.5,-244.2 582.5,-244.2 582.5,-221.2 434.5,-221.2"/>
<polygon fill="none" stroke="#000000" points="434.5,-221.2 434.5,-244.2 582.5,-244.2 582.5,-221.2 434.5,-221.2"/>
<text text-anchor="start" x="439.5" y="-229.8" font-family="Helvetica,sans-Serif" font-weight="bold" font-size="11.00" fill="#000000">arch_osl_DataCore</text>
<text text-anchor="start" x="548.0219" y="-229.3" font-family="Helvetica,sans-Serif" font-size="11.00" fill="#000000">[table]</text>
<polygon fill="none" stroke="#000000" points="434.5,-202.2 434.5,-221.2 582.5,-221.2 582.5,-202.2 434.5,-202.2"/>
<text text-anchor="start" x="437.5" y="-208.3" font-family="Helvetica,sans-Serif" font-size="11.00" fill="#000000">...</text>
<polygon fill="#ffffff" stroke="transparent" points="434.5,-183.2 434.5,-202.2 486.5,-202.2 486.5,-183.2 434.5,-183.2"/>
<polygon fill="none" stroke="#000000" points="434.5,-183.2 434.5,-202.2 486.5,-202.2 486.5,-183.2 434.5,-183.2"/>
<text text-anchor="start" x="437.5" y="-189.3" font-family="Helvetica,sans-Serif" font-size="11.00" fill="#000000">&lt; 20</text>
<polygon fill="#ffffff" stroke="transparent" points="486.5,-183.2 486.5,-202.2 548.5,-202.2 548.5,-183.2 486.5,-183.2"/>
<polygon fill="none" stroke="#000000" points="486.5,-183.2 486.5,-202.2 548.5,-202.2 548.5,-183.2 486.5,-183.2"/>
<text text-anchor="start" x="500.8807" y="-189.3" font-family="Helvetica,sans-Serif" font-size="11.00" fill="#000000">973 rows</text>
<polygon fill="#ffffff" stroke="transparent" points="548.5,-183.2 548.5,-202.2 582.5,-202.2 582.5,-183.2 548.5,-183.2"/>
<polygon fill="none" stroke="#000000" points="548.5,-183.2 548.5,-202.2 582.5,-202.2 582.5,-183.2 548.5,-183.2"/>
<text text-anchor="start" x="563.9053" y="-189.3" font-family="Helvetica,sans-Serif" font-size="11.00" fill="#000000">1 &gt;</text>
</a>
</g>
</g>
<!-- arch_osl_DataCore&#45;&gt;arch_Sample -->
<g id="edge2" class="edge">
<title>arch_osl_DataCore:w&#45;&gt;arch_Sample:e</title>
<path fill="none" stroke="#000000" d="M420.0647,-211.2C408.3054,-211.2 400.9931,-211.2 384.5,-211.2"/>
<polygon fill="#000000" stroke="#000000" points="426.5,-211.2001 434.5,-214.8 430.5,-211.2 434.5,-211.2 434.5,-211.2 434.5,-211.2 430.5,-211.2 434.5,-207.6 426.5,-211.2001 426.5,-211.2001"/>
<ellipse fill="none" stroke="#000000" cx="423.3" cy="-211.2001" rx="3.2" ry="3.2"/>
</g>
<!-- arch_tl_DataCore -->
<g id="node6" class="node">
<title>arch_tl_DataCore</title>
<g id="a_node6"><a xlink:href="../../tables/arch_tl_DataCore.html" xlink:title="arch_tl_DataCore" target="_top">
<polygon fill="#ffffff" stroke="transparent" points="439.5,-101.7 439.5,-162.7 577.5,-162.7 577.5,-101.7 439.5,-101.7"/>
<polygon fill="#f5f5f5" stroke="transparent" points="439.5,-139.2 439.5,-162.2 577.5,-162.2 577.5,-139.2 439.5,-139.2"/>
<polygon fill="none" stroke="#000000" points="439.5,-139.2 439.5,-162.2 577.5,-162.2 577.5,-139.2 439.5,-139.2"/>
<text text-anchor="start" x="444.5" y="-147.8" font-family="Helvetica,sans-Serif" font-weight="bold" font-size="11.00" fill="#000000">arch_tl_DataCore</text>
<text text-anchor="start" x="543.0219" y="-147.3" font-family="Helvetica,sans-Serif" font-size="11.00" fill="#000000">[table]</text>
<polygon fill="none" stroke="#000000" points="439.5,-120.2 439.5,-139.2 577.5,-139.2 577.5,-120.2 439.5,-120.2"/>
<text text-anchor="start" x="442.5" y="-126.3" font-family="Helvetica,sans-Serif" font-size="11.00" fill="#000000">...</text>
<polygon fill="#ffffff" stroke="transparent" points="439.5,-101.2 439.5,-120.2 486.5,-120.2 486.5,-101.2 439.5,-101.2"/>
<polygon fill="none" stroke="#000000" points="439.5,-101.2 439.5,-120.2 486.5,-120.2 486.5,-101.2 439.5,-101.2"/>
<text text-anchor="start" x="442.5" y="-107.3" font-family="Helvetica,sans-Serif" font-size="11.00" fill="#000000">&lt; 20</text>
<polygon fill="#ffffff" stroke="transparent" points="486.5,-101.2 486.5,-120.2 546.5,-120.2 546.5,-101.2 486.5,-101.2"/>
<polygon fill="none" stroke="#000000" points="486.5,-101.2 486.5,-120.2 546.5,-120.2 546.5,-101.2 486.5,-101.2"/>
<text text-anchor="start" x="498.8807" y="-107.3" font-family="Helvetica,sans-Serif" font-size="11.00" fill="#000000">240 rows</text>
<polygon fill="#ffffff" stroke="transparent" points="546.5,-101.2 546.5,-120.2 577.5,-120.2 577.5,-101.2 546.5,-101.2"/>
<polygon fill="none" stroke="#000000" points="546.5,-101.2 546.5,-120.2 577.5,-120.2 577.5,-101.2 546.5,-101.2"/>
<text text-anchor="start" x="558.9053" y="-107.3" font-family="Helvetica,sans-Serif" font-size="11.00" fill="#000000">1 &gt;</text>
</a>
</g>
</g>
<!-- arch_tl_DataCore&#45;&gt;arch_Sample -->
<g id="edge5" class="edge">
<title>arch_tl_DataCore:w&#45;&gt;arch_Sample:e</title>
<path fill="none" stroke="#000000" d="M425.4075,-133.3791C403.1437,-150.0891 422.3835,-211.2 384.5,-211.2"/>
<polygon fill="#000000" stroke="#000000" points="431.8301,-131.4745 440.5235,-132.6514 435.6651,-130.3373 439.5,-129.2 439.5,-129.2 439.5,-129.2 435.6651,-130.3373 438.4765,-125.7486 431.8301,-131.4745 431.8301,-131.4745"/>
<ellipse fill="none" stroke="#000000" cx="428.7622" cy="-132.3843" rx="3.2" ry="3.2"/>
</g>
</g>
</svg>
