<?xml version="1.0" encoding="UTF-8" standalone="no"?>
<!DOCTYPE svg PUBLIC "-//W3C//DTD SVG 1.1//EN"
 "http://www.w3.org/Graphics/SVG/1.1/DTD/svg11.dtd">
<!-- Generated by graphviz version 2.40.1 (20161225.0304)
 -->
<!-- Title: oneDegreeRelationshipsDiagram Pages: 1 -->
<svg width="521pt" height="619pt"
 viewBox="0.00 0.00 521.00 618.70" xmlns="http://www.w3.org/2000/svg" xmlns:xlink="http://www.w3.org/1999/xlink">
<g id="graph0" class="graph" transform="scale(1 1) rotate(0) translate(4 614.7)">
<title>oneDegreeRelationshipsDiagram</title>
<polygon fill="#ffffff" stroke="transparent" points="-4,4 -4,-614.7 517,-614.7 517,4 -4,4"/>
<text text-anchor="middle" x="72.4936" y="-7.3" font-family="Helvetica,sans-Serif" font-size="11.00" fill="#000000">Generated by SchemaSpy</text>
<!-- arch_tl_polygons_EPSG3857 -->
<g id="node1" class="node">
<title>arch_tl_polygons_EPSG3857</title>
<g id="a_node1"><a xlink:href="../../tables/arch_tl_polygons_EPSG3857.html" xlink:title="arch_tl_polygons_EPSG3857" target="_top">
<polygon fill="#ffffff" stroke="transparent" points="195,-428.7 195,-606.7 505,-606.7 505,-428.7 195,-428.7"/>
<polygon fill="#f5f5f5" stroke="transparent" points="197,-581.7 197,-604.7 503,-604.7 503,-581.7 197,-581.7"/>
<polygon fill="none" stroke="#000000" points="197,-581.7 197,-604.7 503,-604.7 503,-581.7 197,-581.7"/>
<text text-anchor="start" x="202" y="-590.3" font-family="Helvetica,sans-Serif" font-weight="bold" font-size="11.00" fill="#000000">arch_tl_polygons_EPSG3857</text>
<text text-anchor="start" x="468.0437" y="-589.8" font-family="Helvetica,sans-Serif" font-size="11.00" fill="#000000">[table]</text>
<polygon fill="none" stroke="#000000" points="197,-559.7 197,-581.7 384,-581.7 384,-559.7 197,-559.7"/>
<image xlink:href="../../images/primaryKeys.png" width="11px" height="12px" preserveAspectRatio="xMinYMin meet" x="202" y="-576.7"/>
<text text-anchor="start" x="217" y="-566.8" font-family="Helvetica,sans-Serif" font-size="11.00" fill="#000000">id</text>
<polygon fill="none" stroke="#000000" points="384,-559.7 384,-581.7 503,-581.7 503,-559.7 384,-559.7"/>
<text text-anchor="start" x="387" y="-567.4" font-family="Helvetica,sans-Serif" font-size="11.00" fill="#000000">serial[10]</text>
<polygon fill="#ffffff" stroke="transparent" points="197,-537.7 197,-559.7 384,-559.7 384,-537.7 197,-537.7"/>
<polygon fill="none" stroke="#000000" points="197,-537.7 197,-559.7 384,-559.7 384,-537.7 197,-537.7"/>
<text text-anchor="start" x="217" y="-544.8" font-family="Helvetica,sans-Serif" font-size="11.00" fill="#000000">geom</text>
<polygon fill="none" stroke="#000000" points="384,-537.7 384,-559.7 503,-559.7 503,-537.7 384,-537.7"/>
<text text-anchor="start" x="386.9485" y="-545.4" font-family="Helvetica,sans-Serif" font-size="11.00" fill="#000000">geometry[2147483647]</text>
<polygon fill="none" stroke="#000000" points="197,-515.7 197,-537.7 384,-537.7 384,-515.7 197,-515.7"/>
<image xlink:href="../../images/primaryKeys.png" width="11px" height="12px" preserveAspectRatio="xMinYMin meet" x="202" y="-532.7"/>
<text text-anchor="start" x="217" y="-522.8" font-family="Helvetica,sans-Serif" font-size="11.00" fill="#000000">OBSID1</text>
<polygon fill="none" stroke="#000000" points="384,-515.7 384,-537.7 503,-537.7 503,-515.7 384,-515.7"/>
<text text-anchor="start" x="387" y="-523.4" font-family="Helvetica,sans-Serif" font-size="11.00" fill="#000000">text[2147483647]</text>
<polygon fill="none" stroke="#000000" points="197,-493.7 197,-515.7 384,-515.7 384,-493.7 197,-493.7"/>
<text text-anchor="start" x="217" y="-500.8" font-family="Helvetica,sans-Serif" font-size="11.00" fill="#000000">OBSID2</text>
<polygon fill="none" stroke="#000000" points="384,-493.7 384,-515.7 503,-515.7 503,-493.7 384,-493.7"/>
<text text-anchor="start" x="387" y="-501.4" font-family="Helvetica,sans-Serif" font-size="11.00" fill="#000000">text[2147483647]</text>
<polygon fill="none" stroke="#000000" points="197,-471.7 197,-493.7 384,-493.7 384,-471.7 197,-471.7"/>
<text text-anchor="start" x="217" y="-478.8" font-family="Helvetica,sans-Serif" font-size="11.00" fill="#000000">CREATED_AT</text>
<polygon fill="none" stroke="#000000" points="384,-471.7 384,-493.7 503,-493.7 503,-471.7 384,-471.7"/>
<text text-anchor="start" x="387" y="-479.4" font-family="Helvetica,sans-Serif" font-size="11.00" fill="#000000">timestamptz[35,6]</text>
<polygon fill="none" stroke="#000000" points="197,-449.7 197,-471.7 384,-471.7 384,-449.7 197,-449.7"/>
<text text-anchor="start" x="217" y="-456.8" font-family="Helvetica,sans-Serif" font-size="11.00" fill="#000000">UPDATED_AT</text>
<polygon fill="none" stroke="#000000" points="384,-449.7 384,-471.7 503,-471.7 503,-449.7 384,-449.7"/>
<text text-anchor="start" x="387" y="-457.4" font-family="Helvetica,sans-Serif" font-size="11.00" fill="#000000">timestamptz[35,6]</text>
<polygon fill="#ffffff" stroke="transparent" points="197,-430.7 197,-449.7 276,-449.7 276,-430.7 197,-430.7"/>
<polygon fill="none" stroke="#000000" points="197,-430.7 197,-449.7 276,-449.7 276,-430.7 197,-430.7"/>
<text text-anchor="start" x="200" y="-436.8" font-family="Helvetica,sans-Serif" font-size="11.00" fill="#000000">&lt; 1</text>
<polygon fill="#ffffff" stroke="transparent" points="276,-430.7 276,-449.7 384,-449.7 384,-430.7 276,-430.7"/>
<polygon fill="none" stroke="#000000" points="276,-430.7 276,-449.7 384,-449.7 384,-430.7 276,-430.7"/>
<text text-anchor="start" x="336.3807" y="-436.8" font-family="Helvetica,sans-Serif" font-size="11.00" fill="#000000">240 rows</text>
<polygon fill="#ffffff" stroke="transparent" points="384,-430.7 384,-449.7 503,-449.7 503,-430.7 384,-430.7"/>
<polygon fill="none" stroke="#000000" points="384,-430.7 384,-449.7 503,-449.7 503,-430.7 384,-430.7"/>
<text text-anchor="start" x="484.4053" y="-436.8" font-family="Helvetica,sans-Serif" font-size="11.00" fill="#000000">0 &gt;</text>
<polygon fill="none" stroke="#000000" stroke-width="2" points="196,-429.7 196,-605.7 504,-605.7 504,-429.7 196,-429.7"/>
</a>
</g>
</g>
<!-- arch_tl_DataCore -->
<g id="node2" class="node">
<title>arch_tl_DataCore</title>
<g id="a_node2"><a xlink:href="../../tables/arch_tl_DataCore.html" xlink:title="arch_tl_DataCore" target="_top">
<polygon fill="#ffffff" stroke="transparent" points="8,-38.2 8,-561.2 146,-561.2 146,-38.2 8,-38.2"/>
<polygon fill="#f5f5f5" stroke="transparent" points="8,-537.7 8,-560.7 146,-560.7 146,-537.7 8,-537.7"/>
<polygon fill="none" stroke="#000000" points="8,-537.7 8,-560.7 146,-560.7 146,-537.7 8,-537.7"/>
<text text-anchor="start" x="13" y="-546.3" font-family="Helvetica,sans-Serif" font-weight="bold" font-size="11.00" fill="#000000">arch_tl_DataCore</text>
<text text-anchor="start" x="111.5219" y="-545.8" font-family="Helvetica,sans-Serif" font-size="11.00" fill="#000000">[table]</text>
<polygon fill="none" stroke="#000000" points="8,-515.7 8,-537.7 146,-537.7 146,-515.7 8,-515.7"/>
<image xlink:href="../../images/primaryKeys.png" width="11px" height="12px" preserveAspectRatio="xMinYMin meet" x="13" y="-532.7"/>
<text text-anchor="start" x="37" y="-522.8" font-family="Helvetica,sans-Serif" font-size="11.00" fill="#000000">OBSID1</text>
<polygon fill="none" stroke="#000000" points="8,-493.7 8,-515.7 146,-515.7 146,-493.7 8,-493.7"/>
<image xlink:href="../../images/foreignKeys.png" width="11px" height="12px" preserveAspectRatio="xMinYMin meet" x="13" y="-510.7"/>
<text text-anchor="start" x="37" y="-500.8" font-family="Helvetica,sans-Serif" font-size="11.00" fill="#000000">SMPID</text>
<polygon fill="none" stroke="#000000" points="8,-471.7 8,-493.7 146,-493.7 146,-471.7 8,-471.7"/>
<image xlink:href="../../images/foreignKeys.png" width="11px" height="12px" preserveAspectRatio="xMinYMin meet" x="13" y="-488.7"/>
<text text-anchor="start" x="37" y="-478.8" font-family="Helvetica,sans-Serif" font-size="11.00" fill="#000000">LAB_ORIGID</text>
<polygon fill="none" stroke="#000000" points="8,-449.7 8,-471.7 146,-471.7 146,-449.7 8,-449.7"/>
<image xlink:href="../../images/foreignKeys.png" width="11px" height="12px" preserveAspectRatio="xMinYMin meet" x="13" y="-466.7"/>
<text text-anchor="start" x="37" y="-456.8" font-family="Helvetica,sans-Serif" font-size="11.00" fill="#000000">METHODID</text>
<polygon fill="none" stroke="#000000" points="8,-427.7 8,-449.7 146,-449.7 146,-427.7 8,-427.7"/>
<image xlink:href="../../images/foreignKeys.png" width="11px" height="12px" preserveAspectRatio="xMinYMin meet" x="13" y="-444.7"/>
<text text-anchor="start" x="37" y="-434.8" font-family="Helvetica,sans-Serif" font-size="11.00" fill="#000000">VERID</text>
<polygon fill="none" stroke="#000000" points="8,-405.7 8,-427.7 146,-427.7 146,-405.7 8,-405.7"/>
<image xlink:href="../../images/foreignKeys.png" width="11px" height="12px" preserveAspectRatio="xMinYMin meet" x="13" y="-422.7"/>
<text text-anchor="start" x="37" y="-412.8" font-family="Helvetica,sans-Serif" font-size="11.00" fill="#000000">REFDBID1</text>
<polygon fill="none" stroke="#000000" points="8,-383.7 8,-405.7 146,-405.7 146,-383.7 8,-383.7"/>
<image xlink:href="../../images/foreignKeys.png" width="11px" height="12px" preserveAspectRatio="xMinYMin meet" x="13" y="-400.7"/>
<text text-anchor="start" x="37" y="-390.8" font-family="Helvetica,sans-Serif" font-size="11.00" fill="#000000">REFDBID2</text>
<polygon fill="none" stroke="#000000" points="8,-361.7 8,-383.7 146,-383.7 146,-361.7 8,-361.7"/>
<image xlink:href="../../images/foreignKeys.png" width="11px" height="12px" preserveAspectRatio="xMinYMin meet" x="13" y="-378.7"/>
<text text-anchor="start" x="37" y="-368.8" font-family="Helvetica,sans-Serif" font-size="11.00" fill="#000000">REFDBID3</text>
<polygon fill="none" stroke="#000000" points="8,-339.7 8,-361.7 146,-361.7 146,-339.7 8,-339.7"/>
<image xlink:href="../../images/foreignKeys.png" width="11px" height="12px" preserveAspectRatio="xMinYMin meet" x="13" y="-356.7"/>
<text text-anchor="start" x="37" y="-346.8" font-family="Helvetica,sans-Serif" font-size="11.00" fill="#000000">REFDBID4</text>
<polygon fill="none" stroke="#000000" points="8,-317.7 8,-339.7 146,-339.7 146,-317.7 8,-317.7"/>
<image xlink:href="../../images/foreignKeys.png" width="11px" height="12px" preserveAspectRatio="xMinYMin meet" x="13" y="-334.7"/>
<text text-anchor="start" x="37" y="-324.8" font-family="Helvetica,sans-Serif" font-size="11.00" fill="#000000">COL_MTDID</text>
<polygon fill="none" stroke="#000000" points="8,-295.7 8,-317.7 146,-317.7 146,-295.7 8,-295.7"/>
<image xlink:href="../../images/foreignKeys.png" width="11px" height="12px" preserveAspectRatio="xMinYMin meet" x="13" y="-312.7"/>
<text text-anchor="start" x="37" y="-302.8" font-family="Helvetica,sans-Serif" font-size="11.00" fill="#000000">LUM_MATID</text>
<polygon fill="none" stroke="#000000" points="8,-273.7 8,-295.7 146,-295.7 146,-273.7 8,-273.7"/>
<image xlink:href="../../images/foreignKeys.png" width="11px" height="12px" preserveAspectRatio="xMinYMin meet" x="13" y="-290.7"/>
<text text-anchor="start" x="37" y="-280.8" font-family="Helvetica,sans-Serif" font-size="11.00" fill="#000000">MINERALID</text>
<polygon fill="none" stroke="#000000" points="8,-251.7 8,-273.7 146,-273.7 146,-251.7 8,-251.7"/>
<image xlink:href="../../images/foreignKeys.png" width="11px" height="12px" preserveAspectRatio="xMinYMin meet" x="13" y="-268.7"/>
<text text-anchor="start" x="37" y="-258.8" font-family="Helvetica,sans-Serif" font-size="11.00" fill="#000000">ED_PROCID</text>
<polygon fill="none" stroke="#000000" points="8,-229.7 8,-251.7 146,-251.7 146,-229.7 8,-229.7"/>
<image xlink:href="../../images/foreignKeys.png" width="11px" height="12px" preserveAspectRatio="xMinYMin meet" x="13" y="-246.7"/>
<text text-anchor="start" x="37" y="-236.8" font-family="Helvetica,sans-Serif" font-size="11.00" fill="#000000">AGEMODELID</text>
<polygon fill="none" stroke="#000000" points="8,-207.7 8,-229.7 146,-229.7 146,-207.7 8,-207.7"/>
<image xlink:href="../../images/foreignKeys.png" width="11px" height="12px" preserveAspectRatio="xMinYMin meet" x="13" y="-224.7"/>
<text text-anchor="start" x="37" y="-214.8" font-family="Helvetica,sans-Serif" font-size="11.00" fill="#000000">U_MTDID</text>
<polygon fill="none" stroke="#000000" points="8,-185.7 8,-207.7 146,-207.7 146,-185.7 8,-185.7"/>
<image xlink:href="../../images/foreignKeys.png" width="11px" height="12px" preserveAspectRatio="xMinYMin meet" x="13" y="-202.7"/>
<text text-anchor="start" x="37" y="-192.8" font-family="Helvetica,sans-Serif" font-size="11.00" fill="#000000">TH_MTDID</text>
<polygon fill="none" stroke="#000000" points="8,-163.7 8,-185.7 146,-185.7 146,-163.7 8,-163.7"/>
<image xlink:href="../../images/foreignKeys.png" width="11px" height="12px" preserveAspectRatio="xMinYMin meet" x="13" y="-180.7"/>
<text text-anchor="start" x="37" y="-170.8" font-family="Helvetica,sans-Serif" font-size="11.00" fill="#000000">U_TH_MTDID</text>
<polygon fill="none" stroke="#000000" points="8,-141.7 8,-163.7 146,-163.7 146,-141.7 8,-141.7"/>
<image xlink:href="../../images/foreignKeys.png" width="11px" height="12px" preserveAspectRatio="xMinYMin meet" x="13" y="-158.7"/>
<text text-anchor="start" x="37" y="-148.8" font-family="Helvetica,sans-Serif" font-size="11.00" fill="#000000">K_MTDID</text>
<polygon fill="none" stroke="#000000" points="8,-119.7 8,-141.7 146,-141.7 146,-119.7 8,-119.7"/>
<image xlink:href="../../images/foreignKeys.png" width="11px" height="12px" preserveAspectRatio="xMinYMin meet" x="13" y="-136.7"/>
<text text-anchor="start" x="37" y="-126.8" font-family="Helvetica,sans-Serif" font-size="11.00" fill="#000000">ALPH_MTDID</text>
<polygon fill="none" stroke="#000000" points="8,-97.7 8,-119.7 146,-119.7 146,-97.7 8,-97.7"/>
<image xlink:href="../../images/foreignKeys.png" width="11px" height="12px" preserveAspectRatio="xMinYMin meet" x="13" y="-114.7"/>
<text text-anchor="start" x="37" y="-104.8" font-family="Helvetica,sans-Serif" font-size="11.00" fill="#000000">BETA_MTDID</text>
<polygon fill="none" stroke="#000000" points="8,-75.7 8,-97.7 146,-97.7 146,-75.7 8,-75.7"/>
<image xlink:href="../../images/foreignKeys.png" width="11px" height="12px" preserveAspectRatio="xMinYMin meet" x="13" y="-92.7"/>
<text text-anchor="start" x="37" y="-82.8" font-family="Helvetica,sans-Serif" font-size="11.00" fill="#000000">GMMA_MTDID</text>
<polygon fill="none" stroke="#000000" points="8,-56.7 8,-75.7 146,-75.7 146,-56.7 8,-56.7"/>
<text text-anchor="start" x="11" y="-62.8" font-family="Helvetica,sans-Serif" font-size="11.00" fill="#000000">...</text>
<polygon fill="#ffffff" stroke="transparent" points="8,-37.7 8,-56.7 55,-56.7 55,-37.7 8,-37.7"/>
<polygon fill="none" stroke="#000000" points="8,-37.7 8,-56.7 55,-56.7 55,-37.7 8,-37.7"/>
<text text-anchor="start" x="11" y="-43.8" font-family="Helvetica,sans-Serif" font-size="11.00" fill="#000000">&lt; 20</text>
<polygon fill="#ffffff" stroke="transparent" points="55,-37.7 55,-56.7 115,-56.7 115,-37.7 55,-37.7"/>
<polygon fill="none" stroke="#000000" points="55,-37.7 55,-56.7 115,-56.7 115,-37.7 55,-37.7"/>
<text text-anchor="start" x="67.3807" y="-43.8" font-family="Helvetica,sans-Serif" font-size="11.00" fill="#000000">240 rows</text>
<polygon fill="#ffffff" stroke="transparent" points="115,-37.7 115,-56.7 146,-56.7 146,-37.7 115,-37.7"/>
<polygon fill="none" stroke="#000000" points="115,-37.7 115,-56.7 146,-56.7 146,-37.7 115,-37.7"/>
<text text-anchor="start" x="127.4053" y="-43.8" font-family="Helvetica,sans-Serif" font-size="11.00" fill="#000000">1 &gt;</text>
</a>
</g>
</g>
<!-- arch_tl_polygons_EPSG3857&#45;&gt;arch_tl_DataCore -->
<g id="edge1" class="edge">
<title>arch_tl_polygons_EPSG3857:w&#45;&gt;arch_tl_DataCore:e</title>
<path fill="none" stroke="#000000" d="M186.2307,-526.7C171.748,-526.7 164.5938,-526.7 146,-526.7"/>
<polygon fill="#000000" stroke="#000000" points="196.2,-522.7 196.2,-530.7 194.6,-530.7 194.6,-522.7 196.2,-522.7"/>
<polyline fill="none" stroke="#000000" points="197,-526.7 193,-526.7 "/>
<ellipse fill="none" stroke="#000000" cx="189.8" cy="-526.7001" rx="3.2" ry="3.2"/>
</g>
</g>
</svg>
