<?xml version="1.0" encoding="UTF-8" standalone="no"?>
<!DOCTYPE svg PUBLIC "-//W3C//DTD SVG 1.1//EN"
 "http://www.w3.org/Graphics/SVG/1.1/DTD/svg11.dtd">
<!-- Generated by graphviz version 2.40.1 (20161225.0304)
 -->
<!-- Title: oneDegreeRelationshipsDiagram Pages: 1 -->
<svg width="392pt" height="245pt"
 viewBox="0.00 0.00 392.00 244.70" xmlns="http://www.w3.org/2000/svg" xmlns:xlink="http://www.w3.org/1999/xlink">
<g id="graph0" class="graph" transform="scale(1 1) rotate(0) translate(4 240.7)">
<title>oneDegreeRelationshipsDiagram</title>
<polygon fill="#ffffff" stroke="transparent" points="-4,4 -4,-240.7 388,-240.7 388,4 -4,4"/>
<text text-anchor="middle" x="72.4936" y="-7.3" font-family="Helvetica,sans-Serif" font-size="11.00" fill="#000000">Generated by SchemaSpy</text>
<!-- c14_calcurve -->
<g id="node1" class="node">
<title>c14_calcurve</title>
<g id="a_node1"><a xlink:href="../../tables/c14_calcurve.html" xlink:title="c14_calcurve" target="_top">
<polygon fill="#ffffff" stroke="transparent" points="176,-54.7 176,-232.7 376,-232.7 376,-54.7 176,-54.7"/>
<polygon fill="#f5f5f5" stroke="transparent" points="178,-207.7 178,-230.7 374,-230.7 374,-207.7 178,-207.7"/>
<polygon fill="none" stroke="#000000" points="178,-207.7 178,-230.7 374,-230.7 374,-207.7 178,-207.7"/>
<text text-anchor="start" x="183" y="-216.8" font-family="Helvetica,sans-Serif" font-weight="bold" font-size="11.00" fill="#000000">c14_calcurve</text>
<text text-anchor="start" x="339.0437" y="-215.8" font-family="Helvetica,sans-Serif" font-size="11.00" fill="#000000">[table]</text>
<polygon fill="none" stroke="#000000" points="178,-185.7 178,-207.7 282,-207.7 282,-185.7 178,-185.7"/>
<image xlink:href="../../images/primaryKeys.png" width="11px" height="12px" preserveAspectRatio="xMinYMin meet" x="183" y="-202.7"/>
<text text-anchor="start" x="198" y="-192.8" font-family="Helvetica,sans-Serif" font-size="11.00" fill="#000000">CALCURVEID</text>
<polygon fill="none" stroke="#000000" points="282,-185.7 282,-207.7 374,-207.7 374,-185.7 282,-185.7"/>
<text text-anchor="start" x="285" y="-193.4" font-family="Helvetica,sans-Serif" font-size="11.00" fill="#000000">serial[10]</text>
<polygon fill="#ffffff" stroke="transparent" points="178,-163.7 178,-185.7 282,-185.7 282,-163.7 178,-163.7"/>
<polygon fill="none" stroke="#000000" points="178,-163.7 178,-185.7 282,-185.7 282,-163.7 178,-163.7"/>
<text text-anchor="start" x="198" y="-170.8" font-family="Helvetica,sans-Serif" font-size="11.00" fill="#000000">CALCURVE</text>
<polygon fill="none" stroke="#000000" points="282,-163.7 282,-185.7 374,-185.7 374,-163.7 282,-163.7"/>
<text text-anchor="start" x="285" y="-171.4" font-family="Helvetica,sans-Serif" font-size="11.00" fill="#000000">text[2147483647]</text>
<polygon fill="none" stroke="#000000" points="178,-141.7 178,-163.7 282,-163.7 282,-141.7 178,-141.7"/>
<image xlink:href="../../images/foreignKeys.png" width="11px" height="12px" preserveAspectRatio="xMinYMin meet" x="183" y="-158.7"/>
<text text-anchor="start" x="198" y="-148.8" font-family="Helvetica,sans-Serif" font-size="11.00" fill="#000000">CALCURVREF</text>
<polygon fill="none" stroke="#000000" points="282,-141.7 282,-163.7 374,-163.7 374,-141.7 282,-141.7"/>
<text text-anchor="start" x="285" y="-149.4" font-family="Helvetica,sans-Serif" font-size="11.00" fill="#000000">text[2147483647]</text>
<polygon fill="none" stroke="#000000" points="178,-119.7 178,-141.7 282,-141.7 282,-119.7 178,-119.7"/>
<text text-anchor="start" x="198" y="-126.8" font-family="Helvetica,sans-Serif" font-size="11.00" fill="#000000">CALCRVNOTE</text>
<polygon fill="none" stroke="#000000" points="282,-119.7 282,-141.7 374,-141.7 374,-119.7 282,-119.7"/>
<text text-anchor="start" x="285" y="-127.4" font-family="Helvetica,sans-Serif" font-size="11.00" fill="#000000">text[2147483647]</text>
<polygon fill="none" stroke="#000000" points="178,-97.7 178,-119.7 282,-119.7 282,-97.7 178,-97.7"/>
<text text-anchor="start" x="198" y="-104.8" font-family="Helvetica,sans-Serif" font-size="11.00" fill="#000000">CREATED_AT</text>
<polygon fill="none" stroke="#000000" points="282,-97.7 282,-119.7 374,-119.7 374,-97.7 282,-97.7"/>
<text text-anchor="start" x="284.6023" y="-105.4" font-family="Helvetica,sans-Serif" font-size="11.00" fill="#000000">timestamptz[35,6]</text>
<polygon fill="none" stroke="#000000" points="178,-75.7 178,-97.7 282,-97.7 282,-75.7 178,-75.7"/>
<text text-anchor="start" x="198" y="-82.8" font-family="Helvetica,sans-Serif" font-size="11.00" fill="#000000">UPDATED_AT</text>
<polygon fill="none" stroke="#000000" points="282,-75.7 282,-97.7 374,-97.7 374,-75.7 282,-75.7"/>
<text text-anchor="start" x="284.6023" y="-83.4" font-family="Helvetica,sans-Serif" font-size="11.00" fill="#000000">timestamptz[35,6]</text>
<polygon fill="#ffffff" stroke="transparent" points="178,-56.7 178,-75.7 218,-75.7 218,-56.7 178,-56.7"/>
<polygon fill="none" stroke="#000000" points="178,-56.7 178,-75.7 218,-75.7 218,-56.7 178,-56.7"/>
<text text-anchor="start" x="181" y="-62.8" font-family="Helvetica,sans-Serif" font-size="11.00" fill="#000000">&lt; 1</text>
<polygon fill="#ffffff" stroke="transparent" points="218,-56.7 218,-75.7 282,-75.7 282,-56.7 218,-56.7"/>
<polygon fill="none" stroke="#000000" points="218,-56.7 218,-75.7 282,-75.7 282,-56.7 218,-56.7"/>
<text text-anchor="start" x="240.4956" y="-62.8" font-family="Helvetica,sans-Serif" font-size="11.00" fill="#000000">20 rows</text>
<polygon fill="#ffffff" stroke="transparent" points="282,-56.7 282,-75.7 374,-75.7 374,-56.7 282,-56.7"/>
<polygon fill="none" stroke="#000000" points="282,-56.7 282,-75.7 374,-75.7 374,-56.7 282,-56.7"/>
<text text-anchor="start" x="355.4053" y="-62.8" font-family="Helvetica,sans-Serif" font-size="11.00" fill="#000000">0 &gt;</text>
<polygon fill="none" stroke="#000000" stroke-width="2" points="177,-55.7 177,-231.7 375,-231.7 375,-55.7 177,-55.7"/>
</a>
</g>
</g>
<!-- global_RefCore -->
<g id="node2" class="node">
<title>global_RefCore</title>
<g id="a_node2"><a xlink:href="../../tables/global_RefCore.html" xlink:title="global_RefCore" target="_top">
<polygon fill="#ffffff" stroke="transparent" points="8,-38.2 8,-187.2 127,-187.2 127,-38.2 8,-38.2"/>
<polygon fill="#f5f5f5" stroke="transparent" points="8.5,-163.7 8.5,-186.7 127.5,-186.7 127.5,-163.7 8.5,-163.7"/>
<polygon fill="none" stroke="#000000" points="8.5,-163.7 8.5,-186.7 127.5,-186.7 127.5,-163.7 8.5,-163.7"/>
<text text-anchor="start" x="13.2992" y="-172.8" font-family="Helvetica,sans-Serif" font-weight="bold" font-size="11.00" fill="#000000">global_RefCore</text>
<text text-anchor="start" x="93.0219" y="-171.8" font-family="Helvetica,sans-Serif" font-size="11.00" fill="#000000">[table]</text>
<polygon fill="none" stroke="#000000" points="8.5,-141.7 8.5,-163.7 127.5,-163.7 127.5,-141.7 8.5,-141.7"/>
<image xlink:href="../../images/primaryKeys.png" width="11px" height="12px" preserveAspectRatio="xMinYMin meet" x="13.5" y="-158.7"/>
<text text-anchor="start" x="33.5" y="-148.8" font-family="Helvetica,sans-Serif" font-size="11.00" fill="#000000">REFDBID</text>
<polygon fill="none" stroke="#000000" points="8.5,-119.7 8.5,-141.7 127.5,-141.7 127.5,-119.7 8.5,-119.7"/>
<image xlink:href="../../images/foreignKeys.png" width="11px" height="12px" preserveAspectRatio="xMinYMin meet" x="13.5" y="-136.7"/>
<text text-anchor="start" x="33.5" y="-126.8" font-family="Helvetica,sans-Serif" font-size="11.00" fill="#000000">OAID</text>
<polygon fill="none" stroke="#000000" points="8.5,-97.7 8.5,-119.7 127.5,-119.7 127.5,-97.7 8.5,-97.7"/>
<image xlink:href="../../images/foreignKeys.png" width="11px" height="12px" preserveAspectRatio="xMinYMin meet" x="13.5" y="-114.7"/>
<text text-anchor="start" x="33.5" y="-104.8" font-family="Helvetica,sans-Serif" font-size="11.00" fill="#000000">PUBTYPEID</text>
<polygon fill="none" stroke="#000000" points="8.5,-75.7 8.5,-97.7 127.5,-97.7 127.5,-75.7 8.5,-75.7"/>
<image xlink:href="../../images/foreignKeys.png" width="11px" height="12px" preserveAspectRatio="xMinYMin meet" x="13.5" y="-92.7"/>
<text text-anchor="start" x="33.5" y="-82.8" font-family="Helvetica,sans-Serif" font-size="11.00" fill="#000000">JOURNALID</text>
<polygon fill="none" stroke="#000000" points="8.5,-56.7 8.5,-75.7 127.5,-75.7 127.5,-56.7 8.5,-56.7"/>
<text text-anchor="start" x="11.5" y="-62.8" font-family="Helvetica,sans-Serif" font-size="11.00" fill="#000000">...</text>
<polygon fill="#ffffff" stroke="transparent" points="8.5,-37.7 8.5,-56.7 35.5,-56.7 35.5,-37.7 8.5,-37.7"/>
<polygon fill="none" stroke="#000000" points="8.5,-37.7 8.5,-56.7 35.5,-56.7 35.5,-37.7 8.5,-37.7"/>
<text text-anchor="start" x="11.5" y="-43.8" font-family="Helvetica,sans-Serif" font-size="11.00" fill="#000000">&lt; 5</text>
<polygon fill="#ffffff" stroke="transparent" points="35.5,-37.7 35.5,-56.7 97.5,-56.7 97.5,-37.7 35.5,-37.7"/>
<polygon fill="none" stroke="#000000" points="35.5,-37.7 35.5,-56.7 97.5,-56.7 97.5,-37.7 35.5,-37.7"/>
<text text-anchor="start" x="40.7089" y="-43.8" font-family="Helvetica,sans-Serif" font-size="11.00" fill="#000000">3,822 rows</text>
<polygon fill="#ffffff" stroke="transparent" points="97.5,-37.7 97.5,-56.7 127.5,-56.7 127.5,-37.7 97.5,-37.7"/>
<polygon fill="none" stroke="#000000" points="97.5,-37.7 97.5,-56.7 127.5,-56.7 127.5,-37.7 97.5,-37.7"/>
<text text-anchor="start" x="102.7904" y="-43.8" font-family="Helvetica,sans-Serif" font-size="11.00" fill="#000000">32 &gt;</text>
</a>
</g>
</g>
<!-- c14_calcurve&#45;&gt;global_RefCore -->
<g id="edge1" class="edge">
<title>c14_calcurve:w&#45;&gt;global_RefCore:e</title>
<path fill="none" stroke="#000000" d="M163.4203,-152.7C151.5435,-152.7 144.158,-152.7 127.5,-152.7"/>
<polygon fill="#000000" stroke="#000000" points="170,-152.7001 178,-156.3 174,-152.7 178,-152.7 178,-152.7 178,-152.7 174,-152.7 178,-149.1 170,-152.7001 170,-152.7001"/>
<ellipse fill="none" stroke="#000000" cx="166.8" cy="-152.7001" rx="3.2" ry="3.2"/>
</g>
</g>
</svg>
