<?xml version="1.0" encoding="UTF-8" standalone="no"?>
<!DOCTYPE svg PUBLIC "-//W3C//DTD SVG 1.1//EN"
 "http://www.w3.org/Graphics/SVG/1.1/DTD/svg11.dtd">
<!-- Generated by graphviz version 2.40.1 (20161225.0304)
 -->
<!-- Title: oneDegreeRelationshipsDiagramImplied Pages: 1 -->
<svg width="422pt" height="375pt"
 viewBox="0.00 0.00 422.00 375.20" xmlns="http://www.w3.org/2000/svg" xmlns:xlink="http://www.w3.org/1999/xlink">
<g id="graph0" class="graph" transform="scale(1 1) rotate(0) translate(4 371.2)">
<title>oneDegreeRelationshipsDiagramImplied</title>
<polygon fill="#ffffff" stroke="transparent" points="-4,4 -4,-371.2 418,-371.2 418,4 -4,4"/>
<text text-anchor="middle" x="72.4936" y="-7.3" font-family="Helvetica,sans-Serif" font-size="11.00" fill="#000000">Generated by SchemaSpy</text>
<!-- arch_c14_DataCore -->
<g id="node1" class="node">
<title>arch_c14_DataCore</title>
<g id="a_node1"><a xlink:href="../../tables/arch_c14_DataCore.html" xlink:title="arch_c14_DataCore" target="_top">
<polygon fill="#ffffff" stroke="transparent" points="255,-38.2 255,-363.2 406,-363.2 406,-38.2 255,-38.2"/>
<polygon fill="#f5f5f5" stroke="transparent" points="255.5,-339.7 255.5,-362.7 406.5,-362.7 406.5,-339.7 255.5,-339.7"/>
<polygon fill="none" stroke="#000000" points="255.5,-339.7 255.5,-362.7 406.5,-362.7 406.5,-339.7 255.5,-339.7"/>
<text text-anchor="start" x="260.5" y="-348.3" font-family="Helvetica,sans-Serif" font-weight="bold" font-size="11.00" fill="#000000">arch_c14_DataCore</text>
<text text-anchor="start" x="372.0219" y="-347.8" font-family="Helvetica,sans-Serif" font-size="11.00" fill="#000000">[table]</text>
<polygon fill="none" stroke="#000000" points="255.5,-317.7 255.5,-339.7 406.5,-339.7 406.5,-317.7 255.5,-317.7"/>
<image xlink:href="../../images/primaryKeys.png" width="11px" height="12px" preserveAspectRatio="xMinYMin meet" x="260.5" y="-334.7"/>
<text text-anchor="start" x="284.5" y="-324.8" font-family="Helvetica,sans-Serif" font-size="11.00" fill="#000000">OBSID1</text>
<polygon fill="none" stroke="#000000" points="255.5,-295.7 255.5,-317.7 406.5,-317.7 406.5,-295.7 255.5,-295.7"/>
<image xlink:href="../../images/foreignKeys.png" width="11px" height="12px" preserveAspectRatio="xMinYMin meet" x="260.5" y="-312.7"/>
<text text-anchor="start" x="284.5" y="-302.8" font-family="Helvetica,sans-Serif" font-size="11.00" fill="#000000">SMPID</text>
<polygon fill="none" stroke="#000000" points="255.5,-273.7 255.5,-295.7 406.5,-295.7 406.5,-273.7 255.5,-273.7"/>
<image xlink:href="../../images/foreignKeys.png" width="11px" height="12px" preserveAspectRatio="xMinYMin meet" x="260.5" y="-290.7"/>
<text text-anchor="start" x="284.5" y="-280.8" font-family="Helvetica,sans-Serif" font-size="11.00" fill="#000000">LAB_ORIGID</text>
<polygon fill="none" stroke="#000000" points="255.5,-251.7 255.5,-273.7 406.5,-273.7 406.5,-251.7 255.5,-251.7"/>
<image xlink:href="../../images/foreignKeys.png" width="11px" height="12px" preserveAspectRatio="xMinYMin meet" x="260.5" y="-268.7"/>
<text text-anchor="start" x="284.5" y="-258.8" font-family="Helvetica,sans-Serif" font-size="11.00" fill="#000000">COL_MTDID</text>
<polygon fill="none" stroke="#000000" points="255.5,-229.7 255.5,-251.7 406.5,-251.7 406.5,-229.7 255.5,-229.7"/>
<image xlink:href="../../images/foreignKeys.png" width="11px" height="12px" preserveAspectRatio="xMinYMin meet" x="260.5" y="-246.7"/>
<text text-anchor="start" x="284.5" y="-236.8" font-family="Helvetica,sans-Serif" font-size="11.00" fill="#000000">MATERIA1ID</text>
<polygon fill="none" stroke="#000000" points="255.5,-207.7 255.5,-229.7 406.5,-229.7 406.5,-207.7 255.5,-207.7"/>
<image xlink:href="../../images/foreignKeys.png" width="11px" height="12px" preserveAspectRatio="xMinYMin meet" x="260.5" y="-224.7"/>
<text text-anchor="start" x="284.5" y="-214.8" font-family="Helvetica,sans-Serif" font-size="11.00" fill="#000000">MATERIA2ID</text>
<polygon fill="none" stroke="#000000" points="255.5,-185.7 255.5,-207.7 406.5,-207.7 406.5,-185.7 255.5,-185.7"/>
<image xlink:href="../../images/foreignKeys.png" width="11px" height="12px" preserveAspectRatio="xMinYMin meet" x="260.5" y="-202.7"/>
<text text-anchor="start" x="284.5" y="-192.8" font-family="Helvetica,sans-Serif" font-size="11.00" fill="#000000">HUM_MODID</text>
<polygon fill="none" stroke="#000000" points="255.5,-163.7 255.5,-185.7 406.5,-185.7 406.5,-163.7 255.5,-163.7"/>
<image xlink:href="../../images/foreignKeys.png" width="11px" height="12px" preserveAspectRatio="xMinYMin meet" x="260.5" y="-180.7"/>
<text text-anchor="start" x="284.5" y="-170.8" font-family="Helvetica,sans-Serif" font-size="11.00" fill="#000000">CONTAMID</text>
<polygon fill="none" stroke="#000000" points="255.5,-141.7 255.5,-163.7 406.5,-163.7 406.5,-141.7 255.5,-141.7"/>
<image xlink:href="../../images/foreignKeys.png" width="11px" height="12px" preserveAspectRatio="xMinYMin meet" x="260.5" y="-158.7"/>
<text text-anchor="start" x="284.5" y="-148.8" font-family="Helvetica,sans-Serif" font-size="11.00" fill="#000000">CHEMPREPID</text>
<polygon fill="none" stroke="#000000" points="255.5,-119.7 255.5,-141.7 406.5,-141.7 406.5,-119.7 255.5,-119.7"/>
<image xlink:href="../../images/foreignKeys.png" width="11px" height="12px" preserveAspectRatio="xMinYMin meet" x="260.5" y="-136.7"/>
<text text-anchor="start" x="284.5" y="-126.8" font-family="Helvetica,sans-Serif" font-size="11.00" fill="#000000">SOLVENT2ID</text>
<polygon fill="none" stroke="#000000" points="255.5,-97.7 255.5,-119.7 406.5,-119.7 406.5,-97.7 255.5,-97.7"/>
<image xlink:href="../../images/foreignKeys.png" width="11px" height="12px" preserveAspectRatio="xMinYMin meet" x="260.5" y="-114.7"/>
<text text-anchor="start" x="284.5" y="-104.8" font-family="Helvetica,sans-Serif" font-size="11.00" fill="#000000">C_MTDID</text>
<polygon fill="none" stroke="#000000" points="255.5,-75.7 255.5,-97.7 406.5,-97.7 406.5,-75.7 255.5,-75.7"/>
<image xlink:href="../../images/foreignKeys.png" width="11px" height="12px" preserveAspectRatio="xMinYMin meet" x="260.5" y="-92.7"/>
<text text-anchor="start" x="284.5" y="-82.8" font-family="Helvetica,sans-Serif" font-size="11.00" fill="#000000">C13_VALID</text>
<polygon fill="none" stroke="#000000" points="255.5,-56.7 255.5,-75.7 406.5,-75.7 406.5,-56.7 255.5,-56.7"/>
<text text-anchor="start" x="258.5" y="-62.8" font-family="Helvetica,sans-Serif" font-size="11.00" fill="#000000">...</text>
<polygon fill="#ffffff" stroke="transparent" points="255.5,-37.7 255.5,-56.7 308.5,-56.7 308.5,-37.7 255.5,-37.7"/>
<polygon fill="none" stroke="#000000" points="255.5,-37.7 255.5,-56.7 308.5,-56.7 308.5,-37.7 255.5,-37.7"/>
<text text-anchor="start" x="258.5" y="-43.8" font-family="Helvetica,sans-Serif" font-size="11.00" fill="#000000">&lt; 11</text>
<polygon fill="#ffffff" stroke="transparent" points="308.5,-37.7 308.5,-56.7 380.5,-56.7 380.5,-37.7 308.5,-37.7"/>
<polygon fill="none" stroke="#000000" points="308.5,-37.7 308.5,-56.7 380.5,-56.7 380.5,-37.7 308.5,-37.7"/>
<text text-anchor="start" x="323.7089" y="-43.8" font-family="Helvetica,sans-Serif" font-size="11.00" fill="#000000">9.501 rows</text>
<polygon fill="#ffffff" stroke="transparent" points="380.5,-37.7 380.5,-56.7 406.5,-56.7 406.5,-37.7 380.5,-37.7"/>
<polygon fill="none" stroke="#000000" points="380.5,-37.7 380.5,-56.7 406.5,-56.7 406.5,-37.7 380.5,-37.7"/>
<text text-anchor="start" x="397.3862" y="-43.8" font-family="Helvetica,sans-Serif" font-size="11.00" fill="#000000"> &#160;</text>
</a>
</g>
</g>
<!-- c14_contamID -->
<g id="node2" class="node">
<title>c14_contamID</title>
<g id="a_node2"><a xlink:href="../../tables/c14_contamID.html" xlink:title="c14_contamID" target="_top">
<polygon fill="#ffffff" stroke="transparent" points="8,-76.7 8,-210.7 206,-210.7 206,-76.7 8,-76.7"/>
<polygon fill="#f5f5f5" stroke="transparent" points="10,-185.7 10,-208.7 204,-208.7 204,-185.7 10,-185.7"/>
<polygon fill="none" stroke="#000000" points="10,-185.7 10,-208.7 204,-208.7 204,-185.7 10,-185.7"/>
<text text-anchor="start" x="15" y="-194.3" font-family="Helvetica,sans-Serif" font-weight="bold" font-size="11.00" fill="#000000">c14_contamID</text>
<text text-anchor="start" x="169.0437" y="-193.8" font-family="Helvetica,sans-Serif" font-size="11.00" fill="#000000">[table]</text>
<polygon fill="none" stroke="#000000" points="10,-163.7 10,-185.7 112,-185.7 112,-163.7 10,-163.7"/>
<image xlink:href="../../images/primaryKeys.png" width="11px" height="12px" preserveAspectRatio="xMinYMin meet" x="15" y="-180.7"/>
<text text-anchor="start" x="30" y="-170.8" font-family="Helvetica,sans-Serif" font-size="11.00" fill="#000000">CONTAMID</text>
<polygon fill="none" stroke="#000000" points="112,-163.7 112,-185.7 204,-185.7 204,-163.7 112,-163.7"/>
<text text-anchor="start" x="115" y="-171.4" font-family="Helvetica,sans-Serif" font-size="11.00" fill="#000000">int2[5]</text>
<polygon fill="none" stroke="#000000" points="10,-141.7 10,-163.7 112,-163.7 112,-141.7 10,-141.7"/>
<text text-anchor="start" x="30" y="-148.8" font-family="Helvetica,sans-Serif" font-size="11.00" fill="#000000">CONTAM</text>
<polygon fill="none" stroke="#000000" points="112,-141.7 112,-163.7 204,-163.7 204,-141.7 112,-141.7"/>
<text text-anchor="start" x="115" y="-149.4" font-family="Helvetica,sans-Serif" font-size="11.00" fill="#000000">text[2147483647]</text>
<polygon fill="none" stroke="#000000" points="10,-119.7 10,-141.7 112,-141.7 112,-119.7 10,-119.7"/>
<text text-anchor="start" x="30" y="-126.8" font-family="Helvetica,sans-Serif" font-size="11.00" fill="#000000">CREATED_AT</text>
<polygon fill="none" stroke="#000000" points="112,-119.7 112,-141.7 204,-141.7 204,-119.7 112,-119.7"/>
<text text-anchor="start" x="114.6023" y="-127.4" font-family="Helvetica,sans-Serif" font-size="11.00" fill="#000000">timestamptz[35,6]</text>
<polygon fill="none" stroke="#000000" points="10,-97.7 10,-119.7 112,-119.7 112,-97.7 10,-97.7"/>
<text text-anchor="start" x="30" y="-104.8" font-family="Helvetica,sans-Serif" font-size="11.00" fill="#000000">UPDATED_AT</text>
<polygon fill="none" stroke="#000000" points="112,-97.7 112,-119.7 204,-119.7 204,-97.7 112,-97.7"/>
<text text-anchor="start" x="114.6023" y="-105.4" font-family="Helvetica,sans-Serif" font-size="11.00" fill="#000000">timestamptz[35,6]</text>
<polygon fill="#ffffff" stroke="transparent" points="10,-78.7 10,-97.7 52,-97.7 52,-78.7 10,-78.7"/>
<polygon fill="none" stroke="#000000" points="10,-78.7 10,-97.7 52,-97.7 52,-78.7 10,-78.7"/>
<text text-anchor="start" x="13" y="-84.8" font-family="Helvetica,sans-Serif" font-size="11.00" fill="#000000">&lt; 0</text>
<polygon fill="#ffffff" stroke="transparent" points="52,-78.7 52,-97.7 112,-97.7 112,-78.7 52,-78.7"/>
<polygon fill="none" stroke="#000000" points="52,-78.7 52,-97.7 112,-97.7 112,-78.7 52,-78.7"/>
<text text-anchor="start" x="76.6105" y="-84.8" font-family="Helvetica,sans-Serif" font-size="11.00" fill="#000000">7 rows</text>
<polygon fill="#ffffff" stroke="transparent" points="112,-78.7 112,-97.7 204,-97.7 204,-78.7 112,-78.7"/>
<polygon fill="none" stroke="#000000" points="112,-78.7 112,-97.7 204,-97.7 204,-78.7 112,-78.7"/>
<text text-anchor="start" x="185.4053" y="-84.8" font-family="Helvetica,sans-Serif" font-size="11.00" fill="#000000">1 &gt;</text>
<polygon fill="none" stroke="#000000" stroke-width="2" points="9,-77.7 9,-209.7 205,-209.7 205,-77.7 9,-77.7"/>
</a>
</g>
</g>
<!-- arch_c14_DataCore&#45;&gt;c14_contamID -->
<g id="edge1" class="edge">
<title>arch_c14_DataCore:w&#45;&gt;c14_contamID:e</title>
<path fill="none" stroke="#000000" stroke-dasharray="5,2" d="M241.0156,-174.7C228.6771,-174.7 221.1667,-174.7 204,-174.7"/>
<polygon fill="#000000" stroke="#000000" points="247.5,-174.7001 255.5,-178.3 251.5,-174.7 255.5,-174.7 255.5,-174.7 255.5,-174.7 251.5,-174.7 255.5,-171.1 247.5,-174.7001 247.5,-174.7001"/>
<ellipse fill="none" stroke="#000000" cx="244.3" cy="-174.7001" rx="3.2" ry="3.2"/>
</g>
</g>
</svg>
