<?xml version="1.0" encoding="UTF-8" standalone="no"?>
<!DOCTYPE svg PUBLIC "-//W3C//DTD SVG 1.1//EN"
 "http://www.w3.org/Graphics/SVG/1.1/DTD/svg11.dtd">
<!-- Generated by graphviz version 2.40.1 (20161225.0304)
 -->
<!-- Title: oneDegreeRelationshipsDiagram Pages: 1 -->
<svg width="400pt" height="245pt"
 viewBox="0.00 0.00 400.00 244.70" xmlns="http://www.w3.org/2000/svg" xmlns:xlink="http://www.w3.org/1999/xlink">
<g id="graph0" class="graph" transform="scale(1 1) rotate(0) translate(4 240.7)">
<title>oneDegreeRelationshipsDiagram</title>
<polygon fill="#ffffff" stroke="transparent" points="-4,4 -4,-240.7 396,-240.7 396,4 -4,4"/>
<text text-anchor="middle" x="72.4936" y="-7.3" font-family="Helvetica,sans-Serif" font-size="11.00" fill="#000000">Generated by SchemaSpy</text>
<!-- c14_calcurve -->
<g id="node1" class="node">
<title>c14_calcurve</title>
<g id="a_node1"><a xlink:href="../../tables/c14_calcurve.html" xlink:title="c14_calcurve" target="_top">
<polygon fill="#ffffff" stroke="transparent" points="184,-54.7 184,-232.7 384,-232.7 384,-54.7 184,-54.7"/>
<polygon fill="#f5f5f5" stroke="transparent" points="186,-207.7 186,-230.7 382,-230.7 382,-207.7 186,-207.7"/>
<polygon fill="none" stroke="#000000" points="186,-207.7 186,-230.7 382,-230.7 382,-207.7 186,-207.7"/>
<text text-anchor="start" x="191" y="-216.3" font-family="Helvetica,sans-Serif" font-weight="bold" font-size="11.00" fill="#000000">c14_calcurve</text>
<text text-anchor="start" x="347.0437" y="-215.8" font-family="Helvetica,sans-Serif" font-size="11.00" fill="#000000">[table]</text>
<polygon fill="none" stroke="#000000" points="186,-185.7 186,-207.7 290,-207.7 290,-185.7 186,-185.7"/>
<image xlink:href="../../images/primaryKeys.png" width="11px" height="12px" preserveAspectRatio="xMinYMin meet" x="191" y="-202.7"/>
<text text-anchor="start" x="206" y="-192.8" font-family="Helvetica,sans-Serif" font-size="11.00" fill="#000000">CALCURVEID</text>
<polygon fill="none" stroke="#000000" points="290,-185.7 290,-207.7 382,-207.7 382,-185.7 290,-185.7"/>
<text text-anchor="start" x="293" y="-193.4" font-family="Helvetica,sans-Serif" font-size="11.00" fill="#000000">serial[10]</text>
<polygon fill="#ffffff" stroke="transparent" points="186,-163.7 186,-185.7 290,-185.7 290,-163.7 186,-163.7"/>
<polygon fill="none" stroke="#000000" points="186,-163.7 186,-185.7 290,-185.7 290,-163.7 186,-163.7"/>
<text text-anchor="start" x="206" y="-170.8" font-family="Helvetica,sans-Serif" font-size="11.00" fill="#000000">CALCURVE</text>
<polygon fill="none" stroke="#000000" points="290,-163.7 290,-185.7 382,-185.7 382,-163.7 290,-163.7"/>
<text text-anchor="start" x="293" y="-171.4" font-family="Helvetica,sans-Serif" font-size="11.00" fill="#000000">text[2147483647]</text>
<polygon fill="none" stroke="#000000" points="186,-141.7 186,-163.7 290,-163.7 290,-141.7 186,-141.7"/>
<image xlink:href="../../images/foreignKeys.png" width="11px" height="12px" preserveAspectRatio="xMinYMin meet" x="191" y="-158.7"/>
<text text-anchor="start" x="206" y="-148.8" font-family="Helvetica,sans-Serif" font-size="11.00" fill="#000000">CALCURVREF</text>
<polygon fill="none" stroke="#000000" points="290,-141.7 290,-163.7 382,-163.7 382,-141.7 290,-141.7"/>
<text text-anchor="start" x="293" y="-149.4" font-family="Helvetica,sans-Serif" font-size="11.00" fill="#000000">text[2147483647]</text>
<polygon fill="none" stroke="#000000" points="186,-119.7 186,-141.7 290,-141.7 290,-119.7 186,-119.7"/>
<text text-anchor="start" x="206" y="-126.8" font-family="Helvetica,sans-Serif" font-size="11.00" fill="#000000">CALCRVNOTE</text>
<polygon fill="none" stroke="#000000" points="290,-119.7 290,-141.7 382,-141.7 382,-119.7 290,-119.7"/>
<text text-anchor="start" x="293" y="-127.4" font-family="Helvetica,sans-Serif" font-size="11.00" fill="#000000">text[2147483647]</text>
<polygon fill="none" stroke="#000000" points="186,-97.7 186,-119.7 290,-119.7 290,-97.7 186,-97.7"/>
<text text-anchor="start" x="206" y="-104.8" font-family="Helvetica,sans-Serif" font-size="11.00" fill="#000000">CREATED_AT</text>
<polygon fill="none" stroke="#000000" points="290,-97.7 290,-119.7 382,-119.7 382,-97.7 290,-97.7"/>
<text text-anchor="start" x="292.6023" y="-105.4" font-family="Helvetica,sans-Serif" font-size="11.00" fill="#000000">timestamptz[35,6]</text>
<polygon fill="none" stroke="#000000" points="186,-75.7 186,-97.7 290,-97.7 290,-75.7 186,-75.7"/>
<text text-anchor="start" x="206" y="-82.8" font-family="Helvetica,sans-Serif" font-size="11.00" fill="#000000">UPDATED_AT</text>
<polygon fill="none" stroke="#000000" points="290,-75.7 290,-97.7 382,-97.7 382,-75.7 290,-75.7"/>
<text text-anchor="start" x="292.6023" y="-83.4" font-family="Helvetica,sans-Serif" font-size="11.00" fill="#000000">timestamptz[35,6]</text>
<polygon fill="#ffffff" stroke="transparent" points="186,-56.7 186,-75.7 229,-75.7 229,-56.7 186,-56.7"/>
<polygon fill="none" stroke="#000000" points="186,-56.7 186,-75.7 229,-75.7 229,-56.7 186,-56.7"/>
<text text-anchor="start" x="189" y="-62.8" font-family="Helvetica,sans-Serif" font-size="11.00" fill="#000000">&lt; 1</text>
<polygon fill="#ffffff" stroke="transparent" points="229,-56.7 229,-75.7 290,-75.7 290,-56.7 229,-56.7"/>
<polygon fill="none" stroke="#000000" points="229,-56.7 229,-75.7 290,-75.7 290,-56.7 229,-56.7"/>
<text text-anchor="start" x="254.6105" y="-62.8" font-family="Helvetica,sans-Serif" font-size="11.00" fill="#000000">0 rows</text>
<polygon fill="#ffffff" stroke="transparent" points="290,-56.7 290,-75.7 382,-75.7 382,-56.7 290,-56.7"/>
<polygon fill="none" stroke="#000000" points="290,-56.7 290,-75.7 382,-75.7 382,-56.7 290,-56.7"/>
<text text-anchor="start" x="363.4053" y="-62.8" font-family="Helvetica,sans-Serif" font-size="11.00" fill="#000000">0 &gt;</text>
<polygon fill="none" stroke="#000000" stroke-width="2" points="185,-55.7 185,-231.7 383,-231.7 383,-55.7 185,-55.7"/>
</a>
</g>
</g>
<!-- global_RefCore -->
<g id="node2" class="node">
<title>global_RefCore</title>
<g id="a_node2"><a xlink:href="../../tables/global_RefCore.html" xlink:title="global_RefCore" target="_top">
<polygon fill="#ffffff" stroke="transparent" points="8,-38.2 8,-187.2 135,-187.2 135,-38.2 8,-38.2"/>
<polygon fill="#f5f5f5" stroke="transparent" points="8.5,-163.7 8.5,-186.7 135.5,-186.7 135.5,-163.7 8.5,-163.7"/>
<polygon fill="none" stroke="#000000" points="8.5,-163.7 8.5,-186.7 135.5,-186.7 135.5,-163.7 8.5,-163.7"/>
<text text-anchor="start" x="13.5" y="-172.3" font-family="Helvetica,sans-Serif" font-weight="bold" font-size="11.00" fill="#000000">global_RefCore</text>
<text text-anchor="start" x="101.0219" y="-171.8" font-family="Helvetica,sans-Serif" font-size="11.00" fill="#000000">[table]</text>
<polygon fill="none" stroke="#000000" points="8.5,-141.7 8.5,-163.7 135.5,-163.7 135.5,-141.7 8.5,-141.7"/>
<image xlink:href="../../images/primaryKeys.png" width="11px" height="12px" preserveAspectRatio="xMinYMin meet" x="13.5" y="-158.7"/>
<text text-anchor="start" x="37.5" y="-148.8" font-family="Helvetica,sans-Serif" font-size="11.00" fill="#000000">REFDBID</text>
<polygon fill="none" stroke="#000000" points="8.5,-119.7 8.5,-141.7 135.5,-141.7 135.5,-119.7 8.5,-119.7"/>
<image xlink:href="../../images/foreignKeys.png" width="11px" height="12px" preserveAspectRatio="xMinYMin meet" x="13.5" y="-136.7"/>
<text text-anchor="start" x="37.5" y="-126.8" font-family="Helvetica,sans-Serif" font-size="11.00" fill="#000000">OAID</text>
<polygon fill="none" stroke="#000000" points="8.5,-97.7 8.5,-119.7 135.5,-119.7 135.5,-97.7 8.5,-97.7"/>
<image xlink:href="../../images/foreignKeys.png" width="11px" height="12px" preserveAspectRatio="xMinYMin meet" x="13.5" y="-114.7"/>
<text text-anchor="start" x="37.5" y="-104.8" font-family="Helvetica,sans-Serif" font-size="11.00" fill="#000000">PUBTYPEID</text>
<polygon fill="none" stroke="#000000" points="8.5,-75.7 8.5,-97.7 135.5,-97.7 135.5,-75.7 8.5,-75.7"/>
<image xlink:href="../../images/foreignKeys.png" width="11px" height="12px" preserveAspectRatio="xMinYMin meet" x="13.5" y="-92.7"/>
<text text-anchor="start" x="37.5" y="-82.8" font-family="Helvetica,sans-Serif" font-size="11.00" fill="#000000">JOURNALID</text>
<polygon fill="none" stroke="#000000" points="8.5,-56.7 8.5,-75.7 135.5,-75.7 135.5,-56.7 8.5,-56.7"/>
<text text-anchor="start" x="11.5" y="-62.8" font-family="Helvetica,sans-Serif" font-size="11.00" fill="#000000">...</text>
<polygon fill="#ffffff" stroke="transparent" points="8.5,-37.7 8.5,-56.7 39.5,-56.7 39.5,-37.7 8.5,-37.7"/>
<polygon fill="none" stroke="#000000" points="8.5,-37.7 8.5,-56.7 39.5,-56.7 39.5,-37.7 8.5,-37.7"/>
<text text-anchor="start" x="11.5" y="-43.8" font-family="Helvetica,sans-Serif" font-size="11.00" fill="#000000">&lt; 5</text>
<polygon fill="#ffffff" stroke="transparent" points="39.5,-37.7 39.5,-56.7 103.5,-56.7 103.5,-37.7 39.5,-37.7"/>
<polygon fill="none" stroke="#000000" points="39.5,-37.7 39.5,-56.7 103.5,-56.7 103.5,-37.7 39.5,-37.7"/>
<text text-anchor="start" x="46.7089" y="-43.8" font-family="Helvetica,sans-Serif" font-size="11.00" fill="#000000">3.860 rows</text>
<polygon fill="#ffffff" stroke="transparent" points="103.5,-37.7 103.5,-56.7 135.5,-56.7 135.5,-37.7 103.5,-37.7"/>
<polygon fill="none" stroke="#000000" points="103.5,-37.7 103.5,-56.7 135.5,-56.7 135.5,-37.7 103.5,-37.7"/>
<text text-anchor="start" x="110.7904" y="-43.8" font-family="Helvetica,sans-Serif" font-size="11.00" fill="#000000">32 &gt;</text>
</a>
</g>
</g>
<!-- c14_calcurve&#45;&gt;global_RefCore -->
<g id="edge1" class="edge">
<title>c14_calcurve:w&#45;&gt;global_RefCore:e</title>
<path fill="none" stroke="#000000" d="M171.4203,-152.7C159.5435,-152.7 152.158,-152.7 135.5,-152.7"/>
<polygon fill="#000000" stroke="#000000" points="178,-152.7001 186,-156.3 182,-152.7 186,-152.7 186,-152.7 186,-152.7 182,-152.7 186,-149.1 178,-152.7001 178,-152.7001"/>
<ellipse fill="none" stroke="#000000" cx="174.8" cy="-152.7001" rx="3.2" ry="3.2"/>
</g>
</g>
</svg>
