<?xml version="1.0" encoding="UTF-8" standalone="no"?>
<!DOCTYPE svg PUBLIC "-//W3C//DTD SVG 1.1//EN"
 "http://www.w3.org/Graphics/SVG/1.1/DTD/svg11.dtd">
<!-- Generated by graphviz version 2.40.1 (20161225.0304)
 -->
<!-- Title: oneDegreeRelationshipsDiagramImplied Pages: 1 -->
<svg width="428pt" height="403pt"
 viewBox="0.00 0.00 428.00 402.70" xmlns="http://www.w3.org/2000/svg" xmlns:xlink="http://www.w3.org/1999/xlink">
<g id="graph0" class="graph" transform="scale(1 1) rotate(0) translate(4 398.7)">
<title>oneDegreeRelationshipsDiagramImplied</title>
<polygon fill="#ffffff" stroke="transparent" points="-4,4 -4,-398.7 424,-398.7 424,4 -4,4"/>
<text text-anchor="middle" x="72.4936" y="-7.3" font-family="Helvetica,sans-Serif" font-size="11.00" fill="#000000">Generated by SchemaSpy</text>
<!-- arch_c14_DataCore -->
<g id="node1" class="node">
<title>arch_c14_DataCore</title>
<g id="a_node1"><a xlink:href="../../tables/arch_c14_DataCore.html" xlink:title="arch_c14_DataCore" target="_top">
<polygon fill="#ffffff" stroke="transparent" points="261,-65.7 261,-390.7 412,-390.7 412,-65.7 261,-65.7"/>
<polygon fill="#f5f5f5" stroke="transparent" points="261.5,-367.2 261.5,-390.2 412.5,-390.2 412.5,-367.2 261.5,-367.2"/>
<polygon fill="none" stroke="#000000" points="261.5,-367.2 261.5,-390.2 412.5,-390.2 412.5,-367.2 261.5,-367.2"/>
<text text-anchor="start" x="266.5" y="-375.8" font-family="Helvetica,sans-Serif" font-weight="bold" font-size="11.00" fill="#000000">arch_c14_DataCore</text>
<text text-anchor="start" x="378.0219" y="-375.3" font-family="Helvetica,sans-Serif" font-size="11.00" fill="#000000">[table]</text>
<polygon fill="none" stroke="#000000" points="261.5,-345.2 261.5,-367.2 412.5,-367.2 412.5,-345.2 261.5,-345.2"/>
<image xlink:href="../../images/primaryKeys.png" width="11px" height="12px" preserveAspectRatio="xMinYMin meet" x="266.5" y="-362.2"/>
<text text-anchor="start" x="290.5" y="-352.3" font-family="Helvetica,sans-Serif" font-size="11.00" fill="#000000">OBSID1</text>
<polygon fill="none" stroke="#000000" points="261.5,-323.2 261.5,-345.2 412.5,-345.2 412.5,-323.2 261.5,-323.2"/>
<image xlink:href="../../images/foreignKeys.png" width="11px" height="12px" preserveAspectRatio="xMinYMin meet" x="266.5" y="-340.2"/>
<text text-anchor="start" x="290.5" y="-330.3" font-family="Helvetica,sans-Serif" font-size="11.00" fill="#000000">SMPID</text>
<polygon fill="none" stroke="#000000" points="261.5,-301.2 261.5,-323.2 412.5,-323.2 412.5,-301.2 261.5,-301.2"/>
<image xlink:href="../../images/foreignKeys.png" width="11px" height="12px" preserveAspectRatio="xMinYMin meet" x="266.5" y="-318.2"/>
<text text-anchor="start" x="290.5" y="-308.3" font-family="Helvetica,sans-Serif" font-size="11.00" fill="#000000">LAB_ORIGID</text>
<polygon fill="none" stroke="#000000" points="261.5,-279.2 261.5,-301.2 412.5,-301.2 412.5,-279.2 261.5,-279.2"/>
<image xlink:href="../../images/foreignKeys.png" width="11px" height="12px" preserveAspectRatio="xMinYMin meet" x="266.5" y="-296.2"/>
<text text-anchor="start" x="290.5" y="-286.3" font-family="Helvetica,sans-Serif" font-size="11.00" fill="#000000">COL_MTDID</text>
<polygon fill="none" stroke="#000000" points="261.5,-257.2 261.5,-279.2 412.5,-279.2 412.5,-257.2 261.5,-257.2"/>
<image xlink:href="../../images/foreignKeys.png" width="11px" height="12px" preserveAspectRatio="xMinYMin meet" x="266.5" y="-274.2"/>
<text text-anchor="start" x="290.5" y="-264.3" font-family="Helvetica,sans-Serif" font-size="11.00" fill="#000000">MATERIA1ID</text>
<polygon fill="none" stroke="#000000" points="261.5,-235.2 261.5,-257.2 412.5,-257.2 412.5,-235.2 261.5,-235.2"/>
<image xlink:href="../../images/foreignKeys.png" width="11px" height="12px" preserveAspectRatio="xMinYMin meet" x="266.5" y="-252.2"/>
<text text-anchor="start" x="290.5" y="-242.3" font-family="Helvetica,sans-Serif" font-size="11.00" fill="#000000">MATERIA2ID</text>
<polygon fill="none" stroke="#000000" points="261.5,-213.2 261.5,-235.2 412.5,-235.2 412.5,-213.2 261.5,-213.2"/>
<image xlink:href="../../images/foreignKeys.png" width="11px" height="12px" preserveAspectRatio="xMinYMin meet" x="266.5" y="-230.2"/>
<text text-anchor="start" x="290.5" y="-220.3" font-family="Helvetica,sans-Serif" font-size="11.00" fill="#000000">HUM_MODID</text>
<polygon fill="none" stroke="#000000" points="261.5,-191.2 261.5,-213.2 412.5,-213.2 412.5,-191.2 261.5,-191.2"/>
<image xlink:href="../../images/foreignKeys.png" width="11px" height="12px" preserveAspectRatio="xMinYMin meet" x="266.5" y="-208.2"/>
<text text-anchor="start" x="290.5" y="-198.3" font-family="Helvetica,sans-Serif" font-size="11.00" fill="#000000">CONTAMID</text>
<polygon fill="none" stroke="#000000" points="261.5,-169.2 261.5,-191.2 412.5,-191.2 412.5,-169.2 261.5,-169.2"/>
<image xlink:href="../../images/foreignKeys.png" width="11px" height="12px" preserveAspectRatio="xMinYMin meet" x="266.5" y="-186.2"/>
<text text-anchor="start" x="290.5" y="-176.3" font-family="Helvetica,sans-Serif" font-size="11.00" fill="#000000">CHEMPREPID</text>
<polygon fill="none" stroke="#000000" points="261.5,-147.2 261.5,-169.2 412.5,-169.2 412.5,-147.2 261.5,-147.2"/>
<image xlink:href="../../images/foreignKeys.png" width="11px" height="12px" preserveAspectRatio="xMinYMin meet" x="266.5" y="-164.2"/>
<text text-anchor="start" x="290.5" y="-154.3" font-family="Helvetica,sans-Serif" font-size="11.00" fill="#000000">SOLVENT2ID</text>
<polygon fill="none" stroke="#000000" points="261.5,-125.2 261.5,-147.2 412.5,-147.2 412.5,-125.2 261.5,-125.2"/>
<image xlink:href="../../images/foreignKeys.png" width="11px" height="12px" preserveAspectRatio="xMinYMin meet" x="266.5" y="-142.2"/>
<text text-anchor="start" x="290.5" y="-132.3" font-family="Helvetica,sans-Serif" font-size="11.00" fill="#000000">C_MTDID</text>
<polygon fill="none" stroke="#000000" points="261.5,-103.2 261.5,-125.2 412.5,-125.2 412.5,-103.2 261.5,-103.2"/>
<image xlink:href="../../images/foreignKeys.png" width="11px" height="12px" preserveAspectRatio="xMinYMin meet" x="266.5" y="-120.2"/>
<text text-anchor="start" x="290.5" y="-110.3" font-family="Helvetica,sans-Serif" font-size="11.00" fill="#000000">C13_VALID</text>
<polygon fill="none" stroke="#000000" points="261.5,-84.2 261.5,-103.2 412.5,-103.2 412.5,-84.2 261.5,-84.2"/>
<text text-anchor="start" x="264.5" y="-90.3" font-family="Helvetica,sans-Serif" font-size="11.00" fill="#000000">...</text>
<polygon fill="#ffffff" stroke="transparent" points="261.5,-65.2 261.5,-84.2 314.5,-84.2 314.5,-65.2 261.5,-65.2"/>
<polygon fill="none" stroke="#000000" points="261.5,-65.2 261.5,-84.2 314.5,-84.2 314.5,-65.2 261.5,-65.2"/>
<text text-anchor="start" x="264.5" y="-71.3" font-family="Helvetica,sans-Serif" font-size="11.00" fill="#000000">&lt; 11</text>
<polygon fill="#ffffff" stroke="transparent" points="314.5,-65.2 314.5,-84.2 386.5,-84.2 386.5,-65.2 314.5,-65.2"/>
<polygon fill="none" stroke="#000000" points="314.5,-65.2 314.5,-84.2 386.5,-84.2 386.5,-65.2 314.5,-65.2"/>
<text text-anchor="start" x="329.7089" y="-71.3" font-family="Helvetica,sans-Serif" font-size="11.00" fill="#000000">9.501 rows</text>
<polygon fill="#ffffff" stroke="transparent" points="386.5,-65.2 386.5,-84.2 412.5,-84.2 412.5,-65.2 386.5,-65.2"/>
<polygon fill="none" stroke="#000000" points="386.5,-65.2 386.5,-84.2 412.5,-84.2 412.5,-65.2 386.5,-65.2"/>
<text text-anchor="start" x="403.3862" y="-71.3" font-family="Helvetica,sans-Serif" font-size="11.00" fill="#000000"> &#160;</text>
</a>
</g>
</g>
<!-- c14_solvent2ID -->
<g id="node2" class="node">
<title>c14_solvent2ID</title>
<g id="a_node2"><a xlink:href="../../tables/c14_solvent2ID.html" xlink:title="c14_solvent2ID" target="_top">
<polygon fill="#ffffff" stroke="transparent" points="8,-38.2 8,-194.2 212,-194.2 212,-38.2 8,-38.2"/>
<polygon fill="#f5f5f5" stroke="transparent" points="10,-169.2 10,-192.2 210,-192.2 210,-169.2 10,-169.2"/>
<polygon fill="none" stroke="#000000" points="10,-169.2 10,-192.2 210,-192.2 210,-169.2 10,-169.2"/>
<text text-anchor="start" x="15" y="-177.8" font-family="Helvetica,sans-Serif" font-weight="bold" font-size="11.00" fill="#000000">c14_solvent2ID</text>
<text text-anchor="start" x="175.0437" y="-177.3" font-family="Helvetica,sans-Serif" font-size="11.00" fill="#000000">[table]</text>
<polygon fill="none" stroke="#000000" points="10,-147.2 10,-169.2 118,-169.2 118,-147.2 10,-147.2"/>
<image xlink:href="../../images/primaryKeys.png" width="11px" height="12px" preserveAspectRatio="xMinYMin meet" x="15" y="-164.2"/>
<text text-anchor="start" x="30" y="-154.3" font-family="Helvetica,sans-Serif" font-size="11.00" fill="#000000">SOLVENT2ID</text>
<polygon fill="none" stroke="#000000" points="118,-147.2 118,-169.2 210,-169.2 210,-147.2 118,-147.2"/>
<text text-anchor="start" x="121" y="-154.9" font-family="Helvetica,sans-Serif" font-size="11.00" fill="#000000">int2[5]</text>
<polygon fill="#ffffff" stroke="transparent" points="10,-125.2 10,-147.2 118,-147.2 118,-125.2 10,-125.2"/>
<polygon fill="none" stroke="#000000" points="10,-125.2 10,-147.2 118,-147.2 118,-125.2 10,-125.2"/>
<text text-anchor="start" x="30" y="-132.3" font-family="Helvetica,sans-Serif" font-size="11.00" fill="#000000">SOLVENT2</text>
<polygon fill="none" stroke="#000000" points="118,-125.2 118,-147.2 210,-147.2 210,-125.2 118,-125.2"/>
<text text-anchor="start" x="121" y="-132.9" font-family="Helvetica,sans-Serif" font-size="11.00" fill="#000000">text[2147483647]</text>
<polygon fill="#ffffff" stroke="transparent" points="10,-103.2 10,-125.2 118,-125.2 118,-103.2 10,-103.2"/>
<polygon fill="none" stroke="#000000" points="10,-103.2 10,-125.2 118,-125.2 118,-103.2 10,-103.2"/>
<text text-anchor="start" x="30" y="-110.3" font-family="Helvetica,sans-Serif" font-size="11.00" fill="#000000">SOLVENT2AB</text>
<polygon fill="none" stroke="#000000" points="118,-103.2 118,-125.2 210,-125.2 210,-103.2 118,-103.2"/>
<text text-anchor="start" x="121" y="-110.9" font-family="Helvetica,sans-Serif" font-size="11.00" fill="#000000">text[2147483647]</text>
<polygon fill="none" stroke="#000000" points="10,-81.2 10,-103.2 118,-103.2 118,-81.2 10,-81.2"/>
<text text-anchor="start" x="30" y="-88.3" font-family="Helvetica,sans-Serif" font-size="11.00" fill="#000000">CREATED_AT</text>
<polygon fill="none" stroke="#000000" points="118,-81.2 118,-103.2 210,-103.2 210,-81.2 118,-81.2"/>
<text text-anchor="start" x="120.6023" y="-88.9" font-family="Helvetica,sans-Serif" font-size="11.00" fill="#000000">timestamptz[35,6]</text>
<polygon fill="none" stroke="#000000" points="10,-59.2 10,-81.2 118,-81.2 118,-59.2 10,-59.2"/>
<text text-anchor="start" x="30" y="-66.3" font-family="Helvetica,sans-Serif" font-size="11.00" fill="#000000">UPDATED_AT</text>
<polygon fill="none" stroke="#000000" points="118,-59.2 118,-81.2 210,-81.2 210,-59.2 118,-59.2"/>
<text text-anchor="start" x="120.6023" y="-66.9" font-family="Helvetica,sans-Serif" font-size="11.00" fill="#000000">timestamptz[35,6]</text>
<polygon fill="#ffffff" stroke="transparent" points="10,-40.2 10,-59.2 52,-59.2 52,-40.2 10,-40.2"/>
<polygon fill="none" stroke="#000000" points="10,-40.2 10,-59.2 52,-59.2 52,-40.2 10,-40.2"/>
<text text-anchor="start" x="13" y="-46.3" font-family="Helvetica,sans-Serif" font-size="11.00" fill="#000000">&lt; 0</text>
<polygon fill="#ffffff" stroke="transparent" points="52,-40.2 52,-59.2 118,-59.2 118,-40.2 52,-40.2"/>
<polygon fill="none" stroke="#000000" points="52,-40.2 52,-59.2 118,-59.2 118,-40.2 52,-40.2"/>
<text text-anchor="start" x="76.4956" y="-46.3" font-family="Helvetica,sans-Serif" font-size="11.00" fill="#000000">10 rows</text>
<polygon fill="#ffffff" stroke="transparent" points="118,-40.2 118,-59.2 210,-59.2 210,-40.2 118,-40.2"/>
<polygon fill="none" stroke="#000000" points="118,-40.2 118,-59.2 210,-59.2 210,-40.2 118,-40.2"/>
<text text-anchor="start" x="191.4053" y="-46.3" font-family="Helvetica,sans-Serif" font-size="11.00" fill="#000000">1 &gt;</text>
<polygon fill="none" stroke="#000000" stroke-width="2" points="9,-39.2 9,-193.2 211,-193.2 211,-39.2 9,-39.2"/>
</a>
</g>
</g>
<!-- arch_c14_DataCore&#45;&gt;c14_solvent2ID -->
<g id="edge1" class="edge">
<title>arch_c14_DataCore:w&#45;&gt;c14_solvent2ID:e</title>
<path fill="none" stroke="#000000" stroke-dasharray="5,2" d="M247.0156,-158.2C234.6771,-158.2 227.1667,-158.2 210,-158.2"/>
<polygon fill="#000000" stroke="#000000" points="253.5,-158.2001 261.5,-161.8 257.5,-158.2 261.5,-158.2 261.5,-158.2 261.5,-158.2 257.5,-158.2 261.5,-154.6 253.5,-158.2001 253.5,-158.2001"/>
<ellipse fill="none" stroke="#000000" cx="250.3" cy="-158.2001" rx="3.2" ry="3.2"/>
</g>
</g>
</svg>
