<?xml version="1.0" encoding="UTF-8" standalone="no"?>
<!DOCTYPE svg PUBLIC "-//W3C//DTD SVG 1.1//EN"
 "http://www.w3.org/Graphics/SVG/1.1/DTD/svg11.dtd">
<!-- Generated by graphviz version 2.40.1 (20161225.0304)
 -->
<!-- Title: oneDegreeRelationshipsDiagram Pages: 1 -->
<svg width="453pt" height="1117pt"
 viewBox="0.00 0.00 453.34 1117.20" xmlns="http://www.w3.org/2000/svg" xmlns:xlink="http://www.w3.org/1999/xlink">
<g id="graph0" class="graph" transform="scale(1 1) rotate(0) translate(4 1113.2)">
<title>oneDegreeRelationshipsDiagram</title>
<polygon fill="#ffffff" stroke="transparent" points="-4,4 -4,-1113.2 449.3448,-1113.2 449.3448,4 -4,4"/>
<text text-anchor="middle" x="72.4936" y="-7.3" font-family="Helvetica,sans-Serif" font-size="11.00" fill="#000000">Generated by SchemaSpy</text>
<!-- arch_c14_DataCore -->
<g id="node1" class="node">
<title>arch_c14_DataCore</title>
<g id="a_node1"><a xlink:href="../../tables/arch_c14_DataCore.html" xlink:title="arch_c14_DataCore" target="_top">
<polygon fill="#ffffff" stroke="transparent" points="286.3448,-494.2 286.3448,-1105.2 437.3448,-1105.2 437.3448,-494.2 286.3448,-494.2"/>
<polygon fill="#f5f5f5" stroke="transparent" points="286.8448,-1081.7 286.8448,-1104.7 437.8448,-1104.7 437.8448,-1081.7 286.8448,-1081.7"/>
<polygon fill="none" stroke="#000000" points="286.8448,-1081.7 286.8448,-1104.7 437.8448,-1104.7 437.8448,-1081.7 286.8448,-1081.7"/>
<text text-anchor="start" x="291.8448" y="-1090.3" font-family="Helvetica,sans-Serif" font-weight="bold" font-size="11.00" fill="#000000">arch_c14_DataCore</text>
<text text-anchor="start" x="403.3666" y="-1089.8" font-family="Helvetica,sans-Serif" font-size="11.00" fill="#000000">[table]</text>
<polygon fill="none" stroke="#000000" points="286.8448,-1059.7 286.8448,-1081.7 437.8448,-1081.7 437.8448,-1059.7 286.8448,-1059.7"/>
<image xlink:href="../../images/primaryKeys.png" width="11px" height="12px" preserveAspectRatio="xMinYMin meet" x="291.845" y="-1076.7"/>
<text text-anchor="start" x="315.8448" y="-1066.8" font-family="Helvetica,sans-Serif" font-size="11.00" fill="#000000">OBSID1</text>
<polygon fill="none" stroke="#000000" points="286.8448,-1037.7 286.8448,-1059.7 437.8448,-1059.7 437.8448,-1037.7 286.8448,-1037.7"/>
<image xlink:href="../../images/foreignKeys.png" width="11px" height="12px" preserveAspectRatio="xMinYMin meet" x="291.845" y="-1054.7"/>
<text text-anchor="start" x="315.8448" y="-1044.8" font-family="Helvetica,sans-Serif" font-size="11.00" fill="#000000">SMPID</text>
<polygon fill="none" stroke="#000000" points="286.8448,-1015.7 286.8448,-1037.7 437.8448,-1037.7 437.8448,-1015.7 286.8448,-1015.7"/>
<image xlink:href="../../images/foreignKeys.png" width="11px" height="12px" preserveAspectRatio="xMinYMin meet" x="291.845" y="-1032.7"/>
<text text-anchor="start" x="315.8448" y="-1022.8" font-family="Helvetica,sans-Serif" font-size="11.00" fill="#000000">LAB_ORIGID</text>
<polygon fill="none" stroke="#000000" points="286.8448,-993.7 286.8448,-1015.7 437.8448,-1015.7 437.8448,-993.7 286.8448,-993.7"/>
<image xlink:href="../../images/foreignKeys.png" width="11px" height="12px" preserveAspectRatio="xMinYMin meet" x="291.845" y="-1010.7"/>
<text text-anchor="start" x="315.8448" y="-1000.8" font-family="Helvetica,sans-Serif" font-size="11.00" fill="#000000">METHODID</text>
<polygon fill="none" stroke="#000000" points="286.8448,-971.7 286.8448,-993.7 437.8448,-993.7 437.8448,-971.7 286.8448,-971.7"/>
<image xlink:href="../../images/foreignKeys.png" width="11px" height="12px" preserveAspectRatio="xMinYMin meet" x="291.845" y="-988.7"/>
<text text-anchor="start" x="315.8448" y="-978.8" font-family="Helvetica,sans-Serif" font-size="11.00" fill="#000000">DBDOI</text>
<polygon fill="none" stroke="#000000" points="286.8448,-949.7 286.8448,-971.7 437.8448,-971.7 437.8448,-949.7 286.8448,-949.7"/>
<image xlink:href="../../images/foreignKeys.png" width="11px" height="12px" preserveAspectRatio="xMinYMin meet" x="291.845" y="-966.7"/>
<text text-anchor="start" x="315.8448" y="-956.8" font-family="Helvetica,sans-Serif" font-size="11.00" fill="#000000">REFDBID1</text>
<polygon fill="none" stroke="#000000" points="286.8448,-927.7 286.8448,-949.7 437.8448,-949.7 437.8448,-927.7 286.8448,-927.7"/>
<image xlink:href="../../images/foreignKeys.png" width="11px" height="12px" preserveAspectRatio="xMinYMin meet" x="291.845" y="-944.7"/>
<text text-anchor="start" x="315.8448" y="-934.8" font-family="Helvetica,sans-Serif" font-size="11.00" fill="#000000">REFDBID2</text>
<polygon fill="none" stroke="#000000" points="286.8448,-905.7 286.8448,-927.7 437.8448,-927.7 437.8448,-905.7 286.8448,-905.7"/>
<image xlink:href="../../images/foreignKeys.png" width="11px" height="12px" preserveAspectRatio="xMinYMin meet" x="291.845" y="-922.7"/>
<text text-anchor="start" x="315.8448" y="-912.8" font-family="Helvetica,sans-Serif" font-size="11.00" fill="#000000">REFDBID3</text>
<polygon fill="none" stroke="#000000" points="286.8448,-883.7 286.8448,-905.7 437.8448,-905.7 437.8448,-883.7 286.8448,-883.7"/>
<image xlink:href="../../images/foreignKeys.png" width="11px" height="12px" preserveAspectRatio="xMinYMin meet" x="291.845" y="-900.7"/>
<text text-anchor="start" x="315.8448" y="-890.8" font-family="Helvetica,sans-Serif" font-size="11.00" fill="#000000">REFDBID4</text>
<polygon fill="none" stroke="#000000" points="286.8448,-861.7 286.8448,-883.7 437.8448,-883.7 437.8448,-861.7 286.8448,-861.7"/>
<image xlink:href="../../images/foreignKeys.png" width="11px" height="12px" preserveAspectRatio="xMinYMin meet" x="291.845" y="-878.7"/>
<text text-anchor="start" x="315.8448" y="-868.8" font-family="Helvetica,sans-Serif" font-size="11.00" fill="#000000">COL_MTDID</text>
<polygon fill="none" stroke="#000000" points="286.8448,-839.7 286.8448,-861.7 437.8448,-861.7 437.8448,-839.7 286.8448,-839.7"/>
<image xlink:href="../../images/foreignKeys.png" width="11px" height="12px" preserveAspectRatio="xMinYMin meet" x="291.845" y="-856.7"/>
<text text-anchor="start" x="315.8448" y="-846.8" font-family="Helvetica,sans-Serif" font-size="11.00" fill="#000000">MATERIA1ID</text>
<polygon fill="none" stroke="#000000" points="286.8448,-817.7 286.8448,-839.7 437.8448,-839.7 437.8448,-817.7 286.8448,-817.7"/>
<image xlink:href="../../images/foreignKeys.png" width="11px" height="12px" preserveAspectRatio="xMinYMin meet" x="291.845" y="-834.7"/>
<text text-anchor="start" x="315.8448" y="-824.8" font-family="Helvetica,sans-Serif" font-size="11.00" fill="#000000">MATERIA2ID</text>
<polygon fill="none" stroke="#000000" points="286.8448,-795.7 286.8448,-817.7 437.8448,-817.7 437.8448,-795.7 286.8448,-795.7"/>
<image xlink:href="../../images/foreignKeys.png" width="11px" height="12px" preserveAspectRatio="xMinYMin meet" x="291.845" y="-812.7"/>
<text text-anchor="start" x="315.8448" y="-802.8" font-family="Helvetica,sans-Serif" font-size="11.00" fill="#000000">HUM_MODID</text>
<polygon fill="none" stroke="#000000" points="286.8448,-773.7 286.8448,-795.7 437.8448,-795.7 437.8448,-773.7 286.8448,-773.7"/>
<image xlink:href="../../images/foreignKeys.png" width="11px" height="12px" preserveAspectRatio="xMinYMin meet" x="291.845" y="-790.7"/>
<text text-anchor="start" x="315.8448" y="-780.8" font-family="Helvetica,sans-Serif" font-size="11.00" fill="#000000">CONTAMID</text>
<polygon fill="none" stroke="#000000" points="286.8448,-751.7 286.8448,-773.7 437.8448,-773.7 437.8448,-751.7 286.8448,-751.7"/>
<image xlink:href="../../images/foreignKeys.png" width="11px" height="12px" preserveAspectRatio="xMinYMin meet" x="291.845" y="-768.7"/>
<text text-anchor="start" x="315.8448" y="-758.8" font-family="Helvetica,sans-Serif" font-size="11.00" fill="#000000">CHEMPREPID</text>
<polygon fill="none" stroke="#000000" points="286.8448,-729.7 286.8448,-751.7 437.8448,-751.7 437.8448,-729.7 286.8448,-729.7"/>
<image xlink:href="../../images/foreignKeys.png" width="11px" height="12px" preserveAspectRatio="xMinYMin meet" x="291.845" y="-746.7"/>
<text text-anchor="start" x="315.8448" y="-736.8" font-family="Helvetica,sans-Serif" font-size="11.00" fill="#000000">SOLVENT2ID</text>
<polygon fill="none" stroke="#000000" points="286.8448,-707.7 286.8448,-729.7 437.8448,-729.7 437.8448,-707.7 286.8448,-707.7"/>
<image xlink:href="../../images/foreignKeys.png" width="11px" height="12px" preserveAspectRatio="xMinYMin meet" x="291.845" y="-724.7"/>
<text text-anchor="start" x="315.8448" y="-714.8" font-family="Helvetica,sans-Serif" font-size="11.00" fill="#000000">C_MTDID</text>
<polygon fill="none" stroke="#000000" points="286.8448,-685.7 286.8448,-707.7 437.8448,-707.7 437.8448,-685.7 286.8448,-685.7"/>
<image xlink:href="../../images/foreignKeys.png" width="11px" height="12px" preserveAspectRatio="xMinYMin meet" x="291.845" y="-702.7"/>
<text text-anchor="start" x="315.8448" y="-692.8" font-family="Helvetica,sans-Serif" font-size="11.00" fill="#000000">PCT_C_MTID</text>
<polygon fill="none" stroke="#000000" points="286.8448,-663.7 286.8448,-685.7 437.8448,-685.7 437.8448,-663.7 286.8448,-663.7"/>
<image xlink:href="../../images/foreignKeys.png" width="11px" height="12px" preserveAspectRatio="xMinYMin meet" x="291.845" y="-680.7"/>
<text text-anchor="start" x="315.8448" y="-670.8" font-family="Helvetica,sans-Serif" font-size="11.00" fill="#000000">PCT_N_MTID</text>
<polygon fill="none" stroke="#000000" points="286.8448,-641.7 286.8448,-663.7 437.8448,-663.7 437.8448,-641.7 286.8448,-641.7"/>
<image xlink:href="../../images/foreignKeys.png" width="11px" height="12px" preserveAspectRatio="xMinYMin meet" x="291.845" y="-658.7"/>
<text text-anchor="start" x="315.8448" y="-648.8" font-family="Helvetica,sans-Serif" font-size="11.00" fill="#000000">CN_MTDID</text>
<polygon fill="none" stroke="#000000" points="286.8448,-619.7 286.8448,-641.7 437.8448,-641.7 437.8448,-619.7 286.8448,-619.7"/>
<image xlink:href="../../images/foreignKeys.png" width="11px" height="12px" preserveAspectRatio="xMinYMin meet" x="291.845" y="-636.7"/>
<text text-anchor="start" x="315.8448" y="-626.8" font-family="Helvetica,sans-Serif" font-size="11.00" fill="#000000">C13_MTDID</text>
<polygon fill="none" stroke="#000000" points="286.8448,-597.7 286.8448,-619.7 437.8448,-619.7 437.8448,-597.7 286.8448,-597.7"/>
<image xlink:href="../../images/foreignKeys.png" width="11px" height="12px" preserveAspectRatio="xMinYMin meet" x="291.845" y="-614.7"/>
<text text-anchor="start" x="315.8448" y="-604.8" font-family="Helvetica,sans-Serif" font-size="11.00" fill="#000000">O18_MTDID</text>
<polygon fill="none" stroke="#000000" points="286.8448,-575.7 286.8448,-597.7 437.8448,-597.7 437.8448,-575.7 286.8448,-575.7"/>
<image xlink:href="../../images/foreignKeys.png" width="11px" height="12px" preserveAspectRatio="xMinYMin meet" x="291.845" y="-592.7"/>
<text text-anchor="start" x="315.8448" y="-582.8" font-family="Helvetica,sans-Serif" font-size="11.00" fill="#000000">N15_MTDID</text>
<polygon fill="none" stroke="#000000" points="286.8448,-553.7 286.8448,-575.7 437.8448,-575.7 437.8448,-553.7 286.8448,-553.7"/>
<image xlink:href="../../images/foreignKeys.png" width="11px" height="12px" preserveAspectRatio="xMinYMin meet" x="291.845" y="-570.7"/>
<text text-anchor="start" x="315.8448" y="-560.8" font-family="Helvetica,sans-Serif" font-size="11.00" fill="#000000">S34_MTDID</text>
<polygon fill="none" stroke="#000000" points="286.8448,-531.7 286.8448,-553.7 437.8448,-553.7 437.8448,-531.7 286.8448,-531.7"/>
<image xlink:href="../../images/foreignKeys.png" width="11px" height="12px" preserveAspectRatio="xMinYMin meet" x="291.845" y="-548.7"/>
<text text-anchor="start" x="315.8448" y="-538.8" font-family="Helvetica,sans-Serif" font-size="11.00" fill="#000000">C13_VALID</text>
<polygon fill="none" stroke="#000000" points="286.8448,-512.7 286.8448,-531.7 437.8448,-531.7 437.8448,-512.7 286.8448,-512.7"/>
<text text-anchor="start" x="289.8448" y="-518.8" font-family="Helvetica,sans-Serif" font-size="11.00" fill="#000000">...</text>
<polygon fill="#ffffff" stroke="transparent" points="286.8448,-493.7 286.8448,-512.7 335.8448,-512.7 335.8448,-493.7 286.8448,-493.7"/>
<polygon fill="none" stroke="#000000" points="286.8448,-493.7 286.8448,-512.7 335.8448,-512.7 335.8448,-493.7 286.8448,-493.7"/>
<text text-anchor="start" x="289.8448" y="-499.8" font-family="Helvetica,sans-Serif" font-size="11.00" fill="#000000">&lt; 24</text>
<polygon fill="#ffffff" stroke="transparent" points="335.8448,-493.7 335.8448,-512.7 405.8448,-512.7 405.8448,-493.7 335.8448,-493.7"/>
<polygon fill="none" stroke="#000000" points="335.8448,-493.7 335.8448,-512.7 405.8448,-512.7 405.8448,-493.7 335.8448,-493.7"/>
<text text-anchor="start" x="349.0537" y="-499.8" font-family="Helvetica,sans-Serif" font-size="11.00" fill="#000000">9.501 rows</text>
<polygon fill="#ffffff" stroke="transparent" points="405.8448,-493.7 405.8448,-512.7 437.8448,-512.7 437.8448,-493.7 405.8448,-493.7"/>
<polygon fill="none" stroke="#000000" points="405.8448,-493.7 405.8448,-512.7 437.8448,-512.7 437.8448,-493.7 405.8448,-493.7"/>
<text text-anchor="start" x="419.2501" y="-499.8" font-family="Helvetica,sans-Serif" font-size="11.00" fill="#000000">1 &gt;</text>
</a>
</g>
</g>
<!-- c14_materia2ID -->
<g id="node2" class="node">
<title>c14_materia2ID</title>
<g id="a_node2"><a xlink:href="../../tables/c14_materia2ID.html" xlink:title="c14_materia2ID" target="_top">
<polygon fill="#ffffff" stroke="transparent" points="32.3448,-425.7 32.3448,-603.7 237.3448,-603.7 237.3448,-425.7 32.3448,-425.7"/>
<polygon fill="#f5f5f5" stroke="transparent" points="34.8448,-578.7 34.8448,-601.7 235.8448,-601.7 235.8448,-578.7 34.8448,-578.7"/>
<polygon fill="none" stroke="#000000" points="34.8448,-578.7 34.8448,-601.7 235.8448,-601.7 235.8448,-578.7 34.8448,-578.7"/>
<text text-anchor="start" x="39.8448" y="-587.3" font-family="Helvetica,sans-Serif" font-weight="bold" font-size="11.00" fill="#000000">c14_materia2ID</text>
<text text-anchor="start" x="200.8885" y="-586.8" font-family="Helvetica,sans-Serif" font-size="11.00" fill="#000000">[table]</text>
<polygon fill="none" stroke="#000000" points="34.8448,-556.7 34.8448,-578.7 143.8448,-578.7 143.8448,-556.7 34.8448,-556.7"/>
<image xlink:href="../../images/primaryKeys.png" width="11px" height="12px" preserveAspectRatio="xMinYMin meet" x="39.8448" y="-573.7"/>
<text text-anchor="start" x="54.8448" y="-563.8" font-family="Helvetica,sans-Serif" font-size="11.00" fill="#000000">MATERIA2ID</text>
<polygon fill="none" stroke="#000000" points="143.8448,-556.7 143.8448,-578.7 235.8448,-578.7 235.8448,-556.7 143.8448,-556.7"/>
<text text-anchor="start" x="146.8448" y="-564.4" font-family="Helvetica,sans-Serif" font-size="11.00" fill="#000000">int2[5]</text>
<polygon fill="#ffffff" stroke="transparent" points="34.8448,-534.7 34.8448,-556.7 143.8448,-556.7 143.8448,-534.7 34.8448,-534.7"/>
<polygon fill="none" stroke="#000000" points="34.8448,-534.7 34.8448,-556.7 143.8448,-556.7 143.8448,-534.7 34.8448,-534.7"/>
<text text-anchor="start" x="54.8448" y="-541.8" font-family="Helvetica,sans-Serif" font-size="11.00" fill="#000000">MATERIAL2</text>
<polygon fill="none" stroke="#000000" points="143.8448,-534.7 143.8448,-556.7 235.8448,-556.7 235.8448,-534.7 143.8448,-534.7"/>
<text text-anchor="start" x="146.8448" y="-542.4" font-family="Helvetica,sans-Serif" font-size="11.00" fill="#000000">text[2147483647]</text>
<polygon fill="none" stroke="#000000" points="34.8448,-512.7 34.8448,-534.7 143.8448,-534.7 143.8448,-512.7 34.8448,-512.7"/>
<text text-anchor="start" x="54.8448" y="-519.8" font-family="Helvetica,sans-Serif" font-size="11.00" fill="#000000">CREATED_AT</text>
<polygon fill="none" stroke="#000000" points="143.8448,-512.7 143.8448,-534.7 235.8448,-534.7 235.8448,-512.7 143.8448,-512.7"/>
<text text-anchor="start" x="146.447" y="-520.4" font-family="Helvetica,sans-Serif" font-size="11.00" fill="#000000">timestamptz[35,6]</text>
<polygon fill="none" stroke="#000000" points="34.8448,-490.7 34.8448,-512.7 143.8448,-512.7 143.8448,-490.7 34.8448,-490.7"/>
<text text-anchor="start" x="54.8448" y="-497.8" font-family="Helvetica,sans-Serif" font-size="11.00" fill="#000000">UPDATED_AT</text>
<polygon fill="none" stroke="#000000" points="143.8448,-490.7 143.8448,-512.7 235.8448,-512.7 235.8448,-490.7 143.8448,-490.7"/>
<text text-anchor="start" x="146.447" y="-498.4" font-family="Helvetica,sans-Serif" font-size="11.00" fill="#000000">timestamptz[35,6]</text>
<polygon fill="none" stroke="#000000" points="34.8448,-468.7 34.8448,-490.7 143.8448,-490.7 143.8448,-468.7 34.8448,-468.7"/>
<image xlink:href="../../images/foreignKeys.png" width="11px" height="12px" preserveAspectRatio="xMinYMin meet" x="39.8448" y="-485.7"/>
<text text-anchor="start" x="54.8448" y="-475.8" font-family="Helvetica,sans-Serif" font-size="11.00" fill="#000000">PARENTID</text>
<polygon fill="none" stroke="#000000" points="143.8448,-468.7 143.8448,-490.7 235.8448,-490.7 235.8448,-468.7 143.8448,-468.7"/>
<text text-anchor="start" x="146.8448" y="-476.4" font-family="Helvetica,sans-Serif" font-size="11.00" fill="#000000">int2[5]</text>
<polygon fill="none" stroke="#000000" points="34.8448,-446.7 34.8448,-468.7 143.8448,-468.7 143.8448,-446.7 34.8448,-446.7"/>
<text text-anchor="start" x="54.8448" y="-453.8" font-family="Helvetica,sans-Serif" font-size="11.00" fill="#000000">MAT2_DESCR</text>
<polygon fill="none" stroke="#000000" points="143.8448,-446.7 143.8448,-468.7 235.8448,-468.7 235.8448,-446.7 143.8448,-446.7"/>
<text text-anchor="start" x="146.8448" y="-454.4" font-family="Helvetica,sans-Serif" font-size="11.00" fill="#000000">text[2147483647]</text>
<polygon fill="#ffffff" stroke="transparent" points="34.8448,-427.7 34.8448,-446.7 77.8448,-446.7 77.8448,-427.7 34.8448,-427.7"/>
<polygon fill="none" stroke="#000000" points="34.8448,-427.7 34.8448,-446.7 77.8448,-446.7 77.8448,-427.7 34.8448,-427.7"/>
<text text-anchor="start" x="37.8448" y="-433.8" font-family="Helvetica,sans-Serif" font-size="11.00" fill="#000000">&lt; 1</text>
<polygon fill="#ffffff" stroke="transparent" points="77.8448,-427.7 77.8448,-446.7 143.8448,-446.7 143.8448,-427.7 77.8448,-427.7"/>
<polygon fill="none" stroke="#000000" points="77.8448,-427.7 77.8448,-446.7 143.8448,-446.7 143.8448,-427.7 77.8448,-427.7"/>
<text text-anchor="start" x="102.3404" y="-433.8" font-family="Helvetica,sans-Serif" font-size="11.00" fill="#000000">60 rows</text>
<polygon fill="#ffffff" stroke="transparent" points="143.8448,-427.7 143.8448,-446.7 235.8448,-446.7 235.8448,-427.7 143.8448,-427.7"/>
<polygon fill="none" stroke="#000000" points="143.8448,-427.7 143.8448,-446.7 235.8448,-446.7 235.8448,-427.7 143.8448,-427.7"/>
<text text-anchor="start" x="217.2501" y="-433.8" font-family="Helvetica,sans-Serif" font-size="11.00" fill="#000000">3 &gt;</text>
<polygon fill="none" stroke="#000000" stroke-width="2" points="33.3448,-426.7 33.3448,-602.7 236.3448,-602.7 236.3448,-426.7 33.3448,-426.7"/>
</a>
</g>
</g>
<!-- arch_c14_DataCore&#45;&gt;c14_materia2ID -->
<g id="edge1" class="edge">
<title>arch_c14_DataCore:w&#45;&gt;c14_materia2ID:e</title>
<path fill="none" stroke="#000000" d="M272.43,-827.101C185.0294,-805.2909 348.6137,-567.7 235.8448,-567.7"/>
<polygon fill="#000000" stroke="#000000" points="278.8935,-827.8179 286.4478,-832.2781 282.8692,-828.259 286.8448,-828.7 286.8448,-828.7 286.8448,-828.7 282.8692,-828.259 287.2417,-825.1219 278.8935,-827.8179 278.8935,-827.8179"/>
<ellipse fill="none" stroke="#000000" cx="275.713" cy="-827.4651" rx="3.2" ry="3.2"/>
</g>
<!-- c14_materia2ID&#45;&gt;c14_materia2ID -->
<g id="edge2" class="edge">
<title>c14_materia2ID:w&#45;&gt;c14_materia2ID:e</title>
<path fill="none" stroke="#000000" d="M23.2395,-488.6575C-20.7904,-530.1362 -10.0029,-620.7 135.3448,-620.7 292.3448,-620.7 292.3448,-603.0333 235.8448,-567.7"/>
<polygon fill="#000000" stroke="#000000" points="28.5118,-484.5881 37.0444,-482.5498 31.6783,-482.1441 34.8448,-479.7 34.8448,-479.7 34.8448,-479.7 31.6783,-482.1441 32.6451,-476.8502 28.5118,-484.5881 28.5118,-484.5881"/>
<ellipse fill="none" stroke="#000000" cx="25.9786" cy="-486.5433" rx="3.2" ry="3.2"/>
</g>
<!-- char_DataCore -->
<g id="node3" class="node">
<title>char_DataCore</title>
<g id="a_node3"><a xlink:href="../../tables/char_DataCore.html" xlink:title="char_DataCore" target="_top">
<polygon fill="#ffffff" stroke="transparent" points="299.8448,-38.2 299.8448,-473.2 423.8448,-473.2 423.8448,-38.2 299.8448,-38.2"/>
<polygon fill="#f5f5f5" stroke="transparent" points="299.8448,-449.7 299.8448,-472.7 423.8448,-472.7 423.8448,-449.7 299.8448,-449.7"/>
<polygon fill="none" stroke="#000000" points="299.8448,-449.7 299.8448,-472.7 423.8448,-472.7 423.8448,-449.7 299.8448,-449.7"/>
<text text-anchor="start" x="304.8448" y="-458.3" font-family="Helvetica,sans-Serif" font-weight="bold" font-size="11.00" fill="#000000">char_DataCore</text>
<text text-anchor="start" x="389.3666" y="-457.8" font-family="Helvetica,sans-Serif" font-size="11.00" fill="#000000">[table]</text>
<polygon fill="none" stroke="#000000" points="299.8448,-427.7 299.8448,-449.7 423.8448,-449.7 423.8448,-427.7 299.8448,-427.7"/>
<image xlink:href="../../images/primaryKeys.png" width="11px" height="12px" preserveAspectRatio="xMinYMin meet" x="304.845" y="-444.7"/>
<text text-anchor="start" x="328.8448" y="-434.8" font-family="Helvetica,sans-Serif" font-size="11.00" fill="#000000">OBSID</text>
<polygon fill="none" stroke="#000000" points="299.8448,-405.7 299.8448,-427.7 423.8448,-427.7 423.8448,-405.7 299.8448,-405.7"/>
<image xlink:href="../../images/foreignKeys.png" width="11px" height="12px" preserveAspectRatio="xMinYMin meet" x="304.845" y="-422.7"/>
<text text-anchor="start" x="328.8448" y="-412.8" font-family="Helvetica,sans-Serif" font-size="11.00" fill="#000000">SMPID</text>
<polygon fill="none" stroke="#000000" points="299.8448,-383.7 299.8448,-405.7 423.8448,-405.7 423.8448,-383.7 299.8448,-383.7"/>
<image xlink:href="../../images/foreignKeys.png" width="11px" height="12px" preserveAspectRatio="xMinYMin meet" x="304.845" y="-400.7"/>
<text text-anchor="start" x="328.8448" y="-390.8" font-family="Helvetica,sans-Serif" font-size="11.00" fill="#000000">LAB_ORIGID</text>
<polygon fill="none" stroke="#000000" points="299.8448,-361.7 299.8448,-383.7 423.8448,-383.7 423.8448,-361.7 299.8448,-361.7"/>
<image xlink:href="../../images/foreignKeys.png" width="11px" height="12px" preserveAspectRatio="xMinYMin meet" x="304.845" y="-378.7"/>
<text text-anchor="start" x="328.8448" y="-368.8" font-family="Helvetica,sans-Serif" font-size="11.00" fill="#000000">WHATAMI</text>
<polygon fill="none" stroke="#000000" points="299.8448,-339.7 299.8448,-361.7 423.8448,-361.7 423.8448,-339.7 299.8448,-339.7"/>
<image xlink:href="../../images/foreignKeys.png" width="11px" height="12px" preserveAspectRatio="xMinYMin meet" x="304.845" y="-356.7"/>
<text text-anchor="start" x="328.8448" y="-346.8" font-family="Helvetica,sans-Serif" font-size="11.00" fill="#000000">AGETYPEID</text>
<polygon fill="none" stroke="#000000" points="299.8448,-317.7 299.8448,-339.7 423.8448,-339.7 423.8448,-317.7 299.8448,-317.7"/>
<image xlink:href="../../images/foreignKeys.png" width="11px" height="12px" preserveAspectRatio="xMinYMin meet" x="304.845" y="-334.7"/>
<text text-anchor="start" x="328.8448" y="-324.8" font-family="Helvetica,sans-Serif" font-size="11.00" fill="#000000">METHODID</text>
<polygon fill="none" stroke="#000000" points="299.8448,-295.7 299.8448,-317.7 423.8448,-317.7 423.8448,-295.7 299.8448,-295.7"/>
<image xlink:href="../../images/foreignKeys.png" width="11px" height="12px" preserveAspectRatio="xMinYMin meet" x="304.845" y="-312.7"/>
<text text-anchor="start" x="328.8448" y="-302.8" font-family="Helvetica,sans-Serif" font-size="11.00" fill="#000000">MATERIA2ID</text>
<polygon fill="none" stroke="#000000" points="299.8448,-273.7 299.8448,-295.7 423.8448,-295.7 423.8448,-273.7 299.8448,-273.7"/>
<image xlink:href="../../images/foreignKeys.png" width="11px" height="12px" preserveAspectRatio="xMinYMin meet" x="304.845" y="-290.7"/>
<text text-anchor="start" x="328.8448" y="-280.8" font-family="Helvetica,sans-Serif" font-size="11.00" fill="#000000">CALCURVEID</text>
<polygon fill="none" stroke="#000000" points="299.8448,-251.7 299.8448,-273.7 423.8448,-273.7 423.8448,-251.7 299.8448,-251.7"/>
<image xlink:href="../../images/foreignKeys.png" width="11px" height="12px" preserveAspectRatio="xMinYMin meet" x="304.845" y="-268.7"/>
<text text-anchor="start" x="328.8448" y="-258.8" font-family="Helvetica,sans-Serif" font-size="11.00" fill="#000000">CALPROGID</text>
<polygon fill="none" stroke="#000000" points="299.8448,-229.7 299.8448,-251.7 423.8448,-251.7 423.8448,-229.7 299.8448,-229.7"/>
<image xlink:href="../../images/foreignKeys.png" width="11px" height="12px" preserveAspectRatio="xMinYMin meet" x="304.845" y="-246.7"/>
<text text-anchor="start" x="328.8448" y="-236.8" font-family="Helvetica,sans-Serif" font-size="11.00" fill="#000000">CHARMTDID</text>
<polygon fill="none" stroke="#000000" points="299.8448,-207.7 299.8448,-229.7 423.8448,-229.7 423.8448,-207.7 299.8448,-207.7"/>
<image xlink:href="../../images/foreignKeys.png" width="11px" height="12px" preserveAspectRatio="xMinYMin meet" x="304.845" y="-224.7"/>
<text text-anchor="start" x="328.8448" y="-214.8" font-family="Helvetica,sans-Serif" font-size="11.00" fill="#000000">CHARMEASID</text>
<polygon fill="none" stroke="#000000" points="299.8448,-185.7 299.8448,-207.7 423.8448,-207.7 423.8448,-185.7 299.8448,-185.7"/>
<image xlink:href="../../images/foreignKeys.png" width="11px" height="12px" preserveAspectRatio="xMinYMin meet" x="304.845" y="-202.7"/>
<text text-anchor="start" x="328.8448" y="-192.8" font-family="Helvetica,sans-Serif" font-size="11.00" fill="#000000">CHARSIZEID</text>
<polygon fill="none" stroke="#000000" points="299.8448,-163.7 299.8448,-185.7 423.8448,-185.7 423.8448,-163.7 299.8448,-163.7"/>
<image xlink:href="../../images/foreignKeys.png" width="11px" height="12px" preserveAspectRatio="xMinYMin meet" x="304.845" y="-180.7"/>
<text text-anchor="start" x="328.8448" y="-170.8" font-family="Helvetica,sans-Serif" font-size="11.00" fill="#000000">DATASRCID</text>
<polygon fill="none" stroke="#000000" points="299.8448,-141.7 299.8448,-163.7 423.8448,-163.7 423.8448,-141.7 299.8448,-141.7"/>
<image xlink:href="../../images/foreignKeys.png" width="11px" height="12px" preserveAspectRatio="xMinYMin meet" x="304.845" y="-158.7"/>
<text text-anchor="start" x="328.8448" y="-148.8" font-family="Helvetica,sans-Serif" font-size="11.00" fill="#000000">REFDBID1</text>
<polygon fill="none" stroke="#000000" points="299.8448,-119.7 299.8448,-141.7 423.8448,-141.7 423.8448,-119.7 299.8448,-119.7"/>
<image xlink:href="../../images/foreignKeys.png" width="11px" height="12px" preserveAspectRatio="xMinYMin meet" x="304.845" y="-136.7"/>
<text text-anchor="start" x="328.8448" y="-126.8" font-family="Helvetica,sans-Serif" font-size="11.00" fill="#000000">REFDBID2</text>
<polygon fill="none" stroke="#000000" points="299.8448,-97.7 299.8448,-119.7 423.8448,-119.7 423.8448,-97.7 299.8448,-97.7"/>
<image xlink:href="../../images/foreignKeys.png" width="11px" height="12px" preserveAspectRatio="xMinYMin meet" x="304.845" y="-114.7"/>
<text text-anchor="start" x="328.8448" y="-104.8" font-family="Helvetica,sans-Serif" font-size="11.00" fill="#000000">REFDBID3</text>
<polygon fill="none" stroke="#000000" points="299.8448,-75.7 299.8448,-97.7 423.8448,-97.7 423.8448,-75.7 299.8448,-75.7"/>
<image xlink:href="../../images/foreignKeys.png" width="11px" height="12px" preserveAspectRatio="xMinYMin meet" x="304.845" y="-92.7"/>
<text text-anchor="start" x="328.8448" y="-82.8" font-family="Helvetica,sans-Serif" font-size="11.00" fill="#000000">DBDOI</text>
<polygon fill="none" stroke="#000000" points="299.8448,-56.7 299.8448,-75.7 423.8448,-75.7 423.8448,-56.7 299.8448,-56.7"/>
<text text-anchor="start" x="302.8448" y="-62.8" font-family="Helvetica,sans-Serif" font-size="11.00" fill="#000000">...</text>
<polygon fill="#ffffff" stroke="transparent" points="299.8448,-37.7 299.8448,-56.7 336.8448,-56.7 336.8448,-37.7 299.8448,-37.7"/>
<polygon fill="none" stroke="#000000" points="299.8448,-37.7 299.8448,-56.7 336.8448,-56.7 336.8448,-37.7 299.8448,-37.7"/>
<text text-anchor="start" x="302.8448" y="-43.8" font-family="Helvetica,sans-Serif" font-size="11.00" fill="#000000">&lt; 16</text>
<polygon fill="#ffffff" stroke="transparent" points="336.8448,-37.7 336.8448,-56.7 406.8448,-56.7 406.8448,-37.7 336.8448,-37.7"/>
<polygon fill="none" stroke="#000000" points="336.8448,-37.7 336.8448,-56.7 406.8448,-56.7 406.8448,-37.7 336.8448,-37.7"/>
<text text-anchor="start" x="343.9388" y="-43.8" font-family="Helvetica,sans-Serif" font-size="11.00" fill="#000000">48.234 rows</text>
<polygon fill="#ffffff" stroke="transparent" points="406.8448,-37.7 406.8448,-56.7 423.8448,-56.7 423.8448,-37.7 406.8448,-37.7"/>
<polygon fill="none" stroke="#000000" points="406.8448,-37.7 406.8448,-56.7 423.8448,-56.7 423.8448,-37.7 406.8448,-37.7"/>
<text text-anchor="start" x="414.731" y="-43.8" font-family="Helvetica,sans-Serif" font-size="11.00" fill="#000000"> &#160;</text>
</a>
</g>
</g>
<!-- char_DataCore&#45;&gt;c14_materia2ID -->
<g id="edge3" class="edge">
<title>char_DataCore:w&#45;&gt;c14_materia2ID:e</title>
<path fill="none" stroke="#000000" d="M286.3704,-312.6417C249.1582,-351.4917 290.1977,-567.7 235.8448,-567.7"/>
<polygon fill="#000000" stroke="#000000" points="292.5248,-309.9279 301.2973,-309.994 296.1848,-308.3139 299.8448,-306.7 299.8448,-306.7 299.8448,-306.7 296.1848,-308.3139 298.3922,-303.406 292.5248,-309.9279 292.5248,-309.9279"/>
<ellipse fill="none" stroke="#000000" cx="289.5969" cy="-311.219" rx="3.2" ry="3.2"/>
</g>
</g>
</svg>
