<?xml version="1.0" encoding="UTF-8" standalone="no"?>
<!DOCTYPE svg PUBLIC "-//W3C//DTD SVG 1.1//EN"
 "http://www.w3.org/Graphics/SVG/1.1/DTD/svg11.dtd">
<!-- Generated by graphviz version 2.40.1 (20161225.0304)
 -->
<!-- Title: oneDegreeRelationshipsDiagram Pages: 1 -->
<svg width="424pt" height="312pt"
 viewBox="0.00 0.00 423.51 312.20" xmlns="http://www.w3.org/2000/svg" xmlns:xlink="http://www.w3.org/1999/xlink">
<g id="graph0" class="graph" transform="scale(1 1) rotate(0) translate(4 308.2)">
<title>oneDegreeRelationshipsDiagram</title>
<polygon fill="#ffffff" stroke="transparent" points="-4,4 -4,-308.2 419.5059,-308.2 419.5059,4 -4,4"/>
<text text-anchor="middle" x="72.4936" y="-7.3" font-family="Helvetica,sans-Serif" font-size="11.00" fill="#000000">Generated by SchemaSpy</text>
<!-- c14_calprogram -->
<g id="node1" class="node">
<title>c14_calprogram</title>
<g id="a_node1"><a xlink:href="../../tables/c14_calprogram.html" xlink:title="c14_calprogram" target="_top">
<polygon fill="#ffffff" stroke="transparent" points="176,-38.2 176,-282.2 385,-282.2 385,-38.2 176,-38.2"/>
<polygon fill="#f5f5f5" stroke="transparent" points="178.5,-257.2 178.5,-280.2 383.5,-280.2 383.5,-257.2 178.5,-257.2"/>
<polygon fill="none" stroke="#000000" points="178.5,-257.2 178.5,-280.2 383.5,-280.2 383.5,-257.2 178.5,-257.2"/>
<text text-anchor="start" x="183.5" y="-266.3" font-family="Helvetica,sans-Serif" font-weight="bold" font-size="11.00" fill="#000000">c14_calprogram</text>
<text text-anchor="start" x="348.5437" y="-265.3" font-family="Helvetica,sans-Serif" font-size="11.00" fill="#000000">[table]</text>
<polygon fill="none" stroke="#000000" points="178.5,-235.2 178.5,-257.2 291.5,-257.2 291.5,-235.2 178.5,-235.2"/>
<image xlink:href="../../images/primaryKeys.png" width="11px" height="12px" preserveAspectRatio="xMinYMin meet" x="183.5" y="-252.2"/>
<text text-anchor="start" x="198.5" y="-242.3" font-family="Helvetica,sans-Serif" font-size="11.00" fill="#000000">CALPROGID</text>
<polygon fill="none" stroke="#000000" points="291.5,-235.2 291.5,-257.2 383.5,-257.2 383.5,-235.2 291.5,-235.2"/>
<text text-anchor="start" x="294.5" y="-242.9" font-family="Helvetica,sans-Serif" font-size="11.00" fill="#000000">serial[10]</text>
<polygon fill="#ffffff" stroke="transparent" points="178.5,-213.2 178.5,-235.2 291.5,-235.2 291.5,-213.2 178.5,-213.2"/>
<polygon fill="none" stroke="#000000" points="178.5,-213.2 178.5,-235.2 291.5,-235.2 291.5,-213.2 178.5,-213.2"/>
<text text-anchor="start" x="198.5" y="-220.3" font-family="Helvetica,sans-Serif" font-size="11.00" fill="#000000">CALPROGRAM</text>
<polygon fill="none" stroke="#000000" points="291.5,-213.2 291.5,-235.2 383.5,-235.2 383.5,-213.2 291.5,-213.2"/>
<text text-anchor="start" x="294.5" y="-220.9" font-family="Helvetica,sans-Serif" font-size="11.00" fill="#000000">text[2147483647]</text>
<polygon fill="#ffffff" stroke="transparent" points="178.5,-191.2 178.5,-213.2 291.5,-213.2 291.5,-191.2 178.5,-191.2"/>
<polygon fill="none" stroke="#000000" points="178.5,-191.2 178.5,-213.2 291.5,-213.2 291.5,-191.2 178.5,-191.2"/>
<text text-anchor="start" x="198.5" y="-198.3" font-family="Helvetica,sans-Serif" font-size="11.00" fill="#000000">CALPROGVER</text>
<polygon fill="none" stroke="#000000" points="291.5,-191.2 291.5,-213.2 383.5,-213.2 383.5,-191.2 291.5,-191.2"/>
<text text-anchor="start" x="294.5" y="-198.9" font-family="Helvetica,sans-Serif" font-size="11.00" fill="#000000">text[2147483647]</text>
<polygon fill="none" stroke="#000000" points="178.5,-169.2 178.5,-191.2 291.5,-191.2 291.5,-169.2 178.5,-169.2"/>
<image xlink:href="../../images/foreignKeys.png" width="11px" height="12px" preserveAspectRatio="xMinYMin meet" x="183.5" y="-186.2"/>
<text text-anchor="start" x="198.5" y="-176.3" font-family="Helvetica,sans-Serif" font-size="11.00" fill="#000000">CALPROGREF</text>
<polygon fill="none" stroke="#000000" points="291.5,-169.2 291.5,-191.2 383.5,-191.2 383.5,-169.2 291.5,-169.2"/>
<text text-anchor="start" x="294.5" y="-176.9" font-family="Helvetica,sans-Serif" font-size="11.00" fill="#000000">text[2147483647]</text>
<polygon fill="none" stroke="#000000" points="178.5,-147.2 178.5,-169.2 291.5,-169.2 291.5,-147.2 178.5,-147.2"/>
<image xlink:href="../../images/foreignKeys.png" width="11px" height="12px" preserveAspectRatio="xMinYMin meet" x="183.5" y="-164.2"/>
<text text-anchor="start" x="198.5" y="-154.3" font-family="Helvetica,sans-Serif" font-size="11.00" fill="#000000">PARENTID</text>
<polygon fill="none" stroke="#000000" points="291.5,-147.2 291.5,-169.2 383.5,-169.2 383.5,-147.2 291.5,-147.2"/>
<text text-anchor="start" x="294.5" y="-154.9" font-family="Helvetica,sans-Serif" font-size="11.00" fill="#000000">int2[5]</text>
<polygon fill="none" stroke="#000000" points="178.5,-125.2 178.5,-147.2 291.5,-147.2 291.5,-125.2 178.5,-125.2"/>
<text text-anchor="start" x="198.5" y="-132.3" font-family="Helvetica,sans-Serif" font-size="11.00" fill="#000000">CALPRODATE</text>
<polygon fill="none" stroke="#000000" points="291.5,-125.2 291.5,-147.2 383.5,-147.2 383.5,-125.2 291.5,-125.2"/>
<text text-anchor="start" x="294.5" y="-132.9" font-family="Helvetica,sans-Serif" font-size="11.00" fill="#000000">varchar[10]</text>
<polygon fill="none" stroke="#000000" points="178.5,-103.2 178.5,-125.2 291.5,-125.2 291.5,-103.2 178.5,-103.2"/>
<text text-anchor="start" x="198.5" y="-110.3" font-family="Helvetica,sans-Serif" font-size="11.00" fill="#000000">CALPRONOTE</text>
<polygon fill="none" stroke="#000000" points="291.5,-103.2 291.5,-125.2 383.5,-125.2 383.5,-103.2 291.5,-103.2"/>
<text text-anchor="start" x="294.5" y="-110.9" font-family="Helvetica,sans-Serif" font-size="11.00" fill="#000000">text[2147483647]</text>
<polygon fill="none" stroke="#000000" points="178.5,-81.2 178.5,-103.2 291.5,-103.2 291.5,-81.2 178.5,-81.2"/>
<text text-anchor="start" x="198.5" y="-88.3" font-family="Helvetica,sans-Serif" font-size="11.00" fill="#000000">CREATED_AT</text>
<polygon fill="none" stroke="#000000" points="291.5,-81.2 291.5,-103.2 383.5,-103.2 383.5,-81.2 291.5,-81.2"/>
<text text-anchor="start" x="294.1023" y="-88.9" font-family="Helvetica,sans-Serif" font-size="11.00" fill="#000000">timestamptz[35,6]</text>
<polygon fill="none" stroke="#000000" points="178.5,-59.2 178.5,-81.2 291.5,-81.2 291.5,-59.2 178.5,-59.2"/>
<text text-anchor="start" x="198.5" y="-66.3" font-family="Helvetica,sans-Serif" font-size="11.00" fill="#000000">UPDATED_AT</text>
<polygon fill="none" stroke="#000000" points="291.5,-59.2 291.5,-81.2 383.5,-81.2 383.5,-59.2 291.5,-59.2"/>
<text text-anchor="start" x="294.1023" y="-66.9" font-family="Helvetica,sans-Serif" font-size="11.00" fill="#000000">timestamptz[35,6]</text>
<polygon fill="#ffffff" stroke="transparent" points="178.5,-40.2 178.5,-59.2 220.5,-59.2 220.5,-40.2 178.5,-40.2"/>
<polygon fill="none" stroke="#000000" points="178.5,-40.2 178.5,-59.2 220.5,-59.2 220.5,-40.2 178.5,-40.2"/>
<text text-anchor="start" x="181.5" y="-46.3" font-family="Helvetica,sans-Serif" font-size="11.00" fill="#000000">&lt; 2</text>
<polygon fill="#ffffff" stroke="transparent" points="220.5,-40.2 220.5,-59.2 291.5,-59.2 291.5,-40.2 220.5,-40.2"/>
<polygon fill="none" stroke="#000000" points="220.5,-40.2 220.5,-59.2 291.5,-59.2 291.5,-40.2 220.5,-40.2"/>
<text text-anchor="start" x="243.8807" y="-46.3" font-family="Helvetica,sans-Serif" font-size="11.00" fill="#000000">196 rows</text>
<polygon fill="#ffffff" stroke="transparent" points="291.5,-40.2 291.5,-59.2 383.5,-59.2 383.5,-40.2 291.5,-40.2"/>
<polygon fill="none" stroke="#000000" points="291.5,-40.2 291.5,-59.2 383.5,-59.2 383.5,-40.2 291.5,-40.2"/>
<text text-anchor="start" x="364.9053" y="-46.3" font-family="Helvetica,sans-Serif" font-size="11.00" fill="#000000">1 &gt;</text>
<polygon fill="none" stroke="#000000" stroke-width="2" points="177,-39.2 177,-281.2 384,-281.2 384,-39.2 177,-39.2"/>
</a>
</g>
</g>
<!-- c14_calprogram&#45;&gt;c14_calprogram -->
<g id="edge2" class="edge">
<title>c14_calprogram:w&#45;&gt;c14_calprogram:e</title>
<path fill="none" stroke="#000000" d="M168.142,-168.6406C126.2688,-217.3778 136.4336,-299.2 281,-299.2 436.5,-299.2 436.5,-290.5333 383.5,-246.2"/>
<polygon fill="#000000" stroke="#000000" points="172.8656,-163.8793 181.0557,-160.7355 175.6828,-161.0396 178.5,-158.2 178.5,-158.2 178.5,-158.2 175.6828,-161.0396 175.9443,-155.6645 172.8656,-163.8793 172.8656,-163.8793"/>
<ellipse fill="none" stroke="#000000" cx="170.6119" cy="-166.151" rx="3.2" ry="3.2"/>
</g>
<!-- global_RefCore -->
<g id="node2" class="node">
<title>global_RefCore</title>
<g id="a_node2"><a xlink:href="../../tables/global_RefCore.html" xlink:title="global_RefCore" target="_top">
<polygon fill="#ffffff" stroke="transparent" points="8,-65.7 8,-214.7 127,-214.7 127,-65.7 8,-65.7"/>
<polygon fill="#f5f5f5" stroke="transparent" points="8.5,-191.2 8.5,-214.2 127.5,-214.2 127.5,-191.2 8.5,-191.2"/>
<polygon fill="none" stroke="#000000" points="8.5,-191.2 8.5,-214.2 127.5,-214.2 127.5,-191.2 8.5,-191.2"/>
<text text-anchor="start" x="13.2992" y="-200.3" font-family="Helvetica,sans-Serif" font-weight="bold" font-size="11.00" fill="#000000">global_RefCore</text>
<text text-anchor="start" x="93.0219" y="-199.3" font-family="Helvetica,sans-Serif" font-size="11.00" fill="#000000">[table]</text>
<polygon fill="none" stroke="#000000" points="8.5,-169.2 8.5,-191.2 127.5,-191.2 127.5,-169.2 8.5,-169.2"/>
<image xlink:href="../../images/primaryKeys.png" width="11px" height="12px" preserveAspectRatio="xMinYMin meet" x="13.5" y="-186.2"/>
<text text-anchor="start" x="33.5" y="-176.3" font-family="Helvetica,sans-Serif" font-size="11.00" fill="#000000">REFDBID</text>
<polygon fill="none" stroke="#000000" points="8.5,-147.2 8.5,-169.2 127.5,-169.2 127.5,-147.2 8.5,-147.2"/>
<image xlink:href="../../images/foreignKeys.png" width="11px" height="12px" preserveAspectRatio="xMinYMin meet" x="13.5" y="-164.2"/>
<text text-anchor="start" x="33.5" y="-154.3" font-family="Helvetica,sans-Serif" font-size="11.00" fill="#000000">OAID</text>
<polygon fill="none" stroke="#000000" points="8.5,-125.2 8.5,-147.2 127.5,-147.2 127.5,-125.2 8.5,-125.2"/>
<image xlink:href="../../images/foreignKeys.png" width="11px" height="12px" preserveAspectRatio="xMinYMin meet" x="13.5" y="-142.2"/>
<text text-anchor="start" x="33.5" y="-132.3" font-family="Helvetica,sans-Serif" font-size="11.00" fill="#000000">PUBTYPEID</text>
<polygon fill="none" stroke="#000000" points="8.5,-103.2 8.5,-125.2 127.5,-125.2 127.5,-103.2 8.5,-103.2"/>
<image xlink:href="../../images/foreignKeys.png" width="11px" height="12px" preserveAspectRatio="xMinYMin meet" x="13.5" y="-120.2"/>
<text text-anchor="start" x="33.5" y="-110.3" font-family="Helvetica,sans-Serif" font-size="11.00" fill="#000000">JOURNALID</text>
<polygon fill="none" stroke="#000000" points="8.5,-84.2 8.5,-103.2 127.5,-103.2 127.5,-84.2 8.5,-84.2"/>
<text text-anchor="start" x="11.5" y="-90.3" font-family="Helvetica,sans-Serif" font-size="11.00" fill="#000000">...</text>
<polygon fill="#ffffff" stroke="transparent" points="8.5,-65.2 8.5,-84.2 35.5,-84.2 35.5,-65.2 8.5,-65.2"/>
<polygon fill="none" stroke="#000000" points="8.5,-65.2 8.5,-84.2 35.5,-84.2 35.5,-65.2 8.5,-65.2"/>
<text text-anchor="start" x="11.5" y="-71.3" font-family="Helvetica,sans-Serif" font-size="11.00" fill="#000000">&lt; 5</text>
<polygon fill="#ffffff" stroke="transparent" points="35.5,-65.2 35.5,-84.2 97.5,-84.2 97.5,-65.2 35.5,-65.2"/>
<polygon fill="none" stroke="#000000" points="35.5,-65.2 35.5,-84.2 97.5,-84.2 97.5,-65.2 35.5,-65.2"/>
<text text-anchor="start" x="40.7089" y="-71.3" font-family="Helvetica,sans-Serif" font-size="11.00" fill="#000000">3,822 rows</text>
<polygon fill="#ffffff" stroke="transparent" points="97.5,-65.2 97.5,-84.2 127.5,-84.2 127.5,-65.2 97.5,-65.2"/>
<polygon fill="none" stroke="#000000" points="97.5,-65.2 97.5,-84.2 127.5,-84.2 127.5,-65.2 97.5,-65.2"/>
<text text-anchor="start" x="102.7904" y="-71.3" font-family="Helvetica,sans-Serif" font-size="11.00" fill="#000000">32 &gt;</text>
</a>
</g>
</g>
<!-- c14_calprogram&#45;&gt;global_RefCore -->
<g id="edge1" class="edge">
<title>c14_calprogram:w&#45;&gt;global_RefCore:e</title>
<path fill="none" stroke="#000000" d="M163.776,-180.2C151.7815,-180.2 144.3229,-180.2 127.5,-180.2"/>
<polygon fill="#000000" stroke="#000000" points="170.5,-180.2001 178.5,-183.8 174.5,-180.2 178.5,-180.2 178.5,-180.2 178.5,-180.2 174.5,-180.2 178.5,-176.6 170.5,-180.2001 170.5,-180.2001"/>
<ellipse fill="none" stroke="#000000" cx="167.3" cy="-180.2001" rx="3.2" ry="3.2"/>
</g>
</g>
</svg>
