<?xml version="1.0" encoding="UTF-8" standalone="no"?>
<!DOCTYPE svg PUBLIC "-//W3C//DTD SVG 1.1//EN"
 "http://www.w3.org/Graphics/SVG/1.1/DTD/svg11.dtd">
<!-- Generated by graphviz version 2.40.1 (20161225.0304)
 -->
<!-- Title: oneDegreeRelationshipsDiagram Pages: 1 -->
<svg width="427pt" height="661pt"
 viewBox="0.00 0.00 427.00 661.20" xmlns="http://www.w3.org/2000/svg" xmlns:xlink="http://www.w3.org/1999/xlink">
<g id="graph0" class="graph" transform="scale(1 1) rotate(0) translate(4 657.2)">
<title>oneDegreeRelationshipsDiagram</title>
<polygon fill="#ffffff" stroke="transparent" points="-4,4 -4,-657.2 423,-657.2 423,4 -4,4"/>
<text text-anchor="middle" x="72.4936" y="-7.3" font-family="Helvetica,sans-Serif" font-size="11.00" fill="#000000">Generated by SchemaSpy</text>
<!-- arch_c14_DataCore -->
<g id="node1" class="node">
<title>arch_c14_DataCore</title>
<g id="a_node1"><a xlink:href="../../tables/arch_c14_DataCore.html" xlink:title="arch_c14_DataCore" target="_top">
<polygon fill="#ffffff" stroke="transparent" points="270,-38.2 270,-649.2 411,-649.2 411,-38.2 270,-38.2"/>
<polygon fill="#f5f5f5" stroke="transparent" points="270.5,-625.7 270.5,-648.7 411.5,-648.7 411.5,-625.7 270.5,-625.7"/>
<polygon fill="none" stroke="#000000" points="270.5,-625.7 270.5,-648.7 411.5,-648.7 411.5,-625.7 270.5,-625.7"/>
<text text-anchor="start" x="275.2943" y="-634.8" font-family="Helvetica,sans-Serif" font-weight="bold" font-size="11.00" fill="#000000">arch_c14_DataCore</text>
<text text-anchor="start" x="377.0219" y="-633.8" font-family="Helvetica,sans-Serif" font-size="11.00" fill="#000000">[table]</text>
<polygon fill="none" stroke="#000000" points="270.5,-603.7 270.5,-625.7 411.5,-625.7 411.5,-603.7 270.5,-603.7"/>
<image xlink:href="../../images/primaryKeys.png" width="11px" height="12px" preserveAspectRatio="xMinYMin meet" x="275.5" y="-620.7"/>
<text text-anchor="start" x="294.5" y="-610.8" font-family="Helvetica,sans-Serif" font-size="11.00" fill="#000000">OBSID1</text>
<polygon fill="none" stroke="#000000" points="270.5,-581.7 270.5,-603.7 411.5,-603.7 411.5,-581.7 270.5,-581.7"/>
<image xlink:href="../../images/foreignKeys.png" width="11px" height="12px" preserveAspectRatio="xMinYMin meet" x="275.5" y="-598.7"/>
<text text-anchor="start" x="294.5" y="-588.8" font-family="Helvetica,sans-Serif" font-size="11.00" fill="#000000">SMPID</text>
<polygon fill="none" stroke="#000000" points="270.5,-559.7 270.5,-581.7 411.5,-581.7 411.5,-559.7 270.5,-559.7"/>
<image xlink:href="../../images/foreignKeys.png" width="11px" height="12px" preserveAspectRatio="xMinYMin meet" x="275.5" y="-576.7"/>
<text text-anchor="start" x="294.5" y="-566.8" font-family="Helvetica,sans-Serif" font-size="11.00" fill="#000000">LAB_ORIGID</text>
<polygon fill="none" stroke="#000000" points="270.5,-537.7 270.5,-559.7 411.5,-559.7 411.5,-537.7 270.5,-537.7"/>
<image xlink:href="../../images/foreignKeys.png" width="11px" height="12px" preserveAspectRatio="xMinYMin meet" x="275.5" y="-554.7"/>
<text text-anchor="start" x="294.5" y="-544.8" font-family="Helvetica,sans-Serif" font-size="11.00" fill="#000000">METHODID</text>
<polygon fill="none" stroke="#000000" points="270.5,-515.7 270.5,-537.7 411.5,-537.7 411.5,-515.7 270.5,-515.7"/>
<image xlink:href="../../images/foreignKeys.png" width="11px" height="12px" preserveAspectRatio="xMinYMin meet" x="275.5" y="-532.7"/>
<text text-anchor="start" x="294.5" y="-522.8" font-family="Helvetica,sans-Serif" font-size="11.00" fill="#000000">DBDOI</text>
<polygon fill="none" stroke="#000000" points="270.5,-493.7 270.5,-515.7 411.5,-515.7 411.5,-493.7 270.5,-493.7"/>
<image xlink:href="../../images/foreignKeys.png" width="11px" height="12px" preserveAspectRatio="xMinYMin meet" x="275.5" y="-510.7"/>
<text text-anchor="start" x="294.5" y="-500.8" font-family="Helvetica,sans-Serif" font-size="11.00" fill="#000000">REFDBID1</text>
<polygon fill="none" stroke="#000000" points="270.5,-471.7 270.5,-493.7 411.5,-493.7 411.5,-471.7 270.5,-471.7"/>
<image xlink:href="../../images/foreignKeys.png" width="11px" height="12px" preserveAspectRatio="xMinYMin meet" x="275.5" y="-488.7"/>
<text text-anchor="start" x="294.5" y="-478.8" font-family="Helvetica,sans-Serif" font-size="11.00" fill="#000000">REFDBID2</text>
<polygon fill="none" stroke="#000000" points="270.5,-449.7 270.5,-471.7 411.5,-471.7 411.5,-449.7 270.5,-449.7"/>
<image xlink:href="../../images/foreignKeys.png" width="11px" height="12px" preserveAspectRatio="xMinYMin meet" x="275.5" y="-466.7"/>
<text text-anchor="start" x="294.5" y="-456.8" font-family="Helvetica,sans-Serif" font-size="11.00" fill="#000000">REFDBID3</text>
<polygon fill="none" stroke="#000000" points="270.5,-427.7 270.5,-449.7 411.5,-449.7 411.5,-427.7 270.5,-427.7"/>
<image xlink:href="../../images/foreignKeys.png" width="11px" height="12px" preserveAspectRatio="xMinYMin meet" x="275.5" y="-444.7"/>
<text text-anchor="start" x="294.5" y="-434.8" font-family="Helvetica,sans-Serif" font-size="11.00" fill="#000000">REFDBID4</text>
<polygon fill="none" stroke="#000000" points="270.5,-405.7 270.5,-427.7 411.5,-427.7 411.5,-405.7 270.5,-405.7"/>
<image xlink:href="../../images/foreignKeys.png" width="11px" height="12px" preserveAspectRatio="xMinYMin meet" x="275.5" y="-422.7"/>
<text text-anchor="start" x="294.5" y="-412.8" font-family="Helvetica,sans-Serif" font-size="11.00" fill="#000000">COL_MTDID</text>
<polygon fill="none" stroke="#000000" points="270.5,-383.7 270.5,-405.7 411.5,-405.7 411.5,-383.7 270.5,-383.7"/>
<image xlink:href="../../images/foreignKeys.png" width="11px" height="12px" preserveAspectRatio="xMinYMin meet" x="275.5" y="-400.7"/>
<text text-anchor="start" x="294.5" y="-390.8" font-family="Helvetica,sans-Serif" font-size="11.00" fill="#000000">MATERIA1ID</text>
<polygon fill="none" stroke="#000000" points="270.5,-361.7 270.5,-383.7 411.5,-383.7 411.5,-361.7 270.5,-361.7"/>
<image xlink:href="../../images/foreignKeys.png" width="11px" height="12px" preserveAspectRatio="xMinYMin meet" x="275.5" y="-378.7"/>
<text text-anchor="start" x="294.5" y="-368.8" font-family="Helvetica,sans-Serif" font-size="11.00" fill="#000000">MATERIA2ID</text>
<polygon fill="none" stroke="#000000" points="270.5,-339.7 270.5,-361.7 411.5,-361.7 411.5,-339.7 270.5,-339.7"/>
<image xlink:href="../../images/foreignKeys.png" width="11px" height="12px" preserveAspectRatio="xMinYMin meet" x="275.5" y="-356.7"/>
<text text-anchor="start" x="294.5" y="-346.8" font-family="Helvetica,sans-Serif" font-size="11.00" fill="#000000">HUM_MODID</text>
<polygon fill="none" stroke="#000000" points="270.5,-317.7 270.5,-339.7 411.5,-339.7 411.5,-317.7 270.5,-317.7"/>
<image xlink:href="../../images/foreignKeys.png" width="11px" height="12px" preserveAspectRatio="xMinYMin meet" x="275.5" y="-334.7"/>
<text text-anchor="start" x="294.5" y="-324.8" font-family="Helvetica,sans-Serif" font-size="11.00" fill="#000000">CONTAMID</text>
<polygon fill="none" stroke="#000000" points="270.5,-295.7 270.5,-317.7 411.5,-317.7 411.5,-295.7 270.5,-295.7"/>
<image xlink:href="../../images/foreignKeys.png" width="11px" height="12px" preserveAspectRatio="xMinYMin meet" x="275.5" y="-312.7"/>
<text text-anchor="start" x="294.5" y="-302.8" font-family="Helvetica,sans-Serif" font-size="11.00" fill="#000000">CHEMPREPID</text>
<polygon fill="none" stroke="#000000" points="270.5,-273.7 270.5,-295.7 411.5,-295.7 411.5,-273.7 270.5,-273.7"/>
<image xlink:href="../../images/foreignKeys.png" width="11px" height="12px" preserveAspectRatio="xMinYMin meet" x="275.5" y="-290.7"/>
<text text-anchor="start" x="294.5" y="-280.8" font-family="Helvetica,sans-Serif" font-size="11.00" fill="#000000">SOLVENT2ID</text>
<polygon fill="none" stroke="#000000" points="270.5,-251.7 270.5,-273.7 411.5,-273.7 411.5,-251.7 270.5,-251.7"/>
<image xlink:href="../../images/foreignKeys.png" width="11px" height="12px" preserveAspectRatio="xMinYMin meet" x="275.5" y="-268.7"/>
<text text-anchor="start" x="294.5" y="-258.8" font-family="Helvetica,sans-Serif" font-size="11.00" fill="#000000">C_MTDID</text>
<polygon fill="none" stroke="#000000" points="270.5,-229.7 270.5,-251.7 411.5,-251.7 411.5,-229.7 270.5,-229.7"/>
<image xlink:href="../../images/foreignKeys.png" width="11px" height="12px" preserveAspectRatio="xMinYMin meet" x="275.5" y="-246.7"/>
<text text-anchor="start" x="294.5" y="-236.8" font-family="Helvetica,sans-Serif" font-size="11.00" fill="#000000">PCT_C_MTID</text>
<polygon fill="none" stroke="#000000" points="270.5,-207.7 270.5,-229.7 411.5,-229.7 411.5,-207.7 270.5,-207.7"/>
<image xlink:href="../../images/foreignKeys.png" width="11px" height="12px" preserveAspectRatio="xMinYMin meet" x="275.5" y="-224.7"/>
<text text-anchor="start" x="294.5" y="-214.8" font-family="Helvetica,sans-Serif" font-size="11.00" fill="#000000">PCT_N_MTID</text>
<polygon fill="none" stroke="#000000" points="270.5,-185.7 270.5,-207.7 411.5,-207.7 411.5,-185.7 270.5,-185.7"/>
<image xlink:href="../../images/foreignKeys.png" width="11px" height="12px" preserveAspectRatio="xMinYMin meet" x="275.5" y="-202.7"/>
<text text-anchor="start" x="294.5" y="-192.8" font-family="Helvetica,sans-Serif" font-size="11.00" fill="#000000">CN_MTDID</text>
<polygon fill="none" stroke="#000000" points="270.5,-163.7 270.5,-185.7 411.5,-185.7 411.5,-163.7 270.5,-163.7"/>
<image xlink:href="../../images/foreignKeys.png" width="11px" height="12px" preserveAspectRatio="xMinYMin meet" x="275.5" y="-180.7"/>
<text text-anchor="start" x="294.5" y="-170.8" font-family="Helvetica,sans-Serif" font-size="11.00" fill="#000000">C13_MTDID</text>
<polygon fill="none" stroke="#000000" points="270.5,-141.7 270.5,-163.7 411.5,-163.7 411.5,-141.7 270.5,-141.7"/>
<image xlink:href="../../images/foreignKeys.png" width="11px" height="12px" preserveAspectRatio="xMinYMin meet" x="275.5" y="-158.7"/>
<text text-anchor="start" x="294.5" y="-148.8" font-family="Helvetica,sans-Serif" font-size="11.00" fill="#000000">O18_MTDID</text>
<polygon fill="none" stroke="#000000" points="270.5,-119.7 270.5,-141.7 411.5,-141.7 411.5,-119.7 270.5,-119.7"/>
<image xlink:href="../../images/foreignKeys.png" width="11px" height="12px" preserveAspectRatio="xMinYMin meet" x="275.5" y="-136.7"/>
<text text-anchor="start" x="294.5" y="-126.8" font-family="Helvetica,sans-Serif" font-size="11.00" fill="#000000">N15_MTDID</text>
<polygon fill="none" stroke="#000000" points="270.5,-97.7 270.5,-119.7 411.5,-119.7 411.5,-97.7 270.5,-97.7"/>
<image xlink:href="../../images/foreignKeys.png" width="11px" height="12px" preserveAspectRatio="xMinYMin meet" x="275.5" y="-114.7"/>
<text text-anchor="start" x="294.5" y="-104.8" font-family="Helvetica,sans-Serif" font-size="11.00" fill="#000000">S34_MTDID</text>
<polygon fill="none" stroke="#000000" points="270.5,-75.7 270.5,-97.7 411.5,-97.7 411.5,-75.7 270.5,-75.7"/>
<image xlink:href="../../images/foreignKeys.png" width="11px" height="12px" preserveAspectRatio="xMinYMin meet" x="275.5" y="-92.7"/>
<text text-anchor="start" x="294.5" y="-82.8" font-family="Helvetica,sans-Serif" font-size="11.00" fill="#000000">C13_VALID</text>
<polygon fill="none" stroke="#000000" points="270.5,-56.7 270.5,-75.7 411.5,-75.7 411.5,-56.7 270.5,-56.7"/>
<text text-anchor="start" x="273.5" y="-62.8" font-family="Helvetica,sans-Serif" font-size="11.00" fill="#000000">...</text>
<polygon fill="#ffffff" stroke="transparent" points="270.5,-37.7 270.5,-56.7 314.5,-56.7 314.5,-37.7 270.5,-37.7"/>
<polygon fill="none" stroke="#000000" points="270.5,-37.7 270.5,-56.7 314.5,-56.7 314.5,-37.7 270.5,-37.7"/>
<text text-anchor="start" x="273.5" y="-43.8" font-family="Helvetica,sans-Serif" font-size="11.00" fill="#000000">&lt; 24</text>
<polygon fill="#ffffff" stroke="transparent" points="314.5,-37.7 314.5,-56.7 381.5,-56.7 381.5,-37.7 314.5,-37.7"/>
<polygon fill="none" stroke="#000000" points="314.5,-37.7 314.5,-56.7 381.5,-56.7 381.5,-37.7 314.5,-37.7"/>
<text text-anchor="start" x="324.7089" y="-43.8" font-family="Helvetica,sans-Serif" font-size="11.00" fill="#000000">9,501 rows</text>
<polygon fill="#ffffff" stroke="transparent" points="381.5,-37.7 381.5,-56.7 411.5,-56.7 411.5,-37.7 381.5,-37.7"/>
<polygon fill="none" stroke="#000000" points="381.5,-37.7 381.5,-56.7 411.5,-56.7 411.5,-37.7 381.5,-37.7"/>
<text text-anchor="start" x="392.9053" y="-43.8" font-family="Helvetica,sans-Serif" font-size="11.00" fill="#000000">1 &gt;</text>
</a>
</g>
</g>
<!-- c14_hum_modID -->
<g id="node2" class="node">
<title>c14_hum_modID</title>
<g id="a_node2"><a xlink:href="../../tables/c14_hum_modID.html" xlink:title="c14_hum_modID" target="_top">
<polygon fill="#ffffff" stroke="transparent" points="8,-252.7 8,-386.7 221,-386.7 221,-252.7 8,-252.7"/>
<polygon fill="#f5f5f5" stroke="transparent" points="10.5,-361.7 10.5,-384.7 219.5,-384.7 219.5,-361.7 10.5,-361.7"/>
<polygon fill="none" stroke="#000000" points="10.5,-361.7 10.5,-384.7 219.5,-384.7 219.5,-361.7 10.5,-361.7"/>
<text text-anchor="start" x="15.5" y="-370.8" font-family="Helvetica,sans-Serif" font-weight="bold" font-size="11.00" fill="#000000">c14_hum_modID</text>
<text text-anchor="start" x="184.5437" y="-369.8" font-family="Helvetica,sans-Serif" font-size="11.00" fill="#000000">[table]</text>
<polygon fill="none" stroke="#000000" points="10.5,-339.7 10.5,-361.7 127.5,-361.7 127.5,-339.7 10.5,-339.7"/>
<image xlink:href="../../images/primaryKeys.png" width="11px" height="12px" preserveAspectRatio="xMinYMin meet" x="15.5" y="-356.7"/>
<text text-anchor="start" x="30.5" y="-346.8" font-family="Helvetica,sans-Serif" font-size="11.00" fill="#000000">HUM_MODID</text>
<polygon fill="none" stroke="#000000" points="127.5,-339.7 127.5,-361.7 219.5,-361.7 219.5,-339.7 127.5,-339.7"/>
<text text-anchor="start" x="130.5" y="-347.4" font-family="Helvetica,sans-Serif" font-size="11.00" fill="#000000">int2[5]</text>
<polygon fill="none" stroke="#000000" points="10.5,-317.7 10.5,-339.7 127.5,-339.7 127.5,-317.7 10.5,-317.7"/>
<text text-anchor="start" x="30.5" y="-324.8" font-family="Helvetica,sans-Serif" font-size="11.00" fill="#000000">HUM_MOD</text>
<polygon fill="none" stroke="#000000" points="127.5,-317.7 127.5,-339.7 219.5,-339.7 219.5,-317.7 127.5,-317.7"/>
<text text-anchor="start" x="130.5" y="-325.4" font-family="Helvetica,sans-Serif" font-size="11.00" fill="#000000">text[2147483647]</text>
<polygon fill="none" stroke="#000000" points="10.5,-295.7 10.5,-317.7 127.5,-317.7 127.5,-295.7 10.5,-295.7"/>
<text text-anchor="start" x="30.5" y="-302.8" font-family="Helvetica,sans-Serif" font-size="11.00" fill="#000000">CREATED_AT</text>
<polygon fill="none" stroke="#000000" points="127.5,-295.7 127.5,-317.7 219.5,-317.7 219.5,-295.7 127.5,-295.7"/>
<text text-anchor="start" x="130.1023" y="-303.4" font-family="Helvetica,sans-Serif" font-size="11.00" fill="#000000">timestamptz[35,6]</text>
<polygon fill="none" stroke="#000000" points="10.5,-273.7 10.5,-295.7 127.5,-295.7 127.5,-273.7 10.5,-273.7"/>
<text text-anchor="start" x="30.5" y="-280.8" font-family="Helvetica,sans-Serif" font-size="11.00" fill="#000000">UPDATED_AT</text>
<polygon fill="none" stroke="#000000" points="127.5,-273.7 127.5,-295.7 219.5,-295.7 219.5,-273.7 127.5,-273.7"/>
<text text-anchor="start" x="130.1023" y="-281.4" font-family="Helvetica,sans-Serif" font-size="11.00" fill="#000000">timestamptz[35,6]</text>
<polygon fill="#ffffff" stroke="transparent" points="10.5,-254.7 10.5,-273.7 57.5,-273.7 57.5,-254.7 10.5,-254.7"/>
<polygon fill="none" stroke="#000000" points="10.5,-254.7 10.5,-273.7 57.5,-273.7 57.5,-254.7 10.5,-254.7"/>
<text text-anchor="start" x="13.5" y="-260.8" font-family="Helvetica,sans-Serif" font-size="11.00" fill="#000000">&lt; 0</text>
<polygon fill="#ffffff" stroke="transparent" points="57.5,-254.7 57.5,-273.7 127.5,-273.7 127.5,-254.7 57.5,-254.7"/>
<polygon fill="none" stroke="#000000" points="57.5,-254.7 57.5,-273.7 127.5,-273.7 127.5,-254.7 57.5,-254.7"/>
<text text-anchor="start" x="85.9956" y="-260.8" font-family="Helvetica,sans-Serif" font-size="11.00" fill="#000000">12 rows</text>
<polygon fill="#ffffff" stroke="transparent" points="127.5,-254.7 127.5,-273.7 219.5,-273.7 219.5,-254.7 127.5,-254.7"/>
<polygon fill="none" stroke="#000000" points="127.5,-254.7 127.5,-273.7 219.5,-273.7 219.5,-254.7 127.5,-254.7"/>
<text text-anchor="start" x="200.9053" y="-260.8" font-family="Helvetica,sans-Serif" font-size="11.00" fill="#000000">1 &gt;</text>
<polygon fill="none" stroke="#000000" stroke-width="2" points="9,-253.7 9,-385.7 220,-385.7 220,-253.7 9,-253.7"/>
</a>
</g>
</g>
<!-- arch_c14_DataCore&#45;&gt;c14_hum_modID -->
<g id="edge1" class="edge">
<title>arch_c14_DataCore:w&#45;&gt;c14_hum_modID:e</title>
<path fill="none" stroke="#000000" d="M255.776,-350.7C243.7815,-350.7 236.3229,-350.7 219.5,-350.7"/>
<polygon fill="#000000" stroke="#000000" points="262.5,-350.7001 270.5,-354.3 266.5,-350.7 270.5,-350.7 270.5,-350.7 270.5,-350.7 266.5,-350.7 270.5,-347.1 262.5,-350.7001 262.5,-350.7001"/>
<ellipse fill="none" stroke="#000000" cx="259.3" cy="-350.7001" rx="3.2" ry="3.2"/>
</g>
</g>
</svg>
