<?xml version="1.0" encoding="UTF-8" standalone="no"?>
<!DOCTYPE svg PUBLIC "-//W3C//DTD SVG 1.1//EN"
 "http://www.w3.org/Graphics/SVG/1.1/DTD/svg11.dtd">
<!-- Generated by graphviz version 2.40.1 (20161225.0304)
 -->
<!-- Title: oneDegreeRelationshipsDiagram Pages: 1 -->
<svg width="411pt" height="661pt"
 viewBox="0.00 0.00 411.00 661.20" xmlns="http://www.w3.org/2000/svg" xmlns:xlink="http://www.w3.org/1999/xlink">
<g id="graph0" class="graph" transform="scale(1 1) rotate(0) translate(4 657.2)">
<title>oneDegreeRelationshipsDiagram</title>
<polygon fill="#ffffff" stroke="transparent" points="-4,4 -4,-657.2 407,-657.2 407,4 -4,4"/>
<text text-anchor="middle" x="72.4936" y="-7.3" font-family="Helvetica,sans-Serif" font-size="11.00" fill="#000000">Generated by SchemaSpy</text>
<!-- arch_c14_DataCore -->
<g id="node1" class="node">
<title>arch_c14_DataCore</title>
<g id="a_node1"><a xlink:href="../../tables/arch_c14_DataCore.html" xlink:title="arch_c14_DataCore" target="_top">
<polygon fill="#ffffff" stroke="transparent" points="254,-38.2 254,-649.2 395,-649.2 395,-38.2 254,-38.2"/>
<polygon fill="#f5f5f5" stroke="transparent" points="254.5,-625.7 254.5,-648.7 395.5,-648.7 395.5,-625.7 254.5,-625.7"/>
<polygon fill="none" stroke="#000000" points="254.5,-625.7 254.5,-648.7 395.5,-648.7 395.5,-625.7 254.5,-625.7"/>
<text text-anchor="start" x="259.2943" y="-634.8" font-family="Helvetica,sans-Serif" font-weight="bold" font-size="11.00" fill="#000000">arch_c14_DataCore</text>
<text text-anchor="start" x="361.0219" y="-633.8" font-family="Helvetica,sans-Serif" font-size="11.00" fill="#000000">[table]</text>
<polygon fill="none" stroke="#000000" points="254.5,-603.7 254.5,-625.7 395.5,-625.7 395.5,-603.7 254.5,-603.7"/>
<image xlink:href="../../images/primaryKeys.png" width="11px" height="12px" preserveAspectRatio="xMinYMin meet" x="259.5" y="-620.7"/>
<text text-anchor="start" x="278.5" y="-610.8" font-family="Helvetica,sans-Serif" font-size="11.00" fill="#000000">OBSID1</text>
<polygon fill="none" stroke="#000000" points="254.5,-581.7 254.5,-603.7 395.5,-603.7 395.5,-581.7 254.5,-581.7"/>
<image xlink:href="../../images/foreignKeys.png" width="11px" height="12px" preserveAspectRatio="xMinYMin meet" x="259.5" y="-598.7"/>
<text text-anchor="start" x="278.5" y="-588.8" font-family="Helvetica,sans-Serif" font-size="11.00" fill="#000000">SMPID</text>
<polygon fill="none" stroke="#000000" points="254.5,-559.7 254.5,-581.7 395.5,-581.7 395.5,-559.7 254.5,-559.7"/>
<image xlink:href="../../images/foreignKeys.png" width="11px" height="12px" preserveAspectRatio="xMinYMin meet" x="259.5" y="-576.7"/>
<text text-anchor="start" x="278.5" y="-566.8" font-family="Helvetica,sans-Serif" font-size="11.00" fill="#000000">LAB_ORIGID</text>
<polygon fill="none" stroke="#000000" points="254.5,-537.7 254.5,-559.7 395.5,-559.7 395.5,-537.7 254.5,-537.7"/>
<image xlink:href="../../images/foreignKeys.png" width="11px" height="12px" preserveAspectRatio="xMinYMin meet" x="259.5" y="-554.7"/>
<text text-anchor="start" x="278.5" y="-544.8" font-family="Helvetica,sans-Serif" font-size="11.00" fill="#000000">METHODID</text>
<polygon fill="none" stroke="#000000" points="254.5,-515.7 254.5,-537.7 395.5,-537.7 395.5,-515.7 254.5,-515.7"/>
<image xlink:href="../../images/foreignKeys.png" width="11px" height="12px" preserveAspectRatio="xMinYMin meet" x="259.5" y="-532.7"/>
<text text-anchor="start" x="278.5" y="-522.8" font-family="Helvetica,sans-Serif" font-size="11.00" fill="#000000">DBDOI</text>
<polygon fill="none" stroke="#000000" points="254.5,-493.7 254.5,-515.7 395.5,-515.7 395.5,-493.7 254.5,-493.7"/>
<image xlink:href="../../images/foreignKeys.png" width="11px" height="12px" preserveAspectRatio="xMinYMin meet" x="259.5" y="-510.7"/>
<text text-anchor="start" x="278.5" y="-500.8" font-family="Helvetica,sans-Serif" font-size="11.00" fill="#000000">REFDBID1</text>
<polygon fill="none" stroke="#000000" points="254.5,-471.7 254.5,-493.7 395.5,-493.7 395.5,-471.7 254.5,-471.7"/>
<image xlink:href="../../images/foreignKeys.png" width="11px" height="12px" preserveAspectRatio="xMinYMin meet" x="259.5" y="-488.7"/>
<text text-anchor="start" x="278.5" y="-478.8" font-family="Helvetica,sans-Serif" font-size="11.00" fill="#000000">REFDBID2</text>
<polygon fill="none" stroke="#000000" points="254.5,-449.7 254.5,-471.7 395.5,-471.7 395.5,-449.7 254.5,-449.7"/>
<image xlink:href="../../images/foreignKeys.png" width="11px" height="12px" preserveAspectRatio="xMinYMin meet" x="259.5" y="-466.7"/>
<text text-anchor="start" x="278.5" y="-456.8" font-family="Helvetica,sans-Serif" font-size="11.00" fill="#000000">REFDBID3</text>
<polygon fill="none" stroke="#000000" points="254.5,-427.7 254.5,-449.7 395.5,-449.7 395.5,-427.7 254.5,-427.7"/>
<image xlink:href="../../images/foreignKeys.png" width="11px" height="12px" preserveAspectRatio="xMinYMin meet" x="259.5" y="-444.7"/>
<text text-anchor="start" x="278.5" y="-434.8" font-family="Helvetica,sans-Serif" font-size="11.00" fill="#000000">REFDBID4</text>
<polygon fill="none" stroke="#000000" points="254.5,-405.7 254.5,-427.7 395.5,-427.7 395.5,-405.7 254.5,-405.7"/>
<image xlink:href="../../images/foreignKeys.png" width="11px" height="12px" preserveAspectRatio="xMinYMin meet" x="259.5" y="-422.7"/>
<text text-anchor="start" x="278.5" y="-412.8" font-family="Helvetica,sans-Serif" font-size="11.00" fill="#000000">COL_MTDID</text>
<polygon fill="none" stroke="#000000" points="254.5,-383.7 254.5,-405.7 395.5,-405.7 395.5,-383.7 254.5,-383.7"/>
<image xlink:href="../../images/foreignKeys.png" width="11px" height="12px" preserveAspectRatio="xMinYMin meet" x="259.5" y="-400.7"/>
<text text-anchor="start" x="278.5" y="-390.8" font-family="Helvetica,sans-Serif" font-size="11.00" fill="#000000">MATERIA1ID</text>
<polygon fill="none" stroke="#000000" points="254.5,-361.7 254.5,-383.7 395.5,-383.7 395.5,-361.7 254.5,-361.7"/>
<image xlink:href="../../images/foreignKeys.png" width="11px" height="12px" preserveAspectRatio="xMinYMin meet" x="259.5" y="-378.7"/>
<text text-anchor="start" x="278.5" y="-368.8" font-family="Helvetica,sans-Serif" font-size="11.00" fill="#000000">MATERIA2ID</text>
<polygon fill="none" stroke="#000000" points="254.5,-339.7 254.5,-361.7 395.5,-361.7 395.5,-339.7 254.5,-339.7"/>
<image xlink:href="../../images/foreignKeys.png" width="11px" height="12px" preserveAspectRatio="xMinYMin meet" x="259.5" y="-356.7"/>
<text text-anchor="start" x="278.5" y="-346.8" font-family="Helvetica,sans-Serif" font-size="11.00" fill="#000000">HUM_MODID</text>
<polygon fill="none" stroke="#000000" points="254.5,-317.7 254.5,-339.7 395.5,-339.7 395.5,-317.7 254.5,-317.7"/>
<image xlink:href="../../images/foreignKeys.png" width="11px" height="12px" preserveAspectRatio="xMinYMin meet" x="259.5" y="-334.7"/>
<text text-anchor="start" x="278.5" y="-324.8" font-family="Helvetica,sans-Serif" font-size="11.00" fill="#000000">CONTAMID</text>
<polygon fill="none" stroke="#000000" points="254.5,-295.7 254.5,-317.7 395.5,-317.7 395.5,-295.7 254.5,-295.7"/>
<image xlink:href="../../images/foreignKeys.png" width="11px" height="12px" preserveAspectRatio="xMinYMin meet" x="259.5" y="-312.7"/>
<text text-anchor="start" x="278.5" y="-302.8" font-family="Helvetica,sans-Serif" font-size="11.00" fill="#000000">CHEMPREPID</text>
<polygon fill="none" stroke="#000000" points="254.5,-273.7 254.5,-295.7 395.5,-295.7 395.5,-273.7 254.5,-273.7"/>
<image xlink:href="../../images/foreignKeys.png" width="11px" height="12px" preserveAspectRatio="xMinYMin meet" x="259.5" y="-290.7"/>
<text text-anchor="start" x="278.5" y="-280.8" font-family="Helvetica,sans-Serif" font-size="11.00" fill="#000000">SOLVENT2ID</text>
<polygon fill="none" stroke="#000000" points="254.5,-251.7 254.5,-273.7 395.5,-273.7 395.5,-251.7 254.5,-251.7"/>
<image xlink:href="../../images/foreignKeys.png" width="11px" height="12px" preserveAspectRatio="xMinYMin meet" x="259.5" y="-268.7"/>
<text text-anchor="start" x="278.5" y="-258.8" font-family="Helvetica,sans-Serif" font-size="11.00" fill="#000000">C_MTDID</text>
<polygon fill="none" stroke="#000000" points="254.5,-229.7 254.5,-251.7 395.5,-251.7 395.5,-229.7 254.5,-229.7"/>
<image xlink:href="../../images/foreignKeys.png" width="11px" height="12px" preserveAspectRatio="xMinYMin meet" x="259.5" y="-246.7"/>
<text text-anchor="start" x="278.5" y="-236.8" font-family="Helvetica,sans-Serif" font-size="11.00" fill="#000000">PCT_C_MTID</text>
<polygon fill="none" stroke="#000000" points="254.5,-207.7 254.5,-229.7 395.5,-229.7 395.5,-207.7 254.5,-207.7"/>
<image xlink:href="../../images/foreignKeys.png" width="11px" height="12px" preserveAspectRatio="xMinYMin meet" x="259.5" y="-224.7"/>
<text text-anchor="start" x="278.5" y="-214.8" font-family="Helvetica,sans-Serif" font-size="11.00" fill="#000000">PCT_N_MTID</text>
<polygon fill="none" stroke="#000000" points="254.5,-185.7 254.5,-207.7 395.5,-207.7 395.5,-185.7 254.5,-185.7"/>
<image xlink:href="../../images/foreignKeys.png" width="11px" height="12px" preserveAspectRatio="xMinYMin meet" x="259.5" y="-202.7"/>
<text text-anchor="start" x="278.5" y="-192.8" font-family="Helvetica,sans-Serif" font-size="11.00" fill="#000000">CN_MTDID</text>
<polygon fill="none" stroke="#000000" points="254.5,-163.7 254.5,-185.7 395.5,-185.7 395.5,-163.7 254.5,-163.7"/>
<image xlink:href="../../images/foreignKeys.png" width="11px" height="12px" preserveAspectRatio="xMinYMin meet" x="259.5" y="-180.7"/>
<text text-anchor="start" x="278.5" y="-170.8" font-family="Helvetica,sans-Serif" font-size="11.00" fill="#000000">C13_MTDID</text>
<polygon fill="none" stroke="#000000" points="254.5,-141.7 254.5,-163.7 395.5,-163.7 395.5,-141.7 254.5,-141.7"/>
<image xlink:href="../../images/foreignKeys.png" width="11px" height="12px" preserveAspectRatio="xMinYMin meet" x="259.5" y="-158.7"/>
<text text-anchor="start" x="278.5" y="-148.8" font-family="Helvetica,sans-Serif" font-size="11.00" fill="#000000">O18_MTDID</text>
<polygon fill="none" stroke="#000000" points="254.5,-119.7 254.5,-141.7 395.5,-141.7 395.5,-119.7 254.5,-119.7"/>
<image xlink:href="../../images/foreignKeys.png" width="11px" height="12px" preserveAspectRatio="xMinYMin meet" x="259.5" y="-136.7"/>
<text text-anchor="start" x="278.5" y="-126.8" font-family="Helvetica,sans-Serif" font-size="11.00" fill="#000000">N15_MTDID</text>
<polygon fill="none" stroke="#000000" points="254.5,-97.7 254.5,-119.7 395.5,-119.7 395.5,-97.7 254.5,-97.7"/>
<image xlink:href="../../images/foreignKeys.png" width="11px" height="12px" preserveAspectRatio="xMinYMin meet" x="259.5" y="-114.7"/>
<text text-anchor="start" x="278.5" y="-104.8" font-family="Helvetica,sans-Serif" font-size="11.00" fill="#000000">S34_MTDID</text>
<polygon fill="none" stroke="#000000" points="254.5,-75.7 254.5,-97.7 395.5,-97.7 395.5,-75.7 254.5,-75.7"/>
<image xlink:href="../../images/foreignKeys.png" width="11px" height="12px" preserveAspectRatio="xMinYMin meet" x="259.5" y="-92.7"/>
<text text-anchor="start" x="278.5" y="-82.8" font-family="Helvetica,sans-Serif" font-size="11.00" fill="#000000">C13_VALID</text>
<polygon fill="none" stroke="#000000" points="254.5,-56.7 254.5,-75.7 395.5,-75.7 395.5,-56.7 254.5,-56.7"/>
<text text-anchor="start" x="257.5" y="-62.8" font-family="Helvetica,sans-Serif" font-size="11.00" fill="#000000">...</text>
<polygon fill="#ffffff" stroke="transparent" points="254.5,-37.7 254.5,-56.7 298.5,-56.7 298.5,-37.7 254.5,-37.7"/>
<polygon fill="none" stroke="#000000" points="254.5,-37.7 254.5,-56.7 298.5,-56.7 298.5,-37.7 254.5,-37.7"/>
<text text-anchor="start" x="257.5" y="-43.8" font-family="Helvetica,sans-Serif" font-size="11.00" fill="#000000">&lt; 24</text>
<polygon fill="#ffffff" stroke="transparent" points="298.5,-37.7 298.5,-56.7 365.5,-56.7 365.5,-37.7 298.5,-37.7"/>
<polygon fill="none" stroke="#000000" points="298.5,-37.7 298.5,-56.7 365.5,-56.7 365.5,-37.7 298.5,-37.7"/>
<text text-anchor="start" x="308.7089" y="-43.8" font-family="Helvetica,sans-Serif" font-size="11.00" fill="#000000">9,501 rows</text>
<polygon fill="#ffffff" stroke="transparent" points="365.5,-37.7 365.5,-56.7 395.5,-56.7 395.5,-37.7 365.5,-37.7"/>
<polygon fill="none" stroke="#000000" points="365.5,-37.7 365.5,-56.7 395.5,-56.7 395.5,-37.7 365.5,-37.7"/>
<text text-anchor="start" x="376.9053" y="-43.8" font-family="Helvetica,sans-Serif" font-size="11.00" fill="#000000">1 &gt;</text>
</a>
</g>
</g>
<!-- c_mtdID -->
<g id="node2" class="node">
<title>c_mtdID</title>
<g id="a_node2"><a xlink:href="../../tables/c_mtdID.html" xlink:title="c_mtdID" target="_top">
<polygon fill="#ffffff" stroke="transparent" points="8,-65.7 8,-221.7 205,-221.7 205,-65.7 8,-65.7"/>
<polygon fill="#f5f5f5" stroke="transparent" points="10.5,-196.7 10.5,-219.7 203.5,-219.7 203.5,-196.7 10.5,-196.7"/>
<polygon fill="none" stroke="#000000" points="10.5,-196.7 10.5,-219.7 203.5,-219.7 203.5,-196.7 10.5,-196.7"/>
<text text-anchor="start" x="15.5" y="-205.8" font-family="Helvetica,sans-Serif" font-weight="bold" font-size="11.00" fill="#000000">c_mtdID</text>
<text text-anchor="start" x="168.5437" y="-204.8" font-family="Helvetica,sans-Serif" font-size="11.00" fill="#000000">[table]</text>
<polygon fill="none" stroke="#000000" points="10.5,-174.7 10.5,-196.7 111.5,-196.7 111.5,-174.7 10.5,-174.7"/>
<image xlink:href="../../images/primaryKeys.png" width="11px" height="12px" preserveAspectRatio="xMinYMin meet" x="15.5" y="-191.7"/>
<text text-anchor="start" x="30.5" y="-181.8" font-family="Helvetica,sans-Serif" font-size="11.00" fill="#000000">C_MTDID</text>
<polygon fill="none" stroke="#000000" points="111.5,-174.7 111.5,-196.7 203.5,-196.7 203.5,-174.7 111.5,-174.7"/>
<text text-anchor="start" x="114.5" y="-182.4" font-family="Helvetica,sans-Serif" font-size="11.00" fill="#000000">int2[5]</text>
<polygon fill="#ffffff" stroke="transparent" points="10.5,-152.7 10.5,-174.7 111.5,-174.7 111.5,-152.7 10.5,-152.7"/>
<polygon fill="none" stroke="#000000" points="10.5,-152.7 10.5,-174.7 111.5,-174.7 111.5,-152.7 10.5,-152.7"/>
<text text-anchor="start" x="30.5" y="-159.8" font-family="Helvetica,sans-Serif" font-size="11.00" fill="#000000">C_MTD</text>
<polygon fill="none" stroke="#000000" points="111.5,-152.7 111.5,-174.7 203.5,-174.7 203.5,-152.7 111.5,-152.7"/>
<text text-anchor="start" x="114.5" y="-160.4" font-family="Helvetica,sans-Serif" font-size="11.00" fill="#000000">text[2147483647]</text>
<polygon fill="#ffffff" stroke="transparent" points="10.5,-130.7 10.5,-152.7 111.5,-152.7 111.5,-130.7 10.5,-130.7"/>
<polygon fill="none" stroke="#000000" points="10.5,-130.7 10.5,-152.7 111.5,-152.7 111.5,-130.7 10.5,-130.7"/>
<text text-anchor="start" x="30.5" y="-137.8" font-family="Helvetica,sans-Serif" font-size="11.00" fill="#000000">C_MTDAB</text>
<polygon fill="none" stroke="#000000" points="111.5,-130.7 111.5,-152.7 203.5,-152.7 203.5,-130.7 111.5,-130.7"/>
<text text-anchor="start" x="114.5" y="-138.4" font-family="Helvetica,sans-Serif" font-size="11.00" fill="#000000">text[2147483647]</text>
<polygon fill="none" stroke="#000000" points="10.5,-108.7 10.5,-130.7 111.5,-130.7 111.5,-108.7 10.5,-108.7"/>
<text text-anchor="start" x="30.5" y="-115.8" font-family="Helvetica,sans-Serif" font-size="11.00" fill="#000000">CREATED_AT</text>
<polygon fill="none" stroke="#000000" points="111.5,-108.7 111.5,-130.7 203.5,-130.7 203.5,-108.7 111.5,-108.7"/>
<text text-anchor="start" x="114.1023" y="-116.4" font-family="Helvetica,sans-Serif" font-size="11.00" fill="#000000">timestamptz[35,6]</text>
<polygon fill="none" stroke="#000000" points="10.5,-86.7 10.5,-108.7 111.5,-108.7 111.5,-86.7 10.5,-86.7"/>
<text text-anchor="start" x="30.5" y="-93.8" font-family="Helvetica,sans-Serif" font-size="11.00" fill="#000000">UPDATED_AT</text>
<polygon fill="none" stroke="#000000" points="111.5,-86.7 111.5,-108.7 203.5,-108.7 203.5,-86.7 111.5,-86.7"/>
<text text-anchor="start" x="114.1023" y="-94.4" font-family="Helvetica,sans-Serif" font-size="11.00" fill="#000000">timestamptz[35,6]</text>
<polygon fill="#ffffff" stroke="transparent" points="10.5,-67.7 10.5,-86.7 52.5,-86.7 52.5,-67.7 10.5,-67.7"/>
<polygon fill="none" stroke="#000000" points="10.5,-67.7 10.5,-86.7 52.5,-86.7 52.5,-67.7 10.5,-67.7"/>
<text text-anchor="start" x="13.5" y="-73.8" font-family="Helvetica,sans-Serif" font-size="11.00" fill="#000000">&lt; 0</text>
<polygon fill="#ffffff" stroke="transparent" points="52.5,-67.7 52.5,-86.7 111.5,-86.7 111.5,-67.7 52.5,-67.7"/>
<polygon fill="none" stroke="#000000" points="52.5,-67.7 52.5,-86.7 111.5,-86.7 111.5,-67.7 52.5,-67.7"/>
<text text-anchor="start" x="76.1105" y="-73.8" font-family="Helvetica,sans-Serif" font-size="11.00" fill="#000000">6 rows</text>
<polygon fill="#ffffff" stroke="transparent" points="111.5,-67.7 111.5,-86.7 203.5,-86.7 203.5,-67.7 111.5,-67.7"/>
<polygon fill="none" stroke="#000000" points="111.5,-67.7 111.5,-86.7 203.5,-86.7 203.5,-67.7 111.5,-67.7"/>
<text text-anchor="start" x="184.9053" y="-73.8" font-family="Helvetica,sans-Serif" font-size="11.00" fill="#000000">8 &gt;</text>
<polygon fill="none" stroke="#000000" stroke-width="2" points="9,-66.7 9,-220.7 204,-220.7 204,-66.7 9,-66.7"/>
</a>
</g>
</g>
<!-- arch_c14_DataCore&#45;&gt;c_mtdID -->
<g id="edge1" class="edge">
<title>arch_c14_DataCore:w&#45;&gt;c_mtdID:e</title>
<path fill="none" stroke="#000000" d="M240.0097,-176.4188C227.8398,-179.5125 220.8909,-185.7 203.5,-185.7"/>
<polygon fill="#000000" stroke="#000000" points="246.5557,-175.6424 254.9241,-178.2749 250.5278,-175.1712 254.5,-174.7 254.5,-174.7 254.5,-174.7 250.5278,-175.1712 254.0759,-171.1251 246.5557,-175.6424 246.5557,-175.6424"/>
<ellipse fill="none" stroke="#000000" cx="243.378" cy="-176.0193" rx="3.2" ry="3.2"/>
</g>
<!-- arch_c14_DataCore&#45;&gt;c_mtdID -->
<g id="edge2" class="edge">
<title>arch_c14_DataCore:w&#45;&gt;c_mtdID:e</title>
<path fill="none" stroke="#000000" d="M240.5177,-258.1139C221.094,-241.5372 238.4549,-185.7 203.5,-185.7"/>
<polygon fill="#000000" stroke="#000000" points="246.8984,-260.2067 253.378,-266.1207 250.6992,-261.4534 254.5,-262.7 254.5,-262.7 254.5,-262.7 250.6992,-261.4534 255.622,-259.2793 246.8984,-260.2067 246.8984,-260.2067"/>
<ellipse fill="none" stroke="#000000" cx="243.8578" cy="-259.2094" rx="3.2" ry="3.2"/>
</g>
<!-- arch_c14_DataCore&#45;&gt;c_mtdID -->
<g id="edge3" class="edge">
<title>arch_c14_DataCore:w&#45;&gt;c_mtdID:e</title>
<path fill="none" stroke="#000000" d="M240.0097,-194.9813C227.8398,-191.8875 220.8909,-185.7 203.5,-185.7"/>
<polygon fill="#000000" stroke="#000000" points="246.5557,-195.7576 254.0759,-200.2749 250.5278,-196.2288 254.5,-196.7 254.5,-196.7 254.5,-196.7 250.5278,-196.2288 254.9241,-193.1251 246.5557,-195.7576 246.5557,-195.7576"/>
<ellipse fill="none" stroke="#000000" cx="243.378" cy="-195.3807" rx="3.2" ry="3.2"/>
</g>
<!-- arch_c14_DataCore&#45;&gt;c_mtdID -->
<g id="edge4" class="edge">
<title>arch_c14_DataCore:w&#45;&gt;c_mtdID:e</title>
<path fill="none" stroke="#000000" d="M240.7081,-135.3893C225.2137,-148.6898 230.8462,-185.7 203.5,-185.7"/>
<polygon fill="#000000" stroke="#000000" points="246.9258,-133.2753 255.6589,-134.1084 250.7129,-131.9876 254.5,-130.7 254.5,-130.7 254.5,-130.7 250.7129,-131.9876 253.3411,-127.2916 246.9258,-133.2753 246.9258,-133.2753"/>
<ellipse fill="none" stroke="#000000" cx="243.8961" cy="-134.3054" rx="3.2" ry="3.2"/>
</g>
<!-- arch_c14_DataCore&#45;&gt;c_mtdID -->
<g id="edge5" class="edge">
<title>arch_c14_DataCore:w&#45;&gt;c_mtdID:e</title>
<path fill="none" stroke="#000000" d="M240.4604,-156.7464C227.3775,-165.5584 224.5921,-185.7 203.5,-185.7"/>
<polygon fill="#000000" stroke="#000000" points="246.8129,-154.9156 255.497,-156.1592 250.6565,-153.8078 254.5,-152.7 254.5,-152.7 254.5,-152.7 250.6565,-153.8078 253.503,-149.2408 246.8129,-154.9156 246.8129,-154.9156"/>
<ellipse fill="none" stroke="#000000" cx="243.7381" cy="-155.8018" rx="3.2" ry="3.2"/>
</g>
<!-- arch_c14_DataCore&#45;&gt;c_mtdID -->
<g id="edge6" class="edge">
<title>arch_c14_DataCore:w&#45;&gt;c_mtdID:e</title>
<path fill="none" stroke="#000000" d="M240.7081,-236.0107C225.2137,-222.7102 230.8462,-185.7 203.5,-185.7"/>
<polygon fill="#000000" stroke="#000000" points="246.9258,-238.1247 253.3411,-244.1084 250.7129,-239.4124 254.5,-240.7 254.5,-240.7 254.5,-240.7 250.7129,-239.4124 255.6589,-237.2916 246.9258,-238.1247 246.9258,-238.1247"/>
<ellipse fill="none" stroke="#000000" cx="243.8961" cy="-237.0946" rx="3.2" ry="3.2"/>
</g>
<!-- arch_c14_DataCore&#45;&gt;c_mtdID -->
<g id="edge7" class="edge">
<title>arch_c14_DataCore:w&#45;&gt;c_mtdID:e</title>
<path fill="none" stroke="#000000" d="M240.4604,-214.6536C227.3775,-205.8416 224.5921,-185.7 203.5,-185.7"/>
<polygon fill="#000000" stroke="#000000" points="246.8129,-216.4844 253.503,-222.1592 250.6565,-217.5922 254.5,-218.7 254.5,-218.7 254.5,-218.7 250.6565,-217.5922 255.497,-215.2408 246.8129,-216.4844 246.8129,-216.4844"/>
<ellipse fill="none" stroke="#000000" cx="243.7381" cy="-215.5982" rx="3.2" ry="3.2"/>
</g>
<!-- arch_c14_DataCore&#45;&gt;c_mtdID -->
<g id="edge8" class="edge">
<title>arch_c14_DataCore:w&#45;&gt;c_mtdID:e</title>
<path fill="none" stroke="#000000" d="M240.5177,-113.2861C221.094,-129.8628 238.4549,-185.7 203.5,-185.7"/>
<polygon fill="#000000" stroke="#000000" points="246.8984,-111.1933 255.622,-112.1207 250.6992,-109.9466 254.5,-108.7 254.5,-108.7 254.5,-108.7 250.6992,-109.9466 253.378,-105.2793 246.8984,-111.1933 246.8984,-111.1933"/>
<ellipse fill="none" stroke="#000000" cx="243.8578" cy="-112.1906" rx="3.2" ry="3.2"/>
</g>
</g>
</svg>
