<?xml version="1.0" encoding="UTF-8" standalone="no"?>
<!DOCTYPE svg PUBLIC "-//W3C//DTD SVG 1.1//EN"
 "http://www.w3.org/Graphics/SVG/1.1/DTD/svg11.dtd">
<!-- Generated by graphviz version 2.40.1 (20161225.0304)
 -->
<!-- Title: twoDegreesRelationshipsDiagramImplied Pages: 1 -->
<svg width="421pt" height="1027pt"
 viewBox="0.00 0.00 421.00 1027.20" xmlns="http://www.w3.org/2000/svg" xmlns:xlink="http://www.w3.org/1999/xlink">
<g id="graph0" class="graph" transform="scale(1 1) rotate(0) translate(4 1023.2)">
<title>twoDegreesRelationshipsDiagramImplied</title>
<polygon fill="#ffffff" stroke="transparent" points="-4,4 -4,-1023.2 417,-1023.2 417,4 -4,4"/>
<text text-anchor="middle" x="72.4936" y="-7.3" font-family="Helvetica,sans-Serif" font-size="11.00" fill="#000000">Generated by SchemaSpy</text>
<!-- arch_c14_DataCore -->
<g id="node1" class="node">
<title>arch_c14_DataCore</title>
<g id="a_node1"><a xlink:href="../../tables/arch_c14_DataCore.html" xlink:title="arch_c14_DataCore" target="_top">
<polygon fill="#ffffff" stroke="transparent" points="254,-413.2 254,-738.2 405,-738.2 405,-413.2 254,-413.2"/>
<polygon fill="#f5f5f5" stroke="transparent" points="254.5,-714.7 254.5,-737.7 405.5,-737.7 405.5,-714.7 254.5,-714.7"/>
<polygon fill="none" stroke="#000000" points="254.5,-714.7 254.5,-737.7 405.5,-737.7 405.5,-714.7 254.5,-714.7"/>
<text text-anchor="start" x="259.5" y="-723.3" font-family="Helvetica,sans-Serif" font-weight="bold" font-size="11.00" fill="#000000">arch_c14_DataCore</text>
<text text-anchor="start" x="371.0219" y="-722.8" font-family="Helvetica,sans-Serif" font-size="11.00" fill="#000000">[table]</text>
<polygon fill="none" stroke="#000000" points="254.5,-692.7 254.5,-714.7 405.5,-714.7 405.5,-692.7 254.5,-692.7"/>
<image xlink:href="../../images/primaryKeys.png" width="11px" height="12px" preserveAspectRatio="xMinYMin meet" x="259.5" y="-709.7"/>
<text text-anchor="start" x="283.5" y="-699.8" font-family="Helvetica,sans-Serif" font-size="11.00" fill="#000000">OBSID1</text>
<polygon fill="none" stroke="#000000" points="254.5,-670.7 254.5,-692.7 405.5,-692.7 405.5,-670.7 254.5,-670.7"/>
<image xlink:href="../../images/foreignKeys.png" width="11px" height="12px" preserveAspectRatio="xMinYMin meet" x="259.5" y="-687.7"/>
<text text-anchor="start" x="283.5" y="-677.8" font-family="Helvetica,sans-Serif" font-size="11.00" fill="#000000">SMPID</text>
<polygon fill="none" stroke="#000000" points="254.5,-648.7 254.5,-670.7 405.5,-670.7 405.5,-648.7 254.5,-648.7"/>
<image xlink:href="../../images/foreignKeys.png" width="11px" height="12px" preserveAspectRatio="xMinYMin meet" x="259.5" y="-665.7"/>
<text text-anchor="start" x="283.5" y="-655.8" font-family="Helvetica,sans-Serif" font-size="11.00" fill="#000000">LAB_ORIGID</text>
<polygon fill="none" stroke="#000000" points="254.5,-626.7 254.5,-648.7 405.5,-648.7 405.5,-626.7 254.5,-626.7"/>
<image xlink:href="../../images/foreignKeys.png" width="11px" height="12px" preserveAspectRatio="xMinYMin meet" x="259.5" y="-643.7"/>
<text text-anchor="start" x="283.5" y="-633.8" font-family="Helvetica,sans-Serif" font-size="11.00" fill="#000000">COL_MTDID</text>
<polygon fill="none" stroke="#000000" points="254.5,-604.7 254.5,-626.7 405.5,-626.7 405.5,-604.7 254.5,-604.7"/>
<image xlink:href="../../images/foreignKeys.png" width="11px" height="12px" preserveAspectRatio="xMinYMin meet" x="259.5" y="-621.7"/>
<text text-anchor="start" x="283.5" y="-611.8" font-family="Helvetica,sans-Serif" font-size="11.00" fill="#000000">MATERIA1ID</text>
<polygon fill="none" stroke="#000000" points="254.5,-582.7 254.5,-604.7 405.5,-604.7 405.5,-582.7 254.5,-582.7"/>
<image xlink:href="../../images/foreignKeys.png" width="11px" height="12px" preserveAspectRatio="xMinYMin meet" x="259.5" y="-599.7"/>
<text text-anchor="start" x="283.5" y="-589.8" font-family="Helvetica,sans-Serif" font-size="11.00" fill="#000000">MATERIA2ID</text>
<polygon fill="none" stroke="#000000" points="254.5,-560.7 254.5,-582.7 405.5,-582.7 405.5,-560.7 254.5,-560.7"/>
<image xlink:href="../../images/foreignKeys.png" width="11px" height="12px" preserveAspectRatio="xMinYMin meet" x="259.5" y="-577.7"/>
<text text-anchor="start" x="283.5" y="-567.8" font-family="Helvetica,sans-Serif" font-size="11.00" fill="#000000">HUM_MODID</text>
<polygon fill="none" stroke="#000000" points="254.5,-538.7 254.5,-560.7 405.5,-560.7 405.5,-538.7 254.5,-538.7"/>
<image xlink:href="../../images/foreignKeys.png" width="11px" height="12px" preserveAspectRatio="xMinYMin meet" x="259.5" y="-555.7"/>
<text text-anchor="start" x="283.5" y="-545.8" font-family="Helvetica,sans-Serif" font-size="11.00" fill="#000000">CONTAMID</text>
<polygon fill="none" stroke="#000000" points="254.5,-516.7 254.5,-538.7 405.5,-538.7 405.5,-516.7 254.5,-516.7"/>
<image xlink:href="../../images/foreignKeys.png" width="11px" height="12px" preserveAspectRatio="xMinYMin meet" x="259.5" y="-533.7"/>
<text text-anchor="start" x="283.5" y="-523.8" font-family="Helvetica,sans-Serif" font-size="11.00" fill="#000000">CHEMPREPID</text>
<polygon fill="none" stroke="#000000" points="254.5,-494.7 254.5,-516.7 405.5,-516.7 405.5,-494.7 254.5,-494.7"/>
<image xlink:href="../../images/foreignKeys.png" width="11px" height="12px" preserveAspectRatio="xMinYMin meet" x="259.5" y="-511.7"/>
<text text-anchor="start" x="283.5" y="-501.8" font-family="Helvetica,sans-Serif" font-size="11.00" fill="#000000">SOLVENT2ID</text>
<polygon fill="none" stroke="#000000" points="254.5,-472.7 254.5,-494.7 405.5,-494.7 405.5,-472.7 254.5,-472.7"/>
<image xlink:href="../../images/foreignKeys.png" width="11px" height="12px" preserveAspectRatio="xMinYMin meet" x="259.5" y="-489.7"/>
<text text-anchor="start" x="283.5" y="-479.8" font-family="Helvetica,sans-Serif" font-size="11.00" fill="#000000">C_MTDID</text>
<polygon fill="none" stroke="#000000" points="254.5,-450.7 254.5,-472.7 405.5,-472.7 405.5,-450.7 254.5,-450.7"/>
<image xlink:href="../../images/foreignKeys.png" width="11px" height="12px" preserveAspectRatio="xMinYMin meet" x="259.5" y="-467.7"/>
<text text-anchor="start" x="283.5" y="-457.8" font-family="Helvetica,sans-Serif" font-size="11.00" fill="#000000">C13_VALID</text>
<polygon fill="none" stroke="#000000" points="254.5,-431.7 254.5,-450.7 405.5,-450.7 405.5,-431.7 254.5,-431.7"/>
<text text-anchor="start" x="257.5" y="-437.8" font-family="Helvetica,sans-Serif" font-size="11.00" fill="#000000">...</text>
<polygon fill="#ffffff" stroke="transparent" points="254.5,-412.7 254.5,-431.7 307.5,-431.7 307.5,-412.7 254.5,-412.7"/>
<polygon fill="none" stroke="#000000" points="254.5,-412.7 254.5,-431.7 307.5,-431.7 307.5,-412.7 254.5,-412.7"/>
<text text-anchor="start" x="257.5" y="-418.8" font-family="Helvetica,sans-Serif" font-size="11.00" fill="#000000">&lt; 11</text>
<polygon fill="#ffffff" stroke="transparent" points="307.5,-412.7 307.5,-431.7 379.5,-431.7 379.5,-412.7 307.5,-412.7"/>
<polygon fill="none" stroke="#000000" points="307.5,-412.7 307.5,-431.7 379.5,-431.7 379.5,-412.7 307.5,-412.7"/>
<text text-anchor="start" x="322.7089" y="-418.8" font-family="Helvetica,sans-Serif" font-size="11.00" fill="#000000">9.501 rows</text>
<polygon fill="#ffffff" stroke="transparent" points="379.5,-412.7 379.5,-431.7 405.5,-431.7 405.5,-412.7 379.5,-412.7"/>
<polygon fill="none" stroke="#000000" points="379.5,-412.7 379.5,-431.7 405.5,-431.7 405.5,-412.7 379.5,-412.7"/>
<text text-anchor="start" x="396.3862" y="-418.8" font-family="Helvetica,sans-Serif" font-size="11.00" fill="#000000"> &#160;</text>
</a>
</g>
</g>
<!-- c13_valID -->
<g id="node2" class="node">
<title>c13_valID</title>
<g id="a_node2"><a xlink:href="../../tables/c13_valID.html" xlink:title="c13_valID" target="_top">
<polygon fill="#ffffff" stroke="transparent" points="59.5,-38.2 59.5,-99.2 153.5,-99.2 153.5,-38.2 59.5,-38.2"/>
<polygon fill="#f5f5f5" stroke="transparent" points="59.5,-75.7 59.5,-98.7 153.5,-98.7 153.5,-75.7 59.5,-75.7"/>
<polygon fill="none" stroke="#000000" points="59.5,-75.7 59.5,-98.7 153.5,-98.7 153.5,-75.7 59.5,-75.7"/>
<text text-anchor="start" x="64.5" y="-84.3" font-family="Helvetica,sans-Serif" font-weight="bold" font-size="11.00" fill="#000000">c13_valID</text>
<text text-anchor="start" x="119.0219" y="-83.8" font-family="Helvetica,sans-Serif" font-size="11.00" fill="#000000">[table]</text>
<polygon fill="none" stroke="#000000" points="59.5,-56.7 59.5,-75.7 153.5,-75.7 153.5,-56.7 59.5,-56.7"/>
<text text-anchor="start" x="62.5" y="-62.8" font-family="Helvetica,sans-Serif" font-size="11.00" fill="#000000">...</text>
<polygon fill="#ffffff" stroke="transparent" points="59.5,-37.7 59.5,-56.7 82.5,-56.7 82.5,-37.7 59.5,-37.7"/>
<polygon fill="none" stroke="#000000" points="59.5,-37.7 59.5,-56.7 82.5,-56.7 82.5,-37.7 59.5,-37.7"/>
<text text-anchor="start" x="62.5" y="-43.8" font-family="Helvetica,sans-Serif" font-size="11.00" fill="#000000"> &#160;</text>
<polygon fill="#ffffff" stroke="transparent" points="82.5,-37.7 82.5,-56.7 126.5,-56.7 126.5,-37.7 82.5,-37.7"/>
<polygon fill="none" stroke="#000000" points="82.5,-37.7 82.5,-56.7 126.5,-56.7 126.5,-37.7 82.5,-37.7"/>
<text text-anchor="start" x="91.1105" y="-43.8" font-family="Helvetica,sans-Serif" font-size="11.00" fill="#000000">4 rows</text>
<polygon fill="#ffffff" stroke="transparent" points="126.5,-37.7 126.5,-56.7 153.5,-56.7 153.5,-37.7 126.5,-37.7"/>
<polygon fill="none" stroke="#000000" points="126.5,-37.7 126.5,-56.7 153.5,-56.7 153.5,-37.7 126.5,-37.7"/>
<text text-anchor="start" x="134.9053" y="-43.8" font-family="Helvetica,sans-Serif" font-size="11.00" fill="#000000">1 &gt;</text>
</a>
</g>
</g>
<!-- arch_c14_DataCore&#45;&gt;c13_valID -->
<g id="edge1" class="edge">
<title>arch_c14_DataCore:w&#45;&gt;c13_valID:e</title>
<path fill="none" stroke="#000000" stroke-dasharray="5,2" d="M240.4411,-457.88C185.691,-423.8976 249.8236,-173.1713 213,-109.7 196.4953,-81.2514 186.3896,-65.7 153.5,-65.7"/>
<polygon fill="#000000" stroke="#000000" points="246.7799,-459.6023 253.556,-465.174 250.64,-460.6512 254.5,-461.7 254.5,-461.7 254.5,-461.7 250.64,-460.6512 255.444,-458.226 246.7799,-459.6023 246.7799,-459.6023"/>
<ellipse fill="none" stroke="#000000" cx="243.6919" cy="-458.7632" rx="3.2" ry="3.2"/>
</g>
<!-- c_mtdID -->
<g id="node3" class="node">
<title>c_mtdID</title>
<g id="a_node3"><a xlink:href="../../tables/c_mtdID.html" xlink:title="c_mtdID" target="_top">
<polygon fill="#ffffff" stroke="transparent" points="8,-120.7 8,-276.7 205,-276.7 205,-120.7 8,-120.7"/>
<polygon fill="#f5f5f5" stroke="transparent" points="10.5,-251.7 10.5,-274.7 203.5,-274.7 203.5,-251.7 10.5,-251.7"/>
<polygon fill="none" stroke="#000000" points="10.5,-251.7 10.5,-274.7 203.5,-274.7 203.5,-251.7 10.5,-251.7"/>
<text text-anchor="start" x="15.5" y="-260.3" font-family="Helvetica,sans-Serif" font-weight="bold" font-size="11.00" fill="#000000">c_mtdID</text>
<text text-anchor="start" x="168.5437" y="-259.8" font-family="Helvetica,sans-Serif" font-size="11.00" fill="#000000">[table]</text>
<polygon fill="none" stroke="#000000" points="10.5,-229.7 10.5,-251.7 111.5,-251.7 111.5,-229.7 10.5,-229.7"/>
<image xlink:href="../../images/primaryKeys.png" width="11px" height="12px" preserveAspectRatio="xMinYMin meet" x="15.5" y="-246.7"/>
<text text-anchor="start" x="30.5" y="-236.8" font-family="Helvetica,sans-Serif" font-size="11.00" fill="#000000">C_MTDID</text>
<polygon fill="none" stroke="#000000" points="111.5,-229.7 111.5,-251.7 203.5,-251.7 203.5,-229.7 111.5,-229.7"/>
<text text-anchor="start" x="114.5" y="-237.4" font-family="Helvetica,sans-Serif" font-size="11.00" fill="#000000">int2[5]</text>
<polygon fill="#ffffff" stroke="transparent" points="10.5,-207.7 10.5,-229.7 111.5,-229.7 111.5,-207.7 10.5,-207.7"/>
<polygon fill="none" stroke="#000000" points="10.5,-207.7 10.5,-229.7 111.5,-229.7 111.5,-207.7 10.5,-207.7"/>
<text text-anchor="start" x="30.5" y="-214.8" font-family="Helvetica,sans-Serif" font-size="11.00" fill="#000000">C_MTD</text>
<polygon fill="none" stroke="#000000" points="111.5,-207.7 111.5,-229.7 203.5,-229.7 203.5,-207.7 111.5,-207.7"/>
<text text-anchor="start" x="114.5" y="-215.4" font-family="Helvetica,sans-Serif" font-size="11.00" fill="#000000">text[2147483647]</text>
<polygon fill="#ffffff" stroke="transparent" points="10.5,-185.7 10.5,-207.7 111.5,-207.7 111.5,-185.7 10.5,-185.7"/>
<polygon fill="none" stroke="#000000" points="10.5,-185.7 10.5,-207.7 111.5,-207.7 111.5,-185.7 10.5,-185.7"/>
<text text-anchor="start" x="30.5" y="-192.8" font-family="Helvetica,sans-Serif" font-size="11.00" fill="#000000">C_MTDAB</text>
<polygon fill="none" stroke="#000000" points="111.5,-185.7 111.5,-207.7 203.5,-207.7 203.5,-185.7 111.5,-185.7"/>
<text text-anchor="start" x="114.5" y="-193.4" font-family="Helvetica,sans-Serif" font-size="11.00" fill="#000000">text[2147483647]</text>
<polygon fill="none" stroke="#000000" points="10.5,-163.7 10.5,-185.7 111.5,-185.7 111.5,-163.7 10.5,-163.7"/>
<text text-anchor="start" x="30.5" y="-170.8" font-family="Helvetica,sans-Serif" font-size="11.00" fill="#000000">CREATED_AT</text>
<polygon fill="none" stroke="#000000" points="111.5,-163.7 111.5,-185.7 203.5,-185.7 203.5,-163.7 111.5,-163.7"/>
<text text-anchor="start" x="114.1023" y="-171.4" font-family="Helvetica,sans-Serif" font-size="11.00" fill="#000000">timestamptz[35,6]</text>
<polygon fill="none" stroke="#000000" points="10.5,-141.7 10.5,-163.7 111.5,-163.7 111.5,-141.7 10.5,-141.7"/>
<text text-anchor="start" x="30.5" y="-148.8" font-family="Helvetica,sans-Serif" font-size="11.00" fill="#000000">UPDATED_AT</text>
<polygon fill="none" stroke="#000000" points="111.5,-141.7 111.5,-163.7 203.5,-163.7 203.5,-141.7 111.5,-141.7"/>
<text text-anchor="start" x="114.1023" y="-149.4" font-family="Helvetica,sans-Serif" font-size="11.00" fill="#000000">timestamptz[35,6]</text>
<polygon fill="#ffffff" stroke="transparent" points="10.5,-122.7 10.5,-141.7 52.5,-141.7 52.5,-122.7 10.5,-122.7"/>
<polygon fill="none" stroke="#000000" points="10.5,-122.7 10.5,-141.7 52.5,-141.7 52.5,-122.7 10.5,-122.7"/>
<text text-anchor="start" x="13.5" y="-128.8" font-family="Helvetica,sans-Serif" font-size="11.00" fill="#000000">&lt; 0</text>
<polygon fill="#ffffff" stroke="transparent" points="52.5,-122.7 52.5,-141.7 111.5,-141.7 111.5,-122.7 52.5,-122.7"/>
<polygon fill="none" stroke="#000000" points="52.5,-122.7 52.5,-141.7 111.5,-141.7 111.5,-122.7 52.5,-122.7"/>
<text text-anchor="start" x="76.1105" y="-128.8" font-family="Helvetica,sans-Serif" font-size="11.00" fill="#000000">6 rows</text>
<polygon fill="#ffffff" stroke="transparent" points="111.5,-122.7 111.5,-141.7 203.5,-141.7 203.5,-122.7 111.5,-122.7"/>
<polygon fill="none" stroke="#000000" points="111.5,-122.7 111.5,-141.7 203.5,-141.7 203.5,-122.7 111.5,-122.7"/>
<text text-anchor="start" x="184.9053" y="-128.8" font-family="Helvetica,sans-Serif" font-size="11.00" fill="#000000">1 &gt;</text>
<polygon fill="none" stroke="#000000" stroke-width="2" points="9,-121.7 9,-275.7 204,-275.7 204,-121.7 9,-121.7"/>
</a>
</g>
</g>
<!-- arch_c14_DataCore&#45;&gt;c_mtdID -->
<g id="edge2" class="edge">
<title>arch_c14_DataCore:w&#45;&gt;c_mtdID:e</title>
<path fill="none" stroke="#000000" stroke-dasharray="5,2" d="M239.7817,-481.8837C160.6606,-459.6469 308.2491,-240.7 203.5,-240.7"/>
<polygon fill="#000000" stroke="#000000" points="246.5602,-482.7202 254.0591,-487.2729 250.5301,-483.2101 254.5,-483.7 254.5,-483.7 254.5,-483.7 250.5301,-483.2101 254.9409,-480.1271 246.5602,-482.7202 246.5602,-482.7202"/>
<ellipse fill="none" stroke="#000000" cx="243.3843" cy="-482.3282" rx="3.2" ry="3.2"/>
</g>
<!-- cabah_chemprepID -->
<g id="node4" class="node">
<title>cabah_chemprepID</title>
<g id="a_node4"><a xlink:href="../../tables/cabah_chemprepID.html" xlink:title="cabah_chemprepID" target="_top">
<polygon fill="#ffffff" stroke="transparent" points="32,-380.2 32,-441.2 181,-441.2 181,-380.2 32,-380.2"/>
<polygon fill="#f5f5f5" stroke="transparent" points="32.5,-417.7 32.5,-440.7 181.5,-440.7 181.5,-417.7 32.5,-417.7"/>
<polygon fill="none" stroke="#000000" points="32.5,-417.7 32.5,-440.7 181.5,-440.7 181.5,-417.7 32.5,-417.7"/>
<text text-anchor="start" x="37.5" y="-426.3" font-family="Helvetica,sans-Serif" font-weight="bold" font-size="11.00" fill="#000000">cabah_chemprepID</text>
<text text-anchor="start" x="147.0219" y="-425.8" font-family="Helvetica,sans-Serif" font-size="11.00" fill="#000000">[table]</text>
<polygon fill="none" stroke="#000000" points="32.5,-398.7 32.5,-417.7 181.5,-417.7 181.5,-398.7 32.5,-398.7"/>
<text text-anchor="start" x="35.5" y="-404.8" font-family="Helvetica,sans-Serif" font-size="11.00" fill="#000000">...</text>
<polygon fill="#ffffff" stroke="transparent" points="32.5,-379.7 32.5,-398.7 80.5,-398.7 80.5,-379.7 32.5,-379.7"/>
<polygon fill="none" stroke="#000000" points="32.5,-379.7 32.5,-398.7 80.5,-398.7 80.5,-379.7 32.5,-379.7"/>
<text text-anchor="start" x="35.5" y="-385.8" font-family="Helvetica,sans-Serif" font-size="11.00" fill="#000000"> &#160;</text>
<polygon fill="#ffffff" stroke="transparent" points="80.5,-379.7 80.5,-398.7 142.5,-398.7 142.5,-379.7 80.5,-379.7"/>
<polygon fill="none" stroke="#000000" points="80.5,-379.7 80.5,-398.7 142.5,-398.7 142.5,-379.7 80.5,-379.7"/>
<text text-anchor="start" x="100.9956" y="-385.8" font-family="Helvetica,sans-Serif" font-size="11.00" fill="#000000">37 rows</text>
<polygon fill="#ffffff" stroke="transparent" points="142.5,-379.7 142.5,-398.7 181.5,-398.7 181.5,-379.7 142.5,-379.7"/>
<polygon fill="none" stroke="#000000" points="142.5,-379.7 142.5,-398.7 181.5,-398.7 181.5,-379.7 142.5,-379.7"/>
<text text-anchor="start" x="162.9053" y="-385.8" font-family="Helvetica,sans-Serif" font-size="11.00" fill="#000000">1 &gt;</text>
</a>
</g>
</g>
<!-- arch_c14_DataCore&#45;&gt;cabah_chemprepID -->
<g id="edge3" class="edge">
<title>arch_c14_DataCore:w&#45;&gt;cabah_chemprepID:e</title>
<path fill="none" stroke="#000000" stroke-dasharray="5,2" d="M240.2757,-524.9682C200.4683,-507.1061 238.318,-407.7 181.5,-407.7"/>
<polygon fill="#000000" stroke="#000000" points="246.6436,-526.1911 253.821,-531.2354 250.5718,-526.9456 254.5,-527.7 254.5,-527.7 254.5,-527.7 250.5718,-526.9456 255.179,-524.1646 246.6436,-526.1911 246.6436,-526.1911"/>
<ellipse fill="none" stroke="#000000" cx="243.501" cy="-525.5875" rx="3.2" ry="3.2"/>
</g>
<!-- cabah_col_mtdID -->
<g id="node5" class="node">
<title>cabah_col_mtdID</title>
<g id="a_node5"><a xlink:href="../../tables/cabah_col_mtdID.html" xlink:title="cabah_col_mtdID" target="_top">
<polygon fill="#ffffff" stroke="transparent" points="37.5,-790.2 37.5,-851.2 175.5,-851.2 175.5,-790.2 37.5,-790.2"/>
<polygon fill="#f5f5f5" stroke="transparent" points="37.5,-827.7 37.5,-850.7 175.5,-850.7 175.5,-827.7 37.5,-827.7"/>
<polygon fill="none" stroke="#000000" points="37.5,-827.7 37.5,-850.7 175.5,-850.7 175.5,-827.7 37.5,-827.7"/>
<text text-anchor="start" x="42.5" y="-836.3" font-family="Helvetica,sans-Serif" font-weight="bold" font-size="11.00" fill="#000000">cabah_col_mtdID</text>
<text text-anchor="start" x="141.0219" y="-835.8" font-family="Helvetica,sans-Serif" font-size="11.00" fill="#000000">[table]</text>
<polygon fill="none" stroke="#000000" points="37.5,-808.7 37.5,-827.7 175.5,-827.7 175.5,-808.7 37.5,-808.7"/>
<text text-anchor="start" x="40.5" y="-814.8" font-family="Helvetica,sans-Serif" font-size="11.00" fill="#000000">...</text>
<polygon fill="#ffffff" stroke="transparent" points="37.5,-789.7 37.5,-808.7 95.5,-808.7 95.5,-789.7 37.5,-789.7"/>
<polygon fill="none" stroke="#000000" points="37.5,-789.7 37.5,-808.7 95.5,-808.7 95.5,-789.7 37.5,-789.7"/>
<text text-anchor="start" x="40.5" y="-795.8" font-family="Helvetica,sans-Serif" font-size="11.00" fill="#000000"> &#160;</text>
<polygon fill="#ffffff" stroke="transparent" points="95.5,-789.7 95.5,-808.7 130.5,-808.7 130.5,-789.7 95.5,-789.7"/>
<polygon fill="none" stroke="#000000" points="95.5,-789.7 95.5,-808.7 130.5,-808.7 130.5,-789.7 95.5,-789.7"/>
<text text-anchor="start" x="121.3862" y="-795.8" font-family="Helvetica,sans-Serif" font-size="11.00" fill="#000000"> &#160;</text>
<polygon fill="#ffffff" stroke="transparent" points="130.5,-789.7 130.5,-808.7 175.5,-808.7 175.5,-789.7 130.5,-789.7"/>
<polygon fill="none" stroke="#000000" points="130.5,-789.7 130.5,-808.7 175.5,-808.7 175.5,-789.7 130.5,-789.7"/>
<text text-anchor="start" x="156.9053" y="-795.8" font-family="Helvetica,sans-Serif" font-size="11.00" fill="#000000">3 &gt;</text>
</a>
</g>
</g>
<!-- arch_c14_DataCore&#45;&gt;cabah_col_mtdID -->
<g id="edge4" class="edge">
<title>arch_c14_DataCore:w&#45;&gt;cabah_col_mtdID:e</title>
<path fill="none" stroke="#000000" stroke-dasharray="5,2" d="M240.1752,-639.7215C178.3854,-659.4969 257.4055,-817.7 175.5,-817.7"/>
<polygon fill="#000000" stroke="#000000" points="246.5785,-638.8179 255.0031,-641.2647 250.5392,-638.259 254.5,-637.7 254.5,-637.7 254.5,-637.7 250.5392,-638.259 253.9969,-634.1353 246.5785,-638.8179 246.5785,-638.8179"/>
<ellipse fill="none" stroke="#000000" cx="243.4099" cy="-639.2651" rx="3.2" ry="3.2"/>
</g>
<!-- c14_contamID -->
<g id="node6" class="node">
<title>c14_contamID</title>
<g id="a_node6"><a xlink:href="../../tables/c14_contamID.html" xlink:title="c14_contamID" target="_top">
<polygon fill="#ffffff" stroke="transparent" points="46.5,-462.2 46.5,-523.2 166.5,-523.2 166.5,-462.2 46.5,-462.2"/>
<polygon fill="#f5f5f5" stroke="transparent" points="46.5,-499.7 46.5,-522.7 166.5,-522.7 166.5,-499.7 46.5,-499.7"/>
<polygon fill="none" stroke="#000000" points="46.5,-499.7 46.5,-522.7 166.5,-522.7 166.5,-499.7 46.5,-499.7"/>
<text text-anchor="start" x="51.5" y="-508.3" font-family="Helvetica,sans-Serif" font-weight="bold" font-size="11.00" fill="#000000">c14_contamID</text>
<text text-anchor="start" x="132.0219" y="-507.8" font-family="Helvetica,sans-Serif" font-size="11.00" fill="#000000">[table]</text>
<polygon fill="none" stroke="#000000" points="46.5,-480.7 46.5,-499.7 166.5,-499.7 166.5,-480.7 46.5,-480.7"/>
<text text-anchor="start" x="49.5" y="-486.8" font-family="Helvetica,sans-Serif" font-size="11.00" fill="#000000">...</text>
<polygon fill="#ffffff" stroke="transparent" points="46.5,-461.7 46.5,-480.7 82.5,-480.7 82.5,-461.7 46.5,-461.7"/>
<polygon fill="none" stroke="#000000" points="46.5,-461.7 46.5,-480.7 82.5,-480.7 82.5,-461.7 46.5,-461.7"/>
<text text-anchor="start" x="49.5" y="-467.8" font-family="Helvetica,sans-Serif" font-size="11.00" fill="#000000"> &#160;</text>
<polygon fill="#ffffff" stroke="transparent" points="82.5,-461.7 82.5,-480.7 132.5,-480.7 132.5,-461.7 82.5,-461.7"/>
<polygon fill="none" stroke="#000000" points="82.5,-461.7 82.5,-480.7 132.5,-480.7 132.5,-461.7 82.5,-461.7"/>
<text text-anchor="start" x="97.1105" y="-467.8" font-family="Helvetica,sans-Serif" font-size="11.00" fill="#000000">7 rows</text>
<polygon fill="#ffffff" stroke="transparent" points="132.5,-461.7 132.5,-480.7 166.5,-480.7 166.5,-461.7 132.5,-461.7"/>
<polygon fill="none" stroke="#000000" points="132.5,-461.7 132.5,-480.7 166.5,-480.7 166.5,-461.7 132.5,-461.7"/>
<text text-anchor="start" x="147.9053" y="-467.8" font-family="Helvetica,sans-Serif" font-size="11.00" fill="#000000">1 &gt;</text>
</a>
</g>
</g>
<!-- arch_c14_DataCore&#45;&gt;c14_contamID -->
<g id="edge5" class="edge">
<title>arch_c14_DataCore:w&#45;&gt;c14_contamID:e</title>
<path fill="none" stroke="#000000" stroke-dasharray="5,2" d="M239.9094,-547.4212C207.9855,-536.4615 208.2897,-489.7 166.5,-489.7"/>
<polygon fill="#000000" stroke="#000000" points="246.5958,-548.4655 253.9445,-553.2569 250.5479,-549.0827 254.5,-549.7 254.5,-549.7 254.5,-549.7 250.5479,-549.0827 255.0555,-546.1431 246.5958,-548.4655 246.5958,-548.4655"/>
<ellipse fill="none" stroke="#000000" cx="243.4342" cy="-547.9716" rx="3.2" ry="3.2"/>
</g>
<!-- c14_hum_modID -->
<g id="node7" class="node">
<title>c14_hum_modID</title>
<g id="a_node7"><a xlink:href="../../tables/c14_hum_modID.html" xlink:title="c14_hum_modID" target="_top">
<polygon fill="#ffffff" stroke="transparent" points="39,-544.2 39,-605.2 174,-605.2 174,-544.2 39,-544.2"/>
<polygon fill="#f5f5f5" stroke="transparent" points="39.5,-581.7 39.5,-604.7 174.5,-604.7 174.5,-581.7 39.5,-581.7"/>
<polygon fill="none" stroke="#000000" points="39.5,-581.7 39.5,-604.7 174.5,-604.7 174.5,-581.7 39.5,-581.7"/>
<text text-anchor="start" x="44.5" y="-590.3" font-family="Helvetica,sans-Serif" font-weight="bold" font-size="11.00" fill="#000000">c14_hum_modID</text>
<text text-anchor="start" x="140.0219" y="-589.8" font-family="Helvetica,sans-Serif" font-size="11.00" fill="#000000">[table]</text>
<polygon fill="none" stroke="#000000" points="39.5,-562.7 39.5,-581.7 174.5,-581.7 174.5,-562.7 39.5,-562.7"/>
<text text-anchor="start" x="42.5" y="-568.8" font-family="Helvetica,sans-Serif" font-size="11.00" fill="#000000">...</text>
<polygon fill="#ffffff" stroke="transparent" points="39.5,-543.7 39.5,-562.7 80.5,-562.7 80.5,-543.7 39.5,-543.7"/>
<polygon fill="none" stroke="#000000" points="39.5,-543.7 39.5,-562.7 80.5,-562.7 80.5,-543.7 39.5,-543.7"/>
<text text-anchor="start" x="42.5" y="-549.8" font-family="Helvetica,sans-Serif" font-size="11.00" fill="#000000"> &#160;</text>
<polygon fill="#ffffff" stroke="transparent" points="80.5,-543.7 80.5,-562.7 138.5,-562.7 138.5,-543.7 80.5,-543.7"/>
<polygon fill="none" stroke="#000000" points="80.5,-543.7 80.5,-562.7 138.5,-562.7 138.5,-543.7 80.5,-543.7"/>
<text text-anchor="start" x="96.9956" y="-549.8" font-family="Helvetica,sans-Serif" font-size="11.00" fill="#000000">12 rows</text>
<polygon fill="#ffffff" stroke="transparent" points="138.5,-543.7 138.5,-562.7 174.5,-562.7 174.5,-543.7 138.5,-543.7"/>
<polygon fill="none" stroke="#000000" points="138.5,-543.7 138.5,-562.7 174.5,-562.7 174.5,-543.7 138.5,-543.7"/>
<text text-anchor="start" x="155.9053" y="-549.8" font-family="Helvetica,sans-Serif" font-size="11.00" fill="#000000">1 &gt;</text>
</a>
</g>
</g>
<!-- arch_c14_DataCore&#45;&gt;c14_hum_modID -->
<g id="edge6" class="edge">
<title>arch_c14_DataCore:w&#45;&gt;c14_hum_modID:e</title>
<path fill="none" stroke="#000000" stroke-dasharray="5,2" d="M239.9181,-571.7C215.6172,-571.7 204.6389,-571.7 174.5,-571.7"/>
<polygon fill="#000000" stroke="#000000" points="246.5,-571.7001 254.5,-575.3 250.5,-571.7 254.5,-571.7 254.5,-571.7 254.5,-571.7 250.5,-571.7 254.5,-568.1 246.5,-571.7001 246.5,-571.7001"/>
<ellipse fill="none" stroke="#000000" cx="243.3" cy="-571.7001" rx="3.2" ry="3.2"/>
</g>
<!-- cabah_LabCodes -->
<g id="node8" class="node">
<title>cabah_LabCodes</title>
<g id="a_node8"><a xlink:href="../../tables/cabah_LabCodes.html" xlink:title="cabah_LabCodes" target="_top">
<polygon fill="#ffffff" stroke="transparent" points="37.5,-872.2 37.5,-933.2 175.5,-933.2 175.5,-872.2 37.5,-872.2"/>
<polygon fill="#f5f5f5" stroke="transparent" points="37.5,-909.7 37.5,-932.7 175.5,-932.7 175.5,-909.7 37.5,-909.7"/>
<polygon fill="none" stroke="#000000" points="37.5,-909.7 37.5,-932.7 175.5,-932.7 175.5,-909.7 37.5,-909.7"/>
<text text-anchor="start" x="42.5" y="-918.3" font-family="Helvetica,sans-Serif" font-weight="bold" font-size="11.00" fill="#000000">cabah_LabCodes</text>
<text text-anchor="start" x="141.0219" y="-917.8" font-family="Helvetica,sans-Serif" font-size="11.00" fill="#000000">[table]</text>
<polygon fill="none" stroke="#000000" points="37.5,-890.7 37.5,-909.7 175.5,-909.7 175.5,-890.7 37.5,-890.7"/>
<text text-anchor="start" x="40.5" y="-896.8" font-family="Helvetica,sans-Serif" font-size="11.00" fill="#000000">...</text>
<polygon fill="#ffffff" stroke="transparent" points="37.5,-871.7 37.5,-890.7 76.5,-890.7 76.5,-871.7 37.5,-871.7"/>
<polygon fill="none" stroke="#000000" points="37.5,-871.7 37.5,-890.7 76.5,-890.7 76.5,-871.7 37.5,-871.7"/>
<text text-anchor="start" x="40.5" y="-877.8" font-family="Helvetica,sans-Serif" font-size="11.00" fill="#000000"> &#160;</text>
<polygon fill="#ffffff" stroke="transparent" points="76.5,-871.7 76.5,-890.7 140.5,-890.7 140.5,-871.7 76.5,-871.7"/>
<polygon fill="none" stroke="#000000" points="76.5,-871.7 76.5,-890.7 140.5,-890.7 140.5,-871.7 76.5,-871.7"/>
<text text-anchor="start" x="92.8807" y="-877.8" font-family="Helvetica,sans-Serif" font-size="11.00" fill="#000000">352 rows</text>
<polygon fill="#ffffff" stroke="transparent" points="140.5,-871.7 140.5,-890.7 175.5,-890.7 175.5,-871.7 140.5,-871.7"/>
<polygon fill="none" stroke="#000000" points="140.5,-871.7 140.5,-890.7 175.5,-890.7 175.5,-871.7 140.5,-871.7"/>
<text text-anchor="start" x="156.9053" y="-877.8" font-family="Helvetica,sans-Serif" font-size="11.00" fill="#000000">3 &gt;</text>
</a>
</g>
</g>
<!-- arch_c14_DataCore&#45;&gt;cabah_LabCodes -->
<g id="edge7" class="edge">
<title>arch_c14_DataCore:w&#45;&gt;cabah_LabCodes:e</title>
<path fill="none" stroke="#000000" stroke-dasharray="5,2" d="M241.1531,-665.9019C214.0965,-695.9066 232.0647,-826.0176 213,-861.7 201.8184,-882.6281 199.2279,-899.7 175.5,-899.7"/>
<polygon fill="#000000" stroke="#000000" points="247.245,-663.0712 256.0171,-662.9648 250.8725,-661.3856 254.5,-659.7 254.5,-659.7 254.5,-659.7 250.8725,-661.3856 252.9829,-656.4352 247.245,-663.0712 247.245,-663.0712"/>
<ellipse fill="none" stroke="#000000" cx="244.343" cy="-664.4197" rx="3.2" ry="3.2"/>
</g>
<!-- c14_materia1ID -->
<g id="node9" class="node">
<title>c14_materia1ID</title>
<g id="a_node9"><a xlink:href="../../tables/c14_materia1ID.html" xlink:title="c14_materia1ID" target="_top">
<polygon fill="#ffffff" stroke="transparent" points="43,-708.2 43,-769.2 170,-769.2 170,-708.2 43,-708.2"/>
<polygon fill="#f5f5f5" stroke="transparent" points="43.5,-745.7 43.5,-768.7 170.5,-768.7 170.5,-745.7 43.5,-745.7"/>
<polygon fill="none" stroke="#000000" points="43.5,-745.7 43.5,-768.7 170.5,-768.7 170.5,-745.7 43.5,-745.7"/>
<text text-anchor="start" x="48.5" y="-754.3" font-family="Helvetica,sans-Serif" font-weight="bold" font-size="11.00" fill="#000000">c14_materia1ID</text>
<text text-anchor="start" x="136.0219" y="-753.8" font-family="Helvetica,sans-Serif" font-size="11.00" fill="#000000">[table]</text>
<polygon fill="none" stroke="#000000" points="43.5,-726.7 43.5,-745.7 170.5,-745.7 170.5,-726.7 43.5,-726.7"/>
<text text-anchor="start" x="46.5" y="-732.8" font-family="Helvetica,sans-Serif" font-size="11.00" fill="#000000">...</text>
<polygon fill="#ffffff" stroke="transparent" points="43.5,-707.7 43.5,-726.7 80.5,-726.7 80.5,-707.7 43.5,-707.7"/>
<polygon fill="none" stroke="#000000" points="43.5,-707.7 43.5,-726.7 80.5,-726.7 80.5,-707.7 43.5,-707.7"/>
<text text-anchor="start" x="46.5" y="-713.8" font-family="Helvetica,sans-Serif" font-size="11.00" fill="#000000"> &#160;</text>
<polygon fill="#ffffff" stroke="transparent" points="80.5,-707.7 80.5,-726.7 136.5,-726.7 136.5,-707.7 80.5,-707.7"/>
<polygon fill="none" stroke="#000000" points="80.5,-707.7 80.5,-726.7 136.5,-726.7 136.5,-707.7 80.5,-707.7"/>
<text text-anchor="start" x="94.9956" y="-713.8" font-family="Helvetica,sans-Serif" font-size="11.00" fill="#000000">11 rows</text>
<polygon fill="#ffffff" stroke="transparent" points="136.5,-707.7 136.5,-726.7 170.5,-726.7 170.5,-707.7 136.5,-707.7"/>
<polygon fill="none" stroke="#000000" points="136.5,-707.7 136.5,-726.7 170.5,-726.7 170.5,-707.7 136.5,-707.7"/>
<text text-anchor="start" x="151.9053" y="-713.8" font-family="Helvetica,sans-Serif" font-size="11.00" fill="#000000">1 &gt;</text>
</a>
</g>
</g>
<!-- arch_c14_DataCore&#45;&gt;c14_materia1ID -->
<g id="edge8" class="edge">
<title>arch_c14_DataCore:w&#45;&gt;c14_materia1ID:e</title>
<path fill="none" stroke="#000000" stroke-dasharray="5,2" d="M240.2385,-618.7604C219.7635,-630.0471 234.1849,-670.1129 213,-697.7 197.5675,-717.7963 195.8382,-735.7 170.5,-735.7"/>
<polygon fill="#000000" stroke="#000000" points="246.6781,-617.3786 255.2553,-619.2199 250.589,-616.5393 254.5,-615.7 254.5,-615.7 254.5,-615.7 250.589,-616.5393 253.7447,-612.1801 246.6781,-617.3786 246.6781,-617.3786"/>
<ellipse fill="none" stroke="#000000" cx="243.5493" cy="-618.05" rx="3.2" ry="3.2"/>
</g>
<!-- c14_materia2ID -->
<g id="node10" class="node">
<title>c14_materia2ID</title>
<g id="a_node10"><a xlink:href="../../tables/c14_materia2ID.html" xlink:title="c14_materia2ID" target="_top">
<polygon fill="#ffffff" stroke="transparent" points="43,-626.2 43,-687.2 170,-687.2 170,-626.2 43,-626.2"/>
<polygon fill="#f5f5f5" stroke="transparent" points="43.5,-663.7 43.5,-686.7 170.5,-686.7 170.5,-663.7 43.5,-663.7"/>
<polygon fill="none" stroke="#000000" points="43.5,-663.7 43.5,-686.7 170.5,-686.7 170.5,-663.7 43.5,-663.7"/>
<text text-anchor="start" x="48.5" y="-672.3" font-family="Helvetica,sans-Serif" font-weight="bold" font-size="11.00" fill="#000000">c14_materia2ID</text>
<text text-anchor="start" x="136.0219" y="-671.8" font-family="Helvetica,sans-Serif" font-size="11.00" fill="#000000">[table]</text>
<polygon fill="none" stroke="#000000" points="43.5,-644.7 43.5,-663.7 170.5,-663.7 170.5,-644.7 43.5,-644.7"/>
<text text-anchor="start" x="46.5" y="-650.8" font-family="Helvetica,sans-Serif" font-size="11.00" fill="#000000">...</text>
<polygon fill="#ffffff" stroke="transparent" points="43.5,-625.7 43.5,-644.7 80.5,-644.7 80.5,-625.7 43.5,-625.7"/>
<polygon fill="none" stroke="#000000" points="43.5,-625.7 43.5,-644.7 80.5,-644.7 80.5,-625.7 43.5,-625.7"/>
<text text-anchor="start" x="46.5" y="-631.8" font-family="Helvetica,sans-Serif" font-size="11.00" fill="#000000"> &#160;</text>
<polygon fill="#ffffff" stroke="transparent" points="80.5,-625.7 80.5,-644.7 136.5,-644.7 136.5,-625.7 80.5,-625.7"/>
<polygon fill="none" stroke="#000000" points="80.5,-625.7 80.5,-644.7 136.5,-644.7 136.5,-625.7 80.5,-625.7"/>
<text text-anchor="start" x="94.9956" y="-631.8" font-family="Helvetica,sans-Serif" font-size="11.00" fill="#000000">60 rows</text>
<polygon fill="#ffffff" stroke="transparent" points="136.5,-625.7 136.5,-644.7 170.5,-644.7 170.5,-625.7 136.5,-625.7"/>
<polygon fill="none" stroke="#000000" points="136.5,-625.7 136.5,-644.7 170.5,-644.7 170.5,-625.7 136.5,-625.7"/>
<text text-anchor="start" x="151.9053" y="-631.8" font-family="Helvetica,sans-Serif" font-size="11.00" fill="#000000">1 &gt;</text>
</a>
</g>
</g>
<!-- arch_c14_DataCore&#45;&gt;c14_materia2ID -->
<g id="edge9" class="edge">
<title>arch_c14_DataCore:w&#45;&gt;c14_materia2ID:e</title>
<path fill="none" stroke="#000000" stroke-dasharray="5,2" d="M240.0021,-596.1264C209.7133,-607.3514 210.8234,-653.7 170.5,-653.7"/>
<polygon fill="#000000" stroke="#000000" points="246.6097,-595.0206 255.0943,-597.2506 250.5549,-594.3603 254.5,-593.7 254.5,-593.7 254.5,-593.7 250.5549,-594.3603 253.9057,-590.1494 246.6097,-595.0206 246.6097,-595.0206"/>
<ellipse fill="none" stroke="#000000" cx="243.4536" cy="-595.5488" rx="3.2" ry="3.2"/>
</g>
<!-- arch_Sample -->
<g id="node11" class="node">
<title>arch_Sample</title>
<g id="a_node11"><a xlink:href="../../tables/arch_Sample.html" xlink:title="arch_Sample" target="_top">
<polygon fill="#ffffff" stroke="transparent" points="50,-954.2 50,-1015.2 163,-1015.2 163,-954.2 50,-954.2"/>
<polygon fill="#f5f5f5" stroke="transparent" points="50.5,-991.7 50.5,-1014.7 163.5,-1014.7 163.5,-991.7 50.5,-991.7"/>
<polygon fill="none" stroke="#000000" points="50.5,-991.7 50.5,-1014.7 163.5,-1014.7 163.5,-991.7 50.5,-991.7"/>
<text text-anchor="start" x="55.5" y="-1000.3" font-family="Helvetica,sans-Serif" font-weight="bold" font-size="11.00" fill="#000000">arch_Sample</text>
<text text-anchor="start" x="129.0219" y="-999.8" font-family="Helvetica,sans-Serif" font-size="11.00" fill="#000000">[table]</text>
<polygon fill="none" stroke="#000000" points="50.5,-972.7 50.5,-991.7 163.5,-991.7 163.5,-972.7 50.5,-972.7"/>
<text text-anchor="start" x="53.5" y="-978.8" font-family="Helvetica,sans-Serif" font-size="11.00" fill="#000000">...</text>
<polygon fill="#ffffff" stroke="transparent" points="50.5,-953.7 50.5,-972.7 74.5,-972.7 74.5,-953.7 50.5,-953.7"/>
<polygon fill="none" stroke="#000000" points="50.5,-953.7 50.5,-972.7 74.5,-972.7 74.5,-953.7 50.5,-953.7"/>
<text text-anchor="start" x="53.5" y="-959.8" font-family="Helvetica,sans-Serif" font-size="11.00" fill="#000000">&lt; 1</text>
<polygon fill="#ffffff" stroke="transparent" points="74.5,-953.7 74.5,-972.7 140.5,-972.7 140.5,-953.7 74.5,-953.7"/>
<polygon fill="none" stroke="#000000" points="74.5,-953.7 74.5,-972.7 140.5,-972.7 140.5,-953.7 74.5,-953.7"/>
<text text-anchor="start" x="77.594" y="-959.8" font-family="Helvetica,sans-Serif" font-size="11.00" fill="#000000">10.412 rows</text>
<polygon fill="#ffffff" stroke="transparent" points="140.5,-953.7 140.5,-972.7 163.5,-972.7 163.5,-953.7 140.5,-953.7"/>
<polygon fill="none" stroke="#000000" points="140.5,-953.7 140.5,-972.7 163.5,-972.7 163.5,-953.7 140.5,-953.7"/>
<text text-anchor="start" x="144.9053" y="-959.8" font-family="Helvetica,sans-Serif" font-size="11.00" fill="#000000">3 &gt;</text>
</a>
</g>
</g>
<!-- arch_c14_DataCore&#45;&gt;arch_Sample -->
<g id="edge10" class="edge">
<title>arch_c14_DataCore:w&#45;&gt;arch_Sample:e</title>
<path fill="none" stroke="#000000" stroke-dasharray="5,2" d="M240.5779,-686.9658C203.7906,-719.9134 240.3094,-897.7862 213,-943.7 198.8217,-967.5372 191.2351,-981.7 163.5,-981.7"/>
<polygon fill="#000000" stroke="#000000" points="247.0174,-684.5302 255.7736,-685.0672 250.7587,-683.1151 254.5,-681.7 254.5,-681.7 254.5,-681.7 250.7587,-683.1151 253.2264,-678.3328 247.0174,-684.5302 247.0174,-684.5302"/>
<ellipse fill="none" stroke="#000000" cx="244.0243" cy="-685.6623" rx="3.2" ry="3.2"/>
</g>
<!-- c14_solvent2ID -->
<g id="node12" class="node">
<title>c14_solvent2ID</title>
<g id="a_node12"><a xlink:href="../../tables/c14_solvent2ID.html" xlink:title="c14_solvent2ID" target="_top">
<polygon fill="#ffffff" stroke="transparent" points="43.5,-298.2 43.5,-359.2 169.5,-359.2 169.5,-298.2 43.5,-298.2"/>
<polygon fill="#f5f5f5" stroke="transparent" points="43.5,-335.7 43.5,-358.7 169.5,-358.7 169.5,-335.7 43.5,-335.7"/>
<polygon fill="none" stroke="#000000" points="43.5,-335.7 43.5,-358.7 169.5,-358.7 169.5,-335.7 43.5,-335.7"/>
<text text-anchor="start" x="48.5" y="-344.3" font-family="Helvetica,sans-Serif" font-weight="bold" font-size="11.00" fill="#000000">c14_solvent2ID</text>
<text text-anchor="start" x="135.0219" y="-343.8" font-family="Helvetica,sans-Serif" font-size="11.00" fill="#000000">[table]</text>
<polygon fill="none" stroke="#000000" points="43.5,-316.7 43.5,-335.7 169.5,-335.7 169.5,-316.7 43.5,-316.7"/>
<text text-anchor="start" x="46.5" y="-322.8" font-family="Helvetica,sans-Serif" font-size="11.00" fill="#000000">...</text>
<polygon fill="#ffffff" stroke="transparent" points="43.5,-297.7 43.5,-316.7 79.5,-316.7 79.5,-297.7 43.5,-297.7"/>
<polygon fill="none" stroke="#000000" points="43.5,-297.7 43.5,-316.7 79.5,-316.7 79.5,-297.7 43.5,-297.7"/>
<text text-anchor="start" x="46.5" y="-303.8" font-family="Helvetica,sans-Serif" font-size="11.00" fill="#000000"> &#160;</text>
<polygon fill="#ffffff" stroke="transparent" points="79.5,-297.7 79.5,-316.7 135.5,-316.7 135.5,-297.7 79.5,-297.7"/>
<polygon fill="none" stroke="#000000" points="79.5,-297.7 79.5,-316.7 135.5,-316.7 135.5,-297.7 79.5,-297.7"/>
<text text-anchor="start" x="93.9956" y="-303.8" font-family="Helvetica,sans-Serif" font-size="11.00" fill="#000000">10 rows</text>
<polygon fill="#ffffff" stroke="transparent" points="135.5,-297.7 135.5,-316.7 169.5,-316.7 169.5,-297.7 135.5,-297.7"/>
<polygon fill="none" stroke="#000000" points="135.5,-297.7 135.5,-316.7 169.5,-316.7 169.5,-297.7 135.5,-297.7"/>
<text text-anchor="start" x="150.9053" y="-303.8" font-family="Helvetica,sans-Serif" font-size="11.00" fill="#000000">1 &gt;</text>
</a>
</g>
</g>
<!-- arch_c14_DataCore&#45;&gt;c14_solvent2ID -->
<g id="edge11" class="edge">
<title>arch_c14_DataCore:w&#45;&gt;c14_solvent2ID:e</title>
<path fill="none" stroke="#000000" stroke-dasharray="5,2" d="M240.1588,-503.8001C200.3228,-491.2359 242.4699,-419.095 213,-369.7 198.9107,-346.0846 196.999,-325.7 169.5,-325.7"/>
<polygon fill="#000000" stroke="#000000" points="246.5693,-504.6493 254.0272,-509.2688 250.5346,-505.1746 254.5,-505.7 254.5,-505.7 254.5,-505.7 250.5346,-505.1746 254.9728,-502.1312 246.5693,-504.6493 246.5693,-504.6493"/>
<ellipse fill="none" stroke="#000000" cx="243.397" cy="-504.229" rx="3.2" ry="3.2"/>
</g>
</g>
</svg>
