<?xml version="1.0" encoding="UTF-8" standalone="no"?>
<!DOCTYPE svg PUBLIC "-//W3C//DTD SVG 1.1//EN"
 "http://www.w3.org/Graphics/SVG/1.1/DTD/svg11.dtd">
<!-- Generated by graphviz version 2.40.1 (20161225.0304)
 -->
<!-- Title: oneDegreeRelationshipsDiagram Pages: 1 -->
<svg width="655pt" height="407pt"
 viewBox="0.00 0.00 655.12 406.70" xmlns="http://www.w3.org/2000/svg" xmlns:xlink="http://www.w3.org/1999/xlink">
<g id="graph0" class="graph" transform="scale(1 1) rotate(0) translate(4 402.7)">
<title>oneDegreeRelationshipsDiagram</title>
<polygon fill="#ffffff" stroke="transparent" points="-4,4 -4,-402.7 651.1178,-402.7 651.1178,4 -4,4"/>
<text text-anchor="middle" x="72.4936" y="-7.3" font-family="Helvetica,sans-Serif" font-size="11.00" fill="#000000">Generated by SchemaSpy</text>
<!-- cabah_AnalysisUnit -->
<g id="node1" class="node">
<title>cabah_AnalysisUnit</title>
<g id="a_node1"><a xlink:href="../../tables/cabah_AnalysisUnit.html" xlink:title="cabah_AnalysisUnit" target="_top">
<polygon fill="#ffffff" stroke="transparent" points="486.1178,-87.7 486.1178,-214.7 639.1178,-214.7 639.1178,-87.7 486.1178,-87.7"/>
<polygon fill="#f5f5f5" stroke="transparent" points="486.6178,-191.2 486.6178,-214.2 639.6178,-214.2 639.6178,-191.2 486.6178,-191.2"/>
<polygon fill="none" stroke="#000000" points="486.6178,-191.2 486.6178,-214.2 639.6178,-214.2 639.6178,-191.2 486.6178,-191.2"/>
<text text-anchor="start" x="491.6178" y="-199.8" font-family="Helvetica,sans-Serif" font-weight="bold" font-size="11.00" fill="#000000">cabah_AnalysisUnit</text>
<text text-anchor="start" x="605.1396" y="-199.3" font-family="Helvetica,sans-Serif" font-size="11.00" fill="#000000">[table]</text>
<polygon fill="none" stroke="#000000" points="486.6178,-169.2 486.6178,-191.2 639.6178,-191.2 639.6178,-169.2 486.6178,-169.2"/>
<image xlink:href="../../images/primaryKeys.png" width="11px" height="12px" preserveAspectRatio="xMinYMin meet" x="491.618" y="-186.2"/>
<text text-anchor="start" x="515.6178" y="-176.3" font-family="Helvetica,sans-Serif" font-size="11.00" fill="#000000">ANLYSUNTID</text>
<polygon fill="none" stroke="#000000" points="486.6178,-147.2 486.6178,-169.2 639.6178,-169.2 639.6178,-147.2 486.6178,-147.2"/>
<image xlink:href="../../images/foreignKeys.png" width="11px" height="12px" preserveAspectRatio="xMinYMin meet" x="491.618" y="-164.2"/>
<text text-anchor="start" x="515.6178" y="-154.3" font-family="Helvetica,sans-Serif" font-size="11.00" fill="#000000">NEO_UNITID</text>
<polygon fill="none" stroke="#000000" points="486.6178,-125.2 486.6178,-147.2 639.6178,-147.2 639.6178,-125.2 486.6178,-125.2"/>
<image xlink:href="../../images/foreignKeys.png" width="11px" height="12px" preserveAspectRatio="xMinYMin meet" x="491.618" y="-142.2"/>
<text text-anchor="start" x="515.6178" y="-132.3" font-family="Helvetica,sans-Serif" font-size="11.00" fill="#000000">FACIESID</text>
<polygon fill="none" stroke="#000000" points="486.6178,-106.2 486.6178,-125.2 639.6178,-125.2 639.6178,-106.2 486.6178,-106.2"/>
<text text-anchor="start" x="489.6178" y="-112.3" font-family="Helvetica,sans-Serif" font-size="11.00" fill="#000000">...</text>
<polygon fill="#ffffff" stroke="transparent" points="486.6178,-87.2 486.6178,-106.2 534.6178,-106.2 534.6178,-87.2 486.6178,-87.2"/>
<polygon fill="none" stroke="#000000" points="486.6178,-87.2 486.6178,-106.2 534.6178,-106.2 534.6178,-87.2 486.6178,-87.2"/>
<text text-anchor="start" x="489.6178" y="-93.3" font-family="Helvetica,sans-Serif" font-size="11.00" fill="#000000">&lt; 2</text>
<polygon fill="#ffffff" stroke="transparent" points="534.6178,-87.2 534.6178,-106.2 613.6178,-106.2 613.6178,-87.2 534.6178,-87.2"/>
<polygon fill="none" stroke="#000000" points="534.6178,-87.2 534.6178,-106.2 613.6178,-106.2 613.6178,-87.2 534.6178,-87.2"/>
<text text-anchor="start" x="550.7118" y="-93.3" font-family="Helvetica,sans-Serif" font-size="11.00" fill="#000000">14.167 rows</text>
<polygon fill="#ffffff" stroke="transparent" points="613.6178,-87.2 613.6178,-106.2 639.6178,-106.2 639.6178,-87.2 613.6178,-87.2"/>
<polygon fill="none" stroke="#000000" points="613.6178,-87.2 613.6178,-106.2 639.6178,-106.2 639.6178,-87.2 613.6178,-87.2"/>
<text text-anchor="start" x="630.504" y="-93.3" font-family="Helvetica,sans-Serif" font-size="11.00" fill="#000000"> &#160;</text>
</a>
</g>
</g>
<!-- cabah_depositID -->
<g id="node2" class="node">
<title>cabah_depositID</title>
<g id="a_node2"><a xlink:href="../../tables/cabah_depositID.html" xlink:title="cabah_depositID" target="_top">
<polygon fill="#ffffff" stroke="transparent" points="32.1178,-38.2 32.1178,-216.2 245.1178,-216.2 245.1178,-38.2 32.1178,-38.2"/>
<polygon fill="#f5f5f5" stroke="transparent" points="34.6178,-191.2 34.6178,-214.2 243.6178,-214.2 243.6178,-191.2 34.6178,-191.2"/>
<polygon fill="none" stroke="#000000" points="34.6178,-191.2 34.6178,-214.2 243.6178,-214.2 243.6178,-191.2 34.6178,-191.2"/>
<text text-anchor="start" x="39.6178" y="-199.8" font-family="Helvetica,sans-Serif" font-weight="bold" font-size="11.00" fill="#000000">cabah_depositID</text>
<text text-anchor="start" x="208.6615" y="-199.3" font-family="Helvetica,sans-Serif" font-size="11.00" fill="#000000">[table]</text>
<polygon fill="none" stroke="#000000" points="34.6178,-169.2 34.6178,-191.2 151.6178,-191.2 151.6178,-169.2 34.6178,-169.2"/>
<image xlink:href="../../images/primaryKeys.png" width="11px" height="12px" preserveAspectRatio="xMinYMin meet" x="39.6178" y="-186.2"/>
<text text-anchor="start" x="54.6178" y="-176.3" font-family="Helvetica,sans-Serif" font-size="11.00" fill="#000000">DEPOSITID</text>
<polygon fill="none" stroke="#000000" points="151.6178,-169.2 151.6178,-191.2 243.6178,-191.2 243.6178,-169.2 151.6178,-169.2"/>
<text text-anchor="start" x="154.6178" y="-176.9" font-family="Helvetica,sans-Serif" font-size="11.00" fill="#000000">serial[10]</text>
<polygon fill="#ffffff" stroke="transparent" points="34.6178,-147.2 34.6178,-169.2 151.6178,-169.2 151.6178,-147.2 34.6178,-147.2"/>
<polygon fill="none" stroke="#000000" points="34.6178,-147.2 34.6178,-169.2 151.6178,-169.2 151.6178,-147.2 34.6178,-147.2"/>
<text text-anchor="start" x="54.6178" y="-154.3" font-family="Helvetica,sans-Serif" font-size="11.00" fill="#000000">DEPOSIT</text>
<polygon fill="none" stroke="#000000" points="151.6178,-147.2 151.6178,-169.2 243.6178,-169.2 243.6178,-147.2 151.6178,-147.2"/>
<text text-anchor="start" x="154.6178" y="-154.9" font-family="Helvetica,sans-Serif" font-size="11.00" fill="#000000">text[2147483647]</text>
<polygon fill="none" stroke="#000000" points="34.6178,-125.2 34.6178,-147.2 151.6178,-147.2 151.6178,-125.2 34.6178,-125.2"/>
<image xlink:href="../../images/foreignKeys.png" width="11px" height="12px" preserveAspectRatio="xMinYMin meet" x="39.6178" y="-142.2"/>
<text text-anchor="start" x="54.6178" y="-132.3" font-family="Helvetica,sans-Serif" font-size="11.00" fill="#000000">PARENTID</text>
<polygon fill="none" stroke="#000000" points="151.6178,-125.2 151.6178,-147.2 243.6178,-147.2 243.6178,-125.2 151.6178,-125.2"/>
<text text-anchor="start" x="154.6178" y="-132.9" font-family="Helvetica,sans-Serif" font-size="11.00" fill="#000000">int2[5]</text>
<polygon fill="none" stroke="#000000" points="34.6178,-103.2 34.6178,-125.2 151.6178,-125.2 151.6178,-103.2 34.6178,-103.2"/>
<text text-anchor="start" x="54.6178" y="-110.3" font-family="Helvetica,sans-Serif" font-size="11.00" fill="#000000">DEPOSITDSC</text>
<polygon fill="none" stroke="#000000" points="151.6178,-103.2 151.6178,-125.2 243.6178,-125.2 243.6178,-103.2 151.6178,-103.2"/>
<text text-anchor="start" x="154.6178" y="-110.9" font-family="Helvetica,sans-Serif" font-size="11.00" fill="#000000">text[2147483647]</text>
<polygon fill="none" stroke="#000000" points="34.6178,-81.2 34.6178,-103.2 151.6178,-103.2 151.6178,-81.2 34.6178,-81.2"/>
<text text-anchor="start" x="54.6178" y="-88.3" font-family="Helvetica,sans-Serif" font-size="11.00" fill="#000000">CREATED_AT</text>
<polygon fill="none" stroke="#000000" points="151.6178,-81.2 151.6178,-103.2 243.6178,-103.2 243.6178,-81.2 151.6178,-81.2"/>
<text text-anchor="start" x="154.22" y="-88.9" font-family="Helvetica,sans-Serif" font-size="11.00" fill="#000000">timestamptz[35,6]</text>
<polygon fill="none" stroke="#000000" points="34.6178,-59.2 34.6178,-81.2 151.6178,-81.2 151.6178,-59.2 34.6178,-59.2"/>
<text text-anchor="start" x="54.6178" y="-66.3" font-family="Helvetica,sans-Serif" font-size="11.00" fill="#000000">UPDATED_AT</text>
<polygon fill="none" stroke="#000000" points="151.6178,-59.2 151.6178,-81.2 243.6178,-81.2 243.6178,-59.2 151.6178,-59.2"/>
<text text-anchor="start" x="154.22" y="-66.9" font-family="Helvetica,sans-Serif" font-size="11.00" fill="#000000">timestamptz[35,6]</text>
<polygon fill="#ffffff" stroke="transparent" points="34.6178,-40.2 34.6178,-59.2 78.6178,-59.2 78.6178,-40.2 34.6178,-40.2"/>
<polygon fill="none" stroke="#000000" points="34.6178,-40.2 34.6178,-59.2 78.6178,-59.2 78.6178,-40.2 34.6178,-40.2"/>
<text text-anchor="start" x="37.6178" y="-46.3" font-family="Helvetica,sans-Serif" font-size="11.00" fill="#000000">&lt; 1</text>
<polygon fill="#ffffff" stroke="transparent" points="78.6178,-40.2 78.6178,-59.2 151.6178,-59.2 151.6178,-40.2 78.6178,-40.2"/>
<polygon fill="none" stroke="#000000" points="78.6178,-40.2 78.6178,-59.2 151.6178,-59.2 151.6178,-40.2 78.6178,-40.2"/>
<text text-anchor="start" x="103.9985" y="-46.3" font-family="Helvetica,sans-Serif" font-size="11.00" fill="#000000">119 rows</text>
<polygon fill="#ffffff" stroke="transparent" points="151.6178,-40.2 151.6178,-59.2 243.6178,-59.2 243.6178,-40.2 151.6178,-40.2"/>
<polygon fill="none" stroke="#000000" points="151.6178,-40.2 151.6178,-59.2 243.6178,-59.2 243.6178,-40.2 151.6178,-40.2"/>
<text text-anchor="start" x="225.0231" y="-46.3" font-family="Helvetica,sans-Serif" font-size="11.00" fill="#000000">3 &gt;</text>
<polygon fill="none" stroke="#000000" stroke-width="2" points="33.1178,-39.2 33.1178,-215.2 244.1178,-215.2 244.1178,-39.2 33.1178,-39.2"/>
</a>
</g>
</g>
<!-- cabah_AnalysisUnit&#45;&gt;cabah_depositID -->
<g id="edge1" class="edge">
<title>cabah_AnalysisUnit:w&#45;&gt;cabah_depositID:e</title>
<path fill="none" stroke="#000000" d="M472.3484,-134.1452C463.8444,-131.4584 458.1263,-126.8948 445.1178,-125.2 375.0433,-116.0706 349.5497,-94.0524 286.1178,-125.2 258.3884,-138.8162 274.5099,-180.2 243.6178,-180.2"/>
<polygon fill="#000000" stroke="#000000" points="478.6995,-135.0597 486.1047,-139.7632 482.6586,-135.6299 486.6178,-136.2 486.6178,-136.2 486.6178,-136.2 482.6586,-135.6299 487.1309,-132.6368 478.6995,-135.0597 478.6995,-135.0597"/>
<ellipse fill="none" stroke="#000000" cx="475.5321" cy="-134.6036" rx="3.2" ry="3.2"/>
</g>
<!-- global_UnitMaster -->
<g id="node3" class="node">
<title>global_UnitMaster</title>
<g id="a_node3"><a xlink:href="../../tables/global_UnitMaster.html" xlink:title="global_UnitMaster" target="_top">
<polygon fill="#ffffff" stroke="transparent" points="294.1178,-135.7 294.1178,-394.7 437.1178,-394.7 437.1178,-135.7 294.1178,-135.7"/>
<polygon fill="#f5f5f5" stroke="transparent" points="294.6178,-371.2 294.6178,-394.2 437.6178,-394.2 437.6178,-371.2 294.6178,-371.2"/>
<polygon fill="none" stroke="#000000" points="294.6178,-371.2 294.6178,-394.2 437.6178,-394.2 437.6178,-371.2 294.6178,-371.2"/>
<text text-anchor="start" x="299.6178" y="-379.8" font-family="Helvetica,sans-Serif" font-weight="bold" font-size="11.00" fill="#000000">global_UnitMaster</text>
<text text-anchor="start" x="403.1396" y="-379.3" font-family="Helvetica,sans-Serif" font-size="11.00" fill="#000000">[table]</text>
<polygon fill="none" stroke="#000000" points="294.6178,-349.2 294.6178,-371.2 437.6178,-371.2 437.6178,-349.2 294.6178,-349.2"/>
<image xlink:href="../../images/primaryKeys.png" width="11px" height="12px" preserveAspectRatio="xMinYMin meet" x="299.618" y="-366.2"/>
<text text-anchor="start" x="323.6178" y="-356.3" font-family="Helvetica,sans-Serif" font-size="11.00" fill="#000000">UNITID</text>
<polygon fill="none" stroke="#000000" points="294.6178,-327.2 294.6178,-349.2 437.6178,-349.2 437.6178,-327.2 294.6178,-327.2"/>
<image xlink:href="../../images/foreignKeys.png" width="11px" height="12px" preserveAspectRatio="xMinYMin meet" x="299.618" y="-344.2"/>
<text text-anchor="start" x="323.6178" y="-334.3" font-family="Helvetica,sans-Serif" font-size="11.00" fill="#000000">SITEID</text>
<polygon fill="#ffffff" stroke="transparent" points="294.6178,-305.2 294.6178,-327.2 437.6178,-327.2 437.6178,-305.2 294.6178,-305.2"/>
<polygon fill="none" stroke="#000000" points="294.6178,-305.2 294.6178,-327.2 437.6178,-327.2 437.6178,-305.2 294.6178,-305.2"/>
<text text-anchor="start" x="323.6178" y="-312.3" font-family="Helvetica,sans-Serif" font-size="11.00" fill="#000000">UNITHANDLE</text>
<polygon fill="none" stroke="#000000" points="294.6178,-283.2 294.6178,-305.2 437.6178,-305.2 437.6178,-283.2 294.6178,-283.2"/>
<image xlink:href="../../images/foreignKeys.png" width="11px" height="12px" preserveAspectRatio="xMinYMin meet" x="299.618" y="-300.2"/>
<text text-anchor="start" x="323.6178" y="-290.3" font-family="Helvetica,sans-Serif" font-size="11.00" fill="#000000">UNITTYPEID</text>
<polygon fill="none" stroke="#000000" points="294.6178,-261.2 294.6178,-283.2 437.6178,-283.2 437.6178,-261.2 294.6178,-261.2"/>
<image xlink:href="../../images/foreignKeys.png" width="11px" height="12px" preserveAspectRatio="xMinYMin meet" x="299.618" y="-278.2"/>
<text text-anchor="start" x="323.6178" y="-268.3" font-family="Helvetica,sans-Serif" font-size="11.00" fill="#000000">COLLECTID</text>
<polygon fill="none" stroke="#000000" points="294.6178,-239.2 294.6178,-261.2 437.6178,-261.2 437.6178,-239.2 294.6178,-239.2"/>
<image xlink:href="../../images/foreignKeys.png" width="11px" height="12px" preserveAspectRatio="xMinYMin meet" x="299.618" y="-256.2"/>
<text text-anchor="start" x="323.6178" y="-246.3" font-family="Helvetica,sans-Serif" font-size="11.00" fill="#000000">DEPOSITID</text>
<polygon fill="#ffffff" stroke="transparent" points="294.6178,-217.2 294.6178,-239.2 437.6178,-239.2 437.6178,-217.2 294.6178,-217.2"/>
<polygon fill="none" stroke="#000000" points="294.6178,-217.2 294.6178,-239.2 437.6178,-239.2 437.6178,-217.2 294.6178,-217.2"/>
<text text-anchor="start" x="323.6178" y="-224.3" font-family="Helvetica,sans-Serif" font-size="11.00" fill="#000000">NEO_HANDLE</text>
<polygon fill="none" stroke="#000000" points="294.6178,-195.2 294.6178,-217.2 437.6178,-217.2 437.6178,-195.2 294.6178,-195.2"/>
<image xlink:href="../../images/foreignKeys.png" width="11px" height="12px" preserveAspectRatio="xMinYMin meet" x="299.618" y="-212.2"/>
<text text-anchor="start" x="323.6178" y="-202.3" font-family="Helvetica,sans-Serif" font-size="11.00" fill="#000000">UNIT_REF</text>
<polygon fill="#ffffff" stroke="transparent" points="294.6178,-173.2 294.6178,-195.2 437.6178,-195.2 437.6178,-173.2 294.6178,-173.2"/>
<polygon fill="none" stroke="#000000" points="294.6178,-173.2 294.6178,-195.2 437.6178,-195.2 437.6178,-173.2 294.6178,-173.2"/>
<text text-anchor="start" x="323.6178" y="-180.3" font-family="Helvetica,sans-Serif" font-size="11.00" fill="#000000">NEO_UNITID</text>
<polygon fill="none" stroke="#000000" points="294.6178,-154.2 294.6178,-173.2 437.6178,-173.2 437.6178,-154.2 294.6178,-154.2"/>
<text text-anchor="start" x="297.6178" y="-160.3" font-family="Helvetica,sans-Serif" font-size="11.00" fill="#000000">...</text>
<polygon fill="#ffffff" stroke="transparent" points="294.6178,-135.2 294.6178,-154.2 340.6178,-154.2 340.6178,-135.2 294.6178,-135.2"/>
<polygon fill="none" stroke="#000000" points="294.6178,-135.2 294.6178,-154.2 340.6178,-154.2 340.6178,-135.2 294.6178,-135.2"/>
<text text-anchor="start" x="297.6178" y="-141.3" font-family="Helvetica,sans-Serif" font-size="11.00" fill="#000000">&lt; 5</text>
<polygon fill="#ffffff" stroke="transparent" points="340.6178,-135.2 340.6178,-154.2 403.6178,-154.2 403.6178,-135.2 340.6178,-135.2"/>
<polygon fill="none" stroke="#000000" points="340.6178,-135.2 340.6178,-154.2 403.6178,-154.2 403.6178,-135.2 340.6178,-135.2"/>
<text text-anchor="start" x="355.9985" y="-141.3" font-family="Helvetica,sans-Serif" font-size="11.00" fill="#000000">597 rows</text>
<polygon fill="#ffffff" stroke="transparent" points="403.6178,-135.2 403.6178,-154.2 437.6178,-154.2 437.6178,-135.2 403.6178,-135.2"/>
<polygon fill="none" stroke="#000000" points="403.6178,-135.2 403.6178,-154.2 437.6178,-154.2 437.6178,-135.2 403.6178,-135.2"/>
<text text-anchor="start" x="419.0231" y="-141.3" font-family="Helvetica,sans-Serif" font-size="11.00" fill="#000000">4 &gt;</text>
</a>
</g>
</g>
<!-- cabah_AnalysisUnit&#45;&gt;global_UnitMaster -->
<g id="edge2" class="edge">
<title>cabah_AnalysisUnit:w&#45;&gt;global_UnitMaster:e</title>
<path fill="none" stroke="#000000" d="M472.3884,-162.0364C460.6489,-169.2687 456.3006,-184.2 437.6178,-184.2"/>
<polygon fill="#000000" stroke="#000000" points="478.8936,-160.2826 487.5549,-161.6759 482.7557,-159.2413 486.6178,-158.2 486.6178,-158.2 486.6178,-158.2 482.7557,-159.2413 485.6806,-154.7241 478.8936,-160.2826 478.8936,-160.2826"/>
<ellipse fill="none" stroke="#000000" cx="475.8039" cy="-161.1156" rx="3.2" ry="3.2"/>
</g>
<!-- cabah_depositID&#45;&gt;cabah_depositID -->
<g id="edge3" class="edge">
<title>cabah_depositID:w&#45;&gt;cabah_depositID:e</title>
<path fill="none" stroke="#000000" d="M22.7363,-144.6937C-20.9481,-180.5701 -9.6185,-233.2 139.1178,-233.2 300.1178,-233.2 300.1178,-215.5333 243.6178,-180.2"/>
<polygon fill="#000000" stroke="#000000" points="28.1097,-140.8524 36.7114,-139.1286 31.3638,-138.5262 34.6178,-136.2 34.6178,-136.2 34.6178,-136.2 31.3638,-138.5262 32.5242,-133.2714 28.1097,-140.8524 28.1097,-140.8524"/>
<ellipse fill="none" stroke="#000000" cx="25.5065" cy="-142.7134" rx="3.2" ry="3.2"/>
</g>
<!-- global_UnitMaster&#45;&gt;cabah_depositID -->
<g id="edge4" class="edge">
<title>global_UnitMaster:w&#45;&gt;cabah_depositID:e</title>
<path fill="none" stroke="#000000" d="M280.805,-245.6071C262.6714,-230.034 276.0959,-180.2 243.6178,-180.2"/>
<polygon fill="#000000" stroke="#000000" points="287.0264,-247.6758 293.4819,-253.6161 290.8221,-248.9379 294.6178,-250.2 294.6178,-250.2 294.6178,-250.2 290.8221,-248.9379 295.7537,-246.7839 287.0264,-247.6758 287.0264,-247.6758"/>
<ellipse fill="none" stroke="#000000" cx="283.9899" cy="-246.6661" rx="3.2" ry="3.2"/>
</g>
</g>
</svg>
