<?xml version="1.0" encoding="UTF-8" standalone="no"?>
<!DOCTYPE svg PUBLIC "-//W3C//DTD SVG 1.1//EN"
 "http://www.w3.org/Graphics/SVG/1.1/DTD/svg11.dtd">
<!-- Generated by graphviz version 2.40.1 (20161225.0304)
 -->
<!-- Title: oneDegreeRelationshipsDiagram Pages: 1 -->
<svg width="453pt" height="337pt"
 viewBox="0.00 0.00 453.12 336.70" xmlns="http://www.w3.org/2000/svg" xmlns:xlink="http://www.w3.org/1999/xlink">
<g id="graph0" class="graph" transform="scale(1 1) rotate(0) translate(4 332.7)">
<title>oneDegreeRelationshipsDiagram</title>
<polygon fill="#ffffff" stroke="transparent" points="-4,4 -4,-332.7 449.1178,-332.7 449.1178,4 -4,4"/>
<text text-anchor="middle" x="72.4936" y="-7.3" font-family="Helvetica,sans-Serif" font-size="11.00" fill="#000000">Generated by SchemaSpy</text>
<!-- cabah_depositID -->
<g id="node1" class="node">
<title>cabah_depositID</title>
<g id="a_node1"><a xlink:href="../../tables/cabah_depositID.html" xlink:title="cabah_depositID" target="_top">
<polygon fill="#ffffff" stroke="transparent" points="32.1178,-38.2 32.1178,-216.2 245.1178,-216.2 245.1178,-38.2 32.1178,-38.2"/>
<polygon fill="#f5f5f5" stroke="transparent" points="34.6178,-191.2 34.6178,-214.2 243.6178,-214.2 243.6178,-191.2 34.6178,-191.2"/>
<polygon fill="none" stroke="#000000" points="34.6178,-191.2 34.6178,-214.2 243.6178,-214.2 243.6178,-191.2 34.6178,-191.2"/>
<text text-anchor="start" x="39.6178" y="-199.8" font-family="Helvetica,sans-Serif" font-weight="bold" font-size="11.00" fill="#000000">cabah_depositID</text>
<text text-anchor="start" x="208.6615" y="-199.3" font-family="Helvetica,sans-Serif" font-size="11.00" fill="#000000">[table]</text>
<polygon fill="none" stroke="#000000" points="34.6178,-169.2 34.6178,-191.2 151.6178,-191.2 151.6178,-169.2 34.6178,-169.2"/>
<image xlink:href="../../images/primaryKeys.png" width="11px" height="12px" preserveAspectRatio="xMinYMin meet" x="39.6178" y="-186.2"/>
<text text-anchor="start" x="54.6178" y="-176.3" font-family="Helvetica,sans-Serif" font-size="11.00" fill="#000000">DEPOSITID</text>
<polygon fill="none" stroke="#000000" points="151.6178,-169.2 151.6178,-191.2 243.6178,-191.2 243.6178,-169.2 151.6178,-169.2"/>
<text text-anchor="start" x="154.6178" y="-176.9" font-family="Helvetica,sans-Serif" font-size="11.00" fill="#000000">serial[10]</text>
<polygon fill="#ffffff" stroke="transparent" points="34.6178,-147.2 34.6178,-169.2 151.6178,-169.2 151.6178,-147.2 34.6178,-147.2"/>
<polygon fill="none" stroke="#000000" points="34.6178,-147.2 34.6178,-169.2 151.6178,-169.2 151.6178,-147.2 34.6178,-147.2"/>
<text text-anchor="start" x="54.6178" y="-154.3" font-family="Helvetica,sans-Serif" font-size="11.00" fill="#000000">DEPOSIT</text>
<polygon fill="none" stroke="#000000" points="151.6178,-147.2 151.6178,-169.2 243.6178,-169.2 243.6178,-147.2 151.6178,-147.2"/>
<text text-anchor="start" x="154.6178" y="-154.9" font-family="Helvetica,sans-Serif" font-size="11.00" fill="#000000">text[2147483647]</text>
<polygon fill="none" stroke="#000000" points="34.6178,-125.2 34.6178,-147.2 151.6178,-147.2 151.6178,-125.2 34.6178,-125.2"/>
<image xlink:href="../../images/foreignKeys.png" width="11px" height="12px" preserveAspectRatio="xMinYMin meet" x="39.6178" y="-142.2"/>
<text text-anchor="start" x="54.6178" y="-132.3" font-family="Helvetica,sans-Serif" font-size="11.00" fill="#000000">PARENTID</text>
<polygon fill="none" stroke="#000000" points="151.6178,-125.2 151.6178,-147.2 243.6178,-147.2 243.6178,-125.2 151.6178,-125.2"/>
<text text-anchor="start" x="154.6178" y="-132.9" font-family="Helvetica,sans-Serif" font-size="11.00" fill="#000000">int2[5]</text>
<polygon fill="none" stroke="#000000" points="34.6178,-103.2 34.6178,-125.2 151.6178,-125.2 151.6178,-103.2 34.6178,-103.2"/>
<text text-anchor="start" x="54.6178" y="-110.3" font-family="Helvetica,sans-Serif" font-size="11.00" fill="#000000">DEPOSITDSC</text>
<polygon fill="none" stroke="#000000" points="151.6178,-103.2 151.6178,-125.2 243.6178,-125.2 243.6178,-103.2 151.6178,-103.2"/>
<text text-anchor="start" x="154.6178" y="-110.9" font-family="Helvetica,sans-Serif" font-size="11.00" fill="#000000">text[2147483647]</text>
<polygon fill="none" stroke="#000000" points="34.6178,-81.2 34.6178,-103.2 151.6178,-103.2 151.6178,-81.2 34.6178,-81.2"/>
<text text-anchor="start" x="54.6178" y="-88.3" font-family="Helvetica,sans-Serif" font-size="11.00" fill="#000000">CREATED_AT</text>
<polygon fill="none" stroke="#000000" points="151.6178,-81.2 151.6178,-103.2 243.6178,-103.2 243.6178,-81.2 151.6178,-81.2"/>
<text text-anchor="start" x="154.22" y="-88.9" font-family="Helvetica,sans-Serif" font-size="11.00" fill="#000000">timestamptz[35,6]</text>
<polygon fill="none" stroke="#000000" points="34.6178,-59.2 34.6178,-81.2 151.6178,-81.2 151.6178,-59.2 34.6178,-59.2"/>
<text text-anchor="start" x="54.6178" y="-66.3" font-family="Helvetica,sans-Serif" font-size="11.00" fill="#000000">UPDATED_AT</text>
<polygon fill="none" stroke="#000000" points="151.6178,-59.2 151.6178,-81.2 243.6178,-81.2 243.6178,-59.2 151.6178,-59.2"/>
<text text-anchor="start" x="154.22" y="-66.9" font-family="Helvetica,sans-Serif" font-size="11.00" fill="#000000">timestamptz[35,6]</text>
<polygon fill="#ffffff" stroke="transparent" points="34.6178,-40.2 34.6178,-59.2 78.6178,-59.2 78.6178,-40.2 34.6178,-40.2"/>
<polygon fill="none" stroke="#000000" points="34.6178,-40.2 34.6178,-59.2 78.6178,-59.2 78.6178,-40.2 34.6178,-40.2"/>
<text text-anchor="start" x="37.6178" y="-46.3" font-family="Helvetica,sans-Serif" font-size="11.00" fill="#000000">&lt; 1</text>
<polygon fill="#ffffff" stroke="transparent" points="78.6178,-40.2 78.6178,-59.2 151.6178,-59.2 151.6178,-40.2 78.6178,-40.2"/>
<polygon fill="none" stroke="#000000" points="78.6178,-40.2 78.6178,-59.2 151.6178,-59.2 151.6178,-40.2 78.6178,-40.2"/>
<text text-anchor="start" x="103.9985" y="-46.3" font-family="Helvetica,sans-Serif" font-size="11.00" fill="#000000">117 rows</text>
<polygon fill="#ffffff" stroke="transparent" points="151.6178,-40.2 151.6178,-59.2 243.6178,-59.2 243.6178,-40.2 151.6178,-40.2"/>
<polygon fill="none" stroke="#000000" points="151.6178,-40.2 151.6178,-59.2 243.6178,-59.2 243.6178,-40.2 151.6178,-40.2"/>
<text text-anchor="start" x="225.0231" y="-46.3" font-family="Helvetica,sans-Serif" font-size="11.00" fill="#000000">2 &gt;</text>
<polygon fill="none" stroke="#000000" stroke-width="2" points="33.1178,-39.2 33.1178,-215.2 244.1178,-215.2 244.1178,-39.2 33.1178,-39.2"/>
</a>
</g>
</g>
<!-- cabah_depositID&#45;&gt;cabah_depositID -->
<g id="edge1" class="edge">
<title>cabah_depositID:w&#45;&gt;cabah_depositID:e</title>
<path fill="none" stroke="#000000" d="M22.7363,-144.6937C-20.9481,-180.5701 -9.6185,-233.2 139.1178,-233.2 300.1178,-233.2 300.1178,-215.5333 243.6178,-180.2"/>
<polygon fill="#000000" stroke="#000000" points="28.1097,-140.8524 36.7114,-139.1286 31.3638,-138.5262 34.6178,-136.2 34.6178,-136.2 34.6178,-136.2 31.3638,-138.5262 32.5242,-133.2714 28.1097,-140.8524 28.1097,-140.8524"/>
<ellipse fill="none" stroke="#000000" cx="25.5065" cy="-142.7134" rx="3.2" ry="3.2"/>
</g>
<!-- global_UnitMaster -->
<g id="node2" class="node">
<title>global_UnitMaster</title>
<g id="a_node2"><a xlink:href="../../tables/global_UnitMaster.html" xlink:title="global_UnitMaster" target="_top">
<polygon fill="#ffffff" stroke="transparent" points="294.1178,-87.7 294.1178,-324.7 437.1178,-324.7 437.1178,-87.7 294.1178,-87.7"/>
<polygon fill="#f5f5f5" stroke="transparent" points="294.6178,-301.2 294.6178,-324.2 437.6178,-324.2 437.6178,-301.2 294.6178,-301.2"/>
<polygon fill="none" stroke="#000000" points="294.6178,-301.2 294.6178,-324.2 437.6178,-324.2 437.6178,-301.2 294.6178,-301.2"/>
<text text-anchor="start" x="299.6178" y="-309.8" font-family="Helvetica,sans-Serif" font-weight="bold" font-size="11.00" fill="#000000">global_UnitMaster</text>
<text text-anchor="start" x="403.1396" y="-309.3" font-family="Helvetica,sans-Serif" font-size="11.00" fill="#000000">[table]</text>
<polygon fill="none" stroke="#000000" points="294.6178,-279.2 294.6178,-301.2 437.6178,-301.2 437.6178,-279.2 294.6178,-279.2"/>
<image xlink:href="../../images/primaryKeys.png" width="11px" height="12px" preserveAspectRatio="xMinYMin meet" x="299.618" y="-296.2"/>
<text text-anchor="start" x="323.6178" y="-286.3" font-family="Helvetica,sans-Serif" font-size="11.00" fill="#000000">UNITID</text>
<polygon fill="none" stroke="#000000" points="294.6178,-257.2 294.6178,-279.2 437.6178,-279.2 437.6178,-257.2 294.6178,-257.2"/>
<image xlink:href="../../images/foreignKeys.png" width="11px" height="12px" preserveAspectRatio="xMinYMin meet" x="299.618" y="-274.2"/>
<text text-anchor="start" x="323.6178" y="-264.3" font-family="Helvetica,sans-Serif" font-size="11.00" fill="#000000">SITEID</text>
<polygon fill="#ffffff" stroke="transparent" points="294.6178,-235.2 294.6178,-257.2 437.6178,-257.2 437.6178,-235.2 294.6178,-235.2"/>
<polygon fill="none" stroke="#000000" points="294.6178,-235.2 294.6178,-257.2 437.6178,-257.2 437.6178,-235.2 294.6178,-235.2"/>
<text text-anchor="start" x="323.6178" y="-242.3" font-family="Helvetica,sans-Serif" font-size="11.00" fill="#000000">UNITHANDLE</text>
<polygon fill="none" stroke="#000000" points="294.6178,-213.2 294.6178,-235.2 437.6178,-235.2 437.6178,-213.2 294.6178,-213.2"/>
<image xlink:href="../../images/foreignKeys.png" width="11px" height="12px" preserveAspectRatio="xMinYMin meet" x="299.618" y="-230.2"/>
<text text-anchor="start" x="323.6178" y="-220.3" font-family="Helvetica,sans-Serif" font-size="11.00" fill="#000000">UNITTYPEID</text>
<polygon fill="none" stroke="#000000" points="294.6178,-191.2 294.6178,-213.2 437.6178,-213.2 437.6178,-191.2 294.6178,-191.2"/>
<image xlink:href="../../images/foreignKeys.png" width="11px" height="12px" preserveAspectRatio="xMinYMin meet" x="299.618" y="-208.2"/>
<text text-anchor="start" x="323.6178" y="-198.3" font-family="Helvetica,sans-Serif" font-size="11.00" fill="#000000">COLLECTID</text>
<polygon fill="none" stroke="#000000" points="294.6178,-169.2 294.6178,-191.2 437.6178,-191.2 437.6178,-169.2 294.6178,-169.2"/>
<image xlink:href="../../images/foreignKeys.png" width="11px" height="12px" preserveAspectRatio="xMinYMin meet" x="299.618" y="-186.2"/>
<text text-anchor="start" x="323.6178" y="-176.3" font-family="Helvetica,sans-Serif" font-size="11.00" fill="#000000">DEPOSITID</text>
<polygon fill="#ffffff" stroke="transparent" points="294.6178,-147.2 294.6178,-169.2 437.6178,-169.2 437.6178,-147.2 294.6178,-147.2"/>
<polygon fill="none" stroke="#000000" points="294.6178,-147.2 294.6178,-169.2 437.6178,-169.2 437.6178,-147.2 294.6178,-147.2"/>
<text text-anchor="start" x="323.6178" y="-154.3" font-family="Helvetica,sans-Serif" font-size="11.00" fill="#000000">NEO_HANDLE</text>
<polygon fill="none" stroke="#000000" points="294.6178,-125.2 294.6178,-147.2 437.6178,-147.2 437.6178,-125.2 294.6178,-125.2"/>
<image xlink:href="../../images/foreignKeys.png" width="11px" height="12px" preserveAspectRatio="xMinYMin meet" x="299.618" y="-142.2"/>
<text text-anchor="start" x="323.6178" y="-132.3" font-family="Helvetica,sans-Serif" font-size="11.00" fill="#000000">UNIT_REF</text>
<polygon fill="none" stroke="#000000" points="294.6178,-106.2 294.6178,-125.2 437.6178,-125.2 437.6178,-106.2 294.6178,-106.2"/>
<text text-anchor="start" x="297.6178" y="-112.3" font-family="Helvetica,sans-Serif" font-size="11.00" fill="#000000">...</text>
<polygon fill="#ffffff" stroke="transparent" points="294.6178,-87.2 294.6178,-106.2 340.6178,-106.2 340.6178,-87.2 294.6178,-87.2"/>
<polygon fill="none" stroke="#000000" points="294.6178,-87.2 294.6178,-106.2 340.6178,-106.2 340.6178,-87.2 294.6178,-87.2"/>
<text text-anchor="start" x="297.6178" y="-93.3" font-family="Helvetica,sans-Serif" font-size="11.00" fill="#000000">&lt; 5</text>
<polygon fill="#ffffff" stroke="transparent" points="340.6178,-87.2 340.6178,-106.2 403.6178,-106.2 403.6178,-87.2 340.6178,-87.2"/>
<polygon fill="none" stroke="#000000" points="340.6178,-87.2 340.6178,-106.2 403.6178,-106.2 403.6178,-87.2 340.6178,-87.2"/>
<text text-anchor="start" x="355.9985" y="-93.3" font-family="Helvetica,sans-Serif" font-size="11.00" fill="#000000">531 rows</text>
<polygon fill="#ffffff" stroke="transparent" points="403.6178,-87.2 403.6178,-106.2 437.6178,-106.2 437.6178,-87.2 403.6178,-87.2"/>
<polygon fill="none" stroke="#000000" points="403.6178,-87.2 403.6178,-106.2 437.6178,-106.2 437.6178,-87.2 403.6178,-87.2"/>
<text text-anchor="start" x="419.0231" y="-93.3" font-family="Helvetica,sans-Serif" font-size="11.00" fill="#000000">1 &gt;</text>
</a>
</g>
</g>
<!-- global_UnitMaster&#45;&gt;cabah_depositID -->
<g id="edge2" class="edge">
<title>global_UnitMaster:w&#45;&gt;cabah_depositID:e</title>
<path fill="none" stroke="#000000" d="M279.8937,-180.2C267.8993,-180.2 260.4407,-180.2 243.6178,-180.2"/>
<polygon fill="#000000" stroke="#000000" points="286.6178,-180.2001 294.6178,-183.8 290.6178,-180.2 294.6178,-180.2 294.6178,-180.2 294.6178,-180.2 290.6178,-180.2 294.6178,-176.6 286.6178,-180.2001 286.6178,-180.2001"/>
<ellipse fill="none" stroke="#000000" cx="283.4178" cy="-180.2001" rx="3.2" ry="3.2"/>
</g>
</g>
</svg>
