<?xml version="1.0" encoding="UTF-8" standalone="no"?>
<!DOCTYPE svg PUBLIC "-//W3C//DTD SVG 1.1//EN"
 "http://www.w3.org/Graphics/SVG/1.1/DTD/svg11.dtd">
<!-- Generated by graphviz version 2.40.1 (20161225.0304)
 -->
<!-- Title: oneDegreeRelationshipsDiagramImplied Pages: 1 -->
<svg width="437pt" height="249pt"
 viewBox="0.00 0.00 437.00 248.70" xmlns="http://www.w3.org/2000/svg" xmlns:xlink="http://www.w3.org/1999/xlink">
<g id="graph0" class="graph" transform="scale(1 1) rotate(0) translate(4 244.7)">
<title>oneDegreeRelationshipsDiagramImplied</title>
<polygon fill="#ffffff" stroke="transparent" points="-4,4 -4,-244.7 433,-244.7 433,4 -4,4"/>
<text text-anchor="middle" x="72.4936" y="-7.3" font-family="Helvetica,sans-Serif" font-size="11.00" fill="#000000">Generated by SchemaSpy</text>
<!-- global_MetaSite -->
<g id="node1" class="node">
<title>global_MetaSite</title>
<g id="a_node1"><a xlink:href="../../tables/global_MetaSite.html" xlink:title="global_MetaSite" target="_top">
<polygon fill="#ffffff" stroke="transparent" points="291,-109.7 291,-236.7 421,-236.7 421,-109.7 291,-109.7"/>
<polygon fill="#f5f5f5" stroke="transparent" points="291,-213.2 291,-236.2 421,-236.2 421,-213.2 291,-213.2"/>
<polygon fill="none" stroke="#000000" points="291,-213.2 291,-236.2 421,-236.2 421,-213.2 291,-213.2"/>
<text text-anchor="start" x="296" y="-221.8" font-family="Helvetica,sans-Serif" font-weight="bold" font-size="11.00" fill="#000000">global_MetaSite</text>
<text text-anchor="start" x="386.5219" y="-221.3" font-family="Helvetica,sans-Serif" font-size="11.00" fill="#000000">[table]</text>
<polygon fill="none" stroke="#000000" points="291,-191.2 291,-213.2 421,-213.2 421,-191.2 291,-191.2"/>
<image xlink:href="../../images/primaryKeys.png" width="11px" height="12px" preserveAspectRatio="xMinYMin meet" x="296" y="-208.2"/>
<text text-anchor="start" x="320" y="-198.3" font-family="Helvetica,sans-Serif" font-size="11.00" fill="#000000">METASITEID</text>
<polygon fill="none" stroke="#000000" points="291,-169.2 291,-191.2 421,-191.2 421,-169.2 291,-169.2"/>
<image xlink:href="../../images/foreignKeys.png" width="11px" height="12px" preserveAspectRatio="xMinYMin meet" x="296" y="-186.2"/>
<text text-anchor="start" x="320" y="-176.3" font-family="Helvetica,sans-Serif" font-size="11.00" fill="#000000">FEATURESRC</text>
<polygon fill="none" stroke="#000000" points="291,-147.2 291,-169.2 421,-169.2 421,-147.2 291,-147.2"/>
<image xlink:href="../../images/foreignKeys.png" width="11px" height="12px" preserveAspectRatio="xMinYMin meet" x="296" y="-164.2"/>
<text text-anchor="start" x="320" y="-154.3" font-family="Helvetica,sans-Serif" font-size="11.00" fill="#000000">FEATURETYP</text>
<polygon fill="none" stroke="#000000" points="291,-128.2 291,-147.2 421,-147.2 421,-128.2 291,-128.2"/>
<text text-anchor="start" x="294" y="-134.3" font-family="Helvetica,sans-Serif" font-size="11.00" fill="#000000">...</text>
<polygon fill="#ffffff" stroke="transparent" points="291,-109.2 291,-128.2 323,-128.2 323,-109.2 291,-109.2"/>
<polygon fill="none" stroke="#000000" points="291,-109.2 291,-128.2 323,-128.2 323,-109.2 291,-109.2"/>
<text text-anchor="start" x="294" y="-115.3" font-family="Helvetica,sans-Serif" font-size="11.00" fill="#000000">&lt; 2</text>
<polygon fill="#ffffff" stroke="transparent" points="323,-109.2 323,-128.2 394,-128.2 394,-109.2 323,-109.2"/>
<polygon fill="none" stroke="#000000" points="323,-109.2 323,-128.2 394,-128.2 394,-109.2 323,-109.2"/>
<text text-anchor="start" x="331.094" y="-115.3" font-family="Helvetica,sans-Serif" font-size="11.00" fill="#000000">12.138 rows</text>
<polygon fill="#ffffff" stroke="transparent" points="394,-109.2 394,-128.2 421,-128.2 421,-109.2 394,-109.2"/>
<polygon fill="none" stroke="#000000" points="394,-109.2 394,-128.2 421,-128.2 421,-109.2 394,-109.2"/>
<text text-anchor="start" x="402.4053" y="-115.3" font-family="Helvetica,sans-Serif" font-size="11.00" fill="#000000">1 &gt;</text>
</a>
</g>
</g>
<!-- cabah_datasourceID -->
<g id="node2" class="node">
<title>cabah_datasourceID</title>
<g id="a_node2"><a xlink:href="../../tables/cabah_datasourceID.html" xlink:title="cabah_datasourceID" target="_top">
<polygon fill="#ffffff" stroke="transparent" points="8,-38.2 8,-216.2 242,-216.2 242,-38.2 8,-38.2"/>
<polygon fill="#f5f5f5" stroke="transparent" points="10,-191.2 10,-214.2 240,-214.2 240,-191.2 10,-191.2"/>
<polygon fill="none" stroke="#000000" points="10,-191.2 10,-214.2 240,-214.2 240,-191.2 10,-191.2"/>
<text text-anchor="start" x="15" y="-199.8" font-family="Helvetica,sans-Serif" font-weight="bold" font-size="11.00" fill="#000000">cabah_datasourceID</text>
<text text-anchor="start" x="205.0437" y="-199.3" font-family="Helvetica,sans-Serif" font-size="11.00" fill="#000000">[table]</text>
<polygon fill="none" stroke="#000000" points="10,-169.2 10,-191.2 148,-191.2 148,-169.2 10,-169.2"/>
<image xlink:href="../../images/primaryKeys.png" width="11px" height="12px" preserveAspectRatio="xMinYMin meet" x="15" y="-186.2"/>
<text text-anchor="start" x="30" y="-176.3" font-family="Helvetica,sans-Serif" font-size="11.00" fill="#000000">DATASRCID</text>
<polygon fill="none" stroke="#000000" points="148,-169.2 148,-191.2 240,-191.2 240,-169.2 148,-169.2"/>
<text text-anchor="start" x="151" y="-176.9" font-family="Helvetica,sans-Serif" font-size="11.00" fill="#000000">serial[10]</text>
<polygon fill="#ffffff" stroke="transparent" points="10,-147.2 10,-169.2 148,-169.2 148,-147.2 10,-147.2"/>
<polygon fill="none" stroke="#000000" points="10,-147.2 10,-169.2 148,-169.2 148,-147.2 10,-147.2"/>
<text text-anchor="start" x="30" y="-154.3" font-family="Helvetica,sans-Serif" font-size="11.00" fill="#000000">DATASOURCE</text>
<polygon fill="none" stroke="#000000" points="148,-147.2 148,-169.2 240,-169.2 240,-147.2 148,-147.2"/>
<text text-anchor="start" x="151" y="-154.9" font-family="Helvetica,sans-Serif" font-size="11.00" fill="#000000">text[2147483647]</text>
<polygon fill="none" stroke="#000000" points="10,-125.2 10,-147.2 148,-147.2 148,-125.2 10,-125.2"/>
<text text-anchor="start" x="30" y="-132.3" font-family="Helvetica,sans-Serif" font-size="11.00" fill="#000000">DATASRCDSC</text>
<polygon fill="none" stroke="#000000" points="148,-125.2 148,-147.2 240,-147.2 240,-125.2 148,-125.2"/>
<text text-anchor="start" x="151" y="-132.9" font-family="Helvetica,sans-Serif" font-size="11.00" fill="#000000">text[2147483647]</text>
<polygon fill="none" stroke="#000000" points="10,-103.2 10,-125.2 148,-125.2 148,-103.2 10,-103.2"/>
<text text-anchor="start" x="30" y="-110.3" font-family="Helvetica,sans-Serif" font-size="11.00" fill="#000000">DATASRCREF</text>
<polygon fill="none" stroke="#000000" points="148,-103.2 148,-125.2 240,-125.2 240,-103.2 148,-103.2"/>
<text text-anchor="start" x="151" y="-110.9" font-family="Helvetica,sans-Serif" font-size="11.00" fill="#000000">text[2147483647]</text>
<polygon fill="none" stroke="#000000" points="10,-81.2 10,-103.2 148,-103.2 148,-81.2 10,-81.2"/>
<text text-anchor="start" x="30" y="-88.3" font-family="Helvetica,sans-Serif" font-size="11.00" fill="#000000">CREATED_AT</text>
<polygon fill="none" stroke="#000000" points="148,-81.2 148,-103.2 240,-103.2 240,-81.2 148,-81.2"/>
<text text-anchor="start" x="150.6023" y="-88.9" font-family="Helvetica,sans-Serif" font-size="11.00" fill="#000000">timestamptz[35,6]</text>
<polygon fill="none" stroke="#000000" points="10,-59.2 10,-81.2 148,-81.2 148,-59.2 10,-59.2"/>
<text text-anchor="start" x="30" y="-66.3" font-family="Helvetica,sans-Serif" font-size="11.00" fill="#000000">UPDATED_AT</text>
<polygon fill="none" stroke="#000000" points="148,-59.2 148,-81.2 240,-81.2 240,-59.2 148,-59.2"/>
<text text-anchor="start" x="150.6023" y="-66.9" font-family="Helvetica,sans-Serif" font-size="11.00" fill="#000000">timestamptz[35,6]</text>
<polygon fill="#ffffff" stroke="transparent" points="10,-40.2 10,-59.2 67,-59.2 67,-40.2 10,-40.2"/>
<polygon fill="none" stroke="#000000" points="10,-40.2 10,-59.2 67,-59.2 67,-40.2 10,-40.2"/>
<text text-anchor="start" x="13" y="-46.3" font-family="Helvetica,sans-Serif" font-size="11.00" fill="#000000">&lt; 0</text>
<polygon fill="#ffffff" stroke="transparent" points="67,-40.2 67,-59.2 148,-59.2 148,-40.2 67,-40.2"/>
<polygon fill="none" stroke="#000000" points="67,-40.2 67,-59.2 148,-59.2 148,-40.2 67,-40.2"/>
<text text-anchor="start" x="106.4956" y="-46.3" font-family="Helvetica,sans-Serif" font-size="11.00" fill="#000000">10 rows</text>
<polygon fill="#ffffff" stroke="transparent" points="148,-40.2 148,-59.2 240,-59.2 240,-40.2 148,-40.2"/>
<polygon fill="none" stroke="#000000" points="148,-40.2 148,-59.2 240,-59.2 240,-40.2 148,-40.2"/>
<text text-anchor="start" x="221.4053" y="-46.3" font-family="Helvetica,sans-Serif" font-size="11.00" fill="#000000">1 &gt;</text>
<polygon fill="none" stroke="#000000" stroke-width="2" points="9,-39.2 9,-215.2 241,-215.2 241,-39.2 9,-39.2"/>
</a>
</g>
</g>
<!-- global_MetaSite&#45;&gt;cabah_datasourceID -->
<g id="edge1" class="edge">
<title>global_MetaSite:w&#45;&gt;cabah_datasourceID:e</title>
<path fill="none" stroke="#000000" d="M276.276,-180.2C264.2815,-180.2 256.8229,-180.2 240,-180.2"/>
<polygon fill="#000000" stroke="#000000" points="283,-180.2001 291,-183.8 287,-180.2 291,-180.2 291,-180.2 291,-180.2 287,-180.2 291,-176.6 283,-180.2001 283,-180.2001"/>
<ellipse fill="none" stroke="#000000" cx="279.8" cy="-180.2001" rx="3.2" ry="3.2"/>
</g>
</g>
</svg>
