<?xml version="1.0" encoding="UTF-8" standalone="no"?>
<!DOCTYPE svg PUBLIC "-//W3C//DTD SVG 1.1//EN"
 "http://www.w3.org/Graphics/SVG/1.1/DTD/svg11.dtd">
<!-- Generated by graphviz version 2.40.1 (20161225.0304)
 -->
<!-- Title: twoDegreesRelationshipsDiagramImplied Pages: 1 -->
<svg width="793pt" height="806pt"
 viewBox="0.00 0.00 793.00 806.39" xmlns="http://www.w3.org/2000/svg" xmlns:xlink="http://www.w3.org/1999/xlink">
<g id="graph0" class="graph" transform="scale(1 1) rotate(0) translate(4 802.389)">
<title>twoDegreesRelationshipsDiagramImplied</title>
<polygon fill="#ffffff" stroke="transparent" points="-4,4 -4,-802.389 789,-802.389 789,4 -4,4"/>
<text text-anchor="middle" x="72.4936" y="-7.3" font-family="Helvetica,sans-Serif" font-size="11.00" fill="#000000">Generated by SchemaSpy</text>
<!-- cabah_AnalysisUnit -->
<g id="node1" class="node">
<title>cabah_AnalysisUnit</title>
<g id="a_node1"><a xlink:href="../../tables/cabah_AnalysisUnit.html" xlink:title="cabah_AnalysisUnit" target="_top">
<polygon fill="#ffffff" stroke="transparent" points="394.5,-506.389 394.5,-794.389 625.5,-794.389 625.5,-506.389 394.5,-506.389"/>
<polygon fill="#f5f5f5" stroke="transparent" points="397,-769.389 397,-792.389 624,-792.389 624,-769.389 397,-769.389"/>
<polygon fill="none" stroke="#000000" points="397,-769.389 397,-792.389 624,-792.389 624,-769.389 397,-769.389"/>
<text text-anchor="start" x="402" y="-777.989" font-family="Helvetica,sans-Serif" font-weight="bold" font-size="11.00" fill="#000000">cabah_AnalysisUnit</text>
<text text-anchor="start" x="589.0437" y="-777.489" font-family="Helvetica,sans-Serif" font-size="11.00" fill="#000000">[table]</text>
<polygon fill="none" stroke="#000000" points="397,-747.389 397,-769.389 532,-769.389 532,-747.389 397,-747.389"/>
<image xlink:href="../../images/primaryKeys.png" width="11px" height="12px" preserveAspectRatio="xMinYMin meet" x="402" y="-764.389"/>
<text text-anchor="start" x="417" y="-754.489" font-family="Helvetica,sans-Serif" font-size="11.00" fill="#000000">ANLYSUNTID</text>
<polygon fill="none" stroke="#000000" points="532,-747.389 532,-769.389 624,-769.389 624,-747.389 532,-747.389"/>
<text text-anchor="start" x="535" y="-755.089" font-family="Helvetica,sans-Serif" font-size="11.00" fill="#000000">int4[10]</text>
<polygon fill="none" stroke="#000000" points="397,-725.389 397,-747.389 532,-747.389 532,-725.389 397,-725.389"/>
<image xlink:href="../../images/foreignKeys.png" width="11px" height="12px" preserveAspectRatio="xMinYMin meet" x="402" y="-742.389"/>
<text text-anchor="start" x="417" y="-732.489" font-family="Helvetica,sans-Serif" font-size="11.00" fill="#000000">NEO_UNITID</text>
<polygon fill="none" stroke="#000000" points="532,-725.389 532,-747.389 624,-747.389 624,-725.389 532,-725.389"/>
<text text-anchor="start" x="535" y="-733.089" font-family="Helvetica,sans-Serif" font-size="11.00" fill="#000000">int4[10]</text>
<polygon fill="none" stroke="#000000" points="397,-703.389 397,-725.389 532,-725.389 532,-703.389 397,-703.389"/>
<text text-anchor="start" x="417" y="-710.489" font-family="Helvetica,sans-Serif" font-size="11.00" fill="#000000">AUIT_NAME</text>
<polygon fill="none" stroke="#000000" points="532,-703.389 532,-725.389 624,-725.389 624,-703.389 532,-703.389"/>
<text text-anchor="start" x="535" y="-711.089" font-family="Helvetica,sans-Serif" font-size="11.00" fill="#000000">text[2147483647]</text>
<polygon fill="none" stroke="#000000" points="397,-681.389 397,-703.389 532,-703.389 532,-681.389 397,-681.389"/>
<text text-anchor="start" x="417" y="-688.489" font-family="Helvetica,sans-Serif" font-size="11.00" fill="#000000">AUIT_DEPTH</text>
<polygon fill="none" stroke="#000000" points="532,-681.389 532,-703.389 624,-703.389 624,-681.389 532,-681.389"/>
<text text-anchor="start" x="535" y="-689.089" font-family="Helvetica,sans-Serif" font-size="11.00" fill="#000000">numeric[0]</text>
<polygon fill="none" stroke="#000000" points="397,-659.389 397,-681.389 532,-681.389 532,-659.389 397,-659.389"/>
<text text-anchor="start" x="417" y="-666.489" font-family="Helvetica,sans-Serif" font-size="11.00" fill="#000000">AUIT_THICK</text>
<polygon fill="none" stroke="#000000" points="532,-659.389 532,-681.389 624,-681.389 624,-659.389 532,-659.389"/>
<text text-anchor="start" x="535" y="-667.089" font-family="Helvetica,sans-Serif" font-size="11.00" fill="#000000">numeric[0]</text>
<polygon fill="none" stroke="#000000" points="397,-637.389 397,-659.389 532,-659.389 532,-637.389 397,-637.389"/>
<image xlink:href="../../images/foreignKeys.png" width="11px" height="12px" preserveAspectRatio="xMinYMin meet" x="402" y="-654.389"/>
<text text-anchor="start" x="417" y="-644.489" font-family="Helvetica,sans-Serif" font-size="11.00" fill="#000000">FACIESID</text>
<polygon fill="none" stroke="#000000" points="532,-637.389 532,-659.389 624,-659.389 624,-637.389 532,-637.389"/>
<text text-anchor="start" x="535" y="-645.089" font-family="Helvetica,sans-Serif" font-size="11.00" fill="#000000">int2[5]</text>
<polygon fill="none" stroke="#000000" points="397,-615.389 397,-637.389 532,-637.389 532,-615.389 397,-615.389"/>
<text text-anchor="start" x="417" y="-622.489" font-family="Helvetica,sans-Serif" font-size="11.00" fill="#000000">AUIT_MIXED</text>
<polygon fill="none" stroke="#000000" points="532,-615.389 532,-637.389 624,-637.389 624,-615.389 532,-615.389"/>
<text text-anchor="start" x="535" y="-623.089" font-family="Helvetica,sans-Serif" font-size="11.00" fill="#000000">bool[1]</text>
<polygon fill="none" stroke="#000000" points="397,-593.389 397,-615.389 532,-615.389 532,-593.389 397,-593.389"/>
<text text-anchor="start" x="417" y="-600.489" font-family="Helvetica,sans-Serif" font-size="11.00" fill="#000000">AUIT_ISGN</text>
<polygon fill="none" stroke="#000000" points="532,-593.389 532,-615.389 624,-615.389 624,-593.389 532,-593.389"/>
<text text-anchor="start" x="535" y="-601.089" font-family="Helvetica,sans-Serif" font-size="11.00" fill="#000000">text[2147483647]</text>
<polygon fill="none" stroke="#000000" points="397,-571.389 397,-593.389 532,-593.389 532,-571.389 397,-571.389"/>
<text text-anchor="start" x="417" y="-578.489" font-family="Helvetica,sans-Serif" font-size="11.00" fill="#000000">AUIT_NOTES</text>
<polygon fill="none" stroke="#000000" points="532,-571.389 532,-593.389 624,-593.389 624,-571.389 532,-571.389"/>
<text text-anchor="start" x="535" y="-579.089" font-family="Helvetica,sans-Serif" font-size="11.00" fill="#000000">text[2147483647]</text>
<polygon fill="none" stroke="#000000" points="397,-549.389 397,-571.389 532,-571.389 532,-549.389 397,-549.389"/>
<text text-anchor="start" x="417" y="-556.489" font-family="Helvetica,sans-Serif" font-size="11.00" fill="#000000">CREATED_AT</text>
<polygon fill="none" stroke="#000000" points="532,-549.389 532,-571.389 624,-571.389 624,-549.389 532,-549.389"/>
<text text-anchor="start" x="534.6023" y="-557.089" font-family="Helvetica,sans-Serif" font-size="11.00" fill="#000000">timestamptz[35,6]</text>
<polygon fill="none" stroke="#000000" points="397,-527.389 397,-549.389 532,-549.389 532,-527.389 397,-527.389"/>
<text text-anchor="start" x="417" y="-534.489" font-family="Helvetica,sans-Serif" font-size="11.00" fill="#000000">UPDATED_AT</text>
<polygon fill="none" stroke="#000000" points="532,-527.389 532,-549.389 624,-549.389 624,-527.389 532,-527.389"/>
<text text-anchor="start" x="534.6023" y="-535.089" font-family="Helvetica,sans-Serif" font-size="11.00" fill="#000000">timestamptz[35,6]</text>
<polygon fill="#ffffff" stroke="transparent" points="397,-508.389 397,-527.389 442,-527.389 442,-508.389 397,-508.389"/>
<polygon fill="none" stroke="#000000" points="397,-508.389 397,-527.389 442,-527.389 442,-508.389 397,-508.389"/>
<text text-anchor="start" x="400" y="-514.489" font-family="Helvetica,sans-Serif" font-size="11.00" fill="#000000">&lt; 2</text>
<polygon fill="#ffffff" stroke="transparent" points="442,-508.389 442,-527.389 532,-527.389 532,-508.389 442,-508.389"/>
<polygon fill="none" stroke="#000000" points="442,-508.389 442,-527.389 532,-527.389 532,-508.389 442,-508.389"/>
<text text-anchor="start" x="469.094" y="-514.489" font-family="Helvetica,sans-Serif" font-size="11.00" fill="#000000">14.167 rows</text>
<polygon fill="#ffffff" stroke="transparent" points="532,-508.389 532,-527.389 624,-527.389 624,-508.389 532,-508.389"/>
<polygon fill="none" stroke="#000000" points="532,-508.389 532,-527.389 624,-527.389 624,-508.389 532,-508.389"/>
<text text-anchor="start" x="605.4053" y="-514.489" font-family="Helvetica,sans-Serif" font-size="11.00" fill="#000000">0 &gt;</text>
<polygon fill="none" stroke="#000000" stroke-width="2" points="395.5,-507.389 395.5,-793.389 624.5,-793.389 624.5,-507.389 395.5,-507.389"/>
</a>
</g>
</g>
<!-- cabah_depositID -->
<g id="node2" class="node">
<title>cabah_depositID</title>
<g id="a_node2"><a xlink:href="../../tables/cabah_depositID.html" xlink:title="cabah_depositID" target="_top">
<polygon fill="#ffffff" stroke="transparent" points="11,-527.889 11,-588.889 146,-588.889 146,-527.889 11,-527.889"/>
<polygon fill="#f5f5f5" stroke="transparent" points="11.5,-565.389 11.5,-588.389 146.5,-588.389 146.5,-565.389 11.5,-565.389"/>
<polygon fill="none" stroke="#000000" points="11.5,-565.389 11.5,-588.389 146.5,-588.389 146.5,-565.389 11.5,-565.389"/>
<text text-anchor="start" x="16.5" y="-573.989" font-family="Helvetica,sans-Serif" font-weight="bold" font-size="11.00" fill="#000000">cabah_depositID</text>
<text text-anchor="start" x="112.0219" y="-573.489" font-family="Helvetica,sans-Serif" font-size="11.00" fill="#000000">[table]</text>
<polygon fill="none" stroke="#000000" points="11.5,-546.389 11.5,-565.389 146.5,-565.389 146.5,-546.389 11.5,-546.389"/>
<text text-anchor="start" x="14.5" y="-552.489" font-family="Helvetica,sans-Serif" font-size="11.00" fill="#000000">...</text>
<polygon fill="#ffffff" stroke="transparent" points="11.5,-527.389 11.5,-546.389 53.5,-546.389 53.5,-527.389 11.5,-527.389"/>
<polygon fill="none" stroke="#000000" points="11.5,-527.389 11.5,-546.389 53.5,-546.389 53.5,-527.389 11.5,-527.389"/>
<text text-anchor="start" x="14.5" y="-533.489" font-family="Helvetica,sans-Serif" font-size="11.00" fill="#000000">&lt; 1</text>
<polygon fill="#ffffff" stroke="transparent" points="53.5,-527.389 53.5,-546.389 114.5,-546.389 114.5,-527.389 53.5,-527.389"/>
<polygon fill="none" stroke="#000000" points="53.5,-527.389 53.5,-546.389 114.5,-546.389 114.5,-527.389 53.5,-527.389"/>
<text text-anchor="start" x="66.8807" y="-533.489" font-family="Helvetica,sans-Serif" font-size="11.00" fill="#000000">119 rows</text>
<polygon fill="#ffffff" stroke="transparent" points="114.5,-527.389 114.5,-546.389 146.5,-546.389 146.5,-527.389 114.5,-527.389"/>
<polygon fill="none" stroke="#000000" points="114.5,-527.389 114.5,-546.389 146.5,-546.389 146.5,-527.389 114.5,-527.389"/>
<text text-anchor="start" x="127.9053" y="-533.489" font-family="Helvetica,sans-Serif" font-size="11.00" fill="#000000">3 &gt;</text>
</a>
</g>
</g>
<!-- cabah_AnalysisUnit&#45;&gt;cabah_depositID -->
<g id="edge1" class="edge">
<title>cabah_AnalysisUnit:w&#45;&gt;cabah_depositID:e</title>
<path fill="none" stroke="#000000" d="M382.3798,-648.102C300.8501,-644.9513 213.9389,-616.457 154.0404,-592.4141"/>
<polygon fill="#000000" stroke="#000000" points="389.0015,-648.2319 396.9293,-651.9883 393.0008,-648.3105 397,-648.389 397,-648.389 397,-648.389 393.0008,-648.3105 397.0707,-644.7897 389.0015,-648.2319 389.0015,-648.2319"/>
<ellipse fill="none" stroke="#000000" cx="385.8022" cy="-648.1691" rx="3.2" ry="3.2"/>
</g>
<!-- global_UnitMaster -->
<g id="node3" class="node">
<title>global_UnitMaster</title>
<g id="a_node3"><a xlink:href="../../tables/global_UnitMaster.html" xlink:title="global_UnitMaster" target="_top">
<polygon fill="#ffffff" stroke="transparent" points="198,-270.889 198,-331.889 341,-331.889 341,-270.889 198,-270.889"/>
<polygon fill="#f5f5f5" stroke="transparent" points="198.5,-308.389 198.5,-331.389 341.5,-331.389 341.5,-308.389 198.5,-308.389"/>
<polygon fill="none" stroke="#000000" points="198.5,-308.389 198.5,-331.389 341.5,-331.389 341.5,-308.389 198.5,-308.389"/>
<text text-anchor="start" x="203.5" y="-316.989" font-family="Helvetica,sans-Serif" font-weight="bold" font-size="11.00" fill="#000000">global_UnitMaster</text>
<text text-anchor="start" x="307.0219" y="-316.489" font-family="Helvetica,sans-Serif" font-size="11.00" fill="#000000">[table]</text>
<polygon fill="none" stroke="#000000" points="198.5,-289.389 198.5,-308.389 341.5,-308.389 341.5,-289.389 198.5,-289.389"/>
<text text-anchor="start" x="201.5" y="-295.489" font-family="Helvetica,sans-Serif" font-size="11.00" fill="#000000">...</text>
<polygon fill="#ffffff" stroke="transparent" points="198.5,-270.389 198.5,-289.389 244.5,-289.389 244.5,-270.389 198.5,-270.389"/>
<polygon fill="none" stroke="#000000" points="198.5,-270.389 198.5,-289.389 244.5,-289.389 244.5,-270.389 198.5,-270.389"/>
<text text-anchor="start" x="201.5" y="-276.489" font-family="Helvetica,sans-Serif" font-size="11.00" fill="#000000">&lt; 5</text>
<polygon fill="#ffffff" stroke="transparent" points="244.5,-270.389 244.5,-289.389 307.5,-289.389 307.5,-270.389 244.5,-270.389"/>
<polygon fill="none" stroke="#000000" points="244.5,-270.389 244.5,-289.389 307.5,-289.389 307.5,-270.389 244.5,-270.389"/>
<text text-anchor="start" x="259.8807" y="-276.489" font-family="Helvetica,sans-Serif" font-size="11.00" fill="#000000">597 rows</text>
<polygon fill="#ffffff" stroke="transparent" points="307.5,-270.389 307.5,-289.389 341.5,-289.389 341.5,-270.389 307.5,-270.389"/>
<polygon fill="none" stroke="#000000" points="307.5,-270.389 307.5,-289.389 341.5,-289.389 341.5,-270.389 307.5,-270.389"/>
<text text-anchor="start" x="322.9053" y="-276.489" font-family="Helvetica,sans-Serif" font-size="11.00" fill="#000000">8 &gt;</text>
</a>
</g>
</g>
<!-- cabah_AnalysisUnit&#45;&gt;global_UnitMaster -->
<g id="edge2" class="edge">
<title>cabah_AnalysisUnit:w&#45;&gt;global_UnitMaster:e</title>
<path fill="none" stroke="#000000" d="M390.0645,-723.4294C367.3599,-665.187 302.9093,-426.5724 278.7753,-336.2515"/>
<polygon fill="#000000" stroke="#000000" points="393.2252,-729.3355 393.8259,-738.0876 395.1126,-732.8623 397,-736.389 397,-736.389 397,-736.389 395.1126,-732.8623 400.1741,-734.6904 393.2252,-729.3355 393.2252,-729.3355"/>
<ellipse fill="none" stroke="#000000" cx="391.7153" cy="-726.5141" rx="3.2" ry="3.2"/>
</g>
<!-- global_UnitMaster&#45;&gt;cabah_depositID -->
<g id="edge6" class="edge">
<title>global_UnitMaster:w&#45;&gt;cabah_depositID:e</title>
<path fill="none" stroke="#000000" d="M235.1308,-347.6345C197.4751,-398.3021 137.945,-478.4027 104.1553,-523.8685"/>
<polygon fill="#000000" stroke="#000000" points="238.9689,-342.4701 246.6303,-338.1966 241.3549,-339.2596 243.7409,-336.0492 243.7409,-336.0492 243.7409,-336.0492 241.3549,-339.2596 240.8515,-333.9018 238.9689,-342.4701 238.9689,-342.4701"/>
<ellipse fill="none" stroke="#000000" cx="237.0601" cy="-345.0385" rx="3.2" ry="3.2"/>
</g>
<!-- cabah_col_mtdID -->
<g id="node6" class="node">
<title>cabah_col_mtdID</title>
<g id="a_node6"><a xlink:href="../../tables/cabah_col_mtdID.html" xlink:title="cabah_col_mtdID" target="_top">
<polygon fill="#ffffff" stroke="transparent" points="9.5,-273.889 9.5,-334.889 147.5,-334.889 147.5,-273.889 9.5,-273.889"/>
<polygon fill="#f5f5f5" stroke="transparent" points="9.5,-311.389 9.5,-334.389 147.5,-334.389 147.5,-311.389 9.5,-311.389"/>
<polygon fill="none" stroke="#000000" points="9.5,-311.389 9.5,-334.389 147.5,-334.389 147.5,-311.389 9.5,-311.389"/>
<text text-anchor="start" x="14.5" y="-319.989" font-family="Helvetica,sans-Serif" font-weight="bold" font-size="11.00" fill="#000000">cabah_col_mtdID</text>
<text text-anchor="start" x="113.0219" y="-319.489" font-family="Helvetica,sans-Serif" font-size="11.00" fill="#000000">[table]</text>
<polygon fill="none" stroke="#000000" points="9.5,-292.389 9.5,-311.389 147.5,-311.389 147.5,-292.389 9.5,-292.389"/>
<text text-anchor="start" x="12.5" y="-298.489" font-family="Helvetica,sans-Serif" font-size="11.00" fill="#000000">...</text>
<polygon fill="#ffffff" stroke="transparent" points="9.5,-273.389 9.5,-292.389 56.5,-292.389 56.5,-273.389 9.5,-273.389"/>
<polygon fill="none" stroke="#000000" points="9.5,-273.389 9.5,-292.389 56.5,-292.389 56.5,-273.389 9.5,-273.389"/>
<text text-anchor="start" x="12.5" y="-279.489" font-family="Helvetica,sans-Serif" font-size="11.00" fill="#000000">&lt; 1</text>
<polygon fill="#ffffff" stroke="transparent" points="56.5,-273.389 56.5,-292.389 113.5,-292.389 113.5,-273.389 56.5,-273.389"/>
<polygon fill="none" stroke="#000000" points="56.5,-273.389 56.5,-292.389 113.5,-292.389 113.5,-273.389 56.5,-273.389"/>
<text text-anchor="start" x="71.9956" y="-279.489" font-family="Helvetica,sans-Serif" font-size="11.00" fill="#000000">44 rows</text>
<polygon fill="#ffffff" stroke="transparent" points="113.5,-273.389 113.5,-292.389 147.5,-292.389 147.5,-273.389 113.5,-273.389"/>
<polygon fill="none" stroke="#000000" points="113.5,-273.389 113.5,-292.389 147.5,-292.389 147.5,-273.389 113.5,-273.389"/>
<text text-anchor="start" x="128.9053" y="-279.489" font-family="Helvetica,sans-Serif" font-size="11.00" fill="#000000">7 &gt;</text>
</a>
</g>
</g>
<!-- global_UnitMaster&#45;&gt;cabah_col_mtdID -->
<g id="edge5" class="edge">
<title>global_UnitMaster:w&#45;&gt;cabah_col_mtdID:e</title>
<path fill="none" stroke="#000000" d="M175.1401,-301.389C165.8013,-301.389 156.4653,-301.389 147.5,-301.389"/>
<polygon fill="#000000" stroke="#000000" points="181.7651,-301.389 189.7651,-304.989 185.7651,-301.389 189.7651,-301.389 189.7651,-301.389 189.7651,-301.389 185.7651,-301.389 189.765,-297.789 181.7651,-301.389 181.7651,-301.389"/>
<ellipse fill="none" stroke="#000000" cx="178.5651" cy="-301.3891" rx="3.2" ry="3.2"/>
</g>
<!-- global_SiteMaster -->
<g id="node7" class="node">
<title>global_SiteMaster</title>
<g id="a_node7"><a xlink:href="../../tables/global_SiteMaster.html" xlink:title="global_SiteMaster" target="_top">
<polygon fill="#ffffff" stroke="transparent" points="8,-68.889 8,-129.889 149,-129.889 149,-68.889 8,-68.889"/>
<polygon fill="#f5f5f5" stroke="transparent" points="8.5,-106.389 8.5,-129.389 149.5,-129.389 149.5,-106.389 8.5,-106.389"/>
<polygon fill="none" stroke="#000000" points="8.5,-106.389 8.5,-129.389 149.5,-129.389 149.5,-106.389 8.5,-106.389"/>
<text text-anchor="start" x="13.5" y="-114.989" font-family="Helvetica,sans-Serif" font-weight="bold" font-size="11.00" fill="#000000">global_SiteMaster</text>
<text text-anchor="start" x="115.0219" y="-114.489" font-family="Helvetica,sans-Serif" font-size="11.00" fill="#000000">[table]</text>
<polygon fill="none" stroke="#000000" points="8.5,-87.389 8.5,-106.389 149.5,-106.389 149.5,-87.389 8.5,-87.389"/>
<text text-anchor="start" x="11.5" y="-93.489" font-family="Helvetica,sans-Serif" font-size="11.00" fill="#000000">...</text>
<polygon fill="#ffffff" stroke="transparent" points="8.5,-68.389 8.5,-87.389 43.5,-87.389 43.5,-68.389 8.5,-68.389"/>
<polygon fill="none" stroke="#000000" points="8.5,-68.389 8.5,-87.389 43.5,-87.389 43.5,-68.389 8.5,-68.389"/>
<text text-anchor="start" x="11.5" y="-74.489" font-family="Helvetica,sans-Serif" font-size="11.00" fill="#000000">&lt; 8</text>
<polygon fill="#ffffff" stroke="transparent" points="43.5,-68.389 43.5,-87.389 115.5,-87.389 115.5,-68.389 43.5,-68.389"/>
<polygon fill="none" stroke="#000000" points="43.5,-68.389 43.5,-87.389 115.5,-87.389 115.5,-68.389 43.5,-68.389"/>
<text text-anchor="start" x="52.594" y="-74.489" font-family="Helvetica,sans-Serif" font-size="11.00" fill="#000000">23.782 rows</text>
<polygon fill="#ffffff" stroke="transparent" points="115.5,-68.389 115.5,-87.389 149.5,-87.389 149.5,-68.389 115.5,-68.389"/>
<polygon fill="none" stroke="#000000" points="115.5,-68.389 115.5,-87.389 149.5,-87.389 149.5,-68.389 115.5,-68.389"/>
<text text-anchor="start" x="124.7904" y="-74.489" font-family="Helvetica,sans-Serif" font-size="11.00" fill="#000000">23 &gt;</text>
</a>
</g>
</g>
<!-- global_UnitMaster&#45;&gt;global_SiteMaster -->
<g id="edge7" class="edge">
<title>global_UnitMaster:w&#45;&gt;global_SiteMaster:e</title>
<path fill="none" stroke="#000000" d="M262.6585,-252.3943C251.1113,-191.752 221.5056,-96.389 149.5,-96.389"/>
<polygon fill="#000000" stroke="#000000" points="263.7739,-258.7345 261.6145,-267.2373 264.467,-262.674 265.1601,-266.6135 265.1601,-266.6135 265.1601,-266.6135 264.467,-262.674 268.7056,-265.9897 263.7739,-258.7345 263.7739,-258.7345"/>
<ellipse fill="none" stroke="#000000" cx="263.2194" cy="-255.5829" rx="3.2" ry="3.2"/>
</g>
<!-- global_RefCore -->
<g id="node8" class="node">
<title>global_RefCore</title>
<g id="a_node8"><a xlink:href="../../tables/global_RefCore.html" xlink:title="global_RefCore" target="_top">
<polygon fill="#ffffff" stroke="transparent" points="15,-191.889 15,-252.889 142,-252.889 142,-191.889 15,-191.889"/>
<polygon fill="#f5f5f5" stroke="transparent" points="15.5,-229.389 15.5,-252.389 142.5,-252.389 142.5,-229.389 15.5,-229.389"/>
<polygon fill="none" stroke="#000000" points="15.5,-229.389 15.5,-252.389 142.5,-252.389 142.5,-229.389 15.5,-229.389"/>
<text text-anchor="start" x="20.5" y="-237.989" font-family="Helvetica,sans-Serif" font-weight="bold" font-size="11.00" fill="#000000">global_RefCore</text>
<text text-anchor="start" x="108.0219" y="-237.489" font-family="Helvetica,sans-Serif" font-size="11.00" fill="#000000">[table]</text>
<polygon fill="none" stroke="#000000" points="15.5,-210.389 15.5,-229.389 142.5,-229.389 142.5,-210.389 15.5,-210.389"/>
<text text-anchor="start" x="18.5" y="-216.489" font-family="Helvetica,sans-Serif" font-size="11.00" fill="#000000">...</text>
<polygon fill="#ffffff" stroke="transparent" points="15.5,-191.389 15.5,-210.389 46.5,-210.389 46.5,-191.389 15.5,-191.389"/>
<polygon fill="none" stroke="#000000" points="15.5,-191.389 15.5,-210.389 46.5,-210.389 46.5,-191.389 15.5,-191.389"/>
<text text-anchor="start" x="18.5" y="-197.489" font-family="Helvetica,sans-Serif" font-size="11.00" fill="#000000">&lt; 5</text>
<polygon fill="#ffffff" stroke="transparent" points="46.5,-191.389 46.5,-210.389 110.5,-210.389 110.5,-191.389 46.5,-191.389"/>
<polygon fill="none" stroke="#000000" points="46.5,-191.389 46.5,-210.389 110.5,-210.389 110.5,-191.389 46.5,-191.389"/>
<text text-anchor="start" x="53.7089" y="-197.489" font-family="Helvetica,sans-Serif" font-size="11.00" fill="#000000">3.943 rows</text>
<polygon fill="#ffffff" stroke="transparent" points="110.5,-191.389 110.5,-210.389 142.5,-210.389 142.5,-191.389 110.5,-191.389"/>
<polygon fill="none" stroke="#000000" points="110.5,-191.389 110.5,-210.389 142.5,-210.389 142.5,-191.389 110.5,-191.389"/>
<text text-anchor="start" x="117.7904" y="-197.489" font-family="Helvetica,sans-Serif" font-size="11.00" fill="#000000">37 &gt;</text>
</a>
</g>
</g>
<!-- global_UnitMaster&#45;&gt;global_RefCore -->
<g id="edge8" class="edge">
<title>global_UnitMaster:w&#45;&gt;global_RefCore:e</title>
<path fill="none" stroke="#000000" d="M227.3177,-257.0525C204.3899,-237.7229 174.2695,-219.389 142.5,-219.389"/>
<polygon fill="#000000" stroke="#000000" points="232.3276,-261.5241 235.8987,-269.537 235.3118,-264.1877 238.296,-266.8513 238.296,-266.8513 238.296,-266.8513 235.3118,-264.1877 240.6932,-264.1655 232.3276,-261.5241 232.3276,-261.5241"/>
<ellipse fill="none" stroke="#000000" cx="229.9402" cy="-259.3932" rx="3.2" ry="3.2"/>
</g>
<!-- cabah_unittypeID -->
<g id="node9" class="node">
<title>cabah_unittypeID</title>
<g id="a_node9"><a xlink:href="../../tables/cabah_unittypeID.html" xlink:title="cabah_unittypeID" target="_top">
<polygon fill="#ffffff" stroke="transparent" points="9,-355.889 9,-416.889 148,-416.889 148,-355.889 9,-355.889"/>
<polygon fill="#f5f5f5" stroke="transparent" points="9.5,-393.389 9.5,-416.389 148.5,-416.389 148.5,-393.389 9.5,-393.389"/>
<polygon fill="none" stroke="#000000" points="9.5,-393.389 9.5,-416.389 148.5,-416.389 148.5,-393.389 9.5,-393.389"/>
<text text-anchor="start" x="14.5" y="-401.989" font-family="Helvetica,sans-Serif" font-weight="bold" font-size="11.00" fill="#000000">cabah_unittypeID</text>
<text text-anchor="start" x="114.0219" y="-401.489" font-family="Helvetica,sans-Serif" font-size="11.00" fill="#000000">[table]</text>
<polygon fill="none" stroke="#000000" points="9.5,-374.389 9.5,-393.389 148.5,-393.389 148.5,-374.389 9.5,-374.389"/>
<text text-anchor="start" x="12.5" y="-380.489" font-family="Helvetica,sans-Serif" font-size="11.00" fill="#000000">...</text>
<polygon fill="#ffffff" stroke="transparent" points="9.5,-355.389 9.5,-374.389 52.5,-374.389 52.5,-355.389 9.5,-355.389"/>
<polygon fill="none" stroke="#000000" points="9.5,-355.389 9.5,-374.389 52.5,-374.389 52.5,-355.389 9.5,-355.389"/>
<text text-anchor="start" x="12.5" y="-361.489" font-family="Helvetica,sans-Serif" font-size="11.00" fill="#000000"> &#160;</text>
<polygon fill="#ffffff" stroke="transparent" points="52.5,-355.389 52.5,-374.389 111.5,-374.389 111.5,-355.389 52.5,-355.389"/>
<polygon fill="none" stroke="#000000" points="52.5,-355.389 52.5,-374.389 111.5,-374.389 111.5,-355.389 52.5,-355.389"/>
<text text-anchor="start" x="69.9956" y="-361.489" font-family="Helvetica,sans-Serif" font-size="11.00" fill="#000000">16 rows</text>
<polygon fill="#ffffff" stroke="transparent" points="111.5,-355.389 111.5,-374.389 148.5,-374.389 148.5,-355.389 111.5,-355.389"/>
<polygon fill="none" stroke="#000000" points="111.5,-355.389 111.5,-374.389 148.5,-374.389 148.5,-355.389 111.5,-355.389"/>
<text text-anchor="start" x="129.9053" y="-361.489" font-family="Helvetica,sans-Serif" font-size="11.00" fill="#000000">1 &gt;</text>
</a>
</g>
</g>
<!-- global_UnitMaster&#45;&gt;cabah_unittypeID -->
<g id="edge9" class="edge">
<title>global_UnitMaster:w&#45;&gt;cabah_unittypeID:e</title>
<path fill="none" stroke="#000000" d="M229.1564,-346.1941C207.4751,-365.3503 178.9694,-383.389 148.5,-383.389"/>
<polygon fill="#000000" stroke="#000000" points="234.0122,-341.6382 242.3096,-338.7898 236.9293,-338.9013 239.8464,-336.1644 239.8464,-336.1644 239.8464,-336.1644 236.9293,-338.9013 237.3832,-333.539 234.0122,-341.6382 234.0122,-341.6382"/>
<ellipse fill="none" stroke="#000000" cx="231.6786" cy="-343.8277" rx="3.2" ry="3.2"/>
</g>
<!-- char_Sample -->
<g id="node4" class="node">
<title>char_Sample</title>
<g id="a_node4"><a xlink:href="../../tables/char_Sample.html" xlink:title="char_Sample" target="_top">
<polygon fill="#ffffff" stroke="transparent" points="453.5,-314.889 453.5,-375.889 566.5,-375.889 566.5,-314.889 453.5,-314.889"/>
<polygon fill="#f5f5f5" stroke="transparent" points="454,-352.389 454,-375.389 567,-375.389 567,-352.389 454,-352.389"/>
<polygon fill="none" stroke="#000000" points="454,-352.389 454,-375.389 567,-375.389 567,-352.389 454,-352.389"/>
<text text-anchor="start" x="459" y="-360.989" font-family="Helvetica,sans-Serif" font-weight="bold" font-size="11.00" fill="#000000">char_Sample</text>
<text text-anchor="start" x="532.5219" y="-360.489" font-family="Helvetica,sans-Serif" font-size="11.00" fill="#000000">[table]</text>
<polygon fill="none" stroke="#000000" points="454,-333.389 454,-352.389 567,-352.389 567,-333.389 454,-333.389"/>
<text text-anchor="start" x="457" y="-339.489" font-family="Helvetica,sans-Serif" font-size="11.00" fill="#000000">...</text>
<polygon fill="#ffffff" stroke="transparent" points="454,-314.389 454,-333.389 478,-333.389 478,-314.389 454,-314.389"/>
<polygon fill="none" stroke="#000000" points="454,-314.389 454,-333.389 478,-333.389 478,-314.389 454,-314.389"/>
<text text-anchor="start" x="457" y="-320.489" font-family="Helvetica,sans-Serif" font-size="11.00" fill="#000000">&lt; 1</text>
<polygon fill="#ffffff" stroke="transparent" points="478,-314.389 478,-333.389 544,-333.389 544,-314.389 478,-314.389"/>
<polygon fill="none" stroke="#000000" points="478,-314.389 478,-333.389 544,-333.389 544,-314.389 478,-314.389"/>
<text text-anchor="start" x="481.094" y="-320.489" font-family="Helvetica,sans-Serif" font-size="11.00" fill="#000000">41.793 rows</text>
<polygon fill="#ffffff" stroke="transparent" points="544,-314.389 544,-333.389 567,-333.389 567,-314.389 544,-314.389"/>
<polygon fill="none" stroke="#000000" points="544,-314.389 544,-333.389 567,-333.389 567,-314.389 544,-314.389"/>
<text text-anchor="start" x="548.4053" y="-320.489" font-family="Helvetica,sans-Serif" font-size="11.00" fill="#000000">2 &gt;</text>
</a>
</g>
</g>
<!-- char_Sample&#45;&gt;global_UnitMaster -->
<g id="edge3" class="edge">
<title>char_Sample:w&#45;&gt;global_UnitMaster:e</title>
<path fill="none" stroke="#000000" d="M439.5283,-342.0062C408.8224,-340.4264 376.8468,-334.1601 349.021,-327.0055"/>
<polygon fill="#000000" stroke="#000000" points="446.0028,-342.1774 453.9048,-345.9877 450.0014,-342.2832 454,-342.389 454,-342.389 454,-342.389 450.0014,-342.2832 454.0952,-338.7903 446.0028,-342.1774 446.0028,-342.1774"/>
<ellipse fill="none" stroke="#000000" cx="442.8039" cy="-342.0927" rx="3.2" ry="3.2"/>
</g>
<!-- global_DataSetMaster -->
<g id="node5" class="node">
<title>global_DataSetMaster</title>
<g id="a_node5"><a xlink:href="../../tables/global_DataSetMaster.html" xlink:title="global_DataSetMaster" target="_top">
<polygon fill="#ffffff" stroke="transparent" points="428,-396.889 428,-457.889 592,-457.889 592,-396.889 428,-396.889"/>
<polygon fill="#f5f5f5" stroke="transparent" points="428,-434.389 428,-457.389 592,-457.389 592,-434.389 428,-434.389"/>
<polygon fill="none" stroke="#000000" points="428,-434.389 428,-457.389 592,-457.389 592,-434.389 428,-434.389"/>
<text text-anchor="start" x="433" y="-442.989" font-family="Helvetica,sans-Serif" font-weight="bold" font-size="11.00" fill="#000000">global_DataSetMaster</text>
<text text-anchor="start" x="557.5219" y="-442.489" font-family="Helvetica,sans-Serif" font-size="11.00" fill="#000000">[table]</text>
<polygon fill="none" stroke="#000000" points="428,-415.389 428,-434.389 592,-434.389 592,-415.389 428,-415.389"/>
<text text-anchor="start" x="431" y="-421.489" font-family="Helvetica,sans-Serif" font-size="11.00" fill="#000000">...</text>
<polygon fill="#ffffff" stroke="transparent" points="428,-396.389 428,-415.389 485,-415.389 485,-396.389 428,-396.389"/>
<polygon fill="none" stroke="#000000" points="428,-396.389 428,-415.389 485,-415.389 485,-396.389 428,-396.389"/>
<text text-anchor="start" x="431" y="-402.489" font-family="Helvetica,sans-Serif" font-size="11.00" fill="#000000">&lt; 3</text>
<polygon fill="#ffffff" stroke="transparent" points="485,-396.389 485,-415.389 553,-415.389 553,-396.389 485,-396.389"/>
<polygon fill="none" stroke="#000000" points="485,-396.389 485,-415.389 553,-415.389 553,-396.389 485,-396.389"/>
<text text-anchor="start" x="505.3807" y="-402.489" font-family="Helvetica,sans-Serif" font-size="11.00" fill="#000000">148 rows</text>
<polygon fill="#ffffff" stroke="transparent" points="553,-396.389 553,-415.389 592,-415.389 592,-396.389 553,-396.389"/>
<polygon fill="none" stroke="#000000" points="553,-396.389 553,-415.389 592,-415.389 592,-396.389 553,-396.389"/>
<text text-anchor="start" x="573.4053" y="-402.489" font-family="Helvetica,sans-Serif" font-size="11.00" fill="#000000">1 &gt;</text>
</a>
</g>
</g>
<!-- global_DataSetMaster&#45;&gt;global_UnitMaster -->
<g id="edge4" class="edge">
<title>global_DataSetMaster:w&#45;&gt;global_UnitMaster:e</title>
<path fill="none" stroke="#000000" d="M413.5739,-423.3281C361.8296,-415.76 318.0853,-369.3036 292.8077,-335.9787"/>
<polygon fill="#000000" stroke="#000000" points="420.0215,-423.8022 427.736,-427.9793 424.0108,-424.0956 428,-424.389 428,-424.389 428,-424.389 424.0108,-424.0956 428.264,-420.7987 420.0215,-423.8022 420.0215,-423.8022"/>
<ellipse fill="none" stroke="#000000" cx="416.8302" cy="-423.5675" rx="3.2" ry="3.2"/>
</g>
<!-- neo_chronologies -->
<g id="node10" class="node">
<title>neo_chronologies</title>
<g id="a_node10"><a xlink:href="../../tables/neo_chronologies.html" xlink:title="neo_chronologies" target="_top">
<polygon fill="#ffffff" stroke="transparent" points="439,-232.889 439,-293.889 581,-293.889 581,-232.889 439,-232.889"/>
<polygon fill="#f5f5f5" stroke="transparent" points="439,-270.389 439,-293.389 581,-293.389 581,-270.389 439,-270.389"/>
<polygon fill="none" stroke="#000000" points="439,-270.389 439,-293.389 581,-293.389 581,-270.389 439,-270.389"/>
<text text-anchor="start" x="444" y="-278.989" font-family="Helvetica,sans-Serif" font-weight="bold" font-size="11.00" fill="#000000">neo_chronologies</text>
<text text-anchor="start" x="546.5219" y="-278.489" font-family="Helvetica,sans-Serif" font-size="11.00" fill="#000000">[table]</text>
<polygon fill="none" stroke="#000000" points="439,-251.389 439,-270.389 581,-270.389 581,-251.389 439,-251.389"/>
<text text-anchor="start" x="442" y="-257.489" font-family="Helvetica,sans-Serif" font-size="11.00" fill="#000000">...</text>
<polygon fill="#ffffff" stroke="transparent" points="439,-232.389 439,-251.389 482,-251.389 482,-232.389 439,-232.389"/>
<polygon fill="none" stroke="#000000" points="439,-232.389 439,-251.389 482,-251.389 482,-232.389 439,-232.389"/>
<text text-anchor="start" x="442" y="-238.489" font-family="Helvetica,sans-Serif" font-size="11.00" fill="#000000">&lt; 4</text>
<polygon fill="#ffffff" stroke="transparent" points="482,-232.389 482,-251.389 558,-251.389 558,-232.389 482,-232.389"/>
<polygon fill="none" stroke="#000000" points="482,-232.389 482,-251.389 558,-251.389 558,-232.389 482,-232.389"/>
<text text-anchor="start" x="495.094" y="-238.489" font-family="Helvetica,sans-Serif" font-size="11.00" fill="#000000">31.641 rows</text>
<polygon fill="#ffffff" stroke="transparent" points="558,-232.389 558,-251.389 581,-251.389 581,-232.389 558,-232.389"/>
<polygon fill="none" stroke="#000000" points="558,-232.389 558,-251.389 581,-251.389 581,-232.389 558,-232.389"/>
<text text-anchor="start" x="571.8862" y="-238.489" font-family="Helvetica,sans-Serif" font-size="11.00" fill="#000000"> &#160;</text>
</a>
</g>
</g>
<!-- neo_chronologies&#45;&gt;global_UnitMaster -->
<g id="edge10" class="edge">
<title>neo_chronologies:w&#45;&gt;global_UnitMaster:e</title>
<path fill="none" stroke="#000000" stroke-dasharray="5,2" d="M424.5315,-259.796C399.0397,-259.6284 372.7202,-263.8409 349.166,-269.6666"/>
<polygon fill="#000000" stroke="#000000" points="431.0067,-260.0613 438.8526,-263.986 435.0034,-260.2252 439,-260.389 439,-260.389 439,-260.389 435.0034,-260.2252 439.1474,-256.792 431.0067,-260.0613 431.0067,-260.0613"/>
<ellipse fill="none" stroke="#000000" cx="427.8094" cy="-259.9303" rx="3.2" ry="3.2"/>
</g>
<!-- neo_chronologies&#45;&gt;global_UnitMaster -->
<g id="edge11" class="edge">
<title>neo_chronologies:w&#45;&gt;global_UnitMaster:e</title>
<path fill="none" stroke="#000000" d="M424.5315,-262.0512C399.0397,-265.5667 372.7202,-272.1048 349.166,-278.8987"/>
<polygon fill="#000000" stroke="#000000" points="431.0523,-261.3021 439.4109,-263.9655 435.0261,-260.8456 439,-260.389 439,-260.389 439,-260.389 435.0261,-260.8456 438.5891,-256.8125 431.0523,-261.3021 431.0523,-261.3021"/>
<ellipse fill="none" stroke="#000000" cx="427.8732" cy="-261.6674" rx="3.2" ry="3.2"/>
</g>
<!-- sahulchar -->
<g id="node11" class="node">
<title>sahulchar</title>
<g id="a_node11"><a xlink:href="../../tables/sahulchar.html" xlink:title="sahulchar" target="_top">
<polygon fill="#ffffff" stroke="transparent" points="679,-314.889 679,-375.889 777,-375.889 777,-314.889 679,-314.889"/>
<polygon fill="#f5f5f5" stroke="transparent" points="679,-352.389 679,-375.389 777,-375.389 777,-352.389 679,-352.389"/>
<polygon fill="none" stroke="#000000" points="679,-352.389 679,-375.389 777,-375.389 777,-352.389 679,-352.389"/>
<text text-anchor="start" x="684" y="-360.989" font-family="Helvetica,sans-Serif" font-weight="bold" font-size="11.00" fill="#000000">sahulchar</text>
<text text-anchor="start" x="742.0437" y="-360.489" font-family="Helvetica,sans-Serif" font-size="11.00" fill="#000000">[table]</text>
<polygon fill="none" stroke="#000000" points="679,-333.389 679,-352.389 777,-352.389 777,-333.389 679,-333.389"/>
<text text-anchor="start" x="682" y="-339.489" font-family="Helvetica,sans-Serif" font-size="11.00" fill="#000000">...</text>
<polygon fill="#ffffff" stroke="transparent" points="679,-314.389 679,-333.389 700,-333.389 700,-314.389 679,-314.389"/>
<polygon fill="none" stroke="#000000" points="679,-314.389 679,-333.389 700,-333.389 700,-314.389 679,-314.389"/>
<text text-anchor="start" x="681.7026" y="-320.489" font-family="Helvetica,sans-Serif" font-size="11.00" fill="#000000">&lt; 6</text>
<polygon fill="#ffffff" stroke="transparent" points="700,-314.389 700,-333.389 765,-333.389 765,-314.389 700,-314.389"/>
<polygon fill="none" stroke="#000000" points="700,-314.389 700,-333.389 765,-333.389 765,-314.389 700,-314.389"/>
<text text-anchor="start" x="702.547" y="-320.489" font-family="Helvetica,sans-Serif" font-size="11.00" fill="#000000">48.234 rows</text>
<polygon fill="#ffffff" stroke="transparent" points="765,-314.389 765,-333.389 777,-333.389 777,-314.389 765,-314.389"/>
<polygon fill="none" stroke="#000000" points="765,-314.389 765,-333.389 777,-333.389 777,-314.389 765,-314.389"/>
<text text-anchor="start" x="767.9431" y="-320.489" font-family="Helvetica,sans-Serif" font-size="11.00" fill="#000000"> &#160;</text>
</a>
</g>
</g>
<!-- sahulchar&#45;&gt;global_UnitMaster -->
<g id="edge14" class="edge">
<title>sahulchar:w&#45;&gt;global_UnitMaster:e</title>
<path fill="none" stroke="#000000" stroke-dasharray="5,2" d="M664.6585,-345.062C632.2553,-360.3679 680.8111,-437.299 638,-468.389 591.9687,-501.8175 432.222,-495.1115 382,-468.389 329.6901,-440.5556 297.3312,-376.3687 281.4359,-336.1702"/>
<polygon fill="#000000" stroke="#000000" points="671.1354,-343.8548 679.6596,-345.928 675.0677,-343.1219 679,-342.389 679,-342.389 679,-342.389 675.0677,-343.1219 678.3404,-338.8499 671.1354,-343.8548 671.1354,-343.8548"/>
<ellipse fill="none" stroke="#000000" cx="667.9896" cy="-344.4412" rx="3.2" ry="3.2"/>
</g>
<!-- sahulchar&#45;&gt;char_Sample -->
<g id="edge13" class="edge">
<title>sahulchar:w&#45;&gt;char_Sample:e</title>
<path fill="none" stroke="#000000" stroke-dasharray="5,2" d="M664.4083,-342.389C626.1819,-342.389 611.5278,-342.389 567,-342.389"/>
<polygon fill="#000000" stroke="#000000" points="671,-342.389 679,-345.989 675,-342.389 679,-342.389 679,-342.389 679,-342.389 675,-342.389 679,-338.789 671,-342.389 671,-342.389"/>
<ellipse fill="none" stroke="#000000" cx="667.8" cy="-342.3891" rx="3.2" ry="3.2"/>
</g>
<!-- sahulchar&#45;&gt;global_SiteMaster -->
<g id="edge12" class="edge">
<title>sahulchar:w&#45;&gt;global_SiteMaster:e</title>
<path fill="none" stroke="#000000" stroke-dasharray="5,2" d="M665.3845,-337.3026C626.5521,-302.232 682.0603,-96.5452 638,-58.389 555.6908,12.8908 258.3835,-96.389 149.5,-96.389"/>
<polygon fill="#000000" stroke="#000000" points="671.5058,-339.5894 677.7402,-345.7614 675.2529,-340.9892 679,-342.389 679,-342.389 679,-342.389 675.2529,-340.9892 680.2598,-339.0166 671.5058,-339.5894 671.5058,-339.5894"/>
<ellipse fill="none" stroke="#000000" cx="668.5082" cy="-338.4695" rx="3.2" ry="3.2"/>
</g>
<!-- sahulchar_units -->
<g id="node12" class="node">
<title>sahulchar_units</title>
<g id="a_node12"><a xlink:href="../../tables/sahulchar_units.html" xlink:title="sahulchar_units" target="_top">
<polygon fill="#ffffff" stroke="transparent" points="444.5,-68.889 444.5,-129.889 575.5,-129.889 575.5,-68.889 444.5,-68.889"/>
<polygon fill="#f5f5f5" stroke="transparent" points="445,-106.389 445,-129.389 576,-129.389 576,-106.389 445,-106.389"/>
<polygon fill="none" stroke="#000000" points="445,-106.389 445,-129.389 576,-129.389 576,-106.389 445,-106.389"/>
<text text-anchor="start" x="450" y="-114.989" font-family="Helvetica,sans-Serif" font-weight="bold" font-size="11.00" fill="#000000">sahulchar_units</text>
<text text-anchor="start" x="541.5219" y="-114.489" font-family="Helvetica,sans-Serif" font-size="11.00" fill="#000000">[table]</text>
<polygon fill="none" stroke="#000000" points="445,-87.389 445,-106.389 576,-106.389 576,-87.389 445,-87.389"/>
<text text-anchor="start" x="448" y="-93.489" font-family="Helvetica,sans-Serif" font-size="11.00" fill="#000000">...</text>
<polygon fill="#ffffff" stroke="transparent" points="445,-68.389 445,-87.389 490,-87.389 490,-68.389 445,-68.389"/>
<polygon fill="none" stroke="#000000" points="445,-68.389 445,-87.389 490,-87.389 490,-68.389 445,-68.389"/>
<text text-anchor="start" x="448" y="-74.489" font-family="Helvetica,sans-Serif" font-size="11.00" fill="#000000">&lt; 4</text>
<polygon fill="#ffffff" stroke="transparent" points="490,-68.389 490,-87.389 552,-87.389 552,-68.389 490,-68.389"/>
<polygon fill="none" stroke="#000000" points="490,-68.389 490,-87.389 552,-87.389 552,-68.389 490,-68.389"/>
<text text-anchor="start" x="504.3807" y="-74.489" font-family="Helvetica,sans-Serif" font-size="11.00" fill="#000000">535 rows</text>
<polygon fill="#ffffff" stroke="transparent" points="552,-68.389 552,-87.389 576,-87.389 576,-68.389 552,-68.389"/>
<polygon fill="none" stroke="#000000" points="552,-68.389 552,-87.389 576,-87.389 576,-68.389 552,-68.389"/>
<text text-anchor="start" x="566.8862" y="-74.489" font-family="Helvetica,sans-Serif" font-size="11.00" fill="#000000"> &#160;</text>
</a>
</g>
</g>
<!-- sahulchar_units&#45;&gt;global_UnitMaster -->
<g id="edge16" class="edge">
<title>sahulchar_units:w&#45;&gt;global_UnitMaster:e</title>
<path fill="none" stroke="#000000" stroke-dasharray="5,2" d="M430.2908,-97.4344C350.497,-108.8759 301.7512,-211.4389 281.0754,-266.6135"/>
<polygon fill="#000000" stroke="#000000" points="437.0201,-96.9562 445.2552,-99.9799 441.0101,-96.6726 445,-96.389 445,-96.389 445,-96.389 441.0101,-96.6726 444.7448,-92.7981 437.0201,-96.9562 437.0201,-96.9562"/>
<ellipse fill="none" stroke="#000000" cx="433.8282" cy="-97.1831" rx="3.2" ry="3.2"/>
</g>
<!-- sahulchar_units&#45;&gt;global_SiteMaster -->
<g id="edge15" class="edge">
<title>sahulchar_units:w&#45;&gt;global_SiteMaster:e</title>
<path fill="none" stroke="#000000" stroke-dasharray="5,2" d="M430.4119,-96.389C311.0228,-96.389 275.8314,-96.389 149.5,-96.389"/>
<polygon fill="#000000" stroke="#000000" points="437,-96.389 445,-99.989 441,-96.389 445,-96.389 445,-96.389 445,-96.389 441,-96.389 445,-92.789 437,-96.389 437,-96.389"/>
<ellipse fill="none" stroke="#000000" cx="433.8" cy="-96.3891" rx="3.2" ry="3.2"/>
</g>
<!-- sahulchar_units_points_EPSG3857 -->
<g id="node13" class="node">
<title>sahulchar_units_points_EPSG3857</title>
<g id="a_node13"><a xlink:href="../../tables/sahulchar_units_points_EPSG3857.html" xlink:title="sahulchar_units_points_EPSG3857" target="_top">
<polygon fill="#ffffff" stroke="transparent" points="390,-150.889 390,-211.889 630,-211.889 630,-150.889 390,-150.889"/>
<polygon fill="#f5f5f5" stroke="transparent" points="390,-188.389 390,-211.389 630,-211.389 630,-188.389 390,-188.389"/>
<polygon fill="none" stroke="#000000" points="390,-188.389 390,-211.389 630,-211.389 630,-188.389 390,-188.389"/>
<text text-anchor="start" x="395" y="-196.989" font-family="Helvetica,sans-Serif" font-weight="bold" font-size="11.00" fill="#000000">sahulchar_units_points_EPSG3857</text>
<text text-anchor="start" x="595.5219" y="-196.489" font-family="Helvetica,sans-Serif" font-size="11.00" fill="#000000">[table]</text>
<polygon fill="none" stroke="#000000" points="390,-169.389 390,-188.389 630,-188.389 630,-169.389 390,-169.389"/>
<text text-anchor="start" x="393" y="-175.489" font-family="Helvetica,sans-Serif" font-size="11.00" fill="#000000">...</text>
<polygon fill="#ffffff" stroke="transparent" points="390,-150.389 390,-169.389 489,-169.389 489,-150.389 390,-150.389"/>
<polygon fill="none" stroke="#000000" points="390,-150.389 390,-169.389 489,-169.389 489,-150.389 390,-150.389"/>
<text text-anchor="start" x="393" y="-156.489" font-family="Helvetica,sans-Serif" font-size="11.00" fill="#000000">&lt; 1</text>
<polygon fill="#ffffff" stroke="transparent" points="489,-150.389 489,-169.389 578,-169.389 578,-150.389 489,-150.389"/>
<polygon fill="none" stroke="#000000" points="489,-150.389 489,-169.389 578,-169.389 578,-150.389 489,-150.389"/>
<text text-anchor="start" x="530.3807" y="-156.489" font-family="Helvetica,sans-Serif" font-size="11.00" fill="#000000">531 rows</text>
<polygon fill="#ffffff" stroke="transparent" points="578,-150.389 578,-169.389 630,-169.389 630,-150.389 578,-150.389"/>
<polygon fill="none" stroke="#000000" points="578,-150.389 578,-169.389 630,-169.389 630,-150.389 578,-150.389"/>
<text text-anchor="start" x="620.8862" y="-156.489" font-family="Helvetica,sans-Serif" font-size="11.00" fill="#000000"> &#160;</text>
</a>
</g>
</g>
<!-- sahulchar_units_points_EPSG3857&#45;&gt;global_UnitMaster -->
<g id="edge17" class="edge">
<title>sahulchar_units_points_EPSG3857:w&#45;&gt;global_UnitMaster:e</title>
<path fill="none" stroke="#000000" stroke-dasharray="5,2" d="M379.4262,-179.1786C335.1114,-185.8272 302.8454,-233.048 285.1357,-266.7993"/>
<polygon fill="#000000" stroke="#000000" points="388.9043,-174.4597 389.5001,-182.4375 387.9046,-182.5566 387.3088,-174.5788 388.9043,-174.4597"/>
<polyline fill="none" stroke="#000000" points="390,-178.389 386.0111,-178.6869 "/>
<ellipse fill="none" stroke="#000000" cx="382.82" cy="-178.9252" rx="3.2" ry="3.2"/>
</g>
</g>
</svg>
