<?xml version="1.0" encoding="UTF-8" standalone="no"?>
<!DOCTYPE svg PUBLIC "-//W3C//DTD SVG 1.1//EN"
 "http://www.w3.org/Graphics/SVG/1.1/DTD/svg11.dtd">
<!-- Generated by graphviz version 2.40.1 (20161225.0304)
 -->
<!-- Title: twoDegreesRelationshipsDiagram Pages: 1 -->
<svg width="622pt" height="721pt"
 viewBox="0.00 0.00 622.00 721.20" xmlns="http://www.w3.org/2000/svg" xmlns:xlink="http://www.w3.org/1999/xlink">
<g id="graph0" class="graph" transform="scale(1 1) rotate(0) translate(4 717.2)">
<title>twoDegreesRelationshipsDiagram</title>
<polygon fill="#ffffff" stroke="transparent" points="-4,4 -4,-717.2 618,-717.2 618,4 -4,4"/>
<text text-anchor="middle" x="72.4936" y="-7.3" font-family="Helvetica,sans-Serif" font-size="11.00" fill="#000000">Generated by SchemaSpy</text>
<!-- cabah_ecolgroupID -->
<g id="node1" class="node">
<title>cabah_ecolgroupID</title>
<g id="a_node1"><a xlink:href="../../tables/cabah_ecolgroupID.html" xlink:title="cabah_ecolgroupID" target="_top">
<polygon fill="#ffffff" stroke="transparent" points="252,-648.2 252,-709.2 402,-709.2 402,-648.2 252,-648.2"/>
<polygon fill="#f5f5f5" stroke="transparent" points="252,-685.7 252,-708.7 402,-708.7 402,-685.7 252,-685.7"/>
<polygon fill="none" stroke="#000000" points="252,-685.7 252,-708.7 402,-708.7 402,-685.7 252,-685.7"/>
<text text-anchor="start" x="257" y="-694.3" font-family="Helvetica,sans-Serif" font-weight="bold" font-size="11.00" fill="#000000">cabah_ecolgroupID</text>
<text text-anchor="start" x="367.5219" y="-693.8" font-family="Helvetica,sans-Serif" font-size="11.00" fill="#000000">[table]</text>
<polygon fill="none" stroke="#000000" points="252,-666.7 252,-685.7 402,-685.7 402,-666.7 252,-666.7"/>
<text text-anchor="start" x="255" y="-672.8" font-family="Helvetica,sans-Serif" font-size="11.00" fill="#000000">...</text>
<polygon fill="#ffffff" stroke="transparent" points="252,-647.7 252,-666.7 306,-666.7 306,-647.7 252,-647.7"/>
<polygon fill="none" stroke="#000000" points="252,-647.7 252,-666.7 306,-666.7 306,-647.7 252,-647.7"/>
<text text-anchor="start" x="255" y="-653.8" font-family="Helvetica,sans-Serif" font-size="11.00" fill="#000000">&lt; 1</text>
<polygon fill="#ffffff" stroke="transparent" points="306,-647.7 306,-666.7 373,-666.7 373,-647.7 306,-647.7"/>
<polygon fill="none" stroke="#000000" points="306,-647.7 306,-666.7 373,-666.7 373,-647.7 306,-647.7"/>
<text text-anchor="start" x="325.3807" y="-653.8" font-family="Helvetica,sans-Serif" font-size="11.00" fill="#000000">194 rows</text>
<polygon fill="#ffffff" stroke="transparent" points="373,-647.7 373,-666.7 402,-666.7 402,-647.7 373,-647.7"/>
<polygon fill="none" stroke="#000000" points="373,-647.7 373,-666.7 402,-666.7 402,-647.7 373,-647.7"/>
<text text-anchor="start" x="392.8862" y="-653.8" font-family="Helvetica,sans-Serif" font-size="11.00" fill="#000000"> &#160;</text>
</a>
</g>
</g>
<!-- cabah_datasourceID -->
<g id="node2" class="node">
<title>cabah_datasourceID</title>
<g id="a_node2"><a xlink:href="../../tables/cabah_datasourceID.html" xlink:title="cabah_datasourceID" target="_top">
<polygon fill="#ffffff" stroke="transparent" points="8,-265.2 8,-370.2 164,-370.2 164,-265.2 8,-265.2"/>
<polygon fill="#f5f5f5" stroke="transparent" points="8,-346.7 8,-369.7 164,-369.7 164,-346.7 8,-346.7"/>
<polygon fill="none" stroke="#000000" points="8,-346.7 8,-369.7 164,-369.7 164,-346.7 8,-346.7"/>
<text text-anchor="start" x="13" y="-355.3" font-family="Helvetica,sans-Serif" font-weight="bold" font-size="11.00" fill="#000000">cabah_datasourceID</text>
<text text-anchor="start" x="129.5219" y="-354.8" font-family="Helvetica,sans-Serif" font-size="11.00" fill="#000000">[table]</text>
<polygon fill="none" stroke="#000000" points="8,-324.7 8,-346.7 164,-346.7 164,-324.7 8,-324.7"/>
<image xlink:href="../../images/primaryKeys.png" width="11px" height="12px" preserveAspectRatio="xMinYMin meet" x="13" y="-341.7"/>
<text text-anchor="start" x="37" y="-331.8" font-family="Helvetica,sans-Serif" font-size="11.00" fill="#000000">DATASRCID</text>
<polygon fill="#ffffff" stroke="transparent" points="8,-302.7 8,-324.7 164,-324.7 164,-302.7 8,-302.7"/>
<polygon fill="none" stroke="#000000" points="8,-302.7 8,-324.7 164,-324.7 164,-302.7 8,-302.7"/>
<text text-anchor="start" x="37" y="-309.8" font-family="Helvetica,sans-Serif" font-size="11.00" fill="#000000">DATASOURCE</text>
<polygon fill="none" stroke="#000000" points="8,-283.7 8,-302.7 164,-302.7 164,-283.7 8,-283.7"/>
<text text-anchor="start" x="11" y="-289.8" font-family="Helvetica,sans-Serif" font-size="11.00" fill="#000000">...</text>
<polygon fill="#ffffff" stroke="transparent" points="8,-264.7 8,-283.7 59,-283.7 59,-264.7 8,-264.7"/>
<polygon fill="none" stroke="#000000" points="8,-264.7 8,-283.7 59,-283.7 59,-264.7 8,-264.7"/>
<text text-anchor="start" x="11" y="-270.8" font-family="Helvetica,sans-Serif" font-size="11.00" fill="#000000"> &#160;</text>
<polygon fill="#ffffff" stroke="transparent" points="59,-264.7 59,-283.7 123,-283.7 123,-264.7 59,-264.7"/>
<polygon fill="none" stroke="#000000" points="59,-264.7 59,-283.7 123,-283.7 123,-264.7 59,-264.7"/>
<text text-anchor="start" x="81.4956" y="-270.8" font-family="Helvetica,sans-Serif" font-size="11.00" fill="#000000">11 rows</text>
<polygon fill="#ffffff" stroke="transparent" points="123,-264.7 123,-283.7 164,-283.7 164,-264.7 123,-264.7"/>
<polygon fill="none" stroke="#000000" points="123,-264.7 123,-283.7 164,-283.7 164,-264.7 123,-264.7"/>
<text text-anchor="start" x="145.4053" y="-270.8" font-family="Helvetica,sans-Serif" font-size="11.00" fill="#000000">6 &gt;</text>
</a>
</g>
</g>
<!-- cabah_ecolgroupID&#45;&gt;cabah_datasourceID -->
<g id="edge1" class="edge">
<title>cabah_ecolgroupID:w&#45;&gt;cabah_datasourceID:e</title>
<path fill="none" stroke="#000000" d="M237.4131,-673.8062C221.9262,-669.1509 215.4012,-656.1685 205,-637.7 171.7654,-578.6884 231.7268,-335.7 164,-335.7"/>
<polygon fill="#000000" stroke="#000000" points="244.0666,-674.6699 251.5365,-679.27 248.0333,-675.185 252,-675.7 252,-675.7 252,-675.7 248.0333,-675.185 252.4635,-672.13 244.0666,-674.6699 244.0666,-674.6699"/>
<ellipse fill="none" stroke="#000000" cx="240.8932" cy="-674.2579" rx="3.2" ry="3.2"/>
</g>
<!-- cabah_elementtypeID -->
<g id="node3" class="node">
<title>cabah_elementtypeID</title>
<g id="a_node3"><a xlink:href="../../tables/cabah_elementtypeID.html" xlink:title="cabah_elementtypeID" target="_top">
<polygon fill="#ffffff" stroke="transparent" points="246,-566.2 246,-627.2 408,-627.2 408,-566.2 246,-566.2"/>
<polygon fill="#f5f5f5" stroke="transparent" points="246,-603.7 246,-626.7 408,-626.7 408,-603.7 246,-603.7"/>
<polygon fill="none" stroke="#000000" points="246,-603.7 246,-626.7 408,-626.7 408,-603.7 246,-603.7"/>
<text text-anchor="start" x="251" y="-612.3" font-family="Helvetica,sans-Serif" font-weight="bold" font-size="11.00" fill="#000000">cabah_elementtypeID</text>
<text text-anchor="start" x="373.5219" y="-611.8" font-family="Helvetica,sans-Serif" font-size="11.00" fill="#000000">[table]</text>
<polygon fill="none" stroke="#000000" points="246,-584.7 246,-603.7 408,-603.7 408,-584.7 246,-584.7"/>
<text text-anchor="start" x="249" y="-590.8" font-family="Helvetica,sans-Serif" font-size="11.00" fill="#000000">...</text>
<polygon fill="#ffffff" stroke="transparent" points="246,-565.7 246,-584.7 306,-584.7 306,-565.7 246,-565.7"/>
<polygon fill="none" stroke="#000000" points="246,-565.7 246,-584.7 306,-584.7 306,-565.7 246,-565.7"/>
<text text-anchor="start" x="249" y="-571.8" font-family="Helvetica,sans-Serif" font-size="11.00" fill="#000000">&lt; 1</text>
<polygon fill="#ffffff" stroke="transparent" points="306,-565.7 306,-584.7 376,-584.7 376,-565.7 306,-565.7"/>
<polygon fill="none" stroke="#000000" points="306,-565.7 306,-584.7 376,-584.7 376,-565.7 306,-565.7"/>
<text text-anchor="start" x="328.3807" y="-571.8" font-family="Helvetica,sans-Serif" font-size="11.00" fill="#000000">927 rows</text>
<polygon fill="#ffffff" stroke="transparent" points="376,-565.7 376,-584.7 408,-584.7 408,-565.7 376,-565.7"/>
<polygon fill="none" stroke="#000000" points="376,-565.7 376,-584.7 408,-584.7 408,-565.7 376,-565.7"/>
<text text-anchor="start" x="398.8862" y="-571.8" font-family="Helvetica,sans-Serif" font-size="11.00" fill="#000000"> &#160;</text>
</a>
</g>
</g>
<!-- cabah_elementtypeID&#45;&gt;cabah_datasourceID -->
<g id="edge2" class="edge">
<title>cabah_elementtypeID:w&#45;&gt;cabah_datasourceID:e</title>
<path fill="none" stroke="#000000" d="M231.5723,-591.1615C218.7742,-585.7837 214.1831,-572.3587 205,-555.7 180.9921,-512.1482 213.7306,-335.7 164,-335.7"/>
<polygon fill="#000000" stroke="#000000" points="238.121,-592.3137 245.3762,-597.2455 242.0605,-593.0068 246,-593.7 246,-593.7 246,-593.7 242.0605,-593.0068 246.6238,-590.1545 238.121,-592.3137 238.121,-592.3137"/>
<ellipse fill="none" stroke="#000000" cx="234.9694" cy="-591.7592" rx="3.2" ry="3.2"/>
</g>
<!-- cabah_taxagroupID -->
<g id="node4" class="node">
<title>cabah_taxagroupID</title>
<g id="a_node4"><a xlink:href="../../tables/cabah_taxagroupID.html" xlink:title="cabah_taxagroupID" target="_top">
<polygon fill="#ffffff" stroke="transparent" points="213,-366.7 213,-544.7 441,-544.7 441,-366.7 213,-366.7"/>
<polygon fill="#f5f5f5" stroke="transparent" points="215,-519.7 215,-542.7 439,-542.7 439,-519.7 215,-519.7"/>
<polygon fill="none" stroke="#000000" points="215,-519.7 215,-542.7 439,-542.7 439,-519.7 215,-519.7"/>
<text text-anchor="start" x="220" y="-528.3" font-family="Helvetica,sans-Serif" font-weight="bold" font-size="11.00" fill="#000000">cabah_taxagroupID</text>
<text text-anchor="start" x="404.0437" y="-527.8" font-family="Helvetica,sans-Serif" font-size="11.00" fill="#000000">[table]</text>
<polygon fill="none" stroke="#000000" points="215,-497.7 215,-519.7 347,-519.7 347,-497.7 215,-497.7"/>
<image xlink:href="../../images/primaryKeys.png" width="11px" height="12px" preserveAspectRatio="xMinYMin meet" x="220" y="-514.7"/>
<text text-anchor="start" x="235" y="-504.8" font-family="Helvetica,sans-Serif" font-size="11.00" fill="#000000">TAXAGRPID</text>
<polygon fill="none" stroke="#000000" points="347,-497.7 347,-519.7 439,-519.7 439,-497.7 347,-497.7"/>
<text text-anchor="start" x="350" y="-505.4" font-family="Helvetica,sans-Serif" font-size="11.00" fill="#000000">serial[10]</text>
<polygon fill="none" stroke="#000000" points="215,-475.7 215,-497.7 347,-497.7 347,-475.7 215,-475.7"/>
<text text-anchor="start" x="235" y="-482.8" font-family="Helvetica,sans-Serif" font-size="11.00" fill="#000000">TAXAGROUP</text>
<polygon fill="none" stroke="#000000" points="347,-475.7 347,-497.7 439,-497.7 439,-475.7 347,-475.7"/>
<text text-anchor="start" x="350" y="-483.4" font-family="Helvetica,sans-Serif" font-size="11.00" fill="#000000">text[2147483647]</text>
<polygon fill="#ffffff" stroke="transparent" points="215,-453.7 215,-475.7 347,-475.7 347,-453.7 215,-453.7"/>
<polygon fill="none" stroke="#000000" points="215,-453.7 215,-475.7 347,-475.7 347,-453.7 215,-453.7"/>
<text text-anchor="start" x="235" y="-460.8" font-family="Helvetica,sans-Serif" font-size="11.00" fill="#000000">TXAGRPHDLE</text>
<polygon fill="none" stroke="#000000" points="347,-453.7 347,-475.7 439,-475.7 439,-453.7 347,-453.7"/>
<text text-anchor="start" x="350" y="-461.4" font-family="Helvetica,sans-Serif" font-size="11.00" fill="#000000">varchar[3]</text>
<polygon fill="none" stroke="#000000" points="215,-431.7 215,-453.7 347,-453.7 347,-431.7 215,-431.7"/>
<image xlink:href="../../images/foreignKeys.png" width="11px" height="12px" preserveAspectRatio="xMinYMin meet" x="220" y="-448.7"/>
<text text-anchor="start" x="235" y="-438.8" font-family="Helvetica,sans-Serif" font-size="11.00" fill="#000000">TXAGRPSRC</text>
<polygon fill="none" stroke="#000000" points="347,-431.7 347,-453.7 439,-453.7 439,-431.7 347,-431.7"/>
<text text-anchor="start" x="350" y="-439.4" font-family="Helvetica,sans-Serif" font-size="11.00" fill="#000000">int2[5]</text>
<polygon fill="none" stroke="#000000" points="215,-409.7 215,-431.7 347,-431.7 347,-409.7 215,-409.7"/>
<text text-anchor="start" x="235" y="-416.8" font-family="Helvetica,sans-Serif" font-size="11.00" fill="#000000">CREATED_AT</text>
<polygon fill="none" stroke="#000000" points="347,-409.7 347,-431.7 439,-431.7 439,-409.7 347,-409.7"/>
<text text-anchor="start" x="349.6023" y="-417.4" font-family="Helvetica,sans-Serif" font-size="11.00" fill="#000000">timestamptz[35,6]</text>
<polygon fill="none" stroke="#000000" points="215,-387.7 215,-409.7 347,-409.7 347,-387.7 215,-387.7"/>
<text text-anchor="start" x="235" y="-394.8" font-family="Helvetica,sans-Serif" font-size="11.00" fill="#000000">UPDATED_AT</text>
<polygon fill="none" stroke="#000000" points="347,-387.7 347,-409.7 439,-409.7 439,-387.7 347,-387.7"/>
<text text-anchor="start" x="349.6023" y="-395.4" font-family="Helvetica,sans-Serif" font-size="11.00" fill="#000000">timestamptz[35,6]</text>
<polygon fill="#ffffff" stroke="transparent" points="215,-368.7 215,-387.7 269,-387.7 269,-368.7 215,-368.7"/>
<polygon fill="none" stroke="#000000" points="215,-368.7 215,-387.7 269,-387.7 269,-368.7 215,-368.7"/>
<text text-anchor="start" x="218" y="-374.8" font-family="Helvetica,sans-Serif" font-size="11.00" fill="#000000">&lt; 1</text>
<polygon fill="#ffffff" stroke="transparent" points="269,-368.7 269,-387.7 347,-387.7 347,-368.7 269,-368.7"/>
<polygon fill="none" stroke="#000000" points="269,-368.7 269,-387.7 347,-387.7 347,-368.7 269,-368.7"/>
<text text-anchor="start" x="305.4956" y="-374.8" font-family="Helvetica,sans-Serif" font-size="11.00" fill="#000000">56 rows</text>
<polygon fill="#ffffff" stroke="transparent" points="347,-368.7 347,-387.7 439,-387.7 439,-368.7 347,-368.7"/>
<polygon fill="none" stroke="#000000" points="347,-368.7 347,-387.7 439,-387.7 439,-368.7 347,-368.7"/>
<text text-anchor="start" x="420.4053" y="-374.8" font-family="Helvetica,sans-Serif" font-size="11.00" fill="#000000">1 &gt;</text>
<polygon fill="none" stroke="#000000" stroke-width="2" points="214,-367.7 214,-543.7 440,-543.7 440,-367.7 214,-367.7"/>
</a>
</g>
</g>
<!-- cabah_taxagroupID&#45;&gt;cabah_datasourceID -->
<g id="edge3" class="edge">
<title>cabah_taxagroupID:w&#45;&gt;cabah_datasourceID:e</title>
<path fill="none" stroke="#000000" d="M200.9064,-438.8918C173.2616,-419.8309 210.7134,-335.7 164,-335.7"/>
<polygon fill="#000000" stroke="#000000" points="207.277,-440.6131 214.0609,-446.1754 211.1385,-441.6566 215,-442.7 215,-442.7 215,-442.7 211.1385,-441.6566 215.9391,-439.2246 207.277,-440.6131 207.277,-440.6131"/>
<ellipse fill="none" stroke="#000000" cx="204.1878" cy="-439.7784" rx="3.2" ry="3.2"/>
</g>
<!-- cabah_taxaID -->
<g id="node5" class="node">
<title>cabah_taxaID</title>
<g id="a_node5"><a xlink:href="../../tables/cabah_taxaID.html" xlink:title="cabah_taxaID" target="_top">
<polygon fill="#ffffff" stroke="transparent" points="490,-350.2 490,-499.2 606,-499.2 606,-350.2 490,-350.2"/>
<polygon fill="#f5f5f5" stroke="transparent" points="490,-475.7 490,-498.7 606,-498.7 606,-475.7 490,-475.7"/>
<polygon fill="none" stroke="#000000" points="490,-475.7 490,-498.7 606,-498.7 606,-475.7 490,-475.7"/>
<text text-anchor="start" x="495" y="-484.3" font-family="Helvetica,sans-Serif" font-weight="bold" font-size="11.00" fill="#000000">cabah_taxaID</text>
<text text-anchor="start" x="571.5219" y="-483.8" font-family="Helvetica,sans-Serif" font-size="11.00" fill="#000000">[table]</text>
<polygon fill="none" stroke="#000000" points="490,-453.7 490,-475.7 606,-475.7 606,-453.7 490,-453.7"/>
<image xlink:href="../../images/primaryKeys.png" width="11px" height="12px" preserveAspectRatio="xMinYMin meet" x="495" y="-470.7"/>
<text text-anchor="start" x="518" y="-460.8" font-family="Helvetica,sans-Serif" font-size="11.00" fill="#000000">TAXONID</text>
<polygon fill="none" stroke="#000000" points="490,-431.7 490,-453.7 606,-453.7 606,-431.7 490,-431.7"/>
<image xlink:href="../../images/foreignKeys.png" width="11px" height="12px" preserveAspectRatio="xMinYMin meet" x="495" y="-448.7"/>
<text text-anchor="start" x="518" y="-438.8" font-family="Helvetica,sans-Serif" font-size="11.00" fill="#000000">PARENTID</text>
<polygon fill="none" stroke="#000000" points="490,-409.7 490,-431.7 606,-431.7 606,-409.7 490,-409.7"/>
<image xlink:href="../../images/foreignKeys.png" width="11px" height="12px" preserveAspectRatio="xMinYMin meet" x="495" y="-426.7"/>
<text text-anchor="start" x="518" y="-416.8" font-family="Helvetica,sans-Serif" font-size="11.00" fill="#000000">TAXAGRPID</text>
<polygon fill="none" stroke="#000000" points="490,-387.7 490,-409.7 606,-409.7 606,-387.7 490,-387.7"/>
<image xlink:href="../../images/foreignKeys.png" width="11px" height="12px" preserveAspectRatio="xMinYMin meet" x="495" y="-404.7"/>
<text text-anchor="start" x="518" y="-394.8" font-family="Helvetica,sans-Serif" font-size="11.00" fill="#000000">NEOVALORID</text>
<polygon fill="none" stroke="#000000" points="490,-368.7 490,-387.7 606,-387.7 606,-368.7 490,-368.7"/>
<text text-anchor="start" x="493" y="-374.8" font-family="Helvetica,sans-Serif" font-size="11.00" fill="#000000">...</text>
<polygon fill="#ffffff" stroke="transparent" points="490,-349.7 490,-368.7 515,-368.7 515,-349.7 490,-349.7"/>
<polygon fill="none" stroke="#000000" points="490,-349.7 490,-368.7 515,-368.7 515,-349.7 490,-349.7"/>
<text text-anchor="start" x="493" y="-355.8" font-family="Helvetica,sans-Serif" font-size="11.00" fill="#000000">&lt; 3</text>
<polygon fill="#ffffff" stroke="transparent" points="515,-349.7 515,-368.7 582,-368.7 582,-349.7 515,-349.7"/>
<polygon fill="none" stroke="#000000" points="515,-349.7 515,-368.7 582,-368.7 582,-349.7 515,-349.7"/>
<text text-anchor="start" x="519.094" y="-355.8" font-family="Helvetica,sans-Serif" font-size="11.00" fill="#000000">47.144 rows</text>
<polygon fill="#ffffff" stroke="transparent" points="582,-349.7 582,-368.7 606,-368.7 606,-349.7 582,-349.7"/>
<polygon fill="none" stroke="#000000" points="582,-349.7 582,-368.7 606,-368.7 606,-349.7 582,-349.7"/>
<text text-anchor="start" x="587.4053" y="-355.8" font-family="Helvetica,sans-Serif" font-size="11.00" fill="#000000">1 &gt;</text>
</a>
</g>
</g>
<!-- cabah_taxaID&#45;&gt;cabah_taxagroupID -->
<g id="edge5" class="edge">
<title>cabah_taxaID:w&#45;&gt;cabah_taxagroupID:e</title>
<path fill="none" stroke="#000000" d="M476.0699,-424.9444C453.7709,-442.5228 478.2009,-508.7 439,-508.7"/>
<polygon fill="#000000" stroke="#000000" points="482.3473,-423.0318 491.0493,-424.1437 486.1737,-421.8659 490,-420.7 490,-420.7 490,-420.7 486.1737,-421.8659 488.9507,-417.2563 482.3473,-423.0318 482.3473,-423.0318"/>
<ellipse fill="none" stroke="#000000" cx="479.2863" cy="-423.9645" rx="3.2" ry="3.2"/>
</g>
<!-- neo_contacts -->
<g id="node6" class="node">
<title>neo_contacts</title>
<g id="a_node6"><a xlink:href="../../tables/neo_contacts.html" xlink:title="neo_contacts" target="_top">
<polygon fill="#ffffff" stroke="transparent" points="269,-284.2 269,-345.2 385,-345.2 385,-284.2 269,-284.2"/>
<polygon fill="#f5f5f5" stroke="transparent" points="269,-321.7 269,-344.7 385,-344.7 385,-321.7 269,-321.7"/>
<polygon fill="none" stroke="#000000" points="269,-321.7 269,-344.7 385,-344.7 385,-321.7 269,-321.7"/>
<text text-anchor="start" x="274" y="-330.3" font-family="Helvetica,sans-Serif" font-weight="bold" font-size="11.00" fill="#000000">neo_contacts</text>
<text text-anchor="start" x="350.5219" y="-329.8" font-family="Helvetica,sans-Serif" font-size="11.00" fill="#000000">[table]</text>
<polygon fill="none" stroke="#000000" points="269,-302.7 269,-321.7 385,-321.7 385,-302.7 269,-302.7"/>
<text text-anchor="start" x="272" y="-308.8" font-family="Helvetica,sans-Serif" font-size="11.00" fill="#000000">...</text>
<polygon fill="#ffffff" stroke="transparent" points="269,-283.7 269,-302.7 294,-302.7 294,-283.7 269,-283.7"/>
<polygon fill="none" stroke="#000000" points="269,-283.7 269,-302.7 294,-302.7 294,-283.7 269,-283.7"/>
<text text-anchor="start" x="272" y="-289.8" font-family="Helvetica,sans-Serif" font-size="11.00" fill="#000000">&lt; 1</text>
<polygon fill="#ffffff" stroke="transparent" points="294,-283.7 294,-302.7 361,-302.7 361,-283.7 294,-283.7"/>
<polygon fill="none" stroke="#000000" points="294,-283.7 294,-302.7 361,-302.7 361,-283.7 294,-283.7"/>
<text text-anchor="start" x="298.094" y="-289.8" font-family="Helvetica,sans-Serif" font-size="11.00" fill="#000000">13.396 rows</text>
<polygon fill="#ffffff" stroke="transparent" points="361,-283.7 361,-302.7 385,-302.7 385,-283.7 361,-283.7"/>
<polygon fill="none" stroke="#000000" points="361,-283.7 361,-302.7 385,-302.7 385,-283.7 361,-283.7"/>
<text text-anchor="start" x="366.4053" y="-289.8" font-family="Helvetica,sans-Serif" font-size="11.00" fill="#000000">2 &gt;</text>
</a>
</g>
</g>
<!-- cabah_taxaID&#45;&gt;neo_contacts -->
<g id="edge4" class="edge">
<title>cabah_taxaID:w&#45;&gt;neo_contacts:e</title>
<path fill="none" stroke="#000000" d="M476.0539,-394.9933C464.8716,-387.3875 464.2094,-369.6448 449,-356.7 422.5203,-334.1631 419.7719,-311.7 385,-311.7"/>
<polygon fill="#000000" stroke="#000000" points="482.2684,-396.645 489.0753,-402.1792 486.1342,-397.6725 490,-398.7 490,-398.7 490,-398.7 486.1342,-397.6725 490.9247,-395.2208 482.2684,-396.645 482.2684,-396.645"/>
<ellipse fill="none" stroke="#000000" cx="479.1758" cy="-395.823" rx="3.2" ry="3.2"/>
</g>
<!-- char_DataCore -->
<g id="node7" class="node">
<title>char_DataCore</title>
<g id="a_node7"><a xlink:href="../../tables/char_DataCore.html" xlink:title="char_DataCore" target="_top">
<polygon fill="#ffffff" stroke="transparent" points="265,-202.2 265,-263.2 389,-263.2 389,-202.2 265,-202.2"/>
<polygon fill="#f5f5f5" stroke="transparent" points="265,-239.7 265,-262.7 389,-262.7 389,-239.7 265,-239.7"/>
<polygon fill="none" stroke="#000000" points="265,-239.7 265,-262.7 389,-262.7 389,-239.7 265,-239.7"/>
<text text-anchor="start" x="270" y="-248.3" font-family="Helvetica,sans-Serif" font-weight="bold" font-size="11.00" fill="#000000">char_DataCore</text>
<text text-anchor="start" x="354.5219" y="-247.8" font-family="Helvetica,sans-Serif" font-size="11.00" fill="#000000">[table]</text>
<polygon fill="none" stroke="#000000" points="265,-220.7 265,-239.7 389,-239.7 389,-220.7 265,-220.7"/>
<text text-anchor="start" x="268" y="-226.8" font-family="Helvetica,sans-Serif" font-size="11.00" fill="#000000">...</text>
<polygon fill="#ffffff" stroke="transparent" points="265,-201.7 265,-220.7 302,-220.7 302,-201.7 265,-201.7"/>
<polygon fill="none" stroke="#000000" points="265,-201.7 265,-220.7 302,-220.7 302,-201.7 265,-201.7"/>
<text text-anchor="start" x="268" y="-207.8" font-family="Helvetica,sans-Serif" font-size="11.00" fill="#000000">&lt; 16</text>
<polygon fill="#ffffff" stroke="transparent" points="302,-201.7 302,-220.7 372,-220.7 372,-201.7 302,-201.7"/>
<polygon fill="none" stroke="#000000" points="302,-201.7 302,-220.7 372,-220.7 372,-201.7 302,-201.7"/>
<text text-anchor="start" x="309.094" y="-207.8" font-family="Helvetica,sans-Serif" font-size="11.00" fill="#000000">48.234 rows</text>
<polygon fill="#ffffff" stroke="transparent" points="372,-201.7 372,-220.7 389,-220.7 389,-201.7 372,-201.7"/>
<polygon fill="none" stroke="#000000" points="372,-201.7 372,-220.7 389,-220.7 389,-201.7 372,-201.7"/>
<text text-anchor="start" x="379.8862" y="-207.8" font-family="Helvetica,sans-Serif" font-size="11.00" fill="#000000"> &#160;</text>
</a>
</g>
</g>
<!-- char_DataCore&#45;&gt;cabah_datasourceID -->
<g id="edge6" class="edge">
<title>char_DataCore:w&#45;&gt;cabah_datasourceID:e</title>
<path fill="none" stroke="#000000" d="M250.5609,-231.321C230.0195,-236.5476 223.9782,-253.7788 205,-273.7 182.2132,-297.6191 197.0357,-335.7 164,-335.7"/>
<polygon fill="#000000" stroke="#000000" points="257.0499,-230.5926 265.4017,-233.2775 261.025,-230.1463 265,-229.7 265,-229.7 265,-229.7 261.025,-230.1463 264.5983,-226.1225 257.0499,-230.5926 257.0499,-230.5926"/>
<ellipse fill="none" stroke="#000000" cx="253.8699" cy="-230.9496" rx="3.2" ry="3.2"/>
</g>
<!-- global_DataSetMaster -->
<g id="node8" class="node">
<title>global_DataSetMaster</title>
<g id="a_node8"><a xlink:href="../../tables/global_DataSetMaster.html" xlink:title="global_DataSetMaster" target="_top">
<polygon fill="#ffffff" stroke="transparent" points="245,-120.2 245,-181.2 409,-181.2 409,-120.2 245,-120.2"/>
<polygon fill="#f5f5f5" stroke="transparent" points="245,-157.7 245,-180.7 409,-180.7 409,-157.7 245,-157.7"/>
<polygon fill="none" stroke="#000000" points="245,-157.7 245,-180.7 409,-180.7 409,-157.7 245,-157.7"/>
<text text-anchor="start" x="250" y="-166.3" font-family="Helvetica,sans-Serif" font-weight="bold" font-size="11.00" fill="#000000">global_DataSetMaster</text>
<text text-anchor="start" x="374.5219" y="-165.8" font-family="Helvetica,sans-Serif" font-size="11.00" fill="#000000">[table]</text>
<polygon fill="none" stroke="#000000" points="245,-138.7 245,-157.7 409,-157.7 409,-138.7 245,-138.7"/>
<text text-anchor="start" x="248" y="-144.8" font-family="Helvetica,sans-Serif" font-size="11.00" fill="#000000">...</text>
<polygon fill="#ffffff" stroke="transparent" points="245,-119.7 245,-138.7 302,-138.7 302,-119.7 245,-119.7"/>
<polygon fill="none" stroke="#000000" points="245,-119.7 245,-138.7 302,-138.7 302,-119.7 245,-119.7"/>
<text text-anchor="start" x="248" y="-125.8" font-family="Helvetica,sans-Serif" font-size="11.00" fill="#000000">&lt; 3</text>
<polygon fill="#ffffff" stroke="transparent" points="302,-119.7 302,-138.7 370,-138.7 370,-119.7 302,-119.7"/>
<polygon fill="none" stroke="#000000" points="302,-119.7 302,-138.7 370,-138.7 370,-119.7 302,-119.7"/>
<text text-anchor="start" x="322.3807" y="-125.8" font-family="Helvetica,sans-Serif" font-size="11.00" fill="#000000">148 rows</text>
<polygon fill="#ffffff" stroke="transparent" points="370,-119.7 370,-138.7 409,-138.7 409,-119.7 370,-119.7"/>
<polygon fill="none" stroke="#000000" points="370,-119.7 370,-138.7 409,-138.7 409,-119.7 370,-119.7"/>
<text text-anchor="start" x="390.4053" y="-125.8" font-family="Helvetica,sans-Serif" font-size="11.00" fill="#000000">1 &gt;</text>
</a>
</g>
</g>
<!-- global_DataSetMaster&#45;&gt;cabah_datasourceID -->
<g id="edge7" class="edge">
<title>global_DataSetMaster:w&#45;&gt;cabah_datasourceID:e</title>
<path fill="none" stroke="#000000" d="M230.5551,-150.7014C217.6207,-157.2845 214.9359,-173.8365 205,-191.7 172.6545,-249.8534 230.5436,-335.7 164,-335.7"/>
<polygon fill="#000000" stroke="#000000" points="237.1673,-149.3275 245.7324,-151.2247 241.0836,-148.5138 245,-147.7 245,-147.7 245,-147.7 241.0836,-148.5138 244.2676,-144.1753 237.1673,-149.3275 237.1673,-149.3275"/>
<ellipse fill="none" stroke="#000000" cx="234.0342" cy="-149.9786" rx="3.2" ry="3.2"/>
</g>
<!-- global_MetaSite -->
<g id="node9" class="node">
<title>global_MetaSite</title>
<g id="a_node9"><a xlink:href="../../tables/global_MetaSite.html" xlink:title="global_MetaSite" target="_top">
<polygon fill="#ffffff" stroke="transparent" points="262,-38.2 262,-99.2 392,-99.2 392,-38.2 262,-38.2"/>
<polygon fill="#f5f5f5" stroke="transparent" points="262,-75.7 262,-98.7 392,-98.7 392,-75.7 262,-75.7"/>
<polygon fill="none" stroke="#000000" points="262,-75.7 262,-98.7 392,-98.7 392,-75.7 262,-75.7"/>
<text text-anchor="start" x="267" y="-84.3" font-family="Helvetica,sans-Serif" font-weight="bold" font-size="11.00" fill="#000000">global_MetaSite</text>
<text text-anchor="start" x="357.5219" y="-83.8" font-family="Helvetica,sans-Serif" font-size="11.00" fill="#000000">[table]</text>
<polygon fill="none" stroke="#000000" points="262,-56.7 262,-75.7 392,-75.7 392,-56.7 262,-56.7"/>
<text text-anchor="start" x="265" y="-62.8" font-family="Helvetica,sans-Serif" font-size="11.00" fill="#000000">...</text>
<polygon fill="#ffffff" stroke="transparent" points="262,-37.7 262,-56.7 294,-56.7 294,-37.7 262,-37.7"/>
<polygon fill="none" stroke="#000000" points="262,-37.7 262,-56.7 294,-56.7 294,-37.7 262,-37.7"/>
<text text-anchor="start" x="265" y="-43.8" font-family="Helvetica,sans-Serif" font-size="11.00" fill="#000000">&lt; 2</text>
<polygon fill="#ffffff" stroke="transparent" points="294,-37.7 294,-56.7 365,-56.7 365,-37.7 294,-37.7"/>
<polygon fill="none" stroke="#000000" points="294,-37.7 294,-56.7 365,-56.7 365,-37.7 294,-37.7"/>
<text text-anchor="start" x="302.094" y="-43.8" font-family="Helvetica,sans-Serif" font-size="11.00" fill="#000000">12.144 rows</text>
<polygon fill="#ffffff" stroke="transparent" points="365,-37.7 365,-56.7 392,-56.7 392,-37.7 365,-37.7"/>
<polygon fill="none" stroke="#000000" points="365,-37.7 365,-56.7 392,-56.7 392,-37.7 365,-37.7"/>
<text text-anchor="start" x="373.4053" y="-43.8" font-family="Helvetica,sans-Serif" font-size="11.00" fill="#000000">1 &gt;</text>
</a>
</g>
</g>
<!-- global_MetaSite&#45;&gt;cabah_datasourceID -->
<g id="edge8" class="edge">
<title>global_MetaSite:w&#45;&gt;cabah_datasourceID:e</title>
<path fill="none" stroke="#000000" d="M247.4312,-67.1459C226.8768,-71.7416 218.7719,-87.0567 205,-109.7 178.4763,-153.3094 215.042,-335.7 164,-335.7"/>
<polygon fill="#000000" stroke="#000000" points="254.0391,-66.4901 262.3556,-69.2824 258.0196,-66.0951 262,-65.7 262,-65.7 262,-65.7 258.0196,-66.0951 261.6444,-62.1176 254.0391,-66.4901 254.0391,-66.4901"/>
<ellipse fill="none" stroke="#000000" cx="250.8548" cy="-66.8062" rx="3.2" ry="3.2"/>
</g>
</g>
</svg>
