<?xml version="1.0" encoding="UTF-8" standalone="no"?>
<!DOCTYPE svg PUBLIC "-//W3C//DTD SVG 1.1//EN"
 "http://www.w3.org/Graphics/SVG/1.1/DTD/svg11.dtd">
<!-- Generated by graphviz version 2.40.1 (20161225.0304)
 -->
<!-- Title: twoDegreesRelationshipsDiagramImplied Pages: 1 -->
<svg width="952pt" height="750pt"
 viewBox="0.00 0.00 952.12 750.30" xmlns="http://www.w3.org/2000/svg" xmlns:xlink="http://www.w3.org/1999/xlink">
<g id="graph0" class="graph" transform="scale(1 1) rotate(0) translate(4 746.2988)">
<title>twoDegreesRelationshipsDiagramImplied</title>
<polygon fill="#ffffff" stroke="transparent" points="-4,4 -4,-746.2988 948.1178,-746.2988 948.1178,4 -4,4"/>
<text text-anchor="middle" x="72.4936" y="-7.3" font-family="Helvetica,sans-Serif" font-size="11.00" fill="#000000">Generated by SchemaSpy</text>
<!-- cabah_AnalysisUnit -->
<g id="node1" class="node">
<title>cabah_AnalysisUnit</title>
<g id="a_node1"><a xlink:href="../../tables/cabah_AnalysisUnit.html" xlink:title="cabah_AnalysisUnit" target="_top">
<polygon fill="#ffffff" stroke="transparent" points="529.6178,-653.7988 529.6178,-714.7988 682.6178,-714.7988 682.6178,-653.7988 529.6178,-653.7988"/>
<polygon fill="#f5f5f5" stroke="transparent" points="530.1178,-691.2988 530.1178,-714.2988 683.1178,-714.2988 683.1178,-691.2988 530.1178,-691.2988"/>
<polygon fill="none" stroke="#000000" points="530.1178,-691.2988 530.1178,-714.2988 683.1178,-714.2988 683.1178,-691.2988 530.1178,-691.2988"/>
<text text-anchor="start" x="535.1178" y="-699.8988" font-family="Helvetica,sans-Serif" font-weight="bold" font-size="11.00" fill="#000000">cabah_AnalysisUnit</text>
<text text-anchor="start" x="648.6396" y="-699.3988" font-family="Helvetica,sans-Serif" font-size="11.00" fill="#000000">[table]</text>
<polygon fill="none" stroke="#000000" points="530.1178,-672.2988 530.1178,-691.2988 683.1178,-691.2988 683.1178,-672.2988 530.1178,-672.2988"/>
<text text-anchor="start" x="533.1178" y="-678.3988" font-family="Helvetica,sans-Serif" font-size="11.00" fill="#000000">...</text>
<polygon fill="#ffffff" stroke="transparent" points="530.1178,-653.2988 530.1178,-672.2988 574.1178,-672.2988 574.1178,-653.2988 530.1178,-653.2988"/>
<polygon fill="none" stroke="#000000" points="530.1178,-653.2988 530.1178,-672.2988 574.1178,-672.2988 574.1178,-653.2988 530.1178,-653.2988"/>
<text text-anchor="start" x="533.1178" y="-659.3988" font-family="Helvetica,sans-Serif" font-size="11.00" fill="#000000">&lt; 3</text>
<polygon fill="#ffffff" stroke="transparent" points="574.1178,-653.2988 574.1178,-672.2988 650.1178,-672.2988 650.1178,-653.2988 574.1178,-653.2988"/>
<polygon fill="none" stroke="#000000" points="574.1178,-653.2988 574.1178,-672.2988 650.1178,-672.2988 650.1178,-653.2988 574.1178,-653.2988"/>
<text text-anchor="start" x="587.2118" y="-659.3988" font-family="Helvetica,sans-Serif" font-size="11.00" fill="#000000">15.022 rows</text>
<polygon fill="#ffffff" stroke="transparent" points="650.1178,-653.2988 650.1178,-672.2988 683.1178,-672.2988 683.1178,-653.2988 650.1178,-653.2988"/>
<polygon fill="none" stroke="#000000" points="650.1178,-653.2988 650.1178,-672.2988 683.1178,-672.2988 683.1178,-653.2988 650.1178,-653.2988"/>
<text text-anchor="start" x="664.5231" y="-659.3988" font-family="Helvetica,sans-Serif" font-size="11.00" fill="#000000">1 &gt;</text>
</a>
</g>
</g>
<!-- cabah_depositID -->
<g id="node2" class="node">
<title>cabah_depositID</title>
<g id="a_node2"><a xlink:href="../../tables/cabah_depositID.html" xlink:title="cabah_depositID" target="_top">
<polygon fill="#ffffff" stroke="transparent" points="32.1178,-542.2988 32.1178,-720.2988 245.1178,-720.2988 245.1178,-542.2988 32.1178,-542.2988"/>
<polygon fill="#f5f5f5" stroke="transparent" points="34.6178,-695.2988 34.6178,-718.2988 243.6178,-718.2988 243.6178,-695.2988 34.6178,-695.2988"/>
<polygon fill="none" stroke="#000000" points="34.6178,-695.2988 34.6178,-718.2988 243.6178,-718.2988 243.6178,-695.2988 34.6178,-695.2988"/>
<text text-anchor="start" x="39.6178" y="-703.8988" font-family="Helvetica,sans-Serif" font-weight="bold" font-size="11.00" fill="#000000">cabah_depositID</text>
<text text-anchor="start" x="208.6615" y="-703.3988" font-family="Helvetica,sans-Serif" font-size="11.00" fill="#000000">[table]</text>
<polygon fill="none" stroke="#000000" points="34.6178,-673.2988 34.6178,-695.2988 151.6178,-695.2988 151.6178,-673.2988 34.6178,-673.2988"/>
<image xlink:href="../../images/primaryKeys.png" width="11px" height="12px" preserveAspectRatio="xMinYMin meet" x="39.6178" y="-690.299"/>
<text text-anchor="start" x="54.6178" y="-680.3988" font-family="Helvetica,sans-Serif" font-size="11.00" fill="#000000">DEPOSITID</text>
<polygon fill="none" stroke="#000000" points="151.6178,-673.2988 151.6178,-695.2988 243.6178,-695.2988 243.6178,-673.2988 151.6178,-673.2988"/>
<text text-anchor="start" x="154.6178" y="-680.9988" font-family="Helvetica,sans-Serif" font-size="11.00" fill="#000000">serial[10]</text>
<polygon fill="#ffffff" stroke="transparent" points="34.6178,-651.2988 34.6178,-673.2988 151.6178,-673.2988 151.6178,-651.2988 34.6178,-651.2988"/>
<polygon fill="none" stroke="#000000" points="34.6178,-651.2988 34.6178,-673.2988 151.6178,-673.2988 151.6178,-651.2988 34.6178,-651.2988"/>
<text text-anchor="start" x="54.6178" y="-658.3988" font-family="Helvetica,sans-Serif" font-size="11.00" fill="#000000">DEPOSIT</text>
<polygon fill="none" stroke="#000000" points="151.6178,-651.2988 151.6178,-673.2988 243.6178,-673.2988 243.6178,-651.2988 151.6178,-651.2988"/>
<text text-anchor="start" x="154.6178" y="-658.9988" font-family="Helvetica,sans-Serif" font-size="11.00" fill="#000000">text[2147483647]</text>
<polygon fill="none" stroke="#000000" points="34.6178,-629.2988 34.6178,-651.2988 151.6178,-651.2988 151.6178,-629.2988 34.6178,-629.2988"/>
<image xlink:href="../../images/foreignKeys.png" width="11px" height="12px" preserveAspectRatio="xMinYMin meet" x="39.6178" y="-646.299"/>
<text text-anchor="start" x="54.6178" y="-636.3988" font-family="Helvetica,sans-Serif" font-size="11.00" fill="#000000">PARENTID</text>
<polygon fill="none" stroke="#000000" points="151.6178,-629.2988 151.6178,-651.2988 243.6178,-651.2988 243.6178,-629.2988 151.6178,-629.2988"/>
<text text-anchor="start" x="154.6178" y="-636.9988" font-family="Helvetica,sans-Serif" font-size="11.00" fill="#000000">int2[5]</text>
<polygon fill="none" stroke="#000000" points="34.6178,-607.2988 34.6178,-629.2988 151.6178,-629.2988 151.6178,-607.2988 34.6178,-607.2988"/>
<text text-anchor="start" x="54.6178" y="-614.3988" font-family="Helvetica,sans-Serif" font-size="11.00" fill="#000000">DEPOSITDSC</text>
<polygon fill="none" stroke="#000000" points="151.6178,-607.2988 151.6178,-629.2988 243.6178,-629.2988 243.6178,-607.2988 151.6178,-607.2988"/>
<text text-anchor="start" x="154.6178" y="-614.9988" font-family="Helvetica,sans-Serif" font-size="11.00" fill="#000000">text[2147483647]</text>
<polygon fill="none" stroke="#000000" points="34.6178,-585.2988 34.6178,-607.2988 151.6178,-607.2988 151.6178,-585.2988 34.6178,-585.2988"/>
<text text-anchor="start" x="54.6178" y="-592.3988" font-family="Helvetica,sans-Serif" font-size="11.00" fill="#000000">CREATED_AT</text>
<polygon fill="none" stroke="#000000" points="151.6178,-585.2988 151.6178,-607.2988 243.6178,-607.2988 243.6178,-585.2988 151.6178,-585.2988"/>
<text text-anchor="start" x="154.22" y="-592.9988" font-family="Helvetica,sans-Serif" font-size="11.00" fill="#000000">timestamptz[35,6]</text>
<polygon fill="none" stroke="#000000" points="34.6178,-563.2988 34.6178,-585.2988 151.6178,-585.2988 151.6178,-563.2988 34.6178,-563.2988"/>
<text text-anchor="start" x="54.6178" y="-570.3988" font-family="Helvetica,sans-Serif" font-size="11.00" fill="#000000">UPDATED_AT</text>
<polygon fill="none" stroke="#000000" points="151.6178,-563.2988 151.6178,-585.2988 243.6178,-585.2988 243.6178,-563.2988 151.6178,-563.2988"/>
<text text-anchor="start" x="154.22" y="-570.9988" font-family="Helvetica,sans-Serif" font-size="11.00" fill="#000000">timestamptz[35,6]</text>
<polygon fill="#ffffff" stroke="transparent" points="34.6178,-544.2988 34.6178,-563.2988 78.6178,-563.2988 78.6178,-544.2988 34.6178,-544.2988"/>
<polygon fill="none" stroke="#000000" points="34.6178,-544.2988 34.6178,-563.2988 78.6178,-563.2988 78.6178,-544.2988 34.6178,-544.2988"/>
<text text-anchor="start" x="37.6178" y="-550.3988" font-family="Helvetica,sans-Serif" font-size="11.00" fill="#000000">&lt; 1</text>
<polygon fill="#ffffff" stroke="transparent" points="78.6178,-544.2988 78.6178,-563.2988 151.6178,-563.2988 151.6178,-544.2988 78.6178,-544.2988"/>
<polygon fill="none" stroke="#000000" points="78.6178,-544.2988 78.6178,-563.2988 151.6178,-563.2988 151.6178,-544.2988 78.6178,-544.2988"/>
<text text-anchor="start" x="103.9985" y="-550.3988" font-family="Helvetica,sans-Serif" font-size="11.00" fill="#000000">119 rows</text>
<polygon fill="#ffffff" stroke="transparent" points="151.6178,-544.2988 151.6178,-563.2988 243.6178,-563.2988 243.6178,-544.2988 151.6178,-544.2988"/>
<polygon fill="none" stroke="#000000" points="151.6178,-544.2988 151.6178,-563.2988 243.6178,-563.2988 243.6178,-544.2988 151.6178,-544.2988"/>
<text text-anchor="start" x="225.0231" y="-550.3988" font-family="Helvetica,sans-Serif" font-size="11.00" fill="#000000">3 &gt;</text>
<polygon fill="none" stroke="#000000" stroke-width="2" points="33.1178,-543.2988 33.1178,-719.2988 244.1178,-719.2988 244.1178,-543.2988 33.1178,-543.2988"/>
</a>
</g>
</g>
<!-- cabah_AnalysisUnit&#45;&gt;cabah_depositID -->
<g id="edge1" class="edge">
<title>cabah_AnalysisUnit:w&#45;&gt;cabah_depositID:e</title>
<path fill="none" stroke="#000000" d="M506.8815,-684.2988C434.0287,-684.2988 332.6704,-684.2988 243.6178,-684.2988"/>
<polygon fill="#000000" stroke="#000000" points="513.5195,-684.2989 521.5195,-687.8988 517.5195,-684.2988 521.5195,-684.2988 521.5195,-684.2988 521.5195,-684.2988 517.5195,-684.2988 521.5195,-680.6988 513.5195,-684.2989 513.5195,-684.2989"/>
<ellipse fill="none" stroke="#000000" cx="510.3195" cy="-684.2989" rx="3.2" ry="3.2"/>
</g>
<!-- global_UnitMaster -->
<g id="node3" class="node">
<title>global_UnitMaster</title>
<g id="a_node3"><a xlink:href="../../tables/global_UnitMaster.html" xlink:title="global_UnitMaster" target="_top">
<polygon fill="#ffffff" stroke="transparent" points="294.1178,-431.7988 294.1178,-492.7988 437.1178,-492.7988 437.1178,-431.7988 294.1178,-431.7988"/>
<polygon fill="#f5f5f5" stroke="transparent" points="294.6178,-469.2988 294.6178,-492.2988 437.6178,-492.2988 437.6178,-469.2988 294.6178,-469.2988"/>
<polygon fill="none" stroke="#000000" points="294.6178,-469.2988 294.6178,-492.2988 437.6178,-492.2988 437.6178,-469.2988 294.6178,-469.2988"/>
<text text-anchor="start" x="299.6178" y="-477.8988" font-family="Helvetica,sans-Serif" font-weight="bold" font-size="11.00" fill="#000000">global_UnitMaster</text>
<text text-anchor="start" x="403.1396" y="-477.3988" font-family="Helvetica,sans-Serif" font-size="11.00" fill="#000000">[table]</text>
<polygon fill="none" stroke="#000000" points="294.6178,-450.2988 294.6178,-469.2988 437.6178,-469.2988 437.6178,-450.2988 294.6178,-450.2988"/>
<text text-anchor="start" x="297.6178" y="-456.3988" font-family="Helvetica,sans-Serif" font-size="11.00" fill="#000000">...</text>
<polygon fill="#ffffff" stroke="transparent" points="294.6178,-431.2988 294.6178,-450.2988 337.6178,-450.2988 337.6178,-431.2988 294.6178,-431.2988"/>
<polygon fill="none" stroke="#000000" points="294.6178,-431.2988 294.6178,-450.2988 337.6178,-450.2988 337.6178,-431.2988 294.6178,-431.2988"/>
<text text-anchor="start" x="297.6178" y="-437.3988" font-family="Helvetica,sans-Serif" font-size="11.00" fill="#000000">&lt; 5</text>
<polygon fill="#ffffff" stroke="transparent" points="337.6178,-431.2988 337.6178,-450.2988 398.6178,-450.2988 398.6178,-431.2988 337.6178,-431.2988"/>
<polygon fill="none" stroke="#000000" points="337.6178,-431.2988 337.6178,-450.2988 398.6178,-450.2988 398.6178,-431.2988 337.6178,-431.2988"/>
<text text-anchor="start" x="350.9985" y="-437.3988" font-family="Helvetica,sans-Serif" font-size="11.00" fill="#000000">607 rows</text>
<polygon fill="#ffffff" stroke="transparent" points="398.6178,-431.2988 398.6178,-450.2988 437.6178,-450.2988 437.6178,-431.2988 398.6178,-431.2988"/>
<polygon fill="none" stroke="#000000" points="398.6178,-431.2988 398.6178,-450.2988 437.6178,-450.2988 437.6178,-431.2988 398.6178,-431.2988"/>
<text text-anchor="start" x="412.9082" y="-437.3988" font-family="Helvetica,sans-Serif" font-size="11.00" fill="#000000">11 &gt;</text>
</a>
</g>
</g>
<!-- cabah_AnalysisUnit&#45;&gt;global_UnitMaster -->
<g id="edge2" class="edge">
<title>cabah_AnalysisUnit:w&#45;&gt;global_UnitMaster:e</title>
<path fill="none" stroke="#000000" d="M507.7593,-654.9186C497.1856,-650.0563 487.0449,-644.2607 478.1178,-637.2988 430.4155,-600.098 397.7565,-536.5852 380.3831,-497.1072"/>
<polygon fill="#000000" stroke="#000000" points="513.9455,-657.5074 519.9356,-663.9168 517.6355,-659.0516 521.3254,-660.5958 521.3254,-660.5958 521.3254,-660.5958 517.6355,-659.0516 522.7152,-657.2749 513.9455,-657.5074 513.9455,-657.5074"/>
<ellipse fill="none" stroke="#000000" cx="510.9936" cy="-656.2721" rx="3.2" ry="3.2"/>
</g>
<!-- cabah_AnalysisUnit&#45;&gt;global_UnitMaster -->
<g id="edge3" class="edge">
<title>cabah_AnalysisUnit:w&#45;&gt;global_UnitMaster:e</title>
<path fill="none" stroke="#000000" stroke-dasharray="5,2" d="M507.7593,-667.8301C497.1856,-663.0563 487.0449,-657.2607 478.1178,-650.2988 426.6226,-610.1401 392.6581,-539.319 376.5291,-496.9111"/>
<polygon fill="#000000" stroke="#000000" points="513.9136,-670.3303 519.9704,-676.6766 517.6195,-671.8358 521.3254,-673.3413 521.3254,-673.3413 521.3254,-673.3413 517.6195,-671.8358 522.6803,-670.006 513.9136,-670.3303 513.9136,-670.3303"/>
<ellipse fill="none" stroke="#000000" cx="510.9489" cy="-669.1259" rx="3.2" ry="3.2"/>
</g>
<!-- cabah_depositID&#45;&gt;cabah_depositID -->
<g id="edge4" class="edge">
<title>cabah_depositID:w&#45;&gt;cabah_depositID:e</title>
<path fill="none" stroke="#000000" d="M22.7363,-648.7925C-20.9481,-684.6689 -9.6185,-737.2988 139.1178,-737.2988 300.1178,-737.2988 300.1178,-719.6321 243.6178,-684.2988"/>
<polygon fill="#000000" stroke="#000000" points="28.1097,-644.9513 36.7114,-643.2275 31.3638,-642.625 34.6178,-640.2988 34.6178,-640.2988 34.6178,-640.2988 31.3638,-642.625 32.5242,-637.3702 28.1097,-644.9513 28.1097,-644.9513"/>
<ellipse fill="none" stroke="#000000" cx="25.5065" cy="-646.8122" rx="3.2" ry="3.2"/>
</g>
<!-- global_UnitMaster&#45;&gt;cabah_depositID -->
<g id="edge8" class="edge">
<title>global_UnitMaster:w&#45;&gt;cabah_depositID:e</title>
<path fill="none" stroke="#000000" d="M360.3647,-511.4301C350.3422,-576.82 321.9538,-684.2988 243.6178,-684.2988"/>
<polygon fill="#000000" stroke="#000000" points="361.2779,-504.909 365.9526,-497.4856 361.8326,-500.9477 362.3874,-496.9863 362.3874,-496.9863 362.3874,-496.9863 361.8326,-500.9477 358.8222,-496.487 361.2779,-504.909 361.2779,-504.909"/>
<ellipse fill="none" stroke="#000000" cx="360.8341" cy="-508.0781" rx="3.2" ry="3.2"/>
</g>
<!-- cabah_col_mtdID -->
<g id="node6" class="node">
<title>cabah_col_mtdID</title>
<g id="a_node6"><a xlink:href="../../tables/cabah_col_mtdID.html" xlink:title="cabah_col_mtdID" target="_top">
<polygon fill="#ffffff" stroke="transparent" points="69.6178,-459.7988 69.6178,-520.7988 207.6178,-520.7988 207.6178,-459.7988 69.6178,-459.7988"/>
<polygon fill="#f5f5f5" stroke="transparent" points="69.6178,-497.2988 69.6178,-520.2988 207.6178,-520.2988 207.6178,-497.2988 69.6178,-497.2988"/>
<polygon fill="none" stroke="#000000" points="69.6178,-497.2988 69.6178,-520.2988 207.6178,-520.2988 207.6178,-497.2988 69.6178,-497.2988"/>
<text text-anchor="start" x="74.6178" y="-505.8988" font-family="Helvetica,sans-Serif" font-weight="bold" font-size="11.00" fill="#000000">cabah_col_mtdID</text>
<text text-anchor="start" x="173.1396" y="-505.3988" font-family="Helvetica,sans-Serif" font-size="11.00" fill="#000000">[table]</text>
<polygon fill="none" stroke="#000000" points="69.6178,-478.2988 69.6178,-497.2988 207.6178,-497.2988 207.6178,-478.2988 69.6178,-478.2988"/>
<text text-anchor="start" x="72.6178" y="-484.3988" font-family="Helvetica,sans-Serif" font-size="11.00" fill="#000000">...</text>
<polygon fill="#ffffff" stroke="transparent" points="69.6178,-459.2988 69.6178,-478.2988 116.6178,-478.2988 116.6178,-459.2988 69.6178,-459.2988"/>
<polygon fill="none" stroke="#000000" points="69.6178,-459.2988 69.6178,-478.2988 116.6178,-478.2988 116.6178,-459.2988 69.6178,-459.2988"/>
<text text-anchor="start" x="72.6178" y="-465.3988" font-family="Helvetica,sans-Serif" font-size="11.00" fill="#000000">&lt; 1</text>
<polygon fill="#ffffff" stroke="transparent" points="116.6178,-459.2988 116.6178,-478.2988 173.6178,-478.2988 173.6178,-459.2988 116.6178,-459.2988"/>
<polygon fill="none" stroke="#000000" points="116.6178,-459.2988 116.6178,-478.2988 173.6178,-478.2988 173.6178,-459.2988 116.6178,-459.2988"/>
<text text-anchor="start" x="132.1134" y="-465.3988" font-family="Helvetica,sans-Serif" font-size="11.00" fill="#000000">44 rows</text>
<polygon fill="#ffffff" stroke="transparent" points="173.6178,-459.2988 173.6178,-478.2988 207.6178,-478.2988 207.6178,-459.2988 173.6178,-459.2988"/>
<polygon fill="none" stroke="#000000" points="173.6178,-459.2988 173.6178,-478.2988 207.6178,-478.2988 207.6178,-459.2988 173.6178,-459.2988"/>
<text text-anchor="start" x="189.0231" y="-465.3988" font-family="Helvetica,sans-Serif" font-size="11.00" fill="#000000">7 &gt;</text>
</a>
</g>
</g>
<!-- global_UnitMaster&#45;&gt;cabah_col_mtdID -->
<g id="edge7" class="edge">
<title>global_UnitMaster:w&#45;&gt;cabah_col_mtdID:e</title>
<path fill="none" stroke="#000000" d="M271.7231,-482.0998C250.7248,-485.1441 228.49,-487.2988 207.6178,-487.2988"/>
<polygon fill="#000000" stroke="#000000" points="278.1267,-481.1 286.5863,-483.4226 282.0788,-480.4828 286.0309,-479.8657 286.0309,-479.8657 286.0309,-479.8657 282.0788,-480.4828 285.4755,-476.3088 278.1267,-481.1 278.1267,-481.1"/>
<ellipse fill="none" stroke="#000000" cx="274.965" cy="-481.5937" rx="3.2" ry="3.2"/>
</g>
<!-- global_SiteMaster -->
<g id="node7" class="node">
<title>global_SiteMaster</title>
<g id="a_node7"><a xlink:href="../../tables/global_SiteMaster.html" xlink:title="global_SiteMaster" target="_top">
<polygon fill="#ffffff" stroke="transparent" points="68.1178,-107.7988 68.1178,-168.7988 209.1178,-168.7988 209.1178,-107.7988 68.1178,-107.7988"/>
<polygon fill="#f5f5f5" stroke="transparent" points="68.6178,-145.2988 68.6178,-168.2988 209.6178,-168.2988 209.6178,-145.2988 68.6178,-145.2988"/>
<polygon fill="none" stroke="#000000" points="68.6178,-145.2988 68.6178,-168.2988 209.6178,-168.2988 209.6178,-145.2988 68.6178,-145.2988"/>
<text text-anchor="start" x="73.6178" y="-153.8988" font-family="Helvetica,sans-Serif" font-weight="bold" font-size="11.00" fill="#000000">global_SiteMaster</text>
<text text-anchor="start" x="175.1396" y="-153.3988" font-family="Helvetica,sans-Serif" font-size="11.00" fill="#000000">[table]</text>
<polygon fill="none" stroke="#000000" points="68.6178,-126.2988 68.6178,-145.2988 209.6178,-145.2988 209.6178,-126.2988 68.6178,-126.2988"/>
<text text-anchor="start" x="71.6178" y="-132.3988" font-family="Helvetica,sans-Serif" font-size="11.00" fill="#000000">...</text>
<polygon fill="#ffffff" stroke="transparent" points="68.6178,-107.2988 68.6178,-126.2988 103.6178,-126.2988 103.6178,-107.2988 68.6178,-107.2988"/>
<polygon fill="none" stroke="#000000" points="68.6178,-107.2988 68.6178,-126.2988 103.6178,-126.2988 103.6178,-107.2988 68.6178,-107.2988"/>
<text text-anchor="start" x="71.6178" y="-113.3988" font-family="Helvetica,sans-Serif" font-size="11.00" fill="#000000">&lt; 8</text>
<polygon fill="#ffffff" stroke="transparent" points="103.6178,-107.2988 103.6178,-126.2988 175.6178,-126.2988 175.6178,-107.2988 103.6178,-107.2988"/>
<polygon fill="none" stroke="#000000" points="103.6178,-107.2988 103.6178,-126.2988 175.6178,-126.2988 175.6178,-107.2988 103.6178,-107.2988"/>
<text text-anchor="start" x="112.7118" y="-113.3988" font-family="Helvetica,sans-Serif" font-size="11.00" fill="#000000">25.221 rows</text>
<polygon fill="#ffffff" stroke="transparent" points="175.6178,-107.2988 175.6178,-126.2988 209.6178,-126.2988 209.6178,-107.2988 175.6178,-107.2988"/>
<polygon fill="none" stroke="#000000" points="175.6178,-107.2988 175.6178,-126.2988 209.6178,-126.2988 209.6178,-107.2988 175.6178,-107.2988"/>
<text text-anchor="start" x="184.9082" y="-113.3988" font-family="Helvetica,sans-Serif" font-size="11.00" fill="#000000">21 &gt;</text>
</a>
</g>
</g>
<!-- global_UnitMaster&#45;&gt;global_SiteMaster -->
<g id="edge9" class="edge">
<title>global_UnitMaster:w&#45;&gt;global_SiteMaster:e</title>
<path fill="none" stroke="#000000" d="M353.2131,-413.5958C328.566,-322.4663 270.5299,-135.2988 209.6178,-135.2988"/>
<polygon fill="#000000" stroke="#000000" points="354.8872,-419.883 353.4669,-428.54 355.9164,-423.7483 356.9457,-427.6137 356.9457,-427.6137 356.9457,-427.6137 355.9164,-423.7483 360.4245,-426.6874 354.8872,-419.883 354.8872,-419.883"/>
<ellipse fill="none" stroke="#000000" cx="354.0638" cy="-416.7908" rx="3.2" ry="3.2"/>
</g>
<!-- global_RefCore -->
<g id="node8" class="node">
<title>global_RefCore</title>
<g id="a_node8"><a xlink:href="../../tables/global_RefCore.html" xlink:title="global_RefCore" target="_top">
<polygon fill="#ffffff" stroke="transparent" points="75.1178,-377.7988 75.1178,-438.7988 202.1178,-438.7988 202.1178,-377.7988 75.1178,-377.7988"/>
<polygon fill="#f5f5f5" stroke="transparent" points="75.6178,-415.2988 75.6178,-438.2988 202.6178,-438.2988 202.6178,-415.2988 75.6178,-415.2988"/>
<polygon fill="none" stroke="#000000" points="75.6178,-415.2988 75.6178,-438.2988 202.6178,-438.2988 202.6178,-415.2988 75.6178,-415.2988"/>
<text text-anchor="start" x="80.6178" y="-423.8988" font-family="Helvetica,sans-Serif" font-weight="bold" font-size="11.00" fill="#000000">global_RefCore</text>
<text text-anchor="start" x="168.1396" y="-423.3988" font-family="Helvetica,sans-Serif" font-size="11.00" fill="#000000">[table]</text>
<polygon fill="none" stroke="#000000" points="75.6178,-396.2988 75.6178,-415.2988 202.6178,-415.2988 202.6178,-396.2988 75.6178,-396.2988"/>
<text text-anchor="start" x="78.6178" y="-402.3988" font-family="Helvetica,sans-Serif" font-size="11.00" fill="#000000">...</text>
<polygon fill="#ffffff" stroke="transparent" points="75.6178,-377.2988 75.6178,-396.2988 106.6178,-396.2988 106.6178,-377.2988 75.6178,-377.2988"/>
<polygon fill="none" stroke="#000000" points="75.6178,-377.2988 75.6178,-396.2988 106.6178,-396.2988 106.6178,-377.2988 75.6178,-377.2988"/>
<text text-anchor="start" x="78.6178" y="-383.3988" font-family="Helvetica,sans-Serif" font-size="11.00" fill="#000000">&lt; 5</text>
<polygon fill="#ffffff" stroke="transparent" points="106.6178,-377.2988 106.6178,-396.2988 170.6178,-396.2988 170.6178,-377.2988 106.6178,-377.2988"/>
<polygon fill="none" stroke="#000000" points="106.6178,-377.2988 106.6178,-396.2988 170.6178,-396.2988 170.6178,-377.2988 106.6178,-377.2988"/>
<text text-anchor="start" x="113.8267" y="-383.3988" font-family="Helvetica,sans-Serif" font-size="11.00" fill="#000000">3.947 rows</text>
<polygon fill="#ffffff" stroke="transparent" points="170.6178,-377.2988 170.6178,-396.2988 202.6178,-396.2988 202.6178,-377.2988 170.6178,-377.2988"/>
<polygon fill="none" stroke="#000000" points="170.6178,-377.2988 170.6178,-396.2988 202.6178,-396.2988 202.6178,-377.2988 170.6178,-377.2988"/>
<text text-anchor="start" x="177.9082" y="-383.3988" font-family="Helvetica,sans-Serif" font-size="11.00" fill="#000000">37 &gt;</text>
</a>
</g>
</g>
<!-- global_UnitMaster&#45;&gt;global_RefCore -->
<g id="edge10" class="edge">
<title>global_UnitMaster:w&#45;&gt;global_RefCore:e</title>
<path fill="none" stroke="#000000" d="M285.2811,-422.3446C259.5196,-412.7919 230.4438,-405.2988 202.6178,-405.2988"/>
<polygon fill="#000000" stroke="#000000" points="291.3769,-424.7386 297.5072,-431.014 295.1,-426.2009 298.8232,-427.6631 298.8232,-427.6631 298.8232,-427.6631 295.1,-426.2009 300.1392,-424.3123 291.3769,-424.7386 291.3769,-424.7386"/>
<ellipse fill="none" stroke="#000000" cx="288.3984" cy="-423.5688" rx="3.2" ry="3.2"/>
</g>
<!-- cabah_unittypeID -->
<g id="node9" class="node">
<title>cabah_unittypeID</title>
<g id="a_node9"><a xlink:href="../../tables/cabah_unittypeID.html" xlink:title="cabah_unittypeID" target="_top">
<polygon fill="#ffffff" stroke="transparent" points="69.1178,-295.7988 69.1178,-356.7988 208.1178,-356.7988 208.1178,-295.7988 69.1178,-295.7988"/>
<polygon fill="#f5f5f5" stroke="transparent" points="69.6178,-333.2988 69.6178,-356.2988 208.6178,-356.2988 208.6178,-333.2988 69.6178,-333.2988"/>
<polygon fill="none" stroke="#000000" points="69.6178,-333.2988 69.6178,-356.2988 208.6178,-356.2988 208.6178,-333.2988 69.6178,-333.2988"/>
<text text-anchor="start" x="74.6178" y="-341.8988" font-family="Helvetica,sans-Serif" font-weight="bold" font-size="11.00" fill="#000000">cabah_unittypeID</text>
<text text-anchor="start" x="174.1396" y="-341.3988" font-family="Helvetica,sans-Serif" font-size="11.00" fill="#000000">[table]</text>
<polygon fill="none" stroke="#000000" points="69.6178,-314.2988 69.6178,-333.2988 208.6178,-333.2988 208.6178,-314.2988 69.6178,-314.2988"/>
<text text-anchor="start" x="72.6178" y="-320.3988" font-family="Helvetica,sans-Serif" font-size="11.00" fill="#000000">...</text>
<polygon fill="#ffffff" stroke="transparent" points="69.6178,-295.2988 69.6178,-314.2988 112.6178,-314.2988 112.6178,-295.2988 69.6178,-295.2988"/>
<polygon fill="none" stroke="#000000" points="69.6178,-295.2988 69.6178,-314.2988 112.6178,-314.2988 112.6178,-295.2988 69.6178,-295.2988"/>
<text text-anchor="start" x="72.6178" y="-301.3988" font-family="Helvetica,sans-Serif" font-size="11.00" fill="#000000"> &#160;</text>
<polygon fill="#ffffff" stroke="transparent" points="112.6178,-295.2988 112.6178,-314.2988 171.6178,-314.2988 171.6178,-295.2988 112.6178,-295.2988"/>
<polygon fill="none" stroke="#000000" points="112.6178,-295.2988 112.6178,-314.2988 171.6178,-314.2988 171.6178,-295.2988 112.6178,-295.2988"/>
<text text-anchor="start" x="130.1134" y="-301.3988" font-family="Helvetica,sans-Serif" font-size="11.00" fill="#000000">16 rows</text>
<polygon fill="#ffffff" stroke="transparent" points="171.6178,-295.2988 171.6178,-314.2988 208.6178,-314.2988 208.6178,-295.2988 171.6178,-295.2988"/>
<polygon fill="none" stroke="#000000" points="171.6178,-295.2988 171.6178,-314.2988 208.6178,-314.2988 208.6178,-295.2988 171.6178,-295.2988"/>
<text text-anchor="start" x="190.0231" y="-301.3988" font-family="Helvetica,sans-Serif" font-size="11.00" fill="#000000">1 &gt;</text>
</a>
</g>
</g>
<!-- global_UnitMaster&#45;&gt;cabah_unittypeID -->
<g id="edge11" class="edge">
<title>global_UnitMaster:w&#45;&gt;cabah_unittypeID:e</title>
<path fill="none" stroke="#000000" d="M338.4571,-415.2329C311.2807,-374.909 265.4057,-323.2988 208.6178,-323.2988"/>
<polygon fill="#000000" stroke="#000000" points="342.1017,-420.8653 343.4255,-429.5376 344.2748,-424.2236 346.4479,-427.5818 346.4479,-427.5818 346.4479,-427.5818 344.2748,-424.2236 349.4703,-425.626 342.1017,-420.8653 342.1017,-420.8653"/>
<ellipse fill="none" stroke="#000000" cx="340.3632" cy="-418.1787" rx="3.2" ry="3.2"/>
</g>
<!-- char_Sample -->
<g id="node4" class="node">
<title>char_Sample</title>
<g id="a_node4"><a xlink:href="../../tables/char_Sample.html" xlink:title="char_Sample" target="_top">
<polygon fill="#ffffff" stroke="transparent" points="549.6178,-351.7988 549.6178,-412.7988 662.6178,-412.7988 662.6178,-351.7988 549.6178,-351.7988"/>
<polygon fill="#f5f5f5" stroke="transparent" points="550.1178,-389.2988 550.1178,-412.2988 663.1178,-412.2988 663.1178,-389.2988 550.1178,-389.2988"/>
<polygon fill="none" stroke="#000000" points="550.1178,-389.2988 550.1178,-412.2988 663.1178,-412.2988 663.1178,-389.2988 550.1178,-389.2988"/>
<text text-anchor="start" x="555.1178" y="-397.8988" font-family="Helvetica,sans-Serif" font-weight="bold" font-size="11.00" fill="#000000">char_Sample</text>
<text text-anchor="start" x="628.6396" y="-397.3988" font-family="Helvetica,sans-Serif" font-size="11.00" fill="#000000">[table]</text>
<polygon fill="none" stroke="#000000" points="550.1178,-370.2988 550.1178,-389.2988 663.1178,-389.2988 663.1178,-370.2988 550.1178,-370.2988"/>
<text text-anchor="start" x="553.1178" y="-376.3988" font-family="Helvetica,sans-Serif" font-size="11.00" fill="#000000">...</text>
<polygon fill="#ffffff" stroke="transparent" points="550.1178,-351.2988 550.1178,-370.2988 574.1178,-370.2988 574.1178,-351.2988 550.1178,-351.2988"/>
<polygon fill="none" stroke="#000000" points="550.1178,-351.2988 550.1178,-370.2988 574.1178,-370.2988 574.1178,-351.2988 550.1178,-351.2988"/>
<text text-anchor="start" x="553.1178" y="-357.3988" font-family="Helvetica,sans-Serif" font-size="11.00" fill="#000000">&lt; 1</text>
<polygon fill="#ffffff" stroke="transparent" points="574.1178,-351.2988 574.1178,-370.2988 640.1178,-370.2988 640.1178,-351.2988 574.1178,-351.2988"/>
<polygon fill="none" stroke="#000000" points="574.1178,-351.2988 574.1178,-370.2988 640.1178,-370.2988 640.1178,-351.2988 574.1178,-351.2988"/>
<text text-anchor="start" x="577.2118" y="-357.3988" font-family="Helvetica,sans-Serif" font-size="11.00" fill="#000000">41.793 rows</text>
<polygon fill="#ffffff" stroke="transparent" points="640.1178,-351.2988 640.1178,-370.2988 663.1178,-370.2988 663.1178,-351.2988 640.1178,-351.2988"/>
<polygon fill="none" stroke="#000000" points="640.1178,-351.2988 640.1178,-370.2988 663.1178,-370.2988 663.1178,-351.2988 640.1178,-351.2988"/>
<text text-anchor="start" x="644.5231" y="-357.3988" font-family="Helvetica,sans-Serif" font-size="11.00" fill="#000000">2 &gt;</text>
</a>
</g>
</g>
<!-- char_Sample&#45;&gt;global_UnitMaster -->
<g id="edge5" class="edge">
<title>char_Sample:w&#45;&gt;global_UnitMaster:e</title>
<path fill="none" stroke="#000000" d="M535.4807,-380.0031C490.3689,-384.2599 445.4343,-407.0572 413.1223,-427.5803"/>
<polygon fill="#000000" stroke="#000000" points="542.127,-379.6833 550.2908,-382.8947 546.1224,-379.4911 550.1178,-379.2988 550.1178,-379.2988 550.1178,-379.2988 546.1224,-379.4911 549.9448,-375.703 542.127,-379.6833 542.127,-379.6833"/>
<ellipse fill="none" stroke="#000000" cx="538.9307" cy="-379.8371" rx="3.2" ry="3.2"/>
</g>
<!-- global_DataSetMaster -->
<g id="node5" class="node">
<title>global_DataSetMaster</title>
<g id="a_node5"><a xlink:href="../../tables/global_DataSetMaster.html" xlink:title="global_DataSetMaster" target="_top">
<polygon fill="#ffffff" stroke="transparent" points="524.1178,-571.7988 524.1178,-632.7988 688.1178,-632.7988 688.1178,-571.7988 524.1178,-571.7988"/>
<polygon fill="#f5f5f5" stroke="transparent" points="524.1178,-609.2988 524.1178,-632.2988 688.1178,-632.2988 688.1178,-609.2988 524.1178,-609.2988"/>
<polygon fill="none" stroke="#000000" points="524.1178,-609.2988 524.1178,-632.2988 688.1178,-632.2988 688.1178,-609.2988 524.1178,-609.2988"/>
<text text-anchor="start" x="529.1178" y="-617.8988" font-family="Helvetica,sans-Serif" font-weight="bold" font-size="11.00" fill="#000000">global_DataSetMaster</text>
<text text-anchor="start" x="653.6396" y="-617.3988" font-family="Helvetica,sans-Serif" font-size="11.00" fill="#000000">[table]</text>
<polygon fill="none" stroke="#000000" points="524.1178,-590.2988 524.1178,-609.2988 688.1178,-609.2988 688.1178,-590.2988 524.1178,-590.2988"/>
<text text-anchor="start" x="527.1178" y="-596.3988" font-family="Helvetica,sans-Serif" font-size="11.00" fill="#000000">...</text>
<polygon fill="#ffffff" stroke="transparent" points="524.1178,-571.2988 524.1178,-590.2988 581.1178,-590.2988 581.1178,-571.2988 524.1178,-571.2988"/>
<polygon fill="none" stroke="#000000" points="524.1178,-571.2988 524.1178,-590.2988 581.1178,-590.2988 581.1178,-571.2988 524.1178,-571.2988"/>
<text text-anchor="start" x="527.1178" y="-577.3988" font-family="Helvetica,sans-Serif" font-size="11.00" fill="#000000">&lt; 3</text>
<polygon fill="#ffffff" stroke="transparent" points="581.1178,-571.2988 581.1178,-590.2988 649.1178,-590.2988 649.1178,-571.2988 581.1178,-571.2988"/>
<polygon fill="none" stroke="#000000" points="581.1178,-571.2988 581.1178,-590.2988 649.1178,-590.2988 649.1178,-571.2988 581.1178,-571.2988"/>
<text text-anchor="start" x="601.4985" y="-577.3988" font-family="Helvetica,sans-Serif" font-size="11.00" fill="#000000">311 rows</text>
<polygon fill="#ffffff" stroke="transparent" points="649.1178,-571.2988 649.1178,-590.2988 688.1178,-590.2988 688.1178,-571.2988 649.1178,-571.2988"/>
<polygon fill="none" stroke="#000000" points="649.1178,-571.2988 649.1178,-590.2988 688.1178,-590.2988 688.1178,-571.2988 649.1178,-571.2988"/>
<text text-anchor="start" x="669.5231" y="-577.3988" font-family="Helvetica,sans-Serif" font-size="11.00" fill="#000000">5 &gt;</text>
</a>
</g>
</g>
<!-- global_DataSetMaster&#45;&gt;global_UnitMaster -->
<g id="edge6" class="edge">
<title>global_DataSetMaster:w&#45;&gt;global_UnitMaster:e</title>
<path fill="none" stroke="#000000" d="M509.69,-598.206C453.8847,-589.7654 409.474,-534.2841 385.4074,-496.8697"/>
<polygon fill="#000000" stroke="#000000" points="516.1406,-598.6946 523.8459,-602.8885 520.1292,-598.9967 524.1178,-599.2988 524.1178,-599.2988 524.1178,-599.2988 520.1292,-598.9967 524.3897,-595.7091 516.1406,-598.6946 516.1406,-598.6946"/>
<ellipse fill="none" stroke="#000000" cx="512.9498" cy="-598.4529" rx="3.2" ry="3.2"/>
</g>
<!-- ippd_baseline_pollen -->
<g id="node10" class="node">
<title>ippd_baseline_pollen</title>
<g id="a_node10"><a xlink:href="../../tables/ippd_baseline_pollen.html" xlink:title="ippd_baseline_pollen" target="_top">
<polygon fill="#ffffff" stroke="transparent" points="775.1178,-490.7988 775.1178,-551.7988 936.1178,-551.7988 936.1178,-490.7988 775.1178,-490.7988"/>
<polygon fill="#f5f5f5" stroke="transparent" points="775.6178,-528.2988 775.6178,-551.2988 936.6178,-551.2988 936.6178,-528.2988 775.6178,-528.2988"/>
<polygon fill="none" stroke="#000000" points="775.6178,-528.2988 775.6178,-551.2988 936.6178,-551.2988 936.6178,-528.2988 775.6178,-528.2988"/>
<text text-anchor="start" x="780.6178" y="-536.8988" font-family="Helvetica,sans-Serif" font-weight="bold" font-size="11.00" fill="#000000">ippd_baseline_pollen</text>
<text text-anchor="start" x="902.1396" y="-536.3988" font-family="Helvetica,sans-Serif" font-size="11.00" fill="#000000">[table]</text>
<polygon fill="none" stroke="#000000" points="775.6178,-509.2988 775.6178,-528.2988 936.6178,-528.2988 936.6178,-509.2988 775.6178,-509.2988"/>
<text text-anchor="start" x="778.6178" y="-515.3988" font-family="Helvetica,sans-Serif" font-size="11.00" fill="#000000">...</text>
<polygon fill="#ffffff" stroke="transparent" points="775.6178,-490.2988 775.6178,-509.2988 824.6178,-509.2988 824.6178,-490.2988 775.6178,-490.2988"/>
<polygon fill="none" stroke="#000000" points="775.6178,-490.2988 775.6178,-509.2988 824.6178,-509.2988 824.6178,-490.2988 775.6178,-490.2988"/>
<text text-anchor="start" x="778.6178" y="-496.3988" font-family="Helvetica,sans-Serif" font-size="11.00" fill="#000000">&lt; 5</text>
<polygon fill="#ffffff" stroke="transparent" points="824.6178,-490.2988 824.6178,-509.2988 910.6178,-509.2988 910.6178,-490.2988 824.6178,-490.2988"/>
<polygon fill="none" stroke="#000000" points="824.6178,-490.2988 824.6178,-509.2988 910.6178,-509.2988 910.6178,-490.2988 824.6178,-490.2988"/>
<text text-anchor="start" x="841.5969" y="-496.3988" font-family="Helvetica,sans-Serif" font-size="11.00" fill="#000000">155.952 rows</text>
<polygon fill="#ffffff" stroke="transparent" points="910.6178,-490.2988 910.6178,-509.2988 936.6178,-509.2988 936.6178,-490.2988 910.6178,-490.2988"/>
<polygon fill="none" stroke="#000000" points="910.6178,-490.2988 910.6178,-509.2988 936.6178,-509.2988 936.6178,-490.2988 910.6178,-490.2988"/>
<text text-anchor="start" x="927.504" y="-496.3988" font-family="Helvetica,sans-Serif" font-size="11.00" fill="#000000"> &#160;</text>
</a>
</g>
</g>
<!-- ippd_baseline_pollen&#45;&gt;global_UnitMaster -->
<g id="edge15" class="edge">
<title>ippd_baseline_pollen:w&#45;&gt;global_UnitMaster:e</title>
<path fill="none" stroke="#000000" stroke-dasharray="5,2" d="M761.193,-521.0962C752.7639,-524.7549 747.399,-530.9723 734.1178,-533.2988 622.0466,-552.9311 587.4175,-564.9049 478.1178,-533.2988 452.825,-525.9849 427.7495,-511.1054 407.7134,-496.8488"/>
<polygon fill="#000000" stroke="#000000" points="767.7641,-519.8219 776.3032,-521.833 771.691,-519.0604 775.6178,-518.2988 775.6178,-518.2988 775.6178,-518.2988 771.691,-519.0604 774.9324,-514.7647 767.7641,-519.8219 767.7641,-519.8219"/>
<ellipse fill="none" stroke="#000000" cx="764.6226" cy="-520.4312" rx="3.2" ry="3.2"/>
</g>
<!-- ippd_baseline_pollen&#45;&gt;global_DataSetMaster -->
<g id="edge13" class="edge">
<title>ippd_baseline_pollen:w&#45;&gt;global_DataSetMaster:e</title>
<path fill="none" stroke="#000000" stroke-dasharray="5,2" d="M761.4094,-521.7598C750.2307,-528.5883 748.1893,-544.2642 734.1178,-557.2988 713.8081,-576.112 715.8021,-599.2988 688.1178,-599.2988"/>
<polygon fill="#000000" stroke="#000000" points="767.8451,-520.1922 776.4698,-521.7965 771.7314,-519.2455 775.6178,-518.2988 775.6178,-518.2988 775.6178,-518.2988 771.7314,-519.2455 774.7658,-514.8011 767.8451,-520.1922 767.8451,-520.1922"/>
<ellipse fill="none" stroke="#000000" cx="764.736" cy="-520.9495" rx="3.2" ry="3.2"/>
</g>
<!-- ippd_baseline_pollen&#45;&gt;global_SiteMaster -->
<g id="edge14" class="edge">
<title>ippd_baseline_pollen:w&#45;&gt;global_SiteMaster:e</title>
<path fill="none" stroke="#000000" stroke-dasharray="5,2" d="M761.5113,-514.3273C705.8604,-477.8853 790.5347,-201.7572 734.1178,-149.2988 691.4239,-109.6005 267.9163,-135.2988 209.6178,-135.2988"/>
<polygon fill="#000000" stroke="#000000" points="767.9172,-516.1307 774.6422,-521.7641 771.7675,-517.2148 775.6178,-518.2988 775.6178,-518.2988 775.6178,-518.2988 771.7675,-517.2148 776.5934,-514.8335 767.9172,-516.1307 767.9172,-516.1307"/>
<ellipse fill="none" stroke="#000000" cx="764.8369" cy="-515.2635" rx="3.2" ry="3.2"/>
</g>
<!-- neo_chronologies -->
<g id="node11" class="node">
<title>neo_chronologies</title>
<g id="a_node11"><a xlink:href="../../tables/neo_chronologies.html" xlink:title="neo_chronologies" target="_top">
<polygon fill="#ffffff" stroke="transparent" points="535.1178,-461.7988 535.1178,-522.7988 677.1178,-522.7988 677.1178,-461.7988 535.1178,-461.7988"/>
<polygon fill="#f5f5f5" stroke="transparent" points="535.1178,-499.2988 535.1178,-522.2988 677.1178,-522.2988 677.1178,-499.2988 535.1178,-499.2988"/>
<polygon fill="none" stroke="#000000" points="535.1178,-499.2988 535.1178,-522.2988 677.1178,-522.2988 677.1178,-499.2988 535.1178,-499.2988"/>
<text text-anchor="start" x="540.1178" y="-507.8988" font-family="Helvetica,sans-Serif" font-weight="bold" font-size="11.00" fill="#000000">neo_chronologies</text>
<text text-anchor="start" x="642.6396" y="-507.3988" font-family="Helvetica,sans-Serif" font-size="11.00" fill="#000000">[table]</text>
<polygon fill="none" stroke="#000000" points="535.1178,-480.2988 535.1178,-499.2988 677.1178,-499.2988 677.1178,-480.2988 535.1178,-480.2988"/>
<text text-anchor="start" x="538.1178" y="-486.3988" font-family="Helvetica,sans-Serif" font-size="11.00" fill="#000000">...</text>
<polygon fill="#ffffff" stroke="transparent" points="535.1178,-461.2988 535.1178,-480.2988 573.1178,-480.2988 573.1178,-461.2988 535.1178,-461.2988"/>
<polygon fill="none" stroke="#000000" points="535.1178,-461.2988 535.1178,-480.2988 573.1178,-480.2988 573.1178,-461.2988 535.1178,-461.2988"/>
<text text-anchor="start" x="538.1178" y="-467.3988" font-family="Helvetica,sans-Serif" font-size="11.00" fill="#000000">&lt; 4</text>
<polygon fill="#ffffff" stroke="transparent" points="573.1178,-461.2988 573.1178,-480.2988 647.1178,-480.2988 647.1178,-461.2988 573.1178,-461.2988"/>
<polygon fill="none" stroke="#000000" points="573.1178,-461.2988 573.1178,-480.2988 647.1178,-480.2988 647.1178,-461.2988 573.1178,-461.2988"/>
<text text-anchor="start" x="584.2118" y="-467.3988" font-family="Helvetica,sans-Serif" font-size="11.00" fill="#000000">31.641 rows</text>
<polygon fill="#ffffff" stroke="transparent" points="647.1178,-461.2988 647.1178,-480.2988 677.1178,-480.2988 677.1178,-461.2988 647.1178,-461.2988"/>
<polygon fill="none" stroke="#000000" points="647.1178,-461.2988 647.1178,-480.2988 677.1178,-480.2988 677.1178,-461.2988 647.1178,-461.2988"/>
<text text-anchor="start" x="658.5231" y="-467.3988" font-family="Helvetica,sans-Serif" font-size="11.00" fill="#000000">2 &gt;</text>
</a>
</g>
</g>
<!-- ippd_baseline_pollen&#45;&gt;neo_chronologies -->
<g id="edge12" class="edge">
<title>ippd_baseline_pollen:w&#45;&gt;neo_chronologies:e</title>
<path fill="none" stroke="#000000" stroke-dasharray="5,2" d="M761.0327,-517.1974C727.7604,-511.9002 717.4056,-489.2988 677.1178,-489.2988"/>
<polygon fill="#000000" stroke="#000000" points="767.6405,-517.6963 775.3467,-521.8886 771.6292,-517.9976 775.6178,-518.2988 775.6178,-518.2988 775.6178,-518.2988 771.6292,-517.9976 775.8889,-514.709 767.6405,-517.6963 767.6405,-517.6963"/>
<ellipse fill="none" stroke="#000000" cx="764.4496" cy="-517.4554" rx="3.2" ry="3.2"/>
</g>
<!-- neo_chronologies&#45;&gt;global_UnitMaster -->
<g id="edge22" class="edge">
<title>neo_chronologies:w&#45;&gt;global_UnitMaster:e</title>
<path fill="none" stroke="#000000" stroke-dasharray="5,2" d="M520.7752,-487.9551C495.4557,-485.2289 469.0696,-480.6402 445.3906,-476.0392"/>
<polygon fill="#000000" stroke="#000000" points="527.1527,-488.5526 534.782,-492.8831 531.1352,-488.9257 535.1178,-489.2988 535.1178,-489.2988 535.1178,-489.2988 531.1352,-488.9257 535.4536,-485.7145 527.1527,-488.5526 527.1527,-488.5526"/>
<ellipse fill="none" stroke="#000000" cx="523.9666" cy="-488.2541" rx="3.2" ry="3.2"/>
</g>
<!-- neo_chronologies&#45;&gt;global_UnitMaster -->
<g id="edge23" class="edge">
<title>neo_chronologies:w&#45;&gt;global_UnitMaster:e</title>
<path fill="none" stroke="#000000" d="M520.4218,-490.2344C495.2103,-491.1729 468.9594,-488.9162 445.3906,-485.2887"/>
<polygon fill="#000000" stroke="#000000" points="527.134,-489.8071 535.3465,-492.8915 531.1259,-489.553 535.1178,-489.2988 535.1178,-489.2988 535.1178,-489.2988 531.1259,-489.553 534.8891,-485.7061 527.134,-489.8071 527.134,-489.8071"/>
<ellipse fill="none" stroke="#000000" cx="523.9404" cy="-490.0105" rx="3.2" ry="3.2"/>
</g>
<!-- ippd_datasets -->
<g id="node12" class="node">
<title>ippd_datasets</title>
<g id="a_node12"><a xlink:href="../../tables/ippd_datasets.html" xlink:title="ippd_datasets" target="_top">
<polygon fill="#ffffff" stroke="transparent" points="796.1178,-408.7988 796.1178,-469.7988 915.1178,-469.7988 915.1178,-408.7988 796.1178,-408.7988"/>
<polygon fill="#f5f5f5" stroke="transparent" points="796.6178,-446.2988 796.6178,-469.2988 915.6178,-469.2988 915.6178,-446.2988 796.6178,-446.2988"/>
<polygon fill="none" stroke="#000000" points="796.6178,-446.2988 796.6178,-469.2988 915.6178,-469.2988 915.6178,-446.2988 796.6178,-446.2988"/>
<text text-anchor="start" x="801.6178" y="-454.8988" font-family="Helvetica,sans-Serif" font-weight="bold" font-size="11.00" fill="#000000">ippd_datasets</text>
<text text-anchor="start" x="881.1396" y="-454.3988" font-family="Helvetica,sans-Serif" font-size="11.00" fill="#000000">[table]</text>
<polygon fill="none" stroke="#000000" points="796.6178,-427.2988 796.6178,-446.2988 915.6178,-446.2988 915.6178,-427.2988 796.6178,-427.2988"/>
<text text-anchor="start" x="799.6178" y="-433.3988" font-family="Helvetica,sans-Serif" font-size="11.00" fill="#000000">...</text>
<polygon fill="#ffffff" stroke="transparent" points="796.6178,-408.2988 796.6178,-427.2988 835.6178,-427.2988 835.6178,-408.2988 796.6178,-408.2988"/>
<polygon fill="none" stroke="#000000" points="796.6178,-408.2988 796.6178,-427.2988 835.6178,-427.2988 835.6178,-408.2988 796.6178,-408.2988"/>
<text text-anchor="start" x="799.6178" y="-414.3988" font-family="Helvetica,sans-Serif" font-size="11.00" fill="#000000">&lt; 6</text>
<polygon fill="#ffffff" stroke="transparent" points="835.6178,-408.2988 835.6178,-427.2988 894.6178,-427.2988 894.6178,-408.2988 835.6178,-408.2988"/>
<polygon fill="none" stroke="#000000" points="835.6178,-408.2988 835.6178,-427.2988 894.6178,-427.2988 894.6178,-408.2988 835.6178,-408.2988"/>
<text text-anchor="start" x="846.9985" y="-414.3988" font-family="Helvetica,sans-Serif" font-size="11.00" fill="#000000">311 rows</text>
<polygon fill="#ffffff" stroke="transparent" points="894.6178,-408.2988 894.6178,-427.2988 915.6178,-427.2988 915.6178,-408.2988 894.6178,-408.2988"/>
<polygon fill="none" stroke="#000000" points="894.6178,-408.2988 894.6178,-427.2988 915.6178,-427.2988 915.6178,-408.2988 894.6178,-408.2988"/>
<text text-anchor="start" x="906.504" y="-414.3988" font-family="Helvetica,sans-Serif" font-size="11.00" fill="#000000"> &#160;</text>
</a>
</g>
</g>
<!-- ippd_datasets&#45;&gt;global_UnitMaster -->
<g id="edge18" class="edge">
<title>ippd_datasets:w&#45;&gt;global_UnitMaster:e</title>
<path fill="none" stroke="#000000" stroke-dasharray="5,2" d="M782.0564,-436.3165C652.2822,-436.6408 614.4913,-441.4267 478.1178,-451.2988 467.4504,-452.071 456.2262,-453.013 445.1658,-454.0174"/>
<polygon fill="#000000" stroke="#000000" points="788.6178,-436.3086 796.6222,-439.8988 792.6178,-436.3037 796.6178,-436.2988 796.6178,-436.2988 796.6178,-436.2988 792.6178,-436.3037 796.6134,-432.6988 788.6178,-436.3086 788.6178,-436.3086"/>
<ellipse fill="none" stroke="#000000" cx="785.4178" cy="-436.3125" rx="3.2" ry="3.2"/>
</g>
<!-- ippd_datasets&#45;&gt;global_DataSetMaster -->
<g id="edge16" class="edge">
<title>ippd_datasets:w&#45;&gt;global_DataSetMaster:e</title>
<path fill="none" stroke="#000000" stroke-dasharray="5,2" d="M782.0139,-438.1294C717.1895,-456.0371 769.705,-599.2988 688.1178,-599.2988"/>
<polygon fill="#000000" stroke="#000000" points="788.6799,-437.2939 797.0656,-439.8709 792.6489,-436.7963 796.6178,-436.2988 796.6178,-436.2988 796.6178,-436.2988 792.6489,-436.7963 796.17,-432.7268 788.6799,-437.2939 788.6799,-437.2939"/>
<ellipse fill="none" stroke="#000000" cx="785.5048" cy="-437.6919" rx="3.2" ry="3.2"/>
</g>
<!-- ippd_datasets&#45;&gt;global_SiteMaster -->
<g id="edge17" class="edge">
<title>ippd_datasets:w&#45;&gt;global_SiteMaster:e</title>
<path fill="none" stroke="#000000" stroke-dasharray="5,2" d="M782.6902,-431.9067C734.7633,-397.2567 783.1327,-168.1776 734.1178,-125.2988 659.1876,-59.749 385.4632,-118.8332 286.1178,-125.2988 251.9009,-127.5257 243.907,-135.2988 209.6178,-135.2988"/>
<polygon fill="#000000" stroke="#000000" points="788.9882,-433.8927 795.5351,-439.7321 792.803,-435.0958 796.6178,-436.2988 796.6178,-436.2988 796.6178,-436.2988 792.803,-435.0958 797.7005,-432.8655 788.9882,-433.8927 788.9882,-433.8927"/>
<ellipse fill="none" stroke="#000000" cx="785.9363" cy="-432.9303" rx="3.2" ry="3.2"/>
</g>
<!-- ippd_Sample -->
<g id="node13" class="node">
<title>ippd_Sample</title>
<g id="a_node13"><a xlink:href="../../tables/ippd_Sample.html" xlink:title="ippd_Sample" target="_top">
<polygon fill="#ffffff" stroke="transparent" points="799.1178,-572.7988 799.1178,-633.7988 912.1178,-633.7988 912.1178,-572.7988 799.1178,-572.7988"/>
<polygon fill="#f5f5f5" stroke="transparent" points="799.6178,-610.2988 799.6178,-633.2988 912.6178,-633.2988 912.6178,-610.2988 799.6178,-610.2988"/>
<polygon fill="none" stroke="#000000" points="799.6178,-610.2988 799.6178,-633.2988 912.6178,-633.2988 912.6178,-610.2988 799.6178,-610.2988"/>
<text text-anchor="start" x="804.6178" y="-618.8988" font-family="Helvetica,sans-Serif" font-weight="bold" font-size="11.00" fill="#000000">ippd_Sample</text>
<text text-anchor="start" x="878.1396" y="-618.3988" font-family="Helvetica,sans-Serif" font-size="11.00" fill="#000000">[table]</text>
<polygon fill="none" stroke="#000000" points="799.6178,-591.2988 799.6178,-610.2988 912.6178,-610.2988 912.6178,-591.2988 799.6178,-591.2988"/>
<text text-anchor="start" x="802.6178" y="-597.3988" font-family="Helvetica,sans-Serif" font-size="11.00" fill="#000000">...</text>
<polygon fill="#ffffff" stroke="transparent" points="799.6178,-572.2988 799.6178,-591.2988 823.6178,-591.2988 823.6178,-572.2988 799.6178,-572.2988"/>
<polygon fill="none" stroke="#000000" points="799.6178,-572.2988 799.6178,-591.2988 823.6178,-591.2988 823.6178,-572.2988 799.6178,-572.2988"/>
<text text-anchor="start" x="802.6178" y="-578.3988" font-family="Helvetica,sans-Serif" font-size="11.00" fill="#000000">&lt; 4</text>
<polygon fill="#ffffff" stroke="transparent" points="823.6178,-572.2988 823.6178,-591.2988 889.6178,-591.2988 889.6178,-572.2988 823.6178,-572.2988"/>
<polygon fill="none" stroke="#000000" points="823.6178,-572.2988 823.6178,-591.2988 889.6178,-591.2988 889.6178,-572.2988 823.6178,-572.2988"/>
<text text-anchor="start" x="826.7118" y="-578.3988" font-family="Helvetica,sans-Serif" font-size="11.00" fill="#000000">18.370 rows</text>
<polygon fill="#ffffff" stroke="transparent" points="889.6178,-572.2988 889.6178,-591.2988 912.6178,-591.2988 912.6178,-572.2988 889.6178,-572.2988"/>
<polygon fill="none" stroke="#000000" points="889.6178,-572.2988 889.6178,-591.2988 912.6178,-591.2988 912.6178,-572.2988 889.6178,-572.2988"/>
<text text-anchor="start" x="894.0231" y="-578.3988" font-family="Helvetica,sans-Serif" font-size="11.00" fill="#000000">3 &gt;</text>
</a>
</g>
</g>
<!-- ippd_Sample&#45;&gt;cabah_AnalysisUnit -->
<g id="edge19" class="edge">
<title>ippd_Sample:w&#45;&gt;cabah_AnalysisUnit:e</title>
<path fill="none" stroke="#000000" d="M785.3451,-602.2847C764.2088,-608.9329 760.5103,-630.6974 734.1178,-643.2988 720.4305,-649.8339 705.4419,-655.6937 690.6951,-660.7996"/>
<polygon fill="#000000" stroke="#000000" points="791.6941,-601.4014 800.1139,-603.8645 795.656,-600.8501 799.6178,-600.2988 799.6178,-600.2988 799.6178,-600.2988 795.656,-600.8501 799.1217,-596.7332 791.6941,-601.4014 791.6941,-601.4014"/>
<ellipse fill="none" stroke="#000000" cx="788.5247" cy="-601.8424" rx="3.2" ry="3.2"/>
</g>
<!-- ippd_Sample&#45;&gt;global_DataSetMaster -->
<g id="edge20" class="edge">
<title>ippd_Sample:w&#45;&gt;global_DataSetMaster:e</title>
<path fill="none" stroke="#000000" d="M785.0907,-598.5696C747.0343,-594.1657 732.4486,-593.9316 688.1178,-599.2988"/>
<polygon fill="#000000" stroke="#000000" points="791.6739,-599.3532 799.1922,-603.8736 795.6458,-599.826 799.6178,-600.2988 799.6178,-600.2988 799.6178,-600.2988 795.6458,-599.826 800.0433,-596.7241 791.6739,-599.3532 791.6739,-599.3532"/>
<ellipse fill="none" stroke="#000000" cx="788.4963" cy="-598.9749" rx="3.2" ry="3.2"/>
</g>
<!-- ippd_Sample&#45;&gt;global_DataSetMaster -->
<g id="edge21" class="edge">
<title>ippd_Sample:w&#45;&gt;global_DataSetMaster:e</title>
<path fill="none" stroke="#000000" d="M785.0907,-602.249C747.0343,-607.0211 732.4486,-605.5605 688.1178,-599.2988"/>
<polygon fill="#000000" stroke="#000000" points="791.6889,-601.3633 800.0968,-603.8668 795.6534,-600.8311 799.6178,-600.2988 799.6178,-600.2988 799.6178,-600.2988 795.6534,-600.8311 799.1388,-596.7308 791.6889,-601.3633 791.6889,-601.3633"/>
<ellipse fill="none" stroke="#000000" cx="788.5174" cy="-601.7891" rx="3.2" ry="3.2"/>
</g>
<!-- sahulchar -->
<g id="node14" class="node">
<title>sahulchar</title>
<g id="a_node14"><a xlink:href="../../tables/sahulchar.html" xlink:title="sahulchar" target="_top">
<polygon fill="#ffffff" stroke="transparent" points="806.6178,-299.7988 806.6178,-360.7988 904.6178,-360.7988 904.6178,-299.7988 806.6178,-299.7988"/>
<polygon fill="#f5f5f5" stroke="transparent" points="806.6178,-337.2988 806.6178,-360.2988 904.6178,-360.2988 904.6178,-337.2988 806.6178,-337.2988"/>
<polygon fill="none" stroke="#000000" points="806.6178,-337.2988 806.6178,-360.2988 904.6178,-360.2988 904.6178,-337.2988 806.6178,-337.2988"/>
<text text-anchor="start" x="811.6178" y="-345.8988" font-family="Helvetica,sans-Serif" font-weight="bold" font-size="11.00" fill="#000000">sahulchar</text>
<text text-anchor="start" x="869.6615" y="-345.3988" font-family="Helvetica,sans-Serif" font-size="11.00" fill="#000000">[table]</text>
<polygon fill="none" stroke="#000000" points="806.6178,-318.2988 806.6178,-337.2988 904.6178,-337.2988 904.6178,-318.2988 806.6178,-318.2988"/>
<text text-anchor="start" x="809.6178" y="-324.3988" font-family="Helvetica,sans-Serif" font-size="11.00" fill="#000000">...</text>
<polygon fill="#ffffff" stroke="transparent" points="806.6178,-299.2988 806.6178,-318.2988 827.6178,-318.2988 827.6178,-299.2988 806.6178,-299.2988"/>
<polygon fill="none" stroke="#000000" points="806.6178,-299.2988 806.6178,-318.2988 827.6178,-318.2988 827.6178,-299.2988 806.6178,-299.2988"/>
<text text-anchor="start" x="809.3204" y="-305.3988" font-family="Helvetica,sans-Serif" font-size="11.00" fill="#000000">&lt; 5</text>
<polygon fill="#ffffff" stroke="transparent" points="827.6178,-299.2988 827.6178,-318.2988 892.6178,-318.2988 892.6178,-299.2988 827.6178,-299.2988"/>
<polygon fill="none" stroke="#000000" points="827.6178,-299.2988 827.6178,-318.2988 892.6178,-318.2988 892.6178,-299.2988 827.6178,-299.2988"/>
<text text-anchor="start" x="830.1648" y="-305.3988" font-family="Helvetica,sans-Serif" font-size="11.00" fill="#000000">48.234 rows</text>
<polygon fill="#ffffff" stroke="transparent" points="892.6178,-299.2988 892.6178,-318.2988 904.6178,-318.2988 904.6178,-299.2988 892.6178,-299.2988"/>
<polygon fill="none" stroke="#000000" points="892.6178,-299.2988 892.6178,-318.2988 904.6178,-318.2988 904.6178,-299.2988 892.6178,-299.2988"/>
<text text-anchor="start" x="895.5609" y="-305.3988" font-family="Helvetica,sans-Serif" font-size="11.00" fill="#000000"> &#160;</text>
</a>
</g>
</g>
<!-- sahulchar&#45;&gt;global_UnitMaster -->
<g id="edge26" class="edge">
<title>sahulchar:w&#45;&gt;global_UnitMaster:e</title>
<path fill="none" stroke="#000000" stroke-dasharray="5,2" d="M792.123,-327.1304C711.1044,-325.4612 540.4485,-312.5474 478.1178,-341.2988 438.5273,-359.5608 406.2899,-398.7939 386.6309,-427.6569"/>
<polygon fill="#000000" stroke="#000000" points="798.6183,-327.2058 806.5759,-330.8986 802.6181,-327.2523 806.6178,-327.2988 806.6178,-327.2988 806.6178,-327.2988 802.6181,-327.2523 806.6597,-323.6991 798.6183,-327.2058 798.6183,-327.2058"/>
<ellipse fill="none" stroke="#000000" cx="795.4185" cy="-327.1686" rx="3.2" ry="3.2"/>
</g>
<!-- sahulchar&#45;&gt;char_Sample -->
<g id="edge25" class="edge">
<title>sahulchar:w&#45;&gt;char_Sample:e</title>
<path fill="none" stroke="#000000" stroke-dasharray="5,2" d="M792.1077,-328.158C737.241,-334.919 725.7866,-379.2988 663.1178,-379.2988"/>
<polygon fill="#000000" stroke="#000000" points="798.6318,-327.7717 806.8306,-330.8925 802.6248,-327.5353 806.6178,-327.2988 806.6178,-327.2988 806.6178,-327.2988 802.6248,-327.5353 806.405,-323.7051 798.6318,-327.7717 798.6318,-327.7717"/>
<ellipse fill="none" stroke="#000000" cx="795.4374" cy="-327.9609" rx="3.2" ry="3.2"/>
</g>
<!-- sahulchar&#45;&gt;global_SiteMaster -->
<g id="edge24" class="edge">
<title>sahulchar:w&#45;&gt;global_SiteMaster:e</title>
<path fill="none" stroke="#000000" stroke-dasharray="5,2" d="M792.0545,-326.0504C711.5554,-310.7123 815.8745,-158.1713 734.1178,-98.2988 573.4764,19.3429 480.1992,-53.8283 286.1178,-98.2988 249.3039,-106.7341 247.3858,-135.2988 209.6178,-135.2988"/>
<polygon fill="#000000" stroke="#000000" points="798.647,-326.6155 806.3103,-330.8857 802.6324,-326.9571 806.6178,-327.2988 806.6178,-327.2988 806.6178,-327.2988 802.6324,-326.9571 806.9253,-323.712 798.647,-326.6155 798.647,-326.6155"/>
<ellipse fill="none" stroke="#000000" cx="795.4587" cy="-326.3421" rx="3.2" ry="3.2"/>
</g>
<!-- sahulchar_units -->
<g id="node15" class="node">
<title>sahulchar_units</title>
<g id="a_node15"><a xlink:href="../../tables/sahulchar_units.html" xlink:title="sahulchar_units" target="_top">
<polygon fill="#ffffff" stroke="transparent" points="540.6178,-159.7988 540.6178,-220.7988 671.6178,-220.7988 671.6178,-159.7988 540.6178,-159.7988"/>
<polygon fill="#f5f5f5" stroke="transparent" points="541.1178,-197.2988 541.1178,-220.2988 672.1178,-220.2988 672.1178,-197.2988 541.1178,-197.2988"/>
<polygon fill="none" stroke="#000000" points="541.1178,-197.2988 541.1178,-220.2988 672.1178,-220.2988 672.1178,-197.2988 541.1178,-197.2988"/>
<text text-anchor="start" x="546.1178" y="-205.8988" font-family="Helvetica,sans-Serif" font-weight="bold" font-size="11.00" fill="#000000">sahulchar_units</text>
<text text-anchor="start" x="637.6396" y="-205.3988" font-family="Helvetica,sans-Serif" font-size="11.00" fill="#000000">[table]</text>
<polygon fill="none" stroke="#000000" points="541.1178,-178.2988 541.1178,-197.2988 672.1178,-197.2988 672.1178,-178.2988 541.1178,-178.2988"/>
<text text-anchor="start" x="544.1178" y="-184.3988" font-family="Helvetica,sans-Serif" font-size="11.00" fill="#000000">...</text>
<polygon fill="#ffffff" stroke="transparent" points="541.1178,-159.2988 541.1178,-178.2988 586.1178,-178.2988 586.1178,-159.2988 541.1178,-159.2988"/>
<polygon fill="none" stroke="#000000" points="541.1178,-159.2988 541.1178,-178.2988 586.1178,-178.2988 586.1178,-159.2988 541.1178,-159.2988"/>
<text text-anchor="start" x="544.1178" y="-165.3988" font-family="Helvetica,sans-Serif" font-size="11.00" fill="#000000">&lt; 4</text>
<polygon fill="#ffffff" stroke="transparent" points="586.1178,-159.2988 586.1178,-178.2988 648.1178,-178.2988 648.1178,-159.2988 586.1178,-159.2988"/>
<polygon fill="none" stroke="#000000" points="586.1178,-159.2988 586.1178,-178.2988 648.1178,-178.2988 648.1178,-159.2988 586.1178,-159.2988"/>
<text text-anchor="start" x="600.4985" y="-165.3988" font-family="Helvetica,sans-Serif" font-size="11.00" fill="#000000">535 rows</text>
<polygon fill="#ffffff" stroke="transparent" points="648.1178,-159.2988 648.1178,-178.2988 672.1178,-178.2988 672.1178,-159.2988 648.1178,-159.2988"/>
<polygon fill="none" stroke="#000000" points="648.1178,-159.2988 648.1178,-178.2988 672.1178,-178.2988 672.1178,-159.2988 648.1178,-159.2988"/>
<text text-anchor="start" x="663.004" y="-165.3988" font-family="Helvetica,sans-Serif" font-size="11.00" fill="#000000"> &#160;</text>
</a>
</g>
</g>
<!-- sahulchar_units&#45;&gt;global_UnitMaster -->
<g id="edge28" class="edge">
<title>sahulchar_units:w&#45;&gt;global_UnitMaster:e</title>
<path fill="none" stroke="#000000" stroke-dasharray="5,2" d="M526.6387,-188.242C424.503,-201.7615 384.1664,-357.1348 371.0304,-427.7483"/>
<polygon fill="#000000" stroke="#000000" points="533.1347,-187.8189 541.3518,-190.8912 537.1263,-187.5588 541.1178,-187.2988 541.1178,-187.2988 541.1178,-187.2988 537.1263,-187.5588 540.8838,-183.7064 533.1347,-187.8189 533.1347,-187.8189"/>
<ellipse fill="none" stroke="#000000" cx="529.9415" cy="-188.0269" rx="3.2" ry="3.2"/>
</g>
<!-- sahulchar_units&#45;&gt;global_SiteMaster -->
<g id="edge27" class="edge">
<title>sahulchar_units:w&#45;&gt;global_SiteMaster:e</title>
<path fill="none" stroke="#000000" stroke-dasharray="5,2" d="M526.4952,-186.1644C460.3669,-178.5599 243.6246,-135.2988 209.6178,-135.2988"/>
<polygon fill="#000000" stroke="#000000" points="533.1418,-186.68 540.8393,-190.888 537.1298,-186.9894 541.1178,-187.2988 541.1178,-187.2988 541.1178,-187.2988 537.1298,-186.9894 541.3963,-183.7096 533.1418,-186.68 533.1418,-186.68"/>
<ellipse fill="none" stroke="#000000" cx="529.9513" cy="-186.4324" rx="3.2" ry="3.2"/>
</g>
<!-- sahulchar_units_points_EPSG3857 -->
<g id="node16" class="node">
<title>sahulchar_units_points_EPSG3857</title>
<g id="a_node16"><a xlink:href="../../tables/sahulchar_units_points_EPSG3857.html" xlink:title="sahulchar_units_points_EPSG3857" target="_top">
<polygon fill="#ffffff" stroke="transparent" points="486.1178,-241.7988 486.1178,-302.7988 726.1178,-302.7988 726.1178,-241.7988 486.1178,-241.7988"/>
<polygon fill="#f5f5f5" stroke="transparent" points="486.1178,-279.2988 486.1178,-302.2988 726.1178,-302.2988 726.1178,-279.2988 486.1178,-279.2988"/>
<polygon fill="none" stroke="#000000" points="486.1178,-279.2988 486.1178,-302.2988 726.1178,-302.2988 726.1178,-279.2988 486.1178,-279.2988"/>
<text text-anchor="start" x="491.1178" y="-287.8988" font-family="Helvetica,sans-Serif" font-weight="bold" font-size="11.00" fill="#000000">sahulchar_units_points_EPSG3857</text>
<text text-anchor="start" x="691.6396" y="-287.3988" font-family="Helvetica,sans-Serif" font-size="11.00" fill="#000000">[table]</text>
<polygon fill="none" stroke="#000000" points="486.1178,-260.2988 486.1178,-279.2988 726.1178,-279.2988 726.1178,-260.2988 486.1178,-260.2988"/>
<text text-anchor="start" x="489.1178" y="-266.3988" font-family="Helvetica,sans-Serif" font-size="11.00" fill="#000000">...</text>
<polygon fill="#ffffff" stroke="transparent" points="486.1178,-241.2988 486.1178,-260.2988 585.1178,-260.2988 585.1178,-241.2988 486.1178,-241.2988"/>
<polygon fill="none" stroke="#000000" points="486.1178,-241.2988 486.1178,-260.2988 585.1178,-260.2988 585.1178,-241.2988 486.1178,-241.2988"/>
<text text-anchor="start" x="489.1178" y="-247.3988" font-family="Helvetica,sans-Serif" font-size="11.00" fill="#000000">&lt; 1</text>
<polygon fill="#ffffff" stroke="transparent" points="585.1178,-241.2988 585.1178,-260.2988 674.1178,-260.2988 674.1178,-241.2988 585.1178,-241.2988"/>
<polygon fill="none" stroke="#000000" points="585.1178,-241.2988 585.1178,-260.2988 674.1178,-260.2988 674.1178,-241.2988 585.1178,-241.2988"/>
<text text-anchor="start" x="626.4985" y="-247.3988" font-family="Helvetica,sans-Serif" font-size="11.00" fill="#000000">531 rows</text>
<polygon fill="#ffffff" stroke="transparent" points="674.1178,-241.2988 674.1178,-260.2988 726.1178,-260.2988 726.1178,-241.2988 674.1178,-241.2988"/>
<polygon fill="none" stroke="#000000" points="674.1178,-241.2988 674.1178,-260.2988 726.1178,-260.2988 726.1178,-241.2988 674.1178,-241.2988"/>
<text text-anchor="start" x="717.004" y="-247.3988" font-family="Helvetica,sans-Serif" font-size="11.00" fill="#000000"> &#160;</text>
</a>
</g>
</g>
<!-- sahulchar_units_points_EPSG3857&#45;&gt;global_UnitMaster -->
<g id="edge29" class="edge">
<title>sahulchar_units_points_EPSG3857:w&#45;&gt;global_UnitMaster:e</title>
<path fill="none" stroke="#000000" stroke-dasharray="5,2" d="M475.6065,-270.0179C409.3421,-279.2425 381.4673,-374.9913 371.0619,-427.7943"/>
<polygon fill="#000000" stroke="#000000" points="485.0466,-265.3627 485.5927,-273.3441 483.9964,-273.4533 483.4504,-265.472 485.0466,-265.3627"/>
<polyline fill="none" stroke="#000000" points="486.1178,-269.2988 482.1271,-269.5718 "/>
<ellipse fill="none" stroke="#000000" cx="478.9346" cy="-269.7903" rx="3.2" ry="3.2"/>
</g>
</g>
</svg>
