<?xml version="1.0" encoding="UTF-8" standalone="no"?>
<!DOCTYPE svg PUBLIC "-//W3C//DTD SVG 1.1//EN"
 "http://www.w3.org/Graphics/SVG/1.1/DTD/svg11.dtd">
<!-- Generated by graphviz version 2.40.1 (20161225.0304)
 -->
<!-- Title: oneDegreeRelationshipsDiagramImplied Pages: 1 -->
<svg width="467pt" height="337pt"
 viewBox="0.00 0.00 467.00 336.70" xmlns="http://www.w3.org/2000/svg" xmlns:xlink="http://www.w3.org/1999/xlink">
<g id="graph0" class="graph" transform="scale(1 1) rotate(0) translate(4 332.7)">
<title>oneDegreeRelationshipsDiagramImplied</title>
<polygon fill="#ffffff" stroke="transparent" points="-4,4 -4,-332.7 463,-332.7 463,4 -4,4"/>
<text text-anchor="middle" x="72.4936" y="-7.3" font-family="Helvetica,sans-Serif" font-size="11.00" fill="#000000">Generated by SchemaSpy</text>
<!-- global_SiteMaster -->
<g id="node1" class="node">
<title>global_SiteMaster</title>
<g id="a_node1"><a xlink:href="../../tables/global_SiteMaster.html" xlink:title="global_SiteMaster" target="_top">
<polygon fill="#ffffff" stroke="transparent" points="310,-65.7 310,-324.7 451,-324.7 451,-65.7 310,-65.7"/>
<polygon fill="#f5f5f5" stroke="transparent" points="310.5,-301.2 310.5,-324.2 451.5,-324.2 451.5,-301.2 310.5,-301.2"/>
<polygon fill="none" stroke="#000000" points="310.5,-301.2 310.5,-324.2 451.5,-324.2 451.5,-301.2 310.5,-301.2"/>
<text text-anchor="start" x="315.5" y="-309.8" font-family="Helvetica,sans-Serif" font-weight="bold" font-size="11.00" fill="#000000">global_SiteMaster</text>
<text text-anchor="start" x="417.0219" y="-309.3" font-family="Helvetica,sans-Serif" font-size="11.00" fill="#000000">[table]</text>
<polygon fill="none" stroke="#000000" points="310.5,-279.2 310.5,-301.2 451.5,-301.2 451.5,-279.2 310.5,-279.2"/>
<image xlink:href="../../images/primaryKeys.png" width="11px" height="12px" preserveAspectRatio="xMinYMin meet" x="315.5" y="-296.2"/>
<text text-anchor="start" x="339.5" y="-286.3" font-family="Helvetica,sans-Serif" font-size="11.00" fill="#000000">SITEID</text>
<polygon fill="none" stroke="#000000" points="310.5,-257.2 310.5,-279.2 451.5,-279.2 451.5,-257.2 310.5,-257.2"/>
<image xlink:href="../../images/foreignKeys.png" width="11px" height="12px" preserveAspectRatio="xMinYMin meet" x="315.5" y="-274.2"/>
<text text-anchor="start" x="339.5" y="-264.3" font-family="Helvetica,sans-Serif" font-size="11.00" fill="#000000">METASITEID</text>
<polygon fill="none" stroke="#000000" points="310.5,-235.2 310.5,-257.2 451.5,-257.2 451.5,-235.2 310.5,-235.2"/>
<image xlink:href="../../images/foreignKeys.png" width="11px" height="12px" preserveAspectRatio="xMinYMin meet" x="315.5" y="-252.2"/>
<text text-anchor="start" x="339.5" y="-242.3" font-family="Helvetica,sans-Serif" font-size="11.00" fill="#000000">RIVID</text>
<polygon fill="none" stroke="#000000" points="310.5,-213.2 310.5,-235.2 451.5,-235.2 451.5,-213.2 310.5,-213.2"/>
<image xlink:href="../../images/foreignKeys.png" width="11px" height="12px" preserveAspectRatio="xMinYMin meet" x="315.5" y="-230.2"/>
<text text-anchor="start" x="339.5" y="-220.3" font-family="Helvetica,sans-Serif" font-size="11.00" fill="#000000">IBRAID</text>
<polygon fill="none" stroke="#000000" points="310.5,-191.2 310.5,-213.2 451.5,-213.2 451.5,-191.2 310.5,-191.2"/>
<image xlink:href="../../images/foreignKeys.png" width="11px" height="12px" preserveAspectRatio="xMinYMin meet" x="315.5" y="-208.2"/>
<text text-anchor="start" x="339.5" y="-198.3" font-family="Helvetica,sans-Serif" font-size="11.00" fill="#000000">SITECODEID</text>
<polygon fill="none" stroke="#000000" points="310.5,-169.2 310.5,-191.2 451.5,-191.2 451.5,-169.2 310.5,-169.2"/>
<image xlink:href="../../images/foreignKeys.png" width="11px" height="12px" preserveAspectRatio="xMinYMin meet" x="315.5" y="-186.2"/>
<text text-anchor="start" x="339.5" y="-176.3" font-family="Helvetica,sans-Serif" font-size="11.00" fill="#000000">BIOMEID</text>
<polygon fill="none" stroke="#000000" points="310.5,-147.2 310.5,-169.2 451.5,-169.2 451.5,-147.2 310.5,-147.2"/>
<image xlink:href="../../images/foreignKeys.png" width="11px" height="12px" preserveAspectRatio="xMinYMin meet" x="315.5" y="-164.2"/>
<text text-anchor="start" x="339.5" y="-154.3" font-family="Helvetica,sans-Serif" font-size="11.00" fill="#000000">CATCHSZEID</text>
<polygon fill="none" stroke="#000000" points="310.5,-125.2 310.5,-147.2 451.5,-147.2 451.5,-125.2 310.5,-125.2"/>
<image xlink:href="../../images/foreignKeys.png" width="11px" height="12px" preserveAspectRatio="xMinYMin meet" x="315.5" y="-142.2"/>
<text text-anchor="start" x="339.5" y="-132.3" font-family="Helvetica,sans-Serif" font-size="11.00" fill="#000000">BASINSZEID</text>
<polygon fill="none" stroke="#000000" points="310.5,-103.2 310.5,-125.2 451.5,-125.2 451.5,-103.2 310.5,-103.2"/>
<image xlink:href="../../images/foreignKeys.png" width="11px" height="12px" preserveAspectRatio="xMinYMin meet" x="315.5" y="-120.2"/>
<text text-anchor="start" x="339.5" y="-110.3" font-family="Helvetica,sans-Serif" font-size="11.00" fill="#000000">FLOWTYPEID</text>
<polygon fill="none" stroke="#000000" points="310.5,-84.2 310.5,-103.2 451.5,-103.2 451.5,-84.2 310.5,-84.2"/>
<text text-anchor="start" x="313.5" y="-90.3" font-family="Helvetica,sans-Serif" font-size="11.00" fill="#000000">...</text>
<polygon fill="#ffffff" stroke="transparent" points="310.5,-65.2 310.5,-84.2 348.5,-84.2 348.5,-65.2 310.5,-65.2"/>
<polygon fill="none" stroke="#000000" points="310.5,-65.2 310.5,-84.2 348.5,-84.2 348.5,-65.2 310.5,-65.2"/>
<text text-anchor="start" x="313.5" y="-71.3" font-family="Helvetica,sans-Serif" font-size="11.00" fill="#000000">&lt; 8</text>
<polygon fill="#ffffff" stroke="transparent" points="348.5,-65.2 348.5,-84.2 421.5,-84.2 421.5,-65.2 348.5,-65.2"/>
<polygon fill="none" stroke="#000000" points="348.5,-65.2 348.5,-84.2 421.5,-84.2 421.5,-65.2 348.5,-65.2"/>
<text text-anchor="start" x="358.594" y="-71.3" font-family="Helvetica,sans-Serif" font-size="11.00" fill="#000000">25.221 rows</text>
<polygon fill="#ffffff" stroke="transparent" points="421.5,-65.2 421.5,-84.2 451.5,-84.2 451.5,-65.2 421.5,-65.2"/>
<polygon fill="none" stroke="#000000" points="421.5,-65.2 421.5,-84.2 451.5,-84.2 451.5,-65.2 421.5,-65.2"/>
<text text-anchor="start" x="432.9053" y="-71.3" font-family="Helvetica,sans-Serif" font-size="11.00" fill="#000000">6 &gt;</text>
</a>
</g>
</g>
<!-- cabah_catchmentsizeID -->
<g id="node2" class="node">
<title>cabah_catchmentsizeID</title>
<g id="a_node2"><a xlink:href="../../tables/cabah_catchmentsizeID.html" xlink:title="cabah_catchmentsizeID" target="_top">
<polygon fill="#ffffff" stroke="transparent" points="8,-38.2 8,-194.2 261,-194.2 261,-38.2 8,-38.2"/>
<polygon fill="#f5f5f5" stroke="transparent" points="10.5,-169.2 10.5,-192.2 259.5,-192.2 259.5,-169.2 10.5,-169.2"/>
<polygon fill="none" stroke="#000000" points="10.5,-169.2 10.5,-192.2 259.5,-192.2 259.5,-169.2 10.5,-169.2"/>
<text text-anchor="start" x="15.5" y="-177.8" font-family="Helvetica,sans-Serif" font-weight="bold" font-size="11.00" fill="#000000">cabah_catchmentsizeID</text>
<text text-anchor="start" x="224.5437" y="-177.3" font-family="Helvetica,sans-Serif" font-size="11.00" fill="#000000">[table]</text>
<polygon fill="none" stroke="#000000" points="10.5,-147.2 10.5,-169.2 167.5,-169.2 167.5,-147.2 10.5,-147.2"/>
<image xlink:href="../../images/primaryKeys.png" width="11px" height="12px" preserveAspectRatio="xMinYMin meet" x="15.5" y="-164.2"/>
<text text-anchor="start" x="30.5" y="-154.3" font-family="Helvetica,sans-Serif" font-size="11.00" fill="#000000">CATCHSZEID</text>
<polygon fill="none" stroke="#000000" points="167.5,-147.2 167.5,-169.2 259.5,-169.2 259.5,-147.2 167.5,-147.2"/>
<text text-anchor="start" x="170.5" y="-154.9" font-family="Helvetica,sans-Serif" font-size="11.00" fill="#000000">serial[10]</text>
<polygon fill="#ffffff" stroke="transparent" points="10.5,-125.2 10.5,-147.2 167.5,-147.2 167.5,-125.2 10.5,-125.2"/>
<polygon fill="none" stroke="#000000" points="10.5,-125.2 10.5,-147.2 167.5,-147.2 167.5,-125.2 10.5,-125.2"/>
<text text-anchor="start" x="30.5" y="-132.3" font-family="Helvetica,sans-Serif" font-size="11.00" fill="#000000">CATCHSIZE</text>
<polygon fill="none" stroke="#000000" points="167.5,-125.2 167.5,-147.2 259.5,-147.2 259.5,-125.2 167.5,-125.2"/>
<text text-anchor="start" x="170.5" y="-132.9" font-family="Helvetica,sans-Serif" font-size="11.00" fill="#000000">varchar[3]</text>
<polygon fill="none" stroke="#000000" points="10.5,-103.2 10.5,-125.2 167.5,-125.2 167.5,-103.2 10.5,-103.2"/>
<text text-anchor="start" x="30.5" y="-110.3" font-family="Helvetica,sans-Serif" font-size="11.00" fill="#000000">CATCHMAREA</text>
<polygon fill="none" stroke="#000000" points="167.5,-103.2 167.5,-125.2 259.5,-125.2 259.5,-103.2 167.5,-103.2"/>
<text text-anchor="start" x="170.5" y="-110.9" font-family="Helvetica,sans-Serif" font-size="11.00" fill="#000000">text[2147483647]</text>
<polygon fill="none" stroke="#000000" points="10.5,-81.2 10.5,-103.2 167.5,-103.2 167.5,-81.2 10.5,-81.2"/>
<text text-anchor="start" x="30.5" y="-88.3" font-family="Helvetica,sans-Serif" font-size="11.00" fill="#000000">CREATED_AT</text>
<polygon fill="none" stroke="#000000" points="167.5,-81.2 167.5,-103.2 259.5,-103.2 259.5,-81.2 167.5,-81.2"/>
<text text-anchor="start" x="170.1023" y="-88.9" font-family="Helvetica,sans-Serif" font-size="11.00" fill="#000000">timestamptz[35,6]</text>
<polygon fill="none" stroke="#000000" points="10.5,-59.2 10.5,-81.2 167.5,-81.2 167.5,-59.2 10.5,-59.2"/>
<text text-anchor="start" x="30.5" y="-66.3" font-family="Helvetica,sans-Serif" font-size="11.00" fill="#000000">UPDATED_AT</text>
<polygon fill="none" stroke="#000000" points="167.5,-59.2 167.5,-81.2 259.5,-81.2 259.5,-59.2 167.5,-59.2"/>
<text text-anchor="start" x="170.1023" y="-66.9" font-family="Helvetica,sans-Serif" font-size="11.00" fill="#000000">timestamptz[35,6]</text>
<polygon fill="#ffffff" stroke="transparent" points="10.5,-40.2 10.5,-59.2 80.5,-59.2 80.5,-40.2 10.5,-40.2"/>
<polygon fill="none" stroke="#000000" points="10.5,-40.2 10.5,-59.2 80.5,-59.2 80.5,-40.2 10.5,-40.2"/>
<text text-anchor="start" x="13.5" y="-46.3" font-family="Helvetica,sans-Serif" font-size="11.00" fill="#000000">&lt; 0</text>
<polygon fill="#ffffff" stroke="transparent" points="80.5,-40.2 80.5,-59.2 167.5,-59.2 167.5,-40.2 80.5,-40.2"/>
<polygon fill="none" stroke="#000000" points="80.5,-40.2 80.5,-59.2 167.5,-59.2 167.5,-40.2 80.5,-40.2"/>
<text text-anchor="start" x="132.1105" y="-46.3" font-family="Helvetica,sans-Serif" font-size="11.00" fill="#000000">4 rows</text>
<polygon fill="#ffffff" stroke="transparent" points="167.5,-40.2 167.5,-59.2 259.5,-59.2 259.5,-40.2 167.5,-40.2"/>
<polygon fill="none" stroke="#000000" points="167.5,-40.2 167.5,-59.2 259.5,-59.2 259.5,-40.2 167.5,-40.2"/>
<text text-anchor="start" x="240.9053" y="-46.3" font-family="Helvetica,sans-Serif" font-size="11.00" fill="#000000">1 &gt;</text>
<polygon fill="none" stroke="#000000" stroke-width="2" points="9,-39.2 9,-193.2 260,-193.2 260,-39.2 9,-39.2"/>
</a>
</g>
</g>
<!-- global_SiteMaster&#45;&gt;cabah_catchmentsizeID -->
<g id="edge1" class="edge">
<title>global_SiteMaster:w&#45;&gt;cabah_catchmentsizeID:e</title>
<path fill="none" stroke="#000000" d="M295.776,-158.2C283.7815,-158.2 276.3229,-158.2 259.5,-158.2"/>
<polygon fill="#000000" stroke="#000000" points="302.5,-158.2001 310.5,-161.8 306.5,-158.2 310.5,-158.2 310.5,-158.2 310.5,-158.2 306.5,-158.2 310.5,-154.6 302.5,-158.2001 302.5,-158.2001"/>
<ellipse fill="none" stroke="#000000" cx="299.3" cy="-158.2001" rx="3.2" ry="3.2"/>
</g>
</g>
</svg>
