<?xml version="1.0" encoding="UTF-8" standalone="no"?>
<!DOCTYPE svg PUBLIC "-//W3C//DTD SVG 1.1//EN"
 "http://www.w3.org/Graphics/SVG/1.1/DTD/svg11.dtd">
<!-- Generated by graphviz version 2.40.1 (20161225.0304)
 -->
<!-- Title: oneDegreeRelationshipsDiagramImplied Pages: 1 -->
<svg width="430pt" height="655pt"
 viewBox="0.00 0.00 430.00 655.20" xmlns="http://www.w3.org/2000/svg" xmlns:xlink="http://www.w3.org/1999/xlink">
<g id="graph0" class="graph" transform="scale(1 1) rotate(0) translate(4 651.2)">
<title>oneDegreeRelationshipsDiagramImplied</title>
<polygon fill="#ffffff" stroke="transparent" points="-4,4 -4,-651.2 426,-651.2 426,4 -4,4"/>
<text text-anchor="middle" x="72.4936" y="-7.3" font-family="Helvetica,sans-Serif" font-size="11.00" fill="#000000">Generated by SchemaSpy</text>
<!-- char_DataCore -->
<g id="node1" class="node">
<title>char_DataCore</title>
<g id="a_node1"><a xlink:href="../../tables/char_DataCore.html" xlink:title="char_DataCore" target="_top">
<polygon fill="#ffffff" stroke="transparent" points="281,-230.2 281,-643.2 405,-643.2 405,-230.2 281,-230.2"/>
<polygon fill="#f5f5f5" stroke="transparent" points="281,-619.7 281,-642.7 405,-642.7 405,-619.7 281,-619.7"/>
<polygon fill="none" stroke="#000000" points="281,-619.7 281,-642.7 405,-642.7 405,-619.7 281,-619.7"/>
<text text-anchor="start" x="286" y="-628.3" font-family="Helvetica,sans-Serif" font-weight="bold" font-size="11.00" fill="#000000">char_DataCore</text>
<text text-anchor="start" x="370.5219" y="-627.8" font-family="Helvetica,sans-Serif" font-size="11.00" fill="#000000">[table]</text>
<polygon fill="none" stroke="#000000" points="281,-597.7 281,-619.7 405,-619.7 405,-597.7 281,-597.7"/>
<image xlink:href="../../images/primaryKeys.png" width="11px" height="12px" preserveAspectRatio="xMinYMin meet" x="286" y="-614.7"/>
<text text-anchor="start" x="310" y="-604.8" font-family="Helvetica,sans-Serif" font-size="11.00" fill="#000000">OBSID</text>
<polygon fill="none" stroke="#000000" points="281,-575.7 281,-597.7 405,-597.7 405,-575.7 281,-575.7"/>
<image xlink:href="../../images/foreignKeys.png" width="11px" height="12px" preserveAspectRatio="xMinYMin meet" x="286" y="-592.7"/>
<text text-anchor="start" x="310" y="-582.8" font-family="Helvetica,sans-Serif" font-size="11.00" fill="#000000">SMPID</text>
<polygon fill="none" stroke="#000000" points="281,-553.7 281,-575.7 405,-575.7 405,-553.7 281,-553.7"/>
<image xlink:href="../../images/foreignKeys.png" width="11px" height="12px" preserveAspectRatio="xMinYMin meet" x="286" y="-570.7"/>
<text text-anchor="start" x="310" y="-560.8" font-family="Helvetica,sans-Serif" font-size="11.00" fill="#000000">LAB_ORIGID</text>
<polygon fill="none" stroke="#000000" points="281,-531.7 281,-553.7 405,-553.7 405,-531.7 281,-531.7"/>
<image xlink:href="../../images/foreignKeys.png" width="11px" height="12px" preserveAspectRatio="xMinYMin meet" x="286" y="-548.7"/>
<text text-anchor="start" x="310" y="-538.8" font-family="Helvetica,sans-Serif" font-size="11.00" fill="#000000">WHATAMI</text>
<polygon fill="none" stroke="#000000" points="281,-509.7 281,-531.7 405,-531.7 405,-509.7 281,-509.7"/>
<image xlink:href="../../images/foreignKeys.png" width="11px" height="12px" preserveAspectRatio="xMinYMin meet" x="286" y="-526.7"/>
<text text-anchor="start" x="310" y="-516.8" font-family="Helvetica,sans-Serif" font-size="11.00" fill="#000000">AGETYPEID</text>
<polygon fill="none" stroke="#000000" points="281,-487.7 281,-509.7 405,-509.7 405,-487.7 281,-487.7"/>
<image xlink:href="../../images/foreignKeys.png" width="11px" height="12px" preserveAspectRatio="xMinYMin meet" x="286" y="-504.7"/>
<text text-anchor="start" x="310" y="-494.8" font-family="Helvetica,sans-Serif" font-size="11.00" fill="#000000">METHODID</text>
<polygon fill="none" stroke="#000000" points="281,-465.7 281,-487.7 405,-487.7 405,-465.7 281,-465.7"/>
<image xlink:href="../../images/foreignKeys.png" width="11px" height="12px" preserveAspectRatio="xMinYMin meet" x="286" y="-482.7"/>
<text text-anchor="start" x="310" y="-472.8" font-family="Helvetica,sans-Serif" font-size="11.00" fill="#000000">MATERIA2ID</text>
<polygon fill="none" stroke="#000000" points="281,-443.7 281,-465.7 405,-465.7 405,-443.7 281,-443.7"/>
<image xlink:href="../../images/foreignKeys.png" width="11px" height="12px" preserveAspectRatio="xMinYMin meet" x="286" y="-460.7"/>
<text text-anchor="start" x="310" y="-450.8" font-family="Helvetica,sans-Serif" font-size="11.00" fill="#000000">CALCURVEID</text>
<polygon fill="none" stroke="#000000" points="281,-421.7 281,-443.7 405,-443.7 405,-421.7 281,-421.7"/>
<image xlink:href="../../images/foreignKeys.png" width="11px" height="12px" preserveAspectRatio="xMinYMin meet" x="286" y="-438.7"/>
<text text-anchor="start" x="310" y="-428.8" font-family="Helvetica,sans-Serif" font-size="11.00" fill="#000000">CALPROGID</text>
<polygon fill="none" stroke="#000000" points="281,-399.7 281,-421.7 405,-421.7 405,-399.7 281,-399.7"/>
<image xlink:href="../../images/foreignKeys.png" width="11px" height="12px" preserveAspectRatio="xMinYMin meet" x="286" y="-416.7"/>
<text text-anchor="start" x="310" y="-406.8" font-family="Helvetica,sans-Serif" font-size="11.00" fill="#000000">CHARMTDID</text>
<polygon fill="none" stroke="#000000" points="281,-377.7 281,-399.7 405,-399.7 405,-377.7 281,-377.7"/>
<image xlink:href="../../images/foreignKeys.png" width="11px" height="12px" preserveAspectRatio="xMinYMin meet" x="286" y="-394.7"/>
<text text-anchor="start" x="310" y="-384.8" font-family="Helvetica,sans-Serif" font-size="11.00" fill="#000000">CHARMEASID</text>
<polygon fill="none" stroke="#000000" points="281,-355.7 281,-377.7 405,-377.7 405,-355.7 281,-355.7"/>
<image xlink:href="../../images/foreignKeys.png" width="11px" height="12px" preserveAspectRatio="xMinYMin meet" x="286" y="-372.7"/>
<text text-anchor="start" x="310" y="-362.8" font-family="Helvetica,sans-Serif" font-size="11.00" fill="#000000">CHARSIZEID</text>
<polygon fill="none" stroke="#000000" points="281,-333.7 281,-355.7 405,-355.7 405,-333.7 281,-333.7"/>
<image xlink:href="../../images/foreignKeys.png" width="11px" height="12px" preserveAspectRatio="xMinYMin meet" x="286" y="-350.7"/>
<text text-anchor="start" x="310" y="-340.8" font-family="Helvetica,sans-Serif" font-size="11.00" fill="#000000">DATASRCID</text>
<polygon fill="none" stroke="#000000" points="281,-311.7 281,-333.7 405,-333.7 405,-311.7 281,-311.7"/>
<image xlink:href="../../images/foreignKeys.png" width="11px" height="12px" preserveAspectRatio="xMinYMin meet" x="286" y="-328.7"/>
<text text-anchor="start" x="310" y="-318.8" font-family="Helvetica,sans-Serif" font-size="11.00" fill="#000000">REFDBID1</text>
<polygon fill="none" stroke="#000000" points="281,-289.7 281,-311.7 405,-311.7 405,-289.7 281,-289.7"/>
<image xlink:href="../../images/foreignKeys.png" width="11px" height="12px" preserveAspectRatio="xMinYMin meet" x="286" y="-306.7"/>
<text text-anchor="start" x="310" y="-296.8" font-family="Helvetica,sans-Serif" font-size="11.00" fill="#000000">REFDBID2</text>
<polygon fill="none" stroke="#000000" points="281,-267.7 281,-289.7 405,-289.7 405,-267.7 281,-267.7"/>
<image xlink:href="../../images/foreignKeys.png" width="11px" height="12px" preserveAspectRatio="xMinYMin meet" x="286" y="-284.7"/>
<text text-anchor="start" x="310" y="-274.8" font-family="Helvetica,sans-Serif" font-size="11.00" fill="#000000">REFDBID3</text>
<polygon fill="none" stroke="#000000" points="281,-248.7 281,-267.7 405,-267.7 405,-248.7 281,-248.7"/>
<text text-anchor="start" x="284" y="-254.8" font-family="Helvetica,sans-Serif" font-size="11.00" fill="#000000">...</text>
<polygon fill="#ffffff" stroke="transparent" points="281,-229.7 281,-248.7 318,-248.7 318,-229.7 281,-229.7"/>
<polygon fill="none" stroke="#000000" points="281,-229.7 281,-248.7 318,-248.7 318,-229.7 281,-229.7"/>
<text text-anchor="start" x="284" y="-235.8" font-family="Helvetica,sans-Serif" font-size="11.00" fill="#000000">&lt; 15</text>
<polygon fill="#ffffff" stroke="transparent" points="318,-229.7 318,-248.7 388,-248.7 388,-229.7 318,-229.7"/>
<polygon fill="none" stroke="#000000" points="318,-229.7 318,-248.7 388,-248.7 388,-229.7 318,-229.7"/>
<text text-anchor="start" x="325.094" y="-235.8" font-family="Helvetica,sans-Serif" font-size="11.00" fill="#000000">48.234 rows</text>
<polygon fill="#ffffff" stroke="transparent" points="388,-229.7 388,-248.7 405,-248.7 405,-229.7 388,-229.7"/>
<polygon fill="none" stroke="#000000" points="388,-229.7 388,-248.7 405,-248.7 405,-229.7 388,-229.7"/>
<text text-anchor="start" x="395.8862" y="-235.8" font-family="Helvetica,sans-Serif" font-size="11.00" fill="#000000"> &#160;</text>
</a>
</g>
</g>
<!-- cabah_agetypeID -->
<g id="node2" class="node">
<title>cabah_agetypeID</title>
<g id="a_node2"><a xlink:href="../../tables/cabah_agetypeID.html" xlink:title="cabah_agetypeID" target="_top">
<polygon fill="#ffffff" stroke="transparent" points="8,-183.7 8,-361.7 223,-361.7 223,-183.7 8,-183.7"/>
<polygon fill="#f5f5f5" stroke="transparent" points="10.5,-336.7 10.5,-359.7 221.5,-359.7 221.5,-336.7 10.5,-336.7"/>
<polygon fill="none" stroke="#000000" points="10.5,-336.7 10.5,-359.7 221.5,-359.7 221.5,-336.7 10.5,-336.7"/>
<text text-anchor="start" x="15.5" y="-345.3" font-family="Helvetica,sans-Serif" font-weight="bold" font-size="11.00" fill="#000000">cabah_agetypeID</text>
<text text-anchor="start" x="186.5437" y="-344.8" font-family="Helvetica,sans-Serif" font-size="11.00" fill="#000000">[table]</text>
<polygon fill="none" stroke="#000000" points="10.5,-314.7 10.5,-336.7 129.5,-336.7 129.5,-314.7 10.5,-314.7"/>
<image xlink:href="../../images/primaryKeys.png" width="11px" height="12px" preserveAspectRatio="xMinYMin meet" x="15.5" y="-331.7"/>
<text text-anchor="start" x="30.5" y="-321.8" font-family="Helvetica,sans-Serif" font-size="11.00" fill="#000000">AGETYPEID</text>
<polygon fill="none" stroke="#000000" points="129.5,-314.7 129.5,-336.7 221.5,-336.7 221.5,-314.7 129.5,-314.7"/>
<text text-anchor="start" x="132.5" y="-322.4" font-family="Helvetica,sans-Serif" font-size="11.00" fill="#000000">serial[10]</text>
<polygon fill="#ffffff" stroke="transparent" points="10.5,-292.7 10.5,-314.7 129.5,-314.7 129.5,-292.7 10.5,-292.7"/>
<polygon fill="none" stroke="#000000" points="10.5,-292.7 10.5,-314.7 129.5,-314.7 129.5,-292.7 10.5,-292.7"/>
<text text-anchor="start" x="30.5" y="-299.8" font-family="Helvetica,sans-Serif" font-size="11.00" fill="#000000">AGETYPE</text>
<polygon fill="none" stroke="#000000" points="129.5,-292.7 129.5,-314.7 221.5,-314.7 221.5,-292.7 129.5,-292.7"/>
<text text-anchor="start" x="132.5" y="-300.4" font-family="Helvetica,sans-Serif" font-size="11.00" fill="#000000">text[2147483647]</text>
<polygon fill="none" stroke="#000000" points="10.5,-270.7 10.5,-292.7 129.5,-292.7 129.5,-270.7 10.5,-270.7"/>
<text text-anchor="start" x="30.5" y="-277.8" font-family="Helvetica,sans-Serif" font-size="11.00" fill="#000000">AGETDESCR</text>
<polygon fill="none" stroke="#000000" points="129.5,-270.7 129.5,-292.7 221.5,-292.7 221.5,-270.7 129.5,-270.7"/>
<text text-anchor="start" x="132.5" y="-278.4" font-family="Helvetica,sans-Serif" font-size="11.00" fill="#000000">text[2147483647]</text>
<polygon fill="none" stroke="#000000" points="10.5,-248.7 10.5,-270.7 129.5,-270.7 129.5,-248.7 10.5,-248.7"/>
<text text-anchor="start" x="30.5" y="-255.8" font-family="Helvetica,sans-Serif" font-size="11.00" fill="#000000">AGETCOMMT</text>
<polygon fill="none" stroke="#000000" points="129.5,-248.7 129.5,-270.7 221.5,-270.7 221.5,-248.7 129.5,-248.7"/>
<text text-anchor="start" x="132.5" y="-256.4" font-family="Helvetica,sans-Serif" font-size="11.00" fill="#000000">text[2147483647]</text>
<polygon fill="none" stroke="#000000" points="10.5,-226.7 10.5,-248.7 129.5,-248.7 129.5,-226.7 10.5,-226.7"/>
<text text-anchor="start" x="30.5" y="-233.8" font-family="Helvetica,sans-Serif" font-size="11.00" fill="#000000">CREATED_AT</text>
<polygon fill="none" stroke="#000000" points="129.5,-226.7 129.5,-248.7 221.5,-248.7 221.5,-226.7 129.5,-226.7"/>
<text text-anchor="start" x="132.1023" y="-234.4" font-family="Helvetica,sans-Serif" font-size="11.00" fill="#000000">timestamptz[35,6]</text>
<polygon fill="none" stroke="#000000" points="10.5,-204.7 10.5,-226.7 129.5,-226.7 129.5,-204.7 10.5,-204.7"/>
<text text-anchor="start" x="30.5" y="-211.8" font-family="Helvetica,sans-Serif" font-size="11.00" fill="#000000">UPDATED_AT</text>
<polygon fill="none" stroke="#000000" points="129.5,-204.7 129.5,-226.7 221.5,-226.7 221.5,-204.7 129.5,-204.7"/>
<text text-anchor="start" x="132.1023" y="-212.4" font-family="Helvetica,sans-Serif" font-size="11.00" fill="#000000">timestamptz[35,6]</text>
<polygon fill="#ffffff" stroke="transparent" points="10.5,-185.7 10.5,-204.7 58.5,-204.7 58.5,-185.7 10.5,-185.7"/>
<polygon fill="none" stroke="#000000" points="10.5,-185.7 10.5,-204.7 58.5,-204.7 58.5,-185.7 10.5,-185.7"/>
<text text-anchor="start" x="13.5" y="-191.8" font-family="Helvetica,sans-Serif" font-size="11.00" fill="#000000">&lt; 0</text>
<polygon fill="#ffffff" stroke="transparent" points="58.5,-185.7 58.5,-204.7 129.5,-204.7 129.5,-185.7 58.5,-185.7"/>
<polygon fill="none" stroke="#000000" points="58.5,-185.7 58.5,-204.7 129.5,-204.7 129.5,-185.7 58.5,-185.7"/>
<text text-anchor="start" x="87.9956" y="-191.8" font-family="Helvetica,sans-Serif" font-size="11.00" fill="#000000">11 rows</text>
<polygon fill="#ffffff" stroke="transparent" points="129.5,-185.7 129.5,-204.7 221.5,-204.7 221.5,-185.7 129.5,-185.7"/>
<polygon fill="none" stroke="#000000" points="129.5,-185.7 129.5,-204.7 221.5,-204.7 221.5,-185.7 129.5,-185.7"/>
<text text-anchor="start" x="202.9053" y="-191.8" font-family="Helvetica,sans-Serif" font-size="11.00" fill="#000000">2 &gt;</text>
<polygon fill="none" stroke="#000000" stroke-width="2" points="9,-184.7 9,-360.7 222,-360.7 222,-184.7 9,-184.7"/>
</a>
</g>
</g>
<!-- char_DataCore&#45;&gt;cabah_agetypeID -->
<g id="edge1" class="edge">
<title>char_DataCore:w&#45;&gt;cabah_agetypeID:e</title>
<path fill="none" stroke="#000000" d="M266.395,-518.5101C204.7745,-497.0867 306.4482,-325.7 221.5,-325.7"/>
<polygon fill="#000000" stroke="#000000" points="273.0884,-519.5137 280.4661,-524.2602 277.0442,-520.1068 281,-520.7 281,-520.7 281,-520.7 277.0442,-520.1068 281.5339,-517.1398 273.0884,-519.5137 273.0884,-519.5137"/>
<ellipse fill="none" stroke="#000000" cx="269.9238" cy="-519.0391" rx="3.2" ry="3.2"/>
</g>
<!-- neo_chronologies -->
<g id="node3" class="node">
<title>neo_chronologies</title>
<g id="a_node3"><a xlink:href="../../tables/neo_chronologies.html" xlink:title="neo_chronologies" target="_top">
<polygon fill="#ffffff" stroke="transparent" points="272,-38.2 272,-209.2 414,-209.2 414,-38.2 272,-38.2"/>
<polygon fill="#f5f5f5" stroke="transparent" points="272,-185.7 272,-208.7 414,-208.7 414,-185.7 272,-185.7"/>
<polygon fill="none" stroke="#000000" points="272,-185.7 272,-208.7 414,-208.7 414,-185.7 272,-185.7"/>
<text text-anchor="start" x="277" y="-194.3" font-family="Helvetica,sans-Serif" font-weight="bold" font-size="11.00" fill="#000000">neo_chronologies</text>
<text text-anchor="start" x="379.5219" y="-193.8" font-family="Helvetica,sans-Serif" font-size="11.00" fill="#000000">[table]</text>
<polygon fill="none" stroke="#000000" points="272,-163.7 272,-185.7 414,-185.7 414,-163.7 272,-163.7"/>
<image xlink:href="../../images/primaryKeys.png" width="11px" height="12px" preserveAspectRatio="xMinYMin meet" x="277" y="-180.7"/>
<text text-anchor="start" x="301" y="-170.8" font-family="Helvetica,sans-Serif" font-size="11.00" fill="#000000">CHRONLGYID</text>
<polygon fill="none" stroke="#000000" points="272,-141.7 272,-163.7 414,-163.7 414,-141.7 272,-141.7"/>
<image xlink:href="../../images/foreignKeys.png" width="11px" height="12px" preserveAspectRatio="xMinYMin meet" x="277" y="-158.7"/>
<text text-anchor="start" x="301" y="-148.8" font-family="Helvetica,sans-Serif" font-size="11.00" fill="#000000">NEO_UNITID</text>
<polygon fill="none" stroke="#000000" points="272,-119.7 272,-141.7 414,-141.7 414,-119.7 272,-119.7"/>
<image xlink:href="../../images/foreignKeys.png" width="11px" height="12px" preserveAspectRatio="xMinYMin meet" x="277" y="-136.7"/>
<text text-anchor="start" x="301" y="-126.8" font-family="Helvetica,sans-Serif" font-size="11.00" fill="#000000">AGETYPEID</text>
<polygon fill="none" stroke="#000000" points="272,-97.7 272,-119.7 414,-119.7 414,-97.7 272,-97.7"/>
<image xlink:href="../../images/foreignKeys.png" width="11px" height="12px" preserveAspectRatio="xMinYMin meet" x="277" y="-114.7"/>
<text text-anchor="start" x="301" y="-104.8" font-family="Helvetica,sans-Serif" font-size="11.00" fill="#000000">CONTACTID</text>
<polygon fill="none" stroke="#000000" points="272,-75.7 272,-97.7 414,-97.7 414,-75.7 272,-75.7"/>
<image xlink:href="../../images/foreignKeys.png" width="11px" height="12px" preserveAspectRatio="xMinYMin meet" x="277" y="-92.7"/>
<text text-anchor="start" x="301" y="-82.8" font-family="Helvetica,sans-Serif" font-size="11.00" fill="#000000">UNITID</text>
<polygon fill="none" stroke="#000000" points="272,-56.7 272,-75.7 414,-75.7 414,-56.7 272,-56.7"/>
<text text-anchor="start" x="275" y="-62.8" font-family="Helvetica,sans-Serif" font-size="11.00" fill="#000000">...</text>
<polygon fill="#ffffff" stroke="transparent" points="272,-37.7 272,-56.7 310,-56.7 310,-37.7 272,-37.7"/>
<polygon fill="none" stroke="#000000" points="272,-37.7 272,-56.7 310,-56.7 310,-37.7 272,-37.7"/>
<text text-anchor="start" x="275" y="-43.8" font-family="Helvetica,sans-Serif" font-size="11.00" fill="#000000">&lt; 3</text>
<polygon fill="#ffffff" stroke="transparent" points="310,-37.7 310,-56.7 384,-56.7 384,-37.7 310,-37.7"/>
<polygon fill="none" stroke="#000000" points="310,-37.7 310,-56.7 384,-56.7 384,-37.7 310,-37.7"/>
<text text-anchor="start" x="321.094" y="-43.8" font-family="Helvetica,sans-Serif" font-size="11.00" fill="#000000">31.641 rows</text>
<polygon fill="#ffffff" stroke="transparent" points="384,-37.7 384,-56.7 414,-56.7 414,-37.7 384,-37.7"/>
<polygon fill="none" stroke="#000000" points="384,-37.7 384,-56.7 414,-56.7 414,-37.7 384,-37.7"/>
<text text-anchor="start" x="395.4053" y="-43.8" font-family="Helvetica,sans-Serif" font-size="11.00" fill="#000000">1 &gt;</text>
</a>
</g>
</g>
<!-- neo_chronologies&#45;&gt;cabah_agetypeID -->
<g id="edge2" class="edge">
<title>neo_chronologies:w&#45;&gt;cabah_agetypeID:e</title>
<path fill="none" stroke="#000000" d="M257.663,-132.8899C197.6913,-154.3133 305.4304,-325.7 221.5,-325.7"/>
<polygon fill="#000000" stroke="#000000" points="264.0917,-131.908 272.5436,-134.2587 268.0459,-131.304 272,-130.7 272,-130.7 272,-130.7 268.0459,-131.304 271.4564,-127.1413 264.0917,-131.908 264.0917,-131.908"/>
<ellipse fill="none" stroke="#000000" cx="260.9284" cy="-132.3912" rx="3.2" ry="3.2"/>
</g>
</g>
</svg>
