<?xml version="1.0" encoding="UTF-8" standalone="no"?>
<!DOCTYPE svg PUBLIC "-//W3C//DTD SVG 1.1//EN"
 "http://www.w3.org/Graphics/SVG/1.1/DTD/svg11.dtd">
<!-- Generated by graphviz version 2.40.1 (20161225.0304)
 -->
<!-- Title: twoDegreesRelationshipsDiagramImplied Pages: 1 -->
<svg width="780pt" height="595pt"
 viewBox="0.00 0.00 780.12 594.90" xmlns="http://www.w3.org/2000/svg" xmlns:xlink="http://www.w3.org/1999/xlink">
<g id="graph0" class="graph" transform="scale(1 1) rotate(0) translate(4 590.9025)">
<title>twoDegreesRelationshipsDiagramImplied</title>
<polygon fill="#ffffff" stroke="transparent" points="-4,4 -4,-590.9025 776.1178,-590.9025 776.1178,4 -4,4"/>
<text text-anchor="middle" x="72.4936" y="-7.3" font-family="Helvetica,sans-Serif" font-size="11.00" fill="#000000">Generated by SchemaSpy</text>
<!-- cabah_depositID -->
<g id="node1" class="node">
<title>cabah_depositID</title>
<g id="a_node1"><a xlink:href="../../tables/cabah_depositID.html" xlink:title="cabah_depositID" target="_top">
<polygon fill="#ffffff" stroke="transparent" points="32.1178,-120.7 32.1178,-298.7 245.1178,-298.7 245.1178,-120.7 32.1178,-120.7"/>
<polygon fill="#f5f5f5" stroke="transparent" points="34.6178,-273.7 34.6178,-296.7 243.6178,-296.7 243.6178,-273.7 34.6178,-273.7"/>
<polygon fill="none" stroke="#000000" points="34.6178,-273.7 34.6178,-296.7 243.6178,-296.7 243.6178,-273.7 34.6178,-273.7"/>
<text text-anchor="start" x="39.6178" y="-282.3" font-family="Helvetica,sans-Serif" font-weight="bold" font-size="11.00" fill="#000000">cabah_depositID</text>
<text text-anchor="start" x="208.6615" y="-281.8" font-family="Helvetica,sans-Serif" font-size="11.00" fill="#000000">[table]</text>
<polygon fill="none" stroke="#000000" points="34.6178,-251.7 34.6178,-273.7 151.6178,-273.7 151.6178,-251.7 34.6178,-251.7"/>
<image xlink:href="../../images/primaryKeys.png" width="11px" height="12px" preserveAspectRatio="xMinYMin meet" x="39.6178" y="-268.7"/>
<text text-anchor="start" x="54.6178" y="-258.8" font-family="Helvetica,sans-Serif" font-size="11.00" fill="#000000">DEPOSITID</text>
<polygon fill="none" stroke="#000000" points="151.6178,-251.7 151.6178,-273.7 243.6178,-273.7 243.6178,-251.7 151.6178,-251.7"/>
<text text-anchor="start" x="154.6178" y="-259.4" font-family="Helvetica,sans-Serif" font-size="11.00" fill="#000000">serial[10]</text>
<polygon fill="#ffffff" stroke="transparent" points="34.6178,-229.7 34.6178,-251.7 151.6178,-251.7 151.6178,-229.7 34.6178,-229.7"/>
<polygon fill="none" stroke="#000000" points="34.6178,-229.7 34.6178,-251.7 151.6178,-251.7 151.6178,-229.7 34.6178,-229.7"/>
<text text-anchor="start" x="54.6178" y="-236.8" font-family="Helvetica,sans-Serif" font-size="11.00" fill="#000000">DEPOSIT</text>
<polygon fill="none" stroke="#000000" points="151.6178,-229.7 151.6178,-251.7 243.6178,-251.7 243.6178,-229.7 151.6178,-229.7"/>
<text text-anchor="start" x="154.6178" y="-237.4" font-family="Helvetica,sans-Serif" font-size="11.00" fill="#000000">text[2147483647]</text>
<polygon fill="none" stroke="#000000" points="34.6178,-207.7 34.6178,-229.7 151.6178,-229.7 151.6178,-207.7 34.6178,-207.7"/>
<image xlink:href="../../images/foreignKeys.png" width="11px" height="12px" preserveAspectRatio="xMinYMin meet" x="39.6178" y="-224.7"/>
<text text-anchor="start" x="54.6178" y="-214.8" font-family="Helvetica,sans-Serif" font-size="11.00" fill="#000000">PARENTID</text>
<polygon fill="none" stroke="#000000" points="151.6178,-207.7 151.6178,-229.7 243.6178,-229.7 243.6178,-207.7 151.6178,-207.7"/>
<text text-anchor="start" x="154.6178" y="-215.4" font-family="Helvetica,sans-Serif" font-size="11.00" fill="#000000">int2[5]</text>
<polygon fill="none" stroke="#000000" points="34.6178,-185.7 34.6178,-207.7 151.6178,-207.7 151.6178,-185.7 34.6178,-185.7"/>
<text text-anchor="start" x="54.6178" y="-192.8" font-family="Helvetica,sans-Serif" font-size="11.00" fill="#000000">DEPOSITDSC</text>
<polygon fill="none" stroke="#000000" points="151.6178,-185.7 151.6178,-207.7 243.6178,-207.7 243.6178,-185.7 151.6178,-185.7"/>
<text text-anchor="start" x="154.6178" y="-193.4" font-family="Helvetica,sans-Serif" font-size="11.00" fill="#000000">text[2147483647]</text>
<polygon fill="none" stroke="#000000" points="34.6178,-163.7 34.6178,-185.7 151.6178,-185.7 151.6178,-163.7 34.6178,-163.7"/>
<text text-anchor="start" x="54.6178" y="-170.8" font-family="Helvetica,sans-Serif" font-size="11.00" fill="#000000">CREATED_AT</text>
<polygon fill="none" stroke="#000000" points="151.6178,-163.7 151.6178,-185.7 243.6178,-185.7 243.6178,-163.7 151.6178,-163.7"/>
<text text-anchor="start" x="154.22" y="-171.4" font-family="Helvetica,sans-Serif" font-size="11.00" fill="#000000">timestamptz[35,6]</text>
<polygon fill="none" stroke="#000000" points="34.6178,-141.7 34.6178,-163.7 151.6178,-163.7 151.6178,-141.7 34.6178,-141.7"/>
<text text-anchor="start" x="54.6178" y="-148.8" font-family="Helvetica,sans-Serif" font-size="11.00" fill="#000000">UPDATED_AT</text>
<polygon fill="none" stroke="#000000" points="151.6178,-141.7 151.6178,-163.7 243.6178,-163.7 243.6178,-141.7 151.6178,-141.7"/>
<text text-anchor="start" x="154.22" y="-149.4" font-family="Helvetica,sans-Serif" font-size="11.00" fill="#000000">timestamptz[35,6]</text>
<polygon fill="#ffffff" stroke="transparent" points="34.6178,-122.7 34.6178,-141.7 78.6178,-141.7 78.6178,-122.7 34.6178,-122.7"/>
<polygon fill="none" stroke="#000000" points="34.6178,-122.7 34.6178,-141.7 78.6178,-141.7 78.6178,-122.7 34.6178,-122.7"/>
<text text-anchor="start" x="37.6178" y="-128.8" font-family="Helvetica,sans-Serif" font-size="11.00" fill="#000000">&lt; 1</text>
<polygon fill="#ffffff" stroke="transparent" points="78.6178,-122.7 78.6178,-141.7 151.6178,-141.7 151.6178,-122.7 78.6178,-122.7"/>
<polygon fill="none" stroke="#000000" points="78.6178,-122.7 78.6178,-141.7 151.6178,-141.7 151.6178,-122.7 78.6178,-122.7"/>
<text text-anchor="start" x="103.9985" y="-128.8" font-family="Helvetica,sans-Serif" font-size="11.00" fill="#000000">117 rows</text>
<polygon fill="#ffffff" stroke="transparent" points="151.6178,-122.7 151.6178,-141.7 243.6178,-141.7 243.6178,-122.7 151.6178,-122.7"/>
<polygon fill="none" stroke="#000000" points="151.6178,-122.7 151.6178,-141.7 243.6178,-141.7 243.6178,-122.7 151.6178,-122.7"/>
<text text-anchor="start" x="225.0231" y="-128.8" font-family="Helvetica,sans-Serif" font-size="11.00" fill="#000000">2 &gt;</text>
<polygon fill="none" stroke="#000000" stroke-width="2" points="33.1178,-121.7 33.1178,-297.7 244.1178,-297.7 244.1178,-121.7 33.1178,-121.7"/>
</a>
</g>
</g>
<!-- cabah_depositID&#45;&gt;cabah_depositID -->
<g id="edge1" class="edge">
<title>cabah_depositID:w&#45;&gt;cabah_depositID:e</title>
<path fill="none" stroke="#000000" d="M22.7363,-227.1937C-20.9481,-263.0701 -9.6185,-315.7 139.1178,-315.7 300.1178,-315.7 300.1178,-298.0333 243.6178,-262.7"/>
<polygon fill="#000000" stroke="#000000" points="28.1097,-223.3524 36.7114,-221.6286 31.3638,-221.0262 34.6178,-218.7 34.6178,-218.7 34.6178,-218.7 31.3638,-221.0262 32.5242,-215.7714 28.1097,-223.3524 28.1097,-223.3524"/>
<ellipse fill="none" stroke="#000000" cx="25.5065" cy="-225.2134" rx="3.2" ry="3.2"/>
</g>
<!-- char_Sample -->
<g id="node2" class="node">
<title>char_Sample</title>
<g id="a_node2"><a xlink:href="../../tables/char_Sample.html" xlink:title="char_Sample" target="_top">
<polygon fill="#ffffff" stroke="transparent" points="495.1178,-423.2 495.1178,-484.2 608.1178,-484.2 608.1178,-423.2 495.1178,-423.2"/>
<polygon fill="#f5f5f5" stroke="transparent" points="495.6178,-460.7 495.6178,-483.7 608.6178,-483.7 608.6178,-460.7 495.6178,-460.7"/>
<polygon fill="none" stroke="#000000" points="495.6178,-460.7 495.6178,-483.7 608.6178,-483.7 608.6178,-460.7 495.6178,-460.7"/>
<text text-anchor="start" x="500.6178" y="-469.3" font-family="Helvetica,sans-Serif" font-weight="bold" font-size="11.00" fill="#000000">char_Sample</text>
<text text-anchor="start" x="574.1396" y="-468.8" font-family="Helvetica,sans-Serif" font-size="11.00" fill="#000000">[table]</text>
<polygon fill="none" stroke="#000000" points="495.6178,-441.7 495.6178,-460.7 608.6178,-460.7 608.6178,-441.7 495.6178,-441.7"/>
<text text-anchor="start" x="498.6178" y="-447.8" font-family="Helvetica,sans-Serif" font-size="11.00" fill="#000000">...</text>
<polygon fill="#ffffff" stroke="transparent" points="495.6178,-422.7 495.6178,-441.7 519.6178,-441.7 519.6178,-422.7 495.6178,-422.7"/>
<polygon fill="none" stroke="#000000" points="495.6178,-422.7 495.6178,-441.7 519.6178,-441.7 519.6178,-422.7 495.6178,-422.7"/>
<text text-anchor="start" x="498.6178" y="-428.8" font-family="Helvetica,sans-Serif" font-size="11.00" fill="#000000">&lt; 1</text>
<polygon fill="#ffffff" stroke="transparent" points="519.6178,-422.7 519.6178,-441.7 585.6178,-441.7 585.6178,-422.7 519.6178,-422.7"/>
<polygon fill="none" stroke="#000000" points="519.6178,-422.7 519.6178,-441.7 585.6178,-441.7 585.6178,-422.7 519.6178,-422.7"/>
<text text-anchor="start" x="522.7118" y="-428.8" font-family="Helvetica,sans-Serif" font-size="11.00" fill="#000000">41.793 rows</text>
<polygon fill="#ffffff" stroke="transparent" points="585.6178,-422.7 585.6178,-441.7 608.6178,-441.7 608.6178,-422.7 585.6178,-422.7"/>
<polygon fill="none" stroke="#000000" points="585.6178,-422.7 585.6178,-441.7 608.6178,-441.7 608.6178,-422.7 585.6178,-422.7"/>
<text text-anchor="start" x="590.0231" y="-428.8" font-family="Helvetica,sans-Serif" font-size="11.00" fill="#000000">2 &gt;</text>
</a>
</g>
</g>
<!-- global_UnitMaster -->
<g id="node3" class="node">
<title>global_UnitMaster</title>
<g id="a_node3"><a xlink:href="../../tables/global_UnitMaster.html" xlink:title="global_UnitMaster" target="_top">
<polygon fill="#ffffff" stroke="transparent" points="294.1178,-250.2 294.1178,-487.2 437.1178,-487.2 437.1178,-250.2 294.1178,-250.2"/>
<polygon fill="#f5f5f5" stroke="transparent" points="294.6178,-463.7 294.6178,-486.7 437.6178,-486.7 437.6178,-463.7 294.6178,-463.7"/>
<polygon fill="none" stroke="#000000" points="294.6178,-463.7 294.6178,-486.7 437.6178,-486.7 437.6178,-463.7 294.6178,-463.7"/>
<text text-anchor="start" x="299.6178" y="-472.3" font-family="Helvetica,sans-Serif" font-weight="bold" font-size="11.00" fill="#000000">global_UnitMaster</text>
<text text-anchor="start" x="403.1396" y="-471.8" font-family="Helvetica,sans-Serif" font-size="11.00" fill="#000000">[table]</text>
<polygon fill="none" stroke="#000000" points="294.6178,-441.7 294.6178,-463.7 437.6178,-463.7 437.6178,-441.7 294.6178,-441.7"/>
<image xlink:href="../../images/primaryKeys.png" width="11px" height="12px" preserveAspectRatio="xMinYMin meet" x="299.618" y="-458.7"/>
<text text-anchor="start" x="323.6178" y="-448.8" font-family="Helvetica,sans-Serif" font-size="11.00" fill="#000000">UNITID</text>
<polygon fill="none" stroke="#000000" points="294.6178,-419.7 294.6178,-441.7 437.6178,-441.7 437.6178,-419.7 294.6178,-419.7"/>
<image xlink:href="../../images/foreignKeys.png" width="11px" height="12px" preserveAspectRatio="xMinYMin meet" x="299.618" y="-436.7"/>
<text text-anchor="start" x="323.6178" y="-426.8" font-family="Helvetica,sans-Serif" font-size="11.00" fill="#000000">SITEID</text>
<polygon fill="#ffffff" stroke="transparent" points="294.6178,-397.7 294.6178,-419.7 437.6178,-419.7 437.6178,-397.7 294.6178,-397.7"/>
<polygon fill="none" stroke="#000000" points="294.6178,-397.7 294.6178,-419.7 437.6178,-419.7 437.6178,-397.7 294.6178,-397.7"/>
<text text-anchor="start" x="323.6178" y="-404.8" font-family="Helvetica,sans-Serif" font-size="11.00" fill="#000000">UNITHANDLE</text>
<polygon fill="none" stroke="#000000" points="294.6178,-375.7 294.6178,-397.7 437.6178,-397.7 437.6178,-375.7 294.6178,-375.7"/>
<image xlink:href="../../images/foreignKeys.png" width="11px" height="12px" preserveAspectRatio="xMinYMin meet" x="299.618" y="-392.7"/>
<text text-anchor="start" x="323.6178" y="-382.8" font-family="Helvetica,sans-Serif" font-size="11.00" fill="#000000">UNITTYPEID</text>
<polygon fill="none" stroke="#000000" points="294.6178,-353.7 294.6178,-375.7 437.6178,-375.7 437.6178,-353.7 294.6178,-353.7"/>
<image xlink:href="../../images/foreignKeys.png" width="11px" height="12px" preserveAspectRatio="xMinYMin meet" x="299.618" y="-370.7"/>
<text text-anchor="start" x="323.6178" y="-360.8" font-family="Helvetica,sans-Serif" font-size="11.00" fill="#000000">COLLECTID</text>
<polygon fill="none" stroke="#000000" points="294.6178,-331.7 294.6178,-353.7 437.6178,-353.7 437.6178,-331.7 294.6178,-331.7"/>
<image xlink:href="../../images/foreignKeys.png" width="11px" height="12px" preserveAspectRatio="xMinYMin meet" x="299.618" y="-348.7"/>
<text text-anchor="start" x="323.6178" y="-338.8" font-family="Helvetica,sans-Serif" font-size="11.00" fill="#000000">DEPOSITID</text>
<polygon fill="#ffffff" stroke="transparent" points="294.6178,-309.7 294.6178,-331.7 437.6178,-331.7 437.6178,-309.7 294.6178,-309.7"/>
<polygon fill="none" stroke="#000000" points="294.6178,-309.7 294.6178,-331.7 437.6178,-331.7 437.6178,-309.7 294.6178,-309.7"/>
<text text-anchor="start" x="323.6178" y="-316.8" font-family="Helvetica,sans-Serif" font-size="11.00" fill="#000000">NEO_HANDLE</text>
<polygon fill="none" stroke="#000000" points="294.6178,-287.7 294.6178,-309.7 437.6178,-309.7 437.6178,-287.7 294.6178,-287.7"/>
<image xlink:href="../../images/foreignKeys.png" width="11px" height="12px" preserveAspectRatio="xMinYMin meet" x="299.618" y="-304.7"/>
<text text-anchor="start" x="323.6178" y="-294.8" font-family="Helvetica,sans-Serif" font-size="11.00" fill="#000000">UNIT_REF</text>
<polygon fill="none" stroke="#000000" points="294.6178,-268.7 294.6178,-287.7 437.6178,-287.7 437.6178,-268.7 294.6178,-268.7"/>
<text text-anchor="start" x="297.6178" y="-274.8" font-family="Helvetica,sans-Serif" font-size="11.00" fill="#000000">...</text>
<polygon fill="#ffffff" stroke="transparent" points="294.6178,-249.7 294.6178,-268.7 340.6178,-268.7 340.6178,-249.7 294.6178,-249.7"/>
<polygon fill="none" stroke="#000000" points="294.6178,-249.7 294.6178,-268.7 340.6178,-268.7 340.6178,-249.7 294.6178,-249.7"/>
<text text-anchor="start" x="297.6178" y="-255.8" font-family="Helvetica,sans-Serif" font-size="11.00" fill="#000000">&lt; 5</text>
<polygon fill="#ffffff" stroke="transparent" points="340.6178,-249.7 340.6178,-268.7 403.6178,-268.7 403.6178,-249.7 340.6178,-249.7"/>
<polygon fill="none" stroke="#000000" points="340.6178,-249.7 340.6178,-268.7 403.6178,-268.7 403.6178,-249.7 340.6178,-249.7"/>
<text text-anchor="start" x="355.9985" y="-255.8" font-family="Helvetica,sans-Serif" font-size="11.00" fill="#000000">531 rows</text>
<polygon fill="#ffffff" stroke="transparent" points="403.6178,-249.7 403.6178,-268.7 437.6178,-268.7 437.6178,-249.7 403.6178,-249.7"/>
<polygon fill="none" stroke="#000000" points="403.6178,-249.7 403.6178,-268.7 437.6178,-268.7 437.6178,-249.7 403.6178,-249.7"/>
<text text-anchor="start" x="419.0231" y="-255.8" font-family="Helvetica,sans-Serif" font-size="11.00" fill="#000000">3 &gt;</text>
</a>
</g>
</g>
<!-- char_Sample&#45;&gt;global_UnitMaster -->
<g id="edge2" class="edge">
<title>char_Sample:w&#45;&gt;global_UnitMaster:e</title>
<path fill="none" stroke="#000000" d="M481.0674,-450.9452C466.0913,-451.4793 457.7687,-452.7 437.6178,-452.7"/>
<polygon fill="#000000" stroke="#000000" points="487.6189,-450.8349 495.6785,-454.2995 491.6184,-450.7674 495.6178,-450.7 495.6178,-450.7 495.6178,-450.7 491.6184,-450.7674 495.5571,-447.1005 487.6189,-450.8349 487.6189,-450.8349"/>
<ellipse fill="none" stroke="#000000" cx="484.4194" cy="-450.8888" rx="3.2" ry="3.2"/>
</g>
<!-- global_UnitMaster&#45;&gt;cabah_depositID -->
<g id="edge4" class="edge">
<title>global_UnitMaster:w&#45;&gt;cabah_depositID:e</title>
<path fill="none" stroke="#000000" d="M280.6103,-338.1696C260.5097,-321.2461 279.6895,-262.7 243.6178,-262.7"/>
<polygon fill="#000000" stroke="#000000" points="287.006,-340.2381 293.51,-346.1253 290.8119,-341.4691 294.6178,-342.7 294.6178,-342.7 294.6178,-342.7 290.8119,-341.4691 295.7256,-339.2747 287.006,-340.2381 287.006,-340.2381"/>
<ellipse fill="none" stroke="#000000" cx="283.9613" cy="-339.2534" rx="3.2" ry="3.2"/>
</g>
<!-- cabah_col_mtdID -->
<g id="node4" class="node">
<title>cabah_col_mtdID</title>
<g id="a_node4"><a xlink:href="../../tables/cabah_col_mtdID.html" xlink:title="cabah_col_mtdID" target="_top">
<polygon fill="#ffffff" stroke="transparent" points="69.6178,-338.2 69.6178,-399.2 207.6178,-399.2 207.6178,-338.2 69.6178,-338.2"/>
<polygon fill="#f5f5f5" stroke="transparent" points="69.6178,-375.7 69.6178,-398.7 207.6178,-398.7 207.6178,-375.7 69.6178,-375.7"/>
<polygon fill="none" stroke="#000000" points="69.6178,-375.7 69.6178,-398.7 207.6178,-398.7 207.6178,-375.7 69.6178,-375.7"/>
<text text-anchor="start" x="74.6178" y="-384.3" font-family="Helvetica,sans-Serif" font-weight="bold" font-size="11.00" fill="#000000">cabah_col_mtdID</text>
<text text-anchor="start" x="173.1396" y="-383.8" font-family="Helvetica,sans-Serif" font-size="11.00" fill="#000000">[table]</text>
<polygon fill="none" stroke="#000000" points="69.6178,-356.7 69.6178,-375.7 207.6178,-375.7 207.6178,-356.7 69.6178,-356.7"/>
<text text-anchor="start" x="72.6178" y="-362.8" font-family="Helvetica,sans-Serif" font-size="11.00" fill="#000000">...</text>
<polygon fill="#ffffff" stroke="transparent" points="69.6178,-337.7 69.6178,-356.7 116.6178,-356.7 116.6178,-337.7 69.6178,-337.7"/>
<polygon fill="none" stroke="#000000" points="69.6178,-337.7 69.6178,-356.7 116.6178,-356.7 116.6178,-337.7 69.6178,-337.7"/>
<text text-anchor="start" x="72.6178" y="-343.8" font-family="Helvetica,sans-Serif" font-size="11.00" fill="#000000">&lt; 1</text>
<polygon fill="#ffffff" stroke="transparent" points="116.6178,-337.7 116.6178,-356.7 173.6178,-356.7 173.6178,-337.7 116.6178,-337.7"/>
<polygon fill="none" stroke="#000000" points="116.6178,-337.7 116.6178,-356.7 173.6178,-356.7 173.6178,-337.7 116.6178,-337.7"/>
<text text-anchor="start" x="132.1134" y="-343.8" font-family="Helvetica,sans-Serif" font-size="11.00" fill="#000000">42 rows</text>
<polygon fill="#ffffff" stroke="transparent" points="173.6178,-337.7 173.6178,-356.7 207.6178,-356.7 207.6178,-337.7 173.6178,-337.7"/>
<polygon fill="none" stroke="#000000" points="173.6178,-337.7 173.6178,-356.7 207.6178,-356.7 207.6178,-337.7 173.6178,-337.7"/>
<text text-anchor="start" x="189.0231" y="-343.8" font-family="Helvetica,sans-Serif" font-size="11.00" fill="#000000">7 &gt;</text>
</a>
</g>
</g>
<!-- global_UnitMaster&#45;&gt;cabah_col_mtdID -->
<g id="edge3" class="edge">
<title>global_UnitMaster:w&#45;&gt;cabah_col_mtdID:e</title>
<path fill="none" stroke="#000000" d="M279.8638,-364.7538C252.6576,-364.9615 240.8492,-365.7 207.6178,-365.7"/>
<polygon fill="#000000" stroke="#000000" points="286.6178,-364.7292 294.6309,-368.3 290.6178,-364.7146 294.6178,-364.7 294.6178,-364.7 294.6178,-364.7 290.6178,-364.7146 294.6047,-361.1 286.6178,-364.7292 286.6178,-364.7292"/>
<ellipse fill="none" stroke="#000000" cx="283.4179" cy="-364.7409" rx="3.2" ry="3.2"/>
</g>
<!-- global_SiteMaster -->
<g id="node5" class="node">
<title>global_SiteMaster</title>
<g id="a_node5"><a xlink:href="../../tables/global_SiteMaster.html" xlink:title="global_SiteMaster" target="_top">
<polygon fill="#ffffff" stroke="transparent" points="68.1178,-505.2 68.1178,-566.2 209.1178,-566.2 209.1178,-505.2 68.1178,-505.2"/>
<polygon fill="#f5f5f5" stroke="transparent" points="68.6178,-542.7 68.6178,-565.7 209.6178,-565.7 209.6178,-542.7 68.6178,-542.7"/>
<polygon fill="none" stroke="#000000" points="68.6178,-542.7 68.6178,-565.7 209.6178,-565.7 209.6178,-542.7 68.6178,-542.7"/>
<text text-anchor="start" x="73.6178" y="-551.3" font-family="Helvetica,sans-Serif" font-weight="bold" font-size="11.00" fill="#000000">global_SiteMaster</text>
<text text-anchor="start" x="175.1396" y="-550.8" font-family="Helvetica,sans-Serif" font-size="11.00" fill="#000000">[table]</text>
<polygon fill="none" stroke="#000000" points="68.6178,-523.7 68.6178,-542.7 209.6178,-542.7 209.6178,-523.7 68.6178,-523.7"/>
<text text-anchor="start" x="71.6178" y="-529.8" font-family="Helvetica,sans-Serif" font-size="11.00" fill="#000000">...</text>
<polygon fill="#ffffff" stroke="transparent" points="68.6178,-504.7 68.6178,-523.7 103.6178,-523.7 103.6178,-504.7 68.6178,-504.7"/>
<polygon fill="none" stroke="#000000" points="68.6178,-504.7 68.6178,-523.7 103.6178,-523.7 103.6178,-504.7 68.6178,-504.7"/>
<text text-anchor="start" x="71.6178" y="-510.8" font-family="Helvetica,sans-Serif" font-size="11.00" fill="#000000">&lt; 8</text>
<polygon fill="#ffffff" stroke="transparent" points="103.6178,-504.7 103.6178,-523.7 175.6178,-523.7 175.6178,-504.7 103.6178,-504.7"/>
<polygon fill="none" stroke="#000000" points="103.6178,-504.7 103.6178,-523.7 175.6178,-523.7 175.6178,-504.7 103.6178,-504.7"/>
<text text-anchor="start" x="112.7118" y="-510.8" font-family="Helvetica,sans-Serif" font-size="11.00" fill="#000000">23.734 rows</text>
<polygon fill="#ffffff" stroke="transparent" points="175.6178,-504.7 175.6178,-523.7 209.6178,-523.7 209.6178,-504.7 175.6178,-504.7"/>
<polygon fill="none" stroke="#000000" points="175.6178,-504.7 175.6178,-523.7 209.6178,-523.7 209.6178,-504.7 175.6178,-504.7"/>
<text text-anchor="start" x="184.9082" y="-510.8" font-family="Helvetica,sans-Serif" font-size="11.00" fill="#000000">23 &gt;</text>
</a>
</g>
</g>
<!-- global_UnitMaster&#45;&gt;global_SiteMaster -->
<g id="edge5" class="edge">
<title>global_UnitMaster:w&#45;&gt;global_SiteMaster:e</title>
<path fill="none" stroke="#000000" d="M280.4351,-434.1915C265.3509,-443.829 270.4069,-471.4295 253.1178,-491.7 235.8772,-511.9136 236.1852,-532.7 209.6178,-532.7"/>
<polygon fill="#000000" stroke="#000000" points="286.8497,-432.6124 295.4784,-434.1956 290.7338,-431.6562 294.6178,-430.7 294.6178,-430.7 294.6178,-430.7 290.7338,-431.6562 293.7572,-427.2044 286.8497,-432.6124 286.8497,-432.6124"/>
<ellipse fill="none" stroke="#000000" cx="283.7425" cy="-433.3773" rx="3.2" ry="3.2"/>
</g>
<!-- global_RefCore -->
<g id="node6" class="node">
<title>global_RefCore</title>
<g id="a_node6"><a xlink:href="../../tables/global_RefCore.html" xlink:title="global_RefCore" target="_top">
<polygon fill="#ffffff" stroke="transparent" points="75.1178,-38.2 75.1178,-99.2 202.1178,-99.2 202.1178,-38.2 75.1178,-38.2"/>
<polygon fill="#f5f5f5" stroke="transparent" points="75.6178,-75.7 75.6178,-98.7 202.6178,-98.7 202.6178,-75.7 75.6178,-75.7"/>
<polygon fill="none" stroke="#000000" points="75.6178,-75.7 75.6178,-98.7 202.6178,-98.7 202.6178,-75.7 75.6178,-75.7"/>
<text text-anchor="start" x="80.6178" y="-84.3" font-family="Helvetica,sans-Serif" font-weight="bold" font-size="11.00" fill="#000000">global_RefCore</text>
<text text-anchor="start" x="168.1396" y="-83.8" font-family="Helvetica,sans-Serif" font-size="11.00" fill="#000000">[table]</text>
<polygon fill="none" stroke="#000000" points="75.6178,-56.7 75.6178,-75.7 202.6178,-75.7 202.6178,-56.7 75.6178,-56.7"/>
<text text-anchor="start" x="78.6178" y="-62.8" font-family="Helvetica,sans-Serif" font-size="11.00" fill="#000000">...</text>
<polygon fill="#ffffff" stroke="transparent" points="75.6178,-37.7 75.6178,-56.7 106.6178,-56.7 106.6178,-37.7 75.6178,-37.7"/>
<polygon fill="none" stroke="#000000" points="75.6178,-37.7 75.6178,-56.7 106.6178,-56.7 106.6178,-37.7 75.6178,-37.7"/>
<text text-anchor="start" x="78.6178" y="-43.8" font-family="Helvetica,sans-Serif" font-size="11.00" fill="#000000">&lt; 5</text>
<polygon fill="#ffffff" stroke="transparent" points="106.6178,-37.7 106.6178,-56.7 170.6178,-56.7 170.6178,-37.7 106.6178,-37.7"/>
<polygon fill="none" stroke="#000000" points="106.6178,-37.7 106.6178,-56.7 170.6178,-56.7 170.6178,-37.7 106.6178,-37.7"/>
<text text-anchor="start" x="113.8267" y="-43.8" font-family="Helvetica,sans-Serif" font-size="11.00" fill="#000000">3.936 rows</text>
<polygon fill="#ffffff" stroke="transparent" points="170.6178,-37.7 170.6178,-56.7 202.6178,-56.7 202.6178,-37.7 170.6178,-37.7"/>
<polygon fill="none" stroke="#000000" points="170.6178,-37.7 170.6178,-56.7 202.6178,-56.7 202.6178,-37.7 170.6178,-37.7"/>
<text text-anchor="start" x="177.9082" y="-43.8" font-family="Helvetica,sans-Serif" font-size="11.00" fill="#000000">36 &gt;</text>
</a>
</g>
</g>
<!-- global_UnitMaster&#45;&gt;global_RefCore -->
<g id="edge6" class="edge">
<title>global_UnitMaster:w&#45;&gt;global_RefCore:e</title>
<path fill="none" stroke="#000000" d="M280.0795,-297.3083C219.4571,-284.0436 294.1462,-178.9111 253.1178,-109.7 237.9377,-84.0926 232.3864,-65.7 202.6178,-65.7"/>
<polygon fill="#000000" stroke="#000000" points="286.6542,-297.9376 294.2747,-302.2836 290.636,-298.3188 294.6178,-298.7 294.6178,-298.7 294.6178,-298.7 290.636,-298.3188 294.9609,-295.1164 286.6542,-297.9376 286.6542,-297.9376"/>
<ellipse fill="none" stroke="#000000" cx="283.4688" cy="-297.6327" rx="3.2" ry="3.2"/>
</g>
<!-- cabah_unittypeID -->
<g id="node7" class="node">
<title>cabah_unittypeID</title>
<g id="a_node7"><a xlink:href="../../tables/cabah_unittypeID.html" xlink:title="cabah_unittypeID" target="_top">
<polygon fill="#ffffff" stroke="transparent" points="69.1178,-420.2 69.1178,-481.2 208.1178,-481.2 208.1178,-420.2 69.1178,-420.2"/>
<polygon fill="#f5f5f5" stroke="transparent" points="69.6178,-457.7 69.6178,-480.7 208.6178,-480.7 208.6178,-457.7 69.6178,-457.7"/>
<polygon fill="none" stroke="#000000" points="69.6178,-457.7 69.6178,-480.7 208.6178,-480.7 208.6178,-457.7 69.6178,-457.7"/>
<text text-anchor="start" x="74.6178" y="-466.3" font-family="Helvetica,sans-Serif" font-weight="bold" font-size="11.00" fill="#000000">cabah_unittypeID</text>
<text text-anchor="start" x="174.1396" y="-465.8" font-family="Helvetica,sans-Serif" font-size="11.00" fill="#000000">[table]</text>
<polygon fill="none" stroke="#000000" points="69.6178,-438.7 69.6178,-457.7 208.6178,-457.7 208.6178,-438.7 69.6178,-438.7"/>
<text text-anchor="start" x="72.6178" y="-444.8" font-family="Helvetica,sans-Serif" font-size="11.00" fill="#000000">...</text>
<polygon fill="#ffffff" stroke="transparent" points="69.6178,-419.7 69.6178,-438.7 112.6178,-438.7 112.6178,-419.7 69.6178,-419.7"/>
<polygon fill="none" stroke="#000000" points="69.6178,-419.7 69.6178,-438.7 112.6178,-438.7 112.6178,-419.7 69.6178,-419.7"/>
<text text-anchor="start" x="72.6178" y="-425.8" font-family="Helvetica,sans-Serif" font-size="11.00" fill="#000000"> &#160;</text>
<polygon fill="#ffffff" stroke="transparent" points="112.6178,-419.7 112.6178,-438.7 171.6178,-438.7 171.6178,-419.7 112.6178,-419.7"/>
<polygon fill="none" stroke="#000000" points="112.6178,-419.7 112.6178,-438.7 171.6178,-438.7 171.6178,-419.7 112.6178,-419.7"/>
<text text-anchor="start" x="130.1134" y="-425.8" font-family="Helvetica,sans-Serif" font-size="11.00" fill="#000000">15 rows</text>
<polygon fill="#ffffff" stroke="transparent" points="171.6178,-419.7 171.6178,-438.7 208.6178,-438.7 208.6178,-419.7 171.6178,-419.7"/>
<polygon fill="none" stroke="#000000" points="171.6178,-419.7 171.6178,-438.7 208.6178,-438.7 208.6178,-419.7 171.6178,-419.7"/>
<text text-anchor="start" x="190.0231" y="-425.8" font-family="Helvetica,sans-Serif" font-size="11.00" fill="#000000">1 &gt;</text>
</a>
</g>
</g>
<!-- global_UnitMaster&#45;&gt;cabah_unittypeID -->
<g id="edge7" class="edge">
<title>global_UnitMaster:w&#45;&gt;cabah_unittypeID:e</title>
<path fill="none" stroke="#000000" d="M280.2163,-389.0168C248.8171,-400.1592 249.9872,-447.7 208.6178,-447.7"/>
<polygon fill="#000000" stroke="#000000" points="286.7193,-387.9707 295.1896,-390.2543 290.6686,-387.3353 294.6178,-386.7 294.6178,-386.7 294.6178,-386.7 290.6686,-387.3353 294.046,-383.1457 286.7193,-387.9707 286.7193,-387.9707"/>
<ellipse fill="none" stroke="#000000" cx="283.56" cy="-388.4789" rx="3.2" ry="3.2"/>
</g>
<!-- sahulchar -->
<g id="node8" class="node">
<title>sahulchar</title>
<g id="a_node8"><a xlink:href="../../tables/sahulchar.html" xlink:title="sahulchar" target="_top">
<polygon fill="#ffffff" stroke="transparent" points="666.1178,-423.2 666.1178,-484.2 764.1178,-484.2 764.1178,-423.2 666.1178,-423.2"/>
<polygon fill="#f5f5f5" stroke="transparent" points="666.1178,-460.7 666.1178,-483.7 764.1178,-483.7 764.1178,-460.7 666.1178,-460.7"/>
<polygon fill="none" stroke="#000000" points="666.1178,-460.7 666.1178,-483.7 764.1178,-483.7 764.1178,-460.7 666.1178,-460.7"/>
<text text-anchor="start" x="671.1178" y="-469.3" font-family="Helvetica,sans-Serif" font-weight="bold" font-size="11.00" fill="#000000">sahulchar</text>
<text text-anchor="start" x="729.1615" y="-468.8" font-family="Helvetica,sans-Serif" font-size="11.00" fill="#000000">[table]</text>
<polygon fill="none" stroke="#000000" points="666.1178,-441.7 666.1178,-460.7 764.1178,-460.7 764.1178,-441.7 666.1178,-441.7"/>
<text text-anchor="start" x="669.1178" y="-447.8" font-family="Helvetica,sans-Serif" font-size="11.00" fill="#000000">...</text>
<polygon fill="#ffffff" stroke="transparent" points="666.1178,-422.7 666.1178,-441.7 687.1178,-441.7 687.1178,-422.7 666.1178,-422.7"/>
<polygon fill="none" stroke="#000000" points="666.1178,-422.7 666.1178,-441.7 687.1178,-441.7 687.1178,-422.7 666.1178,-422.7"/>
<text text-anchor="start" x="668.8204" y="-428.8" font-family="Helvetica,sans-Serif" font-size="11.00" fill="#000000">&lt; 6</text>
<polygon fill="#ffffff" stroke="transparent" points="687.1178,-422.7 687.1178,-441.7 752.1178,-441.7 752.1178,-422.7 687.1178,-422.7"/>
<polygon fill="none" stroke="#000000" points="687.1178,-422.7 687.1178,-441.7 752.1178,-441.7 752.1178,-422.7 687.1178,-422.7"/>
<text text-anchor="start" x="689.6648" y="-428.8" font-family="Helvetica,sans-Serif" font-size="11.00" fill="#000000">48.234 rows</text>
<polygon fill="#ffffff" stroke="transparent" points="752.1178,-422.7 752.1178,-441.7 764.1178,-441.7 764.1178,-422.7 752.1178,-422.7"/>
<polygon fill="none" stroke="#000000" points="752.1178,-422.7 752.1178,-441.7 764.1178,-441.7 764.1178,-422.7 752.1178,-422.7"/>
<text text-anchor="start" x="755.0609" y="-428.8" font-family="Helvetica,sans-Serif" font-size="11.00" fill="#000000"> &#160;</text>
</a>
</g>
</g>
<!-- sahulchar&#45;&gt;char_Sample -->
<g id="edge9" class="edge">
<title>sahulchar:w&#45;&gt;char_Sample:e</title>
<path fill="none" stroke="#000000" stroke-dasharray="5,2" d="M651.6972,-450.7C636.8499,-450.7 628.5831,-450.7 608.6178,-450.7"/>
<polygon fill="#000000" stroke="#000000" points="658.1178,-450.7001 666.1178,-454.3 662.1178,-450.7 666.1178,-450.7 666.1178,-450.7 666.1178,-450.7 662.1178,-450.7 666.1178,-447.1 658.1178,-450.7001 658.1178,-450.7001"/>
<ellipse fill="none" stroke="#000000" cx="654.9178" cy="-450.7001" rx="3.2" ry="3.2"/>
</g>
<!-- sahulchar&#45;&gt;global_UnitMaster -->
<g id="edge10" class="edge">
<title>sahulchar:w&#45;&gt;global_UnitMaster:e</title>
<path fill="none" stroke="#000000" stroke-dasharray="5,2" d="M652.4827,-446.038C642.8787,-437.4765 642.4655,-419.5029 625.1178,-412.7 564.2941,-388.848 538.5553,-387.8856 478.1178,-412.7 454.7144,-422.3089 462.917,-452.7 437.6178,-452.7"/>
<polygon fill="#000000" stroke="#000000" points="658.548,-448.1118 664.9531,-454.1064 662.3329,-449.4059 666.1178,-450.7 666.1178,-450.7 666.1178,-450.7 662.3329,-449.4059 667.2825,-447.2936 658.548,-448.1118 658.548,-448.1118"/>
<ellipse fill="none" stroke="#000000" cx="655.5201" cy="-447.0765" rx="3.2" ry="3.2"/>
</g>
<!-- sahulchar&#45;&gt;global_SiteMaster -->
<g id="edge8" class="edge">
<title>sahulchar:w&#45;&gt;global_SiteMaster:e</title>
<path fill="none" stroke="#000000" stroke-dasharray="5,2" d="M651.7763,-453.373C619.373,-468.6789 667.9289,-545.61 625.1178,-576.7 573.6113,-614.1047 278.4058,-532.7 209.6178,-532.7"/>
<polygon fill="#000000" stroke="#000000" points="658.2532,-452.1658 666.7774,-454.2391 662.1855,-451.4329 666.1178,-450.7 666.1178,-450.7 666.1178,-450.7 662.1855,-451.4329 665.4582,-447.1609 658.2532,-452.1658 658.2532,-452.1658"/>
<ellipse fill="none" stroke="#000000" cx="655.1074" cy="-452.7522" rx="3.2" ry="3.2"/>
</g>
<!-- sahulchar_units -->
<g id="node9" class="node">
<title>sahulchar_units</title>
<g id="a_node9"><a xlink:href="../../tables/sahulchar_units.html" xlink:title="sahulchar_units" target="_top">
<polygon fill="#ffffff" stroke="transparent" points="486.1178,-505.2 486.1178,-566.2 617.1178,-566.2 617.1178,-505.2 486.1178,-505.2"/>
<polygon fill="#f5f5f5" stroke="transparent" points="486.6178,-542.7 486.6178,-565.7 617.6178,-565.7 617.6178,-542.7 486.6178,-542.7"/>
<polygon fill="none" stroke="#000000" points="486.6178,-542.7 486.6178,-565.7 617.6178,-565.7 617.6178,-542.7 486.6178,-542.7"/>
<text text-anchor="start" x="491.6178" y="-551.3" font-family="Helvetica,sans-Serif" font-weight="bold" font-size="11.00" fill="#000000">sahulchar_units</text>
<text text-anchor="start" x="583.1396" y="-550.8" font-family="Helvetica,sans-Serif" font-size="11.00" fill="#000000">[table]</text>
<polygon fill="none" stroke="#000000" points="486.6178,-523.7 486.6178,-542.7 617.6178,-542.7 617.6178,-523.7 486.6178,-523.7"/>
<text text-anchor="start" x="489.6178" y="-529.8" font-family="Helvetica,sans-Serif" font-size="11.00" fill="#000000">...</text>
<polygon fill="#ffffff" stroke="transparent" points="486.6178,-504.7 486.6178,-523.7 531.6178,-523.7 531.6178,-504.7 486.6178,-504.7"/>
<polygon fill="none" stroke="#000000" points="486.6178,-504.7 486.6178,-523.7 531.6178,-523.7 531.6178,-504.7 486.6178,-504.7"/>
<text text-anchor="start" x="489.6178" y="-510.8" font-family="Helvetica,sans-Serif" font-size="11.00" fill="#000000">&lt; 4</text>
<polygon fill="#ffffff" stroke="transparent" points="531.6178,-504.7 531.6178,-523.7 593.6178,-523.7 593.6178,-504.7 531.6178,-504.7"/>
<polygon fill="none" stroke="#000000" points="531.6178,-504.7 531.6178,-523.7 593.6178,-523.7 593.6178,-504.7 531.6178,-504.7"/>
<text text-anchor="start" x="545.9985" y="-510.8" font-family="Helvetica,sans-Serif" font-size="11.00" fill="#000000">531 rows</text>
<polygon fill="#ffffff" stroke="transparent" points="593.6178,-504.7 593.6178,-523.7 617.6178,-523.7 617.6178,-504.7 593.6178,-504.7"/>
<polygon fill="none" stroke="#000000" points="593.6178,-504.7 593.6178,-523.7 617.6178,-523.7 617.6178,-504.7 593.6178,-504.7"/>
<text text-anchor="start" x="608.504" y="-510.8" font-family="Helvetica,sans-Serif" font-size="11.00" fill="#000000"> &#160;</text>
</a>
</g>
</g>
<!-- sahulchar_units&#45;&gt;global_UnitMaster -->
<g id="edge12" class="edge">
<title>sahulchar_units:w&#45;&gt;global_UnitMaster:e</title>
<path fill="none" stroke="#000000" stroke-dasharray="5,2" d="M472.8478,-528.1696C453.2743,-511.2461 473.2865,-452.7 437.6178,-452.7"/>
<polygon fill="#000000" stroke="#000000" points="479.0185,-530.1998 485.4927,-536.1197 482.8181,-531.4499 486.6178,-532.7 486.6178,-532.7 486.6178,-532.7 482.8181,-531.4499 487.7429,-529.2803 479.0185,-530.1998 479.0185,-530.1998"/>
<ellipse fill="none" stroke="#000000" cx="475.9788" cy="-529.1997" rx="3.2" ry="3.2"/>
</g>
<!-- sahulchar_units&#45;&gt;global_SiteMaster -->
<g id="edge11" class="edge">
<title>sahulchar_units:w&#45;&gt;global_SiteMaster:e</title>
<path fill="none" stroke="#000000" stroke-dasharray="5,2" d="M471.9226,-532.7C360.8266,-532.7 327.6794,-532.7 209.6178,-532.7"/>
<polygon fill="#000000" stroke="#000000" points="478.6178,-532.7001 486.6178,-536.3 482.6178,-532.7 486.6178,-532.7 486.6178,-532.7 486.6178,-532.7 482.6178,-532.7 486.6178,-529.1 478.6178,-532.7001 478.6178,-532.7001"/>
<ellipse fill="none" stroke="#000000" cx="475.4178" cy="-532.7001" rx="3.2" ry="3.2"/>
</g>
</g>
</svg>
