<?xml version="1.0" encoding="UTF-8" standalone="no"?>
<!DOCTYPE svg PUBLIC "-//W3C//DTD SVG 1.1//EN"
 "http://www.w3.org/Graphics/SVG/1.1/DTD/svg11.dtd">
<!-- Generated by graphviz version 2.40.1 (20161225.0304)
 -->
<!-- Title: twoDegreesRelationshipsDiagram Pages: 1 -->
<svg width="793pt" height="745pt"
 viewBox="0.00 0.00 793.00 744.70" xmlns="http://www.w3.org/2000/svg" xmlns:xlink="http://www.w3.org/1999/xlink">
<g id="graph0" class="graph" transform="scale(1 1) rotate(0) translate(4 740.7)">
<title>twoDegreesRelationshipsDiagram</title>
<polygon fill="#ffffff" stroke="transparent" points="-4,4 -4,-740.7 789,-740.7 789,4 -4,4"/>
<text text-anchor="middle" x="72.4936" y="-7.3" font-family="Helvetica,sans-Serif" font-size="11.00" fill="#000000">Generated by SchemaSpy</text>
<!-- arch_Sample -->
<g id="node1" class="node">
<title>arch_Sample</title>
<g id="a_node1"><a xlink:href="../../tables/arch_Sample.html" xlink:title="arch_Sample" target="_top">
<polygon fill="#ffffff" stroke="transparent" points="656,-671.7 656,-732.7 769,-732.7 769,-671.7 656,-671.7"/>
<polygon fill="#f5f5f5" stroke="transparent" points="656.5,-709.2 656.5,-732.2 769.5,-732.2 769.5,-709.2 656.5,-709.2"/>
<polygon fill="none" stroke="#000000" points="656.5,-709.2 656.5,-732.2 769.5,-732.2 769.5,-709.2 656.5,-709.2"/>
<text text-anchor="start" x="661.5" y="-717.8" font-family="Helvetica,sans-Serif" font-weight="bold" font-size="11.00" fill="#000000">arch_Sample</text>
<text text-anchor="start" x="735.0219" y="-717.3" font-family="Helvetica,sans-Serif" font-size="11.00" fill="#000000">[table]</text>
<polygon fill="none" stroke="#000000" points="656.5,-690.2 656.5,-709.2 769.5,-709.2 769.5,-690.2 656.5,-690.2"/>
<text text-anchor="start" x="659.5" y="-696.3" font-family="Helvetica,sans-Serif" font-size="11.00" fill="#000000">...</text>
<polygon fill="#ffffff" stroke="transparent" points="656.5,-671.2 656.5,-690.2 680.5,-690.2 680.5,-671.2 656.5,-671.2"/>
<polygon fill="none" stroke="#000000" points="656.5,-671.2 656.5,-690.2 680.5,-690.2 680.5,-671.2 656.5,-671.2"/>
<text text-anchor="start" x="659.5" y="-677.3" font-family="Helvetica,sans-Serif" font-size="11.00" fill="#000000">&lt; 2</text>
<polygon fill="#ffffff" stroke="transparent" points="680.5,-671.2 680.5,-690.2 746.5,-690.2 746.5,-671.2 680.5,-671.2"/>
<polygon fill="none" stroke="#000000" points="680.5,-671.2 680.5,-690.2 746.5,-690.2 746.5,-671.2 680.5,-671.2"/>
<text text-anchor="start" x="683.594" y="-677.3" font-family="Helvetica,sans-Serif" font-size="11.00" fill="#000000">10.412 rows</text>
<polygon fill="#ffffff" stroke="transparent" points="746.5,-671.2 746.5,-690.2 769.5,-690.2 769.5,-671.2 746.5,-671.2"/>
<polygon fill="none" stroke="#000000" points="746.5,-671.2 746.5,-690.2 769.5,-690.2 769.5,-671.2 746.5,-671.2"/>
<text text-anchor="start" x="750.9053" y="-677.3" font-family="Helvetica,sans-Serif" font-size="11.00" fill="#000000">3 &gt;</text>
</a>
</g>
</g>
<!-- global_SiteMaster -->
<g id="node2" class="node">
<title>global_SiteMaster</title>
<g id="a_node2"><a xlink:href="../../tables/global_SiteMaster.html" xlink:title="global_SiteMaster" target="_top">
<polygon fill="#ffffff" stroke="transparent" points="458,-310.7 458,-569.7 599,-569.7 599,-310.7 458,-310.7"/>
<polygon fill="#f5f5f5" stroke="transparent" points="458.5,-546.2 458.5,-569.2 599.5,-569.2 599.5,-546.2 458.5,-546.2"/>
<polygon fill="none" stroke="#000000" points="458.5,-546.2 458.5,-569.2 599.5,-569.2 599.5,-546.2 458.5,-546.2"/>
<text text-anchor="start" x="463.5" y="-554.8" font-family="Helvetica,sans-Serif" font-weight="bold" font-size="11.00" fill="#000000">global_SiteMaster</text>
<text text-anchor="start" x="565.0219" y="-554.3" font-family="Helvetica,sans-Serif" font-size="11.00" fill="#000000">[table]</text>
<polygon fill="none" stroke="#000000" points="458.5,-524.2 458.5,-546.2 599.5,-546.2 599.5,-524.2 458.5,-524.2"/>
<image xlink:href="../../images/primaryKeys.png" width="11px" height="12px" preserveAspectRatio="xMinYMin meet" x="463.5" y="-541.2"/>
<text text-anchor="start" x="487.5" y="-531.3" font-family="Helvetica,sans-Serif" font-size="11.00" fill="#000000">SITEID</text>
<polygon fill="none" stroke="#000000" points="458.5,-502.2 458.5,-524.2 599.5,-524.2 599.5,-502.2 458.5,-502.2"/>
<image xlink:href="../../images/foreignKeys.png" width="11px" height="12px" preserveAspectRatio="xMinYMin meet" x="463.5" y="-519.2"/>
<text text-anchor="start" x="487.5" y="-509.3" font-family="Helvetica,sans-Serif" font-size="11.00" fill="#000000">METASITEID</text>
<polygon fill="none" stroke="#000000" points="458.5,-480.2 458.5,-502.2 599.5,-502.2 599.5,-480.2 458.5,-480.2"/>
<image xlink:href="../../images/foreignKeys.png" width="11px" height="12px" preserveAspectRatio="xMinYMin meet" x="463.5" y="-497.2"/>
<text text-anchor="start" x="487.5" y="-487.3" font-family="Helvetica,sans-Serif" font-size="11.00" fill="#000000">RIVID</text>
<polygon fill="none" stroke="#000000" points="458.5,-458.2 458.5,-480.2 599.5,-480.2 599.5,-458.2 458.5,-458.2"/>
<image xlink:href="../../images/foreignKeys.png" width="11px" height="12px" preserveAspectRatio="xMinYMin meet" x="463.5" y="-475.2"/>
<text text-anchor="start" x="487.5" y="-465.3" font-family="Helvetica,sans-Serif" font-size="11.00" fill="#000000">IBRAID</text>
<polygon fill="none" stroke="#000000" points="458.5,-436.2 458.5,-458.2 599.5,-458.2 599.5,-436.2 458.5,-436.2"/>
<image xlink:href="../../images/foreignKeys.png" width="11px" height="12px" preserveAspectRatio="xMinYMin meet" x="463.5" y="-453.2"/>
<text text-anchor="start" x="487.5" y="-443.3" font-family="Helvetica,sans-Serif" font-size="11.00" fill="#000000">SITECODEID</text>
<polygon fill="none" stroke="#000000" points="458.5,-414.2 458.5,-436.2 599.5,-436.2 599.5,-414.2 458.5,-414.2"/>
<image xlink:href="../../images/foreignKeys.png" width="11px" height="12px" preserveAspectRatio="xMinYMin meet" x="463.5" y="-431.2"/>
<text text-anchor="start" x="487.5" y="-421.3" font-family="Helvetica,sans-Serif" font-size="11.00" fill="#000000">BIOMEID</text>
<polygon fill="none" stroke="#000000" points="458.5,-392.2 458.5,-414.2 599.5,-414.2 599.5,-392.2 458.5,-392.2"/>
<image xlink:href="../../images/foreignKeys.png" width="11px" height="12px" preserveAspectRatio="xMinYMin meet" x="463.5" y="-409.2"/>
<text text-anchor="start" x="487.5" y="-399.3" font-family="Helvetica,sans-Serif" font-size="11.00" fill="#000000">CATCHSZEID</text>
<polygon fill="none" stroke="#000000" points="458.5,-370.2 458.5,-392.2 599.5,-392.2 599.5,-370.2 458.5,-370.2"/>
<image xlink:href="../../images/foreignKeys.png" width="11px" height="12px" preserveAspectRatio="xMinYMin meet" x="463.5" y="-387.2"/>
<text text-anchor="start" x="487.5" y="-377.3" font-family="Helvetica,sans-Serif" font-size="11.00" fill="#000000">BASINSZEID</text>
<polygon fill="none" stroke="#000000" points="458.5,-348.2 458.5,-370.2 599.5,-370.2 599.5,-348.2 458.5,-348.2"/>
<image xlink:href="../../images/foreignKeys.png" width="11px" height="12px" preserveAspectRatio="xMinYMin meet" x="463.5" y="-365.2"/>
<text text-anchor="start" x="487.5" y="-355.3" font-family="Helvetica,sans-Serif" font-size="11.00" fill="#000000">FLOWTYPEID</text>
<polygon fill="none" stroke="#000000" points="458.5,-329.2 458.5,-348.2 599.5,-348.2 599.5,-329.2 458.5,-329.2"/>
<text text-anchor="start" x="461.5" y="-335.3" font-family="Helvetica,sans-Serif" font-size="11.00" fill="#000000">...</text>
<polygon fill="#ffffff" stroke="transparent" points="458.5,-310.2 458.5,-329.2 496.5,-329.2 496.5,-310.2 458.5,-310.2"/>
<polygon fill="none" stroke="#000000" points="458.5,-310.2 458.5,-329.2 496.5,-329.2 496.5,-310.2 458.5,-310.2"/>
<text text-anchor="start" x="461.5" y="-316.3" font-family="Helvetica,sans-Serif" font-size="11.00" fill="#000000">&lt; 8</text>
<polygon fill="#ffffff" stroke="transparent" points="496.5,-310.2 496.5,-329.2 569.5,-329.2 569.5,-310.2 496.5,-310.2"/>
<polygon fill="none" stroke="#000000" points="496.5,-310.2 496.5,-329.2 569.5,-329.2 569.5,-310.2 496.5,-310.2"/>
<text text-anchor="start" x="506.594" y="-316.3" font-family="Helvetica,sans-Serif" font-size="11.00" fill="#000000">23.734 rows</text>
<polygon fill="#ffffff" stroke="transparent" points="569.5,-310.2 569.5,-329.2 599.5,-329.2 599.5,-310.2 569.5,-310.2"/>
<polygon fill="none" stroke="#000000" points="569.5,-310.2 569.5,-329.2 599.5,-329.2 599.5,-310.2 569.5,-310.2"/>
<text text-anchor="start" x="580.9053" y="-316.3" font-family="Helvetica,sans-Serif" font-size="11.00" fill="#000000">5 &gt;</text>
</a>
</g>
</g>
<!-- arch_Sample&#45;&gt;global_SiteMaster -->
<g id="edge1" class="edge">
<title>arch_Sample:w&#45;&gt;global_SiteMaster:e</title>
<path fill="none" stroke="#000000" d="M642.0595,-696.624C592.8206,-675.7596 670.9387,-535.2 599.5,-535.2"/>
<polygon fill="#000000" stroke="#000000" points="648.6243,-697.795 655.8678,-702.7441 652.5622,-698.4975 656.5,-699.2 656.5,-699.2 656.5,-699.2 652.5622,-698.4975 657.1322,-695.6559 648.6243,-697.795 648.6243,-697.795"/>
<ellipse fill="none" stroke="#000000" cx="645.4741" cy="-697.233" rx="3.2" ry="3.2"/>
</g>
<!-- global_MetaSite -->
<g id="node6" class="node">
<title>global_MetaSite</title>
<g id="a_node6"><a xlink:href="../../tables/global_MetaSite.html" xlink:title="global_MetaSite" target="_top">
<polygon fill="#ffffff" stroke="transparent" points="234.5,-653.7 234.5,-714.7 364.5,-714.7 364.5,-653.7 234.5,-653.7"/>
<polygon fill="#f5f5f5" stroke="transparent" points="234.5,-691.2 234.5,-714.2 364.5,-714.2 364.5,-691.2 234.5,-691.2"/>
<polygon fill="none" stroke="#000000" points="234.5,-691.2 234.5,-714.2 364.5,-714.2 364.5,-691.2 234.5,-691.2"/>
<text text-anchor="start" x="239.5" y="-699.8" font-family="Helvetica,sans-Serif" font-weight="bold" font-size="11.00" fill="#000000">global_MetaSite</text>
<text text-anchor="start" x="330.0219" y="-699.3" font-family="Helvetica,sans-Serif" font-size="11.00" fill="#000000">[table]</text>
<polygon fill="none" stroke="#000000" points="234.5,-672.2 234.5,-691.2 364.5,-691.2 364.5,-672.2 234.5,-672.2"/>
<text text-anchor="start" x="237.5" y="-678.3" font-family="Helvetica,sans-Serif" font-size="11.00" fill="#000000">...</text>
<polygon fill="#ffffff" stroke="transparent" points="234.5,-653.2 234.5,-672.2 266.5,-672.2 266.5,-653.2 234.5,-653.2"/>
<polygon fill="none" stroke="#000000" points="234.5,-653.2 234.5,-672.2 266.5,-672.2 266.5,-653.2 234.5,-653.2"/>
<text text-anchor="start" x="237.5" y="-659.3" font-family="Helvetica,sans-Serif" font-size="11.00" fill="#000000">&lt; 2</text>
<polygon fill="#ffffff" stroke="transparent" points="266.5,-653.2 266.5,-672.2 337.5,-672.2 337.5,-653.2 266.5,-653.2"/>
<polygon fill="none" stroke="#000000" points="266.5,-653.2 266.5,-672.2 337.5,-672.2 337.5,-653.2 266.5,-653.2"/>
<text text-anchor="start" x="274.594" y="-659.3" font-family="Helvetica,sans-Serif" font-size="11.00" fill="#000000">12.140 rows</text>
<polygon fill="#ffffff" stroke="transparent" points="337.5,-653.2 337.5,-672.2 364.5,-672.2 364.5,-653.2 337.5,-653.2"/>
<polygon fill="none" stroke="#000000" points="337.5,-653.2 337.5,-672.2 364.5,-672.2 364.5,-653.2 337.5,-653.2"/>
<text text-anchor="start" x="345.9053" y="-659.3" font-family="Helvetica,sans-Serif" font-size="11.00" fill="#000000">1 &gt;</text>
</a>
</g>
</g>
<!-- global_SiteMaster&#45;&gt;global_MetaSite -->
<g id="edge11" class="edge">
<title>global_SiteMaster:w&#45;&gt;global_MetaSite:e</title>
<path fill="none" stroke="#000000" d="M443.8405,-515.4089C407.6756,-528.6927 449.0935,-598.8705 417,-643.2 400.1086,-666.5315 393.3041,-681.2 364.5,-681.2"/>
<polygon fill="#000000" stroke="#000000" points="450.5893,-514.392 459.0364,-516.7598 454.5447,-513.796 458.5,-513.2 458.5,-513.2 458.5,-513.2 454.5447,-513.796 457.9636,-509.6402 450.5893,-514.392 450.5893,-514.392"/>
<ellipse fill="none" stroke="#000000" cx="447.425" cy="-514.8689" rx="3.2" ry="3.2"/>
</g>
<!-- global_SiteCode -->
<g id="node7" class="node">
<title>global_SiteCode</title>
<g id="a_node7"><a xlink:href="../../tables/global_SiteCode.html" xlink:title="global_SiteCode" target="_top">
<polygon fill="#ffffff" stroke="transparent" points="8,-545.7 8,-606.7 141,-606.7 141,-545.7 8,-545.7"/>
<polygon fill="#f5f5f5" stroke="transparent" points="8.5,-583.2 8.5,-606.2 141.5,-606.2 141.5,-583.2 8.5,-583.2"/>
<polygon fill="none" stroke="#000000" points="8.5,-583.2 8.5,-606.2 141.5,-606.2 141.5,-583.2 8.5,-583.2"/>
<text text-anchor="start" x="13.5" y="-591.8" font-family="Helvetica,sans-Serif" font-weight="bold" font-size="11.00" fill="#000000">global_SiteCode</text>
<text text-anchor="start" x="107.0219" y="-591.3" font-family="Helvetica,sans-Serif" font-size="11.00" fill="#000000">[table]</text>
<polygon fill="none" stroke="#000000" points="8.5,-564.2 8.5,-583.2 141.5,-583.2 141.5,-564.2 8.5,-564.2"/>
<text text-anchor="start" x="11.5" y="-570.3" font-family="Helvetica,sans-Serif" font-size="11.00" fill="#000000">...</text>
<polygon fill="#ffffff" stroke="transparent" points="8.5,-545.2 8.5,-564.2 52.5,-564.2 52.5,-545.2 8.5,-545.2"/>
<polygon fill="none" stroke="#000000" points="8.5,-545.2 8.5,-564.2 52.5,-564.2 52.5,-545.2 8.5,-545.2"/>
<text text-anchor="start" x="11.5" y="-551.3" font-family="Helvetica,sans-Serif" font-size="11.00" fill="#000000">&lt; 1</text>
<polygon fill="#ffffff" stroke="transparent" points="52.5,-545.2 52.5,-564.2 108.5,-564.2 108.5,-545.2 52.5,-545.2"/>
<polygon fill="none" stroke="#000000" points="52.5,-545.2 52.5,-564.2 108.5,-564.2 108.5,-545.2 52.5,-545.2"/>
<text text-anchor="start" x="66.9956" y="-551.3" font-family="Helvetica,sans-Serif" font-size="11.00" fill="#000000">87 rows</text>
<polygon fill="#ffffff" stroke="transparent" points="108.5,-545.2 108.5,-564.2 141.5,-564.2 141.5,-545.2 108.5,-545.2"/>
<polygon fill="none" stroke="#000000" points="108.5,-545.2 108.5,-564.2 141.5,-564.2 141.5,-545.2 108.5,-545.2"/>
<text text-anchor="start" x="122.9053" y="-551.3" font-family="Helvetica,sans-Serif" font-size="11.00" fill="#000000">3 &gt;</text>
</a>
</g>
</g>
<!-- global_SiteMaster&#45;&gt;global_SiteCode -->
<g id="edge13" class="edge">
<title>global_SiteMaster:w&#45;&gt;global_SiteCode:e</title>
<path fill="none" stroke="#000000" d="M444.1478,-448.6375C387.7392,-454.604 184.6898,-477.199 182,-479.2 145.5014,-506.3521 186.9905,-573.2 141.5,-573.2"/>
<polygon fill="#000000" stroke="#000000" points="450.5398,-447.9974 458.8588,-450.7821 454.5199,-447.5987 458.5,-447.2 458.5,-447.2 458.5,-447.2 454.5199,-447.5987 458.1412,-443.6179 450.5398,-447.9974 450.5398,-447.9974"/>
<ellipse fill="none" stroke="#000000" cx="447.3558" cy="-448.3163" rx="3.2" ry="3.2"/>
</g>
<!-- cabah_basinsizeID -->
<g id="node8" class="node">
<title>cabah_basinsizeID</title>
<g id="a_node8"><a xlink:href="../../tables/cabah_basinsizeID.html" xlink:title="cabah_basinsizeID" target="_top">
<polygon fill="#ffffff" stroke="transparent" points="226.5,-215.7 226.5,-276.7 372.5,-276.7 372.5,-215.7 226.5,-215.7"/>
<polygon fill="#f5f5f5" stroke="transparent" points="226.5,-253.2 226.5,-276.2 372.5,-276.2 372.5,-253.2 226.5,-253.2"/>
<polygon fill="none" stroke="#000000" points="226.5,-253.2 226.5,-276.2 372.5,-276.2 372.5,-253.2 226.5,-253.2"/>
<text text-anchor="start" x="231.5" y="-261.8" font-family="Helvetica,sans-Serif" font-weight="bold" font-size="11.00" fill="#000000">cabah_basinsizeID</text>
<text text-anchor="start" x="338.0219" y="-261.3" font-family="Helvetica,sans-Serif" font-size="11.00" fill="#000000">[table]</text>
<polygon fill="none" stroke="#000000" points="226.5,-234.2 226.5,-253.2 372.5,-253.2 372.5,-234.2 226.5,-234.2"/>
<text text-anchor="start" x="229.5" y="-240.3" font-family="Helvetica,sans-Serif" font-size="11.00" fill="#000000">...</text>
<polygon fill="#ffffff" stroke="transparent" points="226.5,-215.2 226.5,-234.2 275.5,-234.2 275.5,-215.2 226.5,-215.2"/>
<polygon fill="none" stroke="#000000" points="226.5,-215.2 226.5,-234.2 275.5,-234.2 275.5,-215.2 226.5,-215.2"/>
<text text-anchor="start" x="229.5" y="-221.3" font-family="Helvetica,sans-Serif" font-size="11.00" fill="#000000"> &#160;</text>
<polygon fill="#ffffff" stroke="transparent" points="275.5,-215.2 275.5,-234.2 332.5,-234.2 332.5,-215.2 275.5,-215.2"/>
<polygon fill="none" stroke="#000000" points="275.5,-215.2 275.5,-234.2 332.5,-234.2 332.5,-215.2 275.5,-215.2"/>
<text text-anchor="start" x="297.1105" y="-221.3" font-family="Helvetica,sans-Serif" font-size="11.00" fill="#000000">6 rows</text>
<polygon fill="#ffffff" stroke="transparent" points="332.5,-215.2 332.5,-234.2 372.5,-234.2 372.5,-215.2 332.5,-215.2"/>
<polygon fill="none" stroke="#000000" points="332.5,-215.2 332.5,-234.2 372.5,-234.2 372.5,-215.2 332.5,-215.2"/>
<text text-anchor="start" x="353.9053" y="-221.3" font-family="Helvetica,sans-Serif" font-size="11.00" fill="#000000">1 &gt;</text>
</a>
</g>
</g>
<!-- global_SiteMaster&#45;&gt;cabah_basinsizeID -->
<g id="edge6" class="edge">
<title>global_SiteMaster:w&#45;&gt;cabah_basinsizeID:e</title>
<path fill="none" stroke="#000000" d="M444.3333,-378.5497C419.657,-366.9726 439.5737,-319.9563 417,-287.2 401.2174,-264.2982 400.3133,-243.2 372.5,-243.2"/>
<polygon fill="#000000" stroke="#000000" points="450.6364,-379.7288 457.838,-384.7386 454.5682,-380.4644 458.5,-381.2 458.5,-381.2 458.5,-381.2 454.5682,-380.4644 459.162,-377.6614 450.6364,-379.7288 450.6364,-379.7288"/>
<ellipse fill="none" stroke="#000000" cx="447.491" cy="-379.1404" rx="3.2" ry="3.2"/>
</g>
<!-- global_biomeID -->
<g id="node9" class="node">
<title>global_biomeID</title>
<g id="a_node9"><a xlink:href="../../tables/global_biomeID.html" xlink:title="global_biomeID" target="_top">
<polygon fill="#ffffff" stroke="transparent" points="235.5,-379.7 235.5,-440.7 363.5,-440.7 363.5,-379.7 235.5,-379.7"/>
<polygon fill="#f5f5f5" stroke="transparent" points="235.5,-417.2 235.5,-440.2 363.5,-440.2 363.5,-417.2 235.5,-417.2"/>
<polygon fill="none" stroke="#000000" points="235.5,-417.2 235.5,-440.2 363.5,-440.2 363.5,-417.2 235.5,-417.2"/>
<text text-anchor="start" x="240.5" y="-425.8" font-family="Helvetica,sans-Serif" font-weight="bold" font-size="11.00" fill="#000000">global_biomeID</text>
<text text-anchor="start" x="329.0219" y="-425.3" font-family="Helvetica,sans-Serif" font-size="11.00" fill="#000000">[table]</text>
<polygon fill="none" stroke="#000000" points="235.5,-398.2 235.5,-417.2 363.5,-417.2 363.5,-398.2 235.5,-398.2"/>
<text text-anchor="start" x="238.5" y="-404.3" font-family="Helvetica,sans-Serif" font-size="11.00" fill="#000000">...</text>
<polygon fill="#ffffff" stroke="transparent" points="235.5,-379.2 235.5,-398.2 277.5,-398.2 277.5,-379.2 235.5,-379.2"/>
<polygon fill="none" stroke="#000000" points="235.5,-379.2 235.5,-398.2 277.5,-398.2 277.5,-379.2 235.5,-379.2"/>
<text text-anchor="start" x="238.5" y="-385.3" font-family="Helvetica,sans-Serif" font-size="11.00" fill="#000000">&lt; 1</text>
<polygon fill="#ffffff" stroke="transparent" points="277.5,-379.2 277.5,-398.2 331.5,-398.2 331.5,-379.2 277.5,-379.2"/>
<polygon fill="none" stroke="#000000" points="277.5,-379.2 277.5,-398.2 331.5,-398.2 331.5,-379.2 277.5,-379.2"/>
<text text-anchor="start" x="289.9956" y="-385.3" font-family="Helvetica,sans-Serif" font-size="11.00" fill="#000000">65 rows</text>
<polygon fill="#ffffff" stroke="transparent" points="331.5,-379.2 331.5,-398.2 363.5,-398.2 363.5,-379.2 331.5,-379.2"/>
<polygon fill="none" stroke="#000000" points="331.5,-379.2 331.5,-398.2 363.5,-398.2 363.5,-379.2 331.5,-379.2"/>
<text text-anchor="start" x="344.9053" y="-385.3" font-family="Helvetica,sans-Serif" font-size="11.00" fill="#000000">2 &gt;</text>
</a>
</g>
</g>
<!-- global_SiteMaster&#45;&gt;global_biomeID -->
<g id="edge7" class="edge">
<title>global_SiteMaster:w&#45;&gt;global_biomeID:e</title>
<path fill="none" stroke="#000000" d="M443.8425,-424.4266C412.7333,-420.9813 401.1018,-407.2 363.5,-407.2"/>
<polygon fill="#000000" stroke="#000000" points="450.5111,-424.7784 458.3103,-428.795 454.5056,-424.9892 458.5,-425.2 458.5,-425.2 458.5,-425.2 454.5056,-424.9892 458.6897,-421.605 450.5111,-424.7784 450.5111,-424.7784"/>
<ellipse fill="none" stroke="#000000" cx="447.3156" cy="-424.6098" rx="3.2" ry="3.2"/>
</g>
<!-- cabah_catchmentsizeID -->
<g id="node10" class="node">
<title>cabah_catchmentsizeID</title>
<g id="a_node10"><a xlink:href="../../tables/cabah_catchmentsizeID.html" xlink:title="cabah_catchmentsizeID" target="_top">
<polygon fill="#ffffff" stroke="transparent" points="212,-297.7 212,-358.7 387,-358.7 387,-297.7 212,-297.7"/>
<polygon fill="#f5f5f5" stroke="transparent" points="212.5,-335.2 212.5,-358.2 387.5,-358.2 387.5,-335.2 212.5,-335.2"/>
<polygon fill="none" stroke="#000000" points="212.5,-335.2 212.5,-358.2 387.5,-358.2 387.5,-335.2 212.5,-335.2"/>
<text text-anchor="start" x="217.5" y="-343.8" font-family="Helvetica,sans-Serif" font-weight="bold" font-size="11.00" fill="#000000">cabah_catchmentsizeID</text>
<text text-anchor="start" x="353.0219" y="-343.3" font-family="Helvetica,sans-Serif" font-size="11.00" fill="#000000">[table]</text>
<polygon fill="none" stroke="#000000" points="212.5,-316.2 212.5,-335.2 387.5,-335.2 387.5,-316.2 212.5,-316.2"/>
<text text-anchor="start" x="215.5" y="-322.3" font-family="Helvetica,sans-Serif" font-size="11.00" fill="#000000">...</text>
<polygon fill="#ffffff" stroke="transparent" points="212.5,-297.2 212.5,-316.2 276.5,-316.2 276.5,-297.2 212.5,-297.2"/>
<polygon fill="none" stroke="#000000" points="212.5,-297.2 212.5,-316.2 276.5,-316.2 276.5,-297.2 212.5,-297.2"/>
<text text-anchor="start" x="215.5" y="-303.3" font-family="Helvetica,sans-Serif" font-size="11.00" fill="#000000"> &#160;</text>
<polygon fill="#ffffff" stroke="transparent" points="276.5,-297.2 276.5,-316.2 340.5,-316.2 340.5,-297.2 276.5,-297.2"/>
<polygon fill="none" stroke="#000000" points="276.5,-297.2 276.5,-316.2 340.5,-316.2 340.5,-297.2 276.5,-297.2"/>
<text text-anchor="start" x="305.1105" y="-303.3" font-family="Helvetica,sans-Serif" font-size="11.00" fill="#000000">4 rows</text>
<polygon fill="#ffffff" stroke="transparent" points="340.5,-297.2 340.5,-316.2 387.5,-316.2 387.5,-297.2 340.5,-297.2"/>
<polygon fill="none" stroke="#000000" points="340.5,-297.2 340.5,-316.2 387.5,-316.2 387.5,-297.2 340.5,-297.2"/>
<text text-anchor="start" x="368.9053" y="-303.3" font-family="Helvetica,sans-Serif" font-size="11.00" fill="#000000">1 &gt;</text>
</a>
</g>
</g>
<!-- global_SiteMaster&#45;&gt;cabah_catchmentsizeID -->
<g id="edge8" class="edge">
<title>global_SiteMaster:w&#45;&gt;cabah_catchmentsizeID:e</title>
<path fill="none" stroke="#000000" d="M444.2861,-400.0457C416.1122,-385.4531 428.7012,-325.2 387.5,-325.2"/>
<polygon fill="#000000" stroke="#000000" points="450.69,-401.4668 457.7201,-406.7145 454.595,-402.3334 458.5,-403.2 458.5,-403.2 458.5,-403.2 454.595,-402.3334 459.2799,-399.6855 450.69,-401.4668 450.69,-401.4668"/>
<ellipse fill="none" stroke="#000000" cx="447.566" cy="-400.7735" rx="3.2" ry="3.2"/>
</g>
<!-- cabah_flowtypeID -->
<g id="node11" class="node">
<title>cabah_flowtypeID</title>
<g id="a_node11"><a xlink:href="../../tables/cabah_flowtypeID.html" xlink:title="cabah_flowtypeID" target="_top">
<polygon fill="#ffffff" stroke="transparent" points="190,-38.2 190,-194.2 409,-194.2 409,-38.2 190,-38.2"/>
<polygon fill="#f5f5f5" stroke="transparent" points="192.5,-169.2 192.5,-192.2 407.5,-192.2 407.5,-169.2 192.5,-169.2"/>
<polygon fill="none" stroke="#000000" points="192.5,-169.2 192.5,-192.2 407.5,-192.2 407.5,-169.2 192.5,-169.2"/>
<text text-anchor="start" x="197.5" y="-177.8" font-family="Helvetica,sans-Serif" font-weight="bold" font-size="11.00" fill="#000000">cabah_flowtypeID</text>
<text text-anchor="start" x="372.5437" y="-177.3" font-family="Helvetica,sans-Serif" font-size="11.00" fill="#000000">[table]</text>
<polygon fill="none" stroke="#000000" points="192.5,-147.2 192.5,-169.2 315.5,-169.2 315.5,-147.2 192.5,-147.2"/>
<image xlink:href="../../images/primaryKeys.png" width="11px" height="12px" preserveAspectRatio="xMinYMin meet" x="197.5" y="-164.2"/>
<text text-anchor="start" x="212.5" y="-154.3" font-family="Helvetica,sans-Serif" font-size="11.00" fill="#000000">FLOWTYPEID</text>
<polygon fill="none" stroke="#000000" points="315.5,-147.2 315.5,-169.2 407.5,-169.2 407.5,-147.2 315.5,-147.2"/>
<text text-anchor="start" x="318.5" y="-154.9" font-family="Helvetica,sans-Serif" font-size="11.00" fill="#000000">serial[10]</text>
<polygon fill="#ffffff" stroke="transparent" points="192.5,-125.2 192.5,-147.2 315.5,-147.2 315.5,-125.2 192.5,-125.2"/>
<polygon fill="none" stroke="#000000" points="192.5,-125.2 192.5,-147.2 315.5,-147.2 315.5,-125.2 192.5,-125.2"/>
<text text-anchor="start" x="212.5" y="-132.3" font-family="Helvetica,sans-Serif" font-size="11.00" fill="#000000">FLOWTYPE</text>
<polygon fill="none" stroke="#000000" points="315.5,-125.2 315.5,-147.2 407.5,-147.2 407.5,-125.2 315.5,-125.2"/>
<text text-anchor="start" x="318.5" y="-132.9" font-family="Helvetica,sans-Serif" font-size="11.00" fill="#000000">varchar[7]</text>
<polygon fill="none" stroke="#000000" points="192.5,-103.2 192.5,-125.2 315.5,-125.2 315.5,-103.2 192.5,-103.2"/>
<text text-anchor="start" x="212.5" y="-110.3" font-family="Helvetica,sans-Serif" font-size="11.00" fill="#000000">FLOWTYPDCR</text>
<polygon fill="none" stroke="#000000" points="315.5,-103.2 315.5,-125.2 407.5,-125.2 407.5,-103.2 315.5,-103.2"/>
<text text-anchor="start" x="318.5" y="-110.9" font-family="Helvetica,sans-Serif" font-size="11.00" fill="#000000">text[2147483647]</text>
<polygon fill="none" stroke="#000000" points="192.5,-81.2 192.5,-103.2 315.5,-103.2 315.5,-81.2 192.5,-81.2"/>
<text text-anchor="start" x="212.5" y="-88.3" font-family="Helvetica,sans-Serif" font-size="11.00" fill="#000000">CREATED_AT</text>
<polygon fill="none" stroke="#000000" points="315.5,-81.2 315.5,-103.2 407.5,-103.2 407.5,-81.2 315.5,-81.2"/>
<text text-anchor="start" x="318.1023" y="-88.9" font-family="Helvetica,sans-Serif" font-size="11.00" fill="#000000">timestamptz[35,6]</text>
<polygon fill="none" stroke="#000000" points="192.5,-59.2 192.5,-81.2 315.5,-81.2 315.5,-59.2 192.5,-59.2"/>
<text text-anchor="start" x="212.5" y="-66.3" font-family="Helvetica,sans-Serif" font-size="11.00" fill="#000000">UPDATED_AT</text>
<polygon fill="none" stroke="#000000" points="315.5,-59.2 315.5,-81.2 407.5,-81.2 407.5,-59.2 315.5,-59.2"/>
<text text-anchor="start" x="318.1023" y="-66.9" font-family="Helvetica,sans-Serif" font-size="11.00" fill="#000000">timestamptz[35,6]</text>
<polygon fill="#ffffff" stroke="transparent" points="192.5,-40.2 192.5,-59.2 245.5,-59.2 245.5,-40.2 192.5,-40.2"/>
<polygon fill="none" stroke="#000000" points="192.5,-40.2 192.5,-59.2 245.5,-59.2 245.5,-40.2 192.5,-40.2"/>
<text text-anchor="start" x="195.5" y="-46.3" font-family="Helvetica,sans-Serif" font-size="11.00" fill="#000000">&lt; 0</text>
<polygon fill="#ffffff" stroke="transparent" points="245.5,-40.2 245.5,-59.2 315.5,-59.2 315.5,-40.2 245.5,-40.2"/>
<polygon fill="none" stroke="#000000" points="245.5,-40.2 245.5,-59.2 315.5,-59.2 315.5,-40.2 245.5,-40.2"/>
<text text-anchor="start" x="280.1105" y="-46.3" font-family="Helvetica,sans-Serif" font-size="11.00" fill="#000000">6 rows</text>
<polygon fill="#ffffff" stroke="transparent" points="315.5,-40.2 315.5,-59.2 407.5,-59.2 407.5,-40.2 315.5,-40.2"/>
<polygon fill="none" stroke="#000000" points="315.5,-40.2 315.5,-59.2 407.5,-59.2 407.5,-40.2 315.5,-40.2"/>
<text text-anchor="start" x="388.9053" y="-46.3" font-family="Helvetica,sans-Serif" font-size="11.00" fill="#000000">1 &gt;</text>
<polygon fill="none" stroke="#000000" stroke-width="2" points="191,-39.2 191,-193.2 408,-193.2 408,-39.2 191,-39.2"/>
</a>
</g>
</g>
<!-- global_SiteMaster&#45;&gt;cabah_flowtypeID -->
<g id="edge9" class="edge">
<title>global_SiteMaster:w&#45;&gt;cabah_flowtypeID:e</title>
<path fill="none" stroke="#000000" d="M444.1391,-357.0787C381.6545,-335.597 494.0839,-158.2 407.5,-158.2"/>
<polygon fill="#000000" stroke="#000000" points="450.5859,-358.0309 457.9739,-362.7614 454.5429,-358.6155 458.5,-359.2 458.5,-359.2 458.5,-359.2 454.5429,-358.6155 459.0261,-355.6386 450.5859,-358.0309 450.5859,-358.0309"/>
<ellipse fill="none" stroke="#000000" cx="447.4202" cy="-357.5633" rx="3.2" ry="3.2"/>
</g>
<!-- global_ibraID -->
<g id="node12" class="node">
<title>global_ibraID</title>
<g id="a_node12"><a xlink:href="../../tables/global_ibraID.html" xlink:title="global_ibraID" target="_top">
<polygon fill="#ffffff" stroke="transparent" points="242,-489.7 242,-550.7 357,-550.7 357,-489.7 242,-489.7"/>
<polygon fill="#f5f5f5" stroke="transparent" points="242.5,-527.2 242.5,-550.2 357.5,-550.2 357.5,-527.2 242.5,-527.2"/>
<polygon fill="none" stroke="#000000" points="242.5,-527.2 242.5,-550.2 357.5,-550.2 357.5,-527.2 242.5,-527.2"/>
<text text-anchor="start" x="247.5" y="-535.8" font-family="Helvetica,sans-Serif" font-weight="bold" font-size="11.00" fill="#000000">global_ibraID</text>
<text text-anchor="start" x="323.0219" y="-535.3" font-family="Helvetica,sans-Serif" font-size="11.00" fill="#000000">[table]</text>
<polygon fill="none" stroke="#000000" points="242.5,-508.2 242.5,-527.2 357.5,-527.2 357.5,-508.2 242.5,-508.2"/>
<text text-anchor="start" x="245.5" y="-514.3" font-family="Helvetica,sans-Serif" font-size="11.00" fill="#000000">...</text>
<polygon fill="#ffffff" stroke="transparent" points="242.5,-489.2 242.5,-508.2 273.5,-508.2 273.5,-489.2 242.5,-489.2"/>
<polygon fill="none" stroke="#000000" points="242.5,-489.2 242.5,-508.2 273.5,-508.2 273.5,-489.2 242.5,-489.2"/>
<text text-anchor="start" x="245.5" y="-495.3" font-family="Helvetica,sans-Serif" font-size="11.00" fill="#000000"> &#160;</text>
<polygon fill="#ffffff" stroke="transparent" points="273.5,-489.2 273.5,-508.2 326.5,-508.2 326.5,-489.2 273.5,-489.2"/>
<polygon fill="none" stroke="#000000" points="273.5,-489.2 273.5,-508.2 326.5,-508.2 326.5,-489.2 273.5,-489.2"/>
<text text-anchor="start" x="284.9956" y="-495.3" font-family="Helvetica,sans-Serif" font-size="11.00" fill="#000000">90 rows</text>
<polygon fill="#ffffff" stroke="transparent" points="326.5,-489.2 326.5,-508.2 357.5,-508.2 357.5,-489.2 326.5,-489.2"/>
<polygon fill="none" stroke="#000000" points="326.5,-489.2 326.5,-508.2 357.5,-508.2 357.5,-489.2 326.5,-489.2"/>
<text text-anchor="start" x="338.9053" y="-495.3" font-family="Helvetica,sans-Serif" font-size="11.00" fill="#000000">1 &gt;</text>
</a>
</g>
</g>
<!-- global_SiteMaster&#45;&gt;global_ibraID -->
<g id="edge10" class="edge">
<title>global_SiteMaster:w&#45;&gt;global_ibraID:e</title>
<path fill="none" stroke="#000000" d="M443.7925,-470.797C407.8744,-479.1258 401.7644,-517.2 357.5,-517.2"/>
<polygon fill="#000000" stroke="#000000" points="450.5468,-470.0637 458.8887,-472.779 454.5234,-469.6318 458.5,-469.2 458.5,-469.2 458.5,-469.2 454.5234,-469.6318 458.1113,-465.621 450.5468,-470.0637 450.5468,-470.0637"/>
<ellipse fill="none" stroke="#000000" cx="447.3655" cy="-470.4091" rx="3.2" ry="3.2"/>
</g>
<!-- global_rivID -->
<g id="node13" class="node">
<title>global_rivID</title>
<g id="a_node13"><a xlink:href="../../tables/global_rivID.html" xlink:title="global_rivID" target="_top">
<polygon fill="#ffffff" stroke="transparent" points="246,-571.7 246,-632.7 353,-632.7 353,-571.7 246,-571.7"/>
<polygon fill="#f5f5f5" stroke="transparent" points="246.5,-609.2 246.5,-632.2 353.5,-632.2 353.5,-609.2 246.5,-609.2"/>
<polygon fill="none" stroke="#000000" points="246.5,-609.2 246.5,-632.2 353.5,-632.2 353.5,-609.2 246.5,-609.2"/>
<text text-anchor="start" x="251.5" y="-617.8" font-family="Helvetica,sans-Serif" font-weight="bold" font-size="11.00" fill="#000000">global_rivID</text>
<text text-anchor="start" x="319.0219" y="-617.3" font-family="Helvetica,sans-Serif" font-size="11.00" fill="#000000">[table]</text>
<polygon fill="none" stroke="#000000" points="246.5,-590.2 246.5,-609.2 353.5,-609.2 353.5,-590.2 246.5,-590.2"/>
<text text-anchor="start" x="249.5" y="-596.3" font-family="Helvetica,sans-Serif" font-size="11.00" fill="#000000">...</text>
<polygon fill="#ffffff" stroke="transparent" points="246.5,-571.2 246.5,-590.2 270.5,-590.2 270.5,-571.2 246.5,-571.2"/>
<polygon fill="none" stroke="#000000" points="246.5,-571.2 246.5,-590.2 270.5,-590.2 270.5,-571.2 246.5,-571.2"/>
<text text-anchor="start" x="249.5" y="-577.3" font-family="Helvetica,sans-Serif" font-size="11.00" fill="#000000"> &#160;</text>
<polygon fill="#ffffff" stroke="transparent" points="270.5,-571.2 270.5,-590.2 326.5,-590.2 326.5,-571.2 270.5,-571.2"/>
<polygon fill="none" stroke="#000000" points="270.5,-571.2 270.5,-590.2 326.5,-590.2 326.5,-571.2 270.5,-571.2"/>
<text text-anchor="start" x="278.8807" y="-577.3" font-family="Helvetica,sans-Serif" font-size="11.00" fill="#000000">219 rows</text>
<polygon fill="#ffffff" stroke="transparent" points="326.5,-571.2 326.5,-590.2 353.5,-590.2 353.5,-571.2 326.5,-571.2"/>
<polygon fill="none" stroke="#000000" points="326.5,-571.2 326.5,-590.2 353.5,-590.2 353.5,-571.2 326.5,-571.2"/>
<text text-anchor="start" x="334.9053" y="-577.3" font-family="Helvetica,sans-Serif" font-size="11.00" fill="#000000">1 &gt;</text>
</a>
</g>
</g>
<!-- global_SiteMaster&#45;&gt;global_rivID -->
<g id="edge12" class="edge">
<title>global_SiteMaster:w&#45;&gt;global_rivID:e</title>
<path fill="none" stroke="#000000" d="M444.3274,-494.812C427.9221,-505.8995 438.1352,-539.9777 417,-561.2 393.7914,-584.5042 386.3896,-599.2 353.5,-599.2"/>
<polygon fill="#000000" stroke="#000000" points="450.7478,-493.1757 459.3891,-494.6885 454.6239,-492.1879 458.5,-491.2 458.5,-491.2 458.5,-491.2 454.6239,-492.1879 457.6109,-487.7115 450.7478,-493.1757 450.7478,-493.1757"/>
<ellipse fill="none" stroke="#000000" cx="447.6469" cy="-493.966" rx="3.2" ry="3.2"/>
</g>
<!-- crn_Sample -->
<g id="node3" class="node">
<title>crn_Sample</title>
<g id="a_node3"><a xlink:href="../../tables/crn_Sample.html" xlink:title="crn_Sample" target="_top">
<polygon fill="#ffffff" stroke="transparent" points="659,-589.7 659,-650.7 766,-650.7 766,-589.7 659,-589.7"/>
<polygon fill="#f5f5f5" stroke="transparent" points="659.5,-627.2 659.5,-650.2 766.5,-650.2 766.5,-627.2 659.5,-627.2"/>
<polygon fill="none" stroke="#000000" points="659.5,-627.2 659.5,-650.2 766.5,-650.2 766.5,-627.2 659.5,-627.2"/>
<text text-anchor="start" x="664.5" y="-635.8" font-family="Helvetica,sans-Serif" font-weight="bold" font-size="11.00" fill="#000000">crn_Sample</text>
<text text-anchor="start" x="732.0219" y="-635.3" font-family="Helvetica,sans-Serif" font-size="11.00" fill="#000000">[table]</text>
<polygon fill="none" stroke="#000000" points="659.5,-608.2 659.5,-627.2 766.5,-627.2 766.5,-608.2 659.5,-608.2"/>
<text text-anchor="start" x="662.5" y="-614.3" font-family="Helvetica,sans-Serif" font-size="11.00" fill="#000000">...</text>
<polygon fill="#ffffff" stroke="transparent" points="659.5,-589.2 659.5,-608.2 683.5,-608.2 683.5,-589.2 659.5,-589.2"/>
<polygon fill="none" stroke="#000000" points="659.5,-589.2 659.5,-608.2 683.5,-608.2 683.5,-589.2 659.5,-589.2"/>
<text text-anchor="start" x="662.5" y="-595.3" font-family="Helvetica,sans-Serif" font-size="11.00" fill="#000000">&lt; 3</text>
<polygon fill="#ffffff" stroke="transparent" points="683.5,-589.2 683.5,-608.2 743.5,-608.2 743.5,-589.2 683.5,-589.2"/>
<polygon fill="none" stroke="#000000" points="683.5,-589.2 683.5,-608.2 743.5,-608.2 743.5,-589.2 683.5,-589.2"/>
<text text-anchor="start" x="686.7089" y="-595.3" font-family="Helvetica,sans-Serif" font-size="11.00" fill="#000000">4.588 rows</text>
<polygon fill="#ffffff" stroke="transparent" points="743.5,-589.2 743.5,-608.2 766.5,-608.2 766.5,-589.2 743.5,-589.2"/>
<polygon fill="none" stroke="#000000" points="743.5,-589.2 743.5,-608.2 766.5,-608.2 766.5,-589.2 743.5,-589.2"/>
<text text-anchor="start" x="747.9053" y="-595.3" font-family="Helvetica,sans-Serif" font-size="11.00" fill="#000000">2 &gt;</text>
</a>
</g>
</g>
<!-- crn_Sample&#45;&gt;global_SiteMaster -->
<g id="edge2" class="edge">
<title>crn_Sample:w&#45;&gt;global_SiteMaster:e</title>
<path fill="none" stroke="#000000" d="M645.4755,-613.4636C620.9033,-597.422 638.8375,-535.2 599.5,-535.2"/>
<polygon fill="#000000" stroke="#000000" points="651.7696,-615.1404 658.5732,-620.6787 655.6348,-616.1702 659.5,-617.2 659.5,-617.2 659.5,-617.2 655.6348,-616.1702 660.4268,-613.7213 651.7696,-615.1404 651.7696,-615.1404"/>
<ellipse fill="none" stroke="#000000" cx="648.6775" cy="-614.3166" rx="3.2" ry="3.2"/>
</g>
<!-- expage_Sample -->
<g id="node4" class="node">
<title>expage_Sample</title>
<g id="a_node4"><a xlink:href="../../tables/expage_Sample.html" xlink:title="expage_Sample" target="_top">
<polygon fill="#ffffff" stroke="transparent" points="648,-507.7 648,-568.7 777,-568.7 777,-507.7 648,-507.7"/>
<polygon fill="#f5f5f5" stroke="transparent" points="648.5,-545.2 648.5,-568.2 777.5,-568.2 777.5,-545.2 648.5,-545.2"/>
<polygon fill="none" stroke="#000000" points="648.5,-545.2 648.5,-568.2 777.5,-568.2 777.5,-545.2 648.5,-545.2"/>
<text text-anchor="start" x="653.5" y="-553.8" font-family="Helvetica,sans-Serif" font-weight="bold" font-size="11.00" fill="#000000">expage_Sample</text>
<text text-anchor="start" x="743.0219" y="-553.3" font-family="Helvetica,sans-Serif" font-size="11.00" fill="#000000">[table]</text>
<polygon fill="none" stroke="#000000" points="648.5,-526.2 648.5,-545.2 777.5,-545.2 777.5,-526.2 648.5,-526.2"/>
<text text-anchor="start" x="651.5" y="-532.3" font-family="Helvetica,sans-Serif" font-size="11.00" fill="#000000">...</text>
<polygon fill="#ffffff" stroke="transparent" points="648.5,-507.2 648.5,-526.2 680.5,-526.2 680.5,-507.2 648.5,-507.2"/>
<polygon fill="none" stroke="#000000" points="648.5,-507.2 648.5,-526.2 680.5,-526.2 680.5,-507.2 648.5,-507.2"/>
<text text-anchor="start" x="651.5" y="-513.3" font-family="Helvetica,sans-Serif" font-size="11.00" fill="#000000">&lt; 2</text>
<polygon fill="#ffffff" stroke="transparent" points="680.5,-507.2 680.5,-526.2 750.5,-526.2 750.5,-507.2 680.5,-507.2"/>
<polygon fill="none" stroke="#000000" points="680.5,-507.2 680.5,-526.2 750.5,-526.2 750.5,-507.2 680.5,-507.2"/>
<text text-anchor="start" x="687.594" y="-513.3" font-family="Helvetica,sans-Serif" font-size="11.00" fill="#000000">15.805 rows</text>
<polygon fill="#ffffff" stroke="transparent" points="750.5,-507.2 750.5,-526.2 777.5,-526.2 777.5,-507.2 750.5,-507.2"/>
<polygon fill="none" stroke="#000000" points="750.5,-507.2 750.5,-526.2 777.5,-526.2 777.5,-507.2 750.5,-507.2"/>
<text text-anchor="start" x="758.9053" y="-513.3" font-family="Helvetica,sans-Serif" font-size="11.00" fill="#000000">1 &gt;</text>
</a>
</g>
</g>
<!-- expage_Sample&#45;&gt;global_SiteMaster -->
<g id="edge3" class="edge">
<title>expage_Sample:w&#45;&gt;global_SiteMaster:e</title>
<path fill="none" stroke="#000000" d="M633.9909,-535.2C622.6774,-535.2 615.4931,-535.2 599.5,-535.2"/>
<polygon fill="#000000" stroke="#000000" points="640.5,-535.2001 648.5,-538.8 644.5,-535.2 648.5,-535.2 648.5,-535.2 648.5,-535.2 644.5,-535.2 648.5,-531.6 640.5,-535.2001 640.5,-535.2001"/>
<ellipse fill="none" stroke="#000000" cx="637.3" cy="-535.2001" rx="3.2" ry="3.2"/>
</g>
<!-- fos_Sample -->
<g id="node5" class="node">
<title>fos_Sample</title>
<g id="a_node5"><a xlink:href="../../tables/fos_Sample.html" xlink:title="fos_Sample" target="_top">
<polygon fill="#ffffff" stroke="transparent" points="659.5,-425.7 659.5,-486.7 765.5,-486.7 765.5,-425.7 659.5,-425.7"/>
<polygon fill="#f5f5f5" stroke="transparent" points="659.5,-463.2 659.5,-486.2 765.5,-486.2 765.5,-463.2 659.5,-463.2"/>
<polygon fill="none" stroke="#000000" points="659.5,-463.2 659.5,-486.2 765.5,-486.2 765.5,-463.2 659.5,-463.2"/>
<text text-anchor="start" x="664.5" y="-471.8" font-family="Helvetica,sans-Serif" font-weight="bold" font-size="11.00" fill="#000000">fos_Sample</text>
<text text-anchor="start" x="731.0219" y="-471.3" font-family="Helvetica,sans-Serif" font-size="11.00" fill="#000000">[table]</text>
<polygon fill="none" stroke="#000000" points="659.5,-444.2 659.5,-463.2 765.5,-463.2 765.5,-444.2 659.5,-444.2"/>
<text text-anchor="start" x="662.5" y="-450.3" font-family="Helvetica,sans-Serif" font-size="11.00" fill="#000000">...</text>
<polygon fill="#ffffff" stroke="transparent" points="659.5,-425.2 659.5,-444.2 682.5,-444.2 682.5,-425.2 659.5,-425.2"/>
<polygon fill="none" stroke="#000000" points="659.5,-425.2 659.5,-444.2 682.5,-444.2 682.5,-425.2 659.5,-425.2"/>
<text text-anchor="start" x="662.5" y="-431.3" font-family="Helvetica,sans-Serif" font-size="11.00" fill="#000000">&lt; 1</text>
<polygon fill="#ffffff" stroke="transparent" points="682.5,-425.2 682.5,-444.2 742.5,-444.2 742.5,-425.2 682.5,-425.2"/>
<polygon fill="none" stroke="#000000" points="682.5,-425.2 682.5,-444.2 742.5,-444.2 742.5,-425.2 682.5,-425.2"/>
<text text-anchor="start" x="685.7089" y="-431.3" font-family="Helvetica,sans-Serif" font-size="11.00" fill="#000000">2.235 rows</text>
<polygon fill="#ffffff" stroke="transparent" points="742.5,-425.2 742.5,-444.2 765.5,-444.2 765.5,-425.2 742.5,-425.2"/>
<polygon fill="none" stroke="#000000" points="742.5,-425.2 742.5,-444.2 765.5,-444.2 765.5,-425.2 742.5,-425.2"/>
<text text-anchor="start" x="746.9053" y="-431.3" font-family="Helvetica,sans-Serif" font-size="11.00" fill="#000000">1 &gt;</text>
</a>
</g>
</g>
<!-- fos_Sample&#45;&gt;global_SiteMaster -->
<g id="edge4" class="edge">
<title>fos_Sample:w&#45;&gt;global_SiteMaster:e</title>
<path fill="none" stroke="#000000" d="M645.4755,-456.9364C620.9033,-472.978 638.8375,-535.2 599.5,-535.2"/>
<polygon fill="#000000" stroke="#000000" points="651.7696,-455.2596 660.4268,-456.6787 655.6348,-454.2298 659.5,-453.2 659.5,-453.2 659.5,-453.2 655.6348,-454.2298 658.5732,-449.7213 651.7696,-455.2596 651.7696,-455.2596"/>
<ellipse fill="none" stroke="#000000" cx="648.6775" cy="-456.0834" rx="3.2" ry="3.2"/>
</g>
<!-- global_MetaSite&#45;&gt;global_SiteCode -->
<g id="edge5" class="edge">
<title>global_MetaSite:w&#45;&gt;global_SiteCode:e</title>
<path fill="none" stroke="#000000" d="M220.1232,-679.3863C203.411,-674.5261 197.5326,-660.4039 182,-643.2 157.9133,-616.5217 177.443,-573.2 141.5,-573.2"/>
<polygon fill="#000000" stroke="#000000" points="226.5629,-680.1987 234.0494,-684.7717 230.5315,-680.6993 234.5,-681.2 234.5,-681.2 234.5,-681.2 230.5315,-680.6993 234.9506,-677.6283 226.5629,-680.1987 226.5629,-680.1987"/>
<ellipse fill="none" stroke="#000000" cx="223.3881" cy="-679.7981" rx="3.2" ry="3.2"/>
</g>
<!-- sed_Sample -->
<g id="node14" class="node">
<title>sed_Sample</title>
<g id="a_node14"><a xlink:href="../../tables/sed_Sample.html" xlink:title="sed_Sample" target="_top">
<polygon fill="#ffffff" stroke="transparent" points="658,-343.7 658,-404.7 767,-404.7 767,-343.7 658,-343.7"/>
<polygon fill="#f5f5f5" stroke="transparent" points="658.5,-381.2 658.5,-404.2 767.5,-404.2 767.5,-381.2 658.5,-381.2"/>
<polygon fill="none" stroke="#000000" points="658.5,-381.2 658.5,-404.2 767.5,-404.2 767.5,-381.2 658.5,-381.2"/>
<text text-anchor="start" x="663.5" y="-389.8" font-family="Helvetica,sans-Serif" font-weight="bold" font-size="11.00" fill="#000000">sed_Sample</text>
<text text-anchor="start" x="733.0219" y="-389.3" font-family="Helvetica,sans-Serif" font-size="11.00" fill="#000000">[table]</text>
<polygon fill="none" stroke="#000000" points="658.5,-362.2 658.5,-381.2 767.5,-381.2 767.5,-362.2 658.5,-362.2"/>
<text text-anchor="start" x="661.5" y="-368.3" font-family="Helvetica,sans-Serif" font-size="11.00" fill="#000000">...</text>
<polygon fill="#ffffff" stroke="transparent" points="658.5,-343.2 658.5,-362.2 683.5,-362.2 683.5,-343.2 658.5,-343.2"/>
<polygon fill="none" stroke="#000000" points="658.5,-343.2 658.5,-362.2 683.5,-362.2 683.5,-343.2 658.5,-343.2"/>
<text text-anchor="start" x="661.5" y="-349.3" font-family="Helvetica,sans-Serif" font-size="11.00" fill="#000000">&lt; 9</text>
<polygon fill="#ffffff" stroke="transparent" points="683.5,-343.2 683.5,-362.2 744.5,-362.2 744.5,-343.2 683.5,-343.2"/>
<polygon fill="none" stroke="#000000" points="683.5,-343.2 683.5,-362.2 744.5,-362.2 744.5,-343.2 683.5,-343.2"/>
<text text-anchor="start" x="687.7089" y="-349.3" font-family="Helvetica,sans-Serif" font-size="11.00" fill="#000000">3.181 rows</text>
<polygon fill="#ffffff" stroke="transparent" points="744.5,-343.2 744.5,-362.2 767.5,-362.2 767.5,-343.2 744.5,-343.2"/>
<polygon fill="none" stroke="#000000" points="744.5,-343.2 744.5,-362.2 767.5,-362.2 767.5,-343.2 744.5,-343.2"/>
<text text-anchor="start" x="748.9053" y="-349.3" font-family="Helvetica,sans-Serif" font-size="11.00" fill="#000000">2 &gt;</text>
</a>
</g>
</g>
<!-- sed_Sample&#45;&gt;global_SiteMaster -->
<g id="edge14" class="edge">
<title>sed_Sample:w&#45;&gt;global_SiteMaster:e</title>
<path fill="none" stroke="#000000" d="M644.292,-373.6456C593.9964,-394.0467 671.3644,-535.2 599.5,-535.2"/>
<polygon fill="#000000" stroke="#000000" points="650.6159,-372.5571 659.1107,-374.7478 654.558,-371.8786 658.5,-371.2 658.5,-371.2 658.5,-371.2 654.558,-371.8786 657.8893,-367.6522 650.6159,-372.5571 650.6159,-372.5571"/>
<ellipse fill="none" stroke="#000000" cx="647.4623" cy="-373.1" rx="3.2" ry="3.2"/>
</g>
</g>
</svg>
