<?xml version="1.0" encoding="UTF-8" standalone="no"?>
<!DOCTYPE svg PUBLIC "-//W3C//DTD SVG 1.1//EN"
 "http://www.w3.org/Graphics/SVG/1.1/DTD/svg11.dtd">
<!-- Generated by graphviz version 2.40.1 (20161225.0304)
 -->
<!-- Title: oneDegreeRelationshipsDiagram Pages: 1 -->
<svg width="412pt" height="463pt"
 viewBox="0.00 0.00 412.00 463.20" xmlns="http://www.w3.org/2000/svg" xmlns:xlink="http://www.w3.org/1999/xlink">
<g id="graph0" class="graph" transform="scale(1 1) rotate(0) translate(4 459.2)">
<title>oneDegreeRelationshipsDiagram</title>
<polygon fill="#ffffff" stroke="transparent" points="-4,4 -4,-459.2 408,-459.2 408,4 -4,4"/>
<text text-anchor="middle" x="72.4936" y="-7.3" font-family="Helvetica,sans-Serif" font-size="11.00" fill="#000000">Generated by SchemaSpy</text>
<!-- char_DataCore -->
<g id="node1" class="node">
<title>char_DataCore</title>
<g id="a_node1"><a xlink:href="../../tables/char_DataCore.html" xlink:title="char_DataCore" target="_top">
<polygon fill="#ffffff" stroke="transparent" points="272,-38.2 272,-451.2 396,-451.2 396,-38.2 272,-38.2"/>
<polygon fill="#f5f5f5" stroke="transparent" points="272,-427.7 272,-450.7 396,-450.7 396,-427.7 272,-427.7"/>
<polygon fill="none" stroke="#000000" points="272,-427.7 272,-450.7 396,-450.7 396,-427.7 272,-427.7"/>
<text text-anchor="start" x="277" y="-436.3" font-family="Helvetica,sans-Serif" font-weight="bold" font-size="11.00" fill="#000000">char_DataCore</text>
<text text-anchor="start" x="361.5219" y="-435.8" font-family="Helvetica,sans-Serif" font-size="11.00" fill="#000000">[table]</text>
<polygon fill="none" stroke="#000000" points="272,-405.7 272,-427.7 396,-427.7 396,-405.7 272,-405.7"/>
<image xlink:href="../../images/primaryKeys.png" width="11px" height="12px" preserveAspectRatio="xMinYMin meet" x="277" y="-422.7"/>
<text text-anchor="start" x="301" y="-412.8" font-family="Helvetica,sans-Serif" font-size="11.00" fill="#000000">OBSID</text>
<polygon fill="none" stroke="#000000" points="272,-383.7 272,-405.7 396,-405.7 396,-383.7 272,-383.7"/>
<image xlink:href="../../images/foreignKeys.png" width="11px" height="12px" preserveAspectRatio="xMinYMin meet" x="277" y="-400.7"/>
<text text-anchor="start" x="301" y="-390.8" font-family="Helvetica,sans-Serif" font-size="11.00" fill="#000000">SMPID</text>
<polygon fill="none" stroke="#000000" points="272,-361.7 272,-383.7 396,-383.7 396,-361.7 272,-361.7"/>
<image xlink:href="../../images/foreignKeys.png" width="11px" height="12px" preserveAspectRatio="xMinYMin meet" x="277" y="-378.7"/>
<text text-anchor="start" x="301" y="-368.8" font-family="Helvetica,sans-Serif" font-size="11.00" fill="#000000">LAB_ORIGID</text>
<polygon fill="none" stroke="#000000" points="272,-339.7 272,-361.7 396,-361.7 396,-339.7 272,-339.7"/>
<image xlink:href="../../images/foreignKeys.png" width="11px" height="12px" preserveAspectRatio="xMinYMin meet" x="277" y="-356.7"/>
<text text-anchor="start" x="301" y="-346.8" font-family="Helvetica,sans-Serif" font-size="11.00" fill="#000000">WHATAMI</text>
<polygon fill="none" stroke="#000000" points="272,-317.7 272,-339.7 396,-339.7 396,-317.7 272,-317.7"/>
<image xlink:href="../../images/foreignKeys.png" width="11px" height="12px" preserveAspectRatio="xMinYMin meet" x="277" y="-334.7"/>
<text text-anchor="start" x="301" y="-324.8" font-family="Helvetica,sans-Serif" font-size="11.00" fill="#000000">AGETYPEID</text>
<polygon fill="none" stroke="#000000" points="272,-295.7 272,-317.7 396,-317.7 396,-295.7 272,-295.7"/>
<image xlink:href="../../images/foreignKeys.png" width="11px" height="12px" preserveAspectRatio="xMinYMin meet" x="277" y="-312.7"/>
<text text-anchor="start" x="301" y="-302.8" font-family="Helvetica,sans-Serif" font-size="11.00" fill="#000000">METHODID</text>
<polygon fill="none" stroke="#000000" points="272,-273.7 272,-295.7 396,-295.7 396,-273.7 272,-273.7"/>
<image xlink:href="../../images/foreignKeys.png" width="11px" height="12px" preserveAspectRatio="xMinYMin meet" x="277" y="-290.7"/>
<text text-anchor="start" x="301" y="-280.8" font-family="Helvetica,sans-Serif" font-size="11.00" fill="#000000">MATERIA2ID</text>
<polygon fill="none" stroke="#000000" points="272,-251.7 272,-273.7 396,-273.7 396,-251.7 272,-251.7"/>
<image xlink:href="../../images/foreignKeys.png" width="11px" height="12px" preserveAspectRatio="xMinYMin meet" x="277" y="-268.7"/>
<text text-anchor="start" x="301" y="-258.8" font-family="Helvetica,sans-Serif" font-size="11.00" fill="#000000">CALCURVEID</text>
<polygon fill="none" stroke="#000000" points="272,-229.7 272,-251.7 396,-251.7 396,-229.7 272,-229.7"/>
<image xlink:href="../../images/foreignKeys.png" width="11px" height="12px" preserveAspectRatio="xMinYMin meet" x="277" y="-246.7"/>
<text text-anchor="start" x="301" y="-236.8" font-family="Helvetica,sans-Serif" font-size="11.00" fill="#000000">CALPROGID</text>
<polygon fill="none" stroke="#000000" points="272,-207.7 272,-229.7 396,-229.7 396,-207.7 272,-207.7"/>
<image xlink:href="../../images/foreignKeys.png" width="11px" height="12px" preserveAspectRatio="xMinYMin meet" x="277" y="-224.7"/>
<text text-anchor="start" x="301" y="-214.8" font-family="Helvetica,sans-Serif" font-size="11.00" fill="#000000">CHARMTDID</text>
<polygon fill="none" stroke="#000000" points="272,-185.7 272,-207.7 396,-207.7 396,-185.7 272,-185.7"/>
<image xlink:href="../../images/foreignKeys.png" width="11px" height="12px" preserveAspectRatio="xMinYMin meet" x="277" y="-202.7"/>
<text text-anchor="start" x="301" y="-192.8" font-family="Helvetica,sans-Serif" font-size="11.00" fill="#000000">CHARMEASID</text>
<polygon fill="none" stroke="#000000" points="272,-163.7 272,-185.7 396,-185.7 396,-163.7 272,-163.7"/>
<image xlink:href="../../images/foreignKeys.png" width="11px" height="12px" preserveAspectRatio="xMinYMin meet" x="277" y="-180.7"/>
<text text-anchor="start" x="301" y="-170.8" font-family="Helvetica,sans-Serif" font-size="11.00" fill="#000000">CHARSIZEID</text>
<polygon fill="none" stroke="#000000" points="272,-141.7 272,-163.7 396,-163.7 396,-141.7 272,-141.7"/>
<image xlink:href="../../images/foreignKeys.png" width="11px" height="12px" preserveAspectRatio="xMinYMin meet" x="277" y="-158.7"/>
<text text-anchor="start" x="301" y="-148.8" font-family="Helvetica,sans-Serif" font-size="11.00" fill="#000000">DATASRCID</text>
<polygon fill="none" stroke="#000000" points="272,-119.7 272,-141.7 396,-141.7 396,-119.7 272,-119.7"/>
<image xlink:href="../../images/foreignKeys.png" width="11px" height="12px" preserveAspectRatio="xMinYMin meet" x="277" y="-136.7"/>
<text text-anchor="start" x="301" y="-126.8" font-family="Helvetica,sans-Serif" font-size="11.00" fill="#000000">REF1</text>
<polygon fill="none" stroke="#000000" points="272,-97.7 272,-119.7 396,-119.7 396,-97.7 272,-97.7"/>
<image xlink:href="../../images/foreignKeys.png" width="11px" height="12px" preserveAspectRatio="xMinYMin meet" x="277" y="-114.7"/>
<text text-anchor="start" x="301" y="-104.8" font-family="Helvetica,sans-Serif" font-size="11.00" fill="#000000">REF2</text>
<polygon fill="none" stroke="#000000" points="272,-75.7 272,-97.7 396,-97.7 396,-75.7 272,-75.7"/>
<image xlink:href="../../images/foreignKeys.png" width="11px" height="12px" preserveAspectRatio="xMinYMin meet" x="277" y="-92.7"/>
<text text-anchor="start" x="301" y="-82.8" font-family="Helvetica,sans-Serif" font-size="11.00" fill="#000000">REF3</text>
<polygon fill="none" stroke="#000000" points="272,-56.7 272,-75.7 396,-75.7 396,-56.7 272,-56.7"/>
<text text-anchor="start" x="275" y="-62.8" font-family="Helvetica,sans-Serif" font-size="11.00" fill="#000000">...</text>
<polygon fill="#ffffff" stroke="transparent" points="272,-37.7 272,-56.7 309,-56.7 309,-37.7 272,-37.7"/>
<polygon fill="none" stroke="#000000" points="272,-37.7 272,-56.7 309,-56.7 309,-37.7 272,-37.7"/>
<text text-anchor="start" x="275" y="-43.8" font-family="Helvetica,sans-Serif" font-size="11.00" fill="#000000">&lt; 15</text>
<polygon fill="#ffffff" stroke="transparent" points="309,-37.7 309,-56.7 379,-56.7 379,-37.7 309,-37.7"/>
<polygon fill="none" stroke="#000000" points="309,-37.7 309,-56.7 379,-56.7 379,-37.7 309,-37.7"/>
<text text-anchor="start" x="316.094" y="-43.8" font-family="Helvetica,sans-Serif" font-size="11.00" fill="#000000">48.234 rows</text>
<polygon fill="#ffffff" stroke="transparent" points="379,-37.7 379,-56.7 396,-56.7 396,-37.7 379,-37.7"/>
<polygon fill="none" stroke="#000000" points="379,-37.7 379,-56.7 396,-56.7 396,-37.7 379,-37.7"/>
<text text-anchor="start" x="386.8862" y="-43.8" font-family="Helvetica,sans-Serif" font-size="11.00" fill="#000000"> &#160;</text>
</a>
</g>
</g>
<!-- cabah_agetypeID -->
<g id="node2" class="node">
<title>cabah_agetypeID</title>
<g id="a_node2"><a xlink:href="../../tables/cabah_agetypeID.html" xlink:title="cabah_agetypeID" target="_top">
<polygon fill="#ffffff" stroke="transparent" points="8,-186.7 8,-364.7 223,-364.7 223,-186.7 8,-186.7"/>
<polygon fill="#f5f5f5" stroke="transparent" points="10.5,-339.7 10.5,-362.7 221.5,-362.7 221.5,-339.7 10.5,-339.7"/>
<polygon fill="none" stroke="#000000" points="10.5,-339.7 10.5,-362.7 221.5,-362.7 221.5,-339.7 10.5,-339.7"/>
<text text-anchor="start" x="15.5" y="-348.3" font-family="Helvetica,sans-Serif" font-weight="bold" font-size="11.00" fill="#000000">cabah_agetypeID</text>
<text text-anchor="start" x="186.5437" y="-347.8" font-family="Helvetica,sans-Serif" font-size="11.00" fill="#000000">[table]</text>
<polygon fill="none" stroke="#000000" points="10.5,-317.7 10.5,-339.7 129.5,-339.7 129.5,-317.7 10.5,-317.7"/>
<image xlink:href="../../images/primaryKeys.png" width="11px" height="12px" preserveAspectRatio="xMinYMin meet" x="15.5" y="-334.7"/>
<text text-anchor="start" x="30.5" y="-324.8" font-family="Helvetica,sans-Serif" font-size="11.00" fill="#000000">AGETYPEID</text>
<polygon fill="none" stroke="#000000" points="129.5,-317.7 129.5,-339.7 221.5,-339.7 221.5,-317.7 129.5,-317.7"/>
<text text-anchor="start" x="132.5" y="-325.4" font-family="Helvetica,sans-Serif" font-size="11.00" fill="#000000">serial[10]</text>
<polygon fill="#ffffff" stroke="transparent" points="10.5,-295.7 10.5,-317.7 129.5,-317.7 129.5,-295.7 10.5,-295.7"/>
<polygon fill="none" stroke="#000000" points="10.5,-295.7 10.5,-317.7 129.5,-317.7 129.5,-295.7 10.5,-295.7"/>
<text text-anchor="start" x="30.5" y="-302.8" font-family="Helvetica,sans-Serif" font-size="11.00" fill="#000000">AGETYPE</text>
<polygon fill="none" stroke="#000000" points="129.5,-295.7 129.5,-317.7 221.5,-317.7 221.5,-295.7 129.5,-295.7"/>
<text text-anchor="start" x="132.5" y="-303.4" font-family="Helvetica,sans-Serif" font-size="11.00" fill="#000000">text[2147483647]</text>
<polygon fill="none" stroke="#000000" points="10.5,-273.7 10.5,-295.7 129.5,-295.7 129.5,-273.7 10.5,-273.7"/>
<text text-anchor="start" x="30.5" y="-280.8" font-family="Helvetica,sans-Serif" font-size="11.00" fill="#000000">AGETDESCR</text>
<polygon fill="none" stroke="#000000" points="129.5,-273.7 129.5,-295.7 221.5,-295.7 221.5,-273.7 129.5,-273.7"/>
<text text-anchor="start" x="132.5" y="-281.4" font-family="Helvetica,sans-Serif" font-size="11.00" fill="#000000">text[2147483647]</text>
<polygon fill="none" stroke="#000000" points="10.5,-251.7 10.5,-273.7 129.5,-273.7 129.5,-251.7 10.5,-251.7"/>
<text text-anchor="start" x="30.5" y="-258.8" font-family="Helvetica,sans-Serif" font-size="11.00" fill="#000000">AGETCOMMT</text>
<polygon fill="none" stroke="#000000" points="129.5,-251.7 129.5,-273.7 221.5,-273.7 221.5,-251.7 129.5,-251.7"/>
<text text-anchor="start" x="132.5" y="-259.4" font-family="Helvetica,sans-Serif" font-size="11.00" fill="#000000">text[2147483647]</text>
<polygon fill="none" stroke="#000000" points="10.5,-229.7 10.5,-251.7 129.5,-251.7 129.5,-229.7 10.5,-229.7"/>
<text text-anchor="start" x="30.5" y="-236.8" font-family="Helvetica,sans-Serif" font-size="11.00" fill="#000000">CREATED_AT</text>
<polygon fill="none" stroke="#000000" points="129.5,-229.7 129.5,-251.7 221.5,-251.7 221.5,-229.7 129.5,-229.7"/>
<text text-anchor="start" x="132.1023" y="-237.4" font-family="Helvetica,sans-Serif" font-size="11.00" fill="#000000">timestamptz[35,6]</text>
<polygon fill="none" stroke="#000000" points="10.5,-207.7 10.5,-229.7 129.5,-229.7 129.5,-207.7 10.5,-207.7"/>
<text text-anchor="start" x="30.5" y="-214.8" font-family="Helvetica,sans-Serif" font-size="11.00" fill="#000000">UPDATED_AT</text>
<polygon fill="none" stroke="#000000" points="129.5,-207.7 129.5,-229.7 221.5,-229.7 221.5,-207.7 129.5,-207.7"/>
<text text-anchor="start" x="132.1023" y="-215.4" font-family="Helvetica,sans-Serif" font-size="11.00" fill="#000000">timestamptz[35,6]</text>
<polygon fill="#ffffff" stroke="transparent" points="10.5,-188.7 10.5,-207.7 58.5,-207.7 58.5,-188.7 10.5,-188.7"/>
<polygon fill="none" stroke="#000000" points="10.5,-188.7 10.5,-207.7 58.5,-207.7 58.5,-188.7 10.5,-188.7"/>
<text text-anchor="start" x="13.5" y="-194.8" font-family="Helvetica,sans-Serif" font-size="11.00" fill="#000000">&lt; 0</text>
<polygon fill="#ffffff" stroke="transparent" points="58.5,-188.7 58.5,-207.7 129.5,-207.7 129.5,-188.7 58.5,-188.7"/>
<polygon fill="none" stroke="#000000" points="58.5,-188.7 58.5,-207.7 129.5,-207.7 129.5,-188.7 58.5,-188.7"/>
<text text-anchor="start" x="87.9956" y="-194.8" font-family="Helvetica,sans-Serif" font-size="11.00" fill="#000000">11 rows</text>
<polygon fill="#ffffff" stroke="transparent" points="129.5,-188.7 129.5,-207.7 221.5,-207.7 221.5,-188.7 129.5,-188.7"/>
<polygon fill="none" stroke="#000000" points="129.5,-188.7 129.5,-207.7 221.5,-207.7 221.5,-188.7 129.5,-188.7"/>
<text text-anchor="start" x="202.9053" y="-194.8" font-family="Helvetica,sans-Serif" font-size="11.00" fill="#000000">1 &gt;</text>
<polygon fill="none" stroke="#000000" stroke-width="2" points="9,-187.7 9,-363.7 222,-363.7 222,-187.7 9,-187.7"/>
</a>
</g>
</g>
<!-- char_DataCore&#45;&gt;cabah_agetypeID -->
<g id="edge1" class="edge">
<title>char_DataCore:w&#45;&gt;cabah_agetypeID:e</title>
<path fill="none" stroke="#000000" d="M257.4203,-328.7C245.5435,-328.7 238.158,-328.7 221.5,-328.7"/>
<polygon fill="#000000" stroke="#000000" points="264,-328.7001 272,-332.3 268,-328.7 272,-328.7 272,-328.7 272,-328.7 268,-328.7 272,-325.1 264,-328.7001 264,-328.7001"/>
<ellipse fill="none" stroke="#000000" cx="260.8" cy="-328.7001" rx="3.2" ry="3.2"/>
</g>
</g>
</svg>
