<?xml version="1.0" encoding="UTF-8" standalone="no"?>
<!DOCTYPE svg PUBLIC "-//W3C//DTD SVG 1.1//EN"
 "http://www.w3.org/Graphics/SVG/1.1/DTD/svg11.dtd">
<!-- Generated by graphviz version 2.40.1 (20161225.0304)
 -->
<!-- Title: oneDegreeRelationshipsDiagram Pages: 1 -->
<svg width="469pt" height="1225pt"
 viewBox="0.00 0.00 469.00 1225.20" xmlns="http://www.w3.org/2000/svg" xmlns:xlink="http://www.w3.org/1999/xlink">
<g id="graph0" class="graph" transform="scale(1 1) rotate(0) translate(4 1221.2)">
<title>oneDegreeRelationshipsDiagram</title>
<polygon fill="#ffffff" stroke="transparent" points="-4,4 -4,-1221.2 465,-1221.2 465,4 -4,4"/>
<text text-anchor="middle" x="72.4936" y="-7.3" font-family="Helvetica,sans-Serif" font-size="11.00" fill="#000000">Generated by SchemaSpy</text>
<!-- cabah_ecolgroupID -->
<g id="node1" class="node">
<title>cabah_ecolgroupID</title>
<g id="a_node1"><a xlink:href="../../tables/cabah_ecolgroupID.html" xlink:title="cabah_ecolgroupID" target="_top">
<polygon fill="#ffffff" stroke="transparent" points="297,-1086.2 297,-1213.2 447,-1213.2 447,-1086.2 297,-1086.2"/>
<polygon fill="#f5f5f5" stroke="transparent" points="297,-1189.7 297,-1212.7 447,-1212.7 447,-1189.7 297,-1189.7"/>
<polygon fill="none" stroke="#000000" points="297,-1189.7 297,-1212.7 447,-1212.7 447,-1189.7 297,-1189.7"/>
<text text-anchor="start" x="302" y="-1198.3" font-family="Helvetica,sans-Serif" font-weight="bold" font-size="11.00" fill="#000000">cabah_ecolgroupID</text>
<text text-anchor="start" x="412.5219" y="-1197.8" font-family="Helvetica,sans-Serif" font-size="11.00" fill="#000000">[table]</text>
<polygon fill="none" stroke="#000000" points="297,-1167.7 297,-1189.7 447,-1189.7 447,-1167.7 297,-1167.7"/>
<image xlink:href="../../images/primaryKeys.png" width="11px" height="12px" preserveAspectRatio="xMinYMin meet" x="302" y="-1184.7"/>
<text text-anchor="start" x="326" y="-1174.8" font-family="Helvetica,sans-Serif" font-size="11.00" fill="#000000">ECOGROUPID</text>
<polygon fill="#ffffff" stroke="transparent" points="297,-1145.7 297,-1167.7 447,-1167.7 447,-1145.7 297,-1145.7"/>
<polygon fill="none" stroke="#000000" points="297,-1145.7 297,-1167.7 447,-1167.7 447,-1145.7 297,-1145.7"/>
<text text-anchor="start" x="326" y="-1152.8" font-family="Helvetica,sans-Serif" font-size="11.00" fill="#000000">ECOGRPHNDL</text>
<polygon fill="none" stroke="#000000" points="297,-1123.7 297,-1145.7 447,-1145.7 447,-1123.7 297,-1123.7"/>
<image xlink:href="../../images/foreignKeys.png" width="11px" height="12px" preserveAspectRatio="xMinYMin meet" x="302" y="-1140.7"/>
<text text-anchor="start" x="326" y="-1130.8" font-family="Helvetica,sans-Serif" font-size="11.00" fill="#000000">ECOGRPSRC</text>
<polygon fill="none" stroke="#000000" points="297,-1104.7 297,-1123.7 447,-1123.7 447,-1104.7 297,-1104.7"/>
<text text-anchor="start" x="300" y="-1110.8" font-family="Helvetica,sans-Serif" font-size="11.00" fill="#000000">...</text>
<polygon fill="#ffffff" stroke="transparent" points="297,-1085.7 297,-1104.7 351,-1104.7 351,-1085.7 297,-1085.7"/>
<polygon fill="none" stroke="#000000" points="297,-1085.7 297,-1104.7 351,-1104.7 351,-1085.7 297,-1085.7"/>
<text text-anchor="start" x="300" y="-1091.8" font-family="Helvetica,sans-Serif" font-size="11.00" fill="#000000">&lt; 1</text>
<polygon fill="#ffffff" stroke="transparent" points="351,-1085.7 351,-1104.7 418,-1104.7 418,-1085.7 351,-1085.7"/>
<polygon fill="none" stroke="#000000" points="351,-1085.7 351,-1104.7 418,-1104.7 418,-1085.7 351,-1085.7"/>
<text text-anchor="start" x="370.3807" y="-1091.8" font-family="Helvetica,sans-Serif" font-size="11.00" fill="#000000">194 rows</text>
<polygon fill="#ffffff" stroke="transparent" points="418,-1085.7 418,-1104.7 447,-1104.7 447,-1085.7 418,-1085.7"/>
<polygon fill="none" stroke="#000000" points="418,-1085.7 418,-1104.7 447,-1104.7 447,-1085.7 418,-1085.7"/>
<text text-anchor="start" x="437.8862" y="-1091.8" font-family="Helvetica,sans-Serif" font-size="11.00" fill="#000000"> &#160;</text>
</a>
</g>
</g>
<!-- cabah_datasourceID -->
<g id="node2" class="node">
<title>cabah_datasourceID</title>
<g id="a_node2"><a xlink:href="../../tables/cabah_datasourceID.html" xlink:title="cabah_datasourceID" target="_top">
<polygon fill="#ffffff" stroke="transparent" points="8,-534.7 8,-712.7 242,-712.7 242,-534.7 8,-534.7"/>
<polygon fill="#f5f5f5" stroke="transparent" points="10,-687.7 10,-710.7 240,-710.7 240,-687.7 10,-687.7"/>
<polygon fill="none" stroke="#000000" points="10,-687.7 10,-710.7 240,-710.7 240,-687.7 10,-687.7"/>
<text text-anchor="start" x="15" y="-696.3" font-family="Helvetica,sans-Serif" font-weight="bold" font-size="11.00" fill="#000000">cabah_datasourceID</text>
<text text-anchor="start" x="205.0437" y="-695.8" font-family="Helvetica,sans-Serif" font-size="11.00" fill="#000000">[table]</text>
<polygon fill="none" stroke="#000000" points="10,-665.7 10,-687.7 148,-687.7 148,-665.7 10,-665.7"/>
<image xlink:href="../../images/primaryKeys.png" width="11px" height="12px" preserveAspectRatio="xMinYMin meet" x="15" y="-682.7"/>
<text text-anchor="start" x="30" y="-672.8" font-family="Helvetica,sans-Serif" font-size="11.00" fill="#000000">DATASRCID</text>
<polygon fill="none" stroke="#000000" points="148,-665.7 148,-687.7 240,-687.7 240,-665.7 148,-665.7"/>
<text text-anchor="start" x="151" y="-673.4" font-family="Helvetica,sans-Serif" font-size="11.00" fill="#000000">serial[10]</text>
<polygon fill="#ffffff" stroke="transparent" points="10,-643.7 10,-665.7 148,-665.7 148,-643.7 10,-643.7"/>
<polygon fill="none" stroke="#000000" points="10,-643.7 10,-665.7 148,-665.7 148,-643.7 10,-643.7"/>
<text text-anchor="start" x="30" y="-650.8" font-family="Helvetica,sans-Serif" font-size="11.00" fill="#000000">DATASOURCE</text>
<polygon fill="none" stroke="#000000" points="148,-643.7 148,-665.7 240,-665.7 240,-643.7 148,-643.7"/>
<text text-anchor="start" x="151" y="-651.4" font-family="Helvetica,sans-Serif" font-size="11.00" fill="#000000">text[2147483647]</text>
<polygon fill="none" stroke="#000000" points="10,-621.7 10,-643.7 148,-643.7 148,-621.7 10,-621.7"/>
<text text-anchor="start" x="30" y="-628.8" font-family="Helvetica,sans-Serif" font-size="11.00" fill="#000000">DATASRCDSC</text>
<polygon fill="none" stroke="#000000" points="148,-621.7 148,-643.7 240,-643.7 240,-621.7 148,-621.7"/>
<text text-anchor="start" x="151" y="-629.4" font-family="Helvetica,sans-Serif" font-size="11.00" fill="#000000">text[2147483647]</text>
<polygon fill="none" stroke="#000000" points="10,-599.7 10,-621.7 148,-621.7 148,-599.7 10,-599.7"/>
<text text-anchor="start" x="30" y="-606.8" font-family="Helvetica,sans-Serif" font-size="11.00" fill="#000000">DATASRCREF</text>
<polygon fill="none" stroke="#000000" points="148,-599.7 148,-621.7 240,-621.7 240,-599.7 148,-599.7"/>
<text text-anchor="start" x="151" y="-607.4" font-family="Helvetica,sans-Serif" font-size="11.00" fill="#000000">text[2147483647]</text>
<polygon fill="none" stroke="#000000" points="10,-577.7 10,-599.7 148,-599.7 148,-577.7 10,-577.7"/>
<text text-anchor="start" x="30" y="-584.8" font-family="Helvetica,sans-Serif" font-size="11.00" fill="#000000">CREATED_AT</text>
<polygon fill="none" stroke="#000000" points="148,-577.7 148,-599.7 240,-599.7 240,-577.7 148,-577.7"/>
<text text-anchor="start" x="150.6023" y="-585.4" font-family="Helvetica,sans-Serif" font-size="11.00" fill="#000000">timestamptz[35,6]</text>
<polygon fill="none" stroke="#000000" points="10,-555.7 10,-577.7 148,-577.7 148,-555.7 10,-555.7"/>
<text text-anchor="start" x="30" y="-562.8" font-family="Helvetica,sans-Serif" font-size="11.00" fill="#000000">UPDATED_AT</text>
<polygon fill="none" stroke="#000000" points="148,-555.7 148,-577.7 240,-577.7 240,-555.7 148,-555.7"/>
<text text-anchor="start" x="150.6023" y="-563.4" font-family="Helvetica,sans-Serif" font-size="11.00" fill="#000000">timestamptz[35,6]</text>
<polygon fill="#ffffff" stroke="transparent" points="10,-536.7 10,-555.7 67,-555.7 67,-536.7 10,-536.7"/>
<polygon fill="none" stroke="#000000" points="10,-536.7 10,-555.7 67,-555.7 67,-536.7 10,-536.7"/>
<text text-anchor="start" x="13" y="-542.8" font-family="Helvetica,sans-Serif" font-size="11.00" fill="#000000">&lt; 0</text>
<polygon fill="#ffffff" stroke="transparent" points="67,-536.7 67,-555.7 148,-555.7 148,-536.7 67,-536.7"/>
<polygon fill="none" stroke="#000000" points="67,-536.7 67,-555.7 148,-555.7 148,-536.7 67,-536.7"/>
<text text-anchor="start" x="106.4956" y="-542.8" font-family="Helvetica,sans-Serif" font-size="11.00" fill="#000000">11 rows</text>
<polygon fill="#ffffff" stroke="transparent" points="148,-536.7 148,-555.7 240,-555.7 240,-536.7 148,-536.7"/>
<polygon fill="none" stroke="#000000" points="148,-536.7 148,-555.7 240,-555.7 240,-536.7 148,-536.7"/>
<text text-anchor="start" x="221.4053" y="-542.8" font-family="Helvetica,sans-Serif" font-size="11.00" fill="#000000">6 &gt;</text>
<polygon fill="none" stroke="#000000" stroke-width="2" points="9,-535.7 9,-711.7 241,-711.7 241,-535.7 9,-535.7"/>
</a>
</g>
</g>
<!-- cabah_ecolgroupID&#45;&gt;cabah_datasourceID -->
<g id="edge1" class="edge">
<title>cabah_ecolgroupID:w&#45;&gt;cabah_datasourceID:e</title>
<path fill="none" stroke="#000000" d="M282.7921,-1131.0134C209.3626,-1087.669 337.1544,-676.7 240,-676.7"/>
<polygon fill="#000000" stroke="#000000" points="289.2564,-1132.6907 296.0958,-1138.1846 293.1282,-1133.6953 297,-1134.7 297,-1134.7 297,-1134.7 293.1282,-1133.6953 297.9042,-1131.2154 289.2564,-1132.6907 289.2564,-1132.6907"/>
<ellipse fill="none" stroke="#000000" cx="286.159" cy="-1131.8869" rx="3.2" ry="3.2"/>
</g>
<!-- cabah_elementtypeID -->
<g id="node3" class="node">
<title>cabah_elementtypeID</title>
<g id="a_node3"><a xlink:href="../../tables/cabah_elementtypeID.html" xlink:title="cabah_elementtypeID" target="_top">
<polygon fill="#ffffff" stroke="transparent" points="291,-960.2 291,-1065.2 453,-1065.2 453,-960.2 291,-960.2"/>
<polygon fill="#f5f5f5" stroke="transparent" points="291,-1041.7 291,-1064.7 453,-1064.7 453,-1041.7 291,-1041.7"/>
<polygon fill="none" stroke="#000000" points="291,-1041.7 291,-1064.7 453,-1064.7 453,-1041.7 291,-1041.7"/>
<text text-anchor="start" x="296" y="-1050.3" font-family="Helvetica,sans-Serif" font-weight="bold" font-size="11.00" fill="#000000">cabah_elementtypeID</text>
<text text-anchor="start" x="418.5219" y="-1049.8" font-family="Helvetica,sans-Serif" font-size="11.00" fill="#000000">[table]</text>
<polygon fill="none" stroke="#000000" points="291,-1019.7 291,-1041.7 453,-1041.7 453,-1019.7 291,-1019.7"/>
<image xlink:href="../../images/primaryKeys.png" width="11px" height="12px" preserveAspectRatio="xMinYMin meet" x="296" y="-1036.7"/>
<text text-anchor="start" x="320" y="-1026.8" font-family="Helvetica,sans-Serif" font-size="11.00" fill="#000000">ELEMTYPEID</text>
<polygon fill="none" stroke="#000000" points="291,-997.7 291,-1019.7 453,-1019.7 453,-997.7 291,-997.7"/>
<image xlink:href="../../images/foreignKeys.png" width="11px" height="12px" preserveAspectRatio="xMinYMin meet" x="296" y="-1014.7"/>
<text text-anchor="start" x="320" y="-1004.8" font-family="Helvetica,sans-Serif" font-size="11.00" fill="#000000">ELMTSOURCE</text>
<polygon fill="none" stroke="#000000" points="291,-978.7 291,-997.7 453,-997.7 453,-978.7 291,-978.7"/>
<text text-anchor="start" x="294" y="-984.8" font-family="Helvetica,sans-Serif" font-size="11.00" fill="#000000">...</text>
<polygon fill="#ffffff" stroke="transparent" points="291,-959.7 291,-978.7 351,-978.7 351,-959.7 291,-959.7"/>
<polygon fill="none" stroke="#000000" points="291,-959.7 291,-978.7 351,-978.7 351,-959.7 291,-959.7"/>
<text text-anchor="start" x="294" y="-965.8" font-family="Helvetica,sans-Serif" font-size="11.00" fill="#000000">&lt; 1</text>
<polygon fill="#ffffff" stroke="transparent" points="351,-959.7 351,-978.7 421,-978.7 421,-959.7 351,-959.7"/>
<polygon fill="none" stroke="#000000" points="351,-959.7 351,-978.7 421,-978.7 421,-959.7 351,-959.7"/>
<text text-anchor="start" x="373.3807" y="-965.8" font-family="Helvetica,sans-Serif" font-size="11.00" fill="#000000">927 rows</text>
<polygon fill="#ffffff" stroke="transparent" points="421,-959.7 421,-978.7 453,-978.7 453,-959.7 421,-959.7"/>
<polygon fill="none" stroke="#000000" points="421,-959.7 421,-978.7 453,-978.7 453,-959.7 421,-959.7"/>
<text text-anchor="start" x="443.8862" y="-965.8" font-family="Helvetica,sans-Serif" font-size="11.00" fill="#000000"> &#160;</text>
</a>
</g>
</g>
<!-- cabah_elementtypeID&#45;&gt;cabah_datasourceID -->
<g id="edge2" class="edge">
<title>cabah_elementtypeID:w&#45;&gt;cabah_datasourceID:e</title>
<path fill="none" stroke="#000000" d="M277.3963,-1003.7492C229.6592,-962.4494 309.249,-676.7 240,-676.7"/>
<polygon fill="#000000" stroke="#000000" points="283.4824,-1005.964 289.7688,-1012.0829 287.2412,-1007.332 291,-1008.7 291,-1008.7 291,-1008.7 287.2412,-1007.332 292.2312,-1005.3171 283.4824,-1005.964 283.4824,-1005.964"/>
<ellipse fill="none" stroke="#000000" cx="280.4753" cy="-1004.8697" rx="3.2" ry="3.2"/>
</g>
<!-- cabah_taxagroupID -->
<g id="node4" class="node">
<title>cabah_taxagroupID</title>
<g id="a_node4"><a xlink:href="../../tables/cabah_taxagroupID.html" xlink:title="cabah_taxagroupID" target="_top">
<polygon fill="#ffffff" stroke="transparent" points="297,-812.2 297,-939.2 447,-939.2 447,-812.2 297,-812.2"/>
<polygon fill="#f5f5f5" stroke="transparent" points="297,-915.7 297,-938.7 447,-938.7 447,-915.7 297,-915.7"/>
<polygon fill="none" stroke="#000000" points="297,-915.7 297,-938.7 447,-938.7 447,-915.7 297,-915.7"/>
<text text-anchor="start" x="302" y="-924.3" font-family="Helvetica,sans-Serif" font-weight="bold" font-size="11.00" fill="#000000">cabah_taxagroupID</text>
<text text-anchor="start" x="412.5219" y="-923.8" font-family="Helvetica,sans-Serif" font-size="11.00" fill="#000000">[table]</text>
<polygon fill="none" stroke="#000000" points="297,-893.7 297,-915.7 447,-915.7 447,-893.7 297,-893.7"/>
<image xlink:href="../../images/primaryKeys.png" width="11px" height="12px" preserveAspectRatio="xMinYMin meet" x="302" y="-910.7"/>
<text text-anchor="start" x="326" y="-900.8" font-family="Helvetica,sans-Serif" font-size="11.00" fill="#000000">TAXAGRPID</text>
<polygon fill="#ffffff" stroke="transparent" points="297,-871.7 297,-893.7 447,-893.7 447,-871.7 297,-871.7"/>
<polygon fill="none" stroke="#000000" points="297,-871.7 297,-893.7 447,-893.7 447,-871.7 297,-871.7"/>
<text text-anchor="start" x="326" y="-878.8" font-family="Helvetica,sans-Serif" font-size="11.00" fill="#000000">TXAGRPHDLE</text>
<polygon fill="none" stroke="#000000" points="297,-849.7 297,-871.7 447,-871.7 447,-849.7 297,-849.7"/>
<image xlink:href="../../images/foreignKeys.png" width="11px" height="12px" preserveAspectRatio="xMinYMin meet" x="302" y="-866.7"/>
<text text-anchor="start" x="326" y="-856.8" font-family="Helvetica,sans-Serif" font-size="11.00" fill="#000000">TXAGRPSRC</text>
<polygon fill="none" stroke="#000000" points="297,-830.7 297,-849.7 447,-849.7 447,-830.7 297,-830.7"/>
<text text-anchor="start" x="300" y="-836.8" font-family="Helvetica,sans-Serif" font-size="11.00" fill="#000000">...</text>
<polygon fill="#ffffff" stroke="transparent" points="297,-811.7 297,-830.7 354,-830.7 354,-811.7 297,-811.7"/>
<polygon fill="none" stroke="#000000" points="297,-811.7 297,-830.7 354,-830.7 354,-811.7 297,-811.7"/>
<text text-anchor="start" x="300" y="-817.8" font-family="Helvetica,sans-Serif" font-size="11.00" fill="#000000">&lt; 1</text>
<polygon fill="#ffffff" stroke="transparent" points="354,-811.7 354,-830.7 416,-830.7 416,-811.7 354,-811.7"/>
<polygon fill="none" stroke="#000000" points="354,-811.7 354,-830.7 416,-830.7 416,-811.7 354,-811.7"/>
<text text-anchor="start" x="374.4956" y="-817.8" font-family="Helvetica,sans-Serif" font-size="11.00" fill="#000000">56 rows</text>
<polygon fill="#ffffff" stroke="transparent" points="416,-811.7 416,-830.7 447,-830.7 447,-811.7 416,-811.7"/>
<polygon fill="none" stroke="#000000" points="416,-811.7 416,-830.7 447,-830.7 447,-811.7 416,-811.7"/>
<text text-anchor="start" x="437.8862" y="-817.8" font-family="Helvetica,sans-Serif" font-size="11.00" fill="#000000"> &#160;</text>
</a>
</g>
</g>
<!-- cabah_taxagroupID&#45;&gt;cabah_datasourceID -->
<g id="edge3" class="edge">
<title>cabah_taxagroupID:w&#45;&gt;cabah_datasourceID:e</title>
<path fill="none" stroke="#000000" d="M282.4712,-858.3736C225.6773,-837.0739 319.9267,-676.7 240,-676.7"/>
<polygon fill="#000000" stroke="#000000" points="289.1006,-859.4351 296.4308,-864.2547 293.0503,-860.0675 297,-860.7 297,-860.7 297,-860.7 293.0503,-860.0675 297.5692,-857.1453 289.1006,-859.4351 289.1006,-859.4351"/>
<ellipse fill="none" stroke="#000000" cx="285.9409" cy="-858.9291" rx="3.2" ry="3.2"/>
</g>
<!-- char_DataCore -->
<g id="node5" class="node">
<title>char_DataCore</title>
<g id="a_node5"><a xlink:href="../../tables/char_DataCore.html" xlink:title="char_DataCore" target="_top">
<polygon fill="#ffffff" stroke="transparent" points="310,-356.2 310,-791.2 434,-791.2 434,-356.2 310,-356.2"/>
<polygon fill="#f5f5f5" stroke="transparent" points="310,-767.7 310,-790.7 434,-790.7 434,-767.7 310,-767.7"/>
<polygon fill="none" stroke="#000000" points="310,-767.7 310,-790.7 434,-790.7 434,-767.7 310,-767.7"/>
<text text-anchor="start" x="315" y="-776.3" font-family="Helvetica,sans-Serif" font-weight="bold" font-size="11.00" fill="#000000">char_DataCore</text>
<text text-anchor="start" x="399.5219" y="-775.8" font-family="Helvetica,sans-Serif" font-size="11.00" fill="#000000">[table]</text>
<polygon fill="none" stroke="#000000" points="310,-745.7 310,-767.7 434,-767.7 434,-745.7 310,-745.7"/>
<image xlink:href="../../images/primaryKeys.png" width="11px" height="12px" preserveAspectRatio="xMinYMin meet" x="315" y="-762.7"/>
<text text-anchor="start" x="339" y="-752.8" font-family="Helvetica,sans-Serif" font-size="11.00" fill="#000000">OBSID</text>
<polygon fill="none" stroke="#000000" points="310,-723.7 310,-745.7 434,-745.7 434,-723.7 310,-723.7"/>
<image xlink:href="../../images/foreignKeys.png" width="11px" height="12px" preserveAspectRatio="xMinYMin meet" x="315" y="-740.7"/>
<text text-anchor="start" x="339" y="-730.8" font-family="Helvetica,sans-Serif" font-size="11.00" fill="#000000">SMPID</text>
<polygon fill="none" stroke="#000000" points="310,-701.7 310,-723.7 434,-723.7 434,-701.7 310,-701.7"/>
<image xlink:href="../../images/foreignKeys.png" width="11px" height="12px" preserveAspectRatio="xMinYMin meet" x="315" y="-718.7"/>
<text text-anchor="start" x="339" y="-708.8" font-family="Helvetica,sans-Serif" font-size="11.00" fill="#000000">LAB_ORIGID</text>
<polygon fill="none" stroke="#000000" points="310,-679.7 310,-701.7 434,-701.7 434,-679.7 310,-679.7"/>
<image xlink:href="../../images/foreignKeys.png" width="11px" height="12px" preserveAspectRatio="xMinYMin meet" x="315" y="-696.7"/>
<text text-anchor="start" x="339" y="-686.8" font-family="Helvetica,sans-Serif" font-size="11.00" fill="#000000">WHATAMI</text>
<polygon fill="none" stroke="#000000" points="310,-657.7 310,-679.7 434,-679.7 434,-657.7 310,-657.7"/>
<image xlink:href="../../images/foreignKeys.png" width="11px" height="12px" preserveAspectRatio="xMinYMin meet" x="315" y="-674.7"/>
<text text-anchor="start" x="339" y="-664.8" font-family="Helvetica,sans-Serif" font-size="11.00" fill="#000000">AGETYPEID</text>
<polygon fill="none" stroke="#000000" points="310,-635.7 310,-657.7 434,-657.7 434,-635.7 310,-635.7"/>
<image xlink:href="../../images/foreignKeys.png" width="11px" height="12px" preserveAspectRatio="xMinYMin meet" x="315" y="-652.7"/>
<text text-anchor="start" x="339" y="-642.8" font-family="Helvetica,sans-Serif" font-size="11.00" fill="#000000">METHODID</text>
<polygon fill="none" stroke="#000000" points="310,-613.7 310,-635.7 434,-635.7 434,-613.7 310,-613.7"/>
<image xlink:href="../../images/foreignKeys.png" width="11px" height="12px" preserveAspectRatio="xMinYMin meet" x="315" y="-630.7"/>
<text text-anchor="start" x="339" y="-620.8" font-family="Helvetica,sans-Serif" font-size="11.00" fill="#000000">MATERIA2ID</text>
<polygon fill="none" stroke="#000000" points="310,-591.7 310,-613.7 434,-613.7 434,-591.7 310,-591.7"/>
<image xlink:href="../../images/foreignKeys.png" width="11px" height="12px" preserveAspectRatio="xMinYMin meet" x="315" y="-608.7"/>
<text text-anchor="start" x="339" y="-598.8" font-family="Helvetica,sans-Serif" font-size="11.00" fill="#000000">CALCURVEID</text>
<polygon fill="none" stroke="#000000" points="310,-569.7 310,-591.7 434,-591.7 434,-569.7 310,-569.7"/>
<image xlink:href="../../images/foreignKeys.png" width="11px" height="12px" preserveAspectRatio="xMinYMin meet" x="315" y="-586.7"/>
<text text-anchor="start" x="339" y="-576.8" font-family="Helvetica,sans-Serif" font-size="11.00" fill="#000000">CALPROGID</text>
<polygon fill="none" stroke="#000000" points="310,-547.7 310,-569.7 434,-569.7 434,-547.7 310,-547.7"/>
<image xlink:href="../../images/foreignKeys.png" width="11px" height="12px" preserveAspectRatio="xMinYMin meet" x="315" y="-564.7"/>
<text text-anchor="start" x="339" y="-554.8" font-family="Helvetica,sans-Serif" font-size="11.00" fill="#000000">CHARMTDID</text>
<polygon fill="none" stroke="#000000" points="310,-525.7 310,-547.7 434,-547.7 434,-525.7 310,-525.7"/>
<image xlink:href="../../images/foreignKeys.png" width="11px" height="12px" preserveAspectRatio="xMinYMin meet" x="315" y="-542.7"/>
<text text-anchor="start" x="339" y="-532.8" font-family="Helvetica,sans-Serif" font-size="11.00" fill="#000000">CHARMEASID</text>
<polygon fill="none" stroke="#000000" points="310,-503.7 310,-525.7 434,-525.7 434,-503.7 310,-503.7"/>
<image xlink:href="../../images/foreignKeys.png" width="11px" height="12px" preserveAspectRatio="xMinYMin meet" x="315" y="-520.7"/>
<text text-anchor="start" x="339" y="-510.8" font-family="Helvetica,sans-Serif" font-size="11.00" fill="#000000">CHARSIZEID</text>
<polygon fill="none" stroke="#000000" points="310,-481.7 310,-503.7 434,-503.7 434,-481.7 310,-481.7"/>
<image xlink:href="../../images/foreignKeys.png" width="11px" height="12px" preserveAspectRatio="xMinYMin meet" x="315" y="-498.7"/>
<text text-anchor="start" x="339" y="-488.8" font-family="Helvetica,sans-Serif" font-size="11.00" fill="#000000">DATASRCID</text>
<polygon fill="none" stroke="#000000" points="310,-459.7 310,-481.7 434,-481.7 434,-459.7 310,-459.7"/>
<image xlink:href="../../images/foreignKeys.png" width="11px" height="12px" preserveAspectRatio="xMinYMin meet" x="315" y="-476.7"/>
<text text-anchor="start" x="339" y="-466.8" font-family="Helvetica,sans-Serif" font-size="11.00" fill="#000000">REFDBID1</text>
<polygon fill="none" stroke="#000000" points="310,-437.7 310,-459.7 434,-459.7 434,-437.7 310,-437.7"/>
<image xlink:href="../../images/foreignKeys.png" width="11px" height="12px" preserveAspectRatio="xMinYMin meet" x="315" y="-454.7"/>
<text text-anchor="start" x="339" y="-444.8" font-family="Helvetica,sans-Serif" font-size="11.00" fill="#000000">REFDBID2</text>
<polygon fill="none" stroke="#000000" points="310,-415.7 310,-437.7 434,-437.7 434,-415.7 310,-415.7"/>
<image xlink:href="../../images/foreignKeys.png" width="11px" height="12px" preserveAspectRatio="xMinYMin meet" x="315" y="-432.7"/>
<text text-anchor="start" x="339" y="-422.8" font-family="Helvetica,sans-Serif" font-size="11.00" fill="#000000">REFDBID3</text>
<polygon fill="none" stroke="#000000" points="310,-393.7 310,-415.7 434,-415.7 434,-393.7 310,-393.7"/>
<image xlink:href="../../images/foreignKeys.png" width="11px" height="12px" preserveAspectRatio="xMinYMin meet" x="315" y="-410.7"/>
<text text-anchor="start" x="339" y="-400.8" font-family="Helvetica,sans-Serif" font-size="11.00" fill="#000000">DBDOI</text>
<polygon fill="none" stroke="#000000" points="310,-374.7 310,-393.7 434,-393.7 434,-374.7 310,-374.7"/>
<text text-anchor="start" x="313" y="-380.8" font-family="Helvetica,sans-Serif" font-size="11.00" fill="#000000">...</text>
<polygon fill="#ffffff" stroke="transparent" points="310,-355.7 310,-374.7 347,-374.7 347,-355.7 310,-355.7"/>
<polygon fill="none" stroke="#000000" points="310,-355.7 310,-374.7 347,-374.7 347,-355.7 310,-355.7"/>
<text text-anchor="start" x="313" y="-361.8" font-family="Helvetica,sans-Serif" font-size="11.00" fill="#000000">&lt; 16</text>
<polygon fill="#ffffff" stroke="transparent" points="347,-355.7 347,-374.7 417,-374.7 417,-355.7 347,-355.7"/>
<polygon fill="none" stroke="#000000" points="347,-355.7 347,-374.7 417,-374.7 417,-355.7 347,-355.7"/>
<text text-anchor="start" x="354.094" y="-361.8" font-family="Helvetica,sans-Serif" font-size="11.00" fill="#000000">48.234 rows</text>
<polygon fill="#ffffff" stroke="transparent" points="417,-355.7 417,-374.7 434,-374.7 434,-355.7 417,-355.7"/>
<polygon fill="none" stroke="#000000" points="417,-355.7 417,-374.7 434,-374.7 434,-355.7 417,-355.7"/>
<text text-anchor="start" x="424.8862" y="-361.8" font-family="Helvetica,sans-Serif" font-size="11.00" fill="#000000"> &#160;</text>
</a>
</g>
</g>
<!-- char_DataCore&#45;&gt;cabah_datasourceID -->
<g id="edge4" class="edge">
<title>char_DataCore:w&#45;&gt;cabah_datasourceID:e</title>
<path fill="none" stroke="#000000" d="M295.3777,-494.8946C235.2387,-515.6544 321.8564,-676.7 240,-676.7"/>
<polygon fill="#000000" stroke="#000000" points="302.0886,-493.8874 310.5343,-496.2601 306.0443,-493.2937 310,-492.7 310,-492.7 310,-492.7 306.0443,-493.2937 309.4657,-489.1399 302.0886,-493.8874 302.0886,-493.8874"/>
<ellipse fill="none" stroke="#000000" cx="298.9241" cy="-494.3624" rx="3.2" ry="3.2"/>
</g>
<!-- global_DataSetID -->
<g id="node6" class="node">
<title>global_DataSetID</title>
<g id="a_node6"><a xlink:href="../../tables/global_DataSetID.html" xlink:title="global_DataSetID" target="_top">
<polygon fill="#ffffff" stroke="transparent" points="303.5,-186.2 303.5,-335.2 440.5,-335.2 440.5,-186.2 303.5,-186.2"/>
<polygon fill="#f5f5f5" stroke="transparent" points="304,-311.7 304,-334.7 441,-334.7 441,-311.7 304,-311.7"/>
<polygon fill="none" stroke="#000000" points="304,-311.7 304,-334.7 441,-334.7 441,-311.7 304,-311.7"/>
<text text-anchor="start" x="309" y="-320.3" font-family="Helvetica,sans-Serif" font-weight="bold" font-size="11.00" fill="#000000">global_DataSetID</text>
<text text-anchor="start" x="406.5219" y="-319.8" font-family="Helvetica,sans-Serif" font-size="11.00" fill="#000000">[table]</text>
<polygon fill="none" stroke="#000000" points="304,-289.7 304,-311.7 441,-311.7 441,-289.7 304,-289.7"/>
<image xlink:href="../../images/primaryKeys.png" width="11px" height="12px" preserveAspectRatio="xMinYMin meet" x="309" y="-306.7"/>
<text text-anchor="start" x="333" y="-296.8" font-family="Helvetica,sans-Serif" font-size="11.00" fill="#000000">DATASETID</text>
<polygon fill="none" stroke="#000000" points="304,-267.7 304,-289.7 441,-289.7 441,-267.7 304,-267.7"/>
<image xlink:href="../../images/foreignKeys.png" width="11px" height="12px" preserveAspectRatio="xMinYMin meet" x="309" y="-284.7"/>
<text text-anchor="start" x="333" y="-274.8" font-family="Helvetica,sans-Serif" font-size="11.00" fill="#000000">UNITID</text>
<polygon fill="none" stroke="#000000" points="304,-245.7 304,-267.7 441,-267.7 441,-245.7 304,-245.7"/>
<image xlink:href="../../images/foreignKeys.png" width="11px" height="12px" preserveAspectRatio="xMinYMin meet" x="309" y="-262.7"/>
<text text-anchor="start" x="333" y="-252.8" font-family="Helvetica,sans-Serif" font-size="11.00" fill="#000000">DSETTYPEID</text>
<polygon fill="none" stroke="#000000" points="304,-223.7 304,-245.7 441,-245.7 441,-223.7 304,-223.7"/>
<image xlink:href="../../images/foreignKeys.png" width="11px" height="12px" preserveAspectRatio="xMinYMin meet" x="309" y="-240.7"/>
<text text-anchor="start" x="333" y="-230.8" font-family="Helvetica,sans-Serif" font-size="11.00" fill="#000000">DSETSOURCE</text>
<polygon fill="none" stroke="#000000" points="304,-204.7 304,-223.7 441,-223.7 441,-204.7 304,-204.7"/>
<text text-anchor="start" x="307" y="-210.8" font-family="Helvetica,sans-Serif" font-size="11.00" fill="#000000">...</text>
<polygon fill="#ffffff" stroke="transparent" points="304,-185.7 304,-204.7 352,-204.7 352,-185.7 304,-185.7"/>
<polygon fill="none" stroke="#000000" points="304,-185.7 304,-204.7 352,-204.7 352,-185.7 304,-185.7"/>
<text text-anchor="start" x="307" y="-191.8" font-family="Helvetica,sans-Serif" font-size="11.00" fill="#000000">&lt; 3</text>
<polygon fill="#ffffff" stroke="transparent" points="352,-185.7 352,-204.7 415,-204.7 415,-185.7 352,-185.7"/>
<polygon fill="none" stroke="#000000" points="352,-185.7 352,-204.7 415,-204.7 415,-185.7 352,-185.7"/>
<text text-anchor="start" x="367.3807" y="-191.8" font-family="Helvetica,sans-Serif" font-size="11.00" fill="#000000">154 rows</text>
<polygon fill="#ffffff" stroke="transparent" points="415,-185.7 415,-204.7 441,-204.7 441,-185.7 415,-185.7"/>
<polygon fill="none" stroke="#000000" points="415,-185.7 415,-204.7 441,-204.7 441,-185.7 415,-185.7"/>
<text text-anchor="start" x="431.8862" y="-191.8" font-family="Helvetica,sans-Serif" font-size="11.00" fill="#000000"> &#160;</text>
</a>
</g>
</g>
<!-- global_DataSetID&#45;&gt;cabah_datasourceID -->
<g id="edge5" class="edge">
<title>global_DataSetID:w&#45;&gt;cabah_datasourceID:e</title>
<path fill="none" stroke="#000000" d="M289.7381,-238.5211C218.7646,-281.7219 333.819,-676.7 240,-676.7"/>
<polygon fill="#000000" stroke="#000000" points="296.2725,-236.7704 304.9317,-238.1774 300.1363,-235.7352 304,-234.7 304,-234.7 304,-234.7 300.1363,-235.7352 303.0683,-231.2226 296.2725,-236.7704 296.2725,-236.7704"/>
<ellipse fill="none" stroke="#000000" cx="293.1816" cy="-237.5986" rx="3.2" ry="3.2"/>
</g>
<!-- global_MetaSite -->
<g id="node7" class="node">
<title>global_MetaSite</title>
<g id="a_node7"><a xlink:href="../../tables/global_MetaSite.html" xlink:title="global_MetaSite" target="_top">
<polygon fill="#ffffff" stroke="transparent" points="307,-38.2 307,-165.2 437,-165.2 437,-38.2 307,-38.2"/>
<polygon fill="#f5f5f5" stroke="transparent" points="307,-141.7 307,-164.7 437,-164.7 437,-141.7 307,-141.7"/>
<polygon fill="none" stroke="#000000" points="307,-141.7 307,-164.7 437,-164.7 437,-141.7 307,-141.7"/>
<text text-anchor="start" x="312" y="-150.3" font-family="Helvetica,sans-Serif" font-weight="bold" font-size="11.00" fill="#000000">global_MetaSite</text>
<text text-anchor="start" x="402.5219" y="-149.8" font-family="Helvetica,sans-Serif" font-size="11.00" fill="#000000">[table]</text>
<polygon fill="none" stroke="#000000" points="307,-119.7 307,-141.7 437,-141.7 437,-119.7 307,-119.7"/>
<image xlink:href="../../images/primaryKeys.png" width="11px" height="12px" preserveAspectRatio="xMinYMin meet" x="312" y="-136.7"/>
<text text-anchor="start" x="336" y="-126.8" font-family="Helvetica,sans-Serif" font-size="11.00" fill="#000000">METASITEID</text>
<polygon fill="none" stroke="#000000" points="307,-97.7 307,-119.7 437,-119.7 437,-97.7 307,-97.7"/>
<image xlink:href="../../images/foreignKeys.png" width="11px" height="12px" preserveAspectRatio="xMinYMin meet" x="312" y="-114.7"/>
<text text-anchor="start" x="336" y="-104.8" font-family="Helvetica,sans-Serif" font-size="11.00" fill="#000000">FEATURESRC</text>
<polygon fill="none" stroke="#000000" points="307,-75.7 307,-97.7 437,-97.7 437,-75.7 307,-75.7"/>
<image xlink:href="../../images/foreignKeys.png" width="11px" height="12px" preserveAspectRatio="xMinYMin meet" x="312" y="-92.7"/>
<text text-anchor="start" x="336" y="-82.8" font-family="Helvetica,sans-Serif" font-size="11.00" fill="#000000">FEATURETYP</text>
<polygon fill="none" stroke="#000000" points="307,-56.7 307,-75.7 437,-75.7 437,-56.7 307,-56.7"/>
<text text-anchor="start" x="310" y="-62.8" font-family="Helvetica,sans-Serif" font-size="11.00" fill="#000000">...</text>
<polygon fill="#ffffff" stroke="transparent" points="307,-37.7 307,-56.7 339,-56.7 339,-37.7 307,-37.7"/>
<polygon fill="none" stroke="#000000" points="307,-37.7 307,-56.7 339,-56.7 339,-37.7 307,-37.7"/>
<text text-anchor="start" x="310" y="-43.8" font-family="Helvetica,sans-Serif" font-size="11.00" fill="#000000">&lt; 2</text>
<polygon fill="#ffffff" stroke="transparent" points="339,-37.7 339,-56.7 410,-56.7 410,-37.7 339,-37.7"/>
<polygon fill="none" stroke="#000000" points="339,-37.7 339,-56.7 410,-56.7 410,-37.7 339,-37.7"/>
<text text-anchor="start" x="347.094" y="-43.8" font-family="Helvetica,sans-Serif" font-size="11.00" fill="#000000">12.144 rows</text>
<polygon fill="#ffffff" stroke="transparent" points="410,-37.7 410,-56.7 437,-56.7 437,-37.7 410,-37.7"/>
<polygon fill="none" stroke="#000000" points="410,-37.7 410,-56.7 437,-56.7 437,-37.7 410,-37.7"/>
<text text-anchor="start" x="418.4053" y="-43.8" font-family="Helvetica,sans-Serif" font-size="11.00" fill="#000000">1 &gt;</text>
</a>
</g>
</g>
<!-- global_MetaSite&#45;&gt;cabah_datasourceID -->
<g id="edge6" class="edge">
<title>global_MetaSite:w&#45;&gt;cabah_datasourceID:e</title>
<path fill="none" stroke="#000000" d="M295.0667,-117.1701C251.4916,-187.8275 298.9563,-676.7 240,-676.7"/>
<polygon fill="#000000" stroke="#000000" points="300.4763,-113.3305 309.0837,-111.6357 303.7381,-111.0152 307,-108.7 307,-108.7 307,-108.7 303.7381,-111.0152 304.9163,-105.7643 300.4763,-113.3305 300.4763,-113.3305"/>
<ellipse fill="none" stroke="#000000" cx="297.8668" cy="-115.1827" rx="3.2" ry="3.2"/>
</g>
</g>
</svg>
