<?xml version="1.0" encoding="UTF-8" standalone="no"?>
<!DOCTYPE svg PUBLIC "-//W3C//DTD SVG 1.1//EN"
 "http://www.w3.org/Graphics/SVG/1.1/DTD/svg11.dtd">
<!-- Generated by graphviz version 2.40.1 (20161225.0304)
 -->
<!-- Title: twoDegreesRelationshipsDiagramImplied Pages: 1 -->
<svg width="869pt" height="535pt"
 viewBox="0.00 0.00 869.00 534.70" xmlns="http://www.w3.org/2000/svg" xmlns:xlink="http://www.w3.org/1999/xlink">
<g id="graph0" class="graph" transform="scale(1 1) rotate(0) translate(4 530.7)">
<title>twoDegreesRelationshipsDiagramImplied</title>
<polygon fill="#ffffff" stroke="transparent" points="-4,4 -4,-530.7 865,-530.7 865,4 -4,4"/>
<text text-anchor="middle" x="72.4936" y="-7.3" font-family="Helvetica,sans-Serif" font-size="11.00" fill="#000000">Generated by SchemaSpy</text>
<!-- char_Sample -->
<g id="node1" class="node">
<title>char_Sample</title>
<g id="a_node1"><a xlink:href="../../tables/char_Sample.html" xlink:title="char_Sample" target="_top">
<polygon fill="#ffffff" stroke="transparent" points="529.5,-254.2 529.5,-315.2 642.5,-315.2 642.5,-254.2 529.5,-254.2"/>
<polygon fill="#f5f5f5" stroke="transparent" points="530,-291.7 530,-314.7 643,-314.7 643,-291.7 530,-291.7"/>
<polygon fill="none" stroke="#000000" points="530,-291.7 530,-314.7 643,-314.7 643,-291.7 530,-291.7"/>
<text text-anchor="start" x="535" y="-300.3" font-family="Helvetica,sans-Serif" font-weight="bold" font-size="11.00" fill="#000000">char_Sample</text>
<text text-anchor="start" x="608.5219" y="-299.8" font-family="Helvetica,sans-Serif" font-size="11.00" fill="#000000">[table]</text>
<polygon fill="none" stroke="#000000" points="530,-272.7 530,-291.7 643,-291.7 643,-272.7 530,-272.7"/>
<text text-anchor="start" x="533" y="-278.8" font-family="Helvetica,sans-Serif" font-size="11.00" fill="#000000">...</text>
<polygon fill="#ffffff" stroke="transparent" points="530,-253.7 530,-272.7 554,-272.7 554,-253.7 530,-253.7"/>
<polygon fill="none" stroke="#000000" points="530,-253.7 530,-272.7 554,-272.7 554,-253.7 530,-253.7"/>
<text text-anchor="start" x="533" y="-259.8" font-family="Helvetica,sans-Serif" font-size="11.00" fill="#000000">&lt; 1</text>
<polygon fill="#ffffff" stroke="transparent" points="554,-253.7 554,-272.7 620,-272.7 620,-253.7 554,-253.7"/>
<polygon fill="none" stroke="#000000" points="554,-253.7 554,-272.7 620,-272.7 620,-253.7 554,-253.7"/>
<text text-anchor="start" x="557.094" y="-259.8" font-family="Helvetica,sans-Serif" font-size="11.00" fill="#000000">41.793 rows</text>
<polygon fill="#ffffff" stroke="transparent" points="620,-253.7 620,-272.7 643,-272.7 643,-253.7 620,-253.7"/>
<polygon fill="none" stroke="#000000" points="620,-253.7 620,-272.7 643,-272.7 643,-253.7 620,-253.7"/>
<text text-anchor="start" x="624.4053" y="-259.8" font-family="Helvetica,sans-Serif" font-size="11.00" fill="#000000">2 &gt;</text>
</a>
</g>
</g>
<!-- global_UnitMaster -->
<g id="node2" class="node">
<title>global_UnitMaster</title>
<g id="a_node2"><a xlink:href="../../tables/global_UnitMaster.html" xlink:title="global_UnitMaster" target="_top">
<polygon fill="#ffffff" stroke="transparent" points="274,-132.2 274,-369.2 417,-369.2 417,-132.2 274,-132.2"/>
<polygon fill="#f5f5f5" stroke="transparent" points="274.5,-345.7 274.5,-368.7 417.5,-368.7 417.5,-345.7 274.5,-345.7"/>
<polygon fill="none" stroke="#000000" points="274.5,-345.7 274.5,-368.7 417.5,-368.7 417.5,-345.7 274.5,-345.7"/>
<text text-anchor="start" x="279.5" y="-354.3" font-family="Helvetica,sans-Serif" font-weight="bold" font-size="11.00" fill="#000000">global_UnitMaster</text>
<text text-anchor="start" x="383.0219" y="-353.8" font-family="Helvetica,sans-Serif" font-size="11.00" fill="#000000">[table]</text>
<polygon fill="none" stroke="#000000" points="274.5,-323.7 274.5,-345.7 417.5,-345.7 417.5,-323.7 274.5,-323.7"/>
<image xlink:href="../../images/primaryKeys.png" width="11px" height="12px" preserveAspectRatio="xMinYMin meet" x="279.5" y="-340.7"/>
<text text-anchor="start" x="303.5" y="-330.8" font-family="Helvetica,sans-Serif" font-size="11.00" fill="#000000">UNITID</text>
<polygon fill="none" stroke="#000000" points="274.5,-301.7 274.5,-323.7 417.5,-323.7 417.5,-301.7 274.5,-301.7"/>
<image xlink:href="../../images/foreignKeys.png" width="11px" height="12px" preserveAspectRatio="xMinYMin meet" x="279.5" y="-318.7"/>
<text text-anchor="start" x="303.5" y="-308.8" font-family="Helvetica,sans-Serif" font-size="11.00" fill="#000000">SITEID</text>
<polygon fill="#ffffff" stroke="transparent" points="274.5,-279.7 274.5,-301.7 417.5,-301.7 417.5,-279.7 274.5,-279.7"/>
<polygon fill="none" stroke="#000000" points="274.5,-279.7 274.5,-301.7 417.5,-301.7 417.5,-279.7 274.5,-279.7"/>
<text text-anchor="start" x="303.5" y="-286.8" font-family="Helvetica,sans-Serif" font-size="11.00" fill="#000000">UNITHANDLE</text>
<polygon fill="none" stroke="#000000" points="274.5,-257.7 274.5,-279.7 417.5,-279.7 417.5,-257.7 274.5,-257.7"/>
<image xlink:href="../../images/foreignKeys.png" width="11px" height="12px" preserveAspectRatio="xMinYMin meet" x="279.5" y="-274.7"/>
<text text-anchor="start" x="303.5" y="-264.8" font-family="Helvetica,sans-Serif" font-size="11.00" fill="#000000">UNITTYPEID</text>
<polygon fill="none" stroke="#000000" points="274.5,-235.7 274.5,-257.7 417.5,-257.7 417.5,-235.7 274.5,-235.7"/>
<image xlink:href="../../images/foreignKeys.png" width="11px" height="12px" preserveAspectRatio="xMinYMin meet" x="279.5" y="-252.7"/>
<text text-anchor="start" x="303.5" y="-242.8" font-family="Helvetica,sans-Serif" font-size="11.00" fill="#000000">COLLECTID</text>
<polygon fill="none" stroke="#000000" points="274.5,-213.7 274.5,-235.7 417.5,-235.7 417.5,-213.7 274.5,-213.7"/>
<image xlink:href="../../images/foreignKeys.png" width="11px" height="12px" preserveAspectRatio="xMinYMin meet" x="279.5" y="-230.7"/>
<text text-anchor="start" x="303.5" y="-220.8" font-family="Helvetica,sans-Serif" font-size="11.00" fill="#000000">DEPOSITID</text>
<polygon fill="#ffffff" stroke="transparent" points="274.5,-191.7 274.5,-213.7 417.5,-213.7 417.5,-191.7 274.5,-191.7"/>
<polygon fill="none" stroke="#000000" points="274.5,-191.7 274.5,-213.7 417.5,-213.7 417.5,-191.7 274.5,-191.7"/>
<text text-anchor="start" x="303.5" y="-198.8" font-family="Helvetica,sans-Serif" font-size="11.00" fill="#000000">NEO_HANDLE</text>
<polygon fill="none" stroke="#000000" points="274.5,-169.7 274.5,-191.7 417.5,-191.7 417.5,-169.7 274.5,-169.7"/>
<image xlink:href="../../images/foreignKeys.png" width="11px" height="12px" preserveAspectRatio="xMinYMin meet" x="279.5" y="-186.7"/>
<text text-anchor="start" x="303.5" y="-176.8" font-family="Helvetica,sans-Serif" font-size="11.00" fill="#000000">UNIT_REF</text>
<polygon fill="none" stroke="#000000" points="274.5,-150.7 274.5,-169.7 417.5,-169.7 417.5,-150.7 274.5,-150.7"/>
<text text-anchor="start" x="277.5" y="-156.8" font-family="Helvetica,sans-Serif" font-size="11.00" fill="#000000">...</text>
<polygon fill="#ffffff" stroke="transparent" points="274.5,-131.7 274.5,-150.7 320.5,-150.7 320.5,-131.7 274.5,-131.7"/>
<polygon fill="none" stroke="#000000" points="274.5,-131.7 274.5,-150.7 320.5,-150.7 320.5,-131.7 274.5,-131.7"/>
<text text-anchor="start" x="277.5" y="-137.8" font-family="Helvetica,sans-Serif" font-size="11.00" fill="#000000">&lt; 5</text>
<polygon fill="#ffffff" stroke="transparent" points="320.5,-131.7 320.5,-150.7 383.5,-150.7 383.5,-131.7 320.5,-131.7"/>
<polygon fill="none" stroke="#000000" points="320.5,-131.7 320.5,-150.7 383.5,-150.7 383.5,-131.7 320.5,-131.7"/>
<text text-anchor="start" x="335.8807" y="-137.8" font-family="Helvetica,sans-Serif" font-size="11.00" fill="#000000">597 rows</text>
<polygon fill="#ffffff" stroke="transparent" points="383.5,-131.7 383.5,-150.7 417.5,-150.7 417.5,-131.7 383.5,-131.7"/>
<polygon fill="none" stroke="#000000" points="383.5,-131.7 383.5,-150.7 417.5,-150.7 417.5,-131.7 383.5,-131.7"/>
<text text-anchor="start" x="398.9053" y="-137.8" font-family="Helvetica,sans-Serif" font-size="11.00" fill="#000000">5 &gt;</text>
</a>
</g>
</g>
<!-- char_Sample&#45;&gt;global_UnitMaster -->
<g id="edge1" class="edge">
<title>char_Sample:w&#45;&gt;global_UnitMaster:e</title>
<path fill="none" stroke="#000000" d="M515.5026,-283.0634C473.866,-291.3591 467.4812,-334.7 417.5,-334.7"/>
<polygon fill="#000000" stroke="#000000" points="522.0351,-282.4491 530.3371,-285.2842 526.0176,-282.0745 530,-281.7 530,-281.7 530,-281.7 526.0176,-282.0745 529.6629,-278.1158 522.0351,-282.4491 522.0351,-282.4491"/>
<ellipse fill="none" stroke="#000000" cx="518.8492" cy="-282.7487" rx="3.2" ry="3.2"/>
</g>
<!-- cabah_col_mtdID -->
<g id="node4" class="node">
<title>cabah_col_mtdID</title>
<g id="a_node4"><a xlink:href="../../tables/cabah_col_mtdID.html" xlink:title="cabah_col_mtdID" target="_top">
<polygon fill="#ffffff" stroke="transparent" points="47.5,-284.2 47.5,-345.2 185.5,-345.2 185.5,-284.2 47.5,-284.2"/>
<polygon fill="#f5f5f5" stroke="transparent" points="47.5,-321.7 47.5,-344.7 185.5,-344.7 185.5,-321.7 47.5,-321.7"/>
<polygon fill="none" stroke="#000000" points="47.5,-321.7 47.5,-344.7 185.5,-344.7 185.5,-321.7 47.5,-321.7"/>
<text text-anchor="start" x="52.5" y="-330.3" font-family="Helvetica,sans-Serif" font-weight="bold" font-size="11.00" fill="#000000">cabah_col_mtdID</text>
<text text-anchor="start" x="151.0219" y="-329.8" font-family="Helvetica,sans-Serif" font-size="11.00" fill="#000000">[table]</text>
<polygon fill="none" stroke="#000000" points="47.5,-302.7 47.5,-321.7 185.5,-321.7 185.5,-302.7 47.5,-302.7"/>
<text text-anchor="start" x="50.5" y="-308.8" font-family="Helvetica,sans-Serif" font-size="11.00" fill="#000000">...</text>
<polygon fill="#ffffff" stroke="transparent" points="47.5,-283.7 47.5,-302.7 94.5,-302.7 94.5,-283.7 47.5,-283.7"/>
<polygon fill="none" stroke="#000000" points="47.5,-283.7 47.5,-302.7 94.5,-302.7 94.5,-283.7 47.5,-283.7"/>
<text text-anchor="start" x="50.5" y="-289.8" font-family="Helvetica,sans-Serif" font-size="11.00" fill="#000000">&lt; 1</text>
<polygon fill="#ffffff" stroke="transparent" points="94.5,-283.7 94.5,-302.7 151.5,-302.7 151.5,-283.7 94.5,-283.7"/>
<polygon fill="none" stroke="#000000" points="94.5,-283.7 94.5,-302.7 151.5,-302.7 151.5,-283.7 94.5,-283.7"/>
<text text-anchor="start" x="109.9956" y="-289.8" font-family="Helvetica,sans-Serif" font-size="11.00" fill="#000000">44 rows</text>
<polygon fill="#ffffff" stroke="transparent" points="151.5,-283.7 151.5,-302.7 185.5,-302.7 185.5,-283.7 151.5,-283.7"/>
<polygon fill="none" stroke="#000000" points="151.5,-283.7 151.5,-302.7 185.5,-302.7 185.5,-283.7 151.5,-283.7"/>
<text text-anchor="start" x="166.9053" y="-289.8" font-family="Helvetica,sans-Serif" font-size="11.00" fill="#000000">7 &gt;</text>
</a>
</g>
</g>
<!-- global_UnitMaster&#45;&gt;cabah_col_mtdID -->
<g id="edge3" class="edge">
<title>global_UnitMaster:w&#45;&gt;cabah_col_mtdID:e</title>
<path fill="none" stroke="#000000" d="M259.9162,-249.0134C226.8055,-260.5924 228.933,-311.7 185.5,-311.7"/>
<polygon fill="#000000" stroke="#000000" points="266.5988,-247.9534 275.064,-250.2555 270.5494,-247.3267 274.5,-246.7 274.5,-246.7 274.5,-246.7 270.5494,-247.3267 273.936,-243.1445 266.5988,-247.9534 266.5988,-247.9534"/>
<ellipse fill="none" stroke="#000000" cx="263.4383" cy="-248.4547" rx="3.2" ry="3.2"/>
</g>
<!-- cabah_depositID -->
<g id="node5" class="node">
<title>cabah_depositID</title>
<g id="a_node5"><a xlink:href="../../tables/cabah_depositID.html" xlink:title="cabah_depositID" target="_top">
<polygon fill="#ffffff" stroke="transparent" points="49,-202.2 49,-263.2 184,-263.2 184,-202.2 49,-202.2"/>
<polygon fill="#f5f5f5" stroke="transparent" points="49.5,-239.7 49.5,-262.7 184.5,-262.7 184.5,-239.7 49.5,-239.7"/>
<polygon fill="none" stroke="#000000" points="49.5,-239.7 49.5,-262.7 184.5,-262.7 184.5,-239.7 49.5,-239.7"/>
<text text-anchor="start" x="54.5" y="-248.3" font-family="Helvetica,sans-Serif" font-weight="bold" font-size="11.00" fill="#000000">cabah_depositID</text>
<text text-anchor="start" x="150.0219" y="-247.8" font-family="Helvetica,sans-Serif" font-size="11.00" fill="#000000">[table]</text>
<polygon fill="none" stroke="#000000" points="49.5,-220.7 49.5,-239.7 184.5,-239.7 184.5,-220.7 49.5,-220.7"/>
<text text-anchor="start" x="52.5" y="-226.8" font-family="Helvetica,sans-Serif" font-size="11.00" fill="#000000">...</text>
<polygon fill="#ffffff" stroke="transparent" points="49.5,-201.7 49.5,-220.7 91.5,-220.7 91.5,-201.7 49.5,-201.7"/>
<polygon fill="none" stroke="#000000" points="49.5,-201.7 49.5,-220.7 91.5,-220.7 91.5,-201.7 49.5,-201.7"/>
<text text-anchor="start" x="52.5" y="-207.8" font-family="Helvetica,sans-Serif" font-size="11.00" fill="#000000">&lt; 1</text>
<polygon fill="#ffffff" stroke="transparent" points="91.5,-201.7 91.5,-220.7 152.5,-220.7 152.5,-201.7 91.5,-201.7"/>
<polygon fill="none" stroke="#000000" points="91.5,-201.7 91.5,-220.7 152.5,-220.7 152.5,-201.7 91.5,-201.7"/>
<text text-anchor="start" x="104.8807" y="-207.8" font-family="Helvetica,sans-Serif" font-size="11.00" fill="#000000">117 rows</text>
<polygon fill="#ffffff" stroke="transparent" points="152.5,-201.7 152.5,-220.7 184.5,-220.7 184.5,-201.7 152.5,-201.7"/>
<polygon fill="none" stroke="#000000" points="152.5,-201.7 152.5,-220.7 184.5,-220.7 184.5,-201.7 152.5,-201.7"/>
<text text-anchor="start" x="165.9053" y="-207.8" font-family="Helvetica,sans-Serif" font-size="11.00" fill="#000000">2 &gt;</text>
</a>
</g>
</g>
<!-- global_UnitMaster&#45;&gt;cabah_depositID -->
<g id="edge4" class="edge">
<title>global_UnitMaster:w&#45;&gt;cabah_depositID:e</title>
<path fill="none" stroke="#000000" d="M259.9938,-224.9412C231.2824,-225.9399 219.241,-229.7 184.5,-229.7"/>
<polygon fill="#000000" stroke="#000000" points="266.5011,-224.833 274.5599,-228.2995 270.5006,-224.7665 274.5,-224.7 274.5,-224.7 274.5,-224.7 270.5006,-224.7665 274.4401,-221.1005 266.5011,-224.833 266.5011,-224.833"/>
<ellipse fill="none" stroke="#000000" cx="263.3015" cy="-224.8862" rx="3.2" ry="3.2"/>
</g>
<!-- global_SiteMaster -->
<g id="node6" class="node">
<title>global_SiteMaster</title>
<g id="a_node6"><a xlink:href="../../tables/global_SiteMaster.html" xlink:title="global_SiteMaster" target="_top">
<polygon fill="#ffffff" stroke="transparent" points="46,-38.2 46,-99.2 187,-99.2 187,-38.2 46,-38.2"/>
<polygon fill="#f5f5f5" stroke="transparent" points="46.5,-75.7 46.5,-98.7 187.5,-98.7 187.5,-75.7 46.5,-75.7"/>
<polygon fill="none" stroke="#000000" points="46.5,-75.7 46.5,-98.7 187.5,-98.7 187.5,-75.7 46.5,-75.7"/>
<text text-anchor="start" x="51.5" y="-84.3" font-family="Helvetica,sans-Serif" font-weight="bold" font-size="11.00" fill="#000000">global_SiteMaster</text>
<text text-anchor="start" x="153.0219" y="-83.8" font-family="Helvetica,sans-Serif" font-size="11.00" fill="#000000">[table]</text>
<polygon fill="none" stroke="#000000" points="46.5,-56.7 46.5,-75.7 187.5,-75.7 187.5,-56.7 46.5,-56.7"/>
<text text-anchor="start" x="49.5" y="-62.8" font-family="Helvetica,sans-Serif" font-size="11.00" fill="#000000">...</text>
<polygon fill="#ffffff" stroke="transparent" points="46.5,-37.7 46.5,-56.7 81.5,-56.7 81.5,-37.7 46.5,-37.7"/>
<polygon fill="none" stroke="#000000" points="46.5,-37.7 46.5,-56.7 81.5,-56.7 81.5,-37.7 46.5,-37.7"/>
<text text-anchor="start" x="49.5" y="-43.8" font-family="Helvetica,sans-Serif" font-size="11.00" fill="#000000">&lt; 8</text>
<polygon fill="#ffffff" stroke="transparent" points="81.5,-37.7 81.5,-56.7 153.5,-56.7 153.5,-37.7 81.5,-37.7"/>
<polygon fill="none" stroke="#000000" points="81.5,-37.7 81.5,-56.7 153.5,-56.7 153.5,-37.7 81.5,-37.7"/>
<text text-anchor="start" x="90.594" y="-43.8" font-family="Helvetica,sans-Serif" font-size="11.00" fill="#000000">23.782 rows</text>
<polygon fill="#ffffff" stroke="transparent" points="153.5,-37.7 153.5,-56.7 187.5,-56.7 187.5,-37.7 153.5,-37.7"/>
<polygon fill="none" stroke="#000000" points="153.5,-37.7 153.5,-56.7 187.5,-56.7 187.5,-37.7 153.5,-37.7"/>
<text text-anchor="start" x="162.7904" y="-43.8" font-family="Helvetica,sans-Serif" font-size="11.00" fill="#000000">23 &gt;</text>
</a>
</g>
</g>
<!-- global_UnitMaster&#45;&gt;global_SiteMaster -->
<g id="edge5" class="edge">
<title>global_UnitMaster:w&#45;&gt;global_SiteMaster:e</title>
<path fill="none" stroke="#000000" d="M261.1137,-306.4582C234.0419,-276.2616 252.5558,-145.3351 233,-109.7 219.4662,-85.0384 215.6311,-65.7 187.5,-65.7"/>
<polygon fill="#000000" stroke="#000000" points="267.2495,-309.3191 272.9786,-315.9627 270.8747,-311.0096 274.5,-312.7 274.5,-312.7 274.5,-312.7 270.8747,-311.0096 276.0214,-309.4373 267.2495,-309.3191 267.2495,-309.3191"/>
<ellipse fill="none" stroke="#000000" cx="264.3493" cy="-307.9668" rx="3.2" ry="3.2"/>
</g>
<!-- global_RefCore -->
<g id="node7" class="node">
<title>global_RefCore</title>
<g id="a_node7"><a xlink:href="../../tables/global_RefCore.html" xlink:title="global_RefCore" target="_top">
<polygon fill="#ffffff" stroke="transparent" points="53,-120.2 53,-181.2 180,-181.2 180,-120.2 53,-120.2"/>
<polygon fill="#f5f5f5" stroke="transparent" points="53.5,-157.7 53.5,-180.7 180.5,-180.7 180.5,-157.7 53.5,-157.7"/>
<polygon fill="none" stroke="#000000" points="53.5,-157.7 53.5,-180.7 180.5,-180.7 180.5,-157.7 53.5,-157.7"/>
<text text-anchor="start" x="58.5" y="-166.3" font-family="Helvetica,sans-Serif" font-weight="bold" font-size="11.00" fill="#000000">global_RefCore</text>
<text text-anchor="start" x="146.0219" y="-165.8" font-family="Helvetica,sans-Serif" font-size="11.00" fill="#000000">[table]</text>
<polygon fill="none" stroke="#000000" points="53.5,-138.7 53.5,-157.7 180.5,-157.7 180.5,-138.7 53.5,-138.7"/>
<text text-anchor="start" x="56.5" y="-144.8" font-family="Helvetica,sans-Serif" font-size="11.00" fill="#000000">...</text>
<polygon fill="#ffffff" stroke="transparent" points="53.5,-119.7 53.5,-138.7 84.5,-138.7 84.5,-119.7 53.5,-119.7"/>
<polygon fill="none" stroke="#000000" points="53.5,-119.7 53.5,-138.7 84.5,-138.7 84.5,-119.7 53.5,-119.7"/>
<text text-anchor="start" x="56.5" y="-125.8" font-family="Helvetica,sans-Serif" font-size="11.00" fill="#000000">&lt; 5</text>
<polygon fill="#ffffff" stroke="transparent" points="84.5,-119.7 84.5,-138.7 148.5,-138.7 148.5,-119.7 84.5,-119.7"/>
<polygon fill="none" stroke="#000000" points="84.5,-119.7 84.5,-138.7 148.5,-138.7 148.5,-119.7 84.5,-119.7"/>
<text text-anchor="start" x="91.7089" y="-125.8" font-family="Helvetica,sans-Serif" font-size="11.00" fill="#000000">3.943 rows</text>
<polygon fill="#ffffff" stroke="transparent" points="148.5,-119.7 148.5,-138.7 180.5,-138.7 180.5,-119.7 148.5,-119.7"/>
<polygon fill="none" stroke="#000000" points="148.5,-119.7 148.5,-138.7 180.5,-138.7 180.5,-119.7 148.5,-119.7"/>
<text text-anchor="start" x="155.7904" y="-125.8" font-family="Helvetica,sans-Serif" font-size="11.00" fill="#000000">36 &gt;</text>
</a>
</g>
</g>
<!-- global_UnitMaster&#45;&gt;global_RefCore -->
<g id="edge6" class="edge">
<title>global_UnitMaster:w&#45;&gt;global_RefCore:e</title>
<path fill="none" stroke="#000000" d="M259.9852,-179.3655C228.3344,-173.1917 219.4157,-147.7 180.5,-147.7"/>
<polygon fill="#000000" stroke="#000000" points="266.5336,-179.9675 274.1704,-184.2849 270.5168,-180.3338 274.5,-180.7 274.5,-180.7 274.5,-180.7 270.5168,-180.3338 274.8296,-177.1151 266.5336,-179.9675 266.5336,-179.9675"/>
<ellipse fill="none" stroke="#000000" cx="263.347" cy="-179.6745" rx="3.2" ry="3.2"/>
</g>
<!-- cabah_unittypeID -->
<g id="node8" class="node">
<title>cabah_unittypeID</title>
<g id="a_node8"><a xlink:href="../../tables/cabah_unittypeID.html" xlink:title="cabah_unittypeID" target="_top">
<polygon fill="#ffffff" stroke="transparent" points="8,-366.7 8,-522.7 225,-522.7 225,-366.7 8,-366.7"/>
<polygon fill="#f5f5f5" stroke="transparent" points="10.5,-497.7 10.5,-520.7 223.5,-520.7 223.5,-497.7 10.5,-497.7"/>
<polygon fill="none" stroke="#000000" points="10.5,-497.7 10.5,-520.7 223.5,-520.7 223.5,-497.7 10.5,-497.7"/>
<text text-anchor="start" x="15.5" y="-506.3" font-family="Helvetica,sans-Serif" font-weight="bold" font-size="11.00" fill="#000000">cabah_unittypeID</text>
<text text-anchor="start" x="188.5437" y="-505.8" font-family="Helvetica,sans-Serif" font-size="11.00" fill="#000000">[table]</text>
<polygon fill="none" stroke="#000000" points="10.5,-475.7 10.5,-497.7 131.5,-497.7 131.5,-475.7 10.5,-475.7"/>
<image xlink:href="../../images/primaryKeys.png" width="11px" height="12px" preserveAspectRatio="xMinYMin meet" x="15.5" y="-492.7"/>
<text text-anchor="start" x="30.5" y="-482.8" font-family="Helvetica,sans-Serif" font-size="11.00" fill="#000000">UNITTYPEID</text>
<polygon fill="none" stroke="#000000" points="131.5,-475.7 131.5,-497.7 223.5,-497.7 223.5,-475.7 131.5,-475.7"/>
<text text-anchor="start" x="134.5" y="-483.4" font-family="Helvetica,sans-Serif" font-size="11.00" fill="#000000">serial[10]</text>
<polygon fill="#ffffff" stroke="transparent" points="10.5,-453.7 10.5,-475.7 131.5,-475.7 131.5,-453.7 10.5,-453.7"/>
<polygon fill="none" stroke="#000000" points="10.5,-453.7 10.5,-475.7 131.5,-475.7 131.5,-453.7 10.5,-453.7"/>
<text text-anchor="start" x="30.5" y="-460.8" font-family="Helvetica,sans-Serif" font-size="11.00" fill="#000000">UNITTYPE</text>
<polygon fill="none" stroke="#000000" points="131.5,-453.7 131.5,-475.7 223.5,-475.7 223.5,-453.7 131.5,-453.7"/>
<text text-anchor="start" x="134.5" y="-461.4" font-family="Helvetica,sans-Serif" font-size="11.00" fill="#000000">text[2147483647]</text>
<polygon fill="none" stroke="#000000" points="10.5,-431.7 10.5,-453.7 131.5,-453.7 131.5,-431.7 10.5,-431.7"/>
<text text-anchor="start" x="30.5" y="-438.8" font-family="Helvetica,sans-Serif" font-size="11.00" fill="#000000">UNITTDESCR</text>
<polygon fill="none" stroke="#000000" points="131.5,-431.7 131.5,-453.7 223.5,-453.7 223.5,-431.7 131.5,-431.7"/>
<text text-anchor="start" x="134.5" y="-439.4" font-family="Helvetica,sans-Serif" font-size="11.00" fill="#000000">text[2147483647]</text>
<polygon fill="none" stroke="#000000" points="10.5,-409.7 10.5,-431.7 131.5,-431.7 131.5,-409.7 10.5,-409.7"/>
<text text-anchor="start" x="30.5" y="-416.8" font-family="Helvetica,sans-Serif" font-size="11.00" fill="#000000">CREATED_AT</text>
<polygon fill="none" stroke="#000000" points="131.5,-409.7 131.5,-431.7 223.5,-431.7 223.5,-409.7 131.5,-409.7"/>
<text text-anchor="start" x="134.1023" y="-417.4" font-family="Helvetica,sans-Serif" font-size="11.00" fill="#000000">timestamptz[35,6]</text>
<polygon fill="none" stroke="#000000" points="10.5,-387.7 10.5,-409.7 131.5,-409.7 131.5,-387.7 10.5,-387.7"/>
<text text-anchor="start" x="30.5" y="-394.8" font-family="Helvetica,sans-Serif" font-size="11.00" fill="#000000">UPDATED_AT</text>
<polygon fill="none" stroke="#000000" points="131.5,-387.7 131.5,-409.7 223.5,-409.7 223.5,-387.7 131.5,-387.7"/>
<text text-anchor="start" x="134.1023" y="-395.4" font-family="Helvetica,sans-Serif" font-size="11.00" fill="#000000">timestamptz[35,6]</text>
<polygon fill="#ffffff" stroke="transparent" points="10.5,-368.7 10.5,-387.7 59.5,-387.7 59.5,-368.7 10.5,-368.7"/>
<polygon fill="none" stroke="#000000" points="10.5,-368.7 10.5,-387.7 59.5,-387.7 59.5,-368.7 10.5,-368.7"/>
<text text-anchor="start" x="13.5" y="-374.8" font-family="Helvetica,sans-Serif" font-size="11.00" fill="#000000">&lt; 0</text>
<polygon fill="#ffffff" stroke="transparent" points="59.5,-368.7 59.5,-387.7 131.5,-387.7 131.5,-368.7 59.5,-368.7"/>
<polygon fill="none" stroke="#000000" points="59.5,-368.7 59.5,-387.7 131.5,-387.7 131.5,-368.7 59.5,-368.7"/>
<text text-anchor="start" x="89.9956" y="-374.8" font-family="Helvetica,sans-Serif" font-size="11.00" fill="#000000">16 rows</text>
<polygon fill="#ffffff" stroke="transparent" points="131.5,-368.7 131.5,-387.7 223.5,-387.7 223.5,-368.7 131.5,-368.7"/>
<polygon fill="none" stroke="#000000" points="131.5,-368.7 131.5,-387.7 223.5,-387.7 223.5,-368.7 131.5,-368.7"/>
<text text-anchor="start" x="204.9053" y="-374.8" font-family="Helvetica,sans-Serif" font-size="11.00" fill="#000000">1 &gt;</text>
<polygon fill="none" stroke="#000000" stroke-width="2" points="9,-367.7 9,-521.7 224,-521.7 224,-367.7 9,-367.7"/>
</a>
</g>
</g>
<!-- global_UnitMaster&#45;&gt;cabah_unittypeID -->
<g id="edge7" class="edge">
<title>global_UnitMaster:w&#45;&gt;cabah_unittypeID:e</title>
<path fill="none" stroke="#000000" d="M259.8842,-270.7189C190.9677,-292.6959 317.3689,-486.7 223.5,-486.7"/>
<polygon fill="#000000" stroke="#000000" points="266.5752,-269.7947 274.9926,-272.2661 270.5376,-269.2474 274.5,-268.7 274.5,-268.7 274.5,-268.7 270.5376,-269.2474 274.0074,-265.1339 266.5752,-269.7947 266.5752,-269.7947"/>
<ellipse fill="none" stroke="#000000" cx="263.4053" cy="-270.2326" rx="3.2" ry="3.2"/>
</g>
<!-- global_DataSetID -->
<g id="node3" class="node">
<title>global_DataSetID</title>
<g id="a_node3"><a xlink:href="../../tables/global_DataSetID.html" xlink:title="global_DataSetID" target="_top">
<polygon fill="#ffffff" stroke="transparent" points="517.5,-172.2 517.5,-233.2 654.5,-233.2 654.5,-172.2 517.5,-172.2"/>
<polygon fill="#f5f5f5" stroke="transparent" points="518,-209.7 518,-232.7 655,-232.7 655,-209.7 518,-209.7"/>
<polygon fill="none" stroke="#000000" points="518,-209.7 518,-232.7 655,-232.7 655,-209.7 518,-209.7"/>
<text text-anchor="start" x="523" y="-218.3" font-family="Helvetica,sans-Serif" font-weight="bold" font-size="11.00" fill="#000000">global_DataSetID</text>
<text text-anchor="start" x="620.5219" y="-217.8" font-family="Helvetica,sans-Serif" font-size="11.00" fill="#000000">[table]</text>
<polygon fill="none" stroke="#000000" points="518,-190.7 518,-209.7 655,-209.7 655,-190.7 518,-190.7"/>
<text text-anchor="start" x="521" y="-196.8" font-family="Helvetica,sans-Serif" font-size="11.00" fill="#000000">...</text>
<polygon fill="#ffffff" stroke="transparent" points="518,-171.7 518,-190.7 566,-190.7 566,-171.7 518,-171.7"/>
<polygon fill="none" stroke="#000000" points="518,-171.7 518,-190.7 566,-190.7 566,-171.7 518,-171.7"/>
<text text-anchor="start" x="521" y="-177.8" font-family="Helvetica,sans-Serif" font-size="11.00" fill="#000000">&lt; 3</text>
<polygon fill="#ffffff" stroke="transparent" points="566,-171.7 566,-190.7 629,-190.7 629,-171.7 566,-171.7"/>
<polygon fill="none" stroke="#000000" points="566,-171.7 566,-190.7 629,-190.7 629,-171.7 566,-171.7"/>
<text text-anchor="start" x="581.3807" y="-177.8" font-family="Helvetica,sans-Serif" font-size="11.00" fill="#000000">154 rows</text>
<polygon fill="#ffffff" stroke="transparent" points="629,-171.7 629,-190.7 655,-190.7 655,-171.7 629,-171.7"/>
<polygon fill="none" stroke="#000000" points="629,-171.7 629,-190.7 655,-190.7 655,-171.7 629,-171.7"/>
<text text-anchor="start" x="645.8862" y="-177.8" font-family="Helvetica,sans-Serif" font-size="11.00" fill="#000000"> &#160;</text>
</a>
</g>
</g>
<!-- global_DataSetID&#45;&gt;global_UnitMaster -->
<g id="edge2" class="edge">
<title>global_DataSetID:w&#45;&gt;global_UnitMaster:e</title>
<path fill="none" stroke="#000000" d="M503.416,-201.194C482.4443,-206.0434 475.2662,-222.278 458,-243.7 430.2193,-278.1672 461.7691,-334.7 417.5,-334.7"/>
<polygon fill="#000000" stroke="#000000" points="510.0416,-200.5153 518.3669,-203.2813 514.0208,-200.1076 518,-199.7 518,-199.7 518,-199.7 514.0208,-200.1076 517.6331,-196.1187 510.0416,-200.5153 510.0416,-200.5153"/>
<ellipse fill="none" stroke="#000000" cx="506.8583" cy="-200.8414" rx="3.2" ry="3.2"/>
</g>
<!-- sahulchar -->
<g id="node9" class="node">
<title>sahulchar</title>
<g id="a_node9"><a xlink:href="../../tables/sahulchar.html" xlink:title="sahulchar" target="_top">
<polygon fill="#ffffff" stroke="transparent" points="755,-254.2 755,-315.2 853,-315.2 853,-254.2 755,-254.2"/>
<polygon fill="#f5f5f5" stroke="transparent" points="755,-291.7 755,-314.7 853,-314.7 853,-291.7 755,-291.7"/>
<polygon fill="none" stroke="#000000" points="755,-291.7 755,-314.7 853,-314.7 853,-291.7 755,-291.7"/>
<text text-anchor="start" x="760" y="-300.3" font-family="Helvetica,sans-Serif" font-weight="bold" font-size="11.00" fill="#000000">sahulchar</text>
<text text-anchor="start" x="818.0437" y="-299.8" font-family="Helvetica,sans-Serif" font-size="11.00" fill="#000000">[table]</text>
<polygon fill="none" stroke="#000000" points="755,-272.7 755,-291.7 853,-291.7 853,-272.7 755,-272.7"/>
<text text-anchor="start" x="758" y="-278.8" font-family="Helvetica,sans-Serif" font-size="11.00" fill="#000000">...</text>
<polygon fill="#ffffff" stroke="transparent" points="755,-253.7 755,-272.7 776,-272.7 776,-253.7 755,-253.7"/>
<polygon fill="none" stroke="#000000" points="755,-253.7 755,-272.7 776,-272.7 776,-253.7 755,-253.7"/>
<text text-anchor="start" x="757.7026" y="-259.8" font-family="Helvetica,sans-Serif" font-size="11.00" fill="#000000">&lt; 6</text>
<polygon fill="#ffffff" stroke="transparent" points="776,-253.7 776,-272.7 841,-272.7 841,-253.7 776,-253.7"/>
<polygon fill="none" stroke="#000000" points="776,-253.7 776,-272.7 841,-272.7 841,-253.7 776,-253.7"/>
<text text-anchor="start" x="778.547" y="-259.8" font-family="Helvetica,sans-Serif" font-size="11.00" fill="#000000">48.234 rows</text>
<polygon fill="#ffffff" stroke="transparent" points="841,-253.7 841,-272.7 853,-272.7 853,-253.7 841,-253.7"/>
<polygon fill="none" stroke="#000000" points="841,-253.7 841,-272.7 853,-272.7 853,-253.7 841,-253.7"/>
<text text-anchor="start" x="843.9431" y="-259.8" font-family="Helvetica,sans-Serif" font-size="11.00" fill="#000000"> &#160;</text>
</a>
</g>
</g>
<!-- sahulchar&#45;&gt;char_Sample -->
<g id="edge9" class="edge">
<title>sahulchar:w&#45;&gt;char_Sample:e</title>
<path fill="none" stroke="#000000" stroke-dasharray="5,2" d="M740.4083,-281.7C702.1819,-281.7 687.5278,-281.7 643,-281.7"/>
<polygon fill="#000000" stroke="#000000" points="747,-281.7001 755,-285.3 751,-281.7 755,-281.7 755,-281.7 755,-281.7 751,-281.7 755,-278.1 747,-281.7001 747,-281.7001"/>
<ellipse fill="none" stroke="#000000" cx="743.8" cy="-281.7001" rx="3.2" ry="3.2"/>
</g>
<!-- sahulchar&#45;&gt;global_UnitMaster -->
<g id="edge10" class="edge">
<title>sahulchar:w&#45;&gt;global_UnitMaster:e</title>
<path fill="none" stroke="#000000" stroke-dasharray="5,2" d="M740.6585,-284.373C708.2553,-299.6789 756.8111,-376.61 714,-407.7 621.9374,-474.557 556.045,-465.4284 458,-407.7 426.0274,-388.8747 454.6031,-334.7 417.5,-334.7"/>
<polygon fill="#000000" stroke="#000000" points="747.1354,-283.1658 755.6596,-285.2391 751.0677,-282.4329 755,-281.7 755,-281.7 755,-281.7 751.0677,-282.4329 754.3404,-278.1609 747.1354,-283.1658 747.1354,-283.1658"/>
<ellipse fill="none" stroke="#000000" cx="743.9896" cy="-283.7522" rx="3.2" ry="3.2"/>
</g>
<!-- sahulchar&#45;&gt;global_SiteMaster -->
<g id="edge8" class="edge">
<title>sahulchar:w&#45;&gt;global_SiteMaster:e</title>
<path fill="none" stroke="#000000" stroke-dasharray="5,2" d="M740.6062,-280.1768C677.3149,-264.6819 779.9032,-135.048 714,-79.7 624.3738,-4.4284 304.5414,-65.7 187.5,-65.7"/>
<polygon fill="#000000" stroke="#000000" points="747.0444,-280.8581 754.6211,-285.28 751.0222,-281.279 755,-281.7 755,-281.7 755,-281.7 751.0222,-281.279 755.3789,-278.12 747.0444,-280.8581 747.0444,-280.8581"/>
<ellipse fill="none" stroke="#000000" cx="743.8622" cy="-280.5213" rx="3.2" ry="3.2"/>
</g>
<!-- sahulchar_units -->
<g id="node10" class="node">
<title>sahulchar_units</title>
<g id="a_node10"><a xlink:href="../../tables/sahulchar_units.html" xlink:title="sahulchar_units" target="_top">
<polygon fill="#ffffff" stroke="transparent" points="520.5,-90.2 520.5,-151.2 651.5,-151.2 651.5,-90.2 520.5,-90.2"/>
<polygon fill="#f5f5f5" stroke="transparent" points="521,-127.7 521,-150.7 652,-150.7 652,-127.7 521,-127.7"/>
<polygon fill="none" stroke="#000000" points="521,-127.7 521,-150.7 652,-150.7 652,-127.7 521,-127.7"/>
<text text-anchor="start" x="526" y="-136.3" font-family="Helvetica,sans-Serif" font-weight="bold" font-size="11.00" fill="#000000">sahulchar_units</text>
<text text-anchor="start" x="617.5219" y="-135.8" font-family="Helvetica,sans-Serif" font-size="11.00" fill="#000000">[table]</text>
<polygon fill="none" stroke="#000000" points="521,-108.7 521,-127.7 652,-127.7 652,-108.7 521,-108.7"/>
<text text-anchor="start" x="524" y="-114.8" font-family="Helvetica,sans-Serif" font-size="11.00" fill="#000000">...</text>
<polygon fill="#ffffff" stroke="transparent" points="521,-89.7 521,-108.7 566,-108.7 566,-89.7 521,-89.7"/>
<polygon fill="none" stroke="#000000" points="521,-89.7 521,-108.7 566,-108.7 566,-89.7 521,-89.7"/>
<text text-anchor="start" x="524" y="-95.8" font-family="Helvetica,sans-Serif" font-size="11.00" fill="#000000">&lt; 4</text>
<polygon fill="#ffffff" stroke="transparent" points="566,-89.7 566,-108.7 628,-108.7 628,-89.7 566,-89.7"/>
<polygon fill="none" stroke="#000000" points="566,-89.7 566,-108.7 628,-108.7 628,-89.7 566,-89.7"/>
<text text-anchor="start" x="580.3807" y="-95.8" font-family="Helvetica,sans-Serif" font-size="11.00" fill="#000000">535 rows</text>
<polygon fill="#ffffff" stroke="transparent" points="628,-89.7 628,-108.7 652,-108.7 652,-89.7 628,-89.7"/>
<polygon fill="none" stroke="#000000" points="628,-89.7 628,-108.7 652,-108.7 652,-89.7 628,-89.7"/>
<text text-anchor="start" x="642.8862" y="-95.8" font-family="Helvetica,sans-Serif" font-size="11.00" fill="#000000"> &#160;</text>
</a>
</g>
</g>
<!-- sahulchar_units&#45;&gt;global_UnitMaster -->
<g id="edge12" class="edge">
<title>sahulchar_units:w&#45;&gt;global_UnitMaster:e</title>
<path fill="none" stroke="#000000" stroke-dasharray="5,2" d="M506.3337,-118.8971C483.5008,-123.0593 474.0902,-137.955 458,-161.7 413.702,-227.0727 496.4677,-334.7 417.5,-334.7"/>
<polygon fill="#000000" stroke="#000000" points="513.0265,-118.3509 521.2929,-121.2881 517.0133,-118.0254 521,-117.7 521,-117.7 521,-117.7 517.0133,-118.0254 520.7071,-114.1119 513.0265,-118.3509 513.0265,-118.3509"/>
<ellipse fill="none" stroke="#000000" cx="509.8371" cy="-118.6112" rx="3.2" ry="3.2"/>
</g>
<!-- sahulchar_units&#45;&gt;global_SiteMaster -->
<g id="edge11" class="edge">
<title>sahulchar_units:w&#45;&gt;global_SiteMaster:e</title>
<path fill="none" stroke="#000000" stroke-dasharray="5,2" d="M506.2902,-116.5655C439.7655,-108.9611 221.7071,-65.7 187.5,-65.7"/>
<polygon fill="#000000" stroke="#000000" points="513.0237,-117.0848 520.7232,-121.2893 517.0118,-117.3924 521,-117.7 521,-117.7 521,-117.7 517.0118,-117.3924 521.2768,-114.1107 513.0237,-117.0848 513.0237,-117.0848"/>
<ellipse fill="none" stroke="#000000" cx="509.8332" cy="-116.8387" rx="3.2" ry="3.2"/>
</g>
<!-- sahulchar_units_points_EPSG3857 -->
<g id="node11" class="node">
<title>sahulchar_units_points_EPSG3857</title>
<g id="a_node11"><a xlink:href="../../tables/sahulchar_units_points_EPSG3857.html" xlink:title="sahulchar_units_points_EPSG3857" target="_top">
<polygon fill="#ffffff" stroke="transparent" points="466,-336.2 466,-397.2 706,-397.2 706,-336.2 466,-336.2"/>
<polygon fill="#f5f5f5" stroke="transparent" points="466,-373.7 466,-396.7 706,-396.7 706,-373.7 466,-373.7"/>
<polygon fill="none" stroke="#000000" points="466,-373.7 466,-396.7 706,-396.7 706,-373.7 466,-373.7"/>
<text text-anchor="start" x="471" y="-382.3" font-family="Helvetica,sans-Serif" font-weight="bold" font-size="11.00" fill="#000000">sahulchar_units_points_EPSG3857</text>
<text text-anchor="start" x="671.5219" y="-381.8" font-family="Helvetica,sans-Serif" font-size="11.00" fill="#000000">[table]</text>
<polygon fill="none" stroke="#000000" points="466,-354.7 466,-373.7 706,-373.7 706,-354.7 466,-354.7"/>
<text text-anchor="start" x="469" y="-360.8" font-family="Helvetica,sans-Serif" font-size="11.00" fill="#000000">...</text>
<polygon fill="#ffffff" stroke="transparent" points="466,-335.7 466,-354.7 565,-354.7 565,-335.7 466,-335.7"/>
<polygon fill="none" stroke="#000000" points="466,-335.7 466,-354.7 565,-354.7 565,-335.7 466,-335.7"/>
<text text-anchor="start" x="469" y="-341.8" font-family="Helvetica,sans-Serif" font-size="11.00" fill="#000000">&lt; 1</text>
<polygon fill="#ffffff" stroke="transparent" points="565,-335.7 565,-354.7 654,-354.7 654,-335.7 565,-335.7"/>
<polygon fill="none" stroke="#000000" points="565,-335.7 565,-354.7 654,-354.7 654,-335.7 565,-335.7"/>
<text text-anchor="start" x="606.3807" y="-341.8" font-family="Helvetica,sans-Serif" font-size="11.00" fill="#000000">531 rows</text>
<polygon fill="#ffffff" stroke="transparent" points="654,-335.7 654,-354.7 706,-354.7 706,-335.7 654,-335.7"/>
<polygon fill="none" stroke="#000000" points="654,-335.7 654,-354.7 706,-354.7 706,-335.7 654,-335.7"/>
<text text-anchor="start" x="696.8862" y="-341.8" font-family="Helvetica,sans-Serif" font-size="11.00" fill="#000000"> &#160;</text>
</a>
</g>
</g>
<!-- sahulchar_units_points_EPSG3857&#45;&gt;global_UnitMaster -->
<g id="edge13" class="edge">
<title>sahulchar_units_points_EPSG3857:w&#45;&gt;global_UnitMaster:e</title>
<path fill="none" stroke="#000000" stroke-dasharray="5,2" d="M455.5693,-361.6144C440.7301,-354.965 438.4946,-334.7 417.5,-334.7"/>
<polygon fill="#000000" stroke="#000000" points="465.9998,-359.6208 464.4312,-367.4655 462.8623,-367.1518 464.4309,-359.3071 465.9998,-359.6208"/>
<polyline fill="none" stroke="#000000" points="466,-363.7 462.0776,-362.9157 "/>
<ellipse fill="none" stroke="#000000" cx="458.9397" cy="-362.2883" rx="3.2" ry="3.2"/>
</g>
</g>
</svg>
