<?xml version="1.0" encoding="UTF-8" standalone="no"?>
<!DOCTYPE svg PUBLIC "-//W3C//DTD SVG 1.1//EN"
 "http://www.w3.org/Graphics/SVG/1.1/DTD/svg11.dtd">
<!-- Generated by graphviz version 2.40.1 (20161225.0304)
 -->
<!-- Title: twoDegreesRelationshipsDiagramImplied Pages: 1 -->
<svg width="890pt" height="671pt"
 viewBox="0.00 0.00 890.00 671.20" xmlns="http://www.w3.org/2000/svg" xmlns:xlink="http://www.w3.org/1999/xlink">
<g id="graph0" class="graph" transform="scale(1 1) rotate(0) translate(4 667.1985)">
<title>twoDegreesRelationshipsDiagramImplied</title>
<polygon fill="#ffffff" stroke="transparent" points="-4,4 -4,-667.1985 886,-667.1985 886,4 -4,4"/>
<text text-anchor="middle" x="72.4936" y="-7.3" font-family="Helvetica,sans-Serif" font-size="11.00" fill="#000000">Generated by SchemaSpy</text>
<!-- cabah_AnalysisUnit -->
<g id="node1" class="node">
<title>cabah_AnalysisUnit</title>
<g id="a_node1"><a xlink:href="../../tables/cabah_AnalysisUnit.html" xlink:title="cabah_AnalysisUnit" target="_top">
<polygon fill="#ffffff" stroke="transparent" points="509.5,-38.2 509.5,-99.2 662.5,-99.2 662.5,-38.2 509.5,-38.2"/>
<polygon fill="#f5f5f5" stroke="transparent" points="510,-75.7 510,-98.7 663,-98.7 663,-75.7 510,-75.7"/>
<polygon fill="none" stroke="#000000" points="510,-75.7 510,-98.7 663,-98.7 663,-75.7 510,-75.7"/>
<text text-anchor="start" x="515" y="-84.3" font-family="Helvetica,sans-Serif" font-weight="bold" font-size="11.00" fill="#000000">cabah_AnalysisUnit</text>
<text text-anchor="start" x="628.5219" y="-83.8" font-family="Helvetica,sans-Serif" font-size="11.00" fill="#000000">[table]</text>
<polygon fill="none" stroke="#000000" points="510,-56.7 510,-75.7 663,-75.7 663,-56.7 510,-56.7"/>
<text text-anchor="start" x="513" y="-62.8" font-family="Helvetica,sans-Serif" font-size="11.00" fill="#000000">...</text>
<polygon fill="#ffffff" stroke="transparent" points="510,-37.7 510,-56.7 554,-56.7 554,-37.7 510,-37.7"/>
<polygon fill="none" stroke="#000000" points="510,-37.7 510,-56.7 554,-56.7 554,-37.7 510,-37.7"/>
<text text-anchor="start" x="513" y="-43.8" font-family="Helvetica,sans-Serif" font-size="11.00" fill="#000000">&lt; 2</text>
<polygon fill="#ffffff" stroke="transparent" points="554,-37.7 554,-56.7 630,-56.7 630,-37.7 554,-37.7"/>
<polygon fill="none" stroke="#000000" points="554,-37.7 554,-56.7 630,-56.7 630,-37.7 554,-37.7"/>
<text text-anchor="start" x="567.094" y="-43.8" font-family="Helvetica,sans-Serif" font-size="11.00" fill="#000000">15.022 rows</text>
<polygon fill="#ffffff" stroke="transparent" points="630,-37.7 630,-56.7 663,-56.7 663,-37.7 630,-37.7"/>
<polygon fill="none" stroke="#000000" points="630,-37.7 630,-56.7 663,-56.7 663,-37.7 630,-37.7"/>
<text text-anchor="start" x="644.4053" y="-43.8" font-family="Helvetica,sans-Serif" font-size="11.00" fill="#000000">1 &gt;</text>
</a>
</g>
</g>
<!-- cabah_depositID -->
<g id="node2" class="node">
<title>cabah_depositID</title>
<g id="a_node2"><a xlink:href="../../tables/cabah_depositID.html" xlink:title="cabah_depositID" target="_top">
<polygon fill="#ffffff" stroke="transparent" points="49,-142.2 49,-203.2 184,-203.2 184,-142.2 49,-142.2"/>
<polygon fill="#f5f5f5" stroke="transparent" points="49.5,-179.7 49.5,-202.7 184.5,-202.7 184.5,-179.7 49.5,-179.7"/>
<polygon fill="none" stroke="#000000" points="49.5,-179.7 49.5,-202.7 184.5,-202.7 184.5,-179.7 49.5,-179.7"/>
<text text-anchor="start" x="54.5" y="-188.3" font-family="Helvetica,sans-Serif" font-weight="bold" font-size="11.00" fill="#000000">cabah_depositID</text>
<text text-anchor="start" x="150.0219" y="-187.8" font-family="Helvetica,sans-Serif" font-size="11.00" fill="#000000">[table]</text>
<polygon fill="none" stroke="#000000" points="49.5,-160.7 49.5,-179.7 184.5,-179.7 184.5,-160.7 49.5,-160.7"/>
<text text-anchor="start" x="52.5" y="-166.8" font-family="Helvetica,sans-Serif" font-size="11.00" fill="#000000">...</text>
<polygon fill="#ffffff" stroke="transparent" points="49.5,-141.7 49.5,-160.7 91.5,-160.7 91.5,-141.7 49.5,-141.7"/>
<polygon fill="none" stroke="#000000" points="49.5,-141.7 49.5,-160.7 91.5,-160.7 91.5,-141.7 49.5,-141.7"/>
<text text-anchor="start" x="52.5" y="-147.8" font-family="Helvetica,sans-Serif" font-size="11.00" fill="#000000">&lt; 1</text>
<polygon fill="#ffffff" stroke="transparent" points="91.5,-141.7 91.5,-160.7 152.5,-160.7 152.5,-141.7 91.5,-141.7"/>
<polygon fill="none" stroke="#000000" points="91.5,-141.7 91.5,-160.7 152.5,-160.7 152.5,-141.7 91.5,-141.7"/>
<text text-anchor="start" x="104.8807" y="-147.8" font-family="Helvetica,sans-Serif" font-size="11.00" fill="#000000">119 rows</text>
<polygon fill="#ffffff" stroke="transparent" points="152.5,-141.7 152.5,-160.7 184.5,-160.7 184.5,-141.7 152.5,-141.7"/>
<polygon fill="none" stroke="#000000" points="152.5,-141.7 152.5,-160.7 184.5,-160.7 184.5,-141.7 152.5,-141.7"/>
<text text-anchor="start" x="165.9053" y="-147.8" font-family="Helvetica,sans-Serif" font-size="11.00" fill="#000000">3 &gt;</text>
</a>
</g>
</g>
<!-- cabah_AnalysisUnit&#45;&gt;cabah_depositID -->
<g id="edge1" class="edge">
<title>cabah_AnalysisUnit:w&#45;&gt;cabah_depositID:e</title>
<path fill="none" stroke="#000000" d="M495.3436,-65.6676C396.9187,-65.2573 361.5833,-61.7727 266,-104.7 223.7351,-123.6815 230.8316,-169.7 184.5,-169.7"/>
<polygon fill="#000000" stroke="#000000" points="502,-65.6823 509.992,-69.3 506,-65.6911 510,-65.7 510,-65.7 510,-65.7 506,-65.6911 510.008,-62.1 502,-65.6823 502,-65.6823"/>
<ellipse fill="none" stroke="#000000" cx="498.8" cy="-65.6752" rx="3.2" ry="3.2"/>
</g>
<!-- global_UnitMaster -->
<g id="node3" class="node">
<title>global_UnitMaster</title>
<g id="a_node3"><a xlink:href="../../tables/global_UnitMaster.html" xlink:title="global_UnitMaster" target="_top">
<polygon fill="#ffffff" stroke="transparent" points="274,-115.2 274,-374.2 417,-374.2 417,-115.2 274,-115.2"/>
<polygon fill="#f5f5f5" stroke="transparent" points="274.5,-350.7 274.5,-373.7 417.5,-373.7 417.5,-350.7 274.5,-350.7"/>
<polygon fill="none" stroke="#000000" points="274.5,-350.7 274.5,-373.7 417.5,-373.7 417.5,-350.7 274.5,-350.7"/>
<text text-anchor="start" x="279.5" y="-359.3" font-family="Helvetica,sans-Serif" font-weight="bold" font-size="11.00" fill="#000000">global_UnitMaster</text>
<text text-anchor="start" x="383.0219" y="-358.8" font-family="Helvetica,sans-Serif" font-size="11.00" fill="#000000">[table]</text>
<polygon fill="none" stroke="#000000" points="274.5,-328.7 274.5,-350.7 417.5,-350.7 417.5,-328.7 274.5,-328.7"/>
<image xlink:href="../../images/primaryKeys.png" width="11px" height="12px" preserveAspectRatio="xMinYMin meet" x="279.5" y="-345.7"/>
<text text-anchor="start" x="303.5" y="-335.8" font-family="Helvetica,sans-Serif" font-size="11.00" fill="#000000">UNITID</text>
<polygon fill="none" stroke="#000000" points="274.5,-306.7 274.5,-328.7 417.5,-328.7 417.5,-306.7 274.5,-306.7"/>
<image xlink:href="../../images/foreignKeys.png" width="11px" height="12px" preserveAspectRatio="xMinYMin meet" x="279.5" y="-323.7"/>
<text text-anchor="start" x="303.5" y="-313.8" font-family="Helvetica,sans-Serif" font-size="11.00" fill="#000000">SITEID</text>
<polygon fill="#ffffff" stroke="transparent" points="274.5,-284.7 274.5,-306.7 417.5,-306.7 417.5,-284.7 274.5,-284.7"/>
<polygon fill="none" stroke="#000000" points="274.5,-284.7 274.5,-306.7 417.5,-306.7 417.5,-284.7 274.5,-284.7"/>
<text text-anchor="start" x="303.5" y="-291.8" font-family="Helvetica,sans-Serif" font-size="11.00" fill="#000000">UNITHANDLE</text>
<polygon fill="none" stroke="#000000" points="274.5,-262.7 274.5,-284.7 417.5,-284.7 417.5,-262.7 274.5,-262.7"/>
<image xlink:href="../../images/foreignKeys.png" width="11px" height="12px" preserveAspectRatio="xMinYMin meet" x="279.5" y="-279.7"/>
<text text-anchor="start" x="303.5" y="-269.8" font-family="Helvetica,sans-Serif" font-size="11.00" fill="#000000">UNITTYPEID</text>
<polygon fill="none" stroke="#000000" points="274.5,-240.7 274.5,-262.7 417.5,-262.7 417.5,-240.7 274.5,-240.7"/>
<image xlink:href="../../images/foreignKeys.png" width="11px" height="12px" preserveAspectRatio="xMinYMin meet" x="279.5" y="-257.7"/>
<text text-anchor="start" x="303.5" y="-247.8" font-family="Helvetica,sans-Serif" font-size="11.00" fill="#000000">COLLECTID</text>
<polygon fill="none" stroke="#000000" points="274.5,-218.7 274.5,-240.7 417.5,-240.7 417.5,-218.7 274.5,-218.7"/>
<image xlink:href="../../images/foreignKeys.png" width="11px" height="12px" preserveAspectRatio="xMinYMin meet" x="279.5" y="-235.7"/>
<text text-anchor="start" x="303.5" y="-225.8" font-family="Helvetica,sans-Serif" font-size="11.00" fill="#000000">DEPOSITID</text>
<polygon fill="#ffffff" stroke="transparent" points="274.5,-196.7 274.5,-218.7 417.5,-218.7 417.5,-196.7 274.5,-196.7"/>
<polygon fill="none" stroke="#000000" points="274.5,-196.7 274.5,-218.7 417.5,-218.7 417.5,-196.7 274.5,-196.7"/>
<text text-anchor="start" x="303.5" y="-203.8" font-family="Helvetica,sans-Serif" font-size="11.00" fill="#000000">NEO_HANDLE</text>
<polygon fill="none" stroke="#000000" points="274.5,-174.7 274.5,-196.7 417.5,-196.7 417.5,-174.7 274.5,-174.7"/>
<image xlink:href="../../images/foreignKeys.png" width="11px" height="12px" preserveAspectRatio="xMinYMin meet" x="279.5" y="-191.7"/>
<text text-anchor="start" x="303.5" y="-181.8" font-family="Helvetica,sans-Serif" font-size="11.00" fill="#000000">UNIT_REF</text>
<polygon fill="#ffffff" stroke="transparent" points="274.5,-152.7 274.5,-174.7 417.5,-174.7 417.5,-152.7 274.5,-152.7"/>
<polygon fill="none" stroke="#000000" points="274.5,-152.7 274.5,-174.7 417.5,-174.7 417.5,-152.7 274.5,-152.7"/>
<text text-anchor="start" x="303.5" y="-159.8" font-family="Helvetica,sans-Serif" font-size="11.00" fill="#000000">NEO_UNITID</text>
<polygon fill="none" stroke="#000000" points="274.5,-133.7 274.5,-152.7 417.5,-152.7 417.5,-133.7 274.5,-133.7"/>
<text text-anchor="start" x="277.5" y="-139.8" font-family="Helvetica,sans-Serif" font-size="11.00" fill="#000000">...</text>
<polygon fill="#ffffff" stroke="transparent" points="274.5,-114.7 274.5,-133.7 320.5,-133.7 320.5,-114.7 274.5,-114.7"/>
<polygon fill="none" stroke="#000000" points="274.5,-114.7 274.5,-133.7 320.5,-133.7 320.5,-114.7 274.5,-114.7"/>
<text text-anchor="start" x="277.5" y="-120.8" font-family="Helvetica,sans-Serif" font-size="11.00" fill="#000000">&lt; 5</text>
<polygon fill="#ffffff" stroke="transparent" points="320.5,-114.7 320.5,-133.7 383.5,-133.7 383.5,-114.7 320.5,-114.7"/>
<polygon fill="none" stroke="#000000" points="320.5,-114.7 320.5,-133.7 383.5,-133.7 383.5,-114.7 320.5,-114.7"/>
<text text-anchor="start" x="335.8807" y="-120.8" font-family="Helvetica,sans-Serif" font-size="11.00" fill="#000000">607 rows</text>
<polygon fill="#ffffff" stroke="transparent" points="383.5,-114.7 383.5,-133.7 417.5,-133.7 417.5,-114.7 383.5,-114.7"/>
<polygon fill="none" stroke="#000000" points="383.5,-114.7 383.5,-133.7 417.5,-133.7 417.5,-114.7 383.5,-114.7"/>
<text text-anchor="start" x="398.9053" y="-120.8" font-family="Helvetica,sans-Serif" font-size="11.00" fill="#000000">9 &gt;</text>
</a>
</g>
</g>
<!-- cabah_AnalysisUnit&#45;&gt;global_UnitMaster -->
<g id="edge2" class="edge">
<title>cabah_AnalysisUnit:w&#45;&gt;global_UnitMaster:e</title>
<path fill="none" stroke="#000000" d="M495.7389,-67.873C478.6704,-73.9418 474.875,-91.8032 458,-109.7 437.4191,-131.5272 447.5,-163.7 417.5,-163.7"/>
<polygon fill="#000000" stroke="#000000" points="502.0913,-66.9051 510.5423,-69.2589 506.0456,-66.3026 510,-65.7 510,-65.7 510,-65.7 506.0456,-66.3026 509.4577,-62.1411 502.0913,-66.9051 502.0913,-66.9051"/>
<ellipse fill="none" stroke="#000000" cx="498.9278" cy="-67.3872" rx="3.2" ry="3.2"/>
</g>
<!-- global_UnitMaster&#45;&gt;cabah_depositID -->
<g id="edge6" class="edge">
<title>global_UnitMaster:w&#45;&gt;cabah_depositID:e</title>
<path fill="none" stroke="#000000" d="M260.0921,-227.5646C227.1231,-216.8762 227.1281,-169.7 184.5,-169.7"/>
<polygon fill="#000000" stroke="#000000" points="266.5864,-228.5271 273.9722,-233.2611 270.5432,-229.1135 274.5,-229.7 274.5,-229.7 274.5,-229.7 270.5432,-229.1135 275.0278,-226.1389 266.5864,-228.5271 266.5864,-228.5271"/>
<ellipse fill="none" stroke="#000000" cx="263.421" cy="-228.0579" rx="3.2" ry="3.2"/>
</g>
<!-- cabah_col_mtdID -->
<g id="node6" class="node">
<title>cabah_col_mtdID</title>
<g id="a_node6"><a xlink:href="../../tables/cabah_col_mtdID.html" xlink:title="cabah_col_mtdID" target="_top">
<polygon fill="#ffffff" stroke="transparent" points="47.5,-224.2 47.5,-285.2 185.5,-285.2 185.5,-224.2 47.5,-224.2"/>
<polygon fill="#f5f5f5" stroke="transparent" points="47.5,-261.7 47.5,-284.7 185.5,-284.7 185.5,-261.7 47.5,-261.7"/>
<polygon fill="none" stroke="#000000" points="47.5,-261.7 47.5,-284.7 185.5,-284.7 185.5,-261.7 47.5,-261.7"/>
<text text-anchor="start" x="52.5" y="-270.3" font-family="Helvetica,sans-Serif" font-weight="bold" font-size="11.00" fill="#000000">cabah_col_mtdID</text>
<text text-anchor="start" x="151.0219" y="-269.8" font-family="Helvetica,sans-Serif" font-size="11.00" fill="#000000">[table]</text>
<polygon fill="none" stroke="#000000" points="47.5,-242.7 47.5,-261.7 185.5,-261.7 185.5,-242.7 47.5,-242.7"/>
<text text-anchor="start" x="50.5" y="-248.8" font-family="Helvetica,sans-Serif" font-size="11.00" fill="#000000">...</text>
<polygon fill="#ffffff" stroke="transparent" points="47.5,-223.7 47.5,-242.7 94.5,-242.7 94.5,-223.7 47.5,-223.7"/>
<polygon fill="none" stroke="#000000" points="47.5,-223.7 47.5,-242.7 94.5,-242.7 94.5,-223.7 47.5,-223.7"/>
<text text-anchor="start" x="50.5" y="-229.8" font-family="Helvetica,sans-Serif" font-size="11.00" fill="#000000">&lt; 1</text>
<polygon fill="#ffffff" stroke="transparent" points="94.5,-223.7 94.5,-242.7 151.5,-242.7 151.5,-223.7 94.5,-223.7"/>
<polygon fill="none" stroke="#000000" points="94.5,-223.7 94.5,-242.7 151.5,-242.7 151.5,-223.7 94.5,-223.7"/>
<text text-anchor="start" x="109.9956" y="-229.8" font-family="Helvetica,sans-Serif" font-size="11.00" fill="#000000">44 rows</text>
<polygon fill="#ffffff" stroke="transparent" points="151.5,-223.7 151.5,-242.7 185.5,-242.7 185.5,-223.7 151.5,-223.7"/>
<polygon fill="none" stroke="#000000" points="151.5,-223.7 151.5,-242.7 185.5,-242.7 185.5,-223.7 151.5,-223.7"/>
<text text-anchor="start" x="166.9053" y="-229.8" font-family="Helvetica,sans-Serif" font-size="11.00" fill="#000000">7 &gt;</text>
</a>
</g>
</g>
<!-- global_UnitMaster&#45;&gt;cabah_col_mtdID -->
<g id="edge5" class="edge">
<title>global_UnitMaster:w&#45;&gt;cabah_col_mtdID:e</title>
<path fill="none" stroke="#000000" d="M259.788,-251.7C231.6859,-251.7 219.6476,-251.7 185.5,-251.7"/>
<polygon fill="#000000" stroke="#000000" points="266.5,-251.7001 274.5,-255.3 270.5,-251.7 274.5,-251.7 274.5,-251.7 274.5,-251.7 270.5,-251.7 274.5,-248.1 266.5,-251.7001 266.5,-251.7001"/>
<ellipse fill="none" stroke="#000000" cx="263.3" cy="-251.7001" rx="3.2" ry="3.2"/>
</g>
<!-- global_SiteMaster -->
<g id="node7" class="node">
<title>global_SiteMaster</title>
<g id="a_node7"><a xlink:href="../../tables/global_SiteMaster.html" xlink:title="global_SiteMaster" target="_top">
<polygon fill="#ffffff" stroke="transparent" points="46,-533.2 46,-594.2 187,-594.2 187,-533.2 46,-533.2"/>
<polygon fill="#f5f5f5" stroke="transparent" points="46.5,-570.7 46.5,-593.7 187.5,-593.7 187.5,-570.7 46.5,-570.7"/>
<polygon fill="none" stroke="#000000" points="46.5,-570.7 46.5,-593.7 187.5,-593.7 187.5,-570.7 46.5,-570.7"/>
<text text-anchor="start" x="51.5" y="-579.3" font-family="Helvetica,sans-Serif" font-weight="bold" font-size="11.00" fill="#000000">global_SiteMaster</text>
<text text-anchor="start" x="153.0219" y="-578.8" font-family="Helvetica,sans-Serif" font-size="11.00" fill="#000000">[table]</text>
<polygon fill="none" stroke="#000000" points="46.5,-551.7 46.5,-570.7 187.5,-570.7 187.5,-551.7 46.5,-551.7"/>
<text text-anchor="start" x="49.5" y="-557.8" font-family="Helvetica,sans-Serif" font-size="11.00" fill="#000000">...</text>
<polygon fill="#ffffff" stroke="transparent" points="46.5,-532.7 46.5,-551.7 81.5,-551.7 81.5,-532.7 46.5,-532.7"/>
<polygon fill="none" stroke="#000000" points="46.5,-532.7 46.5,-551.7 81.5,-551.7 81.5,-532.7 46.5,-532.7"/>
<text text-anchor="start" x="49.5" y="-538.8" font-family="Helvetica,sans-Serif" font-size="11.00" fill="#000000">&lt; 8</text>
<polygon fill="#ffffff" stroke="transparent" points="81.5,-532.7 81.5,-551.7 153.5,-551.7 153.5,-532.7 81.5,-532.7"/>
<polygon fill="none" stroke="#000000" points="81.5,-532.7 81.5,-551.7 153.5,-551.7 153.5,-532.7 81.5,-532.7"/>
<text text-anchor="start" x="90.594" y="-538.8" font-family="Helvetica,sans-Serif" font-size="11.00" fill="#000000">25.221 rows</text>
<polygon fill="#ffffff" stroke="transparent" points="153.5,-532.7 153.5,-551.7 187.5,-551.7 187.5,-532.7 153.5,-532.7"/>
<polygon fill="none" stroke="#000000" points="153.5,-532.7 153.5,-551.7 187.5,-551.7 187.5,-532.7 153.5,-532.7"/>
<text text-anchor="start" x="162.7904" y="-538.8" font-family="Helvetica,sans-Serif" font-size="11.00" fill="#000000">20 &gt;</text>
</a>
</g>
</g>
<!-- global_UnitMaster&#45;&gt;global_SiteMaster -->
<g id="edge7" class="edge">
<title>global_UnitMaster:w&#45;&gt;global_SiteMaster:e</title>
<path fill="none" stroke="#000000" d="M259.9282,-319.279C211.0425,-331.4914 256.9749,-412.0586 233,-473.7 217.1827,-514.3677 231.1354,-560.7 187.5,-560.7"/>
<polygon fill="#000000" stroke="#000000" points="266.5466,-318.5619 274.8878,-321.279 270.5233,-318.1309 274.5,-317.7 274.5,-317.7 274.5,-317.7 270.5233,-318.1309 274.1122,-314.121 266.5466,-318.5619 266.5466,-318.5619"/>
<ellipse fill="none" stroke="#000000" cx="263.3652" cy="-318.9066" rx="3.2" ry="3.2"/>
</g>
<!-- global_RefCore -->
<g id="node8" class="node">
<title>global_RefCore</title>
<g id="a_node8"><a xlink:href="../../tables/global_RefCore.html" xlink:title="global_RefCore" target="_top">
<polygon fill="#ffffff" stroke="transparent" points="53,-60.2 53,-121.2 180,-121.2 180,-60.2 53,-60.2"/>
<polygon fill="#f5f5f5" stroke="transparent" points="53.5,-97.7 53.5,-120.7 180.5,-120.7 180.5,-97.7 53.5,-97.7"/>
<polygon fill="none" stroke="#000000" points="53.5,-97.7 53.5,-120.7 180.5,-120.7 180.5,-97.7 53.5,-97.7"/>
<text text-anchor="start" x="58.5" y="-106.3" font-family="Helvetica,sans-Serif" font-weight="bold" font-size="11.00" fill="#000000">global_RefCore</text>
<text text-anchor="start" x="146.0219" y="-105.8" font-family="Helvetica,sans-Serif" font-size="11.00" fill="#000000">[table]</text>
<polygon fill="none" stroke="#000000" points="53.5,-78.7 53.5,-97.7 180.5,-97.7 180.5,-78.7 53.5,-78.7"/>
<text text-anchor="start" x="56.5" y="-84.8" font-family="Helvetica,sans-Serif" font-size="11.00" fill="#000000">...</text>
<polygon fill="#ffffff" stroke="transparent" points="53.5,-59.7 53.5,-78.7 84.5,-78.7 84.5,-59.7 53.5,-59.7"/>
<polygon fill="none" stroke="#000000" points="53.5,-59.7 53.5,-78.7 84.5,-78.7 84.5,-59.7 53.5,-59.7"/>
<text text-anchor="start" x="56.5" y="-65.8" font-family="Helvetica,sans-Serif" font-size="11.00" fill="#000000">&lt; 5</text>
<polygon fill="#ffffff" stroke="transparent" points="84.5,-59.7 84.5,-78.7 148.5,-78.7 148.5,-59.7 84.5,-59.7"/>
<polygon fill="none" stroke="#000000" points="84.5,-59.7 84.5,-78.7 148.5,-78.7 148.5,-59.7 84.5,-59.7"/>
<text text-anchor="start" x="91.7089" y="-65.8" font-family="Helvetica,sans-Serif" font-size="11.00" fill="#000000">3.947 rows</text>
<polygon fill="#ffffff" stroke="transparent" points="148.5,-59.7 148.5,-78.7 180.5,-78.7 180.5,-59.7 148.5,-59.7"/>
<polygon fill="none" stroke="#000000" points="148.5,-59.7 148.5,-78.7 180.5,-78.7 180.5,-59.7 148.5,-59.7"/>
<text text-anchor="start" x="155.7904" y="-65.8" font-family="Helvetica,sans-Serif" font-size="11.00" fill="#000000">37 &gt;</text>
</a>
</g>
</g>
<!-- global_UnitMaster&#45;&gt;global_RefCore -->
<g id="edge8" class="edge">
<title>global_UnitMaster:w&#45;&gt;global_RefCore:e</title>
<path fill="none" stroke="#000000" d="M260.412,-182.0764C246.9128,-173.0644 249.6912,-149.1125 233,-131.7 211.9325,-109.7221 210.9444,-87.7 180.5,-87.7"/>
<polygon fill="#000000" stroke="#000000" points="266.7522,-183.7071 273.6032,-189.1865 270.6261,-184.7036 274.5,-185.7 274.5,-185.7 274.5,-185.7 270.6261,-184.7036 275.3968,-182.2135 266.7522,-183.7071 266.7522,-183.7071"/>
<ellipse fill="none" stroke="#000000" cx="263.6531" cy="-182.91" rx="3.2" ry="3.2"/>
</g>
<!-- cabah_unittypeID -->
<g id="node9" class="node">
<title>cabah_unittypeID</title>
<g id="a_node9"><a xlink:href="../../tables/cabah_unittypeID.html" xlink:title="cabah_unittypeID" target="_top">
<polygon fill="#ffffff" stroke="transparent" points="8,-306.7 8,-462.7 225,-462.7 225,-306.7 8,-306.7"/>
<polygon fill="#f5f5f5" stroke="transparent" points="10.5,-437.7 10.5,-460.7 223.5,-460.7 223.5,-437.7 10.5,-437.7"/>
<polygon fill="none" stroke="#000000" points="10.5,-437.7 10.5,-460.7 223.5,-460.7 223.5,-437.7 10.5,-437.7"/>
<text text-anchor="start" x="15.5" y="-446.3" font-family="Helvetica,sans-Serif" font-weight="bold" font-size="11.00" fill="#000000">cabah_unittypeID</text>
<text text-anchor="start" x="188.5437" y="-445.8" font-family="Helvetica,sans-Serif" font-size="11.00" fill="#000000">[table]</text>
<polygon fill="none" stroke="#000000" points="10.5,-415.7 10.5,-437.7 131.5,-437.7 131.5,-415.7 10.5,-415.7"/>
<image xlink:href="../../images/primaryKeys.png" width="11px" height="12px" preserveAspectRatio="xMinYMin meet" x="15.5" y="-432.7"/>
<text text-anchor="start" x="30.5" y="-422.8" font-family="Helvetica,sans-Serif" font-size="11.00" fill="#000000">UNITTYPEID</text>
<polygon fill="none" stroke="#000000" points="131.5,-415.7 131.5,-437.7 223.5,-437.7 223.5,-415.7 131.5,-415.7"/>
<text text-anchor="start" x="134.5" y="-423.4" font-family="Helvetica,sans-Serif" font-size="11.00" fill="#000000">serial[10]</text>
<polygon fill="#ffffff" stroke="transparent" points="10.5,-393.7 10.5,-415.7 131.5,-415.7 131.5,-393.7 10.5,-393.7"/>
<polygon fill="none" stroke="#000000" points="10.5,-393.7 10.5,-415.7 131.5,-415.7 131.5,-393.7 10.5,-393.7"/>
<text text-anchor="start" x="30.5" y="-400.8" font-family="Helvetica,sans-Serif" font-size="11.00" fill="#000000">UNITTYPE</text>
<polygon fill="none" stroke="#000000" points="131.5,-393.7 131.5,-415.7 223.5,-415.7 223.5,-393.7 131.5,-393.7"/>
<text text-anchor="start" x="134.5" y="-401.4" font-family="Helvetica,sans-Serif" font-size="11.00" fill="#000000">text[2147483647]</text>
<polygon fill="none" stroke="#000000" points="10.5,-371.7 10.5,-393.7 131.5,-393.7 131.5,-371.7 10.5,-371.7"/>
<text text-anchor="start" x="30.5" y="-378.8" font-family="Helvetica,sans-Serif" font-size="11.00" fill="#000000">UNITTDESCR</text>
<polygon fill="none" stroke="#000000" points="131.5,-371.7 131.5,-393.7 223.5,-393.7 223.5,-371.7 131.5,-371.7"/>
<text text-anchor="start" x="134.5" y="-379.4" font-family="Helvetica,sans-Serif" font-size="11.00" fill="#000000">text[2147483647]</text>
<polygon fill="none" stroke="#000000" points="10.5,-349.7 10.5,-371.7 131.5,-371.7 131.5,-349.7 10.5,-349.7"/>
<text text-anchor="start" x="30.5" y="-356.8" font-family="Helvetica,sans-Serif" font-size="11.00" fill="#000000">CREATED_AT</text>
<polygon fill="none" stroke="#000000" points="131.5,-349.7 131.5,-371.7 223.5,-371.7 223.5,-349.7 131.5,-349.7"/>
<text text-anchor="start" x="134.1023" y="-357.4" font-family="Helvetica,sans-Serif" font-size="11.00" fill="#000000">timestamptz[35,6]</text>
<polygon fill="none" stroke="#000000" points="10.5,-327.7 10.5,-349.7 131.5,-349.7 131.5,-327.7 10.5,-327.7"/>
<text text-anchor="start" x="30.5" y="-334.8" font-family="Helvetica,sans-Serif" font-size="11.00" fill="#000000">UPDATED_AT</text>
<polygon fill="none" stroke="#000000" points="131.5,-327.7 131.5,-349.7 223.5,-349.7 223.5,-327.7 131.5,-327.7"/>
<text text-anchor="start" x="134.1023" y="-335.4" font-family="Helvetica,sans-Serif" font-size="11.00" fill="#000000">timestamptz[35,6]</text>
<polygon fill="#ffffff" stroke="transparent" points="10.5,-308.7 10.5,-327.7 59.5,-327.7 59.5,-308.7 10.5,-308.7"/>
<polygon fill="none" stroke="#000000" points="10.5,-308.7 10.5,-327.7 59.5,-327.7 59.5,-308.7 10.5,-308.7"/>
<text text-anchor="start" x="13.5" y="-314.8" font-family="Helvetica,sans-Serif" font-size="11.00" fill="#000000">&lt; 0</text>
<polygon fill="#ffffff" stroke="transparent" points="59.5,-308.7 59.5,-327.7 131.5,-327.7 131.5,-308.7 59.5,-308.7"/>
<polygon fill="none" stroke="#000000" points="59.5,-308.7 59.5,-327.7 131.5,-327.7 131.5,-308.7 59.5,-308.7"/>
<text text-anchor="start" x="89.9956" y="-314.8" font-family="Helvetica,sans-Serif" font-size="11.00" fill="#000000">16 rows</text>
<polygon fill="#ffffff" stroke="transparent" points="131.5,-308.7 131.5,-327.7 223.5,-327.7 223.5,-308.7 131.5,-308.7"/>
<polygon fill="none" stroke="#000000" points="131.5,-308.7 131.5,-327.7 223.5,-327.7 223.5,-308.7 131.5,-308.7"/>
<text text-anchor="start" x="204.9053" y="-314.8" font-family="Helvetica,sans-Serif" font-size="11.00" fill="#000000">1 &gt;</text>
<polygon fill="none" stroke="#000000" stroke-width="2" points="9,-307.7 9,-461.7 224,-461.7 224,-307.7 9,-307.7"/>
</a>
</g>
</g>
<!-- global_UnitMaster&#45;&gt;cabah_unittypeID -->
<g id="edge9" class="edge">
<title>global_UnitMaster:w&#45;&gt;cabah_unittypeID:e</title>
<path fill="none" stroke="#000000" d="M260.2676,-276.4862C216.5613,-297.2228 289.4384,-426.7 223.5,-426.7"/>
<polygon fill="#000000" stroke="#000000" points="266.649,-275.237 275.1916,-277.2329 270.5745,-274.4685 274.5,-273.7 274.5,-273.7 274.5,-273.7 270.5745,-274.4685 273.8084,-270.1671 266.649,-275.237 266.649,-275.237"/>
<ellipse fill="none" stroke="#000000" cx="263.5086" cy="-275.8518" rx="3.2" ry="3.2"/>
</g>
<!-- char_Sample -->
<g id="node4" class="node">
<title>char_Sample</title>
<g id="a_node4"><a xlink:href="../../tables/char_Sample.html" xlink:title="char_Sample" target="_top">
<polygon fill="#ffffff" stroke="transparent" points="529.5,-230.2 529.5,-291.2 642.5,-291.2 642.5,-230.2 529.5,-230.2"/>
<polygon fill="#f5f5f5" stroke="transparent" points="530,-267.7 530,-290.7 643,-290.7 643,-267.7 530,-267.7"/>
<polygon fill="none" stroke="#000000" points="530,-267.7 530,-290.7 643,-290.7 643,-267.7 530,-267.7"/>
<text text-anchor="start" x="535" y="-276.3" font-family="Helvetica,sans-Serif" font-weight="bold" font-size="11.00" fill="#000000">char_Sample</text>
<text text-anchor="start" x="608.5219" y="-275.8" font-family="Helvetica,sans-Serif" font-size="11.00" fill="#000000">[table]</text>
<polygon fill="none" stroke="#000000" points="530,-248.7 530,-267.7 643,-267.7 643,-248.7 530,-248.7"/>
<text text-anchor="start" x="533" y="-254.8" font-family="Helvetica,sans-Serif" font-size="11.00" fill="#000000">...</text>
<polygon fill="#ffffff" stroke="transparent" points="530,-229.7 530,-248.7 554,-248.7 554,-229.7 530,-229.7"/>
<polygon fill="none" stroke="#000000" points="530,-229.7 530,-248.7 554,-248.7 554,-229.7 530,-229.7"/>
<text text-anchor="start" x="533" y="-235.8" font-family="Helvetica,sans-Serif" font-size="11.00" fill="#000000">&lt; 1</text>
<polygon fill="#ffffff" stroke="transparent" points="554,-229.7 554,-248.7 620,-248.7 620,-229.7 554,-229.7"/>
<polygon fill="none" stroke="#000000" points="554,-229.7 554,-248.7 620,-248.7 620,-229.7 554,-229.7"/>
<text text-anchor="start" x="557.094" y="-235.8" font-family="Helvetica,sans-Serif" font-size="11.00" fill="#000000">41.793 rows</text>
<polygon fill="#ffffff" stroke="transparent" points="620,-229.7 620,-248.7 643,-248.7 643,-229.7 620,-229.7"/>
<polygon fill="none" stroke="#000000" points="620,-229.7 620,-248.7 643,-248.7 643,-229.7 620,-229.7"/>
<text text-anchor="start" x="624.4053" y="-235.8" font-family="Helvetica,sans-Serif" font-size="11.00" fill="#000000">2 &gt;</text>
</a>
</g>
</g>
<!-- char_Sample&#45;&gt;global_UnitMaster -->
<g id="edge3" class="edge">
<title>char_Sample:w&#45;&gt;global_UnitMaster:e</title>
<path fill="none" stroke="#000000" d="M515.6219,-258.9733C490.6231,-263.8795 483.5195,-282.2575 458,-301.7 438.3663,-316.6584 442.1827,-339.7 417.5,-339.7"/>
<polygon fill="#000000" stroke="#000000" points="522.0312,-258.4057 530.3176,-261.286 526.0156,-258.0529 530,-257.7 530,-257.7 530,-257.7 526.0156,-258.0529 529.6824,-254.114 522.0312,-258.4057 522.0312,-258.4057"/>
<ellipse fill="none" stroke="#000000" cx="518.8437" cy="-258.688" rx="3.2" ry="3.2"/>
</g>
<!-- global_DataSetMaster -->
<g id="node5" class="node">
<title>global_DataSetMaster</title>
<g id="a_node5"><a xlink:href="../../tables/global_DataSetMaster.html" xlink:title="global_DataSetMaster" target="_top">
<polygon fill="#ffffff" stroke="transparent" points="504,-394.2 504,-455.2 668,-455.2 668,-394.2 504,-394.2"/>
<polygon fill="#f5f5f5" stroke="transparent" points="504,-431.7 504,-454.7 668,-454.7 668,-431.7 504,-431.7"/>
<polygon fill="none" stroke="#000000" points="504,-431.7 504,-454.7 668,-454.7 668,-431.7 504,-431.7"/>
<text text-anchor="start" x="509" y="-440.3" font-family="Helvetica,sans-Serif" font-weight="bold" font-size="11.00" fill="#000000">global_DataSetMaster</text>
<text text-anchor="start" x="633.5219" y="-439.8" font-family="Helvetica,sans-Serif" font-size="11.00" fill="#000000">[table]</text>
<polygon fill="none" stroke="#000000" points="504,-412.7 504,-431.7 668,-431.7 668,-412.7 504,-412.7"/>
<text text-anchor="start" x="507" y="-418.8" font-family="Helvetica,sans-Serif" font-size="11.00" fill="#000000">...</text>
<polygon fill="#ffffff" stroke="transparent" points="504,-393.7 504,-412.7 561,-412.7 561,-393.7 504,-393.7"/>
<polygon fill="none" stroke="#000000" points="504,-393.7 504,-412.7 561,-412.7 561,-393.7 504,-393.7"/>
<text text-anchor="start" x="507" y="-399.8" font-family="Helvetica,sans-Serif" font-size="11.00" fill="#000000">&lt; 3</text>
<polygon fill="#ffffff" stroke="transparent" points="561,-393.7 561,-412.7 629,-412.7 629,-393.7 561,-393.7"/>
<polygon fill="none" stroke="#000000" points="561,-393.7 561,-412.7 629,-412.7 629,-393.7 561,-393.7"/>
<text text-anchor="start" x="581.3807" y="-399.8" font-family="Helvetica,sans-Serif" font-size="11.00" fill="#000000">311 rows</text>
<polygon fill="#ffffff" stroke="transparent" points="629,-393.7 629,-412.7 668,-412.7 668,-393.7 629,-393.7"/>
<polygon fill="none" stroke="#000000" points="629,-393.7 629,-412.7 668,-412.7 668,-393.7 629,-393.7"/>
<text text-anchor="start" x="649.4053" y="-399.8" font-family="Helvetica,sans-Serif" font-size="11.00" fill="#000000">4 &gt;</text>
</a>
</g>
</g>
<!-- global_DataSetMaster&#45;&gt;global_UnitMaster -->
<g id="edge4" class="edge">
<title>global_DataSetMaster:w&#45;&gt;global_UnitMaster:e</title>
<path fill="none" stroke="#000000" d="M489.4965,-418.9049C476.3994,-412.8251 472.8859,-397.8093 458,-383.7 438.7097,-365.4161 444.0786,-339.7 417.5,-339.7"/>
<polygon fill="#000000" stroke="#000000" points="496.1445,-420.186 503.3187,-425.235 500.0723,-420.943 504,-421.7 504,-421.7 504,-421.7 500.0723,-420.943 504.6813,-418.165 496.1445,-420.186 496.1445,-420.186"/>
<ellipse fill="none" stroke="#000000" cx="493.0024" cy="-419.5805" rx="3.2" ry="3.2"/>
</g>
<!-- ippd_datasets -->
<g id="node10" class="node">
<title>ippd_datasets</title>
<g id="a_node10"><a xlink:href="../../tables/ippd_datasets.html" xlink:title="ippd_datasets" target="_top">
<polygon fill="#ffffff" stroke="transparent" points="755,-452.2 755,-513.2 874,-513.2 874,-452.2 755,-452.2"/>
<polygon fill="#f5f5f5" stroke="transparent" points="755.5,-489.7 755.5,-512.7 874.5,-512.7 874.5,-489.7 755.5,-489.7"/>
<polygon fill="none" stroke="#000000" points="755.5,-489.7 755.5,-512.7 874.5,-512.7 874.5,-489.7 755.5,-489.7"/>
<text text-anchor="start" x="760.5" y="-498.3" font-family="Helvetica,sans-Serif" font-weight="bold" font-size="11.00" fill="#000000">ippd_datasets</text>
<text text-anchor="start" x="840.0219" y="-497.8" font-family="Helvetica,sans-Serif" font-size="11.00" fill="#000000">[table]</text>
<polygon fill="none" stroke="#000000" points="755.5,-470.7 755.5,-489.7 874.5,-489.7 874.5,-470.7 755.5,-470.7"/>
<text text-anchor="start" x="758.5" y="-476.8" font-family="Helvetica,sans-Serif" font-size="11.00" fill="#000000">...</text>
<polygon fill="#ffffff" stroke="transparent" points="755.5,-451.7 755.5,-470.7 794.5,-470.7 794.5,-451.7 755.5,-451.7"/>
<polygon fill="none" stroke="#000000" points="755.5,-451.7 755.5,-470.7 794.5,-470.7 794.5,-451.7 755.5,-451.7"/>
<text text-anchor="start" x="758.5" y="-457.8" font-family="Helvetica,sans-Serif" font-size="11.00" fill="#000000">&lt; 6</text>
<polygon fill="#ffffff" stroke="transparent" points="794.5,-451.7 794.5,-470.7 853.5,-470.7 853.5,-451.7 794.5,-451.7"/>
<polygon fill="none" stroke="#000000" points="794.5,-451.7 794.5,-470.7 853.5,-470.7 853.5,-451.7 794.5,-451.7"/>
<text text-anchor="start" x="805.8807" y="-457.8" font-family="Helvetica,sans-Serif" font-size="11.00" fill="#000000">311 rows</text>
<polygon fill="#ffffff" stroke="transparent" points="853.5,-451.7 853.5,-470.7 874.5,-470.7 874.5,-451.7 853.5,-451.7"/>
<polygon fill="none" stroke="#000000" points="853.5,-451.7 853.5,-470.7 874.5,-470.7 874.5,-451.7 853.5,-451.7"/>
<text text-anchor="start" x="865.3862" y="-457.8" font-family="Helvetica,sans-Serif" font-size="11.00" fill="#000000"> &#160;</text>
</a>
</g>
</g>
<!-- ippd_datasets&#45;&gt;global_UnitMaster -->
<g id="edge12" class="edge">
<title>ippd_datasets:w&#45;&gt;global_UnitMaster:e</title>
<path fill="none" stroke="#000000" stroke-dasharray="5,2" d="M740.8954,-480.0199C666.1301,-482.891 507.0616,-503.2616 458,-465.7 411.2946,-429.9423 476.3218,-339.7 417.5,-339.7"/>
<polygon fill="#000000" stroke="#000000" points="747.5019,-479.8752 755.5789,-483.2991 751.501,-479.7876 755.5,-479.7 755.5,-479.7 755.5,-479.7 751.501,-479.7876 755.4211,-476.1009 747.5019,-479.8752 747.5019,-479.8752"/>
<ellipse fill="none" stroke="#000000" cx="744.3027" cy="-479.9453" rx="3.2" ry="3.2"/>
</g>
<!-- ippd_datasets&#45;&gt;global_DataSetMaster -->
<g id="edge10" class="edge">
<title>ippd_datasets:w&#45;&gt;global_DataSetMaster:e</title>
<path fill="none" stroke="#000000" stroke-dasharray="5,2" d="M741.0901,-477.4972C709.4853,-466.9028 709.189,-421.7 668,-421.7"/>
<polygon fill="#000000" stroke="#000000" points="747.5919,-478.491 754.956,-483.2587 751.5459,-479.0955 755.5,-479.7 755.5,-479.7 755.5,-479.7 751.5459,-479.0955 756.044,-476.1413 747.5919,-478.491 747.5919,-478.491"/>
<ellipse fill="none" stroke="#000000" cx="744.4286" cy="-478.0075" rx="3.2" ry="3.2"/>
</g>
<!-- ippd_datasets&#45;&gt;global_SiteMaster -->
<g id="edge11" class="edge">
<title>ippd_datasets:w&#45;&gt;global_SiteMaster:e</title>
<path fill="none" stroke="#000000" stroke-dasharray="5,2" d="M741.2968,-482.4456C710.7242,-497.5 755.1169,-570.4133 714,-599.7 551.8228,-715.2153 459.8429,-645.1991 266,-599.7 228.0734,-590.7978 226.4574,-560.7 187.5,-560.7"/>
<polygon fill="#000000" stroke="#000000" points="747.6454,-481.2184 756.1833,-483.2346 751.5727,-480.4592 755.5,-479.7 755.5,-479.7 755.5,-479.7 751.5727,-480.4592 754.8167,-476.1654 747.6454,-481.2184 747.6454,-481.2184"/>
<ellipse fill="none" stroke="#000000" cx="744.5036" cy="-481.8258" rx="3.2" ry="3.2"/>
</g>
<!-- neo_chronologies -->
<g id="node11" class="node">
<title>neo_chronologies</title>
<g id="a_node11"><a xlink:href="../../tables/neo_chronologies.html" xlink:title="neo_chronologies" target="_top">
<polygon fill="#ffffff" stroke="transparent" points="515,-312.2 515,-373.2 657,-373.2 657,-312.2 515,-312.2"/>
<polygon fill="#f5f5f5" stroke="transparent" points="515,-349.7 515,-372.7 657,-372.7 657,-349.7 515,-349.7"/>
<polygon fill="none" stroke="#000000" points="515,-349.7 515,-372.7 657,-372.7 657,-349.7 515,-349.7"/>
<text text-anchor="start" x="520" y="-358.3" font-family="Helvetica,sans-Serif" font-weight="bold" font-size="11.00" fill="#000000">neo_chronologies</text>
<text text-anchor="start" x="622.5219" y="-357.8" font-family="Helvetica,sans-Serif" font-size="11.00" fill="#000000">[table]</text>
<polygon fill="none" stroke="#000000" points="515,-330.7 515,-349.7 657,-349.7 657,-330.7 515,-330.7"/>
<text text-anchor="start" x="518" y="-336.8" font-family="Helvetica,sans-Serif" font-size="11.00" fill="#000000">...</text>
<polygon fill="#ffffff" stroke="transparent" points="515,-311.7 515,-330.7 553,-330.7 553,-311.7 515,-311.7"/>
<polygon fill="none" stroke="#000000" points="515,-311.7 515,-330.7 553,-330.7 553,-311.7 515,-311.7"/>
<text text-anchor="start" x="518" y="-317.8" font-family="Helvetica,sans-Serif" font-size="11.00" fill="#000000">&lt; 4</text>
<polygon fill="#ffffff" stroke="transparent" points="553,-311.7 553,-330.7 627,-330.7 627,-311.7 553,-311.7"/>
<polygon fill="none" stroke="#000000" points="553,-311.7 553,-330.7 627,-330.7 627,-311.7 553,-311.7"/>
<text text-anchor="start" x="564.094" y="-317.8" font-family="Helvetica,sans-Serif" font-size="11.00" fill="#000000">31.641 rows</text>
<polygon fill="#ffffff" stroke="transparent" points="627,-311.7 627,-330.7 657,-330.7 657,-311.7 627,-311.7"/>
<polygon fill="none" stroke="#000000" points="627,-311.7 627,-330.7 657,-330.7 657,-311.7 627,-311.7"/>
<text text-anchor="start" x="638.4053" y="-317.8" font-family="Helvetica,sans-Serif" font-size="11.00" fill="#000000">1 &gt;</text>
</a>
</g>
</g>
<!-- neo_chronologies&#45;&gt;global_UnitMaster -->
<g id="edge13" class="edge">
<title>neo_chronologies:w&#45;&gt;global_UnitMaster:e</title>
<path fill="none" stroke="#000000" stroke-dasharray="5,2" d="M500.5721,-337.7843C468.5664,-333.788 455.5859,-334.4266 417.5,-339.7"/>
<polygon fill="#000000" stroke="#000000" points="507.0696,-338.647 514.5261,-343.2687 511.0348,-339.1735 515,-339.7 515,-339.7 515,-339.7 511.0348,-339.1735 515.4739,-336.1313 507.0696,-338.647 507.0696,-338.647"/>
<ellipse fill="none" stroke="#000000" cx="503.8974" cy="-338.2257" rx="3.2" ry="3.2"/>
</g>
<!-- neo_chronologies&#45;&gt;global_UnitMaster -->
<g id="edge14" class="edge">
<title>neo_chronologies:w&#45;&gt;global_UnitMaster:e</title>
<path fill="none" stroke="#000000" d="M500.5721,-341.935C468.5664,-346.5974 455.5859,-345.8523 417.5,-339.7"/>
<polygon fill="#000000" stroke="#000000" points="507.0943,-340.9247 515.5511,-343.2576 511.0471,-340.3124 515,-339.7 515,-339.7 515,-339.7 511.0471,-340.3124 514.4489,-336.1424 507.0943,-340.9247 507.0943,-340.9247"/>
<ellipse fill="none" stroke="#000000" cx="503.932" cy="-341.4146" rx="3.2" ry="3.2"/>
</g>
<!-- sahulchar -->
<g id="node12" class="node">
<title>sahulchar</title>
<g id="a_node12"><a xlink:href="../../tables/sahulchar.html" xlink:title="sahulchar" target="_top">
<polygon fill="#ffffff" stroke="transparent" points="765.5,-230.2 765.5,-291.2 863.5,-291.2 863.5,-230.2 765.5,-230.2"/>
<polygon fill="#f5f5f5" stroke="transparent" points="765.5,-267.7 765.5,-290.7 863.5,-290.7 863.5,-267.7 765.5,-267.7"/>
<polygon fill="none" stroke="#000000" points="765.5,-267.7 765.5,-290.7 863.5,-290.7 863.5,-267.7 765.5,-267.7"/>
<text text-anchor="start" x="770.5" y="-276.3" font-family="Helvetica,sans-Serif" font-weight="bold" font-size="11.00" fill="#000000">sahulchar</text>
<text text-anchor="start" x="828.5437" y="-275.8" font-family="Helvetica,sans-Serif" font-size="11.00" fill="#000000">[table]</text>
<polygon fill="none" stroke="#000000" points="765.5,-248.7 765.5,-267.7 863.5,-267.7 863.5,-248.7 765.5,-248.7"/>
<text text-anchor="start" x="768.5" y="-254.8" font-family="Helvetica,sans-Serif" font-size="11.00" fill="#000000">...</text>
<polygon fill="#ffffff" stroke="transparent" points="765.5,-229.7 765.5,-248.7 786.5,-248.7 786.5,-229.7 765.5,-229.7"/>
<polygon fill="none" stroke="#000000" points="765.5,-229.7 765.5,-248.7 786.5,-248.7 786.5,-229.7 765.5,-229.7"/>
<text text-anchor="start" x="768.2026" y="-235.8" font-family="Helvetica,sans-Serif" font-size="11.00" fill="#000000">&lt; 6</text>
<polygon fill="#ffffff" stroke="transparent" points="786.5,-229.7 786.5,-248.7 851.5,-248.7 851.5,-229.7 786.5,-229.7"/>
<polygon fill="none" stroke="#000000" points="786.5,-229.7 786.5,-248.7 851.5,-248.7 851.5,-229.7 786.5,-229.7"/>
<text text-anchor="start" x="789.047" y="-235.8" font-family="Helvetica,sans-Serif" font-size="11.00" fill="#000000">48.234 rows</text>
<polygon fill="#ffffff" stroke="transparent" points="851.5,-229.7 851.5,-248.7 863.5,-248.7 863.5,-229.7 851.5,-229.7"/>
<polygon fill="none" stroke="#000000" points="851.5,-229.7 851.5,-248.7 863.5,-248.7 863.5,-229.7 851.5,-229.7"/>
<text text-anchor="start" x="854.4431" y="-235.8" font-family="Helvetica,sans-Serif" font-size="11.00" fill="#000000"> &#160;</text>
</a>
</g>
</g>
<!-- sahulchar&#45;&gt;global_UnitMaster -->
<g id="edge17" class="edge">
<title>sahulchar:w&#45;&gt;global_UnitMaster:e</title>
<path fill="none" stroke="#000000" stroke-dasharray="5,2" d="M751.2308,-254.2772C737.349,-246.3188 735.3209,-226.7145 714,-219.7 659.9606,-201.9211 504.2129,-186.523 458,-219.7 412.2745,-252.5272 473.7889,-339.7 417.5,-339.7"/>
<polygon fill="#000000" stroke="#000000" points="757.7207,-255.8339 764.6603,-261.2007 761.6103,-256.767 765.5,-257.7 765.5,-257.7 765.5,-257.7 761.6103,-256.767 766.3397,-254.1993 757.7207,-255.8339 757.7207,-255.8339"/>
<ellipse fill="none" stroke="#000000" cx="754.6089" cy="-255.0875" rx="3.2" ry="3.2"/>
</g>
<!-- sahulchar&#45;&gt;char_Sample -->
<g id="edge16" class="edge">
<title>sahulchar:w&#45;&gt;char_Sample:e</title>
<path fill="none" stroke="#000000" stroke-dasharray="5,2" d="M750.9189,-257.7C708.0763,-257.7 692.2339,-257.7 643,-257.7"/>
<polygon fill="#000000" stroke="#000000" points="757.5,-257.7001 765.5,-261.3 761.5,-257.7 765.5,-257.7 765.5,-257.7 765.5,-257.7 761.5,-257.7 765.5,-254.1 757.5,-257.7001 757.5,-257.7001"/>
<ellipse fill="none" stroke="#000000" cx="754.3" cy="-257.7001" rx="3.2" ry="3.2"/>
</g>
<!-- sahulchar&#45;&gt;global_SiteMaster -->
<g id="edge15" class="edge">
<title>sahulchar:w&#45;&gt;global_SiteMaster:e</title>
<path fill="none" stroke="#000000" stroke-dasharray="5,2" d="M751.5642,-262.2081C704.5288,-297.7703 764.3636,-532.8366 714,-575.7 669.4322,-613.6307 246.0237,-560.7 187.5,-560.7"/>
<polygon fill="#000000" stroke="#000000" points="757.8883,-260.1623 766.608,-261.1252 761.6942,-258.9312 765.5,-257.7 765.5,-257.7 765.5,-257.7 761.6942,-258.9312 764.392,-254.2748 757.8883,-260.1623 757.8883,-260.1623"/>
<ellipse fill="none" stroke="#000000" cx="754.8437" cy="-261.1472" rx="3.2" ry="3.2"/>
</g>
<!-- sahulchar_units -->
<g id="node13" class="node">
<title>sahulchar_units</title>
<g id="a_node13"><a xlink:href="../../tables/sahulchar_units.html" xlink:title="sahulchar_units" target="_top">
<polygon fill="#ffffff" stroke="transparent" points="520.5,-504.2 520.5,-565.2 651.5,-565.2 651.5,-504.2 520.5,-504.2"/>
<polygon fill="#f5f5f5" stroke="transparent" points="521,-541.7 521,-564.7 652,-564.7 652,-541.7 521,-541.7"/>
<polygon fill="none" stroke="#000000" points="521,-541.7 521,-564.7 652,-564.7 652,-541.7 521,-541.7"/>
<text text-anchor="start" x="526" y="-550.3" font-family="Helvetica,sans-Serif" font-weight="bold" font-size="11.00" fill="#000000">sahulchar_units</text>
<text text-anchor="start" x="617.5219" y="-549.8" font-family="Helvetica,sans-Serif" font-size="11.00" fill="#000000">[table]</text>
<polygon fill="none" stroke="#000000" points="521,-522.7 521,-541.7 652,-541.7 652,-522.7 521,-522.7"/>
<text text-anchor="start" x="524" y="-528.8" font-family="Helvetica,sans-Serif" font-size="11.00" fill="#000000">...</text>
<polygon fill="#ffffff" stroke="transparent" points="521,-503.7 521,-522.7 566,-522.7 566,-503.7 521,-503.7"/>
<polygon fill="none" stroke="#000000" points="521,-503.7 521,-522.7 566,-522.7 566,-503.7 521,-503.7"/>
<text text-anchor="start" x="524" y="-509.8" font-family="Helvetica,sans-Serif" font-size="11.00" fill="#000000">&lt; 4</text>
<polygon fill="#ffffff" stroke="transparent" points="566,-503.7 566,-522.7 628,-522.7 628,-503.7 566,-503.7"/>
<polygon fill="none" stroke="#000000" points="566,-503.7 566,-522.7 628,-522.7 628,-503.7 566,-503.7"/>
<text text-anchor="start" x="580.3807" y="-509.8" font-family="Helvetica,sans-Serif" font-size="11.00" fill="#000000">535 rows</text>
<polygon fill="#ffffff" stroke="transparent" points="628,-503.7 628,-522.7 652,-522.7 652,-503.7 628,-503.7"/>
<polygon fill="none" stroke="#000000" points="628,-503.7 628,-522.7 652,-522.7 652,-503.7 628,-503.7"/>
<text text-anchor="start" x="642.8862" y="-509.8" font-family="Helvetica,sans-Serif" font-size="11.00" fill="#000000"> &#160;</text>
</a>
</g>
</g>
<!-- sahulchar_units&#45;&gt;global_UnitMaster -->
<g id="edge19" class="edge">
<title>sahulchar_units:w&#45;&gt;global_UnitMaster:e</title>
<path fill="none" stroke="#000000" stroke-dasharray="5,2" d="M506.5348,-530.5791C483.9843,-526.6749 474.4961,-512.6485 458,-489.7 417.6946,-433.6293 486.5539,-339.7 417.5,-339.7"/>
<polygon fill="#000000" stroke="#000000" points="513.0239,-531.0819 520.7218,-535.2892 517.012,-531.3909 521,-531.7 521,-531.7 521,-531.7 517.012,-531.3909 521.2782,-528.1108 513.0239,-531.0819 513.0239,-531.0819"/>
<ellipse fill="none" stroke="#000000" cx="509.8335" cy="-530.8346" rx="3.2" ry="3.2"/>
</g>
<!-- sahulchar_units&#45;&gt;global_SiteMaster -->
<g id="edge18" class="edge">
<title>sahulchar_units:w&#45;&gt;global_SiteMaster:e</title>
<path fill="none" stroke="#000000" stroke-dasharray="5,2" d="M506.5449,-531.7938C369.7076,-533.5938 331.3415,-560.7 187.5,-560.7"/>
<polygon fill="#000000" stroke="#000000" points="513.0002,-531.752 521.0234,-535.2999 517.0001,-531.726 521,-531.7 521,-531.7 521,-531.7 517.0001,-531.726 520.9766,-528.1001 513.0002,-531.752 513.0002,-531.752"/>
<ellipse fill="none" stroke="#000000" cx="509.8002" cy="-531.7727" rx="3.2" ry="3.2"/>
</g>
<!-- sahulchar_units_points_EPSG3857 -->
<g id="node14" class="node">
<title>sahulchar_units_points_EPSG3857</title>
<g id="a_node14"><a xlink:href="../../tables/sahulchar_units_points_EPSG3857.html" xlink:title="sahulchar_units_points_EPSG3857" target="_top">
<polygon fill="#ffffff" stroke="transparent" points="466,-120.2 466,-181.2 706,-181.2 706,-120.2 466,-120.2"/>
<polygon fill="#f5f5f5" stroke="transparent" points="466,-157.7 466,-180.7 706,-180.7 706,-157.7 466,-157.7"/>
<polygon fill="none" stroke="#000000" points="466,-157.7 466,-180.7 706,-180.7 706,-157.7 466,-157.7"/>
<text text-anchor="start" x="471" y="-166.3" font-family="Helvetica,sans-Serif" font-weight="bold" font-size="11.00" fill="#000000">sahulchar_units_points_EPSG3857</text>
<text text-anchor="start" x="671.5219" y="-165.8" font-family="Helvetica,sans-Serif" font-size="11.00" fill="#000000">[table]</text>
<polygon fill="none" stroke="#000000" points="466,-138.7 466,-157.7 706,-157.7 706,-138.7 466,-138.7"/>
<text text-anchor="start" x="469" y="-144.8" font-family="Helvetica,sans-Serif" font-size="11.00" fill="#000000">...</text>
<polygon fill="#ffffff" stroke="transparent" points="466,-119.7 466,-138.7 565,-138.7 565,-119.7 466,-119.7"/>
<polygon fill="none" stroke="#000000" points="466,-119.7 466,-138.7 565,-138.7 565,-119.7 466,-119.7"/>
<text text-anchor="start" x="469" y="-125.8" font-family="Helvetica,sans-Serif" font-size="11.00" fill="#000000">&lt; 1</text>
<polygon fill="#ffffff" stroke="transparent" points="565,-119.7 565,-138.7 654,-138.7 654,-119.7 565,-119.7"/>
<polygon fill="none" stroke="#000000" points="565,-119.7 565,-138.7 654,-138.7 654,-119.7 565,-119.7"/>
<text text-anchor="start" x="606.3807" y="-125.8" font-family="Helvetica,sans-Serif" font-size="11.00" fill="#000000">531 rows</text>
<polygon fill="#ffffff" stroke="transparent" points="654,-119.7 654,-138.7 706,-138.7 706,-119.7 654,-119.7"/>
<polygon fill="none" stroke="#000000" points="654,-119.7 654,-138.7 706,-138.7 706,-119.7 654,-119.7"/>
<text text-anchor="start" x="696.8862" y="-125.8" font-family="Helvetica,sans-Serif" font-size="11.00" fill="#000000"> &#160;</text>
</a>
</g>
</g>
<!-- sahulchar_units_points_EPSG3857&#45;&gt;global_UnitMaster -->
<g id="edge20" class="edge">
<title>sahulchar_units_points_EPSG3857:w&#45;&gt;global_UnitMaster:e</title>
<path fill="none" stroke="#000000" stroke-dasharray="5,2" d="M455.4046,-148.8275C389.0088,-164.5625 501.56,-339.7 417.5,-339.7"/>
<polygon fill="#000000" stroke="#000000" points="464.7812,-143.8071 465.6278,-151.7622 464.0368,-151.9315 463.1902,-143.9764 464.7812,-143.8071"/>
<polyline fill="none" stroke="#000000" points="466,-147.7 462.0225,-148.1233 "/>
<ellipse fill="none" stroke="#000000" cx="458.8404" cy="-148.462" rx="3.2" ry="3.2"/>
</g>
</g>
</svg>
