<?xml version="1.0" encoding="UTF-8" standalone="no"?>
<!DOCTYPE svg PUBLIC "-//W3C//DTD SVG 1.1//EN"
 "http://www.w3.org/Graphics/SVG/1.1/DTD/svg11.dtd">
<!-- Generated by graphviz version 2.40.1 (20161225.0304)
 -->
<!-- Title: oneDegreeRelationshipsDiagram Pages: 1 -->
<svg width="433pt" height="309pt"
 viewBox="0.00 0.00 433.00 309.20" xmlns="http://www.w3.org/2000/svg" xmlns:xlink="http://www.w3.org/1999/xlink">
<g id="graph0" class="graph" transform="scale(1 1) rotate(0) translate(4 305.2)">
<title>oneDegreeRelationshipsDiagram</title>
<polygon fill="#ffffff" stroke="transparent" points="-4,4 -4,-305.2 429,-305.2 429,4 -4,4"/>
<text text-anchor="middle" x="72.4936" y="-7.3" font-family="Helvetica,sans-Serif" font-size="11.00" fill="#000000">Generated by SchemaSpy</text>
<!-- global_UnitMaster -->
<g id="node1" class="node">
<title>global_UnitMaster</title>
<g id="a_node1"><a xlink:href="../../tables/global_UnitMaster.html" xlink:title="global_UnitMaster" target="_top">
<polygon fill="#ffffff" stroke="transparent" points="274,-38.2 274,-297.2 417,-297.2 417,-38.2 274,-38.2"/>
<polygon fill="#f5f5f5" stroke="transparent" points="274.5,-273.7 274.5,-296.7 417.5,-296.7 417.5,-273.7 274.5,-273.7"/>
<polygon fill="none" stroke="#000000" points="274.5,-273.7 274.5,-296.7 417.5,-296.7 417.5,-273.7 274.5,-273.7"/>
<text text-anchor="start" x="279.5" y="-282.3" font-family="Helvetica,sans-Serif" font-weight="bold" font-size="11.00" fill="#000000">global_UnitMaster</text>
<text text-anchor="start" x="383.0219" y="-281.8" font-family="Helvetica,sans-Serif" font-size="11.00" fill="#000000">[table]</text>
<polygon fill="none" stroke="#000000" points="274.5,-251.7 274.5,-273.7 417.5,-273.7 417.5,-251.7 274.5,-251.7"/>
<image xlink:href="../../images/primaryKeys.png" width="11px" height="12px" preserveAspectRatio="xMinYMin meet" x="279.5" y="-268.7"/>
<text text-anchor="start" x="303.5" y="-258.8" font-family="Helvetica,sans-Serif" font-size="11.00" fill="#000000">UNITID</text>
<polygon fill="none" stroke="#000000" points="274.5,-229.7 274.5,-251.7 417.5,-251.7 417.5,-229.7 274.5,-229.7"/>
<image xlink:href="../../images/foreignKeys.png" width="11px" height="12px" preserveAspectRatio="xMinYMin meet" x="279.5" y="-246.7"/>
<text text-anchor="start" x="303.5" y="-236.8" font-family="Helvetica,sans-Serif" font-size="11.00" fill="#000000">SITEID</text>
<polygon fill="#ffffff" stroke="transparent" points="274.5,-207.7 274.5,-229.7 417.5,-229.7 417.5,-207.7 274.5,-207.7"/>
<polygon fill="none" stroke="#000000" points="274.5,-207.7 274.5,-229.7 417.5,-229.7 417.5,-207.7 274.5,-207.7"/>
<text text-anchor="start" x="303.5" y="-214.8" font-family="Helvetica,sans-Serif" font-size="11.00" fill="#000000">UNITHANDLE</text>
<polygon fill="none" stroke="#000000" points="274.5,-185.7 274.5,-207.7 417.5,-207.7 417.5,-185.7 274.5,-185.7"/>
<image xlink:href="../../images/foreignKeys.png" width="11px" height="12px" preserveAspectRatio="xMinYMin meet" x="279.5" y="-202.7"/>
<text text-anchor="start" x="303.5" y="-192.8" font-family="Helvetica,sans-Serif" font-size="11.00" fill="#000000">UNITTYPEID</text>
<polygon fill="none" stroke="#000000" points="274.5,-163.7 274.5,-185.7 417.5,-185.7 417.5,-163.7 274.5,-163.7"/>
<image xlink:href="../../images/foreignKeys.png" width="11px" height="12px" preserveAspectRatio="xMinYMin meet" x="279.5" y="-180.7"/>
<text text-anchor="start" x="303.5" y="-170.8" font-family="Helvetica,sans-Serif" font-size="11.00" fill="#000000">COLLECTID</text>
<polygon fill="none" stroke="#000000" points="274.5,-141.7 274.5,-163.7 417.5,-163.7 417.5,-141.7 274.5,-141.7"/>
<image xlink:href="../../images/foreignKeys.png" width="11px" height="12px" preserveAspectRatio="xMinYMin meet" x="279.5" y="-158.7"/>
<text text-anchor="start" x="303.5" y="-148.8" font-family="Helvetica,sans-Serif" font-size="11.00" fill="#000000">DEPOSITID</text>
<polygon fill="#ffffff" stroke="transparent" points="274.5,-119.7 274.5,-141.7 417.5,-141.7 417.5,-119.7 274.5,-119.7"/>
<polygon fill="none" stroke="#000000" points="274.5,-119.7 274.5,-141.7 417.5,-141.7 417.5,-119.7 274.5,-119.7"/>
<text text-anchor="start" x="303.5" y="-126.8" font-family="Helvetica,sans-Serif" font-size="11.00" fill="#000000">NEO_HANDLE</text>
<polygon fill="none" stroke="#000000" points="274.5,-97.7 274.5,-119.7 417.5,-119.7 417.5,-97.7 274.5,-97.7"/>
<image xlink:href="../../images/foreignKeys.png" width="11px" height="12px" preserveAspectRatio="xMinYMin meet" x="279.5" y="-114.7"/>
<text text-anchor="start" x="303.5" y="-104.8" font-family="Helvetica,sans-Serif" font-size="11.00" fill="#000000">UNIT_REF</text>
<polygon fill="#ffffff" stroke="transparent" points="274.5,-75.7 274.5,-97.7 417.5,-97.7 417.5,-75.7 274.5,-75.7"/>
<polygon fill="none" stroke="#000000" points="274.5,-75.7 274.5,-97.7 417.5,-97.7 417.5,-75.7 274.5,-75.7"/>
<text text-anchor="start" x="303.5" y="-82.8" font-family="Helvetica,sans-Serif" font-size="11.00" fill="#000000">NEO_UNITID</text>
<polygon fill="none" stroke="#000000" points="274.5,-56.7 274.5,-75.7 417.5,-75.7 417.5,-56.7 274.5,-56.7"/>
<text text-anchor="start" x="277.5" y="-62.8" font-family="Helvetica,sans-Serif" font-size="11.00" fill="#000000">...</text>
<polygon fill="#ffffff" stroke="transparent" points="274.5,-37.7 274.5,-56.7 320.5,-56.7 320.5,-37.7 274.5,-37.7"/>
<polygon fill="none" stroke="#000000" points="274.5,-37.7 274.5,-56.7 320.5,-56.7 320.5,-37.7 274.5,-37.7"/>
<text text-anchor="start" x="277.5" y="-43.8" font-family="Helvetica,sans-Serif" font-size="11.00" fill="#000000">&lt; 5</text>
<polygon fill="#ffffff" stroke="transparent" points="320.5,-37.7 320.5,-56.7 383.5,-56.7 383.5,-37.7 320.5,-37.7"/>
<polygon fill="none" stroke="#000000" points="320.5,-37.7 320.5,-56.7 383.5,-56.7 383.5,-37.7 320.5,-37.7"/>
<text text-anchor="start" x="335.8807" y="-43.8" font-family="Helvetica,sans-Serif" font-size="11.00" fill="#000000">607 rows</text>
<polygon fill="#ffffff" stroke="transparent" points="383.5,-37.7 383.5,-56.7 417.5,-56.7 417.5,-37.7 383.5,-37.7"/>
<polygon fill="none" stroke="#000000" points="383.5,-37.7 383.5,-56.7 417.5,-56.7 417.5,-37.7 383.5,-37.7"/>
<text text-anchor="start" x="398.9053" y="-43.8" font-family="Helvetica,sans-Serif" font-size="11.00" fill="#000000">4 &gt;</text>
</a>
</g>
</g>
<!-- cabah_unittypeID -->
<g id="node2" class="node">
<title>cabah_unittypeID</title>
<g id="a_node2"><a xlink:href="../../tables/cabah_unittypeID.html" xlink:title="cabah_unittypeID" target="_top">
<polygon fill="#ffffff" stroke="transparent" points="8,-76.7 8,-232.7 225,-232.7 225,-76.7 8,-76.7"/>
<polygon fill="#f5f5f5" stroke="transparent" points="10.5,-207.7 10.5,-230.7 223.5,-230.7 223.5,-207.7 10.5,-207.7"/>
<polygon fill="none" stroke="#000000" points="10.5,-207.7 10.5,-230.7 223.5,-230.7 223.5,-207.7 10.5,-207.7"/>
<text text-anchor="start" x="15.5" y="-216.3" font-family="Helvetica,sans-Serif" font-weight="bold" font-size="11.00" fill="#000000">cabah_unittypeID</text>
<text text-anchor="start" x="188.5437" y="-215.8" font-family="Helvetica,sans-Serif" font-size="11.00" fill="#000000">[table]</text>
<polygon fill="none" stroke="#000000" points="10.5,-185.7 10.5,-207.7 131.5,-207.7 131.5,-185.7 10.5,-185.7"/>
<image xlink:href="../../images/primaryKeys.png" width="11px" height="12px" preserveAspectRatio="xMinYMin meet" x="15.5" y="-202.7"/>
<text text-anchor="start" x="30.5" y="-192.8" font-family="Helvetica,sans-Serif" font-size="11.00" fill="#000000">UNITTYPEID</text>
<polygon fill="none" stroke="#000000" points="131.5,-185.7 131.5,-207.7 223.5,-207.7 223.5,-185.7 131.5,-185.7"/>
<text text-anchor="start" x="134.5" y="-193.4" font-family="Helvetica,sans-Serif" font-size="11.00" fill="#000000">serial[10]</text>
<polygon fill="#ffffff" stroke="transparent" points="10.5,-163.7 10.5,-185.7 131.5,-185.7 131.5,-163.7 10.5,-163.7"/>
<polygon fill="none" stroke="#000000" points="10.5,-163.7 10.5,-185.7 131.5,-185.7 131.5,-163.7 10.5,-163.7"/>
<text text-anchor="start" x="30.5" y="-170.8" font-family="Helvetica,sans-Serif" font-size="11.00" fill="#000000">UNITTYPE</text>
<polygon fill="none" stroke="#000000" points="131.5,-163.7 131.5,-185.7 223.5,-185.7 223.5,-163.7 131.5,-163.7"/>
<text text-anchor="start" x="134.5" y="-171.4" font-family="Helvetica,sans-Serif" font-size="11.00" fill="#000000">text[2147483647]</text>
<polygon fill="none" stroke="#000000" points="10.5,-141.7 10.5,-163.7 131.5,-163.7 131.5,-141.7 10.5,-141.7"/>
<text text-anchor="start" x="30.5" y="-148.8" font-family="Helvetica,sans-Serif" font-size="11.00" fill="#000000">UNITTDESCR</text>
<polygon fill="none" stroke="#000000" points="131.5,-141.7 131.5,-163.7 223.5,-163.7 223.5,-141.7 131.5,-141.7"/>
<text text-anchor="start" x="134.5" y="-149.4" font-family="Helvetica,sans-Serif" font-size="11.00" fill="#000000">text[2147483647]</text>
<polygon fill="none" stroke="#000000" points="10.5,-119.7 10.5,-141.7 131.5,-141.7 131.5,-119.7 10.5,-119.7"/>
<text text-anchor="start" x="30.5" y="-126.8" font-family="Helvetica,sans-Serif" font-size="11.00" fill="#000000">CREATED_AT</text>
<polygon fill="none" stroke="#000000" points="131.5,-119.7 131.5,-141.7 223.5,-141.7 223.5,-119.7 131.5,-119.7"/>
<text text-anchor="start" x="134.1023" y="-127.4" font-family="Helvetica,sans-Serif" font-size="11.00" fill="#000000">timestamptz[35,6]</text>
<polygon fill="none" stroke="#000000" points="10.5,-97.7 10.5,-119.7 131.5,-119.7 131.5,-97.7 10.5,-97.7"/>
<text text-anchor="start" x="30.5" y="-104.8" font-family="Helvetica,sans-Serif" font-size="11.00" fill="#000000">UPDATED_AT</text>
<polygon fill="none" stroke="#000000" points="131.5,-97.7 131.5,-119.7 223.5,-119.7 223.5,-97.7 131.5,-97.7"/>
<text text-anchor="start" x="134.1023" y="-105.4" font-family="Helvetica,sans-Serif" font-size="11.00" fill="#000000">timestamptz[35,6]</text>
<polygon fill="#ffffff" stroke="transparent" points="10.5,-78.7 10.5,-97.7 59.5,-97.7 59.5,-78.7 10.5,-78.7"/>
<polygon fill="none" stroke="#000000" points="10.5,-78.7 10.5,-97.7 59.5,-97.7 59.5,-78.7 10.5,-78.7"/>
<text text-anchor="start" x="13.5" y="-84.8" font-family="Helvetica,sans-Serif" font-size="11.00" fill="#000000">&lt; 0</text>
<polygon fill="#ffffff" stroke="transparent" points="59.5,-78.7 59.5,-97.7 131.5,-97.7 131.5,-78.7 59.5,-78.7"/>
<polygon fill="none" stroke="#000000" points="59.5,-78.7 59.5,-97.7 131.5,-97.7 131.5,-78.7 59.5,-78.7"/>
<text text-anchor="start" x="89.9956" y="-84.8" font-family="Helvetica,sans-Serif" font-size="11.00" fill="#000000">16 rows</text>
<polygon fill="#ffffff" stroke="transparent" points="131.5,-78.7 131.5,-97.7 223.5,-97.7 223.5,-78.7 131.5,-78.7"/>
<polygon fill="none" stroke="#000000" points="131.5,-78.7 131.5,-97.7 223.5,-97.7 223.5,-78.7 131.5,-78.7"/>
<text text-anchor="start" x="204.9053" y="-84.8" font-family="Helvetica,sans-Serif" font-size="11.00" fill="#000000">1 &gt;</text>
<polygon fill="none" stroke="#000000" stroke-width="2" points="9,-77.7 9,-231.7 224,-231.7 224,-77.7 9,-77.7"/>
</a>
</g>
</g>
<!-- global_UnitMaster&#45;&gt;cabah_unittypeID -->
<g id="edge1" class="edge">
<title>global_UnitMaster:w&#45;&gt;cabah_unittypeID:e</title>
<path fill="none" stroke="#000000" d="M259.776,-196.7C247.7815,-196.7 240.3229,-196.7 223.5,-196.7"/>
<polygon fill="#000000" stroke="#000000" points="266.5,-196.7001 274.5,-200.3 270.5,-196.7 274.5,-196.7 274.5,-196.7 274.5,-196.7 270.5,-196.7 274.5,-193.1 266.5,-196.7001 266.5,-196.7001"/>
<ellipse fill="none" stroke="#000000" cx="263.3" cy="-196.7001" rx="3.2" ry="3.2"/>
</g>
</g>
</svg>
