<?xml version="1.0" encoding="UTF-8" standalone="no"?>
<!DOCTYPE svg PUBLIC "-//W3C//DTD SVG 1.1//EN"
 "http://www.w3.org/Graphics/SVG/1.1/DTD/svg11.dtd">
<!-- Generated by graphviz version 2.40.1 (20161225.0304)
 -->
<!-- Title: twoDegreesRelationshipsDiagram Pages: 1 -->
<svg width="798pt" height="745pt"
 viewBox="0.00 0.00 798.00 745.20" xmlns="http://www.w3.org/2000/svg" xmlns:xlink="http://www.w3.org/1999/xlink">
<g id="graph0" class="graph" transform="scale(1 1) rotate(0) translate(4 741.2)">
<title>twoDegreesRelationshipsDiagram</title>
<polygon fill="#ffffff" stroke="transparent" points="-4,4 -4,-741.2 794,-741.2 794,4 -4,4"/>
<text text-anchor="middle" x="72.4936" y="-7.3" font-family="Helvetica,sans-Serif" font-size="11.00" fill="#000000">Generated by SchemaSpy</text>
<!-- arch_Sample -->
<g id="node1" class="node">
<title>arch_Sample</title>
<g id="a_node1"><a xlink:href="../../tables/arch_Sample.html" xlink:title="arch_Sample" target="_top">
<polygon fill="#ffffff" stroke="transparent" points="661,-672.2 661,-733.2 774,-733.2 774,-672.2 661,-672.2"/>
<polygon fill="#f5f5f5" stroke="transparent" points="661.5,-709.7 661.5,-732.7 774.5,-732.7 774.5,-709.7 661.5,-709.7"/>
<polygon fill="none" stroke="#000000" points="661.5,-709.7 661.5,-732.7 774.5,-732.7 774.5,-709.7 661.5,-709.7"/>
<text text-anchor="start" x="666.5" y="-718.3" font-family="Helvetica,sans-Serif" font-weight="bold" font-size="11.00" fill="#000000">arch_Sample</text>
<text text-anchor="start" x="740.0219" y="-717.8" font-family="Helvetica,sans-Serif" font-size="11.00" fill="#000000">[table]</text>
<polygon fill="none" stroke="#000000" points="661.5,-690.7 661.5,-709.7 774.5,-709.7 774.5,-690.7 661.5,-690.7"/>
<text text-anchor="start" x="664.5" y="-696.8" font-family="Helvetica,sans-Serif" font-size="11.00" fill="#000000">...</text>
<polygon fill="#ffffff" stroke="transparent" points="661.5,-671.7 661.5,-690.7 685.5,-690.7 685.5,-671.7 661.5,-671.7"/>
<polygon fill="none" stroke="#000000" points="661.5,-671.7 661.5,-690.7 685.5,-690.7 685.5,-671.7 661.5,-671.7"/>
<text text-anchor="start" x="664.5" y="-677.8" font-family="Helvetica,sans-Serif" font-size="11.00" fill="#000000">&lt; 2</text>
<polygon fill="#ffffff" stroke="transparent" points="685.5,-671.7 685.5,-690.7 751.5,-690.7 751.5,-671.7 685.5,-671.7"/>
<polygon fill="none" stroke="#000000" points="685.5,-671.7 685.5,-690.7 751.5,-690.7 751.5,-671.7 685.5,-671.7"/>
<text text-anchor="start" x="688.594" y="-677.8" font-family="Helvetica,sans-Serif" font-size="11.00" fill="#000000">10.412 rows</text>
<polygon fill="#ffffff" stroke="transparent" points="751.5,-671.7 751.5,-690.7 774.5,-690.7 774.5,-671.7 751.5,-671.7"/>
<polygon fill="none" stroke="#000000" points="751.5,-671.7 751.5,-690.7 774.5,-690.7 774.5,-671.7 751.5,-671.7"/>
<text text-anchor="start" x="755.9053" y="-677.8" font-family="Helvetica,sans-Serif" font-size="11.00" fill="#000000">3 &gt;</text>
</a>
</g>
</g>
<!-- global_SiteMaster -->
<g id="node2" class="node">
<title>global_SiteMaster</title>
<g id="a_node2"><a xlink:href="../../tables/global_SiteMaster.html" xlink:title="global_SiteMaster" target="_top">
<polygon fill="#ffffff" stroke="transparent" points="463,-311.2 463,-570.2 604,-570.2 604,-311.2 463,-311.2"/>
<polygon fill="#f5f5f5" stroke="transparent" points="463.5,-546.7 463.5,-569.7 604.5,-569.7 604.5,-546.7 463.5,-546.7"/>
<polygon fill="none" stroke="#000000" points="463.5,-546.7 463.5,-569.7 604.5,-569.7 604.5,-546.7 463.5,-546.7"/>
<text text-anchor="start" x="468.5" y="-555.3" font-family="Helvetica,sans-Serif" font-weight="bold" font-size="11.00" fill="#000000">global_SiteMaster</text>
<text text-anchor="start" x="570.0219" y="-554.8" font-family="Helvetica,sans-Serif" font-size="11.00" fill="#000000">[table]</text>
<polygon fill="none" stroke="#000000" points="463.5,-524.7 463.5,-546.7 604.5,-546.7 604.5,-524.7 463.5,-524.7"/>
<image xlink:href="../../images/primaryKeys.png" width="11px" height="12px" preserveAspectRatio="xMinYMin meet" x="468.5" y="-541.7"/>
<text text-anchor="start" x="492.5" y="-531.8" font-family="Helvetica,sans-Serif" font-size="11.00" fill="#000000">SITEID</text>
<polygon fill="none" stroke="#000000" points="463.5,-502.7 463.5,-524.7 604.5,-524.7 604.5,-502.7 463.5,-502.7"/>
<image xlink:href="../../images/foreignKeys.png" width="11px" height="12px" preserveAspectRatio="xMinYMin meet" x="468.5" y="-519.7"/>
<text text-anchor="start" x="492.5" y="-509.8" font-family="Helvetica,sans-Serif" font-size="11.00" fill="#000000">METASITEID</text>
<polygon fill="none" stroke="#000000" points="463.5,-480.7 463.5,-502.7 604.5,-502.7 604.5,-480.7 463.5,-480.7"/>
<image xlink:href="../../images/foreignKeys.png" width="11px" height="12px" preserveAspectRatio="xMinYMin meet" x="468.5" y="-497.7"/>
<text text-anchor="start" x="492.5" y="-487.8" font-family="Helvetica,sans-Serif" font-size="11.00" fill="#000000">RIVID</text>
<polygon fill="none" stroke="#000000" points="463.5,-458.7 463.5,-480.7 604.5,-480.7 604.5,-458.7 463.5,-458.7"/>
<image xlink:href="../../images/foreignKeys.png" width="11px" height="12px" preserveAspectRatio="xMinYMin meet" x="468.5" y="-475.7"/>
<text text-anchor="start" x="492.5" y="-465.8" font-family="Helvetica,sans-Serif" font-size="11.00" fill="#000000">IBRAID</text>
<polygon fill="none" stroke="#000000" points="463.5,-436.7 463.5,-458.7 604.5,-458.7 604.5,-436.7 463.5,-436.7"/>
<image xlink:href="../../images/foreignKeys.png" width="11px" height="12px" preserveAspectRatio="xMinYMin meet" x="468.5" y="-453.7"/>
<text text-anchor="start" x="492.5" y="-443.8" font-family="Helvetica,sans-Serif" font-size="11.00" fill="#000000">SITECODEID</text>
<polygon fill="none" stroke="#000000" points="463.5,-414.7 463.5,-436.7 604.5,-436.7 604.5,-414.7 463.5,-414.7"/>
<image xlink:href="../../images/foreignKeys.png" width="11px" height="12px" preserveAspectRatio="xMinYMin meet" x="468.5" y="-431.7"/>
<text text-anchor="start" x="492.5" y="-421.8" font-family="Helvetica,sans-Serif" font-size="11.00" fill="#000000">BIOMEID</text>
<polygon fill="none" stroke="#000000" points="463.5,-392.7 463.5,-414.7 604.5,-414.7 604.5,-392.7 463.5,-392.7"/>
<image xlink:href="../../images/foreignKeys.png" width="11px" height="12px" preserveAspectRatio="xMinYMin meet" x="468.5" y="-409.7"/>
<text text-anchor="start" x="492.5" y="-399.8" font-family="Helvetica,sans-Serif" font-size="11.00" fill="#000000">CATCHSZEID</text>
<polygon fill="none" stroke="#000000" points="463.5,-370.7 463.5,-392.7 604.5,-392.7 604.5,-370.7 463.5,-370.7"/>
<image xlink:href="../../images/foreignKeys.png" width="11px" height="12px" preserveAspectRatio="xMinYMin meet" x="468.5" y="-387.7"/>
<text text-anchor="start" x="492.5" y="-377.8" font-family="Helvetica,sans-Serif" font-size="11.00" fill="#000000">BASINSZEID</text>
<polygon fill="none" stroke="#000000" points="463.5,-348.7 463.5,-370.7 604.5,-370.7 604.5,-348.7 463.5,-348.7"/>
<image xlink:href="../../images/foreignKeys.png" width="11px" height="12px" preserveAspectRatio="xMinYMin meet" x="468.5" y="-365.7"/>
<text text-anchor="start" x="492.5" y="-355.8" font-family="Helvetica,sans-Serif" font-size="11.00" fill="#000000">FLOWTYPEID</text>
<polygon fill="none" stroke="#000000" points="463.5,-329.7 463.5,-348.7 604.5,-348.7 604.5,-329.7 463.5,-329.7"/>
<text text-anchor="start" x="466.5" y="-335.8" font-family="Helvetica,sans-Serif" font-size="11.00" fill="#000000">...</text>
<polygon fill="#ffffff" stroke="transparent" points="463.5,-310.7 463.5,-329.7 501.5,-329.7 501.5,-310.7 463.5,-310.7"/>
<polygon fill="none" stroke="#000000" points="463.5,-310.7 463.5,-329.7 501.5,-329.7 501.5,-310.7 463.5,-310.7"/>
<text text-anchor="start" x="466.5" y="-316.8" font-family="Helvetica,sans-Serif" font-size="11.00" fill="#000000">&lt; 8</text>
<polygon fill="#ffffff" stroke="transparent" points="501.5,-310.7 501.5,-329.7 574.5,-329.7 574.5,-310.7 501.5,-310.7"/>
<polygon fill="none" stroke="#000000" points="501.5,-310.7 501.5,-329.7 574.5,-329.7 574.5,-310.7 501.5,-310.7"/>
<text text-anchor="start" x="511.594" y="-316.8" font-family="Helvetica,sans-Serif" font-size="11.00" fill="#000000">23.734 rows</text>
<polygon fill="#ffffff" stroke="transparent" points="574.5,-310.7 574.5,-329.7 604.5,-329.7 604.5,-310.7 574.5,-310.7"/>
<polygon fill="none" stroke="#000000" points="574.5,-310.7 574.5,-329.7 604.5,-329.7 604.5,-310.7 574.5,-310.7"/>
<text text-anchor="start" x="585.9053" y="-316.8" font-family="Helvetica,sans-Serif" font-size="11.00" fill="#000000">5 &gt;</text>
</a>
</g>
</g>
<!-- arch_Sample&#45;&gt;global_SiteMaster -->
<g id="edge1" class="edge">
<title>arch_Sample:w&#45;&gt;global_SiteMaster:e</title>
<path fill="none" stroke="#000000" d="M647.0595,-697.124C597.8206,-676.2596 675.9387,-535.7 604.5,-535.7"/>
<polygon fill="#000000" stroke="#000000" points="653.6243,-698.295 660.8678,-703.2441 657.5622,-698.9975 661.5,-699.7 661.5,-699.7 661.5,-699.7 657.5622,-698.9975 662.1322,-696.1559 653.6243,-698.295 653.6243,-698.295"/>
<ellipse fill="none" stroke="#000000" cx="650.4741" cy="-697.733" rx="3.2" ry="3.2"/>
</g>
<!-- global_MetaSite -->
<g id="node6" class="node">
<title>global_MetaSite</title>
<g id="a_node6"><a xlink:href="../../tables/global_MetaSite.html" xlink:title="global_MetaSite" target="_top">
<polygon fill="#ffffff" stroke="transparent" points="237,-654.2 237,-715.2 367,-715.2 367,-654.2 237,-654.2"/>
<polygon fill="#f5f5f5" stroke="transparent" points="237,-691.7 237,-714.7 367,-714.7 367,-691.7 237,-691.7"/>
<polygon fill="none" stroke="#000000" points="237,-691.7 237,-714.7 367,-714.7 367,-691.7 237,-691.7"/>
<text text-anchor="start" x="242" y="-700.3" font-family="Helvetica,sans-Serif" font-weight="bold" font-size="11.00" fill="#000000">global_MetaSite</text>
<text text-anchor="start" x="332.5219" y="-699.8" font-family="Helvetica,sans-Serif" font-size="11.00" fill="#000000">[table]</text>
<polygon fill="none" stroke="#000000" points="237,-672.7 237,-691.7 367,-691.7 367,-672.7 237,-672.7"/>
<text text-anchor="start" x="240" y="-678.8" font-family="Helvetica,sans-Serif" font-size="11.00" fill="#000000">...</text>
<polygon fill="#ffffff" stroke="transparent" points="237,-653.7 237,-672.7 269,-672.7 269,-653.7 237,-653.7"/>
<polygon fill="none" stroke="#000000" points="237,-653.7 237,-672.7 269,-672.7 269,-653.7 237,-653.7"/>
<text text-anchor="start" x="240" y="-659.8" font-family="Helvetica,sans-Serif" font-size="11.00" fill="#000000">&lt; 2</text>
<polygon fill="#ffffff" stroke="transparent" points="269,-653.7 269,-672.7 340,-672.7 340,-653.7 269,-653.7"/>
<polygon fill="none" stroke="#000000" points="269,-653.7 269,-672.7 340,-672.7 340,-653.7 269,-653.7"/>
<text text-anchor="start" x="277.094" y="-659.8" font-family="Helvetica,sans-Serif" font-size="11.00" fill="#000000">12.140 rows</text>
<polygon fill="#ffffff" stroke="transparent" points="340,-653.7 340,-672.7 367,-672.7 367,-653.7 340,-653.7"/>
<polygon fill="none" stroke="#000000" points="340,-653.7 340,-672.7 367,-672.7 367,-653.7 340,-653.7"/>
<text text-anchor="start" x="348.4053" y="-659.8" font-family="Helvetica,sans-Serif" font-size="11.00" fill="#000000">1 &gt;</text>
</a>
</g>
</g>
<!-- global_SiteMaster&#45;&gt;global_MetaSite -->
<g id="edge11" class="edge">
<title>global_SiteMaster:w&#45;&gt;global_MetaSite:e</title>
<path fill="none" stroke="#000000" d="M448.8543,-515.9191C412.7701,-529.262 454.5776,-599.725 422,-643.7 404.3137,-667.5739 396.7114,-681.7 367,-681.7"/>
<polygon fill="#000000" stroke="#000000" points="455.5903,-514.8985 464.0393,-517.2594 459.5451,-514.2992 463.5,-513.7 463.5,-513.7 463.5,-513.7 459.5451,-514.2992 462.9607,-510.1406 455.5903,-514.8985 455.5903,-514.8985"/>
<ellipse fill="none" stroke="#000000" cx="452.4264" cy="-515.3779" rx="3.2" ry="3.2"/>
</g>
<!-- global_SiteCode -->
<g id="node7" class="node">
<title>global_SiteCode</title>
<g id="a_node7"><a xlink:href="../../tables/global_SiteCode.html" xlink:title="global_SiteCode" target="_top">
<polygon fill="#ffffff" stroke="transparent" points="8,-546.2 8,-607.2 141,-607.2 141,-546.2 8,-546.2"/>
<polygon fill="#f5f5f5" stroke="transparent" points="8.5,-583.7 8.5,-606.7 141.5,-606.7 141.5,-583.7 8.5,-583.7"/>
<polygon fill="none" stroke="#000000" points="8.5,-583.7 8.5,-606.7 141.5,-606.7 141.5,-583.7 8.5,-583.7"/>
<text text-anchor="start" x="13.5" y="-592.3" font-family="Helvetica,sans-Serif" font-weight="bold" font-size="11.00" fill="#000000">global_SiteCode</text>
<text text-anchor="start" x="107.0219" y="-591.8" font-family="Helvetica,sans-Serif" font-size="11.00" fill="#000000">[table]</text>
<polygon fill="none" stroke="#000000" points="8.5,-564.7 8.5,-583.7 141.5,-583.7 141.5,-564.7 8.5,-564.7"/>
<text text-anchor="start" x="11.5" y="-570.8" font-family="Helvetica,sans-Serif" font-size="11.00" fill="#000000">...</text>
<polygon fill="#ffffff" stroke="transparent" points="8.5,-545.7 8.5,-564.7 52.5,-564.7 52.5,-545.7 8.5,-545.7"/>
<polygon fill="none" stroke="#000000" points="8.5,-545.7 8.5,-564.7 52.5,-564.7 52.5,-545.7 8.5,-545.7"/>
<text text-anchor="start" x="11.5" y="-551.8" font-family="Helvetica,sans-Serif" font-size="11.00" fill="#000000">&lt; 1</text>
<polygon fill="#ffffff" stroke="transparent" points="52.5,-545.7 52.5,-564.7 108.5,-564.7 108.5,-545.7 52.5,-545.7"/>
<polygon fill="none" stroke="#000000" points="52.5,-545.7 52.5,-564.7 108.5,-564.7 108.5,-545.7 52.5,-545.7"/>
<text text-anchor="start" x="66.9956" y="-551.8" font-family="Helvetica,sans-Serif" font-size="11.00" fill="#000000">87 rows</text>
<polygon fill="#ffffff" stroke="transparent" points="108.5,-545.7 108.5,-564.7 141.5,-564.7 141.5,-545.7 108.5,-545.7"/>
<polygon fill="none" stroke="#000000" points="108.5,-545.7 108.5,-564.7 141.5,-564.7 141.5,-545.7 108.5,-545.7"/>
<text text-anchor="start" x="122.9053" y="-551.8" font-family="Helvetica,sans-Serif" font-size="11.00" fill="#000000">3 &gt;</text>
</a>
</g>
</g>
<!-- global_SiteMaster&#45;&gt;global_SiteCode -->
<g id="edge13" class="edge">
<title>global_SiteMaster:w&#45;&gt;global_SiteCode:e</title>
<path fill="none" stroke="#000000" d="M448.8886,-449.1358C391.4607,-455.0953 184.7399,-477.6661 182,-479.7 145.4739,-506.8151 186.9905,-573.7 141.5,-573.7"/>
<polygon fill="#000000" stroke="#000000" points="455.5383,-448.4824 463.8521,-451.2827 459.5192,-448.0912 463.5,-447.7 463.5,-447.7 463.5,-447.7 459.5192,-448.0912 463.1479,-444.1173 455.5383,-448.4824 455.5383,-448.4824"/>
<ellipse fill="none" stroke="#000000" cx="452.3537" cy="-448.7954" rx="3.2" ry="3.2"/>
</g>
<!-- cabah_basinsizeID -->
<g id="node8" class="node">
<title>cabah_basinsizeID</title>
<g id="a_node8"><a xlink:href="../../tables/cabah_basinsizeID.html" xlink:title="cabah_basinsizeID" target="_top">
<polygon fill="#ffffff" stroke="transparent" points="190,-120.7 190,-276.7 414,-276.7 414,-120.7 190,-120.7"/>
<polygon fill="#f5f5f5" stroke="transparent" points="192,-251.7 192,-274.7 412,-274.7 412,-251.7 192,-251.7"/>
<polygon fill="none" stroke="#000000" points="192,-251.7 192,-274.7 412,-274.7 412,-251.7 192,-251.7"/>
<text text-anchor="start" x="197" y="-260.3" font-family="Helvetica,sans-Serif" font-weight="bold" font-size="11.00" fill="#000000">cabah_basinsizeID</text>
<text text-anchor="start" x="377.0437" y="-259.8" font-family="Helvetica,sans-Serif" font-size="11.00" fill="#000000">[table]</text>
<polygon fill="none" stroke="#000000" points="192,-229.7 192,-251.7 320,-251.7 320,-229.7 192,-229.7"/>
<image xlink:href="../../images/primaryKeys.png" width="11px" height="12px" preserveAspectRatio="xMinYMin meet" x="197" y="-246.7"/>
<text text-anchor="start" x="212" y="-236.8" font-family="Helvetica,sans-Serif" font-size="11.00" fill="#000000">BASINSZEID</text>
<polygon fill="none" stroke="#000000" points="320,-229.7 320,-251.7 412,-251.7 412,-229.7 320,-229.7"/>
<text text-anchor="start" x="323" y="-237.4" font-family="Helvetica,sans-Serif" font-size="11.00" fill="#000000">serial[10]</text>
<polygon fill="#ffffff" stroke="transparent" points="192,-207.7 192,-229.7 320,-229.7 320,-207.7 192,-207.7"/>
<polygon fill="none" stroke="#000000" points="192,-207.7 192,-229.7 320,-229.7 320,-207.7 192,-207.7"/>
<text text-anchor="start" x="212" y="-214.8" font-family="Helvetica,sans-Serif" font-size="11.00" fill="#000000">BASINSIZE</text>
<polygon fill="none" stroke="#000000" points="320,-207.7 320,-229.7 412,-229.7 412,-207.7 320,-207.7"/>
<text text-anchor="start" x="323" y="-215.4" font-family="Helvetica,sans-Serif" font-size="11.00" fill="#000000">varchar[3]</text>
<polygon fill="none" stroke="#000000" points="192,-185.7 192,-207.7 320,-207.7 320,-185.7 192,-185.7"/>
<text text-anchor="start" x="212" y="-192.8" font-family="Helvetica,sans-Serif" font-size="11.00" fill="#000000">BASINAREA</text>
<polygon fill="none" stroke="#000000" points="320,-185.7 320,-207.7 412,-207.7 412,-185.7 320,-185.7"/>
<text text-anchor="start" x="323" y="-193.4" font-family="Helvetica,sans-Serif" font-size="11.00" fill="#000000">text[2147483647]</text>
<polygon fill="none" stroke="#000000" points="192,-163.7 192,-185.7 320,-185.7 320,-163.7 192,-163.7"/>
<text text-anchor="start" x="212" y="-170.8" font-family="Helvetica,sans-Serif" font-size="11.00" fill="#000000">CREATED_AT</text>
<polygon fill="none" stroke="#000000" points="320,-163.7 320,-185.7 412,-185.7 412,-163.7 320,-163.7"/>
<text text-anchor="start" x="322.6023" y="-171.4" font-family="Helvetica,sans-Serif" font-size="11.00" fill="#000000">timestamptz[35,6]</text>
<polygon fill="none" stroke="#000000" points="192,-141.7 192,-163.7 320,-163.7 320,-141.7 192,-141.7"/>
<text text-anchor="start" x="212" y="-148.8" font-family="Helvetica,sans-Serif" font-size="11.00" fill="#000000">UPDATED_AT</text>
<polygon fill="none" stroke="#000000" points="320,-141.7 320,-163.7 412,-163.7 412,-141.7 320,-141.7"/>
<text text-anchor="start" x="322.6023" y="-149.4" font-family="Helvetica,sans-Serif" font-size="11.00" fill="#000000">timestamptz[35,6]</text>
<polygon fill="#ffffff" stroke="transparent" points="192,-122.7 192,-141.7 247,-141.7 247,-122.7 192,-122.7"/>
<polygon fill="none" stroke="#000000" points="192,-122.7 192,-141.7 247,-141.7 247,-122.7 192,-122.7"/>
<text text-anchor="start" x="195" y="-128.8" font-family="Helvetica,sans-Serif" font-size="11.00" fill="#000000">&lt; 0</text>
<polygon fill="#ffffff" stroke="transparent" points="247,-122.7 247,-141.7 320,-141.7 320,-122.7 247,-122.7"/>
<polygon fill="none" stroke="#000000" points="247,-122.7 247,-141.7 320,-141.7 320,-122.7 247,-122.7"/>
<text text-anchor="start" x="284.6105" y="-128.8" font-family="Helvetica,sans-Serif" font-size="11.00" fill="#000000">6 rows</text>
<polygon fill="#ffffff" stroke="transparent" points="320,-122.7 320,-141.7 412,-141.7 412,-122.7 320,-122.7"/>
<polygon fill="none" stroke="#000000" points="320,-122.7 320,-141.7 412,-141.7 412,-122.7 320,-122.7"/>
<text text-anchor="start" x="393.4053" y="-128.8" font-family="Helvetica,sans-Serif" font-size="11.00" fill="#000000">1 &gt;</text>
<polygon fill="none" stroke="#000000" stroke-width="2" points="191,-121.7 191,-275.7 413,-275.7 413,-121.7 191,-121.7"/>
</a>
</g>
</g>
<!-- global_SiteMaster&#45;&gt;cabah_basinsizeID -->
<g id="edge6" class="edge">
<title>global_SiteMaster:w&#45;&gt;cabah_basinsizeID:e</title>
<path fill="none" stroke="#000000" d="M449.1519,-378.6239C410.0379,-358.004 472.8522,-240.7 412,-240.7"/>
<polygon fill="#000000" stroke="#000000" points="455.6777,-380.0229 462.7453,-385.22 459.5889,-380.8615 463.5,-381.7 463.5,-381.7 463.5,-381.7 459.5889,-380.8615 464.2547,-378.18 455.6777,-380.0229 455.6777,-380.0229"/>
<ellipse fill="none" stroke="#000000" cx="452.5488" cy="-379.3521" rx="3.2" ry="3.2"/>
</g>
<!-- global_biomeID -->
<g id="node9" class="node">
<title>global_biomeID</title>
<g id="a_node9"><a xlink:href="../../tables/global_biomeID.html" xlink:title="global_biomeID" target="_top">
<polygon fill="#ffffff" stroke="transparent" points="238,-380.2 238,-441.2 366,-441.2 366,-380.2 238,-380.2"/>
<polygon fill="#f5f5f5" stroke="transparent" points="238,-417.7 238,-440.7 366,-440.7 366,-417.7 238,-417.7"/>
<polygon fill="none" stroke="#000000" points="238,-417.7 238,-440.7 366,-440.7 366,-417.7 238,-417.7"/>
<text text-anchor="start" x="243" y="-426.3" font-family="Helvetica,sans-Serif" font-weight="bold" font-size="11.00" fill="#000000">global_biomeID</text>
<text text-anchor="start" x="331.5219" y="-425.8" font-family="Helvetica,sans-Serif" font-size="11.00" fill="#000000">[table]</text>
<polygon fill="none" stroke="#000000" points="238,-398.7 238,-417.7 366,-417.7 366,-398.7 238,-398.7"/>
<text text-anchor="start" x="241" y="-404.8" font-family="Helvetica,sans-Serif" font-size="11.00" fill="#000000">...</text>
<polygon fill="#ffffff" stroke="transparent" points="238,-379.7 238,-398.7 280,-398.7 280,-379.7 238,-379.7"/>
<polygon fill="none" stroke="#000000" points="238,-379.7 238,-398.7 280,-398.7 280,-379.7 238,-379.7"/>
<text text-anchor="start" x="241" y="-385.8" font-family="Helvetica,sans-Serif" font-size="11.00" fill="#000000">&lt; 1</text>
<polygon fill="#ffffff" stroke="transparent" points="280,-379.7 280,-398.7 334,-398.7 334,-379.7 280,-379.7"/>
<polygon fill="none" stroke="#000000" points="280,-379.7 280,-398.7 334,-398.7 334,-379.7 280,-379.7"/>
<text text-anchor="start" x="292.4956" y="-385.8" font-family="Helvetica,sans-Serif" font-size="11.00" fill="#000000">65 rows</text>
<polygon fill="#ffffff" stroke="transparent" points="334,-379.7 334,-398.7 366,-398.7 366,-379.7 334,-379.7"/>
<polygon fill="none" stroke="#000000" points="334,-379.7 334,-398.7 366,-398.7 366,-379.7 334,-379.7"/>
<text text-anchor="start" x="347.4053" y="-385.8" font-family="Helvetica,sans-Serif" font-size="11.00" fill="#000000">2 &gt;</text>
</a>
</g>
</g>
<!-- global_SiteMaster&#45;&gt;global_biomeID -->
<g id="edge7" class="edge">
<title>global_SiteMaster:w&#45;&gt;global_biomeID:e</title>
<path fill="none" stroke="#000000" d="M448.8949,-424.9721C416.6566,-421.6046 404.7295,-407.7 366,-407.7"/>
<polygon fill="#000000" stroke="#000000" points="455.5099,-425.3017 463.3208,-429.2955 459.505,-425.5009 463.5,-425.7 463.5,-425.7 463.5,-425.7 459.505,-425.5009 463.6792,-422.1045 455.5099,-425.3017 455.5099,-425.3017"/>
<ellipse fill="none" stroke="#000000" cx="452.3139" cy="-425.1424" rx="3.2" ry="3.2"/>
</g>
<!-- cabah_catchmentsizeID -->
<g id="node10" class="node">
<title>cabah_catchmentsizeID</title>
<g id="a_node10"><a xlink:href="../../tables/cabah_catchmentsizeID.html" xlink:title="cabah_catchmentsizeID" target="_top">
<polygon fill="#ffffff" stroke="transparent" points="214.5,-298.2 214.5,-359.2 389.5,-359.2 389.5,-298.2 214.5,-298.2"/>
<polygon fill="#f5f5f5" stroke="transparent" points="215,-335.7 215,-358.7 390,-358.7 390,-335.7 215,-335.7"/>
<polygon fill="none" stroke="#000000" points="215,-335.7 215,-358.7 390,-358.7 390,-335.7 215,-335.7"/>
<text text-anchor="start" x="220" y="-344.3" font-family="Helvetica,sans-Serif" font-weight="bold" font-size="11.00" fill="#000000">cabah_catchmentsizeID</text>
<text text-anchor="start" x="355.5219" y="-343.8" font-family="Helvetica,sans-Serif" font-size="11.00" fill="#000000">[table]</text>
<polygon fill="none" stroke="#000000" points="215,-316.7 215,-335.7 390,-335.7 390,-316.7 215,-316.7"/>
<text text-anchor="start" x="218" y="-322.8" font-family="Helvetica,sans-Serif" font-size="11.00" fill="#000000">...</text>
<polygon fill="#ffffff" stroke="transparent" points="215,-297.7 215,-316.7 279,-316.7 279,-297.7 215,-297.7"/>
<polygon fill="none" stroke="#000000" points="215,-297.7 215,-316.7 279,-316.7 279,-297.7 215,-297.7"/>
<text text-anchor="start" x="218" y="-303.8" font-family="Helvetica,sans-Serif" font-size="11.00" fill="#000000"> &#160;</text>
<polygon fill="#ffffff" stroke="transparent" points="279,-297.7 279,-316.7 343,-316.7 343,-297.7 279,-297.7"/>
<polygon fill="none" stroke="#000000" points="279,-297.7 279,-316.7 343,-316.7 343,-297.7 279,-297.7"/>
<text text-anchor="start" x="307.6105" y="-303.8" font-family="Helvetica,sans-Serif" font-size="11.00" fill="#000000">4 rows</text>
<polygon fill="#ffffff" stroke="transparent" points="343,-297.7 343,-316.7 390,-316.7 390,-297.7 343,-297.7"/>
<polygon fill="none" stroke="#000000" points="343,-297.7 343,-316.7 390,-316.7 390,-297.7 343,-297.7"/>
<text text-anchor="start" x="371.4053" y="-303.8" font-family="Helvetica,sans-Serif" font-size="11.00" fill="#000000">1 &gt;</text>
</a>
</g>
</g>
<!-- global_SiteMaster&#45;&gt;cabah_catchmentsizeID -->
<g id="edge8" class="edge">
<title>global_SiteMaster:w&#45;&gt;cabah_catchmentsizeID:e</title>
<path fill="none" stroke="#000000" d="M449.3898,-400.7376C420.0154,-386.4899 432.0509,-325.7 390,-325.7"/>
<polygon fill="#000000" stroke="#000000" points="455.6707,-402.0562 462.7603,-407.2232 459.5853,-402.8781 463.5,-403.7 463.5,-403.7 463.5,-403.7 459.5853,-402.8781 464.2397,-400.1768 455.6707,-402.0562 455.6707,-402.0562"/>
<ellipse fill="none" stroke="#000000" cx="452.539" cy="-401.3987" rx="3.2" ry="3.2"/>
</g>
<!-- cabah_flowtypeID -->
<g id="node11" class="node">
<title>cabah_flowtypeID</title>
<g id="a_node11"><a xlink:href="../../tables/cabah_flowtypeID.html" xlink:title="cabah_flowtypeID" target="_top">
<polygon fill="#ffffff" stroke="transparent" points="231.5,-38.2 231.5,-99.2 372.5,-99.2 372.5,-38.2 231.5,-38.2"/>
<polygon fill="#f5f5f5" stroke="transparent" points="232,-75.7 232,-98.7 373,-98.7 373,-75.7 232,-75.7"/>
<polygon fill="none" stroke="#000000" points="232,-75.7 232,-98.7 373,-98.7 373,-75.7 232,-75.7"/>
<text text-anchor="start" x="237" y="-84.3" font-family="Helvetica,sans-Serif" font-weight="bold" font-size="11.00" fill="#000000">cabah_flowtypeID</text>
<text text-anchor="start" x="338.5219" y="-83.8" font-family="Helvetica,sans-Serif" font-size="11.00" fill="#000000">[table]</text>
<polygon fill="none" stroke="#000000" points="232,-56.7 232,-75.7 373,-75.7 373,-56.7 232,-56.7"/>
<text text-anchor="start" x="235" y="-62.8" font-family="Helvetica,sans-Serif" font-size="11.00" fill="#000000">...</text>
<polygon fill="#ffffff" stroke="transparent" points="232,-37.7 232,-56.7 279,-56.7 279,-37.7 232,-37.7"/>
<polygon fill="none" stroke="#000000" points="232,-37.7 232,-56.7 279,-56.7 279,-37.7 232,-37.7"/>
<text text-anchor="start" x="235" y="-43.8" font-family="Helvetica,sans-Serif" font-size="11.00" fill="#000000"> &#160;</text>
<polygon fill="#ffffff" stroke="transparent" points="279,-37.7 279,-56.7 334,-56.7 334,-37.7 279,-37.7"/>
<polygon fill="none" stroke="#000000" points="279,-37.7 279,-56.7 334,-56.7 334,-37.7 279,-37.7"/>
<text text-anchor="start" x="298.6105" y="-43.8" font-family="Helvetica,sans-Serif" font-size="11.00" fill="#000000">6 rows</text>
<polygon fill="#ffffff" stroke="transparent" points="334,-37.7 334,-56.7 373,-56.7 373,-37.7 334,-37.7"/>
<polygon fill="none" stroke="#000000" points="334,-37.7 334,-56.7 373,-56.7 373,-37.7 334,-37.7"/>
<text text-anchor="start" x="354.4053" y="-43.8" font-family="Helvetica,sans-Serif" font-size="11.00" fill="#000000">1 &gt;</text>
</a>
</g>
</g>
<!-- global_SiteMaster&#45;&gt;cabah_flowtypeID -->
<g id="edge9" class="edge">
<title>global_SiteMaster:w&#45;&gt;cabah_flowtypeID:e</title>
<path fill="none" stroke="#000000" d="M449.6556,-354.2877C414.7106,-321.9575 446.443,-154.2514 422,-109.7 407.9212,-84.0392 402.2693,-65.7 373,-65.7"/>
<polygon fill="#000000" stroke="#000000" points="456.0491,-356.7872 462.1892,-363.0529 459.7746,-358.2436 463.5,-359.7 463.5,-359.7 463.5,-359.7 459.7746,-358.2436 464.8108,-356.3471 456.0491,-356.7872 456.0491,-356.7872"/>
<ellipse fill="none" stroke="#000000" cx="453.0688" cy="-355.622" rx="3.2" ry="3.2"/>
</g>
<!-- global_ibraID -->
<g id="node12" class="node">
<title>global_ibraID</title>
<g id="a_node12"><a xlink:href="../../tables/global_ibraID.html" xlink:title="global_ibraID" target="_top">
<polygon fill="#ffffff" stroke="transparent" points="244.5,-490.2 244.5,-551.2 359.5,-551.2 359.5,-490.2 244.5,-490.2"/>
<polygon fill="#f5f5f5" stroke="transparent" points="245,-527.7 245,-550.7 360,-550.7 360,-527.7 245,-527.7"/>
<polygon fill="none" stroke="#000000" points="245,-527.7 245,-550.7 360,-550.7 360,-527.7 245,-527.7"/>
<text text-anchor="start" x="250" y="-536.3" font-family="Helvetica,sans-Serif" font-weight="bold" font-size="11.00" fill="#000000">global_ibraID</text>
<text text-anchor="start" x="325.5219" y="-535.8" font-family="Helvetica,sans-Serif" font-size="11.00" fill="#000000">[table]</text>
<polygon fill="none" stroke="#000000" points="245,-508.7 245,-527.7 360,-527.7 360,-508.7 245,-508.7"/>
<text text-anchor="start" x="248" y="-514.8" font-family="Helvetica,sans-Serif" font-size="11.00" fill="#000000">...</text>
<polygon fill="#ffffff" stroke="transparent" points="245,-489.7 245,-508.7 276,-508.7 276,-489.7 245,-489.7"/>
<polygon fill="none" stroke="#000000" points="245,-489.7 245,-508.7 276,-508.7 276,-489.7 245,-489.7"/>
<text text-anchor="start" x="248" y="-495.8" font-family="Helvetica,sans-Serif" font-size="11.00" fill="#000000"> &#160;</text>
<polygon fill="#ffffff" stroke="transparent" points="276,-489.7 276,-508.7 329,-508.7 329,-489.7 276,-489.7"/>
<polygon fill="none" stroke="#000000" points="276,-489.7 276,-508.7 329,-508.7 329,-489.7 276,-489.7"/>
<text text-anchor="start" x="287.4956" y="-495.8" font-family="Helvetica,sans-Serif" font-size="11.00" fill="#000000">90 rows</text>
<polygon fill="#ffffff" stroke="transparent" points="329,-489.7 329,-508.7 360,-508.7 360,-489.7 329,-489.7"/>
<polygon fill="none" stroke="#000000" points="329,-489.7 329,-508.7 360,-508.7 360,-489.7 329,-489.7"/>
<text text-anchor="start" x="341.4053" y="-495.8" font-family="Helvetica,sans-Serif" font-size="11.00" fill="#000000">1 &gt;</text>
</a>
</g>
</g>
<!-- global_SiteMaster&#45;&gt;global_ibraID -->
<g id="edge10" class="edge">
<title>global_SiteMaster:w&#45;&gt;global_ibraID:e</title>
<path fill="none" stroke="#000000" d="M448.9646,-471.1892C411.8127,-479.2911 405.3582,-517.7 360,-517.7"/>
<polygon fill="#000000" stroke="#000000" points="455.5417,-470.5154 463.8669,-473.2813 459.5208,-470.1077 463.5,-469.7 463.5,-469.7 463.5,-469.7 459.5208,-470.1077 463.1331,-466.1187 455.5417,-470.5154 455.5417,-470.5154"/>
<ellipse fill="none" stroke="#000000" cx="452.3583" cy="-470.8416" rx="3.2" ry="3.2"/>
</g>
<!-- global_rivID -->
<g id="node13" class="node">
<title>global_rivID</title>
<g id="a_node13"><a xlink:href="../../tables/global_rivID.html" xlink:title="global_rivID" target="_top">
<polygon fill="#ffffff" stroke="transparent" points="248.5,-572.2 248.5,-633.2 355.5,-633.2 355.5,-572.2 248.5,-572.2"/>
<polygon fill="#f5f5f5" stroke="transparent" points="249,-609.7 249,-632.7 356,-632.7 356,-609.7 249,-609.7"/>
<polygon fill="none" stroke="#000000" points="249,-609.7 249,-632.7 356,-632.7 356,-609.7 249,-609.7"/>
<text text-anchor="start" x="254" y="-618.3" font-family="Helvetica,sans-Serif" font-weight="bold" font-size="11.00" fill="#000000">global_rivID</text>
<text text-anchor="start" x="321.5219" y="-617.8" font-family="Helvetica,sans-Serif" font-size="11.00" fill="#000000">[table]</text>
<polygon fill="none" stroke="#000000" points="249,-590.7 249,-609.7 356,-609.7 356,-590.7 249,-590.7"/>
<text text-anchor="start" x="252" y="-596.8" font-family="Helvetica,sans-Serif" font-size="11.00" fill="#000000">...</text>
<polygon fill="#ffffff" stroke="transparent" points="249,-571.7 249,-590.7 273,-590.7 273,-571.7 249,-571.7"/>
<polygon fill="none" stroke="#000000" points="249,-571.7 249,-590.7 273,-590.7 273,-571.7 249,-571.7"/>
<text text-anchor="start" x="252" y="-577.8" font-family="Helvetica,sans-Serif" font-size="11.00" fill="#000000"> &#160;</text>
<polygon fill="#ffffff" stroke="transparent" points="273,-571.7 273,-590.7 329,-590.7 329,-571.7 273,-571.7"/>
<polygon fill="none" stroke="#000000" points="273,-571.7 273,-590.7 329,-590.7 329,-571.7 273,-571.7"/>
<text text-anchor="start" x="281.3807" y="-577.8" font-family="Helvetica,sans-Serif" font-size="11.00" fill="#000000">219 rows</text>
<polygon fill="#ffffff" stroke="transparent" points="329,-571.7 329,-590.7 356,-590.7 356,-571.7 329,-571.7"/>
<polygon fill="none" stroke="#000000" points="329,-571.7 329,-590.7 356,-590.7 356,-571.7 329,-571.7"/>
<text text-anchor="start" x="337.4053" y="-577.8" font-family="Helvetica,sans-Serif" font-size="11.00" fill="#000000">1 &gt;</text>
</a>
</g>
</g>
<!-- global_SiteMaster&#45;&gt;global_rivID -->
<g id="edge12" class="edge">
<title>global_SiteMaster:w&#45;&gt;global_rivID:e</title>
<path fill="none" stroke="#000000" d="M449.3431,-495.3279C432.9833,-506.461 443.3133,-540.6566 422,-561.7 397.9139,-585.481 389.8479,-599.7 356,-599.7"/>
<polygon fill="#000000" stroke="#000000" points="455.7504,-493.686 464.3937,-495.1873 459.6252,-492.693 463.5,-491.7 463.5,-491.7 463.5,-491.7 459.6252,-492.693 462.6063,-488.2127 455.7504,-493.686 455.7504,-493.686"/>
<ellipse fill="none" stroke="#000000" cx="452.6506" cy="-494.4803" rx="3.2" ry="3.2"/>
</g>
<!-- crn_Sample -->
<g id="node3" class="node">
<title>crn_Sample</title>
<g id="a_node3"><a xlink:href="../../tables/crn_Sample.html" xlink:title="crn_Sample" target="_top">
<polygon fill="#ffffff" stroke="transparent" points="664,-590.2 664,-651.2 771,-651.2 771,-590.2 664,-590.2"/>
<polygon fill="#f5f5f5" stroke="transparent" points="664.5,-627.7 664.5,-650.7 771.5,-650.7 771.5,-627.7 664.5,-627.7"/>
<polygon fill="none" stroke="#000000" points="664.5,-627.7 664.5,-650.7 771.5,-650.7 771.5,-627.7 664.5,-627.7"/>
<text text-anchor="start" x="669.5" y="-636.3" font-family="Helvetica,sans-Serif" font-weight="bold" font-size="11.00" fill="#000000">crn_Sample</text>
<text text-anchor="start" x="737.0219" y="-635.8" font-family="Helvetica,sans-Serif" font-size="11.00" fill="#000000">[table]</text>
<polygon fill="none" stroke="#000000" points="664.5,-608.7 664.5,-627.7 771.5,-627.7 771.5,-608.7 664.5,-608.7"/>
<text text-anchor="start" x="667.5" y="-614.8" font-family="Helvetica,sans-Serif" font-size="11.00" fill="#000000">...</text>
<polygon fill="#ffffff" stroke="transparent" points="664.5,-589.7 664.5,-608.7 688.5,-608.7 688.5,-589.7 664.5,-589.7"/>
<polygon fill="none" stroke="#000000" points="664.5,-589.7 664.5,-608.7 688.5,-608.7 688.5,-589.7 664.5,-589.7"/>
<text text-anchor="start" x="667.5" y="-595.8" font-family="Helvetica,sans-Serif" font-size="11.00" fill="#000000">&lt; 3</text>
<polygon fill="#ffffff" stroke="transparent" points="688.5,-589.7 688.5,-608.7 748.5,-608.7 748.5,-589.7 688.5,-589.7"/>
<polygon fill="none" stroke="#000000" points="688.5,-589.7 688.5,-608.7 748.5,-608.7 748.5,-589.7 688.5,-589.7"/>
<text text-anchor="start" x="691.7089" y="-595.8" font-family="Helvetica,sans-Serif" font-size="11.00" fill="#000000">4.588 rows</text>
<polygon fill="#ffffff" stroke="transparent" points="748.5,-589.7 748.5,-608.7 771.5,-608.7 771.5,-589.7 748.5,-589.7"/>
<polygon fill="none" stroke="#000000" points="748.5,-589.7 748.5,-608.7 771.5,-608.7 771.5,-589.7 748.5,-589.7"/>
<text text-anchor="start" x="752.9053" y="-595.8" font-family="Helvetica,sans-Serif" font-size="11.00" fill="#000000">2 &gt;</text>
</a>
</g>
</g>
<!-- crn_Sample&#45;&gt;global_SiteMaster -->
<g id="edge2" class="edge">
<title>crn_Sample:w&#45;&gt;global_SiteMaster:e</title>
<path fill="none" stroke="#000000" d="M650.4755,-613.9636C625.9033,-597.922 643.8375,-535.7 604.5,-535.7"/>
<polygon fill="#000000" stroke="#000000" points="656.7696,-615.6404 663.5732,-621.1787 660.6348,-616.6702 664.5,-617.7 664.5,-617.7 664.5,-617.7 660.6348,-616.6702 665.4268,-614.2213 656.7696,-615.6404 656.7696,-615.6404"/>
<ellipse fill="none" stroke="#000000" cx="653.6775" cy="-614.8166" rx="3.2" ry="3.2"/>
</g>
<!-- expage_Sample -->
<g id="node4" class="node">
<title>expage_Sample</title>
<g id="a_node4"><a xlink:href="../../tables/expage_Sample.html" xlink:title="expage_Sample" target="_top">
<polygon fill="#ffffff" stroke="transparent" points="653,-508.2 653,-569.2 782,-569.2 782,-508.2 653,-508.2"/>
<polygon fill="#f5f5f5" stroke="transparent" points="653.5,-545.7 653.5,-568.7 782.5,-568.7 782.5,-545.7 653.5,-545.7"/>
<polygon fill="none" stroke="#000000" points="653.5,-545.7 653.5,-568.7 782.5,-568.7 782.5,-545.7 653.5,-545.7"/>
<text text-anchor="start" x="658.5" y="-554.3" font-family="Helvetica,sans-Serif" font-weight="bold" font-size="11.00" fill="#000000">expage_Sample</text>
<text text-anchor="start" x="748.0219" y="-553.8" font-family="Helvetica,sans-Serif" font-size="11.00" fill="#000000">[table]</text>
<polygon fill="none" stroke="#000000" points="653.5,-526.7 653.5,-545.7 782.5,-545.7 782.5,-526.7 653.5,-526.7"/>
<text text-anchor="start" x="656.5" y="-532.8" font-family="Helvetica,sans-Serif" font-size="11.00" fill="#000000">...</text>
<polygon fill="#ffffff" stroke="transparent" points="653.5,-507.7 653.5,-526.7 685.5,-526.7 685.5,-507.7 653.5,-507.7"/>
<polygon fill="none" stroke="#000000" points="653.5,-507.7 653.5,-526.7 685.5,-526.7 685.5,-507.7 653.5,-507.7"/>
<text text-anchor="start" x="656.5" y="-513.8" font-family="Helvetica,sans-Serif" font-size="11.00" fill="#000000">&lt; 2</text>
<polygon fill="#ffffff" stroke="transparent" points="685.5,-507.7 685.5,-526.7 755.5,-526.7 755.5,-507.7 685.5,-507.7"/>
<polygon fill="none" stroke="#000000" points="685.5,-507.7 685.5,-526.7 755.5,-526.7 755.5,-507.7 685.5,-507.7"/>
<text text-anchor="start" x="692.594" y="-513.8" font-family="Helvetica,sans-Serif" font-size="11.00" fill="#000000">15.805 rows</text>
<polygon fill="#ffffff" stroke="transparent" points="755.5,-507.7 755.5,-526.7 782.5,-526.7 782.5,-507.7 755.5,-507.7"/>
<polygon fill="none" stroke="#000000" points="755.5,-507.7 755.5,-526.7 782.5,-526.7 782.5,-507.7 755.5,-507.7"/>
<text text-anchor="start" x="763.9053" y="-513.8" font-family="Helvetica,sans-Serif" font-size="11.00" fill="#000000">1 &gt;</text>
</a>
</g>
</g>
<!-- expage_Sample&#45;&gt;global_SiteMaster -->
<g id="edge3" class="edge">
<title>expage_Sample:w&#45;&gt;global_SiteMaster:e</title>
<path fill="none" stroke="#000000" d="M638.9909,-535.7C627.6774,-535.7 620.4931,-535.7 604.5,-535.7"/>
<polygon fill="#000000" stroke="#000000" points="645.5,-535.7001 653.5,-539.3 649.5,-535.7 653.5,-535.7 653.5,-535.7 653.5,-535.7 649.5,-535.7 653.5,-532.1 645.5,-535.7001 645.5,-535.7001"/>
<ellipse fill="none" stroke="#000000" cx="642.3" cy="-535.7001" rx="3.2" ry="3.2"/>
</g>
<!-- fos_Sample -->
<g id="node5" class="node">
<title>fos_Sample</title>
<g id="a_node5"><a xlink:href="../../tables/fos_Sample.html" xlink:title="fos_Sample" target="_top">
<polygon fill="#ffffff" stroke="transparent" points="664.5,-426.2 664.5,-487.2 770.5,-487.2 770.5,-426.2 664.5,-426.2"/>
<polygon fill="#f5f5f5" stroke="transparent" points="664.5,-463.7 664.5,-486.7 770.5,-486.7 770.5,-463.7 664.5,-463.7"/>
<polygon fill="none" stroke="#000000" points="664.5,-463.7 664.5,-486.7 770.5,-486.7 770.5,-463.7 664.5,-463.7"/>
<text text-anchor="start" x="669.5" y="-472.3" font-family="Helvetica,sans-Serif" font-weight="bold" font-size="11.00" fill="#000000">fos_Sample</text>
<text text-anchor="start" x="736.0219" y="-471.8" font-family="Helvetica,sans-Serif" font-size="11.00" fill="#000000">[table]</text>
<polygon fill="none" stroke="#000000" points="664.5,-444.7 664.5,-463.7 770.5,-463.7 770.5,-444.7 664.5,-444.7"/>
<text text-anchor="start" x="667.5" y="-450.8" font-family="Helvetica,sans-Serif" font-size="11.00" fill="#000000">...</text>
<polygon fill="#ffffff" stroke="transparent" points="664.5,-425.7 664.5,-444.7 687.5,-444.7 687.5,-425.7 664.5,-425.7"/>
<polygon fill="none" stroke="#000000" points="664.5,-425.7 664.5,-444.7 687.5,-444.7 687.5,-425.7 664.5,-425.7"/>
<text text-anchor="start" x="667.5" y="-431.8" font-family="Helvetica,sans-Serif" font-size="11.00" fill="#000000">&lt; 1</text>
<polygon fill="#ffffff" stroke="transparent" points="687.5,-425.7 687.5,-444.7 747.5,-444.7 747.5,-425.7 687.5,-425.7"/>
<polygon fill="none" stroke="#000000" points="687.5,-425.7 687.5,-444.7 747.5,-444.7 747.5,-425.7 687.5,-425.7"/>
<text text-anchor="start" x="690.7089" y="-431.8" font-family="Helvetica,sans-Serif" font-size="11.00" fill="#000000">2.235 rows</text>
<polygon fill="#ffffff" stroke="transparent" points="747.5,-425.7 747.5,-444.7 770.5,-444.7 770.5,-425.7 747.5,-425.7"/>
<polygon fill="none" stroke="#000000" points="747.5,-425.7 747.5,-444.7 770.5,-444.7 770.5,-425.7 747.5,-425.7"/>
<text text-anchor="start" x="751.9053" y="-431.8" font-family="Helvetica,sans-Serif" font-size="11.00" fill="#000000">1 &gt;</text>
</a>
</g>
</g>
<!-- fos_Sample&#45;&gt;global_SiteMaster -->
<g id="edge4" class="edge">
<title>fos_Sample:w&#45;&gt;global_SiteMaster:e</title>
<path fill="none" stroke="#000000" d="M650.4755,-457.4364C625.9033,-473.478 643.8375,-535.7 604.5,-535.7"/>
<polygon fill="#000000" stroke="#000000" points="656.7696,-455.7596 665.4268,-457.1787 660.6348,-454.7298 664.5,-453.7 664.5,-453.7 664.5,-453.7 660.6348,-454.7298 663.5732,-450.2213 656.7696,-455.7596 656.7696,-455.7596"/>
<ellipse fill="none" stroke="#000000" cx="653.6775" cy="-456.5834" rx="3.2" ry="3.2"/>
</g>
<!-- global_MetaSite&#45;&gt;global_SiteCode -->
<g id="edge5" class="edge">
<title>global_MetaSite:w&#45;&gt;global_SiteCode:e</title>
<path fill="none" stroke="#000000" d="M222.6182,-680.0641C204.8343,-675.4383 198.3729,-661.4396 182,-643.7 157.6222,-617.2874 177.443,-573.7 141.5,-573.7"/>
<polygon fill="#000000" stroke="#000000" points="229.0513,-680.7958 236.5931,-685.2769 233.0256,-681.2479 237,-681.7 237,-681.7 237,-681.7 233.0256,-681.2479 237.4069,-678.1231 229.0513,-680.7958 229.0513,-680.7958"/>
<ellipse fill="none" stroke="#000000" cx="225.8718" cy="-680.4341" rx="3.2" ry="3.2"/>
</g>
<!-- sed_Sample -->
<g id="node14" class="node">
<title>sed_Sample</title>
<g id="a_node14"><a xlink:href="../../tables/sed_Sample.html" xlink:title="sed_Sample" target="_top">
<polygon fill="#ffffff" stroke="transparent" points="663,-344.2 663,-405.2 772,-405.2 772,-344.2 663,-344.2"/>
<polygon fill="#f5f5f5" stroke="transparent" points="663.5,-381.7 663.5,-404.7 772.5,-404.7 772.5,-381.7 663.5,-381.7"/>
<polygon fill="none" stroke="#000000" points="663.5,-381.7 663.5,-404.7 772.5,-404.7 772.5,-381.7 663.5,-381.7"/>
<text text-anchor="start" x="668.5" y="-390.3" font-family="Helvetica,sans-Serif" font-weight="bold" font-size="11.00" fill="#000000">sed_Sample</text>
<text text-anchor="start" x="738.0219" y="-389.8" font-family="Helvetica,sans-Serif" font-size="11.00" fill="#000000">[table]</text>
<polygon fill="none" stroke="#000000" points="663.5,-362.7 663.5,-381.7 772.5,-381.7 772.5,-362.7 663.5,-362.7"/>
<text text-anchor="start" x="666.5" y="-368.8" font-family="Helvetica,sans-Serif" font-size="11.00" fill="#000000">...</text>
<polygon fill="#ffffff" stroke="transparent" points="663.5,-343.7 663.5,-362.7 688.5,-362.7 688.5,-343.7 663.5,-343.7"/>
<polygon fill="none" stroke="#000000" points="663.5,-343.7 663.5,-362.7 688.5,-362.7 688.5,-343.7 663.5,-343.7"/>
<text text-anchor="start" x="666.5" y="-349.8" font-family="Helvetica,sans-Serif" font-size="11.00" fill="#000000">&lt; 9</text>
<polygon fill="#ffffff" stroke="transparent" points="688.5,-343.7 688.5,-362.7 749.5,-362.7 749.5,-343.7 688.5,-343.7"/>
<polygon fill="none" stroke="#000000" points="688.5,-343.7 688.5,-362.7 749.5,-362.7 749.5,-343.7 688.5,-343.7"/>
<text text-anchor="start" x="692.7089" y="-349.8" font-family="Helvetica,sans-Serif" font-size="11.00" fill="#000000">3.181 rows</text>
<polygon fill="#ffffff" stroke="transparent" points="749.5,-343.7 749.5,-362.7 772.5,-362.7 772.5,-343.7 749.5,-343.7"/>
<polygon fill="none" stroke="#000000" points="749.5,-343.7 749.5,-362.7 772.5,-362.7 772.5,-343.7 749.5,-343.7"/>
<text text-anchor="start" x="753.9053" y="-349.8" font-family="Helvetica,sans-Serif" font-size="11.00" fill="#000000">2 &gt;</text>
</a>
</g>
</g>
<!-- sed_Sample&#45;&gt;global_SiteMaster -->
<g id="edge14" class="edge">
<title>sed_Sample:w&#45;&gt;global_SiteMaster:e</title>
<path fill="none" stroke="#000000" d="M649.292,-374.1456C598.9964,-394.5467 676.3644,-535.7 604.5,-535.7"/>
<polygon fill="#000000" stroke="#000000" points="655.6159,-373.0571 664.1107,-375.2478 659.558,-372.3786 663.5,-371.7 663.5,-371.7 663.5,-371.7 659.558,-372.3786 662.8893,-368.1522 655.6159,-373.0571 655.6159,-373.0571"/>
<ellipse fill="none" stroke="#000000" cx="652.4623" cy="-373.6" rx="3.2" ry="3.2"/>
</g>
</g>
</svg>
