<?xml version="1.0" encoding="UTF-8" standalone="no"?>
<!DOCTYPE svg PUBLIC "-//W3C//DTD SVG 1.1//EN"
 "http://www.w3.org/Graphics/SVG/1.1/DTD/svg11.dtd">
<!-- Generated by graphviz version 2.40.1 (20161225.0304)
 -->
<!-- Title: oneDegreeRelationshipsDiagramImplied Pages: 1 -->
<svg width="793pt" height="500pt"
 viewBox="0.00 0.00 793.00 500.20" xmlns="http://www.w3.org/2000/svg" xmlns:xlink="http://www.w3.org/1999/xlink">
<g id="graph0" class="graph" transform="scale(1 1) rotate(0) translate(4 496.2)">
<title>oneDegreeRelationshipsDiagramImplied</title>
<polygon fill="#ffffff" stroke="transparent" points="-4,4 -4,-496.2 789,-496.2 789,4 -4,4"/>
<text text-anchor="middle" x="72.4936" y="-7.3" font-family="Helvetica,sans-Serif" font-size="11.00" fill="#000000">Generated by SchemaSpy</text>
<!-- cabah_AnalysisUnit -->
<g id="node1" class="node">
<title>cabah_AnalysisUnit</title>
<g id="a_node1"><a xlink:href="../../tables/cabah_AnalysisUnit.html" xlink:title="cabah_AnalysisUnit" target="_top">
<polygon fill="#ffffff" stroke="transparent" points="384,-157.7 384,-467.7 615,-467.7 615,-157.7 384,-157.7"/>
<polygon fill="#f5f5f5" stroke="transparent" points="386.5,-442.7 386.5,-465.7 613.5,-465.7 613.5,-442.7 386.5,-442.7"/>
<polygon fill="none" stroke="#000000" points="386.5,-442.7 386.5,-465.7 613.5,-465.7 613.5,-442.7 386.5,-442.7"/>
<text text-anchor="start" x="391.5" y="-451.3" font-family="Helvetica,sans-Serif" font-weight="bold" font-size="11.00" fill="#000000">cabah_AnalysisUnit</text>
<text text-anchor="start" x="578.5437" y="-450.8" font-family="Helvetica,sans-Serif" font-size="11.00" fill="#000000">[table]</text>
<polygon fill="none" stroke="#000000" points="386.5,-420.7 386.5,-442.7 521.5,-442.7 521.5,-420.7 386.5,-420.7"/>
<image xlink:href="../../images/primaryKeys.png" width="11px" height="12px" preserveAspectRatio="xMinYMin meet" x="391.5" y="-437.7"/>
<text text-anchor="start" x="406.5" y="-427.8" font-family="Helvetica,sans-Serif" font-size="11.00" fill="#000000">ANLYSUNTID</text>
<polygon fill="none" stroke="#000000" points="521.5,-420.7 521.5,-442.7 613.5,-442.7 613.5,-420.7 521.5,-420.7"/>
<text text-anchor="start" x="524.5" y="-428.4" font-family="Helvetica,sans-Serif" font-size="11.00" fill="#000000">int4[10]</text>
<polygon fill="none" stroke="#000000" points="386.5,-398.7 386.5,-420.7 521.5,-420.7 521.5,-398.7 386.5,-398.7"/>
<image xlink:href="../../images/foreignKeys.png" width="11px" height="12px" preserveAspectRatio="xMinYMin meet" x="391.5" y="-415.7"/>
<text text-anchor="start" x="406.5" y="-405.8" font-family="Helvetica,sans-Serif" font-size="11.00" fill="#000000">NEO_UNITID</text>
<polygon fill="none" stroke="#000000" points="521.5,-398.7 521.5,-420.7 613.5,-420.7 613.5,-398.7 521.5,-398.7"/>
<text text-anchor="start" x="524.5" y="-406.4" font-family="Helvetica,sans-Serif" font-size="11.00" fill="#000000">int4[10]</text>
<polygon fill="none" stroke="#000000" points="386.5,-376.7 386.5,-398.7 521.5,-398.7 521.5,-376.7 386.5,-376.7"/>
<text text-anchor="start" x="406.5" y="-383.8" font-family="Helvetica,sans-Serif" font-size="11.00" fill="#000000">AUIT_NAME</text>
<polygon fill="none" stroke="#000000" points="521.5,-376.7 521.5,-398.7 613.5,-398.7 613.5,-376.7 521.5,-376.7"/>
<text text-anchor="start" x="524.5" y="-384.4" font-family="Helvetica,sans-Serif" font-size="11.00" fill="#000000">text[2147483647]</text>
<polygon fill="none" stroke="#000000" points="386.5,-354.7 386.5,-376.7 521.5,-376.7 521.5,-354.7 386.5,-354.7"/>
<text text-anchor="start" x="406.5" y="-361.8" font-family="Helvetica,sans-Serif" font-size="11.00" fill="#000000">AUIT_DEPTH</text>
<polygon fill="none" stroke="#000000" points="521.5,-354.7 521.5,-376.7 613.5,-376.7 613.5,-354.7 521.5,-354.7"/>
<text text-anchor="start" x="524.5" y="-362.4" font-family="Helvetica,sans-Serif" font-size="11.00" fill="#000000">numeric[0]</text>
<polygon fill="none" stroke="#000000" points="386.5,-332.7 386.5,-354.7 521.5,-354.7 521.5,-332.7 386.5,-332.7"/>
<text text-anchor="start" x="406.5" y="-339.8" font-family="Helvetica,sans-Serif" font-size="11.00" fill="#000000">AUIT_THICK</text>
<polygon fill="none" stroke="#000000" points="521.5,-332.7 521.5,-354.7 613.5,-354.7 613.5,-332.7 521.5,-332.7"/>
<text text-anchor="start" x="524.5" y="-340.4" font-family="Helvetica,sans-Serif" font-size="11.00" fill="#000000">numeric[0]</text>
<polygon fill="none" stroke="#000000" points="386.5,-310.7 386.5,-332.7 521.5,-332.7 521.5,-310.7 386.5,-310.7"/>
<image xlink:href="../../images/foreignKeys.png" width="11px" height="12px" preserveAspectRatio="xMinYMin meet" x="391.5" y="-327.7"/>
<text text-anchor="start" x="406.5" y="-317.8" font-family="Helvetica,sans-Serif" font-size="11.00" fill="#000000">FACIESID</text>
<polygon fill="none" stroke="#000000" points="521.5,-310.7 521.5,-332.7 613.5,-332.7 613.5,-310.7 521.5,-310.7"/>
<text text-anchor="start" x="524.5" y="-318.4" font-family="Helvetica,sans-Serif" font-size="11.00" fill="#000000">int2[5]</text>
<polygon fill="none" stroke="#000000" points="386.5,-288.7 386.5,-310.7 521.5,-310.7 521.5,-288.7 386.5,-288.7"/>
<text text-anchor="start" x="406.5" y="-295.8" font-family="Helvetica,sans-Serif" font-size="11.00" fill="#000000">AUIT_MIXED</text>
<polygon fill="none" stroke="#000000" points="521.5,-288.7 521.5,-310.7 613.5,-310.7 613.5,-288.7 521.5,-288.7"/>
<text text-anchor="start" x="524.5" y="-296.4" font-family="Helvetica,sans-Serif" font-size="11.00" fill="#000000">bool[1]</text>
<polygon fill="none" stroke="#000000" points="386.5,-266.7 386.5,-288.7 521.5,-288.7 521.5,-266.7 386.5,-266.7"/>
<text text-anchor="start" x="406.5" y="-273.8" font-family="Helvetica,sans-Serif" font-size="11.00" fill="#000000">AUIT_ISGN</text>
<polygon fill="none" stroke="#000000" points="521.5,-266.7 521.5,-288.7 613.5,-288.7 613.5,-266.7 521.5,-266.7"/>
<text text-anchor="start" x="524.5" y="-274.4" font-family="Helvetica,sans-Serif" font-size="11.00" fill="#000000">text[2147483647]</text>
<polygon fill="none" stroke="#000000" points="386.5,-244.7 386.5,-266.7 521.5,-266.7 521.5,-244.7 386.5,-244.7"/>
<text text-anchor="start" x="406.5" y="-251.8" font-family="Helvetica,sans-Serif" font-size="11.00" fill="#000000">AUIT_NOTES</text>
<polygon fill="none" stroke="#000000" points="521.5,-244.7 521.5,-266.7 613.5,-266.7 613.5,-244.7 521.5,-244.7"/>
<text text-anchor="start" x="524.5" y="-252.4" font-family="Helvetica,sans-Serif" font-size="11.00" fill="#000000">text[2147483647]</text>
<polygon fill="none" stroke="#000000" points="386.5,-222.7 386.5,-244.7 521.5,-244.7 521.5,-222.7 386.5,-222.7"/>
<text text-anchor="start" x="406.5" y="-229.8" font-family="Helvetica,sans-Serif" font-size="11.00" fill="#000000">CREATED_AT</text>
<polygon fill="none" stroke="#000000" points="521.5,-222.7 521.5,-244.7 613.5,-244.7 613.5,-222.7 521.5,-222.7"/>
<text text-anchor="start" x="524.1023" y="-230.4" font-family="Helvetica,sans-Serif" font-size="11.00" fill="#000000">timestamptz[35,6]</text>
<polygon fill="none" stroke="#000000" points="386.5,-200.7 386.5,-222.7 521.5,-222.7 521.5,-200.7 386.5,-200.7"/>
<text text-anchor="start" x="406.5" y="-207.8" font-family="Helvetica,sans-Serif" font-size="11.00" fill="#000000">UPDATED_AT</text>
<polygon fill="none" stroke="#000000" points="521.5,-200.7 521.5,-222.7 613.5,-222.7 613.5,-200.7 521.5,-200.7"/>
<text text-anchor="start" x="524.1023" y="-208.4" font-family="Helvetica,sans-Serif" font-size="11.00" fill="#000000">timestamptz[35,6]</text>
<polygon fill="none" stroke="#000000" points="386.5,-178.7 386.5,-200.7 521.5,-200.7 521.5,-178.7 386.5,-178.7"/>
<image xlink:href="../../images/foreignKeys.png" width="11px" height="12px" preserveAspectRatio="xMinYMin meet" x="391.5" y="-195.7"/>
<text text-anchor="start" x="406.5" y="-185.8" font-family="Helvetica,sans-Serif" font-size="11.00" fill="#000000">UNITID</text>
<polygon fill="none" stroke="#000000" points="521.5,-178.7 521.5,-200.7 613.5,-200.7 613.5,-178.7 521.5,-178.7"/>
<text text-anchor="start" x="524.5" y="-186.4" font-family="Helvetica,sans-Serif" font-size="11.00" fill="#000000">int4[10]</text>
<polygon fill="#ffffff" stroke="transparent" points="386.5,-159.7 386.5,-178.7 431.5,-178.7 431.5,-159.7 386.5,-159.7"/>
<polygon fill="none" stroke="#000000" points="386.5,-159.7 386.5,-178.7 431.5,-178.7 431.5,-159.7 386.5,-159.7"/>
<text text-anchor="start" x="389.5" y="-165.8" font-family="Helvetica,sans-Serif" font-size="11.00" fill="#000000">&lt; 3</text>
<polygon fill="#ffffff" stroke="transparent" points="431.5,-159.7 431.5,-178.7 521.5,-178.7 521.5,-159.7 431.5,-159.7"/>
<polygon fill="none" stroke="#000000" points="431.5,-159.7 431.5,-178.7 521.5,-178.7 521.5,-159.7 431.5,-159.7"/>
<text text-anchor="start" x="458.594" y="-165.8" font-family="Helvetica,sans-Serif" font-size="11.00" fill="#000000">15.022 rows</text>
<polygon fill="#ffffff" stroke="transparent" points="521.5,-159.7 521.5,-178.7 613.5,-178.7 613.5,-159.7 521.5,-159.7"/>
<polygon fill="none" stroke="#000000" points="521.5,-159.7 521.5,-178.7 613.5,-178.7 613.5,-159.7 521.5,-159.7"/>
<text text-anchor="start" x="594.9053" y="-165.8" font-family="Helvetica,sans-Serif" font-size="11.00" fill="#000000">1 &gt;</text>
<polygon fill="none" stroke="#000000" stroke-width="2" points="385,-158.7 385,-466.7 614,-466.7 614,-158.7 385,-158.7"/>
</a>
</g>
</g>
<!-- cabah_depositID -->
<g id="node2" class="node">
<title>cabah_depositID</title>
<g id="a_node2"><a xlink:href="../../tables/cabah_depositID.html" xlink:title="cabah_depositID" target="_top">
<polygon fill="#ffffff" stroke="transparent" points="8,-144.2 8,-271.2 143,-271.2 143,-144.2 8,-144.2"/>
<polygon fill="#f5f5f5" stroke="transparent" points="8.5,-247.7 8.5,-270.7 143.5,-270.7 143.5,-247.7 8.5,-247.7"/>
<polygon fill="none" stroke="#000000" points="8.5,-247.7 8.5,-270.7 143.5,-270.7 143.5,-247.7 8.5,-247.7"/>
<text text-anchor="start" x="13.5" y="-256.3" font-family="Helvetica,sans-Serif" font-weight="bold" font-size="11.00" fill="#000000">cabah_depositID</text>
<text text-anchor="start" x="109.0219" y="-255.8" font-family="Helvetica,sans-Serif" font-size="11.00" fill="#000000">[table]</text>
<polygon fill="none" stroke="#000000" points="8.5,-225.7 8.5,-247.7 143.5,-247.7 143.5,-225.7 8.5,-225.7"/>
<image xlink:href="../../images/primaryKeys.png" width="11px" height="12px" preserveAspectRatio="xMinYMin meet" x="13.5" y="-242.7"/>
<text text-anchor="start" x="37.5" y="-232.8" font-family="Helvetica,sans-Serif" font-size="11.00" fill="#000000">DEPOSITID</text>
<polygon fill="#ffffff" stroke="transparent" points="8.5,-203.7 8.5,-225.7 143.5,-225.7 143.5,-203.7 8.5,-203.7"/>
<polygon fill="none" stroke="#000000" points="8.5,-203.7 8.5,-225.7 143.5,-225.7 143.5,-203.7 8.5,-203.7"/>
<text text-anchor="start" x="37.5" y="-210.8" font-family="Helvetica,sans-Serif" font-size="11.00" fill="#000000">DEPOSIT</text>
<polygon fill="none" stroke="#000000" points="8.5,-181.7 8.5,-203.7 143.5,-203.7 143.5,-181.7 8.5,-181.7"/>
<image xlink:href="../../images/foreignKeys.png" width="11px" height="12px" preserveAspectRatio="xMinYMin meet" x="13.5" y="-198.7"/>
<text text-anchor="start" x="37.5" y="-188.8" font-family="Helvetica,sans-Serif" font-size="11.00" fill="#000000">PARENTID</text>
<polygon fill="none" stroke="#000000" points="8.5,-162.7 8.5,-181.7 143.5,-181.7 143.5,-162.7 8.5,-162.7"/>
<text text-anchor="start" x="11.5" y="-168.8" font-family="Helvetica,sans-Serif" font-size="11.00" fill="#000000">...</text>
<polygon fill="#ffffff" stroke="transparent" points="8.5,-143.7 8.5,-162.7 50.5,-162.7 50.5,-143.7 8.5,-143.7"/>
<polygon fill="none" stroke="#000000" points="8.5,-143.7 8.5,-162.7 50.5,-162.7 50.5,-143.7 8.5,-143.7"/>
<text text-anchor="start" x="11.5" y="-149.8" font-family="Helvetica,sans-Serif" font-size="11.00" fill="#000000">&lt; 1</text>
<polygon fill="#ffffff" stroke="transparent" points="50.5,-143.7 50.5,-162.7 111.5,-162.7 111.5,-143.7 50.5,-143.7"/>
<polygon fill="none" stroke="#000000" points="50.5,-143.7 50.5,-162.7 111.5,-162.7 111.5,-143.7 50.5,-143.7"/>
<text text-anchor="start" x="63.8807" y="-149.8" font-family="Helvetica,sans-Serif" font-size="11.00" fill="#000000">119 rows</text>
<polygon fill="#ffffff" stroke="transparent" points="111.5,-143.7 111.5,-162.7 143.5,-162.7 143.5,-143.7 111.5,-143.7"/>
<polygon fill="none" stroke="#000000" points="111.5,-143.7 111.5,-162.7 143.5,-162.7 143.5,-143.7 111.5,-143.7"/>
<text text-anchor="start" x="124.9053" y="-149.8" font-family="Helvetica,sans-Serif" font-size="11.00" fill="#000000">3 &gt;</text>
</a>
</g>
</g>
<!-- cabah_AnalysisUnit&#45;&gt;cabah_depositID -->
<g id="edge1" class="edge">
<title>cabah_AnalysisUnit:w&#45;&gt;cabah_depositID:e</title>
<path fill="none" stroke="#000000" d="M371.6762,-322.0059C292.0901,-325.2859 256.0732,-352.9583 184,-307.7 153.2344,-288.3808 179.8284,-236.7 143.5,-236.7"/>
<polygon fill="#000000" stroke="#000000" points="378.5017,-321.8651 386.5743,-325.2992 382.5009,-321.7826 386.5,-321.7 386.5,-321.7 386.5,-321.7 382.5009,-321.7826 386.4257,-318.1008 378.5017,-321.8651 378.5017,-321.8651"/>
<ellipse fill="none" stroke="#000000" cx="375.3024" cy="-321.9312" rx="3.2" ry="3.2"/>
</g>
<!-- global_UnitMaster -->
<g id="node3" class="node">
<title>global_UnitMaster</title>
<g id="a_node3"><a xlink:href="../../tables/global_UnitMaster.html" xlink:title="global_UnitMaster" target="_top">
<polygon fill="#ffffff" stroke="transparent" points="192,-38.2 192,-297.2 335,-297.2 335,-38.2 192,-38.2"/>
<polygon fill="#f5f5f5" stroke="transparent" points="192.5,-273.7 192.5,-296.7 335.5,-296.7 335.5,-273.7 192.5,-273.7"/>
<polygon fill="none" stroke="#000000" points="192.5,-273.7 192.5,-296.7 335.5,-296.7 335.5,-273.7 192.5,-273.7"/>
<text text-anchor="start" x="197.5" y="-282.3" font-family="Helvetica,sans-Serif" font-weight="bold" font-size="11.00" fill="#000000">global_UnitMaster</text>
<text text-anchor="start" x="301.0219" y="-281.8" font-family="Helvetica,sans-Serif" font-size="11.00" fill="#000000">[table]</text>
<polygon fill="none" stroke="#000000" points="192.5,-251.7 192.5,-273.7 335.5,-273.7 335.5,-251.7 192.5,-251.7"/>
<image xlink:href="../../images/primaryKeys.png" width="11px" height="12px" preserveAspectRatio="xMinYMin meet" x="197.5" y="-268.7"/>
<text text-anchor="start" x="221.5" y="-258.8" font-family="Helvetica,sans-Serif" font-size="11.00" fill="#000000">UNITID</text>
<polygon fill="none" stroke="#000000" points="192.5,-229.7 192.5,-251.7 335.5,-251.7 335.5,-229.7 192.5,-229.7"/>
<image xlink:href="../../images/foreignKeys.png" width="11px" height="12px" preserveAspectRatio="xMinYMin meet" x="197.5" y="-246.7"/>
<text text-anchor="start" x="221.5" y="-236.8" font-family="Helvetica,sans-Serif" font-size="11.00" fill="#000000">SITEID</text>
<polygon fill="#ffffff" stroke="transparent" points="192.5,-207.7 192.5,-229.7 335.5,-229.7 335.5,-207.7 192.5,-207.7"/>
<polygon fill="none" stroke="#000000" points="192.5,-207.7 192.5,-229.7 335.5,-229.7 335.5,-207.7 192.5,-207.7"/>
<text text-anchor="start" x="221.5" y="-214.8" font-family="Helvetica,sans-Serif" font-size="11.00" fill="#000000">UNITHANDLE</text>
<polygon fill="none" stroke="#000000" points="192.5,-185.7 192.5,-207.7 335.5,-207.7 335.5,-185.7 192.5,-185.7"/>
<image xlink:href="../../images/foreignKeys.png" width="11px" height="12px" preserveAspectRatio="xMinYMin meet" x="197.5" y="-202.7"/>
<text text-anchor="start" x="221.5" y="-192.8" font-family="Helvetica,sans-Serif" font-size="11.00" fill="#000000">UNITTYPEID</text>
<polygon fill="none" stroke="#000000" points="192.5,-163.7 192.5,-185.7 335.5,-185.7 335.5,-163.7 192.5,-163.7"/>
<image xlink:href="../../images/foreignKeys.png" width="11px" height="12px" preserveAspectRatio="xMinYMin meet" x="197.5" y="-180.7"/>
<text text-anchor="start" x="221.5" y="-170.8" font-family="Helvetica,sans-Serif" font-size="11.00" fill="#000000">COLLECTID</text>
<polygon fill="none" stroke="#000000" points="192.5,-141.7 192.5,-163.7 335.5,-163.7 335.5,-141.7 192.5,-141.7"/>
<image xlink:href="../../images/foreignKeys.png" width="11px" height="12px" preserveAspectRatio="xMinYMin meet" x="197.5" y="-158.7"/>
<text text-anchor="start" x="221.5" y="-148.8" font-family="Helvetica,sans-Serif" font-size="11.00" fill="#000000">DEPOSITID</text>
<polygon fill="#ffffff" stroke="transparent" points="192.5,-119.7 192.5,-141.7 335.5,-141.7 335.5,-119.7 192.5,-119.7"/>
<polygon fill="none" stroke="#000000" points="192.5,-119.7 192.5,-141.7 335.5,-141.7 335.5,-119.7 192.5,-119.7"/>
<text text-anchor="start" x="221.5" y="-126.8" font-family="Helvetica,sans-Serif" font-size="11.00" fill="#000000">NEO_HANDLE</text>
<polygon fill="none" stroke="#000000" points="192.5,-97.7 192.5,-119.7 335.5,-119.7 335.5,-97.7 192.5,-97.7"/>
<image xlink:href="../../images/foreignKeys.png" width="11px" height="12px" preserveAspectRatio="xMinYMin meet" x="197.5" y="-114.7"/>
<text text-anchor="start" x="221.5" y="-104.8" font-family="Helvetica,sans-Serif" font-size="11.00" fill="#000000">UNIT_REF</text>
<polygon fill="#ffffff" stroke="transparent" points="192.5,-75.7 192.5,-97.7 335.5,-97.7 335.5,-75.7 192.5,-75.7"/>
<polygon fill="none" stroke="#000000" points="192.5,-75.7 192.5,-97.7 335.5,-97.7 335.5,-75.7 192.5,-75.7"/>
<text text-anchor="start" x="221.5" y="-82.8" font-family="Helvetica,sans-Serif" font-size="11.00" fill="#000000">NEO_UNITID</text>
<polygon fill="none" stroke="#000000" points="192.5,-56.7 192.5,-75.7 335.5,-75.7 335.5,-56.7 192.5,-56.7"/>
<text text-anchor="start" x="195.5" y="-62.8" font-family="Helvetica,sans-Serif" font-size="11.00" fill="#000000">...</text>
<polygon fill="#ffffff" stroke="transparent" points="192.5,-37.7 192.5,-56.7 235.5,-56.7 235.5,-37.7 192.5,-37.7"/>
<polygon fill="none" stroke="#000000" points="192.5,-37.7 192.5,-56.7 235.5,-56.7 235.5,-37.7 192.5,-37.7"/>
<text text-anchor="start" x="195.5" y="-43.8" font-family="Helvetica,sans-Serif" font-size="11.00" fill="#000000">&lt; 5</text>
<polygon fill="#ffffff" stroke="transparent" points="235.5,-37.7 235.5,-56.7 296.5,-56.7 296.5,-37.7 235.5,-37.7"/>
<polygon fill="none" stroke="#000000" points="235.5,-37.7 235.5,-56.7 296.5,-56.7 296.5,-37.7 235.5,-37.7"/>
<text text-anchor="start" x="248.8807" y="-43.8" font-family="Helvetica,sans-Serif" font-size="11.00" fill="#000000">607 rows</text>
<polygon fill="#ffffff" stroke="transparent" points="296.5,-37.7 296.5,-56.7 335.5,-56.7 335.5,-37.7 296.5,-37.7"/>
<polygon fill="none" stroke="#000000" points="296.5,-37.7 296.5,-56.7 335.5,-56.7 335.5,-37.7 296.5,-37.7"/>
<text text-anchor="start" x="310.7904" y="-43.8" font-family="Helvetica,sans-Serif" font-size="11.00" fill="#000000">11 &gt;</text>
</a>
</g>
</g>
<!-- cabah_AnalysisUnit&#45;&gt;global_UnitMaster -->
<g id="edge2" class="edge">
<title>cabah_AnalysisUnit:w&#45;&gt;global_UnitMaster:e</title>
<path fill="none" stroke="#000000" d="M372.9434,-404.6264C326.9158,-363.5339 402.7738,-86.7 335.5,-86.7"/>
<polygon fill="#000000" stroke="#000000" points="379.0075,-406.8959 385.2382,-413.0716 382.7538,-408.2979 386.5,-409.7 386.5,-409.7 386.5,-409.7 382.7538,-408.2979 387.7618,-406.3284 379.0075,-406.8959 379.0075,-406.8959"/>
<ellipse fill="none" stroke="#000000" cx="376.0105" cy="-405.7743" rx="3.2" ry="3.2"/>
</g>
<!-- cabah_AnalysisUnit&#45;&gt;global_UnitMaster -->
<g id="edge3" class="edge">
<title>cabah_AnalysisUnit:w&#45;&gt;global_UnitMaster:e</title>
<path fill="none" stroke="#000000" stroke-dasharray="5,2" d="M372.6487,-194.2665C353.9288,-210.248 369.0486,-262.7 335.5,-262.7"/>
<polygon fill="#000000" stroke="#000000" points="378.9022,-192.2049 387.6272,-193.119 382.7011,-190.9524 386.5,-189.7 386.5,-189.7 386.5,-189.7 382.7011,-190.9524 385.3728,-186.281 378.9022,-192.2049 378.9022,-192.2049"/>
<ellipse fill="none" stroke="#000000" cx="375.8631" cy="-193.2068" rx="3.2" ry="3.2"/>
</g>
<!-- global_UnitMaster&#45;&gt;cabah_depositID -->
<g id="edge4" class="edge">
<title>global_UnitMaster:w&#45;&gt;cabah_depositID:e</title>
<path fill="none" stroke="#000000" d="M178.603,-157.2162C158.2145,-174.6639 180.643,-236.7 143.5,-236.7"/>
<polygon fill="#000000" stroke="#000000" points="184.8917,-155.1726 193.6127,-156.1237 188.6958,-153.9363 192.5,-152.7 192.5,-152.7 192.5,-152.7 188.6958,-153.9363 191.3873,-149.2763 184.8917,-155.1726 184.8917,-155.1726"/>
<ellipse fill="none" stroke="#000000" cx="181.8483" cy="-156.1616" rx="3.2" ry="3.2"/>
</g>
<!-- ippd_Sample -->
<g id="node4" class="node">
<title>ippd_Sample</title>
<g id="a_node4"><a xlink:href="../../tables/ippd_Sample.html" xlink:title="ippd_Sample" target="_top">
<polygon fill="#ffffff" stroke="transparent" points="664,-317.2 664,-488.2 777,-488.2 777,-317.2 664,-317.2"/>
<polygon fill="#f5f5f5" stroke="transparent" points="664.5,-464.7 664.5,-487.7 777.5,-487.7 777.5,-464.7 664.5,-464.7"/>
<polygon fill="none" stroke="#000000" points="664.5,-464.7 664.5,-487.7 777.5,-487.7 777.5,-464.7 664.5,-464.7"/>
<text text-anchor="start" x="669.5" y="-473.3" font-family="Helvetica,sans-Serif" font-weight="bold" font-size="11.00" fill="#000000">ippd_Sample</text>
<text text-anchor="start" x="743.0219" y="-472.8" font-family="Helvetica,sans-Serif" font-size="11.00" fill="#000000">[table]</text>
<polygon fill="none" stroke="#000000" points="664.5,-442.7 664.5,-464.7 777.5,-464.7 777.5,-442.7 664.5,-442.7"/>
<image xlink:href="../../images/primaryKeys.png" width="11px" height="12px" preserveAspectRatio="xMinYMin meet" x="669.5" y="-459.7"/>
<text text-anchor="start" x="688.5" y="-449.8" font-family="Helvetica,sans-Serif" font-size="11.00" fill="#000000">SAMPLEID</text>
<polygon fill="none" stroke="#000000" points="664.5,-420.7 664.5,-442.7 777.5,-442.7 777.5,-420.7 664.5,-420.7"/>
<image xlink:href="../../images/foreignKeys.png" width="11px" height="12px" preserveAspectRatio="xMinYMin meet" x="669.5" y="-437.7"/>
<text text-anchor="start" x="688.5" y="-427.8" font-family="Helvetica,sans-Serif" font-size="11.00" fill="#000000">ANLYSUNTID</text>
<polygon fill="none" stroke="#000000" points="664.5,-398.7 664.5,-420.7 777.5,-420.7 777.5,-398.7 664.5,-398.7"/>
<image xlink:href="../../images/foreignKeys.png" width="11px" height="12px" preserveAspectRatio="xMinYMin meet" x="669.5" y="-415.7"/>
<text text-anchor="start" x="688.5" y="-405.8" font-family="Helvetica,sans-Serif" font-size="11.00" fill="#000000">NEODSETID</text>
<polygon fill="none" stroke="#000000" points="664.5,-376.7 664.5,-398.7 777.5,-398.7 777.5,-376.7 664.5,-376.7"/>
<image xlink:href="../../images/foreignKeys.png" width="11px" height="12px" preserveAspectRatio="xMinYMin meet" x="669.5" y="-393.7"/>
<text text-anchor="start" x="688.5" y="-383.8" font-family="Helvetica,sans-Serif" font-size="11.00" fill="#000000">TAXONID</text>
<polygon fill="none" stroke="#000000" points="664.5,-354.7 664.5,-376.7 777.5,-376.7 777.5,-354.7 664.5,-354.7"/>
<image xlink:href="../../images/foreignKeys.png" width="11px" height="12px" preserveAspectRatio="xMinYMin meet" x="669.5" y="-371.7"/>
<text text-anchor="start" x="688.5" y="-361.8" font-family="Helvetica,sans-Serif" font-size="11.00" fill="#000000">DATASETID</text>
<polygon fill="none" stroke="#000000" points="664.5,-335.7 664.5,-354.7 777.5,-354.7 777.5,-335.7 664.5,-335.7"/>
<text text-anchor="start" x="667.5" y="-341.8" font-family="Helvetica,sans-Serif" font-size="11.00" fill="#000000">...</text>
<polygon fill="#ffffff" stroke="transparent" points="664.5,-316.7 664.5,-335.7 688.5,-335.7 688.5,-316.7 664.5,-316.7"/>
<polygon fill="none" stroke="#000000" points="664.5,-316.7 664.5,-335.7 688.5,-335.7 688.5,-316.7 664.5,-316.7"/>
<text text-anchor="start" x="667.5" y="-322.8" font-family="Helvetica,sans-Serif" font-size="11.00" fill="#000000">&lt; 4</text>
<polygon fill="#ffffff" stroke="transparent" points="688.5,-316.7 688.5,-335.7 754.5,-335.7 754.5,-316.7 688.5,-316.7"/>
<polygon fill="none" stroke="#000000" points="688.5,-316.7 688.5,-335.7 754.5,-335.7 754.5,-316.7 688.5,-316.7"/>
<text text-anchor="start" x="691.594" y="-322.8" font-family="Helvetica,sans-Serif" font-size="11.00" fill="#000000">18.370 rows</text>
<polygon fill="#ffffff" stroke="transparent" points="754.5,-316.7 754.5,-335.7 777.5,-335.7 777.5,-316.7 754.5,-316.7"/>
<polygon fill="none" stroke="#000000" points="754.5,-316.7 754.5,-335.7 777.5,-335.7 777.5,-316.7 754.5,-316.7"/>
<text text-anchor="start" x="758.9053" y="-322.8" font-family="Helvetica,sans-Serif" font-size="11.00" fill="#000000">3 &gt;</text>
</a>
</g>
</g>
<!-- ippd_Sample&#45;&gt;cabah_AnalysisUnit -->
<g id="edge5" class="edge">
<title>ippd_Sample:w&#45;&gt;cabah_AnalysisUnit:e</title>
<path fill="none" stroke="#000000" d="M649.776,-431.7C637.7815,-431.7 630.3229,-431.7 613.5,-431.7"/>
<polygon fill="#000000" stroke="#000000" points="656.5,-431.7001 664.5,-435.3 660.5,-431.7 664.5,-431.7 664.5,-431.7 664.5,-431.7 660.5,-431.7 664.5,-428.1 656.5,-431.7001 656.5,-431.7001"/>
<ellipse fill="none" stroke="#000000" cx="653.3" cy="-431.7001" rx="3.2" ry="3.2"/>
</g>
</g>
</svg>
