<?xml version="1.0" encoding="UTF-8" standalone="no"?>
<!DOCTYPE svg PUBLIC "-//W3C//DTD SVG 1.1//EN"
 "http://www.w3.org/Graphics/SVG/1.1/DTD/svg11.dtd">
<!-- Generated by graphviz version 2.40.1 (20161225.0304)
 -->
<!-- Title: oneDegreeRelationshipsDiagramImplied Pages: 1 -->
<svg width="436pt" height="485pt"
 viewBox="0.00 0.00 436.00 485.20" xmlns="http://www.w3.org/2000/svg" xmlns:xlink="http://www.w3.org/1999/xlink">
<g id="graph0" class="graph" transform="scale(1 1) rotate(0) translate(4 481.2)">
<title>oneDegreeRelationshipsDiagramImplied</title>
<polygon fill="#ffffff" stroke="transparent" points="-4,4 -4,-481.2 432,-481.2 432,4 -4,4"/>
<text text-anchor="middle" x="72.4936" y="-7.3" font-family="Helvetica,sans-Serif" font-size="11.00" fill="#000000">Generated by SchemaSpy</text>
<!-- char_DataCore -->
<g id="node1" class="node">
<title>char_DataCore</title>
<g id="a_node1"><a xlink:href="../../tables/char_DataCore.html" xlink:title="char_DataCore" target="_top">
<polygon fill="#ffffff" stroke="transparent" points="296,-38.2 296,-473.2 420,-473.2 420,-38.2 296,-38.2"/>
<polygon fill="#f5f5f5" stroke="transparent" points="296,-449.7 296,-472.7 420,-472.7 420,-449.7 296,-449.7"/>
<polygon fill="none" stroke="#000000" points="296,-449.7 296,-472.7 420,-472.7 420,-449.7 296,-449.7"/>
<text text-anchor="start" x="301" y="-458.3" font-family="Helvetica,sans-Serif" font-weight="bold" font-size="11.00" fill="#000000">char_DataCore</text>
<text text-anchor="start" x="385.5219" y="-457.8" font-family="Helvetica,sans-Serif" font-size="11.00" fill="#000000">[table]</text>
<polygon fill="none" stroke="#000000" points="296,-427.7 296,-449.7 420,-449.7 420,-427.7 296,-427.7"/>
<image xlink:href="../../images/primaryKeys.png" width="11px" height="12px" preserveAspectRatio="xMinYMin meet" x="301" y="-444.7"/>
<text text-anchor="start" x="325" y="-434.8" font-family="Helvetica,sans-Serif" font-size="11.00" fill="#000000">OBSID</text>
<polygon fill="none" stroke="#000000" points="296,-405.7 296,-427.7 420,-427.7 420,-405.7 296,-405.7"/>
<image xlink:href="../../images/foreignKeys.png" width="11px" height="12px" preserveAspectRatio="xMinYMin meet" x="301" y="-422.7"/>
<text text-anchor="start" x="325" y="-412.8" font-family="Helvetica,sans-Serif" font-size="11.00" fill="#000000">SMPID</text>
<polygon fill="none" stroke="#000000" points="296,-383.7 296,-405.7 420,-405.7 420,-383.7 296,-383.7"/>
<image xlink:href="../../images/foreignKeys.png" width="11px" height="12px" preserveAspectRatio="xMinYMin meet" x="301" y="-400.7"/>
<text text-anchor="start" x="325" y="-390.8" font-family="Helvetica,sans-Serif" font-size="11.00" fill="#000000">LAB_ORIGID</text>
<polygon fill="none" stroke="#000000" points="296,-361.7 296,-383.7 420,-383.7 420,-361.7 296,-361.7"/>
<image xlink:href="../../images/foreignKeys.png" width="11px" height="12px" preserveAspectRatio="xMinYMin meet" x="301" y="-378.7"/>
<text text-anchor="start" x="325" y="-368.8" font-family="Helvetica,sans-Serif" font-size="11.00" fill="#000000">WHATAMI</text>
<polygon fill="none" stroke="#000000" points="296,-339.7 296,-361.7 420,-361.7 420,-339.7 296,-339.7"/>
<image xlink:href="../../images/foreignKeys.png" width="11px" height="12px" preserveAspectRatio="xMinYMin meet" x="301" y="-356.7"/>
<text text-anchor="start" x="325" y="-346.8" font-family="Helvetica,sans-Serif" font-size="11.00" fill="#000000">AGETYPEID</text>
<polygon fill="none" stroke="#000000" points="296,-317.7 296,-339.7 420,-339.7 420,-317.7 296,-317.7"/>
<image xlink:href="../../images/foreignKeys.png" width="11px" height="12px" preserveAspectRatio="xMinYMin meet" x="301" y="-334.7"/>
<text text-anchor="start" x="325" y="-324.8" font-family="Helvetica,sans-Serif" font-size="11.00" fill="#000000">METHODID</text>
<polygon fill="none" stroke="#000000" points="296,-295.7 296,-317.7 420,-317.7 420,-295.7 296,-295.7"/>
<image xlink:href="../../images/foreignKeys.png" width="11px" height="12px" preserveAspectRatio="xMinYMin meet" x="301" y="-312.7"/>
<text text-anchor="start" x="325" y="-302.8" font-family="Helvetica,sans-Serif" font-size="11.00" fill="#000000">MATERIA2ID</text>
<polygon fill="none" stroke="#000000" points="296,-273.7 296,-295.7 420,-295.7 420,-273.7 296,-273.7"/>
<image xlink:href="../../images/foreignKeys.png" width="11px" height="12px" preserveAspectRatio="xMinYMin meet" x="301" y="-290.7"/>
<text text-anchor="start" x="325" y="-280.8" font-family="Helvetica,sans-Serif" font-size="11.00" fill="#000000">CALCURVEID</text>
<polygon fill="none" stroke="#000000" points="296,-251.7 296,-273.7 420,-273.7 420,-251.7 296,-251.7"/>
<image xlink:href="../../images/foreignKeys.png" width="11px" height="12px" preserveAspectRatio="xMinYMin meet" x="301" y="-268.7"/>
<text text-anchor="start" x="325" y="-258.8" font-family="Helvetica,sans-Serif" font-size="11.00" fill="#000000">CALPROGID</text>
<polygon fill="none" stroke="#000000" points="296,-229.7 296,-251.7 420,-251.7 420,-229.7 296,-229.7"/>
<image xlink:href="../../images/foreignKeys.png" width="11px" height="12px" preserveAspectRatio="xMinYMin meet" x="301" y="-246.7"/>
<text text-anchor="start" x="325" y="-236.8" font-family="Helvetica,sans-Serif" font-size="11.00" fill="#000000">CHARMTDID</text>
<polygon fill="none" stroke="#000000" points="296,-207.7 296,-229.7 420,-229.7 420,-207.7 296,-207.7"/>
<image xlink:href="../../images/foreignKeys.png" width="11px" height="12px" preserveAspectRatio="xMinYMin meet" x="301" y="-224.7"/>
<text text-anchor="start" x="325" y="-214.8" font-family="Helvetica,sans-Serif" font-size="11.00" fill="#000000">CHARMEASID</text>
<polygon fill="none" stroke="#000000" points="296,-185.7 296,-207.7 420,-207.7 420,-185.7 296,-185.7"/>
<image xlink:href="../../images/foreignKeys.png" width="11px" height="12px" preserveAspectRatio="xMinYMin meet" x="301" y="-202.7"/>
<text text-anchor="start" x="325" y="-192.8" font-family="Helvetica,sans-Serif" font-size="11.00" fill="#000000">CHARSIZEID</text>
<polygon fill="none" stroke="#000000" points="296,-163.7 296,-185.7 420,-185.7 420,-163.7 296,-163.7"/>
<image xlink:href="../../images/foreignKeys.png" width="11px" height="12px" preserveAspectRatio="xMinYMin meet" x="301" y="-180.7"/>
<text text-anchor="start" x="325" y="-170.8" font-family="Helvetica,sans-Serif" font-size="11.00" fill="#000000">DATASRCID</text>
<polygon fill="none" stroke="#000000" points="296,-141.7 296,-163.7 420,-163.7 420,-141.7 296,-141.7"/>
<image xlink:href="../../images/foreignKeys.png" width="11px" height="12px" preserveAspectRatio="xMinYMin meet" x="301" y="-158.7"/>
<text text-anchor="start" x="325" y="-148.8" font-family="Helvetica,sans-Serif" font-size="11.00" fill="#000000">REFDBID1</text>
<polygon fill="none" stroke="#000000" points="296,-119.7 296,-141.7 420,-141.7 420,-119.7 296,-119.7"/>
<image xlink:href="../../images/foreignKeys.png" width="11px" height="12px" preserveAspectRatio="xMinYMin meet" x="301" y="-136.7"/>
<text text-anchor="start" x="325" y="-126.8" font-family="Helvetica,sans-Serif" font-size="11.00" fill="#000000">REFDBID2</text>
<polygon fill="none" stroke="#000000" points="296,-97.7 296,-119.7 420,-119.7 420,-97.7 296,-97.7"/>
<image xlink:href="../../images/foreignKeys.png" width="11px" height="12px" preserveAspectRatio="xMinYMin meet" x="301" y="-114.7"/>
<text text-anchor="start" x="325" y="-104.8" font-family="Helvetica,sans-Serif" font-size="11.00" fill="#000000">REFDBID3</text>
<polygon fill="none" stroke="#000000" points="296,-75.7 296,-97.7 420,-97.7 420,-75.7 296,-75.7"/>
<image xlink:href="../../images/foreignKeys.png" width="11px" height="12px" preserveAspectRatio="xMinYMin meet" x="301" y="-92.7"/>
<text text-anchor="start" x="325" y="-82.8" font-family="Helvetica,sans-Serif" font-size="11.00" fill="#000000">DBDOI</text>
<polygon fill="none" stroke="#000000" points="296,-56.7 296,-75.7 420,-75.7 420,-56.7 296,-56.7"/>
<text text-anchor="start" x="299" y="-62.8" font-family="Helvetica,sans-Serif" font-size="11.00" fill="#000000">...</text>
<polygon fill="#ffffff" stroke="transparent" points="296,-37.7 296,-56.7 333,-56.7 333,-37.7 296,-37.7"/>
<polygon fill="none" stroke="#000000" points="296,-37.7 296,-56.7 333,-56.7 333,-37.7 296,-37.7"/>
<text text-anchor="start" x="299" y="-43.8" font-family="Helvetica,sans-Serif" font-size="11.00" fill="#000000">&lt; 16</text>
<polygon fill="#ffffff" stroke="transparent" points="333,-37.7 333,-56.7 403,-56.7 403,-37.7 333,-37.7"/>
<polygon fill="none" stroke="#000000" points="333,-37.7 333,-56.7 403,-56.7 403,-37.7 333,-37.7"/>
<text text-anchor="start" x="340.094" y="-43.8" font-family="Helvetica,sans-Serif" font-size="11.00" fill="#000000">48.234 rows</text>
<polygon fill="#ffffff" stroke="transparent" points="403,-37.7 403,-56.7 420,-56.7 420,-37.7 403,-37.7"/>
<polygon fill="none" stroke="#000000" points="403,-37.7 403,-56.7 420,-56.7 420,-37.7 403,-37.7"/>
<text text-anchor="start" x="410.8862" y="-43.8" font-family="Helvetica,sans-Serif" font-size="11.00" fill="#000000"> &#160;</text>
</a>
</g>
</g>
<!-- cabah_charmethodID -->
<g id="node2" class="node">
<title>cabah_charmethodID</title>
<g id="a_node2"><a xlink:href="../../tables/cabah_charmethodID.html" xlink:title="cabah_charmethodID" target="_top">
<polygon fill="#ffffff" stroke="transparent" points="8,-98.7 8,-276.7 247,-276.7 247,-98.7 8,-98.7"/>
<polygon fill="#f5f5f5" stroke="transparent" points="10.5,-251.7 10.5,-274.7 245.5,-274.7 245.5,-251.7 10.5,-251.7"/>
<polygon fill="none" stroke="#000000" points="10.5,-251.7 10.5,-274.7 245.5,-274.7 245.5,-251.7 10.5,-251.7"/>
<text text-anchor="start" x="15.5" y="-260.3" font-family="Helvetica,sans-Serif" font-weight="bold" font-size="11.00" fill="#000000">cabah_charmethodID</text>
<text text-anchor="start" x="210.5437" y="-259.8" font-family="Helvetica,sans-Serif" font-size="11.00" fill="#000000">[table]</text>
<polygon fill="none" stroke="#000000" points="10.5,-229.7 10.5,-251.7 153.5,-251.7 153.5,-229.7 10.5,-229.7"/>
<image xlink:href="../../images/primaryKeys.png" width="11px" height="12px" preserveAspectRatio="xMinYMin meet" x="15.5" y="-246.7"/>
<text text-anchor="start" x="30.5" y="-236.8" font-family="Helvetica,sans-Serif" font-size="11.00" fill="#000000">CHARMTDID</text>
<polygon fill="none" stroke="#000000" points="153.5,-229.7 153.5,-251.7 245.5,-251.7 245.5,-229.7 153.5,-229.7"/>
<text text-anchor="start" x="156.5" y="-237.4" font-family="Helvetica,sans-Serif" font-size="11.00" fill="#000000">serial[10]</text>
<polygon fill="#ffffff" stroke="transparent" points="10.5,-207.7 10.5,-229.7 153.5,-229.7 153.5,-207.7 10.5,-207.7"/>
<polygon fill="none" stroke="#000000" points="10.5,-207.7 10.5,-229.7 153.5,-229.7 153.5,-207.7 10.5,-207.7"/>
<text text-anchor="start" x="30.5" y="-214.8" font-family="Helvetica,sans-Serif" font-size="11.00" fill="#000000">CHARMETHOD</text>
<polygon fill="none" stroke="#000000" points="153.5,-207.7 153.5,-229.7 245.5,-229.7 245.5,-207.7 153.5,-207.7"/>
<text text-anchor="start" x="156.5" y="-215.4" font-family="Helvetica,sans-Serif" font-size="11.00" fill="#000000">text[2147483647]</text>
<polygon fill="none" stroke="#000000" points="10.5,-185.7 10.5,-207.7 153.5,-207.7 153.5,-185.7 10.5,-185.7"/>
<text text-anchor="start" x="30.5" y="-192.8" font-family="Helvetica,sans-Serif" font-size="11.00" fill="#000000">CHARMTDDSC</text>
<polygon fill="none" stroke="#000000" points="153.5,-185.7 153.5,-207.7 245.5,-207.7 245.5,-185.7 153.5,-185.7"/>
<text text-anchor="start" x="156.5" y="-193.4" font-family="Helvetica,sans-Serif" font-size="11.00" fill="#000000">text[2147483647]</text>
<polygon fill="none" stroke="#000000" points="10.5,-163.7 10.5,-185.7 153.5,-185.7 153.5,-163.7 10.5,-163.7"/>
<text text-anchor="start" x="30.5" y="-170.8" font-family="Helvetica,sans-Serif" font-size="11.00" fill="#000000">CHARMTDREF</text>
<polygon fill="none" stroke="#000000" points="153.5,-163.7 153.5,-185.7 245.5,-185.7 245.5,-163.7 153.5,-163.7"/>
<text text-anchor="start" x="156.5" y="-171.4" font-family="Helvetica,sans-Serif" font-size="11.00" fill="#000000">text[2147483647]</text>
<polygon fill="none" stroke="#000000" points="10.5,-141.7 10.5,-163.7 153.5,-163.7 153.5,-141.7 10.5,-141.7"/>
<text text-anchor="start" x="30.5" y="-148.8" font-family="Helvetica,sans-Serif" font-size="11.00" fill="#000000">CREATED_AT</text>
<polygon fill="none" stroke="#000000" points="153.5,-141.7 153.5,-163.7 245.5,-163.7 245.5,-141.7 153.5,-141.7"/>
<text text-anchor="start" x="156.1023" y="-149.4" font-family="Helvetica,sans-Serif" font-size="11.00" fill="#000000">timestamptz[35,6]</text>
<polygon fill="none" stroke="#000000" points="10.5,-119.7 10.5,-141.7 153.5,-141.7 153.5,-119.7 10.5,-119.7"/>
<text text-anchor="start" x="30.5" y="-126.8" font-family="Helvetica,sans-Serif" font-size="11.00" fill="#000000">UPDATED_AT</text>
<polygon fill="none" stroke="#000000" points="153.5,-119.7 153.5,-141.7 245.5,-141.7 245.5,-119.7 153.5,-119.7"/>
<text text-anchor="start" x="156.1023" y="-127.4" font-family="Helvetica,sans-Serif" font-size="11.00" fill="#000000">timestamptz[35,6]</text>
<polygon fill="#ffffff" stroke="transparent" points="10.5,-100.7 10.5,-119.7 70.5,-119.7 70.5,-100.7 10.5,-100.7"/>
<polygon fill="none" stroke="#000000" points="10.5,-100.7 10.5,-119.7 70.5,-119.7 70.5,-100.7 10.5,-100.7"/>
<text text-anchor="start" x="13.5" y="-106.8" font-family="Helvetica,sans-Serif" font-size="11.00" fill="#000000">&lt; 0</text>
<polygon fill="#ffffff" stroke="transparent" points="70.5,-100.7 70.5,-119.7 153.5,-119.7 153.5,-100.7 70.5,-100.7"/>
<polygon fill="none" stroke="#000000" points="70.5,-100.7 70.5,-119.7 153.5,-119.7 153.5,-100.7 70.5,-100.7"/>
<text text-anchor="start" x="111.9956" y="-106.8" font-family="Helvetica,sans-Serif" font-size="11.00" fill="#000000">12 rows</text>
<polygon fill="#ffffff" stroke="transparent" points="153.5,-100.7 153.5,-119.7 245.5,-119.7 245.5,-100.7 153.5,-100.7"/>
<polygon fill="none" stroke="#000000" points="153.5,-100.7 153.5,-119.7 245.5,-119.7 245.5,-100.7 153.5,-100.7"/>
<text text-anchor="start" x="226.9053" y="-106.8" font-family="Helvetica,sans-Serif" font-size="11.00" fill="#000000">1 &gt;</text>
<polygon fill="none" stroke="#000000" stroke-width="2" points="9,-99.7 9,-275.7 246,-275.7 246,-99.7 9,-99.7"/>
</a>
</g>
</g>
<!-- char_DataCore&#45;&gt;cabah_charmethodID -->
<g id="edge1" class="edge">
<title>char_DataCore:w&#45;&gt;cabah_charmethodID:e</title>
<path fill="none" stroke="#000000" d="M281.4203,-240.7C269.5435,-240.7 262.158,-240.7 245.5,-240.7"/>
<polygon fill="#000000" stroke="#000000" points="288,-240.7001 296,-244.3 292,-240.7 296,-240.7 296,-240.7 296,-240.7 292,-240.7 296,-237.1 288,-240.7001 288,-240.7001"/>
<ellipse fill="none" stroke="#000000" cx="284.8" cy="-240.7001" rx="3.2" ry="3.2"/>
</g>
</g>
</svg>
