<?xml version="1.0" encoding="UTF-8" standalone="no"?>
<!DOCTYPE svg PUBLIC "-//W3C//DTD SVG 1.1//EN"
 "http://www.w3.org/Graphics/SVG/1.1/DTD/svg11.dtd">
<!-- Generated by graphviz version 2.40.1 (20161225.0304)
 -->
<!-- Title: twoDegreesRelationshipsDiagram Pages: 1 -->
<svg width="619pt" height="535pt"
 viewBox="0.00 0.00 619.00 535.20" xmlns="http://www.w3.org/2000/svg" xmlns:xlink="http://www.w3.org/1999/xlink">
<g id="graph0" class="graph" transform="scale(1 1) rotate(0) translate(4 531.2)">
<title>twoDegreesRelationshipsDiagram</title>
<polygon fill="#ffffff" stroke="transparent" points="-4,4 -4,-531.2 615,-531.2 615,4 -4,4"/>
<text text-anchor="middle" x="72.4936" y="-7.3" font-family="Helvetica,sans-Serif" font-size="11.00" fill="#000000">Generated by SchemaSpy</text>
<!-- char_Sample -->
<g id="node1" class="node">
<title>char_Sample</title>
<g id="a_node1"><a xlink:href="../../tables/char_Sample.html" xlink:title="char_Sample" target="_top">
<polygon fill="#ffffff" stroke="transparent" points="478,-331.2 478,-392.2 591,-392.2 591,-331.2 478,-331.2"/>
<polygon fill="#f5f5f5" stroke="transparent" points="478.5,-368.7 478.5,-391.7 591.5,-391.7 591.5,-368.7 478.5,-368.7"/>
<polygon fill="none" stroke="#000000" points="478.5,-368.7 478.5,-391.7 591.5,-391.7 591.5,-368.7 478.5,-368.7"/>
<text text-anchor="start" x="483.5" y="-377.3" font-family="Helvetica,sans-Serif" font-weight="bold" font-size="11.00" fill="#000000">char_Sample</text>
<text text-anchor="start" x="557.0219" y="-376.8" font-family="Helvetica,sans-Serif" font-size="11.00" fill="#000000">[table]</text>
<polygon fill="none" stroke="#000000" points="478.5,-349.7 478.5,-368.7 591.5,-368.7 591.5,-349.7 478.5,-349.7"/>
<text text-anchor="start" x="481.5" y="-355.8" font-family="Helvetica,sans-Serif" font-size="11.00" fill="#000000">...</text>
<polygon fill="#ffffff" stroke="transparent" points="478.5,-330.7 478.5,-349.7 502.5,-349.7 502.5,-330.7 478.5,-330.7"/>
<polygon fill="none" stroke="#000000" points="478.5,-330.7 478.5,-349.7 502.5,-349.7 502.5,-330.7 478.5,-330.7"/>
<text text-anchor="start" x="481.5" y="-336.8" font-family="Helvetica,sans-Serif" font-size="11.00" fill="#000000">&lt; 1</text>
<polygon fill="#ffffff" stroke="transparent" points="502.5,-330.7 502.5,-349.7 568.5,-349.7 568.5,-330.7 502.5,-330.7"/>
<polygon fill="none" stroke="#000000" points="502.5,-330.7 502.5,-349.7 568.5,-349.7 568.5,-330.7 502.5,-330.7"/>
<text text-anchor="start" x="505.594" y="-336.8" font-family="Helvetica,sans-Serif" font-size="11.00" fill="#000000">41.793 rows</text>
<polygon fill="#ffffff" stroke="transparent" points="568.5,-330.7 568.5,-349.7 591.5,-349.7 591.5,-330.7 568.5,-330.7"/>
<polygon fill="none" stroke="#000000" points="568.5,-330.7 568.5,-349.7 591.5,-349.7 591.5,-330.7 568.5,-330.7"/>
<text text-anchor="start" x="572.9053" y="-336.8" font-family="Helvetica,sans-Serif" font-size="11.00" fill="#000000">1 &gt;</text>
</a>
</g>
</g>
<!-- global_UnitMaster -->
<g id="node2" class="node">
<title>global_UnitMaster</title>
<g id="a_node2"><a xlink:href="../../tables/global_UnitMaster.html" xlink:title="global_UnitMaster" target="_top">
<polygon fill="#ffffff" stroke="transparent" points="274,-115.2 274,-352.2 417,-352.2 417,-115.2 274,-115.2"/>
<polygon fill="#f5f5f5" stroke="transparent" points="274.5,-328.7 274.5,-351.7 417.5,-351.7 417.5,-328.7 274.5,-328.7"/>
<polygon fill="none" stroke="#000000" points="274.5,-328.7 274.5,-351.7 417.5,-351.7 417.5,-328.7 274.5,-328.7"/>
<text text-anchor="start" x="279.5" y="-337.3" font-family="Helvetica,sans-Serif" font-weight="bold" font-size="11.00" fill="#000000">global_UnitMaster</text>
<text text-anchor="start" x="383.0219" y="-336.8" font-family="Helvetica,sans-Serif" font-size="11.00" fill="#000000">[table]</text>
<polygon fill="none" stroke="#000000" points="274.5,-306.7 274.5,-328.7 417.5,-328.7 417.5,-306.7 274.5,-306.7"/>
<image xlink:href="../../images/primaryKeys.png" width="11px" height="12px" preserveAspectRatio="xMinYMin meet" x="279.5" y="-323.7"/>
<text text-anchor="start" x="303.5" y="-313.8" font-family="Helvetica,sans-Serif" font-size="11.00" fill="#000000">UNITID</text>
<polygon fill="none" stroke="#000000" points="274.5,-284.7 274.5,-306.7 417.5,-306.7 417.5,-284.7 274.5,-284.7"/>
<image xlink:href="../../images/foreignKeys.png" width="11px" height="12px" preserveAspectRatio="xMinYMin meet" x="279.5" y="-301.7"/>
<text text-anchor="start" x="303.5" y="-291.8" font-family="Helvetica,sans-Serif" font-size="11.00" fill="#000000">SITEID</text>
<polygon fill="#ffffff" stroke="transparent" points="274.5,-262.7 274.5,-284.7 417.5,-284.7 417.5,-262.7 274.5,-262.7"/>
<polygon fill="none" stroke="#000000" points="274.5,-262.7 274.5,-284.7 417.5,-284.7 417.5,-262.7 274.5,-262.7"/>
<text text-anchor="start" x="303.5" y="-269.8" font-family="Helvetica,sans-Serif" font-size="11.00" fill="#000000">UNITHANDLE</text>
<polygon fill="none" stroke="#000000" points="274.5,-240.7 274.5,-262.7 417.5,-262.7 417.5,-240.7 274.5,-240.7"/>
<image xlink:href="../../images/foreignKeys.png" width="11px" height="12px" preserveAspectRatio="xMinYMin meet" x="279.5" y="-257.7"/>
<text text-anchor="start" x="303.5" y="-247.8" font-family="Helvetica,sans-Serif" font-size="11.00" fill="#000000">UNITTYPEID</text>
<polygon fill="none" stroke="#000000" points="274.5,-218.7 274.5,-240.7 417.5,-240.7 417.5,-218.7 274.5,-218.7"/>
<image xlink:href="../../images/foreignKeys.png" width="11px" height="12px" preserveAspectRatio="xMinYMin meet" x="279.5" y="-235.7"/>
<text text-anchor="start" x="303.5" y="-225.8" font-family="Helvetica,sans-Serif" font-size="11.00" fill="#000000">COLLECTID</text>
<polygon fill="none" stroke="#000000" points="274.5,-196.7 274.5,-218.7 417.5,-218.7 417.5,-196.7 274.5,-196.7"/>
<image xlink:href="../../images/foreignKeys.png" width="11px" height="12px" preserveAspectRatio="xMinYMin meet" x="279.5" y="-213.7"/>
<text text-anchor="start" x="303.5" y="-203.8" font-family="Helvetica,sans-Serif" font-size="11.00" fill="#000000">DEPOSITID</text>
<polygon fill="#ffffff" stroke="transparent" points="274.5,-174.7 274.5,-196.7 417.5,-196.7 417.5,-174.7 274.5,-174.7"/>
<polygon fill="none" stroke="#000000" points="274.5,-174.7 274.5,-196.7 417.5,-196.7 417.5,-174.7 274.5,-174.7"/>
<text text-anchor="start" x="303.5" y="-181.8" font-family="Helvetica,sans-Serif" font-size="11.00" fill="#000000">NEO_HANDLE</text>
<polygon fill="none" stroke="#000000" points="274.5,-152.7 274.5,-174.7 417.5,-174.7 417.5,-152.7 274.5,-152.7"/>
<image xlink:href="../../images/foreignKeys.png" width="11px" height="12px" preserveAspectRatio="xMinYMin meet" x="279.5" y="-169.7"/>
<text text-anchor="start" x="303.5" y="-159.8" font-family="Helvetica,sans-Serif" font-size="11.00" fill="#000000">UNIT_REF</text>
<polygon fill="none" stroke="#000000" points="274.5,-133.7 274.5,-152.7 417.5,-152.7 417.5,-133.7 274.5,-133.7"/>
<text text-anchor="start" x="277.5" y="-139.8" font-family="Helvetica,sans-Serif" font-size="11.00" fill="#000000">...</text>
<polygon fill="#ffffff" stroke="transparent" points="274.5,-114.7 274.5,-133.7 320.5,-133.7 320.5,-114.7 274.5,-114.7"/>
<polygon fill="none" stroke="#000000" points="274.5,-114.7 274.5,-133.7 320.5,-133.7 320.5,-114.7 274.5,-114.7"/>
<text text-anchor="start" x="277.5" y="-120.8" font-family="Helvetica,sans-Serif" font-size="11.00" fill="#000000">&lt; 5</text>
<polygon fill="#ffffff" stroke="transparent" points="320.5,-114.7 320.5,-133.7 383.5,-133.7 383.5,-114.7 320.5,-114.7"/>
<polygon fill="none" stroke="#000000" points="320.5,-114.7 320.5,-133.7 383.5,-133.7 383.5,-114.7 320.5,-114.7"/>
<text text-anchor="start" x="335.8807" y="-120.8" font-family="Helvetica,sans-Serif" font-size="11.00" fill="#000000">597 rows</text>
<polygon fill="#ffffff" stroke="transparent" points="383.5,-114.7 383.5,-133.7 417.5,-133.7 417.5,-114.7 383.5,-114.7"/>
<polygon fill="none" stroke="#000000" points="383.5,-114.7 383.5,-133.7 417.5,-133.7 417.5,-114.7 383.5,-114.7"/>
<text text-anchor="start" x="398.9053" y="-120.8" font-family="Helvetica,sans-Serif" font-size="11.00" fill="#000000">2 &gt;</text>
</a>
</g>
</g>
<!-- char_Sample&#45;&gt;global_UnitMaster -->
<g id="edge1" class="edge">
<title>char_Sample:w&#45;&gt;global_UnitMaster:e</title>
<path fill="none" stroke="#000000" d="M464.3015,-355.3448C446.2138,-345.5528 444.4239,-317.7 417.5,-317.7"/>
<polygon fill="#000000" stroke="#000000" points="470.7144,-356.8602 477.6721,-362.2035 474.6072,-357.7801 478.5,-358.7 478.5,-358.7 478.5,-358.7 474.6072,-357.7801 479.3279,-355.1965 470.7144,-356.8602 470.7144,-356.8602"/>
<ellipse fill="none" stroke="#000000" cx="467.6002" cy="-356.1242" rx="3.2" ry="3.2"/>
</g>
<!-- cabah_col_mtdID -->
<g id="node4" class="node">
<title>cabah_col_mtdID</title>
<g id="a_node4"><a xlink:href="../../tables/cabah_col_mtdID.html" xlink:title="cabah_col_mtdID" target="_top">
<polygon fill="#ffffff" stroke="transparent" points="47.5,-202.2 47.5,-263.2 185.5,-263.2 185.5,-202.2 47.5,-202.2"/>
<polygon fill="#f5f5f5" stroke="transparent" points="47.5,-239.7 47.5,-262.7 185.5,-262.7 185.5,-239.7 47.5,-239.7"/>
<polygon fill="none" stroke="#000000" points="47.5,-239.7 47.5,-262.7 185.5,-262.7 185.5,-239.7 47.5,-239.7"/>
<text text-anchor="start" x="52.5" y="-248.3" font-family="Helvetica,sans-Serif" font-weight="bold" font-size="11.00" fill="#000000">cabah_col_mtdID</text>
<text text-anchor="start" x="151.0219" y="-247.8" font-family="Helvetica,sans-Serif" font-size="11.00" fill="#000000">[table]</text>
<polygon fill="none" stroke="#000000" points="47.5,-220.7 47.5,-239.7 185.5,-239.7 185.5,-220.7 47.5,-220.7"/>
<text text-anchor="start" x="50.5" y="-226.8" font-family="Helvetica,sans-Serif" font-size="11.00" fill="#000000">...</text>
<polygon fill="#ffffff" stroke="transparent" points="47.5,-201.7 47.5,-220.7 94.5,-220.7 94.5,-201.7 47.5,-201.7"/>
<polygon fill="none" stroke="#000000" points="47.5,-201.7 47.5,-220.7 94.5,-220.7 94.5,-201.7 47.5,-201.7"/>
<text text-anchor="start" x="50.5" y="-207.8" font-family="Helvetica,sans-Serif" font-size="11.00" fill="#000000">&lt; 1</text>
<polygon fill="#ffffff" stroke="transparent" points="94.5,-201.7 94.5,-220.7 151.5,-220.7 151.5,-201.7 94.5,-201.7"/>
<polygon fill="none" stroke="#000000" points="94.5,-201.7 94.5,-220.7 151.5,-220.7 151.5,-201.7 94.5,-201.7"/>
<text text-anchor="start" x="109.9956" y="-207.8" font-family="Helvetica,sans-Serif" font-size="11.00" fill="#000000">44 rows</text>
<polygon fill="#ffffff" stroke="transparent" points="151.5,-201.7 151.5,-220.7 185.5,-220.7 185.5,-201.7 151.5,-201.7"/>
<polygon fill="none" stroke="#000000" points="151.5,-201.7 151.5,-220.7 185.5,-220.7 185.5,-201.7 151.5,-201.7"/>
<text text-anchor="start" x="166.9053" y="-207.8" font-family="Helvetica,sans-Serif" font-size="11.00" fill="#000000">7 &gt;</text>
</a>
</g>
</g>
<!-- global_UnitMaster&#45;&gt;cabah_col_mtdID -->
<g id="edge3" class="edge">
<title>global_UnitMaster:w&#45;&gt;cabah_col_mtdID:e</title>
<path fill="none" stroke="#000000" d="M259.788,-229.7C231.6859,-229.7 219.6476,-229.7 185.5,-229.7"/>
<polygon fill="#000000" stroke="#000000" points="266.5,-229.7001 274.5,-233.3 270.5,-229.7 274.5,-229.7 274.5,-229.7 274.5,-229.7 270.5,-229.7 274.5,-226.1 266.5,-229.7001 266.5,-229.7001"/>
<ellipse fill="none" stroke="#000000" cx="263.3" cy="-229.7001" rx="3.2" ry="3.2"/>
</g>
<!-- cabah_depositID -->
<g id="node5" class="node">
<title>cabah_depositID</title>
<g id="a_node5"><a xlink:href="../../tables/cabah_depositID.html" xlink:title="cabah_depositID" target="_top">
<polygon fill="#ffffff" stroke="transparent" points="49,-120.2 49,-181.2 184,-181.2 184,-120.2 49,-120.2"/>
<polygon fill="#f5f5f5" stroke="transparent" points="49.5,-157.7 49.5,-180.7 184.5,-180.7 184.5,-157.7 49.5,-157.7"/>
<polygon fill="none" stroke="#000000" points="49.5,-157.7 49.5,-180.7 184.5,-180.7 184.5,-157.7 49.5,-157.7"/>
<text text-anchor="start" x="54.5" y="-166.3" font-family="Helvetica,sans-Serif" font-weight="bold" font-size="11.00" fill="#000000">cabah_depositID</text>
<text text-anchor="start" x="150.0219" y="-165.8" font-family="Helvetica,sans-Serif" font-size="11.00" fill="#000000">[table]</text>
<polygon fill="none" stroke="#000000" points="49.5,-138.7 49.5,-157.7 184.5,-157.7 184.5,-138.7 49.5,-138.7"/>
<text text-anchor="start" x="52.5" y="-144.8" font-family="Helvetica,sans-Serif" font-size="11.00" fill="#000000">...</text>
<polygon fill="#ffffff" stroke="transparent" points="49.5,-119.7 49.5,-138.7 91.5,-138.7 91.5,-119.7 49.5,-119.7"/>
<polygon fill="none" stroke="#000000" points="49.5,-119.7 49.5,-138.7 91.5,-138.7 91.5,-119.7 49.5,-119.7"/>
<text text-anchor="start" x="52.5" y="-125.8" font-family="Helvetica,sans-Serif" font-size="11.00" fill="#000000">&lt; 1</text>
<polygon fill="#ffffff" stroke="transparent" points="91.5,-119.7 91.5,-138.7 152.5,-138.7 152.5,-119.7 91.5,-119.7"/>
<polygon fill="none" stroke="#000000" points="91.5,-119.7 91.5,-138.7 152.5,-138.7 152.5,-119.7 91.5,-119.7"/>
<text text-anchor="start" x="104.8807" y="-125.8" font-family="Helvetica,sans-Serif" font-size="11.00" fill="#000000">117 rows</text>
<polygon fill="#ffffff" stroke="transparent" points="152.5,-119.7 152.5,-138.7 184.5,-138.7 184.5,-119.7 152.5,-119.7"/>
<polygon fill="none" stroke="#000000" points="152.5,-119.7 152.5,-138.7 184.5,-138.7 184.5,-119.7 152.5,-119.7"/>
<text text-anchor="start" x="165.9053" y="-125.8" font-family="Helvetica,sans-Serif" font-size="11.00" fill="#000000">2 &gt;</text>
</a>
</g>
</g>
<!-- global_UnitMaster&#45;&gt;cabah_depositID -->
<g id="edge4" class="edge">
<title>global_UnitMaster:w&#45;&gt;cabah_depositID:e</title>
<path fill="none" stroke="#000000" d="M260.0921,-205.5646C227.1231,-194.8762 227.1281,-147.7 184.5,-147.7"/>
<polygon fill="#000000" stroke="#000000" points="266.5864,-206.5271 273.9722,-211.2611 270.5432,-207.1135 274.5,-207.7 274.5,-207.7 274.5,-207.7 270.5432,-207.1135 275.0278,-204.1389 266.5864,-206.5271 266.5864,-206.5271"/>
<ellipse fill="none" stroke="#000000" cx="263.421" cy="-206.0579" rx="3.2" ry="3.2"/>
</g>
<!-- global_SiteMaster -->
<g id="node6" class="node">
<title>global_SiteMaster</title>
<g id="a_node6"><a xlink:href="../../tables/global_SiteMaster.html" xlink:title="global_SiteMaster" target="_top">
<polygon fill="#ffffff" stroke="transparent" points="46,-462.2 46,-523.2 187,-523.2 187,-462.2 46,-462.2"/>
<polygon fill="#f5f5f5" stroke="transparent" points="46.5,-499.7 46.5,-522.7 187.5,-522.7 187.5,-499.7 46.5,-499.7"/>
<polygon fill="none" stroke="#000000" points="46.5,-499.7 46.5,-522.7 187.5,-522.7 187.5,-499.7 46.5,-499.7"/>
<text text-anchor="start" x="51.5" y="-508.3" font-family="Helvetica,sans-Serif" font-weight="bold" font-size="11.00" fill="#000000">global_SiteMaster</text>
<text text-anchor="start" x="153.0219" y="-507.8" font-family="Helvetica,sans-Serif" font-size="11.00" fill="#000000">[table]</text>
<polygon fill="none" stroke="#000000" points="46.5,-480.7 46.5,-499.7 187.5,-499.7 187.5,-480.7 46.5,-480.7"/>
<text text-anchor="start" x="49.5" y="-486.8" font-family="Helvetica,sans-Serif" font-size="11.00" fill="#000000">...</text>
<polygon fill="#ffffff" stroke="transparent" points="46.5,-461.7 46.5,-480.7 84.5,-480.7 84.5,-461.7 46.5,-461.7"/>
<polygon fill="none" stroke="#000000" points="46.5,-461.7 46.5,-480.7 84.5,-480.7 84.5,-461.7 46.5,-461.7"/>
<text text-anchor="start" x="49.5" y="-467.8" font-family="Helvetica,sans-Serif" font-size="11.00" fill="#000000">&lt; 8</text>
<polygon fill="#ffffff" stroke="transparent" points="84.5,-461.7 84.5,-480.7 157.5,-480.7 157.5,-461.7 84.5,-461.7"/>
<polygon fill="none" stroke="#000000" points="84.5,-461.7 84.5,-480.7 157.5,-480.7 157.5,-461.7 84.5,-461.7"/>
<text text-anchor="start" x="94.594" y="-467.8" font-family="Helvetica,sans-Serif" font-size="11.00" fill="#000000">23.782 rows</text>
<polygon fill="#ffffff" stroke="transparent" points="157.5,-461.7 157.5,-480.7 187.5,-480.7 187.5,-461.7 157.5,-461.7"/>
<polygon fill="none" stroke="#000000" points="157.5,-461.7 157.5,-480.7 187.5,-480.7 187.5,-461.7 157.5,-461.7"/>
<text text-anchor="start" x="168.9053" y="-467.8" font-family="Helvetica,sans-Serif" font-size="11.00" fill="#000000">6 &gt;</text>
</a>
</g>
</g>
<!-- global_UnitMaster&#45;&gt;global_SiteMaster -->
<g id="edge5" class="edge">
<title>global_UnitMaster:w&#45;&gt;global_SiteMaster:e</title>
<path fill="none" stroke="#000000" d="M260.1402,-297.3864C212.8513,-310.4084 268.5513,-395.9276 233,-451.7 218.8379,-473.9173 213.8472,-489.7 187.5,-489.7"/>
<polygon fill="#000000" stroke="#000000" points="266.5546,-296.6332 274.9199,-299.2754 270.5273,-296.1666 274.5,-295.7 274.5,-295.7 274.5,-295.7 270.5273,-296.1666 274.0801,-292.1246 266.5546,-296.6332 266.5546,-296.6332"/>
<ellipse fill="none" stroke="#000000" cx="263.3764" cy="-297.0064" rx="3.2" ry="3.2"/>
</g>
<!-- global_RefCore -->
<g id="node7" class="node">
<title>global_RefCore</title>
<g id="a_node7"><a xlink:href="../../tables/global_RefCore.html" xlink:title="global_RefCore" target="_top">
<polygon fill="#ffffff" stroke="transparent" points="53,-38.2 53,-99.2 180,-99.2 180,-38.2 53,-38.2"/>
<polygon fill="#f5f5f5" stroke="transparent" points="53.5,-75.7 53.5,-98.7 180.5,-98.7 180.5,-75.7 53.5,-75.7"/>
<polygon fill="none" stroke="#000000" points="53.5,-75.7 53.5,-98.7 180.5,-98.7 180.5,-75.7 53.5,-75.7"/>
<text text-anchor="start" x="58.5" y="-84.3" font-family="Helvetica,sans-Serif" font-weight="bold" font-size="11.00" fill="#000000">global_RefCore</text>
<text text-anchor="start" x="146.0219" y="-83.8" font-family="Helvetica,sans-Serif" font-size="11.00" fill="#000000">[table]</text>
<polygon fill="none" stroke="#000000" points="53.5,-56.7 53.5,-75.7 180.5,-75.7 180.5,-56.7 53.5,-56.7"/>
<text text-anchor="start" x="56.5" y="-62.8" font-family="Helvetica,sans-Serif" font-size="11.00" fill="#000000">...</text>
<polygon fill="#ffffff" stroke="transparent" points="53.5,-37.7 53.5,-56.7 84.5,-56.7 84.5,-37.7 53.5,-37.7"/>
<polygon fill="none" stroke="#000000" points="53.5,-37.7 53.5,-56.7 84.5,-56.7 84.5,-37.7 53.5,-37.7"/>
<text text-anchor="start" x="56.5" y="-43.8" font-family="Helvetica,sans-Serif" font-size="11.00" fill="#000000">&lt; 5</text>
<polygon fill="#ffffff" stroke="transparent" points="84.5,-37.7 84.5,-56.7 148.5,-56.7 148.5,-37.7 84.5,-37.7"/>
<polygon fill="none" stroke="#000000" points="84.5,-37.7 84.5,-56.7 148.5,-56.7 148.5,-37.7 84.5,-37.7"/>
<text text-anchor="start" x="91.7089" y="-43.8" font-family="Helvetica,sans-Serif" font-size="11.00" fill="#000000">3.943 rows</text>
<polygon fill="#ffffff" stroke="transparent" points="148.5,-37.7 148.5,-56.7 180.5,-56.7 180.5,-37.7 148.5,-37.7"/>
<polygon fill="none" stroke="#000000" points="148.5,-37.7 148.5,-56.7 180.5,-56.7 180.5,-37.7 148.5,-37.7"/>
<text text-anchor="start" x="155.7904" y="-43.8" font-family="Helvetica,sans-Serif" font-size="11.00" fill="#000000">36 &gt;</text>
</a>
</g>
</g>
<!-- global_UnitMaster&#45;&gt;global_RefCore -->
<g id="edge6" class="edge">
<title>global_UnitMaster:w&#45;&gt;global_RefCore:e</title>
<path fill="none" stroke="#000000" d="M260.412,-160.0764C246.9128,-151.0644 249.6912,-127.1125 233,-109.7 211.9325,-87.7221 210.9444,-65.7 180.5,-65.7"/>
<polygon fill="#000000" stroke="#000000" points="266.7522,-161.7071 273.6032,-167.1865 270.6261,-162.7036 274.5,-163.7 274.5,-163.7 274.5,-163.7 270.6261,-162.7036 275.3968,-160.2135 266.7522,-161.7071 266.7522,-161.7071"/>
<ellipse fill="none" stroke="#000000" cx="263.6531" cy="-160.91" rx="3.2" ry="3.2"/>
</g>
<!-- cabah_unittypeID -->
<g id="node8" class="node">
<title>cabah_unittypeID</title>
<g id="a_node8"><a xlink:href="../../tables/cabah_unittypeID.html" xlink:title="cabah_unittypeID" target="_top">
<polygon fill="#ffffff" stroke="transparent" points="8,-284.7 8,-440.7 225,-440.7 225,-284.7 8,-284.7"/>
<polygon fill="#f5f5f5" stroke="transparent" points="10.5,-415.7 10.5,-438.7 223.5,-438.7 223.5,-415.7 10.5,-415.7"/>
<polygon fill="none" stroke="#000000" points="10.5,-415.7 10.5,-438.7 223.5,-438.7 223.5,-415.7 10.5,-415.7"/>
<text text-anchor="start" x="15.5" y="-424.3" font-family="Helvetica,sans-Serif" font-weight="bold" font-size="11.00" fill="#000000">cabah_unittypeID</text>
<text text-anchor="start" x="188.5437" y="-423.8" font-family="Helvetica,sans-Serif" font-size="11.00" fill="#000000">[table]</text>
<polygon fill="none" stroke="#000000" points="10.5,-393.7 10.5,-415.7 131.5,-415.7 131.5,-393.7 10.5,-393.7"/>
<image xlink:href="../../images/primaryKeys.png" width="11px" height="12px" preserveAspectRatio="xMinYMin meet" x="15.5" y="-410.7"/>
<text text-anchor="start" x="30.5" y="-400.8" font-family="Helvetica,sans-Serif" font-size="11.00" fill="#000000">UNITTYPEID</text>
<polygon fill="none" stroke="#000000" points="131.5,-393.7 131.5,-415.7 223.5,-415.7 223.5,-393.7 131.5,-393.7"/>
<text text-anchor="start" x="134.5" y="-401.4" font-family="Helvetica,sans-Serif" font-size="11.00" fill="#000000">serial[10]</text>
<polygon fill="#ffffff" stroke="transparent" points="10.5,-371.7 10.5,-393.7 131.5,-393.7 131.5,-371.7 10.5,-371.7"/>
<polygon fill="none" stroke="#000000" points="10.5,-371.7 10.5,-393.7 131.5,-393.7 131.5,-371.7 10.5,-371.7"/>
<text text-anchor="start" x="30.5" y="-378.8" font-family="Helvetica,sans-Serif" font-size="11.00" fill="#000000">UNITTYPE</text>
<polygon fill="none" stroke="#000000" points="131.5,-371.7 131.5,-393.7 223.5,-393.7 223.5,-371.7 131.5,-371.7"/>
<text text-anchor="start" x="134.5" y="-379.4" font-family="Helvetica,sans-Serif" font-size="11.00" fill="#000000">text[2147483647]</text>
<polygon fill="none" stroke="#000000" points="10.5,-349.7 10.5,-371.7 131.5,-371.7 131.5,-349.7 10.5,-349.7"/>
<text text-anchor="start" x="30.5" y="-356.8" font-family="Helvetica,sans-Serif" font-size="11.00" fill="#000000">UNITTDESCR</text>
<polygon fill="none" stroke="#000000" points="131.5,-349.7 131.5,-371.7 223.5,-371.7 223.5,-349.7 131.5,-349.7"/>
<text text-anchor="start" x="134.5" y="-357.4" font-family="Helvetica,sans-Serif" font-size="11.00" fill="#000000">text[2147483647]</text>
<polygon fill="none" stroke="#000000" points="10.5,-327.7 10.5,-349.7 131.5,-349.7 131.5,-327.7 10.5,-327.7"/>
<text text-anchor="start" x="30.5" y="-334.8" font-family="Helvetica,sans-Serif" font-size="11.00" fill="#000000">CREATED_AT</text>
<polygon fill="none" stroke="#000000" points="131.5,-327.7 131.5,-349.7 223.5,-349.7 223.5,-327.7 131.5,-327.7"/>
<text text-anchor="start" x="134.1023" y="-335.4" font-family="Helvetica,sans-Serif" font-size="11.00" fill="#000000">timestamptz[35,6]</text>
<polygon fill="none" stroke="#000000" points="10.5,-305.7 10.5,-327.7 131.5,-327.7 131.5,-305.7 10.5,-305.7"/>
<text text-anchor="start" x="30.5" y="-312.8" font-family="Helvetica,sans-Serif" font-size="11.00" fill="#000000">UPDATED_AT</text>
<polygon fill="none" stroke="#000000" points="131.5,-305.7 131.5,-327.7 223.5,-327.7 223.5,-305.7 131.5,-305.7"/>
<text text-anchor="start" x="134.1023" y="-313.4" font-family="Helvetica,sans-Serif" font-size="11.00" fill="#000000">timestamptz[35,6]</text>
<polygon fill="#ffffff" stroke="transparent" points="10.5,-286.7 10.5,-305.7 59.5,-305.7 59.5,-286.7 10.5,-286.7"/>
<polygon fill="none" stroke="#000000" points="10.5,-286.7 10.5,-305.7 59.5,-305.7 59.5,-286.7 10.5,-286.7"/>
<text text-anchor="start" x="13.5" y="-292.8" font-family="Helvetica,sans-Serif" font-size="11.00" fill="#000000">&lt; 0</text>
<polygon fill="#ffffff" stroke="transparent" points="59.5,-286.7 59.5,-305.7 131.5,-305.7 131.5,-286.7 59.5,-286.7"/>
<polygon fill="none" stroke="#000000" points="59.5,-286.7 59.5,-305.7 131.5,-305.7 131.5,-286.7 59.5,-286.7"/>
<text text-anchor="start" x="89.9956" y="-292.8" font-family="Helvetica,sans-Serif" font-size="11.00" fill="#000000">16 rows</text>
<polygon fill="#ffffff" stroke="transparent" points="131.5,-286.7 131.5,-305.7 223.5,-305.7 223.5,-286.7 131.5,-286.7"/>
<polygon fill="none" stroke="#000000" points="131.5,-286.7 131.5,-305.7 223.5,-305.7 223.5,-286.7 131.5,-286.7"/>
<text text-anchor="start" x="204.9053" y="-292.8" font-family="Helvetica,sans-Serif" font-size="11.00" fill="#000000">1 &gt;</text>
<polygon fill="none" stroke="#000000" stroke-width="2" points="9,-285.7 9,-439.7 224,-439.7 224,-285.7 9,-285.7"/>
</a>
</g>
</g>
<!-- global_UnitMaster&#45;&gt;cabah_unittypeID -->
<g id="edge7" class="edge">
<title>global_UnitMaster:w&#45;&gt;cabah_unittypeID:e</title>
<path fill="none" stroke="#000000" d="M260.2676,-254.4862C216.5613,-275.2228 289.4384,-404.7 223.5,-404.7"/>
<polygon fill="#000000" stroke="#000000" points="266.649,-253.237 275.1916,-255.2329 270.5745,-252.4685 274.5,-251.7 274.5,-251.7 274.5,-251.7 270.5745,-252.4685 273.8084,-248.1671 266.649,-253.237 266.649,-253.237"/>
<ellipse fill="none" stroke="#000000" cx="263.5086" cy="-253.8518" rx="3.2" ry="3.2"/>
</g>
<!-- global_DataSetID -->
<g id="node3" class="node">
<title>global_DataSetID</title>
<g id="a_node3"><a xlink:href="../../tables/global_DataSetID.html" xlink:title="global_DataSetID" target="_top">
<polygon fill="#ffffff" stroke="transparent" points="466,-249.2 466,-310.2 603,-310.2 603,-249.2 466,-249.2"/>
<polygon fill="#f5f5f5" stroke="transparent" points="466.5,-286.7 466.5,-309.7 603.5,-309.7 603.5,-286.7 466.5,-286.7"/>
<polygon fill="none" stroke="#000000" points="466.5,-286.7 466.5,-309.7 603.5,-309.7 603.5,-286.7 466.5,-286.7"/>
<text text-anchor="start" x="471.5" y="-295.3" font-family="Helvetica,sans-Serif" font-weight="bold" font-size="11.00" fill="#000000">global_DataSetID</text>
<text text-anchor="start" x="569.0219" y="-294.8" font-family="Helvetica,sans-Serif" font-size="11.00" fill="#000000">[table]</text>
<polygon fill="none" stroke="#000000" points="466.5,-267.7 466.5,-286.7 603.5,-286.7 603.5,-267.7 466.5,-267.7"/>
<text text-anchor="start" x="469.5" y="-273.8" font-family="Helvetica,sans-Serif" font-size="11.00" fill="#000000">...</text>
<polygon fill="#ffffff" stroke="transparent" points="466.5,-248.7 466.5,-267.7 514.5,-267.7 514.5,-248.7 466.5,-248.7"/>
<polygon fill="none" stroke="#000000" points="466.5,-248.7 466.5,-267.7 514.5,-267.7 514.5,-248.7 466.5,-248.7"/>
<text text-anchor="start" x="469.5" y="-254.8" font-family="Helvetica,sans-Serif" font-size="11.00" fill="#000000">&lt; 3</text>
<polygon fill="#ffffff" stroke="transparent" points="514.5,-248.7 514.5,-267.7 577.5,-267.7 577.5,-248.7 514.5,-248.7"/>
<polygon fill="none" stroke="#000000" points="514.5,-248.7 514.5,-267.7 577.5,-267.7 577.5,-248.7 514.5,-248.7"/>
<text text-anchor="start" x="529.8807" y="-254.8" font-family="Helvetica,sans-Serif" font-size="11.00" fill="#000000">154 rows</text>
<polygon fill="#ffffff" stroke="transparent" points="577.5,-248.7 577.5,-267.7 603.5,-267.7 603.5,-248.7 577.5,-248.7"/>
<polygon fill="none" stroke="#000000" points="577.5,-248.7 577.5,-267.7 603.5,-267.7 603.5,-248.7 577.5,-248.7"/>
<text text-anchor="start" x="594.3862" y="-254.8" font-family="Helvetica,sans-Serif" font-size="11.00" fill="#000000"> &#160;</text>
</a>
</g>
</g>
<!-- global_DataSetID&#45;&gt;global_UnitMaster -->
<g id="edge2" class="edge">
<title>global_DataSetID:w&#45;&gt;global_UnitMaster:e</title>
<path fill="none" stroke="#000000" d="M452.6819,-281.4032C439.7811,-292.1726 439.9061,-317.7 417.5,-317.7"/>
<polygon fill="#000000" stroke="#000000" points="458.9267,-279.2778 467.66,-280.108 462.7133,-277.9889 466.5,-276.7 466.5,-276.7 466.5,-276.7 462.7133,-277.9889 465.34,-273.292 458.9267,-279.2778 458.9267,-279.2778"/>
<ellipse fill="none" stroke="#000000" cx="455.8973" cy="-280.3089" rx="3.2" ry="3.2"/>
</g>
</g>
</svg>
