<?xml version="1.0" encoding="UTF-8" standalone="no"?>
<!DOCTYPE svg PUBLIC "-//W3C//DTD SVG 1.1//EN"
 "http://www.w3.org/Graphics/SVG/1.1/DTD/svg11.dtd">
<!-- Generated by graphviz version 2.40.1 (20161225.0304)
 -->
<!-- Title: oneDegreeRelationshipsDiagram Pages: 1 -->
<svg width="793pt" height="487pt"
 viewBox="0.00 0.00 793.00 486.70" xmlns="http://www.w3.org/2000/svg" xmlns:xlink="http://www.w3.org/1999/xlink">
<g id="graph0" class="graph" transform="scale(1 1) rotate(0) translate(4 482.7)">
<title>oneDegreeRelationshipsDiagram</title>
<polygon fill="#ffffff" stroke="transparent" points="-4,4 -4,-482.7 789,-482.7 789,4 -4,4"/>
<text text-anchor="middle" x="72.4936" y="-7.3" font-family="Helvetica,sans-Serif" font-size="11.00" fill="#000000">Generated by SchemaSpy</text>
<!-- cabah_AnalysisUnit -->
<g id="node1" class="node">
<title>cabah_AnalysisUnit</title>
<g id="a_node1"><a xlink:href="../../tables/cabah_AnalysisUnit.html" xlink:title="cabah_AnalysisUnit" target="_top">
<polygon fill="#ffffff" stroke="transparent" points="384,-38.2 384,-326.2 615,-326.2 615,-38.2 384,-38.2"/>
<polygon fill="#f5f5f5" stroke="transparent" points="386.5,-301.2 386.5,-324.2 613.5,-324.2 613.5,-301.2 386.5,-301.2"/>
<polygon fill="none" stroke="#000000" points="386.5,-301.2 386.5,-324.2 613.5,-324.2 613.5,-301.2 386.5,-301.2"/>
<text text-anchor="start" x="391.5" y="-309.8" font-family="Helvetica,sans-Serif" font-weight="bold" font-size="11.00" fill="#000000">cabah_AnalysisUnit</text>
<text text-anchor="start" x="578.5437" y="-309.3" font-family="Helvetica,sans-Serif" font-size="11.00" fill="#000000">[table]</text>
<polygon fill="none" stroke="#000000" points="386.5,-279.2 386.5,-301.2 521.5,-301.2 521.5,-279.2 386.5,-279.2"/>
<image xlink:href="../../images/primaryKeys.png" width="11px" height="12px" preserveAspectRatio="xMinYMin meet" x="391.5" y="-296.2"/>
<text text-anchor="start" x="406.5" y="-286.3" font-family="Helvetica,sans-Serif" font-size="11.00" fill="#000000">ANLYSUNTID</text>
<polygon fill="none" stroke="#000000" points="521.5,-279.2 521.5,-301.2 613.5,-301.2 613.5,-279.2 521.5,-279.2"/>
<text text-anchor="start" x="524.5" y="-286.9" font-family="Helvetica,sans-Serif" font-size="11.00" fill="#000000">int4[10]</text>
<polygon fill="none" stroke="#000000" points="386.5,-257.2 386.5,-279.2 521.5,-279.2 521.5,-257.2 386.5,-257.2"/>
<image xlink:href="../../images/foreignKeys.png" width="11px" height="12px" preserveAspectRatio="xMinYMin meet" x="391.5" y="-274.2"/>
<text text-anchor="start" x="406.5" y="-264.3" font-family="Helvetica,sans-Serif" font-size="11.00" fill="#000000">NEO_UNITID</text>
<polygon fill="none" stroke="#000000" points="521.5,-257.2 521.5,-279.2 613.5,-279.2 613.5,-257.2 521.5,-257.2"/>
<text text-anchor="start" x="524.5" y="-264.9" font-family="Helvetica,sans-Serif" font-size="11.00" fill="#000000">int4[10]</text>
<polygon fill="none" stroke="#000000" points="386.5,-235.2 386.5,-257.2 521.5,-257.2 521.5,-235.2 386.5,-235.2"/>
<text text-anchor="start" x="406.5" y="-242.3" font-family="Helvetica,sans-Serif" font-size="11.00" fill="#000000">AUIT_NAME</text>
<polygon fill="none" stroke="#000000" points="521.5,-235.2 521.5,-257.2 613.5,-257.2 613.5,-235.2 521.5,-235.2"/>
<text text-anchor="start" x="524.5" y="-242.9" font-family="Helvetica,sans-Serif" font-size="11.00" fill="#000000">text[2147483647]</text>
<polygon fill="none" stroke="#000000" points="386.5,-213.2 386.5,-235.2 521.5,-235.2 521.5,-213.2 386.5,-213.2"/>
<text text-anchor="start" x="406.5" y="-220.3" font-family="Helvetica,sans-Serif" font-size="11.00" fill="#000000">AUIT_DEPTH</text>
<polygon fill="none" stroke="#000000" points="521.5,-213.2 521.5,-235.2 613.5,-235.2 613.5,-213.2 521.5,-213.2"/>
<text text-anchor="start" x="524.5" y="-220.9" font-family="Helvetica,sans-Serif" font-size="11.00" fill="#000000">numeric[0]</text>
<polygon fill="none" stroke="#000000" points="386.5,-191.2 386.5,-213.2 521.5,-213.2 521.5,-191.2 386.5,-191.2"/>
<text text-anchor="start" x="406.5" y="-198.3" font-family="Helvetica,sans-Serif" font-size="11.00" fill="#000000">AUIT_THICK</text>
<polygon fill="none" stroke="#000000" points="521.5,-191.2 521.5,-213.2 613.5,-213.2 613.5,-191.2 521.5,-191.2"/>
<text text-anchor="start" x="524.5" y="-198.9" font-family="Helvetica,sans-Serif" font-size="11.00" fill="#000000">numeric[0]</text>
<polygon fill="none" stroke="#000000" points="386.5,-169.2 386.5,-191.2 521.5,-191.2 521.5,-169.2 386.5,-169.2"/>
<image xlink:href="../../images/foreignKeys.png" width="11px" height="12px" preserveAspectRatio="xMinYMin meet" x="391.5" y="-186.2"/>
<text text-anchor="start" x="406.5" y="-176.3" font-family="Helvetica,sans-Serif" font-size="11.00" fill="#000000">FACIESID</text>
<polygon fill="none" stroke="#000000" points="521.5,-169.2 521.5,-191.2 613.5,-191.2 613.5,-169.2 521.5,-169.2"/>
<text text-anchor="start" x="524.5" y="-176.9" font-family="Helvetica,sans-Serif" font-size="11.00" fill="#000000">int2[5]</text>
<polygon fill="none" stroke="#000000" points="386.5,-147.2 386.5,-169.2 521.5,-169.2 521.5,-147.2 386.5,-147.2"/>
<text text-anchor="start" x="406.5" y="-154.3" font-family="Helvetica,sans-Serif" font-size="11.00" fill="#000000">AUIT_MIXED</text>
<polygon fill="none" stroke="#000000" points="521.5,-147.2 521.5,-169.2 613.5,-169.2 613.5,-147.2 521.5,-147.2"/>
<text text-anchor="start" x="524.5" y="-154.9" font-family="Helvetica,sans-Serif" font-size="11.00" fill="#000000">bool[1]</text>
<polygon fill="none" stroke="#000000" points="386.5,-125.2 386.5,-147.2 521.5,-147.2 521.5,-125.2 386.5,-125.2"/>
<text text-anchor="start" x="406.5" y="-132.3" font-family="Helvetica,sans-Serif" font-size="11.00" fill="#000000">AUIT_ISGN</text>
<polygon fill="none" stroke="#000000" points="521.5,-125.2 521.5,-147.2 613.5,-147.2 613.5,-125.2 521.5,-125.2"/>
<text text-anchor="start" x="524.5" y="-132.9" font-family="Helvetica,sans-Serif" font-size="11.00" fill="#000000">text[2147483647]</text>
<polygon fill="none" stroke="#000000" points="386.5,-103.2 386.5,-125.2 521.5,-125.2 521.5,-103.2 386.5,-103.2"/>
<text text-anchor="start" x="406.5" y="-110.3" font-family="Helvetica,sans-Serif" font-size="11.00" fill="#000000">AUIT_NOTES</text>
<polygon fill="none" stroke="#000000" points="521.5,-103.2 521.5,-125.2 613.5,-125.2 613.5,-103.2 521.5,-103.2"/>
<text text-anchor="start" x="524.5" y="-110.9" font-family="Helvetica,sans-Serif" font-size="11.00" fill="#000000">text[2147483647]</text>
<polygon fill="none" stroke="#000000" points="386.5,-81.2 386.5,-103.2 521.5,-103.2 521.5,-81.2 386.5,-81.2"/>
<text text-anchor="start" x="406.5" y="-88.3" font-family="Helvetica,sans-Serif" font-size="11.00" fill="#000000">CREATED_AT</text>
<polygon fill="none" stroke="#000000" points="521.5,-81.2 521.5,-103.2 613.5,-103.2 613.5,-81.2 521.5,-81.2"/>
<text text-anchor="start" x="524.1023" y="-88.9" font-family="Helvetica,sans-Serif" font-size="11.00" fill="#000000">timestamptz[35,6]</text>
<polygon fill="none" stroke="#000000" points="386.5,-59.2 386.5,-81.2 521.5,-81.2 521.5,-59.2 386.5,-59.2"/>
<text text-anchor="start" x="406.5" y="-66.3" font-family="Helvetica,sans-Serif" font-size="11.00" fill="#000000">UPDATED_AT</text>
<polygon fill="none" stroke="#000000" points="521.5,-59.2 521.5,-81.2 613.5,-81.2 613.5,-59.2 521.5,-59.2"/>
<text text-anchor="start" x="524.1023" y="-66.9" font-family="Helvetica,sans-Serif" font-size="11.00" fill="#000000">timestamptz[35,6]</text>
<polygon fill="#ffffff" stroke="transparent" points="386.5,-40.2 386.5,-59.2 431.5,-59.2 431.5,-40.2 386.5,-40.2"/>
<polygon fill="none" stroke="#000000" points="386.5,-40.2 386.5,-59.2 431.5,-59.2 431.5,-40.2 386.5,-40.2"/>
<text text-anchor="start" x="389.5" y="-46.3" font-family="Helvetica,sans-Serif" font-size="11.00" fill="#000000">&lt; 2</text>
<polygon fill="#ffffff" stroke="transparent" points="431.5,-40.2 431.5,-59.2 521.5,-59.2 521.5,-40.2 431.5,-40.2"/>
<polygon fill="none" stroke="#000000" points="431.5,-40.2 431.5,-59.2 521.5,-59.2 521.5,-40.2 431.5,-40.2"/>
<text text-anchor="start" x="458.594" y="-46.3" font-family="Helvetica,sans-Serif" font-size="11.00" fill="#000000">15.022 rows</text>
<polygon fill="#ffffff" stroke="transparent" points="521.5,-40.2 521.5,-59.2 613.5,-59.2 613.5,-40.2 521.5,-40.2"/>
<polygon fill="none" stroke="#000000" points="521.5,-40.2 521.5,-59.2 613.5,-59.2 613.5,-40.2 521.5,-40.2"/>
<text text-anchor="start" x="594.9053" y="-46.3" font-family="Helvetica,sans-Serif" font-size="11.00" fill="#000000">1 &gt;</text>
<polygon fill="none" stroke="#000000" stroke-width="2" points="385,-39.2 385,-325.2 614,-325.2 614,-39.2 385,-39.2"/>
</a>
</g>
</g>
<!-- cabah_depositID -->
<g id="node2" class="node">
<title>cabah_depositID</title>
<g id="a_node2"><a xlink:href="../../tables/cabah_depositID.html" xlink:title="cabah_depositID" target="_top">
<polygon fill="#ffffff" stroke="transparent" points="8,-160.7 8,-287.7 143,-287.7 143,-160.7 8,-160.7"/>
<polygon fill="#f5f5f5" stroke="transparent" points="8.5,-264.2 8.5,-287.2 143.5,-287.2 143.5,-264.2 8.5,-264.2"/>
<polygon fill="none" stroke="#000000" points="8.5,-264.2 8.5,-287.2 143.5,-287.2 143.5,-264.2 8.5,-264.2"/>
<text text-anchor="start" x="13.5" y="-272.8" font-family="Helvetica,sans-Serif" font-weight="bold" font-size="11.00" fill="#000000">cabah_depositID</text>
<text text-anchor="start" x="109.0219" y="-272.3" font-family="Helvetica,sans-Serif" font-size="11.00" fill="#000000">[table]</text>
<polygon fill="none" stroke="#000000" points="8.5,-242.2 8.5,-264.2 143.5,-264.2 143.5,-242.2 8.5,-242.2"/>
<image xlink:href="../../images/primaryKeys.png" width="11px" height="12px" preserveAspectRatio="xMinYMin meet" x="13.5" y="-259.2"/>
<text text-anchor="start" x="37.5" y="-249.3" font-family="Helvetica,sans-Serif" font-size="11.00" fill="#000000">DEPOSITID</text>
<polygon fill="#ffffff" stroke="transparent" points="8.5,-220.2 8.5,-242.2 143.5,-242.2 143.5,-220.2 8.5,-220.2"/>
<polygon fill="none" stroke="#000000" points="8.5,-220.2 8.5,-242.2 143.5,-242.2 143.5,-220.2 8.5,-220.2"/>
<text text-anchor="start" x="37.5" y="-227.3" font-family="Helvetica,sans-Serif" font-size="11.00" fill="#000000">DEPOSIT</text>
<polygon fill="none" stroke="#000000" points="8.5,-198.2 8.5,-220.2 143.5,-220.2 143.5,-198.2 8.5,-198.2"/>
<image xlink:href="../../images/foreignKeys.png" width="11px" height="12px" preserveAspectRatio="xMinYMin meet" x="13.5" y="-215.2"/>
<text text-anchor="start" x="37.5" y="-205.3" font-family="Helvetica,sans-Serif" font-size="11.00" fill="#000000">PARENTID</text>
<polygon fill="none" stroke="#000000" points="8.5,-179.2 8.5,-198.2 143.5,-198.2 143.5,-179.2 8.5,-179.2"/>
<text text-anchor="start" x="11.5" y="-185.3" font-family="Helvetica,sans-Serif" font-size="11.00" fill="#000000">...</text>
<polygon fill="#ffffff" stroke="transparent" points="8.5,-160.2 8.5,-179.2 50.5,-179.2 50.5,-160.2 8.5,-160.2"/>
<polygon fill="none" stroke="#000000" points="8.5,-160.2 8.5,-179.2 50.5,-179.2 50.5,-160.2 8.5,-160.2"/>
<text text-anchor="start" x="11.5" y="-166.3" font-family="Helvetica,sans-Serif" font-size="11.00" fill="#000000">&lt; 1</text>
<polygon fill="#ffffff" stroke="transparent" points="50.5,-160.2 50.5,-179.2 111.5,-179.2 111.5,-160.2 50.5,-160.2"/>
<polygon fill="none" stroke="#000000" points="50.5,-160.2 50.5,-179.2 111.5,-179.2 111.5,-160.2 50.5,-160.2"/>
<text text-anchor="start" x="63.8807" y="-166.3" font-family="Helvetica,sans-Serif" font-size="11.00" fill="#000000">119 rows</text>
<polygon fill="#ffffff" stroke="transparent" points="111.5,-160.2 111.5,-179.2 143.5,-179.2 143.5,-160.2 111.5,-160.2"/>
<polygon fill="none" stroke="#000000" points="111.5,-160.2 111.5,-179.2 143.5,-179.2 143.5,-160.2 111.5,-160.2"/>
<text text-anchor="start" x="124.9053" y="-166.3" font-family="Helvetica,sans-Serif" font-size="11.00" fill="#000000">3 &gt;</text>
</a>
</g>
</g>
<!-- cabah_AnalysisUnit&#45;&gt;cabah_depositID -->
<g id="edge1" class="edge">
<title>cabah_AnalysisUnit:w&#45;&gt;cabah_depositID:e</title>
<path fill="none" stroke="#000000" d="M371.6357,-180.0394C292.03,-178.3365 259.2221,-164.458 184,-205.2 159.4563,-218.4934 171.4126,-253.2 143.5,-253.2"/>
<polygon fill="#000000" stroke="#000000" points="378.5005,-180.1135 386.4611,-183.7998 382.5002,-180.1568 386.5,-180.2 386.5,-180.2 386.5,-180.2 382.5002,-180.1568 386.5389,-176.6002 378.5005,-180.1135 378.5005,-180.1135"/>
<ellipse fill="none" stroke="#000000" cx="375.3007" cy="-180.0789" rx="3.2" ry="3.2"/>
</g>
<!-- global_UnitMaster -->
<g id="node3" class="node">
<title>global_UnitMaster</title>
<g id="a_node3"><a xlink:href="../../tables/global_UnitMaster.html" xlink:title="global_UnitMaster" target="_top">
<polygon fill="#ffffff" stroke="transparent" points="192,-215.7 192,-474.7 335,-474.7 335,-215.7 192,-215.7"/>
<polygon fill="#f5f5f5" stroke="transparent" points="192.5,-451.2 192.5,-474.2 335.5,-474.2 335.5,-451.2 192.5,-451.2"/>
<polygon fill="none" stroke="#000000" points="192.5,-451.2 192.5,-474.2 335.5,-474.2 335.5,-451.2 192.5,-451.2"/>
<text text-anchor="start" x="197.5" y="-459.8" font-family="Helvetica,sans-Serif" font-weight="bold" font-size="11.00" fill="#000000">global_UnitMaster</text>
<text text-anchor="start" x="301.0219" y="-459.3" font-family="Helvetica,sans-Serif" font-size="11.00" fill="#000000">[table]</text>
<polygon fill="none" stroke="#000000" points="192.5,-429.2 192.5,-451.2 335.5,-451.2 335.5,-429.2 192.5,-429.2"/>
<image xlink:href="../../images/primaryKeys.png" width="11px" height="12px" preserveAspectRatio="xMinYMin meet" x="197.5" y="-446.2"/>
<text text-anchor="start" x="221.5" y="-436.3" font-family="Helvetica,sans-Serif" font-size="11.00" fill="#000000">UNITID</text>
<polygon fill="none" stroke="#000000" points="192.5,-407.2 192.5,-429.2 335.5,-429.2 335.5,-407.2 192.5,-407.2"/>
<image xlink:href="../../images/foreignKeys.png" width="11px" height="12px" preserveAspectRatio="xMinYMin meet" x="197.5" y="-424.2"/>
<text text-anchor="start" x="221.5" y="-414.3" font-family="Helvetica,sans-Serif" font-size="11.00" fill="#000000">SITEID</text>
<polygon fill="#ffffff" stroke="transparent" points="192.5,-385.2 192.5,-407.2 335.5,-407.2 335.5,-385.2 192.5,-385.2"/>
<polygon fill="none" stroke="#000000" points="192.5,-385.2 192.5,-407.2 335.5,-407.2 335.5,-385.2 192.5,-385.2"/>
<text text-anchor="start" x="221.5" y="-392.3" font-family="Helvetica,sans-Serif" font-size="11.00" fill="#000000">UNITHANDLE</text>
<polygon fill="none" stroke="#000000" points="192.5,-363.2 192.5,-385.2 335.5,-385.2 335.5,-363.2 192.5,-363.2"/>
<image xlink:href="../../images/foreignKeys.png" width="11px" height="12px" preserveAspectRatio="xMinYMin meet" x="197.5" y="-380.2"/>
<text text-anchor="start" x="221.5" y="-370.3" font-family="Helvetica,sans-Serif" font-size="11.00" fill="#000000">UNITTYPEID</text>
<polygon fill="none" stroke="#000000" points="192.5,-341.2 192.5,-363.2 335.5,-363.2 335.5,-341.2 192.5,-341.2"/>
<image xlink:href="../../images/foreignKeys.png" width="11px" height="12px" preserveAspectRatio="xMinYMin meet" x="197.5" y="-358.2"/>
<text text-anchor="start" x="221.5" y="-348.3" font-family="Helvetica,sans-Serif" font-size="11.00" fill="#000000">COLLECTID</text>
<polygon fill="none" stroke="#000000" points="192.5,-319.2 192.5,-341.2 335.5,-341.2 335.5,-319.2 192.5,-319.2"/>
<image xlink:href="../../images/foreignKeys.png" width="11px" height="12px" preserveAspectRatio="xMinYMin meet" x="197.5" y="-336.2"/>
<text text-anchor="start" x="221.5" y="-326.3" font-family="Helvetica,sans-Serif" font-size="11.00" fill="#000000">DEPOSITID</text>
<polygon fill="#ffffff" stroke="transparent" points="192.5,-297.2 192.5,-319.2 335.5,-319.2 335.5,-297.2 192.5,-297.2"/>
<polygon fill="none" stroke="#000000" points="192.5,-297.2 192.5,-319.2 335.5,-319.2 335.5,-297.2 192.5,-297.2"/>
<text text-anchor="start" x="221.5" y="-304.3" font-family="Helvetica,sans-Serif" font-size="11.00" fill="#000000">NEO_HANDLE</text>
<polygon fill="none" stroke="#000000" points="192.5,-275.2 192.5,-297.2 335.5,-297.2 335.5,-275.2 192.5,-275.2"/>
<image xlink:href="../../images/foreignKeys.png" width="11px" height="12px" preserveAspectRatio="xMinYMin meet" x="197.5" y="-292.2"/>
<text text-anchor="start" x="221.5" y="-282.3" font-family="Helvetica,sans-Serif" font-size="11.00" fill="#000000">UNIT_REF</text>
<polygon fill="#ffffff" stroke="transparent" points="192.5,-253.2 192.5,-275.2 335.5,-275.2 335.5,-253.2 192.5,-253.2"/>
<polygon fill="none" stroke="#000000" points="192.5,-253.2 192.5,-275.2 335.5,-275.2 335.5,-253.2 192.5,-253.2"/>
<text text-anchor="start" x="221.5" y="-260.3" font-family="Helvetica,sans-Serif" font-size="11.00" fill="#000000">NEO_UNITID</text>
<polygon fill="none" stroke="#000000" points="192.5,-234.2 192.5,-253.2 335.5,-253.2 335.5,-234.2 192.5,-234.2"/>
<text text-anchor="start" x="195.5" y="-240.3" font-family="Helvetica,sans-Serif" font-size="11.00" fill="#000000">...</text>
<polygon fill="#ffffff" stroke="transparent" points="192.5,-215.2 192.5,-234.2 238.5,-234.2 238.5,-215.2 192.5,-215.2"/>
<polygon fill="none" stroke="#000000" points="192.5,-215.2 192.5,-234.2 238.5,-234.2 238.5,-215.2 192.5,-215.2"/>
<text text-anchor="start" x="195.5" y="-221.3" font-family="Helvetica,sans-Serif" font-size="11.00" fill="#000000">&lt; 5</text>
<polygon fill="#ffffff" stroke="transparent" points="238.5,-215.2 238.5,-234.2 301.5,-234.2 301.5,-215.2 238.5,-215.2"/>
<polygon fill="none" stroke="#000000" points="238.5,-215.2 238.5,-234.2 301.5,-234.2 301.5,-215.2 238.5,-215.2"/>
<text text-anchor="start" x="253.8807" y="-221.3" font-family="Helvetica,sans-Serif" font-size="11.00" fill="#000000">607 rows</text>
<polygon fill="#ffffff" stroke="transparent" points="301.5,-215.2 301.5,-234.2 335.5,-234.2 335.5,-215.2 301.5,-215.2"/>
<polygon fill="none" stroke="#000000" points="301.5,-215.2 301.5,-234.2 335.5,-234.2 335.5,-215.2 301.5,-215.2"/>
<text text-anchor="start" x="316.9053" y="-221.3" font-family="Helvetica,sans-Serif" font-size="11.00" fill="#000000">4 &gt;</text>
</a>
</g>
</g>
<!-- cabah_AnalysisUnit&#45;&gt;global_UnitMaster -->
<g id="edge2" class="edge">
<title>cabah_AnalysisUnit:w&#45;&gt;global_UnitMaster:e</title>
<path fill="none" stroke="#000000" d="M371.7566,-267.5395C359.7698,-266.4034 352.3746,-264.2 335.5,-264.2"/>
<polygon fill="#000000" stroke="#000000" points="378.508,-267.8419 386.3389,-271.7964 382.504,-268.0209 386.5,-268.2 386.5,-268.2 386.5,-268.2 382.504,-268.0209 386.6611,-264.6036 378.508,-267.8419 378.508,-267.8419"/>
<ellipse fill="none" stroke="#000000" cx="375.3112" cy="-267.6987" rx="3.2" ry="3.2"/>
</g>
<!-- global_UnitMaster&#45;&gt;cabah_depositID -->
<g id="edge3" class="edge">
<title>global_UnitMaster:w&#45;&gt;cabah_depositID:e</title>
<path fill="none" stroke="#000000" d="M178.7659,-325.6139C159.8724,-309.0372 178.0427,-253.2 143.5,-253.2"/>
<polygon fill="#000000" stroke="#000000" points="184.9119,-327.6661 191.3598,-333.6147 188.7059,-328.9331 192.5,-330.2 192.5,-330.2 192.5,-330.2 188.7059,-328.9331 193.6402,-326.7853 184.9119,-327.6661 184.9119,-327.6661"/>
<ellipse fill="none" stroke="#000000" cx="181.8766" cy="-326.6526" rx="3.2" ry="3.2"/>
</g>
<!-- ippd_Sample -->
<g id="node4" class="node">
<title>ippd_Sample</title>
<g id="a_node4"><a xlink:href="../../tables/ippd_Sample.html" xlink:title="ippd_Sample" target="_top">
<polygon fill="#ffffff" stroke="transparent" points="664,-175.7 664,-346.7 777,-346.7 777,-175.7 664,-175.7"/>
<polygon fill="#f5f5f5" stroke="transparent" points="664.5,-323.2 664.5,-346.2 777.5,-346.2 777.5,-323.2 664.5,-323.2"/>
<polygon fill="none" stroke="#000000" points="664.5,-323.2 664.5,-346.2 777.5,-346.2 777.5,-323.2 664.5,-323.2"/>
<text text-anchor="start" x="669.5" y="-331.8" font-family="Helvetica,sans-Serif" font-weight="bold" font-size="11.00" fill="#000000">ippd_Sample</text>
<text text-anchor="start" x="743.0219" y="-331.3" font-family="Helvetica,sans-Serif" font-size="11.00" fill="#000000">[table]</text>
<polygon fill="none" stroke="#000000" points="664.5,-301.2 664.5,-323.2 777.5,-323.2 777.5,-301.2 664.5,-301.2"/>
<image xlink:href="../../images/primaryKeys.png" width="11px" height="12px" preserveAspectRatio="xMinYMin meet" x="669.5" y="-318.2"/>
<text text-anchor="start" x="688.5" y="-308.3" font-family="Helvetica,sans-Serif" font-size="11.00" fill="#000000">SAMPLEID</text>
<polygon fill="none" stroke="#000000" points="664.5,-279.2 664.5,-301.2 777.5,-301.2 777.5,-279.2 664.5,-279.2"/>
<image xlink:href="../../images/foreignKeys.png" width="11px" height="12px" preserveAspectRatio="xMinYMin meet" x="669.5" y="-296.2"/>
<text text-anchor="start" x="688.5" y="-286.3" font-family="Helvetica,sans-Serif" font-size="11.00" fill="#000000">ANLYSUNTID</text>
<polygon fill="none" stroke="#000000" points="664.5,-257.2 664.5,-279.2 777.5,-279.2 777.5,-257.2 664.5,-257.2"/>
<image xlink:href="../../images/foreignKeys.png" width="11px" height="12px" preserveAspectRatio="xMinYMin meet" x="669.5" y="-274.2"/>
<text text-anchor="start" x="688.5" y="-264.3" font-family="Helvetica,sans-Serif" font-size="11.00" fill="#000000">NEODSETID</text>
<polygon fill="none" stroke="#000000" points="664.5,-235.2 664.5,-257.2 777.5,-257.2 777.5,-235.2 664.5,-235.2"/>
<image xlink:href="../../images/foreignKeys.png" width="11px" height="12px" preserveAspectRatio="xMinYMin meet" x="669.5" y="-252.2"/>
<text text-anchor="start" x="688.5" y="-242.3" font-family="Helvetica,sans-Serif" font-size="11.00" fill="#000000">TAXONID</text>
<polygon fill="none" stroke="#000000" points="664.5,-213.2 664.5,-235.2 777.5,-235.2 777.5,-213.2 664.5,-213.2"/>
<image xlink:href="../../images/foreignKeys.png" width="11px" height="12px" preserveAspectRatio="xMinYMin meet" x="669.5" y="-230.2"/>
<text text-anchor="start" x="688.5" y="-220.3" font-family="Helvetica,sans-Serif" font-size="11.00" fill="#000000">DATASETID</text>
<polygon fill="none" stroke="#000000" points="664.5,-194.2 664.5,-213.2 777.5,-213.2 777.5,-194.2 664.5,-194.2"/>
<text text-anchor="start" x="667.5" y="-200.3" font-family="Helvetica,sans-Serif" font-size="11.00" fill="#000000">...</text>
<polygon fill="#ffffff" stroke="transparent" points="664.5,-175.2 664.5,-194.2 688.5,-194.2 688.5,-175.2 664.5,-175.2"/>
<polygon fill="none" stroke="#000000" points="664.5,-175.2 664.5,-194.2 688.5,-194.2 688.5,-175.2 664.5,-175.2"/>
<text text-anchor="start" x="667.5" y="-181.3" font-family="Helvetica,sans-Serif" font-size="11.00" fill="#000000">&lt; 4</text>
<polygon fill="#ffffff" stroke="transparent" points="688.5,-175.2 688.5,-194.2 754.5,-194.2 754.5,-175.2 688.5,-175.2"/>
<polygon fill="none" stroke="#000000" points="688.5,-175.2 688.5,-194.2 754.5,-194.2 754.5,-175.2 688.5,-175.2"/>
<text text-anchor="start" x="691.594" y="-181.3" font-family="Helvetica,sans-Serif" font-size="11.00" fill="#000000">18.370 rows</text>
<polygon fill="#ffffff" stroke="transparent" points="754.5,-175.2 754.5,-194.2 777.5,-194.2 777.5,-175.2 754.5,-175.2"/>
<polygon fill="none" stroke="#000000" points="754.5,-175.2 754.5,-194.2 777.5,-194.2 777.5,-175.2 754.5,-175.2"/>
<text text-anchor="start" x="758.9053" y="-181.3" font-family="Helvetica,sans-Serif" font-size="11.00" fill="#000000">3 &gt;</text>
</a>
</g>
</g>
<!-- ippd_Sample&#45;&gt;cabah_AnalysisUnit -->
<g id="edge4" class="edge">
<title>ippd_Sample:w&#45;&gt;cabah_AnalysisUnit:e</title>
<path fill="none" stroke="#000000" d="M649.776,-290.2C637.7815,-290.2 630.3229,-290.2 613.5,-290.2"/>
<polygon fill="#000000" stroke="#000000" points="656.5,-290.2001 664.5,-293.8 660.5,-290.2 664.5,-290.2 664.5,-290.2 664.5,-290.2 660.5,-290.2 664.5,-286.6 656.5,-290.2001 656.5,-290.2001"/>
<ellipse fill="none" stroke="#000000" cx="653.3" cy="-290.2001" rx="3.2" ry="3.2"/>
</g>
</g>
</svg>
