<?xml version="1.0" encoding="UTF-8" standalone="no"?>
<!DOCTYPE svg PUBLIC "-//W3C//DTD SVG 1.1//EN"
 "http://www.w3.org/Graphics/SVG/1.1/DTD/svg11.dtd">
<!-- Generated by graphviz version 2.40.1 (20161225.0304)
 -->
<!-- Title: twoDegreesRelationshipsDiagram Pages: 1 -->
<svg width="505pt" height="821pt"
 viewBox="0.00 0.00 504.83 821.20" xmlns="http://www.w3.org/2000/svg" xmlns:xlink="http://www.w3.org/1999/xlink">
<g id="graph0" class="graph" transform="scale(1 1) rotate(0) translate(4 817.2)">
<title>twoDegreesRelationshipsDiagram</title>
<polygon fill="#ffffff" stroke="transparent" points="-4,4 -4,-817.2 500.834,-817.2 500.834,4 -4,4"/>
<text text-anchor="middle" x="72.4936" y="-7.3" font-family="Helvetica,sans-Serif" font-size="11.00" fill="#000000">Generated by SchemaSpy</text>
<!-- arch_c14_DataCore -->
<g id="node1" class="node">
<title>arch_c14_DataCore</title>
<g id="a_node1"><a xlink:href="../../tables/arch_c14_DataCore.html" xlink:title="arch_c14_DataCore" target="_top">
<polygon fill="#ffffff" stroke="transparent" points="251,-748.2 251,-809.2 402,-809.2 402,-748.2 251,-748.2"/>
<polygon fill="#f5f5f5" stroke="transparent" points="251.5,-785.7 251.5,-808.7 402.5,-808.7 402.5,-785.7 251.5,-785.7"/>
<polygon fill="none" stroke="#000000" points="251.5,-785.7 251.5,-808.7 402.5,-808.7 402.5,-785.7 251.5,-785.7"/>
<text text-anchor="start" x="256.5" y="-794.3" font-family="Helvetica,sans-Serif" font-weight="bold" font-size="11.00" fill="#000000">arch_c14_DataCore</text>
<text text-anchor="start" x="368.0219" y="-793.8" font-family="Helvetica,sans-Serif" font-size="11.00" fill="#000000">[table]</text>
<polygon fill="none" stroke="#000000" points="251.5,-766.7 251.5,-785.7 402.5,-785.7 402.5,-766.7 251.5,-766.7"/>
<text text-anchor="start" x="254.5" y="-772.8" font-family="Helvetica,sans-Serif" font-size="11.00" fill="#000000">...</text>
<polygon fill="#ffffff" stroke="transparent" points="251.5,-747.7 251.5,-766.7 300.5,-766.7 300.5,-747.7 251.5,-747.7"/>
<polygon fill="none" stroke="#000000" points="251.5,-747.7 251.5,-766.7 300.5,-766.7 300.5,-747.7 251.5,-747.7"/>
<text text-anchor="start" x="254.5" y="-753.8" font-family="Helvetica,sans-Serif" font-size="11.00" fill="#000000">&lt; 24</text>
<polygon fill="#ffffff" stroke="transparent" points="300.5,-747.7 300.5,-766.7 370.5,-766.7 370.5,-747.7 300.5,-747.7"/>
<polygon fill="none" stroke="#000000" points="300.5,-747.7 300.5,-766.7 370.5,-766.7 370.5,-747.7 300.5,-747.7"/>
<text text-anchor="start" x="313.7089" y="-753.8" font-family="Helvetica,sans-Serif" font-size="11.00" fill="#000000">9.501 rows</text>
<polygon fill="#ffffff" stroke="transparent" points="370.5,-747.7 370.5,-766.7 402.5,-766.7 402.5,-747.7 370.5,-747.7"/>
<polygon fill="none" stroke="#000000" points="370.5,-747.7 370.5,-766.7 402.5,-766.7 402.5,-747.7 370.5,-747.7"/>
<text text-anchor="start" x="383.9053" y="-753.8" font-family="Helvetica,sans-Serif" font-size="11.00" fill="#000000">1 &gt;</text>
</a>
</g>
</g>
<!-- cabah_methodID -->
<g id="node2" class="node">
<title>cabah_methodID</title>
<g id="a_node2"><a xlink:href="../../tables/cabah_methodID.html" xlink:title="cabah_methodID" target="_top">
<polygon fill="#ffffff" stroke="transparent" points="8,-262.2 8,-411.2 143,-411.2 143,-262.2 8,-262.2"/>
<polygon fill="#f5f5f5" stroke="transparent" points="8.5,-387.7 8.5,-410.7 143.5,-410.7 143.5,-387.7 8.5,-387.7"/>
<polygon fill="none" stroke="#000000" points="8.5,-387.7 8.5,-410.7 143.5,-410.7 143.5,-387.7 8.5,-387.7"/>
<text text-anchor="start" x="13.5" y="-396.3" font-family="Helvetica,sans-Serif" font-weight="bold" font-size="11.00" fill="#000000">cabah_methodID</text>
<text text-anchor="start" x="109.0219" y="-395.8" font-family="Helvetica,sans-Serif" font-size="11.00" fill="#000000">[table]</text>
<polygon fill="none" stroke="#000000" points="8.5,-365.7 8.5,-387.7 143.5,-387.7 143.5,-365.7 8.5,-365.7"/>
<image xlink:href="../../images/primaryKeys.png" width="11px" height="12px" preserveAspectRatio="xMinYMin meet" x="13.5" y="-382.7"/>
<text text-anchor="start" x="37.5" y="-372.8" font-family="Helvetica,sans-Serif" font-size="11.00" fill="#000000">METHODID</text>
<polygon fill="#ffffff" stroke="transparent" points="8.5,-343.7 8.5,-365.7 143.5,-365.7 143.5,-343.7 8.5,-343.7"/>
<polygon fill="none" stroke="#000000" points="8.5,-343.7 8.5,-365.7 143.5,-365.7 143.5,-343.7 8.5,-343.7"/>
<text text-anchor="start" x="37.5" y="-350.8" font-family="Helvetica,sans-Serif" font-size="11.00" fill="#000000">METHOD</text>
<polygon fill="#ffffff" stroke="transparent" points="8.5,-321.7 8.5,-343.7 143.5,-343.7 143.5,-321.7 8.5,-321.7"/>
<polygon fill="none" stroke="#000000" points="8.5,-321.7 8.5,-343.7 143.5,-343.7 143.5,-321.7 8.5,-321.7"/>
<text text-anchor="start" x="37.5" y="-328.8" font-family="Helvetica,sans-Serif" font-size="11.00" fill="#000000">METHODABBR</text>
<polygon fill="none" stroke="#000000" points="8.5,-299.7 8.5,-321.7 143.5,-321.7 143.5,-299.7 8.5,-299.7"/>
<image xlink:href="../../images/foreignKeys.png" width="11px" height="12px" preserveAspectRatio="xMinYMin meet" x="13.5" y="-316.7"/>
<text text-anchor="start" x="37.5" y="-306.8" font-family="Helvetica,sans-Serif" font-size="11.00" fill="#000000">PARENTID</text>
<polygon fill="none" stroke="#000000" points="8.5,-280.7 8.5,-299.7 143.5,-299.7 143.5,-280.7 8.5,-280.7"/>
<text text-anchor="start" x="11.5" y="-286.8" font-family="Helvetica,sans-Serif" font-size="11.00" fill="#000000">...</text>
<polygon fill="#ffffff" stroke="transparent" points="8.5,-261.7 8.5,-280.7 50.5,-280.7 50.5,-261.7 8.5,-261.7"/>
<polygon fill="none" stroke="#000000" points="8.5,-261.7 8.5,-280.7 50.5,-280.7 50.5,-261.7 8.5,-261.7"/>
<text text-anchor="start" x="11.5" y="-267.8" font-family="Helvetica,sans-Serif" font-size="11.00" fill="#000000">&lt; 1</text>
<polygon fill="#ffffff" stroke="transparent" points="50.5,-261.7 50.5,-280.7 111.5,-280.7 111.5,-261.7 50.5,-261.7"/>
<polygon fill="none" stroke="#000000" points="50.5,-261.7 50.5,-280.7 111.5,-280.7 111.5,-261.7 50.5,-261.7"/>
<text text-anchor="start" x="63.8807" y="-267.8" font-family="Helvetica,sans-Serif" font-size="11.00" fill="#000000">103 rows</text>
<polygon fill="#ffffff" stroke="transparent" points="111.5,-261.7 111.5,-280.7 143.5,-280.7 143.5,-261.7 111.5,-261.7"/>
<polygon fill="none" stroke="#000000" points="111.5,-261.7 111.5,-280.7 143.5,-280.7 143.5,-261.7 111.5,-261.7"/>
<text text-anchor="start" x="124.9053" y="-267.8" font-family="Helvetica,sans-Serif" font-size="11.00" fill="#000000">9 &gt;</text>
</a>
</g>
</g>
<!-- arch_c14_DataCore&#45;&gt;cabah_methodID -->
<g id="edge1" class="edge">
<title>arch_c14_DataCore:w&#45;&gt;cabah_methodID:e</title>
<path fill="none" stroke="#000000" d="M237.0939,-775.017C212.6725,-772.4173 200.1118,-762.0316 184,-737.7 139.431,-670.3932 224.2255,-376.7 143.5,-376.7"/>
<polygon fill="#000000" stroke="#000000" points="243.509,-775.3211 251.3295,-779.296 247.5045,-775.5106 251.5,-775.7 251.5,-775.7 251.5,-775.7 247.5045,-775.5106 251.6705,-772.104 243.509,-775.3211 243.509,-775.3211"/>
<ellipse fill="none" stroke="#000000" cx="240.3126" cy="-775.1696" rx="3.2" ry="3.2"/>
</g>
<!-- arch_osl_DataCore -->
<g id="node3" class="node">
<title>arch_osl_DataCore</title>
<g id="a_node3"><a xlink:href="../../tables/arch_osl_DataCore.html" xlink:title="arch_osl_DataCore" target="_top">
<polygon fill="#ffffff" stroke="transparent" points="252.5,-666.2 252.5,-727.2 400.5,-727.2 400.5,-666.2 252.5,-666.2"/>
<polygon fill="#f5f5f5" stroke="transparent" points="252.5,-703.7 252.5,-726.7 400.5,-726.7 400.5,-703.7 252.5,-703.7"/>
<polygon fill="none" stroke="#000000" points="252.5,-703.7 252.5,-726.7 400.5,-726.7 400.5,-703.7 252.5,-703.7"/>
<text text-anchor="start" x="257.5" y="-712.3" font-family="Helvetica,sans-Serif" font-weight="bold" font-size="11.00" fill="#000000">arch_osl_DataCore</text>
<text text-anchor="start" x="366.0219" y="-711.8" font-family="Helvetica,sans-Serif" font-size="11.00" fill="#000000">[table]</text>
<polygon fill="none" stroke="#000000" points="252.5,-684.7 252.5,-703.7 400.5,-703.7 400.5,-684.7 252.5,-684.7"/>
<text text-anchor="start" x="255.5" y="-690.8" font-family="Helvetica,sans-Serif" font-size="11.00" fill="#000000">...</text>
<polygon fill="#ffffff" stroke="transparent" points="252.5,-665.7 252.5,-684.7 304.5,-684.7 304.5,-665.7 252.5,-665.7"/>
<polygon fill="none" stroke="#000000" points="252.5,-665.7 252.5,-684.7 304.5,-684.7 304.5,-665.7 252.5,-665.7"/>
<text text-anchor="start" x="255.5" y="-671.8" font-family="Helvetica,sans-Serif" font-size="11.00" fill="#000000">&lt; 20</text>
<polygon fill="#ffffff" stroke="transparent" points="304.5,-665.7 304.5,-684.7 366.5,-684.7 366.5,-665.7 304.5,-665.7"/>
<polygon fill="none" stroke="#000000" points="304.5,-665.7 304.5,-684.7 366.5,-684.7 366.5,-665.7 304.5,-665.7"/>
<text text-anchor="start" x="318.8807" y="-671.8" font-family="Helvetica,sans-Serif" font-size="11.00" fill="#000000">973 rows</text>
<polygon fill="#ffffff" stroke="transparent" points="366.5,-665.7 366.5,-684.7 400.5,-684.7 400.5,-665.7 366.5,-665.7"/>
<polygon fill="none" stroke="#000000" points="366.5,-665.7 366.5,-684.7 400.5,-684.7 400.5,-665.7 366.5,-665.7"/>
<text text-anchor="start" x="381.9053" y="-671.8" font-family="Helvetica,sans-Serif" font-size="11.00" fill="#000000">1 &gt;</text>
</a>
</g>
</g>
<!-- arch_osl_DataCore&#45;&gt;cabah_methodID -->
<g id="edge2" class="edge">
<title>arch_osl_DataCore:w&#45;&gt;cabah_methodID:e</title>
<path fill="none" stroke="#000000" d="M237.9495,-693.0139C213.3117,-690.4034 200.7664,-679.9859 184,-655.7 148.4065,-604.1432 206.1498,-376.7 143.5,-376.7"/>
<polygon fill="#000000" stroke="#000000" points="244.5089,-693.3231 252.3304,-697.296 248.5044,-693.5116 252.5,-693.7 252.5,-693.7 252.5,-693.7 248.5044,-693.5116 252.6696,-690.104 244.5089,-693.3231 244.5089,-693.3231"/>
<ellipse fill="none" stroke="#000000" cx="241.3124" cy="-693.1724" rx="3.2" ry="3.2"/>
</g>
<!-- arch_tl_DataCore -->
<g id="node4" class="node">
<title>arch_tl_DataCore</title>
<g id="a_node4"><a xlink:href="../../tables/arch_tl_DataCore.html" xlink:title="arch_tl_DataCore" target="_top">
<polygon fill="#ffffff" stroke="transparent" points="257.5,-584.2 257.5,-645.2 395.5,-645.2 395.5,-584.2 257.5,-584.2"/>
<polygon fill="#f5f5f5" stroke="transparent" points="257.5,-621.7 257.5,-644.7 395.5,-644.7 395.5,-621.7 257.5,-621.7"/>
<polygon fill="none" stroke="#000000" points="257.5,-621.7 257.5,-644.7 395.5,-644.7 395.5,-621.7 257.5,-621.7"/>
<text text-anchor="start" x="262.5" y="-630.3" font-family="Helvetica,sans-Serif" font-weight="bold" font-size="11.00" fill="#000000">arch_tl_DataCore</text>
<text text-anchor="start" x="361.0219" y="-629.8" font-family="Helvetica,sans-Serif" font-size="11.00" fill="#000000">[table]</text>
<polygon fill="none" stroke="#000000" points="257.5,-602.7 257.5,-621.7 395.5,-621.7 395.5,-602.7 257.5,-602.7"/>
<text text-anchor="start" x="260.5" y="-608.8" font-family="Helvetica,sans-Serif" font-size="11.00" fill="#000000">...</text>
<polygon fill="#ffffff" stroke="transparent" points="257.5,-583.7 257.5,-602.7 304.5,-602.7 304.5,-583.7 257.5,-583.7"/>
<polygon fill="none" stroke="#000000" points="257.5,-583.7 257.5,-602.7 304.5,-602.7 304.5,-583.7 257.5,-583.7"/>
<text text-anchor="start" x="260.5" y="-589.8" font-family="Helvetica,sans-Serif" font-size="11.00" fill="#000000">&lt; 20</text>
<polygon fill="#ffffff" stroke="transparent" points="304.5,-583.7 304.5,-602.7 364.5,-602.7 364.5,-583.7 304.5,-583.7"/>
<polygon fill="none" stroke="#000000" points="304.5,-583.7 304.5,-602.7 364.5,-602.7 364.5,-583.7 304.5,-583.7"/>
<text text-anchor="start" x="316.8807" y="-589.8" font-family="Helvetica,sans-Serif" font-size="11.00" fill="#000000">240 rows</text>
<polygon fill="#ffffff" stroke="transparent" points="364.5,-583.7 364.5,-602.7 395.5,-602.7 395.5,-583.7 364.5,-583.7"/>
<polygon fill="none" stroke="#000000" points="364.5,-583.7 364.5,-602.7 395.5,-602.7 395.5,-583.7 364.5,-583.7"/>
<text text-anchor="start" x="376.9053" y="-589.8" font-family="Helvetica,sans-Serif" font-size="11.00" fill="#000000">1 &gt;</text>
</a>
</g>
</g>
<!-- arch_tl_DataCore&#45;&gt;cabah_methodID -->
<g id="edge3" class="edge">
<title>arch_tl_DataCore:w&#45;&gt;cabah_methodID:e</title>
<path fill="none" stroke="#000000" d="M242.859,-611.1197C216.3672,-608.7587 202.9935,-598.7785 184,-573.7 130.0328,-502.4433 232.8867,-376.7 143.5,-376.7"/>
<polygon fill="#000000" stroke="#000000" points="249.5063,-611.3831 257.3574,-615.2972 253.5031,-611.5416 257.5,-611.7 257.5,-611.7 257.5,-611.7 253.5031,-611.5416 257.6426,-608.1028 249.5063,-611.3831 249.5063,-611.3831"/>
<ellipse fill="none" stroke="#000000" cx="246.3088" cy="-611.2564" rx="3.2" ry="3.2"/>
</g>
<!-- cabah_chroncontroltypeID -->
<g id="node5" class="node">
<title>cabah_chroncontroltypeID</title>
<g id="a_node5"><a xlink:href="../../tables/cabah_chroncontroltypeID.html" xlink:title="cabah_chroncontroltypeID" target="_top">
<polygon fill="#ffffff" stroke="transparent" points="192,-366.7 192,-544.7 461,-544.7 461,-366.7 192,-366.7"/>
<polygon fill="#f5f5f5" stroke="transparent" points="194.5,-519.7 194.5,-542.7 459.5,-542.7 459.5,-519.7 194.5,-519.7"/>
<polygon fill="none" stroke="#000000" points="194.5,-519.7 194.5,-542.7 459.5,-542.7 459.5,-519.7 194.5,-519.7"/>
<text text-anchor="start" x="199.5" y="-528.3" font-family="Helvetica,sans-Serif" font-weight="bold" font-size="11.00" fill="#000000">cabah_chroncontroltypeID</text>
<text text-anchor="start" x="424.5437" y="-527.8" font-family="Helvetica,sans-Serif" font-size="11.00" fill="#000000">[table]</text>
<polygon fill="none" stroke="#000000" points="194.5,-497.7 194.5,-519.7 367.5,-519.7 367.5,-497.7 194.5,-497.7"/>
<image xlink:href="../../images/primaryKeys.png" width="11px" height="12px" preserveAspectRatio="xMinYMin meet" x="199.5" y="-514.7"/>
<text text-anchor="start" x="214.5" y="-504.8" font-family="Helvetica,sans-Serif" font-size="11.00" fill="#000000">CCONTRLID</text>
<polygon fill="none" stroke="#000000" points="367.5,-497.7 367.5,-519.7 459.5,-519.7 459.5,-497.7 367.5,-497.7"/>
<text text-anchor="start" x="370.5" y="-505.4" font-family="Helvetica,sans-Serif" font-size="11.00" fill="#000000">int4[10]</text>
<polygon fill="none" stroke="#000000" points="194.5,-475.7 194.5,-497.7 367.5,-497.7 367.5,-475.7 194.5,-475.7"/>
<text text-anchor="start" x="214.5" y="-482.8" font-family="Helvetica,sans-Serif" font-size="11.00" fill="#000000">CCONTRLTYP</text>
<polygon fill="none" stroke="#000000" points="367.5,-475.7 367.5,-497.7 459.5,-497.7 459.5,-475.7 367.5,-475.7"/>
<text text-anchor="start" x="370.5" y="-483.4" font-family="Helvetica,sans-Serif" font-size="11.00" fill="#000000">text[2147483647]</text>
<polygon fill="none" stroke="#000000" points="194.5,-453.7 194.5,-475.7 367.5,-475.7 367.5,-453.7 194.5,-453.7"/>
<image xlink:href="../../images/foreignKeys.png" width="11px" height="12px" preserveAspectRatio="xMinYMin meet" x="199.5" y="-470.7"/>
<text text-anchor="start" x="214.5" y="-460.8" font-family="Helvetica,sans-Serif" font-size="11.00" fill="#000000">PARENTID</text>
<polygon fill="none" stroke="#000000" points="367.5,-453.7 367.5,-475.7 459.5,-475.7 459.5,-453.7 367.5,-453.7"/>
<text text-anchor="start" x="370.5" y="-461.4" font-family="Helvetica,sans-Serif" font-size="11.00" fill="#000000">int4[10]</text>
<polygon fill="none" stroke="#000000" points="194.5,-431.7 194.5,-453.7 367.5,-453.7 367.5,-431.7 194.5,-431.7"/>
<image xlink:href="../../images/foreignKeys.png" width="11px" height="12px" preserveAspectRatio="xMinYMin meet" x="199.5" y="-448.7"/>
<text text-anchor="start" x="214.5" y="-438.8" font-family="Helvetica,sans-Serif" font-size="11.00" fill="#000000">METHODID</text>
<polygon fill="none" stroke="#000000" points="367.5,-431.7 367.5,-453.7 459.5,-453.7 459.5,-431.7 367.5,-431.7"/>
<text text-anchor="start" x="370.5" y="-439.4" font-family="Helvetica,sans-Serif" font-size="11.00" fill="#000000">int4[10]</text>
<polygon fill="none" stroke="#000000" points="194.5,-409.7 194.5,-431.7 367.5,-431.7 367.5,-409.7 194.5,-409.7"/>
<text text-anchor="start" x="214.5" y="-416.8" font-family="Helvetica,sans-Serif" font-size="11.00" fill="#000000">CREATED_AT</text>
<polygon fill="none" stroke="#000000" points="367.5,-409.7 367.5,-431.7 459.5,-431.7 459.5,-409.7 367.5,-409.7"/>
<text text-anchor="start" x="370.1023" y="-417.4" font-family="Helvetica,sans-Serif" font-size="11.00" fill="#000000">timestamptz[35,6]</text>
<polygon fill="none" stroke="#000000" points="194.5,-387.7 194.5,-409.7 367.5,-409.7 367.5,-387.7 194.5,-387.7"/>
<text text-anchor="start" x="214.5" y="-394.8" font-family="Helvetica,sans-Serif" font-size="11.00" fill="#000000">UPDATED_AT</text>
<polygon fill="none" stroke="#000000" points="367.5,-387.7 367.5,-409.7 459.5,-409.7 459.5,-387.7 367.5,-387.7"/>
<text text-anchor="start" x="370.1023" y="-395.4" font-family="Helvetica,sans-Serif" font-size="11.00" fill="#000000">timestamptz[35,6]</text>
<polygon fill="#ffffff" stroke="transparent" points="194.5,-368.7 194.5,-387.7 269.5,-387.7 269.5,-368.7 194.5,-368.7"/>
<polygon fill="none" stroke="#000000" points="194.5,-368.7 194.5,-387.7 269.5,-387.7 269.5,-368.7 194.5,-368.7"/>
<text text-anchor="start" x="197.5" y="-374.8" font-family="Helvetica,sans-Serif" font-size="11.00" fill="#000000">&lt; 2</text>
<polygon fill="#ffffff" stroke="transparent" points="269.5,-368.7 269.5,-387.7 367.5,-387.7 367.5,-368.7 269.5,-368.7"/>
<polygon fill="none" stroke="#000000" points="269.5,-368.7 269.5,-387.7 367.5,-387.7 367.5,-368.7 269.5,-368.7"/>
<text text-anchor="start" x="325.9956" y="-374.8" font-family="Helvetica,sans-Serif" font-size="11.00" fill="#000000">99 rows</text>
<polygon fill="#ffffff" stroke="transparent" points="367.5,-368.7 367.5,-387.7 459.5,-387.7 459.5,-368.7 367.5,-368.7"/>
<polygon fill="none" stroke="#000000" points="367.5,-368.7 367.5,-387.7 459.5,-387.7 459.5,-368.7 367.5,-368.7"/>
<text text-anchor="start" x="440.9053" y="-374.8" font-family="Helvetica,sans-Serif" font-size="11.00" fill="#000000">1 &gt;</text>
<polygon fill="none" stroke="#000000" stroke-width="2" points="193,-367.7 193,-543.7 460,-543.7 460,-367.7 193,-367.7"/>
</a>
</g>
</g>
<!-- cabah_chroncontroltypeID&#45;&gt;cabah_methodID -->
<g id="edge4" class="edge">
<title>cabah_chroncontroltypeID:w&#45;&gt;cabah_methodID:e</title>
<path fill="none" stroke="#000000" d="M180.5846,-437.9534C163.402,-422.8202 174.4886,-376.7 143.5,-376.7"/>
<polygon fill="#000000" stroke="#000000" points="186.9284,-440.1173 193.3378,-446.1072 190.7142,-441.4086 194.5,-442.7 194.5,-442.7 194.5,-442.7 190.7142,-441.4086 195.6622,-439.2928 186.9284,-440.1173 186.9284,-440.1173"/>
<ellipse fill="none" stroke="#000000" cx="183.8997" cy="-439.0842" rx="3.2" ry="3.2"/>
</g>
<!-- cabah_chroncontroltypeID&#45;&gt;cabah_chroncontroltypeID -->
<g id="edge5" class="edge">
<title>cabah_chroncontroltypeID:w&#45;&gt;cabah_chroncontroltypeID:e</title>
<path fill="none" stroke="#000000" d="M182.2894,-472.5131C132.9641,-508.4003 145.7109,-561.7 327,-561.7 522,-561.7 522,-544.0333 459.5,-508.7"/>
<polygon fill="#000000" stroke="#000000" points="187.7614,-469.0118 196.4403,-467.7324 191.1307,-466.8559 194.5,-464.7 194.5,-464.7 194.5,-464.7 191.1307,-466.8559 192.5597,-461.6676 187.7614,-469.0118 187.7614,-469.0118"/>
<ellipse fill="none" stroke="#000000" cx="185.066" cy="-470.7365" rx="3.2" ry="3.2"/>
</g>
<!-- char_DataCore -->
<g id="node6" class="node">
<title>char_DataCore</title>
<g id="a_node6"><a xlink:href="../../tables/char_DataCore.html" xlink:title="char_DataCore" target="_top">
<polygon fill="#ffffff" stroke="transparent" points="264.5,-284.2 264.5,-345.2 388.5,-345.2 388.5,-284.2 264.5,-284.2"/>
<polygon fill="#f5f5f5" stroke="transparent" points="264.5,-321.7 264.5,-344.7 388.5,-344.7 388.5,-321.7 264.5,-321.7"/>
<polygon fill="none" stroke="#000000" points="264.5,-321.7 264.5,-344.7 388.5,-344.7 388.5,-321.7 264.5,-321.7"/>
<text text-anchor="start" x="269.5" y="-330.3" font-family="Helvetica,sans-Serif" font-weight="bold" font-size="11.00" fill="#000000">char_DataCore</text>
<text text-anchor="start" x="354.0219" y="-329.8" font-family="Helvetica,sans-Serif" font-size="11.00" fill="#000000">[table]</text>
<polygon fill="none" stroke="#000000" points="264.5,-302.7 264.5,-321.7 388.5,-321.7 388.5,-302.7 264.5,-302.7"/>
<text text-anchor="start" x="267.5" y="-308.8" font-family="Helvetica,sans-Serif" font-size="11.00" fill="#000000">...</text>
<polygon fill="#ffffff" stroke="transparent" points="264.5,-283.7 264.5,-302.7 301.5,-302.7 301.5,-283.7 264.5,-283.7"/>
<polygon fill="none" stroke="#000000" points="264.5,-283.7 264.5,-302.7 301.5,-302.7 301.5,-283.7 264.5,-283.7"/>
<text text-anchor="start" x="267.5" y="-289.8" font-family="Helvetica,sans-Serif" font-size="11.00" fill="#000000">&lt; 15</text>
<polygon fill="#ffffff" stroke="transparent" points="301.5,-283.7 301.5,-302.7 371.5,-302.7 371.5,-283.7 301.5,-283.7"/>
<polygon fill="none" stroke="#000000" points="301.5,-283.7 301.5,-302.7 371.5,-302.7 371.5,-283.7 301.5,-283.7"/>
<text text-anchor="start" x="308.594" y="-289.8" font-family="Helvetica,sans-Serif" font-size="11.00" fill="#000000">48.234 rows</text>
<polygon fill="#ffffff" stroke="transparent" points="371.5,-283.7 371.5,-302.7 388.5,-302.7 388.5,-283.7 371.5,-283.7"/>
<polygon fill="none" stroke="#000000" points="371.5,-283.7 371.5,-302.7 388.5,-302.7 388.5,-283.7 371.5,-283.7"/>
<text text-anchor="start" x="379.3862" y="-289.8" font-family="Helvetica,sans-Serif" font-size="11.00" fill="#000000"> &#160;</text>
</a>
</g>
</g>
<!-- char_DataCore&#45;&gt;cabah_methodID -->
<g id="edge6" class="edge">
<title>char_DataCore:w&#45;&gt;cabah_methodID:e</title>
<path fill="none" stroke="#000000" d="M250.7288,-316.8004C220.359,-332.1236 156.1384,-376.7 143.5,-376.7"/>
<polygon fill="#000000" stroke="#000000" points="256.998,-314.4785 265.7503,-315.0759 260.749,-313.0893 264.5,-311.7 264.5,-311.7 264.5,-311.7 260.749,-313.0893 263.2497,-308.3241 256.998,-314.4785 256.998,-314.4785"/>
<ellipse fill="none" stroke="#000000" cx="253.9972" cy="-315.59" rx="3.2" ry="3.2"/>
</g>
<!-- fos_DataCore -->
<g id="node7" class="node">
<title>fos_DataCore</title>
<g id="a_node7"><a xlink:href="../../tables/fos_DataCore.html" xlink:title="fos_DataCore" target="_top">
<polygon fill="#ffffff" stroke="transparent" points="268,-202.2 268,-263.2 385,-263.2 385,-202.2 268,-202.2"/>
<polygon fill="#f5f5f5" stroke="transparent" points="268.5,-239.7 268.5,-262.7 385.5,-262.7 385.5,-239.7 268.5,-239.7"/>
<polygon fill="none" stroke="#000000" points="268.5,-239.7 268.5,-262.7 385.5,-262.7 385.5,-239.7 268.5,-239.7"/>
<text text-anchor="start" x="273.5" y="-248.3" font-family="Helvetica,sans-Serif" font-weight="bold" font-size="11.00" fill="#000000">fos_DataCore</text>
<text text-anchor="start" x="351.0219" y="-247.8" font-family="Helvetica,sans-Serif" font-size="11.00" fill="#000000">[table]</text>
<polygon fill="none" stroke="#000000" points="268.5,-220.7 268.5,-239.7 385.5,-239.7 385.5,-220.7 268.5,-220.7"/>
<text text-anchor="start" x="271.5" y="-226.8" font-family="Helvetica,sans-Serif" font-size="11.00" fill="#000000">...</text>
<polygon fill="#ffffff" stroke="transparent" points="268.5,-201.7 268.5,-220.7 297.5,-220.7 297.5,-201.7 268.5,-201.7"/>
<polygon fill="none" stroke="#000000" points="268.5,-201.7 268.5,-220.7 297.5,-220.7 297.5,-201.7 268.5,-201.7"/>
<text text-anchor="start" x="271.5" y="-207.8" font-family="Helvetica,sans-Serif" font-size="11.00" fill="#000000">&lt; 19</text>
<polygon fill="#ffffff" stroke="transparent" points="297.5,-201.7 297.5,-220.7 363.5,-220.7 363.5,-201.7 297.5,-201.7"/>
<polygon fill="none" stroke="#000000" points="297.5,-201.7 297.5,-220.7 363.5,-220.7 363.5,-201.7 297.5,-201.7"/>
<text text-anchor="start" x="300.594" y="-207.8" font-family="Helvetica,sans-Serif" font-size="11.00" fill="#000000">11.858 rows</text>
<polygon fill="#ffffff" stroke="transparent" points="363.5,-201.7 363.5,-220.7 385.5,-220.7 385.5,-201.7 363.5,-201.7"/>
<polygon fill="none" stroke="#000000" points="363.5,-201.7 363.5,-220.7 385.5,-220.7 385.5,-201.7 363.5,-201.7"/>
<text text-anchor="start" x="366.9053" y="-207.8" font-family="Helvetica,sans-Serif" font-size="11.00" fill="#000000">1 &gt;</text>
</a>
</g>
</g>
<!-- fos_DataCore&#45;&gt;cabah_methodID -->
<g id="edge7" class="edge">
<title>fos_DataCore:w&#45;&gt;cabah_methodID:e</title>
<path fill="none" stroke="#000000" d="M253.874,-230.2996C222.4725,-233.127 208.7808,-246.1581 184,-273.7 151.0991,-310.2668 192.6895,-376.7 143.5,-376.7"/>
<polygon fill="#000000" stroke="#000000" points="260.5067,-230.0277 268.6475,-233.297 264.5034,-229.8639 268.5,-229.7 268.5,-229.7 268.5,-229.7 264.5034,-229.8639 268.3525,-226.103 260.5067,-230.0277 260.5067,-230.0277"/>
<ellipse fill="none" stroke="#000000" cx="257.3094" cy="-230.1588" rx="3.2" ry="3.2"/>
</g>
<!-- sed&#45;osl_DataCore -->
<g id="node8" class="node">
<title>sed&#45;osl_DataCore</title>
<g id="a_node8"><a xlink:href="../../tables/sed-osl_DataCore.html" xlink:title="sed&#45;osl_DataCore" target="_top">
<polygon fill="#ffffff" stroke="transparent" points="256,-120.2 256,-181.2 397,-181.2 397,-120.2 256,-120.2"/>
<polygon fill="#f5f5f5" stroke="transparent" points="256.5,-157.7 256.5,-180.7 397.5,-180.7 397.5,-157.7 256.5,-157.7"/>
<polygon fill="none" stroke="#000000" points="256.5,-157.7 256.5,-180.7 397.5,-180.7 397.5,-157.7 256.5,-157.7"/>
<text text-anchor="start" x="261.5" y="-166.3" font-family="Helvetica,sans-Serif" font-weight="bold" font-size="11.00" fill="#000000">sed&#45;osl_DataCore</text>
<text text-anchor="start" x="363.0219" y="-165.8" font-family="Helvetica,sans-Serif" font-size="11.00" fill="#000000">[table]</text>
<polygon fill="none" stroke="#000000" points="256.5,-138.7 256.5,-157.7 397.5,-157.7 397.5,-138.7 256.5,-138.7"/>
<text text-anchor="start" x="259.5" y="-144.8" font-family="Helvetica,sans-Serif" font-size="11.00" fill="#000000">...</text>
<polygon fill="#ffffff" stroke="transparent" points="256.5,-119.7 256.5,-138.7 300.5,-138.7 300.5,-119.7 256.5,-119.7"/>
<polygon fill="none" stroke="#000000" points="256.5,-119.7 256.5,-138.7 300.5,-138.7 300.5,-119.7 256.5,-119.7"/>
<text text-anchor="start" x="259.5" y="-125.8" font-family="Helvetica,sans-Serif" font-size="11.00" fill="#000000">&lt; 20</text>
<polygon fill="#ffffff" stroke="transparent" points="300.5,-119.7 300.5,-138.7 367.5,-138.7 367.5,-119.7 300.5,-119.7"/>
<polygon fill="none" stroke="#000000" points="300.5,-119.7 300.5,-138.7 367.5,-138.7 367.5,-119.7 300.5,-119.7"/>
<text text-anchor="start" x="310.7089" y="-125.8" font-family="Helvetica,sans-Serif" font-size="11.00" fill="#000000">2.458 rows</text>
<polygon fill="#ffffff" stroke="transparent" points="367.5,-119.7 367.5,-138.7 397.5,-138.7 397.5,-119.7 367.5,-119.7"/>
<polygon fill="none" stroke="#000000" points="367.5,-119.7 367.5,-138.7 397.5,-138.7 397.5,-119.7 367.5,-119.7"/>
<text text-anchor="start" x="378.9053" y="-125.8" font-family="Helvetica,sans-Serif" font-size="11.00" fill="#000000">1 &gt;</text>
</a>
</g>
</g>
<!-- sed&#45;osl_DataCore&#45;&gt;cabah_methodID -->
<g id="edge8" class="edge">
<title>sed&#45;osl_DataCore:w&#45;&gt;cabah_methodID:e</title>
<path fill="none" stroke="#000000" d="M241.9758,-148.5021C215.003,-151.7926 202.8317,-165.3451 184,-191.7 135.0658,-260.1831 227.6694,-376.7 143.5,-376.7"/>
<polygon fill="#000000" stroke="#000000" points="248.5122,-148.1412 256.6985,-151.2945 252.5061,-147.9206 256.5,-147.7 256.5,-147.7 256.5,-147.7 252.5061,-147.9206 256.3015,-144.1055 248.5122,-148.1412 248.5122,-148.1412"/>
<ellipse fill="none" stroke="#000000" cx="245.317" cy="-148.3176" rx="3.2" ry="3.2"/>
</g>
<!-- sed&#45;tl_DataCore -->
<g id="node9" class="node">
<title>sed&#45;tl_DataCore</title>
<g id="a_node9"><a xlink:href="../../tables/sed-tl_DataCore.html" xlink:title="sed&#45;tl_DataCore" target="_top">
<polygon fill="#ffffff" stroke="transparent" points="261,-38.2 261,-99.2 392,-99.2 392,-38.2 261,-38.2"/>
<polygon fill="#f5f5f5" stroke="transparent" points="261.5,-75.7 261.5,-98.7 392.5,-98.7 392.5,-75.7 261.5,-75.7"/>
<polygon fill="none" stroke="#000000" points="261.5,-75.7 261.5,-98.7 392.5,-98.7 392.5,-75.7 261.5,-75.7"/>
<text text-anchor="start" x="266.5" y="-84.3" font-family="Helvetica,sans-Serif" font-weight="bold" font-size="11.00" fill="#000000">sed&#45;tl_DataCore</text>
<text text-anchor="start" x="358.0219" y="-83.8" font-family="Helvetica,sans-Serif" font-size="11.00" fill="#000000">[table]</text>
<polygon fill="none" stroke="#000000" points="261.5,-56.7 261.5,-75.7 392.5,-75.7 392.5,-56.7 261.5,-56.7"/>
<text text-anchor="start" x="264.5" y="-62.8" font-family="Helvetica,sans-Serif" font-size="11.00" fill="#000000">...</text>
<polygon fill="#ffffff" stroke="transparent" points="261.5,-37.7 261.5,-56.7 304.5,-56.7 304.5,-37.7 261.5,-37.7"/>
<polygon fill="none" stroke="#000000" points="261.5,-37.7 261.5,-56.7 304.5,-56.7 304.5,-37.7 261.5,-37.7"/>
<text text-anchor="start" x="264.5" y="-43.8" font-family="Helvetica,sans-Serif" font-size="11.00" fill="#000000">&lt; 20</text>
<polygon fill="#ffffff" stroke="transparent" points="304.5,-37.7 304.5,-56.7 362.5,-56.7 362.5,-37.7 304.5,-37.7"/>
<polygon fill="none" stroke="#000000" points="304.5,-37.7 304.5,-56.7 362.5,-56.7 362.5,-37.7 304.5,-37.7"/>
<text text-anchor="start" x="314.8807" y="-43.8" font-family="Helvetica,sans-Serif" font-size="11.00" fill="#000000">966 rows</text>
<polygon fill="#ffffff" stroke="transparent" points="362.5,-37.7 362.5,-56.7 392.5,-56.7 392.5,-37.7 362.5,-37.7"/>
<polygon fill="none" stroke="#000000" points="362.5,-37.7 362.5,-56.7 392.5,-56.7 392.5,-37.7 362.5,-37.7"/>
<text text-anchor="start" x="373.9053" y="-43.8" font-family="Helvetica,sans-Serif" font-size="11.00" fill="#000000">1 &gt;</text>
</a>
</g>
</g>
<!-- sed&#45;tl_DataCore&#45;&gt;cabah_methodID -->
<g id="edge9" class="edge">
<title>sed&#45;tl_DataCore:w&#45;&gt;cabah_methodID:e</title>
<path fill="none" stroke="#000000" d="M246.9241,-66.3246C217.6652,-69.0941 203.4648,-81.3996 184,-109.7 149.9916,-159.1457 203.512,-376.7 143.5,-376.7"/>
<polygon fill="#000000" stroke="#000000" points="253.5073,-66.0426 261.6542,-69.2967 257.5037,-65.8713 261.5,-65.7 261.5,-65.7 261.5,-65.7 257.5037,-65.8713 261.3458,-62.1033 253.5073,-66.0426 253.5073,-66.0426"/>
<ellipse fill="none" stroke="#000000" cx="250.3103" cy="-66.1796" rx="3.2" ry="3.2"/>
</g>
</g>
</svg>
