<?xml version="1.0" encoding="UTF-8" standalone="no"?>
<!DOCTYPE svg PUBLIC "-//W3C//DTD SVG 1.1//EN"
 "http://www.w3.org/Graphics/SVG/1.1/DTD/svg11.dtd">
<!-- Generated by graphviz version 2.40.1 (20161225.0304)
 -->
<!-- Title: oneDegreeRelationshipsDiagram Pages: 1 -->
<svg width="793pt" height="506pt"
 viewBox="0.00 0.00 793.00 505.70" xmlns="http://www.w3.org/2000/svg" xmlns:xlink="http://www.w3.org/1999/xlink">
<g id="graph0" class="graph" transform="scale(1 1) rotate(0) translate(4 501.7)">
<title>oneDegreeRelationshipsDiagram</title>
<polygon fill="#ffffff" stroke="transparent" points="-4,4 -4,-501.7 789,-501.7 789,4 -4,4"/>
<text text-anchor="middle" x="72.4936" y="-7.3" font-family="Helvetica,sans-Serif" font-size="11.00" fill="#000000">Generated by SchemaSpy</text>
<!-- cabah_AnalysisUnit -->
<g id="node1" class="node">
<title>cabah_AnalysisUnit</title>
<g id="a_node1"><a xlink:href="../../tables/cabah_AnalysisUnit.html" xlink:title="cabah_AnalysisUnit" target="_top">
<polygon fill="#ffffff" stroke="transparent" points="384,-38.2 384,-348.2 615,-348.2 615,-38.2 384,-38.2"/>
<polygon fill="#f5f5f5" stroke="transparent" points="386.5,-323.2 386.5,-346.2 613.5,-346.2 613.5,-323.2 386.5,-323.2"/>
<polygon fill="none" stroke="#000000" points="386.5,-323.2 386.5,-346.2 613.5,-346.2 613.5,-323.2 386.5,-323.2"/>
<text text-anchor="start" x="391.5" y="-331.8" font-family="Helvetica,sans-Serif" font-weight="bold" font-size="11.00" fill="#000000">cabah_AnalysisUnit</text>
<text text-anchor="start" x="578.5437" y="-331.3" font-family="Helvetica,sans-Serif" font-size="11.00" fill="#000000">[table]</text>
<polygon fill="none" stroke="#000000" points="386.5,-301.2 386.5,-323.2 521.5,-323.2 521.5,-301.2 386.5,-301.2"/>
<image xlink:href="../../images/primaryKeys.png" width="11px" height="12px" preserveAspectRatio="xMinYMin meet" x="391.5" y="-318.2"/>
<text text-anchor="start" x="406.5" y="-308.3" font-family="Helvetica,sans-Serif" font-size="11.00" fill="#000000">ANLYSUNTID</text>
<polygon fill="none" stroke="#000000" points="521.5,-301.2 521.5,-323.2 613.5,-323.2 613.5,-301.2 521.5,-301.2"/>
<text text-anchor="start" x="524.5" y="-308.9" font-family="Helvetica,sans-Serif" font-size="11.00" fill="#000000">int4[10]</text>
<polygon fill="none" stroke="#000000" points="386.5,-279.2 386.5,-301.2 521.5,-301.2 521.5,-279.2 386.5,-279.2"/>
<image xlink:href="../../images/foreignKeys.png" width="11px" height="12px" preserveAspectRatio="xMinYMin meet" x="391.5" y="-296.2"/>
<text text-anchor="start" x="406.5" y="-286.3" font-family="Helvetica,sans-Serif" font-size="11.00" fill="#000000">NEO_UNITID</text>
<polygon fill="none" stroke="#000000" points="521.5,-279.2 521.5,-301.2 613.5,-301.2 613.5,-279.2 521.5,-279.2"/>
<text text-anchor="start" x="524.5" y="-286.9" font-family="Helvetica,sans-Serif" font-size="11.00" fill="#000000">int4[10]</text>
<polygon fill="none" stroke="#000000" points="386.5,-257.2 386.5,-279.2 521.5,-279.2 521.5,-257.2 386.5,-257.2"/>
<text text-anchor="start" x="406.5" y="-264.3" font-family="Helvetica,sans-Serif" font-size="11.00" fill="#000000">AUIT_NAME</text>
<polygon fill="none" stroke="#000000" points="521.5,-257.2 521.5,-279.2 613.5,-279.2 613.5,-257.2 521.5,-257.2"/>
<text text-anchor="start" x="524.5" y="-264.9" font-family="Helvetica,sans-Serif" font-size="11.00" fill="#000000">text[2147483647]</text>
<polygon fill="none" stroke="#000000" points="386.5,-235.2 386.5,-257.2 521.5,-257.2 521.5,-235.2 386.5,-235.2"/>
<text text-anchor="start" x="406.5" y="-242.3" font-family="Helvetica,sans-Serif" font-size="11.00" fill="#000000">AUIT_DEPTH</text>
<polygon fill="none" stroke="#000000" points="521.5,-235.2 521.5,-257.2 613.5,-257.2 613.5,-235.2 521.5,-235.2"/>
<text text-anchor="start" x="524.5" y="-242.9" font-family="Helvetica,sans-Serif" font-size="11.00" fill="#000000">numeric[0]</text>
<polygon fill="none" stroke="#000000" points="386.5,-213.2 386.5,-235.2 521.5,-235.2 521.5,-213.2 386.5,-213.2"/>
<text text-anchor="start" x="406.5" y="-220.3" font-family="Helvetica,sans-Serif" font-size="11.00" fill="#000000">AUIT_THICK</text>
<polygon fill="none" stroke="#000000" points="521.5,-213.2 521.5,-235.2 613.5,-235.2 613.5,-213.2 521.5,-213.2"/>
<text text-anchor="start" x="524.5" y="-220.9" font-family="Helvetica,sans-Serif" font-size="11.00" fill="#000000">numeric[0]</text>
<polygon fill="none" stroke="#000000" points="386.5,-191.2 386.5,-213.2 521.5,-213.2 521.5,-191.2 386.5,-191.2"/>
<image xlink:href="../../images/foreignKeys.png" width="11px" height="12px" preserveAspectRatio="xMinYMin meet" x="391.5" y="-208.2"/>
<text text-anchor="start" x="406.5" y="-198.3" font-family="Helvetica,sans-Serif" font-size="11.00" fill="#000000">FACIESID</text>
<polygon fill="none" stroke="#000000" points="521.5,-191.2 521.5,-213.2 613.5,-213.2 613.5,-191.2 521.5,-191.2"/>
<text text-anchor="start" x="524.5" y="-198.9" font-family="Helvetica,sans-Serif" font-size="11.00" fill="#000000">int2[5]</text>
<polygon fill="none" stroke="#000000" points="386.5,-169.2 386.5,-191.2 521.5,-191.2 521.5,-169.2 386.5,-169.2"/>
<text text-anchor="start" x="406.5" y="-176.3" font-family="Helvetica,sans-Serif" font-size="11.00" fill="#000000">AUIT_MIXED</text>
<polygon fill="none" stroke="#000000" points="521.5,-169.2 521.5,-191.2 613.5,-191.2 613.5,-169.2 521.5,-169.2"/>
<text text-anchor="start" x="524.5" y="-176.9" font-family="Helvetica,sans-Serif" font-size="11.00" fill="#000000">bool[1]</text>
<polygon fill="none" stroke="#000000" points="386.5,-147.2 386.5,-169.2 521.5,-169.2 521.5,-147.2 386.5,-147.2"/>
<text text-anchor="start" x="406.5" y="-154.3" font-family="Helvetica,sans-Serif" font-size="11.00" fill="#000000">AUIT_ISGN</text>
<polygon fill="none" stroke="#000000" points="521.5,-147.2 521.5,-169.2 613.5,-169.2 613.5,-147.2 521.5,-147.2"/>
<text text-anchor="start" x="524.5" y="-154.9" font-family="Helvetica,sans-Serif" font-size="11.00" fill="#000000">text[2147483647]</text>
<polygon fill="none" stroke="#000000" points="386.5,-125.2 386.5,-147.2 521.5,-147.2 521.5,-125.2 386.5,-125.2"/>
<text text-anchor="start" x="406.5" y="-132.3" font-family="Helvetica,sans-Serif" font-size="11.00" fill="#000000">AUIT_NOTES</text>
<polygon fill="none" stroke="#000000" points="521.5,-125.2 521.5,-147.2 613.5,-147.2 613.5,-125.2 521.5,-125.2"/>
<text text-anchor="start" x="524.5" y="-132.9" font-family="Helvetica,sans-Serif" font-size="11.00" fill="#000000">text[2147483647]</text>
<polygon fill="none" stroke="#000000" points="386.5,-103.2 386.5,-125.2 521.5,-125.2 521.5,-103.2 386.5,-103.2"/>
<text text-anchor="start" x="406.5" y="-110.3" font-family="Helvetica,sans-Serif" font-size="11.00" fill="#000000">CREATED_AT</text>
<polygon fill="none" stroke="#000000" points="521.5,-103.2 521.5,-125.2 613.5,-125.2 613.5,-103.2 521.5,-103.2"/>
<text text-anchor="start" x="524.1023" y="-110.9" font-family="Helvetica,sans-Serif" font-size="11.00" fill="#000000">timestamptz[35,6]</text>
<polygon fill="none" stroke="#000000" points="386.5,-81.2 386.5,-103.2 521.5,-103.2 521.5,-81.2 386.5,-81.2"/>
<text text-anchor="start" x="406.5" y="-88.3" font-family="Helvetica,sans-Serif" font-size="11.00" fill="#000000">UPDATED_AT</text>
<polygon fill="none" stroke="#000000" points="521.5,-81.2 521.5,-103.2 613.5,-103.2 613.5,-81.2 521.5,-81.2"/>
<text text-anchor="start" x="524.1023" y="-88.9" font-family="Helvetica,sans-Serif" font-size="11.00" fill="#000000">timestamptz[35,6]</text>
<polygon fill="none" stroke="#000000" points="386.5,-59.2 386.5,-81.2 521.5,-81.2 521.5,-59.2 386.5,-59.2"/>
<image xlink:href="../../images/foreignKeys.png" width="11px" height="12px" preserveAspectRatio="xMinYMin meet" x="391.5" y="-76.2"/>
<text text-anchor="start" x="406.5" y="-66.3" font-family="Helvetica,sans-Serif" font-size="11.00" fill="#000000">UNITID</text>
<polygon fill="none" stroke="#000000" points="521.5,-59.2 521.5,-81.2 613.5,-81.2 613.5,-59.2 521.5,-59.2"/>
<text text-anchor="start" x="524.5" y="-66.9" font-family="Helvetica,sans-Serif" font-size="11.00" fill="#000000">int4[10]</text>
<polygon fill="#ffffff" stroke="transparent" points="386.5,-40.2 386.5,-59.2 431.5,-59.2 431.5,-40.2 386.5,-40.2"/>
<polygon fill="none" stroke="#000000" points="386.5,-40.2 386.5,-59.2 431.5,-59.2 431.5,-40.2 386.5,-40.2"/>
<text text-anchor="start" x="389.5" y="-46.3" font-family="Helvetica,sans-Serif" font-size="11.00" fill="#000000">&lt; 2</text>
<polygon fill="#ffffff" stroke="transparent" points="431.5,-40.2 431.5,-59.2 521.5,-59.2 521.5,-40.2 431.5,-40.2"/>
<polygon fill="none" stroke="#000000" points="431.5,-40.2 431.5,-59.2 521.5,-59.2 521.5,-40.2 431.5,-40.2"/>
<text text-anchor="start" x="458.594" y="-46.3" font-family="Helvetica,sans-Serif" font-size="11.00" fill="#000000">15.022 rows</text>
<polygon fill="#ffffff" stroke="transparent" points="521.5,-40.2 521.5,-59.2 613.5,-59.2 613.5,-40.2 521.5,-40.2"/>
<polygon fill="none" stroke="#000000" points="521.5,-40.2 521.5,-59.2 613.5,-59.2 613.5,-40.2 521.5,-40.2"/>
<text text-anchor="start" x="594.9053" y="-46.3" font-family="Helvetica,sans-Serif" font-size="11.00" fill="#000000">1 &gt;</text>
<polygon fill="none" stroke="#000000" stroke-width="2" points="385,-39.2 385,-347.2 614,-347.2 614,-39.2 385,-39.2"/>
</a>
</g>
</g>
<!-- cabah_depositID -->
<g id="node2" class="node">
<title>cabah_depositID</title>
<g id="a_node2"><a xlink:href="../../tables/cabah_depositID.html" xlink:title="cabah_depositID" target="_top">
<polygon fill="#ffffff" stroke="transparent" points="8,-182.7 8,-309.7 143,-309.7 143,-182.7 8,-182.7"/>
<polygon fill="#f5f5f5" stroke="transparent" points="8.5,-286.2 8.5,-309.2 143.5,-309.2 143.5,-286.2 8.5,-286.2"/>
<polygon fill="none" stroke="#000000" points="8.5,-286.2 8.5,-309.2 143.5,-309.2 143.5,-286.2 8.5,-286.2"/>
<text text-anchor="start" x="13.5" y="-294.8" font-family="Helvetica,sans-Serif" font-weight="bold" font-size="11.00" fill="#000000">cabah_depositID</text>
<text text-anchor="start" x="109.0219" y="-294.3" font-family="Helvetica,sans-Serif" font-size="11.00" fill="#000000">[table]</text>
<polygon fill="none" stroke="#000000" points="8.5,-264.2 8.5,-286.2 143.5,-286.2 143.5,-264.2 8.5,-264.2"/>
<image xlink:href="../../images/primaryKeys.png" width="11px" height="12px" preserveAspectRatio="xMinYMin meet" x="13.5" y="-281.2"/>
<text text-anchor="start" x="37.5" y="-271.3" font-family="Helvetica,sans-Serif" font-size="11.00" fill="#000000">DEPOSITID</text>
<polygon fill="#ffffff" stroke="transparent" points="8.5,-242.2 8.5,-264.2 143.5,-264.2 143.5,-242.2 8.5,-242.2"/>
<polygon fill="none" stroke="#000000" points="8.5,-242.2 8.5,-264.2 143.5,-264.2 143.5,-242.2 8.5,-242.2"/>
<text text-anchor="start" x="37.5" y="-249.3" font-family="Helvetica,sans-Serif" font-size="11.00" fill="#000000">DEPOSIT</text>
<polygon fill="none" stroke="#000000" points="8.5,-220.2 8.5,-242.2 143.5,-242.2 143.5,-220.2 8.5,-220.2"/>
<image xlink:href="../../images/foreignKeys.png" width="11px" height="12px" preserveAspectRatio="xMinYMin meet" x="13.5" y="-237.2"/>
<text text-anchor="start" x="37.5" y="-227.3" font-family="Helvetica,sans-Serif" font-size="11.00" fill="#000000">PARENTID</text>
<polygon fill="none" stroke="#000000" points="8.5,-201.2 8.5,-220.2 143.5,-220.2 143.5,-201.2 8.5,-201.2"/>
<text text-anchor="start" x="11.5" y="-207.3" font-family="Helvetica,sans-Serif" font-size="11.00" fill="#000000">...</text>
<polygon fill="#ffffff" stroke="transparent" points="8.5,-182.2 8.5,-201.2 50.5,-201.2 50.5,-182.2 8.5,-182.2"/>
<polygon fill="none" stroke="#000000" points="8.5,-182.2 8.5,-201.2 50.5,-201.2 50.5,-182.2 8.5,-182.2"/>
<text text-anchor="start" x="11.5" y="-188.3" font-family="Helvetica,sans-Serif" font-size="11.00" fill="#000000">&lt; 1</text>
<polygon fill="#ffffff" stroke="transparent" points="50.5,-182.2 50.5,-201.2 111.5,-201.2 111.5,-182.2 50.5,-182.2"/>
<polygon fill="none" stroke="#000000" points="50.5,-182.2 50.5,-201.2 111.5,-201.2 111.5,-182.2 50.5,-182.2"/>
<text text-anchor="start" x="63.8807" y="-188.3" font-family="Helvetica,sans-Serif" font-size="11.00" fill="#000000">119 rows</text>
<polygon fill="#ffffff" stroke="transparent" points="111.5,-182.2 111.5,-201.2 143.5,-201.2 143.5,-182.2 111.5,-182.2"/>
<polygon fill="none" stroke="#000000" points="111.5,-182.2 111.5,-201.2 143.5,-201.2 143.5,-182.2 111.5,-182.2"/>
<text text-anchor="start" x="124.9053" y="-188.3" font-family="Helvetica,sans-Serif" font-size="11.00" fill="#000000">3 &gt;</text>
</a>
</g>
</g>
<!-- cabah_AnalysisUnit&#45;&gt;cabah_depositID -->
<g id="edge1" class="edge">
<title>cabah_AnalysisUnit:w&#45;&gt;cabah_depositID:e</title>
<path fill="none" stroke="#000000" d="M371.6547,-202.0068C292.1173,-199.9501 258.7855,-182.9615 184,-224.2 158.6537,-238.1765 172.4444,-275.2 143.5,-275.2"/>
<polygon fill="#000000" stroke="#000000" points="378.5007,-202.0959 386.4531,-205.7997 382.5003,-202.1479 386.5,-202.2 386.5,-202.2 386.5,-202.2 382.5003,-202.1479 386.5469,-198.6003 378.5007,-202.0959 378.5007,-202.0959"/>
<ellipse fill="none" stroke="#000000" cx="375.3009" cy="-202.0542" rx="3.2" ry="3.2"/>
</g>
<!-- global_UnitMaster -->
<g id="node3" class="node">
<title>global_UnitMaster</title>
<g id="a_node3"><a xlink:href="../../tables/global_UnitMaster.html" xlink:title="global_UnitMaster" target="_top">
<polygon fill="#ffffff" stroke="transparent" points="192,-234.7 192,-493.7 335,-493.7 335,-234.7 192,-234.7"/>
<polygon fill="#f5f5f5" stroke="transparent" points="192.5,-470.2 192.5,-493.2 335.5,-493.2 335.5,-470.2 192.5,-470.2"/>
<polygon fill="none" stroke="#000000" points="192.5,-470.2 192.5,-493.2 335.5,-493.2 335.5,-470.2 192.5,-470.2"/>
<text text-anchor="start" x="197.5" y="-478.8" font-family="Helvetica,sans-Serif" font-weight="bold" font-size="11.00" fill="#000000">global_UnitMaster</text>
<text text-anchor="start" x="301.0219" y="-478.3" font-family="Helvetica,sans-Serif" font-size="11.00" fill="#000000">[table]</text>
<polygon fill="none" stroke="#000000" points="192.5,-448.2 192.5,-470.2 335.5,-470.2 335.5,-448.2 192.5,-448.2"/>
<image xlink:href="../../images/primaryKeys.png" width="11px" height="12px" preserveAspectRatio="xMinYMin meet" x="197.5" y="-465.2"/>
<text text-anchor="start" x="221.5" y="-455.3" font-family="Helvetica,sans-Serif" font-size="11.00" fill="#000000">UNITID</text>
<polygon fill="none" stroke="#000000" points="192.5,-426.2 192.5,-448.2 335.5,-448.2 335.5,-426.2 192.5,-426.2"/>
<image xlink:href="../../images/foreignKeys.png" width="11px" height="12px" preserveAspectRatio="xMinYMin meet" x="197.5" y="-443.2"/>
<text text-anchor="start" x="221.5" y="-433.3" font-family="Helvetica,sans-Serif" font-size="11.00" fill="#000000">SITEID</text>
<polygon fill="#ffffff" stroke="transparent" points="192.5,-404.2 192.5,-426.2 335.5,-426.2 335.5,-404.2 192.5,-404.2"/>
<polygon fill="none" stroke="#000000" points="192.5,-404.2 192.5,-426.2 335.5,-426.2 335.5,-404.2 192.5,-404.2"/>
<text text-anchor="start" x="221.5" y="-411.3" font-family="Helvetica,sans-Serif" font-size="11.00" fill="#000000">UNITHANDLE</text>
<polygon fill="none" stroke="#000000" points="192.5,-382.2 192.5,-404.2 335.5,-404.2 335.5,-382.2 192.5,-382.2"/>
<image xlink:href="../../images/foreignKeys.png" width="11px" height="12px" preserveAspectRatio="xMinYMin meet" x="197.5" y="-399.2"/>
<text text-anchor="start" x="221.5" y="-389.3" font-family="Helvetica,sans-Serif" font-size="11.00" fill="#000000">UNITTYPEID</text>
<polygon fill="none" stroke="#000000" points="192.5,-360.2 192.5,-382.2 335.5,-382.2 335.5,-360.2 192.5,-360.2"/>
<image xlink:href="../../images/foreignKeys.png" width="11px" height="12px" preserveAspectRatio="xMinYMin meet" x="197.5" y="-377.2"/>
<text text-anchor="start" x="221.5" y="-367.3" font-family="Helvetica,sans-Serif" font-size="11.00" fill="#000000">COLLECTID</text>
<polygon fill="none" stroke="#000000" points="192.5,-338.2 192.5,-360.2 335.5,-360.2 335.5,-338.2 192.5,-338.2"/>
<image xlink:href="../../images/foreignKeys.png" width="11px" height="12px" preserveAspectRatio="xMinYMin meet" x="197.5" y="-355.2"/>
<text text-anchor="start" x="221.5" y="-345.3" font-family="Helvetica,sans-Serif" font-size="11.00" fill="#000000">DEPOSITID</text>
<polygon fill="#ffffff" stroke="transparent" points="192.5,-316.2 192.5,-338.2 335.5,-338.2 335.5,-316.2 192.5,-316.2"/>
<polygon fill="none" stroke="#000000" points="192.5,-316.2 192.5,-338.2 335.5,-338.2 335.5,-316.2 192.5,-316.2"/>
<text text-anchor="start" x="221.5" y="-323.3" font-family="Helvetica,sans-Serif" font-size="11.00" fill="#000000">NEO_HANDLE</text>
<polygon fill="none" stroke="#000000" points="192.5,-294.2 192.5,-316.2 335.5,-316.2 335.5,-294.2 192.5,-294.2"/>
<image xlink:href="../../images/foreignKeys.png" width="11px" height="12px" preserveAspectRatio="xMinYMin meet" x="197.5" y="-311.2"/>
<text text-anchor="start" x="221.5" y="-301.3" font-family="Helvetica,sans-Serif" font-size="11.00" fill="#000000">UNIT_REF</text>
<polygon fill="#ffffff" stroke="transparent" points="192.5,-272.2 192.5,-294.2 335.5,-294.2 335.5,-272.2 192.5,-272.2"/>
<polygon fill="none" stroke="#000000" points="192.5,-272.2 192.5,-294.2 335.5,-294.2 335.5,-272.2 192.5,-272.2"/>
<text text-anchor="start" x="221.5" y="-279.3" font-family="Helvetica,sans-Serif" font-size="11.00" fill="#000000">NEO_UNITID</text>
<polygon fill="none" stroke="#000000" points="192.5,-253.2 192.5,-272.2 335.5,-272.2 335.5,-253.2 192.5,-253.2"/>
<text text-anchor="start" x="195.5" y="-259.3" font-family="Helvetica,sans-Serif" font-size="11.00" fill="#000000">...</text>
<polygon fill="#ffffff" stroke="transparent" points="192.5,-234.2 192.5,-253.2 238.5,-253.2 238.5,-234.2 192.5,-234.2"/>
<polygon fill="none" stroke="#000000" points="192.5,-234.2 192.5,-253.2 238.5,-253.2 238.5,-234.2 192.5,-234.2"/>
<text text-anchor="start" x="195.5" y="-240.3" font-family="Helvetica,sans-Serif" font-size="11.00" fill="#000000">&lt; 5</text>
<polygon fill="#ffffff" stroke="transparent" points="238.5,-234.2 238.5,-253.2 301.5,-253.2 301.5,-234.2 238.5,-234.2"/>
<polygon fill="none" stroke="#000000" points="238.5,-234.2 238.5,-253.2 301.5,-253.2 301.5,-234.2 238.5,-234.2"/>
<text text-anchor="start" x="253.8807" y="-240.3" font-family="Helvetica,sans-Serif" font-size="11.00" fill="#000000">607 rows</text>
<polygon fill="#ffffff" stroke="transparent" points="301.5,-234.2 301.5,-253.2 335.5,-253.2 335.5,-234.2 301.5,-234.2"/>
<polygon fill="none" stroke="#000000" points="301.5,-234.2 301.5,-253.2 335.5,-253.2 335.5,-234.2 301.5,-234.2"/>
<text text-anchor="start" x="316.9053" y="-240.3" font-family="Helvetica,sans-Serif" font-size="11.00" fill="#000000">4 &gt;</text>
</a>
</g>
</g>
<!-- cabah_AnalysisUnit&#45;&gt;global_UnitMaster -->
<g id="edge2" class="edge">
<title>cabah_AnalysisUnit:w&#45;&gt;global_UnitMaster:e</title>
<path fill="none" stroke="#000000" d="M372.0965,-289.1063C359.8977,-287.1375 352.6594,-283.2 335.5,-283.2"/>
<polygon fill="#000000" stroke="#000000" points="378.523,-289.5942 386.2274,-293.7897 382.5115,-289.8971 386.5,-290.2 386.5,-290.2 386.5,-290.2 382.5115,-289.8971 386.7726,-286.6103 378.523,-289.5942 378.523,-289.5942"/>
<ellipse fill="none" stroke="#000000" cx="375.3322" cy="-289.3519" rx="3.2" ry="3.2"/>
</g>
<!-- global_UnitMaster&#45;&gt;cabah_depositID -->
<g id="edge3" class="edge">
<title>global_UnitMaster:w&#45;&gt;cabah_depositID:e</title>
<path fill="none" stroke="#000000" d="M178.8095,-344.571C160.5527,-328.3706 176.9363,-275.2 143.5,-275.2"/>
<polygon fill="#000000" stroke="#000000" points="184.9215,-346.6375 191.3469,-352.6103 188.7107,-347.9188 192.5,-349.2 192.5,-349.2 192.5,-349.2 188.7107,-347.9188 193.6531,-345.7897 184.9215,-346.6375 184.9215,-346.6375"/>
<ellipse fill="none" stroke="#000000" cx="181.8901" cy="-345.6125" rx="3.2" ry="3.2"/>
</g>
<!-- ippd_Sample -->
<g id="node4" class="node">
<title>ippd_Sample</title>
<g id="a_node4"><a xlink:href="../../tables/ippd_Sample.html" xlink:title="ippd_Sample" target="_top">
<polygon fill="#ffffff" stroke="transparent" points="664,-197.7 664,-368.7 777,-368.7 777,-197.7 664,-197.7"/>
<polygon fill="#f5f5f5" stroke="transparent" points="664.5,-345.2 664.5,-368.2 777.5,-368.2 777.5,-345.2 664.5,-345.2"/>
<polygon fill="none" stroke="#000000" points="664.5,-345.2 664.5,-368.2 777.5,-368.2 777.5,-345.2 664.5,-345.2"/>
<text text-anchor="start" x="669.5" y="-353.8" font-family="Helvetica,sans-Serif" font-weight="bold" font-size="11.00" fill="#000000">ippd_Sample</text>
<text text-anchor="start" x="743.0219" y="-353.3" font-family="Helvetica,sans-Serif" font-size="11.00" fill="#000000">[table]</text>
<polygon fill="none" stroke="#000000" points="664.5,-323.2 664.5,-345.2 777.5,-345.2 777.5,-323.2 664.5,-323.2"/>
<image xlink:href="../../images/primaryKeys.png" width="11px" height="12px" preserveAspectRatio="xMinYMin meet" x="669.5" y="-340.2"/>
<text text-anchor="start" x="688.5" y="-330.3" font-family="Helvetica,sans-Serif" font-size="11.00" fill="#000000">SAMPLEID</text>
<polygon fill="none" stroke="#000000" points="664.5,-301.2 664.5,-323.2 777.5,-323.2 777.5,-301.2 664.5,-301.2"/>
<image xlink:href="../../images/foreignKeys.png" width="11px" height="12px" preserveAspectRatio="xMinYMin meet" x="669.5" y="-318.2"/>
<text text-anchor="start" x="688.5" y="-308.3" font-family="Helvetica,sans-Serif" font-size="11.00" fill="#000000">ANLYSUNTID</text>
<polygon fill="none" stroke="#000000" points="664.5,-279.2 664.5,-301.2 777.5,-301.2 777.5,-279.2 664.5,-279.2"/>
<image xlink:href="../../images/foreignKeys.png" width="11px" height="12px" preserveAspectRatio="xMinYMin meet" x="669.5" y="-296.2"/>
<text text-anchor="start" x="688.5" y="-286.3" font-family="Helvetica,sans-Serif" font-size="11.00" fill="#000000">NEODSETID</text>
<polygon fill="none" stroke="#000000" points="664.5,-257.2 664.5,-279.2 777.5,-279.2 777.5,-257.2 664.5,-257.2"/>
<image xlink:href="../../images/foreignKeys.png" width="11px" height="12px" preserveAspectRatio="xMinYMin meet" x="669.5" y="-274.2"/>
<text text-anchor="start" x="688.5" y="-264.3" font-family="Helvetica,sans-Serif" font-size="11.00" fill="#000000">TAXONID</text>
<polygon fill="none" stroke="#000000" points="664.5,-235.2 664.5,-257.2 777.5,-257.2 777.5,-235.2 664.5,-235.2"/>
<image xlink:href="../../images/foreignKeys.png" width="11px" height="12px" preserveAspectRatio="xMinYMin meet" x="669.5" y="-252.2"/>
<text text-anchor="start" x="688.5" y="-242.3" font-family="Helvetica,sans-Serif" font-size="11.00" fill="#000000">DATASETID</text>
<polygon fill="none" stroke="#000000" points="664.5,-216.2 664.5,-235.2 777.5,-235.2 777.5,-216.2 664.5,-216.2"/>
<text text-anchor="start" x="667.5" y="-222.3" font-family="Helvetica,sans-Serif" font-size="11.00" fill="#000000">...</text>
<polygon fill="#ffffff" stroke="transparent" points="664.5,-197.2 664.5,-216.2 688.5,-216.2 688.5,-197.2 664.5,-197.2"/>
<polygon fill="none" stroke="#000000" points="664.5,-197.2 664.5,-216.2 688.5,-216.2 688.5,-197.2 664.5,-197.2"/>
<text text-anchor="start" x="667.5" y="-203.3" font-family="Helvetica,sans-Serif" font-size="11.00" fill="#000000">&lt; 4</text>
<polygon fill="#ffffff" stroke="transparent" points="688.5,-197.2 688.5,-216.2 754.5,-216.2 754.5,-197.2 688.5,-197.2"/>
<polygon fill="none" stroke="#000000" points="688.5,-197.2 688.5,-216.2 754.5,-216.2 754.5,-197.2 688.5,-197.2"/>
<text text-anchor="start" x="691.594" y="-203.3" font-family="Helvetica,sans-Serif" font-size="11.00" fill="#000000">18.370 rows</text>
<polygon fill="#ffffff" stroke="transparent" points="754.5,-197.2 754.5,-216.2 777.5,-216.2 777.5,-197.2 754.5,-197.2"/>
<polygon fill="none" stroke="#000000" points="754.5,-197.2 754.5,-216.2 777.5,-216.2 777.5,-197.2 754.5,-197.2"/>
<text text-anchor="start" x="758.9053" y="-203.3" font-family="Helvetica,sans-Serif" font-size="11.00" fill="#000000">3 &gt;</text>
</a>
</g>
</g>
<!-- ippd_Sample&#45;&gt;cabah_AnalysisUnit -->
<g id="edge4" class="edge">
<title>ippd_Sample:w&#45;&gt;cabah_AnalysisUnit:e</title>
<path fill="none" stroke="#000000" d="M649.776,-312.2C637.7815,-312.2 630.3229,-312.2 613.5,-312.2"/>
<polygon fill="#000000" stroke="#000000" points="656.5,-312.2001 664.5,-315.8 660.5,-312.2 664.5,-312.2 664.5,-312.2 664.5,-312.2 660.5,-312.2 664.5,-308.6 656.5,-312.2001 656.5,-312.2001"/>
<ellipse fill="none" stroke="#000000" cx="653.3" cy="-312.2001" rx="3.2" ry="3.2"/>
</g>
</g>
</svg>
