<?xml version="1.0" encoding="UTF-8" standalone="no"?>
<!DOCTYPE svg PUBLIC "-//W3C//DTD SVG 1.1//EN"
 "http://www.w3.org/Graphics/SVG/1.1/DTD/svg11.dtd">
<!-- Generated by graphviz version 2.40.1 (20161225.0304)
 -->
<!-- Title: twoDegreesRelationshipsDiagram Pages: 1 -->
<svg width="627pt" height="311pt"
 viewBox="0.00 0.00 627.00 310.70" xmlns="http://www.w3.org/2000/svg" xmlns:xlink="http://www.w3.org/1999/xlink">
<g id="graph0" class="graph" transform="scale(1 1) rotate(0) translate(4 306.7)">
<title>twoDegreesRelationshipsDiagram</title>
<polygon fill="#ffffff" stroke="transparent" points="-4,4 -4,-306.7 623,-306.7 623,4 -4,4"/>
<text text-anchor="middle" x="72.4936" y="-7.3" font-family="Helvetica,sans-Serif" font-size="11.00" fill="#000000">Generated by SchemaSpy</text>
<!-- global_MetaSite -->
<g id="node1" class="node">
<title>global_MetaSite</title>
<g id="a_node1"><a xlink:href="../../tables/global_MetaSite.html" xlink:title="global_MetaSite" target="_top">
<polygon fill="#ffffff" stroke="transparent" points="291,-90.2 291,-217.2 421,-217.2 421,-90.2 291,-90.2"/>
<polygon fill="#f5f5f5" stroke="transparent" points="291,-193.7 291,-216.7 421,-216.7 421,-193.7 291,-193.7"/>
<polygon fill="none" stroke="#000000" points="291,-193.7 291,-216.7 421,-216.7 421,-193.7 291,-193.7"/>
<text text-anchor="start" x="296" y="-202.3" font-family="Helvetica,sans-Serif" font-weight="bold" font-size="11.00" fill="#000000">global_MetaSite</text>
<text text-anchor="start" x="386.5219" y="-201.8" font-family="Helvetica,sans-Serif" font-size="11.00" fill="#000000">[table]</text>
<polygon fill="none" stroke="#000000" points="291,-171.7 291,-193.7 421,-193.7 421,-171.7 291,-171.7"/>
<image xlink:href="../../images/primaryKeys.png" width="11px" height="12px" preserveAspectRatio="xMinYMin meet" x="296" y="-188.7"/>
<text text-anchor="start" x="320" y="-178.8" font-family="Helvetica,sans-Serif" font-size="11.00" fill="#000000">METASITEID</text>
<polygon fill="none" stroke="#000000" points="291,-149.7 291,-171.7 421,-171.7 421,-149.7 291,-149.7"/>
<image xlink:href="../../images/foreignKeys.png" width="11px" height="12px" preserveAspectRatio="xMinYMin meet" x="296" y="-166.7"/>
<text text-anchor="start" x="320" y="-156.8" font-family="Helvetica,sans-Serif" font-size="11.00" fill="#000000">FEATURESRC</text>
<polygon fill="none" stroke="#000000" points="291,-127.7 291,-149.7 421,-149.7 421,-127.7 291,-127.7"/>
<image xlink:href="../../images/foreignKeys.png" width="11px" height="12px" preserveAspectRatio="xMinYMin meet" x="296" y="-144.7"/>
<text text-anchor="start" x="320" y="-134.8" font-family="Helvetica,sans-Serif" font-size="11.00" fill="#000000">FEATURETYP</text>
<polygon fill="none" stroke="#000000" points="291,-108.7 291,-127.7 421,-127.7 421,-108.7 291,-108.7"/>
<text text-anchor="start" x="294" y="-114.8" font-family="Helvetica,sans-Serif" font-size="11.00" fill="#000000">...</text>
<polygon fill="#ffffff" stroke="transparent" points="291,-89.7 291,-108.7 323,-108.7 323,-89.7 291,-89.7"/>
<polygon fill="none" stroke="#000000" points="291,-89.7 291,-108.7 323,-108.7 323,-89.7 291,-89.7"/>
<text text-anchor="start" x="294" y="-95.8" font-family="Helvetica,sans-Serif" font-size="11.00" fill="#000000">&lt; 2</text>
<polygon fill="#ffffff" stroke="transparent" points="323,-89.7 323,-108.7 394,-108.7 394,-89.7 323,-89.7"/>
<polygon fill="none" stroke="#000000" points="323,-89.7 323,-108.7 394,-108.7 394,-89.7 323,-89.7"/>
<text text-anchor="start" x="331.094" y="-95.8" font-family="Helvetica,sans-Serif" font-size="11.00" fill="#000000">12.140 rows</text>
<polygon fill="#ffffff" stroke="transparent" points="394,-89.7 394,-108.7 421,-108.7 421,-89.7 394,-89.7"/>
<polygon fill="none" stroke="#000000" points="394,-89.7 394,-108.7 421,-108.7 421,-89.7 394,-89.7"/>
<text text-anchor="start" x="402.4053" y="-95.8" font-family="Helvetica,sans-Serif" font-size="11.00" fill="#000000">1 &gt;</text>
</a>
</g>
</g>
<!-- cabah_datasourceID -->
<g id="node2" class="node">
<title>cabah_datasourceID</title>
<g id="a_node2"><a xlink:href="../../tables/cabah_datasourceID.html" xlink:title="cabah_datasourceID" target="_top">
<polygon fill="#ffffff" stroke="transparent" points="8,-120.7 8,-298.7 242,-298.7 242,-120.7 8,-120.7"/>
<polygon fill="#f5f5f5" stroke="transparent" points="10,-273.7 10,-296.7 240,-296.7 240,-273.7 10,-273.7"/>
<polygon fill="none" stroke="#000000" points="10,-273.7 10,-296.7 240,-296.7 240,-273.7 10,-273.7"/>
<text text-anchor="start" x="15" y="-282.3" font-family="Helvetica,sans-Serif" font-weight="bold" font-size="11.00" fill="#000000">cabah_datasourceID</text>
<text text-anchor="start" x="205.0437" y="-281.8" font-family="Helvetica,sans-Serif" font-size="11.00" fill="#000000">[table]</text>
<polygon fill="none" stroke="#000000" points="10,-251.7 10,-273.7 148,-273.7 148,-251.7 10,-251.7"/>
<image xlink:href="../../images/primaryKeys.png" width="11px" height="12px" preserveAspectRatio="xMinYMin meet" x="15" y="-268.7"/>
<text text-anchor="start" x="30" y="-258.8" font-family="Helvetica,sans-Serif" font-size="11.00" fill="#000000">DATASRCID</text>
<polygon fill="none" stroke="#000000" points="148,-251.7 148,-273.7 240,-273.7 240,-251.7 148,-251.7"/>
<text text-anchor="start" x="151" y="-259.4" font-family="Helvetica,sans-Serif" font-size="11.00" fill="#000000">serial[10]</text>
<polygon fill="#ffffff" stroke="transparent" points="10,-229.7 10,-251.7 148,-251.7 148,-229.7 10,-229.7"/>
<polygon fill="none" stroke="#000000" points="10,-229.7 10,-251.7 148,-251.7 148,-229.7 10,-229.7"/>
<text text-anchor="start" x="30" y="-236.8" font-family="Helvetica,sans-Serif" font-size="11.00" fill="#000000">DATASOURCE</text>
<polygon fill="none" stroke="#000000" points="148,-229.7 148,-251.7 240,-251.7 240,-229.7 148,-229.7"/>
<text text-anchor="start" x="151" y="-237.4" font-family="Helvetica,sans-Serif" font-size="11.00" fill="#000000">text[2147483647]</text>
<polygon fill="none" stroke="#000000" points="10,-207.7 10,-229.7 148,-229.7 148,-207.7 10,-207.7"/>
<text text-anchor="start" x="30" y="-214.8" font-family="Helvetica,sans-Serif" font-size="11.00" fill="#000000">DATASRCDSC</text>
<polygon fill="none" stroke="#000000" points="148,-207.7 148,-229.7 240,-229.7 240,-207.7 148,-207.7"/>
<text text-anchor="start" x="151" y="-215.4" font-family="Helvetica,sans-Serif" font-size="11.00" fill="#000000">text[2147483647]</text>
<polygon fill="none" stroke="#000000" points="10,-185.7 10,-207.7 148,-207.7 148,-185.7 10,-185.7"/>
<text text-anchor="start" x="30" y="-192.8" font-family="Helvetica,sans-Serif" font-size="11.00" fill="#000000">DATASRCREF</text>
<polygon fill="none" stroke="#000000" points="148,-185.7 148,-207.7 240,-207.7 240,-185.7 148,-185.7"/>
<text text-anchor="start" x="151" y="-193.4" font-family="Helvetica,sans-Serif" font-size="11.00" fill="#000000">text[2147483647]</text>
<polygon fill="none" stroke="#000000" points="10,-163.7 10,-185.7 148,-185.7 148,-163.7 10,-163.7"/>
<text text-anchor="start" x="30" y="-170.8" font-family="Helvetica,sans-Serif" font-size="11.00" fill="#000000">CREATED_AT</text>
<polygon fill="none" stroke="#000000" points="148,-163.7 148,-185.7 240,-185.7 240,-163.7 148,-163.7"/>
<text text-anchor="start" x="150.6023" y="-171.4" font-family="Helvetica,sans-Serif" font-size="11.00" fill="#000000">timestamptz[35,6]</text>
<polygon fill="none" stroke="#000000" points="10,-141.7 10,-163.7 148,-163.7 148,-141.7 10,-141.7"/>
<text text-anchor="start" x="30" y="-148.8" font-family="Helvetica,sans-Serif" font-size="11.00" fill="#000000">UPDATED_AT</text>
<polygon fill="none" stroke="#000000" points="148,-141.7 148,-163.7 240,-163.7 240,-141.7 148,-141.7"/>
<text text-anchor="start" x="150.6023" y="-149.4" font-family="Helvetica,sans-Serif" font-size="11.00" fill="#000000">timestamptz[35,6]</text>
<polygon fill="#ffffff" stroke="transparent" points="10,-122.7 10,-141.7 67,-141.7 67,-122.7 10,-122.7"/>
<polygon fill="none" stroke="#000000" points="10,-122.7 10,-141.7 67,-141.7 67,-122.7 10,-122.7"/>
<text text-anchor="start" x="13" y="-128.8" font-family="Helvetica,sans-Serif" font-size="11.00" fill="#000000">&lt; 0</text>
<polygon fill="#ffffff" stroke="transparent" points="67,-122.7 67,-141.7 148,-141.7 148,-122.7 67,-122.7"/>
<polygon fill="none" stroke="#000000" points="67,-122.7 67,-141.7 148,-141.7 148,-122.7 67,-122.7"/>
<text text-anchor="start" x="106.4956" y="-128.8" font-family="Helvetica,sans-Serif" font-size="11.00" fill="#000000">10 rows</text>
<polygon fill="#ffffff" stroke="transparent" points="148,-122.7 148,-141.7 240,-141.7 240,-122.7 148,-122.7"/>
<polygon fill="none" stroke="#000000" points="148,-122.7 148,-141.7 240,-141.7 240,-122.7 148,-122.7"/>
<text text-anchor="start" x="221.4053" y="-128.8" font-family="Helvetica,sans-Serif" font-size="11.00" fill="#000000">1 &gt;</text>
<polygon fill="none" stroke="#000000" stroke-width="2" points="9,-121.7 9,-297.7 241,-297.7 241,-121.7 9,-121.7"/>
</a>
</g>
</g>
<!-- global_MetaSite&#45;&gt;cabah_datasourceID -->
<g id="edge1" class="edge">
<title>global_MetaSite:w&#45;&gt;cabah_datasourceID:e</title>
<path fill="none" stroke="#000000" d="M277.0193,-164.574C250.7331,-183.2055 284.7447,-262.7 240,-262.7"/>
<polygon fill="#000000" stroke="#000000" points="283.2905,-162.8363 291.9613,-164.1693 287.1452,-161.7681 291,-160.7 291,-160.7 291,-160.7 287.1452,-161.7681 290.0387,-157.2307 283.2905,-162.8363 283.2905,-162.8363"/>
<ellipse fill="none" stroke="#000000" cx="280.2067" cy="-163.6908" rx="3.2" ry="3.2"/>
</g>
<!-- global_SiteCode -->
<g id="node3" class="node">
<title>global_SiteCode</title>
<g id="a_node3"><a xlink:href="../../tables/global_SiteCode.html" xlink:title="global_SiteCode" target="_top">
<polygon fill="#ffffff" stroke="transparent" points="58.5,-38.2 58.5,-99.2 191.5,-99.2 191.5,-38.2 58.5,-38.2"/>
<polygon fill="#f5f5f5" stroke="transparent" points="59,-75.7 59,-98.7 192,-98.7 192,-75.7 59,-75.7"/>
<polygon fill="none" stroke="#000000" points="59,-75.7 59,-98.7 192,-98.7 192,-75.7 59,-75.7"/>
<text text-anchor="start" x="64" y="-84.3" font-family="Helvetica,sans-Serif" font-weight="bold" font-size="11.00" fill="#000000">global_SiteCode</text>
<text text-anchor="start" x="157.5219" y="-83.8" font-family="Helvetica,sans-Serif" font-size="11.00" fill="#000000">[table]</text>
<polygon fill="none" stroke="#000000" points="59,-56.7 59,-75.7 192,-75.7 192,-56.7 59,-56.7"/>
<text text-anchor="start" x="62" y="-62.8" font-family="Helvetica,sans-Serif" font-size="11.00" fill="#000000">...</text>
<polygon fill="#ffffff" stroke="transparent" points="59,-37.7 59,-56.7 103,-56.7 103,-37.7 59,-37.7"/>
<polygon fill="none" stroke="#000000" points="59,-37.7 59,-56.7 103,-56.7 103,-37.7 59,-37.7"/>
<text text-anchor="start" x="62" y="-43.8" font-family="Helvetica,sans-Serif" font-size="11.00" fill="#000000">&lt; 1</text>
<polygon fill="#ffffff" stroke="transparent" points="103,-37.7 103,-56.7 159,-56.7 159,-37.7 103,-37.7"/>
<polygon fill="none" stroke="#000000" points="103,-37.7 103,-56.7 159,-56.7 159,-37.7 103,-37.7"/>
<text text-anchor="start" x="117.4956" y="-43.8" font-family="Helvetica,sans-Serif" font-size="11.00" fill="#000000">87 rows</text>
<polygon fill="#ffffff" stroke="transparent" points="159,-37.7 159,-56.7 192,-56.7 192,-37.7 159,-37.7"/>
<polygon fill="none" stroke="#000000" points="159,-37.7 159,-56.7 192,-56.7 192,-37.7 159,-37.7"/>
<text text-anchor="start" x="173.4053" y="-43.8" font-family="Helvetica,sans-Serif" font-size="11.00" fill="#000000">3 &gt;</text>
</a>
</g>
</g>
<!-- global_MetaSite&#45;&gt;global_SiteCode -->
<g id="edge2" class="edge">
<title>global_MetaSite:w&#45;&gt;global_SiteCode:e</title>
<path fill="none" stroke="#000000" d="M277.9598,-131.9632C252.4972,-113.8914 203.1045,-65.7 192,-65.7"/>
<polygon fill="#000000" stroke="#000000" points="283.8925,-135.0281 289.3476,-141.8984 287.4462,-136.864 291,-138.7 291,-138.7 291,-138.7 287.4462,-136.864 292.6524,-135.5016 283.8925,-135.0281 283.8925,-135.0281"/>
<ellipse fill="none" stroke="#000000" cx="281.0494" cy="-133.5593" rx="3.2" ry="3.2"/>
</g>
<!-- global_SiteMaster -->
<g id="node4" class="node">
<title>global_SiteMaster</title>
<g id="a_node4"><a xlink:href="../../tables/global_SiteMaster.html" xlink:title="global_SiteMaster" target="_top">
<polygon fill="#ffffff" stroke="transparent" points="470,-96.2 470,-157.2 611,-157.2 611,-96.2 470,-96.2"/>
<polygon fill="#f5f5f5" stroke="transparent" points="470.5,-133.7 470.5,-156.7 611.5,-156.7 611.5,-133.7 470.5,-133.7"/>
<polygon fill="none" stroke="#000000" points="470.5,-133.7 470.5,-156.7 611.5,-156.7 611.5,-133.7 470.5,-133.7"/>
<text text-anchor="start" x="475.5" y="-142.3" font-family="Helvetica,sans-Serif" font-weight="bold" font-size="11.00" fill="#000000">global_SiteMaster</text>
<text text-anchor="start" x="577.0219" y="-141.8" font-family="Helvetica,sans-Serif" font-size="11.00" fill="#000000">[table]</text>
<polygon fill="none" stroke="#000000" points="470.5,-114.7 470.5,-133.7 611.5,-133.7 611.5,-114.7 470.5,-114.7"/>
<text text-anchor="start" x="473.5" y="-120.8" font-family="Helvetica,sans-Serif" font-size="11.00" fill="#000000">...</text>
<polygon fill="#ffffff" stroke="transparent" points="470.5,-95.7 470.5,-114.7 508.5,-114.7 508.5,-95.7 470.5,-95.7"/>
<polygon fill="none" stroke="#000000" points="470.5,-95.7 470.5,-114.7 508.5,-114.7 508.5,-95.7 470.5,-95.7"/>
<text text-anchor="start" x="473.5" y="-101.8" font-family="Helvetica,sans-Serif" font-size="11.00" fill="#000000">&lt; 8</text>
<polygon fill="#ffffff" stroke="transparent" points="508.5,-95.7 508.5,-114.7 581.5,-114.7 581.5,-95.7 508.5,-95.7"/>
<polygon fill="none" stroke="#000000" points="508.5,-95.7 508.5,-114.7 581.5,-114.7 581.5,-95.7 508.5,-95.7"/>
<text text-anchor="start" x="518.594" y="-101.8" font-family="Helvetica,sans-Serif" font-size="11.00" fill="#000000">23.734 rows</text>
<polygon fill="#ffffff" stroke="transparent" points="581.5,-95.7 581.5,-114.7 611.5,-114.7 611.5,-95.7 581.5,-95.7"/>
<polygon fill="none" stroke="#000000" points="581.5,-95.7 581.5,-114.7 611.5,-114.7 611.5,-95.7 581.5,-95.7"/>
<text text-anchor="start" x="592.9053" y="-101.8" font-family="Helvetica,sans-Serif" font-size="11.00" fill="#000000">6 &gt;</text>
</a>
</g>
</g>
<!-- global_SiteMaster&#45;&gt;global_MetaSite -->
<g id="edge3" class="edge">
<title>global_SiteMaster:w&#45;&gt;global_MetaSite:e</title>
<path fill="none" stroke="#000000" d="M456.5832,-128.7303C441.3669,-142.9982 449.0782,-182.7 421,-182.7"/>
<polygon fill="#000000" stroke="#000000" points="462.9764,-126.4195 471.7238,-127.0856 466.7382,-125.0597 470.5,-123.7 470.5,-123.7 470.5,-123.7 466.7382,-125.0597 469.2762,-120.3144 462.9764,-126.4195 462.9764,-126.4195"/>
<ellipse fill="none" stroke="#000000" cx="459.967" cy="-127.5073" rx="3.2" ry="3.2"/>
</g>
<!-- global_SiteMaster&#45;&gt;global_SiteCode -->
<g id="edge4" class="edge">
<title>global_SiteMaster:w&#45;&gt;global_SiteCode:e</title>
<path fill="none" stroke="#000000" d="M456.7233,-119.0169C446.3106,-109.5734 447.6487,-88.407 429,-79.7 333.3908,-35.0603 297.517,-65.7 192,-65.7"/>
<polygon fill="#000000" stroke="#000000" points="462.9257,-121.1252 469.3413,-127.1085 466.7128,-122.4126 470.5,-123.7 470.5,-123.7 470.5,-123.7 466.7128,-122.4126 471.6587,-120.2915 462.9257,-121.1252 462.9257,-121.1252"/>
<ellipse fill="none" stroke="#000000" cx="459.8959" cy="-120.0953" rx="3.2" ry="3.2"/>
</g>
</g>
</svg>
