<?xml version="1.0" encoding="UTF-8" standalone="no"?>
<!DOCTYPE svg PUBLIC "-//W3C//DTD SVG 1.1//EN"
 "http://www.w3.org/Graphics/SVG/1.1/DTD/svg11.dtd">
<!-- Generated by graphviz version 2.40.1 (20161225.0304)
 -->
<!-- Title: twoDegreesRelationshipsDiagramImplied Pages: 1 -->
<svg width="1307pt" height="1155pt"
 viewBox="0.00 0.00 1307.00 1154.52" xmlns="http://www.w3.org/2000/svg" xmlns:xlink="http://www.w3.org/1999/xlink">
<g id="graph0" class="graph" transform="scale(1 1) rotate(0) translate(4 1150.5194)">
<title>twoDegreesRelationshipsDiagramImplied</title>
<polygon fill="#ffffff" stroke="transparent" points="-4,4 -4,-1150.5194 1303,-1150.5194 1303,4 -4,4"/>
<text text-anchor="middle" x="72.4936" y="-7.3" font-family="Helvetica,sans-Serif" font-size="11.00" fill="#000000">Generated by SchemaSpy</text>
<!-- c14_calcurve -->
<g id="node1" class="node">
<title>c14_calcurve</title>
<g id="a_node1"><a xlink:href="../../tables/c14_calcurve.html" xlink:title="c14_calcurve" target="_top">
<polygon fill="#ffffff" stroke="transparent" points="596.5,-655.3039 596.5,-716.3039 710.5,-716.3039 710.5,-655.3039 596.5,-655.3039"/>
<polygon fill="#f5f5f5" stroke="transparent" points="596.5,-692.8039 596.5,-715.8039 710.5,-715.8039 710.5,-692.8039 596.5,-692.8039"/>
<polygon fill="none" stroke="#000000" points="596.5,-692.8039 596.5,-715.8039 710.5,-715.8039 710.5,-692.8039 596.5,-692.8039"/>
<text text-anchor="start" x="601.5" y="-701.4039" font-family="Helvetica,sans-Serif" font-weight="bold" font-size="11.00" fill="#000000">c14_calcurve</text>
<text text-anchor="start" x="676.0219" y="-700.9039" font-family="Helvetica,sans-Serif" font-size="11.00" fill="#000000">[table]</text>
<polygon fill="none" stroke="#000000" points="596.5,-673.8039 596.5,-692.8039 710.5,-692.8039 710.5,-673.8039 596.5,-673.8039"/>
<text text-anchor="start" x="599.5" y="-679.9039" font-family="Helvetica,sans-Serif" font-size="11.00" fill="#000000">...</text>
<polygon fill="#ffffff" stroke="transparent" points="596.5,-654.8039 596.5,-673.8039 634.5,-673.8039 634.5,-654.8039 596.5,-654.8039"/>
<polygon fill="none" stroke="#000000" points="596.5,-654.8039 596.5,-673.8039 634.5,-673.8039 634.5,-654.8039 596.5,-654.8039"/>
<text text-anchor="start" x="599.5" y="-660.9039" font-family="Helvetica,sans-Serif" font-size="11.00" fill="#000000">&lt; 1</text>
<polygon fill="#ffffff" stroke="transparent" points="634.5,-654.8039 634.5,-673.8039 680.5,-673.8039 680.5,-654.8039 634.5,-654.8039"/>
<polygon fill="none" stroke="#000000" points="634.5,-654.8039 634.5,-673.8039 680.5,-673.8039 680.5,-654.8039 634.5,-654.8039"/>
<text text-anchor="start" x="645.1105" y="-660.9039" font-family="Helvetica,sans-Serif" font-size="11.00" fill="#000000">0 rows</text>
<polygon fill="#ffffff" stroke="transparent" points="680.5,-654.8039 680.5,-673.8039 710.5,-673.8039 710.5,-654.8039 680.5,-654.8039"/>
<polygon fill="none" stroke="#000000" points="680.5,-654.8039 680.5,-673.8039 710.5,-673.8039 710.5,-654.8039 680.5,-654.8039"/>
<text text-anchor="start" x="691.9053" y="-660.9039" font-family="Helvetica,sans-Serif" font-size="11.00" fill="#000000">1 &gt;</text>
</a>
</g>
</g>
<!-- global_RefCore -->
<g id="node2" class="node">
<title>global_RefCore</title>
<g id="a_node2"><a xlink:href="../../tables/global_RefCore.html" xlink:title="global_RefCore" target="_top">
<polygon fill="#ffffff" stroke="transparent" points="399,-730.3039 399,-791.3039 526,-791.3039 526,-730.3039 399,-730.3039"/>
<polygon fill="#f5f5f5" stroke="transparent" points="399.5,-767.8039 399.5,-790.8039 526.5,-790.8039 526.5,-767.8039 399.5,-767.8039"/>
<polygon fill="none" stroke="#000000" points="399.5,-767.8039 399.5,-790.8039 526.5,-790.8039 526.5,-767.8039 399.5,-767.8039"/>
<text text-anchor="start" x="404.5" y="-776.4039" font-family="Helvetica,sans-Serif" font-weight="bold" font-size="11.00" fill="#000000">global_RefCore</text>
<text text-anchor="start" x="492.0219" y="-775.9039" font-family="Helvetica,sans-Serif" font-size="11.00" fill="#000000">[table]</text>
<polygon fill="none" stroke="#000000" points="399.5,-748.8039 399.5,-767.8039 526.5,-767.8039 526.5,-748.8039 399.5,-748.8039"/>
<text text-anchor="start" x="402.5" y="-754.9039" font-family="Helvetica,sans-Serif" font-size="11.00" fill="#000000">...</text>
<polygon fill="#ffffff" stroke="transparent" points="399.5,-729.8039 399.5,-748.8039 430.5,-748.8039 430.5,-729.8039 399.5,-729.8039"/>
<polygon fill="none" stroke="#000000" points="399.5,-729.8039 399.5,-748.8039 430.5,-748.8039 430.5,-729.8039 399.5,-729.8039"/>
<text text-anchor="start" x="402.5" y="-735.9039" font-family="Helvetica,sans-Serif" font-size="11.00" fill="#000000">&lt; 5</text>
<polygon fill="#ffffff" stroke="transparent" points="430.5,-729.8039 430.5,-748.8039 494.5,-748.8039 494.5,-729.8039 430.5,-729.8039"/>
<polygon fill="none" stroke="#000000" points="430.5,-729.8039 430.5,-748.8039 494.5,-748.8039 494.5,-729.8039 430.5,-729.8039"/>
<text text-anchor="start" x="437.7089" y="-735.9039" font-family="Helvetica,sans-Serif" font-size="11.00" fill="#000000">3.936 rows</text>
<polygon fill="#ffffff" stroke="transparent" points="494.5,-729.8039 494.5,-748.8039 526.5,-748.8039 526.5,-729.8039 494.5,-729.8039"/>
<polygon fill="none" stroke="#000000" points="494.5,-729.8039 494.5,-748.8039 526.5,-748.8039 526.5,-729.8039 494.5,-729.8039"/>
<text text-anchor="start" x="501.7904" y="-735.9039" font-family="Helvetica,sans-Serif" font-size="11.00" fill="#000000">36 &gt;</text>
</a>
</g>
</g>
<!-- c14_calcurve&#45;&gt;global_RefCore -->
<g id="edge1" class="edge">
<title>c14_calcurve:w&#45;&gt;global_RefCore:e</title>
<path fill="none" stroke="#000000" d="M582.2713,-686.0266C555.1583,-700.382 566.3967,-757.8039 526.5,-757.8039"/>
<polygon fill="#000000" stroke="#000000" points="588.6976,-684.5711 597.2952,-686.315 592.5988,-683.6875 596.5,-682.8039 596.5,-682.8039 596.5,-682.8039 592.5988,-683.6875 595.7048,-679.2928 588.6976,-684.5711 588.6976,-684.5711"/>
<ellipse fill="none" stroke="#000000" cx="585.5767" cy="-685.278" rx="3.2" ry="3.2"/>
</g>
<!-- c14_calprogram -->
<g id="node3" class="node">
<title>c14_calprogram</title>
<g id="a_node3"><a xlink:href="../../tables/c14_calprogram.html" xlink:title="c14_calprogram" target="_top">
<polygon fill="#ffffff" stroke="transparent" points="588,-532.3039 588,-593.3039 719,-593.3039 719,-532.3039 588,-532.3039"/>
<polygon fill="#f5f5f5" stroke="transparent" points="588.5,-569.8039 588.5,-592.8039 719.5,-592.8039 719.5,-569.8039 588.5,-569.8039"/>
<polygon fill="none" stroke="#000000" points="588.5,-569.8039 588.5,-592.8039 719.5,-592.8039 719.5,-569.8039 588.5,-569.8039"/>
<text text-anchor="start" x="593.5" y="-578.4039" font-family="Helvetica,sans-Serif" font-weight="bold" font-size="11.00" fill="#000000">c14_calprogram</text>
<text text-anchor="start" x="685.0219" y="-577.9039" font-family="Helvetica,sans-Serif" font-size="11.00" fill="#000000">[table]</text>
<polygon fill="none" stroke="#000000" points="588.5,-550.8039 588.5,-569.8039 719.5,-569.8039 719.5,-550.8039 588.5,-550.8039"/>
<text text-anchor="start" x="591.5" y="-556.9039" font-family="Helvetica,sans-Serif" font-size="11.00" fill="#000000">...</text>
<polygon fill="#ffffff" stroke="transparent" points="588.5,-531.8039 588.5,-550.8039 628.5,-550.8039 628.5,-531.8039 588.5,-531.8039"/>
<polygon fill="none" stroke="#000000" points="588.5,-531.8039 588.5,-550.8039 628.5,-550.8039 628.5,-531.8039 588.5,-531.8039"/>
<text text-anchor="start" x="591.5" y="-537.9039" font-family="Helvetica,sans-Serif" font-size="11.00" fill="#000000">&lt; 2</text>
<polygon fill="#ffffff" stroke="transparent" points="628.5,-531.8039 628.5,-550.8039 688.5,-550.8039 688.5,-531.8039 628.5,-531.8039"/>
<polygon fill="none" stroke="#000000" points="628.5,-531.8039 628.5,-550.8039 688.5,-550.8039 688.5,-531.8039 628.5,-531.8039"/>
<text text-anchor="start" x="640.8807" y="-537.9039" font-family="Helvetica,sans-Serif" font-size="11.00" fill="#000000">195 rows</text>
<polygon fill="#ffffff" stroke="transparent" points="688.5,-531.8039 688.5,-550.8039 719.5,-550.8039 719.5,-531.8039 688.5,-531.8039"/>
<polygon fill="none" stroke="#000000" points="688.5,-531.8039 688.5,-550.8039 719.5,-550.8039 719.5,-531.8039 688.5,-531.8039"/>
<text text-anchor="start" x="700.9053" y="-537.9039" font-family="Helvetica,sans-Serif" font-size="11.00" fill="#000000">2 &gt;</text>
</a>
</g>
</g>
<!-- c14_calprogram&#45;&gt;global_RefCore -->
<g id="edge2" class="edge">
<title>c14_calprogram:w&#45;&gt;global_RefCore:e</title>
<path fill="none" stroke="#000000" d="M574.0156,-561.8936C510.3249,-583.0546 613.1302,-757.8039 526.5,-757.8039"/>
<polygon fill="#000000" stroke="#000000" points="580.582,-560.9463 589.0141,-563.367 584.541,-560.3751 588.5,-559.8039 588.5,-559.8039 588.5,-559.8039 584.541,-560.3751 587.9859,-556.2408 580.582,-560.9463 580.582,-560.9463"/>
<ellipse fill="none" stroke="#000000" cx="577.4148" cy="-561.4032" rx="3.2" ry="3.2"/>
</g>
<!-- char_DataCore -->
<g id="node4" class="node">
<title>char_DataCore</title>
<g id="a_node4"><a xlink:href="../../tables/char_DataCore.html" xlink:title="char_DataCore" target="_top">
<polygon fill="#ffffff" stroke="transparent" points="1020,-802.3039 1020,-863.3039 1144,-863.3039 1144,-802.3039 1020,-802.3039"/>
<polygon fill="#f5f5f5" stroke="transparent" points="1020,-839.8039 1020,-862.8039 1144,-862.8039 1144,-839.8039 1020,-839.8039"/>
<polygon fill="none" stroke="#000000" points="1020,-839.8039 1020,-862.8039 1144,-862.8039 1144,-839.8039 1020,-839.8039"/>
<text text-anchor="start" x="1025" y="-848.4039" font-family="Helvetica,sans-Serif" font-weight="bold" font-size="11.00" fill="#000000">char_DataCore</text>
<text text-anchor="start" x="1109.5219" y="-847.9039" font-family="Helvetica,sans-Serif" font-size="11.00" fill="#000000">[table]</text>
<polygon fill="none" stroke="#000000" points="1020,-820.8039 1020,-839.8039 1144,-839.8039 1144,-820.8039 1020,-820.8039"/>
<text text-anchor="start" x="1023" y="-826.9039" font-family="Helvetica,sans-Serif" font-size="11.00" fill="#000000">...</text>
<polygon fill="#ffffff" stroke="transparent" points="1020,-801.8039 1020,-820.8039 1052,-820.8039 1052,-801.8039 1020,-801.8039"/>
<polygon fill="none" stroke="#000000" points="1020,-801.8039 1020,-820.8039 1052,-820.8039 1052,-801.8039 1020,-801.8039"/>
<text text-anchor="start" x="1023" y="-807.9039" font-family="Helvetica,sans-Serif" font-size="11.00" fill="#000000">&lt; 16</text>
<polygon fill="#ffffff" stroke="transparent" points="1052,-801.8039 1052,-820.8039 1120,-820.8039 1120,-801.8039 1052,-801.8039"/>
<polygon fill="none" stroke="#000000" points="1052,-801.8039 1052,-820.8039 1120,-820.8039 1120,-801.8039 1052,-801.8039"/>
<text text-anchor="start" x="1057.094" y="-807.9039" font-family="Helvetica,sans-Serif" font-size="11.00" fill="#000000">48.234 rows</text>
<polygon fill="#ffffff" stroke="transparent" points="1120,-801.8039 1120,-820.8039 1144,-820.8039 1144,-801.8039 1120,-801.8039"/>
<polygon fill="none" stroke="#000000" points="1120,-801.8039 1120,-820.8039 1144,-820.8039 1144,-801.8039 1120,-801.8039"/>
<text text-anchor="start" x="1125.4053" y="-807.9039" font-family="Helvetica,sans-Serif" font-size="11.00" fill="#000000">1 &gt;</text>
</a>
</g>
</g>
<!-- char_DataCore&#45;&gt;c14_calcurve -->
<g id="edge4" class="edge">
<title>char_DataCore:w&#45;&gt;c14_calcurve:e</title>
<path fill="none" stroke="#000000" d="M1070.5124,-783.819C1052.7531,-712.7999 1016.7232,-586.8563 979,-560.8039 940.0522,-533.9058 805.8006,-535.1845 766,-560.8039 715.9107,-593.0461 770.0692,-682.8039 710.5,-682.8039"/>
<polygon fill="#000000" stroke="#000000" points="1072.1092,-790.3155 1070.5228,-798.9436 1073.064,-794.1999 1074.0188,-798.0843 1074.0188,-798.0843 1074.0188,-798.0843 1073.064,-794.1999 1077.5147,-797.225 1072.1092,-790.3155 1072.1092,-790.3155"/>
<ellipse fill="none" stroke="#000000" cx="1071.3454" cy="-787.208" rx="3.2" ry="3.2"/>
</g>
<!-- char_DataCore&#45;&gt;global_RefCore -->
<g id="edge14" class="edge">
<title>char_DataCore:w&#45;&gt;global_RefCore:e</title>
<path fill="none" stroke="#000000" d="M997.3326,-817.8671C933.5224,-811.7578 843.9809,-804.9483 766,-793.8039 658.4434,-778.4328 635.1494,-744.8039 526.5,-757.8039"/>
<polygon fill="#000000" stroke="#000000" points="1003.7963,-818.5018 1011.4062,-822.8665 1007.7772,-818.8927 1011.7581,-819.2837 1011.7581,-819.2837 1011.7581,-819.2837 1007.7772,-818.8927 1012.1099,-815.7009 1003.7963,-818.5018 1003.7963,-818.5018"/>
<ellipse fill="none" stroke="#000000" cx="1000.6117" cy="-818.189" rx="3.2" ry="3.2"/>
</g>
<!-- char_DataCore&#45;&gt;global_RefCore -->
<g id="edge15" class="edge">
<title>char_DataCore:w&#45;&gt;global_RefCore:e</title>
<path fill="none" stroke="#000000" d="M997.3326,-828.5963C933.5224,-824.7578 843.9809,-817.9483 766,-806.8039 658.4434,-791.4328 635.1494,-757.8039 526.5,-757.8039"/>
<polygon fill="#000000" stroke="#000000" points="1003.7717,-828.9728 1011.5479,-833.0338 1007.7649,-829.2064 1011.7581,-829.4399 1011.7581,-829.4399 1011.7581,-829.4399 1007.7649,-829.2064 1011.9682,-825.846 1003.7717,-828.9728 1003.7717,-828.9728"/>
<ellipse fill="none" stroke="#000000" cx="1000.5772" cy="-828.786" rx="3.2" ry="3.2"/>
</g>
<!-- char_DataCore&#45;&gt;global_RefCore -->
<g id="edge16" class="edge">
<title>char_DataCore:w&#45;&gt;global_RefCore:e</title>
<path fill="none" stroke="#000000" d="M997.3326,-839.3256C933.5224,-837.7578 843.9809,-830.9483 766,-819.8039 658.4434,-804.4328 635.1494,-770.8039 526.5,-757.8039"/>
<polygon fill="#000000" stroke="#000000" points="1003.7595,-839.446 1011.6905,-843.1955 1007.7588,-839.5211 1011.7581,-839.5961 1011.7581,-839.5961 1011.7581,-839.5961 1007.7588,-839.5211 1011.8256,-835.9967 1003.7595,-839.446 1003.7595,-839.446"/>
<ellipse fill="none" stroke="#000000" cx="1000.56" cy="-839.386" rx="3.2" ry="3.2"/>
</g>
<!-- char_DataCore&#45;&gt;c14_calprogram -->
<g id="edge5" class="edge">
<title>char_DataCore:w&#45;&gt;c14_calprogram:e</title>
<path fill="none" stroke="#000000" d="M1072.0467,-783.924C1055.4543,-707.8574 1019.8967,-566.8426 979,-537.8039 901.8122,-482.9968 858.3652,-517.0565 766,-537.8039 743.6929,-542.8146 742.363,-559.8039 719.5,-559.8039"/>
<polygon fill="#000000" stroke="#000000" points="1073.4329,-790.3964 1071.5881,-798.9729 1074.2706,-794.3077 1075.1083,-798.219 1075.1083,-798.219 1075.1083,-798.219 1074.2706,-794.3077 1078.6285,-797.465 1073.4329,-790.3964 1073.4329,-790.3964"/>
<ellipse fill="none" stroke="#000000" cx="1072.7627" cy="-787.2673" rx="3.2" ry="3.2"/>
</g>
<!-- cabah_agetypeID -->
<g id="node5" class="node">
<title>cabah_agetypeID</title>
<g id="a_node5"><a xlink:href="../../tables/cabah_agetypeID.html" xlink:title="cabah_agetypeID" target="_top">
<polygon fill="#ffffff" stroke="transparent" points="804,-1033.3039 804,-1094.3039 941,-1094.3039 941,-1033.3039 804,-1033.3039"/>
<polygon fill="#f5f5f5" stroke="transparent" points="804.5,-1070.8039 804.5,-1093.8039 941.5,-1093.8039 941.5,-1070.8039 804.5,-1070.8039"/>
<polygon fill="none" stroke="#000000" points="804.5,-1070.8039 804.5,-1093.8039 941.5,-1093.8039 941.5,-1070.8039 804.5,-1070.8039"/>
<text text-anchor="start" x="809.5" y="-1079.4039" font-family="Helvetica,sans-Serif" font-weight="bold" font-size="11.00" fill="#000000">cabah_agetypeID</text>
<text text-anchor="start" x="907.0219" y="-1078.9039" font-family="Helvetica,sans-Serif" font-size="11.00" fill="#000000">[table]</text>
<polygon fill="none" stroke="#000000" points="804.5,-1051.8039 804.5,-1070.8039 941.5,-1070.8039 941.5,-1051.8039 804.5,-1051.8039"/>
<text text-anchor="start" x="807.5" y="-1057.9039" font-family="Helvetica,sans-Serif" font-size="11.00" fill="#000000">...</text>
<polygon fill="#ffffff" stroke="transparent" points="804.5,-1032.8039 804.5,-1051.8039 846.5,-1051.8039 846.5,-1032.8039 804.5,-1032.8039"/>
<polygon fill="none" stroke="#000000" points="804.5,-1032.8039 804.5,-1051.8039 846.5,-1051.8039 846.5,-1032.8039 804.5,-1032.8039"/>
<text text-anchor="start" x="807.5" y="-1038.9039" font-family="Helvetica,sans-Serif" font-size="11.00" fill="#000000"> &#160;</text>
<polygon fill="#ffffff" stroke="transparent" points="846.5,-1032.8039 846.5,-1051.8039 905.5,-1051.8039 905.5,-1032.8039 846.5,-1032.8039"/>
<polygon fill="none" stroke="#000000" points="846.5,-1032.8039 846.5,-1051.8039 905.5,-1051.8039 905.5,-1032.8039 846.5,-1032.8039"/>
<text text-anchor="start" x="863.9956" y="-1038.9039" font-family="Helvetica,sans-Serif" font-size="11.00" fill="#000000">11 rows</text>
<polygon fill="#ffffff" stroke="transparent" points="905.5,-1032.8039 905.5,-1051.8039 941.5,-1051.8039 941.5,-1032.8039 905.5,-1032.8039"/>
<polygon fill="none" stroke="#000000" points="905.5,-1032.8039 905.5,-1051.8039 941.5,-1051.8039 941.5,-1032.8039 905.5,-1032.8039"/>
<text text-anchor="start" x="922.9053" y="-1038.9039" font-family="Helvetica,sans-Serif" font-size="11.00" fill="#000000">1 &gt;</text>
</a>
</g>
</g>
<!-- char_DataCore&#45;&gt;cabah_agetypeID -->
<g id="edge3" class="edge">
<title>char_DataCore:w&#45;&gt;cabah_agetypeID:e</title>
<path fill="none" stroke="#000000" d="M1074.2014,-881.7944C1060.4279,-948.7973 1024.9267,-1060.8039 941.5,-1060.8039"/>
<polygon fill="#000000" stroke="#000000" points="1075.4533,-875.2881 1080.5001,-868.1125 1076.2091,-871.3602 1076.9649,-867.4322 1076.9649,-867.4322 1076.9649,-867.4322 1076.2091,-871.3602 1073.4298,-866.752 1075.4533,-875.2881 1075.4533,-875.2881"/>
<ellipse fill="none" stroke="#000000" cx="1074.8486" cy="-878.4305" rx="3.2" ry="3.2"/>
</g>
<!-- global_varunitID -->
<g id="node6" class="node">
<title>global_varunitID</title>
<g id="a_node6"><a xlink:href="../../tables/global_varunitID.html" xlink:title="global_varunitID" target="_top">
<polygon fill="#ffffff" stroke="transparent" points="806,-951.3039 806,-1012.3039 939,-1012.3039 939,-951.3039 806,-951.3039"/>
<polygon fill="#f5f5f5" stroke="transparent" points="806.5,-988.8039 806.5,-1011.8039 939.5,-1011.8039 939.5,-988.8039 806.5,-988.8039"/>
<polygon fill="none" stroke="#000000" points="806.5,-988.8039 806.5,-1011.8039 939.5,-1011.8039 939.5,-988.8039 806.5,-988.8039"/>
<text text-anchor="start" x="811.5" y="-997.4039" font-family="Helvetica,sans-Serif" font-weight="bold" font-size="11.00" fill="#000000">global_varunitID</text>
<text text-anchor="start" x="905.0219" y="-996.9039" font-family="Helvetica,sans-Serif" font-size="11.00" fill="#000000">[table]</text>
<polygon fill="none" stroke="#000000" points="806.5,-969.8039 806.5,-988.8039 939.5,-988.8039 939.5,-969.8039 806.5,-969.8039"/>
<text text-anchor="start" x="809.5" y="-975.9039" font-family="Helvetica,sans-Serif" font-size="11.00" fill="#000000">...</text>
<polygon fill="#ffffff" stroke="transparent" points="806.5,-950.8039 806.5,-969.8039 847.5,-969.8039 847.5,-950.8039 806.5,-950.8039"/>
<polygon fill="none" stroke="#000000" points="806.5,-950.8039 806.5,-969.8039 847.5,-969.8039 847.5,-950.8039 806.5,-950.8039"/>
<text text-anchor="start" x="809.5" y="-956.9039" font-family="Helvetica,sans-Serif" font-size="11.00" fill="#000000">&lt; 1</text>
<polygon fill="#ffffff" stroke="transparent" points="847.5,-950.8039 847.5,-969.8039 907.5,-969.8039 907.5,-950.8039 847.5,-950.8039"/>
<polygon fill="none" stroke="#000000" points="847.5,-950.8039 847.5,-969.8039 907.5,-969.8039 907.5,-950.8039 847.5,-950.8039"/>
<text text-anchor="start" x="859.8807" y="-956.9039" font-family="Helvetica,sans-Serif" font-size="11.00" fill="#000000">192 rows</text>
<polygon fill="#ffffff" stroke="transparent" points="907.5,-950.8039 907.5,-969.8039 939.5,-969.8039 939.5,-950.8039 907.5,-950.8039"/>
<polygon fill="none" stroke="#000000" points="907.5,-950.8039 907.5,-969.8039 939.5,-969.8039 939.5,-950.8039 907.5,-950.8039"/>
<text text-anchor="start" x="920.9053" y="-956.9039" font-family="Helvetica,sans-Serif" font-size="11.00" fill="#000000">4 &gt;</text>
</a>
</g>
</g>
<!-- char_DataCore&#45;&gt;global_varunitID -->
<g id="edge6" class="edge">
<title>char_DataCore:w&#45;&gt;global_varunitID:e</title>
<path fill="none" stroke="#000000" d="M1054.8552,-880.0675C1030.8677,-919.9632 991.5955,-971.3349 939.5,-978.8039"/>
<polygon fill="#000000" stroke="#000000" points="1058.0853,-874.5056 1065.2162,-869.3957 1060.0942,-871.0467 1062.1031,-867.5877 1062.1031,-867.5877 1062.1031,-867.5877 1060.0942,-871.0467 1058.9901,-865.7797 1058.0853,-874.5056 1058.0853,-874.5056"/>
<ellipse fill="none" stroke="#000000" cx="1056.4782" cy="-877.2728" rx="3.2" ry="3.2"/>
</g>
<!-- char_DataCore&#45;&gt;global_varunitID -->
<g id="edge8" class="edge">
<title>char_DataCore:w&#45;&gt;global_varunitID:e</title>
<path fill="none" stroke="#000000" d="M1060.0547,-880.4062C1036.7587,-923.012 995.5518,-978.8039 939.5,-978.8039"/>
<polygon fill="#000000" stroke="#000000" points="1063.142,-874.495 1070.0366,-869.0705 1064.9938,-870.9494 1066.8456,-867.4039 1066.8456,-867.4039 1066.8456,-867.4039 1064.9938,-870.9494 1063.6546,-865.7373 1063.142,-874.495 1063.142,-874.495"/>
<ellipse fill="none" stroke="#000000" cx="1061.6606" cy="-877.3314" rx="3.2" ry="3.2"/>
</g>
<!-- char_DataCore&#45;&gt;global_varunitID -->
<g id="edge18" class="edge">
<title>char_DataCore:w&#45;&gt;global_varunitID:e</title>
<path fill="none" stroke="#000000" d="M1064.6666,-880.443C1042.4344,-926.4669 999.461,-987.4006 939.5,-978.8039"/>
<polygon fill="#000000" stroke="#000000" points="1067.3237,-874.6107 1073.9165,-868.8232 1068.9821,-870.9707 1070.6405,-867.3307 1070.6405,-867.3307 1070.6405,-867.3307 1068.9821,-870.9707 1067.3644,-865.8381 1067.3237,-874.6107 1067.3237,-874.6107"/>
<ellipse fill="none" stroke="#000000" cx="1065.997" cy="-877.5228" rx="3.2" ry="3.2"/>
</g>
<!-- cabah_charmethodID -->
<g id="node7" class="node">
<title>cabah_charmethodID</title>
<g id="a_node7"><a xlink:href="../../tables/cabah_charmethodID.html" xlink:title="cabah_charmethodID" target="_top">
<polygon fill="#ffffff" stroke="transparent" points="792,-869.3039 792,-930.3039 953,-930.3039 953,-869.3039 792,-869.3039"/>
<polygon fill="#f5f5f5" stroke="transparent" points="792.5,-906.8039 792.5,-929.8039 953.5,-929.8039 953.5,-906.8039 792.5,-906.8039"/>
<polygon fill="none" stroke="#000000" points="792.5,-906.8039 792.5,-929.8039 953.5,-929.8039 953.5,-906.8039 792.5,-906.8039"/>
<text text-anchor="start" x="797.5" y="-915.4039" font-family="Helvetica,sans-Serif" font-weight="bold" font-size="11.00" fill="#000000">cabah_charmethodID</text>
<text text-anchor="start" x="919.0219" y="-914.9039" font-family="Helvetica,sans-Serif" font-size="11.00" fill="#000000">[table]</text>
<polygon fill="none" stroke="#000000" points="792.5,-887.8039 792.5,-906.8039 953.5,-906.8039 953.5,-887.8039 792.5,-887.8039"/>
<text text-anchor="start" x="795.5" y="-893.9039" font-family="Helvetica,sans-Serif" font-size="11.00" fill="#000000">...</text>
<polygon fill="#ffffff" stroke="transparent" points="792.5,-868.8039 792.5,-887.8039 846.5,-887.8039 846.5,-868.8039 792.5,-868.8039"/>
<polygon fill="none" stroke="#000000" points="792.5,-868.8039 792.5,-887.8039 846.5,-887.8039 846.5,-868.8039 792.5,-868.8039"/>
<text text-anchor="start" x="795.5" y="-874.9039" font-family="Helvetica,sans-Serif" font-size="11.00" fill="#000000"> &#160;</text>
<polygon fill="#ffffff" stroke="transparent" points="846.5,-868.8039 846.5,-887.8039 911.5,-887.8039 911.5,-868.8039 846.5,-868.8039"/>
<polygon fill="none" stroke="#000000" points="846.5,-868.8039 846.5,-887.8039 911.5,-887.8039 911.5,-868.8039 846.5,-868.8039"/>
<text text-anchor="start" x="869.9956" y="-874.9039" font-family="Helvetica,sans-Serif" font-size="11.00" fill="#000000">12 rows</text>
<polygon fill="#ffffff" stroke="transparent" points="911.5,-868.8039 911.5,-887.8039 953.5,-887.8039 953.5,-868.8039 911.5,-868.8039"/>
<polygon fill="none" stroke="#000000" points="911.5,-868.8039 911.5,-887.8039 953.5,-887.8039 953.5,-868.8039 911.5,-868.8039"/>
<text text-anchor="start" x="934.9053" y="-874.9039" font-family="Helvetica,sans-Serif" font-size="11.00" fill="#000000">1 &gt;</text>
</a>
</g>
</g>
<!-- char_DataCore&#45;&gt;cabah_charmethodID -->
<g id="edge7" class="edge">
<title>char_DataCore:w&#45;&gt;cabah_charmethodID:e</title>
<path fill="none" stroke="#000000" d="M1025.1997,-874.8949C1003.821,-886.9059 978.5913,-896.8039 953.5,-896.8039"/>
<polygon fill="#000000" stroke="#000000" points="1030.7843,-871.5432 1039.4963,-870.513 1034.214,-869.4847 1037.6437,-867.4263 1037.6437,-867.4263 1037.6437,-867.4263 1034.214,-869.4847 1035.7911,-864.3396 1030.7843,-871.5432 1030.7843,-871.5432"/>
<ellipse fill="none" stroke="#000000" cx="1028.0405" cy="-873.1899" rx="3.2" ry="3.2"/>
</g>
<!-- cabah_datasourceID -->
<g id="node8" class="node">
<title>cabah_datasourceID</title>
<g id="a_node8"><a xlink:href="../../tables/cabah_datasourceID.html" xlink:title="cabah_datasourceID" target="_top">
<polygon fill="#ffffff" stroke="transparent" points="8,-598.3039 8,-659.3039 164,-659.3039 164,-598.3039 8,-598.3039"/>
<polygon fill="#f5f5f5" stroke="transparent" points="8,-635.8039 8,-658.8039 164,-658.8039 164,-635.8039 8,-635.8039"/>
<polygon fill="none" stroke="#000000" points="8,-635.8039 8,-658.8039 164,-658.8039 164,-635.8039 8,-635.8039"/>
<text text-anchor="start" x="13" y="-644.4039" font-family="Helvetica,sans-Serif" font-weight="bold" font-size="11.00" fill="#000000">cabah_datasourceID</text>
<text text-anchor="start" x="129.5219" y="-643.9039" font-family="Helvetica,sans-Serif" font-size="11.00" fill="#000000">[table]</text>
<polygon fill="none" stroke="#000000" points="8,-616.8039 8,-635.8039 164,-635.8039 164,-616.8039 8,-616.8039"/>
<text text-anchor="start" x="11" y="-622.9039" font-family="Helvetica,sans-Serif" font-size="11.00" fill="#000000">...</text>
<polygon fill="#ffffff" stroke="transparent" points="8,-597.8039 8,-616.8039 59,-616.8039 59,-597.8039 8,-597.8039"/>
<polygon fill="none" stroke="#000000" points="8,-597.8039 8,-616.8039 59,-616.8039 59,-597.8039 8,-597.8039"/>
<text text-anchor="start" x="11" y="-603.9039" font-family="Helvetica,sans-Serif" font-size="11.00" fill="#000000"> &#160;</text>
<polygon fill="#ffffff" stroke="transparent" points="59,-597.8039 59,-616.8039 123,-616.8039 123,-597.8039 59,-597.8039"/>
<polygon fill="none" stroke="#000000" points="59,-597.8039 59,-616.8039 123,-616.8039 123,-597.8039 59,-597.8039"/>
<text text-anchor="start" x="81.4956" y="-603.9039" font-family="Helvetica,sans-Serif" font-size="11.00" fill="#000000">10 rows</text>
<polygon fill="#ffffff" stroke="transparent" points="123,-597.8039 123,-616.8039 164,-616.8039 164,-597.8039 123,-597.8039"/>
<polygon fill="none" stroke="#000000" points="123,-597.8039 123,-616.8039 164,-616.8039 164,-597.8039 123,-597.8039"/>
<text text-anchor="start" x="145.4053" y="-603.9039" font-family="Helvetica,sans-Serif" font-size="11.00" fill="#000000">2 &gt;</text>
</a>
</g>
</g>
<!-- char_DataCore&#45;&gt;cabah_datasourceID -->
<g id="edge9" class="edge">
<title>char_DataCore:w&#45;&gt;cabah_datasourceID:e</title>
<path fill="none" stroke="#000000" d="M1070.3683,-881.5849C1052.4225,-952.3401 1016.1546,-1077.9468 979,-1104.8039 861.6481,-1189.6313 798.3004,-1118.8039 653.5,-1118.8039 653.5,-1118.8039 653.5,-1118.8039 462.5,-1118.8039 206.3553,-1118.8039 420.1447,-625.8039 164,-625.8039"/>
<polygon fill="#000000" stroke="#000000" points="1071.9769,-875.1364 1077.4063,-868.2457 1072.9451,-871.2554 1073.9133,-867.3743 1073.9133,-867.3743 1073.9133,-867.3743 1072.9451,-871.2554 1070.4204,-866.5029 1071.9769,-875.1364 1071.9769,-875.1364"/>
<ellipse fill="none" stroke="#000000" cx="1071.2023" cy="-878.2413" rx="3.2" ry="3.2"/>
</g>
<!-- global_dbDOI -->
<g id="node9" class="node">
<title>global_dbDOI</title>
<g id="a_node9"><a xlink:href="../../tables/global_dbDOI.html" xlink:title="global_dbDOI" target="_top">
<polygon fill="#ffffff" stroke="transparent" points="814,-434.3039 814,-495.3039 931,-495.3039 931,-434.3039 814,-434.3039"/>
<polygon fill="#f5f5f5" stroke="transparent" points="814.5,-471.8039 814.5,-494.8039 931.5,-494.8039 931.5,-471.8039 814.5,-471.8039"/>
<polygon fill="none" stroke="#000000" points="814.5,-471.8039 814.5,-494.8039 931.5,-494.8039 931.5,-471.8039 814.5,-471.8039"/>
<text text-anchor="start" x="819.5" y="-480.4039" font-family="Helvetica,sans-Serif" font-weight="bold" font-size="11.00" fill="#000000">global_dbDOI</text>
<text text-anchor="start" x="897.0219" y="-479.9039" font-family="Helvetica,sans-Serif" font-size="11.00" fill="#000000">[table]</text>
<polygon fill="none" stroke="#000000" points="814.5,-452.8039 814.5,-471.8039 931.5,-471.8039 931.5,-452.8039 814.5,-452.8039"/>
<text text-anchor="start" x="817.5" y="-458.9039" font-family="Helvetica,sans-Serif" font-size="11.00" fill="#000000">...</text>
<polygon fill="#ffffff" stroke="transparent" points="814.5,-433.8039 814.5,-452.8039 843.5,-452.8039 843.5,-433.8039 814.5,-433.8039"/>
<polygon fill="none" stroke="#000000" points="814.5,-433.8039 814.5,-452.8039 843.5,-452.8039 843.5,-433.8039 814.5,-433.8039"/>
<text text-anchor="start" x="817.5" y="-439.9039" font-family="Helvetica,sans-Serif" font-size="11.00" fill="#000000"> &#160;</text>
<polygon fill="#ffffff" stroke="transparent" points="843.5,-433.8039 843.5,-452.8039 895.5,-452.8039 895.5,-433.8039 843.5,-433.8039"/>
<polygon fill="none" stroke="#000000" points="843.5,-433.8039 843.5,-452.8039 895.5,-452.8039 895.5,-433.8039 843.5,-433.8039"/>
<text text-anchor="start" x="853.9956" y="-439.9039" font-family="Helvetica,sans-Serif" font-size="11.00" fill="#000000">26 rows</text>
<polygon fill="#ffffff" stroke="transparent" points="895.5,-433.8039 895.5,-452.8039 931.5,-452.8039 931.5,-433.8039 895.5,-433.8039"/>
<polygon fill="none" stroke="#000000" points="895.5,-433.8039 895.5,-452.8039 931.5,-452.8039 931.5,-433.8039 895.5,-433.8039"/>
<text text-anchor="start" x="906.7904" y="-439.9039" font-family="Helvetica,sans-Serif" font-size="11.00" fill="#000000">26 &gt;</text>
</a>
</g>
</g>
<!-- char_DataCore&#45;&gt;global_dbDOI -->
<g id="edge10" class="edge">
<title>char_DataCore:w&#45;&gt;global_dbDOI:e</title>
<path fill="none" stroke="#000000" d="M1072.8627,-784.0105C1052.6094,-683.3098 1000.2461,-461.8039 931.5,-461.8039"/>
<polygon fill="#000000" stroke="#000000" points="1074.1213,-790.3858 1072.1391,-798.9316 1074.8961,-794.31 1075.671,-798.2343 1075.671,-798.2343 1075.671,-798.2343 1074.8961,-794.31 1079.2028,-797.537 1074.1213,-790.3858 1074.1213,-790.3858"/>
<ellipse fill="none" stroke="#000000" cx="1073.5015" cy="-787.2464" rx="3.2" ry="3.2"/>
</g>
<!-- cabah_LabCodes -->
<g id="node10" class="node">
<title>cabah_LabCodes</title>
<g id="a_node10"><a xlink:href="../../tables/cabah_LabCodes.html" xlink:title="cabah_LabCodes" target="_top">
<polygon fill="#ffffff" stroke="transparent" points="803.5,-735.3039 803.5,-796.3039 941.5,-796.3039 941.5,-735.3039 803.5,-735.3039"/>
<polygon fill="#f5f5f5" stroke="transparent" points="803.5,-772.8039 803.5,-795.8039 941.5,-795.8039 941.5,-772.8039 803.5,-772.8039"/>
<polygon fill="none" stroke="#000000" points="803.5,-772.8039 803.5,-795.8039 941.5,-795.8039 941.5,-772.8039 803.5,-772.8039"/>
<text text-anchor="start" x="808.5" y="-781.4039" font-family="Helvetica,sans-Serif" font-weight="bold" font-size="11.00" fill="#000000">cabah_LabCodes</text>
<text text-anchor="start" x="907.0219" y="-780.9039" font-family="Helvetica,sans-Serif" font-size="11.00" fill="#000000">[table]</text>
<polygon fill="none" stroke="#000000" points="803.5,-753.8039 803.5,-772.8039 941.5,-772.8039 941.5,-753.8039 803.5,-753.8039"/>
<text text-anchor="start" x="806.5" y="-759.9039" font-family="Helvetica,sans-Serif" font-size="11.00" fill="#000000">...</text>
<polygon fill="#ffffff" stroke="transparent" points="803.5,-734.8039 803.5,-753.8039 842.5,-753.8039 842.5,-734.8039 803.5,-734.8039"/>
<polygon fill="none" stroke="#000000" points="803.5,-734.8039 803.5,-753.8039 842.5,-753.8039 842.5,-734.8039 803.5,-734.8039"/>
<text text-anchor="start" x="806.5" y="-740.9039" font-family="Helvetica,sans-Serif" font-size="11.00" fill="#000000"> &#160;</text>
<polygon fill="#ffffff" stroke="transparent" points="842.5,-734.8039 842.5,-753.8039 906.5,-753.8039 906.5,-734.8039 842.5,-734.8039"/>
<polygon fill="none" stroke="#000000" points="842.5,-734.8039 842.5,-753.8039 906.5,-753.8039 906.5,-734.8039 842.5,-734.8039"/>
<text text-anchor="start" x="858.8807" y="-740.9039" font-family="Helvetica,sans-Serif" font-size="11.00" fill="#000000">352 rows</text>
<polygon fill="#ffffff" stroke="transparent" points="906.5,-734.8039 906.5,-753.8039 941.5,-753.8039 941.5,-734.8039 906.5,-734.8039"/>
<polygon fill="none" stroke="#000000" points="906.5,-734.8039 906.5,-753.8039 941.5,-753.8039 941.5,-734.8039 906.5,-734.8039"/>
<text text-anchor="start" x="922.9053" y="-740.9039" font-family="Helvetica,sans-Serif" font-size="11.00" fill="#000000">7 &gt;</text>
</a>
</g>
</g>
<!-- char_DataCore&#45;&gt;cabah_LabCodes -->
<g id="edge11" class="edge">
<title>char_DataCore:w&#45;&gt;cabah_LabCodes:e</title>
<path fill="none" stroke="#000000" d="M1026.1805,-790.4101C1001.5522,-775.6933 971.4369,-762.8039 941.5,-762.8039"/>
<polygon fill="#000000" stroke="#000000" points="1031.7665,-793.9403 1036.6061,-801.2573 1035.1479,-796.0772 1038.5293,-798.2141 1038.5293,-798.2141 1038.5293,-798.2141 1035.1479,-796.0772 1040.4525,-795.1708 1031.7665,-793.9403 1031.7665,-793.9403"/>
<ellipse fill="none" stroke="#000000" cx="1029.0614" cy="-792.2307" rx="3.2" ry="3.2"/>
</g>
<!-- c14_materia2ID -->
<g id="node11" class="node">
<title>c14_materia2ID</title>
<g id="a_node11"><a xlink:href="../../tables/c14_materia2ID.html" xlink:title="c14_materia2ID" target="_top">
<polygon fill="#ffffff" stroke="transparent" points="809,-653.3039 809,-714.3039 936,-714.3039 936,-653.3039 809,-653.3039"/>
<polygon fill="#f5f5f5" stroke="transparent" points="809.5,-690.8039 809.5,-713.8039 936.5,-713.8039 936.5,-690.8039 809.5,-690.8039"/>
<polygon fill="none" stroke="#000000" points="809.5,-690.8039 809.5,-713.8039 936.5,-713.8039 936.5,-690.8039 809.5,-690.8039"/>
<text text-anchor="start" x="814.5" y="-699.4039" font-family="Helvetica,sans-Serif" font-weight="bold" font-size="11.00" fill="#000000">c14_materia2ID</text>
<text text-anchor="start" x="902.0219" y="-698.9039" font-family="Helvetica,sans-Serif" font-size="11.00" fill="#000000">[table]</text>
<polygon fill="none" stroke="#000000" points="809.5,-671.8039 809.5,-690.8039 936.5,-690.8039 936.5,-671.8039 809.5,-671.8039"/>
<text text-anchor="start" x="812.5" y="-677.9039" font-family="Helvetica,sans-Serif" font-size="11.00" fill="#000000">...</text>
<polygon fill="#ffffff" stroke="transparent" points="809.5,-652.8039 809.5,-671.8039 850.5,-671.8039 850.5,-652.8039 809.5,-652.8039"/>
<polygon fill="none" stroke="#000000" points="809.5,-652.8039 809.5,-671.8039 850.5,-671.8039 850.5,-652.8039 809.5,-652.8039"/>
<text text-anchor="start" x="812.5" y="-658.9039" font-family="Helvetica,sans-Serif" font-size="11.00" fill="#000000">&lt; 1</text>
<polygon fill="#ffffff" stroke="transparent" points="850.5,-652.8039 850.5,-671.8039 904.5,-671.8039 904.5,-652.8039 850.5,-652.8039"/>
<polygon fill="none" stroke="#000000" points="850.5,-652.8039 850.5,-671.8039 904.5,-671.8039 904.5,-652.8039 850.5,-652.8039"/>
<text text-anchor="start" x="862.9956" y="-658.9039" font-family="Helvetica,sans-Serif" font-size="11.00" fill="#000000">60 rows</text>
<polygon fill="#ffffff" stroke="transparent" points="904.5,-652.8039 904.5,-671.8039 936.5,-671.8039 936.5,-652.8039 904.5,-652.8039"/>
<polygon fill="none" stroke="#000000" points="904.5,-652.8039 904.5,-671.8039 936.5,-671.8039 936.5,-652.8039 904.5,-652.8039"/>
<text text-anchor="start" x="917.9053" y="-658.9039" font-family="Helvetica,sans-Serif" font-size="11.00" fill="#000000">3 &gt;</text>
</a>
</g>
</g>
<!-- char_DataCore&#45;&gt;c14_materia2ID -->
<g id="edge12" class="edge">
<title>char_DataCore:w&#45;&gt;c14_materia2ID:e</title>
<path fill="none" stroke="#000000" d="M1060.7516,-784.9587C1037.3294,-740.4002 995.0573,-680.8039 936.5,-680.8039"/>
<polygon fill="#000000" stroke="#000000" points="1063.6802,-790.7844 1064.057,-799.549 1065.4768,-794.3582 1067.2734,-797.932 1067.2734,-797.932 1067.2734,-797.932 1065.4768,-794.3582 1070.4899,-796.3151 1063.6802,-790.7844 1063.6802,-790.7844"/>
<ellipse fill="none" stroke="#000000" cx="1062.2429" cy="-787.9253" rx="3.2" ry="3.2"/>
</g>
<!-- cabah_methodID -->
<g id="node12" class="node">
<title>cabah_methodID</title>
<g id="a_node12"><a xlink:href="../../tables/cabah_methodID.html" xlink:title="cabah_methodID" target="_top">
<polygon fill="#ffffff" stroke="transparent" points="805,-571.3039 805,-632.3039 940,-632.3039 940,-571.3039 805,-571.3039"/>
<polygon fill="#f5f5f5" stroke="transparent" points="805.5,-608.8039 805.5,-631.8039 940.5,-631.8039 940.5,-608.8039 805.5,-608.8039"/>
<polygon fill="none" stroke="#000000" points="805.5,-608.8039 805.5,-631.8039 940.5,-631.8039 940.5,-608.8039 805.5,-608.8039"/>
<text text-anchor="start" x="810.5" y="-617.4039" font-family="Helvetica,sans-Serif" font-weight="bold" font-size="11.00" fill="#000000">cabah_methodID</text>
<text text-anchor="start" x="906.0219" y="-616.9039" font-family="Helvetica,sans-Serif" font-size="11.00" fill="#000000">[table]</text>
<polygon fill="none" stroke="#000000" points="805.5,-589.8039 805.5,-608.8039 940.5,-608.8039 940.5,-589.8039 805.5,-589.8039"/>
<text text-anchor="start" x="808.5" y="-595.9039" font-family="Helvetica,sans-Serif" font-size="11.00" fill="#000000">...</text>
<polygon fill="#ffffff" stroke="transparent" points="805.5,-570.8039 805.5,-589.8039 847.5,-589.8039 847.5,-570.8039 805.5,-570.8039"/>
<polygon fill="none" stroke="#000000" points="805.5,-570.8039 805.5,-589.8039 847.5,-589.8039 847.5,-570.8039 805.5,-570.8039"/>
<text text-anchor="start" x="808.5" y="-576.9039" font-family="Helvetica,sans-Serif" font-size="11.00" fill="#000000">&lt; 1</text>
<polygon fill="#ffffff" stroke="transparent" points="847.5,-570.8039 847.5,-589.8039 908.5,-589.8039 908.5,-570.8039 847.5,-570.8039"/>
<polygon fill="none" stroke="#000000" points="847.5,-570.8039 847.5,-589.8039 908.5,-589.8039 908.5,-570.8039 847.5,-570.8039"/>
<text text-anchor="start" x="860.8807" y="-576.9039" font-family="Helvetica,sans-Serif" font-size="11.00" fill="#000000">102 rows</text>
<polygon fill="#ffffff" stroke="transparent" points="908.5,-570.8039 908.5,-589.8039 940.5,-589.8039 940.5,-570.8039 908.5,-570.8039"/>
<polygon fill="none" stroke="#000000" points="908.5,-570.8039 908.5,-589.8039 940.5,-589.8039 940.5,-570.8039 908.5,-570.8039"/>
<text text-anchor="start" x="921.9053" y="-576.9039" font-family="Helvetica,sans-Serif" font-size="11.00" fill="#000000">8 &gt;</text>
</a>
</g>
</g>
<!-- char_DataCore&#45;&gt;cabah_methodID -->
<g id="edge13" class="edge">
<title>char_DataCore:w&#45;&gt;cabah_methodID:e</title>
<path fill="none" stroke="#000000" d="M1074.7498,-784.0213C1061.4826,-715.4409 1026.3055,-598.8039 940.5,-598.8039"/>
<polygon fill="#000000" stroke="#000000" points="1075.9041,-790.4041 1073.7852,-798.9171 1076.6159,-794.3403 1077.3278,-798.2764 1077.3278,-798.2764 1077.3278,-798.2764 1076.6159,-794.3403 1080.8703,-797.6357 1075.9041,-790.4041 1075.9041,-790.4041"/>
<ellipse fill="none" stroke="#000000" cx="1075.3346" cy="-787.2552" rx="3.2" ry="3.2"/>
</g>
<!-- char_Sample -->
<g id="node13" class="node">
<title>char_Sample</title>
<g id="a_node13"><a xlink:href="../../tables/char_Sample.html" xlink:title="char_Sample" target="_top">
<polygon fill="#ffffff" stroke="transparent" points="774,-212.8039 774,-412.8039 971,-412.8039 971,-212.8039 774,-212.8039"/>
<polygon fill="#f5f5f5" stroke="transparent" points="776.5,-387.8039 776.5,-410.8039 969.5,-410.8039 969.5,-387.8039 776.5,-387.8039"/>
<polygon fill="none" stroke="#000000" points="776.5,-387.8039 776.5,-410.8039 969.5,-410.8039 969.5,-387.8039 776.5,-387.8039"/>
<text text-anchor="start" x="781.5" y="-396.4039" font-family="Helvetica,sans-Serif" font-weight="bold" font-size="11.00" fill="#000000">char_Sample</text>
<text text-anchor="start" x="934.5437" y="-395.9039" font-family="Helvetica,sans-Serif" font-size="11.00" fill="#000000">[table]</text>
<polygon fill="none" stroke="#000000" points="776.5,-365.8039 776.5,-387.8039 877.5,-387.8039 877.5,-365.8039 776.5,-365.8039"/>
<image xlink:href="../../images/primaryKeys.png" width="11px" height="12px" preserveAspectRatio="xMinYMin meet" x="781.5" y="-382.804"/>
<text text-anchor="start" x="796.5" y="-372.9039" font-family="Helvetica,sans-Serif" font-size="11.00" fill="#000000">SMPID</text>
<polygon fill="none" stroke="#000000" points="877.5,-365.8039 877.5,-387.8039 969.5,-387.8039 969.5,-365.8039 877.5,-365.8039"/>
<text text-anchor="start" x="880.5" y="-373.5039" font-family="Helvetica,sans-Serif" font-size="11.00" fill="#000000">serial[10]</text>
<polygon fill="none" stroke="#000000" points="776.5,-343.8039 776.5,-365.8039 877.5,-365.8039 877.5,-343.8039 776.5,-343.8039"/>
<image xlink:href="../../images/foreignKeys.png" width="11px" height="12px" preserveAspectRatio="xMinYMin meet" x="781.5" y="-360.804"/>
<text text-anchor="start" x="796.5" y="-350.9039" font-family="Helvetica,sans-Serif" font-size="11.00" fill="#000000">UNITID</text>
<polygon fill="none" stroke="#000000" points="877.5,-343.8039 877.5,-365.8039 969.5,-365.8039 969.5,-343.8039 877.5,-343.8039"/>
<text text-anchor="start" x="880.5" y="-351.5039" font-family="Helvetica,sans-Serif" font-size="11.00" fill="#000000">int4[10]</text>
<polygon fill="none" stroke="#000000" points="776.5,-321.8039 776.5,-343.8039 877.5,-343.8039 877.5,-321.8039 776.5,-321.8039"/>
<text text-anchor="start" x="796.5" y="-328.9039" font-family="Helvetica,sans-Serif" font-size="11.00" fill="#000000">SMPNAME</text>
<polygon fill="none" stroke="#000000" points="877.5,-321.8039 877.5,-343.8039 969.5,-343.8039 969.5,-321.8039 877.5,-321.8039"/>
<text text-anchor="start" x="880.5" y="-329.5039" font-family="Helvetica,sans-Serif" font-size="11.00" fill="#000000">text[2147483647]</text>
<polygon fill="none" stroke="#000000" points="776.5,-299.8039 776.5,-321.8039 877.5,-321.8039 877.5,-299.8039 776.5,-299.8039"/>
<text text-anchor="start" x="796.5" y="-306.9039" font-family="Helvetica,sans-Serif" font-size="11.00" fill="#000000">SMPDEPTH</text>
<polygon fill="none" stroke="#000000" points="877.5,-299.8039 877.5,-321.8039 969.5,-321.8039 969.5,-299.8039 877.5,-299.8039"/>
<text text-anchor="start" x="880.5" y="-307.5039" font-family="Helvetica,sans-Serif" font-size="11.00" fill="#000000">numeric[0]</text>
<polygon fill="none" stroke="#000000" points="776.5,-277.8039 776.5,-299.8039 877.5,-299.8039 877.5,-277.8039 776.5,-277.8039"/>
<text text-anchor="start" x="796.5" y="-284.9039" font-family="Helvetica,sans-Serif" font-size="11.00" fill="#000000">SMPCOMMT</text>
<polygon fill="none" stroke="#000000" points="877.5,-277.8039 877.5,-299.8039 969.5,-299.8039 969.5,-277.8039 877.5,-277.8039"/>
<text text-anchor="start" x="880.5" y="-285.5039" font-family="Helvetica,sans-Serif" font-size="11.00" fill="#000000">text[2147483647]</text>
<polygon fill="none" stroke="#000000" points="776.5,-255.8039 776.5,-277.8039 877.5,-277.8039 877.5,-255.8039 776.5,-255.8039"/>
<text text-anchor="start" x="796.5" y="-262.9039" font-family="Helvetica,sans-Serif" font-size="11.00" fill="#000000">CREATED_AT</text>
<polygon fill="none" stroke="#000000" points="877.5,-255.8039 877.5,-277.8039 969.5,-277.8039 969.5,-255.8039 877.5,-255.8039"/>
<text text-anchor="start" x="880.1023" y="-263.5039" font-family="Helvetica,sans-Serif" font-size="11.00" fill="#000000">timestamptz[35,6]</text>
<polygon fill="none" stroke="#000000" points="776.5,-233.8039 776.5,-255.8039 877.5,-255.8039 877.5,-233.8039 776.5,-233.8039"/>
<text text-anchor="start" x="796.5" y="-240.9039" font-family="Helvetica,sans-Serif" font-size="11.00" fill="#000000">UPDATED_AT</text>
<polygon fill="none" stroke="#000000" points="877.5,-233.8039 877.5,-255.8039 969.5,-255.8039 969.5,-233.8039 877.5,-233.8039"/>
<text text-anchor="start" x="880.1023" y="-241.5039" font-family="Helvetica,sans-Serif" font-size="11.00" fill="#000000">timestamptz[35,6]</text>
<polygon fill="#ffffff" stroke="transparent" points="776.5,-214.8039 776.5,-233.8039 804.5,-233.8039 804.5,-214.8039 776.5,-214.8039"/>
<polygon fill="none" stroke="#000000" points="776.5,-214.8039 776.5,-233.8039 804.5,-233.8039 804.5,-214.8039 776.5,-214.8039"/>
<text text-anchor="start" x="779.5" y="-220.9039" font-family="Helvetica,sans-Serif" font-size="11.00" fill="#000000">&lt; 1</text>
<polygon fill="#ffffff" stroke="transparent" points="804.5,-214.8039 804.5,-233.8039 877.5,-233.8039 877.5,-214.8039 804.5,-214.8039"/>
<polygon fill="none" stroke="#000000" points="804.5,-214.8039 804.5,-233.8039 877.5,-233.8039 877.5,-214.8039 804.5,-214.8039"/>
<text text-anchor="start" x="814.594" y="-220.9039" font-family="Helvetica,sans-Serif" font-size="11.00" fill="#000000">41.793 rows</text>
<polygon fill="#ffffff" stroke="transparent" points="877.5,-214.8039 877.5,-233.8039 969.5,-233.8039 969.5,-214.8039 877.5,-214.8039"/>
<polygon fill="none" stroke="#000000" points="877.5,-214.8039 877.5,-233.8039 969.5,-233.8039 969.5,-214.8039 877.5,-214.8039"/>
<text text-anchor="start" x="950.9053" y="-220.9039" font-family="Helvetica,sans-Serif" font-size="11.00" fill="#000000">2 &gt;</text>
<polygon fill="none" stroke="#000000" stroke-width="2" points="775,-213.8039 775,-411.8039 970,-411.8039 970,-213.8039 775,-213.8039"/>
</a>
</g>
</g>
<!-- char_DataCore&#45;&gt;char_Sample -->
<g id="edge17" class="edge">
<title>char_DataCore:w&#45;&gt;char_Sample:e</title>
<path fill="none" stroke="#000000" d="M1080.2404,-783.6855C1074.6871,-665.8467 1052.5962,-376.8039 969.5,-376.8039"/>
<polygon fill="#000000" stroke="#000000" points="1080.5263,-790.1633 1077.2826,-798.3143 1080.7027,-794.1594 1080.8791,-798.1555 1080.8791,-798.1555 1080.8791,-798.1555 1080.7027,-794.1594 1084.4756,-797.9968 1080.5263,-790.1633 1080.5263,-790.1633"/>
<ellipse fill="none" stroke="#000000" cx="1080.3852" cy="-786.9664" rx="3.2" ry="3.2"/>
</g>
<!-- global_UnitMaster -->
<g id="node14" class="node">
<title>global_UnitMaster</title>
<g id="a_node14"><a xlink:href="../../tables/global_UnitMaster.html" xlink:title="global_UnitMaster" target="_top">
<polygon fill="#ffffff" stroke="transparent" points="582,-226.3039 582,-287.3039 725,-287.3039 725,-226.3039 582,-226.3039"/>
<polygon fill="#f5f5f5" stroke="transparent" points="582.5,-263.8039 582.5,-286.8039 725.5,-286.8039 725.5,-263.8039 582.5,-263.8039"/>
<polygon fill="none" stroke="#000000" points="582.5,-263.8039 582.5,-286.8039 725.5,-286.8039 725.5,-263.8039 582.5,-263.8039"/>
<text text-anchor="start" x="587.5" y="-272.4039" font-family="Helvetica,sans-Serif" font-weight="bold" font-size="11.00" fill="#000000">global_UnitMaster</text>
<text text-anchor="start" x="691.0219" y="-271.9039" font-family="Helvetica,sans-Serif" font-size="11.00" fill="#000000">[table]</text>
<polygon fill="none" stroke="#000000" points="582.5,-244.8039 582.5,-263.8039 725.5,-263.8039 725.5,-244.8039 582.5,-244.8039"/>
<text text-anchor="start" x="585.5" y="-250.9039" font-family="Helvetica,sans-Serif" font-size="11.00" fill="#000000">...</text>
<polygon fill="#ffffff" stroke="transparent" points="582.5,-225.8039 582.5,-244.8039 628.5,-244.8039 628.5,-225.8039 582.5,-225.8039"/>
<polygon fill="none" stroke="#000000" points="582.5,-225.8039 582.5,-244.8039 628.5,-244.8039 628.5,-225.8039 582.5,-225.8039"/>
<text text-anchor="start" x="585.5" y="-231.9039" font-family="Helvetica,sans-Serif" font-size="11.00" fill="#000000">&lt; 5</text>
<polygon fill="#ffffff" stroke="transparent" points="628.5,-225.8039 628.5,-244.8039 691.5,-244.8039 691.5,-225.8039 628.5,-225.8039"/>
<polygon fill="none" stroke="#000000" points="628.5,-225.8039 628.5,-244.8039 691.5,-244.8039 691.5,-225.8039 628.5,-225.8039"/>
<text text-anchor="start" x="643.8807" y="-231.9039" font-family="Helvetica,sans-Serif" font-size="11.00" fill="#000000">531 rows</text>
<polygon fill="#ffffff" stroke="transparent" points="691.5,-225.8039 691.5,-244.8039 725.5,-244.8039 725.5,-225.8039 691.5,-225.8039"/>
<polygon fill="none" stroke="#000000" points="691.5,-225.8039 691.5,-244.8039 725.5,-244.8039 725.5,-225.8039 691.5,-225.8039"/>
<text text-anchor="start" x="706.9053" y="-231.9039" font-family="Helvetica,sans-Serif" font-size="11.00" fill="#000000">3 &gt;</text>
</a>
</g>
</g>
<!-- char_Sample&#45;&gt;global_UnitMaster -->
<g id="edge19" class="edge">
<title>char_Sample:w&#45;&gt;global_UnitMaster:e</title>
<path fill="none" stroke="#000000" d="M762.0271,-353.4203C726.372,-346.6423 696.1374,-316.2634 676.7088,-291.3551"/>
<polygon fill="#000000" stroke="#000000" points="768.5363,-354.0425 776.1574,-358.3876 772.5182,-354.4232 776.5,-354.8039 776.5,-354.8039 776.5,-354.8039 772.5182,-354.4232 776.8426,-351.2203 768.5363,-354.0425 768.5363,-354.0425"/>
<ellipse fill="none" stroke="#000000" cx="765.3508" cy="-353.738" rx="3.2" ry="3.2"/>
</g>
<!-- global_UnitMaster&#45;&gt;global_RefCore -->
<g id="edge25" class="edge">
<title>global_UnitMaster:w&#45;&gt;global_RefCore:e</title>
<path fill="none" stroke="#000000" d="M637.3615,-305.6408C620.2349,-358.5279 593.0653,-445.5618 574,-521.8039 561.0222,-573.7021 579.9962,-757.8039 526.5,-757.8039"/>
<polygon fill="#000000" stroke="#000000" points="639.4342,-299.2738 645.3338,-292.7812 640.6724,-295.4703 641.9106,-291.6668 641.9106,-291.6668 641.9106,-291.6668 640.6724,-295.4703 638.4875,-290.5524 639.4342,-299.2738 639.4342,-299.2738"/>
<ellipse fill="none" stroke="#000000" cx="638.4436" cy="-302.3167" rx="3.2" ry="3.2"/>
</g>
<!-- global_SiteMaster -->
<g id="node16" class="node">
<title>global_SiteMaster</title>
<g id="a_node16"><a xlink:href="../../tables/global_SiteMaster.html" xlink:title="global_SiteMaster" target="_top">
<polygon fill="#ffffff" stroke="transparent" points="392,-76.3039 392,-137.3039 533,-137.3039 533,-76.3039 392,-76.3039"/>
<polygon fill="#f5f5f5" stroke="transparent" points="392.5,-113.8039 392.5,-136.8039 533.5,-136.8039 533.5,-113.8039 392.5,-113.8039"/>
<polygon fill="none" stroke="#000000" points="392.5,-113.8039 392.5,-136.8039 533.5,-136.8039 533.5,-113.8039 392.5,-113.8039"/>
<text text-anchor="start" x="397.5" y="-122.4039" font-family="Helvetica,sans-Serif" font-weight="bold" font-size="11.00" fill="#000000">global_SiteMaster</text>
<text text-anchor="start" x="499.0219" y="-121.9039" font-family="Helvetica,sans-Serif" font-size="11.00" fill="#000000">[table]</text>
<polygon fill="none" stroke="#000000" points="392.5,-94.8039 392.5,-113.8039 533.5,-113.8039 533.5,-94.8039 392.5,-94.8039"/>
<text text-anchor="start" x="395.5" y="-100.9039" font-family="Helvetica,sans-Serif" font-size="11.00" fill="#000000">...</text>
<polygon fill="#ffffff" stroke="transparent" points="392.5,-75.8039 392.5,-94.8039 427.5,-94.8039 427.5,-75.8039 392.5,-75.8039"/>
<polygon fill="none" stroke="#000000" points="392.5,-75.8039 392.5,-94.8039 427.5,-94.8039 427.5,-75.8039 392.5,-75.8039"/>
<text text-anchor="start" x="395.5" y="-81.9039" font-family="Helvetica,sans-Serif" font-size="11.00" fill="#000000">&lt; 8</text>
<polygon fill="#ffffff" stroke="transparent" points="427.5,-75.8039 427.5,-94.8039 499.5,-94.8039 499.5,-75.8039 427.5,-75.8039"/>
<polygon fill="none" stroke="#000000" points="427.5,-75.8039 427.5,-94.8039 499.5,-94.8039 499.5,-75.8039 427.5,-75.8039"/>
<text text-anchor="start" x="436.594" y="-81.9039" font-family="Helvetica,sans-Serif" font-size="11.00" fill="#000000">23.734 rows</text>
<polygon fill="#ffffff" stroke="transparent" points="499.5,-75.8039 499.5,-94.8039 533.5,-94.8039 533.5,-75.8039 499.5,-75.8039"/>
<polygon fill="none" stroke="#000000" points="499.5,-75.8039 499.5,-94.8039 533.5,-94.8039 533.5,-75.8039 499.5,-75.8039"/>
<text text-anchor="start" x="508.7904" y="-81.9039" font-family="Helvetica,sans-Serif" font-size="11.00" fill="#000000">23 &gt;</text>
</a>
</g>
</g>
<!-- global_UnitMaster&#45;&gt;global_SiteMaster -->
<g id="edge24" class="edge">
<title>global_UnitMaster:w&#45;&gt;global_SiteMaster:e</title>
<path fill="none" stroke="#000000" d="M627.4637,-209.3142C601.1809,-164.3924 560.6916,-103.8039 533.5,-103.8039"/>
<polygon fill="#000000" stroke="#000000" points="630.8184,-215.1501 631.6843,-223.88 632.8119,-218.618 634.8053,-222.0858 634.8053,-222.0858 634.8053,-222.0858 632.8119,-218.618 637.9264,-220.2917 630.8184,-215.1501 630.8184,-215.1501"/>
<ellipse fill="none" stroke="#000000" cx="629.2236" cy="-212.3758" rx="3.2" ry="3.2"/>
</g>
<!-- cabah_col_mtdID -->
<g id="node17" class="node">
<title>cabah_col_mtdID</title>
<g id="a_node17"><a xlink:href="../../tables/cabah_col_mtdID.html" xlink:title="cabah_col_mtdID" target="_top">
<polygon fill="#ffffff" stroke="transparent" points="393.5,-350.3039 393.5,-411.3039 531.5,-411.3039 531.5,-350.3039 393.5,-350.3039"/>
<polygon fill="#f5f5f5" stroke="transparent" points="393.5,-387.8039 393.5,-410.8039 531.5,-410.8039 531.5,-387.8039 393.5,-387.8039"/>
<polygon fill="none" stroke="#000000" points="393.5,-387.8039 393.5,-410.8039 531.5,-410.8039 531.5,-387.8039 393.5,-387.8039"/>
<text text-anchor="start" x="398.5" y="-396.4039" font-family="Helvetica,sans-Serif" font-weight="bold" font-size="11.00" fill="#000000">cabah_col_mtdID</text>
<text text-anchor="start" x="497.0219" y="-395.9039" font-family="Helvetica,sans-Serif" font-size="11.00" fill="#000000">[table]</text>
<polygon fill="none" stroke="#000000" points="393.5,-368.8039 393.5,-387.8039 531.5,-387.8039 531.5,-368.8039 393.5,-368.8039"/>
<text text-anchor="start" x="396.5" y="-374.9039" font-family="Helvetica,sans-Serif" font-size="11.00" fill="#000000">...</text>
<polygon fill="#ffffff" stroke="transparent" points="393.5,-349.8039 393.5,-368.8039 440.5,-368.8039 440.5,-349.8039 393.5,-349.8039"/>
<polygon fill="none" stroke="#000000" points="393.5,-349.8039 393.5,-368.8039 440.5,-368.8039 440.5,-349.8039 393.5,-349.8039"/>
<text text-anchor="start" x="396.5" y="-355.9039" font-family="Helvetica,sans-Serif" font-size="11.00" fill="#000000">&lt; 1</text>
<polygon fill="#ffffff" stroke="transparent" points="440.5,-349.8039 440.5,-368.8039 497.5,-368.8039 497.5,-349.8039 440.5,-349.8039"/>
<polygon fill="none" stroke="#000000" points="440.5,-349.8039 440.5,-368.8039 497.5,-368.8039 497.5,-349.8039 440.5,-349.8039"/>
<text text-anchor="start" x="455.9956" y="-355.9039" font-family="Helvetica,sans-Serif" font-size="11.00" fill="#000000">42 rows</text>
<polygon fill="#ffffff" stroke="transparent" points="497.5,-349.8039 497.5,-368.8039 531.5,-368.8039 531.5,-349.8039 497.5,-349.8039"/>
<polygon fill="none" stroke="#000000" points="497.5,-349.8039 497.5,-368.8039 531.5,-368.8039 531.5,-349.8039 497.5,-349.8039"/>
<text text-anchor="start" x="512.9053" y="-355.9039" font-family="Helvetica,sans-Serif" font-size="11.00" fill="#000000">7 &gt;</text>
</a>
</g>
</g>
<!-- global_UnitMaster&#45;&gt;cabah_col_mtdID -->
<g id="edge22" class="edge">
<title>global_UnitMaster:w&#45;&gt;cabah_col_mtdID:e</title>
<path fill="none" stroke="#000000" d="M629.7268,-304.1042C608.9557,-338.0415 575.278,-377.8039 531.5,-377.8039"/>
<polygon fill="#000000" stroke="#000000" points="633.0362,-298.398 640.164,-293.2838 635.043,-294.9378 637.0498,-291.4777 637.0498,-291.4777 637.0498,-291.4777 635.043,-294.9378 633.9356,-289.6715 633.0362,-298.398 633.0362,-298.398"/>
<ellipse fill="none" stroke="#000000" cx="631.4308" cy="-301.1662" rx="3.2" ry="3.2"/>
</g>
<!-- cabah_depositID -->
<g id="node18" class="node">
<title>cabah_depositID</title>
<g id="a_node18"><a xlink:href="../../tables/cabah_depositID.html" xlink:title="cabah_depositID" target="_top">
<polygon fill="#ffffff" stroke="transparent" points="395,-268.3039 395,-329.3039 530,-329.3039 530,-268.3039 395,-268.3039"/>
<polygon fill="#f5f5f5" stroke="transparent" points="395.5,-305.8039 395.5,-328.8039 530.5,-328.8039 530.5,-305.8039 395.5,-305.8039"/>
<polygon fill="none" stroke="#000000" points="395.5,-305.8039 395.5,-328.8039 530.5,-328.8039 530.5,-305.8039 395.5,-305.8039"/>
<text text-anchor="start" x="400.5" y="-314.4039" font-family="Helvetica,sans-Serif" font-weight="bold" font-size="11.00" fill="#000000">cabah_depositID</text>
<text text-anchor="start" x="496.0219" y="-313.9039" font-family="Helvetica,sans-Serif" font-size="11.00" fill="#000000">[table]</text>
<polygon fill="none" stroke="#000000" points="395.5,-286.8039 395.5,-305.8039 530.5,-305.8039 530.5,-286.8039 395.5,-286.8039"/>
<text text-anchor="start" x="398.5" y="-292.9039" font-family="Helvetica,sans-Serif" font-size="11.00" fill="#000000">...</text>
<polygon fill="#ffffff" stroke="transparent" points="395.5,-267.8039 395.5,-286.8039 437.5,-286.8039 437.5,-267.8039 395.5,-267.8039"/>
<polygon fill="none" stroke="#000000" points="395.5,-267.8039 395.5,-286.8039 437.5,-286.8039 437.5,-267.8039 395.5,-267.8039"/>
<text text-anchor="start" x="398.5" y="-273.9039" font-family="Helvetica,sans-Serif" font-size="11.00" fill="#000000">&lt; 1</text>
<polygon fill="#ffffff" stroke="transparent" points="437.5,-267.8039 437.5,-286.8039 498.5,-286.8039 498.5,-267.8039 437.5,-267.8039"/>
<polygon fill="none" stroke="#000000" points="437.5,-267.8039 437.5,-286.8039 498.5,-286.8039 498.5,-267.8039 437.5,-267.8039"/>
<text text-anchor="start" x="450.8807" y="-273.9039" font-family="Helvetica,sans-Serif" font-size="11.00" fill="#000000">117 rows</text>
<polygon fill="#ffffff" stroke="transparent" points="498.5,-267.8039 498.5,-286.8039 530.5,-286.8039 530.5,-267.8039 498.5,-267.8039"/>
<polygon fill="none" stroke="#000000" points="498.5,-267.8039 498.5,-286.8039 530.5,-286.8039 530.5,-267.8039 498.5,-267.8039"/>
<text text-anchor="start" x="511.9053" y="-273.9039" font-family="Helvetica,sans-Serif" font-size="11.00" fill="#000000">2 &gt;</text>
</a>
</g>
</g>
<!-- global_UnitMaster&#45;&gt;cabah_depositID -->
<g id="edge23" class="edge">
<title>global_UnitMaster:w&#45;&gt;cabah_depositID:e</title>
<path fill="none" stroke="#000000" d="M559.7507,-292.8726C549.9999,-294.7036 540.1328,-295.8039 530.5,-295.8039"/>
<polygon fill="#000000" stroke="#000000" points="566.1051,-291.4537 574.6974,-293.2236 570.0089,-290.5819 573.9128,-289.7102 573.9128,-289.7102 573.9128,-289.7102 570.0089,-290.5819 573.1282,-286.1967 566.1051,-291.4537 566.1051,-291.4537"/>
<ellipse fill="none" stroke="#000000" cx="562.982" cy="-292.1511" rx="3.2" ry="3.2"/>
</g>
<!-- cabah_unittypeID -->
<g id="node19" class="node">
<title>cabah_unittypeID</title>
<g id="a_node19"><a xlink:href="../../tables/cabah_unittypeID.html" xlink:title="cabah_unittypeID" target="_top">
<polygon fill="#ffffff" stroke="transparent" points="393,-186.3039 393,-247.3039 532,-247.3039 532,-186.3039 393,-186.3039"/>
<polygon fill="#f5f5f5" stroke="transparent" points="393.5,-223.8039 393.5,-246.8039 532.5,-246.8039 532.5,-223.8039 393.5,-223.8039"/>
<polygon fill="none" stroke="#000000" points="393.5,-223.8039 393.5,-246.8039 532.5,-246.8039 532.5,-223.8039 393.5,-223.8039"/>
<text text-anchor="start" x="398.5" y="-232.4039" font-family="Helvetica,sans-Serif" font-weight="bold" font-size="11.00" fill="#000000">cabah_unittypeID</text>
<text text-anchor="start" x="498.0219" y="-231.9039" font-family="Helvetica,sans-Serif" font-size="11.00" fill="#000000">[table]</text>
<polygon fill="none" stroke="#000000" points="393.5,-204.8039 393.5,-223.8039 532.5,-223.8039 532.5,-204.8039 393.5,-204.8039"/>
<text text-anchor="start" x="396.5" y="-210.9039" font-family="Helvetica,sans-Serif" font-size="11.00" fill="#000000">...</text>
<polygon fill="#ffffff" stroke="transparent" points="393.5,-185.8039 393.5,-204.8039 436.5,-204.8039 436.5,-185.8039 393.5,-185.8039"/>
<polygon fill="none" stroke="#000000" points="393.5,-185.8039 393.5,-204.8039 436.5,-204.8039 436.5,-185.8039 393.5,-185.8039"/>
<text text-anchor="start" x="396.5" y="-191.9039" font-family="Helvetica,sans-Serif" font-size="11.00" fill="#000000"> &#160;</text>
<polygon fill="#ffffff" stroke="transparent" points="436.5,-185.8039 436.5,-204.8039 495.5,-204.8039 495.5,-185.8039 436.5,-185.8039"/>
<polygon fill="none" stroke="#000000" points="436.5,-185.8039 436.5,-204.8039 495.5,-204.8039 495.5,-185.8039 436.5,-185.8039"/>
<text text-anchor="start" x="453.9956" y="-191.9039" font-family="Helvetica,sans-Serif" font-size="11.00" fill="#000000">15 rows</text>
<polygon fill="#ffffff" stroke="transparent" points="495.5,-185.8039 495.5,-204.8039 532.5,-204.8039 532.5,-185.8039 495.5,-185.8039"/>
<polygon fill="none" stroke="#000000" points="495.5,-185.8039 495.5,-204.8039 532.5,-204.8039 532.5,-185.8039 495.5,-185.8039"/>
<text text-anchor="start" x="513.9053" y="-191.9039" font-family="Helvetica,sans-Serif" font-size="11.00" fill="#000000">1 &gt;</text>
</a>
</g>
</g>
<!-- global_UnitMaster&#45;&gt;cabah_unittypeID -->
<g id="edge26" class="edge">
<title>global_UnitMaster:w&#45;&gt;cabah_unittypeID:e</title>
<path fill="none" stroke="#000000" d="M567.4661,-218.3891C555.9222,-215.5712 544.0702,-213.8039 532.5,-213.8039"/>
<polygon fill="#000000" stroke="#000000" points="573.6541,-220.1313 580.3791,-225.7646 577.5045,-221.2153 581.3548,-222.2993 581.3548,-222.2993 581.3548,-222.2993 577.5045,-221.2153 582.3304,-218.8341 573.6541,-220.1313 573.6541,-220.1313"/>
<ellipse fill="none" stroke="#000000" cx="570.5739" cy="-219.264" rx="3.2" ry="3.2"/>
</g>
<!-- global_MetaSite -->
<g id="node15" class="node">
<title>global_MetaSite</title>
<g id="a_node15"><a xlink:href="../../tables/global_MetaSite.html" xlink:title="global_MetaSite" target="_top">
<polygon fill="#ffffff" stroke="transparent" points="213,-105.3039 213,-166.3039 343,-166.3039 343,-105.3039 213,-105.3039"/>
<polygon fill="#f5f5f5" stroke="transparent" points="213,-142.8039 213,-165.8039 343,-165.8039 343,-142.8039 213,-142.8039"/>
<polygon fill="none" stroke="#000000" points="213,-142.8039 213,-165.8039 343,-165.8039 343,-142.8039 213,-142.8039"/>
<text text-anchor="start" x="218" y="-151.4039" font-family="Helvetica,sans-Serif" font-weight="bold" font-size="11.00" fill="#000000">global_MetaSite</text>
<text text-anchor="start" x="308.5219" y="-150.9039" font-family="Helvetica,sans-Serif" font-size="11.00" fill="#000000">[table]</text>
<polygon fill="none" stroke="#000000" points="213,-123.8039 213,-142.8039 343,-142.8039 343,-123.8039 213,-123.8039"/>
<text text-anchor="start" x="216" y="-129.9039" font-family="Helvetica,sans-Serif" font-size="11.00" fill="#000000">...</text>
<polygon fill="#ffffff" stroke="transparent" points="213,-104.8039 213,-123.8039 242,-123.8039 242,-104.8039 213,-104.8039"/>
<polygon fill="none" stroke="#000000" points="213,-104.8039 213,-123.8039 242,-123.8039 242,-104.8039 213,-104.8039"/>
<text text-anchor="start" x="216" y="-110.9039" font-family="Helvetica,sans-Serif" font-size="11.00" fill="#000000">&lt; 2</text>
<polygon fill="#ffffff" stroke="transparent" points="242,-104.8039 242,-123.8039 311,-123.8039 311,-104.8039 242,-104.8039"/>
<polygon fill="none" stroke="#000000" points="242,-104.8039 242,-123.8039 311,-123.8039 311,-104.8039 242,-104.8039"/>
<text text-anchor="start" x="248.094" y="-110.9039" font-family="Helvetica,sans-Serif" font-size="11.00" fill="#000000">12.140 rows</text>
<polygon fill="#ffffff" stroke="transparent" points="311,-104.8039 311,-123.8039 343,-123.8039 343,-104.8039 311,-104.8039"/>
<polygon fill="none" stroke="#000000" points="311,-104.8039 311,-123.8039 343,-123.8039 343,-104.8039 311,-104.8039"/>
<text text-anchor="start" x="318.2904" y="-110.9039" font-family="Helvetica,sans-Serif" font-size="11.00" fill="#000000">18 &gt;</text>
</a>
</g>
</g>
<!-- global_MetaSite&#45;&gt;cabah_datasourceID -->
<g id="edge20" class="edge">
<title>global_MetaSite:w&#45;&gt;cabah_datasourceID:e</title>
<path fill="none" stroke="#000000" d="M198.5099,-133.6037C10.8193,-155.6425 379.03,-625.8039 164,-625.8039"/>
<polygon fill="#000000" stroke="#000000" points="205.0122,-133.2448 213.1984,-136.3984 209.0061,-133.0244 213,-132.8039 213,-132.8039 213,-132.8039 209.0061,-133.0244 212.8016,-129.2094 205.0122,-133.2448 205.0122,-133.2448"/>
<ellipse fill="none" stroke="#000000" cx="201.817" cy="-133.4212" rx="3.2" ry="3.2"/>
</g>
<!-- global_SiteMaster&#45;&gt;global_MetaSite -->
<g id="edge21" class="edge">
<title>global_SiteMaster:w&#45;&gt;global_MetaSite:e</title>
<path fill="none" stroke="#000000" d="M378.3253,-107.8362C366.2205,-115.8046 362.5215,-132.8039 343,-132.8039"/>
<polygon fill="#000000" stroke="#000000" points="384.8053,-105.9929 393.485,-107.2665 388.6526,-104.8984 392.5,-103.8039 392.5,-103.8039 392.5,-103.8039 388.6526,-104.8984 391.515,-100.3413 384.8053,-105.9929 384.8053,-105.9929"/>
<ellipse fill="none" stroke="#000000" cx="381.7274" cy="-106.8685" rx="3.2" ry="3.2"/>
</g>
<!-- sahulchar -->
<g id="node20" class="node">
<title>sahulchar</title>
<g id="a_node20"><a xlink:href="../../tables/sahulchar.html" xlink:title="sahulchar" target="_top">
<polygon fill="#ffffff" stroke="transparent" points="1193,-252.3039 1193,-313.3039 1291,-313.3039 1291,-252.3039 1193,-252.3039"/>
<polygon fill="#f5f5f5" stroke="transparent" points="1193,-289.8039 1193,-312.8039 1291,-312.8039 1291,-289.8039 1193,-289.8039"/>
<polygon fill="none" stroke="#000000" points="1193,-289.8039 1193,-312.8039 1291,-312.8039 1291,-289.8039 1193,-289.8039"/>
<text text-anchor="start" x="1198" y="-298.4039" font-family="Helvetica,sans-Serif" font-weight="bold" font-size="11.00" fill="#000000">sahulchar</text>
<text text-anchor="start" x="1256.0437" y="-297.9039" font-family="Helvetica,sans-Serif" font-size="11.00" fill="#000000">[table]</text>
<polygon fill="none" stroke="#000000" points="1193,-270.8039 1193,-289.8039 1291,-289.8039 1291,-270.8039 1193,-270.8039"/>
<text text-anchor="start" x="1196" y="-276.9039" font-family="Helvetica,sans-Serif" font-size="11.00" fill="#000000">...</text>
<polygon fill="#ffffff" stroke="transparent" points="1193,-251.8039 1193,-270.8039 1214,-270.8039 1214,-251.8039 1193,-251.8039"/>
<polygon fill="none" stroke="#000000" points="1193,-251.8039 1193,-270.8039 1214,-270.8039 1214,-251.8039 1193,-251.8039"/>
<text text-anchor="start" x="1195.7027" y="-257.9039" font-family="Helvetica,sans-Serif" font-size="11.00" fill="#000000">&lt; 6</text>
<polygon fill="#ffffff" stroke="transparent" points="1214,-251.8039 1214,-270.8039 1279,-270.8039 1279,-251.8039 1214,-251.8039"/>
<polygon fill="none" stroke="#000000" points="1214,-251.8039 1214,-270.8039 1279,-270.8039 1279,-251.8039 1214,-251.8039"/>
<text text-anchor="start" x="1216.547" y="-257.9039" font-family="Helvetica,sans-Serif" font-size="11.00" fill="#000000">48.234 rows</text>
<polygon fill="#ffffff" stroke="transparent" points="1279,-251.8039 1279,-270.8039 1291,-270.8039 1291,-251.8039 1279,-251.8039"/>
<polygon fill="none" stroke="#000000" points="1279,-251.8039 1279,-270.8039 1291,-270.8039 1291,-251.8039 1279,-251.8039"/>
<text text-anchor="start" x="1281.9431" y="-257.9039" font-family="Helvetica,sans-Serif" font-size="11.00" fill="#000000"> &#160;</text>
</a>
</g>
</g>
<!-- sahulchar&#45;&gt;char_DataCore -->
<g id="edge29" class="edge">
<title>sahulchar:w&#45;&gt;char_DataCore:e</title>
<path fill="none" stroke="#000000" stroke-dasharray="5,2" d="M1227.7705,-331.7177C1195.931,-441.1661 1119.5841,-703.6084 1092.0858,-798.1339"/>
<polygon fill="#000000" stroke="#000000" points="1229.6352,-325.3077 1235.3266,-318.6317 1230.7526,-321.4669 1231.8699,-317.6261 1231.8699,-317.6261 1231.8699,-317.6261 1230.7526,-321.4669 1228.4132,-316.6205 1229.6352,-325.3077 1229.6352,-325.3077"/>
<ellipse fill="none" stroke="#000000" cx="1228.7414" cy="-328.3803" rx="3.2" ry="3.2"/>
</g>
<!-- sahulchar&#45;&gt;global_dbDOI -->
<g id="edge27" class="edge">
<title>sahulchar:w&#45;&gt;global_dbDOI:e</title>
<path fill="none" stroke="#000000" stroke-dasharray="5,2" d="M1198.7057,-327.5114C1142.4992,-380.53 1038.8336,-461.8039 931.5,-461.8039"/>
<polygon fill="#000000" stroke="#000000" points="1203.5364,-322.8636 1211.7973,-319.9111 1206.4188,-320.0903 1209.3013,-317.3169 1209.3013,-317.3169 1209.3013,-317.3169 1206.4188,-320.0903 1206.8053,-314.7227 1203.5364,-322.8636 1203.5364,-322.8636"/>
<ellipse fill="none" stroke="#000000" cx="1201.2304" cy="-325.0823" rx="3.2" ry="3.2"/>
</g>
<!-- sahulchar&#45;&gt;char_Sample -->
<g id="edge31" class="edge">
<title>sahulchar:w&#45;&gt;char_Sample:e</title>
<path fill="none" stroke="#000000" stroke-dasharray="5,2" d="M1171.8167,-321.3891C1118.0817,-347.329 1041.2398,-376.8039 969.5,-376.8039"/>
<polygon fill="#000000" stroke="#000000" points="1177.7915,-318.4356 1186.5585,-318.1177 1181.3773,-316.6631 1184.9632,-314.8905 1184.9632,-314.8905 1184.9632,-314.8905 1181.3773,-316.6631 1183.3678,-311.6632 1177.7915,-318.4356 1177.7915,-318.4356"/>
<ellipse fill="none" stroke="#000000" cx="1174.9229" cy="-319.8537" rx="3.2" ry="3.2"/>
</g>
<!-- sahulchar&#45;&gt;global_UnitMaster -->
<g id="edge32" class="edge">
<title>sahulchar:w&#45;&gt;global_UnitMaster:e</title>
<path fill="none" stroke="#000000" stroke-dasharray="5,2" d="M1171.3091,-253.7649C1077.9138,-219.3042 908.5665,-170.3599 766,-202.8039 748.0441,-206.8902 729.6095,-214.2161 712.9936,-222.1799"/>
<polygon fill="#000000" stroke="#000000" points="1177.3136,-256.0227 1183.5346,-262.2082 1181.0577,-257.4307 1184.8017,-258.8386 1184.8017,-258.8386 1184.8017,-258.8386 1181.0577,-257.4307 1186.0688,-255.4689 1177.3136,-256.0227 1177.3136,-256.0227"/>
<ellipse fill="none" stroke="#000000" cx="1174.3184" cy="-254.8964" rx="3.2" ry="3.2"/>
</g>
<!-- sahulchar&#45;&gt;global_MetaSite -->
<g id="edge28" class="edge">
<title>sahulchar:w&#45;&gt;global_MetaSite:e</title>
<path fill="none" stroke="#000000" stroke-dasharray="5,2" d="M1230.4683,-234.2822C1218.0796,-192.9763 1194.2219,-135.3133 1152,-102.8039 1051.9483,-25.7676 998.7733,-51.8039 872.5,-51.8039 872.5,-51.8039 872.5,-51.8039 653.5,-51.8039 533.5607,-51.8039 487.0715,-4.4712 384,-65.8039 353.9989,-83.6561 377.9108,-132.8039 343,-132.8039"/>
<polygon fill="#000000" stroke="#000000" points="1232.2087,-240.4437 1230.9189,-249.121 1233.296,-244.293 1234.3834,-248.1424 1234.3834,-248.1424 1234.3834,-248.1424 1233.296,-244.293 1237.8478,-247.1638 1232.2087,-240.4437 1232.2087,-240.4437"/>
<ellipse fill="none" stroke="#000000" cx="1231.3388" cy="-237.3642" rx="3.2" ry="3.2"/>
</g>
<!-- sahulchar&#45;&gt;global_SiteMaster -->
<g id="edge30" class="edge">
<title>sahulchar:w&#45;&gt;global_SiteMaster:e</title>
<path fill="none" stroke="#000000" stroke-dasharray="5,2" d="M1199.7347,-237.8474C1151.6435,-190.4725 1068.1438,-119.141 979,-92.8039 806.3337,-41.7906 753.8363,-93.1486 574,-101.8039 555.9989,-102.6703 551.5219,-103.8039 533.5,-103.8039"/>
<polygon fill="#000000" stroke="#000000" points="1204.3734,-242.4938 1207.4779,-250.6989 1207.1995,-245.3246 1210.0256,-248.1554 1210.0256,-248.1554 1210.0256,-248.1554 1207.1995,-245.3246 1212.5733,-245.6119 1204.3734,-242.4938 1204.3734,-242.4938"/>
<ellipse fill="none" stroke="#000000" cx="1202.1126" cy="-240.2292" rx="3.2" ry="3.2"/>
</g>
<!-- sahulchar_units -->
<g id="node21" class="node">
<title>sahulchar_units</title>
<g id="a_node21"><a xlink:href="../../tables/sahulchar_units.html" xlink:title="sahulchar_units" target="_top">
<polygon fill="#ffffff" stroke="transparent" points="807,-103.3039 807,-164.3039 938,-164.3039 938,-103.3039 807,-103.3039"/>
<polygon fill="#f5f5f5" stroke="transparent" points="807.5,-140.8039 807.5,-163.8039 938.5,-163.8039 938.5,-140.8039 807.5,-140.8039"/>
<polygon fill="none" stroke="#000000" points="807.5,-140.8039 807.5,-163.8039 938.5,-163.8039 938.5,-140.8039 807.5,-140.8039"/>
<text text-anchor="start" x="812.5" y="-149.4039" font-family="Helvetica,sans-Serif" font-weight="bold" font-size="11.00" fill="#000000">sahulchar_units</text>
<text text-anchor="start" x="904.0219" y="-148.9039" font-family="Helvetica,sans-Serif" font-size="11.00" fill="#000000">[table]</text>
<polygon fill="none" stroke="#000000" points="807.5,-121.8039 807.5,-140.8039 938.5,-140.8039 938.5,-121.8039 807.5,-121.8039"/>
<text text-anchor="start" x="810.5" y="-127.9039" font-family="Helvetica,sans-Serif" font-size="11.00" fill="#000000">...</text>
<polygon fill="#ffffff" stroke="transparent" points="807.5,-102.8039 807.5,-121.8039 852.5,-121.8039 852.5,-102.8039 807.5,-102.8039"/>
<polygon fill="none" stroke="#000000" points="807.5,-102.8039 807.5,-121.8039 852.5,-121.8039 852.5,-102.8039 807.5,-102.8039"/>
<text text-anchor="start" x="810.5" y="-108.9039" font-family="Helvetica,sans-Serif" font-size="11.00" fill="#000000">&lt; 4</text>
<polygon fill="#ffffff" stroke="transparent" points="852.5,-102.8039 852.5,-121.8039 914.5,-121.8039 914.5,-102.8039 852.5,-102.8039"/>
<polygon fill="none" stroke="#000000" points="852.5,-102.8039 852.5,-121.8039 914.5,-121.8039 914.5,-102.8039 852.5,-102.8039"/>
<text text-anchor="start" x="866.8807" y="-108.9039" font-family="Helvetica,sans-Serif" font-size="11.00" fill="#000000">531 rows</text>
<polygon fill="#ffffff" stroke="transparent" points="914.5,-102.8039 914.5,-121.8039 938.5,-121.8039 938.5,-102.8039 914.5,-102.8039"/>
<polygon fill="none" stroke="#000000" points="914.5,-102.8039 914.5,-121.8039 938.5,-121.8039 938.5,-102.8039 914.5,-102.8039"/>
<text text-anchor="start" x="929.3862" y="-108.9039" font-family="Helvetica,sans-Serif" font-size="11.00" fill="#000000"> &#160;</text>
</a>
</g>
</g>
<!-- sahulchar_units&#45;&gt;global_UnitMaster -->
<g id="edge35" class="edge">
<title>sahulchar_units:w&#45;&gt;global_UnitMaster:e</title>
<path fill="none" stroke="#000000" stroke-dasharray="5,2" d="M793.3449,-133.9712C762.5319,-146.0486 716.3724,-190.1354 685.6161,-222.0403"/>
<polygon fill="#000000" stroke="#000000" points="799.693,-132.5508 808.2861,-134.317 803.5965,-131.6774 807.5,-130.8039 807.5,-130.8039 807.5,-130.8039 803.5965,-131.6774 806.7139,-127.2908 799.693,-132.5508 799.693,-132.5508"/>
<ellipse fill="none" stroke="#000000" cx="796.5703" cy="-133.2496" rx="3.2" ry="3.2"/>
</g>
<!-- sahulchar_units&#45;&gt;global_MetaSite -->
<g id="edge33" class="edge">
<title>sahulchar_units:w&#45;&gt;global_MetaSite:e</title>
<path fill="none" stroke="#000000" stroke-dasharray="5,2" d="M792.8837,-130.9055C616.4139,-133.376 564.594,-179.8023 384,-147.8039 364.8941,-144.4187 362.4034,-132.8039 343,-132.8039"/>
<polygon fill="#000000" stroke="#000000" points="799.5002,-130.8596 807.525,-134.4038 803.5001,-130.8317 807.5,-130.8039 807.5,-130.8039 807.5,-130.8039 803.5001,-130.8317 807.475,-127.204 799.5002,-130.8596 799.5002,-130.8596"/>
<ellipse fill="none" stroke="#000000" cx="796.3003" cy="-130.8818" rx="3.2" ry="3.2"/>
</g>
<!-- sahulchar_units&#45;&gt;global_SiteMaster -->
<g id="edge34" class="edge">
<title>sahulchar_units:w&#45;&gt;global_SiteMaster:e</title>
<path fill="none" stroke="#000000" stroke-dasharray="5,2" d="M792.9001,-130.6714C682.5752,-128.6345 650.8486,-103.8039 533.5,-103.8039"/>
<polygon fill="#000000" stroke="#000000" points="799.5003,-130.7312 807.4673,-134.4038 803.5002,-130.7676 807.5,-130.8039 807.5,-130.8039 807.5,-130.8039 803.5002,-130.7676 807.5327,-127.2041 799.5003,-130.7312 799.5003,-130.7312"/>
<ellipse fill="none" stroke="#000000" cx="796.3005" cy="-130.7022" rx="3.2" ry="3.2"/>
</g>
</g>
</svg>
