<?xml version="1.0" encoding="UTF-8" standalone="no"?>
<!DOCTYPE svg PUBLIC "-//W3C//DTD SVG 1.1//EN"
 "http://www.w3.org/Graphics/SVG/1.1/DTD/svg11.dtd">
<!-- Generated by graphviz version 2.40.1 (20161225.0304)
 -->
<!-- Title: oneDegreeRelationshipsDiagram Pages: 1 -->
<svg width="586pt" height="485pt"
 viewBox="0.00 0.00 586.00 485.20" xmlns="http://www.w3.org/2000/svg" xmlns:xlink="http://www.w3.org/1999/xlink">
<g id="graph0" class="graph" transform="scale(1 1) rotate(0) translate(4 481.2)">
<title>oneDegreeRelationshipsDiagram</title>
<polygon fill="#ffffff" stroke="transparent" points="-4,4 -4,-481.2 582,-481.2 582,4 -4,4"/>
<text text-anchor="middle" x="72.4936" y="-7.3" font-family="Helvetica,sans-Serif" font-size="11.00" fill="#000000">Generated by SchemaSpy</text>
<!-- char_DataCore -->
<g id="node1" class="node">
<title>char_DataCore</title>
<g id="a_node1"><a xlink:href="../../tables/char_DataCore.html" xlink:title="char_DataCore" target="_top">
<polygon fill="#ffffff" stroke="transparent" points="446,-38.2 446,-473.2 570,-473.2 570,-38.2 446,-38.2"/>
<polygon fill="#f5f5f5" stroke="transparent" points="446,-449.7 446,-472.7 570,-472.7 570,-449.7 446,-449.7"/>
<polygon fill="none" stroke="#000000" points="446,-449.7 446,-472.7 570,-472.7 570,-449.7 446,-449.7"/>
<text text-anchor="start" x="451" y="-458.3" font-family="Helvetica,sans-Serif" font-weight="bold" font-size="11.00" fill="#000000">char_DataCore</text>
<text text-anchor="start" x="535.5219" y="-457.8" font-family="Helvetica,sans-Serif" font-size="11.00" fill="#000000">[table]</text>
<polygon fill="none" stroke="#000000" points="446,-427.7 446,-449.7 570,-449.7 570,-427.7 446,-427.7"/>
<image xlink:href="../../images/primaryKeys.png" width="11px" height="12px" preserveAspectRatio="xMinYMin meet" x="451" y="-444.7"/>
<text text-anchor="start" x="475" y="-434.8" font-family="Helvetica,sans-Serif" font-size="11.00" fill="#000000">OBSID</text>
<polygon fill="none" stroke="#000000" points="446,-405.7 446,-427.7 570,-427.7 570,-405.7 446,-405.7"/>
<image xlink:href="../../images/foreignKeys.png" width="11px" height="12px" preserveAspectRatio="xMinYMin meet" x="451" y="-422.7"/>
<text text-anchor="start" x="475" y="-412.8" font-family="Helvetica,sans-Serif" font-size="11.00" fill="#000000">SMPID</text>
<polygon fill="none" stroke="#000000" points="446,-383.7 446,-405.7 570,-405.7 570,-383.7 446,-383.7"/>
<image xlink:href="../../images/foreignKeys.png" width="11px" height="12px" preserveAspectRatio="xMinYMin meet" x="451" y="-400.7"/>
<text text-anchor="start" x="475" y="-390.8" font-family="Helvetica,sans-Serif" font-size="11.00" fill="#000000">LAB_ORIGID</text>
<polygon fill="none" stroke="#000000" points="446,-361.7 446,-383.7 570,-383.7 570,-361.7 446,-361.7"/>
<image xlink:href="../../images/foreignKeys.png" width="11px" height="12px" preserveAspectRatio="xMinYMin meet" x="451" y="-378.7"/>
<text text-anchor="start" x="475" y="-368.8" font-family="Helvetica,sans-Serif" font-size="11.00" fill="#000000">WHATAMI</text>
<polygon fill="none" stroke="#000000" points="446,-339.7 446,-361.7 570,-361.7 570,-339.7 446,-339.7"/>
<image xlink:href="../../images/foreignKeys.png" width="11px" height="12px" preserveAspectRatio="xMinYMin meet" x="451" y="-356.7"/>
<text text-anchor="start" x="475" y="-346.8" font-family="Helvetica,sans-Serif" font-size="11.00" fill="#000000">AGETYPEID</text>
<polygon fill="none" stroke="#000000" points="446,-317.7 446,-339.7 570,-339.7 570,-317.7 446,-317.7"/>
<image xlink:href="../../images/foreignKeys.png" width="11px" height="12px" preserveAspectRatio="xMinYMin meet" x="451" y="-334.7"/>
<text text-anchor="start" x="475" y="-324.8" font-family="Helvetica,sans-Serif" font-size="11.00" fill="#000000">METHODID</text>
<polygon fill="none" stroke="#000000" points="446,-295.7 446,-317.7 570,-317.7 570,-295.7 446,-295.7"/>
<image xlink:href="../../images/foreignKeys.png" width="11px" height="12px" preserveAspectRatio="xMinYMin meet" x="451" y="-312.7"/>
<text text-anchor="start" x="475" y="-302.8" font-family="Helvetica,sans-Serif" font-size="11.00" fill="#000000">MATERIA2ID</text>
<polygon fill="none" stroke="#000000" points="446,-273.7 446,-295.7 570,-295.7 570,-273.7 446,-273.7"/>
<image xlink:href="../../images/foreignKeys.png" width="11px" height="12px" preserveAspectRatio="xMinYMin meet" x="451" y="-290.7"/>
<text text-anchor="start" x="475" y="-280.8" font-family="Helvetica,sans-Serif" font-size="11.00" fill="#000000">CALCURVEID</text>
<polygon fill="none" stroke="#000000" points="446,-251.7 446,-273.7 570,-273.7 570,-251.7 446,-251.7"/>
<image xlink:href="../../images/foreignKeys.png" width="11px" height="12px" preserveAspectRatio="xMinYMin meet" x="451" y="-268.7"/>
<text text-anchor="start" x="475" y="-258.8" font-family="Helvetica,sans-Serif" font-size="11.00" fill="#000000">CALPROGID</text>
<polygon fill="none" stroke="#000000" points="446,-229.7 446,-251.7 570,-251.7 570,-229.7 446,-229.7"/>
<image xlink:href="../../images/foreignKeys.png" width="11px" height="12px" preserveAspectRatio="xMinYMin meet" x="451" y="-246.7"/>
<text text-anchor="start" x="475" y="-236.8" font-family="Helvetica,sans-Serif" font-size="11.00" fill="#000000">CHARMTDID</text>
<polygon fill="none" stroke="#000000" points="446,-207.7 446,-229.7 570,-229.7 570,-207.7 446,-207.7"/>
<image xlink:href="../../images/foreignKeys.png" width="11px" height="12px" preserveAspectRatio="xMinYMin meet" x="451" y="-224.7"/>
<text text-anchor="start" x="475" y="-214.8" font-family="Helvetica,sans-Serif" font-size="11.00" fill="#000000">CHARMEASID</text>
<polygon fill="none" stroke="#000000" points="446,-185.7 446,-207.7 570,-207.7 570,-185.7 446,-185.7"/>
<image xlink:href="../../images/foreignKeys.png" width="11px" height="12px" preserveAspectRatio="xMinYMin meet" x="451" y="-202.7"/>
<text text-anchor="start" x="475" y="-192.8" font-family="Helvetica,sans-Serif" font-size="11.00" fill="#000000">CHARSIZEID</text>
<polygon fill="none" stroke="#000000" points="446,-163.7 446,-185.7 570,-185.7 570,-163.7 446,-163.7"/>
<image xlink:href="../../images/foreignKeys.png" width="11px" height="12px" preserveAspectRatio="xMinYMin meet" x="451" y="-180.7"/>
<text text-anchor="start" x="475" y="-170.8" font-family="Helvetica,sans-Serif" font-size="11.00" fill="#000000">DATASRCID</text>
<polygon fill="none" stroke="#000000" points="446,-141.7 446,-163.7 570,-163.7 570,-141.7 446,-141.7"/>
<image xlink:href="../../images/foreignKeys.png" width="11px" height="12px" preserveAspectRatio="xMinYMin meet" x="451" y="-158.7"/>
<text text-anchor="start" x="475" y="-148.8" font-family="Helvetica,sans-Serif" font-size="11.00" fill="#000000">REFDBID1</text>
<polygon fill="none" stroke="#000000" points="446,-119.7 446,-141.7 570,-141.7 570,-119.7 446,-119.7"/>
<image xlink:href="../../images/foreignKeys.png" width="11px" height="12px" preserveAspectRatio="xMinYMin meet" x="451" y="-136.7"/>
<text text-anchor="start" x="475" y="-126.8" font-family="Helvetica,sans-Serif" font-size="11.00" fill="#000000">REFDBID2</text>
<polygon fill="none" stroke="#000000" points="446,-97.7 446,-119.7 570,-119.7 570,-97.7 446,-97.7"/>
<image xlink:href="../../images/foreignKeys.png" width="11px" height="12px" preserveAspectRatio="xMinYMin meet" x="451" y="-114.7"/>
<text text-anchor="start" x="475" y="-104.8" font-family="Helvetica,sans-Serif" font-size="11.00" fill="#000000">REFDBID3</text>
<polygon fill="none" stroke="#000000" points="446,-75.7 446,-97.7 570,-97.7 570,-75.7 446,-75.7"/>
<image xlink:href="../../images/foreignKeys.png" width="11px" height="12px" preserveAspectRatio="xMinYMin meet" x="451" y="-92.7"/>
<text text-anchor="start" x="475" y="-82.8" font-family="Helvetica,sans-Serif" font-size="11.00" fill="#000000">DBDOI</text>
<polygon fill="none" stroke="#000000" points="446,-56.7 446,-75.7 570,-75.7 570,-56.7 446,-56.7"/>
<text text-anchor="start" x="449" y="-62.8" font-family="Helvetica,sans-Serif" font-size="11.00" fill="#000000">...</text>
<polygon fill="#ffffff" stroke="transparent" points="446,-37.7 446,-56.7 483,-56.7 483,-37.7 446,-37.7"/>
<polygon fill="none" stroke="#000000" points="446,-37.7 446,-56.7 483,-56.7 483,-37.7 446,-37.7"/>
<text text-anchor="start" x="449" y="-43.8" font-family="Helvetica,sans-Serif" font-size="11.00" fill="#000000">&lt; 16</text>
<polygon fill="#ffffff" stroke="transparent" points="483,-37.7 483,-56.7 553,-56.7 553,-37.7 483,-37.7"/>
<polygon fill="none" stroke="#000000" points="483,-37.7 483,-56.7 553,-56.7 553,-37.7 483,-37.7"/>
<text text-anchor="start" x="490.094" y="-43.8" font-family="Helvetica,sans-Serif" font-size="11.00" fill="#000000">48.234 rows</text>
<polygon fill="#ffffff" stroke="transparent" points="553,-37.7 553,-56.7 570,-56.7 570,-37.7 553,-37.7"/>
<polygon fill="none" stroke="#000000" points="553,-37.7 553,-56.7 570,-56.7 570,-37.7 553,-37.7"/>
<text text-anchor="start" x="560.8862" y="-43.8" font-family="Helvetica,sans-Serif" font-size="11.00" fill="#000000"> &#160;</text>
</a>
</g>
</g>
<!-- char_Sample -->
<g id="node2" class="node">
<title>char_Sample</title>
<g id="a_node2"><a xlink:href="../../tables/char_Sample.html" xlink:title="char_Sample" target="_top">
<polygon fill="#ffffff" stroke="transparent" points="200,-252.7 200,-452.7 397,-452.7 397,-252.7 200,-252.7"/>
<polygon fill="#f5f5f5" stroke="transparent" points="202.5,-427.7 202.5,-450.7 395.5,-450.7 395.5,-427.7 202.5,-427.7"/>
<polygon fill="none" stroke="#000000" points="202.5,-427.7 202.5,-450.7 395.5,-450.7 395.5,-427.7 202.5,-427.7"/>
<text text-anchor="start" x="207.5" y="-436.3" font-family="Helvetica,sans-Serif" font-weight="bold" font-size="11.00" fill="#000000">char_Sample</text>
<text text-anchor="start" x="360.5437" y="-435.8" font-family="Helvetica,sans-Serif" font-size="11.00" fill="#000000">[table]</text>
<polygon fill="none" stroke="#000000" points="202.5,-405.7 202.5,-427.7 303.5,-427.7 303.5,-405.7 202.5,-405.7"/>
<image xlink:href="../../images/primaryKeys.png" width="11px" height="12px" preserveAspectRatio="xMinYMin meet" x="207.5" y="-422.7"/>
<text text-anchor="start" x="222.5" y="-412.8" font-family="Helvetica,sans-Serif" font-size="11.00" fill="#000000">SMPID</text>
<polygon fill="none" stroke="#000000" points="303.5,-405.7 303.5,-427.7 395.5,-427.7 395.5,-405.7 303.5,-405.7"/>
<text text-anchor="start" x="306.5" y="-413.4" font-family="Helvetica,sans-Serif" font-size="11.00" fill="#000000">serial[10]</text>
<polygon fill="none" stroke="#000000" points="202.5,-383.7 202.5,-405.7 303.5,-405.7 303.5,-383.7 202.5,-383.7"/>
<image xlink:href="../../images/foreignKeys.png" width="11px" height="12px" preserveAspectRatio="xMinYMin meet" x="207.5" y="-400.7"/>
<text text-anchor="start" x="222.5" y="-390.8" font-family="Helvetica,sans-Serif" font-size="11.00" fill="#000000">UNITID</text>
<polygon fill="none" stroke="#000000" points="303.5,-383.7 303.5,-405.7 395.5,-405.7 395.5,-383.7 303.5,-383.7"/>
<text text-anchor="start" x="306.5" y="-391.4" font-family="Helvetica,sans-Serif" font-size="11.00" fill="#000000">int4[10]</text>
<polygon fill="none" stroke="#000000" points="202.5,-361.7 202.5,-383.7 303.5,-383.7 303.5,-361.7 202.5,-361.7"/>
<text text-anchor="start" x="222.5" y="-368.8" font-family="Helvetica,sans-Serif" font-size="11.00" fill="#000000">SMPNAME</text>
<polygon fill="none" stroke="#000000" points="303.5,-361.7 303.5,-383.7 395.5,-383.7 395.5,-361.7 303.5,-361.7"/>
<text text-anchor="start" x="306.5" y="-369.4" font-family="Helvetica,sans-Serif" font-size="11.00" fill="#000000">text[2147483647]</text>
<polygon fill="none" stroke="#000000" points="202.5,-339.7 202.5,-361.7 303.5,-361.7 303.5,-339.7 202.5,-339.7"/>
<text text-anchor="start" x="222.5" y="-346.8" font-family="Helvetica,sans-Serif" font-size="11.00" fill="#000000">SMPDEPTH</text>
<polygon fill="none" stroke="#000000" points="303.5,-339.7 303.5,-361.7 395.5,-361.7 395.5,-339.7 303.5,-339.7"/>
<text text-anchor="start" x="306.5" y="-347.4" font-family="Helvetica,sans-Serif" font-size="11.00" fill="#000000">numeric[0]</text>
<polygon fill="none" stroke="#000000" points="202.5,-317.7 202.5,-339.7 303.5,-339.7 303.5,-317.7 202.5,-317.7"/>
<text text-anchor="start" x="222.5" y="-324.8" font-family="Helvetica,sans-Serif" font-size="11.00" fill="#000000">SMPCOMMT</text>
<polygon fill="none" stroke="#000000" points="303.5,-317.7 303.5,-339.7 395.5,-339.7 395.5,-317.7 303.5,-317.7"/>
<text text-anchor="start" x="306.5" y="-325.4" font-family="Helvetica,sans-Serif" font-size="11.00" fill="#000000">text[2147483647]</text>
<polygon fill="none" stroke="#000000" points="202.5,-295.7 202.5,-317.7 303.5,-317.7 303.5,-295.7 202.5,-295.7"/>
<text text-anchor="start" x="222.5" y="-302.8" font-family="Helvetica,sans-Serif" font-size="11.00" fill="#000000">CREATED_AT</text>
<polygon fill="none" stroke="#000000" points="303.5,-295.7 303.5,-317.7 395.5,-317.7 395.5,-295.7 303.5,-295.7"/>
<text text-anchor="start" x="306.1023" y="-303.4" font-family="Helvetica,sans-Serif" font-size="11.00" fill="#000000">timestamptz[35,6]</text>
<polygon fill="none" stroke="#000000" points="202.5,-273.7 202.5,-295.7 303.5,-295.7 303.5,-273.7 202.5,-273.7"/>
<text text-anchor="start" x="222.5" y="-280.8" font-family="Helvetica,sans-Serif" font-size="11.00" fill="#000000">UPDATED_AT</text>
<polygon fill="none" stroke="#000000" points="303.5,-273.7 303.5,-295.7 395.5,-295.7 395.5,-273.7 303.5,-273.7"/>
<text text-anchor="start" x="306.1023" y="-281.4" font-family="Helvetica,sans-Serif" font-size="11.00" fill="#000000">timestamptz[35,6]</text>
<polygon fill="#ffffff" stroke="transparent" points="202.5,-254.7 202.5,-273.7 230.5,-273.7 230.5,-254.7 202.5,-254.7"/>
<polygon fill="none" stroke="#000000" points="202.5,-254.7 202.5,-273.7 230.5,-273.7 230.5,-254.7 202.5,-254.7"/>
<text text-anchor="start" x="205.5" y="-260.8" font-family="Helvetica,sans-Serif" font-size="11.00" fill="#000000">&lt; 1</text>
<polygon fill="#ffffff" stroke="transparent" points="230.5,-254.7 230.5,-273.7 303.5,-273.7 303.5,-254.7 230.5,-254.7"/>
<polygon fill="none" stroke="#000000" points="230.5,-254.7 230.5,-273.7 303.5,-273.7 303.5,-254.7 230.5,-254.7"/>
<text text-anchor="start" x="240.594" y="-260.8" font-family="Helvetica,sans-Serif" font-size="11.00" fill="#000000">41.793 rows</text>
<polygon fill="#ffffff" stroke="transparent" points="303.5,-254.7 303.5,-273.7 395.5,-273.7 395.5,-254.7 303.5,-254.7"/>
<polygon fill="none" stroke="#000000" points="303.5,-254.7 303.5,-273.7 395.5,-273.7 395.5,-254.7 303.5,-254.7"/>
<text text-anchor="start" x="376.9053" y="-260.8" font-family="Helvetica,sans-Serif" font-size="11.00" fill="#000000">1 &gt;</text>
<polygon fill="none" stroke="#000000" stroke-width="2" points="201,-253.7 201,-451.7 396,-451.7 396,-253.7 201,-253.7"/>
</a>
</g>
</g>
<!-- char_DataCore&#45;&gt;char_Sample -->
<g id="edge1" class="edge">
<title>char_DataCore:w&#45;&gt;char_Sample:e</title>
<path fill="none" stroke="#000000" d="M431.4203,-416.7C419.5435,-416.7 412.158,-416.7 395.5,-416.7"/>
<polygon fill="#000000" stroke="#000000" points="438,-416.7001 446,-420.3 442,-416.7 446,-416.7 446,-416.7 446,-416.7 442,-416.7 446,-413.1 438,-416.7001 438,-416.7001"/>
<ellipse fill="none" stroke="#000000" cx="434.8" cy="-416.7001" rx="3.2" ry="3.2"/>
</g>
<!-- global_UnitMaster -->
<g id="node3" class="node">
<title>global_UnitMaster</title>
<g id="a_node3"><a xlink:href="../../tables/global_UnitMaster.html" xlink:title="global_UnitMaster" target="_top">
<polygon fill="#ffffff" stroke="transparent" points="8,-192.2 8,-429.2 151,-429.2 151,-192.2 8,-192.2"/>
<polygon fill="#f5f5f5" stroke="transparent" points="8.5,-405.7 8.5,-428.7 151.5,-428.7 151.5,-405.7 8.5,-405.7"/>
<polygon fill="none" stroke="#000000" points="8.5,-405.7 8.5,-428.7 151.5,-428.7 151.5,-405.7 8.5,-405.7"/>
<text text-anchor="start" x="13.5" y="-414.3" font-family="Helvetica,sans-Serif" font-weight="bold" font-size="11.00" fill="#000000">global_UnitMaster</text>
<text text-anchor="start" x="117.0219" y="-413.8" font-family="Helvetica,sans-Serif" font-size="11.00" fill="#000000">[table]</text>
<polygon fill="none" stroke="#000000" points="8.5,-383.7 8.5,-405.7 151.5,-405.7 151.5,-383.7 8.5,-383.7"/>
<image xlink:href="../../images/primaryKeys.png" width="11px" height="12px" preserveAspectRatio="xMinYMin meet" x="13.5" y="-400.7"/>
<text text-anchor="start" x="37.5" y="-390.8" font-family="Helvetica,sans-Serif" font-size="11.00" fill="#000000">UNITID</text>
<polygon fill="none" stroke="#000000" points="8.5,-361.7 8.5,-383.7 151.5,-383.7 151.5,-361.7 8.5,-361.7"/>
<image xlink:href="../../images/foreignKeys.png" width="11px" height="12px" preserveAspectRatio="xMinYMin meet" x="13.5" y="-378.7"/>
<text text-anchor="start" x="37.5" y="-368.8" font-family="Helvetica,sans-Serif" font-size="11.00" fill="#000000">SITEID</text>
<polygon fill="#ffffff" stroke="transparent" points="8.5,-339.7 8.5,-361.7 151.5,-361.7 151.5,-339.7 8.5,-339.7"/>
<polygon fill="none" stroke="#000000" points="8.5,-339.7 8.5,-361.7 151.5,-361.7 151.5,-339.7 8.5,-339.7"/>
<text text-anchor="start" x="37.5" y="-346.8" font-family="Helvetica,sans-Serif" font-size="11.00" fill="#000000">UNITHANDLE</text>
<polygon fill="none" stroke="#000000" points="8.5,-317.7 8.5,-339.7 151.5,-339.7 151.5,-317.7 8.5,-317.7"/>
<image xlink:href="../../images/foreignKeys.png" width="11px" height="12px" preserveAspectRatio="xMinYMin meet" x="13.5" y="-334.7"/>
<text text-anchor="start" x="37.5" y="-324.8" font-family="Helvetica,sans-Serif" font-size="11.00" fill="#000000">UNITTYPEID</text>
<polygon fill="none" stroke="#000000" points="8.5,-295.7 8.5,-317.7 151.5,-317.7 151.5,-295.7 8.5,-295.7"/>
<image xlink:href="../../images/foreignKeys.png" width="11px" height="12px" preserveAspectRatio="xMinYMin meet" x="13.5" y="-312.7"/>
<text text-anchor="start" x="37.5" y="-302.8" font-family="Helvetica,sans-Serif" font-size="11.00" fill="#000000">COLLECTID</text>
<polygon fill="none" stroke="#000000" points="8.5,-273.7 8.5,-295.7 151.5,-295.7 151.5,-273.7 8.5,-273.7"/>
<image xlink:href="../../images/foreignKeys.png" width="11px" height="12px" preserveAspectRatio="xMinYMin meet" x="13.5" y="-290.7"/>
<text text-anchor="start" x="37.5" y="-280.8" font-family="Helvetica,sans-Serif" font-size="11.00" fill="#000000">DEPOSITID</text>
<polygon fill="#ffffff" stroke="transparent" points="8.5,-251.7 8.5,-273.7 151.5,-273.7 151.5,-251.7 8.5,-251.7"/>
<polygon fill="none" stroke="#000000" points="8.5,-251.7 8.5,-273.7 151.5,-273.7 151.5,-251.7 8.5,-251.7"/>
<text text-anchor="start" x="37.5" y="-258.8" font-family="Helvetica,sans-Serif" font-size="11.00" fill="#000000">NEO_HANDLE</text>
<polygon fill="none" stroke="#000000" points="8.5,-229.7 8.5,-251.7 151.5,-251.7 151.5,-229.7 8.5,-229.7"/>
<image xlink:href="../../images/foreignKeys.png" width="11px" height="12px" preserveAspectRatio="xMinYMin meet" x="13.5" y="-246.7"/>
<text text-anchor="start" x="37.5" y="-236.8" font-family="Helvetica,sans-Serif" font-size="11.00" fill="#000000">UNIT_REF</text>
<polygon fill="none" stroke="#000000" points="8.5,-210.7 8.5,-229.7 151.5,-229.7 151.5,-210.7 8.5,-210.7"/>
<text text-anchor="start" x="11.5" y="-216.8" font-family="Helvetica,sans-Serif" font-size="11.00" fill="#000000">...</text>
<polygon fill="#ffffff" stroke="transparent" points="8.5,-191.7 8.5,-210.7 54.5,-210.7 54.5,-191.7 8.5,-191.7"/>
<polygon fill="none" stroke="#000000" points="8.5,-191.7 8.5,-210.7 54.5,-210.7 54.5,-191.7 8.5,-191.7"/>
<text text-anchor="start" x="11.5" y="-197.8" font-family="Helvetica,sans-Serif" font-size="11.00" fill="#000000">&lt; 5</text>
<polygon fill="#ffffff" stroke="transparent" points="54.5,-191.7 54.5,-210.7 117.5,-210.7 117.5,-191.7 54.5,-191.7"/>
<polygon fill="none" stroke="#000000" points="54.5,-191.7 54.5,-210.7 117.5,-210.7 117.5,-191.7 54.5,-191.7"/>
<text text-anchor="start" x="69.8807" y="-197.8" font-family="Helvetica,sans-Serif" font-size="11.00" fill="#000000">597 rows</text>
<polygon fill="#ffffff" stroke="transparent" points="117.5,-191.7 117.5,-210.7 151.5,-210.7 151.5,-191.7 117.5,-191.7"/>
<polygon fill="none" stroke="#000000" points="117.5,-191.7 117.5,-210.7 151.5,-210.7 151.5,-191.7 117.5,-191.7"/>
<text text-anchor="start" x="132.9053" y="-197.8" font-family="Helvetica,sans-Serif" font-size="11.00" fill="#000000">2 &gt;</text>
</a>
</g>
</g>
<!-- char_Sample&#45;&gt;global_UnitMaster -->
<g id="edge2" class="edge">
<title>char_Sample:w&#45;&gt;global_UnitMaster:e</title>
<path fill="none" stroke="#000000" d="M187.776,-394.7C175.7815,-394.7 168.3229,-394.7 151.5,-394.7"/>
<polygon fill="#000000" stroke="#000000" points="194.5,-394.7001 202.5,-398.3 198.5,-394.7 202.5,-394.7 202.5,-394.7 202.5,-394.7 198.5,-394.7 202.5,-391.1 194.5,-394.7001 194.5,-394.7001"/>
<ellipse fill="none" stroke="#000000" cx="191.3" cy="-394.7001" rx="3.2" ry="3.2"/>
</g>
</g>
</svg>
