<?xml version="1.0" encoding="UTF-8" standalone="no"?>
<!DOCTYPE svg PUBLIC "-//W3C//DTD SVG 1.1//EN"
 "http://www.w3.org/Graphics/SVG/1.1/DTD/svg11.dtd">
<!-- Generated by graphviz version 2.40.1 (20161225.0304)
 -->
<!-- Title: twoDegreesRelationshipsDiagramImplied Pages: 1 -->
<svg width="1350pt" height="1402pt"
 viewBox="0.00 0.00 1350.00 1401.59" xmlns="http://www.w3.org/2000/svg" xmlns:xlink="http://www.w3.org/1999/xlink">
<g id="graph0" class="graph" transform="scale(1 1) rotate(0) translate(4 1397.5933)">
<title>twoDegreesRelationshipsDiagramImplied</title>
<polygon fill="#ffffff" stroke="transparent" points="-4,4 -4,-1397.5933 1346,-1397.5933 1346,4 -4,4"/>
<text text-anchor="middle" x="72.4936" y="-7.3" font-family="Helvetica,sans-Serif" font-size="11.00" fill="#000000">Generated by SchemaSpy</text>
<!-- c14_calcurve -->
<g id="node1" class="node">
<title>c14_calcurve</title>
<g id="a_node1"><a xlink:href="../../tables/c14_calcurve.html" xlink:title="c14_calcurve" target="_top">
<polygon fill="#ffffff" stroke="transparent" points="596.5,-507.5933 596.5,-568.5933 710.5,-568.5933 710.5,-507.5933 596.5,-507.5933"/>
<polygon fill="#f5f5f5" stroke="transparent" points="596.5,-545.0933 596.5,-568.0933 710.5,-568.0933 710.5,-545.0933 596.5,-545.0933"/>
<polygon fill="none" stroke="#000000" points="596.5,-545.0933 596.5,-568.0933 710.5,-568.0933 710.5,-545.0933 596.5,-545.0933"/>
<text text-anchor="start" x="601.5" y="-553.6933" font-family="Helvetica,sans-Serif" font-weight="bold" font-size="11.00" fill="#000000">c14_calcurve</text>
<text text-anchor="start" x="676.0219" y="-553.1933" font-family="Helvetica,sans-Serif" font-size="11.00" fill="#000000">[table]</text>
<polygon fill="none" stroke="#000000" points="596.5,-526.0933 596.5,-545.0933 710.5,-545.0933 710.5,-526.0933 596.5,-526.0933"/>
<text text-anchor="start" x="599.5" y="-532.1933" font-family="Helvetica,sans-Serif" font-size="11.00" fill="#000000">...</text>
<polygon fill="#ffffff" stroke="transparent" points="596.5,-507.0933 596.5,-526.0933 634.5,-526.0933 634.5,-507.0933 596.5,-507.0933"/>
<polygon fill="none" stroke="#000000" points="596.5,-507.0933 596.5,-526.0933 634.5,-526.0933 634.5,-507.0933 596.5,-507.0933"/>
<text text-anchor="start" x="599.5" y="-513.1933" font-family="Helvetica,sans-Serif" font-size="11.00" fill="#000000">&lt; 1</text>
<polygon fill="#ffffff" stroke="transparent" points="634.5,-507.0933 634.5,-526.0933 680.5,-526.0933 680.5,-507.0933 634.5,-507.0933"/>
<polygon fill="none" stroke="#000000" points="634.5,-507.0933 634.5,-526.0933 680.5,-526.0933 680.5,-507.0933 634.5,-507.0933"/>
<text text-anchor="start" x="645.1105" y="-513.1933" font-family="Helvetica,sans-Serif" font-size="11.00" fill="#000000">0 rows</text>
<polygon fill="#ffffff" stroke="transparent" points="680.5,-507.0933 680.5,-526.0933 710.5,-526.0933 710.5,-507.0933 680.5,-507.0933"/>
<polygon fill="none" stroke="#000000" points="680.5,-507.0933 680.5,-526.0933 710.5,-526.0933 710.5,-507.0933 680.5,-507.0933"/>
<text text-anchor="start" x="691.9053" y="-513.1933" font-family="Helvetica,sans-Serif" font-size="11.00" fill="#000000">1 &gt;</text>
</a>
</g>
</g>
<!-- global_RefCore -->
<g id="node2" class="node">
<title>global_RefCore</title>
<g id="a_node2"><a xlink:href="../../tables/global_RefCore.html" xlink:title="global_RefCore" target="_top">
<polygon fill="#ffffff" stroke="transparent" points="399,-577.5933 399,-638.5933 526,-638.5933 526,-577.5933 399,-577.5933"/>
<polygon fill="#f5f5f5" stroke="transparent" points="399.5,-615.0933 399.5,-638.0933 526.5,-638.0933 526.5,-615.0933 399.5,-615.0933"/>
<polygon fill="none" stroke="#000000" points="399.5,-615.0933 399.5,-638.0933 526.5,-638.0933 526.5,-615.0933 399.5,-615.0933"/>
<text text-anchor="start" x="404.5" y="-623.6933" font-family="Helvetica,sans-Serif" font-weight="bold" font-size="11.00" fill="#000000">global_RefCore</text>
<text text-anchor="start" x="492.0219" y="-623.1933" font-family="Helvetica,sans-Serif" font-size="11.00" fill="#000000">[table]</text>
<polygon fill="none" stroke="#000000" points="399.5,-596.0933 399.5,-615.0933 526.5,-615.0933 526.5,-596.0933 399.5,-596.0933"/>
<text text-anchor="start" x="402.5" y="-602.1933" font-family="Helvetica,sans-Serif" font-size="11.00" fill="#000000">...</text>
<polygon fill="#ffffff" stroke="transparent" points="399.5,-577.0933 399.5,-596.0933 430.5,-596.0933 430.5,-577.0933 399.5,-577.0933"/>
<polygon fill="none" stroke="#000000" points="399.5,-577.0933 399.5,-596.0933 430.5,-596.0933 430.5,-577.0933 399.5,-577.0933"/>
<text text-anchor="start" x="402.5" y="-583.1933" font-family="Helvetica,sans-Serif" font-size="11.00" fill="#000000">&lt; 5</text>
<polygon fill="#ffffff" stroke="transparent" points="430.5,-577.0933 430.5,-596.0933 494.5,-596.0933 494.5,-577.0933 430.5,-577.0933"/>
<polygon fill="none" stroke="#000000" points="430.5,-577.0933 430.5,-596.0933 494.5,-596.0933 494.5,-577.0933 430.5,-577.0933"/>
<text text-anchor="start" x="437.7089" y="-583.1933" font-family="Helvetica,sans-Serif" font-size="11.00" fill="#000000">3.943 rows</text>
<polygon fill="#ffffff" stroke="transparent" points="494.5,-577.0933 494.5,-596.0933 526.5,-596.0933 526.5,-577.0933 494.5,-577.0933"/>
<polygon fill="none" stroke="#000000" points="494.5,-577.0933 494.5,-596.0933 526.5,-596.0933 526.5,-577.0933 494.5,-577.0933"/>
<text text-anchor="start" x="501.7904" y="-583.1933" font-family="Helvetica,sans-Serif" font-size="11.00" fill="#000000">37 &gt;</text>
</a>
</g>
</g>
<!-- c14_calcurve&#45;&gt;global_RefCore -->
<g id="edge1" class="edge">
<title>c14_calcurve:w&#45;&gt;global_RefCore:e</title>
<path fill="none" stroke="#000000" d="M582.3101,-538.283C556.1116,-551.977 564.8262,-605.0933 526.5,-605.0933"/>
<polygon fill="#000000" stroke="#000000" points="588.6948,-536.8479 597.2895,-538.6057 592.5974,-535.9706 596.5,-535.0933 596.5,-535.0933 596.5,-535.0933 592.5974,-535.9706 595.7105,-531.581 588.6948,-536.8479 588.6948,-536.8479"/>
<ellipse fill="none" stroke="#000000" cx="585.5727" cy="-537.5497" rx="3.2" ry="3.2"/>
</g>
<!-- c14_calprogram -->
<g id="node3" class="node">
<title>c14_calprogram</title>
<g id="a_node3"><a xlink:href="../../tables/c14_calprogram.html" xlink:title="c14_calprogram" target="_top">
<polygon fill="#ffffff" stroke="transparent" points="588,-425.5933 588,-486.5933 719,-486.5933 719,-425.5933 588,-425.5933"/>
<polygon fill="#f5f5f5" stroke="transparent" points="588.5,-463.0933 588.5,-486.0933 719.5,-486.0933 719.5,-463.0933 588.5,-463.0933"/>
<polygon fill="none" stroke="#000000" points="588.5,-463.0933 588.5,-486.0933 719.5,-486.0933 719.5,-463.0933 588.5,-463.0933"/>
<text text-anchor="start" x="593.5" y="-471.6933" font-family="Helvetica,sans-Serif" font-weight="bold" font-size="11.00" fill="#000000">c14_calprogram</text>
<text text-anchor="start" x="685.0219" y="-471.1933" font-family="Helvetica,sans-Serif" font-size="11.00" fill="#000000">[table]</text>
<polygon fill="none" stroke="#000000" points="588.5,-444.0933 588.5,-463.0933 719.5,-463.0933 719.5,-444.0933 588.5,-444.0933"/>
<text text-anchor="start" x="591.5" y="-450.1933" font-family="Helvetica,sans-Serif" font-size="11.00" fill="#000000">...</text>
<polygon fill="#ffffff" stroke="transparent" points="588.5,-425.0933 588.5,-444.0933 628.5,-444.0933 628.5,-425.0933 588.5,-425.0933"/>
<polygon fill="none" stroke="#000000" points="588.5,-425.0933 588.5,-444.0933 628.5,-444.0933 628.5,-425.0933 588.5,-425.0933"/>
<text text-anchor="start" x="591.5" y="-431.1933" font-family="Helvetica,sans-Serif" font-size="11.00" fill="#000000">&lt; 2</text>
<polygon fill="#ffffff" stroke="transparent" points="628.5,-425.0933 628.5,-444.0933 688.5,-444.0933 688.5,-425.0933 628.5,-425.0933"/>
<polygon fill="none" stroke="#000000" points="628.5,-425.0933 628.5,-444.0933 688.5,-444.0933 688.5,-425.0933 628.5,-425.0933"/>
<text text-anchor="start" x="640.8807" y="-431.1933" font-family="Helvetica,sans-Serif" font-size="11.00" fill="#000000">195 rows</text>
<polygon fill="#ffffff" stroke="transparent" points="688.5,-425.0933 688.5,-444.0933 719.5,-444.0933 719.5,-425.0933 688.5,-425.0933"/>
<polygon fill="none" stroke="#000000" points="688.5,-425.0933 688.5,-444.0933 719.5,-444.0933 719.5,-425.0933 688.5,-425.0933"/>
<text text-anchor="start" x="700.9053" y="-431.1933" font-family="Helvetica,sans-Serif" font-size="11.00" fill="#000000">2 &gt;</text>
</a>
</g>
</g>
<!-- c14_calprogram&#45;&gt;global_RefCore -->
<g id="edge2" class="edge">
<title>c14_calprogram:w&#45;&gt;global_RefCore:e</title>
<path fill="none" stroke="#000000" d="M574.1231,-455.7316C527.6955,-475.9156 593.7594,-605.0933 526.5,-605.0933"/>
<polygon fill="#000000" stroke="#000000" points="580.6314,-454.5373 589.1498,-456.6342 584.5657,-453.8153 588.5,-453.0933 588.5,-453.0933 588.5,-453.0933 584.5657,-453.8153 587.8502,-449.5525 580.6314,-454.5373 580.6314,-454.5373"/>
<ellipse fill="none" stroke="#000000" cx="577.4839" cy="-455.1149" rx="3.2" ry="3.2"/>
</g>
<!-- cabah_AnalysisUnit -->
<g id="node4" class="node">
<title>cabah_AnalysisUnit</title>
<g id="a_node4"><a xlink:href="../../tables/cabah_AnalysisUnit.html" xlink:title="cabah_AnalysisUnit" target="_top">
<polygon fill="#ffffff" stroke="transparent" points="817.5,-1328.5933 817.5,-1389.5933 970.5,-1389.5933 970.5,-1328.5933 817.5,-1328.5933"/>
<polygon fill="#f5f5f5" stroke="transparent" points="818,-1366.0933 818,-1389.0933 971,-1389.0933 971,-1366.0933 818,-1366.0933"/>
<polygon fill="none" stroke="#000000" points="818,-1366.0933 818,-1389.0933 971,-1389.0933 971,-1366.0933 818,-1366.0933"/>
<text text-anchor="start" x="823" y="-1374.6933" font-family="Helvetica,sans-Serif" font-weight="bold" font-size="11.00" fill="#000000">cabah_AnalysisUnit</text>
<text text-anchor="start" x="936.5219" y="-1374.1933" font-family="Helvetica,sans-Serif" font-size="11.00" fill="#000000">[table]</text>
<polygon fill="none" stroke="#000000" points="818,-1347.0933 818,-1366.0933 971,-1366.0933 971,-1347.0933 818,-1347.0933"/>
<text text-anchor="start" x="821" y="-1353.1933" font-family="Helvetica,sans-Serif" font-size="11.00" fill="#000000">...</text>
<polygon fill="#ffffff" stroke="transparent" points="818,-1328.0933 818,-1347.0933 866,-1347.0933 866,-1328.0933 818,-1328.0933"/>
<polygon fill="none" stroke="#000000" points="818,-1328.0933 818,-1347.0933 866,-1347.0933 866,-1328.0933 818,-1328.0933"/>
<text text-anchor="start" x="821" y="-1334.1933" font-family="Helvetica,sans-Serif" font-size="11.00" fill="#000000">&lt; 2</text>
<polygon fill="#ffffff" stroke="transparent" points="866,-1328.0933 866,-1347.0933 945,-1347.0933 945,-1328.0933 866,-1328.0933"/>
<polygon fill="none" stroke="#000000" points="866,-1328.0933 866,-1347.0933 945,-1347.0933 945,-1328.0933 866,-1328.0933"/>
<text text-anchor="start" x="882.094" y="-1334.1933" font-family="Helvetica,sans-Serif" font-size="11.00" fill="#000000">14.167 rows</text>
<polygon fill="#ffffff" stroke="transparent" points="945,-1328.0933 945,-1347.0933 971,-1347.0933 971,-1328.0933 945,-1328.0933"/>
<polygon fill="none" stroke="#000000" points="945,-1328.0933 945,-1347.0933 971,-1347.0933 971,-1328.0933 945,-1328.0933"/>
<text text-anchor="start" x="961.8862" y="-1334.1933" font-family="Helvetica,sans-Serif" font-size="11.00" fill="#000000"> &#160;</text>
</a>
</g>
</g>
<!-- cabah_depositID -->
<g id="node5" class="node">
<title>cabah_depositID</title>
<g id="a_node5"><a xlink:href="../../tables/cabah_depositID.html" xlink:title="cabah_depositID" target="_top">
<polygon fill="#ffffff" stroke="transparent" points="395,-1138.5933 395,-1199.5933 530,-1199.5933 530,-1138.5933 395,-1138.5933"/>
<polygon fill="#f5f5f5" stroke="transparent" points="395.5,-1176.0933 395.5,-1199.0933 530.5,-1199.0933 530.5,-1176.0933 395.5,-1176.0933"/>
<polygon fill="none" stroke="#000000" points="395.5,-1176.0933 395.5,-1199.0933 530.5,-1199.0933 530.5,-1176.0933 395.5,-1176.0933"/>
<text text-anchor="start" x="400.5" y="-1184.6933" font-family="Helvetica,sans-Serif" font-weight="bold" font-size="11.00" fill="#000000">cabah_depositID</text>
<text text-anchor="start" x="496.0219" y="-1184.1933" font-family="Helvetica,sans-Serif" font-size="11.00" fill="#000000">[table]</text>
<polygon fill="none" stroke="#000000" points="395.5,-1157.0933 395.5,-1176.0933 530.5,-1176.0933 530.5,-1157.0933 395.5,-1157.0933"/>
<text text-anchor="start" x="398.5" y="-1163.1933" font-family="Helvetica,sans-Serif" font-size="11.00" fill="#000000">...</text>
<polygon fill="#ffffff" stroke="transparent" points="395.5,-1138.0933 395.5,-1157.0933 437.5,-1157.0933 437.5,-1138.0933 395.5,-1138.0933"/>
<polygon fill="none" stroke="#000000" points="395.5,-1138.0933 395.5,-1157.0933 437.5,-1157.0933 437.5,-1138.0933 395.5,-1138.0933"/>
<text text-anchor="start" x="398.5" y="-1144.1933" font-family="Helvetica,sans-Serif" font-size="11.00" fill="#000000">&lt; 1</text>
<polygon fill="#ffffff" stroke="transparent" points="437.5,-1138.0933 437.5,-1157.0933 498.5,-1157.0933 498.5,-1138.0933 437.5,-1138.0933"/>
<polygon fill="none" stroke="#000000" points="437.5,-1138.0933 437.5,-1157.0933 498.5,-1157.0933 498.5,-1138.0933 437.5,-1138.0933"/>
<text text-anchor="start" x="450.8807" y="-1144.1933" font-family="Helvetica,sans-Serif" font-size="11.00" fill="#000000">119 rows</text>
<polygon fill="#ffffff" stroke="transparent" points="498.5,-1138.0933 498.5,-1157.0933 530.5,-1157.0933 530.5,-1138.0933 498.5,-1138.0933"/>
<polygon fill="none" stroke="#000000" points="498.5,-1138.0933 498.5,-1157.0933 530.5,-1157.0933 530.5,-1138.0933 498.5,-1138.0933"/>
<text text-anchor="start" x="511.9053" y="-1144.1933" font-family="Helvetica,sans-Serif" font-size="11.00" fill="#000000">3 &gt;</text>
</a>
</g>
</g>
<!-- cabah_AnalysisUnit&#45;&gt;cabah_depositID -->
<g id="edge3" class="edge">
<title>cabah_AnalysisUnit:w&#45;&gt;cabah_depositID:e</title>
<path fill="none" stroke="#000000" d="M803.3,-1355.4789C665.9001,-1343.6856 678.5747,-1166.0933 530.5,-1166.0933"/>
<polygon fill="#000000" stroke="#000000" points="810.007,-1355.7592 817.8496,-1359.6902 814.0035,-1355.9263 818,-1356.0933 818,-1356.0933 818,-1356.0933 814.0035,-1355.9263 818.1504,-1352.4965 810.007,-1355.7592 810.007,-1355.7592"/>
<ellipse fill="none" stroke="#000000" cx="806.8098" cy="-1355.6255" rx="3.2" ry="3.2"/>
</g>
<!-- global_UnitMaster -->
<g id="node6" class="node">
<title>global_UnitMaster</title>
<g id="a_node6"><a xlink:href="../../tables/global_UnitMaster.html" xlink:title="global_UnitMaster" target="_top">
<polygon fill="#ffffff" stroke="transparent" points="582,-781.5933 582,-842.5933 725,-842.5933 725,-781.5933 582,-781.5933"/>
<polygon fill="#f5f5f5" stroke="transparent" points="582.5,-819.0933 582.5,-842.0933 725.5,-842.0933 725.5,-819.0933 582.5,-819.0933"/>
<polygon fill="none" stroke="#000000" points="582.5,-819.0933 582.5,-842.0933 725.5,-842.0933 725.5,-819.0933 582.5,-819.0933"/>
<text text-anchor="start" x="587.5" y="-827.6933" font-family="Helvetica,sans-Serif" font-weight="bold" font-size="11.00" fill="#000000">global_UnitMaster</text>
<text text-anchor="start" x="691.0219" y="-827.1933" font-family="Helvetica,sans-Serif" font-size="11.00" fill="#000000">[table]</text>
<polygon fill="none" stroke="#000000" points="582.5,-800.0933 582.5,-819.0933 725.5,-819.0933 725.5,-800.0933 582.5,-800.0933"/>
<text text-anchor="start" x="585.5" y="-806.1933" font-family="Helvetica,sans-Serif" font-size="11.00" fill="#000000">...</text>
<polygon fill="#ffffff" stroke="transparent" points="582.5,-781.0933 582.5,-800.0933 628.5,-800.0933 628.5,-781.0933 582.5,-781.0933"/>
<polygon fill="none" stroke="#000000" points="582.5,-781.0933 582.5,-800.0933 628.5,-800.0933 628.5,-781.0933 582.5,-781.0933"/>
<text text-anchor="start" x="585.5" y="-787.1933" font-family="Helvetica,sans-Serif" font-size="11.00" fill="#000000">&lt; 5</text>
<polygon fill="#ffffff" stroke="transparent" points="628.5,-781.0933 628.5,-800.0933 691.5,-800.0933 691.5,-781.0933 628.5,-781.0933"/>
<polygon fill="none" stroke="#000000" points="628.5,-781.0933 628.5,-800.0933 691.5,-800.0933 691.5,-781.0933 628.5,-781.0933"/>
<text text-anchor="start" x="643.8807" y="-787.1933" font-family="Helvetica,sans-Serif" font-size="11.00" fill="#000000">597 rows</text>
<polygon fill="#ffffff" stroke="transparent" points="691.5,-781.0933 691.5,-800.0933 725.5,-800.0933 725.5,-781.0933 691.5,-781.0933"/>
<polygon fill="none" stroke="#000000" points="691.5,-781.0933 691.5,-800.0933 725.5,-800.0933 725.5,-781.0933 691.5,-781.0933"/>
<text text-anchor="start" x="706.9053" y="-787.1933" font-family="Helvetica,sans-Serif" font-size="11.00" fill="#000000">8 &gt;</text>
</a>
</g>
</g>
<!-- cabah_AnalysisUnit&#45;&gt;global_UnitMaster -->
<g id="edge4" class="edge">
<title>cabah_AnalysisUnit:w&#45;&gt;global_UnitMaster:e</title>
<path fill="none" stroke="#000000" d="M803.6883,-1353.698C707.2399,-1320.9441 666.8833,-961.5062 656.4119,-846.9505"/>
<polygon fill="#000000" stroke="#000000" points="810.1097,-1354.7727 817.4057,-1359.644 814.0549,-1355.433 818,-1356.0933 818,-1356.0933 818,-1356.0933 814.0549,-1355.433 818.5943,-1352.5427 810.1097,-1354.7727 810.1097,-1354.7727"/>
<ellipse fill="none" stroke="#000000" cx="806.9536" cy="-1354.2445" rx="3.2" ry="3.2"/>
</g>
<!-- global_UnitMaster&#45;&gt;global_RefCore -->
<g id="edge29" class="edge">
<title>global_UnitMaster:w&#45;&gt;global_RefCore:e</title>
<path fill="none" stroke="#000000" d="M571.4664,-765.3653C533.9468,-699.6144 598.7424,-605.0933 526.5,-605.0933"/>
<polygon fill="#000000" stroke="#000000" points="575.1633,-770.7021 576.7596,-779.3283 577.4411,-773.9902 579.7189,-777.2783 579.7189,-777.2783 579.7189,-777.2783 577.4411,-773.9902 582.6782,-775.2283 575.1633,-770.7021 575.1633,-770.7021"/>
<ellipse fill="none" stroke="#000000" cx="573.3411" cy="-768.0716" rx="3.2" ry="3.2"/>
</g>
<!-- global_UnitMaster&#45;&gt;cabah_depositID -->
<g id="edge27" class="edge">
<title>global_UnitMaster:w&#45;&gt;cabah_depositID:e</title>
<path fill="none" stroke="#000000" d="M646.9523,-860.9953C632.5724,-958.1288 594.3313,-1166.0933 530.5,-1166.0933"/>
<polygon fill="#000000" stroke="#000000" points="647.8749,-854.599 652.5802,-847.1949 648.446,-850.6399 649.0171,-846.6809 649.0171,-846.6809 649.0171,-846.6809 648.446,-850.6399 645.454,-846.1669 647.8749,-854.599 647.8749,-854.599"/>
<ellipse fill="none" stroke="#000000" cx="647.4181" cy="-857.7662" rx="3.2" ry="3.2"/>
</g>
<!-- global_SiteMaster -->
<g id="node19" class="node">
<title>global_SiteMaster</title>
<g id="a_node19"><a xlink:href="../../tables/global_SiteMaster.html" xlink:title="global_SiteMaster" target="_top">
<polygon fill="#ffffff" stroke="transparent" points="392,-179.5933 392,-240.5933 533,-240.5933 533,-179.5933 392,-179.5933"/>
<polygon fill="#f5f5f5" stroke="transparent" points="392.5,-217.0933 392.5,-240.0933 533.5,-240.0933 533.5,-217.0933 392.5,-217.0933"/>
<polygon fill="none" stroke="#000000" points="392.5,-217.0933 392.5,-240.0933 533.5,-240.0933 533.5,-217.0933 392.5,-217.0933"/>
<text text-anchor="start" x="397.5" y="-225.6933" font-family="Helvetica,sans-Serif" font-weight="bold" font-size="11.00" fill="#000000">global_SiteMaster</text>
<text text-anchor="start" x="499.0219" y="-225.1933" font-family="Helvetica,sans-Serif" font-size="11.00" fill="#000000">[table]</text>
<polygon fill="none" stroke="#000000" points="392.5,-198.0933 392.5,-217.0933 533.5,-217.0933 533.5,-198.0933 392.5,-198.0933"/>
<text text-anchor="start" x="395.5" y="-204.1933" font-family="Helvetica,sans-Serif" font-size="11.00" fill="#000000">...</text>
<polygon fill="#ffffff" stroke="transparent" points="392.5,-179.0933 392.5,-198.0933 427.5,-198.0933 427.5,-179.0933 392.5,-179.0933"/>
<polygon fill="none" stroke="#000000" points="392.5,-179.0933 392.5,-198.0933 427.5,-198.0933 427.5,-179.0933 392.5,-179.0933"/>
<text text-anchor="start" x="395.5" y="-185.1933" font-family="Helvetica,sans-Serif" font-size="11.00" fill="#000000">&lt; 8</text>
<polygon fill="#ffffff" stroke="transparent" points="427.5,-179.0933 427.5,-198.0933 499.5,-198.0933 499.5,-179.0933 427.5,-179.0933"/>
<polygon fill="none" stroke="#000000" points="427.5,-179.0933 427.5,-198.0933 499.5,-198.0933 499.5,-179.0933 427.5,-179.0933"/>
<text text-anchor="start" x="436.594" y="-185.1933" font-family="Helvetica,sans-Serif" font-size="11.00" fill="#000000">23.782 rows</text>
<polygon fill="#ffffff" stroke="transparent" points="499.5,-179.0933 499.5,-198.0933 533.5,-198.0933 533.5,-179.0933 499.5,-179.0933"/>
<polygon fill="none" stroke="#000000" points="499.5,-179.0933 499.5,-198.0933 533.5,-198.0933 533.5,-179.0933 499.5,-179.0933"/>
<text text-anchor="start" x="508.7904" y="-185.1933" font-family="Helvetica,sans-Serif" font-size="11.00" fill="#000000">23 &gt;</text>
</a>
</g>
</g>
<!-- global_UnitMaster&#45;&gt;global_SiteMaster -->
<g id="edge28" class="edge">
<title>global_UnitMaster:w&#45;&gt;global_SiteMaster:e</title>
<path fill="none" stroke="#000000" d="M573.1707,-763.8342C545.2705,-664.2279 592.8921,-207.0933 533.5,-207.0933"/>
<polygon fill="#000000" stroke="#000000" points="575.7322,-769.9882 575.4829,-778.7573 577.2693,-773.681 578.8065,-777.3739 578.8065,-777.3739 578.8065,-777.3739 577.2693,-773.681 582.1301,-775.9905 575.7322,-769.9882 575.7322,-769.9882"/>
<ellipse fill="none" stroke="#000000" cx="574.5025" cy="-767.0339" rx="3.2" ry="3.2"/>
</g>
<!-- cabah_col_mtdID -->
<g id="node20" class="node">
<title>cabah_col_mtdID</title>
<g id="a_node20"><a xlink:href="../../tables/cabah_col_mtdID.html" xlink:title="cabah_col_mtdID" target="_top">
<polygon fill="#ffffff" stroke="transparent" points="393.5,-743.5933 393.5,-804.5933 531.5,-804.5933 531.5,-743.5933 393.5,-743.5933"/>
<polygon fill="#f5f5f5" stroke="transparent" points="393.5,-781.0933 393.5,-804.0933 531.5,-804.0933 531.5,-781.0933 393.5,-781.0933"/>
<polygon fill="none" stroke="#000000" points="393.5,-781.0933 393.5,-804.0933 531.5,-804.0933 531.5,-781.0933 393.5,-781.0933"/>
<text text-anchor="start" x="398.5" y="-789.6933" font-family="Helvetica,sans-Serif" font-weight="bold" font-size="11.00" fill="#000000">cabah_col_mtdID</text>
<text text-anchor="start" x="497.0219" y="-789.1933" font-family="Helvetica,sans-Serif" font-size="11.00" fill="#000000">[table]</text>
<polygon fill="none" stroke="#000000" points="393.5,-762.0933 393.5,-781.0933 531.5,-781.0933 531.5,-762.0933 393.5,-762.0933"/>
<text text-anchor="start" x="396.5" y="-768.1933" font-family="Helvetica,sans-Serif" font-size="11.00" fill="#000000">...</text>
<polygon fill="#ffffff" stroke="transparent" points="393.5,-743.0933 393.5,-762.0933 440.5,-762.0933 440.5,-743.0933 393.5,-743.0933"/>
<polygon fill="none" stroke="#000000" points="393.5,-743.0933 393.5,-762.0933 440.5,-762.0933 440.5,-743.0933 393.5,-743.0933"/>
<text text-anchor="start" x="396.5" y="-749.1933" font-family="Helvetica,sans-Serif" font-size="11.00" fill="#000000">&lt; 1</text>
<polygon fill="#ffffff" stroke="transparent" points="440.5,-743.0933 440.5,-762.0933 497.5,-762.0933 497.5,-743.0933 440.5,-743.0933"/>
<polygon fill="none" stroke="#000000" points="440.5,-743.0933 440.5,-762.0933 497.5,-762.0933 497.5,-743.0933 440.5,-743.0933"/>
<text text-anchor="start" x="455.9956" y="-749.1933" font-family="Helvetica,sans-Serif" font-size="11.00" fill="#000000">44 rows</text>
<polygon fill="#ffffff" stroke="transparent" points="497.5,-743.0933 497.5,-762.0933 531.5,-762.0933 531.5,-743.0933 497.5,-743.0933"/>
<polygon fill="none" stroke="#000000" points="497.5,-743.0933 497.5,-762.0933 531.5,-762.0933 531.5,-743.0933 497.5,-743.0933"/>
<text text-anchor="start" x="512.9053" y="-749.1933" font-family="Helvetica,sans-Serif" font-size="11.00" fill="#000000">7 &gt;</text>
</a>
</g>
</g>
<!-- global_UnitMaster&#45;&gt;cabah_col_mtdID -->
<g id="edge26" class="edge">
<title>global_UnitMaster:w&#45;&gt;cabah_col_mtdID:e</title>
<path fill="none" stroke="#000000" d="M560.8516,-774.2203C551.0842,-772.2682 541.1833,-771.0933 531.5,-771.0933"/>
<polygon fill="#000000" stroke="#000000" points="567.2424,-775.7396 574.1928,-781.0923 571.134,-776.6647 575.0255,-777.5899 575.0255,-777.5899 575.0255,-777.5899 571.134,-776.6647 575.8582,-774.0875 567.2424,-775.7396 567.2424,-775.7396"/>
<ellipse fill="none" stroke="#000000" cx="564.1292" cy="-774.9994" rx="3.2" ry="3.2"/>
</g>
<!-- cabah_unittypeID -->
<g id="node21" class="node">
<title>cabah_unittypeID</title>
<g id="a_node21"><a xlink:href="../../tables/cabah_unittypeID.html" xlink:title="cabah_unittypeID" target="_top">
<polygon fill="#ffffff" stroke="transparent" points="393,-825.5933 393,-886.5933 532,-886.5933 532,-825.5933 393,-825.5933"/>
<polygon fill="#f5f5f5" stroke="transparent" points="393.5,-863.0933 393.5,-886.0933 532.5,-886.0933 532.5,-863.0933 393.5,-863.0933"/>
<polygon fill="none" stroke="#000000" points="393.5,-863.0933 393.5,-886.0933 532.5,-886.0933 532.5,-863.0933 393.5,-863.0933"/>
<text text-anchor="start" x="398.5" y="-871.6933" font-family="Helvetica,sans-Serif" font-weight="bold" font-size="11.00" fill="#000000">cabah_unittypeID</text>
<text text-anchor="start" x="498.0219" y="-871.1933" font-family="Helvetica,sans-Serif" font-size="11.00" fill="#000000">[table]</text>
<polygon fill="none" stroke="#000000" points="393.5,-844.0933 393.5,-863.0933 532.5,-863.0933 532.5,-844.0933 393.5,-844.0933"/>
<text text-anchor="start" x="396.5" y="-850.1933" font-family="Helvetica,sans-Serif" font-size="11.00" fill="#000000">...</text>
<polygon fill="#ffffff" stroke="transparent" points="393.5,-825.0933 393.5,-844.0933 436.5,-844.0933 436.5,-825.0933 393.5,-825.0933"/>
<polygon fill="none" stroke="#000000" points="393.5,-825.0933 393.5,-844.0933 436.5,-844.0933 436.5,-825.0933 393.5,-825.0933"/>
<text text-anchor="start" x="396.5" y="-831.1933" font-family="Helvetica,sans-Serif" font-size="11.00" fill="#000000"> &#160;</text>
<polygon fill="#ffffff" stroke="transparent" points="436.5,-825.0933 436.5,-844.0933 495.5,-844.0933 495.5,-825.0933 436.5,-825.0933"/>
<polygon fill="none" stroke="#000000" points="436.5,-825.0933 436.5,-844.0933 495.5,-844.0933 495.5,-825.0933 436.5,-825.0933"/>
<text text-anchor="start" x="453.9956" y="-831.1933" font-family="Helvetica,sans-Serif" font-size="11.00" fill="#000000">16 rows</text>
<polygon fill="#ffffff" stroke="transparent" points="495.5,-825.0933 495.5,-844.0933 532.5,-844.0933 532.5,-825.0933 495.5,-825.0933"/>
<polygon fill="none" stroke="#000000" points="495.5,-825.0933 495.5,-844.0933 532.5,-844.0933 532.5,-825.0933 495.5,-825.0933"/>
<text text-anchor="start" x="513.9053" y="-831.1933" font-family="Helvetica,sans-Serif" font-size="11.00" fill="#000000">1 &gt;</text>
</a>
</g>
</g>
<!-- global_UnitMaster&#45;&gt;cabah_unittypeID -->
<g id="edge30" class="edge">
<title>global_UnitMaster:w&#45;&gt;cabah_unittypeID:e</title>
<path fill="none" stroke="#000000" d="M561.6277,-849.9664C551.9371,-851.9184 542.112,-853.0933 532.5,-853.0933"/>
<polygon fill="#000000" stroke="#000000" points="567.9092,-848.4612 576.5279,-850.0977 571.7991,-847.529 575.6889,-846.5968 575.6889,-846.5968 575.6889,-846.5968 571.7991,-847.529 574.85,-843.0959 567.9092,-848.4612 567.9092,-848.4612"/>
<ellipse fill="none" stroke="#000000" cx="564.7973" cy="-849.2069" rx="3.2" ry="3.2"/>
</g>
<!-- char_DataCore -->
<g id="node7" class="node">
<title>char_DataCore</title>
<g id="a_node7"><a xlink:href="../../tables/char_DataCore.html" xlink:title="char_DataCore" target="_top">
<polygon fill="#ffffff" stroke="transparent" points="1063,-508.5933 1063,-569.5933 1187,-569.5933 1187,-508.5933 1063,-508.5933"/>
<polygon fill="#f5f5f5" stroke="transparent" points="1063,-546.0933 1063,-569.0933 1187,-569.0933 1187,-546.0933 1063,-546.0933"/>
<polygon fill="none" stroke="#000000" points="1063,-546.0933 1063,-569.0933 1187,-569.0933 1187,-546.0933 1063,-546.0933"/>
<text text-anchor="start" x="1068" y="-554.6933" font-family="Helvetica,sans-Serif" font-weight="bold" font-size="11.00" fill="#000000">char_DataCore</text>
<text text-anchor="start" x="1152.5219" y="-554.1933" font-family="Helvetica,sans-Serif" font-size="11.00" fill="#000000">[table]</text>
<polygon fill="none" stroke="#000000" points="1063,-527.0933 1063,-546.0933 1187,-546.0933 1187,-527.0933 1063,-527.0933"/>
<text text-anchor="start" x="1066" y="-533.1933" font-family="Helvetica,sans-Serif" font-size="11.00" fill="#000000">...</text>
<polygon fill="#ffffff" stroke="transparent" points="1063,-508.0933 1063,-527.0933 1095,-527.0933 1095,-508.0933 1063,-508.0933"/>
<polygon fill="none" stroke="#000000" points="1063,-508.0933 1063,-527.0933 1095,-527.0933 1095,-508.0933 1063,-508.0933"/>
<text text-anchor="start" x="1066" y="-514.1933" font-family="Helvetica,sans-Serif" font-size="11.00" fill="#000000">&lt; 16</text>
<polygon fill="#ffffff" stroke="transparent" points="1095,-508.0933 1095,-527.0933 1163,-527.0933 1163,-508.0933 1095,-508.0933"/>
<polygon fill="none" stroke="#000000" points="1095,-508.0933 1095,-527.0933 1163,-527.0933 1163,-508.0933 1095,-508.0933"/>
<text text-anchor="start" x="1100.094" y="-514.1933" font-family="Helvetica,sans-Serif" font-size="11.00" fill="#000000">48.234 rows</text>
<polygon fill="#ffffff" stroke="transparent" points="1163,-508.0933 1163,-527.0933 1187,-527.0933 1187,-508.0933 1163,-508.0933"/>
<polygon fill="none" stroke="#000000" points="1163,-508.0933 1163,-527.0933 1187,-527.0933 1187,-508.0933 1163,-508.0933"/>
<text text-anchor="start" x="1168.4053" y="-514.1933" font-family="Helvetica,sans-Serif" font-size="11.00" fill="#000000">1 &gt;</text>
</a>
</g>
</g>
<!-- char_DataCore&#45;&gt;c14_calcurve -->
<g id="edge6" class="edge">
<title>char_DataCore:w&#45;&gt;c14_calcurve:e</title>
<path fill="none" stroke="#000000" d="M1040.4358,-547.9659C1034.202,-548.4167 1028.006,-548.8025 1022,-549.0933 908.3554,-554.5971 878.9105,-563.1147 766,-549.0933 740.7546,-545.9583 735.9393,-535.0933 710.5,-535.0933"/>
<polygon fill="#000000" stroke="#000000" points="1047.0033,-547.4439 1055.2634,-550.3985 1050.9907,-547.1269 1054.9781,-546.8099 1054.9781,-546.8099 1054.9781,-546.8099 1050.9907,-547.1269 1054.6928,-543.2212 1047.0033,-547.4439 1047.0033,-547.4439"/>
<ellipse fill="none" stroke="#000000" cx="1043.8133" cy="-547.6975" rx="3.2" ry="3.2"/>
</g>
<!-- char_DataCore&#45;&gt;global_RefCore -->
<g id="edge16" class="edge">
<title>char_DataCore:w&#45;&gt;global_RefCore:e</title>
<path fill="none" stroke="#000000" d="M1040.6603,-545.907C1034.3638,-547.0624 1028.093,-548.153 1022,-549.0933 803.5367,-582.8107 747.5499,-592.0933 526.5,-605.0933"/>
<polygon fill="#000000" stroke="#000000" points="1047.0101,-544.7069 1055.5395,-546.7586 1050.9406,-543.9641 1054.871,-543.2213 1054.871,-543.2213 1054.871,-543.2213 1050.9406,-543.9641 1054.2024,-539.6839 1047.0101,-544.7069 1047.0101,-544.7069"/>
<ellipse fill="none" stroke="#000000" cx="1043.8658" cy="-545.3012" rx="3.2" ry="3.2"/>
</g>
<!-- char_DataCore&#45;&gt;global_RefCore -->
<g id="edge17" class="edge">
<title>char_DataCore:w&#45;&gt;global_RefCore:e</title>
<path fill="none" stroke="#000000" d="M1040.6603,-558.8775C1034.3638,-560.0624 1028.093,-561.153 1022,-562.0933 803.5367,-595.8107 747.5499,-605.0933 526.5,-605.0933"/>
<polygon fill="#000000" stroke="#000000" points="1047.0235,-557.6169 1055.5706,-559.5935 1050.9472,-556.8395 1054.871,-556.0621 1054.871,-556.0621 1054.871,-556.0621 1050.9472,-556.8395 1054.1714,-552.5308 1047.0235,-557.6169 1047.0235,-557.6169"/>
<ellipse fill="none" stroke="#000000" cx="1043.8845" cy="-558.2388" rx="3.2" ry="3.2"/>
</g>
<!-- char_DataCore&#45;&gt;global_RefCore -->
<g id="edge18" class="edge">
<title>char_DataCore:w&#45;&gt;global_RefCore:e</title>
<path fill="none" stroke="#000000" d="M1040.6603,-571.8479C1034.3638,-573.0624 1028.093,-574.153 1022,-575.0933 803.5367,-608.8107 747.5499,-618.0933 526.5,-605.0933"/>
<polygon fill="#000000" stroke="#000000" points="1047.0374,-570.5264 1055.6015,-572.4281 1050.9542,-569.7147 1054.871,-568.903 1054.871,-568.903 1054.871,-568.903 1050.9542,-569.7147 1054.1404,-565.3779 1047.0374,-570.5264 1047.0374,-570.5264"/>
<ellipse fill="none" stroke="#000000" cx="1043.904" cy="-571.1758" rx="3.2" ry="3.2"/>
</g>
<!-- char_DataCore&#45;&gt;c14_calprogram -->
<g id="edge7" class="edge">
<title>char_DataCore:w&#45;&gt;c14_calprogram:e</title>
<path fill="none" stroke="#000000" d="M1040.4468,-544.5934C949.2628,-549.0001 811.0871,-550.7989 766,-525.0933 732.9071,-506.2261 757.5935,-453.0933 719.5,-453.0933"/>
<polygon fill="#000000" stroke="#000000" points="1046.9457,-544.2611 1055.1191,-547.4478 1050.9404,-544.0568 1054.9352,-543.8525 1054.9352,-543.8525 1054.9352,-543.8525 1050.9404,-544.0568 1054.7514,-540.2572 1046.9457,-544.2611 1046.9457,-544.2611"/>
<ellipse fill="none" stroke="#000000" cx="1043.7498" cy="-544.4246" rx="3.2" ry="3.2"/>
</g>
<!-- cabah_agetypeID -->
<g id="node8" class="node">
<title>cabah_agetypeID</title>
<g id="a_node8"><a xlink:href="../../tables/cabah_agetypeID.html" xlink:title="cabah_agetypeID" target="_top">
<polygon fill="#ffffff" stroke="transparent" points="585,-699.5933 585,-760.5933 722,-760.5933 722,-699.5933 585,-699.5933"/>
<polygon fill="#f5f5f5" stroke="transparent" points="585.5,-737.0933 585.5,-760.0933 722.5,-760.0933 722.5,-737.0933 585.5,-737.0933"/>
<polygon fill="none" stroke="#000000" points="585.5,-737.0933 585.5,-760.0933 722.5,-760.0933 722.5,-737.0933 585.5,-737.0933"/>
<text text-anchor="start" x="590.5" y="-745.6933" font-family="Helvetica,sans-Serif" font-weight="bold" font-size="11.00" fill="#000000">cabah_agetypeID</text>
<text text-anchor="start" x="688.0219" y="-745.1933" font-family="Helvetica,sans-Serif" font-size="11.00" fill="#000000">[table]</text>
<polygon fill="none" stroke="#000000" points="585.5,-718.0933 585.5,-737.0933 722.5,-737.0933 722.5,-718.0933 585.5,-718.0933"/>
<text text-anchor="start" x="588.5" y="-724.1933" font-family="Helvetica,sans-Serif" font-size="11.00" fill="#000000">...</text>
<polygon fill="#ffffff" stroke="transparent" points="585.5,-699.0933 585.5,-718.0933 627.5,-718.0933 627.5,-699.0933 585.5,-699.0933"/>
<polygon fill="none" stroke="#000000" points="585.5,-699.0933 585.5,-718.0933 627.5,-718.0933 627.5,-699.0933 585.5,-699.0933"/>
<text text-anchor="start" x="588.5" y="-705.1933" font-family="Helvetica,sans-Serif" font-size="11.00" fill="#000000"> &#160;</text>
<polygon fill="#ffffff" stroke="transparent" points="627.5,-699.0933 627.5,-718.0933 686.5,-718.0933 686.5,-699.0933 627.5,-699.0933"/>
<polygon fill="none" stroke="#000000" points="627.5,-699.0933 627.5,-718.0933 686.5,-718.0933 686.5,-699.0933 627.5,-699.0933"/>
<text text-anchor="start" x="644.9956" y="-705.1933" font-family="Helvetica,sans-Serif" font-size="11.00" fill="#000000">11 rows</text>
<polygon fill="#ffffff" stroke="transparent" points="686.5,-699.0933 686.5,-718.0933 722.5,-718.0933 722.5,-699.0933 686.5,-699.0933"/>
<polygon fill="none" stroke="#000000" points="686.5,-699.0933 686.5,-718.0933 722.5,-718.0933 722.5,-699.0933 686.5,-699.0933"/>
<text text-anchor="start" x="703.9053" y="-705.1933" font-family="Helvetica,sans-Serif" font-size="11.00" fill="#000000">2 &gt;</text>
</a>
</g>
</g>
<!-- char_DataCore&#45;&gt;cabah_agetypeID -->
<g id="edge5" class="edge">
<title>char_DataCore:w&#45;&gt;cabah_agetypeID:e</title>
<path fill="none" stroke="#000000" d="M1110.7375,-587.5132C1095.8141,-628.6912 1068.0147,-685.4161 1022,-713.0933 964.9043,-747.4357 789.1282,-727.0933 722.5,-727.0933"/>
<polygon fill="#000000" stroke="#000000" points="1112.8913,-581.2365 1118.893,-574.838 1114.1896,-577.453 1115.4879,-573.6696 1115.4879,-573.6696 1115.4879,-573.6696 1114.1896,-577.453 1112.0828,-572.5011 1112.8913,-581.2365 1112.8913,-581.2365"/>
<ellipse fill="none" stroke="#000000" cx="1111.8527" cy="-584.2632" rx="3.2" ry="3.2"/>
</g>
<!-- global_varunitID -->
<g id="node9" class="node">
<title>global_varunitID</title>
<g id="a_node9"><a xlink:href="../../tables/global_varunitID.html" xlink:title="global_varunitID" target="_top">
<polygon fill="#ffffff" stroke="transparent" points="827.5,-453.5933 827.5,-514.5933 960.5,-514.5933 960.5,-453.5933 827.5,-453.5933"/>
<polygon fill="#f5f5f5" stroke="transparent" points="828,-491.0933 828,-514.0933 961,-514.0933 961,-491.0933 828,-491.0933"/>
<polygon fill="none" stroke="#000000" points="828,-491.0933 828,-514.0933 961,-514.0933 961,-491.0933 828,-491.0933"/>
<text text-anchor="start" x="833" y="-499.6933" font-family="Helvetica,sans-Serif" font-weight="bold" font-size="11.00" fill="#000000">global_varunitID</text>
<text text-anchor="start" x="926.5219" y="-499.1933" font-family="Helvetica,sans-Serif" font-size="11.00" fill="#000000">[table]</text>
<polygon fill="none" stroke="#000000" points="828,-472.0933 828,-491.0933 961,-491.0933 961,-472.0933 828,-472.0933"/>
<text text-anchor="start" x="831" y="-478.1933" font-family="Helvetica,sans-Serif" font-size="11.00" fill="#000000">...</text>
<polygon fill="#ffffff" stroke="transparent" points="828,-453.0933 828,-472.0933 869,-472.0933 869,-453.0933 828,-453.0933"/>
<polygon fill="none" stroke="#000000" points="828,-453.0933 828,-472.0933 869,-472.0933 869,-453.0933 828,-453.0933"/>
<text text-anchor="start" x="831" y="-459.1933" font-family="Helvetica,sans-Serif" font-size="11.00" fill="#000000">&lt; 1</text>
<polygon fill="#ffffff" stroke="transparent" points="869,-453.0933 869,-472.0933 929,-472.0933 929,-453.0933 869,-453.0933"/>
<polygon fill="none" stroke="#000000" points="869,-453.0933 869,-472.0933 929,-472.0933 929,-453.0933 869,-453.0933"/>
<text text-anchor="start" x="881.3807" y="-459.1933" font-family="Helvetica,sans-Serif" font-size="11.00" fill="#000000">194 rows</text>
<polygon fill="#ffffff" stroke="transparent" points="929,-453.0933 929,-472.0933 961,-472.0933 961,-453.0933 929,-453.0933"/>
<polygon fill="none" stroke="#000000" points="929,-453.0933 929,-472.0933 961,-472.0933 961,-453.0933 929,-453.0933"/>
<text text-anchor="start" x="942.4053" y="-459.1933" font-family="Helvetica,sans-Serif" font-size="11.00" fill="#000000">4 &gt;</text>
</a>
</g>
</g>
<!-- char_DataCore&#45;&gt;global_varunitID -->
<g id="edge8" class="edge">
<title>char_DataCore:w&#45;&gt;global_varunitID:e</title>
<path fill="none" stroke="#000000" d="M1067.4879,-498.3116C1036.7879,-484.82 997.8303,-474.9004 961,-481.0933"/>
<polygon fill="#000000" stroke="#000000" points="1073.3111,-501.0702 1078.9996,-507.7486 1076.926,-502.7827 1080.5408,-504.4952 1080.5408,-504.4952 1080.5408,-504.4952 1076.926,-502.7827 1082.0821,-501.2418 1073.3111,-501.0702 1073.3111,-501.0702"/>
<ellipse fill="none" stroke="#000000" cx="1070.4191" cy="-499.7002" rx="3.2" ry="3.2"/>
</g>
<!-- char_DataCore&#45;&gt;global_varunitID -->
<g id="edge10" class="edge">
<title>char_DataCore:w&#45;&gt;global_varunitID:e</title>
<path fill="none" stroke="#000000" d="M1045.9924,-499.1109C1019.6395,-489.072 989.675,-481.0933 961,-481.0933"/>
<polygon fill="#000000" stroke="#000000" points="1051.9972,-501.5288 1058.0734,-507.8564 1055.7076,-503.0229 1059.4181,-504.517 1059.4181,-504.517 1059.4181,-504.517 1055.7076,-503.0229 1060.7628,-501.1775 1051.9972,-501.5288 1051.9972,-501.5288"/>
<ellipse fill="none" stroke="#000000" cx="1049.0288" cy="-500.3335" rx="3.2" ry="3.2"/>
</g>
<!-- char_DataCore&#45;&gt;global_varunitID -->
<g id="edge20" class="edge">
<title>char_DataCore:w&#45;&gt;global_varunitID:e</title>
<path fill="none" stroke="#000000" d="M1041.3593,-506.2462C1016.1589,-495.6672 988.0075,-485.6346 961,-481.0933"/>
<polygon fill="#000000" stroke="#000000" points="1047.2914,-508.8053 1053.2109,-515.2799 1050.9641,-510.3898 1054.6369,-511.9744 1054.6369,-511.9744 1054.6369,-511.9744 1050.9641,-510.3898 1056.063,-508.6688 1047.2914,-508.8053 1047.2914,-508.8053"/>
<ellipse fill="none" stroke="#000000" cx="1044.3531" cy="-507.5377" rx="3.2" ry="3.2"/>
</g>
<!-- cabah_charmethodID -->
<g id="node10" class="node">
<title>cabah_charmethodID</title>
<g id="a_node10"><a xlink:href="../../tables/cabah_charmethodID.html" xlink:title="cabah_charmethodID" target="_top">
<polygon fill="#ffffff" stroke="transparent" points="813.5,-371.5933 813.5,-432.5933 974.5,-432.5933 974.5,-371.5933 813.5,-371.5933"/>
<polygon fill="#f5f5f5" stroke="transparent" points="814,-409.0933 814,-432.0933 975,-432.0933 975,-409.0933 814,-409.0933"/>
<polygon fill="none" stroke="#000000" points="814,-409.0933 814,-432.0933 975,-432.0933 975,-409.0933 814,-409.0933"/>
<text text-anchor="start" x="819" y="-417.6933" font-family="Helvetica,sans-Serif" font-weight="bold" font-size="11.00" fill="#000000">cabah_charmethodID</text>
<text text-anchor="start" x="940.5219" y="-417.1933" font-family="Helvetica,sans-Serif" font-size="11.00" fill="#000000">[table]</text>
<polygon fill="none" stroke="#000000" points="814,-390.0933 814,-409.0933 975,-409.0933 975,-390.0933 814,-390.0933"/>
<text text-anchor="start" x="817" y="-396.1933" font-family="Helvetica,sans-Serif" font-size="11.00" fill="#000000">...</text>
<polygon fill="#ffffff" stroke="transparent" points="814,-371.0933 814,-390.0933 868,-390.0933 868,-371.0933 814,-371.0933"/>
<polygon fill="none" stroke="#000000" points="814,-371.0933 814,-390.0933 868,-390.0933 868,-371.0933 814,-371.0933"/>
<text text-anchor="start" x="817" y="-377.1933" font-family="Helvetica,sans-Serif" font-size="11.00" fill="#000000"> &#160;</text>
<polygon fill="#ffffff" stroke="transparent" points="868,-371.0933 868,-390.0933 933,-390.0933 933,-371.0933 868,-371.0933"/>
<polygon fill="none" stroke="#000000" points="868,-371.0933 868,-390.0933 933,-390.0933 933,-371.0933 868,-371.0933"/>
<text text-anchor="start" x="891.4956" y="-377.1933" font-family="Helvetica,sans-Serif" font-size="11.00" fill="#000000">12 rows</text>
<polygon fill="#ffffff" stroke="transparent" points="933,-371.0933 933,-390.0933 975,-390.0933 975,-371.0933 933,-371.0933"/>
<polygon fill="none" stroke="#000000" points="933,-371.0933 933,-390.0933 975,-390.0933 975,-371.0933 933,-371.0933"/>
<text text-anchor="start" x="956.4053" y="-377.1933" font-family="Helvetica,sans-Serif" font-size="11.00" fill="#000000">1 &gt;</text>
</a>
</g>
</g>
<!-- char_DataCore&#45;&gt;cabah_charmethodID -->
<g id="edge9" class="edge">
<title>char_DataCore:w&#45;&gt;cabah_charmethodID:e</title>
<path fill="none" stroke="#000000" d="M1099.8723,-492.0417C1074.3624,-451.3766 1030.7283,-399.0933 975,-399.0933"/>
<polygon fill="#000000" stroke="#000000" points="1103.2328,-497.6306 1104.2701,-506.3417 1105.2941,-501.0586 1107.3553,-504.4866 1107.3553,-504.4866 1107.3553,-504.4866 1105.2941,-501.0586 1110.4405,-502.6315 1103.2328,-497.6306 1103.2328,-497.6306"/>
<ellipse fill="none" stroke="#000000" cx="1101.5838" cy="-494.8882" rx="3.2" ry="3.2"/>
</g>
<!-- cabah_datasourceID -->
<g id="node11" class="node">
<title>cabah_datasourceID</title>
<g id="a_node11"><a xlink:href="../../tables/cabah_datasourceID.html" xlink:title="cabah_datasourceID" target="_top">
<polygon fill="#ffffff" stroke="transparent" points="8,-237.5933 8,-298.5933 164,-298.5933 164,-237.5933 8,-237.5933"/>
<polygon fill="#f5f5f5" stroke="transparent" points="8,-275.0933 8,-298.0933 164,-298.0933 164,-275.0933 8,-275.0933"/>
<polygon fill="none" stroke="#000000" points="8,-275.0933 8,-298.0933 164,-298.0933 164,-275.0933 8,-275.0933"/>
<text text-anchor="start" x="13" y="-283.6933" font-family="Helvetica,sans-Serif" font-weight="bold" font-size="11.00" fill="#000000">cabah_datasourceID</text>
<text text-anchor="start" x="129.5219" y="-283.1933" font-family="Helvetica,sans-Serif" font-size="11.00" fill="#000000">[table]</text>
<polygon fill="none" stroke="#000000" points="8,-256.0933 8,-275.0933 164,-275.0933 164,-256.0933 8,-256.0933"/>
<text text-anchor="start" x="11" y="-262.1933" font-family="Helvetica,sans-Serif" font-size="11.00" fill="#000000">...</text>
<polygon fill="#ffffff" stroke="transparent" points="8,-237.0933 8,-256.0933 59,-256.0933 59,-237.0933 8,-237.0933"/>
<polygon fill="none" stroke="#000000" points="8,-237.0933 8,-256.0933 59,-256.0933 59,-237.0933 8,-237.0933"/>
<text text-anchor="start" x="11" y="-243.1933" font-family="Helvetica,sans-Serif" font-size="11.00" fill="#000000"> &#160;</text>
<polygon fill="#ffffff" stroke="transparent" points="59,-237.0933 59,-256.0933 123,-256.0933 123,-237.0933 59,-237.0933"/>
<polygon fill="none" stroke="#000000" points="59,-237.0933 59,-256.0933 123,-256.0933 123,-237.0933 59,-237.0933"/>
<text text-anchor="start" x="81.4956" y="-243.1933" font-family="Helvetica,sans-Serif" font-size="11.00" fill="#000000">11 rows</text>
<polygon fill="#ffffff" stroke="transparent" points="123,-237.0933 123,-256.0933 164,-256.0933 164,-237.0933 123,-237.0933"/>
<polygon fill="none" stroke="#000000" points="123,-237.0933 123,-256.0933 164,-256.0933 164,-237.0933 123,-237.0933"/>
<text text-anchor="start" x="145.4053" y="-243.1933" font-family="Helvetica,sans-Serif" font-size="11.00" fill="#000000">6 &gt;</text>
</a>
</g>
</g>
<!-- char_DataCore&#45;&gt;cabah_datasourceID -->
<g id="edge11" class="edge">
<title>char_DataCore:w&#45;&gt;cabah_datasourceID:e</title>
<path fill="none" stroke="#000000" d="M1121.1422,-489.9666C1113.4596,-429.1152 1090.5074,-327.5675 1022,-279.0933 955.1045,-231.7598 735.448,-265.0933 653.5,-265.0933 653.5,-265.0933 653.5,-265.0933 462.5,-265.0933 329.8333,-265.0933 296.6667,-265.0933 164,-265.0933"/>
<polygon fill="#000000" stroke="#000000" points="1121.8865,-496.554 1119.2076,-504.9076 1122.3356,-500.5287 1122.7848,-504.5034 1122.7848,-504.5034 1122.7848,-504.5034 1122.3356,-500.5287 1126.362,-504.0992 1121.8865,-496.554 1121.8865,-496.554"/>
<ellipse fill="none" stroke="#000000" cx="1121.5272" cy="-493.3742" rx="3.2" ry="3.2"/>
</g>
<!-- global_dbDOI -->
<g id="node12" class="node">
<title>global_dbDOI</title>
<g id="a_node12"><a xlink:href="../../tables/global_dbDOI.html" xlink:title="global_dbDOI" target="_top">
<polygon fill="#ffffff" stroke="transparent" points="835.5,-97.5933 835.5,-158.5933 952.5,-158.5933 952.5,-97.5933 835.5,-97.5933"/>
<polygon fill="#f5f5f5" stroke="transparent" points="836,-135.0933 836,-158.0933 953,-158.0933 953,-135.0933 836,-135.0933"/>
<polygon fill="none" stroke="#000000" points="836,-135.0933 836,-158.0933 953,-158.0933 953,-135.0933 836,-135.0933"/>
<text text-anchor="start" x="841" y="-143.6933" font-family="Helvetica,sans-Serif" font-weight="bold" font-size="11.00" fill="#000000">global_dbDOI</text>
<text text-anchor="start" x="918.5219" y="-143.1933" font-family="Helvetica,sans-Serif" font-size="11.00" fill="#000000">[table]</text>
<polygon fill="none" stroke="#000000" points="836,-116.0933 836,-135.0933 953,-135.0933 953,-116.0933 836,-116.0933"/>
<text text-anchor="start" x="839" y="-122.1933" font-family="Helvetica,sans-Serif" font-size="11.00" fill="#000000">...</text>
<polygon fill="#ffffff" stroke="transparent" points="836,-97.0933 836,-116.0933 865,-116.0933 865,-97.0933 836,-97.0933"/>
<polygon fill="none" stroke="#000000" points="836,-97.0933 836,-116.0933 865,-116.0933 865,-97.0933 836,-97.0933"/>
<text text-anchor="start" x="839" y="-103.1933" font-family="Helvetica,sans-Serif" font-size="11.00" fill="#000000"> &#160;</text>
<polygon fill="#ffffff" stroke="transparent" points="865,-97.0933 865,-116.0933 917,-116.0933 917,-97.0933 865,-97.0933"/>
<polygon fill="none" stroke="#000000" points="865,-97.0933 865,-116.0933 917,-116.0933 917,-97.0933 865,-97.0933"/>
<text text-anchor="start" x="875.4956" y="-103.1933" font-family="Helvetica,sans-Serif" font-size="11.00" fill="#000000">26 rows</text>
<polygon fill="#ffffff" stroke="transparent" points="917,-97.0933 917,-116.0933 953,-116.0933 953,-97.0933 917,-97.0933"/>
<polygon fill="none" stroke="#000000" points="917,-97.0933 917,-116.0933 953,-116.0933 953,-97.0933 917,-97.0933"/>
<text text-anchor="start" x="928.2904" y="-103.1933" font-family="Helvetica,sans-Serif" font-size="11.00" fill="#000000">26 &gt;</text>
</a>
</g>
</g>
<!-- char_DataCore&#45;&gt;global_dbDOI -->
<g id="edge12" class="edge">
<title>char_DataCore:w&#45;&gt;global_dbDOI:e</title>
<path fill="none" stroke="#000000" d="M1115.8943,-490.135C1098.7496,-401.8514 1059.9756,-220.3852 1022,-169.0933 1000.3576,-139.862 989.3712,-125.0933 953,-125.0933"/>
<polygon fill="#000000" stroke="#000000" points="1117.1398,-496.6216 1115.1129,-505.1569 1117.8941,-500.5499 1118.6483,-504.4781 1118.6483,-504.4781 1118.6483,-504.4781 1117.8941,-500.5499 1122.1838,-503.7992 1117.1398,-496.6216 1117.1398,-496.6216"/>
<ellipse fill="none" stroke="#000000" cx="1116.5364" cy="-493.479" rx="3.2" ry="3.2"/>
</g>
<!-- cabah_LabCodes -->
<g id="node13" class="node">
<title>cabah_LabCodes</title>
<g id="a_node13"><a xlink:href="../../tables/cabah_LabCodes.html" xlink:title="cabah_LabCodes" target="_top">
<polygon fill="#ffffff" stroke="transparent" points="825,-289.5933 825,-350.5933 963,-350.5933 963,-289.5933 825,-289.5933"/>
<polygon fill="#f5f5f5" stroke="transparent" points="825,-327.0933 825,-350.0933 963,-350.0933 963,-327.0933 825,-327.0933"/>
<polygon fill="none" stroke="#000000" points="825,-327.0933 825,-350.0933 963,-350.0933 963,-327.0933 825,-327.0933"/>
<text text-anchor="start" x="830" y="-335.6933" font-family="Helvetica,sans-Serif" font-weight="bold" font-size="11.00" fill="#000000">cabah_LabCodes</text>
<text text-anchor="start" x="928.5219" y="-335.1933" font-family="Helvetica,sans-Serif" font-size="11.00" fill="#000000">[table]</text>
<polygon fill="none" stroke="#000000" points="825,-308.0933 825,-327.0933 963,-327.0933 963,-308.0933 825,-308.0933"/>
<text text-anchor="start" x="828" y="-314.1933" font-family="Helvetica,sans-Serif" font-size="11.00" fill="#000000">...</text>
<polygon fill="#ffffff" stroke="transparent" points="825,-289.0933 825,-308.0933 864,-308.0933 864,-289.0933 825,-289.0933"/>
<polygon fill="none" stroke="#000000" points="825,-289.0933 825,-308.0933 864,-308.0933 864,-289.0933 825,-289.0933"/>
<text text-anchor="start" x="828" y="-295.1933" font-family="Helvetica,sans-Serif" font-size="11.00" fill="#000000"> &#160;</text>
<polygon fill="#ffffff" stroke="transparent" points="864,-289.0933 864,-308.0933 928,-308.0933 928,-289.0933 864,-289.0933"/>
<polygon fill="none" stroke="#000000" points="864,-289.0933 864,-308.0933 928,-308.0933 928,-289.0933 864,-289.0933"/>
<text text-anchor="start" x="880.3807" y="-295.1933" font-family="Helvetica,sans-Serif" font-size="11.00" fill="#000000">352 rows</text>
<polygon fill="#ffffff" stroke="transparent" points="928,-289.0933 928,-308.0933 963,-308.0933 963,-289.0933 928,-289.0933"/>
<polygon fill="none" stroke="#000000" points="928,-289.0933 928,-308.0933 963,-308.0933 963,-289.0933 928,-289.0933"/>
<text text-anchor="start" x="944.4053" y="-295.1933" font-family="Helvetica,sans-Serif" font-size="11.00" fill="#000000">7 &gt;</text>
</a>
</g>
</g>
<!-- char_DataCore&#45;&gt;cabah_LabCodes -->
<g id="edge13" class="edge">
<title>char_DataCore:w&#45;&gt;cabah_LabCodes:e</title>
<path fill="none" stroke="#000000" d="M1112.8645,-490.3745C1093.3268,-425.0252 1048.1667,-317.0933 963,-317.0933"/>
<polygon fill="#000000" stroke="#000000" points="1114.671,-496.7123 1113.4019,-505.3927 1115.7675,-500.5591 1116.864,-504.4058 1116.864,-504.4058 1116.864,-504.4058 1115.7675,-500.5591 1120.3261,-503.419 1114.671,-496.7123 1114.671,-496.7123"/>
<ellipse fill="none" stroke="#000000" cx="1113.7938" cy="-493.6349" rx="3.2" ry="3.2"/>
</g>
<!-- c14_materia2ID -->
<g id="node14" class="node">
<title>c14_materia2ID</title>
<g id="a_node14"><a xlink:href="../../tables/c14_materia2ID.html" xlink:title="c14_materia2ID" target="_top">
<polygon fill="#ffffff" stroke="transparent" points="830.5,-915.5933 830.5,-976.5933 957.5,-976.5933 957.5,-915.5933 830.5,-915.5933"/>
<polygon fill="#f5f5f5" stroke="transparent" points="831,-953.0933 831,-976.0933 958,-976.0933 958,-953.0933 831,-953.0933"/>
<polygon fill="none" stroke="#000000" points="831,-953.0933 831,-976.0933 958,-976.0933 958,-953.0933 831,-953.0933"/>
<text text-anchor="start" x="836" y="-961.6933" font-family="Helvetica,sans-Serif" font-weight="bold" font-size="11.00" fill="#000000">c14_materia2ID</text>
<text text-anchor="start" x="923.5219" y="-961.1933" font-family="Helvetica,sans-Serif" font-size="11.00" fill="#000000">[table]</text>
<polygon fill="none" stroke="#000000" points="831,-934.0933 831,-953.0933 958,-953.0933 958,-934.0933 831,-934.0933"/>
<text text-anchor="start" x="834" y="-940.1933" font-family="Helvetica,sans-Serif" font-size="11.00" fill="#000000">...</text>
<polygon fill="#ffffff" stroke="transparent" points="831,-915.0933 831,-934.0933 872,-934.0933 872,-915.0933 831,-915.0933"/>
<polygon fill="none" stroke="#000000" points="831,-915.0933 831,-934.0933 872,-934.0933 872,-915.0933 831,-915.0933"/>
<text text-anchor="start" x="834" y="-921.1933" font-family="Helvetica,sans-Serif" font-size="11.00" fill="#000000">&lt; 1</text>
<polygon fill="#ffffff" stroke="transparent" points="872,-915.0933 872,-934.0933 926,-934.0933 926,-915.0933 872,-915.0933"/>
<polygon fill="none" stroke="#000000" points="872,-915.0933 872,-934.0933 926,-934.0933 926,-915.0933 872,-915.0933"/>
<text text-anchor="start" x="884.4956" y="-921.1933" font-family="Helvetica,sans-Serif" font-size="11.00" fill="#000000">60 rows</text>
<polygon fill="#ffffff" stroke="transparent" points="926,-915.0933 926,-934.0933 958,-934.0933 958,-915.0933 926,-915.0933"/>
<polygon fill="none" stroke="#000000" points="926,-915.0933 926,-934.0933 958,-934.0933 958,-915.0933 926,-915.0933"/>
<text text-anchor="start" x="939.4053" y="-921.1933" font-family="Helvetica,sans-Serif" font-size="11.00" fill="#000000">3 &gt;</text>
</a>
</g>
</g>
<!-- char_DataCore&#45;&gt;c14_materia2ID -->
<g id="edge14" class="edge">
<title>char_DataCore:w&#45;&gt;c14_materia2ID:e</title>
<path fill="none" stroke="#000000" d="M1122.5831,-588.152C1116.5578,-663.5774 1095.5118,-809.322 1022,-905.0933 1001.8577,-931.3347 991.0805,-943.0933 958,-943.0933"/>
<polygon fill="#000000" stroke="#000000" points="1123.0543,-581.5831 1127.2175,-573.8613 1123.3405,-577.5934 1123.6268,-573.6036 1123.6268,-573.6036 1123.6268,-573.6036 1123.3405,-577.5934 1120.036,-573.346 1123.0543,-581.5831 1123.0543,-581.5831"/>
<ellipse fill="none" stroke="#000000" cx="1122.8253" cy="-584.7749" rx="3.2" ry="3.2"/>
</g>
<!-- cabah_methodID -->
<g id="node15" class="node">
<title>cabah_methodID</title>
<g id="a_node15"><a xlink:href="../../tables/cabah_methodID.html" xlink:title="cabah_methodID" target="_top">
<polygon fill="#ffffff" stroke="transparent" points="826.5,-833.5933 826.5,-894.5933 961.5,-894.5933 961.5,-833.5933 826.5,-833.5933"/>
<polygon fill="#f5f5f5" stroke="transparent" points="827,-871.0933 827,-894.0933 962,-894.0933 962,-871.0933 827,-871.0933"/>
<polygon fill="none" stroke="#000000" points="827,-871.0933 827,-894.0933 962,-894.0933 962,-871.0933 827,-871.0933"/>
<text text-anchor="start" x="832" y="-879.6933" font-family="Helvetica,sans-Serif" font-weight="bold" font-size="11.00" fill="#000000">cabah_methodID</text>
<text text-anchor="start" x="927.5219" y="-879.1933" font-family="Helvetica,sans-Serif" font-size="11.00" fill="#000000">[table]</text>
<polygon fill="none" stroke="#000000" points="827,-852.0933 827,-871.0933 962,-871.0933 962,-852.0933 827,-852.0933"/>
<text text-anchor="start" x="830" y="-858.1933" font-family="Helvetica,sans-Serif" font-size="11.00" fill="#000000">...</text>
<polygon fill="#ffffff" stroke="transparent" points="827,-833.0933 827,-852.0933 869,-852.0933 869,-833.0933 827,-833.0933"/>
<polygon fill="none" stroke="#000000" points="827,-833.0933 827,-852.0933 869,-852.0933 869,-833.0933 827,-833.0933"/>
<text text-anchor="start" x="830" y="-839.1933" font-family="Helvetica,sans-Serif" font-size="11.00" fill="#000000">&lt; 1</text>
<polygon fill="#ffffff" stroke="transparent" points="869,-833.0933 869,-852.0933 930,-852.0933 930,-833.0933 869,-833.0933"/>
<polygon fill="none" stroke="#000000" points="869,-833.0933 869,-852.0933 930,-852.0933 930,-833.0933 869,-833.0933"/>
<text text-anchor="start" x="882.3807" y="-839.1933" font-family="Helvetica,sans-Serif" font-size="11.00" fill="#000000">103 rows</text>
<polygon fill="#ffffff" stroke="transparent" points="930,-833.0933 930,-852.0933 962,-852.0933 962,-833.0933 930,-833.0933"/>
<polygon fill="none" stroke="#000000" points="930,-833.0933 930,-852.0933 962,-852.0933 962,-833.0933 930,-833.0933"/>
<text text-anchor="start" x="943.4053" y="-839.1933" font-family="Helvetica,sans-Serif" font-size="11.00" fill="#000000">9 &gt;</text>
</a>
</g>
</g>
<!-- char_DataCore&#45;&gt;cabah_methodID -->
<g id="edge15" class="edge">
<title>char_DataCore:w&#45;&gt;cabah_methodID:e</title>
<path fill="none" stroke="#000000" d="M1122.1906,-588.2696C1114.1018,-678.4437 1082.8072,-861.0933 962,-861.0933"/>
<polygon fill="#000000" stroke="#000000" points="1122.711,-581.8329 1126.9441,-574.1491 1123.0334,-577.8459 1123.3558,-573.8589 1123.3558,-573.8589 1123.3558,-573.8589 1123.0334,-577.8459 1119.7675,-573.5688 1122.711,-581.8329 1122.711,-581.8329"/>
<ellipse fill="none" stroke="#000000" cx="1122.4531" cy="-585.0225" rx="3.2" ry="3.2"/>
</g>
<!-- char_Sample -->
<g id="node16" class="node">
<title>char_Sample</title>
<g id="a_node16"><a xlink:href="../../tables/char_Sample.html" xlink:title="char_Sample" target="_top">
<polygon fill="#ffffff" stroke="transparent" points="795.5,-1080.0933 795.5,-1280.0933 992.5,-1280.0933 992.5,-1080.0933 795.5,-1080.0933"/>
<polygon fill="#f5f5f5" stroke="transparent" points="798,-1255.0933 798,-1278.0933 991,-1278.0933 991,-1255.0933 798,-1255.0933"/>
<polygon fill="none" stroke="#000000" points="798,-1255.0933 798,-1278.0933 991,-1278.0933 991,-1255.0933 798,-1255.0933"/>
<text text-anchor="start" x="803" y="-1263.6933" font-family="Helvetica,sans-Serif" font-weight="bold" font-size="11.00" fill="#000000">char_Sample</text>
<text text-anchor="start" x="956.0437" y="-1263.1933" font-family="Helvetica,sans-Serif" font-size="11.00" fill="#000000">[table]</text>
<polygon fill="none" stroke="#000000" points="798,-1233.0933 798,-1255.0933 899,-1255.0933 899,-1233.0933 798,-1233.0933"/>
<image xlink:href="../../images/primaryKeys.png" width="11px" height="12px" preserveAspectRatio="xMinYMin meet" x="803" y="-1250.09"/>
<text text-anchor="start" x="818" y="-1240.1933" font-family="Helvetica,sans-Serif" font-size="11.00" fill="#000000">SMPID</text>
<polygon fill="none" stroke="#000000" points="899,-1233.0933 899,-1255.0933 991,-1255.0933 991,-1233.0933 899,-1233.0933"/>
<text text-anchor="start" x="902" y="-1240.7933" font-family="Helvetica,sans-Serif" font-size="11.00" fill="#000000">serial[10]</text>
<polygon fill="none" stroke="#000000" points="798,-1211.0933 798,-1233.0933 899,-1233.0933 899,-1211.0933 798,-1211.0933"/>
<image xlink:href="../../images/foreignKeys.png" width="11px" height="12px" preserveAspectRatio="xMinYMin meet" x="803" y="-1228.09"/>
<text text-anchor="start" x="818" y="-1218.1933" font-family="Helvetica,sans-Serif" font-size="11.00" fill="#000000">UNITID</text>
<polygon fill="none" stroke="#000000" points="899,-1211.0933 899,-1233.0933 991,-1233.0933 991,-1211.0933 899,-1211.0933"/>
<text text-anchor="start" x="902" y="-1218.7933" font-family="Helvetica,sans-Serif" font-size="11.00" fill="#000000">int4[10]</text>
<polygon fill="none" stroke="#000000" points="798,-1189.0933 798,-1211.0933 899,-1211.0933 899,-1189.0933 798,-1189.0933"/>
<text text-anchor="start" x="818" y="-1196.1933" font-family="Helvetica,sans-Serif" font-size="11.00" fill="#000000">SMPNAME</text>
<polygon fill="none" stroke="#000000" points="899,-1189.0933 899,-1211.0933 991,-1211.0933 991,-1189.0933 899,-1189.0933"/>
<text text-anchor="start" x="902" y="-1196.7933" font-family="Helvetica,sans-Serif" font-size="11.00" fill="#000000">text[2147483647]</text>
<polygon fill="none" stroke="#000000" points="798,-1167.0933 798,-1189.0933 899,-1189.0933 899,-1167.0933 798,-1167.0933"/>
<text text-anchor="start" x="818" y="-1174.1933" font-family="Helvetica,sans-Serif" font-size="11.00" fill="#000000">SMPDEPTH</text>
<polygon fill="none" stroke="#000000" points="899,-1167.0933 899,-1189.0933 991,-1189.0933 991,-1167.0933 899,-1167.0933"/>
<text text-anchor="start" x="902" y="-1174.7933" font-family="Helvetica,sans-Serif" font-size="11.00" fill="#000000">numeric[0]</text>
<polygon fill="none" stroke="#000000" points="798,-1145.0933 798,-1167.0933 899,-1167.0933 899,-1145.0933 798,-1145.0933"/>
<text text-anchor="start" x="818" y="-1152.1933" font-family="Helvetica,sans-Serif" font-size="11.00" fill="#000000">SMPCOMMT</text>
<polygon fill="none" stroke="#000000" points="899,-1145.0933 899,-1167.0933 991,-1167.0933 991,-1145.0933 899,-1145.0933"/>
<text text-anchor="start" x="902" y="-1152.7933" font-family="Helvetica,sans-Serif" font-size="11.00" fill="#000000">text[2147483647]</text>
<polygon fill="none" stroke="#000000" points="798,-1123.0933 798,-1145.0933 899,-1145.0933 899,-1123.0933 798,-1123.0933"/>
<text text-anchor="start" x="818" y="-1130.1933" font-family="Helvetica,sans-Serif" font-size="11.00" fill="#000000">CREATED_AT</text>
<polygon fill="none" stroke="#000000" points="899,-1123.0933 899,-1145.0933 991,-1145.0933 991,-1123.0933 899,-1123.0933"/>
<text text-anchor="start" x="901.6023" y="-1130.7933" font-family="Helvetica,sans-Serif" font-size="11.00" fill="#000000">timestamptz[35,6]</text>
<polygon fill="none" stroke="#000000" points="798,-1101.0933 798,-1123.0933 899,-1123.0933 899,-1101.0933 798,-1101.0933"/>
<text text-anchor="start" x="818" y="-1108.1933" font-family="Helvetica,sans-Serif" font-size="11.00" fill="#000000">UPDATED_AT</text>
<polygon fill="none" stroke="#000000" points="899,-1101.0933 899,-1123.0933 991,-1123.0933 991,-1101.0933 899,-1101.0933"/>
<text text-anchor="start" x="901.6023" y="-1108.7933" font-family="Helvetica,sans-Serif" font-size="11.00" fill="#000000">timestamptz[35,6]</text>
<polygon fill="#ffffff" stroke="transparent" points="798,-1082.0933 798,-1101.0933 826,-1101.0933 826,-1082.0933 798,-1082.0933"/>
<polygon fill="none" stroke="#000000" points="798,-1082.0933 798,-1101.0933 826,-1101.0933 826,-1082.0933 798,-1082.0933"/>
<text text-anchor="start" x="801" y="-1088.1933" font-family="Helvetica,sans-Serif" font-size="11.00" fill="#000000">&lt; 1</text>
<polygon fill="#ffffff" stroke="transparent" points="826,-1082.0933 826,-1101.0933 899,-1101.0933 899,-1082.0933 826,-1082.0933"/>
<polygon fill="none" stroke="#000000" points="826,-1082.0933 826,-1101.0933 899,-1101.0933 899,-1082.0933 826,-1082.0933"/>
<text text-anchor="start" x="836.094" y="-1088.1933" font-family="Helvetica,sans-Serif" font-size="11.00" fill="#000000">41.793 rows</text>
<polygon fill="#ffffff" stroke="transparent" points="899,-1082.0933 899,-1101.0933 991,-1101.0933 991,-1082.0933 899,-1082.0933"/>
<polygon fill="none" stroke="#000000" points="899,-1082.0933 899,-1101.0933 991,-1101.0933 991,-1082.0933 899,-1082.0933"/>
<text text-anchor="start" x="972.4053" y="-1088.1933" font-family="Helvetica,sans-Serif" font-size="11.00" fill="#000000">2 &gt;</text>
<polygon fill="none" stroke="#000000" stroke-width="2" points="796.5,-1081.0933 796.5,-1279.0933 991.5,-1279.0933 991.5,-1081.0933 796.5,-1081.0933"/>
</a>
</g>
</g>
<!-- char_DataCore&#45;&gt;char_Sample -->
<g id="edge19" class="edge">
<title>char_DataCore:w&#45;&gt;char_Sample:e</title>
<path fill="none" stroke="#000000" d="M1115.6517,-588.4924C1085.3136,-748.7799 991.5221,-1244.0933 991,-1244.0933"/>
<polygon fill="#000000" stroke="#000000" points="1116.8965,-581.9149 1121.9215,-574.7239 1117.6404,-577.9846 1118.3843,-574.0544 1118.3843,-574.0544 1118.3843,-574.0544 1117.6404,-577.9846 1114.8471,-573.3849 1116.8965,-581.9149 1116.8965,-581.9149"/>
<ellipse fill="none" stroke="#000000" cx="1116.3014" cy="-585.059" rx="3.2" ry="3.2"/>
</g>
<!-- char_Sample&#45;&gt;global_UnitMaster -->
<g id="edge21" class="edge">
<title>char_Sample:w&#45;&gt;global_UnitMaster:e</title>
<path fill="none" stroke="#000000" d="M783.5087,-1218.9634C712.976,-1188.2186 671.2946,-939.3641 658.0937,-846.6964"/>
<polygon fill="#000000" stroke="#000000" points="790.1803,-1220.4044 797.24,-1225.6122 794.0902,-1221.2489 798,-1222.0933 798,-1222.0933 798,-1222.0933 794.0902,-1221.2489 798.76,-1218.5745 790.1803,-1220.4044 790.1803,-1220.4044"/>
<ellipse fill="none" stroke="#000000" cx="787.0524" cy="-1219.7288" rx="3.2" ry="3.2"/>
</g>
<!-- global_DataSetMaster -->
<g id="node17" class="node">
<title>global_DataSetMaster</title>
<g id="a_node17"><a xlink:href="../../tables/global_DataSetMaster.html" xlink:title="global_DataSetMaster" target="_top">
<polygon fill="#ffffff" stroke="transparent" points="812,-641.5933 812,-702.5933 976,-702.5933 976,-641.5933 812,-641.5933"/>
<polygon fill="#f5f5f5" stroke="transparent" points="812,-679.0933 812,-702.0933 976,-702.0933 976,-679.0933 812,-679.0933"/>
<polygon fill="none" stroke="#000000" points="812,-679.0933 812,-702.0933 976,-702.0933 976,-679.0933 812,-679.0933"/>
<text text-anchor="start" x="817" y="-687.6933" font-family="Helvetica,sans-Serif" font-weight="bold" font-size="11.00" fill="#000000">global_DataSetMaster</text>
<text text-anchor="start" x="941.5219" y="-687.1933" font-family="Helvetica,sans-Serif" font-size="11.00" fill="#000000">[table]</text>
<polygon fill="none" stroke="#000000" points="812,-660.0933 812,-679.0933 976,-679.0933 976,-660.0933 812,-660.0933"/>
<text text-anchor="start" x="815" y="-666.1933" font-family="Helvetica,sans-Serif" font-size="11.00" fill="#000000">...</text>
<polygon fill="#ffffff" stroke="transparent" points="812,-641.0933 812,-660.0933 869,-660.0933 869,-641.0933 812,-641.0933"/>
<polygon fill="none" stroke="#000000" points="812,-641.0933 812,-660.0933 869,-660.0933 869,-641.0933 812,-641.0933"/>
<text text-anchor="start" x="815" y="-647.1933" font-family="Helvetica,sans-Serif" font-size="11.00" fill="#000000">&lt; 3</text>
<polygon fill="#ffffff" stroke="transparent" points="869,-641.0933 869,-660.0933 937,-660.0933 937,-641.0933 869,-641.0933"/>
<polygon fill="none" stroke="#000000" points="869,-641.0933 869,-660.0933 937,-660.0933 937,-641.0933 869,-641.0933"/>
<text text-anchor="start" x="889.3807" y="-647.1933" font-family="Helvetica,sans-Serif" font-size="11.00" fill="#000000">148 rows</text>
<polygon fill="#ffffff" stroke="transparent" points="937,-641.0933 937,-660.0933 976,-660.0933 976,-641.0933 937,-641.0933"/>
<polygon fill="none" stroke="#000000" points="937,-641.0933 937,-660.0933 976,-660.0933 976,-641.0933 937,-641.0933"/>
<text text-anchor="start" x="957.4053" y="-647.1933" font-family="Helvetica,sans-Serif" font-size="11.00" fill="#000000">1 &gt;</text>
</a>
</g>
</g>
<!-- global_DataSetMaster&#45;&gt;global_UnitMaster -->
<g id="edge23" class="edge">
<title>global_DataSetMaster:w&#45;&gt;global_UnitMaster:e</title>
<path fill="none" stroke="#000000" d="M797.6004,-670.8059C758.3418,-681.3346 772.8598,-737.9288 733,-771.0933 730.3737,-773.2785 727.6117,-775.3909 724.7566,-777.4269"/>
<polygon fill="#000000" stroke="#000000" points="804.056,-670.0382 812.4252,-672.6682 808.028,-669.5658 812,-669.0933 812,-669.0933 812,-669.0933 808.028,-669.5658 811.5748,-665.5185 804.056,-670.0382 804.056,-670.0382"/>
<ellipse fill="none" stroke="#000000" cx="800.8784" cy="-670.4161" rx="3.2" ry="3.2"/>
</g>
<!-- global_DataSetMaster&#45;&gt;cabah_datasourceID -->
<g id="edge22" class="edge">
<title>global_DataSetMaster:w&#45;&gt;cabah_datasourceID:e</title>
<path fill="none" stroke="#000000" d="M797.2934,-669.2851C693.1016,-671.7498 461.3545,-696.3722 384,-649.0933 300.0865,-597.8057 262.3458,-265.0933 164,-265.0933"/>
<polygon fill="#000000" stroke="#000000" points="804.0007,-669.1977 812.047,-672.693 808.0003,-669.1455 812,-669.0933 812,-669.0933 812,-669.0933 808.0003,-669.1455 811.953,-665.4937 804.0007,-669.1977 804.0007,-669.1977"/>
<ellipse fill="none" stroke="#000000" cx="800.801" cy="-669.2395" rx="3.2" ry="3.2"/>
</g>
<!-- global_MetaSite -->
<g id="node18" class="node">
<title>global_MetaSite</title>
<g id="a_node18"><a xlink:href="../../tables/global_MetaSite.html" xlink:title="global_MetaSite" target="_top">
<polygon fill="#ffffff" stroke="transparent" points="213,-153.5933 213,-214.5933 343,-214.5933 343,-153.5933 213,-153.5933"/>
<polygon fill="#f5f5f5" stroke="transparent" points="213,-191.0933 213,-214.0933 343,-214.0933 343,-191.0933 213,-191.0933"/>
<polygon fill="none" stroke="#000000" points="213,-191.0933 213,-214.0933 343,-214.0933 343,-191.0933 213,-191.0933"/>
<text text-anchor="start" x="218" y="-199.6933" font-family="Helvetica,sans-Serif" font-weight="bold" font-size="11.00" fill="#000000">global_MetaSite</text>
<text text-anchor="start" x="308.5219" y="-199.1933" font-family="Helvetica,sans-Serif" font-size="11.00" fill="#000000">[table]</text>
<polygon fill="none" stroke="#000000" points="213,-172.0933 213,-191.0933 343,-191.0933 343,-172.0933 213,-172.0933"/>
<text text-anchor="start" x="216" y="-178.1933" font-family="Helvetica,sans-Serif" font-size="11.00" fill="#000000">...</text>
<polygon fill="#ffffff" stroke="transparent" points="213,-153.0933 213,-172.0933 242,-172.0933 242,-153.0933 213,-153.0933"/>
<polygon fill="none" stroke="#000000" points="213,-153.0933 213,-172.0933 242,-172.0933 242,-153.0933 213,-153.0933"/>
<text text-anchor="start" x="216" y="-159.1933" font-family="Helvetica,sans-Serif" font-size="11.00" fill="#000000">&lt; 2</text>
<polygon fill="#ffffff" stroke="transparent" points="242,-153.0933 242,-172.0933 311,-172.0933 311,-153.0933 242,-153.0933"/>
<polygon fill="none" stroke="#000000" points="242,-153.0933 242,-172.0933 311,-172.0933 311,-153.0933 242,-153.0933"/>
<text text-anchor="start" x="248.094" y="-159.1933" font-family="Helvetica,sans-Serif" font-size="11.00" fill="#000000">12.144 rows</text>
<polygon fill="#ffffff" stroke="transparent" points="311,-153.0933 311,-172.0933 343,-172.0933 343,-153.0933 311,-153.0933"/>
<polygon fill="none" stroke="#000000" points="311,-153.0933 311,-172.0933 343,-172.0933 343,-153.0933 311,-153.0933"/>
<text text-anchor="start" x="318.2904" y="-159.1933" font-family="Helvetica,sans-Serif" font-size="11.00" fill="#000000">18 &gt;</text>
</a>
</g>
</g>
<!-- global_MetaSite&#45;&gt;cabah_datasourceID -->
<g id="edge24" class="edge">
<title>global_MetaSite:w&#45;&gt;cabah_datasourceID:e</title>
<path fill="none" stroke="#000000" d="M199.103,-185.6096C178.7145,-203.0572 201.143,-265.0933 164,-265.0933"/>
<polygon fill="#000000" stroke="#000000" points="205.3917,-183.5659 214.1127,-184.5171 209.1958,-182.3296 213,-181.0933 213,-181.0933 213,-181.0933 209.1958,-182.3296 211.8873,-177.6696 205.3917,-183.5659 205.3917,-183.5659"/>
<ellipse fill="none" stroke="#000000" cx="202.3483" cy="-184.5549" rx="3.2" ry="3.2"/>
</g>
<!-- global_SiteMaster&#45;&gt;global_MetaSite -->
<g id="edge25" class="edge">
<title>global_SiteMaster:w&#45;&gt;global_MetaSite:e</title>
<path fill="none" stroke="#000000" d="M378.5104,-203.4782C366.3677,-196.3341 362.0259,-181.0933 343,-181.0933"/>
<polygon fill="#000000" stroke="#000000" points="384.7544,-205.0917 391.5993,-210.5788 388.6272,-206.0925 392.5,-207.0933 392.5,-207.0933 392.5,-207.0933 388.6272,-206.0925 393.4007,-203.6078 384.7544,-205.0917 384.7544,-205.0917"/>
<ellipse fill="none" stroke="#000000" cx="381.6562" cy="-204.291" rx="3.2" ry="3.2"/>
</g>
<!-- neo_chronologies -->
<g id="node22" class="node">
<title>neo_chronologies</title>
<g id="a_node22"><a xlink:href="../../tables/neo_chronologies.html" xlink:title="neo_chronologies" target="_top">
<polygon fill="#ffffff" stroke="transparent" points="823,-751.5933 823,-812.5933 965,-812.5933 965,-751.5933 823,-751.5933"/>
<polygon fill="#f5f5f5" stroke="transparent" points="823,-789.0933 823,-812.0933 965,-812.0933 965,-789.0933 823,-789.0933"/>
<polygon fill="none" stroke="#000000" points="823,-789.0933 823,-812.0933 965,-812.0933 965,-789.0933 823,-789.0933"/>
<text text-anchor="start" x="828" y="-797.6933" font-family="Helvetica,sans-Serif" font-weight="bold" font-size="11.00" fill="#000000">neo_chronologies</text>
<text text-anchor="start" x="930.5219" y="-797.1933" font-family="Helvetica,sans-Serif" font-size="11.00" fill="#000000">[table]</text>
<polygon fill="none" stroke="#000000" points="823,-770.0933 823,-789.0933 965,-789.0933 965,-770.0933 823,-770.0933"/>
<text text-anchor="start" x="826" y="-776.1933" font-family="Helvetica,sans-Serif" font-size="11.00" fill="#000000">...</text>
<polygon fill="#ffffff" stroke="transparent" points="823,-751.0933 823,-770.0933 866,-770.0933 866,-751.0933 823,-751.0933"/>
<polygon fill="none" stroke="#000000" points="823,-751.0933 823,-770.0933 866,-770.0933 866,-751.0933 823,-751.0933"/>
<text text-anchor="start" x="826" y="-757.1933" font-family="Helvetica,sans-Serif" font-size="11.00" fill="#000000">&lt; 4</text>
<polygon fill="#ffffff" stroke="transparent" points="866,-751.0933 866,-770.0933 942,-770.0933 942,-751.0933 866,-751.0933"/>
<polygon fill="none" stroke="#000000" points="866,-751.0933 866,-770.0933 942,-770.0933 942,-751.0933 866,-751.0933"/>
<text text-anchor="start" x="879.094" y="-757.1933" font-family="Helvetica,sans-Serif" font-size="11.00" fill="#000000">31.641 rows</text>
<polygon fill="#ffffff" stroke="transparent" points="942,-751.0933 942,-770.0933 965,-770.0933 965,-751.0933 942,-751.0933"/>
<polygon fill="none" stroke="#000000" points="942,-751.0933 942,-770.0933 965,-770.0933 965,-751.0933 942,-751.0933"/>
<text text-anchor="start" x="955.8862" y="-757.1933" font-family="Helvetica,sans-Serif" font-size="11.00" fill="#000000"> &#160;</text>
</a>
</g>
</g>
<!-- neo_chronologies&#45;&gt;global_UnitMaster -->
<g id="edge32" class="edge">
<title>neo_chronologies:w&#45;&gt;global_UnitMaster:e</title>
<path fill="none" stroke="#000000" stroke-dasharray="5,2" d="M808.5814,-778.4116C783.1467,-777.9497 756.7342,-781.1705 733.07,-785.8129"/>
<polygon fill="#000000" stroke="#000000" points="815.0089,-778.7155 822.83,-782.6893 819.0045,-778.9044 823,-779.0933 823,-779.0933 823,-779.0933 819.0045,-778.9044 823.17,-775.4974 815.0089,-778.7155 815.0089,-778.7155"/>
<ellipse fill="none" stroke="#000000" cx="811.8125" cy="-778.5643" rx="3.2" ry="3.2"/>
</g>
<!-- neo_chronologies&#45;&gt;global_UnitMaster -->
<g id="edge33" class="edge">
<title>neo_chronologies:w&#45;&gt;global_UnitMaster:e</title>
<path fill="none" stroke="#000000" d="M808.5814,-780.6775C783.1467,-783.9148 756.7342,-789.4634 733.07,-795.0624"/>
<polygon fill="#000000" stroke="#000000" points="815.0479,-779.9671 823.3932,-782.6718 819.0239,-779.5302 823,-779.0933 823,-779.0933 823,-779.0933 819.0239,-779.5302 822.6068,-775.5149 815.0479,-779.9671 815.0479,-779.9671"/>
<ellipse fill="none" stroke="#000000" cx="811.867" cy="-780.3166" rx="3.2" ry="3.2"/>
</g>
<!-- neo_chronologies&#45;&gt;cabah_agetypeID -->
<g id="edge31" class="edge">
<title>neo_chronologies:w&#45;&gt;cabah_agetypeID:e</title>
<path fill="none" stroke="#000000" d="M808.6503,-777.4801C772.1657,-768.703 767.4873,-727.0933 722.5,-727.0933"/>
<polygon fill="#000000" stroke="#000000" points="815.0501,-778.1995 822.5978,-782.6708 819.025,-778.6464 823,-779.0933 823,-779.0933 823,-779.0933 819.025,-778.6464 823.4022,-775.5159 815.0501,-778.1995 815.0501,-778.1995"/>
<ellipse fill="none" stroke="#000000" cx="811.8701" cy="-777.842" rx="3.2" ry="3.2"/>
</g>
<!-- sahulchar -->
<g id="node23" class="node">
<title>sahulchar</title>
<g id="a_node23"><a xlink:href="../../tables/sahulchar.html" xlink:title="sahulchar" target="_top">
<polygon fill="#ffffff" stroke="transparent" points="1236,-404.5933 1236,-465.5933 1334,-465.5933 1334,-404.5933 1236,-404.5933"/>
<polygon fill="#f5f5f5" stroke="transparent" points="1236,-442.0933 1236,-465.0933 1334,-465.0933 1334,-442.0933 1236,-442.0933"/>
<polygon fill="none" stroke="#000000" points="1236,-442.0933 1236,-465.0933 1334,-465.0933 1334,-442.0933 1236,-442.0933"/>
<text text-anchor="start" x="1241" y="-450.6933" font-family="Helvetica,sans-Serif" font-weight="bold" font-size="11.00" fill="#000000">sahulchar</text>
<text text-anchor="start" x="1299.0437" y="-450.1933" font-family="Helvetica,sans-Serif" font-size="11.00" fill="#000000">[table]</text>
<polygon fill="none" stroke="#000000" points="1236,-423.0933 1236,-442.0933 1334,-442.0933 1334,-423.0933 1236,-423.0933"/>
<text text-anchor="start" x="1239" y="-429.1933" font-family="Helvetica,sans-Serif" font-size="11.00" fill="#000000">...</text>
<polygon fill="#ffffff" stroke="transparent" points="1236,-404.0933 1236,-423.0933 1257,-423.0933 1257,-404.0933 1236,-404.0933"/>
<polygon fill="none" stroke="#000000" points="1236,-404.0933 1236,-423.0933 1257,-423.0933 1257,-404.0933 1236,-404.0933"/>
<text text-anchor="start" x="1238.7027" y="-410.1933" font-family="Helvetica,sans-Serif" font-size="11.00" fill="#000000">&lt; 6</text>
<polygon fill="#ffffff" stroke="transparent" points="1257,-404.0933 1257,-423.0933 1322,-423.0933 1322,-404.0933 1257,-404.0933"/>
<polygon fill="none" stroke="#000000" points="1257,-404.0933 1257,-423.0933 1322,-423.0933 1322,-404.0933 1257,-404.0933"/>
<text text-anchor="start" x="1259.547" y="-410.1933" font-family="Helvetica,sans-Serif" font-size="11.00" fill="#000000">48.234 rows</text>
<polygon fill="#ffffff" stroke="transparent" points="1322,-404.0933 1322,-423.0933 1334,-423.0933 1334,-404.0933 1322,-404.0933"/>
<polygon fill="none" stroke="#000000" points="1322,-404.0933 1322,-423.0933 1334,-423.0933 1334,-404.0933 1322,-404.0933"/>
<text text-anchor="start" x="1324.9431" y="-410.1933" font-family="Helvetica,sans-Serif" font-size="11.00" fill="#000000"> &#160;</text>
</a>
</g>
</g>
<!-- sahulchar&#45;&gt;global_UnitMaster -->
<g id="edge39" class="edge">
<title>sahulchar:w&#45;&gt;global_UnitMaster:e</title>
<path fill="none" stroke="#000000" stroke-dasharray="5,2" d="M1281.3587,-484.3105C1271.207,-614.4491 1240.3269,-964.9147 1195,-1071.0933 1146.1634,-1185.4934 1133.8849,-1236.7411 1022,-1291.0933 970.8294,-1315.9513 810.5887,-1326.4231 766,-1291.0933 757.066,-1284.0145 684.7865,-955.5841 661.0337,-846.7301"/>
<polygon fill="#000000" stroke="#000000" points="1281.8526,-477.8939 1286.056,-470.1938 1282.1596,-473.9057 1282.4666,-469.9175 1282.4666,-469.9175 1282.4666,-469.9175 1282.1596,-473.9057 1278.8772,-469.6412 1281.8526,-477.8939 1281.8526,-477.8939"/>
<ellipse fill="none" stroke="#000000" cx="1281.6069" cy="-481.0845" rx="3.2" ry="3.2"/>
</g>
<!-- sahulchar&#45;&gt;char_DataCore -->
<g id="edge36" class="edge">
<title>sahulchar:w&#45;&gt;char_DataCore:e</title>
<path fill="none" stroke="#000000" stroke-dasharray="5,2" d="M1219.3833,-477.7442C1205.7183,-486.6265 1191.4743,-495.8851 1178.3176,-504.4369"/>
<polygon fill="#000000" stroke="#000000" points="1225.0148,-474.0838 1233.6843,-472.7422 1228.3685,-471.9038 1231.7223,-469.7238 1231.7223,-469.7238 1231.7223,-469.7238 1228.3685,-471.9038 1229.7603,-466.7054 1225.0148,-474.0838 1225.0148,-474.0838"/>
<ellipse fill="none" stroke="#000000" cx="1222.3317" cy="-475.8277" rx="3.2" ry="3.2"/>
</g>
<!-- sahulchar&#45;&gt;global_dbDOI -->
<g id="edge34" class="edge">
<title>sahulchar:w&#45;&gt;global_dbDOI:e</title>
<path fill="none" stroke="#000000" stroke-dasharray="5,2" d="M1261.9814,-387.5412C1216.2087,-300.6548 1104.9239,-125.0933 953,-125.0933"/>
<polygon fill="#000000" stroke="#000000" points="1264.9665,-393.3256 1265.4363,-402.0857 1266.801,-396.8802 1268.6354,-400.4348 1268.6354,-400.4348 1268.6354,-400.4348 1266.801,-396.8802 1271.8345,-398.7838 1264.9665,-393.3256 1264.9665,-393.3256"/>
<ellipse fill="none" stroke="#000000" cx="1263.499" cy="-390.482" rx="3.2" ry="3.2"/>
</g>
<!-- sahulchar&#45;&gt;char_Sample -->
<g id="edge38" class="edge">
<title>sahulchar:w&#45;&gt;char_Sample:e</title>
<path fill="none" stroke="#000000" stroke-dasharray="5,2" d="M1278.1386,-484.0752C1252.2536,-659.224 1153.64,-1244.0933 991,-1244.0933"/>
<polygon fill="#000000" stroke="#000000" points="1279.0955,-477.5125 1283.8123,-470.1157 1279.6727,-473.5544 1280.2499,-469.5963 1280.2499,-469.5963 1280.2499,-469.5963 1279.6727,-473.5544 1276.6876,-469.0768 1279.0955,-477.5125 1279.0955,-477.5125"/>
<ellipse fill="none" stroke="#000000" cx="1278.6338" cy="-480.6791" rx="3.2" ry="3.2"/>
</g>
<!-- sahulchar&#45;&gt;global_MetaSite -->
<g id="edge35" class="edge">
<title>sahulchar:w&#45;&gt;global_MetaSite:e</title>
<path fill="none" stroke="#000000" stroke-dasharray="5,2" d="M1278.8892,-386.064C1267.1888,-300.5196 1238.8252,-129.3435 1195,-90.0933 1094.2873,.1057 1029.1995,-46.0933 894,-46.0933 894,-46.0933 894,-46.0933 653.5,-46.0933 523.273,-46.0933 502.4486,-106.9732 384,-161.0933 365.5591,-169.5191 363.2747,-181.0933 343,-181.0933"/>
<polygon fill="#000000" stroke="#000000" points="1279.7577,-392.5698 1277.2479,-400.9758 1280.287,-396.5346 1280.8163,-400.4994 1280.8163,-400.4994 1280.8163,-400.4994 1280.287,-396.5346 1284.3846,-400.023 1279.7577,-392.5698 1279.7577,-392.5698"/>
<ellipse fill="none" stroke="#000000" cx="1279.3342" cy="-389.3979" rx="3.2" ry="3.2"/>
</g>
<!-- sahulchar&#45;&gt;global_SiteMaster -->
<g id="edge37" class="edge">
<title>sahulchar:w&#45;&gt;global_SiteMaster:e</title>
<path fill="none" stroke="#000000" stroke-dasharray="5,2" d="M1281.7457,-385.5419C1275.1572,-323.9914 1255.2344,-219.2804 1195,-155.0933 1138.4665,-94.8501 1103.1711,-102.4733 1022,-87.0933 910.2112,-65.912 876.5643,-60.2433 766,-87.0933 652.9992,-114.5351 649.7851,-207.0933 533.5,-207.0933"/>
<polygon fill="#000000" stroke="#000000" points="1282.3874,-392.2459 1279.5663,-400.5526 1282.7687,-396.2277 1283.1499,-400.2095 1283.1499,-400.2095 1283.1499,-400.2095 1282.7687,-396.2277 1286.7335,-399.8664 1282.3874,-392.2459 1282.3874,-392.2459"/>
<ellipse fill="none" stroke="#000000" cx="1282.0825" cy="-389.0604" rx="3.2" ry="3.2"/>
</g>
<!-- sahulchar_units -->
<g id="node24" class="node">
<title>sahulchar_units</title>
<g id="a_node24"><a xlink:href="../../tables/sahulchar_units.html" xlink:title="sahulchar_units" target="_top">
<polygon fill="#ffffff" stroke="transparent" points="828.5,-179.5933 828.5,-240.5933 959.5,-240.5933 959.5,-179.5933 828.5,-179.5933"/>
<polygon fill="#f5f5f5" stroke="transparent" points="829,-217.0933 829,-240.0933 960,-240.0933 960,-217.0933 829,-217.0933"/>
<polygon fill="none" stroke="#000000" points="829,-217.0933 829,-240.0933 960,-240.0933 960,-217.0933 829,-217.0933"/>
<text text-anchor="start" x="834" y="-225.6933" font-family="Helvetica,sans-Serif" font-weight="bold" font-size="11.00" fill="#000000">sahulchar_units</text>
<text text-anchor="start" x="925.5219" y="-225.1933" font-family="Helvetica,sans-Serif" font-size="11.00" fill="#000000">[table]</text>
<polygon fill="none" stroke="#000000" points="829,-198.0933 829,-217.0933 960,-217.0933 960,-198.0933 829,-198.0933"/>
<text text-anchor="start" x="832" y="-204.1933" font-family="Helvetica,sans-Serif" font-size="11.00" fill="#000000">...</text>
<polygon fill="#ffffff" stroke="transparent" points="829,-179.0933 829,-198.0933 874,-198.0933 874,-179.0933 829,-179.0933"/>
<polygon fill="none" stroke="#000000" points="829,-179.0933 829,-198.0933 874,-198.0933 874,-179.0933 829,-179.0933"/>
<text text-anchor="start" x="832" y="-185.1933" font-family="Helvetica,sans-Serif" font-size="11.00" fill="#000000">&lt; 4</text>
<polygon fill="#ffffff" stroke="transparent" points="874,-179.0933 874,-198.0933 936,-198.0933 936,-179.0933 874,-179.0933"/>
<polygon fill="none" stroke="#000000" points="874,-179.0933 874,-198.0933 936,-198.0933 936,-179.0933 874,-179.0933"/>
<text text-anchor="start" x="888.3807" y="-185.1933" font-family="Helvetica,sans-Serif" font-size="11.00" fill="#000000">535 rows</text>
<polygon fill="#ffffff" stroke="transparent" points="936,-179.0933 936,-198.0933 960,-198.0933 960,-179.0933 936,-179.0933"/>
<polygon fill="none" stroke="#000000" points="936,-179.0933 936,-198.0933 960,-198.0933 960,-179.0933 936,-179.0933"/>
<text text-anchor="start" x="950.8862" y="-185.1933" font-family="Helvetica,sans-Serif" font-size="11.00" fill="#000000"> &#160;</text>
</a>
</g>
</g>
<!-- sahulchar_units&#45;&gt;global_UnitMaster -->
<g id="edge42" class="edge">
<title>sahulchar_units:w&#45;&gt;global_UnitMaster:e</title>
<path fill="none" stroke="#000000" stroke-dasharray="5,2" d="M814.3589,-208.6684C785.196,-215.6378 780.1813,-244.8763 766,-279.0933 724.0455,-380.3226 793.1262,-679.4834 733,-771.0933 731.5514,-773.3004 729.9447,-775.3952 728.2071,-777.3828"/>
<polygon fill="#000000" stroke="#000000" points="821.0459,-207.9491 829.3851,-210.6727 825.0229,-207.5212 829,-207.0933 829,-207.0933 829,-207.0933 825.0229,-207.5212 828.6149,-203.514 821.0459,-207.9491 821.0459,-207.9491"/>
<ellipse fill="none" stroke="#000000" cx="817.8642" cy="-208.2914" rx="3.2" ry="3.2"/>
</g>
<!-- sahulchar_units&#45;&gt;global_MetaSite -->
<g id="edge40" class="edge">
<title>sahulchar_units:w&#45;&gt;global_MetaSite:e</title>
<path fill="none" stroke="#000000" stroke-dasharray="5,2" d="M814.3116,-206.9612C697.3915,-204.8179 664.7993,-177.2254 541,-169.0933 471.3723,-164.5197 453.0718,-159.1929 384,-169.0933 365.2054,-171.7873 361.9867,-181.0933 343,-181.0933"/>
<polygon fill="#000000" stroke="#000000" points="821.0003,-207.0213 828.9676,-210.6932 825.0002,-207.0573 829,-207.0933 829,-207.0933 829,-207.0933 825.0002,-207.0573 829.0324,-203.4935 821.0003,-207.0213 821.0003,-207.0213"/>
<ellipse fill="none" stroke="#000000" cx="817.8005" cy="-206.9925" rx="3.2" ry="3.2"/>
</g>
<!-- sahulchar_units&#45;&gt;global_SiteMaster -->
<g id="edge41" class="edge">
<title>sahulchar_units:w&#45;&gt;global_SiteMaster:e</title>
<path fill="none" stroke="#000000" stroke-dasharray="5,2" d="M814.4119,-207.0933C695.0228,-207.0933 659.8314,-207.0933 533.5,-207.0933"/>
<polygon fill="#000000" stroke="#000000" points="821,-207.0934 829,-210.6933 825,-207.0934 829,-207.0933 829,-207.0933 829,-207.0933 825,-207.0934 829,-203.4933 821,-207.0934 821,-207.0934"/>
<ellipse fill="none" stroke="#000000" cx="817.8" cy="-207.0934" rx="3.2" ry="3.2"/>
</g>
<!-- sahulchar_units_points_EPSG3857 -->
<g id="node25" class="node">
<title>sahulchar_units_points_EPSG3857</title>
<g id="a_node25"><a xlink:href="../../tables/sahulchar_units_points_EPSG3857.html" xlink:title="sahulchar_units_points_EPSG3857" target="_top">
<polygon fill="#ffffff" stroke="transparent" points="774,-997.5933 774,-1058.5933 1014,-1058.5933 1014,-997.5933 774,-997.5933"/>
<polygon fill="#f5f5f5" stroke="transparent" points="774,-1035.0933 774,-1058.0933 1014,-1058.0933 1014,-1035.0933 774,-1035.0933"/>
<polygon fill="none" stroke="#000000" points="774,-1035.0933 774,-1058.0933 1014,-1058.0933 1014,-1035.0933 774,-1035.0933"/>
<text text-anchor="start" x="779" y="-1043.6933" font-family="Helvetica,sans-Serif" font-weight="bold" font-size="11.00" fill="#000000">sahulchar_units_points_EPSG3857</text>
<text text-anchor="start" x="979.5219" y="-1043.1933" font-family="Helvetica,sans-Serif" font-size="11.00" fill="#000000">[table]</text>
<polygon fill="none" stroke="#000000" points="774,-1016.0933 774,-1035.0933 1014,-1035.0933 1014,-1016.0933 774,-1016.0933"/>
<text text-anchor="start" x="777" y="-1022.1933" font-family="Helvetica,sans-Serif" font-size="11.00" fill="#000000">...</text>
<polygon fill="#ffffff" stroke="transparent" points="774,-997.0933 774,-1016.0933 873,-1016.0933 873,-997.0933 774,-997.0933"/>
<polygon fill="none" stroke="#000000" points="774,-997.0933 774,-1016.0933 873,-1016.0933 873,-997.0933 774,-997.0933"/>
<text text-anchor="start" x="777" y="-1003.1933" font-family="Helvetica,sans-Serif" font-size="11.00" fill="#000000">&lt; 1</text>
<polygon fill="#ffffff" stroke="transparent" points="873,-997.0933 873,-1016.0933 962,-1016.0933 962,-997.0933 873,-997.0933"/>
<polygon fill="none" stroke="#000000" points="873,-997.0933 873,-1016.0933 962,-1016.0933 962,-997.0933 873,-997.0933"/>
<text text-anchor="start" x="914.3807" y="-1003.1933" font-family="Helvetica,sans-Serif" font-size="11.00" fill="#000000">531 rows</text>
<polygon fill="#ffffff" stroke="transparent" points="962,-997.0933 962,-1016.0933 1014,-1016.0933 1014,-997.0933 962,-997.0933"/>
<polygon fill="none" stroke="#000000" points="962,-997.0933 962,-1016.0933 1014,-1016.0933 1014,-997.0933 962,-997.0933"/>
<text text-anchor="start" x="1004.8862" y="-1003.1933" font-family="Helvetica,sans-Serif" font-size="11.00" fill="#000000"> &#160;</text>
</a>
</g>
</g>
<!-- sahulchar_units_points_EPSG3857&#45;&gt;global_UnitMaster -->
<g id="edge43" class="edge">
<title>sahulchar_units_points_EPSG3857:w&#45;&gt;global_UnitMaster:e</title>
<path fill="none" stroke="#000000" stroke-dasharray="5,2" d="M763.4146,-1024.3952C690.6562,-1014.6127 665.4693,-904.4343 657.2332,-846.7895"/>
<polygon fill="#000000" stroke="#000000" points="773.465,-1021.0494 772.9385,-1029.032 771.3419,-1028.9267 771.8685,-1020.9441 773.465,-1021.0494"/>
<polyline fill="none" stroke="#000000" points="774,-1025.0933 770.0087,-1024.8301 "/>
<ellipse fill="none" stroke="#000000" cx="766.8156" cy="-1024.6195" rx="3.2" ry="3.2"/>
</g>
</g>
</svg>
