<?xml version="1.0" encoding="UTF-8" standalone="no"?>
<!DOCTYPE svg PUBLIC "-//W3C//DTD SVG 1.1//EN"
 "http://www.w3.org/Graphics/SVG/1.1/DTD/svg11.dtd">
<!-- Generated by graphviz version 2.40.1 (20161225.0304)
 -->
<!-- Title: twoDegreesRelationshipsDiagram Pages: 1 -->
<svg width="603pt" height="357pt"
 viewBox="0.00 0.00 603.00 357.20" xmlns="http://www.w3.org/2000/svg" xmlns:xlink="http://www.w3.org/1999/xlink">
<g id="graph0" class="graph" transform="scale(1 1) rotate(0) translate(4 353.2)">
<title>twoDegreesRelationshipsDiagram</title>
<polygon fill="#ffffff" stroke="transparent" points="-4,4 -4,-353.2 599,-353.2 599,4 -4,4"/>
<text text-anchor="middle" x="72.4936" y="-7.3" font-family="Helvetica,sans-Serif" font-size="11.00" fill="#000000">Generated by SchemaSpy</text>
<!-- char_Sample -->
<g id="node1" class="node">
<title>char_Sample</title>
<g id="a_node1"><a xlink:href="../../tables/char_Sample.html" xlink:title="char_Sample" target="_top">
<polygon fill="#ffffff" stroke="transparent" points="390,-123.7 390,-323.7 587,-323.7 587,-123.7 390,-123.7"/>
<polygon fill="#f5f5f5" stroke="transparent" points="392.5,-298.7 392.5,-321.7 585.5,-321.7 585.5,-298.7 392.5,-298.7"/>
<polygon fill="none" stroke="#000000" points="392.5,-298.7 392.5,-321.7 585.5,-321.7 585.5,-298.7 392.5,-298.7"/>
<text text-anchor="start" x="397.5" y="-307.3" font-family="Helvetica,sans-Serif" font-weight="bold" font-size="11.00" fill="#000000">char_Sample</text>
<text text-anchor="start" x="550.5437" y="-306.8" font-family="Helvetica,sans-Serif" font-size="11.00" fill="#000000">[table]</text>
<polygon fill="none" stroke="#000000" points="392.5,-276.7 392.5,-298.7 493.5,-298.7 493.5,-276.7 392.5,-276.7"/>
<image xlink:href="../../images/primaryKeys.png" width="11px" height="12px" preserveAspectRatio="xMinYMin meet" x="397.5" y="-293.7"/>
<text text-anchor="start" x="412.5" y="-283.8" font-family="Helvetica,sans-Serif" font-size="11.00" fill="#000000">SMPID</text>
<polygon fill="none" stroke="#000000" points="493.5,-276.7 493.5,-298.7 585.5,-298.7 585.5,-276.7 493.5,-276.7"/>
<text text-anchor="start" x="496.5" y="-284.4" font-family="Helvetica,sans-Serif" font-size="11.00" fill="#000000">serial[10]</text>
<polygon fill="none" stroke="#000000" points="392.5,-254.7 392.5,-276.7 493.5,-276.7 493.5,-254.7 392.5,-254.7"/>
<image xlink:href="../../images/foreignKeys.png" width="11px" height="12px" preserveAspectRatio="xMinYMin meet" x="397.5" y="-271.7"/>
<text text-anchor="start" x="412.5" y="-261.8" font-family="Helvetica,sans-Serif" font-size="11.00" fill="#000000">UNITID</text>
<polygon fill="none" stroke="#000000" points="493.5,-254.7 493.5,-276.7 585.5,-276.7 585.5,-254.7 493.5,-254.7"/>
<text text-anchor="start" x="496.5" y="-262.4" font-family="Helvetica,sans-Serif" font-size="11.00" fill="#000000">int4[10]</text>
<polygon fill="none" stroke="#000000" points="392.5,-232.7 392.5,-254.7 493.5,-254.7 493.5,-232.7 392.5,-232.7"/>
<text text-anchor="start" x="412.5" y="-239.8" font-family="Helvetica,sans-Serif" font-size="11.00" fill="#000000">SMPNAME</text>
<polygon fill="none" stroke="#000000" points="493.5,-232.7 493.5,-254.7 585.5,-254.7 585.5,-232.7 493.5,-232.7"/>
<text text-anchor="start" x="496.5" y="-240.4" font-family="Helvetica,sans-Serif" font-size="11.00" fill="#000000">text[2147483647]</text>
<polygon fill="none" stroke="#000000" points="392.5,-210.7 392.5,-232.7 493.5,-232.7 493.5,-210.7 392.5,-210.7"/>
<text text-anchor="start" x="412.5" y="-217.8" font-family="Helvetica,sans-Serif" font-size="11.00" fill="#000000">SMPDEPTH</text>
<polygon fill="none" stroke="#000000" points="493.5,-210.7 493.5,-232.7 585.5,-232.7 585.5,-210.7 493.5,-210.7"/>
<text text-anchor="start" x="496.5" y="-218.4" font-family="Helvetica,sans-Serif" font-size="11.00" fill="#000000">numeric[0]</text>
<polygon fill="none" stroke="#000000" points="392.5,-188.7 392.5,-210.7 493.5,-210.7 493.5,-188.7 392.5,-188.7"/>
<text text-anchor="start" x="412.5" y="-195.8" font-family="Helvetica,sans-Serif" font-size="11.00" fill="#000000">SMPCOMMT</text>
<polygon fill="none" stroke="#000000" points="493.5,-188.7 493.5,-210.7 585.5,-210.7 585.5,-188.7 493.5,-188.7"/>
<text text-anchor="start" x="496.5" y="-196.4" font-family="Helvetica,sans-Serif" font-size="11.00" fill="#000000">text[2147483647]</text>
<polygon fill="none" stroke="#000000" points="392.5,-166.7 392.5,-188.7 493.5,-188.7 493.5,-166.7 392.5,-166.7"/>
<text text-anchor="start" x="412.5" y="-173.8" font-family="Helvetica,sans-Serif" font-size="11.00" fill="#000000">CREATED_AT</text>
<polygon fill="none" stroke="#000000" points="493.5,-166.7 493.5,-188.7 585.5,-188.7 585.5,-166.7 493.5,-166.7"/>
<text text-anchor="start" x="496.1023" y="-174.4" font-family="Helvetica,sans-Serif" font-size="11.00" fill="#000000">timestamptz[35,6]</text>
<polygon fill="none" stroke="#000000" points="392.5,-144.7 392.5,-166.7 493.5,-166.7 493.5,-144.7 392.5,-144.7"/>
<text text-anchor="start" x="412.5" y="-151.8" font-family="Helvetica,sans-Serif" font-size="11.00" fill="#000000">UPDATED_AT</text>
<polygon fill="none" stroke="#000000" points="493.5,-144.7 493.5,-166.7 585.5,-166.7 585.5,-144.7 493.5,-144.7"/>
<text text-anchor="start" x="496.1023" y="-152.4" font-family="Helvetica,sans-Serif" font-size="11.00" fill="#000000">timestamptz[35,6]</text>
<polygon fill="#ffffff" stroke="transparent" points="392.5,-125.7 392.5,-144.7 420.5,-144.7 420.5,-125.7 392.5,-125.7"/>
<polygon fill="none" stroke="#000000" points="392.5,-125.7 392.5,-144.7 420.5,-144.7 420.5,-125.7 392.5,-125.7"/>
<text text-anchor="start" x="395.5" y="-131.8" font-family="Helvetica,sans-Serif" font-size="11.00" fill="#000000">&lt; 1</text>
<polygon fill="#ffffff" stroke="transparent" points="420.5,-125.7 420.5,-144.7 493.5,-144.7 493.5,-125.7 420.5,-125.7"/>
<polygon fill="none" stroke="#000000" points="420.5,-125.7 420.5,-144.7 493.5,-144.7 493.5,-125.7 420.5,-125.7"/>
<text text-anchor="start" x="430.594" y="-131.8" font-family="Helvetica,sans-Serif" font-size="11.00" fill="#000000">41.793 rows</text>
<polygon fill="#ffffff" stroke="transparent" points="493.5,-125.7 493.5,-144.7 585.5,-144.7 585.5,-125.7 493.5,-125.7"/>
<polygon fill="none" stroke="#000000" points="493.5,-125.7 493.5,-144.7 585.5,-144.7 585.5,-125.7 493.5,-125.7"/>
<text text-anchor="start" x="566.9053" y="-131.8" font-family="Helvetica,sans-Serif" font-size="11.00" fill="#000000">0 &gt;</text>
<polygon fill="none" stroke="#000000" stroke-width="2" points="391,-124.7 391,-322.7 586,-322.7 586,-124.7 391,-124.7"/>
</a>
</g>
</g>
<!-- global_UnitMaster -->
<g id="node2" class="node">
<title>global_UnitMaster</title>
<g id="a_node2"><a xlink:href="../../tables/global_UnitMaster.html" xlink:title="global_UnitMaster" target="_top">
<polygon fill="#ffffff" stroke="transparent" points="198,-85.2 198,-300.2 341,-300.2 341,-85.2 198,-85.2"/>
<polygon fill="#f5f5f5" stroke="transparent" points="198.5,-276.7 198.5,-299.7 341.5,-299.7 341.5,-276.7 198.5,-276.7"/>
<polygon fill="none" stroke="#000000" points="198.5,-276.7 198.5,-299.7 341.5,-299.7 341.5,-276.7 198.5,-276.7"/>
<text text-anchor="start" x="203.5" y="-285.3" font-family="Helvetica,sans-Serif" font-weight="bold" font-size="11.00" fill="#000000">global_UnitMaster</text>
<text text-anchor="start" x="307.0219" y="-284.8" font-family="Helvetica,sans-Serif" font-size="11.00" fill="#000000">[table]</text>
<polygon fill="none" stroke="#000000" points="198.5,-254.7 198.5,-276.7 341.5,-276.7 341.5,-254.7 198.5,-254.7"/>
<image xlink:href="../../images/primaryKeys.png" width="11px" height="12px" preserveAspectRatio="xMinYMin meet" x="203.5" y="-271.7"/>
<text text-anchor="start" x="227.5" y="-261.8" font-family="Helvetica,sans-Serif" font-size="11.00" fill="#000000">UNITID</text>
<polygon fill="none" stroke="#000000" points="198.5,-232.7 198.5,-254.7 341.5,-254.7 341.5,-232.7 198.5,-232.7"/>
<image xlink:href="../../images/foreignKeys.png" width="11px" height="12px" preserveAspectRatio="xMinYMin meet" x="203.5" y="-249.7"/>
<text text-anchor="start" x="227.5" y="-239.8" font-family="Helvetica,sans-Serif" font-size="11.00" fill="#000000">SITEID</text>
<polygon fill="#ffffff" stroke="transparent" points="198.5,-210.7 198.5,-232.7 341.5,-232.7 341.5,-210.7 198.5,-210.7"/>
<polygon fill="none" stroke="#000000" points="198.5,-210.7 198.5,-232.7 341.5,-232.7 341.5,-210.7 198.5,-210.7"/>
<text text-anchor="start" x="227.5" y="-217.8" font-family="Helvetica,sans-Serif" font-size="11.00" fill="#000000">UNITHANDLE</text>
<polygon fill="none" stroke="#000000" points="198.5,-188.7 198.5,-210.7 341.5,-210.7 341.5,-188.7 198.5,-188.7"/>
<image xlink:href="../../images/foreignKeys.png" width="11px" height="12px" preserveAspectRatio="xMinYMin meet" x="203.5" y="-205.7"/>
<text text-anchor="start" x="227.5" y="-195.8" font-family="Helvetica,sans-Serif" font-size="11.00" fill="#000000">UNITTYPEID</text>
<polygon fill="none" stroke="#000000" points="198.5,-166.7 198.5,-188.7 341.5,-188.7 341.5,-166.7 198.5,-166.7"/>
<image xlink:href="../../images/foreignKeys.png" width="11px" height="12px" preserveAspectRatio="xMinYMin meet" x="203.5" y="-183.7"/>
<text text-anchor="start" x="227.5" y="-173.8" font-family="Helvetica,sans-Serif" font-size="11.00" fill="#000000">COLLECTID</text>
<polygon fill="none" stroke="#000000" points="198.5,-144.7 198.5,-166.7 341.5,-166.7 341.5,-144.7 198.5,-144.7"/>
<image xlink:href="../../images/foreignKeys.png" width="11px" height="12px" preserveAspectRatio="xMinYMin meet" x="203.5" y="-161.7"/>
<text text-anchor="start" x="227.5" y="-151.8" font-family="Helvetica,sans-Serif" font-size="11.00" fill="#000000">DEPOSITID</text>
<polygon fill="#ffffff" stroke="transparent" points="198.5,-122.7 198.5,-144.7 341.5,-144.7 341.5,-122.7 198.5,-122.7"/>
<polygon fill="none" stroke="#000000" points="198.5,-122.7 198.5,-144.7 341.5,-144.7 341.5,-122.7 198.5,-122.7"/>
<text text-anchor="start" x="227.5" y="-129.8" font-family="Helvetica,sans-Serif" font-size="11.00" fill="#000000">NEO_HANDLE</text>
<polygon fill="none" stroke="#000000" points="198.5,-103.7 198.5,-122.7 341.5,-122.7 341.5,-103.7 198.5,-103.7"/>
<text text-anchor="start" x="201.5" y="-109.8" font-family="Helvetica,sans-Serif" font-size="11.00" fill="#000000">...</text>
<polygon fill="#ffffff" stroke="transparent" points="198.5,-84.7 198.5,-103.7 244.5,-103.7 244.5,-84.7 198.5,-84.7"/>
<polygon fill="none" stroke="#000000" points="198.5,-84.7 198.5,-103.7 244.5,-103.7 244.5,-84.7 198.5,-84.7"/>
<text text-anchor="start" x="201.5" y="-90.8" font-family="Helvetica,sans-Serif" font-size="11.00" fill="#000000">&lt; 4</text>
<polygon fill="#ffffff" stroke="transparent" points="244.5,-84.7 244.5,-103.7 307.5,-103.7 307.5,-84.7 244.5,-84.7"/>
<polygon fill="none" stroke="#000000" points="244.5,-84.7 244.5,-103.7 307.5,-103.7 307.5,-84.7 244.5,-84.7"/>
<text text-anchor="start" x="259.8807" y="-90.8" font-family="Helvetica,sans-Serif" font-size="11.00" fill="#000000">531 rows</text>
<polygon fill="#ffffff" stroke="transparent" points="307.5,-84.7 307.5,-103.7 341.5,-103.7 341.5,-84.7 307.5,-84.7"/>
<polygon fill="none" stroke="#000000" points="307.5,-84.7 307.5,-103.7 341.5,-103.7 341.5,-84.7 307.5,-84.7"/>
<text text-anchor="start" x="322.9053" y="-90.8" font-family="Helvetica,sans-Serif" font-size="11.00" fill="#000000">1 &gt;</text>
</a>
</g>
</g>
<!-- char_Sample&#45;&gt;global_UnitMaster -->
<g id="edge1" class="edge">
<title>char_Sample:w&#45;&gt;global_UnitMaster:e</title>
<path fill="none" stroke="#000000" d="M377.776,-265.7C365.7815,-265.7 358.3229,-265.7 341.5,-265.7"/>
<polygon fill="#000000" stroke="#000000" points="384.5,-265.7001 392.5,-269.3 388.5,-265.7 392.5,-265.7 392.5,-265.7 392.5,-265.7 388.5,-265.7 392.5,-262.1 384.5,-265.7001 384.5,-265.7001"/>
<ellipse fill="none" stroke="#000000" cx="381.3" cy="-265.7001" rx="3.2" ry="3.2"/>
</g>
<!-- cabah_col_mtdID -->
<g id="node3" class="node">
<title>cabah_col_mtdID</title>
<g id="a_node3"><a xlink:href="../../tables/cabah_col_mtdID.html" xlink:title="cabah_col_mtdID" target="_top">
<polygon fill="#ffffff" stroke="transparent" points="9.5,-120.2 9.5,-181.2 147.5,-181.2 147.5,-120.2 9.5,-120.2"/>
<polygon fill="#f5f5f5" stroke="transparent" points="9.5,-157.7 9.5,-180.7 147.5,-180.7 147.5,-157.7 9.5,-157.7"/>
<polygon fill="none" stroke="#000000" points="9.5,-157.7 9.5,-180.7 147.5,-180.7 147.5,-157.7 9.5,-157.7"/>
<text text-anchor="start" x="14.5" y="-166.3" font-family="Helvetica,sans-Serif" font-weight="bold" font-size="11.00" fill="#000000">cabah_col_mtdID</text>
<text text-anchor="start" x="113.0219" y="-165.8" font-family="Helvetica,sans-Serif" font-size="11.00" fill="#000000">[table]</text>
<polygon fill="none" stroke="#000000" points="9.5,-138.7 9.5,-157.7 147.5,-157.7 147.5,-138.7 9.5,-138.7"/>
<text text-anchor="start" x="12.5" y="-144.8" font-family="Helvetica,sans-Serif" font-size="11.00" fill="#000000">...</text>
<polygon fill="#ffffff" stroke="transparent" points="9.5,-119.7 9.5,-138.7 56.5,-138.7 56.5,-119.7 9.5,-119.7"/>
<polygon fill="none" stroke="#000000" points="9.5,-119.7 9.5,-138.7 56.5,-138.7 56.5,-119.7 9.5,-119.7"/>
<text text-anchor="start" x="12.5" y="-125.8" font-family="Helvetica,sans-Serif" font-size="11.00" fill="#000000">&lt; 1</text>
<polygon fill="#ffffff" stroke="transparent" points="56.5,-119.7 56.5,-138.7 113.5,-138.7 113.5,-119.7 56.5,-119.7"/>
<polygon fill="none" stroke="#000000" points="56.5,-119.7 56.5,-138.7 113.5,-138.7 113.5,-119.7 56.5,-119.7"/>
<text text-anchor="start" x="71.9956" y="-125.8" font-family="Helvetica,sans-Serif" font-size="11.00" fill="#000000">42 rows</text>
<polygon fill="#ffffff" stroke="transparent" points="113.5,-119.7 113.5,-138.7 147.5,-138.7 147.5,-119.7 113.5,-119.7"/>
<polygon fill="none" stroke="#000000" points="113.5,-119.7 113.5,-138.7 147.5,-138.7 147.5,-119.7 113.5,-119.7"/>
<text text-anchor="start" x="128.9053" y="-125.8" font-family="Helvetica,sans-Serif" font-size="11.00" fill="#000000">7 &gt;</text>
</a>
</g>
</g>
<!-- global_UnitMaster&#45;&gt;cabah_col_mtdID -->
<g id="edge2" class="edge">
<title>global_UnitMaster:w&#45;&gt;cabah_col_mtdID:e</title>
<path fill="none" stroke="#000000" d="M184.2724,-173.778C171.4935,-165.6462 167.8394,-147.7 147.5,-147.7"/>
<polygon fill="#000000" stroke="#000000" points="190.7877,-175.574 197.5433,-181.1706 194.6438,-176.637 198.5,-177.7 198.5,-177.7 198.5,-177.7 194.6438,-176.637 199.4567,-174.2294 190.7877,-175.574 190.7877,-175.574"/>
<ellipse fill="none" stroke="#000000" cx="187.7027" cy="-174.7236" rx="3.2" ry="3.2"/>
</g>
<!-- cabah_depositID -->
<g id="node4" class="node">
<title>cabah_depositID</title>
<g id="a_node4"><a xlink:href="../../tables/cabah_depositID.html" xlink:title="cabah_depositID" target="_top">
<polygon fill="#ffffff" stroke="transparent" points="11,-38.2 11,-99.2 146,-99.2 146,-38.2 11,-38.2"/>
<polygon fill="#f5f5f5" stroke="transparent" points="11.5,-75.7 11.5,-98.7 146.5,-98.7 146.5,-75.7 11.5,-75.7"/>
<polygon fill="none" stroke="#000000" points="11.5,-75.7 11.5,-98.7 146.5,-98.7 146.5,-75.7 11.5,-75.7"/>
<text text-anchor="start" x="16.5" y="-84.3" font-family="Helvetica,sans-Serif" font-weight="bold" font-size="11.00" fill="#000000">cabah_depositID</text>
<text text-anchor="start" x="112.0219" y="-83.8" font-family="Helvetica,sans-Serif" font-size="11.00" fill="#000000">[table]</text>
<polygon fill="none" stroke="#000000" points="11.5,-56.7 11.5,-75.7 146.5,-75.7 146.5,-56.7 11.5,-56.7"/>
<text text-anchor="start" x="14.5" y="-62.8" font-family="Helvetica,sans-Serif" font-size="11.00" fill="#000000">...</text>
<polygon fill="#ffffff" stroke="transparent" points="11.5,-37.7 11.5,-56.7 53.5,-56.7 53.5,-37.7 11.5,-37.7"/>
<polygon fill="none" stroke="#000000" points="11.5,-37.7 11.5,-56.7 53.5,-56.7 53.5,-37.7 11.5,-37.7"/>
<text text-anchor="start" x="14.5" y="-43.8" font-family="Helvetica,sans-Serif" font-size="11.00" fill="#000000">&lt; 1</text>
<polygon fill="#ffffff" stroke="transparent" points="53.5,-37.7 53.5,-56.7 114.5,-56.7 114.5,-37.7 53.5,-37.7"/>
<polygon fill="none" stroke="#000000" points="53.5,-37.7 53.5,-56.7 114.5,-56.7 114.5,-37.7 53.5,-37.7"/>
<text text-anchor="start" x="66.8807" y="-43.8" font-family="Helvetica,sans-Serif" font-size="11.00" fill="#000000">117 rows</text>
<polygon fill="#ffffff" stroke="transparent" points="114.5,-37.7 114.5,-56.7 146.5,-56.7 146.5,-37.7 114.5,-37.7"/>
<polygon fill="none" stroke="#000000" points="114.5,-37.7 114.5,-56.7 146.5,-56.7 146.5,-37.7 114.5,-37.7"/>
<text text-anchor="start" x="127.9053" y="-43.8" font-family="Helvetica,sans-Serif" font-size="11.00" fill="#000000">2 &gt;</text>
</a>
</g>
</g>
<!-- global_UnitMaster&#45;&gt;cabah_depositID -->
<g id="edge3" class="edge">
<title>global_UnitMaster:w&#45;&gt;cabah_depositID:e</title>
<path fill="none" stroke="#000000" d="M184.5805,-151.599C161.2784,-133.9924 186.7415,-65.7 146.5,-65.7"/>
<polygon fill="#000000" stroke="#000000" points="190.8261,-153.4391 197.4826,-159.1532 194.6631,-154.5695 198.5,-155.7 198.5,-155.7 198.5,-155.7 194.6631,-154.5695 199.5174,-152.2468 190.8261,-153.4391 190.8261,-153.4391"/>
<ellipse fill="none" stroke="#000000" cx="187.7566" cy="-152.5347" rx="3.2" ry="3.2"/>
</g>
<!-- global_SiteMaster -->
<g id="node5" class="node">
<title>global_SiteMaster</title>
<g id="a_node5"><a xlink:href="../../tables/global_SiteMaster.html" xlink:title="global_SiteMaster" target="_top">
<polygon fill="#ffffff" stroke="transparent" points="8,-284.2 8,-345.2 149,-345.2 149,-284.2 8,-284.2"/>
<polygon fill="#f5f5f5" stroke="transparent" points="8.5,-321.7 8.5,-344.7 149.5,-344.7 149.5,-321.7 8.5,-321.7"/>
<polygon fill="none" stroke="#000000" points="8.5,-321.7 8.5,-344.7 149.5,-344.7 149.5,-321.7 8.5,-321.7"/>
<text text-anchor="start" x="13.5" y="-330.3" font-family="Helvetica,sans-Serif" font-weight="bold" font-size="11.00" fill="#000000">global_SiteMaster</text>
<text text-anchor="start" x="115.0219" y="-329.8" font-family="Helvetica,sans-Serif" font-size="11.00" fill="#000000">[table]</text>
<polygon fill="none" stroke="#000000" points="8.5,-302.7 8.5,-321.7 149.5,-321.7 149.5,-302.7 8.5,-302.7"/>
<text text-anchor="start" x="11.5" y="-308.8" font-family="Helvetica,sans-Serif" font-size="11.00" fill="#000000">...</text>
<polygon fill="#ffffff" stroke="transparent" points="8.5,-283.7 8.5,-302.7 46.5,-302.7 46.5,-283.7 8.5,-283.7"/>
<polygon fill="none" stroke="#000000" points="8.5,-283.7 8.5,-302.7 46.5,-302.7 46.5,-283.7 8.5,-283.7"/>
<text text-anchor="start" x="11.5" y="-289.8" font-family="Helvetica,sans-Serif" font-size="11.00" fill="#000000">&lt; 8</text>
<polygon fill="#ffffff" stroke="transparent" points="46.5,-283.7 46.5,-302.7 119.5,-302.7 119.5,-283.7 46.5,-283.7"/>
<polygon fill="none" stroke="#000000" points="46.5,-283.7 46.5,-302.7 119.5,-302.7 119.5,-283.7 46.5,-283.7"/>
<text text-anchor="start" x="56.594" y="-289.8" font-family="Helvetica,sans-Serif" font-size="11.00" fill="#000000">23.734 rows</text>
<polygon fill="#ffffff" stroke="transparent" points="119.5,-283.7 119.5,-302.7 149.5,-302.7 149.5,-283.7 119.5,-283.7"/>
<polygon fill="none" stroke="#000000" points="119.5,-283.7 119.5,-302.7 149.5,-302.7 149.5,-283.7 119.5,-283.7"/>
<text text-anchor="start" x="130.9053" y="-289.8" font-family="Helvetica,sans-Serif" font-size="11.00" fill="#000000">6 &gt;</text>
</a>
</g>
</g>
<!-- global_UnitMaster&#45;&gt;global_SiteMaster -->
<g id="edge4" class="edge">
<title>global_UnitMaster:w&#45;&gt;global_SiteMaster:e</title>
<path fill="none" stroke="#000000" d="M184.6785,-248.5904C167.9277,-264.1822 180.6397,-311.7 149.5,-311.7"/>
<polygon fill="#000000" stroke="#000000" points="190.9582,-246.3685 199.7008,-247.0938 194.7291,-245.0343 198.5,-243.7 198.5,-243.7 198.5,-243.7 194.7291,-245.0343 197.2992,-240.3062 190.9582,-246.3685 190.9582,-246.3685"/>
<ellipse fill="none" stroke="#000000" cx="187.9414" cy="-247.4359" rx="3.2" ry="3.2"/>
</g>
<!-- cabah_unittypeID -->
<g id="node6" class="node">
<title>cabah_unittypeID</title>
<g id="a_node6"><a xlink:href="../../tables/cabah_unittypeID.html" xlink:title="cabah_unittypeID" target="_top">
<polygon fill="#ffffff" stroke="transparent" points="9,-202.2 9,-263.2 148,-263.2 148,-202.2 9,-202.2"/>
<polygon fill="#f5f5f5" stroke="transparent" points="9.5,-239.7 9.5,-262.7 148.5,-262.7 148.5,-239.7 9.5,-239.7"/>
<polygon fill="none" stroke="#000000" points="9.5,-239.7 9.5,-262.7 148.5,-262.7 148.5,-239.7 9.5,-239.7"/>
<text text-anchor="start" x="14.5" y="-248.3" font-family="Helvetica,sans-Serif" font-weight="bold" font-size="11.00" fill="#000000">cabah_unittypeID</text>
<text text-anchor="start" x="114.0219" y="-247.8" font-family="Helvetica,sans-Serif" font-size="11.00" fill="#000000">[table]</text>
<polygon fill="none" stroke="#000000" points="9.5,-220.7 9.5,-239.7 148.5,-239.7 148.5,-220.7 9.5,-220.7"/>
<text text-anchor="start" x="12.5" y="-226.8" font-family="Helvetica,sans-Serif" font-size="11.00" fill="#000000">...</text>
<polygon fill="#ffffff" stroke="transparent" points="9.5,-201.7 9.5,-220.7 52.5,-220.7 52.5,-201.7 9.5,-201.7"/>
<polygon fill="none" stroke="#000000" points="9.5,-201.7 9.5,-220.7 52.5,-220.7 52.5,-201.7 9.5,-201.7"/>
<text text-anchor="start" x="12.5" y="-207.8" font-family="Helvetica,sans-Serif" font-size="11.00" fill="#000000"> &#160;</text>
<polygon fill="#ffffff" stroke="transparent" points="52.5,-201.7 52.5,-220.7 111.5,-220.7 111.5,-201.7 52.5,-201.7"/>
<polygon fill="none" stroke="#000000" points="52.5,-201.7 52.5,-220.7 111.5,-220.7 111.5,-201.7 52.5,-201.7"/>
<text text-anchor="start" x="69.9956" y="-207.8" font-family="Helvetica,sans-Serif" font-size="11.00" fill="#000000">15 rows</text>
<polygon fill="#ffffff" stroke="transparent" points="111.5,-201.7 111.5,-220.7 148.5,-220.7 148.5,-201.7 111.5,-201.7"/>
<polygon fill="none" stroke="#000000" points="111.5,-201.7 111.5,-220.7 148.5,-220.7 148.5,-201.7 111.5,-201.7"/>
<text text-anchor="start" x="129.9053" y="-207.8" font-family="Helvetica,sans-Serif" font-size="11.00" fill="#000000">1 &gt;</text>
</a>
</g>
</g>
<!-- global_UnitMaster&#45;&gt;cabah_unittypeID -->
<g id="edge5" class="edge">
<title>global_UnitMaster:w&#45;&gt;cabah_unittypeID:e</title>
<path fill="none" stroke="#000000" d="M184.513,-203.622C171.99,-211.7538 168.5439,-229.7 148.5,-229.7"/>
<polygon fill="#000000" stroke="#000000" points="190.7971,-201.8599 199.472,-203.1663 194.6485,-200.78 198.5,-199.7 198.5,-199.7 198.5,-199.7 194.6485,-200.78 197.528,-196.2337 190.7971,-201.8599 190.7971,-201.8599"/>
<ellipse fill="none" stroke="#000000" cx="187.7159" cy="-202.7239" rx="3.2" ry="3.2"/>
</g>
</g>
</svg>
