<?xml version="1.0" encoding="UTF-8" standalone="no"?>
<!DOCTYPE svg PUBLIC "-//W3C//DTD SVG 1.1//EN"
 "http://www.w3.org/Graphics/SVG/1.1/DTD/svg11.dtd">
<!-- Generated by graphviz version 2.40.1 (20161225.0304)
 -->
<!-- Title: oneDegreeRelationshipsDiagramImplied Pages: 1 -->
<svg width="742pt" height="775pt"
 viewBox="0.00 0.00 742.00 775.20" xmlns="http://www.w3.org/2000/svg" xmlns:xlink="http://www.w3.org/1999/xlink">
<g id="graph0" class="graph" transform="scale(1 1) rotate(0) translate(4 771.2)">
<title>oneDegreeRelationshipsDiagramImplied</title>
<polygon fill="#ffffff" stroke="transparent" points="-4,4 -4,-771.2 738,-771.2 738,4 -4,4"/>
<text text-anchor="middle" x="72.4936" y="-7.3" font-family="Helvetica,sans-Serif" font-size="11.00" fill="#000000">Generated by SchemaSpy</text>
<!-- char_DataCore -->
<g id="node1" class="node">
<title>char_DataCore</title>
<g id="a_node1"><a xlink:href="../../tables/char_DataCore.html" xlink:title="char_DataCore" target="_top">
<polygon fill="#ffffff" stroke="transparent" points="446,-328.2 446,-763.2 570,-763.2 570,-328.2 446,-328.2"/>
<polygon fill="#f5f5f5" stroke="transparent" points="446,-739.7 446,-762.7 570,-762.7 570,-739.7 446,-739.7"/>
<polygon fill="none" stroke="#000000" points="446,-739.7 446,-762.7 570,-762.7 570,-739.7 446,-739.7"/>
<text text-anchor="start" x="451" y="-748.3" font-family="Helvetica,sans-Serif" font-weight="bold" font-size="11.00" fill="#000000">char_DataCore</text>
<text text-anchor="start" x="535.5219" y="-747.8" font-family="Helvetica,sans-Serif" font-size="11.00" fill="#000000">[table]</text>
<polygon fill="none" stroke="#000000" points="446,-717.7 446,-739.7 570,-739.7 570,-717.7 446,-717.7"/>
<image xlink:href="../../images/primaryKeys.png" width="11px" height="12px" preserveAspectRatio="xMinYMin meet" x="451" y="-734.7"/>
<text text-anchor="start" x="475" y="-724.8" font-family="Helvetica,sans-Serif" font-size="11.00" fill="#000000">OBSID</text>
<polygon fill="none" stroke="#000000" points="446,-695.7 446,-717.7 570,-717.7 570,-695.7 446,-695.7"/>
<image xlink:href="../../images/foreignKeys.png" width="11px" height="12px" preserveAspectRatio="xMinYMin meet" x="451" y="-712.7"/>
<text text-anchor="start" x="475" y="-702.8" font-family="Helvetica,sans-Serif" font-size="11.00" fill="#000000">SMPID</text>
<polygon fill="none" stroke="#000000" points="446,-673.7 446,-695.7 570,-695.7 570,-673.7 446,-673.7"/>
<image xlink:href="../../images/foreignKeys.png" width="11px" height="12px" preserveAspectRatio="xMinYMin meet" x="451" y="-690.7"/>
<text text-anchor="start" x="475" y="-680.8" font-family="Helvetica,sans-Serif" font-size="11.00" fill="#000000">LAB_ORIGID</text>
<polygon fill="none" stroke="#000000" points="446,-651.7 446,-673.7 570,-673.7 570,-651.7 446,-651.7"/>
<image xlink:href="../../images/foreignKeys.png" width="11px" height="12px" preserveAspectRatio="xMinYMin meet" x="451" y="-668.7"/>
<text text-anchor="start" x="475" y="-658.8" font-family="Helvetica,sans-Serif" font-size="11.00" fill="#000000">WHATAMI</text>
<polygon fill="none" stroke="#000000" points="446,-629.7 446,-651.7 570,-651.7 570,-629.7 446,-629.7"/>
<image xlink:href="../../images/foreignKeys.png" width="11px" height="12px" preserveAspectRatio="xMinYMin meet" x="451" y="-646.7"/>
<text text-anchor="start" x="475" y="-636.8" font-family="Helvetica,sans-Serif" font-size="11.00" fill="#000000">AGETYPEID</text>
<polygon fill="none" stroke="#000000" points="446,-607.7 446,-629.7 570,-629.7 570,-607.7 446,-607.7"/>
<image xlink:href="../../images/foreignKeys.png" width="11px" height="12px" preserveAspectRatio="xMinYMin meet" x="451" y="-624.7"/>
<text text-anchor="start" x="475" y="-614.8" font-family="Helvetica,sans-Serif" font-size="11.00" fill="#000000">METHODID</text>
<polygon fill="none" stroke="#000000" points="446,-585.7 446,-607.7 570,-607.7 570,-585.7 446,-585.7"/>
<image xlink:href="../../images/foreignKeys.png" width="11px" height="12px" preserveAspectRatio="xMinYMin meet" x="451" y="-602.7"/>
<text text-anchor="start" x="475" y="-592.8" font-family="Helvetica,sans-Serif" font-size="11.00" fill="#000000">MATERIA2ID</text>
<polygon fill="none" stroke="#000000" points="446,-563.7 446,-585.7 570,-585.7 570,-563.7 446,-563.7"/>
<image xlink:href="../../images/foreignKeys.png" width="11px" height="12px" preserveAspectRatio="xMinYMin meet" x="451" y="-580.7"/>
<text text-anchor="start" x="475" y="-570.8" font-family="Helvetica,sans-Serif" font-size="11.00" fill="#000000">CALCURVEID</text>
<polygon fill="none" stroke="#000000" points="446,-541.7 446,-563.7 570,-563.7 570,-541.7 446,-541.7"/>
<image xlink:href="../../images/foreignKeys.png" width="11px" height="12px" preserveAspectRatio="xMinYMin meet" x="451" y="-558.7"/>
<text text-anchor="start" x="475" y="-548.8" font-family="Helvetica,sans-Serif" font-size="11.00" fill="#000000">CALPROGID</text>
<polygon fill="none" stroke="#000000" points="446,-519.7 446,-541.7 570,-541.7 570,-519.7 446,-519.7"/>
<image xlink:href="../../images/foreignKeys.png" width="11px" height="12px" preserveAspectRatio="xMinYMin meet" x="451" y="-536.7"/>
<text text-anchor="start" x="475" y="-526.8" font-family="Helvetica,sans-Serif" font-size="11.00" fill="#000000">CHARMTDID</text>
<polygon fill="none" stroke="#000000" points="446,-497.7 446,-519.7 570,-519.7 570,-497.7 446,-497.7"/>
<image xlink:href="../../images/foreignKeys.png" width="11px" height="12px" preserveAspectRatio="xMinYMin meet" x="451" y="-514.7"/>
<text text-anchor="start" x="475" y="-504.8" font-family="Helvetica,sans-Serif" font-size="11.00" fill="#000000">CHARMEASID</text>
<polygon fill="none" stroke="#000000" points="446,-475.7 446,-497.7 570,-497.7 570,-475.7 446,-475.7"/>
<image xlink:href="../../images/foreignKeys.png" width="11px" height="12px" preserveAspectRatio="xMinYMin meet" x="451" y="-492.7"/>
<text text-anchor="start" x="475" y="-482.8" font-family="Helvetica,sans-Serif" font-size="11.00" fill="#000000">CHARSIZEID</text>
<polygon fill="none" stroke="#000000" points="446,-453.7 446,-475.7 570,-475.7 570,-453.7 446,-453.7"/>
<image xlink:href="../../images/foreignKeys.png" width="11px" height="12px" preserveAspectRatio="xMinYMin meet" x="451" y="-470.7"/>
<text text-anchor="start" x="475" y="-460.8" font-family="Helvetica,sans-Serif" font-size="11.00" fill="#000000">DATASRCID</text>
<polygon fill="none" stroke="#000000" points="446,-431.7 446,-453.7 570,-453.7 570,-431.7 446,-431.7"/>
<image xlink:href="../../images/foreignKeys.png" width="11px" height="12px" preserveAspectRatio="xMinYMin meet" x="451" y="-448.7"/>
<text text-anchor="start" x="475" y="-438.8" font-family="Helvetica,sans-Serif" font-size="11.00" fill="#000000">REFDBID1</text>
<polygon fill="none" stroke="#000000" points="446,-409.7 446,-431.7 570,-431.7 570,-409.7 446,-409.7"/>
<image xlink:href="../../images/foreignKeys.png" width="11px" height="12px" preserveAspectRatio="xMinYMin meet" x="451" y="-426.7"/>
<text text-anchor="start" x="475" y="-416.8" font-family="Helvetica,sans-Serif" font-size="11.00" fill="#000000">REFDBID2</text>
<polygon fill="none" stroke="#000000" points="446,-387.7 446,-409.7 570,-409.7 570,-387.7 446,-387.7"/>
<image xlink:href="../../images/foreignKeys.png" width="11px" height="12px" preserveAspectRatio="xMinYMin meet" x="451" y="-404.7"/>
<text text-anchor="start" x="475" y="-394.8" font-family="Helvetica,sans-Serif" font-size="11.00" fill="#000000">REFDBID3</text>
<polygon fill="none" stroke="#000000" points="446,-365.7 446,-387.7 570,-387.7 570,-365.7 446,-365.7"/>
<image xlink:href="../../images/foreignKeys.png" width="11px" height="12px" preserveAspectRatio="xMinYMin meet" x="451" y="-382.7"/>
<text text-anchor="start" x="475" y="-372.8" font-family="Helvetica,sans-Serif" font-size="11.00" fill="#000000">DBDOI</text>
<polygon fill="none" stroke="#000000" points="446,-346.7 446,-365.7 570,-365.7 570,-346.7 446,-346.7"/>
<text text-anchor="start" x="449" y="-352.8" font-family="Helvetica,sans-Serif" font-size="11.00" fill="#000000">...</text>
<polygon fill="#ffffff" stroke="transparent" points="446,-327.7 446,-346.7 478,-346.7 478,-327.7 446,-327.7"/>
<polygon fill="none" stroke="#000000" points="446,-327.7 446,-346.7 478,-346.7 478,-327.7 446,-327.7"/>
<text text-anchor="start" x="449" y="-333.8" font-family="Helvetica,sans-Serif" font-size="11.00" fill="#000000">&lt; 16</text>
<polygon fill="#ffffff" stroke="transparent" points="478,-327.7 478,-346.7 546,-346.7 546,-327.7 478,-327.7"/>
<polygon fill="none" stroke="#000000" points="478,-327.7 478,-346.7 546,-346.7 546,-327.7 478,-327.7"/>
<text text-anchor="start" x="483.094" y="-333.8" font-family="Helvetica,sans-Serif" font-size="11.00" fill="#000000">48.234 rows</text>
<polygon fill="#ffffff" stroke="transparent" points="546,-327.7 546,-346.7 570,-346.7 570,-327.7 546,-327.7"/>
<polygon fill="none" stroke="#000000" points="546,-327.7 546,-346.7 570,-346.7 570,-327.7 546,-327.7"/>
<text text-anchor="start" x="551.4053" y="-333.8" font-family="Helvetica,sans-Serif" font-size="11.00" fill="#000000">1 &gt;</text>
</a>
</g>
</g>
<!-- char_Sample -->
<g id="node2" class="node">
<title>char_Sample</title>
<g id="a_node2"><a xlink:href="../../tables/char_Sample.html" xlink:title="char_Sample" target="_top">
<polygon fill="#ffffff" stroke="transparent" points="200,-79.7 200,-279.7 397,-279.7 397,-79.7 200,-79.7"/>
<polygon fill="#f5f5f5" stroke="transparent" points="202.5,-254.7 202.5,-277.7 395.5,-277.7 395.5,-254.7 202.5,-254.7"/>
<polygon fill="none" stroke="#000000" points="202.5,-254.7 202.5,-277.7 395.5,-277.7 395.5,-254.7 202.5,-254.7"/>
<text text-anchor="start" x="207.5" y="-263.3" font-family="Helvetica,sans-Serif" font-weight="bold" font-size="11.00" fill="#000000">char_Sample</text>
<text text-anchor="start" x="360.5437" y="-262.8" font-family="Helvetica,sans-Serif" font-size="11.00" fill="#000000">[table]</text>
<polygon fill="none" stroke="#000000" points="202.5,-232.7 202.5,-254.7 303.5,-254.7 303.5,-232.7 202.5,-232.7"/>
<image xlink:href="../../images/primaryKeys.png" width="11px" height="12px" preserveAspectRatio="xMinYMin meet" x="207.5" y="-249.7"/>
<text text-anchor="start" x="222.5" y="-239.8" font-family="Helvetica,sans-Serif" font-size="11.00" fill="#000000">SMPID</text>
<polygon fill="none" stroke="#000000" points="303.5,-232.7 303.5,-254.7 395.5,-254.7 395.5,-232.7 303.5,-232.7"/>
<text text-anchor="start" x="306.5" y="-240.4" font-family="Helvetica,sans-Serif" font-size="11.00" fill="#000000">serial[10]</text>
<polygon fill="none" stroke="#000000" points="202.5,-210.7 202.5,-232.7 303.5,-232.7 303.5,-210.7 202.5,-210.7"/>
<image xlink:href="../../images/foreignKeys.png" width="11px" height="12px" preserveAspectRatio="xMinYMin meet" x="207.5" y="-227.7"/>
<text text-anchor="start" x="222.5" y="-217.8" font-family="Helvetica,sans-Serif" font-size="11.00" fill="#000000">UNITID</text>
<polygon fill="none" stroke="#000000" points="303.5,-210.7 303.5,-232.7 395.5,-232.7 395.5,-210.7 303.5,-210.7"/>
<text text-anchor="start" x="306.5" y="-218.4" font-family="Helvetica,sans-Serif" font-size="11.00" fill="#000000">int4[10]</text>
<polygon fill="none" stroke="#000000" points="202.5,-188.7 202.5,-210.7 303.5,-210.7 303.5,-188.7 202.5,-188.7"/>
<text text-anchor="start" x="222.5" y="-195.8" font-family="Helvetica,sans-Serif" font-size="11.00" fill="#000000">SMPNAME</text>
<polygon fill="none" stroke="#000000" points="303.5,-188.7 303.5,-210.7 395.5,-210.7 395.5,-188.7 303.5,-188.7"/>
<text text-anchor="start" x="306.5" y="-196.4" font-family="Helvetica,sans-Serif" font-size="11.00" fill="#000000">text[2147483647]</text>
<polygon fill="none" stroke="#000000" points="202.5,-166.7 202.5,-188.7 303.5,-188.7 303.5,-166.7 202.5,-166.7"/>
<text text-anchor="start" x="222.5" y="-173.8" font-family="Helvetica,sans-Serif" font-size="11.00" fill="#000000">SMPDEPTH</text>
<polygon fill="none" stroke="#000000" points="303.5,-166.7 303.5,-188.7 395.5,-188.7 395.5,-166.7 303.5,-166.7"/>
<text text-anchor="start" x="306.5" y="-174.4" font-family="Helvetica,sans-Serif" font-size="11.00" fill="#000000">numeric[0]</text>
<polygon fill="none" stroke="#000000" points="202.5,-144.7 202.5,-166.7 303.5,-166.7 303.5,-144.7 202.5,-144.7"/>
<text text-anchor="start" x="222.5" y="-151.8" font-family="Helvetica,sans-Serif" font-size="11.00" fill="#000000">SMPCOMMT</text>
<polygon fill="none" stroke="#000000" points="303.5,-144.7 303.5,-166.7 395.5,-166.7 395.5,-144.7 303.5,-144.7"/>
<text text-anchor="start" x="306.5" y="-152.4" font-family="Helvetica,sans-Serif" font-size="11.00" fill="#000000">text[2147483647]</text>
<polygon fill="none" stroke="#000000" points="202.5,-122.7 202.5,-144.7 303.5,-144.7 303.5,-122.7 202.5,-122.7"/>
<text text-anchor="start" x="222.5" y="-129.8" font-family="Helvetica,sans-Serif" font-size="11.00" fill="#000000">CREATED_AT</text>
<polygon fill="none" stroke="#000000" points="303.5,-122.7 303.5,-144.7 395.5,-144.7 395.5,-122.7 303.5,-122.7"/>
<text text-anchor="start" x="306.1023" y="-130.4" font-family="Helvetica,sans-Serif" font-size="11.00" fill="#000000">timestamptz[35,6]</text>
<polygon fill="none" stroke="#000000" points="202.5,-100.7 202.5,-122.7 303.5,-122.7 303.5,-100.7 202.5,-100.7"/>
<text text-anchor="start" x="222.5" y="-107.8" font-family="Helvetica,sans-Serif" font-size="11.00" fill="#000000">UPDATED_AT</text>
<polygon fill="none" stroke="#000000" points="303.5,-100.7 303.5,-122.7 395.5,-122.7 395.5,-100.7 303.5,-100.7"/>
<text text-anchor="start" x="306.1023" y="-108.4" font-family="Helvetica,sans-Serif" font-size="11.00" fill="#000000">timestamptz[35,6]</text>
<polygon fill="#ffffff" stroke="transparent" points="202.5,-81.7 202.5,-100.7 230.5,-100.7 230.5,-81.7 202.5,-81.7"/>
<polygon fill="none" stroke="#000000" points="202.5,-81.7 202.5,-100.7 230.5,-100.7 230.5,-81.7 202.5,-81.7"/>
<text text-anchor="start" x="205.5" y="-87.8" font-family="Helvetica,sans-Serif" font-size="11.00" fill="#000000">&lt; 1</text>
<polygon fill="#ffffff" stroke="transparent" points="230.5,-81.7 230.5,-100.7 303.5,-100.7 303.5,-81.7 230.5,-81.7"/>
<polygon fill="none" stroke="#000000" points="230.5,-81.7 230.5,-100.7 303.5,-100.7 303.5,-81.7 230.5,-81.7"/>
<text text-anchor="start" x="240.594" y="-87.8" font-family="Helvetica,sans-Serif" font-size="11.00" fill="#000000">41.793 rows</text>
<polygon fill="#ffffff" stroke="transparent" points="303.5,-81.7 303.5,-100.7 395.5,-100.7 395.5,-81.7 303.5,-81.7"/>
<polygon fill="none" stroke="#000000" points="303.5,-81.7 303.5,-100.7 395.5,-100.7 395.5,-81.7 303.5,-81.7"/>
<text text-anchor="start" x="376.9053" y="-87.8" font-family="Helvetica,sans-Serif" font-size="11.00" fill="#000000">2 &gt;</text>
<polygon fill="none" stroke="#000000" stroke-width="2" points="201,-80.7 201,-278.7 396,-278.7 396,-80.7 201,-80.7"/>
</a>
</g>
</g>
<!-- char_DataCore&#45;&gt;char_Sample -->
<g id="edge1" class="edge">
<title>char_DataCore:w&#45;&gt;char_Sample:e</title>
<path fill="none" stroke="#000000" d="M431.719,-702.9731C358.2835,-659.1555 493.5411,-243.7 395.5,-243.7"/>
<polygon fill="#000000" stroke="#000000" points="438.2592,-704.6799 445.0909,-710.1833 442.1296,-705.6899 446,-706.7 446,-706.7 446,-706.7 442.1296,-705.6899 446.9091,-703.2167 438.2592,-704.6799 438.2592,-704.6799"/>
<ellipse fill="none" stroke="#000000" cx="435.1629" cy="-703.8718" rx="3.2" ry="3.2"/>
</g>
<!-- global_UnitMaster -->
<g id="node3" class="node">
<title>global_UnitMaster</title>
<g id="a_node3"><a xlink:href="../../tables/global_UnitMaster.html" xlink:title="global_UnitMaster" target="_top">
<polygon fill="#ffffff" stroke="transparent" points="8,-38.2 8,-297.2 151,-297.2 151,-38.2 8,-38.2"/>
<polygon fill="#f5f5f5" stroke="transparent" points="8.5,-273.7 8.5,-296.7 151.5,-296.7 151.5,-273.7 8.5,-273.7"/>
<polygon fill="none" stroke="#000000" points="8.5,-273.7 8.5,-296.7 151.5,-296.7 151.5,-273.7 8.5,-273.7"/>
<text text-anchor="start" x="13.5" y="-282.3" font-family="Helvetica,sans-Serif" font-weight="bold" font-size="11.00" fill="#000000">global_UnitMaster</text>
<text text-anchor="start" x="117.0219" y="-281.8" font-family="Helvetica,sans-Serif" font-size="11.00" fill="#000000">[table]</text>
<polygon fill="none" stroke="#000000" points="8.5,-251.7 8.5,-273.7 151.5,-273.7 151.5,-251.7 8.5,-251.7"/>
<image xlink:href="../../images/primaryKeys.png" width="11px" height="12px" preserveAspectRatio="xMinYMin meet" x="13.5" y="-268.7"/>
<text text-anchor="start" x="37.5" y="-258.8" font-family="Helvetica,sans-Serif" font-size="11.00" fill="#000000">UNITID</text>
<polygon fill="none" stroke="#000000" points="8.5,-229.7 8.5,-251.7 151.5,-251.7 151.5,-229.7 8.5,-229.7"/>
<image xlink:href="../../images/foreignKeys.png" width="11px" height="12px" preserveAspectRatio="xMinYMin meet" x="13.5" y="-246.7"/>
<text text-anchor="start" x="37.5" y="-236.8" font-family="Helvetica,sans-Serif" font-size="11.00" fill="#000000">SITEID</text>
<polygon fill="#ffffff" stroke="transparent" points="8.5,-207.7 8.5,-229.7 151.5,-229.7 151.5,-207.7 8.5,-207.7"/>
<polygon fill="none" stroke="#000000" points="8.5,-207.7 8.5,-229.7 151.5,-229.7 151.5,-207.7 8.5,-207.7"/>
<text text-anchor="start" x="37.5" y="-214.8" font-family="Helvetica,sans-Serif" font-size="11.00" fill="#000000">UNITHANDLE</text>
<polygon fill="none" stroke="#000000" points="8.5,-185.7 8.5,-207.7 151.5,-207.7 151.5,-185.7 8.5,-185.7"/>
<image xlink:href="../../images/foreignKeys.png" width="11px" height="12px" preserveAspectRatio="xMinYMin meet" x="13.5" y="-202.7"/>
<text text-anchor="start" x="37.5" y="-192.8" font-family="Helvetica,sans-Serif" font-size="11.00" fill="#000000">UNITTYPEID</text>
<polygon fill="none" stroke="#000000" points="8.5,-163.7 8.5,-185.7 151.5,-185.7 151.5,-163.7 8.5,-163.7"/>
<image xlink:href="../../images/foreignKeys.png" width="11px" height="12px" preserveAspectRatio="xMinYMin meet" x="13.5" y="-180.7"/>
<text text-anchor="start" x="37.5" y="-170.8" font-family="Helvetica,sans-Serif" font-size="11.00" fill="#000000">COLLECTID</text>
<polygon fill="none" stroke="#000000" points="8.5,-141.7 8.5,-163.7 151.5,-163.7 151.5,-141.7 8.5,-141.7"/>
<image xlink:href="../../images/foreignKeys.png" width="11px" height="12px" preserveAspectRatio="xMinYMin meet" x="13.5" y="-158.7"/>
<text text-anchor="start" x="37.5" y="-148.8" font-family="Helvetica,sans-Serif" font-size="11.00" fill="#000000">DEPOSITID</text>
<polygon fill="#ffffff" stroke="transparent" points="8.5,-119.7 8.5,-141.7 151.5,-141.7 151.5,-119.7 8.5,-119.7"/>
<polygon fill="none" stroke="#000000" points="8.5,-119.7 8.5,-141.7 151.5,-141.7 151.5,-119.7 8.5,-119.7"/>
<text text-anchor="start" x="37.5" y="-126.8" font-family="Helvetica,sans-Serif" font-size="11.00" fill="#000000">NEO_HANDLE</text>
<polygon fill="none" stroke="#000000" points="8.5,-97.7 8.5,-119.7 151.5,-119.7 151.5,-97.7 8.5,-97.7"/>
<image xlink:href="../../images/foreignKeys.png" width="11px" height="12px" preserveAspectRatio="xMinYMin meet" x="13.5" y="-114.7"/>
<text text-anchor="start" x="37.5" y="-104.8" font-family="Helvetica,sans-Serif" font-size="11.00" fill="#000000">UNIT_REF</text>
<polygon fill="#ffffff" stroke="transparent" points="8.5,-75.7 8.5,-97.7 151.5,-97.7 151.5,-75.7 8.5,-75.7"/>
<polygon fill="none" stroke="#000000" points="8.5,-75.7 8.5,-97.7 151.5,-97.7 151.5,-75.7 8.5,-75.7"/>
<text text-anchor="start" x="37.5" y="-82.8" font-family="Helvetica,sans-Serif" font-size="11.00" fill="#000000">NEO_UNITID</text>
<polygon fill="none" stroke="#000000" points="8.5,-56.7 8.5,-75.7 151.5,-75.7 151.5,-56.7 8.5,-56.7"/>
<text text-anchor="start" x="11.5" y="-62.8" font-family="Helvetica,sans-Serif" font-size="11.00" fill="#000000">...</text>
<polygon fill="#ffffff" stroke="transparent" points="8.5,-37.7 8.5,-56.7 51.5,-56.7 51.5,-37.7 8.5,-37.7"/>
<polygon fill="none" stroke="#000000" points="8.5,-37.7 8.5,-56.7 51.5,-56.7 51.5,-37.7 8.5,-37.7"/>
<text text-anchor="start" x="11.5" y="-43.8" font-family="Helvetica,sans-Serif" font-size="11.00" fill="#000000">&lt; 5</text>
<polygon fill="#ffffff" stroke="transparent" points="51.5,-37.7 51.5,-56.7 112.5,-56.7 112.5,-37.7 51.5,-37.7"/>
<polygon fill="none" stroke="#000000" points="51.5,-37.7 51.5,-56.7 112.5,-56.7 112.5,-37.7 51.5,-37.7"/>
<text text-anchor="start" x="64.8807" y="-43.8" font-family="Helvetica,sans-Serif" font-size="11.00" fill="#000000">607 rows</text>
<polygon fill="#ffffff" stroke="transparent" points="112.5,-37.7 112.5,-56.7 151.5,-56.7 151.5,-37.7 112.5,-37.7"/>
<polygon fill="none" stroke="#000000" points="112.5,-37.7 112.5,-56.7 151.5,-56.7 151.5,-37.7 112.5,-37.7"/>
<text text-anchor="start" x="126.7904" y="-43.8" font-family="Helvetica,sans-Serif" font-size="11.00" fill="#000000">11 &gt;</text>
</a>
</g>
</g>
<!-- char_Sample&#45;&gt;global_UnitMaster -->
<g id="edge2" class="edge">
<title>char_Sample:w&#45;&gt;global_UnitMaster:e</title>
<path fill="none" stroke="#000000" d="M188.6568,-226.0877C174.8325,-236.6646 174.6756,-262.7 151.5,-262.7"/>
<polygon fill="#000000" stroke="#000000" points="194.8739,-224.1172 203.5877,-225.1317 198.6869,-222.9086 202.5,-221.7 202.5,-221.7 202.5,-221.7 198.6869,-222.9086 201.4123,-218.2683 194.8739,-224.1172 194.8739,-224.1172"/>
<ellipse fill="none" stroke="#000000" cx="191.8235" cy="-225.0841" rx="3.2" ry="3.2"/>
</g>
<!-- sahulchar -->
<g id="node4" class="node">
<title>sahulchar</title>
<g id="a_node4"><a xlink:href="../../tables/sahulchar.html" xlink:title="sahulchar" target="_top">
<polygon fill="#ffffff" stroke="transparent" points="619,-211.2 619,-448.2 726,-448.2 726,-211.2 619,-211.2"/>
<polygon fill="#f5f5f5" stroke="transparent" points="619.5,-424.7 619.5,-447.7 726.5,-447.7 726.5,-424.7 619.5,-424.7"/>
<polygon fill="none" stroke="#000000" points="619.5,-424.7 619.5,-447.7 726.5,-447.7 726.5,-424.7 619.5,-424.7"/>
<text text-anchor="start" x="624.5" y="-433.3" font-family="Helvetica,sans-Serif" font-weight="bold" font-size="11.00" fill="#000000">sahulchar</text>
<text text-anchor="start" x="691.5437" y="-432.8" font-family="Helvetica,sans-Serif" font-size="11.00" fill="#000000">[table]</text>
<polygon fill="#ffffff" stroke="transparent" points="619.5,-402.7 619.5,-424.7 726.5,-424.7 726.5,-402.7 619.5,-402.7"/>
<polygon fill="none" stroke="#000000" points="619.5,-402.7 619.5,-424.7 726.5,-424.7 726.5,-402.7 619.5,-402.7"/>
<text text-anchor="start" x="639.5" y="-409.8" font-family="Helvetica,sans-Serif" font-size="11.00" fill="#000000">geom</text>
<polygon fill="none" stroke="#000000" points="619.5,-380.7 619.5,-402.7 726.5,-402.7 726.5,-380.7 619.5,-380.7"/>
<image xlink:href="../../images/foreignKeys.png" width="11px" height="12px" preserveAspectRatio="xMinYMin meet" x="624.5" y="-397.7"/>
<text text-anchor="start" x="639.5" y="-387.8" font-family="Helvetica,sans-Serif" font-size="11.00" fill="#000000">OBSID</text>
<polygon fill="none" stroke="#000000" points="619.5,-358.7 619.5,-380.7 726.5,-380.7 726.5,-358.7 619.5,-358.7"/>
<image xlink:href="../../images/foreignKeys.png" width="11px" height="12px" preserveAspectRatio="xMinYMin meet" x="624.5" y="-375.7"/>
<text text-anchor="start" x="639.5" y="-365.8" font-family="Helvetica,sans-Serif" font-size="11.00" fill="#000000">DBDOI</text>
<polygon fill="none" stroke="#000000" points="619.5,-336.7 619.5,-358.7 726.5,-358.7 726.5,-336.7 619.5,-336.7"/>
<image xlink:href="../../images/foreignKeys.png" width="11px" height="12px" preserveAspectRatio="xMinYMin meet" x="624.5" y="-353.7"/>
<text text-anchor="start" x="639.5" y="-343.8" font-family="Helvetica,sans-Serif" font-size="11.00" fill="#000000">METASITEID</text>
<polygon fill="none" stroke="#000000" points="619.5,-314.7 619.5,-336.7 726.5,-336.7 726.5,-314.7 619.5,-314.7"/>
<image xlink:href="../../images/foreignKeys.png" width="11px" height="12px" preserveAspectRatio="xMinYMin meet" x="624.5" y="-331.7"/>
<text text-anchor="start" x="639.5" y="-321.8" font-family="Helvetica,sans-Serif" font-size="11.00" fill="#000000">SITEID</text>
<polygon fill="none" stroke="#000000" points="619.5,-292.7 619.5,-314.7 726.5,-314.7 726.5,-292.7 619.5,-292.7"/>
<image xlink:href="../../images/foreignKeys.png" width="11px" height="12px" preserveAspectRatio="xMinYMin meet" x="624.5" y="-309.7"/>
<text text-anchor="start" x="639.5" y="-299.8" font-family="Helvetica,sans-Serif" font-size="11.00" fill="#000000">UNITID</text>
<polygon fill="none" stroke="#000000" points="619.5,-270.7 619.5,-292.7 726.5,-292.7 726.5,-270.7 619.5,-270.7"/>
<image xlink:href="../../images/foreignKeys.png" width="11px" height="12px" preserveAspectRatio="xMinYMin meet" x="624.5" y="-287.7"/>
<text text-anchor="start" x="639.5" y="-277.8" font-family="Helvetica,sans-Serif" font-size="11.00" fill="#000000">SMPID</text>
<polygon fill="none" stroke="#000000" points="619.5,-248.7 619.5,-270.7 726.5,-270.7 726.5,-248.7 619.5,-248.7"/>
<image xlink:href="../../images/primaryKeys.png" width="11px" height="12px" preserveAspectRatio="xMinYMin meet" x="624.5" y="-265.7"/>
<text text-anchor="start" x="639.5" y="-255.8" font-family="Helvetica,sans-Serif" font-size="11.00" fill="#000000">id</text>
<polygon fill="none" stroke="#000000" points="619.5,-229.7 619.5,-248.7 726.5,-248.7 726.5,-229.7 619.5,-229.7"/>
<text text-anchor="start" x="622.5" y="-235.8" font-family="Helvetica,sans-Serif" font-size="11.00" fill="#000000">...</text>
<polygon fill="#ffffff" stroke="transparent" points="619.5,-210.7 619.5,-229.7 644.5,-229.7 644.5,-210.7 619.5,-210.7"/>
<polygon fill="none" stroke="#000000" points="619.5,-210.7 619.5,-229.7 644.5,-229.7 644.5,-210.7 619.5,-210.7"/>
<text text-anchor="start" x="622.5" y="-216.8" font-family="Helvetica,sans-Serif" font-size="11.00" fill="#000000">&lt; 6</text>
<polygon fill="#ffffff" stroke="transparent" points="644.5,-210.7 644.5,-229.7 711.5,-229.7 711.5,-210.7 644.5,-210.7"/>
<polygon fill="none" stroke="#000000" points="644.5,-210.7 644.5,-229.7 711.5,-229.7 711.5,-210.7 644.5,-210.7"/>
<text text-anchor="start" x="648.594" y="-216.8" font-family="Helvetica,sans-Serif" font-size="11.00" fill="#000000">48.234 rows</text>
<polygon fill="#ffffff" stroke="transparent" points="711.5,-210.7 711.5,-229.7 726.5,-229.7 726.5,-210.7 711.5,-210.7"/>
<polygon fill="none" stroke="#000000" points="711.5,-210.7 711.5,-229.7 726.5,-229.7 726.5,-210.7 711.5,-210.7"/>
<text text-anchor="start" x="717.3862" y="-216.8" font-family="Helvetica,sans-Serif" font-size="11.00" fill="#000000"> &#160;</text>
</a>
</g>
</g>
<!-- sahulchar&#45;&gt;char_DataCore -->
<g id="edge3" class="edge">
<title>sahulchar:w&#45;&gt;char_DataCore:e</title>
<path fill="none" stroke="#000000" stroke-dasharray="5,2" d="M604.9989,-392.9203C485.423,-414.9788 716.0628,-728.7 570,-728.7"/>
<polygon fill="#000000" stroke="#000000" points="611.5282,-392.3709 619.8019,-395.2873 615.5141,-392.0354 619.5,-391.7 619.5,-391.7 619.5,-391.7 615.5141,-392.0354 619.1981,-388.1127 611.5282,-392.3709 611.5282,-392.3709"/>
<ellipse fill="none" stroke="#000000" cx="608.3394" cy="-392.6392" rx="3.2" ry="3.2"/>
</g>
<!-- sahulchar&#45;&gt;char_Sample -->
<g id="edge4" class="edge">
<title>sahulchar:w&#45;&gt;char_Sample:e</title>
<path fill="none" stroke="#000000" stroke-dasharray="5,2" d="M604.9804,-281.4266C516.1305,-278.0091 491.4488,-243.7 395.5,-243.7"/>
<polygon fill="#000000" stroke="#000000" points="611.5014,-281.5493 619.4322,-285.2994 615.5007,-281.6247 619.5,-281.7 619.5,-281.7 619.5,-281.7 615.5007,-281.6247 619.5678,-278.1006 611.5014,-281.5493 611.5014,-281.5493"/>
<ellipse fill="none" stroke="#000000" cx="608.302" cy="-281.4891" rx="3.2" ry="3.2"/>
</g>
<!-- sahulchar&#45;&gt;global_UnitMaster -->
<g id="edge5" class="edge">
<title>sahulchar:w&#45;&gt;global_UnitMaster:e</title>
<path fill="none" stroke="#000000" stroke-dasharray="5,2" d="M605.0055,-303.7905C426.3877,-306.0293 367.9049,-348.5348 192,-290.7 171.2118,-283.8652 173.383,-262.7 151.5,-262.7"/>
<polygon fill="#000000" stroke="#000000" points="611.5002,-303.75 619.5225,-307.2999 615.5001,-303.725 619.5,-303.7 619.5,-303.7 619.5,-303.7 615.5001,-303.725 619.4775,-300.1001 611.5002,-303.75 611.5002,-303.75"/>
<ellipse fill="none" stroke="#000000" cx="608.3002" cy="-303.77" rx="3.2" ry="3.2"/>
</g>
</g>
</svg>
