<?xml version="1.0" encoding="UTF-8" standalone="no"?>
<!DOCTYPE svg PUBLIC "-//W3C//DTD SVG 1.1//EN"
 "http://www.w3.org/Graphics/SVG/1.1/DTD/svg11.dtd">
<!-- Generated by graphviz version 2.40.1 (20161225.0304)
 -->
<!-- Title: oneDegreeRelationshipsDiagram Pages: 1 -->
<svg width="413pt" height="289pt"
 viewBox="0.00 0.00 413.00 288.70" xmlns="http://www.w3.org/2000/svg" xmlns:xlink="http://www.w3.org/1999/xlink">
<g id="graph0" class="graph" transform="scale(1 1) rotate(0) translate(4 284.7)">
<title>oneDegreeRelationshipsDiagram</title>
<polygon fill="#ffffff" stroke="transparent" points="-4,4 -4,-284.7 409,-284.7 409,4 -4,4"/>
<text text-anchor="middle" x="72.4936" y="-7.3" font-family="Helvetica,sans-Serif" font-size="11.00" fill="#000000">Generated by SchemaSpy</text>
<!-- char_Sample -->
<g id="node1" class="node">
<title>char_Sample</title>
<g id="a_node1"><a xlink:href="../../tables/char_Sample.html" xlink:title="char_Sample" target="_top">
<polygon fill="#ffffff" stroke="transparent" points="200,-76.7 200,-276.7 397,-276.7 397,-76.7 200,-76.7"/>
<polygon fill="#f5f5f5" stroke="transparent" points="202.5,-251.7 202.5,-274.7 395.5,-274.7 395.5,-251.7 202.5,-251.7"/>
<polygon fill="none" stroke="#000000" points="202.5,-251.7 202.5,-274.7 395.5,-274.7 395.5,-251.7 202.5,-251.7"/>
<text text-anchor="start" x="207.5" y="-260.3" font-family="Helvetica,sans-Serif" font-weight="bold" font-size="11.00" fill="#000000">char_Sample</text>
<text text-anchor="start" x="360.5437" y="-259.8" font-family="Helvetica,sans-Serif" font-size="11.00" fill="#000000">[table]</text>
<polygon fill="none" stroke="#000000" points="202.5,-229.7 202.5,-251.7 303.5,-251.7 303.5,-229.7 202.5,-229.7"/>
<image xlink:href="../../images/primaryKeys.png" width="11px" height="12px" preserveAspectRatio="xMinYMin meet" x="207.5" y="-246.7"/>
<text text-anchor="start" x="222.5" y="-236.8" font-family="Helvetica,sans-Serif" font-size="11.00" fill="#000000">SMPID</text>
<polygon fill="none" stroke="#000000" points="303.5,-229.7 303.5,-251.7 395.5,-251.7 395.5,-229.7 303.5,-229.7"/>
<text text-anchor="start" x="306.5" y="-237.4" font-family="Helvetica,sans-Serif" font-size="11.00" fill="#000000">serial[10]</text>
<polygon fill="none" stroke="#000000" points="202.5,-207.7 202.5,-229.7 303.5,-229.7 303.5,-207.7 202.5,-207.7"/>
<image xlink:href="../../images/foreignKeys.png" width="11px" height="12px" preserveAspectRatio="xMinYMin meet" x="207.5" y="-224.7"/>
<text text-anchor="start" x="222.5" y="-214.8" font-family="Helvetica,sans-Serif" font-size="11.00" fill="#000000">UNITID</text>
<polygon fill="none" stroke="#000000" points="303.5,-207.7 303.5,-229.7 395.5,-229.7 395.5,-207.7 303.5,-207.7"/>
<text text-anchor="start" x="306.5" y="-215.4" font-family="Helvetica,sans-Serif" font-size="11.00" fill="#000000">int4[10]</text>
<polygon fill="none" stroke="#000000" points="202.5,-185.7 202.5,-207.7 303.5,-207.7 303.5,-185.7 202.5,-185.7"/>
<text text-anchor="start" x="222.5" y="-192.8" font-family="Helvetica,sans-Serif" font-size="11.00" fill="#000000">SMPNAME</text>
<polygon fill="none" stroke="#000000" points="303.5,-185.7 303.5,-207.7 395.5,-207.7 395.5,-185.7 303.5,-185.7"/>
<text text-anchor="start" x="306.5" y="-193.4" font-family="Helvetica,sans-Serif" font-size="11.00" fill="#000000">text[2147483647]</text>
<polygon fill="none" stroke="#000000" points="202.5,-163.7 202.5,-185.7 303.5,-185.7 303.5,-163.7 202.5,-163.7"/>
<text text-anchor="start" x="222.5" y="-170.8" font-family="Helvetica,sans-Serif" font-size="11.00" fill="#000000">SMPDEPTH</text>
<polygon fill="none" stroke="#000000" points="303.5,-163.7 303.5,-185.7 395.5,-185.7 395.5,-163.7 303.5,-163.7"/>
<text text-anchor="start" x="306.5" y="-171.4" font-family="Helvetica,sans-Serif" font-size="11.00" fill="#000000">numeric[0]</text>
<polygon fill="none" stroke="#000000" points="202.5,-141.7 202.5,-163.7 303.5,-163.7 303.5,-141.7 202.5,-141.7"/>
<text text-anchor="start" x="222.5" y="-148.8" font-family="Helvetica,sans-Serif" font-size="11.00" fill="#000000">SMPCOMMT</text>
<polygon fill="none" stroke="#000000" points="303.5,-141.7 303.5,-163.7 395.5,-163.7 395.5,-141.7 303.5,-141.7"/>
<text text-anchor="start" x="306.5" y="-149.4" font-family="Helvetica,sans-Serif" font-size="11.00" fill="#000000">text[2147483647]</text>
<polygon fill="none" stroke="#000000" points="202.5,-119.7 202.5,-141.7 303.5,-141.7 303.5,-119.7 202.5,-119.7"/>
<text text-anchor="start" x="222.5" y="-126.8" font-family="Helvetica,sans-Serif" font-size="11.00" fill="#000000">CREATED_AT</text>
<polygon fill="none" stroke="#000000" points="303.5,-119.7 303.5,-141.7 395.5,-141.7 395.5,-119.7 303.5,-119.7"/>
<text text-anchor="start" x="306.1023" y="-127.4" font-family="Helvetica,sans-Serif" font-size="11.00" fill="#000000">timestamptz[35,6]</text>
<polygon fill="none" stroke="#000000" points="202.5,-97.7 202.5,-119.7 303.5,-119.7 303.5,-97.7 202.5,-97.7"/>
<text text-anchor="start" x="222.5" y="-104.8" font-family="Helvetica,sans-Serif" font-size="11.00" fill="#000000">UPDATED_AT</text>
<polygon fill="none" stroke="#000000" points="303.5,-97.7 303.5,-119.7 395.5,-119.7 395.5,-97.7 303.5,-97.7"/>
<text text-anchor="start" x="306.1023" y="-105.4" font-family="Helvetica,sans-Serif" font-size="11.00" fill="#000000">timestamptz[35,6]</text>
<polygon fill="#ffffff" stroke="transparent" points="202.5,-78.7 202.5,-97.7 230.5,-97.7 230.5,-78.7 202.5,-78.7"/>
<polygon fill="none" stroke="#000000" points="202.5,-78.7 202.5,-97.7 230.5,-97.7 230.5,-78.7 202.5,-78.7"/>
<text text-anchor="start" x="205.5" y="-84.8" font-family="Helvetica,sans-Serif" font-size="11.00" fill="#000000">&lt; 1</text>
<polygon fill="#ffffff" stroke="transparent" points="230.5,-78.7 230.5,-97.7 303.5,-97.7 303.5,-78.7 230.5,-78.7"/>
<polygon fill="none" stroke="#000000" points="230.5,-78.7 230.5,-97.7 303.5,-97.7 303.5,-78.7 230.5,-78.7"/>
<text text-anchor="start" x="240.594" y="-84.8" font-family="Helvetica,sans-Serif" font-size="11.00" fill="#000000">41.793 rows</text>
<polygon fill="#ffffff" stroke="transparent" points="303.5,-78.7 303.5,-97.7 395.5,-97.7 395.5,-78.7 303.5,-78.7"/>
<polygon fill="none" stroke="#000000" points="303.5,-78.7 303.5,-97.7 395.5,-97.7 395.5,-78.7 303.5,-78.7"/>
<text text-anchor="start" x="376.9053" y="-84.8" font-family="Helvetica,sans-Serif" font-size="11.00" fill="#000000">0 &gt;</text>
<polygon fill="none" stroke="#000000" stroke-width="2" points="201,-77.7 201,-275.7 396,-275.7 396,-77.7 201,-77.7"/>
</a>
</g>
</g>
<!-- global_UnitMaster -->
<g id="node2" class="node">
<title>global_UnitMaster</title>
<g id="a_node2"><a xlink:href="../../tables/global_UnitMaster.html" xlink:title="global_UnitMaster" target="_top">
<polygon fill="#ffffff" stroke="transparent" points="8,-38.2 8,-253.2 151,-253.2 151,-38.2 8,-38.2"/>
<polygon fill="#f5f5f5" stroke="transparent" points="8.5,-229.7 8.5,-252.7 151.5,-252.7 151.5,-229.7 8.5,-229.7"/>
<polygon fill="none" stroke="#000000" points="8.5,-229.7 8.5,-252.7 151.5,-252.7 151.5,-229.7 8.5,-229.7"/>
<text text-anchor="start" x="13.5" y="-238.3" font-family="Helvetica,sans-Serif" font-weight="bold" font-size="11.00" fill="#000000">global_UnitMaster</text>
<text text-anchor="start" x="117.0219" y="-237.8" font-family="Helvetica,sans-Serif" font-size="11.00" fill="#000000">[table]</text>
<polygon fill="none" stroke="#000000" points="8.5,-207.7 8.5,-229.7 151.5,-229.7 151.5,-207.7 8.5,-207.7"/>
<image xlink:href="../../images/primaryKeys.png" width="11px" height="12px" preserveAspectRatio="xMinYMin meet" x="13.5" y="-224.7"/>
<text text-anchor="start" x="37.5" y="-214.8" font-family="Helvetica,sans-Serif" font-size="11.00" fill="#000000">UNITID</text>
<polygon fill="none" stroke="#000000" points="8.5,-185.7 8.5,-207.7 151.5,-207.7 151.5,-185.7 8.5,-185.7"/>
<image xlink:href="../../images/foreignKeys.png" width="11px" height="12px" preserveAspectRatio="xMinYMin meet" x="13.5" y="-202.7"/>
<text text-anchor="start" x="37.5" y="-192.8" font-family="Helvetica,sans-Serif" font-size="11.00" fill="#000000">SITEID</text>
<polygon fill="#ffffff" stroke="transparent" points="8.5,-163.7 8.5,-185.7 151.5,-185.7 151.5,-163.7 8.5,-163.7"/>
<polygon fill="none" stroke="#000000" points="8.5,-163.7 8.5,-185.7 151.5,-185.7 151.5,-163.7 8.5,-163.7"/>
<text text-anchor="start" x="37.5" y="-170.8" font-family="Helvetica,sans-Serif" font-size="11.00" fill="#000000">UNITHANDLE</text>
<polygon fill="none" stroke="#000000" points="8.5,-141.7 8.5,-163.7 151.5,-163.7 151.5,-141.7 8.5,-141.7"/>
<image xlink:href="../../images/foreignKeys.png" width="11px" height="12px" preserveAspectRatio="xMinYMin meet" x="13.5" y="-158.7"/>
<text text-anchor="start" x="37.5" y="-148.8" font-family="Helvetica,sans-Serif" font-size="11.00" fill="#000000">UNITTYPEID</text>
<polygon fill="none" stroke="#000000" points="8.5,-119.7 8.5,-141.7 151.5,-141.7 151.5,-119.7 8.5,-119.7"/>
<image xlink:href="../../images/foreignKeys.png" width="11px" height="12px" preserveAspectRatio="xMinYMin meet" x="13.5" y="-136.7"/>
<text text-anchor="start" x="37.5" y="-126.8" font-family="Helvetica,sans-Serif" font-size="11.00" fill="#000000">COLLECTID</text>
<polygon fill="none" stroke="#000000" points="8.5,-97.7 8.5,-119.7 151.5,-119.7 151.5,-97.7 8.5,-97.7"/>
<image xlink:href="../../images/foreignKeys.png" width="11px" height="12px" preserveAspectRatio="xMinYMin meet" x="13.5" y="-114.7"/>
<text text-anchor="start" x="37.5" y="-104.8" font-family="Helvetica,sans-Serif" font-size="11.00" fill="#000000">DEPOSITID</text>
<polygon fill="#ffffff" stroke="transparent" points="8.5,-75.7 8.5,-97.7 151.5,-97.7 151.5,-75.7 8.5,-75.7"/>
<polygon fill="none" stroke="#000000" points="8.5,-75.7 8.5,-97.7 151.5,-97.7 151.5,-75.7 8.5,-75.7"/>
<text text-anchor="start" x="37.5" y="-82.8" font-family="Helvetica,sans-Serif" font-size="11.00" fill="#000000">NEO_HANDLE</text>
<polygon fill="none" stroke="#000000" points="8.5,-56.7 8.5,-75.7 151.5,-75.7 151.5,-56.7 8.5,-56.7"/>
<text text-anchor="start" x="11.5" y="-62.8" font-family="Helvetica,sans-Serif" font-size="11.00" fill="#000000">...</text>
<polygon fill="#ffffff" stroke="transparent" points="8.5,-37.7 8.5,-56.7 54.5,-56.7 54.5,-37.7 8.5,-37.7"/>
<polygon fill="none" stroke="#000000" points="8.5,-37.7 8.5,-56.7 54.5,-56.7 54.5,-37.7 8.5,-37.7"/>
<text text-anchor="start" x="11.5" y="-43.8" font-family="Helvetica,sans-Serif" font-size="11.00" fill="#000000">&lt; 4</text>
<polygon fill="#ffffff" stroke="transparent" points="54.5,-37.7 54.5,-56.7 117.5,-56.7 117.5,-37.7 54.5,-37.7"/>
<polygon fill="none" stroke="#000000" points="54.5,-37.7 54.5,-56.7 117.5,-56.7 117.5,-37.7 54.5,-37.7"/>
<text text-anchor="start" x="69.8807" y="-43.8" font-family="Helvetica,sans-Serif" font-size="11.00" fill="#000000">531 rows</text>
<polygon fill="#ffffff" stroke="transparent" points="117.5,-37.7 117.5,-56.7 151.5,-56.7 151.5,-37.7 117.5,-37.7"/>
<polygon fill="none" stroke="#000000" points="117.5,-37.7 117.5,-56.7 151.5,-56.7 151.5,-37.7 117.5,-37.7"/>
<text text-anchor="start" x="132.9053" y="-43.8" font-family="Helvetica,sans-Serif" font-size="11.00" fill="#000000">1 &gt;</text>
</a>
</g>
</g>
<!-- char_Sample&#45;&gt;global_UnitMaster -->
<g id="edge1" class="edge">
<title>char_Sample:w&#45;&gt;global_UnitMaster:e</title>
<path fill="none" stroke="#000000" d="M187.776,-218.7C175.7815,-218.7 168.3229,-218.7 151.5,-218.7"/>
<polygon fill="#000000" stroke="#000000" points="194.5,-218.7001 202.5,-222.3 198.5,-218.7 202.5,-218.7 202.5,-218.7 202.5,-218.7 198.5,-218.7 202.5,-215.1 194.5,-218.7001 194.5,-218.7001"/>
<ellipse fill="none" stroke="#000000" cx="191.3" cy="-218.7001" rx="3.2" ry="3.2"/>
</g>
</g>
</svg>
