<?xml version="1.0" encoding="UTF-8" standalone="no"?>
<!DOCTYPE svg PUBLIC "-//W3C//DTD SVG 1.1//EN"
 "http://www.w3.org/Graphics/SVG/1.1/DTD/svg11.dtd">
<!-- Generated by graphviz version 2.40.1 (20161225.0304)
 -->
<!-- Title: oneDegreeRelationshipsDiagram Pages: 1 -->
<svg width="254pt" height="1262pt"
 viewBox="0.00 0.00 254.00 1262.20" xmlns="http://www.w3.org/2000/svg" xmlns:xlink="http://www.w3.org/1999/xlink">
<g id="graph0" class="graph" transform="scale(1 1) rotate(0) translate(4 1258.2)">
<title>oneDegreeRelationshipsDiagram</title>
<polygon fill="#ffffff" stroke="transparent" points="-4,4 -4,-1258.2 250,-1258.2 250,4 -4,4"/>
<text text-anchor="middle" x="72.4936" y="-7.3" font-family="Helvetica,sans-Serif" font-size="11.00" fill="#000000">Generated by SchemaSpy</text>
<!-- crn_xxl_basins -->
<g id="node1" class="node">
<title>crn_xxl_basins</title>
<g id="a_node1"><a xlink:href="../../tables/crn_xxl_basins.html" xlink:title="crn_xxl_basins" target="_top">
<polygon fill="#ffffff" stroke="transparent" points="8,-38.2 8,-1250.2 238,-1250.2 238,-38.2 8,-38.2"/>
<polygon fill="#f5f5f5" stroke="transparent" points="10,-1225.2 10,-1248.2 236,-1248.2 236,-1225.2 10,-1225.2"/>
<polygon fill="none" stroke="#000000" points="10,-1225.2 10,-1248.2 236,-1248.2 236,-1225.2 10,-1225.2"/>
<text text-anchor="start" x="15" y="-1233.8" font-family="Helvetica,sans-Serif" font-weight="bold" font-size="11.00" fill="#000000">crn_xxl_basins</text>
<text text-anchor="start" x="201.0437" y="-1233.3" font-family="Helvetica,sans-Serif" font-size="11.00" fill="#000000">[table]</text>
<polygon fill="none" stroke="#000000" points="10,-1203.2 10,-1225.2 117,-1225.2 117,-1203.2 10,-1203.2"/>
<text text-anchor="start" x="30" y="-1210.3" font-family="Helvetica,sans-Serif" font-size="11.00" fill="#000000">geom</text>
<polygon fill="none" stroke="#000000" points="117,-1203.2 117,-1225.2 236,-1225.2 236,-1203.2 117,-1203.2"/>
<text text-anchor="start" x="119.9485" y="-1210.9" font-family="Helvetica,sans-Serif" font-size="11.00" fill="#000000">geometry[2147483647]</text>
<polygon fill="none" stroke="#000000" points="10,-1181.2 10,-1203.2 117,-1203.2 117,-1181.2 10,-1181.2"/>
<text text-anchor="start" x="30" y="-1188.3" font-family="Helvetica,sans-Serif" font-size="11.00" fill="#000000">OBSID1</text>
<polygon fill="none" stroke="#000000" points="117,-1181.2 117,-1203.2 236,-1203.2 236,-1181.2 117,-1181.2"/>
<text text-anchor="start" x="120" y="-1188.9" font-family="Helvetica,sans-Serif" font-size="11.00" fill="#000000">text[2147483647]</text>
<polygon fill="none" stroke="#000000" points="10,-1159.2 10,-1181.2 117,-1181.2 117,-1159.2 10,-1159.2"/>
<text text-anchor="start" x="30" y="-1166.3" font-family="Helvetica,sans-Serif" font-size="11.00" fill="#000000">OBSID2</text>
<polygon fill="none" stroke="#000000" points="117,-1159.2 117,-1181.2 236,-1181.2 236,-1159.2 117,-1159.2"/>
<text text-anchor="start" x="120" y="-1166.9" font-family="Helvetica,sans-Serif" font-size="11.00" fill="#000000">text[2147483647]</text>
<polygon fill="none" stroke="#000000" points="10,-1137.2 10,-1159.2 117,-1159.2 117,-1137.2 10,-1137.2"/>
<image xlink:href="../../images/foreignKeys.png" width="11px" height="12px" preserveAspectRatio="xMinYMin meet" x="15" y="-1154.2"/>
<text text-anchor="start" x="30" y="-1144.3" font-family="Helvetica,sans-Serif" font-size="11.00" fill="#000000">STUDYID</text>
<polygon fill="none" stroke="#000000" points="117,-1137.2 117,-1159.2 236,-1159.2 236,-1137.2 117,-1137.2"/>
<text text-anchor="start" x="120" y="-1144.9" font-family="Helvetica,sans-Serif" font-size="11.00" fill="#000000">varchar[5]</text>
<polygon fill="none" stroke="#000000" points="10,-1115.2 10,-1137.2 117,-1137.2 117,-1115.2 10,-1115.2"/>
<text text-anchor="start" x="30" y="-1122.3" font-family="Helvetica,sans-Serif" font-size="11.00" fill="#000000">CRN_SUBCMP</text>
<polygon fill="none" stroke="#000000" points="117,-1115.2 117,-1137.2 236,-1137.2 236,-1115.2 117,-1115.2"/>
<text text-anchor="start" x="120" y="-1122.9" font-family="Helvetica,sans-Serif" font-size="11.00" fill="#000000">varchar[3]</text>
<polygon fill="none" stroke="#000000" points="10,-1093.2 10,-1115.2 117,-1115.2 117,-1093.2 10,-1093.2"/>
<text text-anchor="start" x="30" y="-1100.3" font-family="Helvetica,sans-Serif" font-size="11.00" fill="#000000">DBVERNO</text>
<polygon fill="none" stroke="#000000" points="117,-1093.2 117,-1115.2 236,-1115.2 236,-1093.2 117,-1093.2"/>
<text text-anchor="start" x="120" y="-1100.9" font-family="Helvetica,sans-Serif" font-size="11.00" fill="#000000">numeric[7,3]</text>
<polygon fill="none" stroke="#000000" points="10,-1071.2 10,-1093.2 117,-1093.2 117,-1071.2 10,-1071.2"/>
<text text-anchor="start" x="30" y="-1078.3" font-family="Helvetica,sans-Serif" font-size="11.00" fill="#000000">CNTRY</text>
<polygon fill="none" stroke="#000000" points="117,-1071.2 117,-1093.2 236,-1093.2 236,-1071.2 117,-1071.2"/>
<text text-anchor="start" x="120" y="-1078.9" font-family="Helvetica,sans-Serif" font-size="11.00" fill="#000000">varchar[2147483647]</text>
<polygon fill="none" stroke="#000000" points="10,-1049.2 10,-1071.2 117,-1071.2 117,-1049.2 10,-1049.2"/>
<text text-anchor="start" x="30" y="-1056.3" font-family="Helvetica,sans-Serif" font-size="11.00" fill="#000000">REGION_INT</text>
<polygon fill="none" stroke="#000000" points="117,-1049.2 117,-1071.2 236,-1071.2 236,-1049.2 117,-1049.2"/>
<text text-anchor="start" x="120" y="-1056.9" font-family="Helvetica,sans-Serif" font-size="11.00" fill="#000000">text[2147483647]</text>
<polygon fill="none" stroke="#000000" points="10,-1027.2 10,-1049.2 117,-1049.2 117,-1027.2 10,-1027.2"/>
<text text-anchor="start" x="30" y="-1034.3" font-family="Helvetica,sans-Serif" font-size="11.00" fill="#000000">BASIN</text>
<polygon fill="none" stroke="#000000" points="117,-1027.2 117,-1049.2 236,-1049.2 236,-1027.2 117,-1027.2"/>
<text text-anchor="start" x="120" y="-1034.9" font-family="Helvetica,sans-Serif" font-size="11.00" fill="#000000">text[2147483647]</text>
<polygon fill="none" stroke="#000000" points="10,-1005.2 10,-1027.2 117,-1027.2 117,-1005.2 10,-1005.2"/>
<text text-anchor="start" x="30" y="-1012.3" font-family="Helvetica,sans-Serif" font-size="11.00" fill="#000000">AHGFL1</text>
<polygon fill="none" stroke="#000000" points="117,-1005.2 117,-1027.2 236,-1027.2 236,-1005.2 117,-1005.2"/>
<text text-anchor="start" x="120" y="-1012.9" font-family="Helvetica,sans-Serif" font-size="11.00" fill="#000000">varchar[3]</text>
<polygon fill="none" stroke="#000000" points="10,-983.2 10,-1005.2 117,-1005.2 117,-983.2 10,-983.2"/>
<text text-anchor="start" x="30" y="-990.3" font-family="Helvetica,sans-Serif" font-size="11.00" fill="#000000">REFDBID</text>
<polygon fill="none" stroke="#000000" points="117,-983.2 117,-1005.2 236,-1005.2 236,-983.2 117,-983.2"/>
<text text-anchor="start" x="120" y="-990.9" font-family="Helvetica,sans-Serif" font-size="11.00" fill="#000000">text[2147483647]</text>
<polygon fill="none" stroke="#000000" points="10,-961.2 10,-983.2 117,-983.2 117,-961.2 10,-961.2"/>
<image xlink:href="../../images/foreignKeys.png" width="11px" height="12px" preserveAspectRatio="xMinYMin meet" x="15" y="-978.2"/>
<text text-anchor="start" x="30" y="-968.3" font-family="Helvetica,sans-Serif" font-size="11.00" fill="#000000">OAID</text>
<polygon fill="none" stroke="#000000" points="117,-961.2 117,-983.2 236,-983.2 236,-961.2 117,-961.2"/>
<text text-anchor="start" x="120" y="-968.9" font-family="Helvetica,sans-Serif" font-size="11.00" fill="#000000">varchar[11]</text>
<polygon fill="none" stroke="#000000" points="10,-939.2 10,-961.2 117,-961.2 117,-939.2 10,-939.2"/>
<text text-anchor="start" x="30" y="-946.3" font-family="Helvetica,sans-Serif" font-size="11.00" fill="#000000">AUTHOR</text>
<polygon fill="none" stroke="#000000" points="117,-939.2 117,-961.2 236,-961.2 236,-939.2 117,-939.2"/>
<text text-anchor="start" x="120" y="-946.9" font-family="Helvetica,sans-Serif" font-size="11.00" fill="#000000">text[2147483647]</text>
<polygon fill="none" stroke="#000000" points="10,-917.2 10,-939.2 117,-939.2 117,-917.2 10,-917.2"/>
<text text-anchor="start" x="30" y="-924.3" font-family="Helvetica,sans-Serif" font-size="11.00" fill="#000000">PUBYEAR</text>
<polygon fill="none" stroke="#000000" points="117,-917.2 117,-939.2 236,-939.2 236,-917.2 117,-917.2"/>
<text text-anchor="start" x="120" y="-924.9" font-family="Helvetica,sans-Serif" font-size="11.00" fill="#000000">int2[5]</text>
<polygon fill="none" stroke="#000000" points="10,-895.2 10,-917.2 117,-917.2 117,-895.2 10,-895.2"/>
<text text-anchor="start" x="30" y="-902.3" font-family="Helvetica,sans-Serif" font-size="11.00" fill="#000000">REFID</text>
<polygon fill="none" stroke="#000000" points="117,-895.2 117,-917.2 236,-917.2 236,-895.2 117,-895.2"/>
<text text-anchor="start" x="120" y="-902.9" font-family="Helvetica,sans-Serif" font-size="11.00" fill="#000000">text[2147483647]</text>
<polygon fill="none" stroke="#000000" points="10,-873.2 10,-895.2 117,-895.2 117,-873.2 10,-873.2"/>
<text text-anchor="start" x="30" y="-880.3" font-family="Helvetica,sans-Serif" font-size="11.00" fill="#000000">REFDOI</text>
<polygon fill="none" stroke="#000000" points="117,-873.2 117,-895.2 236,-895.2 236,-873.2 117,-873.2"/>
<text text-anchor="start" x="120" y="-880.9" font-family="Helvetica,sans-Serif" font-size="11.00" fill="#000000">text[2147483647]</text>
<polygon fill="none" stroke="#000000" points="10,-851.2 10,-873.2 117,-873.2 117,-851.2 10,-851.2"/>
<text text-anchor="start" x="30" y="-858.3" font-family="Helvetica,sans-Serif" font-size="11.00" fill="#000000">MATERIAL</text>
<polygon fill="none" stroke="#000000" points="117,-851.2 117,-873.2 236,-873.2 236,-851.2 117,-851.2"/>
<text text-anchor="start" x="120" y="-858.9" font-family="Helvetica,sans-Serif" font-size="11.00" fill="#000000">varchar[6]</text>
<polygon fill="none" stroke="#000000" points="10,-829.2 10,-851.2 117,-851.2 117,-829.2 10,-829.2"/>
<text text-anchor="start" x="30" y="-836.3" font-family="Helvetica,sans-Serif" font-size="11.00" fill="#000000">SIZEMIN</text>
<polygon fill="none" stroke="#000000" points="117,-829.2 117,-851.2 236,-851.2 236,-829.2 117,-829.2"/>
<text text-anchor="start" x="120" y="-836.9" font-family="Helvetica,sans-Serif" font-size="11.00" fill="#000000">int4[10]</text>
<polygon fill="none" stroke="#000000" points="10,-807.2 10,-829.2 117,-829.2 117,-807.2 10,-807.2"/>
<text text-anchor="start" x="30" y="-814.3" font-family="Helvetica,sans-Serif" font-size="11.00" fill="#000000">SIZEMAX</text>
<polygon fill="none" stroke="#000000" points="117,-807.2 117,-829.2 236,-829.2 236,-807.2 117,-807.2"/>
<text text-anchor="start" x="120" y="-814.9" font-family="Helvetica,sans-Serif" font-size="11.00" fill="#000000">int4[10]</text>
<polygon fill="none" stroke="#000000" points="10,-785.2 10,-807.2 117,-807.2 117,-785.2 10,-785.2"/>
<image xlink:href="../../images/foreignKeys.png" width="11px" height="12px" preserveAspectRatio="xMinYMin meet" x="15" y="-802.2"/>
<text text-anchor="start" x="30" y="-792.3" font-family="Helvetica,sans-Serif" font-size="11.00" fill="#000000">PROJEPSGID</text>
<polygon fill="none" stroke="#000000" points="117,-785.2 117,-807.2 236,-807.2 236,-785.2 117,-785.2"/>
<text text-anchor="start" x="120" y="-792.9" font-family="Helvetica,sans-Serif" font-size="11.00" fill="#000000">int2[5]</text>
<polygon fill="none" stroke="#000000" points="10,-763.2 10,-785.2 117,-785.2 117,-763.2 10,-763.2"/>
<text text-anchor="start" x="30" y="-770.3" font-family="Helvetica,sans-Serif" font-size="11.00" fill="#000000">PROJECTION</text>
<polygon fill="none" stroke="#000000" points="117,-763.2 117,-785.2 236,-785.2 236,-763.2 117,-763.2"/>
<text text-anchor="start" x="120" y="-770.9" font-family="Helvetica,sans-Serif" font-size="11.00" fill="#000000">varchar[13]</text>
<polygon fill="none" stroke="#000000" points="10,-741.2 10,-763.2 117,-763.2 117,-741.2 10,-741.2"/>
<text text-anchor="start" x="30" y="-748.3" font-family="Helvetica,sans-Serif" font-size="11.00" fill="#000000">AREA</text>
<polygon fill="none" stroke="#000000" points="117,-741.2 117,-763.2 236,-763.2 236,-741.2 117,-741.2"/>
<text text-anchor="start" x="120" y="-748.9" font-family="Helvetica,sans-Serif" font-size="11.00" fill="#000000">numeric[12,2]</text>
<polygon fill="none" stroke="#000000" points="10,-719.2 10,-741.2 117,-741.2 117,-719.2 10,-719.2"/>
<text text-anchor="start" x="30" y="-726.3" font-family="Helvetica,sans-Serif" font-size="11.00" fill="#000000">ELEV_AVE</text>
<polygon fill="none" stroke="#000000" points="117,-719.2 117,-741.2 236,-741.2 236,-719.2 117,-719.2"/>
<text text-anchor="start" x="120" y="-726.9" font-family="Helvetica,sans-Serif" font-size="11.00" fill="#000000">numeric[6,2]</text>
<polygon fill="none" stroke="#000000" points="10,-697.2 10,-719.2 117,-719.2 117,-697.2 10,-697.2"/>
<text text-anchor="start" x="30" y="-704.3" font-family="Helvetica,sans-Serif" font-size="11.00" fill="#000000">ELEV_STD</text>
<polygon fill="none" stroke="#000000" points="117,-697.2 117,-719.2 236,-719.2 236,-697.2 117,-697.2"/>
<text text-anchor="start" x="120" y="-704.9" font-family="Helvetica,sans-Serif" font-size="11.00" fill="#000000">numeric[6,2]</text>
<polygon fill="none" stroke="#000000" points="10,-675.2 10,-697.2 117,-697.2 117,-675.2 10,-675.2"/>
<text text-anchor="start" x="30" y="-682.3" font-family="Helvetica,sans-Serif" font-size="11.00" fill="#000000">SLP_AVE</text>
<polygon fill="none" stroke="#000000" points="117,-675.2 117,-697.2 236,-697.2 236,-675.2 117,-675.2"/>
<text text-anchor="start" x="120" y="-682.9" font-family="Helvetica,sans-Serif" font-size="11.00" fill="#000000">numeric[6,2]</text>
<polygon fill="none" stroke="#000000" points="10,-653.2 10,-675.2 117,-675.2 117,-653.2 10,-653.2"/>
<text text-anchor="start" x="30" y="-660.3" font-family="Helvetica,sans-Serif" font-size="11.00" fill="#000000">SLP_STD</text>
<polygon fill="none" stroke="#000000" points="117,-653.2 117,-675.2 236,-675.2 236,-653.2 117,-653.2"/>
<text text-anchor="start" x="120" y="-660.9" font-family="Helvetica,sans-Serif" font-size="11.00" fill="#000000">numeric[6,2]</text>
<polygon fill="none" stroke="#000000" points="10,-631.2 10,-653.2 117,-653.2 117,-631.2 10,-631.2"/>
<text text-anchor="start" x="30" y="-638.3" font-family="Helvetica,sans-Serif" font-size="11.00" fill="#000000">SMP_DAY</text>
<polygon fill="none" stroke="#000000" points="117,-631.2 117,-653.2 236,-653.2 236,-631.2 117,-631.2"/>
<text text-anchor="start" x="120" y="-638.9" font-family="Helvetica,sans-Serif" font-size="11.00" fill="#000000">int2[5]</text>
<polygon fill="none" stroke="#000000" points="10,-609.2 10,-631.2 117,-631.2 117,-609.2 10,-609.2"/>
<text text-anchor="start" x="30" y="-616.3" font-family="Helvetica,sans-Serif" font-size="11.00" fill="#000000">SMP_MONTH</text>
<polygon fill="none" stroke="#000000" points="117,-609.2 117,-631.2 236,-631.2 236,-609.2 117,-609.2"/>
<text text-anchor="start" x="120" y="-616.9" font-family="Helvetica,sans-Serif" font-size="11.00" fill="#000000">int2[5]</text>
<polygon fill="none" stroke="#000000" points="10,-587.2 10,-609.2 117,-609.2 117,-587.2 10,-587.2"/>
<text text-anchor="start" x="30" y="-594.3" font-family="Helvetica,sans-Serif" font-size="11.00" fill="#000000">SMP_YEAR</text>
<polygon fill="none" stroke="#000000" points="117,-587.2 117,-609.2 236,-609.2 236,-587.2 117,-587.2"/>
<text text-anchor="start" x="120" y="-594.9" font-family="Helvetica,sans-Serif" font-size="11.00" fill="#000000">int2[5]</text>
<polygon fill="none" stroke="#000000" points="10,-565.2 10,-587.2 117,-587.2 117,-565.2 10,-565.2"/>
<text text-anchor="start" x="30" y="-572.3" font-family="Helvetica,sans-Serif" font-size="11.00" fill="#000000">SMP_COMMT</text>
<polygon fill="none" stroke="#000000" points="117,-565.2 117,-587.2 236,-587.2 236,-565.2 117,-565.2"/>
<text text-anchor="start" x="120" y="-572.9" font-family="Helvetica,sans-Serif" font-size="11.00" fill="#000000">text[2147483647]</text>
<polygon fill="none" stroke="#000000" points="10,-543.2 10,-565.2 117,-565.2 117,-543.2 10,-543.2"/>
<text text-anchor="start" x="30" y="-550.3" font-family="Helvetica,sans-Serif" font-size="11.00" fill="#000000">BE10NP</text>
<polygon fill="none" stroke="#000000" points="117,-543.2 117,-565.2 236,-565.2 236,-543.2 117,-543.2"/>
<text text-anchor="start" x="120" y="-550.9" font-family="Helvetica,sans-Serif" font-size="11.00" fill="#000000">int8[19]</text>
<polygon fill="none" stroke="#000000" points="10,-521.2 10,-543.2 117,-543.2 117,-521.2 10,-521.2"/>
<text text-anchor="start" x="30" y="-528.3" font-family="Helvetica,sans-Serif" font-size="11.00" fill="#000000">BE10NP_ERR</text>
<polygon fill="none" stroke="#000000" points="117,-521.2 117,-543.2 236,-543.2 236,-521.2 117,-521.2"/>
<text text-anchor="start" x="120" y="-528.9" font-family="Helvetica,sans-Serif" font-size="11.00" fill="#000000">int8[19]</text>
<polygon fill="none" stroke="#000000" points="10,-499.2 10,-521.2 117,-521.2 117,-499.2 10,-499.2"/>
<text text-anchor="start" x="30" y="-506.3" font-family="Helvetica,sans-Serif" font-size="11.00" fill="#000000">BE10EP</text>
<polygon fill="none" stroke="#000000" points="117,-499.2 117,-521.2 236,-521.2 236,-499.2 117,-499.2"/>
<text text-anchor="start" x="120" y="-506.9" font-family="Helvetica,sans-Serif" font-size="11.00" fill="#000000">numeric[0]</text>
<polygon fill="none" stroke="#000000" points="10,-477.2 10,-499.2 117,-499.2 117,-477.2 10,-477.2"/>
<text text-anchor="start" x="30" y="-484.3" font-family="Helvetica,sans-Serif" font-size="11.00" fill="#000000">BE10EP_ERR</text>
<polygon fill="none" stroke="#000000" points="117,-477.2 117,-499.2 236,-499.2 236,-477.2 117,-477.2"/>
<text text-anchor="start" x="120" y="-484.9" font-family="Helvetica,sans-Serif" font-size="11.00" fill="#000000">numeric[0]</text>
<polygon fill="none" stroke="#000000" points="10,-455.2 10,-477.2 117,-477.2 117,-455.2 10,-455.2"/>
<text text-anchor="start" x="30" y="-462.3" font-family="Helvetica,sans-Serif" font-size="11.00" fill="#000000">BESTND</text>
<polygon fill="none" stroke="#000000" points="117,-455.2 117,-477.2 236,-477.2 236,-455.2 117,-455.2"/>
<text text-anchor="start" x="120" y="-462.9" font-family="Helvetica,sans-Serif" font-size="11.00" fill="#000000">text[2147483647]</text>
<polygon fill="none" stroke="#000000" points="10,-433.2 10,-455.2 117,-455.2 117,-433.2 10,-433.2"/>
<text text-anchor="start" x="30" y="-440.3" font-family="Helvetica,sans-Serif" font-size="11.00" fill="#000000">BECORR</text>
<polygon fill="none" stroke="#000000" points="117,-433.2 117,-455.2 236,-455.2 236,-433.2 117,-433.2"/>
<text text-anchor="start" x="120" y="-440.9" font-family="Helvetica,sans-Serif" font-size="11.00" fill="#000000">numeric[5,4]</text>
<polygon fill="none" stroke="#000000" points="10,-411.2 10,-433.2 117,-433.2 117,-411.2 10,-411.2"/>
<text text-anchor="start" x="30" y="-418.3" font-family="Helvetica,sans-Serif" font-size="11.00" fill="#000000">BEAMS</text>
<polygon fill="none" stroke="#000000" points="117,-411.2 117,-433.2 236,-433.2 236,-411.2 117,-411.2"/>
<text text-anchor="start" x="120" y="-418.9" font-family="Helvetica,sans-Serif" font-size="11.00" fill="#000000">text[2147483647]</text>
<polygon fill="none" stroke="#000000" points="10,-389.2 10,-411.2 117,-411.2 117,-389.2 10,-389.2"/>
<text text-anchor="start" x="30" y="-396.3" font-family="Helvetica,sans-Serif" font-size="11.00" fill="#000000">BE10NC</text>
<polygon fill="none" stroke="#000000" points="117,-389.2 117,-411.2 236,-411.2 236,-389.2 117,-389.2"/>
<text text-anchor="start" x="120" y="-396.9" font-family="Helvetica,sans-Serif" font-size="11.00" fill="#000000">int8[19]</text>
<polygon fill="none" stroke="#000000" points="10,-367.2 10,-389.2 117,-389.2 117,-367.2 10,-367.2"/>
<text text-anchor="start" x="30" y="-374.3" font-family="Helvetica,sans-Serif" font-size="11.00" fill="#000000">BE10NC_ERR</text>
<polygon fill="none" stroke="#000000" points="117,-367.2 117,-389.2 236,-389.2 236,-367.2 117,-367.2"/>
<text text-anchor="start" x="120" y="-374.9" font-family="Helvetica,sans-Serif" font-size="11.00" fill="#000000">int8[19]</text>
<polygon fill="none" stroke="#000000" points="10,-345.2 10,-367.2 117,-367.2 117,-345.2 10,-345.2"/>
<text text-anchor="start" x="30" y="-352.3" font-family="Helvetica,sans-Serif" font-size="11.00" fill="#000000">EBE_MMKYR</text>
<polygon fill="none" stroke="#000000" points="117,-345.2 117,-367.2 236,-367.2 236,-345.2 117,-345.2"/>
<text text-anchor="start" x="120" y="-352.9" font-family="Helvetica,sans-Serif" font-size="11.00" fill="#000000">numeric[12,2]</text>
<polygon fill="none" stroke="#000000" points="10,-323.2 10,-345.2 117,-345.2 117,-323.2 10,-323.2"/>
<text text-anchor="start" x="30" y="-330.3" font-family="Helvetica,sans-Serif" font-size="11.00" fill="#000000">EBE_ERR</text>
<polygon fill="none" stroke="#000000" points="117,-323.2 117,-345.2 236,-345.2 236,-323.2 117,-323.2"/>
<text text-anchor="start" x="120" y="-330.9" font-family="Helvetica,sans-Serif" font-size="11.00" fill="#000000">numeric[12,2]</text>
<polygon fill="none" stroke="#000000" points="10,-301.2 10,-323.2 117,-323.2 117,-301.2 10,-301.2"/>
<text text-anchor="start" x="30" y="-308.3" font-family="Helvetica,sans-Serif" font-size="11.00" fill="#000000">AL26NP</text>
<polygon fill="none" stroke="#000000" points="117,-301.2 117,-323.2 236,-323.2 236,-301.2 117,-301.2"/>
<text text-anchor="start" x="120" y="-308.9" font-family="Helvetica,sans-Serif" font-size="11.00" fill="#000000">int8[19]</text>
<polygon fill="none" stroke="#000000" points="10,-279.2 10,-301.2 117,-301.2 117,-279.2 10,-279.2"/>
<text text-anchor="start" x="30" y="-286.3" font-family="Helvetica,sans-Serif" font-size="11.00" fill="#000000">AL26NP_ERR</text>
<polygon fill="none" stroke="#000000" points="117,-279.2 117,-301.2 236,-301.2 236,-279.2 117,-279.2"/>
<text text-anchor="start" x="120" y="-286.9" font-family="Helvetica,sans-Serif" font-size="11.00" fill="#000000">int8[19]</text>
<polygon fill="none" stroke="#000000" points="10,-257.2 10,-279.2 117,-279.2 117,-257.2 10,-257.2"/>
<text text-anchor="start" x="30" y="-264.3" font-family="Helvetica,sans-Serif" font-size="11.00" fill="#000000">AL26EP</text>
<polygon fill="none" stroke="#000000" points="117,-257.2 117,-279.2 236,-279.2 236,-257.2 117,-257.2"/>
<text text-anchor="start" x="120" y="-264.9" font-family="Helvetica,sans-Serif" font-size="11.00" fill="#000000">numeric[0]</text>
<polygon fill="none" stroke="#000000" points="10,-235.2 10,-257.2 117,-257.2 117,-235.2 10,-235.2"/>
<text text-anchor="start" x="30" y="-242.3" font-family="Helvetica,sans-Serif" font-size="11.00" fill="#000000">AL26EP_ERR</text>
<polygon fill="none" stroke="#000000" points="117,-235.2 117,-257.2 236,-257.2 236,-235.2 117,-235.2"/>
<text text-anchor="start" x="120" y="-242.9" font-family="Helvetica,sans-Serif" font-size="11.00" fill="#000000">numeric[0]</text>
<polygon fill="none" stroke="#000000" points="10,-213.2 10,-235.2 117,-235.2 117,-213.2 10,-213.2"/>
<text text-anchor="start" x="30" y="-220.3" font-family="Helvetica,sans-Serif" font-size="11.00" fill="#000000">ALSTND</text>
<polygon fill="none" stroke="#000000" points="117,-213.2 117,-235.2 236,-235.2 236,-213.2 117,-213.2"/>
<text text-anchor="start" x="120" y="-220.9" font-family="Helvetica,sans-Serif" font-size="11.00" fill="#000000">text[2147483647]</text>
<polygon fill="none" stroke="#000000" points="10,-191.2 10,-213.2 117,-213.2 117,-191.2 10,-191.2"/>
<text text-anchor="start" x="30" y="-198.3" font-family="Helvetica,sans-Serif" font-size="11.00" fill="#000000">ALCORR</text>
<polygon fill="none" stroke="#000000" points="117,-191.2 117,-213.2 236,-213.2 236,-191.2 117,-191.2"/>
<text text-anchor="start" x="120" y="-198.9" font-family="Helvetica,sans-Serif" font-size="11.00" fill="#000000">numeric[5,4]</text>
<polygon fill="none" stroke="#000000" points="10,-169.2 10,-191.2 117,-191.2 117,-169.2 10,-169.2"/>
<text text-anchor="start" x="30" y="-176.3" font-family="Helvetica,sans-Serif" font-size="11.00" fill="#000000">ALAMS</text>
<polygon fill="none" stroke="#000000" points="117,-169.2 117,-191.2 236,-191.2 236,-169.2 117,-169.2"/>
<text text-anchor="start" x="120" y="-176.9" font-family="Helvetica,sans-Serif" font-size="11.00" fill="#000000">text[2147483647]</text>
<polygon fill="none" stroke="#000000" points="10,-147.2 10,-169.2 117,-169.2 117,-147.2 10,-147.2"/>
<text text-anchor="start" x="30" y="-154.3" font-family="Helvetica,sans-Serif" font-size="11.00" fill="#000000">AL26NC</text>
<polygon fill="none" stroke="#000000" points="117,-147.2 117,-169.2 236,-169.2 236,-147.2 117,-147.2"/>
<text text-anchor="start" x="120" y="-154.9" font-family="Helvetica,sans-Serif" font-size="11.00" fill="#000000">int8[19]</text>
<polygon fill="none" stroke="#000000" points="10,-125.2 10,-147.2 117,-147.2 117,-125.2 10,-125.2"/>
<text text-anchor="start" x="30" y="-132.3" font-family="Helvetica,sans-Serif" font-size="11.00" fill="#000000">AL26NC_ERR</text>
<polygon fill="none" stroke="#000000" points="117,-125.2 117,-147.2 236,-147.2 236,-125.2 117,-125.2"/>
<text text-anchor="start" x="120" y="-132.9" font-family="Helvetica,sans-Serif" font-size="11.00" fill="#000000">int8[19]</text>
<polygon fill="none" stroke="#000000" points="10,-103.2 10,-125.2 117,-125.2 117,-103.2 10,-103.2"/>
<text text-anchor="start" x="30" y="-110.3" font-family="Helvetica,sans-Serif" font-size="11.00" fill="#000000">EAL_MMKYR</text>
<polygon fill="none" stroke="#000000" points="117,-103.2 117,-125.2 236,-125.2 236,-103.2 117,-103.2"/>
<text text-anchor="start" x="120" y="-110.9" font-family="Helvetica,sans-Serif" font-size="11.00" fill="#000000">numeric[12,2]</text>
<polygon fill="none" stroke="#000000" points="10,-81.2 10,-103.2 117,-103.2 117,-81.2 10,-81.2"/>
<text text-anchor="start" x="30" y="-88.3" font-family="Helvetica,sans-Serif" font-size="11.00" fill="#000000">EAL_ERR</text>
<polygon fill="none" stroke="#000000" points="117,-81.2 117,-103.2 236,-103.2 236,-81.2 117,-81.2"/>
<text text-anchor="start" x="120" y="-88.9" font-family="Helvetica,sans-Serif" font-size="11.00" fill="#000000">numeric[12,2]</text>
<polygon fill="none" stroke="#000000" points="10,-59.2 10,-81.2 117,-81.2 117,-59.2 10,-59.2"/>
<image xlink:href="../../images/primaryKeys.png" width="11px" height="12px" preserveAspectRatio="xMinYMin meet" x="15" y="-76.2"/>
<text text-anchor="start" x="30" y="-66.3" font-family="Helvetica,sans-Serif" font-size="11.00" fill="#000000">id</text>
<polygon fill="none" stroke="#000000" points="117,-59.2 117,-81.2 236,-81.2 236,-59.2 117,-59.2"/>
<text text-anchor="start" x="120" y="-66.9" font-family="Helvetica,sans-Serif" font-size="11.00" fill="#000000">serial[10]</text>
<polygon fill="#ffffff" stroke="transparent" points="10,-40.2 10,-59.2 49,-59.2 49,-40.2 10,-40.2"/>
<polygon fill="none" stroke="#000000" points="10,-40.2 10,-59.2 49,-59.2 49,-40.2 10,-40.2"/>
<text text-anchor="start" x="13" y="-46.3" font-family="Helvetica,sans-Serif" font-size="11.00" fill="#000000">&lt; 0</text>
<polygon fill="#ffffff" stroke="transparent" points="49,-40.2 49,-59.2 117,-59.2 117,-40.2 49,-40.2"/>
<polygon fill="none" stroke="#000000" points="49,-40.2 49,-59.2 117,-59.2 117,-40.2 49,-40.2"/>
<text text-anchor="start" x="69.3807" y="-46.3" font-family="Helvetica,sans-Serif" font-size="11.00" fill="#000000">261 rows</text>
<polygon fill="#ffffff" stroke="transparent" points="117,-40.2 117,-59.2 236,-59.2 236,-40.2 117,-40.2"/>
<polygon fill="none" stroke="#000000" points="117,-40.2 117,-59.2 236,-59.2 236,-40.2 117,-40.2"/>
<text text-anchor="start" x="217.4053" y="-46.3" font-family="Helvetica,sans-Serif" font-size="11.00" fill="#000000">0 &gt;</text>
<polygon fill="none" stroke="#000000" stroke-width="2" points="9,-39.2 9,-1249.2 237,-1249.2 237,-39.2 9,-39.2"/>
</a>
</g>
</g>
</g>
</svg>
