<?xml version="1.0" encoding="UTF-8" standalone="no"?>
<!DOCTYPE svg PUBLIC "-//W3C//DTD SVG 1.1//EN"
 "http://www.w3.org/Graphics/SVG/1.1/DTD/svg11.dtd">
<!-- Generated by graphviz version 2.40.1 (20161225.0304)
 -->
<!-- Title: twoDegreesRelationshipsDiagram Pages: 1 -->
<svg width="707pt" height="607pt"
 viewBox="0.00 0.00 707.00 606.70" xmlns="http://www.w3.org/2000/svg" xmlns:xlink="http://www.w3.org/1999/xlink">
<g id="graph0" class="graph" transform="scale(1 1) rotate(0) translate(4 602.7)">
<title>twoDegreesRelationshipsDiagram</title>
<polygon fill="#ffffff" stroke="transparent" points="-4,4 -4,-602.7 703,-602.7 703,4 -4,4"/>
<text text-anchor="middle" x="72.4936" y="-7.3" font-family="Helvetica,sans-Serif" font-size="11.00" fill="#000000">Generated by SchemaSpy</text>
<!-- crn_al_DataCore -->
<g id="node1" class="node">
<title>crn_al_DataCore</title>
<g id="a_node1"><a xlink:href="../../tables/crn_al_DataCore.html" xlink:title="crn_al_DataCore" target="_top">
<polygon fill="#ffffff" stroke="transparent" points="198.5,-381.7 198.5,-574.7 324.5,-574.7 324.5,-381.7 198.5,-381.7"/>
<polygon fill="#f5f5f5" stroke="transparent" points="198.5,-551.2 198.5,-574.2 324.5,-574.2 324.5,-551.2 198.5,-551.2"/>
<polygon fill="none" stroke="#000000" points="198.5,-551.2 198.5,-574.2 324.5,-574.2 324.5,-551.2 198.5,-551.2"/>
<text text-anchor="start" x="203.4387" y="-560.3" font-family="Helvetica,sans-Serif" font-weight="bold" font-size="11.00" fill="#000000">crn_al_DataCore</text>
<text text-anchor="start" x="290.0219" y="-559.3" font-family="Helvetica,sans-Serif" font-size="11.00" fill="#000000">[table]</text>
<polygon fill="none" stroke="#000000" points="198.5,-529.2 198.5,-551.2 324.5,-551.2 324.5,-529.2 198.5,-529.2"/>
<image xlink:href="../../images/primaryKeys.png" width="11px" height="12px" preserveAspectRatio="xMinYMin meet" x="203.5" y="-546.2"/>
<text text-anchor="start" x="223.5" y="-536.3" font-family="Helvetica,sans-Serif" font-size="11.00" fill="#000000">OBSID1</text>
<polygon fill="none" stroke="#000000" points="198.5,-507.2 198.5,-529.2 324.5,-529.2 324.5,-507.2 198.5,-507.2"/>
<image xlink:href="../../images/foreignKeys.png" width="11px" height="12px" preserveAspectRatio="xMinYMin meet" x="203.5" y="-524.2"/>
<text text-anchor="start" x="223.5" y="-514.3" font-family="Helvetica,sans-Serif" font-size="11.00" fill="#000000">SMPID</text>
<polygon fill="none" stroke="#000000" points="198.5,-485.2 198.5,-507.2 324.5,-507.2 324.5,-485.2 198.5,-485.2"/>
<image xlink:href="../../images/foreignKeys.png" width="11px" height="12px" preserveAspectRatio="xMinYMin meet" x="203.5" y="-502.2"/>
<text text-anchor="start" x="223.5" y="-492.3" font-family="Helvetica,sans-Serif" font-size="11.00" fill="#000000">DBDOI</text>
<polygon fill="none" stroke="#000000" points="198.5,-463.2 198.5,-485.2 324.5,-485.2 324.5,-463.2 198.5,-463.2"/>
<image xlink:href="../../images/foreignKeys.png" width="11px" height="12px" preserveAspectRatio="xMinYMin meet" x="203.5" y="-480.2"/>
<text text-anchor="start" x="223.5" y="-470.3" font-family="Helvetica,sans-Serif" font-size="11.00" fill="#000000">REFDBID1</text>
<polygon fill="none" stroke="#000000" points="198.5,-441.2 198.5,-463.2 324.5,-463.2 324.5,-441.2 198.5,-441.2"/>
<image xlink:href="../../images/foreignKeys.png" width="11px" height="12px" preserveAspectRatio="xMinYMin meet" x="203.5" y="-458.2"/>
<text text-anchor="start" x="223.5" y="-448.3" font-family="Helvetica,sans-Serif" font-size="11.00" fill="#000000">ALSTNDID</text>
<polygon fill="none" stroke="#000000" points="198.5,-419.2 198.5,-441.2 324.5,-441.2 324.5,-419.2 198.5,-419.2"/>
<image xlink:href="../../images/foreignKeys.png" width="11px" height="12px" preserveAspectRatio="xMinYMin meet" x="203.5" y="-436.2"/>
<text text-anchor="start" x="223.5" y="-426.3" font-family="Helvetica,sans-Serif" font-size="11.00" fill="#000000">ALAMSID</text>
<polygon fill="none" stroke="#000000" points="198.5,-400.2 198.5,-419.2 324.5,-419.2 324.5,-400.2 198.5,-400.2"/>
<text text-anchor="start" x="201.5" y="-406.3" font-family="Helvetica,sans-Serif" font-size="11.00" fill="#000000">...</text>
<polygon fill="#ffffff" stroke="transparent" points="198.5,-381.2 198.5,-400.2 231.5,-400.2 231.5,-381.2 198.5,-381.2"/>
<polygon fill="none" stroke="#000000" points="198.5,-381.2 198.5,-400.2 231.5,-400.2 231.5,-381.2 198.5,-381.2"/>
<text text-anchor="start" x="201.5" y="-387.3" font-family="Helvetica,sans-Serif" font-size="11.00" fill="#000000">&lt; 5</text>
<polygon fill="#ffffff" stroke="transparent" points="231.5,-381.2 231.5,-400.2 296.5,-400.2 296.5,-381.2 231.5,-381.2"/>
<polygon fill="none" stroke="#000000" points="231.5,-381.2 231.5,-400.2 296.5,-400.2 296.5,-381.2 231.5,-381.2"/>
<text text-anchor="start" x="239.7089" y="-387.3" font-family="Helvetica,sans-Serif" font-size="11.00" fill="#000000">4,631 rows</text>
<polygon fill="#ffffff" stroke="transparent" points="296.5,-381.2 296.5,-400.2 324.5,-400.2 324.5,-381.2 296.5,-381.2"/>
<polygon fill="none" stroke="#000000" points="296.5,-381.2 296.5,-400.2 324.5,-400.2 324.5,-381.2 296.5,-381.2"/>
<text text-anchor="start" x="305.9053" y="-387.3" font-family="Helvetica,sans-Serif" font-size="11.00" fill="#000000">2 &gt;</text>
</a>
</g>
</g>
<!-- crn_amsID -->
<g id="node2" class="node">
<title>crn_amsID</title>
<g id="a_node2"><a xlink:href="../../tables/crn_amsID.html" xlink:title="crn_amsID" target="_top">
<polygon fill="#ffffff" stroke="transparent" points="19.5,-205.7 19.5,-266.7 115.5,-266.7 115.5,-205.7 19.5,-205.7"/>
<polygon fill="#f5f5f5" stroke="transparent" points="19.5,-243.2 19.5,-266.2 115.5,-266.2 115.5,-243.2 19.5,-243.2"/>
<polygon fill="none" stroke="#000000" points="19.5,-243.2 19.5,-266.2 115.5,-266.2 115.5,-243.2 19.5,-243.2"/>
<text text-anchor="start" x="24.4169" y="-252.3" font-family="Helvetica,sans-Serif" font-weight="bold" font-size="11.00" fill="#000000">crn_amsID</text>
<text text-anchor="start" x="81.0219" y="-251.3" font-family="Helvetica,sans-Serif" font-size="11.00" fill="#000000">[table]</text>
<polygon fill="none" stroke="#000000" points="19.5,-224.2 19.5,-243.2 115.5,-243.2 115.5,-224.2 19.5,-224.2"/>
<text text-anchor="start" x="22.5" y="-230.3" font-family="Helvetica,sans-Serif" font-size="11.00" fill="#000000">...</text>
<polygon fill="#ffffff" stroke="transparent" points="19.5,-205.2 19.5,-224.2 40.5,-224.2 40.5,-205.2 19.5,-205.2"/>
<polygon fill="none" stroke="#000000" points="19.5,-205.2 19.5,-224.2 40.5,-224.2 40.5,-205.2 19.5,-205.2"/>
<text text-anchor="start" x="22.5" y="-211.3" font-family="Helvetica,sans-Serif" font-size="11.00" fill="#000000"> &#160;</text>
<polygon fill="#ffffff" stroke="transparent" points="40.5,-205.2 40.5,-224.2 89.5,-224.2 89.5,-205.2 40.5,-205.2"/>
<polygon fill="none" stroke="#000000" points="40.5,-205.2 40.5,-224.2 89.5,-224.2 89.5,-205.2 40.5,-205.2"/>
<text text-anchor="start" x="47.9956" y="-211.3" font-family="Helvetica,sans-Serif" font-size="11.00" fill="#000000">37 rows</text>
<polygon fill="#ffffff" stroke="transparent" points="89.5,-205.2 89.5,-224.2 115.5,-224.2 115.5,-205.2 89.5,-205.2"/>
<polygon fill="none" stroke="#000000" points="89.5,-205.2 89.5,-224.2 115.5,-224.2 115.5,-205.2 89.5,-205.2"/>
<text text-anchor="start" x="96.9053" y="-211.3" font-family="Helvetica,sans-Serif" font-size="11.00" fill="#000000">2 &gt;</text>
</a>
</g>
</g>
<!-- crn_al_DataCore&#45;&gt;crn_amsID -->
<g id="edge1" class="edge">
<title>crn_al_DataCore:w&#45;&gt;crn_amsID:e</title>
<path fill="none" stroke="#000000" d="M183.7987,-428.2502C115.3383,-407.7904 204.9423,-233.2 115.5,-233.2"/>
<polygon fill="#000000" stroke="#000000" points="190.5694,-429.1482 198.0267,-433.7688 194.5347,-429.6741 198.5,-430.2 198.5,-430.2 198.5,-430.2 194.5347,-429.6741 198.9733,-426.6312 190.5694,-429.1482 190.5694,-429.1482"/>
<ellipse fill="none" stroke="#000000" cx="187.3972" cy="-428.7274" rx="3.2" ry="3.2"/>
</g>
<!-- crn_alstndID -->
<g id="node3" class="node">
<title>crn_alstndID</title>
<g id="a_node3"><a xlink:href="../../tables/crn_alstndID.html" xlink:title="crn_alstndID" target="_top">
<polygon fill="#ffffff" stroke="transparent" points="15.5,-369.7 15.5,-430.7 119.5,-430.7 119.5,-369.7 15.5,-369.7"/>
<polygon fill="#f5f5f5" stroke="transparent" points="15.5,-407.2 15.5,-430.2 119.5,-430.2 119.5,-407.2 15.5,-407.2"/>
<polygon fill="none" stroke="#000000" points="15.5,-407.2 15.5,-430.2 119.5,-430.2 119.5,-407.2 15.5,-407.2"/>
<text text-anchor="start" x="20.134" y="-416.3" font-family="Helvetica,sans-Serif" font-weight="bold" font-size="11.00" fill="#000000">crn_alstndID</text>
<text text-anchor="start" x="85.0219" y="-415.3" font-family="Helvetica,sans-Serif" font-size="11.00" fill="#000000">[table]</text>
<polygon fill="none" stroke="#000000" points="15.5,-388.2 15.5,-407.2 119.5,-407.2 119.5,-388.2 15.5,-388.2"/>
<text text-anchor="start" x="18.5" y="-394.3" font-family="Helvetica,sans-Serif" font-size="11.00" fill="#000000">...</text>
<polygon fill="#ffffff" stroke="transparent" points="15.5,-369.2 15.5,-388.2 40.5,-388.2 40.5,-369.2 15.5,-369.2"/>
<polygon fill="none" stroke="#000000" points="15.5,-369.2 15.5,-388.2 40.5,-388.2 40.5,-369.2 15.5,-369.2"/>
<text text-anchor="start" x="18.5" y="-375.3" font-family="Helvetica,sans-Serif" font-size="11.00" fill="#000000"> &#160;</text>
<polygon fill="#ffffff" stroke="transparent" points="40.5,-369.2 40.5,-388.2 91.5,-388.2 91.5,-369.2 40.5,-369.2"/>
<polygon fill="none" stroke="#000000" points="40.5,-369.2 40.5,-388.2 91.5,-388.2 91.5,-369.2 40.5,-369.2"/>
<text text-anchor="start" x="49.9956" y="-375.3" font-family="Helvetica,sans-Serif" font-size="11.00" fill="#000000">26 rows</text>
<polygon fill="#ffffff" stroke="transparent" points="91.5,-369.2 91.5,-388.2 119.5,-388.2 119.5,-369.2 91.5,-369.2"/>
<polygon fill="none" stroke="#000000" points="91.5,-369.2 91.5,-388.2 119.5,-388.2 119.5,-369.2 91.5,-369.2"/>
<text text-anchor="start" x="100.9053" y="-375.3" font-family="Helvetica,sans-Serif" font-size="11.00" fill="#000000">2 &gt;</text>
</a>
</g>
</g>
<!-- crn_al_DataCore&#45;&gt;crn_alstndID -->
<g id="edge2" class="edge">
<title>crn_al_DataCore:w&#45;&gt;crn_alstndID:e</title>
<path fill="none" stroke="#000000" d="M184.2039,-449.6938C156.5902,-438.9342 156.7674,-397.2 119.5,-397.2"/>
<polygon fill="#000000" stroke="#000000" points="190.6202,-450.8186 197.8784,-455.7459 194.5601,-451.5093 198.5,-452.2 198.5,-452.2 198.5,-452.2 194.5601,-451.5093 199.1216,-448.6541 190.6202,-450.8186 190.6202,-450.8186"/>
<ellipse fill="none" stroke="#000000" cx="187.4682" cy="-450.266" rx="3.2" ry="3.2"/>
</g>
<!-- global_dbDOI -->
<g id="node4" class="node">
<title>global_dbDOI</title>
<g id="a_node4"><a xlink:href="../../tables/global_dbDOI.html" xlink:title="global_dbDOI" target="_top">
<polygon fill="#ffffff" stroke="transparent" points="12.5,-451.7 12.5,-512.7 122.5,-512.7 122.5,-451.7 12.5,-451.7"/>
<polygon fill="#f5f5f5" stroke="transparent" points="12.5,-489.2 12.5,-512.2 122.5,-512.2 122.5,-489.2 12.5,-489.2"/>
<polygon fill="none" stroke="#000000" points="12.5,-489.2 12.5,-512.2 122.5,-512.2 122.5,-489.2 12.5,-489.2"/>
<text text-anchor="start" x="17.3796" y="-498.3" font-family="Helvetica,sans-Serif" font-weight="bold" font-size="11.00" fill="#000000">global_dbDOI</text>
<text text-anchor="start" x="88.0219" y="-497.3" font-family="Helvetica,sans-Serif" font-size="11.00" fill="#000000">[table]</text>
<polygon fill="none" stroke="#000000" points="12.5,-470.2 12.5,-489.2 122.5,-489.2 122.5,-470.2 12.5,-470.2"/>
<text text-anchor="start" x="15.5" y="-476.3" font-family="Helvetica,sans-Serif" font-size="11.00" fill="#000000">...</text>
<polygon fill="#ffffff" stroke="transparent" points="12.5,-451.2 12.5,-470.2 40.5,-470.2 40.5,-451.2 12.5,-451.2"/>
<polygon fill="none" stroke="#000000" points="12.5,-451.2 12.5,-470.2 40.5,-470.2 40.5,-451.2 12.5,-451.2"/>
<text text-anchor="start" x="15.5" y="-457.3" font-family="Helvetica,sans-Serif" font-size="11.00" fill="#000000"> &#160;</text>
<polygon fill="#ffffff" stroke="transparent" points="40.5,-451.2 40.5,-470.2 92.5,-470.2 92.5,-451.2 40.5,-451.2"/>
<polygon fill="none" stroke="#000000" points="40.5,-451.2 40.5,-470.2 92.5,-470.2 92.5,-451.2 40.5,-451.2"/>
<text text-anchor="start" x="50.9956" y="-457.3" font-family="Helvetica,sans-Serif" font-size="11.00" fill="#000000">26 rows</text>
<polygon fill="#ffffff" stroke="transparent" points="92.5,-451.2 92.5,-470.2 122.5,-470.2 122.5,-451.2 92.5,-451.2"/>
<polygon fill="none" stroke="#000000" points="92.5,-451.2 92.5,-470.2 122.5,-470.2 122.5,-451.2 92.5,-451.2"/>
<text text-anchor="start" x="103.9053" y="-457.3" font-family="Helvetica,sans-Serif" font-size="11.00" fill="#000000">9 &gt;</text>
</a>
</g>
</g>
<!-- crn_al_DataCore&#45;&gt;global_dbDOI -->
<g id="edge3" class="edge">
<title>crn_al_DataCore:w&#45;&gt;global_dbDOI:e</title>
<path fill="none" stroke="#000000" d="M184.1019,-495.0846C161.0907,-491.3025 151.7043,-479.2 122.5,-479.2"/>
<polygon fill="#000000" stroke="#000000" points="190.5239,-495.582 198.2219,-499.7892 194.5119,-495.891 198.5,-496.2 198.5,-496.2 198.5,-496.2 194.5119,-495.891 198.7781,-492.6108 190.5239,-495.582 190.5239,-495.582"/>
<ellipse fill="none" stroke="#000000" cx="187.3335" cy="-495.3349" rx="3.2" ry="3.2"/>
</g>
<!-- global_RefCore -->
<g id="node5" class="node">
<title>global_RefCore</title>
<g id="a_node5"><a xlink:href="../../tables/global_RefCore.html" xlink:title="global_RefCore" target="_top">
<polygon fill="#ffffff" stroke="transparent" points="8,-287.7 8,-348.7 127,-348.7 127,-287.7 8,-287.7"/>
<polygon fill="#f5f5f5" stroke="transparent" points="8.5,-325.2 8.5,-348.2 127.5,-348.2 127.5,-325.2 8.5,-325.2"/>
<polygon fill="none" stroke="#000000" points="8.5,-325.2 8.5,-348.2 127.5,-348.2 127.5,-325.2 8.5,-325.2"/>
<text text-anchor="start" x="13.2992" y="-334.3" font-family="Helvetica,sans-Serif" font-weight="bold" font-size="11.00" fill="#000000">global_RefCore</text>
<text text-anchor="start" x="93.0219" y="-333.3" font-family="Helvetica,sans-Serif" font-size="11.00" fill="#000000">[table]</text>
<polygon fill="none" stroke="#000000" points="8.5,-306.2 8.5,-325.2 127.5,-325.2 127.5,-306.2 8.5,-306.2"/>
<text text-anchor="start" x="11.5" y="-312.3" font-family="Helvetica,sans-Serif" font-size="11.00" fill="#000000">...</text>
<polygon fill="#ffffff" stroke="transparent" points="8.5,-287.2 8.5,-306.2 35.5,-306.2 35.5,-287.2 8.5,-287.2"/>
<polygon fill="none" stroke="#000000" points="8.5,-287.2 8.5,-306.2 35.5,-306.2 35.5,-287.2 8.5,-287.2"/>
<text text-anchor="start" x="11.5" y="-293.3" font-family="Helvetica,sans-Serif" font-size="11.00" fill="#000000">&lt; 5</text>
<polygon fill="#ffffff" stroke="transparent" points="35.5,-287.2 35.5,-306.2 97.5,-306.2 97.5,-287.2 35.5,-287.2"/>
<polygon fill="none" stroke="#000000" points="35.5,-287.2 35.5,-306.2 97.5,-306.2 97.5,-287.2 35.5,-287.2"/>
<text text-anchor="start" x="40.7089" y="-293.3" font-family="Helvetica,sans-Serif" font-size="11.00" fill="#000000">3,822 rows</text>
<polygon fill="#ffffff" stroke="transparent" points="97.5,-287.2 97.5,-306.2 127.5,-306.2 127.5,-287.2 97.5,-287.2"/>
<polygon fill="none" stroke="#000000" points="97.5,-287.2 97.5,-306.2 127.5,-306.2 127.5,-287.2 97.5,-287.2"/>
<text text-anchor="start" x="102.7904" y="-293.3" font-family="Helvetica,sans-Serif" font-size="11.00" fill="#000000">32 &gt;</text>
</a>
</g>
</g>
<!-- crn_al_DataCore&#45;&gt;global_RefCore -->
<g id="edge4" class="edge">
<title>crn_al_DataCore:w&#45;&gt;global_RefCore:e</title>
<path fill="none" stroke="#000000" d="M184.1251,-471.829C132.3757,-452.0499 199.2993,-315.2 127.5,-315.2"/>
<polygon fill="#000000" stroke="#000000" points="190.6067,-472.898 197.9141,-477.752 194.5533,-473.549 198.5,-474.2 198.5,-474.2 198.5,-474.2 194.5533,-473.549 199.0859,-470.648 190.6067,-472.898 190.6067,-472.898"/>
<ellipse fill="none" stroke="#000000" cx="187.4493" cy="-472.3772" rx="3.2" ry="3.2"/>
</g>
<!-- crn_Sample -->
<g id="node6" class="node">
<title>crn_Sample</title>
<g id="a_node6"><a xlink:href="../../tables/crn_Sample.html" xlink:title="crn_Sample" target="_top">
<polygon fill="#ffffff" stroke="transparent" points="17,-533.7 17,-594.7 118,-594.7 118,-533.7 17,-533.7"/>
<polygon fill="#f5f5f5" stroke="transparent" points="17.5,-571.2 17.5,-594.2 118.5,-594.2 118.5,-571.2 17.5,-571.2"/>
<polygon fill="none" stroke="#000000" points="17.5,-571.2 17.5,-594.2 118.5,-594.2 118.5,-571.2 17.5,-571.2"/>
<text text-anchor="start" x="22.1625" y="-580.3" font-family="Helvetica,sans-Serif" font-weight="bold" font-size="11.00" fill="#000000">crn_Sample</text>
<text text-anchor="start" x="84.0219" y="-579.3" font-family="Helvetica,sans-Serif" font-size="11.00" fill="#000000">[table]</text>
<polygon fill="none" stroke="#000000" points="17.5,-552.2 17.5,-571.2 118.5,-571.2 118.5,-552.2 17.5,-552.2"/>
<text text-anchor="start" x="20.5" y="-558.3" font-family="Helvetica,sans-Serif" font-size="11.00" fill="#000000">...</text>
<polygon fill="#ffffff" stroke="transparent" points="17.5,-533.2 17.5,-552.2 38.5,-552.2 38.5,-533.2 17.5,-533.2"/>
<polygon fill="none" stroke="#000000" points="17.5,-533.2 17.5,-552.2 38.5,-552.2 38.5,-533.2 17.5,-533.2"/>
<text text-anchor="start" x="20.2026" y="-539.3" font-family="Helvetica,sans-Serif" font-size="11.00" fill="#000000">&lt; 3</text>
<polygon fill="#ffffff" stroke="transparent" points="38.5,-533.2 38.5,-552.2 97.5,-552.2 97.5,-533.2 38.5,-533.2"/>
<polygon fill="none" stroke="#000000" points="38.5,-533.2 38.5,-552.2 97.5,-552.2 97.5,-533.2 38.5,-533.2"/>
<text text-anchor="start" x="41.1045" y="-539.3" font-family="Helvetica,sans-Serif" font-size="11.00" fill="#000000">4,588 rows</text>
<polygon fill="#ffffff" stroke="transparent" points="97.5,-533.2 97.5,-552.2 118.5,-552.2 118.5,-533.2 97.5,-533.2"/>
<polygon fill="none" stroke="#000000" points="97.5,-533.2 97.5,-552.2 118.5,-552.2 118.5,-533.2 97.5,-533.2"/>
<text text-anchor="start" x="100.2027" y="-539.3" font-family="Helvetica,sans-Serif" font-size="11.00" fill="#000000">2 &gt;</text>
</a>
</g>
</g>
<!-- crn_al_DataCore&#45;&gt;crn_Sample -->
<g id="edge5" class="edge">
<title>crn_al_DataCore:w&#45;&gt;crn_Sample:e</title>
<path fill="none" stroke="#000000" d="M184.0381,-520.3915C157.5658,-529.1541 153.3474,-561.2 118.5,-561.2"/>
<polygon fill="#000000" stroke="#000000" points="190.5903,-519.3987 199.0394,-521.7594 194.5451,-518.7993 198.5,-518.2 198.5,-518.2 198.5,-518.2 194.5451,-518.7993 197.9606,-514.6406 190.5903,-519.3987 190.5903,-519.3987"/>
<ellipse fill="none" stroke="#000000" cx="187.4264" cy="-519.8781" rx="3.2" ry="3.2"/>
</g>
<!-- crn_be_DataCore -->
<g id="node7" class="node">
<title>crn_be_DataCore</title>
<g id="a_node7"><a xlink:href="../../tables/crn_be_DataCore.html" xlink:title="crn_be_DataCore" target="_top">
<polygon fill="#ffffff" stroke="transparent" points="197,-167.7 197,-360.7 326,-360.7 326,-167.7 197,-167.7"/>
<polygon fill="#f5f5f5" stroke="transparent" points="197.5,-337.2 197.5,-360.2 326.5,-360.2 326.5,-337.2 197.5,-337.2"/>
<polygon fill="none" stroke="#000000" points="197.5,-337.2 197.5,-360.2 326.5,-360.2 326.5,-337.2 197.5,-337.2"/>
<text text-anchor="start" x="202.1017" y="-346.3" font-family="Helvetica,sans-Serif" font-weight="bold" font-size="11.00" fill="#000000">crn_be_DataCore</text>
<text text-anchor="start" x="292.0219" y="-345.3" font-family="Helvetica,sans-Serif" font-size="11.00" fill="#000000">[table]</text>
<polygon fill="none" stroke="#000000" points="197.5,-315.2 197.5,-337.2 326.5,-337.2 326.5,-315.2 197.5,-315.2"/>
<image xlink:href="../../images/primaryKeys.png" width="11px" height="12px" preserveAspectRatio="xMinYMin meet" x="202.5" y="-332.2"/>
<text text-anchor="start" x="222.5" y="-322.3" font-family="Helvetica,sans-Serif" font-size="11.00" fill="#000000">OBSID1</text>
<polygon fill="none" stroke="#000000" points="197.5,-293.2 197.5,-315.2 326.5,-315.2 326.5,-293.2 197.5,-293.2"/>
<image xlink:href="../../images/foreignKeys.png" width="11px" height="12px" preserveAspectRatio="xMinYMin meet" x="202.5" y="-310.2"/>
<text text-anchor="start" x="222.5" y="-300.3" font-family="Helvetica,sans-Serif" font-size="11.00" fill="#000000">SMPID</text>
<polygon fill="none" stroke="#000000" points="197.5,-271.2 197.5,-293.2 326.5,-293.2 326.5,-271.2 197.5,-271.2"/>
<image xlink:href="../../images/foreignKeys.png" width="11px" height="12px" preserveAspectRatio="xMinYMin meet" x="202.5" y="-288.2"/>
<text text-anchor="start" x="222.5" y="-278.3" font-family="Helvetica,sans-Serif" font-size="11.00" fill="#000000">DBDOI</text>
<polygon fill="none" stroke="#000000" points="197.5,-249.2 197.5,-271.2 326.5,-271.2 326.5,-249.2 197.5,-249.2"/>
<image xlink:href="../../images/foreignKeys.png" width="11px" height="12px" preserveAspectRatio="xMinYMin meet" x="202.5" y="-266.2"/>
<text text-anchor="start" x="222.5" y="-256.3" font-family="Helvetica,sans-Serif" font-size="11.00" fill="#000000">REFDBID1</text>
<polygon fill="none" stroke="#000000" points="197.5,-227.2 197.5,-249.2 326.5,-249.2 326.5,-227.2 197.5,-227.2"/>
<image xlink:href="../../images/foreignKeys.png" width="11px" height="12px" preserveAspectRatio="xMinYMin meet" x="202.5" y="-244.2"/>
<text text-anchor="start" x="222.5" y="-234.3" font-family="Helvetica,sans-Serif" font-size="11.00" fill="#000000">BESTNDID</text>
<polygon fill="none" stroke="#000000" points="197.5,-205.2 197.5,-227.2 326.5,-227.2 326.5,-205.2 197.5,-205.2"/>
<image xlink:href="../../images/foreignKeys.png" width="11px" height="12px" preserveAspectRatio="xMinYMin meet" x="202.5" y="-222.2"/>
<text text-anchor="start" x="222.5" y="-212.3" font-family="Helvetica,sans-Serif" font-size="11.00" fill="#000000">BEAMSID</text>
<polygon fill="none" stroke="#000000" points="197.5,-186.2 197.5,-205.2 326.5,-205.2 326.5,-186.2 197.5,-186.2"/>
<text text-anchor="start" x="200.5" y="-192.3" font-family="Helvetica,sans-Serif" font-size="11.00" fill="#000000">...</text>
<polygon fill="#ffffff" stroke="transparent" points="197.5,-167.2 197.5,-186.2 232.5,-186.2 232.5,-167.2 197.5,-167.2"/>
<polygon fill="none" stroke="#000000" points="197.5,-167.2 197.5,-186.2 232.5,-186.2 232.5,-167.2 197.5,-167.2"/>
<text text-anchor="start" x="200.5" y="-173.3" font-family="Helvetica,sans-Serif" font-size="11.00" fill="#000000">&lt; 5</text>
<polygon fill="#ffffff" stroke="transparent" points="232.5,-167.2 232.5,-186.2 298.5,-186.2 298.5,-167.2 232.5,-167.2"/>
<polygon fill="none" stroke="#000000" points="232.5,-167.2 232.5,-186.2 298.5,-186.2 298.5,-167.2 232.5,-167.2"/>
<text text-anchor="start" x="241.7089" y="-173.3" font-family="Helvetica,sans-Serif" font-size="11.00" fill="#000000">4,631 rows</text>
<polygon fill="#ffffff" stroke="transparent" points="298.5,-167.2 298.5,-186.2 326.5,-186.2 326.5,-167.2 298.5,-167.2"/>
<polygon fill="none" stroke="#000000" points="298.5,-167.2 298.5,-186.2 326.5,-186.2 326.5,-167.2 298.5,-167.2"/>
<text text-anchor="start" x="307.9053" y="-173.3" font-family="Helvetica,sans-Serif" font-size="11.00" fill="#000000">2 &gt;</text>
</a>
</g>
</g>
<!-- crn_be_DataCore&#45;&gt;crn_amsID -->
<g id="edge6" class="edge">
<title>crn_be_DataCore:w&#45;&gt;crn_amsID:e</title>
<path fill="none" stroke="#000000" d="M183.0414,-217.1627C157.4754,-220.7589 147.34,-233.2 115.5,-233.2"/>
<polygon fill="#000000" stroke="#000000" points="189.5177,-216.7315 197.7392,-219.792 193.5088,-216.4658 197.5,-216.2 197.5,-216.2 197.5,-216.2 193.5088,-216.4658 197.2608,-212.608 189.5177,-216.7315 189.5177,-216.7315"/>
<ellipse fill="none" stroke="#000000" cx="186.3247" cy="-216.9442" rx="3.2" ry="3.2"/>
</g>
<!-- crn_be_DataCore&#45;&gt;global_dbDOI -->
<g id="edge8" class="edge">
<title>crn_be_DataCore:w&#45;&gt;global_dbDOI:e</title>
<path fill="none" stroke="#000000" d="M183.0712,-284.1498C116.2751,-304.6096 210.6967,-479.2 122.5,-479.2"/>
<polygon fill="#000000" stroke="#000000" points="189.5721,-283.2714 197.9821,-285.7676 193.536,-282.7357 197.5,-282.2 197.5,-282.2 197.5,-282.2 193.536,-282.7357 197.0179,-278.6324 189.5721,-283.2714 189.5721,-283.2714"/>
<ellipse fill="none" stroke="#000000" cx="186.4009" cy="-283.6999" rx="3.2" ry="3.2"/>
</g>
<!-- crn_be_DataCore&#45;&gt;global_RefCore -->
<g id="edge9" class="edge">
<title>crn_be_DataCore:w&#45;&gt;global_RefCore:e</title>
<path fill="none" stroke="#000000" d="M183.1023,-263.3146C159.5567,-274.9495 161.3471,-315.2 127.5,-315.2"/>
<polygon fill="#000000" stroke="#000000" points="189.6809,-261.8915 198.2612,-263.7186 193.5904,-261.0458 197.5,-260.2 197.5,-260.2 197.5,-260.2 193.5904,-261.0458 196.7388,-256.6814 189.6809,-261.8915 189.6809,-261.8915"/>
<ellipse fill="none" stroke="#000000" cx="186.5532" cy="-262.5682" rx="3.2" ry="3.2"/>
</g>
<!-- crn_be_DataCore&#45;&gt;crn_Sample -->
<g id="edge10" class="edge">
<title>crn_be_DataCore:w&#45;&gt;crn_Sample:e</title>
<path fill="none" stroke="#000000" d="M183.0373,-305.7093C91.8135,-326.7712 232.6289,-561.2 118.5,-561.2"/>
<polygon fill="#000000" stroke="#000000" points="189.5432,-305.0304 197.8737,-307.7806 193.5216,-304.6152 197.5,-304.2 197.5,-304.2 197.5,-304.2 193.5216,-304.6152 197.1263,-300.6194 189.5432,-305.0304 189.5432,-305.0304"/>
<ellipse fill="none" stroke="#000000" cx="186.3605" cy="-305.3625" rx="3.2" ry="3.2"/>
</g>
<!-- crn_bestndID -->
<g id="node8" class="node">
<title>crn_bestndID</title>
<g id="a_node8"><a xlink:href="../../tables/crn_bestndID.html" xlink:title="crn_bestndID" target="_top">
<polygon fill="#ffffff" stroke="transparent" points="13.5,-123.7 13.5,-184.7 121.5,-184.7 121.5,-123.7 13.5,-123.7"/>
<polygon fill="#f5f5f5" stroke="transparent" points="13.5,-161.2 13.5,-184.2 121.5,-184.2 121.5,-161.2 13.5,-161.2"/>
<polygon fill="none" stroke="#000000" points="13.5,-161.2 13.5,-184.2 121.5,-184.2 121.5,-161.2 13.5,-161.2"/>
<text text-anchor="start" x="18.297" y="-170.3" font-family="Helvetica,sans-Serif" font-weight="bold" font-size="11.00" fill="#000000">crn_bestndID</text>
<text text-anchor="start" x="87.0219" y="-169.3" font-family="Helvetica,sans-Serif" font-size="11.00" fill="#000000">[table]</text>
<polygon fill="none" stroke="#000000" points="13.5,-142.2 13.5,-161.2 121.5,-161.2 121.5,-142.2 13.5,-142.2"/>
<text text-anchor="start" x="16.5" y="-148.3" font-family="Helvetica,sans-Serif" font-size="11.00" fill="#000000">...</text>
<polygon fill="#ffffff" stroke="transparent" points="13.5,-123.2 13.5,-142.2 40.5,-142.2 40.5,-123.2 13.5,-123.2"/>
<polygon fill="none" stroke="#000000" points="13.5,-123.2 13.5,-142.2 40.5,-142.2 40.5,-123.2 13.5,-123.2"/>
<text text-anchor="start" x="16.5" y="-129.3" font-family="Helvetica,sans-Serif" font-size="11.00" fill="#000000"> &#160;</text>
<polygon fill="#ffffff" stroke="transparent" points="40.5,-123.2 40.5,-142.2 92.5,-142.2 92.5,-123.2 40.5,-123.2"/>
<polygon fill="none" stroke="#000000" points="40.5,-123.2 40.5,-142.2 92.5,-142.2 92.5,-123.2 40.5,-123.2"/>
<text text-anchor="start" x="50.9956" y="-129.3" font-family="Helvetica,sans-Serif" font-size="11.00" fill="#000000">60 rows</text>
<polygon fill="#ffffff" stroke="transparent" points="92.5,-123.2 92.5,-142.2 121.5,-142.2 121.5,-123.2 92.5,-123.2"/>
<polygon fill="none" stroke="#000000" points="92.5,-123.2 92.5,-142.2 121.5,-142.2 121.5,-123.2 92.5,-123.2"/>
<text text-anchor="start" x="102.9053" y="-129.3" font-family="Helvetica,sans-Serif" font-size="11.00" fill="#000000">2 &gt;</text>
</a>
</g>
</g>
<!-- crn_be_DataCore&#45;&gt;crn_bestndID -->
<g id="edge7" class="edge">
<title>crn_be_DataCore:w&#45;&gt;crn_bestndID:e</title>
<path fill="none" stroke="#000000" d="M183.2494,-235.3054C151.0614,-220.2095 167.2269,-151.2 121.5,-151.2"/>
<polygon fill="#000000" stroke="#000000" points="189.6601,-236.6075 196.7834,-241.728 193.58,-237.4037 197.5,-238.2 197.5,-238.2 197.5,-238.2 193.58,-237.4037 198.2166,-234.672 189.6601,-236.6075 189.6601,-236.6075"/>
<ellipse fill="none" stroke="#000000" cx="186.5241" cy="-235.9705" rx="3.2" ry="3.2"/>
</g>
<!-- crn_v3_basins_EPSG3857 -->
<g id="node9" class="node">
<title>crn_v3_basins_EPSG3857</title>
<g id="a_node9"><a xlink:href="../../tables/crn_v3_basins_EPSG3857.html" xlink:title="crn_v3_basins_EPSG3857" target="_top">
<polygon fill="#ffffff" stroke="transparent" points="456,-362.7 456,-423.7 631,-423.7 631,-362.7 456,-362.7"/>
<polygon fill="#f5f5f5" stroke="transparent" points="456.5,-400.2 456.5,-423.2 631.5,-423.2 631.5,-400.2 456.5,-400.2"/>
<polygon fill="none" stroke="#000000" points="456.5,-400.2 456.5,-423.2 631.5,-423.2 631.5,-400.2 456.5,-400.2"/>
<text text-anchor="start" x="461.4769" y="-409.3" font-family="Helvetica,sans-Serif" font-weight="bold" font-size="11.00" fill="#000000">crn_v3_basins_EPSG3857</text>
<text text-anchor="start" x="597.0219" y="-408.3" font-family="Helvetica,sans-Serif" font-size="11.00" fill="#000000">[table]</text>
<polygon fill="none" stroke="#000000" points="456.5,-381.2 456.5,-400.2 631.5,-400.2 631.5,-381.2 456.5,-381.2"/>
<text text-anchor="start" x="459.5" y="-387.3" font-family="Helvetica,sans-Serif" font-size="11.00" fill="#000000">...</text>
<polygon fill="#ffffff" stroke="transparent" points="456.5,-362.2 456.5,-381.2 518.5,-381.2 518.5,-362.2 456.5,-362.2"/>
<polygon fill="none" stroke="#000000" points="456.5,-362.2 456.5,-381.2 518.5,-381.2 518.5,-362.2 456.5,-362.2"/>
<text text-anchor="start" x="459.5" y="-368.3" font-family="Helvetica,sans-Serif" font-size="11.00" fill="#000000">&lt; 3</text>
<polygon fill="#ffffff" stroke="transparent" points="518.5,-362.2 518.5,-381.2 598.5,-381.2 598.5,-362.2 518.5,-362.2"/>
<polygon fill="none" stroke="#000000" points="518.5,-362.2 518.5,-381.2 598.5,-381.2 598.5,-362.2 518.5,-362.2"/>
<text text-anchor="start" x="541.7089" y="-368.3" font-family="Helvetica,sans-Serif" font-size="11.00" fill="#000000">4,631 rows</text>
<polygon fill="#ffffff" stroke="transparent" points="598.5,-362.2 598.5,-381.2 631.5,-381.2 631.5,-362.2 598.5,-362.2"/>
<polygon fill="none" stroke="#000000" points="598.5,-362.2 598.5,-381.2 631.5,-381.2 631.5,-362.2 598.5,-362.2"/>
<text text-anchor="start" x="622.3862" y="-368.3" font-family="Helvetica,sans-Serif" font-size="11.00" fill="#000000"> &#160;</text>
</a>
</g>
</g>
<!-- crn_v3_basins_EPSG3857&#45;&gt;crn_al_DataCore -->
<g id="edge11" class="edge">
<title>crn_v3_basins_EPSG3857:w&#45;&gt;crn_al_DataCore:e</title>
<path fill="none" stroke="#000000" d="M445.7757,-391.007C371.3669,-402.8137 409.4886,-540.2 324.5,-540.2"/>
<polygon fill="#000000" stroke="#000000" points="455.4021,-386.2713 456.0025,-394.2488 454.407,-394.3688 453.8066,-386.3914 455.4021,-386.2713"/>
<polyline fill="none" stroke="#000000" points="456.5,-390.2 452.5113,-390.5002 "/>
<ellipse fill="none" stroke="#000000" cx="449.3203" cy="-390.7404" rx="3.2" ry="3.2"/>
</g>
<!-- crn_v3_basins_EPSG3857&#45;&gt;crn_be_DataCore -->
<g id="edge12" class="edge">
<title>crn_v3_basins_EPSG3857:w&#45;&gt;crn_be_DataCore:e</title>
<path fill="none" stroke="#000000" d="M445.8052,-389.5666C391.7424,-382.9197 387.1265,-326.2 326.5,-326.2"/>
<polygon fill="#000000" stroke="#000000" points="455.9379,-386.1597 455.4649,-394.1457 453.8677,-394.0511 454.3407,-386.0651 455.9379,-386.1597"/>
<polyline fill="none" stroke="#000000" points="456.5,-390.2 452.507,-389.9635 "/>
<ellipse fill="none" stroke="#000000" cx="449.3126" cy="-389.7742" rx="3.2" ry="3.2"/>
</g>
<!-- crn_studies_boundingbox -->
<g id="node10" class="node">
<title>crn_studies_boundingbox</title>
<g id="a_node10"><a xlink:href="../../tables/crn_studies_boundingbox.html" xlink:title="crn_studies_boundingbox" target="_top">
<polygon fill="#ffffff" stroke="transparent" points="176,-38.2 176,-146.2 347,-146.2 347,-38.2 176,-38.2"/>
<polygon fill="#f5f5f5" stroke="transparent" points="176.5,-123.2 176.5,-146.2 347.5,-146.2 347.5,-123.2 176.5,-123.2"/>
<polygon fill="none" stroke="#000000" points="176.5,-123.2 176.5,-146.2 347.5,-146.2 347.5,-123.2 176.5,-123.2"/>
<text text-anchor="start" x="181.5" y="-132.3" font-family="Helvetica,sans-Serif" font-weight="bold" font-size="11.00" fill="#000000">crn_studies_boundingbox</text>
<text text-anchor="start" x="312.5437" y="-131.3" font-family="Helvetica,sans-Serif" font-size="11.00" fill="#000000">[table]</text>
<polygon fill="none" stroke="#000000" points="176.5,-101.2 176.5,-123.2 347.5,-123.2 347.5,-101.2 176.5,-101.2"/>
<image xlink:href="../../images/primaryKeys.png" width="11px" height="12px" preserveAspectRatio="xMinYMin meet" x="181.5" y="-118.2"/>
<text text-anchor="start" x="196.5" y="-108.3" font-family="Helvetica,sans-Serif" font-size="11.00" fill="#000000">id</text>
<polygon fill="#ffffff" stroke="transparent" points="176.5,-79.2 176.5,-101.2 347.5,-101.2 347.5,-79.2 176.5,-79.2"/>
<polygon fill="none" stroke="#000000" points="176.5,-79.2 176.5,-101.2 347.5,-101.2 347.5,-79.2 176.5,-79.2"/>
<text text-anchor="start" x="196.5" y="-86.3" font-family="Helvetica,sans-Serif" font-size="11.00" fill="#000000">geom</text>
<polygon fill="none" stroke="#000000" points="176.5,-57.2 176.5,-79.2 347.5,-79.2 347.5,-57.2 176.5,-57.2"/>
<image xlink:href="../../images/primaryKeys.png" width="11px" height="12px" preserveAspectRatio="xMinYMin meet" x="181.5" y="-74.2"/>
<text text-anchor="start" x="196.5" y="-64.3" font-family="Helvetica,sans-Serif" font-size="11.00" fill="#000000">STUDYID</text>
<polygon fill="#ffffff" stroke="transparent" points="176.5,-38.2 176.5,-57.2 232.5,-57.2 232.5,-38.2 176.5,-38.2"/>
<polygon fill="none" stroke="#000000" points="176.5,-38.2 176.5,-57.2 232.5,-57.2 232.5,-38.2 176.5,-38.2"/>
<text text-anchor="start" x="179.5" y="-44.3" font-family="Helvetica,sans-Serif" font-size="11.00" fill="#000000"> &#160;</text>
<polygon fill="#ffffff" stroke="transparent" points="232.5,-38.2 232.5,-57.2 304.5,-57.2 304.5,-38.2 232.5,-38.2"/>
<polygon fill="none" stroke="#000000" points="232.5,-38.2 232.5,-57.2 304.5,-57.2 304.5,-38.2 232.5,-38.2"/>
<text text-anchor="start" x="256.8807" y="-44.3" font-family="Helvetica,sans-Serif" font-size="11.00" fill="#000000">233 rows</text>
<polygon fill="#ffffff" stroke="transparent" points="304.5,-38.2 304.5,-57.2 347.5,-57.2 347.5,-38.2 304.5,-38.2"/>
<polygon fill="none" stroke="#000000" points="304.5,-38.2 304.5,-57.2 347.5,-57.2 347.5,-38.2 304.5,-38.2"/>
<text text-anchor="start" x="328.9053" y="-44.3" font-family="Helvetica,sans-Serif" font-size="11.00" fill="#000000">2 &gt;</text>
</a>
</g>
</g>
<!-- crn_v3_basins_EPSG3857&#45;&gt;crn_studies_boundingbox -->
<g id="edge13" class="edge">
<title>crn_v3_basins_EPSG3857:w&#45;&gt;crn_studies_boundingbox:e</title>
<path fill="none" stroke="#000000" d="M441.9474,-389.5153C417.3025,-386.9098 404.736,-376.5069 388,-352.2 351.8474,-299.6928 411.2496,-68.2 347.5,-68.2"/>
<polygon fill="#000000" stroke="#000000" points="448.5088,-389.824 456.3308,-393.796 452.5044,-390.012 456.5,-390.2 456.5,-390.2 456.5,-390.2 452.5044,-390.012 456.6692,-386.604 448.5088,-389.824 448.5088,-389.824"/>
<ellipse fill="none" stroke="#000000" cx="445.3124" cy="-389.6736" rx="3.2" ry="3.2"/>
</g>
<!-- crn_v3_outlets_EPSG3857 -->
<g id="node11" class="node">
<title>crn_v3_outlets_EPSG3857</title>
<g id="a_node11"><a xlink:href="../../tables/crn_v3_outlets_EPSG3857.html" xlink:title="crn_v3_outlets_EPSG3857" target="_top">
<polygon fill="#ffffff" stroke="transparent" points="396,-119.2 396,-341.2 691,-341.2 691,-119.2 396,-119.2"/>
<polygon fill="#f5f5f5" stroke="transparent" points="398.5,-316.2 398.5,-339.2 689.5,-339.2 689.5,-316.2 398.5,-316.2"/>
<polygon fill="none" stroke="#000000" points="398.5,-316.2 398.5,-339.2 689.5,-339.2 689.5,-316.2 398.5,-316.2"/>
<text text-anchor="start" x="403.5" y="-325.3" font-family="Helvetica,sans-Serif" font-weight="bold" font-size="11.00" fill="#000000">crn_v3_outlets_EPSG3857</text>
<text text-anchor="start" x="654.5437" y="-324.3" font-family="Helvetica,sans-Serif" font-size="11.00" fill="#000000">[table]</text>
<polygon fill="none" stroke="#000000" points="398.5,-294.2 398.5,-316.2 570.5,-316.2 570.5,-294.2 398.5,-294.2"/>
<image xlink:href="../../images/primaryKeys.png" width="11px" height="12px" preserveAspectRatio="xMinYMin meet" x="403.5" y="-311.2"/>
<text text-anchor="start" x="418.5" y="-301.3" font-family="Helvetica,sans-Serif" font-size="11.00" fill="#000000">id</text>
<polygon fill="none" stroke="#000000" points="570.5,-294.2 570.5,-316.2 689.5,-316.2 689.5,-294.2 570.5,-294.2"/>
<text text-anchor="start" x="573.5" y="-301.9" font-family="Helvetica,sans-Serif" font-size="11.00" fill="#000000">serial[10]</text>
<polygon fill="#ffffff" stroke="transparent" points="398.5,-272.2 398.5,-294.2 570.5,-294.2 570.5,-272.2 398.5,-272.2"/>
<polygon fill="none" stroke="#000000" points="398.5,-272.2 398.5,-294.2 570.5,-294.2 570.5,-272.2 398.5,-272.2"/>
<text text-anchor="start" x="418.5" y="-279.3" font-family="Helvetica,sans-Serif" font-size="11.00" fill="#000000">geom</text>
<polygon fill="none" stroke="#000000" points="570.5,-272.2 570.5,-294.2 689.5,-294.2 689.5,-272.2 570.5,-272.2"/>
<text text-anchor="start" x="573.4485" y="-279.9" font-family="Helvetica,sans-Serif" font-size="11.00" fill="#000000">geometry[2147483647]</text>
<polygon fill="none" stroke="#000000" points="398.5,-250.2 398.5,-272.2 570.5,-272.2 570.5,-250.2 398.5,-250.2"/>
<image xlink:href="../../images/primaryKeys.png" width="11px" height="12px" preserveAspectRatio="xMinYMin meet" x="403.5" y="-267.2"/>
<text text-anchor="start" x="418.5" y="-257.3" font-family="Helvetica,sans-Serif" font-size="11.00" fill="#000000">OBSID1</text>
<polygon fill="none" stroke="#000000" points="570.5,-250.2 570.5,-272.2 689.5,-272.2 689.5,-250.2 570.5,-250.2"/>
<text text-anchor="start" x="573.5" y="-257.9" font-family="Helvetica,sans-Serif" font-size="11.00" fill="#000000">text[2147483647]</text>
<polygon fill="none" stroke="#000000" points="398.5,-228.2 398.5,-250.2 570.5,-250.2 570.5,-228.2 398.5,-228.2"/>
<text text-anchor="start" x="418.5" y="-235.3" font-family="Helvetica,sans-Serif" font-size="11.00" fill="#000000">OBSID2</text>
<polygon fill="none" stroke="#000000" points="570.5,-228.2 570.5,-250.2 689.5,-250.2 689.5,-228.2 570.5,-228.2"/>
<text text-anchor="start" x="573.5" y="-235.9" font-family="Helvetica,sans-Serif" font-size="11.00" fill="#000000">text[2147483647]</text>
<polygon fill="none" stroke="#000000" points="398.5,-206.2 398.5,-228.2 570.5,-228.2 570.5,-206.2 398.5,-206.2"/>
<image xlink:href="../../images/foreignKeys.png" width="11px" height="12px" preserveAspectRatio="xMinYMin meet" x="403.5" y="-223.2"/>
<text text-anchor="start" x="418.5" y="-213.3" font-family="Helvetica,sans-Serif" font-size="11.00" fill="#000000">STUDYID</text>
<polygon fill="none" stroke="#000000" points="570.5,-206.2 570.5,-228.2 689.5,-228.2 689.5,-206.2 570.5,-206.2"/>
<text text-anchor="start" x="573.5" y="-213.9" font-family="Helvetica,sans-Serif" font-size="11.00" fill="#000000">varchar[5]</text>
<polygon fill="none" stroke="#000000" points="398.5,-184.2 398.5,-206.2 570.5,-206.2 570.5,-184.2 398.5,-184.2"/>
<text text-anchor="start" x="418.5" y="-191.3" font-family="Helvetica,sans-Serif" font-size="11.00" fill="#000000">CRN_SUBCMP</text>
<polygon fill="none" stroke="#000000" points="570.5,-184.2 570.5,-206.2 689.5,-206.2 689.5,-184.2 570.5,-184.2"/>
<text text-anchor="start" x="573.5" y="-191.9" font-family="Helvetica,sans-Serif" font-size="11.00" fill="#000000">varchar[3]</text>
<polygon fill="none" stroke="#000000" points="398.5,-162.2 398.5,-184.2 570.5,-184.2 570.5,-162.2 398.5,-162.2"/>
<text text-anchor="start" x="418.5" y="-169.3" font-family="Helvetica,sans-Serif" font-size="11.00" fill="#000000">CREATED_AT</text>
<polygon fill="none" stroke="#000000" points="570.5,-162.2 570.5,-184.2 689.5,-184.2 689.5,-162.2 570.5,-162.2"/>
<text text-anchor="start" x="573.5" y="-169.9" font-family="Helvetica,sans-Serif" font-size="11.00" fill="#000000">timestamptz[35,6]</text>
<polygon fill="none" stroke="#000000" points="398.5,-140.2 398.5,-162.2 570.5,-162.2 570.5,-140.2 398.5,-140.2"/>
<text text-anchor="start" x="418.5" y="-147.3" font-family="Helvetica,sans-Serif" font-size="11.00" fill="#000000">UPDATED_AT</text>
<polygon fill="none" stroke="#000000" points="570.5,-140.2 570.5,-162.2 689.5,-162.2 689.5,-140.2 570.5,-140.2"/>
<text text-anchor="start" x="573.5" y="-147.9" font-family="Helvetica,sans-Serif" font-size="11.00" fill="#000000">timestamptz[35,6]</text>
<polygon fill="#ffffff" stroke="transparent" points="398.5,-121.2 398.5,-140.2 465.5,-140.2 465.5,-121.2 398.5,-121.2"/>
<polygon fill="none" stroke="#000000" points="398.5,-121.2 398.5,-140.2 465.5,-140.2 465.5,-121.2 398.5,-121.2"/>
<text text-anchor="start" x="401.5" y="-127.3" font-family="Helvetica,sans-Serif" font-size="11.00" fill="#000000">&lt; 3</text>
<polygon fill="#ffffff" stroke="transparent" points="465.5,-121.2 465.5,-140.2 570.5,-140.2 570.5,-121.2 465.5,-121.2"/>
<polygon fill="none" stroke="#000000" points="465.5,-121.2 465.5,-140.2 570.5,-140.2 570.5,-121.2 465.5,-121.2"/>
<text text-anchor="start" x="513.7089" y="-127.3" font-family="Helvetica,sans-Serif" font-size="11.00" fill="#000000">4,631 rows</text>
<polygon fill="#ffffff" stroke="transparent" points="570.5,-121.2 570.5,-140.2 689.5,-140.2 689.5,-121.2 570.5,-121.2"/>
<polygon fill="none" stroke="#000000" points="570.5,-121.2 570.5,-140.2 689.5,-140.2 689.5,-121.2 570.5,-121.2"/>
<text text-anchor="start" x="670.9053" y="-127.3" font-family="Helvetica,sans-Serif" font-size="11.00" fill="#000000">0 &gt;</text>
<polygon fill="none" stroke="#000000" stroke-width="2" points="397,-120.2 397,-340.2 690,-340.2 690,-120.2 397,-120.2"/>
</a>
</g>
</g>
<!-- crn_v3_outlets_EPSG3857&#45;&gt;crn_al_DataCore -->
<g id="edge14" class="edge">
<title>crn_v3_outlets_EPSG3857:w&#45;&gt;crn_al_DataCore:e</title>
<path fill="none" stroke="#000000" d="M388.3969,-263.9614C340.3115,-292.9374 384.8853,-540.2 324.5,-540.2"/>
<polygon fill="#000000" stroke="#000000" points="396.6737,-257.5524 398.7829,-265.2694 397.2395,-265.6912 395.1303,-257.9743 396.6737,-257.5524"/>
<polyline fill="none" stroke="#000000" points="398.5,-261.2 394.6415,-262.2546 "/>
<ellipse fill="none" stroke="#000000" cx="391.5547" cy="-263.0983" rx="3.2" ry="3.2"/>
</g>
<!-- crn_v3_outlets_EPSG3857&#45;&gt;crn_be_DataCore -->
<g id="edge15" class="edge">
<title>crn_v3_outlets_EPSG3857:w&#45;&gt;crn_be_DataCore:e</title>
<path fill="none" stroke="#000000" d="M388.1854,-262.6797C357.4817,-272.355 365.7378,-326.2 326.5,-326.2"/>
<polygon fill="#000000" stroke="#000000" points="397.14,-257.3541 398.2762,-265.2731 396.6924,-265.5003 395.5563,-257.5814 397.14,-257.3541"/>
<polyline fill="none" stroke="#000000" points="398.5,-261.2 394.5405,-261.7681 "/>
<ellipse fill="none" stroke="#000000" cx="391.373" cy="-262.2225" rx="3.2" ry="3.2"/>
</g>
<!-- crn_v3_outlets_EPSG3857&#45;&gt;crn_studies_boundingbox -->
<g id="edge16" class="edge">
<title>crn_v3_outlets_EPSG3857:w&#45;&gt;crn_studies_boundingbox:e</title>
<path fill="none" stroke="#000000" d="M384.3088,-214.3566C342.0358,-193.7573 411.7523,-68.2 347.5,-68.2"/>
<polygon fill="#000000" stroke="#000000" points="390.6559,-215.6283 397.7927,-220.7298 394.578,-216.4141 398.5,-217.2 398.5,-217.2 398.5,-217.2 394.578,-216.4141 399.2073,-213.6702 390.6559,-215.6283 390.6559,-215.6283"/>
<ellipse fill="none" stroke="#000000" cx="387.5183" cy="-214.9996" rx="3.2" ry="3.2"/>
</g>
</g>
</svg>
