<?xml version="1.0" encoding="UTF-8" standalone="no"?>
<!DOCTYPE svg PUBLIC "-//W3C//DTD SVG 1.1//EN"
 "http://www.w3.org/Graphics/SVG/1.1/DTD/svg11.dtd">
<!-- Generated by graphviz version 2.40.1 (20161225.0304)
 -->
<!-- Title: twoDegreesRelationshipsDiagramImplied Pages: 1 -->
<svg width="727pt" height="1031pt"
 viewBox="0.00 0.00 727.00 1031.20" xmlns="http://www.w3.org/2000/svg" xmlns:xlink="http://www.w3.org/1999/xlink">
<g id="graph0" class="graph" transform="scale(1 1) rotate(0) translate(4 1027.2)">
<title>twoDegreesRelationshipsDiagramImplied</title>
<polygon fill="#ffffff" stroke="transparent" points="-4,4 -4,-1027.2 723,-1027.2 723,4 -4,4"/>
<text text-anchor="middle" x="72.4936" y="-7.3" font-family="Helvetica,sans-Serif" font-size="11.00" fill="#000000">Generated by SchemaSpy</text>
<!-- crn_aus_basins -->
<g id="node1" class="node">
<title>crn_aus_basins</title>
<g id="a_node1"><a xlink:href="../../tables/crn_aus_basins.html" xlink:title="crn_aus_basins" target="_top">
<polygon fill="#ffffff" stroke="transparent" points="260.5,-462.2 260.5,-523.2 389.5,-523.2 389.5,-462.2 260.5,-462.2"/>
<polygon fill="#f5f5f5" stroke="transparent" points="261,-499.7 261,-522.7 390,-522.7 390,-499.7 261,-499.7"/>
<polygon fill="none" stroke="#000000" points="261,-499.7 261,-522.7 390,-522.7 390,-499.7 261,-499.7"/>
<text text-anchor="start" x="266" y="-508.3" font-family="Helvetica,sans-Serif" font-weight="bold" font-size="11.00" fill="#000000">crn_aus_basins</text>
<text text-anchor="start" x="355.5219" y="-507.8" font-family="Helvetica,sans-Serif" font-size="11.00" fill="#000000">[table]</text>
<polygon fill="none" stroke="#000000" points="261,-480.7 261,-499.7 390,-499.7 390,-480.7 261,-480.7"/>
<text text-anchor="start" x="264" y="-486.8" font-family="Helvetica,sans-Serif" font-size="11.00" fill="#000000">...</text>
<polygon fill="#ffffff" stroke="transparent" points="261,-461.7 261,-480.7 305,-480.7 305,-461.7 261,-461.7"/>
<polygon fill="none" stroke="#000000" points="261,-461.7 261,-480.7 305,-480.7 305,-461.7 261,-461.7"/>
<text text-anchor="start" x="264" y="-467.8" font-family="Helvetica,sans-Serif" font-size="11.00" fill="#000000">&lt; 4</text>
<polygon fill="#ffffff" stroke="transparent" points="305,-461.7 305,-480.7 366,-480.7 366,-461.7 305,-461.7"/>
<polygon fill="none" stroke="#000000" points="305,-461.7 305,-480.7 366,-480.7 366,-461.7 305,-461.7"/>
<text text-anchor="start" x="318.3807" y="-467.8" font-family="Helvetica,sans-Serif" font-size="11.00" fill="#000000">297 rows</text>
<polygon fill="#ffffff" stroke="transparent" points="366,-461.7 366,-480.7 390,-480.7 390,-461.7 366,-461.7"/>
<polygon fill="none" stroke="#000000" points="366,-461.7 366,-480.7 390,-480.7 390,-461.7 366,-461.7"/>
<text text-anchor="start" x="380.8862" y="-467.8" font-family="Helvetica,sans-Serif" font-size="11.00" fill="#000000"> &#160;</text>
</a>
</g>
</g>
<!-- crn_studynote -->
<g id="node2" class="node">
<title>crn_studynote</title>
<g id="a_node2"><a xlink:href="../../tables/crn_studynote.html" xlink:title="crn_studynote" target="_top">
<polygon fill="#ffffff" stroke="transparent" points="8,-441.2 8,-524.2 129,-524.2 129,-441.2 8,-441.2"/>
<polygon fill="#f5f5f5" stroke="transparent" points="8.5,-500.7 8.5,-523.7 129.5,-523.7 129.5,-500.7 8.5,-500.7"/>
<polygon fill="none" stroke="#000000" points="8.5,-500.7 8.5,-523.7 129.5,-523.7 129.5,-500.7 8.5,-500.7"/>
<text text-anchor="start" x="13.5" y="-509.3" font-family="Helvetica,sans-Serif" font-weight="bold" font-size="11.00" fill="#000000">crn_studynote</text>
<text text-anchor="start" x="95.0219" y="-508.8" font-family="Helvetica,sans-Serif" font-size="11.00" fill="#000000">[table]</text>
<polygon fill="none" stroke="#000000" points="8.5,-478.7 8.5,-500.7 129.5,-500.7 129.5,-478.7 8.5,-478.7"/>
<image xlink:href="../../images/primaryKeys.png" width="11px" height="12px" preserveAspectRatio="xMinYMin meet" x="13.5" y="-495.7"/>
<text text-anchor="start" x="37.5" y="-485.8" font-family="Helvetica,sans-Serif" font-size="11.00" fill="#000000">STUDYID</text>
<polygon fill="none" stroke="#000000" points="8.5,-459.7 8.5,-478.7 129.5,-478.7 129.5,-459.7 8.5,-459.7"/>
<text text-anchor="start" x="11.5" y="-465.8" font-family="Helvetica,sans-Serif" font-size="11.00" fill="#000000">...</text>
<polygon fill="#ffffff" stroke="transparent" points="8.5,-440.7 8.5,-459.7 39.5,-459.7 39.5,-440.7 8.5,-440.7"/>
<polygon fill="none" stroke="#000000" points="8.5,-440.7 8.5,-459.7 39.5,-459.7 39.5,-440.7 8.5,-440.7"/>
<text text-anchor="start" x="11.5" y="-446.8" font-family="Helvetica,sans-Serif" font-size="11.00" fill="#000000"> &#160;</text>
<polygon fill="#ffffff" stroke="transparent" points="39.5,-440.7 39.5,-459.7 98.5,-459.7 98.5,-440.7 39.5,-440.7"/>
<polygon fill="none" stroke="#000000" points="39.5,-440.7 39.5,-459.7 98.5,-459.7 98.5,-440.7 39.5,-440.7"/>
<text text-anchor="start" x="50.8807" y="-446.8" font-family="Helvetica,sans-Serif" font-size="11.00" fill="#000000">301 rows</text>
<polygon fill="#ffffff" stroke="transparent" points="98.5,-440.7 98.5,-459.7 129.5,-459.7 129.5,-440.7 98.5,-440.7"/>
<polygon fill="none" stroke="#000000" points="98.5,-440.7 98.5,-459.7 129.5,-459.7 129.5,-440.7 98.5,-440.7"/>
<text text-anchor="start" x="110.9053" y="-446.8" font-family="Helvetica,sans-Serif" font-size="11.00" fill="#000000">9 &gt;</text>
</a>
</g>
</g>
<!-- crn_aus_basins&#45;&gt;crn_studynote -->
<g id="edge1" class="edge">
<title>crn_aus_basins:w&#45;&gt;crn_studynote:e</title>
<path fill="none" stroke="#000000" stroke-dasharray="5,2" d="M246.5461,-489.7C199.6486,-489.7 182.8077,-489.7 129.5,-489.7"/>
<polygon fill="#000000" stroke="#000000" points="253,-489.7001 261,-493.3 257,-489.7 261,-489.7 261,-489.7 261,-489.7 257,-489.7 261,-486.1 253,-489.7001 253,-489.7001"/>
<ellipse fill="none" stroke="#000000" cx="249.8" cy="-489.7001" rx="3.2" ry="3.2"/>
</g>
<!-- crn_aus_outlets -->
<g id="node3" class="node">
<title>crn_aus_outlets</title>
<g id="a_node3"><a xlink:href="../../tables/crn_aus_outlets.html" xlink:title="crn_aus_outlets" target="_top">
<polygon fill="#ffffff" stroke="transparent" points="259.5,-380.2 259.5,-441.2 390.5,-441.2 390.5,-380.2 259.5,-380.2"/>
<polygon fill="#f5f5f5" stroke="transparent" points="260,-417.7 260,-440.7 391,-440.7 391,-417.7 260,-417.7"/>
<polygon fill="none" stroke="#000000" points="260,-417.7 260,-440.7 391,-440.7 391,-417.7 260,-417.7"/>
<text text-anchor="start" x="265" y="-426.3" font-family="Helvetica,sans-Serif" font-weight="bold" font-size="11.00" fill="#000000">crn_aus_outlets</text>
<text text-anchor="start" x="356.5219" y="-425.8" font-family="Helvetica,sans-Serif" font-size="11.00" fill="#000000">[table]</text>
<polygon fill="none" stroke="#000000" points="260,-398.7 260,-417.7 391,-417.7 391,-398.7 260,-398.7"/>
<text text-anchor="start" x="263" y="-404.8" font-family="Helvetica,sans-Serif" font-size="11.00" fill="#000000">...</text>
<polygon fill="#ffffff" stroke="transparent" points="260,-379.7 260,-398.7 305,-398.7 305,-379.7 260,-379.7"/>
<polygon fill="none" stroke="#000000" points="260,-379.7 260,-398.7 305,-398.7 305,-379.7 260,-379.7"/>
<text text-anchor="start" x="263" y="-385.8" font-family="Helvetica,sans-Serif" font-size="11.00" fill="#000000">&lt; 1</text>
<polygon fill="#ffffff" stroke="transparent" points="305,-379.7 305,-398.7 367,-398.7 367,-379.7 305,-379.7"/>
<polygon fill="none" stroke="#000000" points="305,-379.7 305,-398.7 367,-398.7 367,-379.7 305,-379.7"/>
<text text-anchor="start" x="319.3807" y="-385.8" font-family="Helvetica,sans-Serif" font-size="11.00" fill="#000000">297 rows</text>
<polygon fill="#ffffff" stroke="transparent" points="367,-379.7 367,-398.7 391,-398.7 391,-379.7 367,-379.7"/>
<polygon fill="none" stroke="#000000" points="367,-379.7 367,-398.7 391,-398.7 391,-379.7 367,-379.7"/>
<text text-anchor="start" x="381.8862" y="-385.8" font-family="Helvetica,sans-Serif" font-size="11.00" fill="#000000"> &#160;</text>
</a>
</g>
</g>
<!-- crn_aus_outlets&#45;&gt;crn_studynote -->
<g id="edge2" class="edge">
<title>crn_aus_outlets:w&#45;&gt;crn_studynote:e</title>
<path fill="none" stroke="#000000" stroke-dasharray="5,2" d="M245.2825,-408.5014C212.9287,-412.3273 202.2059,-429.4704 170,-451.7 149.6864,-465.7211 154.1827,-489.7 129.5,-489.7"/>
<polygon fill="#000000" stroke="#000000" points="252.0118,-408.135 260.1958,-411.2947 256.0059,-407.9175 260,-407.7 260,-407.7 260,-407.7 256.0059,-407.9175 259.8042,-404.1053 252.0118,-408.135 252.0118,-408.135"/>
<ellipse fill="none" stroke="#000000" cx="248.8166" cy="-408.3091" rx="3.2" ry="3.2"/>
</g>
<!-- crn_inprep_basins -->
<g id="node4" class="node">
<title>crn_inprep_basins</title>
<g id="a_node4"><a xlink:href="../../tables/crn_inprep_basins.html" xlink:title="crn_inprep_basins" target="_top">
<polygon fill="#ffffff" stroke="transparent" points="252.5,-120.2 252.5,-181.2 397.5,-181.2 397.5,-120.2 252.5,-120.2"/>
<polygon fill="#f5f5f5" stroke="transparent" points="253,-157.7 253,-180.7 398,-180.7 398,-157.7 253,-157.7"/>
<polygon fill="none" stroke="#000000" points="253,-157.7 253,-180.7 398,-180.7 398,-157.7 253,-157.7"/>
<text text-anchor="start" x="258" y="-166.3" font-family="Helvetica,sans-Serif" font-weight="bold" font-size="11.00" fill="#000000">crn_inprep_basins</text>
<text text-anchor="start" x="363.5219" y="-165.8" font-family="Helvetica,sans-Serif" font-size="11.00" fill="#000000">[table]</text>
<polygon fill="none" stroke="#000000" points="253,-138.7 253,-157.7 398,-157.7 398,-138.7 253,-138.7"/>
<text text-anchor="start" x="256" y="-144.8" font-family="Helvetica,sans-Serif" font-size="11.00" fill="#000000">...</text>
<polygon fill="#ffffff" stroke="transparent" points="253,-119.7 253,-138.7 305,-138.7 305,-119.7 253,-119.7"/>
<polygon fill="none" stroke="#000000" points="253,-119.7 253,-138.7 305,-138.7 305,-119.7 253,-119.7"/>
<text text-anchor="start" x="256" y="-125.8" font-family="Helvetica,sans-Serif" font-size="11.00" fill="#000000">&lt; 2</text>
<polygon fill="#ffffff" stroke="transparent" points="305,-119.7 305,-138.7 370,-138.7 370,-119.7 305,-119.7"/>
<polygon fill="none" stroke="#000000" points="305,-119.7 305,-138.7 370,-138.7 370,-119.7 305,-119.7"/>
<text text-anchor="start" x="322.3807" y="-125.8" font-family="Helvetica,sans-Serif" font-size="11.00" fill="#000000">157 rows</text>
<polygon fill="#ffffff" stroke="transparent" points="370,-119.7 370,-138.7 398,-138.7 398,-119.7 370,-119.7"/>
<polygon fill="none" stroke="#000000" points="370,-119.7 370,-138.7 398,-138.7 398,-119.7 370,-119.7"/>
<text text-anchor="start" x="388.8862" y="-125.8" font-family="Helvetica,sans-Serif" font-size="11.00" fill="#000000"> &#160;</text>
</a>
</g>
</g>
<!-- crn_inprep_basins&#45;&gt;crn_studynote -->
<g id="edge3" class="edge">
<title>crn_inprep_basins:w&#45;&gt;crn_studynote:e</title>
<path fill="none" stroke="#000000" stroke-dasharray="5,2" d="M238.4262,-148.1862C206.8069,-150.5224 190.9048,-161.7395 170,-191.7 131.7579,-246.5081 196.331,-489.7 129.5,-489.7"/>
<polygon fill="#000000" stroke="#000000" points="245.0044,-147.9668 253.1201,-151.298 249.0022,-147.8334 253,-147.7 253,-147.7 253,-147.7 249.0022,-147.8334 252.8799,-144.102 245.0044,-147.9668 245.0044,-147.9668"/>
<ellipse fill="none" stroke="#000000" cx="241.8062" cy="-148.0735" rx="3.2" ry="3.2"/>
</g>
<!-- crn_inprep_outlets -->
<g id="node5" class="node">
<title>crn_inprep_outlets</title>
<g id="a_node5"><a xlink:href="../../tables/crn_inprep_outlets.html" xlink:title="crn_inprep_outlets" target="_top">
<polygon fill="#ffffff" stroke="transparent" points="251.5,-38.2 251.5,-99.2 398.5,-99.2 398.5,-38.2 251.5,-38.2"/>
<polygon fill="#f5f5f5" stroke="transparent" points="252,-75.7 252,-98.7 399,-98.7 399,-75.7 252,-75.7"/>
<polygon fill="none" stroke="#000000" points="252,-75.7 252,-98.7 399,-98.7 399,-75.7 252,-75.7"/>
<text text-anchor="start" x="257" y="-84.3" font-family="Helvetica,sans-Serif" font-weight="bold" font-size="11.00" fill="#000000">crn_inprep_outlets</text>
<text text-anchor="start" x="364.5219" y="-83.8" font-family="Helvetica,sans-Serif" font-size="11.00" fill="#000000">[table]</text>
<polygon fill="none" stroke="#000000" points="252,-56.7 252,-75.7 399,-75.7 399,-56.7 252,-56.7"/>
<text text-anchor="start" x="255" y="-62.8" font-family="Helvetica,sans-Serif" font-size="11.00" fill="#000000">...</text>
<polygon fill="#ffffff" stroke="transparent" points="252,-37.7 252,-56.7 305,-56.7 305,-37.7 252,-37.7"/>
<polygon fill="none" stroke="#000000" points="252,-37.7 252,-56.7 305,-56.7 305,-37.7 252,-37.7"/>
<text text-anchor="start" x="255" y="-43.8" font-family="Helvetica,sans-Serif" font-size="11.00" fill="#000000">&lt; 1</text>
<polygon fill="#ffffff" stroke="transparent" points="305,-37.7 305,-56.7 371,-56.7 371,-37.7 305,-37.7"/>
<polygon fill="none" stroke="#000000" points="305,-37.7 305,-56.7 371,-56.7 371,-37.7 305,-37.7"/>
<text text-anchor="start" x="323.3807" y="-43.8" font-family="Helvetica,sans-Serif" font-size="11.00" fill="#000000">157 rows</text>
<polygon fill="#ffffff" stroke="transparent" points="371,-37.7 371,-56.7 399,-56.7 399,-37.7 371,-37.7"/>
<polygon fill="none" stroke="#000000" points="371,-37.7 371,-56.7 399,-56.7 399,-37.7 371,-37.7"/>
<text text-anchor="start" x="389.8862" y="-43.8" font-family="Helvetica,sans-Serif" font-size="11.00" fill="#000000"> &#160;</text>
</a>
</g>
</g>
<!-- crn_inprep_outlets&#45;&gt;crn_studynote -->
<g id="edge4" class="edge">
<title>crn_inprep_outlets:w&#45;&gt;crn_studynote:e</title>
<path fill="none" stroke="#000000" stroke-dasharray="5,2" d="M237.5488,-66.1831C206.1658,-68.506 190.202,-79.6738 170,-109.7 122.5941,-180.1595 214.4227,-489.7 129.5,-489.7"/>
<polygon fill="#000000" stroke="#000000" points="244.0045,-65.9674 252.1203,-69.298 248.0022,-65.8337 252,-65.7 252,-65.7 252,-65.7 248.0022,-65.8337 251.8797,-62.102 244.0045,-65.9674 244.0045,-65.9674"/>
<ellipse fill="none" stroke="#000000" cx="240.8063" cy="-66.0743" rx="3.2" ry="3.2"/>
</g>
<!-- crn_int_basins -->
<g id="node6" class="node">
<title>crn_int_basins</title>
<g id="a_node6"><a xlink:href="../../tables/crn_int_basins.html" xlink:title="crn_int_basins" target="_top">
<polygon fill="#ffffff" stroke="transparent" points="263.5,-790.2 263.5,-851.2 386.5,-851.2 386.5,-790.2 263.5,-790.2"/>
<polygon fill="#f5f5f5" stroke="transparent" points="264,-827.7 264,-850.7 387,-850.7 387,-827.7 264,-827.7"/>
<polygon fill="none" stroke="#000000" points="264,-827.7 264,-850.7 387,-850.7 387,-827.7 264,-827.7"/>
<text text-anchor="start" x="269" y="-836.3" font-family="Helvetica,sans-Serif" font-weight="bold" font-size="11.00" fill="#000000">crn_int_basins</text>
<text text-anchor="start" x="352.5219" y="-835.8" font-family="Helvetica,sans-Serif" font-size="11.00" fill="#000000">[table]</text>
<polygon fill="none" stroke="#000000" points="264,-808.7 264,-827.7 387,-827.7 387,-808.7 264,-808.7"/>
<text text-anchor="start" x="267" y="-814.8" font-family="Helvetica,sans-Serif" font-size="11.00" fill="#000000">...</text>
<polygon fill="#ffffff" stroke="transparent" points="264,-789.7 264,-808.7 300,-808.7 300,-789.7 264,-789.7"/>
<polygon fill="none" stroke="#000000" points="264,-789.7 264,-808.7 300,-808.7 300,-789.7 264,-789.7"/>
<text text-anchor="start" x="267" y="-795.8" font-family="Helvetica,sans-Serif" font-size="11.00" fill="#000000">&lt; 4</text>
<polygon fill="#ffffff" stroke="transparent" points="300,-789.7 300,-808.7 367,-808.7 367,-789.7 300,-789.7"/>
<polygon fill="none" stroke="#000000" points="300,-789.7 300,-808.7 367,-808.7 367,-789.7 300,-789.7"/>
<text text-anchor="start" x="310.2089" y="-795.8" font-family="Helvetica,sans-Serif" font-size="11.00" fill="#000000">5.376 rows</text>
<polygon fill="#ffffff" stroke="transparent" points="367,-789.7 367,-808.7 387,-808.7 387,-789.7 367,-789.7"/>
<polygon fill="none" stroke="#000000" points="367,-789.7 367,-808.7 387,-808.7 387,-789.7 367,-789.7"/>
<text text-anchor="start" x="377.8862" y="-795.8" font-family="Helvetica,sans-Serif" font-size="11.00" fill="#000000"> &#160;</text>
</a>
</g>
</g>
<!-- crn_int_basins&#45;&gt;crn_studynote -->
<g id="edge5" class="edge">
<title>crn_int_basins:w&#45;&gt;crn_studynote:e</title>
<path fill="none" stroke="#000000" stroke-dasharray="5,2" d="M249.5598,-817.5603C214.0479,-816.715 194.5836,-811.2002 170,-779.7 129.9663,-728.4029 194.5699,-489.7 129.5,-489.7"/>
<polygon fill="#000000" stroke="#000000" points="256.0004,-817.6225 263.9651,-821.2998 260.0002,-817.6613 264,-817.7 264,-817.7 264,-817.7 260.0002,-817.6613 264.0349,-814.1002 256.0004,-817.6225 256.0004,-817.6225"/>
<ellipse fill="none" stroke="#000000" cx="252.8005" cy="-817.5915" rx="3.2" ry="3.2"/>
</g>
<!-- crn_int_outlets -->
<g id="node7" class="node">
<title>crn_int_outlets</title>
<g id="a_node7"><a xlink:href="../../tables/crn_int_outlets.html" xlink:title="crn_int_outlets" target="_top">
<polygon fill="#ffffff" stroke="transparent" points="262.5,-708.2 262.5,-769.2 387.5,-769.2 387.5,-708.2 262.5,-708.2"/>
<polygon fill="#f5f5f5" stroke="transparent" points="263,-745.7 263,-768.7 388,-768.7 388,-745.7 263,-745.7"/>
<polygon fill="none" stroke="#000000" points="263,-745.7 263,-768.7 388,-768.7 388,-745.7 263,-745.7"/>
<text text-anchor="start" x="268" y="-754.3" font-family="Helvetica,sans-Serif" font-weight="bold" font-size="11.00" fill="#000000">crn_int_outlets</text>
<text text-anchor="start" x="353.5219" y="-753.8" font-family="Helvetica,sans-Serif" font-size="11.00" fill="#000000">[table]</text>
<polygon fill="none" stroke="#000000" points="263,-726.7 263,-745.7 388,-745.7 388,-726.7 263,-726.7"/>
<text text-anchor="start" x="266" y="-732.8" font-family="Helvetica,sans-Serif" font-size="11.00" fill="#000000">...</text>
<polygon fill="#ffffff" stroke="transparent" points="263,-707.7 263,-726.7 300,-726.7 300,-707.7 263,-707.7"/>
<polygon fill="none" stroke="#000000" points="263,-707.7 263,-726.7 300,-726.7 300,-707.7 263,-707.7"/>
<text text-anchor="start" x="266" y="-713.8" font-family="Helvetica,sans-Serif" font-size="11.00" fill="#000000">&lt; 1</text>
<polygon fill="#ffffff" stroke="transparent" points="300,-707.7 300,-726.7 367,-726.7 367,-707.7 300,-707.7"/>
<polygon fill="none" stroke="#000000" points="300,-707.7 300,-726.7 367,-726.7 367,-707.7 300,-707.7"/>
<text text-anchor="start" x="310.2089" y="-713.8" font-family="Helvetica,sans-Serif" font-size="11.00" fill="#000000">5.376 rows</text>
<polygon fill="#ffffff" stroke="transparent" points="367,-707.7 367,-726.7 388,-726.7 388,-707.7 367,-707.7"/>
<polygon fill="none" stroke="#000000" points="367,-707.7 367,-726.7 388,-726.7 388,-707.7 367,-707.7"/>
<text text-anchor="start" x="378.8862" y="-713.8" font-family="Helvetica,sans-Serif" font-size="11.00" fill="#000000"> &#160;</text>
</a>
</g>
</g>
<!-- crn_int_outlets&#45;&gt;crn_studynote -->
<g id="edge6" class="edge">
<title>crn_int_outlets:w&#45;&gt;crn_studynote:e</title>
<path fill="none" stroke="#000000" stroke-dasharray="5,2" d="M248.2646,-735.5117C213.5451,-734.4549 195.0181,-728.1612 170,-697.7 110.225,-624.92 223.6805,-489.7 129.5,-489.7"/>
<polygon fill="#000000" stroke="#000000" points="255.0007,-735.5977 262.954,-739.2997 259.0003,-735.6489 263,-735.7 263,-735.7 263,-735.7 259.0003,-735.6489 263.046,-732.1003 255.0007,-735.5977 255.0007,-735.5977"/>
<ellipse fill="none" stroke="#000000" cx="251.8009" cy="-735.5568" rx="3.2" ry="3.2"/>
</g>
<!-- crn_studies_boundingbox -->
<g id="node8" class="node">
<title>crn_studies_boundingbox</title>
<g id="a_node8"><a xlink:href="../../tables/crn_studies_boundingbox.html" xlink:title="crn_studies_boundingbox" target="_top">
<polygon fill="#ffffff" stroke="transparent" points="178,-202.7 178,-358.7 472,-358.7 472,-202.7 178,-202.7"/>
<polygon fill="#f5f5f5" stroke="transparent" points="180,-333.7 180,-356.7 470,-356.7 470,-333.7 180,-333.7"/>
<polygon fill="none" stroke="#000000" points="180,-333.7 180,-356.7 470,-356.7 470,-333.7 180,-333.7"/>
<text text-anchor="start" x="185" y="-342.3" font-family="Helvetica,sans-Serif" font-weight="bold" font-size="11.00" fill="#000000">crn_studies_boundingbox</text>
<text text-anchor="start" x="435.0437" y="-341.8" font-family="Helvetica,sans-Serif" font-size="11.00" fill="#000000">[table]</text>
<polygon fill="none" stroke="#000000" points="180,-311.7 180,-333.7 351,-333.7 351,-311.7 180,-311.7"/>
<image xlink:href="../../images/primaryKeys.png" width="11px" height="12px" preserveAspectRatio="xMinYMin meet" x="185" y="-328.7"/>
<text text-anchor="start" x="200" y="-318.8" font-family="Helvetica,sans-Serif" font-size="11.00" fill="#000000">id</text>
<polygon fill="none" stroke="#000000" points="351,-311.7 351,-333.7 470,-333.7 470,-311.7 351,-311.7"/>
<text text-anchor="start" x="354" y="-319.4" font-family="Helvetica,sans-Serif" font-size="11.00" fill="#000000">serial[10]</text>
<polygon fill="#ffffff" stroke="transparent" points="180,-289.7 180,-311.7 351,-311.7 351,-289.7 180,-289.7"/>
<polygon fill="none" stroke="#000000" points="180,-289.7 180,-311.7 351,-311.7 351,-289.7 180,-289.7"/>
<text text-anchor="start" x="200" y="-296.8" font-family="Helvetica,sans-Serif" font-size="11.00" fill="#000000">geom</text>
<polygon fill="none" stroke="#000000" points="351,-289.7 351,-311.7 470,-311.7 470,-289.7 351,-289.7"/>
<text text-anchor="start" x="353.9485" y="-297.4" font-family="Helvetica,sans-Serif" font-size="11.00" fill="#000000">geometry[2147483647]</text>
<polygon fill="#ffffff" stroke="transparent" points="180,-267.7 180,-289.7 351,-289.7 351,-267.7 180,-267.7"/>
<polygon fill="none" stroke="#000000" points="180,-267.7 180,-289.7 351,-289.7 351,-267.7 180,-267.7"/>
<image xlink:href="../../images/foreignKeys.png" width="11px" height="12px" preserveAspectRatio="xMinYMin meet" x="185" y="-284.7"/>
<text text-anchor="start" x="200" y="-274.8" font-family="Helvetica,sans-Serif" font-size="11.00" fill="#000000">STUDYID</text>
<polygon fill="none" stroke="#000000" points="351,-267.7 351,-289.7 470,-289.7 470,-267.7 351,-267.7"/>
<text text-anchor="start" x="354" y="-275.4" font-family="Helvetica,sans-Serif" font-size="11.00" fill="#000000">varchar[5]</text>
<polygon fill="none" stroke="#000000" points="180,-245.7 180,-267.7 351,-267.7 351,-245.7 180,-245.7"/>
<text text-anchor="start" x="200" y="-252.8" font-family="Helvetica,sans-Serif" font-size="11.00" fill="#000000">CREATED_AT</text>
<polygon fill="none" stroke="#000000" points="351,-245.7 351,-267.7 470,-267.7 470,-245.7 351,-245.7"/>
<text text-anchor="start" x="354" y="-253.4" font-family="Helvetica,sans-Serif" font-size="11.00" fill="#000000">timestamptz[35,6]</text>
<polygon fill="none" stroke="#000000" points="180,-223.7 180,-245.7 351,-245.7 351,-223.7 180,-223.7"/>
<text text-anchor="start" x="200" y="-230.8" font-family="Helvetica,sans-Serif" font-size="11.00" fill="#000000">UPDATED_AT</text>
<polygon fill="none" stroke="#000000" points="351,-223.7 351,-245.7 470,-245.7 470,-223.7 351,-223.7"/>
<text text-anchor="start" x="354" y="-231.4" font-family="Helvetica,sans-Serif" font-size="11.00" fill="#000000">timestamptz[35,6]</text>
<polygon fill="#ffffff" stroke="transparent" points="180,-204.7 180,-223.7 251,-223.7 251,-204.7 180,-204.7"/>
<polygon fill="none" stroke="#000000" points="180,-204.7 180,-223.7 251,-223.7 251,-204.7 180,-204.7"/>
<text text-anchor="start" x="183" y="-210.8" font-family="Helvetica,sans-Serif" font-size="11.00" fill="#000000">&lt; 1</text>
<polygon fill="#ffffff" stroke="transparent" points="251,-204.7 251,-223.7 351,-223.7 351,-204.7 251,-204.7"/>
<polygon fill="none" stroke="#000000" points="251,-204.7 251,-223.7 351,-223.7 351,-204.7 251,-204.7"/>
<text text-anchor="start" x="303.3807" y="-210.8" font-family="Helvetica,sans-Serif" font-size="11.00" fill="#000000">301 rows</text>
<polygon fill="#ffffff" stroke="transparent" points="351,-204.7 351,-223.7 470,-223.7 470,-204.7 351,-204.7"/>
<polygon fill="none" stroke="#000000" points="351,-204.7 351,-223.7 470,-223.7 470,-204.7 351,-204.7"/>
<text text-anchor="start" x="451.4053" y="-210.8" font-family="Helvetica,sans-Serif" font-size="11.00" fill="#000000">2 &gt;</text>
<polygon fill="none" stroke="#000000" stroke-width="2" points="179,-203.7 179,-357.7 471,-357.7 471,-203.7 179,-203.7"/>
</a>
</g>
</g>
<!-- crn_studies_boundingbox&#45;&gt;crn_studynote -->
<g id="edge7" class="edge">
<title>crn_studies_boundingbox:w&#45;&gt;crn_studynote:e</title>
<path fill="none" stroke="#000000" stroke-dasharray="5,2" d="M169.3072,-279.7358C94.8494,-295.6536 221.9713,-489.7 129.5,-489.7"/>
<polygon fill="#000000" stroke="#000000" points="178.818,-274.7958 179.5894,-282.7585 177.9969,-282.9128 177.2255,-274.95 178.818,-274.7958"/>
<polyline fill="none" stroke="#000000" points="180,-278.7 176.0186,-279.0857 "/>
<ellipse fill="none" stroke="#000000" cx="172.8335" cy="-279.3942" rx="3.2" ry="3.2"/>
</g>
<!-- crn_v3_basins_EPSG3857 -->
<g id="node9" class="node">
<title>crn_v3_basins_EPSG3857</title>
<g id="a_node9"><a xlink:href="../../tables/crn_v3_basins_EPSG3857.html" xlink:title="crn_v3_basins_EPSG3857" target="_top">
<polygon fill="#ffffff" stroke="transparent" points="521.5,-870.2 521.5,-1019.2 710.5,-1019.2 710.5,-870.2 521.5,-870.2"/>
<polygon fill="#f5f5f5" stroke="transparent" points="522,-995.7 522,-1018.7 711,-1018.7 711,-995.7 522,-995.7"/>
<polygon fill="none" stroke="#000000" points="522,-995.7 522,-1018.7 711,-1018.7 711,-995.7 522,-995.7"/>
<text text-anchor="start" x="527" y="-1004.3" font-family="Helvetica,sans-Serif" font-weight="bold" font-size="11.00" fill="#000000">crn_v3_basins_EPSG3857</text>
<text text-anchor="start" x="676.5219" y="-1003.8" font-family="Helvetica,sans-Serif" font-size="11.00" fill="#000000">[table]</text>
<polygon fill="none" stroke="#000000" points="522,-973.7 522,-995.7 711,-995.7 711,-973.7 522,-973.7"/>
<image xlink:href="../../images/primaryKeys.png" width="11px" height="12px" preserveAspectRatio="xMinYMin meet" x="527" y="-990.7"/>
<text text-anchor="start" x="551" y="-980.8" font-family="Helvetica,sans-Serif" font-size="11.00" fill="#000000">id</text>
<polygon fill="#ffffff" stroke="transparent" points="522,-951.7 522,-973.7 711,-973.7 711,-951.7 522,-951.7"/>
<polygon fill="none" stroke="#000000" points="522,-951.7 522,-973.7 711,-973.7 711,-951.7 522,-951.7"/>
<text text-anchor="start" x="551" y="-958.8" font-family="Helvetica,sans-Serif" font-size="11.00" fill="#000000">geom</text>
<polygon fill="#ffffff" stroke="transparent" points="522,-929.7 522,-951.7 711,-951.7 711,-929.7 522,-929.7"/>
<polygon fill="none" stroke="#000000" points="522,-929.7 522,-951.7 711,-951.7 711,-929.7 522,-929.7"/>
<image xlink:href="../../images/foreignKeys.png" width="11px" height="12px" preserveAspectRatio="xMinYMin meet" x="527" y="-946.7"/>
<text text-anchor="start" x="551" y="-936.8" font-family="Helvetica,sans-Serif" font-size="11.00" fill="#000000">OBSID1</text>
<polygon fill="none" stroke="#000000" points="522,-907.7 522,-929.7 711,-929.7 711,-907.7 522,-907.7"/>
<image xlink:href="../../images/foreignKeys.png" width="11px" height="12px" preserveAspectRatio="xMinYMin meet" x="527" y="-924.7"/>
<text text-anchor="start" x="551" y="-914.8" font-family="Helvetica,sans-Serif" font-size="11.00" fill="#000000">STUDYID</text>
<polygon fill="none" stroke="#000000" points="522,-888.7 522,-907.7 711,-907.7 711,-888.7 522,-888.7"/>
<text text-anchor="start" x="525" y="-894.8" font-family="Helvetica,sans-Serif" font-size="11.00" fill="#000000">...</text>
<polygon fill="#ffffff" stroke="transparent" points="522,-869.7 522,-888.7 591,-888.7 591,-869.7 522,-869.7"/>
<polygon fill="none" stroke="#000000" points="522,-869.7 522,-888.7 591,-888.7 591,-869.7 522,-869.7"/>
<text text-anchor="start" x="525" y="-875.8" font-family="Helvetica,sans-Serif" font-size="11.00" fill="#000000">&lt; 3</text>
<polygon fill="#ffffff" stroke="transparent" points="591,-869.7 591,-888.7 674,-888.7 674,-869.7 591,-869.7"/>
<polygon fill="none" stroke="#000000" points="591,-869.7 591,-888.7 674,-888.7 674,-869.7 591,-869.7"/>
<text text-anchor="start" x="617.2089" y="-875.8" font-family="Helvetica,sans-Serif" font-size="11.00" fill="#000000">6.091 rows</text>
<polygon fill="#ffffff" stroke="transparent" points="674,-869.7 674,-888.7 711,-888.7 711,-869.7 674,-869.7"/>
<polygon fill="none" stroke="#000000" points="674,-869.7 674,-888.7 711,-888.7 711,-869.7 674,-869.7"/>
<text text-anchor="start" x="701.8862" y="-875.8" font-family="Helvetica,sans-Serif" font-size="11.00" fill="#000000"> &#160;</text>
</a>
</g>
</g>
<!-- crn_v3_basins_EPSG3857&#45;&gt;crn_studies_boundingbox -->
<g id="edge10" class="edge">
<title>crn_v3_basins_EPSG3857:w&#45;&gt;crn_studies_boundingbox:e</title>
<path fill="none" stroke="#000000" d="M509.8354,-910.608C461.9849,-836.5223 536.6077,-278.7 470,-278.7"/>
<polygon fill="#000000" stroke="#000000" points="515.3391,-914.2691 520.0061,-921.6974 518.6695,-916.4846 522,-918.7 522,-918.7 522,-918.7 518.6695,-916.4846 523.9939,-915.7026 515.3391,-914.2691 515.3391,-914.2691"/>
<ellipse fill="none" stroke="#000000" cx="512.6747" cy="-912.4968" rx="3.2" ry="3.2"/>
</g>
<!-- crn_al_DataCore -->
<g id="node10" class="node">
<title>crn_al_DataCore</title>
<g id="a_node10"><a xlink:href="../../tables/crn_al_DataCore.html" xlink:title="crn_al_DataCore" target="_top">
<polygon fill="#ffffff" stroke="transparent" points="258,-872.2 258,-933.2 392,-933.2 392,-872.2 258,-872.2"/>
<polygon fill="#f5f5f5" stroke="transparent" points="258,-909.7 258,-932.7 392,-932.7 392,-909.7 258,-909.7"/>
<polygon fill="none" stroke="#000000" points="258,-909.7 258,-932.7 392,-932.7 392,-909.7 258,-909.7"/>
<text text-anchor="start" x="263" y="-918.3" font-family="Helvetica,sans-Serif" font-weight="bold" font-size="11.00" fill="#000000">crn_al_DataCore</text>
<text text-anchor="start" x="357.5219" y="-917.8" font-family="Helvetica,sans-Serif" font-size="11.00" fill="#000000">[table]</text>
<polygon fill="none" stroke="#000000" points="258,-890.7 258,-909.7 392,-909.7 392,-890.7 258,-890.7"/>
<text text-anchor="start" x="261" y="-896.8" font-family="Helvetica,sans-Serif" font-size="11.00" fill="#000000">...</text>
<polygon fill="#ffffff" stroke="transparent" points="258,-871.7 258,-890.7 295,-890.7 295,-871.7 258,-871.7"/>
<polygon fill="none" stroke="#000000" points="258,-871.7 258,-890.7 295,-890.7 295,-871.7 258,-871.7"/>
<text text-anchor="start" x="261" y="-877.8" font-family="Helvetica,sans-Serif" font-size="11.00" fill="#000000">&lt; 5</text>
<polygon fill="#ffffff" stroke="transparent" points="295,-871.7 295,-890.7 362,-890.7 362,-871.7 295,-871.7"/>
<polygon fill="none" stroke="#000000" points="295,-871.7 295,-890.7 362,-890.7 362,-871.7 295,-871.7"/>
<text text-anchor="start" x="305.2089" y="-877.8" font-family="Helvetica,sans-Serif" font-size="11.00" fill="#000000">6.091 rows</text>
<polygon fill="#ffffff" stroke="transparent" points="362,-871.7 362,-890.7 392,-890.7 392,-871.7 362,-871.7"/>
<polygon fill="none" stroke="#000000" points="362,-871.7 362,-890.7 392,-890.7 392,-871.7 362,-871.7"/>
<text text-anchor="start" x="373.4053" y="-877.8" font-family="Helvetica,sans-Serif" font-size="11.00" fill="#000000">2 &gt;</text>
</a>
</g>
</g>
<!-- crn_v3_basins_EPSG3857&#45;&gt;crn_al_DataCore -->
<g id="edge8" class="edge">
<title>crn_v3_basins_EPSG3857:w&#45;&gt;crn_al_DataCore:e</title>
<path fill="none" stroke="#000000" d="M511.5418,-940.2673C460.1574,-935.8855 448.9151,-899.7 392,-899.7"/>
<polygon fill="#000000" stroke="#000000" points="521.3661,-936.6703 521.0353,-944.6635 519.4367,-944.5973 519.7674,-936.6042 521.3661,-936.6703"/>
<polyline fill="none" stroke="#000000" points="522,-940.7 518.0034,-940.5346 "/>
<ellipse fill="none" stroke="#000000" cx="514.8062" cy="-940.4023" rx="3.2" ry="3.2"/>
</g>
<!-- crn_be_DataCore -->
<g id="node11" class="node">
<title>crn_be_DataCore</title>
<g id="a_node11"><a xlink:href="../../tables/crn_be_DataCore.html" xlink:title="crn_be_DataCore" target="_top">
<polygon fill="#ffffff" stroke="transparent" points="256,-954.2 256,-1015.2 394,-1015.2 394,-954.2 256,-954.2"/>
<polygon fill="#f5f5f5" stroke="transparent" points="256,-991.7 256,-1014.7 394,-1014.7 394,-991.7 256,-991.7"/>
<polygon fill="none" stroke="#000000" points="256,-991.7 256,-1014.7 394,-1014.7 394,-991.7 256,-991.7"/>
<text text-anchor="start" x="261" y="-1000.3" font-family="Helvetica,sans-Serif" font-weight="bold" font-size="11.00" fill="#000000">crn_be_DataCore</text>
<text text-anchor="start" x="359.5219" y="-999.8" font-family="Helvetica,sans-Serif" font-size="11.00" fill="#000000">[table]</text>
<polygon fill="none" stroke="#000000" points="256,-972.7 256,-991.7 394,-991.7 394,-972.7 256,-972.7"/>
<text text-anchor="start" x="259" y="-978.8" font-family="Helvetica,sans-Serif" font-size="11.00" fill="#000000">...</text>
<polygon fill="#ffffff" stroke="transparent" points="256,-953.7 256,-972.7 295,-972.7 295,-953.7 256,-953.7"/>
<polygon fill="none" stroke="#000000" points="256,-953.7 256,-972.7 295,-972.7 295,-953.7 256,-953.7"/>
<text text-anchor="start" x="259" y="-959.8" font-family="Helvetica,sans-Serif" font-size="11.00" fill="#000000">&lt; 5</text>
<polygon fill="#ffffff" stroke="transparent" points="295,-953.7 295,-972.7 363,-972.7 363,-953.7 295,-953.7"/>
<polygon fill="none" stroke="#000000" points="295,-953.7 295,-972.7 363,-972.7 363,-953.7 295,-953.7"/>
<text text-anchor="start" x="306.2089" y="-959.8" font-family="Helvetica,sans-Serif" font-size="11.00" fill="#000000">6.091 rows</text>
<polygon fill="#ffffff" stroke="transparent" points="363,-953.7 363,-972.7 394,-972.7 394,-953.7 363,-953.7"/>
<polygon fill="none" stroke="#000000" points="363,-953.7 363,-972.7 394,-972.7 394,-953.7 363,-953.7"/>
<text text-anchor="start" x="375.4053" y="-959.8" font-family="Helvetica,sans-Serif" font-size="11.00" fill="#000000">2 &gt;</text>
</a>
</g>
</g>
<!-- crn_v3_basins_EPSG3857&#45;&gt;crn_be_DataCore -->
<g id="edge9" class="edge">
<title>crn_v3_basins_EPSG3857:w&#45;&gt;crn_be_DataCore:e</title>
<path fill="none" stroke="#000000" d="M511.3746,-941.1604C460.9979,-945.6648 450.0025,-981.7 394,-981.7"/>
<polygon fill="#000000" stroke="#000000" points="521.0275,-936.7384 521.374,-944.7309 519.7755,-944.8002 519.429,-936.8077 521.0275,-936.7384"/>
<polyline fill="none" stroke="#000000" points="522,-940.7 518.0038,-940.8732 "/>
<ellipse fill="none" stroke="#000000" cx="514.8068" cy="-941.0118" rx="3.2" ry="3.2"/>
</g>
<!-- crn_v3_outlets_EPSG3857 -->
<g id="node12" class="node">
<title>crn_v3_outlets_EPSG3857</title>
<g id="a_node12"><a xlink:href="../../tables/crn_v3_outlets_EPSG3857.html" xlink:title="crn_v3_outlets_EPSG3857" target="_top">
<polygon fill="#ffffff" stroke="transparent" points="521,-700.2 521,-849.2 711,-849.2 711,-700.2 521,-700.2"/>
<polygon fill="#f5f5f5" stroke="transparent" points="521,-825.7 521,-848.7 711,-848.7 711,-825.7 521,-825.7"/>
<polygon fill="none" stroke="#000000" points="521,-825.7 521,-848.7 711,-848.7 711,-825.7 521,-825.7"/>
<text text-anchor="start" x="526" y="-834.3" font-family="Helvetica,sans-Serif" font-weight="bold" font-size="11.00" fill="#000000">crn_v3_outlets_EPSG3857</text>
<text text-anchor="start" x="676.5219" y="-833.8" font-family="Helvetica,sans-Serif" font-size="11.00" fill="#000000">[table]</text>
<polygon fill="none" stroke="#000000" points="521,-803.7 521,-825.7 711,-825.7 711,-803.7 521,-803.7"/>
<image xlink:href="../../images/primaryKeys.png" width="11px" height="12px" preserveAspectRatio="xMinYMin meet" x="526" y="-820.7"/>
<text text-anchor="start" x="550" y="-810.8" font-family="Helvetica,sans-Serif" font-size="11.00" fill="#000000">id</text>
<polygon fill="#ffffff" stroke="transparent" points="521,-781.7 521,-803.7 711,-803.7 711,-781.7 521,-781.7"/>
<polygon fill="none" stroke="#000000" points="521,-781.7 521,-803.7 711,-803.7 711,-781.7 521,-781.7"/>
<text text-anchor="start" x="550" y="-788.8" font-family="Helvetica,sans-Serif" font-size="11.00" fill="#000000">geom</text>
<polygon fill="none" stroke="#000000" points="521,-759.7 521,-781.7 711,-781.7 711,-759.7 521,-759.7"/>
<image xlink:href="../../images/primaryKeys.png" width="11px" height="12px" preserveAspectRatio="xMinYMin meet" x="526" y="-776.7"/>
<text text-anchor="start" x="550" y="-766.8" font-family="Helvetica,sans-Serif" font-size="11.00" fill="#000000">OBSID1</text>
<polygon fill="none" stroke="#000000" points="521,-737.7 521,-759.7 711,-759.7 711,-737.7 521,-737.7"/>
<image xlink:href="../../images/foreignKeys.png" width="11px" height="12px" preserveAspectRatio="xMinYMin meet" x="526" y="-754.7"/>
<text text-anchor="start" x="550" y="-744.8" font-family="Helvetica,sans-Serif" font-size="11.00" fill="#000000">STUDYID</text>
<polygon fill="none" stroke="#000000" points="521,-718.7 521,-737.7 711,-737.7 711,-718.7 521,-718.7"/>
<text text-anchor="start" x="524" y="-724.8" font-family="Helvetica,sans-Serif" font-size="11.00" fill="#000000">...</text>
<polygon fill="#ffffff" stroke="transparent" points="521,-699.7 521,-718.7 591,-718.7 591,-699.7 521,-699.7"/>
<polygon fill="none" stroke="#000000" points="521,-699.7 521,-718.7 591,-718.7 591,-699.7 521,-699.7"/>
<text text-anchor="start" x="524" y="-705.8" font-family="Helvetica,sans-Serif" font-size="11.00" fill="#000000">&lt; 3</text>
<polygon fill="#ffffff" stroke="transparent" points="591,-699.7 591,-718.7 674,-718.7 674,-699.7 591,-699.7"/>
<polygon fill="none" stroke="#000000" points="591,-699.7 591,-718.7 674,-718.7 674,-699.7 591,-699.7"/>
<text text-anchor="start" x="617.2089" y="-705.8" font-family="Helvetica,sans-Serif" font-size="11.00" fill="#000000">6.091 rows</text>
<polygon fill="#ffffff" stroke="transparent" points="674,-699.7 674,-718.7 711,-718.7 711,-699.7 674,-699.7"/>
<polygon fill="none" stroke="#000000" points="674,-699.7 674,-718.7 711,-718.7 711,-699.7 674,-699.7"/>
<text text-anchor="start" x="701.8862" y="-705.8" font-family="Helvetica,sans-Serif" font-size="11.00" fill="#000000"> &#160;</text>
</a>
</g>
</g>
<!-- crn_v3_outlets_EPSG3857&#45;&gt;crn_studies_boundingbox -->
<g id="edge13" class="edge">
<title>crn_v3_outlets_EPSG3857:w&#45;&gt;crn_studies_boundingbox:e</title>
<path fill="none" stroke="#000000" d="M506.9696,-745.1871C431.4214,-702.1776 569.7226,-278.7 470,-278.7"/>
<polygon fill="#000000" stroke="#000000" points="513.2396,-746.7569 520.1256,-752.1922 517.1198,-747.7284 521,-748.7 521,-748.7 521,-748.7 517.1198,-747.7284 521.8744,-745.2078 513.2396,-746.7569 513.2396,-746.7569"/>
<ellipse fill="none" stroke="#000000" cx="510.1354" cy="-745.9797" rx="3.2" ry="3.2"/>
</g>
<!-- crn_v3_outlets_EPSG3857&#45;&gt;crn_al_DataCore -->
<g id="edge11" class="edge">
<title>crn_v3_outlets_EPSG3857:w&#45;&gt;crn_al_DataCore:e</title>
<path fill="none" stroke="#000000" d="M510.4953,-772.2058C482.6121,-781.6747 508.6485,-833.4972 480,-861.7 449.6407,-891.5869 434.6018,-899.7 392,-899.7"/>
<polygon fill="#000000" stroke="#000000" points="519.6405,-766.854 520.7757,-774.7731 519.1919,-775.0001 518.0567,-767.081 519.6405,-766.854"/>
<polyline fill="none" stroke="#000000" points="521,-770.7 517.0405,-771.2676 "/>
<ellipse fill="none" stroke="#000000" cx="513.8729" cy="-771.7217" rx="3.2" ry="3.2"/>
</g>
<!-- crn_v3_outlets_EPSG3857&#45;&gt;crn_be_DataCore -->
<g id="edge12" class="edge">
<title>crn_v3_outlets_EPSG3857:w&#45;&gt;crn_be_DataCore:e</title>
<path fill="none" stroke="#000000" d="M510.5878,-771.4838C450.2966,-781.5386 528.0574,-885.9111 480,-943.7 453.2813,-975.8292 435.7872,-981.7 394,-981.7"/>
<polygon fill="#000000" stroke="#000000" points="519.902,-766.7713 520.5025,-774.7488 518.9071,-774.8689 518.3065,-766.8915 519.902,-766.7713"/>
<polyline fill="none" stroke="#000000" points="521,-770.7 517.0113,-771.0003 "/>
<ellipse fill="none" stroke="#000000" cx="513.8203" cy="-771.2405" rx="3.2" ry="3.2"/>
</g>
<!-- crn_xxl_basins -->
<g id="node13" class="node">
<title>crn_xxl_basins</title>
<g id="a_node13"><a xlink:href="../../tables/crn_xxl_basins.html" xlink:title="crn_xxl_basins" target="_top">
<polygon fill="#ffffff" stroke="transparent" points="262.5,-626.2 262.5,-687.2 387.5,-687.2 387.5,-626.2 262.5,-626.2"/>
<polygon fill="#f5f5f5" stroke="transparent" points="263,-663.7 263,-686.7 388,-686.7 388,-663.7 263,-663.7"/>
<polygon fill="none" stroke="#000000" points="263,-663.7 263,-686.7 388,-686.7 388,-663.7 263,-663.7"/>
<text text-anchor="start" x="268" y="-672.3" font-family="Helvetica,sans-Serif" font-weight="bold" font-size="11.00" fill="#000000">crn_xxl_basins</text>
<text text-anchor="start" x="353.5219" y="-671.8" font-family="Helvetica,sans-Serif" font-size="11.00" fill="#000000">[table]</text>
<polygon fill="none" stroke="#000000" points="263,-644.7 263,-663.7 388,-663.7 388,-644.7 263,-644.7"/>
<text text-anchor="start" x="266" y="-650.8" font-family="Helvetica,sans-Serif" font-size="11.00" fill="#000000">...</text>
<polygon fill="#ffffff" stroke="transparent" points="263,-625.7 263,-644.7 305,-644.7 305,-625.7 263,-625.7"/>
<polygon fill="none" stroke="#000000" points="263,-625.7 263,-644.7 305,-644.7 305,-625.7 263,-625.7"/>
<text text-anchor="start" x="266" y="-631.8" font-family="Helvetica,sans-Serif" font-size="11.00" fill="#000000">&lt; 3</text>
<polygon fill="#ffffff" stroke="transparent" points="305,-625.7 305,-644.7 365,-644.7 365,-625.7 305,-625.7"/>
<polygon fill="none" stroke="#000000" points="305,-625.7 305,-644.7 365,-644.7 365,-625.7 305,-625.7"/>
<text text-anchor="start" x="317.3807" y="-631.8" font-family="Helvetica,sans-Serif" font-size="11.00" fill="#000000">261 rows</text>
<polygon fill="#ffffff" stroke="transparent" points="365,-625.7 365,-644.7 388,-644.7 388,-625.7 365,-625.7"/>
<polygon fill="none" stroke="#000000" points="365,-625.7 365,-644.7 388,-644.7 388,-625.7 365,-625.7"/>
<text text-anchor="start" x="378.8862" y="-631.8" font-family="Helvetica,sans-Serif" font-size="11.00" fill="#000000"> &#160;</text>
</a>
</g>
</g>
<!-- crn_xxl_basins&#45;&gt;crn_studynote -->
<g id="edge14" class="edge">
<title>crn_xxl_basins:w&#45;&gt;crn_studynote:e</title>
<path fill="none" stroke="#000000" stroke-dasharray="5,2" d="M248.3372,-653.4484C213.9582,-652.0946 196.7808,-644.6237 170,-615.7 130.0364,-572.5386 188.3218,-489.7 129.5,-489.7"/>
<polygon fill="#000000" stroke="#000000" points="255.0012,-653.5627 262.9382,-657.2995 259.0006,-653.6313 263,-653.7 263,-653.7 263,-653.7 259.0006,-653.6313 263.0618,-650.1005 255.0012,-653.5627 255.0012,-653.5627"/>
<ellipse fill="none" stroke="#000000" cx="251.8016" cy="-653.5078" rx="3.2" ry="3.2"/>
</g>
<!-- crn_xxl_outlets -->
<g id="node14" class="node">
<title>crn_xxl_outlets</title>
<g id="a_node14"><a xlink:href="../../tables/crn_xxl_outlets.html" xlink:title="crn_xxl_outlets" target="_top">
<polygon fill="#ffffff" stroke="transparent" points="261.5,-544.2 261.5,-605.2 388.5,-605.2 388.5,-544.2 261.5,-544.2"/>
<polygon fill="#f5f5f5" stroke="transparent" points="262,-581.7 262,-604.7 389,-604.7 389,-581.7 262,-581.7"/>
<polygon fill="none" stroke="#000000" points="262,-581.7 262,-604.7 389,-604.7 389,-581.7 262,-581.7"/>
<text text-anchor="start" x="267" y="-590.3" font-family="Helvetica,sans-Serif" font-weight="bold" font-size="11.00" fill="#000000">crn_xxl_outlets</text>
<text text-anchor="start" x="354.5219" y="-589.8" font-family="Helvetica,sans-Serif" font-size="11.00" fill="#000000">[table]</text>
<polygon fill="none" stroke="#000000" points="262,-562.7 262,-581.7 389,-581.7 389,-562.7 262,-562.7"/>
<text text-anchor="start" x="265" y="-568.8" font-family="Helvetica,sans-Serif" font-size="11.00" fill="#000000">...</text>
<polygon fill="#ffffff" stroke="transparent" points="262,-543.7 262,-562.7 305,-562.7 305,-543.7 262,-543.7"/>
<polygon fill="none" stroke="#000000" points="262,-543.7 262,-562.7 305,-562.7 305,-543.7 262,-543.7"/>
<text text-anchor="start" x="265" y="-549.8" font-family="Helvetica,sans-Serif" font-size="11.00" fill="#000000">&lt; 1</text>
<polygon fill="#ffffff" stroke="transparent" points="305,-543.7 305,-562.7 366,-562.7 366,-543.7 305,-543.7"/>
<polygon fill="none" stroke="#000000" points="305,-543.7 305,-562.7 366,-562.7 366,-543.7 305,-543.7"/>
<text text-anchor="start" x="318.3807" y="-549.8" font-family="Helvetica,sans-Serif" font-size="11.00" fill="#000000">261 rows</text>
<polygon fill="#ffffff" stroke="transparent" points="366,-543.7 366,-562.7 389,-562.7 389,-543.7 366,-543.7"/>
<polygon fill="none" stroke="#000000" points="366,-543.7 366,-562.7 389,-562.7 389,-543.7 366,-543.7"/>
<text text-anchor="start" x="379.8862" y="-549.8" font-family="Helvetica,sans-Serif" font-size="11.00" fill="#000000"> &#160;</text>
</a>
</g>
</g>
<!-- crn_xxl_outlets&#45;&gt;crn_studynote -->
<g id="edge15" class="edge">
<title>crn_xxl_outlets:w&#45;&gt;crn_studynote:e</title>
<path fill="none" stroke="#000000" stroke-dasharray="5,2" d="M247.2675,-571.1421C214.6164,-568.4429 201.8866,-555.9505 170,-533.7 148.2035,-518.4904 156.0786,-489.7 129.5,-489.7"/>
<polygon fill="#000000" stroke="#000000" points="254.0057,-571.3972 261.8638,-575.2974 258.0029,-571.5486 262,-571.7 262,-571.7 262,-571.7 258.0029,-571.5486 262.1362,-568.1026 254.0057,-571.3972 254.0057,-571.3972"/>
<ellipse fill="none" stroke="#000000" cx="250.808" cy="-571.2761" rx="3.2" ry="3.2"/>
</g>
</g>
</svg>
