<?xml version="1.0" encoding="UTF-8" standalone="no"?>
<!DOCTYPE svg PUBLIC "-//W3C//DTD SVG 1.1//EN"
 "http://www.w3.org/Graphics/SVG/1.1/DTD/svg11.dtd">
<!-- Generated by graphviz version 2.40.1 (20161225.0304)
 -->
<!-- Title: twoDegreesRelationshipsDiagramImplied Pages: 1 -->
<svg width="424pt" height="863pt"
 viewBox="0.00 0.00 424.00 863.20" xmlns="http://www.w3.org/2000/svg" xmlns:xlink="http://www.w3.org/1999/xlink">
<g id="graph0" class="graph" transform="scale(1 1) rotate(0) translate(4 859.2)">
<title>twoDegreesRelationshipsDiagramImplied</title>
<polygon fill="#ffffff" stroke="transparent" points="-4,4 -4,-859.2 420,-859.2 420,4 -4,4"/>
<text text-anchor="middle" x="72.4936" y="-7.3" font-family="Helvetica,sans-Serif" font-size="11.00" fill="#000000">Generated by SchemaSpy</text>
<!-- crn_aus_basins -->
<g id="node1" class="node">
<title>crn_aus_basins</title>
<g id="a_node1"><a xlink:href="../../tables/crn_aus_basins.html" xlink:title="crn_aus_basins" target="_top">
<polygon fill="#ffffff" stroke="transparent" points="228.5,-790.2 228.5,-851.2 357.5,-851.2 357.5,-790.2 228.5,-790.2"/>
<polygon fill="#f5f5f5" stroke="transparent" points="229,-827.7 229,-850.7 358,-850.7 358,-827.7 229,-827.7"/>
<polygon fill="none" stroke="#000000" points="229,-827.7 229,-850.7 358,-850.7 358,-827.7 229,-827.7"/>
<text text-anchor="start" x="234" y="-836.3" font-family="Helvetica,sans-Serif" font-weight="bold" font-size="11.00" fill="#000000">crn_aus_basins</text>
<text text-anchor="start" x="323.5219" y="-835.8" font-family="Helvetica,sans-Serif" font-size="11.00" fill="#000000">[table]</text>
<polygon fill="none" stroke="#000000" points="229,-808.7 229,-827.7 358,-827.7 358,-808.7 229,-808.7"/>
<text text-anchor="start" x="232" y="-814.8" font-family="Helvetica,sans-Serif" font-size="11.00" fill="#000000">...</text>
<polygon fill="#ffffff" stroke="transparent" points="229,-789.7 229,-808.7 273,-808.7 273,-789.7 229,-789.7"/>
<polygon fill="none" stroke="#000000" points="229,-789.7 229,-808.7 273,-808.7 273,-789.7 229,-789.7"/>
<text text-anchor="start" x="232" y="-795.8" font-family="Helvetica,sans-Serif" font-size="11.00" fill="#000000">&lt; 3</text>
<polygon fill="#ffffff" stroke="transparent" points="273,-789.7 273,-808.7 334,-808.7 334,-789.7 273,-789.7"/>
<polygon fill="none" stroke="#000000" points="273,-789.7 273,-808.7 334,-808.7 334,-789.7 273,-789.7"/>
<text text-anchor="start" x="286.3807" y="-795.8" font-family="Helvetica,sans-Serif" font-size="11.00" fill="#000000">297 rows</text>
<polygon fill="#ffffff" stroke="transparent" points="334,-789.7 334,-808.7 358,-808.7 358,-789.7 334,-789.7"/>
<polygon fill="none" stroke="#000000" points="334,-789.7 334,-808.7 358,-808.7 358,-789.7 334,-789.7"/>
<text text-anchor="start" x="348.8862" y="-795.8" font-family="Helvetica,sans-Serif" font-size="11.00" fill="#000000"> &#160;</text>
</a>
</g>
</g>
<!-- crn_studynote -->
<g id="node2" class="node">
<title>crn_studynote</title>
<g id="a_node2"><a xlink:href="../../tables/crn_studynote.html" xlink:title="crn_studynote" target="_top">
<polygon fill="#ffffff" stroke="transparent" points="8,-441.2 8,-524.2 129,-524.2 129,-441.2 8,-441.2"/>
<polygon fill="#f5f5f5" stroke="transparent" points="8.5,-500.7 8.5,-523.7 129.5,-523.7 129.5,-500.7 8.5,-500.7"/>
<polygon fill="none" stroke="#000000" points="8.5,-500.7 8.5,-523.7 129.5,-523.7 129.5,-500.7 8.5,-500.7"/>
<text text-anchor="start" x="13.5" y="-509.3" font-family="Helvetica,sans-Serif" font-weight="bold" font-size="11.00" fill="#000000">crn_studynote</text>
<text text-anchor="start" x="95.0219" y="-508.8" font-family="Helvetica,sans-Serif" font-size="11.00" fill="#000000">[table]</text>
<polygon fill="none" stroke="#000000" points="8.5,-478.7 8.5,-500.7 129.5,-500.7 129.5,-478.7 8.5,-478.7"/>
<image xlink:href="../../images/primaryKeys.png" width="11px" height="12px" preserveAspectRatio="xMinYMin meet" x="13.5" y="-495.7"/>
<text text-anchor="start" x="37.5" y="-485.8" font-family="Helvetica,sans-Serif" font-size="11.00" fill="#000000">STUDYID</text>
<polygon fill="none" stroke="#000000" points="8.5,-459.7 8.5,-478.7 129.5,-478.7 129.5,-459.7 8.5,-459.7"/>
<text text-anchor="start" x="11.5" y="-465.8" font-family="Helvetica,sans-Serif" font-size="11.00" fill="#000000">...</text>
<polygon fill="#ffffff" stroke="transparent" points="8.5,-440.7 8.5,-459.7 39.5,-459.7 39.5,-440.7 8.5,-440.7"/>
<polygon fill="none" stroke="#000000" points="8.5,-440.7 8.5,-459.7 39.5,-459.7 39.5,-440.7 8.5,-440.7"/>
<text text-anchor="start" x="11.5" y="-446.8" font-family="Helvetica,sans-Serif" font-size="11.00" fill="#000000"> &#160;</text>
<polygon fill="#ffffff" stroke="transparent" points="39.5,-440.7 39.5,-459.7 98.5,-459.7 98.5,-440.7 39.5,-440.7"/>
<polygon fill="none" stroke="#000000" points="39.5,-440.7 39.5,-459.7 98.5,-459.7 98.5,-440.7 39.5,-440.7"/>
<text text-anchor="start" x="50.8807" y="-446.8" font-family="Helvetica,sans-Serif" font-size="11.00" fill="#000000">301 rows</text>
<polygon fill="#ffffff" stroke="transparent" points="98.5,-440.7 98.5,-459.7 129.5,-459.7 129.5,-440.7 98.5,-440.7"/>
<polygon fill="none" stroke="#000000" points="98.5,-440.7 98.5,-459.7 129.5,-459.7 129.5,-440.7 98.5,-440.7"/>
<text text-anchor="start" x="110.9053" y="-446.8" font-family="Helvetica,sans-Serif" font-size="11.00" fill="#000000">9 &gt;</text>
</a>
</g>
</g>
<!-- crn_aus_basins&#45;&gt;crn_studynote -->
<g id="edge1" class="edge">
<title>crn_aus_basins:w&#45;&gt;crn_studynote:e</title>
<path fill="none" stroke="#000000" stroke-dasharray="5,2" d="M214.5738,-816.647C193.8531,-813.2415 183.9097,-801.4643 170,-779.7 134.9586,-724.8713 194.5699,-489.7 129.5,-489.7"/>
<polygon fill="#000000" stroke="#000000" points="221.0212,-817.1176 228.7379,-821.2904 225.0106,-817.4088 229,-817.7 229,-817.7 229,-817.7 225.0106,-817.4088 229.2621,-814.1096 221.0212,-817.1176 221.0212,-817.1176"/>
<ellipse fill="none" stroke="#000000" cx="217.8297" cy="-816.8846" rx="3.2" ry="3.2"/>
</g>
<!-- crn_aus_outlets -->
<g id="node3" class="node">
<title>crn_aus_outlets</title>
<g id="a_node3"><a xlink:href="../../tables/crn_aus_outlets.html" xlink:title="crn_aus_outlets" target="_top">
<polygon fill="#ffffff" stroke="transparent" points="227.5,-708.2 227.5,-769.2 358.5,-769.2 358.5,-708.2 227.5,-708.2"/>
<polygon fill="#f5f5f5" stroke="transparent" points="228,-745.7 228,-768.7 359,-768.7 359,-745.7 228,-745.7"/>
<polygon fill="none" stroke="#000000" points="228,-745.7 228,-768.7 359,-768.7 359,-745.7 228,-745.7"/>
<text text-anchor="start" x="233" y="-754.3" font-family="Helvetica,sans-Serif" font-weight="bold" font-size="11.00" fill="#000000">crn_aus_outlets</text>
<text text-anchor="start" x="324.5219" y="-753.8" font-family="Helvetica,sans-Serif" font-size="11.00" fill="#000000">[table]</text>
<polygon fill="none" stroke="#000000" points="228,-726.7 228,-745.7 359,-745.7 359,-726.7 228,-726.7"/>
<text text-anchor="start" x="231" y="-732.8" font-family="Helvetica,sans-Serif" font-size="11.00" fill="#000000">...</text>
<polygon fill="#ffffff" stroke="transparent" points="228,-707.7 228,-726.7 273,-726.7 273,-707.7 228,-707.7"/>
<polygon fill="none" stroke="#000000" points="228,-707.7 228,-726.7 273,-726.7 273,-707.7 228,-707.7"/>
<text text-anchor="start" x="231" y="-713.8" font-family="Helvetica,sans-Serif" font-size="11.00" fill="#000000">&lt; 1</text>
<polygon fill="#ffffff" stroke="transparent" points="273,-707.7 273,-726.7 335,-726.7 335,-707.7 273,-707.7"/>
<polygon fill="none" stroke="#000000" points="273,-707.7 273,-726.7 335,-726.7 335,-707.7 273,-707.7"/>
<text text-anchor="start" x="287.3807" y="-713.8" font-family="Helvetica,sans-Serif" font-size="11.00" fill="#000000">297 rows</text>
<polygon fill="#ffffff" stroke="transparent" points="335,-707.7 335,-726.7 359,-726.7 359,-707.7 335,-707.7"/>
<polygon fill="none" stroke="#000000" points="335,-707.7 335,-726.7 359,-726.7 359,-707.7 335,-707.7"/>
<text text-anchor="start" x="349.8862" y="-713.8" font-family="Helvetica,sans-Serif" font-size="11.00" fill="#000000"> &#160;</text>
</a>
</g>
</g>
<!-- crn_aus_outlets&#45;&gt;crn_studynote -->
<g id="edge2" class="edge">
<title>crn_aus_outlets:w&#45;&gt;crn_studynote:e</title>
<path fill="none" stroke="#000000" stroke-dasharray="5,2" d="M213.5264,-734.5448C193.4457,-730.9273 184.1645,-718.7844 170,-697.7 143.7402,-658.6114 176.5903,-489.7 129.5,-489.7"/>
<polygon fill="#000000" stroke="#000000" points="220.0254,-735.0634 227.7135,-739.2886 224.0127,-735.3817 228,-735.7 228,-735.7 228,-735.7 224.0127,-735.3817 228.2865,-732.1114 220.0254,-735.0634 220.0254,-735.0634"/>
<ellipse fill="none" stroke="#000000" cx="216.8355" cy="-734.8088" rx="3.2" ry="3.2"/>
</g>
<!-- crn_inprep_basins -->
<g id="node4" class="node">
<title>crn_inprep_basins</title>
<g id="a_node4"><a xlink:href="../../tables/crn_inprep_basins.html" xlink:title="crn_inprep_basins" target="_top">
<polygon fill="#ffffff" stroke="transparent" points="220.5,-626.2 220.5,-687.2 365.5,-687.2 365.5,-626.2 220.5,-626.2"/>
<polygon fill="#f5f5f5" stroke="transparent" points="221,-663.7 221,-686.7 366,-686.7 366,-663.7 221,-663.7"/>
<polygon fill="none" stroke="#000000" points="221,-663.7 221,-686.7 366,-686.7 366,-663.7 221,-663.7"/>
<text text-anchor="start" x="226" y="-672.3" font-family="Helvetica,sans-Serif" font-weight="bold" font-size="11.00" fill="#000000">crn_inprep_basins</text>
<text text-anchor="start" x="331.5219" y="-671.8" font-family="Helvetica,sans-Serif" font-size="11.00" fill="#000000">[table]</text>
<polygon fill="none" stroke="#000000" points="221,-644.7 221,-663.7 366,-663.7 366,-644.7 221,-644.7"/>
<text text-anchor="start" x="224" y="-650.8" font-family="Helvetica,sans-Serif" font-size="11.00" fill="#000000">...</text>
<polygon fill="#ffffff" stroke="transparent" points="221,-625.7 221,-644.7 273,-644.7 273,-625.7 221,-625.7"/>
<polygon fill="none" stroke="#000000" points="221,-625.7 221,-644.7 273,-644.7 273,-625.7 221,-625.7"/>
<text text-anchor="start" x="224" y="-631.8" font-family="Helvetica,sans-Serif" font-size="11.00" fill="#000000">&lt; 2</text>
<polygon fill="#ffffff" stroke="transparent" points="273,-625.7 273,-644.7 338,-644.7 338,-625.7 273,-625.7"/>
<polygon fill="none" stroke="#000000" points="273,-625.7 273,-644.7 338,-644.7 338,-625.7 273,-625.7"/>
<text text-anchor="start" x="290.3807" y="-631.8" font-family="Helvetica,sans-Serif" font-size="11.00" fill="#000000">157 rows</text>
<polygon fill="#ffffff" stroke="transparent" points="338,-625.7 338,-644.7 366,-644.7 366,-625.7 338,-625.7"/>
<polygon fill="none" stroke="#000000" points="338,-625.7 338,-644.7 366,-644.7 366,-625.7 338,-625.7"/>
<text text-anchor="start" x="356.8862" y="-631.8" font-family="Helvetica,sans-Serif" font-size="11.00" fill="#000000"> &#160;</text>
</a>
</g>
</g>
<!-- crn_inprep_basins&#45;&gt;crn_studynote -->
<g id="edge3" class="edge">
<title>crn_inprep_basins:w&#45;&gt;crn_studynote:e</title>
<path fill="none" stroke="#000000" stroke-dasharray="5,2" d="M206.2256,-651.9014C189.7581,-647.2742 183.1011,-634.0233 170,-615.7 135.7881,-567.8508 188.3218,-489.7 129.5,-489.7"/>
<polygon fill="#000000" stroke="#000000" points="213.0586,-652.7332 220.5649,-657.2736 217.0293,-653.2166 221,-653.7 221,-653.7 221,-653.7 217.0293,-653.2166 221.4351,-650.1264 213.0586,-652.7332 213.0586,-652.7332"/>
<ellipse fill="none" stroke="#000000" cx="209.8821" cy="-652.3464" rx="3.2" ry="3.2"/>
</g>
<!-- crn_inprep_outlets -->
<g id="node5" class="node">
<title>crn_inprep_outlets</title>
<g id="a_node5"><a xlink:href="../../tables/crn_inprep_outlets.html" xlink:title="crn_inprep_outlets" target="_top">
<polygon fill="#ffffff" stroke="transparent" points="219.5,-544.2 219.5,-605.2 366.5,-605.2 366.5,-544.2 219.5,-544.2"/>
<polygon fill="#f5f5f5" stroke="transparent" points="220,-581.7 220,-604.7 367,-604.7 367,-581.7 220,-581.7"/>
<polygon fill="none" stroke="#000000" points="220,-581.7 220,-604.7 367,-604.7 367,-581.7 220,-581.7"/>
<text text-anchor="start" x="225" y="-590.3" font-family="Helvetica,sans-Serif" font-weight="bold" font-size="11.00" fill="#000000">crn_inprep_outlets</text>
<text text-anchor="start" x="332.5219" y="-589.8" font-family="Helvetica,sans-Serif" font-size="11.00" fill="#000000">[table]</text>
<polygon fill="none" stroke="#000000" points="220,-562.7 220,-581.7 367,-581.7 367,-562.7 220,-562.7"/>
<text text-anchor="start" x="223" y="-568.8" font-family="Helvetica,sans-Serif" font-size="11.00" fill="#000000">...</text>
<polygon fill="#ffffff" stroke="transparent" points="220,-543.7 220,-562.7 273,-562.7 273,-543.7 220,-543.7"/>
<polygon fill="none" stroke="#000000" points="220,-543.7 220,-562.7 273,-562.7 273,-543.7 220,-543.7"/>
<text text-anchor="start" x="223" y="-549.8" font-family="Helvetica,sans-Serif" font-size="11.00" fill="#000000">&lt; 1</text>
<polygon fill="#ffffff" stroke="transparent" points="273,-543.7 273,-562.7 339,-562.7 339,-543.7 273,-543.7"/>
<polygon fill="none" stroke="#000000" points="273,-543.7 273,-562.7 339,-562.7 339,-543.7 273,-543.7"/>
<text text-anchor="start" x="291.3807" y="-549.8" font-family="Helvetica,sans-Serif" font-size="11.00" fill="#000000">157 rows</text>
<polygon fill="#ffffff" stroke="transparent" points="339,-543.7 339,-562.7 367,-562.7 367,-543.7 339,-543.7"/>
<polygon fill="none" stroke="#000000" points="339,-543.7 339,-562.7 367,-562.7 367,-543.7 339,-543.7"/>
<text text-anchor="start" x="357.8862" y="-549.8" font-family="Helvetica,sans-Serif" font-size="11.00" fill="#000000"> &#160;</text>
</a>
</g>
</g>
<!-- crn_inprep_outlets&#45;&gt;crn_studynote -->
<g id="edge4" class="edge">
<title>crn_inprep_outlets:w&#45;&gt;crn_studynote:e</title>
<path fill="none" stroke="#000000" stroke-dasharray="5,2" d="M205.4414,-569.3196C190.6245,-563.6132 186.2888,-548.5234 170,-533.7 150.3427,-515.8112 156.0786,-489.7 129.5,-489.7"/>
<polygon fill="#000000" stroke="#000000" points="212.1048,-570.4091 219.4191,-575.2528 216.0524,-571.0545 220,-571.7 220,-571.7 220,-571.7 216.0524,-571.0545 220.5809,-568.1472 212.1048,-570.4091 212.1048,-570.4091"/>
<ellipse fill="none" stroke="#000000" cx="208.9468" cy="-569.8927" rx="3.2" ry="3.2"/>
</g>
<!-- crn_int_basins -->
<g id="node6" class="node">
<title>crn_int_basins</title>
<g id="a_node6"><a xlink:href="../../tables/crn_int_basins.html" xlink:title="crn_int_basins" target="_top">
<polygon fill="#ffffff" stroke="transparent" points="231.5,-462.2 231.5,-523.2 354.5,-523.2 354.5,-462.2 231.5,-462.2"/>
<polygon fill="#f5f5f5" stroke="transparent" points="232,-499.7 232,-522.7 355,-522.7 355,-499.7 232,-499.7"/>
<polygon fill="none" stroke="#000000" points="232,-499.7 232,-522.7 355,-522.7 355,-499.7 232,-499.7"/>
<text text-anchor="start" x="237" y="-508.3" font-family="Helvetica,sans-Serif" font-weight="bold" font-size="11.00" fill="#000000">crn_int_basins</text>
<text text-anchor="start" x="320.5219" y="-507.8" font-family="Helvetica,sans-Serif" font-size="11.00" fill="#000000">[table]</text>
<polygon fill="none" stroke="#000000" points="232,-480.7 232,-499.7 355,-499.7 355,-480.7 232,-480.7"/>
<text text-anchor="start" x="235" y="-486.8" font-family="Helvetica,sans-Serif" font-size="11.00" fill="#000000">...</text>
<polygon fill="#ffffff" stroke="transparent" points="232,-461.7 232,-480.7 268,-480.7 268,-461.7 232,-461.7"/>
<polygon fill="none" stroke="#000000" points="232,-461.7 232,-480.7 268,-480.7 268,-461.7 232,-461.7"/>
<text text-anchor="start" x="235" y="-467.8" font-family="Helvetica,sans-Serif" font-size="11.00" fill="#000000">&lt; 3</text>
<polygon fill="#ffffff" stroke="transparent" points="268,-461.7 268,-480.7 335,-480.7 335,-461.7 268,-461.7"/>
<polygon fill="none" stroke="#000000" points="268,-461.7 268,-480.7 335,-480.7 335,-461.7 268,-461.7"/>
<text text-anchor="start" x="278.2089" y="-467.8" font-family="Helvetica,sans-Serif" font-size="11.00" fill="#000000">5.376 rows</text>
<polygon fill="#ffffff" stroke="transparent" points="335,-461.7 335,-480.7 355,-480.7 355,-461.7 335,-461.7"/>
<polygon fill="none" stroke="#000000" points="335,-461.7 335,-480.7 355,-480.7 355,-461.7 335,-461.7"/>
<text text-anchor="start" x="345.8862" y="-467.8" font-family="Helvetica,sans-Serif" font-size="11.00" fill="#000000"> &#160;</text>
</a>
</g>
</g>
<!-- crn_int_basins&#45;&gt;crn_studynote -->
<g id="edge5" class="edge">
<title>crn_int_basins:w&#45;&gt;crn_studynote:e</title>
<path fill="none" stroke="#000000" stroke-dasharray="5,2" d="M217.282,-489.7C183.306,-489.7 169.717,-489.7 129.5,-489.7"/>
<polygon fill="#000000" stroke="#000000" points="224,-489.7001 232,-493.3 228,-489.7 232,-489.7 232,-489.7 232,-489.7 228,-489.7 232,-486.1 224,-489.7001 224,-489.7001"/>
<ellipse fill="none" stroke="#000000" cx="220.8" cy="-489.7001" rx="3.2" ry="3.2"/>
</g>
<!-- crn_int_outlets -->
<g id="node7" class="node">
<title>crn_int_outlets</title>
<g id="a_node7"><a xlink:href="../../tables/crn_int_outlets.html" xlink:title="crn_int_outlets" target="_top">
<polygon fill="#ffffff" stroke="transparent" points="178,-284.7 178,-440.7 408,-440.7 408,-284.7 178,-284.7"/>
<polygon fill="#f5f5f5" stroke="transparent" points="180,-415.7 180,-438.7 406,-438.7 406,-415.7 180,-415.7"/>
<polygon fill="none" stroke="#000000" points="180,-415.7 180,-438.7 406,-438.7 406,-415.7 180,-415.7"/>
<text text-anchor="start" x="185" y="-424.3" font-family="Helvetica,sans-Serif" font-weight="bold" font-size="11.00" fill="#000000">crn_int_outlets</text>
<text text-anchor="start" x="371.0437" y="-423.8" font-family="Helvetica,sans-Serif" font-size="11.00" fill="#000000">[table]</text>
<polygon fill="#ffffff" stroke="transparent" points="180,-393.7 180,-415.7 287,-415.7 287,-393.7 180,-393.7"/>
<polygon fill="none" stroke="#000000" points="180,-393.7 180,-415.7 287,-415.7 287,-393.7 180,-393.7"/>
<text text-anchor="start" x="200" y="-400.8" font-family="Helvetica,sans-Serif" font-size="11.00" fill="#000000">the_geom</text>
<polygon fill="none" stroke="#000000" points="287,-393.7 287,-415.7 406,-415.7 406,-393.7 287,-393.7"/>
<text text-anchor="start" x="289.9485" y="-401.4" font-family="Helvetica,sans-Serif" font-size="11.00" fill="#000000">geometry[2147483647]</text>
<polygon fill="none" stroke="#000000" points="180,-371.7 180,-393.7 287,-393.7 287,-371.7 180,-371.7"/>
<text text-anchor="start" x="200" y="-378.8" font-family="Helvetica,sans-Serif" font-size="11.00" fill="#000000">OBSID1</text>
<polygon fill="none" stroke="#000000" points="287,-371.7 287,-393.7 406,-393.7 406,-371.7 287,-371.7"/>
<text text-anchor="start" x="290" y="-379.4" font-family="Helvetica,sans-Serif" font-size="11.00" fill="#000000">text[2147483647]</text>
<polygon fill="none" stroke="#000000" points="180,-349.7 180,-371.7 287,-371.7 287,-349.7 180,-349.7"/>
<text text-anchor="start" x="200" y="-356.8" font-family="Helvetica,sans-Serif" font-size="11.00" fill="#000000">OBSID2</text>
<polygon fill="none" stroke="#000000" points="287,-349.7 287,-371.7 406,-371.7 406,-349.7 287,-349.7"/>
<text text-anchor="start" x="290" y="-357.4" font-family="Helvetica,sans-Serif" font-size="11.00" fill="#000000">text[2147483647]</text>
<polygon fill="none" stroke="#000000" points="180,-327.7 180,-349.7 287,-349.7 287,-327.7 180,-327.7"/>
<image xlink:href="../../images/foreignKeys.png" width="11px" height="12px" preserveAspectRatio="xMinYMin meet" x="185" y="-344.7"/>
<text text-anchor="start" x="200" y="-334.8" font-family="Helvetica,sans-Serif" font-size="11.00" fill="#000000">STUDYID</text>
<polygon fill="none" stroke="#000000" points="287,-327.7 287,-349.7 406,-349.7 406,-327.7 287,-327.7"/>
<text text-anchor="start" x="290" y="-335.4" font-family="Helvetica,sans-Serif" font-size="11.00" fill="#000000">varchar[5]</text>
<polygon fill="none" stroke="#000000" points="180,-305.7 180,-327.7 287,-327.7 287,-305.7 180,-305.7"/>
<image xlink:href="../../images/primaryKeys.png" width="11px" height="12px" preserveAspectRatio="xMinYMin meet" x="185" y="-322.7"/>
<text text-anchor="start" x="200" y="-312.8" font-family="Helvetica,sans-Serif" font-size="11.00" fill="#000000">id</text>
<polygon fill="none" stroke="#000000" points="287,-305.7 287,-327.7 406,-327.7 406,-305.7 287,-305.7"/>
<text text-anchor="start" x="290" y="-313.4" font-family="Helvetica,sans-Serif" font-size="11.00" fill="#000000">serial[10]</text>
<polygon fill="#ffffff" stroke="transparent" points="180,-286.7 180,-305.7 214,-305.7 214,-286.7 180,-286.7"/>
<polygon fill="none" stroke="#000000" points="180,-286.7 180,-305.7 214,-305.7 214,-286.7 180,-286.7"/>
<text text-anchor="start" x="183" y="-292.8" font-family="Helvetica,sans-Serif" font-size="11.00" fill="#000000">&lt; 1</text>
<polygon fill="#ffffff" stroke="transparent" points="214,-286.7 214,-305.7 287,-305.7 287,-286.7 214,-286.7"/>
<polygon fill="none" stroke="#000000" points="214,-286.7 214,-305.7 287,-305.7 287,-286.7 214,-286.7"/>
<text text-anchor="start" x="230.2089" y="-292.8" font-family="Helvetica,sans-Serif" font-size="11.00" fill="#000000">5.376 rows</text>
<polygon fill="#ffffff" stroke="transparent" points="287,-286.7 287,-305.7 406,-305.7 406,-286.7 287,-286.7"/>
<polygon fill="none" stroke="#000000" points="287,-286.7 287,-305.7 406,-305.7 406,-286.7 287,-286.7"/>
<text text-anchor="start" x="387.4053" y="-292.8" font-family="Helvetica,sans-Serif" font-size="11.00" fill="#000000">0 &gt;</text>
<polygon fill="none" stroke="#000000" stroke-width="2" points="179,-285.7 179,-439.7 407,-439.7 407,-285.7 179,-285.7"/>
</a>
</g>
</g>
<!-- crn_int_outlets&#45;&gt;crn_studynote -->
<g id="edge6" class="edge">
<title>crn_int_outlets:w&#45;&gt;crn_studynote:e</title>
<path fill="none" stroke="#000000" stroke-dasharray="5,2" d="M165.6728,-341.5816C123.081,-362.4573 194.4599,-489.7 129.5,-489.7"/>
<polygon fill="#000000" stroke="#000000" points="172.1571,-340.2775 180.7099,-342.2293 176.0785,-339.4887 180,-338.7 180,-338.7 180,-338.7 176.0785,-339.4887 179.2901,-335.1707 172.1571,-340.2775 172.1571,-340.2775"/>
<ellipse fill="none" stroke="#000000" cx="169.0199" cy="-340.9085" rx="3.2" ry="3.2"/>
</g>
<!-- crn_studies_boundingbox -->
<g id="node8" class="node">
<title>crn_studies_boundingbox</title>
<g id="a_node8"><a xlink:href="../../tables/crn_studies_boundingbox.html" xlink:title="crn_studies_boundingbox" target="_top">
<polygon fill="#ffffff" stroke="transparent" points="198.5,-202.2 198.5,-263.2 387.5,-263.2 387.5,-202.2 198.5,-202.2"/>
<polygon fill="#f5f5f5" stroke="transparent" points="199,-239.7 199,-262.7 388,-262.7 388,-239.7 199,-239.7"/>
<polygon fill="none" stroke="#000000" points="199,-239.7 199,-262.7 388,-262.7 388,-239.7 199,-239.7"/>
<text text-anchor="start" x="204" y="-248.3" font-family="Helvetica,sans-Serif" font-weight="bold" font-size="11.00" fill="#000000">crn_studies_boundingbox</text>
<text text-anchor="start" x="353.5219" y="-247.8" font-family="Helvetica,sans-Serif" font-size="11.00" fill="#000000">[table]</text>
<polygon fill="none" stroke="#000000" points="199,-220.7 199,-239.7 388,-239.7 388,-220.7 199,-220.7"/>
<text text-anchor="start" x="202" y="-226.8" font-family="Helvetica,sans-Serif" font-size="11.00" fill="#000000">...</text>
<polygon fill="#ffffff" stroke="transparent" points="199,-201.7 199,-220.7 268,-220.7 268,-201.7 199,-201.7"/>
<polygon fill="none" stroke="#000000" points="199,-201.7 199,-220.7 268,-220.7 268,-201.7 199,-201.7"/>
<text text-anchor="start" x="202" y="-207.8" font-family="Helvetica,sans-Serif" font-size="11.00" fill="#000000">&lt; 1</text>
<polygon fill="#ffffff" stroke="transparent" points="268,-201.7 268,-220.7 342,-220.7 342,-201.7 268,-201.7"/>
<polygon fill="none" stroke="#000000" points="268,-201.7 268,-220.7 342,-220.7 342,-201.7 268,-201.7"/>
<text text-anchor="start" x="294.3807" y="-207.8" font-family="Helvetica,sans-Serif" font-size="11.00" fill="#000000">301 rows</text>
<polygon fill="#ffffff" stroke="transparent" points="342,-201.7 342,-220.7 388,-220.7 388,-201.7 342,-201.7"/>
<polygon fill="none" stroke="#000000" points="342,-201.7 342,-220.7 388,-220.7 388,-201.7 342,-201.7"/>
<text text-anchor="start" x="369.4053" y="-207.8" font-family="Helvetica,sans-Serif" font-size="11.00" fill="#000000">2 &gt;</text>
</a>
</g>
</g>
<!-- crn_studies_boundingbox&#45;&gt;crn_studynote -->
<g id="edge7" class="edge">
<title>crn_studies_boundingbox:w&#45;&gt;crn_studynote:e</title>
<path fill="none" stroke="#000000" stroke-dasharray="5,2" d="M188.5967,-231.7805C176.101,-237.9033 177.2274,-256.5695 170,-274.7 151.997,-319.862 178.1181,-489.7 129.5,-489.7"/>
<polygon fill="#000000" stroke="#000000" points="197.4311,-225.9346 199,-233.7792 197.431,-234.093 195.8622,-226.2483 197.4311,-225.9346"/>
<polyline fill="none" stroke="#000000" points="199,-229.7 195.0777,-230.4844 "/>
<ellipse fill="none" stroke="#000000" cx="191.9398" cy="-231.112" rx="3.2" ry="3.2"/>
</g>
<!-- crn_xxl_basins -->
<g id="node9" class="node">
<title>crn_xxl_basins</title>
<g id="a_node9"><a xlink:href="../../tables/crn_xxl_basins.html" xlink:title="crn_xxl_basins" target="_top">
<polygon fill="#ffffff" stroke="transparent" points="230.5,-120.2 230.5,-181.2 355.5,-181.2 355.5,-120.2 230.5,-120.2"/>
<polygon fill="#f5f5f5" stroke="transparent" points="231,-157.7 231,-180.7 356,-180.7 356,-157.7 231,-157.7"/>
<polygon fill="none" stroke="#000000" points="231,-157.7 231,-180.7 356,-180.7 356,-157.7 231,-157.7"/>
<text text-anchor="start" x="236" y="-166.3" font-family="Helvetica,sans-Serif" font-weight="bold" font-size="11.00" fill="#000000">crn_xxl_basins</text>
<text text-anchor="start" x="321.5219" y="-165.8" font-family="Helvetica,sans-Serif" font-size="11.00" fill="#000000">[table]</text>
<polygon fill="none" stroke="#000000" points="231,-138.7 231,-157.7 356,-157.7 356,-138.7 231,-138.7"/>
<text text-anchor="start" x="234" y="-144.8" font-family="Helvetica,sans-Serif" font-size="11.00" fill="#000000">...</text>
<polygon fill="#ffffff" stroke="transparent" points="231,-119.7 231,-138.7 273,-138.7 273,-119.7 231,-119.7"/>
<polygon fill="none" stroke="#000000" points="231,-119.7 231,-138.7 273,-138.7 273,-119.7 231,-119.7"/>
<text text-anchor="start" x="234" y="-125.8" font-family="Helvetica,sans-Serif" font-size="11.00" fill="#000000">&lt; 3</text>
<polygon fill="#ffffff" stroke="transparent" points="273,-119.7 273,-138.7 333,-138.7 333,-119.7 273,-119.7"/>
<polygon fill="none" stroke="#000000" points="273,-119.7 273,-138.7 333,-138.7 333,-119.7 273,-119.7"/>
<text text-anchor="start" x="285.3807" y="-125.8" font-family="Helvetica,sans-Serif" font-size="11.00" fill="#000000">261 rows</text>
<polygon fill="#ffffff" stroke="transparent" points="333,-119.7 333,-138.7 356,-138.7 356,-119.7 333,-119.7"/>
<polygon fill="none" stroke="#000000" points="333,-119.7 333,-138.7 356,-138.7 356,-119.7 333,-119.7"/>
<text text-anchor="start" x="346.8862" y="-125.8" font-family="Helvetica,sans-Serif" font-size="11.00" fill="#000000"> &#160;</text>
</a>
</g>
</g>
<!-- crn_xxl_basins&#45;&gt;crn_studynote -->
<g id="edge8" class="edge">
<title>crn_xxl_basins:w&#45;&gt;crn_studynote:e</title>
<path fill="none" stroke="#000000" stroke-dasharray="5,2" d="M216.5903,-148.8719C194.0748,-152.9544 184.4459,-167.6276 170,-191.7 135.6114,-249.0045 196.331,-489.7 129.5,-489.7"/>
<polygon fill="#000000" stroke="#000000" points="223.0263,-148.3485 231.2918,-151.2882 227.0132,-148.0243 231,-147.7 231,-147.7 231,-147.7 227.0132,-148.0243 230.7082,-144.1118 223.0263,-148.3485 223.0263,-148.3485"/>
<ellipse fill="none" stroke="#000000" cx="219.8369" cy="-148.608" rx="3.2" ry="3.2"/>
</g>
<!-- crn_xxl_outlets -->
<g id="node10" class="node">
<title>crn_xxl_outlets</title>
<g id="a_node10"><a xlink:href="../../tables/crn_xxl_outlets.html" xlink:title="crn_xxl_outlets" target="_top">
<polygon fill="#ffffff" stroke="transparent" points="229.5,-38.2 229.5,-99.2 356.5,-99.2 356.5,-38.2 229.5,-38.2"/>
<polygon fill="#f5f5f5" stroke="transparent" points="230,-75.7 230,-98.7 357,-98.7 357,-75.7 230,-75.7"/>
<polygon fill="none" stroke="#000000" points="230,-75.7 230,-98.7 357,-98.7 357,-75.7 230,-75.7"/>
<text text-anchor="start" x="235" y="-84.3" font-family="Helvetica,sans-Serif" font-weight="bold" font-size="11.00" fill="#000000">crn_xxl_outlets</text>
<text text-anchor="start" x="322.5219" y="-83.8" font-family="Helvetica,sans-Serif" font-size="11.00" fill="#000000">[table]</text>
<polygon fill="none" stroke="#000000" points="230,-56.7 230,-75.7 357,-75.7 357,-56.7 230,-56.7"/>
<text text-anchor="start" x="233" y="-62.8" font-family="Helvetica,sans-Serif" font-size="11.00" fill="#000000">...</text>
<polygon fill="#ffffff" stroke="transparent" points="230,-37.7 230,-56.7 273,-56.7 273,-37.7 230,-37.7"/>
<polygon fill="none" stroke="#000000" points="230,-37.7 230,-56.7 273,-56.7 273,-37.7 230,-37.7"/>
<text text-anchor="start" x="233" y="-43.8" font-family="Helvetica,sans-Serif" font-size="11.00" fill="#000000">&lt; 1</text>
<polygon fill="#ffffff" stroke="transparent" points="273,-37.7 273,-56.7 334,-56.7 334,-37.7 273,-37.7"/>
<polygon fill="none" stroke="#000000" points="273,-37.7 273,-56.7 334,-56.7 334,-37.7 273,-37.7"/>
<text text-anchor="start" x="286.3807" y="-43.8" font-family="Helvetica,sans-Serif" font-size="11.00" fill="#000000">261 rows</text>
<polygon fill="#ffffff" stroke="transparent" points="334,-37.7 334,-56.7 357,-56.7 357,-37.7 334,-37.7"/>
<polygon fill="none" stroke="#000000" points="334,-37.7 334,-56.7 357,-56.7 357,-37.7 334,-37.7"/>
<text text-anchor="start" x="347.8862" y="-43.8" font-family="Helvetica,sans-Serif" font-size="11.00" fill="#000000"> &#160;</text>
</a>
</g>
</g>
<!-- crn_xxl_outlets&#45;&gt;crn_studynote -->
<g id="edge9" class="edge">
<title>crn_xxl_outlets:w&#45;&gt;crn_studynote:e</title>
<path fill="none" stroke="#000000" stroke-dasharray="5,2" d="M215.4247,-66.9296C193.343,-71.0912 183.786,-85.7397 170,-109.7 127.648,-183.3082 214.4227,-489.7 129.5,-489.7"/>
<polygon fill="#000000" stroke="#000000" points="222.0283,-66.3726 230.3026,-69.2873 226.0142,-66.0363 230,-65.7 230,-65.7 230,-65.7 226.0142,-66.0363 229.6974,-62.1127 222.0283,-66.3726 222.0283,-66.3726"/>
<ellipse fill="none" stroke="#000000" cx="218.8396" cy="-66.6416" rx="3.2" ry="3.2"/>
</g>
</g>
</svg>
