<?xml version="1.0" encoding="UTF-8" standalone="no"?>
<!DOCTYPE svg PUBLIC "-//W3C//DTD SVG 1.1//EN"
 "http://www.w3.org/Graphics/SVG/1.1/DTD/svg11.dtd">
<!-- Generated by graphviz version 2.40.1 (20161225.0304)
 -->
<!-- Title: oneDegreeRelationshipsDiagramImplied Pages: 1 -->
<svg width="461pt" height="1383pt"
 viewBox="0.00 0.00 461.00 1383.20" xmlns="http://www.w3.org/2000/svg" xmlns:xlink="http://www.w3.org/1999/xlink">
<g id="graph0" class="graph" transform="scale(1 1) rotate(0) translate(4 1379.2)">
<title>oneDegreeRelationshipsDiagramImplied</title>
<polygon fill="#ffffff" stroke="transparent" points="-4,4 -4,-1379.2 457,-1379.2 457,4 -4,4"/>
<text text-anchor="middle" x="72.4936" y="-7.3" font-family="Helvetica,sans-Serif" font-size="11.00" fill="#000000">Generated by SchemaSpy</text>
<!-- crn_aus_basins -->
<g id="node1" class="node">
<title>crn_aus_basins</title>
<g id="a_node1"><a xlink:href="../../tables/crn_aus_basins.html" xlink:title="crn_aus_basins" target="_top">
<polygon fill="#ffffff" stroke="transparent" points="286,-1200.2 286,-1371.2 415,-1371.2 415,-1200.2 286,-1200.2"/>
<polygon fill="#f5f5f5" stroke="transparent" points="286.5,-1347.7 286.5,-1370.7 415.5,-1370.7 415.5,-1347.7 286.5,-1347.7"/>
<polygon fill="none" stroke="#000000" points="286.5,-1347.7 286.5,-1370.7 415.5,-1370.7 415.5,-1347.7 286.5,-1347.7"/>
<text text-anchor="start" x="291.5" y="-1356.3" font-family="Helvetica,sans-Serif" font-weight="bold" font-size="11.00" fill="#000000">crn_aus_basins</text>
<text text-anchor="start" x="381.0219" y="-1355.8" font-family="Helvetica,sans-Serif" font-size="11.00" fill="#000000">[table]</text>
<polygon fill="none" stroke="#000000" points="286.5,-1325.7 286.5,-1347.7 415.5,-1347.7 415.5,-1325.7 286.5,-1325.7"/>
<image xlink:href="../../images/foreignKeys.png" width="11px" height="12px" preserveAspectRatio="xMinYMin meet" x="291.5" y="-1342.7"/>
<text text-anchor="start" x="315.5" y="-1332.8" font-family="Helvetica,sans-Serif" font-size="11.00" fill="#000000">STUDYID</text>
<polygon fill="none" stroke="#000000" points="286.5,-1303.7 286.5,-1325.7 415.5,-1325.7 415.5,-1303.7 286.5,-1303.7"/>
<image xlink:href="../../images/foreignKeys.png" width="11px" height="12px" preserveAspectRatio="xMinYMin meet" x="291.5" y="-1320.7"/>
<text text-anchor="start" x="315.5" y="-1310.8" font-family="Helvetica,sans-Serif" font-size="11.00" fill="#000000">DBDOI</text>
<polygon fill="none" stroke="#000000" points="286.5,-1281.7 286.5,-1303.7 415.5,-1303.7 415.5,-1281.7 286.5,-1281.7"/>
<image xlink:href="../../images/foreignKeys.png" width="11px" height="12px" preserveAspectRatio="xMinYMin meet" x="291.5" y="-1298.7"/>
<text text-anchor="start" x="315.5" y="-1288.8" font-family="Helvetica,sans-Serif" font-size="11.00" fill="#000000">OAID</text>
<polygon fill="none" stroke="#000000" points="286.5,-1259.7 286.5,-1281.7 415.5,-1281.7 415.5,-1259.7 286.5,-1259.7"/>
<image xlink:href="../../images/foreignKeys.png" width="11px" height="12px" preserveAspectRatio="xMinYMin meet" x="291.5" y="-1276.7"/>
<text text-anchor="start" x="315.5" y="-1266.8" font-family="Helvetica,sans-Serif" font-size="11.00" fill="#000000">PROJEPSGID</text>
<polygon fill="none" stroke="#000000" points="286.5,-1237.7 286.5,-1259.7 415.5,-1259.7 415.5,-1237.7 286.5,-1237.7"/>
<image xlink:href="../../images/primaryKeys.png" width="11px" height="12px" preserveAspectRatio="xMinYMin meet" x="291.5" y="-1254.7"/>
<text text-anchor="start" x="315.5" y="-1244.8" font-family="Helvetica,sans-Serif" font-size="11.00" fill="#000000">id</text>
<polygon fill="none" stroke="#000000" points="286.5,-1218.7 286.5,-1237.7 415.5,-1237.7 415.5,-1218.7 286.5,-1218.7"/>
<text text-anchor="start" x="289.5" y="-1224.8" font-family="Helvetica,sans-Serif" font-size="11.00" fill="#000000">...</text>
<polygon fill="#ffffff" stroke="transparent" points="286.5,-1199.7 286.5,-1218.7 330.5,-1218.7 330.5,-1199.7 286.5,-1199.7"/>
<polygon fill="none" stroke="#000000" points="286.5,-1199.7 286.5,-1218.7 330.5,-1218.7 330.5,-1199.7 286.5,-1199.7"/>
<text text-anchor="start" x="289.5" y="-1205.8" font-family="Helvetica,sans-Serif" font-size="11.00" fill="#000000">&lt; 4</text>
<polygon fill="#ffffff" stroke="transparent" points="330.5,-1199.7 330.5,-1218.7 391.5,-1218.7 391.5,-1199.7 330.5,-1199.7"/>
<polygon fill="none" stroke="#000000" points="330.5,-1199.7 330.5,-1218.7 391.5,-1218.7 391.5,-1199.7 330.5,-1199.7"/>
<text text-anchor="start" x="343.8807" y="-1205.8" font-family="Helvetica,sans-Serif" font-size="11.00" fill="#000000">297 rows</text>
<polygon fill="#ffffff" stroke="transparent" points="391.5,-1199.7 391.5,-1218.7 415.5,-1218.7 415.5,-1199.7 391.5,-1199.7"/>
<polygon fill="none" stroke="#000000" points="391.5,-1199.7 391.5,-1218.7 415.5,-1218.7 415.5,-1199.7 391.5,-1199.7"/>
<text text-anchor="start" x="406.3862" y="-1205.8" font-family="Helvetica,sans-Serif" font-size="11.00" fill="#000000"> &#160;</text>
</a>
</g>
</g>
<!-- crn_studynote -->
<g id="node2" class="node">
<title>crn_studynote</title>
<g id="a_node2"><a xlink:href="../../tables/crn_studynote.html" xlink:title="crn_studynote" target="_top">
<polygon fill="#ffffff" stroke="transparent" points="8,-624.7 8,-780.7 207,-780.7 207,-624.7 8,-624.7"/>
<polygon fill="#f5f5f5" stroke="transparent" points="10.5,-755.7 10.5,-778.7 205.5,-778.7 205.5,-755.7 10.5,-755.7"/>
<polygon fill="none" stroke="#000000" points="10.5,-755.7 10.5,-778.7 205.5,-778.7 205.5,-755.7 10.5,-755.7"/>
<text text-anchor="start" x="15.5" y="-764.3" font-family="Helvetica,sans-Serif" font-weight="bold" font-size="11.00" fill="#000000">crn_studynote</text>
<text text-anchor="start" x="170.5437" y="-763.8" font-family="Helvetica,sans-Serif" font-size="11.00" fill="#000000">[table]</text>
<polygon fill="none" stroke="#000000" points="10.5,-733.7 10.5,-755.7 113.5,-755.7 113.5,-733.7 10.5,-733.7"/>
<image xlink:href="../../images/primaryKeys.png" width="11px" height="12px" preserveAspectRatio="xMinYMin meet" x="15.5" y="-750.7"/>
<text text-anchor="start" x="30.5" y="-740.8" font-family="Helvetica,sans-Serif" font-size="11.00" fill="#000000">STUDYID</text>
<polygon fill="none" stroke="#000000" points="113.5,-733.7 113.5,-755.7 205.5,-755.7 205.5,-733.7 113.5,-733.7"/>
<text text-anchor="start" x="116.5" y="-741.4" font-family="Helvetica,sans-Serif" font-size="11.00" fill="#000000">varchar[5]</text>
<polygon fill="none" stroke="#000000" points="10.5,-711.7 10.5,-733.7 113.5,-733.7 113.5,-711.7 10.5,-711.7"/>
<text text-anchor="start" x="30.5" y="-718.8" font-family="Helvetica,sans-Serif" font-size="11.00" fill="#000000">STUDY_NOTE</text>
<polygon fill="none" stroke="#000000" points="113.5,-711.7 113.5,-733.7 205.5,-733.7 205.5,-711.7 113.5,-711.7"/>
<text text-anchor="start" x="116.5" y="-719.4" font-family="Helvetica,sans-Serif" font-size="11.00" fill="#000000">text[2147483647]</text>
<polygon fill="none" stroke="#000000" points="10.5,-689.7 10.5,-711.7 113.5,-711.7 113.5,-689.7 10.5,-689.7"/>
<text text-anchor="start" x="30.5" y="-696.8" font-family="Helvetica,sans-Serif" font-size="11.00" fill="#000000">TECH_NOTE</text>
<polygon fill="none" stroke="#000000" points="113.5,-689.7 113.5,-711.7 205.5,-711.7 205.5,-689.7 113.5,-689.7"/>
<text text-anchor="start" x="116.5" y="-697.4" font-family="Helvetica,sans-Serif" font-size="11.00" fill="#000000">text[2147483647]</text>
<polygon fill="none" stroke="#000000" points="10.5,-667.7 10.5,-689.7 113.5,-689.7 113.5,-667.7 10.5,-667.7"/>
<text text-anchor="start" x="30.5" y="-674.8" font-family="Helvetica,sans-Serif" font-size="11.00" fill="#000000">CREATED_AT</text>
<polygon fill="none" stroke="#000000" points="113.5,-667.7 113.5,-689.7 205.5,-689.7 205.5,-667.7 113.5,-667.7"/>
<text text-anchor="start" x="116.1023" y="-675.4" font-family="Helvetica,sans-Serif" font-size="11.00" fill="#000000">timestamptz[35,6]</text>
<polygon fill="none" stroke="#000000" points="10.5,-645.7 10.5,-667.7 113.5,-667.7 113.5,-645.7 10.5,-645.7"/>
<text text-anchor="start" x="30.5" y="-652.8" font-family="Helvetica,sans-Serif" font-size="11.00" fill="#000000">UPDATED_AT</text>
<polygon fill="none" stroke="#000000" points="113.5,-645.7 113.5,-667.7 205.5,-667.7 205.5,-645.7 113.5,-645.7"/>
<text text-anchor="start" x="116.1023" y="-653.4" font-family="Helvetica,sans-Serif" font-size="11.00" fill="#000000">timestamptz[35,6]</text>
<polygon fill="#ffffff" stroke="transparent" points="10.5,-626.7 10.5,-645.7 47.5,-645.7 47.5,-626.7 10.5,-626.7"/>
<polygon fill="none" stroke="#000000" points="10.5,-626.7 10.5,-645.7 47.5,-645.7 47.5,-626.7 10.5,-626.7"/>
<text text-anchor="start" x="13.5" y="-632.8" font-family="Helvetica,sans-Serif" font-size="11.00" fill="#000000">&lt; 0</text>
<polygon fill="#ffffff" stroke="transparent" points="47.5,-626.7 47.5,-645.7 113.5,-645.7 113.5,-626.7 47.5,-626.7"/>
<polygon fill="none" stroke="#000000" points="47.5,-626.7 47.5,-645.7 113.5,-645.7 113.5,-626.7 47.5,-626.7"/>
<text text-anchor="start" x="65.8807" y="-632.8" font-family="Helvetica,sans-Serif" font-size="11.00" fill="#000000">301 rows</text>
<polygon fill="#ffffff" stroke="transparent" points="113.5,-626.7 113.5,-645.7 205.5,-645.7 205.5,-626.7 113.5,-626.7"/>
<polygon fill="none" stroke="#000000" points="113.5,-626.7 113.5,-645.7 205.5,-645.7 205.5,-626.7 113.5,-626.7"/>
<text text-anchor="start" x="186.9053" y="-632.8" font-family="Helvetica,sans-Serif" font-size="11.00" fill="#000000">9 &gt;</text>
<polygon fill="none" stroke="#000000" stroke-width="2" points="9,-625.7 9,-779.7 206,-779.7 206,-625.7 9,-625.7"/>
</a>
</g>
</g>
<!-- crn_aus_basins&#45;&gt;crn_studynote -->
<g id="edge1" class="edge">
<title>crn_aus_basins:w&#45;&gt;crn_studynote:e</title>
<path fill="none" stroke="#000000" stroke-dasharray="5,2" d="M271.9786,-1335.127C225.3093,-1323.5868 258.8359,-1250.7425 248,-1189.7 239.3187,-1140.7951 255.1694,-744.7 205.5,-744.7"/>
<polygon fill="#000000" stroke="#000000" points="278.5465,-1335.8384 286.1123,-1340.2791 282.5233,-1336.2692 286.5,-1336.7 286.5,-1336.7 286.5,-1336.7 282.5233,-1336.2692 286.8877,-1333.1209 278.5465,-1335.8384 278.5465,-1335.8384"/>
<ellipse fill="none" stroke="#000000" cx="275.3651" cy="-1335.4938" rx="3.2" ry="3.2"/>
</g>
<!-- crn_aus_outlets -->
<g id="node3" class="node">
<title>crn_aus_outlets</title>
<g id="a_node3"><a xlink:href="../../tables/crn_aus_outlets.html" xlink:title="crn_aus_outlets" target="_top">
<polygon fill="#ffffff" stroke="transparent" points="285,-1074.2 285,-1179.2 416,-1179.2 416,-1074.2 285,-1074.2"/>
<polygon fill="#f5f5f5" stroke="transparent" points="285.5,-1155.7 285.5,-1178.7 416.5,-1178.7 416.5,-1155.7 285.5,-1155.7"/>
<polygon fill="none" stroke="#000000" points="285.5,-1155.7 285.5,-1178.7 416.5,-1178.7 416.5,-1155.7 285.5,-1155.7"/>
<text text-anchor="start" x="290.5" y="-1164.3" font-family="Helvetica,sans-Serif" font-weight="bold" font-size="11.00" fill="#000000">crn_aus_outlets</text>
<text text-anchor="start" x="382.0219" y="-1163.8" font-family="Helvetica,sans-Serif" font-size="11.00" fill="#000000">[table]</text>
<polygon fill="none" stroke="#000000" points="285.5,-1133.7 285.5,-1155.7 416.5,-1155.7 416.5,-1133.7 285.5,-1133.7"/>
<image xlink:href="../../images/foreignKeys.png" width="11px" height="12px" preserveAspectRatio="xMinYMin meet" x="290.5" y="-1150.7"/>
<text text-anchor="start" x="314.5" y="-1140.8" font-family="Helvetica,sans-Serif" font-size="11.00" fill="#000000">STUDYID</text>
<polygon fill="none" stroke="#000000" points="285.5,-1111.7 285.5,-1133.7 416.5,-1133.7 416.5,-1111.7 285.5,-1111.7"/>
<image xlink:href="../../images/primaryKeys.png" width="11px" height="12px" preserveAspectRatio="xMinYMin meet" x="290.5" y="-1128.7"/>
<text text-anchor="start" x="314.5" y="-1118.8" font-family="Helvetica,sans-Serif" font-size="11.00" fill="#000000">id</text>
<polygon fill="none" stroke="#000000" points="285.5,-1092.7 285.5,-1111.7 416.5,-1111.7 416.5,-1092.7 285.5,-1092.7"/>
<text text-anchor="start" x="288.5" y="-1098.8" font-family="Helvetica,sans-Serif" font-size="11.00" fill="#000000">...</text>
<polygon fill="#ffffff" stroke="transparent" points="285.5,-1073.7 285.5,-1092.7 330.5,-1092.7 330.5,-1073.7 285.5,-1073.7"/>
<polygon fill="none" stroke="#000000" points="285.5,-1073.7 285.5,-1092.7 330.5,-1092.7 330.5,-1073.7 285.5,-1073.7"/>
<text text-anchor="start" x="288.5" y="-1079.8" font-family="Helvetica,sans-Serif" font-size="11.00" fill="#000000">&lt; 1</text>
<polygon fill="#ffffff" stroke="transparent" points="330.5,-1073.7 330.5,-1092.7 392.5,-1092.7 392.5,-1073.7 330.5,-1073.7"/>
<polygon fill="none" stroke="#000000" points="330.5,-1073.7 330.5,-1092.7 392.5,-1092.7 392.5,-1073.7 330.5,-1073.7"/>
<text text-anchor="start" x="344.8807" y="-1079.8" font-family="Helvetica,sans-Serif" font-size="11.00" fill="#000000">297 rows</text>
<polygon fill="#ffffff" stroke="transparent" points="392.5,-1073.7 392.5,-1092.7 416.5,-1092.7 416.5,-1073.7 392.5,-1073.7"/>
<polygon fill="none" stroke="#000000" points="392.5,-1073.7 392.5,-1092.7 416.5,-1092.7 416.5,-1073.7 392.5,-1073.7"/>
<text text-anchor="start" x="407.3862" y="-1079.8" font-family="Helvetica,sans-Serif" font-size="11.00" fill="#000000"> &#160;</text>
</a>
</g>
</g>
<!-- crn_aus_outlets&#45;&gt;crn_studynote -->
<g id="edge2" class="edge">
<title>crn_aus_outlets:w&#45;&gt;crn_studynote:e</title>
<path fill="none" stroke="#000000" stroke-dasharray="5,2" d="M271.4653,-1140.7411C206.0627,-1099.1983 290.8378,-744.7 205.5,-744.7"/>
<polygon fill="#000000" stroke="#000000" points="277.8005,-1142.5281 284.5226,-1148.1648 281.6502,-1143.614 285.5,-1144.7 285.5,-1144.7 285.5,-1144.7 281.6502,-1143.614 286.4774,-1141.2352 277.8005,-1142.5281 277.8005,-1142.5281"/>
<ellipse fill="none" stroke="#000000" cx="274.7207" cy="-1141.6593" rx="3.2" ry="3.2"/>
</g>
<!-- crn_inprep_basins -->
<g id="node4" class="node">
<title>crn_inprep_basins</title>
<g id="a_node4"><a xlink:href="../../tables/crn_inprep_basins.html" xlink:title="crn_inprep_basins" target="_top">
<polygon fill="#ffffff" stroke="transparent" points="278,-926.2 278,-1053.2 423,-1053.2 423,-926.2 278,-926.2"/>
<polygon fill="#f5f5f5" stroke="transparent" points="278.5,-1029.7 278.5,-1052.7 423.5,-1052.7 423.5,-1029.7 278.5,-1029.7"/>
<polygon fill="none" stroke="#000000" points="278.5,-1029.7 278.5,-1052.7 423.5,-1052.7 423.5,-1029.7 278.5,-1029.7"/>
<text text-anchor="start" x="283.5" y="-1038.3" font-family="Helvetica,sans-Serif" font-weight="bold" font-size="11.00" fill="#000000">crn_inprep_basins</text>
<text text-anchor="start" x="389.0219" y="-1037.8" font-family="Helvetica,sans-Serif" font-size="11.00" fill="#000000">[table]</text>
<polygon fill="none" stroke="#000000" points="278.5,-1007.7 278.5,-1029.7 423.5,-1029.7 423.5,-1007.7 278.5,-1007.7"/>
<image xlink:href="../../images/foreignKeys.png" width="11px" height="12px" preserveAspectRatio="xMinYMin meet" x="283.5" y="-1024.7"/>
<text text-anchor="start" x="307.5" y="-1014.8" font-family="Helvetica,sans-Serif" font-size="11.00" fill="#000000">STUDYID</text>
<polygon fill="none" stroke="#000000" points="278.5,-985.7 278.5,-1007.7 423.5,-1007.7 423.5,-985.7 278.5,-985.7"/>
<image xlink:href="../../images/foreignKeys.png" width="11px" height="12px" preserveAspectRatio="xMinYMin meet" x="283.5" y="-1002.7"/>
<text text-anchor="start" x="307.5" y="-992.8" font-family="Helvetica,sans-Serif" font-size="11.00" fill="#000000">PROJEPSGID</text>
<polygon fill="none" stroke="#000000" points="278.5,-963.7 278.5,-985.7 423.5,-985.7 423.5,-963.7 278.5,-963.7"/>
<image xlink:href="../../images/primaryKeys.png" width="11px" height="12px" preserveAspectRatio="xMinYMin meet" x="283.5" y="-980.7"/>
<text text-anchor="start" x="307.5" y="-970.8" font-family="Helvetica,sans-Serif" font-size="11.00" fill="#000000">id</text>
<polygon fill="none" stroke="#000000" points="278.5,-944.7 278.5,-963.7 423.5,-963.7 423.5,-944.7 278.5,-944.7"/>
<text text-anchor="start" x="281.5" y="-950.8" font-family="Helvetica,sans-Serif" font-size="11.00" fill="#000000">...</text>
<polygon fill="#ffffff" stroke="transparent" points="278.5,-925.7 278.5,-944.7 330.5,-944.7 330.5,-925.7 278.5,-925.7"/>
<polygon fill="none" stroke="#000000" points="278.5,-925.7 278.5,-944.7 330.5,-944.7 330.5,-925.7 278.5,-925.7"/>
<text text-anchor="start" x="281.5" y="-931.8" font-family="Helvetica,sans-Serif" font-size="11.00" fill="#000000">&lt; 2</text>
<polygon fill="#ffffff" stroke="transparent" points="330.5,-925.7 330.5,-944.7 395.5,-944.7 395.5,-925.7 330.5,-925.7"/>
<polygon fill="none" stroke="#000000" points="330.5,-925.7 330.5,-944.7 395.5,-944.7 395.5,-925.7 330.5,-925.7"/>
<text text-anchor="start" x="347.8807" y="-931.8" font-family="Helvetica,sans-Serif" font-size="11.00" fill="#000000">157 rows</text>
<polygon fill="#ffffff" stroke="transparent" points="395.5,-925.7 395.5,-944.7 423.5,-944.7 423.5,-925.7 395.5,-925.7"/>
<polygon fill="none" stroke="#000000" points="395.5,-925.7 395.5,-944.7 423.5,-944.7 423.5,-925.7 395.5,-925.7"/>
<text text-anchor="start" x="414.3862" y="-931.8" font-family="Helvetica,sans-Serif" font-size="11.00" fill="#000000"> &#160;</text>
</a>
</g>
</g>
<!-- crn_inprep_basins&#45;&gt;crn_studynote -->
<g id="edge3" class="edge">
<title>crn_inprep_basins:w&#45;&gt;crn_studynote:e</title>
<path fill="none" stroke="#000000" stroke-dasharray="5,2" d="M264.9416,-1013.2267C223.5754,-974.6092 263.2207,-744.7 205.5,-744.7"/>
<polygon fill="#000000" stroke="#000000" points="271.0816,-1015.7053 277.1524,-1022.0383 274.7908,-1017.2027 278.5,-1018.7 278.5,-1018.7 278.5,-1018.7 274.7908,-1017.2027 279.8476,-1015.3617 271.0816,-1015.7053 271.0816,-1015.7053"/>
<ellipse fill="none" stroke="#000000" cx="268.1143" cy="-1014.5074" rx="3.2" ry="3.2"/>
</g>
<!-- crn_inprep_outlets -->
<g id="node5" class="node">
<title>crn_inprep_outlets</title>
<g id="a_node5"><a xlink:href="../../tables/crn_inprep_outlets.html" xlink:title="crn_inprep_outlets" target="_top">
<polygon fill="#ffffff" stroke="transparent" points="277,-800.2 277,-905.2 424,-905.2 424,-800.2 277,-800.2"/>
<polygon fill="#f5f5f5" stroke="transparent" points="277.5,-881.7 277.5,-904.7 424.5,-904.7 424.5,-881.7 277.5,-881.7"/>
<polygon fill="none" stroke="#000000" points="277.5,-881.7 277.5,-904.7 424.5,-904.7 424.5,-881.7 277.5,-881.7"/>
<text text-anchor="start" x="282.5" y="-890.3" font-family="Helvetica,sans-Serif" font-weight="bold" font-size="11.00" fill="#000000">crn_inprep_outlets</text>
<text text-anchor="start" x="390.0219" y="-889.8" font-family="Helvetica,sans-Serif" font-size="11.00" fill="#000000">[table]</text>
<polygon fill="none" stroke="#000000" points="277.5,-859.7 277.5,-881.7 424.5,-881.7 424.5,-859.7 277.5,-859.7"/>
<image xlink:href="../../images/foreignKeys.png" width="11px" height="12px" preserveAspectRatio="xMinYMin meet" x="282.5" y="-876.7"/>
<text text-anchor="start" x="306.5" y="-866.8" font-family="Helvetica,sans-Serif" font-size="11.00" fill="#000000">STUDYID</text>
<polygon fill="none" stroke="#000000" points="277.5,-837.7 277.5,-859.7 424.5,-859.7 424.5,-837.7 277.5,-837.7"/>
<image xlink:href="../../images/primaryKeys.png" width="11px" height="12px" preserveAspectRatio="xMinYMin meet" x="282.5" y="-854.7"/>
<text text-anchor="start" x="306.5" y="-844.8" font-family="Helvetica,sans-Serif" font-size="11.00" fill="#000000">id</text>
<polygon fill="none" stroke="#000000" points="277.5,-818.7 277.5,-837.7 424.5,-837.7 424.5,-818.7 277.5,-818.7"/>
<text text-anchor="start" x="280.5" y="-824.8" font-family="Helvetica,sans-Serif" font-size="11.00" fill="#000000">...</text>
<polygon fill="#ffffff" stroke="transparent" points="277.5,-799.7 277.5,-818.7 330.5,-818.7 330.5,-799.7 277.5,-799.7"/>
<polygon fill="none" stroke="#000000" points="277.5,-799.7 277.5,-818.7 330.5,-818.7 330.5,-799.7 277.5,-799.7"/>
<text text-anchor="start" x="280.5" y="-805.8" font-family="Helvetica,sans-Serif" font-size="11.00" fill="#000000">&lt; 1</text>
<polygon fill="#ffffff" stroke="transparent" points="330.5,-799.7 330.5,-818.7 396.5,-818.7 396.5,-799.7 330.5,-799.7"/>
<polygon fill="none" stroke="#000000" points="330.5,-799.7 330.5,-818.7 396.5,-818.7 396.5,-799.7 330.5,-799.7"/>
<text text-anchor="start" x="348.8807" y="-805.8" font-family="Helvetica,sans-Serif" font-size="11.00" fill="#000000">157 rows</text>
<polygon fill="#ffffff" stroke="transparent" points="396.5,-799.7 396.5,-818.7 424.5,-818.7 424.5,-799.7 396.5,-799.7"/>
<polygon fill="none" stroke="#000000" points="396.5,-799.7 396.5,-818.7 424.5,-818.7 424.5,-799.7 396.5,-799.7"/>
<text text-anchor="start" x="415.3862" y="-805.8" font-family="Helvetica,sans-Serif" font-size="11.00" fill="#000000"> &#160;</text>
</a>
</g>
</g>
<!-- crn_inprep_outlets&#45;&gt;crn_studynote -->
<g id="edge4" class="edge">
<title>crn_inprep_outlets:w&#45;&gt;crn_studynote:e</title>
<path fill="none" stroke="#000000" stroke-dasharray="5,2" d="M263.1442,-867.9511C222.0823,-849.5249 264.3293,-744.7 205.5,-744.7"/>
<polygon fill="#000000" stroke="#000000" points="269.6427,-869.1954 276.8229,-874.2358 273.5714,-869.9477 277.5,-870.7 277.5,-870.7 277.5,-870.7 273.5714,-869.9477 278.1771,-867.1642 269.6427,-869.1954 269.6427,-869.1954"/>
<ellipse fill="none" stroke="#000000" cx="266.4998" cy="-868.5936" rx="3.2" ry="3.2"/>
</g>
<!-- crn_int_basins -->
<g id="node6" class="node">
<title>crn_int_basins</title>
<g id="a_node6"><a xlink:href="../../tables/crn_int_basins.html" xlink:title="crn_int_basins" target="_top">
<polygon fill="#ffffff" stroke="transparent" points="289,-608.2 289,-779.2 412,-779.2 412,-608.2 289,-608.2"/>
<polygon fill="#f5f5f5" stroke="transparent" points="289.5,-755.7 289.5,-778.7 412.5,-778.7 412.5,-755.7 289.5,-755.7"/>
<polygon fill="none" stroke="#000000" points="289.5,-755.7 289.5,-778.7 412.5,-778.7 412.5,-755.7 289.5,-755.7"/>
<text text-anchor="start" x="294.5" y="-764.3" font-family="Helvetica,sans-Serif" font-weight="bold" font-size="11.00" fill="#000000">crn_int_basins</text>
<text text-anchor="start" x="378.0219" y="-763.8" font-family="Helvetica,sans-Serif" font-size="11.00" fill="#000000">[table]</text>
<polygon fill="none" stroke="#000000" points="289.5,-733.7 289.5,-755.7 412.5,-755.7 412.5,-733.7 289.5,-733.7"/>
<image xlink:href="../../images/foreignKeys.png" width="11px" height="12px" preserveAspectRatio="xMinYMin meet" x="294.5" y="-750.7"/>
<text text-anchor="start" x="318.5" y="-740.8" font-family="Helvetica,sans-Serif" font-size="11.00" fill="#000000">STUDYID</text>
<polygon fill="none" stroke="#000000" points="289.5,-711.7 289.5,-733.7 412.5,-733.7 412.5,-711.7 289.5,-711.7"/>
<image xlink:href="../../images/foreignKeys.png" width="11px" height="12px" preserveAspectRatio="xMinYMin meet" x="294.5" y="-728.7"/>
<text text-anchor="start" x="318.5" y="-718.8" font-family="Helvetica,sans-Serif" font-size="11.00" fill="#000000">DBDOI</text>
<polygon fill="none" stroke="#000000" points="289.5,-689.7 289.5,-711.7 412.5,-711.7 412.5,-689.7 289.5,-689.7"/>
<image xlink:href="../../images/foreignKeys.png" width="11px" height="12px" preserveAspectRatio="xMinYMin meet" x="294.5" y="-706.7"/>
<text text-anchor="start" x="318.5" y="-696.8" font-family="Helvetica,sans-Serif" font-size="11.00" fill="#000000">OAID</text>
<polygon fill="none" stroke="#000000" points="289.5,-667.7 289.5,-689.7 412.5,-689.7 412.5,-667.7 289.5,-667.7"/>
<image xlink:href="../../images/foreignKeys.png" width="11px" height="12px" preserveAspectRatio="xMinYMin meet" x="294.5" y="-684.7"/>
<text text-anchor="start" x="318.5" y="-674.8" font-family="Helvetica,sans-Serif" font-size="11.00" fill="#000000">PROJEPSGID</text>
<polygon fill="none" stroke="#000000" points="289.5,-645.7 289.5,-667.7 412.5,-667.7 412.5,-645.7 289.5,-645.7"/>
<image xlink:href="../../images/primaryKeys.png" width="11px" height="12px" preserveAspectRatio="xMinYMin meet" x="294.5" y="-662.7"/>
<text text-anchor="start" x="318.5" y="-652.8" font-family="Helvetica,sans-Serif" font-size="11.00" fill="#000000">id</text>
<polygon fill="none" stroke="#000000" points="289.5,-626.7 289.5,-645.7 412.5,-645.7 412.5,-626.7 289.5,-626.7"/>
<text text-anchor="start" x="292.5" y="-632.8" font-family="Helvetica,sans-Serif" font-size="11.00" fill="#000000">...</text>
<polygon fill="#ffffff" stroke="transparent" points="289.5,-607.7 289.5,-626.7 325.5,-626.7 325.5,-607.7 289.5,-607.7"/>
<polygon fill="none" stroke="#000000" points="289.5,-607.7 289.5,-626.7 325.5,-626.7 325.5,-607.7 289.5,-607.7"/>
<text text-anchor="start" x="292.5" y="-613.8" font-family="Helvetica,sans-Serif" font-size="11.00" fill="#000000">&lt; 4</text>
<polygon fill="#ffffff" stroke="transparent" points="325.5,-607.7 325.5,-626.7 392.5,-626.7 392.5,-607.7 325.5,-607.7"/>
<polygon fill="none" stroke="#000000" points="325.5,-607.7 325.5,-626.7 392.5,-626.7 392.5,-607.7 325.5,-607.7"/>
<text text-anchor="start" x="335.7089" y="-613.8" font-family="Helvetica,sans-Serif" font-size="11.00" fill="#000000">5.376 rows</text>
<polygon fill="#ffffff" stroke="transparent" points="392.5,-607.7 392.5,-626.7 412.5,-626.7 412.5,-607.7 392.5,-607.7"/>
<polygon fill="none" stroke="#000000" points="392.5,-607.7 392.5,-626.7 412.5,-626.7 412.5,-607.7 392.5,-607.7"/>
<text text-anchor="start" x="403.3862" y="-613.8" font-family="Helvetica,sans-Serif" font-size="11.00" fill="#000000"> &#160;</text>
</a>
</g>
</g>
<!-- crn_int_basins&#45;&gt;crn_studynote -->
<g id="edge5" class="edge">
<title>crn_int_basins:w&#45;&gt;crn_studynote:e</title>
<path fill="none" stroke="#000000" stroke-dasharray="5,2" d="M274.8981,-744.7C248.8839,-744.7 237.4375,-744.7 205.5,-744.7"/>
<polygon fill="#000000" stroke="#000000" points="281.5,-744.7001 289.5,-748.3 285.5,-744.7 289.5,-744.7 289.5,-744.7 289.5,-744.7 285.5,-744.7 289.5,-741.1 281.5,-744.7001 281.5,-744.7001"/>
<ellipse fill="none" stroke="#000000" cx="278.3" cy="-744.7001" rx="3.2" ry="3.2"/>
</g>
<!-- crn_int_outlets -->
<g id="node7" class="node">
<title>crn_int_outlets</title>
<g id="a_node7"><a xlink:href="../../tables/crn_int_outlets.html" xlink:title="crn_int_outlets" target="_top">
<polygon fill="#ffffff" stroke="transparent" points="288,-482.2 288,-587.2 413,-587.2 413,-482.2 288,-482.2"/>
<polygon fill="#f5f5f5" stroke="transparent" points="288.5,-563.7 288.5,-586.7 413.5,-586.7 413.5,-563.7 288.5,-563.7"/>
<polygon fill="none" stroke="#000000" points="288.5,-563.7 288.5,-586.7 413.5,-586.7 413.5,-563.7 288.5,-563.7"/>
<text text-anchor="start" x="293.5" y="-572.3" font-family="Helvetica,sans-Serif" font-weight="bold" font-size="11.00" fill="#000000">crn_int_outlets</text>
<text text-anchor="start" x="379.0219" y="-571.8" font-family="Helvetica,sans-Serif" font-size="11.00" fill="#000000">[table]</text>
<polygon fill="none" stroke="#000000" points="288.5,-541.7 288.5,-563.7 413.5,-563.7 413.5,-541.7 288.5,-541.7"/>
<image xlink:href="../../images/foreignKeys.png" width="11px" height="12px" preserveAspectRatio="xMinYMin meet" x="293.5" y="-558.7"/>
<text text-anchor="start" x="317.5" y="-548.8" font-family="Helvetica,sans-Serif" font-size="11.00" fill="#000000">STUDYID</text>
<polygon fill="none" stroke="#000000" points="288.5,-519.7 288.5,-541.7 413.5,-541.7 413.5,-519.7 288.5,-519.7"/>
<image xlink:href="../../images/primaryKeys.png" width="11px" height="12px" preserveAspectRatio="xMinYMin meet" x="293.5" y="-536.7"/>
<text text-anchor="start" x="317.5" y="-526.8" font-family="Helvetica,sans-Serif" font-size="11.00" fill="#000000">id</text>
<polygon fill="none" stroke="#000000" points="288.5,-500.7 288.5,-519.7 413.5,-519.7 413.5,-500.7 288.5,-500.7"/>
<text text-anchor="start" x="291.5" y="-506.8" font-family="Helvetica,sans-Serif" font-size="11.00" fill="#000000">...</text>
<polygon fill="#ffffff" stroke="transparent" points="288.5,-481.7 288.5,-500.7 325.5,-500.7 325.5,-481.7 288.5,-481.7"/>
<polygon fill="none" stroke="#000000" points="288.5,-481.7 288.5,-500.7 325.5,-500.7 325.5,-481.7 288.5,-481.7"/>
<text text-anchor="start" x="291.5" y="-487.8" font-family="Helvetica,sans-Serif" font-size="11.00" fill="#000000">&lt; 1</text>
<polygon fill="#ffffff" stroke="transparent" points="325.5,-481.7 325.5,-500.7 392.5,-500.7 392.5,-481.7 325.5,-481.7"/>
<polygon fill="none" stroke="#000000" points="325.5,-481.7 325.5,-500.7 392.5,-500.7 392.5,-481.7 325.5,-481.7"/>
<text text-anchor="start" x="335.7089" y="-487.8" font-family="Helvetica,sans-Serif" font-size="11.00" fill="#000000">5.376 rows</text>
<polygon fill="#ffffff" stroke="transparent" points="392.5,-481.7 392.5,-500.7 413.5,-500.7 413.5,-481.7 392.5,-481.7"/>
<polygon fill="none" stroke="#000000" points="392.5,-481.7 392.5,-500.7 413.5,-500.7 413.5,-481.7 392.5,-481.7"/>
<text text-anchor="start" x="404.3862" y="-487.8" font-family="Helvetica,sans-Serif" font-size="11.00" fill="#000000"> &#160;</text>
</a>
</g>
</g>
<!-- crn_int_outlets&#45;&gt;crn_studynote -->
<g id="edge6" class="edge">
<title>crn_int_outlets:w&#45;&gt;crn_studynote:e</title>
<path fill="none" stroke="#000000" stroke-dasharray="5,2" d="M274.222,-555.58C260.763,-562.1949 258.2094,-579.3244 248,-597.7 214.9701,-657.1496 273.5091,-744.7 205.5,-744.7"/>
<polygon fill="#000000" stroke="#000000" points="280.6579,-554.2818 289.2118,-556.2289 284.579,-553.4909 288.5,-552.7 288.5,-552.7 288.5,-552.7 284.579,-553.4909 287.7882,-549.1711 280.6579,-554.2818 280.6579,-554.2818"/>
<ellipse fill="none" stroke="#000000" cx="277.5211" cy="-554.9146" rx="3.2" ry="3.2"/>
</g>
<!-- crn_studies_boundingbox -->
<g id="node8" class="node">
<title>crn_studies_boundingbox</title>
<g id="a_node8"><a xlink:href="../../tables/crn_studies_boundingbox.html" xlink:title="crn_studies_boundingbox" target="_top">
<polygon fill="#ffffff" stroke="transparent" points="256,-334.2 256,-461.2 445,-461.2 445,-334.2 256,-334.2"/>
<polygon fill="#f5f5f5" stroke="transparent" points="256.5,-437.7 256.5,-460.7 445.5,-460.7 445.5,-437.7 256.5,-437.7"/>
<polygon fill="none" stroke="#000000" points="256.5,-437.7 256.5,-460.7 445.5,-460.7 445.5,-437.7 256.5,-437.7"/>
<text text-anchor="start" x="261.5" y="-446.3" font-family="Helvetica,sans-Serif" font-weight="bold" font-size="11.00" fill="#000000">crn_studies_boundingbox</text>
<text text-anchor="start" x="411.0219" y="-445.8" font-family="Helvetica,sans-Serif" font-size="11.00" fill="#000000">[table]</text>
<polygon fill="none" stroke="#000000" points="256.5,-415.7 256.5,-437.7 445.5,-437.7 445.5,-415.7 256.5,-415.7"/>
<image xlink:href="../../images/primaryKeys.png" width="11px" height="12px" preserveAspectRatio="xMinYMin meet" x="261.5" y="-432.7"/>
<text text-anchor="start" x="285.5" y="-422.8" font-family="Helvetica,sans-Serif" font-size="11.00" fill="#000000">id</text>
<polygon fill="#ffffff" stroke="transparent" points="256.5,-393.7 256.5,-415.7 445.5,-415.7 445.5,-393.7 256.5,-393.7"/>
<polygon fill="none" stroke="#000000" points="256.5,-393.7 256.5,-415.7 445.5,-415.7 445.5,-393.7 256.5,-393.7"/>
<text text-anchor="start" x="285.5" y="-400.8" font-family="Helvetica,sans-Serif" font-size="11.00" fill="#000000">geom</text>
<polygon fill="#ffffff" stroke="transparent" points="256.5,-371.7 256.5,-393.7 445.5,-393.7 445.5,-371.7 256.5,-371.7"/>
<polygon fill="none" stroke="#000000" points="256.5,-371.7 256.5,-393.7 445.5,-393.7 445.5,-371.7 256.5,-371.7"/>
<image xlink:href="../../images/foreignKeys.png" width="11px" height="12px" preserveAspectRatio="xMinYMin meet" x="261.5" y="-388.7"/>
<text text-anchor="start" x="285.5" y="-378.8" font-family="Helvetica,sans-Serif" font-size="11.00" fill="#000000">STUDYID</text>
<polygon fill="none" stroke="#000000" points="256.5,-352.7 256.5,-371.7 445.5,-371.7 445.5,-352.7 256.5,-352.7"/>
<text text-anchor="start" x="259.5" y="-358.8" font-family="Helvetica,sans-Serif" font-size="11.00" fill="#000000">...</text>
<polygon fill="#ffffff" stroke="transparent" points="256.5,-333.7 256.5,-352.7 325.5,-352.7 325.5,-333.7 256.5,-333.7"/>
<polygon fill="none" stroke="#000000" points="256.5,-333.7 256.5,-352.7 325.5,-352.7 325.5,-333.7 256.5,-333.7"/>
<text text-anchor="start" x="259.5" y="-339.8" font-family="Helvetica,sans-Serif" font-size="11.00" fill="#000000">&lt; 1</text>
<polygon fill="#ffffff" stroke="transparent" points="325.5,-333.7 325.5,-352.7 399.5,-352.7 399.5,-333.7 325.5,-333.7"/>
<polygon fill="none" stroke="#000000" points="325.5,-333.7 325.5,-352.7 399.5,-352.7 399.5,-333.7 325.5,-333.7"/>
<text text-anchor="start" x="351.8807" y="-339.8" font-family="Helvetica,sans-Serif" font-size="11.00" fill="#000000">301 rows</text>
<polygon fill="#ffffff" stroke="transparent" points="399.5,-333.7 399.5,-352.7 445.5,-352.7 445.5,-333.7 399.5,-333.7"/>
<polygon fill="none" stroke="#000000" points="399.5,-333.7 399.5,-352.7 445.5,-352.7 445.5,-333.7 399.5,-333.7"/>
<text text-anchor="start" x="426.9053" y="-339.8" font-family="Helvetica,sans-Serif" font-size="11.00" fill="#000000">2 &gt;</text>
</a>
</g>
</g>
<!-- crn_studies_boundingbox&#45;&gt;crn_studynote -->
<g id="edge7" class="edge">
<title>crn_studies_boundingbox:w&#45;&gt;crn_studynote:e</title>
<path fill="none" stroke="#000000" stroke-dasharray="5,2" d="M246.3064,-385.0117C185.2887,-415.8421 282.9308,-744.7 205.5,-744.7"/>
<polygon fill="#000000" stroke="#000000" points="254.8351,-378.976 256.6045,-386.7779 255.0441,-387.1318 253.2748,-379.3299 254.8351,-378.976"/>
<polyline fill="none" stroke="#000000" points="256.5,-382.7 252.599,-383.5847 "/>
<ellipse fill="none" stroke="#000000" cx="249.4783" cy="-384.2924" rx="3.2" ry="3.2"/>
</g>
<!-- crn_xxl_basins -->
<g id="node9" class="node">
<title>crn_xxl_basins</title>
<g id="a_node9"><a xlink:href="../../tables/crn_xxl_basins.html" xlink:title="crn_xxl_basins" target="_top">
<polygon fill="#ffffff" stroke="transparent" points="288,-164.2 288,-313.2 413,-313.2 413,-164.2 288,-164.2"/>
<polygon fill="#f5f5f5" stroke="transparent" points="288.5,-289.7 288.5,-312.7 413.5,-312.7 413.5,-289.7 288.5,-289.7"/>
<polygon fill="none" stroke="#000000" points="288.5,-289.7 288.5,-312.7 413.5,-312.7 413.5,-289.7 288.5,-289.7"/>
<text text-anchor="start" x="293.5" y="-298.3" font-family="Helvetica,sans-Serif" font-weight="bold" font-size="11.00" fill="#000000">crn_xxl_basins</text>
<text text-anchor="start" x="379.0219" y="-297.8" font-family="Helvetica,sans-Serif" font-size="11.00" fill="#000000">[table]</text>
<polygon fill="none" stroke="#000000" points="288.5,-267.7 288.5,-289.7 413.5,-289.7 413.5,-267.7 288.5,-267.7"/>
<image xlink:href="../../images/foreignKeys.png" width="11px" height="12px" preserveAspectRatio="xMinYMin meet" x="293.5" y="-284.7"/>
<text text-anchor="start" x="317.5" y="-274.8" font-family="Helvetica,sans-Serif" font-size="11.00" fill="#000000">STUDYID</text>
<polygon fill="none" stroke="#000000" points="288.5,-245.7 288.5,-267.7 413.5,-267.7 413.5,-245.7 288.5,-245.7"/>
<image xlink:href="../../images/foreignKeys.png" width="11px" height="12px" preserveAspectRatio="xMinYMin meet" x="293.5" y="-262.7"/>
<text text-anchor="start" x="317.5" y="-252.8" font-family="Helvetica,sans-Serif" font-size="11.00" fill="#000000">OAID</text>
<polygon fill="none" stroke="#000000" points="288.5,-223.7 288.5,-245.7 413.5,-245.7 413.5,-223.7 288.5,-223.7"/>
<image xlink:href="../../images/foreignKeys.png" width="11px" height="12px" preserveAspectRatio="xMinYMin meet" x="293.5" y="-240.7"/>
<text text-anchor="start" x="317.5" y="-230.8" font-family="Helvetica,sans-Serif" font-size="11.00" fill="#000000">PROJEPSGID</text>
<polygon fill="none" stroke="#000000" points="288.5,-201.7 288.5,-223.7 413.5,-223.7 413.5,-201.7 288.5,-201.7"/>
<image xlink:href="../../images/primaryKeys.png" width="11px" height="12px" preserveAspectRatio="xMinYMin meet" x="293.5" y="-218.7"/>
<text text-anchor="start" x="317.5" y="-208.8" font-family="Helvetica,sans-Serif" font-size="11.00" fill="#000000">id</text>
<polygon fill="none" stroke="#000000" points="288.5,-182.7 288.5,-201.7 413.5,-201.7 413.5,-182.7 288.5,-182.7"/>
<text text-anchor="start" x="291.5" y="-188.8" font-family="Helvetica,sans-Serif" font-size="11.00" fill="#000000">...</text>
<polygon fill="#ffffff" stroke="transparent" points="288.5,-163.7 288.5,-182.7 330.5,-182.7 330.5,-163.7 288.5,-163.7"/>
<polygon fill="none" stroke="#000000" points="288.5,-163.7 288.5,-182.7 330.5,-182.7 330.5,-163.7 288.5,-163.7"/>
<text text-anchor="start" x="291.5" y="-169.8" font-family="Helvetica,sans-Serif" font-size="11.00" fill="#000000">&lt; 3</text>
<polygon fill="#ffffff" stroke="transparent" points="330.5,-163.7 330.5,-182.7 390.5,-182.7 390.5,-163.7 330.5,-163.7"/>
<polygon fill="none" stroke="#000000" points="330.5,-163.7 330.5,-182.7 390.5,-182.7 390.5,-163.7 330.5,-163.7"/>
<text text-anchor="start" x="342.8807" y="-169.8" font-family="Helvetica,sans-Serif" font-size="11.00" fill="#000000">261 rows</text>
<polygon fill="#ffffff" stroke="transparent" points="390.5,-163.7 390.5,-182.7 413.5,-182.7 413.5,-163.7 390.5,-163.7"/>
<polygon fill="none" stroke="#000000" points="390.5,-163.7 390.5,-182.7 413.5,-182.7 413.5,-163.7 390.5,-163.7"/>
<text text-anchor="start" x="404.3862" y="-169.8" font-family="Helvetica,sans-Serif" font-size="11.00" fill="#000000"> &#160;</text>
</a>
</g>
</g>
<!-- crn_xxl_basins&#45;&gt;crn_studynote -->
<g id="edge8" class="edge">
<title>crn_xxl_basins:w&#45;&gt;crn_studynote:e</title>
<path fill="none" stroke="#000000" stroke-dasharray="5,2" d="M273.9778,-281.4584C260.0188,-287.8244 256.5085,-304.4776 248,-323.7 228.9702,-366.6922 252.5155,-744.7 205.5,-744.7"/>
<polygon fill="#000000" stroke="#000000" points="280.6405,-280.1929 289.1718,-282.2368 284.5703,-279.4465 288.5,-278.7 288.5,-278.7 288.5,-278.7 284.5703,-279.4465 287.8282,-275.1632 280.6405,-280.1929 280.6405,-280.1929"/>
<ellipse fill="none" stroke="#000000" cx="277.4967" cy="-280.7901" rx="3.2" ry="3.2"/>
</g>
<!-- crn_xxl_outlets -->
<g id="node10" class="node">
<title>crn_xxl_outlets</title>
<g id="a_node10"><a xlink:href="../../tables/crn_xxl_outlets.html" xlink:title="crn_xxl_outlets" target="_top">
<polygon fill="#ffffff" stroke="transparent" points="287,-38.2 287,-143.2 414,-143.2 414,-38.2 287,-38.2"/>
<polygon fill="#f5f5f5" stroke="transparent" points="287.5,-119.7 287.5,-142.7 414.5,-142.7 414.5,-119.7 287.5,-119.7"/>
<polygon fill="none" stroke="#000000" points="287.5,-119.7 287.5,-142.7 414.5,-142.7 414.5,-119.7 287.5,-119.7"/>
<text text-anchor="start" x="292.5" y="-128.3" font-family="Helvetica,sans-Serif" font-weight="bold" font-size="11.00" fill="#000000">crn_xxl_outlets</text>
<text text-anchor="start" x="380.0219" y="-127.8" font-family="Helvetica,sans-Serif" font-size="11.00" fill="#000000">[table]</text>
<polygon fill="none" stroke="#000000" points="287.5,-97.7 287.5,-119.7 414.5,-119.7 414.5,-97.7 287.5,-97.7"/>
<image xlink:href="../../images/foreignKeys.png" width="11px" height="12px" preserveAspectRatio="xMinYMin meet" x="292.5" y="-114.7"/>
<text text-anchor="start" x="316.5" y="-104.8" font-family="Helvetica,sans-Serif" font-size="11.00" fill="#000000">STUDYID</text>
<polygon fill="none" stroke="#000000" points="287.5,-75.7 287.5,-97.7 414.5,-97.7 414.5,-75.7 287.5,-75.7"/>
<image xlink:href="../../images/primaryKeys.png" width="11px" height="12px" preserveAspectRatio="xMinYMin meet" x="292.5" y="-92.7"/>
<text text-anchor="start" x="316.5" y="-82.8" font-family="Helvetica,sans-Serif" font-size="11.00" fill="#000000">id</text>
<polygon fill="none" stroke="#000000" points="287.5,-56.7 287.5,-75.7 414.5,-75.7 414.5,-56.7 287.5,-56.7"/>
<text text-anchor="start" x="290.5" y="-62.8" font-family="Helvetica,sans-Serif" font-size="11.00" fill="#000000">...</text>
<polygon fill="#ffffff" stroke="transparent" points="287.5,-37.7 287.5,-56.7 330.5,-56.7 330.5,-37.7 287.5,-37.7"/>
<polygon fill="none" stroke="#000000" points="287.5,-37.7 287.5,-56.7 330.5,-56.7 330.5,-37.7 287.5,-37.7"/>
<text text-anchor="start" x="290.5" y="-43.8" font-family="Helvetica,sans-Serif" font-size="11.00" fill="#000000">&lt; 1</text>
<polygon fill="#ffffff" stroke="transparent" points="330.5,-37.7 330.5,-56.7 391.5,-56.7 391.5,-37.7 330.5,-37.7"/>
<polygon fill="none" stroke="#000000" points="330.5,-37.7 330.5,-56.7 391.5,-56.7 391.5,-37.7 330.5,-37.7"/>
<text text-anchor="start" x="343.8807" y="-43.8" font-family="Helvetica,sans-Serif" font-size="11.00" fill="#000000">261 rows</text>
<polygon fill="#ffffff" stroke="transparent" points="391.5,-37.7 391.5,-56.7 414.5,-56.7 414.5,-37.7 391.5,-37.7"/>
<polygon fill="none" stroke="#000000" points="391.5,-37.7 391.5,-56.7 414.5,-56.7 414.5,-37.7 391.5,-37.7"/>
<text text-anchor="start" x="405.3862" y="-43.8" font-family="Helvetica,sans-Serif" font-size="11.00" fill="#000000"> &#160;</text>
</a>
</g>
</g>
<!-- crn_xxl_outlets&#45;&gt;crn_studynote -->
<g id="edge9" class="edge">
<title>crn_xxl_outlets:w&#45;&gt;crn_studynote:e</title>
<path fill="none" stroke="#000000" stroke-dasharray="5,2" d="M273.1488,-111.4644C259.3756,-117.8425 256.0214,-134.5191 248,-153.7 222.5992,-214.4389 271.3362,-744.7 205.5,-744.7"/>
<polygon fill="#000000" stroke="#000000" points="279.6444,-110.2132 288.1809,-112.235 283.5722,-109.4566 287.5,-108.7 287.5,-108.7 287.5,-108.7 283.5722,-109.4566 286.8191,-105.165 279.6444,-110.2132 279.6444,-110.2132"/>
<ellipse fill="none" stroke="#000000" cx="276.5022" cy="-110.8185" rx="3.2" ry="3.2"/>
</g>
</g>
</svg>
