<?xml version="1.0" encoding="UTF-8" standalone="no"?>
<!DOCTYPE svg PUBLIC "-//W3C//DTD SVG 1.1//EN"
 "http://www.w3.org/Graphics/SVG/1.1/DTD/svg11.dtd">
<!-- Generated by graphviz version 2.40.1 (20161225.0304)
 -->
<!-- Title: oneDegreeRelationshipsDiagram Pages: 1 -->
<svg width="406pt" height="523pt"
 viewBox="0.00 0.00 406.00 523.20" xmlns="http://www.w3.org/2000/svg" xmlns:xlink="http://www.w3.org/1999/xlink">
<g id="graph0" class="graph" transform="scale(1 1) rotate(0) translate(4 519.2)">
<title>oneDegreeRelationshipsDiagram</title>
<polygon fill="#ffffff" stroke="transparent" points="-4,4 -4,-519.2 402,-519.2 402,4 -4,4"/>
<text text-anchor="middle" x="72.4936" y="-7.3" font-family="Helvetica,sans-Serif" font-size="11.00" fill="#000000">Generated by SchemaSpy</text>
<!-- crn_be_DataCore -->
<g id="node1" class="node">
<title>crn_be_DataCore</title>
<g id="a_node1"><a xlink:href="../../tables/crn_be_DataCore.html" xlink:title="crn_be_DataCore" target="_top">
<polygon fill="#ffffff" stroke="transparent" points="259.5,-318.2 259.5,-511.2 388.5,-511.2 388.5,-318.2 259.5,-318.2"/>
<polygon fill="#f5f5f5" stroke="transparent" points="260,-487.7 260,-510.7 389,-510.7 389,-487.7 260,-487.7"/>
<polygon fill="none" stroke="#000000" points="260,-487.7 260,-510.7 389,-510.7 389,-487.7 260,-487.7"/>
<text text-anchor="start" x="264.6017" y="-496.8" font-family="Helvetica,sans-Serif" font-weight="bold" font-size="11.00" fill="#000000">crn_be_DataCore</text>
<text text-anchor="start" x="354.5219" y="-495.8" font-family="Helvetica,sans-Serif" font-size="11.00" fill="#000000">[table]</text>
<polygon fill="none" stroke="#000000" points="260,-465.7 260,-487.7 389,-487.7 389,-465.7 260,-465.7"/>
<image xlink:href="../../images/primaryKeys.png" width="11px" height="12px" preserveAspectRatio="xMinYMin meet" x="265" y="-482.7"/>
<text text-anchor="start" x="285" y="-472.8" font-family="Helvetica,sans-Serif" font-size="11.00" fill="#000000">OBSID1</text>
<polygon fill="none" stroke="#000000" points="260,-443.7 260,-465.7 389,-465.7 389,-443.7 260,-443.7"/>
<image xlink:href="../../images/foreignKeys.png" width="11px" height="12px" preserveAspectRatio="xMinYMin meet" x="265" y="-460.7"/>
<text text-anchor="start" x="285" y="-450.8" font-family="Helvetica,sans-Serif" font-size="11.00" fill="#000000">SMPID</text>
<polygon fill="none" stroke="#000000" points="260,-421.7 260,-443.7 389,-443.7 389,-421.7 260,-421.7"/>
<image xlink:href="../../images/foreignKeys.png" width="11px" height="12px" preserveAspectRatio="xMinYMin meet" x="265" y="-438.7"/>
<text text-anchor="start" x="285" y="-428.8" font-family="Helvetica,sans-Serif" font-size="11.00" fill="#000000">DBDOI</text>
<polygon fill="none" stroke="#000000" points="260,-399.7 260,-421.7 389,-421.7 389,-399.7 260,-399.7"/>
<image xlink:href="../../images/foreignKeys.png" width="11px" height="12px" preserveAspectRatio="xMinYMin meet" x="265" y="-416.7"/>
<text text-anchor="start" x="285" y="-406.8" font-family="Helvetica,sans-Serif" font-size="11.00" fill="#000000">REFDBID1</text>
<polygon fill="none" stroke="#000000" points="260,-377.7 260,-399.7 389,-399.7 389,-377.7 260,-377.7"/>
<image xlink:href="../../images/foreignKeys.png" width="11px" height="12px" preserveAspectRatio="xMinYMin meet" x="265" y="-394.7"/>
<text text-anchor="start" x="285" y="-384.8" font-family="Helvetica,sans-Serif" font-size="11.00" fill="#000000">BESTNDID</text>
<polygon fill="none" stroke="#000000" points="260,-355.7 260,-377.7 389,-377.7 389,-355.7 260,-355.7"/>
<image xlink:href="../../images/foreignKeys.png" width="11px" height="12px" preserveAspectRatio="xMinYMin meet" x="265" y="-372.7"/>
<text text-anchor="start" x="285" y="-362.8" font-family="Helvetica,sans-Serif" font-size="11.00" fill="#000000">BEAMSID</text>
<polygon fill="none" stroke="#000000" points="260,-336.7 260,-355.7 389,-355.7 389,-336.7 260,-336.7"/>
<text text-anchor="start" x="263" y="-342.8" font-family="Helvetica,sans-Serif" font-size="11.00" fill="#000000">...</text>
<polygon fill="#ffffff" stroke="transparent" points="260,-317.7 260,-336.7 295,-336.7 295,-317.7 260,-317.7"/>
<polygon fill="none" stroke="#000000" points="260,-317.7 260,-336.7 295,-336.7 295,-317.7 260,-317.7"/>
<text text-anchor="start" x="263" y="-323.8" font-family="Helvetica,sans-Serif" font-size="11.00" fill="#000000">&lt; 5</text>
<polygon fill="#ffffff" stroke="transparent" points="295,-317.7 295,-336.7 361,-336.7 361,-317.7 295,-317.7"/>
<polygon fill="none" stroke="#000000" points="295,-317.7 295,-336.7 361,-336.7 361,-317.7 295,-317.7"/>
<text text-anchor="start" x="304.2089" y="-323.8" font-family="Helvetica,sans-Serif" font-size="11.00" fill="#000000">4,631 rows</text>
<polygon fill="#ffffff" stroke="transparent" points="361,-317.7 361,-336.7 389,-336.7 389,-317.7 361,-317.7"/>
<polygon fill="none" stroke="#000000" points="361,-317.7 361,-336.7 389,-336.7 389,-317.7 361,-317.7"/>
<text text-anchor="start" x="370.4053" y="-323.8" font-family="Helvetica,sans-Serif" font-size="11.00" fill="#000000">2 &gt;</text>
</a>
</g>
</g>
<!-- crn_bestndID -->
<g id="node2" class="node">
<title>crn_bestndID</title>
<g id="a_node2"><a xlink:href="../../tables/crn_bestndID.html" xlink:title="crn_bestndID" target="_top">
<polygon fill="#ffffff" stroke="transparent" points="8,-62.7 8,-284.7 209,-284.7 209,-62.7 8,-62.7"/>
<polygon fill="#f5f5f5" stroke="transparent" points="10.5,-259.7 10.5,-282.7 207.5,-282.7 207.5,-259.7 10.5,-259.7"/>
<polygon fill="none" stroke="#000000" points="10.5,-259.7 10.5,-282.7 207.5,-282.7 207.5,-259.7 10.5,-259.7"/>
<text text-anchor="start" x="15.5" y="-268.8" font-family="Helvetica,sans-Serif" font-weight="bold" font-size="11.00" fill="#000000">crn_bestndID</text>
<text text-anchor="start" x="172.5437" y="-267.8" font-family="Helvetica,sans-Serif" font-size="11.00" fill="#000000">[table]</text>
<polygon fill="none" stroke="#000000" points="10.5,-237.7 10.5,-259.7 115.5,-259.7 115.5,-237.7 10.5,-237.7"/>
<image xlink:href="../../images/primaryKeys.png" width="11px" height="12px" preserveAspectRatio="xMinYMin meet" x="15.5" y="-254.7"/>
<text text-anchor="start" x="30.5" y="-244.8" font-family="Helvetica,sans-Serif" font-size="11.00" fill="#000000">BESTNDID</text>
<polygon fill="none" stroke="#000000" points="115.5,-237.7 115.5,-259.7 207.5,-259.7 207.5,-237.7 115.5,-237.7"/>
<text text-anchor="start" x="118.5" y="-245.4" font-family="Helvetica,sans-Serif" font-size="11.00" fill="#000000">smallserial[5]</text>
<polygon fill="none" stroke="#000000" points="10.5,-215.7 10.5,-237.7 115.5,-237.7 115.5,-215.7 10.5,-215.7"/>
<text text-anchor="start" x="30.5" y="-222.8" font-family="Helvetica,sans-Serif" font-size="11.00" fill="#000000">BESTND</text>
<polygon fill="none" stroke="#000000" points="115.5,-215.7 115.5,-237.7 207.5,-237.7 207.5,-215.7 115.5,-215.7"/>
<text text-anchor="start" x="118.5" y="-223.4" font-family="Helvetica,sans-Serif" font-size="11.00" fill="#000000">text[2147483647]</text>
<polygon fill="none" stroke="#000000" points="10.5,-193.7 10.5,-215.7 115.5,-215.7 115.5,-193.7 10.5,-193.7"/>
<text text-anchor="start" x="30.5" y="-200.8" font-family="Helvetica,sans-Serif" font-size="11.00" fill="#000000">BESTND_PUB</text>
<polygon fill="none" stroke="#000000" points="115.5,-193.7 115.5,-215.7 207.5,-215.7 207.5,-193.7 115.5,-193.7"/>
<text text-anchor="start" x="118.5" y="-201.4" font-family="Helvetica,sans-Serif" font-size="11.00" fill="#000000">text[2147483647]</text>
<polygon fill="none" stroke="#000000" points="10.5,-171.7 10.5,-193.7 115.5,-193.7 115.5,-171.7 10.5,-171.7"/>
<text text-anchor="start" x="30.5" y="-178.8" font-family="Helvetica,sans-Serif" font-size="11.00" fill="#000000">BECORR</text>
<polygon fill="none" stroke="#000000" points="115.5,-171.7 115.5,-193.7 207.5,-193.7 207.5,-171.7 115.5,-171.7"/>
<text text-anchor="start" x="118.5" y="-179.4" font-family="Helvetica,sans-Serif" font-size="11.00" fill="#000000">numeric[5,4]</text>
<polygon fill="none" stroke="#000000" points="10.5,-149.7 10.5,-171.7 115.5,-171.7 115.5,-149.7 10.5,-149.7"/>
<text text-anchor="start" x="30.5" y="-156.8" font-family="Helvetica,sans-Serif" font-size="11.00" fill="#000000">BESTNDRTIO</text>
<polygon fill="none" stroke="#000000" points="115.5,-149.7 115.5,-171.7 207.5,-171.7 207.5,-149.7 115.5,-149.7"/>
<text text-anchor="start" x="118.5" y="-157.4" font-family="Helvetica,sans-Serif" font-size="11.00" fill="#000000">numeric[0]</text>
<polygon fill="none" stroke="#000000" points="10.5,-127.7 10.5,-149.7 115.5,-149.7 115.5,-127.7 10.5,-127.7"/>
<text text-anchor="start" x="30.5" y="-134.8" font-family="Helvetica,sans-Serif" font-size="11.00" fill="#000000">BESTNDCOMT</text>
<polygon fill="none" stroke="#000000" points="115.5,-127.7 115.5,-149.7 207.5,-149.7 207.5,-127.7 115.5,-127.7"/>
<text text-anchor="start" x="118.5" y="-135.4" font-family="Helvetica,sans-Serif" font-size="11.00" fill="#000000">text[2147483647]</text>
<polygon fill="none" stroke="#000000" points="10.5,-105.7 10.5,-127.7 115.5,-127.7 115.5,-105.7 10.5,-105.7"/>
<text text-anchor="start" x="30.5" y="-112.8" font-family="Helvetica,sans-Serif" font-size="11.00" fill="#000000">CREATED_AT</text>
<polygon fill="none" stroke="#000000" points="115.5,-105.7 115.5,-127.7 207.5,-127.7 207.5,-105.7 115.5,-105.7"/>
<text text-anchor="start" x="118.1023" y="-113.4" font-family="Helvetica,sans-Serif" font-size="11.00" fill="#000000">timestamptz[35,6]</text>
<polygon fill="none" stroke="#000000" points="10.5,-83.7 10.5,-105.7 115.5,-105.7 115.5,-83.7 10.5,-83.7"/>
<text text-anchor="start" x="30.5" y="-90.8" font-family="Helvetica,sans-Serif" font-size="11.00" fill="#000000">UPDATED_AT</text>
<polygon fill="none" stroke="#000000" points="115.5,-83.7 115.5,-105.7 207.5,-105.7 207.5,-83.7 115.5,-83.7"/>
<text text-anchor="start" x="118.1023" y="-91.4" font-family="Helvetica,sans-Serif" font-size="11.00" fill="#000000">timestamptz[35,6]</text>
<polygon fill="#ffffff" stroke="transparent" points="10.5,-64.7 10.5,-83.7 51.5,-83.7 51.5,-64.7 10.5,-64.7"/>
<polygon fill="none" stroke="#000000" points="10.5,-64.7 10.5,-83.7 51.5,-83.7 51.5,-64.7 10.5,-64.7"/>
<text text-anchor="start" x="13.5" y="-70.8" font-family="Helvetica,sans-Serif" font-size="11.00" fill="#000000">&lt; 0</text>
<polygon fill="#ffffff" stroke="transparent" points="51.5,-64.7 51.5,-83.7 115.5,-83.7 115.5,-64.7 51.5,-64.7"/>
<polygon fill="none" stroke="#000000" points="51.5,-64.7 51.5,-83.7 115.5,-83.7 115.5,-64.7 51.5,-64.7"/>
<text text-anchor="start" x="73.9956" y="-70.8" font-family="Helvetica,sans-Serif" font-size="11.00" fill="#000000">60 rows</text>
<polygon fill="#ffffff" stroke="transparent" points="115.5,-64.7 115.5,-83.7 207.5,-83.7 207.5,-64.7 115.5,-64.7"/>
<polygon fill="none" stroke="#000000" points="115.5,-64.7 115.5,-83.7 207.5,-83.7 207.5,-64.7 115.5,-64.7"/>
<text text-anchor="start" x="188.9053" y="-70.8" font-family="Helvetica,sans-Serif" font-size="11.00" fill="#000000">2 &gt;</text>
<polygon fill="none" stroke="#000000" stroke-width="2" points="9,-63.7 9,-283.7 208,-283.7 208,-63.7 9,-63.7"/>
</a>
</g>
</g>
<!-- crn_be_DataCore&#45;&gt;crn_bestndID -->
<g id="edge1" class="edge">
<title>crn_be_DataCore:w&#45;&gt;crn_bestndID:e</title>
<path fill="none" stroke="#000000" d="M245.6821,-385.6457C206.5462,-365.1721 268.1127,-248.7 207.5,-248.7"/>
<polygon fill="#000000" stroke="#000000" points="252.176,-387.0309 259.2489,-392.2208 256.088,-387.8655 260,-388.7 260,-388.7 260,-388.7 256.088,-387.8655 260.7511,-385.1792 252.176,-387.0309 252.176,-387.0309"/>
<ellipse fill="none" stroke="#000000" cx="249.0464" cy="-386.3633" rx="3.2" ry="3.2"/>
</g>
<!-- expage_DataCore -->
<g id="node3" class="node">
<title>expage_DataCore</title>
<g id="a_node3"><a xlink:href="../../tables/expage_DataCore.html" xlink:title="expage_DataCore" target="_top">
<polygon fill="#ffffff" stroke="transparent" points="258,-38.2 258,-297.2 390,-297.2 390,-38.2 258,-38.2"/>
<polygon fill="#f5f5f5" stroke="transparent" points="258,-273.7 258,-296.7 390,-296.7 390,-273.7 258,-273.7"/>
<polygon fill="none" stroke="#000000" points="258,-273.7 258,-296.7 390,-296.7 390,-273.7 258,-273.7"/>
<text text-anchor="start" x="262.8752" y="-282.8" font-family="Helvetica,sans-Serif" font-weight="bold" font-size="11.00" fill="#000000">expage_DataCore</text>
<text text-anchor="start" x="355.5219" y="-281.8" font-family="Helvetica,sans-Serif" font-size="11.00" fill="#000000">[table]</text>
<polygon fill="none" stroke="#000000" points="258,-251.7 258,-273.7 390,-273.7 390,-251.7 258,-251.7"/>
<image xlink:href="../../images/primaryKeys.png" width="11px" height="12px" preserveAspectRatio="xMinYMin meet" x="263" y="-268.7"/>
<text text-anchor="start" x="283" y="-258.8" font-family="Helvetica,sans-Serif" font-size="11.00" fill="#000000">OBSID1</text>
<polygon fill="none" stroke="#000000" points="258,-229.7 258,-251.7 390,-251.7 390,-229.7 258,-229.7"/>
<image xlink:href="../../images/foreignKeys.png" width="11px" height="12px" preserveAspectRatio="xMinYMin meet" x="263" y="-246.7"/>
<text text-anchor="start" x="283" y="-236.8" font-family="Helvetica,sans-Serif" font-size="11.00" fill="#000000">SMPID</text>
<polygon fill="none" stroke="#000000" points="258,-207.7 258,-229.7 390,-229.7 390,-207.7 258,-207.7"/>
<image xlink:href="../../images/foreignKeys.png" width="11px" height="12px" preserveAspectRatio="xMinYMin meet" x="263" y="-224.7"/>
<text text-anchor="start" x="283" y="-214.8" font-family="Helvetica,sans-Serif" font-size="11.00" fill="#000000">DBDOI</text>
<polygon fill="none" stroke="#000000" points="258,-185.7 258,-207.7 390,-207.7 390,-185.7 258,-185.7"/>
<image xlink:href="../../images/foreignKeys.png" width="11px" height="12px" preserveAspectRatio="xMinYMin meet" x="263" y="-202.7"/>
<text text-anchor="start" x="283" y="-192.8" font-family="Helvetica,sans-Serif" font-size="11.00" fill="#000000">REFDBID1</text>
<polygon fill="none" stroke="#000000" points="258,-163.7 258,-185.7 390,-185.7 390,-163.7 258,-163.7"/>
<image xlink:href="../../images/foreignKeys.png" width="11px" height="12px" preserveAspectRatio="xMinYMin meet" x="263" y="-180.7"/>
<text text-anchor="start" x="283" y="-170.8" font-family="Helvetica,sans-Serif" font-size="11.00" fill="#000000">REFDBID2</text>
<polygon fill="none" stroke="#000000" points="258,-141.7 258,-163.7 390,-163.7 390,-141.7 258,-141.7"/>
<image xlink:href="../../images/foreignKeys.png" width="11px" height="12px" preserveAspectRatio="xMinYMin meet" x="263" y="-158.7"/>
<text text-anchor="start" x="283" y="-148.8" font-family="Helvetica,sans-Serif" font-size="11.00" fill="#000000">REFDBID3</text>
<polygon fill="none" stroke="#000000" points="258,-119.7 258,-141.7 390,-141.7 390,-119.7 258,-119.7"/>
<image xlink:href="../../images/foreignKeys.png" width="11px" height="12px" preserveAspectRatio="xMinYMin meet" x="263" y="-136.7"/>
<text text-anchor="start" x="283" y="-126.8" font-family="Helvetica,sans-Serif" font-size="11.00" fill="#000000">REFDBID4</text>
<polygon fill="none" stroke="#000000" points="258,-97.7 258,-119.7 390,-119.7 390,-97.7 258,-97.7"/>
<image xlink:href="../../images/foreignKeys.png" width="11px" height="12px" preserveAspectRatio="xMinYMin meet" x="263" y="-114.7"/>
<text text-anchor="start" x="283" y="-104.8" font-family="Helvetica,sans-Serif" font-size="11.00" fill="#000000">BESTNDID</text>
<polygon fill="none" stroke="#000000" points="258,-75.7 258,-97.7 390,-97.7 390,-75.7 258,-75.7"/>
<image xlink:href="../../images/foreignKeys.png" width="11px" height="12px" preserveAspectRatio="xMinYMin meet" x="263" y="-92.7"/>
<text text-anchor="start" x="283" y="-82.8" font-family="Helvetica,sans-Serif" font-size="11.00" fill="#000000">ALSTNDID</text>
<polygon fill="none" stroke="#000000" points="258,-56.7 258,-75.7 390,-75.7 390,-56.7 258,-56.7"/>
<text text-anchor="start" x="261" y="-62.8" font-family="Helvetica,sans-Serif" font-size="11.00" fill="#000000">...</text>
<polygon fill="#ffffff" stroke="transparent" points="258,-37.7 258,-56.7 291,-56.7 291,-37.7 258,-37.7"/>
<polygon fill="none" stroke="#000000" points="258,-37.7 258,-56.7 291,-56.7 291,-37.7 258,-37.7"/>
<text text-anchor="start" x="261" y="-43.8" font-family="Helvetica,sans-Serif" font-size="11.00" fill="#000000">&lt; 8</text>
<polygon fill="#ffffff" stroke="transparent" points="291,-37.7 291,-56.7 362,-56.7 362,-37.7 291,-37.7"/>
<polygon fill="none" stroke="#000000" points="291,-37.7 291,-56.7 362,-56.7 362,-37.7 291,-37.7"/>
<text text-anchor="start" x="299.094" y="-43.8" font-family="Helvetica,sans-Serif" font-size="11.00" fill="#000000">16,009 rows</text>
<polygon fill="#ffffff" stroke="transparent" points="362,-37.7 362,-56.7 390,-56.7 390,-37.7 362,-37.7"/>
<polygon fill="none" stroke="#000000" points="362,-37.7 362,-56.7 390,-56.7 390,-37.7 362,-37.7"/>
<text text-anchor="start" x="371.4053" y="-43.8" font-family="Helvetica,sans-Serif" font-size="11.00" fill="#000000">1 &gt;</text>
</a>
</g>
</g>
<!-- expage_DataCore&#45;&gt;crn_bestndID -->
<g id="edge2" class="edge">
<title>expage_DataCore:w&#45;&gt;crn_bestndID:e</title>
<path fill="none" stroke="#000000" d="M243.5393,-111.8871C205.3565,-132.7262 267.7036,-248.7 207.5,-248.7"/>
<polygon fill="#000000" stroke="#000000" points="250.1875,-110.4219 258.7749,-112.2156 254.0938,-109.561 258,-108.7 258,-108.7 258,-108.7 254.0938,-109.561 257.2251,-105.1844 250.1875,-110.4219 250.1875,-110.4219"/>
<ellipse fill="none" stroke="#000000" cx="247.0625" cy="-111.1107" rx="3.2" ry="3.2"/>
</g>
</g>
</svg>
