<?xml version="1.0" encoding="UTF-8" standalone="no"?>
<!DOCTYPE svg PUBLIC "-//W3C//DTD SVG 1.1//EN"
 "http://www.w3.org/Graphics/SVG/1.1/DTD/svg11.dtd">
<!-- Generated by graphviz version 2.40.1 (20161225.0304)
 -->
<!-- Title: twoDegreesRelationshipsDiagram Pages: 1 -->
<svg width="653pt" height="780pt"
 viewBox="0.00 0.00 653.00 780.20" xmlns="http://www.w3.org/2000/svg" xmlns:xlink="http://www.w3.org/1999/xlink">
<g id="graph0" class="graph" transform="scale(1 1) rotate(0) translate(4 776.2)">
<title>twoDegreesRelationshipsDiagram</title>
<polygon fill="#ffffff" stroke="transparent" points="-4,4 -4,-776.2 649,-776.2 649,4 -4,4"/>
<text text-anchor="middle" x="72.4936" y="-7.3" font-family="Helvetica,sans-Serif" font-size="11.00" fill="#000000">Generated by SchemaSpy</text>
<!-- crn_be_DataCore -->
<g id="node1" class="node">
<title>crn_be_DataCore</title>
<g id="a_node1"><a xlink:href="../../tables/crn_be_DataCore.html" xlink:title="crn_be_DataCore" target="_top">
<polygon fill="#ffffff" stroke="transparent" points="259,-535.2 259,-728.2 397,-728.2 397,-535.2 259,-535.2"/>
<polygon fill="#f5f5f5" stroke="transparent" points="259,-704.7 259,-727.7 397,-727.7 397,-704.7 259,-704.7"/>
<polygon fill="none" stroke="#000000" points="259,-704.7 259,-727.7 397,-727.7 397,-704.7 259,-704.7"/>
<text text-anchor="start" x="264" y="-713.3" font-family="Helvetica,sans-Serif" font-weight="bold" font-size="11.00" fill="#000000">crn_be_DataCore</text>
<text text-anchor="start" x="362.5219" y="-712.8" font-family="Helvetica,sans-Serif" font-size="11.00" fill="#000000">[table]</text>
<polygon fill="none" stroke="#000000" points="259,-682.7 259,-704.7 397,-704.7 397,-682.7 259,-682.7"/>
<image xlink:href="../../images/primaryKeys.png" width="11px" height="12px" preserveAspectRatio="xMinYMin meet" x="264" y="-699.7"/>
<text text-anchor="start" x="288" y="-689.8" font-family="Helvetica,sans-Serif" font-size="11.00" fill="#000000">OBSID1</text>
<polygon fill="none" stroke="#000000" points="259,-660.7 259,-682.7 397,-682.7 397,-660.7 259,-660.7"/>
<image xlink:href="../../images/foreignKeys.png" width="11px" height="12px" preserveAspectRatio="xMinYMin meet" x="264" y="-677.7"/>
<text text-anchor="start" x="288" y="-667.8" font-family="Helvetica,sans-Serif" font-size="11.00" fill="#000000">SMPID</text>
<polygon fill="none" stroke="#000000" points="259,-638.7 259,-660.7 397,-660.7 397,-638.7 259,-638.7"/>
<image xlink:href="../../images/foreignKeys.png" width="11px" height="12px" preserveAspectRatio="xMinYMin meet" x="264" y="-655.7"/>
<text text-anchor="start" x="288" y="-645.8" font-family="Helvetica,sans-Serif" font-size="11.00" fill="#000000">DBDOI</text>
<polygon fill="none" stroke="#000000" points="259,-616.7 259,-638.7 397,-638.7 397,-616.7 259,-616.7"/>
<image xlink:href="../../images/foreignKeys.png" width="11px" height="12px" preserveAspectRatio="xMinYMin meet" x="264" y="-633.7"/>
<text text-anchor="start" x="288" y="-623.8" font-family="Helvetica,sans-Serif" font-size="11.00" fill="#000000">REFDBID1</text>
<polygon fill="none" stroke="#000000" points="259,-594.7 259,-616.7 397,-616.7 397,-594.7 259,-594.7"/>
<image xlink:href="../../images/foreignKeys.png" width="11px" height="12px" preserveAspectRatio="xMinYMin meet" x="264" y="-611.7"/>
<text text-anchor="start" x="288" y="-601.8" font-family="Helvetica,sans-Serif" font-size="11.00" fill="#000000">BESTNDID</text>
<polygon fill="none" stroke="#000000" points="259,-572.7 259,-594.7 397,-594.7 397,-572.7 259,-572.7"/>
<image xlink:href="../../images/foreignKeys.png" width="11px" height="12px" preserveAspectRatio="xMinYMin meet" x="264" y="-589.7"/>
<text text-anchor="start" x="288" y="-579.8" font-family="Helvetica,sans-Serif" font-size="11.00" fill="#000000">BEAMSID</text>
<polygon fill="none" stroke="#000000" points="259,-553.7 259,-572.7 397,-572.7 397,-553.7 259,-553.7"/>
<text text-anchor="start" x="262" y="-559.8" font-family="Helvetica,sans-Serif" font-size="11.00" fill="#000000">...</text>
<polygon fill="#ffffff" stroke="transparent" points="259,-534.7 259,-553.7 298,-553.7 298,-534.7 259,-534.7"/>
<polygon fill="none" stroke="#000000" points="259,-534.7 259,-553.7 298,-553.7 298,-534.7 259,-534.7"/>
<text text-anchor="start" x="262" y="-540.8" font-family="Helvetica,sans-Serif" font-size="11.00" fill="#000000">&lt; 5</text>
<polygon fill="#ffffff" stroke="transparent" points="298,-534.7 298,-553.7 366,-553.7 366,-534.7 298,-534.7"/>
<polygon fill="none" stroke="#000000" points="298,-534.7 298,-553.7 366,-553.7 366,-534.7 298,-534.7"/>
<text text-anchor="start" x="309.2089" y="-540.8" font-family="Helvetica,sans-Serif" font-size="11.00" fill="#000000">4.631 rows</text>
<polygon fill="#ffffff" stroke="transparent" points="366,-534.7 366,-553.7 397,-553.7 397,-534.7 366,-534.7"/>
<polygon fill="none" stroke="#000000" points="366,-534.7 366,-553.7 397,-553.7 397,-534.7 366,-534.7"/>
<text text-anchor="start" x="378.4053" y="-540.8" font-family="Helvetica,sans-Serif" font-size="11.00" fill="#000000">2 &gt;</text>
</a>
</g>
</g>
<!-- crn_amsID -->
<g id="node2" class="node">
<title>crn_amsID</title>
<g id="a_node2"><a xlink:href="../../tables/crn_amsID.html" xlink:title="crn_amsID" target="_top">
<polygon fill="#ffffff" stroke="transparent" points="58.5,-610.2 58.5,-671.2 158.5,-671.2 158.5,-610.2 58.5,-610.2"/>
<polygon fill="#f5f5f5" stroke="transparent" points="58.5,-647.7 58.5,-670.7 158.5,-670.7 158.5,-647.7 58.5,-647.7"/>
<polygon fill="none" stroke="#000000" points="58.5,-647.7 58.5,-670.7 158.5,-670.7 158.5,-647.7 58.5,-647.7"/>
<text text-anchor="start" x="63.5" y="-656.3" font-family="Helvetica,sans-Serif" font-weight="bold" font-size="11.00" fill="#000000">crn_amsID</text>
<text text-anchor="start" x="124.0219" y="-655.8" font-family="Helvetica,sans-Serif" font-size="11.00" fill="#000000">[table]</text>
<polygon fill="none" stroke="#000000" points="58.5,-628.7 58.5,-647.7 158.5,-647.7 158.5,-628.7 58.5,-628.7"/>
<text text-anchor="start" x="61.5" y="-634.8" font-family="Helvetica,sans-Serif" font-size="11.00" fill="#000000">...</text>
<polygon fill="#ffffff" stroke="transparent" points="58.5,-609.7 58.5,-628.7 81.5,-628.7 81.5,-609.7 58.5,-609.7"/>
<polygon fill="none" stroke="#000000" points="58.5,-609.7 58.5,-628.7 81.5,-628.7 81.5,-609.7 58.5,-609.7"/>
<text text-anchor="start" x="61.5" y="-615.8" font-family="Helvetica,sans-Serif" font-size="11.00" fill="#000000"> &#160;</text>
<polygon fill="#ffffff" stroke="transparent" points="81.5,-609.7 81.5,-628.7 131.5,-628.7 131.5,-609.7 81.5,-609.7"/>
<polygon fill="none" stroke="#000000" points="81.5,-609.7 81.5,-628.7 131.5,-628.7 131.5,-609.7 81.5,-609.7"/>
<text text-anchor="start" x="89.9956" y="-615.8" font-family="Helvetica,sans-Serif" font-size="11.00" fill="#000000">37 rows</text>
<polygon fill="#ffffff" stroke="transparent" points="131.5,-609.7 131.5,-628.7 158.5,-628.7 158.5,-609.7 131.5,-609.7"/>
<polygon fill="none" stroke="#000000" points="131.5,-609.7 131.5,-628.7 158.5,-628.7 158.5,-609.7 131.5,-609.7"/>
<text text-anchor="start" x="139.9053" y="-615.8" font-family="Helvetica,sans-Serif" font-size="11.00" fill="#000000">2 &gt;</text>
</a>
</g>
</g>
<!-- crn_be_DataCore&#45;&gt;crn_amsID -->
<g id="edge1" class="edge">
<title>crn_be_DataCore:w&#45;&gt;crn_amsID:e</title>
<path fill="none" stroke="#000000" d="M244.5577,-585.3753C207.9121,-594.4899 203.8582,-637.7 158.5,-637.7"/>
<polygon fill="#000000" stroke="#000000" points="251.0533,-584.6219 259.4148,-587.276 255.0266,-584.1609 259,-583.7 259,-583.7 259,-583.7 255.0266,-584.1609 258.5852,-580.124 251.0533,-584.6219 251.0533,-584.6219"/>
<ellipse fill="none" stroke="#000000" cx="247.8746" cy="-584.9906" rx="3.2" ry="3.2"/>
</g>
<!-- crn_bestndID -->
<g id="node3" class="node">
<title>crn_bestndID</title>
<g id="a_node3"><a xlink:href="../../tables/crn_bestndID.html" xlink:title="crn_bestndID" target="_top">
<polygon fill="#ffffff" stroke="transparent" points="8,-120.7 8,-342.7 209,-342.7 209,-120.7 8,-120.7"/>
<polygon fill="#f5f5f5" stroke="transparent" points="10.5,-317.7 10.5,-340.7 207.5,-340.7 207.5,-317.7 10.5,-317.7"/>
<polygon fill="none" stroke="#000000" points="10.5,-317.7 10.5,-340.7 207.5,-340.7 207.5,-317.7 10.5,-317.7"/>
<text text-anchor="start" x="15.5" y="-326.3" font-family="Helvetica,sans-Serif" font-weight="bold" font-size="11.00" fill="#000000">crn_bestndID</text>
<text text-anchor="start" x="172.5437" y="-325.8" font-family="Helvetica,sans-Serif" font-size="11.00" fill="#000000">[table]</text>
<polygon fill="none" stroke="#000000" points="10.5,-295.7 10.5,-317.7 115.5,-317.7 115.5,-295.7 10.5,-295.7"/>
<image xlink:href="../../images/primaryKeys.png" width="11px" height="12px" preserveAspectRatio="xMinYMin meet" x="15.5" y="-312.7"/>
<text text-anchor="start" x="30.5" y="-302.8" font-family="Helvetica,sans-Serif" font-size="11.00" fill="#000000">BESTNDID</text>
<polygon fill="none" stroke="#000000" points="115.5,-295.7 115.5,-317.7 207.5,-317.7 207.5,-295.7 115.5,-295.7"/>
<text text-anchor="start" x="118.5" y="-303.4" font-family="Helvetica,sans-Serif" font-size="11.00" fill="#000000">smallserial[5]</text>
<polygon fill="none" stroke="#000000" points="10.5,-273.7 10.5,-295.7 115.5,-295.7 115.5,-273.7 10.5,-273.7"/>
<text text-anchor="start" x="30.5" y="-280.8" font-family="Helvetica,sans-Serif" font-size="11.00" fill="#000000">BESTND</text>
<polygon fill="none" stroke="#000000" points="115.5,-273.7 115.5,-295.7 207.5,-295.7 207.5,-273.7 115.5,-273.7"/>
<text text-anchor="start" x="118.5" y="-281.4" font-family="Helvetica,sans-Serif" font-size="11.00" fill="#000000">text[2147483647]</text>
<polygon fill="none" stroke="#000000" points="10.5,-251.7 10.5,-273.7 115.5,-273.7 115.5,-251.7 10.5,-251.7"/>
<text text-anchor="start" x="30.5" y="-258.8" font-family="Helvetica,sans-Serif" font-size="11.00" fill="#000000">BESTND_PUB</text>
<polygon fill="none" stroke="#000000" points="115.5,-251.7 115.5,-273.7 207.5,-273.7 207.5,-251.7 115.5,-251.7"/>
<text text-anchor="start" x="118.5" y="-259.4" font-family="Helvetica,sans-Serif" font-size="11.00" fill="#000000">text[2147483647]</text>
<polygon fill="none" stroke="#000000" points="10.5,-229.7 10.5,-251.7 115.5,-251.7 115.5,-229.7 10.5,-229.7"/>
<text text-anchor="start" x="30.5" y="-236.8" font-family="Helvetica,sans-Serif" font-size="11.00" fill="#000000">BECORR</text>
<polygon fill="none" stroke="#000000" points="115.5,-229.7 115.5,-251.7 207.5,-251.7 207.5,-229.7 115.5,-229.7"/>
<text text-anchor="start" x="118.5" y="-237.4" font-family="Helvetica,sans-Serif" font-size="11.00" fill="#000000">numeric[5,4]</text>
<polygon fill="none" stroke="#000000" points="10.5,-207.7 10.5,-229.7 115.5,-229.7 115.5,-207.7 10.5,-207.7"/>
<text text-anchor="start" x="30.5" y="-214.8" font-family="Helvetica,sans-Serif" font-size="11.00" fill="#000000">BESTNDRTIO</text>
<polygon fill="none" stroke="#000000" points="115.5,-207.7 115.5,-229.7 207.5,-229.7 207.5,-207.7 115.5,-207.7"/>
<text text-anchor="start" x="118.5" y="-215.4" font-family="Helvetica,sans-Serif" font-size="11.00" fill="#000000">numeric[0]</text>
<polygon fill="none" stroke="#000000" points="10.5,-185.7 10.5,-207.7 115.5,-207.7 115.5,-185.7 10.5,-185.7"/>
<text text-anchor="start" x="30.5" y="-192.8" font-family="Helvetica,sans-Serif" font-size="11.00" fill="#000000">BESTNDCOMT</text>
<polygon fill="none" stroke="#000000" points="115.5,-185.7 115.5,-207.7 207.5,-207.7 207.5,-185.7 115.5,-185.7"/>
<text text-anchor="start" x="118.5" y="-193.4" font-family="Helvetica,sans-Serif" font-size="11.00" fill="#000000">text[2147483647]</text>
<polygon fill="none" stroke="#000000" points="10.5,-163.7 10.5,-185.7 115.5,-185.7 115.5,-163.7 10.5,-163.7"/>
<text text-anchor="start" x="30.5" y="-170.8" font-family="Helvetica,sans-Serif" font-size="11.00" fill="#000000">CREATED_AT</text>
<polygon fill="none" stroke="#000000" points="115.5,-163.7 115.5,-185.7 207.5,-185.7 207.5,-163.7 115.5,-163.7"/>
<text text-anchor="start" x="118.1023" y="-171.4" font-family="Helvetica,sans-Serif" font-size="11.00" fill="#000000">timestamptz[35,6]</text>
<polygon fill="none" stroke="#000000" points="10.5,-141.7 10.5,-163.7 115.5,-163.7 115.5,-141.7 10.5,-141.7"/>
<text text-anchor="start" x="30.5" y="-148.8" font-family="Helvetica,sans-Serif" font-size="11.00" fill="#000000">UPDATED_AT</text>
<polygon fill="none" stroke="#000000" points="115.5,-141.7 115.5,-163.7 207.5,-163.7 207.5,-141.7 115.5,-141.7"/>
<text text-anchor="start" x="118.1023" y="-149.4" font-family="Helvetica,sans-Serif" font-size="11.00" fill="#000000">timestamptz[35,6]</text>
<polygon fill="#ffffff" stroke="transparent" points="10.5,-122.7 10.5,-141.7 51.5,-141.7 51.5,-122.7 10.5,-122.7"/>
<polygon fill="none" stroke="#000000" points="10.5,-122.7 10.5,-141.7 51.5,-141.7 51.5,-122.7 10.5,-122.7"/>
<text text-anchor="start" x="13.5" y="-128.8" font-family="Helvetica,sans-Serif" font-size="11.00" fill="#000000">&lt; 0</text>
<polygon fill="#ffffff" stroke="transparent" points="51.5,-122.7 51.5,-141.7 115.5,-141.7 115.5,-122.7 51.5,-122.7"/>
<polygon fill="none" stroke="#000000" points="51.5,-122.7 51.5,-141.7 115.5,-141.7 115.5,-122.7 51.5,-122.7"/>
<text text-anchor="start" x="73.9956" y="-128.8" font-family="Helvetica,sans-Serif" font-size="11.00" fill="#000000">60 rows</text>
<polygon fill="#ffffff" stroke="transparent" points="115.5,-122.7 115.5,-141.7 207.5,-141.7 207.5,-122.7 115.5,-122.7"/>
<polygon fill="none" stroke="#000000" points="115.5,-122.7 115.5,-141.7 207.5,-141.7 207.5,-122.7 115.5,-122.7"/>
<text text-anchor="start" x="188.9053" y="-128.8" font-family="Helvetica,sans-Serif" font-size="11.00" fill="#000000">2 &gt;</text>
<polygon fill="none" stroke="#000000" stroke-width="2" points="9,-121.7 9,-341.7 208,-341.7 208,-121.7 9,-121.7"/>
</a>
</g>
</g>
<!-- crn_be_DataCore&#45;&gt;crn_bestndID -->
<g id="edge2" class="edge">
<title>crn_be_DataCore:w&#45;&gt;crn_bestndID:e</title>
<path fill="none" stroke="#000000" d="M245.5483,-600.2551C203.9587,-559.7306 269.5237,-306.7 207.5,-306.7"/>
<polygon fill="#000000" stroke="#000000" points="251.5845,-602.6983 257.6492,-609.037 255.2922,-604.1992 259,-605.7 259,-605.7 259,-605.7 255.2922,-604.1992 260.3508,-602.363 251.5845,-602.6983 251.5845,-602.6983"/>
<ellipse fill="none" stroke="#000000" cx="248.6182" cy="-601.4977" rx="3.2" ry="3.2"/>
</g>
<!-- global_dbDOI -->
<g id="node4" class="node">
<title>global_dbDOI</title>
<g id="a_node4"><a xlink:href="../../tables/global_dbDOI.html" xlink:title="global_dbDOI" target="_top">
<polygon fill="#ffffff" stroke="transparent" points="50,-528.2 50,-589.2 167,-589.2 167,-528.2 50,-528.2"/>
<polygon fill="#f5f5f5" stroke="transparent" points="50.5,-565.7 50.5,-588.7 167.5,-588.7 167.5,-565.7 50.5,-565.7"/>
<polygon fill="none" stroke="#000000" points="50.5,-565.7 50.5,-588.7 167.5,-588.7 167.5,-565.7 50.5,-565.7"/>
<text text-anchor="start" x="55.5" y="-574.3" font-family="Helvetica,sans-Serif" font-weight="bold" font-size="11.00" fill="#000000">global_dbDOI</text>
<text text-anchor="start" x="133.0219" y="-573.8" font-family="Helvetica,sans-Serif" font-size="11.00" fill="#000000">[table]</text>
<polygon fill="none" stroke="#000000" points="50.5,-546.7 50.5,-565.7 167.5,-565.7 167.5,-546.7 50.5,-546.7"/>
<text text-anchor="start" x="53.5" y="-552.8" font-family="Helvetica,sans-Serif" font-size="11.00" fill="#000000">...</text>
<polygon fill="#ffffff" stroke="transparent" points="50.5,-527.7 50.5,-546.7 79.5,-546.7 79.5,-527.7 50.5,-527.7"/>
<polygon fill="none" stroke="#000000" points="50.5,-527.7 50.5,-546.7 79.5,-546.7 79.5,-527.7 50.5,-527.7"/>
<text text-anchor="start" x="53.5" y="-533.8" font-family="Helvetica,sans-Serif" font-size="11.00" fill="#000000"> &#160;</text>
<polygon fill="#ffffff" stroke="transparent" points="79.5,-527.7 79.5,-546.7 131.5,-546.7 131.5,-527.7 79.5,-527.7"/>
<polygon fill="none" stroke="#000000" points="79.5,-527.7 79.5,-546.7 131.5,-546.7 131.5,-527.7 79.5,-527.7"/>
<text text-anchor="start" x="89.9956" y="-533.8" font-family="Helvetica,sans-Serif" font-size="11.00" fill="#000000">26 rows</text>
<polygon fill="#ffffff" stroke="transparent" points="131.5,-527.7 131.5,-546.7 167.5,-546.7 167.5,-527.7 131.5,-527.7"/>
<polygon fill="none" stroke="#000000" points="131.5,-527.7 131.5,-546.7 167.5,-546.7 167.5,-527.7 131.5,-527.7"/>
<text text-anchor="start" x="142.7904" y="-533.8" font-family="Helvetica,sans-Serif" font-size="11.00" fill="#000000">10 &gt;</text>
</a>
</g>
</g>
<!-- crn_be_DataCore&#45;&gt;global_dbDOI -->
<g id="edge3" class="edge">
<title>crn_be_DataCore:w&#45;&gt;global_dbDOI:e</title>
<path fill="none" stroke="#000000" d="M244.8784,-646.1559C231.8155,-637.7572 232.9647,-616.1178 217,-599.7 196.4795,-578.5971 196.935,-555.7 167.5,-555.7"/>
<polygon fill="#000000" stroke="#000000" points="251.2406,-647.7526 258.1237,-653.1917 255.1203,-648.7263 259,-649.7 259,-649.7 259,-649.7 255.1203,-648.7263 259.8763,-646.2083 251.2406,-647.7526 251.2406,-647.7526"/>
<ellipse fill="none" stroke="#000000" cx="248.1369" cy="-646.9736" rx="3.2" ry="3.2"/>
</g>
<!-- global_RefCore -->
<g id="node5" class="node">
<title>global_RefCore</title>
<g id="a_node5"><a xlink:href="../../tables/global_RefCore.html" xlink:title="global_RefCore" target="_top">
<polygon fill="#ffffff" stroke="transparent" points="45,-364.2 45,-425.2 172,-425.2 172,-364.2 45,-364.2"/>
<polygon fill="#f5f5f5" stroke="transparent" points="45.5,-401.7 45.5,-424.7 172.5,-424.7 172.5,-401.7 45.5,-401.7"/>
<polygon fill="none" stroke="#000000" points="45.5,-401.7 45.5,-424.7 172.5,-424.7 172.5,-401.7 45.5,-401.7"/>
<text text-anchor="start" x="50.5" y="-410.3" font-family="Helvetica,sans-Serif" font-weight="bold" font-size="11.00" fill="#000000">global_RefCore</text>
<text text-anchor="start" x="138.0219" y="-409.8" font-family="Helvetica,sans-Serif" font-size="11.00" fill="#000000">[table]</text>
<polygon fill="none" stroke="#000000" points="45.5,-382.7 45.5,-401.7 172.5,-401.7 172.5,-382.7 45.5,-382.7"/>
<text text-anchor="start" x="48.5" y="-388.8" font-family="Helvetica,sans-Serif" font-size="11.00" fill="#000000">...</text>
<polygon fill="#ffffff" stroke="transparent" points="45.5,-363.7 45.5,-382.7 76.5,-382.7 76.5,-363.7 45.5,-363.7"/>
<polygon fill="none" stroke="#000000" points="45.5,-363.7 45.5,-382.7 76.5,-382.7 76.5,-363.7 45.5,-363.7"/>
<text text-anchor="start" x="48.5" y="-369.8" font-family="Helvetica,sans-Serif" font-size="11.00" fill="#000000">&lt; 5</text>
<polygon fill="#ffffff" stroke="transparent" points="76.5,-363.7 76.5,-382.7 140.5,-382.7 140.5,-363.7 76.5,-363.7"/>
<polygon fill="none" stroke="#000000" points="76.5,-363.7 76.5,-382.7 140.5,-382.7 140.5,-363.7 76.5,-363.7"/>
<text text-anchor="start" x="83.7089" y="-369.8" font-family="Helvetica,sans-Serif" font-size="11.00" fill="#000000">3.943 rows</text>
<polygon fill="#ffffff" stroke="transparent" points="140.5,-363.7 140.5,-382.7 172.5,-382.7 172.5,-363.7 140.5,-363.7"/>
<polygon fill="none" stroke="#000000" points="140.5,-363.7 140.5,-382.7 172.5,-382.7 172.5,-363.7 140.5,-363.7"/>
<text text-anchor="start" x="147.7904" y="-369.8" font-family="Helvetica,sans-Serif" font-size="11.00" fill="#000000">37 &gt;</text>
</a>
</g>
</g>
<!-- crn_be_DataCore&#45;&gt;global_RefCore -->
<g id="edge4" class="edge">
<title>crn_be_DataCore:w&#45;&gt;global_RefCore:e</title>
<path fill="none" stroke="#000000" d="M244.5961,-626.3845C182.077,-613.4176 256.4909,-507.4406 217,-435.7 203.5875,-411.3344 200.3133,-391.7 172.5,-391.7"/>
<polygon fill="#000000" stroke="#000000" points="251.0332,-626.9723 258.6725,-631.2851 255.0166,-627.3362 259,-627.7 259,-627.7 259,-627.7 255.0166,-627.3362 259.3275,-624.1149 251.0332,-626.9723 251.0332,-626.9723"/>
<ellipse fill="none" stroke="#000000" cx="247.8464" cy="-626.6813" rx="3.2" ry="3.2"/>
</g>
<!-- crn_Sample -->
<g id="node6" class="node">
<title>crn_Sample</title>
<g id="a_node6"><a xlink:href="../../tables/crn_Sample.html" xlink:title="crn_Sample" target="_top">
<polygon fill="#ffffff" stroke="transparent" points="55,-692.2 55,-753.2 162,-753.2 162,-692.2 55,-692.2"/>
<polygon fill="#f5f5f5" stroke="transparent" points="55.5,-729.7 55.5,-752.7 162.5,-752.7 162.5,-729.7 55.5,-729.7"/>
<polygon fill="none" stroke="#000000" points="55.5,-729.7 55.5,-752.7 162.5,-752.7 162.5,-729.7 55.5,-729.7"/>
<text text-anchor="start" x="60.5" y="-738.3" font-family="Helvetica,sans-Serif" font-weight="bold" font-size="11.00" fill="#000000">crn_Sample</text>
<text text-anchor="start" x="128.0219" y="-737.8" font-family="Helvetica,sans-Serif" font-size="11.00" fill="#000000">[table]</text>
<polygon fill="none" stroke="#000000" points="55.5,-710.7 55.5,-729.7 162.5,-729.7 162.5,-710.7 55.5,-710.7"/>
<text text-anchor="start" x="58.5" y="-716.8" font-family="Helvetica,sans-Serif" font-size="11.00" fill="#000000">...</text>
<polygon fill="#ffffff" stroke="transparent" points="55.5,-691.7 55.5,-710.7 79.5,-710.7 79.5,-691.7 55.5,-691.7"/>
<polygon fill="none" stroke="#000000" points="55.5,-691.7 55.5,-710.7 79.5,-710.7 79.5,-691.7 55.5,-691.7"/>
<text text-anchor="start" x="58.5" y="-697.8" font-family="Helvetica,sans-Serif" font-size="11.00" fill="#000000">&lt; 3</text>
<polygon fill="#ffffff" stroke="transparent" points="79.5,-691.7 79.5,-710.7 139.5,-710.7 139.5,-691.7 79.5,-691.7"/>
<polygon fill="none" stroke="#000000" points="79.5,-691.7 79.5,-710.7 139.5,-710.7 139.5,-691.7 79.5,-691.7"/>
<text text-anchor="start" x="82.7089" y="-697.8" font-family="Helvetica,sans-Serif" font-size="11.00" fill="#000000">4.588 rows</text>
<polygon fill="#ffffff" stroke="transparent" points="139.5,-691.7 139.5,-710.7 162.5,-710.7 162.5,-691.7 139.5,-691.7"/>
<polygon fill="none" stroke="#000000" points="139.5,-691.7 139.5,-710.7 162.5,-710.7 162.5,-691.7 139.5,-691.7"/>
<text text-anchor="start" x="143.9053" y="-697.8" font-family="Helvetica,sans-Serif" font-size="11.00" fill="#000000">2 &gt;</text>
</a>
</g>
</g>
<!-- crn_be_DataCore&#45;&gt;crn_Sample -->
<g id="edge5" class="edge">
<title>crn_be_DataCore:w&#45;&gt;crn_Sample:e</title>
<path fill="none" stroke="#000000" d="M244.401,-673.4083C210.3347,-681.959 204.9753,-719.7 162.5,-719.7"/>
<polygon fill="#000000" stroke="#000000" points="251.0542,-672.6298 259.4184,-675.2756 255.0271,-672.1649 259,-671.7 259,-671.7 259,-671.7 255.0271,-672.1649 258.5816,-668.1244 251.0542,-672.6298 251.0542,-672.6298"/>
<ellipse fill="none" stroke="#000000" cx="247.8759" cy="-673.0018" rx="3.2" ry="3.2"/>
</g>
<!-- crn_v3_basins_EPSG3857 -->
<g id="node7" class="node">
<title>crn_v3_basins_EPSG3857</title>
<g id="a_node7"><a xlink:href="../../tables/crn_v3_basins_EPSG3857.html" xlink:title="crn_v3_basins_EPSG3857" target="_top">
<polygon fill="#ffffff" stroke="transparent" points="447.5,-625.2 447.5,-686.2 636.5,-686.2 636.5,-625.2 447.5,-625.2"/>
<polygon fill="#f5f5f5" stroke="transparent" points="448,-662.7 448,-685.7 637,-685.7 637,-662.7 448,-662.7"/>
<polygon fill="none" stroke="#000000" points="448,-662.7 448,-685.7 637,-685.7 637,-662.7 448,-662.7"/>
<text text-anchor="start" x="453" y="-671.3" font-family="Helvetica,sans-Serif" font-weight="bold" font-size="11.00" fill="#000000">crn_v3_basins_EPSG3857</text>
<text text-anchor="start" x="602.5219" y="-670.8" font-family="Helvetica,sans-Serif" font-size="11.00" fill="#000000">[table]</text>
<polygon fill="none" stroke="#000000" points="448,-643.7 448,-662.7 637,-662.7 637,-643.7 448,-643.7"/>
<text text-anchor="start" x="451" y="-649.8" font-family="Helvetica,sans-Serif" font-size="11.00" fill="#000000">...</text>
<polygon fill="#ffffff" stroke="transparent" points="448,-624.7 448,-643.7 517,-643.7 517,-624.7 448,-624.7"/>
<polygon fill="none" stroke="#000000" points="448,-624.7 448,-643.7 517,-643.7 517,-624.7 448,-624.7"/>
<text text-anchor="start" x="451" y="-630.8" font-family="Helvetica,sans-Serif" font-size="11.00" fill="#000000">&lt; 3</text>
<polygon fill="#ffffff" stroke="transparent" points="517,-624.7 517,-643.7 600,-643.7 600,-624.7 517,-624.7"/>
<polygon fill="none" stroke="#000000" points="517,-624.7 517,-643.7 600,-643.7 600,-624.7 517,-624.7"/>
<text text-anchor="start" x="543.2089" y="-630.8" font-family="Helvetica,sans-Serif" font-size="11.00" fill="#000000">4.631 rows</text>
<polygon fill="#ffffff" stroke="transparent" points="600,-624.7 600,-643.7 637,-643.7 637,-624.7 600,-624.7"/>
<polygon fill="none" stroke="#000000" points="600,-624.7 600,-643.7 637,-643.7 637,-624.7 600,-624.7"/>
<text text-anchor="start" x="627.8862" y="-630.8" font-family="Helvetica,sans-Serif" font-size="11.00" fill="#000000"> &#160;</text>
</a>
</g>
</g>
<!-- crn_v3_basins_EPSG3857&#45;&gt;crn_be_DataCore -->
<g id="edge6" class="edge">
<title>crn_v3_basins_EPSG3857:w&#45;&gt;crn_be_DataCore:e</title>
<path fill="none" stroke="#000000" d="M437.6795,-654.9043C420.2155,-663.4205 421.9933,-693.7 397,-693.7"/>
<polygon fill="#000000" stroke="#000000" points="446.3821,-648.9553 448.0532,-656.7789 446.4885,-657.1131 444.8174,-649.2896 446.3821,-648.9553"/>
<polyline fill="none" stroke="#000000" points="448,-652.7 444.0882,-653.5355 "/>
<ellipse fill="none" stroke="#000000" cx="440.9588" cy="-654.204" rx="3.2" ry="3.2"/>
</g>
<!-- crn_v3_outlets_EPSG3857 -->
<g id="node8" class="node">
<title>crn_v3_outlets_EPSG3857</title>
<g id="a_node8"><a xlink:href="../../tables/crn_v3_outlets_EPSG3857.html" xlink:title="crn_v3_outlets_EPSG3857" target="_top">
<polygon fill="#ffffff" stroke="transparent" points="447,-707.2 447,-768.2 637,-768.2 637,-707.2 447,-707.2"/>
<polygon fill="#f5f5f5" stroke="transparent" points="447,-744.7 447,-767.7 637,-767.7 637,-744.7 447,-744.7"/>
<polygon fill="none" stroke="#000000" points="447,-744.7 447,-767.7 637,-767.7 637,-744.7 447,-744.7"/>
<text text-anchor="start" x="452" y="-753.3" font-family="Helvetica,sans-Serif" font-weight="bold" font-size="11.00" fill="#000000">crn_v3_outlets_EPSG3857</text>
<text text-anchor="start" x="602.5219" y="-752.8" font-family="Helvetica,sans-Serif" font-size="11.00" fill="#000000">[table]</text>
<polygon fill="none" stroke="#000000" points="447,-725.7 447,-744.7 637,-744.7 637,-725.7 447,-725.7"/>
<text text-anchor="start" x="450" y="-731.8" font-family="Helvetica,sans-Serif" font-size="11.00" fill="#000000">...</text>
<polygon fill="#ffffff" stroke="transparent" points="447,-706.7 447,-725.7 517,-725.7 517,-706.7 447,-706.7"/>
<polygon fill="none" stroke="#000000" points="447,-706.7 447,-725.7 517,-725.7 517,-706.7 447,-706.7"/>
<text text-anchor="start" x="450" y="-712.8" font-family="Helvetica,sans-Serif" font-size="11.00" fill="#000000">&lt; 3</text>
<polygon fill="#ffffff" stroke="transparent" points="517,-706.7 517,-725.7 600,-725.7 600,-706.7 517,-706.7"/>
<polygon fill="none" stroke="#000000" points="517,-706.7 517,-725.7 600,-725.7 600,-706.7 517,-706.7"/>
<text text-anchor="start" x="543.2089" y="-712.8" font-family="Helvetica,sans-Serif" font-size="11.00" fill="#000000">4.631 rows</text>
<polygon fill="#ffffff" stroke="transparent" points="600,-706.7 600,-725.7 637,-725.7 637,-706.7 600,-706.7"/>
<polygon fill="none" stroke="#000000" points="600,-706.7 600,-725.7 637,-725.7 637,-706.7 600,-706.7"/>
<text text-anchor="start" x="627.8862" y="-712.8" font-family="Helvetica,sans-Serif" font-size="11.00" fill="#000000"> &#160;</text>
</a>
</g>
</g>
<!-- crn_v3_outlets_EPSG3857&#45;&gt;crn_be_DataCore -->
<g id="edge7" class="edge">
<title>crn_v3_outlets_EPSG3857:w&#45;&gt;crn_be_DataCore:e</title>
<path fill="none" stroke="#000000" d="M436.8232,-732.4957C419.6484,-723.9795 421.6968,-693.7 397,-693.7"/>
<polygon fill="#000000" stroke="#000000" points="447.0649,-730.6213 445.3713,-738.44 443.8076,-738.1013 445.5012,-730.2826 447.0649,-730.6213"/>
<polyline fill="none" stroke="#000000" points="447,-734.7 443.0907,-733.8532 "/>
<ellipse fill="none" stroke="#000000" cx="439.9632" cy="-733.1757" rx="3.2" ry="3.2"/>
</g>
<!-- expage_DataCore -->
<g id="node9" class="node">
<title>expage_DataCore</title>
<g id="a_node9"><a xlink:href="../../tables/expage_DataCore.html" xlink:title="expage_DataCore" target="_top">
<polygon fill="#ffffff" stroke="transparent" points="258,-255.2 258,-514.2 398,-514.2 398,-255.2 258,-255.2"/>
<polygon fill="#f5f5f5" stroke="transparent" points="258,-490.7 258,-513.7 398,-513.7 398,-490.7 258,-490.7"/>
<polygon fill="none" stroke="#000000" points="258,-490.7 258,-513.7 398,-513.7 398,-490.7 258,-490.7"/>
<text text-anchor="start" x="263" y="-499.3" font-family="Helvetica,sans-Serif" font-weight="bold" font-size="11.00" fill="#000000">expage_DataCore</text>
<text text-anchor="start" x="363.5219" y="-498.8" font-family="Helvetica,sans-Serif" font-size="11.00" fill="#000000">[table]</text>
<polygon fill="none" stroke="#000000" points="258,-468.7 258,-490.7 398,-490.7 398,-468.7 258,-468.7"/>
<image xlink:href="../../images/primaryKeys.png" width="11px" height="12px" preserveAspectRatio="xMinYMin meet" x="263" y="-485.7"/>
<text text-anchor="start" x="287" y="-475.8" font-family="Helvetica,sans-Serif" font-size="11.00" fill="#000000">OBSID1</text>
<polygon fill="none" stroke="#000000" points="258,-446.7 258,-468.7 398,-468.7 398,-446.7 258,-446.7"/>
<image xlink:href="../../images/foreignKeys.png" width="11px" height="12px" preserveAspectRatio="xMinYMin meet" x="263" y="-463.7"/>
<text text-anchor="start" x="287" y="-453.8" font-family="Helvetica,sans-Serif" font-size="11.00" fill="#000000">SMPID</text>
<polygon fill="none" stroke="#000000" points="258,-424.7 258,-446.7 398,-446.7 398,-424.7 258,-424.7"/>
<image xlink:href="../../images/foreignKeys.png" width="11px" height="12px" preserveAspectRatio="xMinYMin meet" x="263" y="-441.7"/>
<text text-anchor="start" x="287" y="-431.8" font-family="Helvetica,sans-Serif" font-size="11.00" fill="#000000">DBDOI</text>
<polygon fill="none" stroke="#000000" points="258,-402.7 258,-424.7 398,-424.7 398,-402.7 258,-402.7"/>
<image xlink:href="../../images/foreignKeys.png" width="11px" height="12px" preserveAspectRatio="xMinYMin meet" x="263" y="-419.7"/>
<text text-anchor="start" x="287" y="-409.8" font-family="Helvetica,sans-Serif" font-size="11.00" fill="#000000">REFDBID1</text>
<polygon fill="none" stroke="#000000" points="258,-380.7 258,-402.7 398,-402.7 398,-380.7 258,-380.7"/>
<image xlink:href="../../images/foreignKeys.png" width="11px" height="12px" preserveAspectRatio="xMinYMin meet" x="263" y="-397.7"/>
<text text-anchor="start" x="287" y="-387.8" font-family="Helvetica,sans-Serif" font-size="11.00" fill="#000000">REFDBID2</text>
<polygon fill="none" stroke="#000000" points="258,-358.7 258,-380.7 398,-380.7 398,-358.7 258,-358.7"/>
<image xlink:href="../../images/foreignKeys.png" width="11px" height="12px" preserveAspectRatio="xMinYMin meet" x="263" y="-375.7"/>
<text text-anchor="start" x="287" y="-365.8" font-family="Helvetica,sans-Serif" font-size="11.00" fill="#000000">REFDBID3</text>
<polygon fill="none" stroke="#000000" points="258,-336.7 258,-358.7 398,-358.7 398,-336.7 258,-336.7"/>
<image xlink:href="../../images/foreignKeys.png" width="11px" height="12px" preserveAspectRatio="xMinYMin meet" x="263" y="-353.7"/>
<text text-anchor="start" x="287" y="-343.8" font-family="Helvetica,sans-Serif" font-size="11.00" fill="#000000">REFDBID4</text>
<polygon fill="none" stroke="#000000" points="258,-314.7 258,-336.7 398,-336.7 398,-314.7 258,-314.7"/>
<image xlink:href="../../images/foreignKeys.png" width="11px" height="12px" preserveAspectRatio="xMinYMin meet" x="263" y="-331.7"/>
<text text-anchor="start" x="287" y="-321.8" font-family="Helvetica,sans-Serif" font-size="11.00" fill="#000000">BESTNDID</text>
<polygon fill="none" stroke="#000000" points="258,-292.7 258,-314.7 398,-314.7 398,-292.7 258,-292.7"/>
<image xlink:href="../../images/foreignKeys.png" width="11px" height="12px" preserveAspectRatio="xMinYMin meet" x="263" y="-309.7"/>
<text text-anchor="start" x="287" y="-299.8" font-family="Helvetica,sans-Serif" font-size="11.00" fill="#000000">ALSTNDID</text>
<polygon fill="none" stroke="#000000" points="258,-273.7 258,-292.7 398,-292.7 398,-273.7 258,-273.7"/>
<text text-anchor="start" x="261" y="-279.8" font-family="Helvetica,sans-Serif" font-size="11.00" fill="#000000">...</text>
<polygon fill="#ffffff" stroke="transparent" points="258,-254.7 258,-273.7 295,-273.7 295,-254.7 258,-254.7"/>
<polygon fill="none" stroke="#000000" points="258,-254.7 258,-273.7 295,-273.7 295,-254.7 258,-254.7"/>
<text text-anchor="start" x="261" y="-260.8" font-family="Helvetica,sans-Serif" font-size="11.00" fill="#000000">&lt; 8</text>
<polygon fill="#ffffff" stroke="transparent" points="295,-254.7 295,-273.7 368,-273.7 368,-254.7 295,-254.7"/>
<polygon fill="none" stroke="#000000" points="295,-254.7 295,-273.7 368,-273.7 368,-254.7 295,-254.7"/>
<text text-anchor="start" x="305.094" y="-260.8" font-family="Helvetica,sans-Serif" font-size="11.00" fill="#000000">16.009 rows</text>
<polygon fill="#ffffff" stroke="transparent" points="368,-254.7 368,-273.7 398,-273.7 398,-254.7 368,-254.7"/>
<polygon fill="none" stroke="#000000" points="368,-254.7 368,-273.7 398,-273.7 398,-254.7 368,-254.7"/>
<text text-anchor="start" x="379.4053" y="-260.8" font-family="Helvetica,sans-Serif" font-size="11.00" fill="#000000">1 &gt;</text>
</a>
</g>
</g>
<!-- expage_DataCore&#45;&gt;crn_bestndID -->
<g id="edge9" class="edge">
<title>expage_DataCore:w&#45;&gt;crn_bestndID:e</title>
<path fill="none" stroke="#000000" d="M243.7405,-322.8965C231.532,-317.6113 225.6727,-306.7 207.5,-306.7"/>
<polygon fill="#000000" stroke="#000000" points="250.1503,-324.1567 257.3055,-329.2324 254.0751,-324.9283 258,-325.7 258,-325.7 258,-325.7 254.0751,-324.9283 258.6945,-322.1676 250.1503,-324.1567 250.1503,-324.1567"/>
<ellipse fill="none" stroke="#000000" cx="247.0104" cy="-323.5393" rx="3.2" ry="3.2"/>
</g>
<!-- expage_DataCore&#45;&gt;global_dbDOI -->
<g id="edge10" class="edge">
<title>expage_DataCore:w&#45;&gt;global_dbDOI:e</title>
<path fill="none" stroke="#000000" d="M243.8599,-438.8148C223.7399,-450.2915 239.0828,-490.9364 217,-517.7 199.3485,-539.093 195.2351,-555.7 167.5,-555.7"/>
<polygon fill="#000000" stroke="#000000" points="250.1873,-437.421 258.7745,-439.2157 254.0937,-436.5605 258,-435.7 258,-435.7 258,-435.7 254.0937,-436.5605 257.2255,-432.1843 250.1873,-437.421 250.1873,-437.421"/>
<ellipse fill="none" stroke="#000000" cx="247.0622" cy="-438.1095" rx="3.2" ry="3.2"/>
</g>
<!-- expage_DataCore&#45;&gt;global_RefCore -->
<g id="edge11" class="edge">
<title>expage_DataCore:w&#45;&gt;global_RefCore:e</title>
<path fill="none" stroke="#000000" d="M243.5481,-412.5788C216.2393,-408.0956 206.3733,-391.7 172.5,-391.7"/>
<polygon fill="#000000" stroke="#000000" points="250.024,-413.0811 257.7215,-417.2892 254.012,-413.3906 258,-413.7 258,-413.7 258,-413.7 254.012,-413.3906 258.2785,-410.1108 250.024,-413.0811 250.024,-413.0811"/>
<ellipse fill="none" stroke="#000000" cx="246.8336" cy="-412.8336" rx="3.2" ry="3.2"/>
</g>
<!-- expage_DataCore&#45;&gt;global_RefCore -->
<g id="edge12" class="edge">
<title>expage_DataCore:w&#45;&gt;global_RefCore:e</title>
<path fill="none" stroke="#000000" d="M243.501,-391.7C216.7645,-391.7 205.1563,-391.7 172.5,-391.7"/>
<polygon fill="#000000" stroke="#000000" points="250,-391.7001 258,-395.3 254,-391.7 258,-391.7 258,-391.7 258,-391.7 254,-391.7 258,-388.1 250,-391.7001 250,-391.7001"/>
<ellipse fill="none" stroke="#000000" cx="246.8" cy="-391.7001" rx="3.2" ry="3.2"/>
</g>
<!-- expage_DataCore&#45;&gt;global_RefCore -->
<g id="edge13" class="edge">
<title>expage_DataCore:w&#45;&gt;global_RefCore:e</title>
<path fill="none" stroke="#000000" d="M243.5481,-370.8212C216.2393,-375.3044 206.3733,-391.7 172.5,-391.7"/>
<polygon fill="#000000" stroke="#000000" points="250.024,-370.3189 258.2785,-373.2892 254.012,-370.0094 258,-369.7 258,-369.7 258,-369.7 254.012,-370.0094 257.7215,-366.1108 250.024,-370.3189 250.024,-370.3189"/>
<ellipse fill="none" stroke="#000000" cx="246.8336" cy="-370.5664" rx="3.2" ry="3.2"/>
</g>
<!-- expage_DataCore&#45;&gt;global_RefCore -->
<g id="edge14" class="edge">
<title>expage_DataCore:w&#45;&gt;global_RefCore:e</title>
<path fill="none" stroke="#000000" d="M243.4191,-349.7049C214.5468,-358.3126 209.7276,-391.7 172.5,-391.7"/>
<polygon fill="#000000" stroke="#000000" points="250.0746,-348.7898 258.4904,-351.2664 254.0373,-348.2449 258,-347.7 258,-347.7 258,-347.7 254.0373,-348.2449 257.5096,-344.1336 250.0746,-348.7898 250.0746,-348.7898"/>
<ellipse fill="none" stroke="#000000" cx="246.9044" cy="-349.2257" rx="3.2" ry="3.2"/>
</g>
<!-- crn_alstndID -->
<g id="node10" class="node">
<title>crn_alstndID</title>
<g id="a_node10"><a xlink:href="../../tables/crn_alstndID.html" xlink:title="crn_alstndID" target="_top">
<polygon fill="#ffffff" stroke="transparent" points="53,-38.2 53,-99.2 164,-99.2 164,-38.2 53,-38.2"/>
<polygon fill="#f5f5f5" stroke="transparent" points="53.5,-75.7 53.5,-98.7 164.5,-98.7 164.5,-75.7 53.5,-75.7"/>
<polygon fill="none" stroke="#000000" points="53.5,-75.7 53.5,-98.7 164.5,-98.7 164.5,-75.7 53.5,-75.7"/>
<text text-anchor="start" x="58.5" y="-84.3" font-family="Helvetica,sans-Serif" font-weight="bold" font-size="11.00" fill="#000000">crn_alstndID</text>
<text text-anchor="start" x="130.0219" y="-83.8" font-family="Helvetica,sans-Serif" font-size="11.00" fill="#000000">[table]</text>
<polygon fill="none" stroke="#000000" points="53.5,-56.7 53.5,-75.7 164.5,-75.7 164.5,-56.7 53.5,-56.7"/>
<text text-anchor="start" x="56.5" y="-62.8" font-family="Helvetica,sans-Serif" font-size="11.00" fill="#000000">...</text>
<polygon fill="#ffffff" stroke="transparent" points="53.5,-37.7 53.5,-56.7 82.5,-56.7 82.5,-37.7 53.5,-37.7"/>
<polygon fill="none" stroke="#000000" points="53.5,-37.7 53.5,-56.7 82.5,-56.7 82.5,-37.7 53.5,-37.7"/>
<text text-anchor="start" x="56.5" y="-43.8" font-family="Helvetica,sans-Serif" font-size="11.00" fill="#000000"> &#160;</text>
<polygon fill="#ffffff" stroke="transparent" points="82.5,-37.7 82.5,-56.7 134.5,-56.7 134.5,-37.7 82.5,-37.7"/>
<polygon fill="none" stroke="#000000" points="82.5,-37.7 82.5,-56.7 134.5,-56.7 134.5,-37.7 82.5,-37.7"/>
<text text-anchor="start" x="92.9956" y="-43.8" font-family="Helvetica,sans-Serif" font-size="11.00" fill="#000000">26 rows</text>
<polygon fill="#ffffff" stroke="transparent" points="134.5,-37.7 134.5,-56.7 164.5,-56.7 164.5,-37.7 134.5,-37.7"/>
<polygon fill="none" stroke="#000000" points="134.5,-37.7 134.5,-56.7 164.5,-56.7 164.5,-37.7 134.5,-37.7"/>
<text text-anchor="start" x="145.9053" y="-43.8" font-family="Helvetica,sans-Serif" font-size="11.00" fill="#000000">2 &gt;</text>
</a>
</g>
</g>
<!-- expage_DataCore&#45;&gt;crn_alstndID -->
<g id="edge8" class="edge">
<title>expage_DataCore:w&#45;&gt;crn_alstndID:e</title>
<path fill="none" stroke="#000000" d="M243.5151,-302.3513C180.8965,-289.0616 259.5315,-180.5304 217,-109.7 201.3274,-83.5995 194.9444,-65.7 164.5,-65.7"/>
<polygon fill="#000000" stroke="#000000" points="250.0345,-302.9583 257.6662,-307.2845 254.0172,-303.3291 258,-303.7 258,-303.7 258,-303.7 254.0172,-303.3291 258.3338,-300.1155 250.0345,-302.9583 250.0345,-302.9583"/>
<ellipse fill="none" stroke="#000000" cx="246.8482" cy="-302.6616" rx="3.2" ry="3.2"/>
</g>
<!-- expage_Sample -->
<g id="node11" class="node">
<title>expage_Sample</title>
<g id="a_node11"><a xlink:href="../../tables/expage_Sample.html" xlink:title="expage_Sample" target="_top">
<polygon fill="#ffffff" stroke="transparent" points="44,-446.2 44,-507.2 173,-507.2 173,-446.2 44,-446.2"/>
<polygon fill="#f5f5f5" stroke="transparent" points="44.5,-483.7 44.5,-506.7 173.5,-506.7 173.5,-483.7 44.5,-483.7"/>
<polygon fill="none" stroke="#000000" points="44.5,-483.7 44.5,-506.7 173.5,-506.7 173.5,-483.7 44.5,-483.7"/>
<text text-anchor="start" x="49.5" y="-492.3" font-family="Helvetica,sans-Serif" font-weight="bold" font-size="11.00" fill="#000000">expage_Sample</text>
<text text-anchor="start" x="139.0219" y="-491.8" font-family="Helvetica,sans-Serif" font-size="11.00" fill="#000000">[table]</text>
<polygon fill="none" stroke="#000000" points="44.5,-464.7 44.5,-483.7 173.5,-483.7 173.5,-464.7 44.5,-464.7"/>
<text text-anchor="start" x="47.5" y="-470.8" font-family="Helvetica,sans-Serif" font-size="11.00" fill="#000000">...</text>
<polygon fill="#ffffff" stroke="transparent" points="44.5,-445.7 44.5,-464.7 76.5,-464.7 76.5,-445.7 44.5,-445.7"/>
<polygon fill="none" stroke="#000000" points="44.5,-445.7 44.5,-464.7 76.5,-464.7 76.5,-445.7 44.5,-445.7"/>
<text text-anchor="start" x="47.5" y="-451.8" font-family="Helvetica,sans-Serif" font-size="11.00" fill="#000000">&lt; 2</text>
<polygon fill="#ffffff" stroke="transparent" points="76.5,-445.7 76.5,-464.7 146.5,-464.7 146.5,-445.7 76.5,-445.7"/>
<polygon fill="none" stroke="#000000" points="76.5,-445.7 76.5,-464.7 146.5,-464.7 146.5,-445.7 76.5,-445.7"/>
<text text-anchor="start" x="83.594" y="-451.8" font-family="Helvetica,sans-Serif" font-size="11.00" fill="#000000">15.805 rows</text>
<polygon fill="#ffffff" stroke="transparent" points="146.5,-445.7 146.5,-464.7 173.5,-464.7 173.5,-445.7 146.5,-445.7"/>
<polygon fill="none" stroke="#000000" points="146.5,-445.7 146.5,-464.7 173.5,-464.7 173.5,-445.7 146.5,-445.7"/>
<text text-anchor="start" x="154.9053" y="-451.8" font-family="Helvetica,sans-Serif" font-size="11.00" fill="#000000">1 &gt;</text>
</a>
</g>
</g>
<!-- expage_DataCore&#45;&gt;expage_Sample -->
<g id="edge15" class="edge">
<title>expage_DataCore:w&#45;&gt;expage_Sample:e</title>
<path fill="none" stroke="#000000" d="M243.4967,-458.5602C216.9153,-461.8836 206.3478,-473.7 173.5,-473.7"/>
<polygon fill="#000000" stroke="#000000" points="250.014,-458.1737 258.2132,-461.2937 254.007,-457.9369 258,-457.7 258,-457.7 258,-457.7 254.007,-457.9369 257.7868,-454.1063 250.014,-458.1737 250.014,-458.1737"/>
<ellipse fill="none" stroke="#000000" cx="246.8196" cy="-458.3632" rx="3.2" ry="3.2"/>
</g>
<!-- expage_points_EPSG3857 -->
<g id="node12" class="node">
<title>expage_points_EPSG3857</title>
<g id="a_node12"><a xlink:href="../../tables/expage_points_EPSG3857.html" xlink:title="expage_points_EPSG3857" target="_top">
<polygon fill="#ffffff" stroke="transparent" points="447.5,-452.2 447.5,-513.2 636.5,-513.2 636.5,-452.2 447.5,-452.2"/>
<polygon fill="#f5f5f5" stroke="transparent" points="448,-489.7 448,-512.7 637,-512.7 637,-489.7 448,-489.7"/>
<polygon fill="none" stroke="#000000" points="448,-489.7 448,-512.7 637,-512.7 637,-489.7 448,-489.7"/>
<text text-anchor="start" x="453" y="-498.3" font-family="Helvetica,sans-Serif" font-weight="bold" font-size="11.00" fill="#000000">expage_points_EPSG3857</text>
<text text-anchor="start" x="602.5219" y="-497.8" font-family="Helvetica,sans-Serif" font-size="11.00" fill="#000000">[table]</text>
<polygon fill="none" stroke="#000000" points="448,-470.7 448,-489.7 637,-489.7 637,-470.7 448,-470.7"/>
<text text-anchor="start" x="451" y="-476.8" font-family="Helvetica,sans-Serif" font-size="11.00" fill="#000000">...</text>
<polygon fill="#ffffff" stroke="transparent" points="448,-451.7 448,-470.7 514,-470.7 514,-451.7 448,-451.7"/>
<polygon fill="none" stroke="#000000" points="448,-451.7 448,-470.7 514,-470.7 514,-451.7 448,-451.7"/>
<text text-anchor="start" x="451" y="-457.8" font-family="Helvetica,sans-Serif" font-size="11.00" fill="#000000">&lt; 1</text>
<polygon fill="#ffffff" stroke="transparent" points="514,-451.7 514,-470.7 602,-470.7 602,-451.7 514,-451.7"/>
<polygon fill="none" stroke="#000000" points="514,-451.7 514,-470.7 602,-470.7 602,-451.7 514,-451.7"/>
<text text-anchor="start" x="539.094" y="-457.8" font-family="Helvetica,sans-Serif" font-size="11.00" fill="#000000">16.009 rows</text>
<polygon fill="#ffffff" stroke="transparent" points="602,-451.7 602,-470.7 637,-470.7 637,-451.7 602,-451.7"/>
<polygon fill="none" stroke="#000000" points="602,-451.7 602,-470.7 637,-470.7 637,-451.7 602,-451.7"/>
<text text-anchor="start" x="627.8862" y="-457.8" font-family="Helvetica,sans-Serif" font-size="11.00" fill="#000000"> &#160;</text>
</a>
</g>
</g>
<!-- expage_points_EPSG3857&#45;&gt;expage_DataCore -->
<g id="edge16" class="edge">
<title>expage_points_EPSG3857:w&#45;&gt;expage_DataCore:e</title>
<path fill="none" stroke="#000000" d="M433.5647,-479.7C421.8054,-479.7 414.4931,-479.7 398,-479.7"/>
<polygon fill="#000000" stroke="#000000" points="440,-479.7001 448,-483.3 444,-479.7 448,-479.7 448,-479.7 448,-479.7 444,-479.7 448,-476.1 440,-479.7001 440,-479.7001"/>
<ellipse fill="none" stroke="#000000" cx="436.8" cy="-479.7001" rx="3.2" ry="3.2"/>
</g>
</g>
</svg>
