<?xml version="1.0" encoding="UTF-8" standalone="no"?>
<!DOCTYPE svg PUBLIC "-//W3C//DTD SVG 1.1//EN"
 "http://www.w3.org/Graphics/SVG/1.1/DTD/svg11.dtd">
<!-- Generated by graphviz version 2.40.1 (20161225.0304)
 -->
<!-- Title: oneDegreeRelationshipsDiagramImplied Pages: 1 -->
<svg width="423pt" height="1055pt"
 viewBox="0.00 0.00 423.00 1055.20" xmlns="http://www.w3.org/2000/svg" xmlns:xlink="http://www.w3.org/1999/xlink">
<g id="graph0" class="graph" transform="scale(1 1) rotate(0) translate(4 1051.2)">
<title>oneDegreeRelationshipsDiagramImplied</title>
<polygon fill="#ffffff" stroke="transparent" points="-4,4 -4,-1051.2 419,-1051.2 419,4 -4,4"/>
<text text-anchor="middle" x="72.4936" y="-7.3" font-family="Helvetica,sans-Serif" font-size="11.00" fill="#000000">Generated by SchemaSpy</text>
<!-- crn_aus_basins -->
<g id="node1" class="node">
<title>crn_aus_basins</title>
<g id="a_node1"><a xlink:href="../../tables/crn_aus_basins.html" xlink:title="crn_aus_basins" target="_top">
<polygon fill="#ffffff" stroke="transparent" points="270,-850.2 270,-1043.2 399,-1043.2 399,-850.2 270,-850.2"/>
<polygon fill="#f5f5f5" stroke="transparent" points="270.5,-1019.7 270.5,-1042.7 399.5,-1042.7 399.5,-1019.7 270.5,-1019.7"/>
<polygon fill="none" stroke="#000000" points="270.5,-1019.7 270.5,-1042.7 399.5,-1042.7 399.5,-1019.7 270.5,-1019.7"/>
<text text-anchor="start" x="275.5" y="-1028.3" font-family="Helvetica,sans-Serif" font-weight="bold" font-size="11.00" fill="#000000">crn_aus_basins</text>
<text text-anchor="start" x="365.0219" y="-1027.8" font-family="Helvetica,sans-Serif" font-size="11.00" fill="#000000">[table]</text>
<polygon fill="none" stroke="#000000" points="270.5,-997.7 270.5,-1019.7 399.5,-1019.7 399.5,-997.7 270.5,-997.7"/>
<image xlink:href="../../images/foreignKeys.png" width="11px" height="12px" preserveAspectRatio="xMinYMin meet" x="275.5" y="-1014.7"/>
<text text-anchor="start" x="299.5" y="-1004.8" font-family="Helvetica,sans-Serif" font-size="11.00" fill="#000000">DBDOI</text>
<polygon fill="none" stroke="#000000" points="270.5,-975.7 270.5,-997.7 399.5,-997.7 399.5,-975.7 270.5,-975.7"/>
<image xlink:href="../../images/foreignKeys.png" width="11px" height="12px" preserveAspectRatio="xMinYMin meet" x="275.5" y="-992.7"/>
<text text-anchor="start" x="299.5" y="-982.8" font-family="Helvetica,sans-Serif" font-size="11.00" fill="#000000">SITEID</text>
<polygon fill="none" stroke="#000000" points="270.5,-953.7 270.5,-975.7 399.5,-975.7 399.5,-953.7 270.5,-953.7"/>
<image xlink:href="../../images/foreignKeys.png" width="11px" height="12px" preserveAspectRatio="xMinYMin meet" x="275.5" y="-970.7"/>
<text text-anchor="start" x="299.5" y="-960.8" font-family="Helvetica,sans-Serif" font-size="11.00" fill="#000000">METASITEID</text>
<polygon fill="none" stroke="#000000" points="270.5,-931.7 270.5,-953.7 399.5,-953.7 399.5,-931.7 270.5,-931.7"/>
<image xlink:href="../../images/foreignKeys.png" width="11px" height="12px" preserveAspectRatio="xMinYMin meet" x="275.5" y="-948.7"/>
<text text-anchor="start" x="299.5" y="-938.8" font-family="Helvetica,sans-Serif" font-size="11.00" fill="#000000">OAID</text>
<polygon fill="none" stroke="#000000" points="270.5,-909.7 270.5,-931.7 399.5,-931.7 399.5,-909.7 270.5,-909.7"/>
<image xlink:href="../../images/foreignKeys.png" width="11px" height="12px" preserveAspectRatio="xMinYMin meet" x="275.5" y="-926.7"/>
<text text-anchor="start" x="299.5" y="-916.8" font-family="Helvetica,sans-Serif" font-size="11.00" fill="#000000">PROJEPSGID</text>
<polygon fill="none" stroke="#000000" points="270.5,-887.7 270.5,-909.7 399.5,-909.7 399.5,-887.7 270.5,-887.7"/>
<image xlink:href="../../images/primaryKeys.png" width="11px" height="12px" preserveAspectRatio="xMinYMin meet" x="275.5" y="-904.7"/>
<text text-anchor="start" x="299.5" y="-894.8" font-family="Helvetica,sans-Serif" font-size="11.00" fill="#000000">id</text>
<polygon fill="none" stroke="#000000" points="270.5,-868.7 270.5,-887.7 399.5,-887.7 399.5,-868.7 270.5,-868.7"/>
<text text-anchor="start" x="273.5" y="-874.8" font-family="Helvetica,sans-Serif" font-size="11.00" fill="#000000">...</text>
<polygon fill="#ffffff" stroke="transparent" points="270.5,-849.7 270.5,-868.7 314.5,-868.7 314.5,-849.7 270.5,-849.7"/>
<polygon fill="none" stroke="#000000" points="270.5,-849.7 270.5,-868.7 314.5,-868.7 314.5,-849.7 270.5,-849.7"/>
<text text-anchor="start" x="273.5" y="-855.8" font-family="Helvetica,sans-Serif" font-size="11.00" fill="#000000">&lt; 5</text>
<polygon fill="#ffffff" stroke="transparent" points="314.5,-849.7 314.5,-868.7 375.5,-868.7 375.5,-849.7 314.5,-849.7"/>
<polygon fill="none" stroke="#000000" points="314.5,-849.7 314.5,-868.7 375.5,-868.7 375.5,-849.7 314.5,-849.7"/>
<text text-anchor="start" x="327.8807" y="-855.8" font-family="Helvetica,sans-Serif" font-size="11.00" fill="#000000">297 rows</text>
<polygon fill="#ffffff" stroke="transparent" points="375.5,-849.7 375.5,-868.7 399.5,-868.7 399.5,-849.7 375.5,-849.7"/>
<polygon fill="none" stroke="#000000" points="375.5,-849.7 375.5,-868.7 399.5,-868.7 399.5,-849.7 375.5,-849.7"/>
<text text-anchor="start" x="390.3862" y="-855.8" font-family="Helvetica,sans-Serif" font-size="11.00" fill="#000000"> &#160;</text>
</a>
</g>
</g>
<!-- crn_projepsgID -->
<g id="node2" class="node">
<title>crn_projepsgID</title>
<g id="a_node2"><a xlink:href="../../tables/crn_projepsgID.html" xlink:title="crn_projepsgID" target="_top">
<polygon fill="#ffffff" stroke="transparent" points="8,-394.7 8,-528.7 213,-528.7 213,-394.7 8,-394.7"/>
<polygon fill="#f5f5f5" stroke="transparent" points="10.5,-503.7 10.5,-526.7 211.5,-526.7 211.5,-503.7 10.5,-503.7"/>
<polygon fill="none" stroke="#000000" points="10.5,-503.7 10.5,-526.7 211.5,-526.7 211.5,-503.7 10.5,-503.7"/>
<text text-anchor="start" x="15.5" y="-512.3" font-family="Helvetica,sans-Serif" font-weight="bold" font-size="11.00" fill="#000000">crn_projepsgID</text>
<text text-anchor="start" x="176.5437" y="-511.8" font-family="Helvetica,sans-Serif" font-size="11.00" fill="#000000">[table]</text>
<polygon fill="none" stroke="#000000" points="10.5,-481.7 10.5,-503.7 119.5,-503.7 119.5,-481.7 10.5,-481.7"/>
<image xlink:href="../../images/primaryKeys.png" width="11px" height="12px" preserveAspectRatio="xMinYMin meet" x="15.5" y="-498.7"/>
<text text-anchor="start" x="30.5" y="-488.8" font-family="Helvetica,sans-Serif" font-size="11.00" fill="#000000">PROJEPSGID</text>
<polygon fill="none" stroke="#000000" points="119.5,-481.7 119.5,-503.7 211.5,-503.7 211.5,-481.7 119.5,-481.7"/>
<text text-anchor="start" x="122.5" y="-489.4" font-family="Helvetica,sans-Serif" font-size="11.00" fill="#000000">int2[5]</text>
<polygon fill="none" stroke="#000000" points="10.5,-459.7 10.5,-481.7 119.5,-481.7 119.5,-459.7 10.5,-459.7"/>
<text text-anchor="start" x="30.5" y="-466.8" font-family="Helvetica,sans-Serif" font-size="11.00" fill="#000000">PROJECTION</text>
<polygon fill="none" stroke="#000000" points="119.5,-459.7 119.5,-481.7 211.5,-481.7 211.5,-459.7 119.5,-459.7"/>
<text text-anchor="start" x="122.5" y="-467.4" font-family="Helvetica,sans-Serif" font-size="11.00" fill="#000000">varchar[13]</text>
<polygon fill="none" stroke="#000000" points="10.5,-437.7 10.5,-459.7 119.5,-459.7 119.5,-437.7 10.5,-437.7"/>
<text text-anchor="start" x="30.5" y="-444.8" font-family="Helvetica,sans-Serif" font-size="11.00" fill="#000000">CREATED_AT</text>
<polygon fill="none" stroke="#000000" points="119.5,-437.7 119.5,-459.7 211.5,-459.7 211.5,-437.7 119.5,-437.7"/>
<text text-anchor="start" x="122.1023" y="-445.4" font-family="Helvetica,sans-Serif" font-size="11.00" fill="#000000">timestamptz[35,6]</text>
<polygon fill="none" stroke="#000000" points="10.5,-415.7 10.5,-437.7 119.5,-437.7 119.5,-415.7 10.5,-415.7"/>
<text text-anchor="start" x="30.5" y="-422.8" font-family="Helvetica,sans-Serif" font-size="11.00" fill="#000000">UPDATED_AT</text>
<polygon fill="none" stroke="#000000" points="119.5,-415.7 119.5,-437.7 211.5,-437.7 211.5,-415.7 119.5,-415.7"/>
<text text-anchor="start" x="122.1023" y="-423.4" font-family="Helvetica,sans-Serif" font-size="11.00" fill="#000000">timestamptz[35,6]</text>
<polygon fill="#ffffff" stroke="transparent" points="10.5,-396.7 10.5,-415.7 50.5,-415.7 50.5,-396.7 10.5,-396.7"/>
<polygon fill="none" stroke="#000000" points="10.5,-396.7 10.5,-415.7 50.5,-415.7 50.5,-396.7 10.5,-396.7"/>
<text text-anchor="start" x="13.5" y="-402.8" font-family="Helvetica,sans-Serif" font-size="11.00" fill="#000000">&lt; 0</text>
<polygon fill="#ffffff" stroke="transparent" points="50.5,-396.7 50.5,-415.7 119.5,-415.7 119.5,-396.7 50.5,-396.7"/>
<polygon fill="none" stroke="#000000" points="50.5,-396.7 50.5,-415.7 119.5,-415.7 119.5,-396.7 50.5,-396.7"/>
<text text-anchor="start" x="71.8807" y="-402.8" font-family="Helvetica,sans-Serif" font-size="11.00" fill="#000000">121 rows</text>
<polygon fill="#ffffff" stroke="transparent" points="119.5,-396.7 119.5,-415.7 211.5,-415.7 211.5,-396.7 119.5,-396.7"/>
<polygon fill="none" stroke="#000000" points="119.5,-396.7 119.5,-415.7 211.5,-415.7 211.5,-396.7 119.5,-396.7"/>
<text text-anchor="start" x="192.9053" y="-402.8" font-family="Helvetica,sans-Serif" font-size="11.00" fill="#000000">5 &gt;</text>
<polygon fill="none" stroke="#000000" stroke-width="2" points="9,-395.7 9,-527.7 212,-527.7 212,-395.7 9,-395.7"/>
</a>
</g>
</g>
<!-- crn_aus_basins&#45;&gt;crn_projepsgID -->
<g id="edge1" class="edge">
<title>crn_aus_basins:w&#45;&gt;crn_projepsgID:e</title>
<path fill="none" stroke="#000000" stroke-dasharray="5,2" d="M256.3068,-916.7363C188.8235,-873.5887 302.0724,-492.7 211.5,-492.7"/>
<polygon fill="#000000" stroke="#000000" points="262.7948,-918.5481 269.5317,-924.1673 266.6474,-919.6241 270.5,-920.7 270.5,-920.7 270.5,-920.7 266.6474,-919.6241 271.4683,-917.2327 262.7948,-918.5481 262.7948,-918.5481"/>
<ellipse fill="none" stroke="#000000" cx="259.7128" cy="-917.6874" rx="3.2" ry="3.2"/>
</g>
<!-- crn_inprep_basins -->
<g id="node3" class="node">
<title>crn_inprep_basins</title>
<g id="a_node3"><a xlink:href="../../tables/crn_inprep_basins.html" xlink:title="crn_inprep_basins" target="_top">
<polygon fill="#ffffff" stroke="transparent" points="262,-636.2 262,-829.2 407,-829.2 407,-636.2 262,-636.2"/>
<polygon fill="#f5f5f5" stroke="transparent" points="262.5,-805.7 262.5,-828.7 407.5,-828.7 407.5,-805.7 262.5,-805.7"/>
<polygon fill="none" stroke="#000000" points="262.5,-805.7 262.5,-828.7 407.5,-828.7 407.5,-805.7 262.5,-805.7"/>
<text text-anchor="start" x="267.5" y="-814.3" font-family="Helvetica,sans-Serif" font-weight="bold" font-size="11.00" fill="#000000">crn_inprep_basins</text>
<text text-anchor="start" x="373.0219" y="-813.8" font-family="Helvetica,sans-Serif" font-size="11.00" fill="#000000">[table]</text>
<polygon fill="none" stroke="#000000" points="262.5,-783.7 262.5,-805.7 407.5,-805.7 407.5,-783.7 262.5,-783.7"/>
<image xlink:href="../../images/foreignKeys.png" width="11px" height="12px" preserveAspectRatio="xMinYMin meet" x="267.5" y="-800.7"/>
<text text-anchor="start" x="291.5" y="-790.8" font-family="Helvetica,sans-Serif" font-size="11.00" fill="#000000">DBDOI</text>
<polygon fill="none" stroke="#000000" points="262.5,-761.7 262.5,-783.7 407.5,-783.7 407.5,-761.7 262.5,-761.7"/>
<image xlink:href="../../images/foreignKeys.png" width="11px" height="12px" preserveAspectRatio="xMinYMin meet" x="267.5" y="-778.7"/>
<text text-anchor="start" x="291.5" y="-768.8" font-family="Helvetica,sans-Serif" font-size="11.00" fill="#000000">SITEID</text>
<polygon fill="none" stroke="#000000" points="262.5,-739.7 262.5,-761.7 407.5,-761.7 407.5,-739.7 262.5,-739.7"/>
<image xlink:href="../../images/foreignKeys.png" width="11px" height="12px" preserveAspectRatio="xMinYMin meet" x="267.5" y="-756.7"/>
<text text-anchor="start" x="291.5" y="-746.8" font-family="Helvetica,sans-Serif" font-size="11.00" fill="#000000">METASITEID</text>
<polygon fill="none" stroke="#000000" points="262.5,-717.7 262.5,-739.7 407.5,-739.7 407.5,-717.7 262.5,-717.7"/>
<image xlink:href="../../images/foreignKeys.png" width="11px" height="12px" preserveAspectRatio="xMinYMin meet" x="267.5" y="-734.7"/>
<text text-anchor="start" x="291.5" y="-724.8" font-family="Helvetica,sans-Serif" font-size="11.00" fill="#000000">OAID</text>
<polygon fill="none" stroke="#000000" points="262.5,-695.7 262.5,-717.7 407.5,-717.7 407.5,-695.7 262.5,-695.7"/>
<image xlink:href="../../images/foreignKeys.png" width="11px" height="12px" preserveAspectRatio="xMinYMin meet" x="267.5" y="-712.7"/>
<text text-anchor="start" x="291.5" y="-702.8" font-family="Helvetica,sans-Serif" font-size="11.00" fill="#000000">PROJEPSGID</text>
<polygon fill="none" stroke="#000000" points="262.5,-673.7 262.5,-695.7 407.5,-695.7 407.5,-673.7 262.5,-673.7"/>
<image xlink:href="../../images/primaryKeys.png" width="11px" height="12px" preserveAspectRatio="xMinYMin meet" x="267.5" y="-690.7"/>
<text text-anchor="start" x="291.5" y="-680.8" font-family="Helvetica,sans-Serif" font-size="11.00" fill="#000000">id</text>
<polygon fill="none" stroke="#000000" points="262.5,-654.7 262.5,-673.7 407.5,-673.7 407.5,-654.7 262.5,-654.7"/>
<text text-anchor="start" x="265.5" y="-660.8" font-family="Helvetica,sans-Serif" font-size="11.00" fill="#000000">...</text>
<polygon fill="#ffffff" stroke="transparent" points="262.5,-635.7 262.5,-654.7 314.5,-654.7 314.5,-635.7 262.5,-635.7"/>
<polygon fill="none" stroke="#000000" points="262.5,-635.7 262.5,-654.7 314.5,-654.7 314.5,-635.7 262.5,-635.7"/>
<text text-anchor="start" x="265.5" y="-641.8" font-family="Helvetica,sans-Serif" font-size="11.00" fill="#000000">&lt; 5</text>
<polygon fill="#ffffff" stroke="transparent" points="314.5,-635.7 314.5,-654.7 379.5,-654.7 379.5,-635.7 314.5,-635.7"/>
<polygon fill="none" stroke="#000000" points="314.5,-635.7 314.5,-654.7 379.5,-654.7 379.5,-635.7 314.5,-635.7"/>
<text text-anchor="start" x="331.8807" y="-641.8" font-family="Helvetica,sans-Serif" font-size="11.00" fill="#000000">157 rows</text>
<polygon fill="#ffffff" stroke="transparent" points="379.5,-635.7 379.5,-654.7 407.5,-654.7 407.5,-635.7 379.5,-635.7"/>
<polygon fill="none" stroke="#000000" points="379.5,-635.7 379.5,-654.7 407.5,-654.7 407.5,-635.7 379.5,-635.7"/>
<text text-anchor="start" x="398.3862" y="-641.8" font-family="Helvetica,sans-Serif" font-size="11.00" fill="#000000"> &#160;</text>
</a>
</g>
</g>
<!-- crn_inprep_basins&#45;&gt;crn_projepsgID -->
<g id="edge2" class="edge">
<title>crn_inprep_basins:w&#45;&gt;crn_projepsgID:e</title>
<path fill="none" stroke="#000000" stroke-dasharray="5,2" d="M248.1301,-704.7181C180.3226,-683.1444 303.7367,-492.7 211.5,-492.7"/>
<polygon fill="#000000" stroke="#000000" points="254.575,-705.607 262.0081,-710.2662 258.5375,-706.1535 262.5,-706.7 262.5,-706.7 262.5,-706.7 258.5375,-706.1535 262.9919,-703.1338 254.575,-705.607 254.575,-705.607"/>
<ellipse fill="none" stroke="#000000" cx="251.405" cy="-705.1697" rx="3.2" ry="3.2"/>
</g>
<!-- crn_int_basins -->
<g id="node4" class="node">
<title>crn_int_basins</title>
<g id="a_node4"><a xlink:href="../../tables/crn_int_basins.html" xlink:title="crn_int_basins" target="_top">
<polygon fill="#ffffff" stroke="transparent" points="273,-422.2 273,-615.2 396,-615.2 396,-422.2 273,-422.2"/>
<polygon fill="#f5f5f5" stroke="transparent" points="273.5,-591.7 273.5,-614.7 396.5,-614.7 396.5,-591.7 273.5,-591.7"/>
<polygon fill="none" stroke="#000000" points="273.5,-591.7 273.5,-614.7 396.5,-614.7 396.5,-591.7 273.5,-591.7"/>
<text text-anchor="start" x="278.5" y="-600.3" font-family="Helvetica,sans-Serif" font-weight="bold" font-size="11.00" fill="#000000">crn_int_basins</text>
<text text-anchor="start" x="362.0219" y="-599.8" font-family="Helvetica,sans-Serif" font-size="11.00" fill="#000000">[table]</text>
<polygon fill="none" stroke="#000000" points="273.5,-569.7 273.5,-591.7 396.5,-591.7 396.5,-569.7 273.5,-569.7"/>
<image xlink:href="../../images/foreignKeys.png" width="11px" height="12px" preserveAspectRatio="xMinYMin meet" x="278.5" y="-586.7"/>
<text text-anchor="start" x="302.5" y="-576.8" font-family="Helvetica,sans-Serif" font-size="11.00" fill="#000000">DBDOI</text>
<polygon fill="none" stroke="#000000" points="273.5,-547.7 273.5,-569.7 396.5,-569.7 396.5,-547.7 273.5,-547.7"/>
<image xlink:href="../../images/foreignKeys.png" width="11px" height="12px" preserveAspectRatio="xMinYMin meet" x="278.5" y="-564.7"/>
<text text-anchor="start" x="302.5" y="-554.8" font-family="Helvetica,sans-Serif" font-size="11.00" fill="#000000">SITEID</text>
<polygon fill="none" stroke="#000000" points="273.5,-525.7 273.5,-547.7 396.5,-547.7 396.5,-525.7 273.5,-525.7"/>
<image xlink:href="../../images/foreignKeys.png" width="11px" height="12px" preserveAspectRatio="xMinYMin meet" x="278.5" y="-542.7"/>
<text text-anchor="start" x="302.5" y="-532.8" font-family="Helvetica,sans-Serif" font-size="11.00" fill="#000000">METASITEID</text>
<polygon fill="none" stroke="#000000" points="273.5,-503.7 273.5,-525.7 396.5,-525.7 396.5,-503.7 273.5,-503.7"/>
<image xlink:href="../../images/foreignKeys.png" width="11px" height="12px" preserveAspectRatio="xMinYMin meet" x="278.5" y="-520.7"/>
<text text-anchor="start" x="302.5" y="-510.8" font-family="Helvetica,sans-Serif" font-size="11.00" fill="#000000">OAID</text>
<polygon fill="none" stroke="#000000" points="273.5,-481.7 273.5,-503.7 396.5,-503.7 396.5,-481.7 273.5,-481.7"/>
<image xlink:href="../../images/foreignKeys.png" width="11px" height="12px" preserveAspectRatio="xMinYMin meet" x="278.5" y="-498.7"/>
<text text-anchor="start" x="302.5" y="-488.8" font-family="Helvetica,sans-Serif" font-size="11.00" fill="#000000">PROJEPSGID</text>
<polygon fill="none" stroke="#000000" points="273.5,-459.7 273.5,-481.7 396.5,-481.7 396.5,-459.7 273.5,-459.7"/>
<image xlink:href="../../images/primaryKeys.png" width="11px" height="12px" preserveAspectRatio="xMinYMin meet" x="278.5" y="-476.7"/>
<text text-anchor="start" x="302.5" y="-466.8" font-family="Helvetica,sans-Serif" font-size="11.00" fill="#000000">id</text>
<polygon fill="none" stroke="#000000" points="273.5,-440.7 273.5,-459.7 396.5,-459.7 396.5,-440.7 273.5,-440.7"/>
<text text-anchor="start" x="276.5" y="-446.8" font-family="Helvetica,sans-Serif" font-size="11.00" fill="#000000">...</text>
<polygon fill="#ffffff" stroke="transparent" points="273.5,-421.7 273.5,-440.7 309.5,-440.7 309.5,-421.7 273.5,-421.7"/>
<polygon fill="none" stroke="#000000" points="273.5,-421.7 273.5,-440.7 309.5,-440.7 309.5,-421.7 273.5,-421.7"/>
<text text-anchor="start" x="276.5" y="-427.8" font-family="Helvetica,sans-Serif" font-size="11.00" fill="#000000">&lt; 5</text>
<polygon fill="#ffffff" stroke="transparent" points="309.5,-421.7 309.5,-440.7 376.5,-440.7 376.5,-421.7 309.5,-421.7"/>
<polygon fill="none" stroke="#000000" points="309.5,-421.7 309.5,-440.7 376.5,-440.7 376.5,-421.7 309.5,-421.7"/>
<text text-anchor="start" x="319.7089" y="-427.8" font-family="Helvetica,sans-Serif" font-size="11.00" fill="#000000">5.376 rows</text>
<polygon fill="#ffffff" stroke="transparent" points="376.5,-421.7 376.5,-440.7 396.5,-440.7 396.5,-421.7 376.5,-421.7"/>
<polygon fill="none" stroke="#000000" points="376.5,-421.7 376.5,-440.7 396.5,-440.7 396.5,-421.7 376.5,-421.7"/>
<text text-anchor="start" x="387.3862" y="-427.8" font-family="Helvetica,sans-Serif" font-size="11.00" fill="#000000"> &#160;</text>
</a>
</g>
</g>
<!-- crn_int_basins&#45;&gt;crn_projepsgID -->
<g id="edge3" class="edge">
<title>crn_int_basins:w&#45;&gt;crn_projepsgID:e</title>
<path fill="none" stroke="#000000" stroke-dasharray="5,2" d="M258.92,-492.7C242.2931,-492.7 233.4583,-492.7 211.5,-492.7"/>
<polygon fill="#000000" stroke="#000000" points="265.5,-492.7001 273.5,-496.3 269.5,-492.7 273.5,-492.7 273.5,-492.7 273.5,-492.7 269.5,-492.7 273.5,-489.1 265.5,-492.7001 265.5,-492.7001"/>
<ellipse fill="none" stroke="#000000" cx="262.3" cy="-492.7001" rx="3.2" ry="3.2"/>
</g>
<!-- crn_Sample -->
<g id="node5" class="node">
<title>crn_Sample</title>
<g id="a_node5"><a xlink:href="../../tables/crn_Sample.html" xlink:title="crn_Sample" target="_top">
<polygon fill="#ffffff" stroke="transparent" points="281,-252.2 281,-401.2 388,-401.2 388,-252.2 281,-252.2"/>
<polygon fill="#f5f5f5" stroke="transparent" points="281.5,-377.7 281.5,-400.7 388.5,-400.7 388.5,-377.7 281.5,-377.7"/>
<polygon fill="none" stroke="#000000" points="281.5,-377.7 281.5,-400.7 388.5,-400.7 388.5,-377.7 281.5,-377.7"/>
<text text-anchor="start" x="286.5" y="-386.3" font-family="Helvetica,sans-Serif" font-weight="bold" font-size="11.00" fill="#000000">crn_Sample</text>
<text text-anchor="start" x="354.0219" y="-385.8" font-family="Helvetica,sans-Serif" font-size="11.00" fill="#000000">[table]</text>
<polygon fill="none" stroke="#000000" points="281.5,-355.7 281.5,-377.7 388.5,-377.7 388.5,-355.7 281.5,-355.7"/>
<image xlink:href="../../images/primaryKeys.png" width="11px" height="12px" preserveAspectRatio="xMinYMin meet" x="286.5" y="-372.7"/>
<text text-anchor="start" x="304.5" y="-362.8" font-family="Helvetica,sans-Serif" font-size="11.00" fill="#000000">SMPID</text>
<polygon fill="none" stroke="#000000" points="281.5,-333.7 281.5,-355.7 388.5,-355.7 388.5,-333.7 281.5,-333.7"/>
<image xlink:href="../../images/foreignKeys.png" width="11px" height="12px" preserveAspectRatio="xMinYMin meet" x="286.5" y="-350.7"/>
<text text-anchor="start" x="304.5" y="-340.8" font-family="Helvetica,sans-Serif" font-size="11.00" fill="#000000">SITEID</text>
<polygon fill="none" stroke="#000000" points="281.5,-311.7 281.5,-333.7 388.5,-333.7 388.5,-311.7 281.5,-311.7"/>
<image xlink:href="../../images/foreignKeys.png" width="11px" height="12px" preserveAspectRatio="xMinYMin meet" x="286.5" y="-328.7"/>
<text text-anchor="start" x="304.5" y="-318.8" font-family="Helvetica,sans-Serif" font-size="11.00" fill="#000000">MATERIAL</text>
<polygon fill="none" stroke="#000000" points="281.5,-289.7 281.5,-311.7 388.5,-311.7 388.5,-289.7 281.5,-289.7"/>
<image xlink:href="../../images/foreignKeys.png" width="11px" height="12px" preserveAspectRatio="xMinYMin meet" x="286.5" y="-306.7"/>
<text text-anchor="start" x="304.5" y="-296.8" font-family="Helvetica,sans-Serif" font-size="11.00" fill="#000000">PROJEPSGID</text>
<polygon fill="none" stroke="#000000" points="281.5,-270.7 281.5,-289.7 388.5,-289.7 388.5,-270.7 281.5,-270.7"/>
<text text-anchor="start" x="284.5" y="-276.8" font-family="Helvetica,sans-Serif" font-size="11.00" fill="#000000">...</text>
<polygon fill="#ffffff" stroke="transparent" points="281.5,-251.7 281.5,-270.7 305.5,-270.7 305.5,-251.7 281.5,-251.7"/>
<polygon fill="none" stroke="#000000" points="281.5,-251.7 281.5,-270.7 305.5,-270.7 305.5,-251.7 281.5,-251.7"/>
<text text-anchor="start" x="284.5" y="-257.8" font-family="Helvetica,sans-Serif" font-size="11.00" fill="#000000">&lt; 3</text>
<polygon fill="#ffffff" stroke="transparent" points="305.5,-251.7 305.5,-270.7 365.5,-270.7 365.5,-251.7 305.5,-251.7"/>
<polygon fill="none" stroke="#000000" points="305.5,-251.7 305.5,-270.7 365.5,-270.7 365.5,-251.7 305.5,-251.7"/>
<text text-anchor="start" x="308.7089" y="-257.8" font-family="Helvetica,sans-Serif" font-size="11.00" fill="#000000">6.039 rows</text>
<polygon fill="#ffffff" stroke="transparent" points="365.5,-251.7 365.5,-270.7 388.5,-270.7 388.5,-251.7 365.5,-251.7"/>
<polygon fill="none" stroke="#000000" points="365.5,-251.7 365.5,-270.7 388.5,-270.7 388.5,-251.7 365.5,-251.7"/>
<text text-anchor="start" x="369.9053" y="-257.8" font-family="Helvetica,sans-Serif" font-size="11.00" fill="#000000">2 &gt;</text>
</a>
</g>
</g>
<!-- crn_Sample&#45;&gt;crn_projepsgID -->
<g id="edge4" class="edge">
<title>crn_Sample:w&#45;&gt;crn_projepsgID:e</title>
<path fill="none" stroke="#000000" d="M267.139,-302.7263C203.4507,-323.2461 296.8284,-492.7 211.5,-492.7"/>
<polygon fill="#000000" stroke="#000000" points="273.5785,-301.8178 282.003,-304.2647 277.5392,-301.2589 281.5,-300.7 281.5,-300.7 281.5,-300.7 277.5392,-301.2589 280.997,-297.1353 273.5785,-301.8178 273.5785,-301.8178"/>
<ellipse fill="none" stroke="#000000" cx="270.4099" cy="-302.2649" rx="3.2" ry="3.2"/>
</g>
<!-- crn_xxl_basins -->
<g id="node6" class="node">
<title>crn_xxl_basins</title>
<g id="a_node6"><a xlink:href="../../tables/crn_xxl_basins.html" xlink:title="crn_xxl_basins" target="_top">
<polygon fill="#ffffff" stroke="transparent" points="272,-38.2 272,-231.2 397,-231.2 397,-38.2 272,-38.2"/>
<polygon fill="#f5f5f5" stroke="transparent" points="272.5,-207.7 272.5,-230.7 397.5,-230.7 397.5,-207.7 272.5,-207.7"/>
<polygon fill="none" stroke="#000000" points="272.5,-207.7 272.5,-230.7 397.5,-230.7 397.5,-207.7 272.5,-207.7"/>
<text text-anchor="start" x="277.5" y="-216.3" font-family="Helvetica,sans-Serif" font-weight="bold" font-size="11.00" fill="#000000">crn_xxl_basins</text>
<text text-anchor="start" x="363.0219" y="-215.8" font-family="Helvetica,sans-Serif" font-size="11.00" fill="#000000">[table]</text>
<polygon fill="none" stroke="#000000" points="272.5,-185.7 272.5,-207.7 397.5,-207.7 397.5,-185.7 272.5,-185.7"/>
<image xlink:href="../../images/foreignKeys.png" width="11px" height="12px" preserveAspectRatio="xMinYMin meet" x="277.5" y="-202.7"/>
<text text-anchor="start" x="301.5" y="-192.8" font-family="Helvetica,sans-Serif" font-size="11.00" fill="#000000">DBDOI</text>
<polygon fill="none" stroke="#000000" points="272.5,-163.7 272.5,-185.7 397.5,-185.7 397.5,-163.7 272.5,-163.7"/>
<image xlink:href="../../images/foreignKeys.png" width="11px" height="12px" preserveAspectRatio="xMinYMin meet" x="277.5" y="-180.7"/>
<text text-anchor="start" x="301.5" y="-170.8" font-family="Helvetica,sans-Serif" font-size="11.00" fill="#000000">SITEID</text>
<polygon fill="none" stroke="#000000" points="272.5,-141.7 272.5,-163.7 397.5,-163.7 397.5,-141.7 272.5,-141.7"/>
<image xlink:href="../../images/foreignKeys.png" width="11px" height="12px" preserveAspectRatio="xMinYMin meet" x="277.5" y="-158.7"/>
<text text-anchor="start" x="301.5" y="-148.8" font-family="Helvetica,sans-Serif" font-size="11.00" fill="#000000">METASITEID</text>
<polygon fill="none" stroke="#000000" points="272.5,-119.7 272.5,-141.7 397.5,-141.7 397.5,-119.7 272.5,-119.7"/>
<image xlink:href="../../images/foreignKeys.png" width="11px" height="12px" preserveAspectRatio="xMinYMin meet" x="277.5" y="-136.7"/>
<text text-anchor="start" x="301.5" y="-126.8" font-family="Helvetica,sans-Serif" font-size="11.00" fill="#000000">OAID</text>
<polygon fill="none" stroke="#000000" points="272.5,-97.7 272.5,-119.7 397.5,-119.7 397.5,-97.7 272.5,-97.7"/>
<image xlink:href="../../images/foreignKeys.png" width="11px" height="12px" preserveAspectRatio="xMinYMin meet" x="277.5" y="-114.7"/>
<text text-anchor="start" x="301.5" y="-104.8" font-family="Helvetica,sans-Serif" font-size="11.00" fill="#000000">PROJEPSGID</text>
<polygon fill="none" stroke="#000000" points="272.5,-75.7 272.5,-97.7 397.5,-97.7 397.5,-75.7 272.5,-75.7"/>
<image xlink:href="../../images/primaryKeys.png" width="11px" height="12px" preserveAspectRatio="xMinYMin meet" x="277.5" y="-92.7"/>
<text text-anchor="start" x="301.5" y="-82.8" font-family="Helvetica,sans-Serif" font-size="11.00" fill="#000000">id</text>
<polygon fill="none" stroke="#000000" points="272.5,-56.7 272.5,-75.7 397.5,-75.7 397.5,-56.7 272.5,-56.7"/>
<text text-anchor="start" x="275.5" y="-62.8" font-family="Helvetica,sans-Serif" font-size="11.00" fill="#000000">...</text>
<polygon fill="#ffffff" stroke="transparent" points="272.5,-37.7 272.5,-56.7 314.5,-56.7 314.5,-37.7 272.5,-37.7"/>
<polygon fill="none" stroke="#000000" points="272.5,-37.7 272.5,-56.7 314.5,-56.7 314.5,-37.7 272.5,-37.7"/>
<text text-anchor="start" x="275.5" y="-43.8" font-family="Helvetica,sans-Serif" font-size="11.00" fill="#000000">&lt; 5</text>
<polygon fill="#ffffff" stroke="transparent" points="314.5,-37.7 314.5,-56.7 374.5,-56.7 374.5,-37.7 314.5,-37.7"/>
<polygon fill="none" stroke="#000000" points="314.5,-37.7 314.5,-56.7 374.5,-56.7 374.5,-37.7 314.5,-37.7"/>
<text text-anchor="start" x="326.8807" y="-43.8" font-family="Helvetica,sans-Serif" font-size="11.00" fill="#000000">261 rows</text>
<polygon fill="#ffffff" stroke="transparent" points="374.5,-37.7 374.5,-56.7 397.5,-56.7 397.5,-37.7 374.5,-37.7"/>
<polygon fill="none" stroke="#000000" points="374.5,-37.7 374.5,-56.7 397.5,-56.7 397.5,-37.7 374.5,-37.7"/>
<text text-anchor="start" x="388.3862" y="-43.8" font-family="Helvetica,sans-Serif" font-size="11.00" fill="#000000"> &#160;</text>
</a>
</g>
</g>
<!-- crn_xxl_basins&#45;&gt;crn_projepsgID -->
<g id="edge5" class="edge">
<title>crn_xxl_basins:w&#45;&gt;crn_projepsgID:e</title>
<path fill="none" stroke="#000000" stroke-dasharray="5,2" d="M258.5254,-113.0125C199.2983,-155.2 292.5031,-492.7 211.5,-492.7"/>
<polygon fill="#000000" stroke="#000000" points="264.8557,-111.059 273.5616,-112.1399 268.6779,-109.8795 272.5,-108.7 272.5,-108.7 272.5,-108.7 268.6779,-109.8795 271.4384,-105.2601 264.8557,-111.059 264.8557,-111.059"/>
<ellipse fill="none" stroke="#000000" cx="261.798" cy="-112.0026" rx="3.2" ry="3.2"/>
</g>
</g>
</svg>
