<?xml version="1.0" encoding="UTF-8" standalone="no"?>
<!DOCTYPE svg PUBLIC "-//W3C//DTD SVG 1.1//EN"
 "http://www.w3.org/Graphics/SVG/1.1/DTD/svg11.dtd">
<!-- Generated by graphviz version 2.40.1 (20161225.0304)
 -->
<!-- Title: oneDegreeRelationshipsDiagram Pages: 1 -->
<svg width="542pt" height="369pt"
 viewBox="0.00 0.00 542.00 369.20" xmlns="http://www.w3.org/2000/svg" xmlns:xlink="http://www.w3.org/1999/xlink">
<g id="graph0" class="graph" transform="scale(1 1) rotate(0) translate(4 365.2)">
<title>oneDegreeRelationshipsDiagram</title>
<polygon fill="#ffffff" stroke="transparent" points="-4,4 -4,-365.2 538,-365.2 538,4 -4,4"/>
<text text-anchor="middle" x="72.4936" y="-7.3" font-family="Helvetica,sans-Serif" font-size="11.00" fill="#000000">Generated by SchemaSpy</text>
<!-- crn_v3_basins_EPSG3857 -->
<g id="node1" class="node">
<title>crn_v3_basins_EPSG3857</title>
<g id="a_node1"><a xlink:href="../../tables/crn_v3_basins_EPSG3857.html" xlink:title="crn_v3_basins_EPSG3857" target="_top">
<polygon fill="#ffffff" stroke="transparent" points="351,-208.2 351,-357.2 526,-357.2 526,-208.2 351,-208.2"/>
<polygon fill="#f5f5f5" stroke="transparent" points="351.5,-333.7 351.5,-356.7 526.5,-356.7 526.5,-333.7 351.5,-333.7"/>
<polygon fill="none" stroke="#000000" points="351.5,-333.7 351.5,-356.7 526.5,-356.7 526.5,-333.7 351.5,-333.7"/>
<text text-anchor="start" x="356.4769" y="-342.8" font-family="Helvetica,sans-Serif" font-weight="bold" font-size="11.00" fill="#000000">crn_v3_basins_EPSG3857</text>
<text text-anchor="start" x="492.0219" y="-341.8" font-family="Helvetica,sans-Serif" font-size="11.00" fill="#000000">[table]</text>
<polygon fill="none" stroke="#000000" points="351.5,-311.7 351.5,-333.7 526.5,-333.7 526.5,-311.7 351.5,-311.7"/>
<image xlink:href="../../images/primaryKeys.png" width="11px" height="12px" preserveAspectRatio="xMinYMin meet" x="356.5" y="-328.7"/>
<text text-anchor="start" x="373.5" y="-318.8" font-family="Helvetica,sans-Serif" font-size="11.00" fill="#000000">id</text>
<polygon fill="#ffffff" stroke="transparent" points="351.5,-289.7 351.5,-311.7 526.5,-311.7 526.5,-289.7 351.5,-289.7"/>
<polygon fill="none" stroke="#000000" points="351.5,-289.7 351.5,-311.7 526.5,-311.7 526.5,-289.7 351.5,-289.7"/>
<text text-anchor="start" x="373.5" y="-296.8" font-family="Helvetica,sans-Serif" font-size="11.00" fill="#000000">geom</text>
<polygon fill="none" stroke="#000000" points="351.5,-267.7 351.5,-289.7 526.5,-289.7 526.5,-267.7 351.5,-267.7"/>
<image xlink:href="../../images/primaryKeys.png" width="11px" height="12px" preserveAspectRatio="xMinYMin meet" x="356.5" y="-284.7"/>
<text text-anchor="start" x="373.5" y="-274.8" font-family="Helvetica,sans-Serif" font-size="11.00" fill="#000000">OBSID1</text>
<polygon fill="none" stroke="#000000" points="351.5,-245.7 351.5,-267.7 526.5,-267.7 526.5,-245.7 351.5,-245.7"/>
<image xlink:href="../../images/foreignKeys.png" width="11px" height="12px" preserveAspectRatio="xMinYMin meet" x="356.5" y="-262.7"/>
<text text-anchor="start" x="373.5" y="-252.8" font-family="Helvetica,sans-Serif" font-size="11.00" fill="#000000">STUDYID</text>
<polygon fill="none" stroke="#000000" points="351.5,-226.7 351.5,-245.7 526.5,-245.7 526.5,-226.7 351.5,-226.7"/>
<text text-anchor="start" x="354.5" y="-232.8" font-family="Helvetica,sans-Serif" font-size="11.00" fill="#000000">...</text>
<polygon fill="#ffffff" stroke="transparent" points="351.5,-207.7 351.5,-226.7 413.5,-226.7 413.5,-207.7 351.5,-207.7"/>
<polygon fill="none" stroke="#000000" points="351.5,-207.7 351.5,-226.7 413.5,-226.7 413.5,-207.7 351.5,-207.7"/>
<text text-anchor="start" x="354.5" y="-213.8" font-family="Helvetica,sans-Serif" font-size="11.00" fill="#000000">&lt; 3</text>
<polygon fill="#ffffff" stroke="transparent" points="413.5,-207.7 413.5,-226.7 493.5,-226.7 493.5,-207.7 413.5,-207.7"/>
<polygon fill="none" stroke="#000000" points="413.5,-207.7 413.5,-226.7 493.5,-226.7 493.5,-207.7 413.5,-207.7"/>
<text text-anchor="start" x="436.7089" y="-213.8" font-family="Helvetica,sans-Serif" font-size="11.00" fill="#000000">4,631 rows</text>
<polygon fill="#ffffff" stroke="transparent" points="493.5,-207.7 493.5,-226.7 526.5,-226.7 526.5,-207.7 493.5,-207.7"/>
<polygon fill="none" stroke="#000000" points="493.5,-207.7 493.5,-226.7 526.5,-226.7 526.5,-207.7 493.5,-207.7"/>
<text text-anchor="start" x="517.3862" y="-213.8" font-family="Helvetica,sans-Serif" font-size="11.00" fill="#000000"> &#160;</text>
</a>
</g>
</g>
<!-- crn_studies_boundingbox -->
<g id="node2" class="node">
<title>crn_studies_boundingbox</title>
<g id="a_node2"><a xlink:href="../../tables/crn_studies_boundingbox.html" xlink:title="crn_studies_boundingbox" target="_top">
<polygon fill="#ffffff" stroke="transparent" points="8,-139.7 8,-251.7 302,-251.7 302,-139.7 8,-139.7"/>
<polygon fill="#f5f5f5" stroke="transparent" points="10,-226.7 10,-249.7 300,-249.7 300,-226.7 10,-226.7"/>
<polygon fill="none" stroke="#000000" points="10,-226.7 10,-249.7 300,-249.7 300,-226.7 10,-226.7"/>
<text text-anchor="start" x="15" y="-235.8" font-family="Helvetica,sans-Serif" font-weight="bold" font-size="11.00" fill="#000000">crn_studies_boundingbox</text>
<text text-anchor="start" x="265.0437" y="-234.8" font-family="Helvetica,sans-Serif" font-size="11.00" fill="#000000">[table]</text>
<polygon fill="none" stroke="#000000" points="10,-204.7 10,-226.7 181,-226.7 181,-204.7 10,-204.7"/>
<image xlink:href="../../images/primaryKeys.png" width="11px" height="12px" preserveAspectRatio="xMinYMin meet" x="15" y="-221.7"/>
<text text-anchor="start" x="30" y="-211.8" font-family="Helvetica,sans-Serif" font-size="11.00" fill="#000000">id</text>
<polygon fill="none" stroke="#000000" points="181,-204.7 181,-226.7 300,-226.7 300,-204.7 181,-204.7"/>
<text text-anchor="start" x="184" y="-212.4" font-family="Helvetica,sans-Serif" font-size="11.00" fill="#000000">serial[10]</text>
<polygon fill="#ffffff" stroke="transparent" points="10,-182.7 10,-204.7 181,-204.7 181,-182.7 10,-182.7"/>
<polygon fill="none" stroke="#000000" points="10,-182.7 10,-204.7 181,-204.7 181,-182.7 10,-182.7"/>
<text text-anchor="start" x="30" y="-189.8" font-family="Helvetica,sans-Serif" font-size="11.00" fill="#000000">geom</text>
<polygon fill="none" stroke="#000000" points="181,-182.7 181,-204.7 300,-204.7 300,-182.7 181,-182.7"/>
<text text-anchor="start" x="183.9485" y="-190.4" font-family="Helvetica,sans-Serif" font-size="11.00" fill="#000000">geometry[2147483647]</text>
<polygon fill="none" stroke="#000000" points="10,-160.7 10,-182.7 181,-182.7 181,-160.7 10,-160.7"/>
<image xlink:href="../../images/primaryKeys.png" width="11px" height="12px" preserveAspectRatio="xMinYMin meet" x="15" y="-177.7"/>
<text text-anchor="start" x="30" y="-167.8" font-family="Helvetica,sans-Serif" font-size="11.00" fill="#000000">STUDYID</text>
<polygon fill="none" stroke="#000000" points="181,-160.7 181,-182.7 300,-182.7 300,-160.7 181,-160.7"/>
<text text-anchor="start" x="184" y="-168.4" font-family="Helvetica,sans-Serif" font-size="11.00" fill="#000000">varchar[5]</text>
<polygon fill="#ffffff" stroke="transparent" points="10,-141.7 10,-160.7 81,-160.7 81,-141.7 10,-141.7"/>
<polygon fill="none" stroke="#000000" points="10,-141.7 10,-160.7 81,-160.7 81,-141.7 10,-141.7"/>
<text text-anchor="start" x="13" y="-147.8" font-family="Helvetica,sans-Serif" font-size="11.00" fill="#000000">&lt; 0</text>
<polygon fill="#ffffff" stroke="transparent" points="81,-141.7 81,-160.7 181,-160.7 181,-141.7 81,-141.7"/>
<polygon fill="none" stroke="#000000" points="81,-141.7 81,-160.7 181,-160.7 181,-141.7 81,-141.7"/>
<text text-anchor="start" x="133.3807" y="-147.8" font-family="Helvetica,sans-Serif" font-size="11.00" fill="#000000">233 rows</text>
<polygon fill="#ffffff" stroke="transparent" points="181,-141.7 181,-160.7 300,-160.7 300,-141.7 181,-141.7"/>
<polygon fill="none" stroke="#000000" points="181,-141.7 181,-160.7 300,-160.7 300,-141.7 181,-141.7"/>
<text text-anchor="start" x="281.4053" y="-147.8" font-family="Helvetica,sans-Serif" font-size="11.00" fill="#000000">2 &gt;</text>
<polygon fill="none" stroke="#000000" stroke-width="2" points="9,-140.7 9,-250.7 301,-250.7 301,-140.7 9,-140.7"/>
</a>
</g>
</g>
<!-- crn_v3_basins_EPSG3857&#45;&gt;crn_studies_boundingbox -->
<g id="edge1" class="edge">
<title>crn_v3_basins_EPSG3857:w&#45;&gt;crn_studies_boundingbox:e</title>
<path fill="none" stroke="#000000" d="M337.5119,-252.368C315.8888,-235.0466 338.1318,-171.7 300,-171.7"/>
<polygon fill="#000000" stroke="#000000" points="343.8581,-254.3333 350.435,-260.1389 347.679,-255.5167 351.5,-256.7 351.5,-256.7 351.5,-256.7 347.679,-255.5167 352.565,-253.2611 343.8581,-254.3333 343.8581,-254.3333"/>
<ellipse fill="none" stroke="#000000" cx="340.8013" cy="-253.3866" rx="3.2" ry="3.2"/>
</g>
<!-- crn_v3_outlets_EPSG3857 -->
<g id="node3" class="node">
<title>crn_v3_outlets_EPSG3857</title>
<g id="a_node3"><a xlink:href="../../tables/crn_v3_outlets_EPSG3857.html" xlink:title="crn_v3_outlets_EPSG3857" target="_top">
<polygon fill="#ffffff" stroke="transparent" points="351,-38.2 351,-187.2 526,-187.2 526,-38.2 351,-38.2"/>
<polygon fill="#f5f5f5" stroke="transparent" points="351.5,-163.7 351.5,-186.7 526.5,-186.7 526.5,-163.7 351.5,-163.7"/>
<polygon fill="none" stroke="#000000" points="351.5,-163.7 351.5,-186.7 526.5,-186.7 526.5,-163.7 351.5,-163.7"/>
<text text-anchor="start" x="356.17" y="-172.8" font-family="Helvetica,sans-Serif" font-weight="bold" font-size="11.00" fill="#000000">crn_v3_outlets_EPSG3857</text>
<text text-anchor="start" x="492.0219" y="-171.8" font-family="Helvetica,sans-Serif" font-size="11.00" fill="#000000">[table]</text>
<polygon fill="none" stroke="#000000" points="351.5,-141.7 351.5,-163.7 526.5,-163.7 526.5,-141.7 351.5,-141.7"/>
<image xlink:href="../../images/primaryKeys.png" width="11px" height="12px" preserveAspectRatio="xMinYMin meet" x="356.5" y="-158.7"/>
<text text-anchor="start" x="373.5" y="-148.8" font-family="Helvetica,sans-Serif" font-size="11.00" fill="#000000">id</text>
<polygon fill="#ffffff" stroke="transparent" points="351.5,-119.7 351.5,-141.7 526.5,-141.7 526.5,-119.7 351.5,-119.7"/>
<polygon fill="none" stroke="#000000" points="351.5,-119.7 351.5,-141.7 526.5,-141.7 526.5,-119.7 351.5,-119.7"/>
<text text-anchor="start" x="373.5" y="-126.8" font-family="Helvetica,sans-Serif" font-size="11.00" fill="#000000">geom</text>
<polygon fill="none" stroke="#000000" points="351.5,-97.7 351.5,-119.7 526.5,-119.7 526.5,-97.7 351.5,-97.7"/>
<image xlink:href="../../images/primaryKeys.png" width="11px" height="12px" preserveAspectRatio="xMinYMin meet" x="356.5" y="-114.7"/>
<text text-anchor="start" x="373.5" y="-104.8" font-family="Helvetica,sans-Serif" font-size="11.00" fill="#000000">OBSID1</text>
<polygon fill="none" stroke="#000000" points="351.5,-75.7 351.5,-97.7 526.5,-97.7 526.5,-75.7 351.5,-75.7"/>
<image xlink:href="../../images/foreignKeys.png" width="11px" height="12px" preserveAspectRatio="xMinYMin meet" x="356.5" y="-92.7"/>
<text text-anchor="start" x="373.5" y="-82.8" font-family="Helvetica,sans-Serif" font-size="11.00" fill="#000000">STUDYID</text>
<polygon fill="none" stroke="#000000" points="351.5,-56.7 351.5,-75.7 526.5,-75.7 526.5,-56.7 351.5,-56.7"/>
<text text-anchor="start" x="354.5" y="-62.8" font-family="Helvetica,sans-Serif" font-size="11.00" fill="#000000">...</text>
<polygon fill="#ffffff" stroke="transparent" points="351.5,-37.7 351.5,-56.7 413.5,-56.7 413.5,-37.7 351.5,-37.7"/>
<polygon fill="none" stroke="#000000" points="351.5,-37.7 351.5,-56.7 413.5,-56.7 413.5,-37.7 351.5,-37.7"/>
<text text-anchor="start" x="354.5" y="-43.8" font-family="Helvetica,sans-Serif" font-size="11.00" fill="#000000">&lt; 3</text>
<polygon fill="#ffffff" stroke="transparent" points="413.5,-37.7 413.5,-56.7 493.5,-56.7 493.5,-37.7 413.5,-37.7"/>
<polygon fill="none" stroke="#000000" points="413.5,-37.7 413.5,-56.7 493.5,-56.7 493.5,-37.7 413.5,-37.7"/>
<text text-anchor="start" x="436.7089" y="-43.8" font-family="Helvetica,sans-Serif" font-size="11.00" fill="#000000">4,631 rows</text>
<polygon fill="#ffffff" stroke="transparent" points="493.5,-37.7 493.5,-56.7 526.5,-56.7 526.5,-37.7 493.5,-37.7"/>
<polygon fill="none" stroke="#000000" points="493.5,-37.7 493.5,-56.7 526.5,-56.7 526.5,-37.7 493.5,-37.7"/>
<text text-anchor="start" x="517.3862" y="-43.8" font-family="Helvetica,sans-Serif" font-size="11.00" fill="#000000"> &#160;</text>
</a>
</g>
</g>
<!-- crn_v3_outlets_EPSG3857&#45;&gt;crn_studies_boundingbox -->
<g id="edge2" class="edge">
<title>crn_v3_outlets_EPSG3857:w&#45;&gt;crn_studies_boundingbox:e</title>
<path fill="none" stroke="#000000" d="M337.5119,-91.032C315.8888,-108.3534 338.1318,-171.7 300,-171.7"/>
<polygon fill="#000000" stroke="#000000" points="343.8581,-89.0667 352.565,-90.1389 347.679,-87.8833 351.5,-86.7 351.5,-86.7 351.5,-86.7 347.679,-87.8833 350.435,-83.2611 343.8581,-89.0667 343.8581,-89.0667"/>
<ellipse fill="none" stroke="#000000" cx="340.8013" cy="-90.0134" rx="3.2" ry="3.2"/>
</g>
</g>
</svg>
