<?xml version="1.0" encoding="UTF-8" standalone="no"?>
<!DOCTYPE svg PUBLIC "-//W3C//DTD SVG 1.1//EN"
 "http://www.w3.org/Graphics/SVG/1.1/DTD/svg11.dtd">
<!-- Generated by graphviz version 2.40.1 (20161225.0304)
 -->
<!-- Title: oneDegreeRelationshipsDiagramImplied Pages: 1 -->
<svg width="423pt" height="901pt"
 viewBox="0.00 0.00 423.00 901.20" xmlns="http://www.w3.org/2000/svg" xmlns:xlink="http://www.w3.org/1999/xlink">
<g id="graph0" class="graph" transform="scale(1 1) rotate(0) translate(4 897.2)">
<title>oneDegreeRelationshipsDiagramImplied</title>
<polygon fill="#ffffff" stroke="transparent" points="-4,4 -4,-897.2 419,-897.2 419,4 -4,4"/>
<text text-anchor="middle" x="72.4936" y="-7.3" font-family="Helvetica,sans-Serif" font-size="11.00" fill="#000000">Generated by SchemaSpy</text>
<!-- crn_aus_basins -->
<g id="node1" class="node">
<title>crn_aus_basins</title>
<g id="a_node1"><a xlink:href="../../tables/crn_aus_basins.html" xlink:title="crn_aus_basins" target="_top">
<polygon fill="#ffffff" stroke="transparent" points="270,-718.2 270,-889.2 399,-889.2 399,-718.2 270,-718.2"/>
<polygon fill="#f5f5f5" stroke="transparent" points="270.5,-865.7 270.5,-888.7 399.5,-888.7 399.5,-865.7 270.5,-865.7"/>
<polygon fill="none" stroke="#000000" points="270.5,-865.7 270.5,-888.7 399.5,-888.7 399.5,-865.7 270.5,-865.7"/>
<text text-anchor="start" x="275.5" y="-874.3" font-family="Helvetica,sans-Serif" font-weight="bold" font-size="11.00" fill="#000000">crn_aus_basins</text>
<text text-anchor="start" x="365.0219" y="-873.8" font-family="Helvetica,sans-Serif" font-size="11.00" fill="#000000">[table]</text>
<polygon fill="none" stroke="#000000" points="270.5,-843.7 270.5,-865.7 399.5,-865.7 399.5,-843.7 270.5,-843.7"/>
<image xlink:href="../../images/foreignKeys.png" width="11px" height="12px" preserveAspectRatio="xMinYMin meet" x="275.5" y="-860.7"/>
<text text-anchor="start" x="299.5" y="-850.8" font-family="Helvetica,sans-Serif" font-size="11.00" fill="#000000">STUDYID</text>
<polygon fill="none" stroke="#000000" points="270.5,-821.7 270.5,-843.7 399.5,-843.7 399.5,-821.7 270.5,-821.7"/>
<image xlink:href="../../images/foreignKeys.png" width="11px" height="12px" preserveAspectRatio="xMinYMin meet" x="275.5" y="-838.7"/>
<text text-anchor="start" x="299.5" y="-828.8" font-family="Helvetica,sans-Serif" font-size="11.00" fill="#000000">DBDOI</text>
<polygon fill="none" stroke="#000000" points="270.5,-799.7 270.5,-821.7 399.5,-821.7 399.5,-799.7 270.5,-799.7"/>
<image xlink:href="../../images/foreignKeys.png" width="11px" height="12px" preserveAspectRatio="xMinYMin meet" x="275.5" y="-816.7"/>
<text text-anchor="start" x="299.5" y="-806.8" font-family="Helvetica,sans-Serif" font-size="11.00" fill="#000000">OAID</text>
<polygon fill="none" stroke="#000000" points="270.5,-777.7 270.5,-799.7 399.5,-799.7 399.5,-777.7 270.5,-777.7"/>
<image xlink:href="../../images/foreignKeys.png" width="11px" height="12px" preserveAspectRatio="xMinYMin meet" x="275.5" y="-794.7"/>
<text text-anchor="start" x="299.5" y="-784.8" font-family="Helvetica,sans-Serif" font-size="11.00" fill="#000000">PROJEPSGID</text>
<polygon fill="none" stroke="#000000" points="270.5,-755.7 270.5,-777.7 399.5,-777.7 399.5,-755.7 270.5,-755.7"/>
<image xlink:href="../../images/primaryKeys.png" width="11px" height="12px" preserveAspectRatio="xMinYMin meet" x="275.5" y="-772.7"/>
<text text-anchor="start" x="299.5" y="-762.8" font-family="Helvetica,sans-Serif" font-size="11.00" fill="#000000">id</text>
<polygon fill="none" stroke="#000000" points="270.5,-736.7 270.5,-755.7 399.5,-755.7 399.5,-736.7 270.5,-736.7"/>
<text text-anchor="start" x="273.5" y="-742.8" font-family="Helvetica,sans-Serif" font-size="11.00" fill="#000000">...</text>
<polygon fill="#ffffff" stroke="transparent" points="270.5,-717.7 270.5,-736.7 314.5,-736.7 314.5,-717.7 270.5,-717.7"/>
<polygon fill="none" stroke="#000000" points="270.5,-717.7 270.5,-736.7 314.5,-736.7 314.5,-717.7 270.5,-717.7"/>
<text text-anchor="start" x="273.5" y="-723.8" font-family="Helvetica,sans-Serif" font-size="11.00" fill="#000000">&lt; 4</text>
<polygon fill="#ffffff" stroke="transparent" points="314.5,-717.7 314.5,-736.7 375.5,-736.7 375.5,-717.7 314.5,-717.7"/>
<polygon fill="none" stroke="#000000" points="314.5,-717.7 314.5,-736.7 375.5,-736.7 375.5,-717.7 314.5,-717.7"/>
<text text-anchor="start" x="327.8807" y="-723.8" font-family="Helvetica,sans-Serif" font-size="11.00" fill="#000000">297 rows</text>
<polygon fill="#ffffff" stroke="transparent" points="375.5,-717.7 375.5,-736.7 399.5,-736.7 399.5,-717.7 375.5,-717.7"/>
<polygon fill="none" stroke="#000000" points="375.5,-717.7 375.5,-736.7 399.5,-736.7 399.5,-717.7 375.5,-717.7"/>
<text text-anchor="start" x="390.3862" y="-723.8" font-family="Helvetica,sans-Serif" font-size="11.00" fill="#000000"> &#160;</text>
</a>
</g>
</g>
<!-- crn_projepsgID -->
<g id="node2" class="node">
<title>crn_projepsgID</title>
<g id="a_node2"><a xlink:href="../../tables/crn_projepsgID.html" xlink:title="crn_projepsgID" target="_top">
<polygon fill="#ffffff" stroke="transparent" points="8,-350.7 8,-484.7 213,-484.7 213,-350.7 8,-350.7"/>
<polygon fill="#f5f5f5" stroke="transparent" points="10.5,-459.7 10.5,-482.7 211.5,-482.7 211.5,-459.7 10.5,-459.7"/>
<polygon fill="none" stroke="#000000" points="10.5,-459.7 10.5,-482.7 211.5,-482.7 211.5,-459.7 10.5,-459.7"/>
<text text-anchor="start" x="15.5" y="-468.3" font-family="Helvetica,sans-Serif" font-weight="bold" font-size="11.00" fill="#000000">crn_projepsgID</text>
<text text-anchor="start" x="176.5437" y="-467.8" font-family="Helvetica,sans-Serif" font-size="11.00" fill="#000000">[table]</text>
<polygon fill="none" stroke="#000000" points="10.5,-437.7 10.5,-459.7 119.5,-459.7 119.5,-437.7 10.5,-437.7"/>
<image xlink:href="../../images/primaryKeys.png" width="11px" height="12px" preserveAspectRatio="xMinYMin meet" x="15.5" y="-454.7"/>
<text text-anchor="start" x="30.5" y="-444.8" font-family="Helvetica,sans-Serif" font-size="11.00" fill="#000000">PROJEPSGID</text>
<polygon fill="none" stroke="#000000" points="119.5,-437.7 119.5,-459.7 211.5,-459.7 211.5,-437.7 119.5,-437.7"/>
<text text-anchor="start" x="122.5" y="-445.4" font-family="Helvetica,sans-Serif" font-size="11.00" fill="#000000">int2[5]</text>
<polygon fill="none" stroke="#000000" points="10.5,-415.7 10.5,-437.7 119.5,-437.7 119.5,-415.7 10.5,-415.7"/>
<text text-anchor="start" x="30.5" y="-422.8" font-family="Helvetica,sans-Serif" font-size="11.00" fill="#000000">PROJECTION</text>
<polygon fill="none" stroke="#000000" points="119.5,-415.7 119.5,-437.7 211.5,-437.7 211.5,-415.7 119.5,-415.7"/>
<text text-anchor="start" x="122.5" y="-423.4" font-family="Helvetica,sans-Serif" font-size="11.00" fill="#000000">varchar[13]</text>
<polygon fill="none" stroke="#000000" points="10.5,-393.7 10.5,-415.7 119.5,-415.7 119.5,-393.7 10.5,-393.7"/>
<text text-anchor="start" x="30.5" y="-400.8" font-family="Helvetica,sans-Serif" font-size="11.00" fill="#000000">CREATED_AT</text>
<polygon fill="none" stroke="#000000" points="119.5,-393.7 119.5,-415.7 211.5,-415.7 211.5,-393.7 119.5,-393.7"/>
<text text-anchor="start" x="122.1023" y="-401.4" font-family="Helvetica,sans-Serif" font-size="11.00" fill="#000000">timestamptz[35,6]</text>
<polygon fill="none" stroke="#000000" points="10.5,-371.7 10.5,-393.7 119.5,-393.7 119.5,-371.7 10.5,-371.7"/>
<text text-anchor="start" x="30.5" y="-378.8" font-family="Helvetica,sans-Serif" font-size="11.00" fill="#000000">UPDATED_AT</text>
<polygon fill="none" stroke="#000000" points="119.5,-371.7 119.5,-393.7 211.5,-393.7 211.5,-371.7 119.5,-371.7"/>
<text text-anchor="start" x="122.1023" y="-379.4" font-family="Helvetica,sans-Serif" font-size="11.00" fill="#000000">timestamptz[35,6]</text>
<polygon fill="#ffffff" stroke="transparent" points="10.5,-352.7 10.5,-371.7 50.5,-371.7 50.5,-352.7 10.5,-352.7"/>
<polygon fill="none" stroke="#000000" points="10.5,-352.7 10.5,-371.7 50.5,-371.7 50.5,-352.7 10.5,-352.7"/>
<text text-anchor="start" x="13.5" y="-358.8" font-family="Helvetica,sans-Serif" font-size="11.00" fill="#000000">&lt; 0</text>
<polygon fill="#ffffff" stroke="transparent" points="50.5,-352.7 50.5,-371.7 119.5,-371.7 119.5,-352.7 50.5,-352.7"/>
<polygon fill="none" stroke="#000000" points="50.5,-352.7 50.5,-371.7 119.5,-371.7 119.5,-352.7 50.5,-352.7"/>
<text text-anchor="start" x="71.8807" y="-358.8" font-family="Helvetica,sans-Serif" font-size="11.00" fill="#000000">121 rows</text>
<polygon fill="#ffffff" stroke="transparent" points="119.5,-352.7 119.5,-371.7 211.5,-371.7 211.5,-352.7 119.5,-352.7"/>
<polygon fill="none" stroke="#000000" points="119.5,-352.7 119.5,-371.7 211.5,-371.7 211.5,-352.7 119.5,-352.7"/>
<text text-anchor="start" x="192.9053" y="-358.8" font-family="Helvetica,sans-Serif" font-size="11.00" fill="#000000">5 &gt;</text>
<polygon fill="none" stroke="#000000" stroke-width="2" points="9,-351.7 9,-483.7 212,-483.7 212,-351.7 9,-351.7"/>
</a>
</g>
</g>
<!-- crn_aus_basins&#45;&gt;crn_projepsgID -->
<g id="edge1" class="edge">
<title>crn_aus_basins:w&#45;&gt;crn_projepsgID:e</title>
<path fill="none" stroke="#000000" stroke-dasharray="5,2" d="M256.7424,-783.8937C206.2403,-742.5684 282.7928,-448.7 211.5,-448.7"/>
<polygon fill="#000000" stroke="#000000" points="262.9476,-786.0615 269.3127,-792.0986 266.7238,-787.3807 270.5,-788.7 270.5,-788.7 270.5,-788.7 266.7238,-787.3807 271.6873,-785.3014 262.9476,-786.0615 262.9476,-786.0615"/>
<ellipse fill="none" stroke="#000000" cx="259.9267" cy="-785.0061" rx="3.2" ry="3.2"/>
</g>
<!-- crn_inprep_basins -->
<g id="node3" class="node">
<title>crn_inprep_basins</title>
<g id="a_node3"><a xlink:href="../../tables/crn_inprep_basins.html" xlink:title="crn_inprep_basins" target="_top">
<polygon fill="#ffffff" stroke="transparent" points="262,-570.2 262,-697.2 407,-697.2 407,-570.2 262,-570.2"/>
<polygon fill="#f5f5f5" stroke="transparent" points="262.5,-673.7 262.5,-696.7 407.5,-696.7 407.5,-673.7 262.5,-673.7"/>
<polygon fill="none" stroke="#000000" points="262.5,-673.7 262.5,-696.7 407.5,-696.7 407.5,-673.7 262.5,-673.7"/>
<text text-anchor="start" x="267.5" y="-682.3" font-family="Helvetica,sans-Serif" font-weight="bold" font-size="11.00" fill="#000000">crn_inprep_basins</text>
<text text-anchor="start" x="373.0219" y="-681.8" font-family="Helvetica,sans-Serif" font-size="11.00" fill="#000000">[table]</text>
<polygon fill="none" stroke="#000000" points="262.5,-651.7 262.5,-673.7 407.5,-673.7 407.5,-651.7 262.5,-651.7"/>
<image xlink:href="../../images/foreignKeys.png" width="11px" height="12px" preserveAspectRatio="xMinYMin meet" x="267.5" y="-668.7"/>
<text text-anchor="start" x="291.5" y="-658.8" font-family="Helvetica,sans-Serif" font-size="11.00" fill="#000000">STUDYID</text>
<polygon fill="none" stroke="#000000" points="262.5,-629.7 262.5,-651.7 407.5,-651.7 407.5,-629.7 262.5,-629.7"/>
<image xlink:href="../../images/foreignKeys.png" width="11px" height="12px" preserveAspectRatio="xMinYMin meet" x="267.5" y="-646.7"/>
<text text-anchor="start" x="291.5" y="-636.8" font-family="Helvetica,sans-Serif" font-size="11.00" fill="#000000">PROJEPSGID</text>
<polygon fill="none" stroke="#000000" points="262.5,-607.7 262.5,-629.7 407.5,-629.7 407.5,-607.7 262.5,-607.7"/>
<image xlink:href="../../images/primaryKeys.png" width="11px" height="12px" preserveAspectRatio="xMinYMin meet" x="267.5" y="-624.7"/>
<text text-anchor="start" x="291.5" y="-614.8" font-family="Helvetica,sans-Serif" font-size="11.00" fill="#000000">id</text>
<polygon fill="none" stroke="#000000" points="262.5,-588.7 262.5,-607.7 407.5,-607.7 407.5,-588.7 262.5,-588.7"/>
<text text-anchor="start" x="265.5" y="-594.8" font-family="Helvetica,sans-Serif" font-size="11.00" fill="#000000">...</text>
<polygon fill="#ffffff" stroke="transparent" points="262.5,-569.7 262.5,-588.7 314.5,-588.7 314.5,-569.7 262.5,-569.7"/>
<polygon fill="none" stroke="#000000" points="262.5,-569.7 262.5,-588.7 314.5,-588.7 314.5,-569.7 262.5,-569.7"/>
<text text-anchor="start" x="265.5" y="-575.8" font-family="Helvetica,sans-Serif" font-size="11.00" fill="#000000">&lt; 2</text>
<polygon fill="#ffffff" stroke="transparent" points="314.5,-569.7 314.5,-588.7 379.5,-588.7 379.5,-569.7 314.5,-569.7"/>
<polygon fill="none" stroke="#000000" points="314.5,-569.7 314.5,-588.7 379.5,-588.7 379.5,-569.7 314.5,-569.7"/>
<text text-anchor="start" x="331.8807" y="-575.8" font-family="Helvetica,sans-Serif" font-size="11.00" fill="#000000">157 rows</text>
<polygon fill="#ffffff" stroke="transparent" points="379.5,-569.7 379.5,-588.7 407.5,-588.7 407.5,-569.7 379.5,-569.7"/>
<polygon fill="none" stroke="#000000" points="379.5,-569.7 379.5,-588.7 407.5,-588.7 407.5,-569.7 379.5,-569.7"/>
<text text-anchor="start" x="398.3862" y="-575.8" font-family="Helvetica,sans-Serif" font-size="11.00" fill="#000000"> &#160;</text>
</a>
</g>
</g>
<!-- crn_inprep_basins&#45;&gt;crn_projepsgID -->
<g id="edge2" class="edge">
<title>crn_inprep_basins:w&#45;&gt;crn_projepsgID:e</title>
<path fill="none" stroke="#000000" stroke-dasharray="5,2" d="M247.9788,-638.41C189.5077,-616.7476 294.1017,-448.7 211.5,-448.7"/>
<polygon fill="#000000" stroke="#000000" points="254.5977,-639.4538 261.9392,-644.2561 258.5488,-640.0769 262.5,-640.7 262.5,-640.7 262.5,-640.7 258.5488,-640.0769 263.0608,-637.1439 254.5977,-639.4538 254.5977,-639.4538"/>
<ellipse fill="none" stroke="#000000" cx="251.4367" cy="-638.9553" rx="3.2" ry="3.2"/>
</g>
<!-- crn_int_basins -->
<g id="node4" class="node">
<title>crn_int_basins</title>
<g id="a_node4"><a xlink:href="../../tables/crn_int_basins.html" xlink:title="crn_int_basins" target="_top">
<polygon fill="#ffffff" stroke="transparent" points="273,-378.2 273,-549.2 396,-549.2 396,-378.2 273,-378.2"/>
<polygon fill="#f5f5f5" stroke="transparent" points="273.5,-525.7 273.5,-548.7 396.5,-548.7 396.5,-525.7 273.5,-525.7"/>
<polygon fill="none" stroke="#000000" points="273.5,-525.7 273.5,-548.7 396.5,-548.7 396.5,-525.7 273.5,-525.7"/>
<text text-anchor="start" x="278.5" y="-534.3" font-family="Helvetica,sans-Serif" font-weight="bold" font-size="11.00" fill="#000000">crn_int_basins</text>
<text text-anchor="start" x="362.0219" y="-533.8" font-family="Helvetica,sans-Serif" font-size="11.00" fill="#000000">[table]</text>
<polygon fill="none" stroke="#000000" points="273.5,-503.7 273.5,-525.7 396.5,-525.7 396.5,-503.7 273.5,-503.7"/>
<image xlink:href="../../images/foreignKeys.png" width="11px" height="12px" preserveAspectRatio="xMinYMin meet" x="278.5" y="-520.7"/>
<text text-anchor="start" x="302.5" y="-510.8" font-family="Helvetica,sans-Serif" font-size="11.00" fill="#000000">STUDYID</text>
<polygon fill="none" stroke="#000000" points="273.5,-481.7 273.5,-503.7 396.5,-503.7 396.5,-481.7 273.5,-481.7"/>
<image xlink:href="../../images/foreignKeys.png" width="11px" height="12px" preserveAspectRatio="xMinYMin meet" x="278.5" y="-498.7"/>
<text text-anchor="start" x="302.5" y="-488.8" font-family="Helvetica,sans-Serif" font-size="11.00" fill="#000000">DBDOI</text>
<polygon fill="none" stroke="#000000" points="273.5,-459.7 273.5,-481.7 396.5,-481.7 396.5,-459.7 273.5,-459.7"/>
<image xlink:href="../../images/foreignKeys.png" width="11px" height="12px" preserveAspectRatio="xMinYMin meet" x="278.5" y="-476.7"/>
<text text-anchor="start" x="302.5" y="-466.8" font-family="Helvetica,sans-Serif" font-size="11.00" fill="#000000">OAID</text>
<polygon fill="none" stroke="#000000" points="273.5,-437.7 273.5,-459.7 396.5,-459.7 396.5,-437.7 273.5,-437.7"/>
<image xlink:href="../../images/foreignKeys.png" width="11px" height="12px" preserveAspectRatio="xMinYMin meet" x="278.5" y="-454.7"/>
<text text-anchor="start" x="302.5" y="-444.8" font-family="Helvetica,sans-Serif" font-size="11.00" fill="#000000">PROJEPSGID</text>
<polygon fill="none" stroke="#000000" points="273.5,-415.7 273.5,-437.7 396.5,-437.7 396.5,-415.7 273.5,-415.7"/>
<image xlink:href="../../images/primaryKeys.png" width="11px" height="12px" preserveAspectRatio="xMinYMin meet" x="278.5" y="-432.7"/>
<text text-anchor="start" x="302.5" y="-422.8" font-family="Helvetica,sans-Serif" font-size="11.00" fill="#000000">id</text>
<polygon fill="none" stroke="#000000" points="273.5,-396.7 273.5,-415.7 396.5,-415.7 396.5,-396.7 273.5,-396.7"/>
<text text-anchor="start" x="276.5" y="-402.8" font-family="Helvetica,sans-Serif" font-size="11.00" fill="#000000">...</text>
<polygon fill="#ffffff" stroke="transparent" points="273.5,-377.7 273.5,-396.7 309.5,-396.7 309.5,-377.7 273.5,-377.7"/>
<polygon fill="none" stroke="#000000" points="273.5,-377.7 273.5,-396.7 309.5,-396.7 309.5,-377.7 273.5,-377.7"/>
<text text-anchor="start" x="276.5" y="-383.8" font-family="Helvetica,sans-Serif" font-size="11.00" fill="#000000">&lt; 4</text>
<polygon fill="#ffffff" stroke="transparent" points="309.5,-377.7 309.5,-396.7 376.5,-396.7 376.5,-377.7 309.5,-377.7"/>
<polygon fill="none" stroke="#000000" points="309.5,-377.7 309.5,-396.7 376.5,-396.7 376.5,-377.7 309.5,-377.7"/>
<text text-anchor="start" x="319.7089" y="-383.8" font-family="Helvetica,sans-Serif" font-size="11.00" fill="#000000">5.376 rows</text>
<polygon fill="#ffffff" stroke="transparent" points="376.5,-377.7 376.5,-396.7 396.5,-396.7 396.5,-377.7 376.5,-377.7"/>
<polygon fill="none" stroke="#000000" points="376.5,-377.7 376.5,-396.7 396.5,-396.7 396.5,-377.7 376.5,-377.7"/>
<text text-anchor="start" x="387.3862" y="-383.8" font-family="Helvetica,sans-Serif" font-size="11.00" fill="#000000"> &#160;</text>
</a>
</g>
</g>
<!-- crn_int_basins&#45;&gt;crn_projepsgID -->
<g id="edge3" class="edge">
<title>crn_int_basins:w&#45;&gt;crn_projepsgID:e</title>
<path fill="none" stroke="#000000" stroke-dasharray="5,2" d="M258.92,-448.7C242.2931,-448.7 233.4583,-448.7 211.5,-448.7"/>
<polygon fill="#000000" stroke="#000000" points="265.5,-448.7001 273.5,-452.3 269.5,-448.7 273.5,-448.7 273.5,-448.7 273.5,-448.7 269.5,-448.7 273.5,-445.1 265.5,-448.7001 265.5,-448.7001"/>
<ellipse fill="none" stroke="#000000" cx="262.3" cy="-448.7001" rx="3.2" ry="3.2"/>
</g>
<!-- crn_Sample -->
<g id="node5" class="node">
<title>crn_Sample</title>
<g id="a_node5"><a xlink:href="../../tables/crn_Sample.html" xlink:title="crn_Sample" target="_top">
<polygon fill="#ffffff" stroke="transparent" points="281,-208.2 281,-357.2 388,-357.2 388,-208.2 281,-208.2"/>
<polygon fill="#f5f5f5" stroke="transparent" points="281.5,-333.7 281.5,-356.7 388.5,-356.7 388.5,-333.7 281.5,-333.7"/>
<polygon fill="none" stroke="#000000" points="281.5,-333.7 281.5,-356.7 388.5,-356.7 388.5,-333.7 281.5,-333.7"/>
<text text-anchor="start" x="286.5" y="-342.3" font-family="Helvetica,sans-Serif" font-weight="bold" font-size="11.00" fill="#000000">crn_Sample</text>
<text text-anchor="start" x="354.0219" y="-341.8" font-family="Helvetica,sans-Serif" font-size="11.00" fill="#000000">[table]</text>
<polygon fill="none" stroke="#000000" points="281.5,-311.7 281.5,-333.7 388.5,-333.7 388.5,-311.7 281.5,-311.7"/>
<image xlink:href="../../images/primaryKeys.png" width="11px" height="12px" preserveAspectRatio="xMinYMin meet" x="286.5" y="-328.7"/>
<text text-anchor="start" x="304.5" y="-318.8" font-family="Helvetica,sans-Serif" font-size="11.00" fill="#000000">SMPID</text>
<polygon fill="none" stroke="#000000" points="281.5,-289.7 281.5,-311.7 388.5,-311.7 388.5,-289.7 281.5,-289.7"/>
<image xlink:href="../../images/foreignKeys.png" width="11px" height="12px" preserveAspectRatio="xMinYMin meet" x="286.5" y="-306.7"/>
<text text-anchor="start" x="304.5" y="-296.8" font-family="Helvetica,sans-Serif" font-size="11.00" fill="#000000">SITEID</text>
<polygon fill="none" stroke="#000000" points="281.5,-267.7 281.5,-289.7 388.5,-289.7 388.5,-267.7 281.5,-267.7"/>
<image xlink:href="../../images/foreignKeys.png" width="11px" height="12px" preserveAspectRatio="xMinYMin meet" x="286.5" y="-284.7"/>
<text text-anchor="start" x="304.5" y="-274.8" font-family="Helvetica,sans-Serif" font-size="11.00" fill="#000000">MATERIAL</text>
<polygon fill="none" stroke="#000000" points="281.5,-245.7 281.5,-267.7 388.5,-267.7 388.5,-245.7 281.5,-245.7"/>
<image xlink:href="../../images/foreignKeys.png" width="11px" height="12px" preserveAspectRatio="xMinYMin meet" x="286.5" y="-262.7"/>
<text text-anchor="start" x="304.5" y="-252.8" font-family="Helvetica,sans-Serif" font-size="11.00" fill="#000000">PROJEPSGID</text>
<polygon fill="none" stroke="#000000" points="281.5,-226.7 281.5,-245.7 388.5,-245.7 388.5,-226.7 281.5,-226.7"/>
<text text-anchor="start" x="284.5" y="-232.8" font-family="Helvetica,sans-Serif" font-size="11.00" fill="#000000">...</text>
<polygon fill="#ffffff" stroke="transparent" points="281.5,-207.7 281.5,-226.7 305.5,-226.7 305.5,-207.7 281.5,-207.7"/>
<polygon fill="none" stroke="#000000" points="281.5,-207.7 281.5,-226.7 305.5,-226.7 305.5,-207.7 281.5,-207.7"/>
<text text-anchor="start" x="284.5" y="-213.8" font-family="Helvetica,sans-Serif" font-size="11.00" fill="#000000">&lt; 3</text>
<polygon fill="#ffffff" stroke="transparent" points="305.5,-207.7 305.5,-226.7 365.5,-226.7 365.5,-207.7 305.5,-207.7"/>
<polygon fill="none" stroke="#000000" points="305.5,-207.7 305.5,-226.7 365.5,-226.7 365.5,-207.7 305.5,-207.7"/>
<text text-anchor="start" x="308.7089" y="-213.8" font-family="Helvetica,sans-Serif" font-size="11.00" fill="#000000">6.039 rows</text>
<polygon fill="#ffffff" stroke="transparent" points="365.5,-207.7 365.5,-226.7 388.5,-226.7 388.5,-207.7 365.5,-207.7"/>
<polygon fill="none" stroke="#000000" points="365.5,-207.7 365.5,-226.7 388.5,-226.7 388.5,-207.7 365.5,-207.7"/>
<text text-anchor="start" x="369.9053" y="-213.8" font-family="Helvetica,sans-Serif" font-size="11.00" fill="#000000">2 &gt;</text>
</a>
</g>
</g>
<!-- crn_Sample&#45;&gt;crn_projepsgID -->
<g id="edge4" class="edge">
<title>crn_Sample:w&#45;&gt;crn_projepsgID:e</title>
<path fill="none" stroke="#000000" d="M267.139,-258.7263C203.4507,-279.2461 296.8284,-448.7 211.5,-448.7"/>
<polygon fill="#000000" stroke="#000000" points="273.5785,-257.8178 282.003,-260.2647 277.5392,-257.2589 281.5,-256.7 281.5,-256.7 281.5,-256.7 277.5392,-257.2589 280.997,-253.1353 273.5785,-257.8178 273.5785,-257.8178"/>
<ellipse fill="none" stroke="#000000" cx="270.4099" cy="-258.2649" rx="3.2" ry="3.2"/>
</g>
<!-- crn_xxl_basins -->
<g id="node6" class="node">
<title>crn_xxl_basins</title>
<g id="a_node6"><a xlink:href="../../tables/crn_xxl_basins.html" xlink:title="crn_xxl_basins" target="_top">
<polygon fill="#ffffff" stroke="transparent" points="272,-38.2 272,-187.2 397,-187.2 397,-38.2 272,-38.2"/>
<polygon fill="#f5f5f5" stroke="transparent" points="272.5,-163.7 272.5,-186.7 397.5,-186.7 397.5,-163.7 272.5,-163.7"/>
<polygon fill="none" stroke="#000000" points="272.5,-163.7 272.5,-186.7 397.5,-186.7 397.5,-163.7 272.5,-163.7"/>
<text text-anchor="start" x="277.5" y="-172.3" font-family="Helvetica,sans-Serif" font-weight="bold" font-size="11.00" fill="#000000">crn_xxl_basins</text>
<text text-anchor="start" x="363.0219" y="-171.8" font-family="Helvetica,sans-Serif" font-size="11.00" fill="#000000">[table]</text>
<polygon fill="none" stroke="#000000" points="272.5,-141.7 272.5,-163.7 397.5,-163.7 397.5,-141.7 272.5,-141.7"/>
<image xlink:href="../../images/foreignKeys.png" width="11px" height="12px" preserveAspectRatio="xMinYMin meet" x="277.5" y="-158.7"/>
<text text-anchor="start" x="301.5" y="-148.8" font-family="Helvetica,sans-Serif" font-size="11.00" fill="#000000">STUDYID</text>
<polygon fill="none" stroke="#000000" points="272.5,-119.7 272.5,-141.7 397.5,-141.7 397.5,-119.7 272.5,-119.7"/>
<image xlink:href="../../images/foreignKeys.png" width="11px" height="12px" preserveAspectRatio="xMinYMin meet" x="277.5" y="-136.7"/>
<text text-anchor="start" x="301.5" y="-126.8" font-family="Helvetica,sans-Serif" font-size="11.00" fill="#000000">OAID</text>
<polygon fill="none" stroke="#000000" points="272.5,-97.7 272.5,-119.7 397.5,-119.7 397.5,-97.7 272.5,-97.7"/>
<image xlink:href="../../images/foreignKeys.png" width="11px" height="12px" preserveAspectRatio="xMinYMin meet" x="277.5" y="-114.7"/>
<text text-anchor="start" x="301.5" y="-104.8" font-family="Helvetica,sans-Serif" font-size="11.00" fill="#000000">PROJEPSGID</text>
<polygon fill="none" stroke="#000000" points="272.5,-75.7 272.5,-97.7 397.5,-97.7 397.5,-75.7 272.5,-75.7"/>
<image xlink:href="../../images/primaryKeys.png" width="11px" height="12px" preserveAspectRatio="xMinYMin meet" x="277.5" y="-92.7"/>
<text text-anchor="start" x="301.5" y="-82.8" font-family="Helvetica,sans-Serif" font-size="11.00" fill="#000000">id</text>
<polygon fill="none" stroke="#000000" points="272.5,-56.7 272.5,-75.7 397.5,-75.7 397.5,-56.7 272.5,-56.7"/>
<text text-anchor="start" x="275.5" y="-62.8" font-family="Helvetica,sans-Serif" font-size="11.00" fill="#000000">...</text>
<polygon fill="#ffffff" stroke="transparent" points="272.5,-37.7 272.5,-56.7 314.5,-56.7 314.5,-37.7 272.5,-37.7"/>
<polygon fill="none" stroke="#000000" points="272.5,-37.7 272.5,-56.7 314.5,-56.7 314.5,-37.7 272.5,-37.7"/>
<text text-anchor="start" x="275.5" y="-43.8" font-family="Helvetica,sans-Serif" font-size="11.00" fill="#000000">&lt; 3</text>
<polygon fill="#ffffff" stroke="transparent" points="314.5,-37.7 314.5,-56.7 374.5,-56.7 374.5,-37.7 314.5,-37.7"/>
<polygon fill="none" stroke="#000000" points="314.5,-37.7 314.5,-56.7 374.5,-56.7 374.5,-37.7 314.5,-37.7"/>
<text text-anchor="start" x="326.8807" y="-43.8" font-family="Helvetica,sans-Serif" font-size="11.00" fill="#000000">261 rows</text>
<polygon fill="#ffffff" stroke="transparent" points="374.5,-37.7 374.5,-56.7 397.5,-56.7 397.5,-37.7 374.5,-37.7"/>
<polygon fill="none" stroke="#000000" points="374.5,-37.7 374.5,-56.7 397.5,-56.7 397.5,-37.7 374.5,-37.7"/>
<text text-anchor="start" x="388.3862" y="-43.8" font-family="Helvetica,sans-Serif" font-size="11.00" fill="#000000"> &#160;</text>
</a>
</g>
</g>
<!-- crn_xxl_basins&#45;&gt;crn_projepsgID -->
<g id="edge5" class="edge">
<title>crn_xxl_basins:w&#45;&gt;crn_projepsgID:e</title>
<path fill="none" stroke="#000000" stroke-dasharray="5,2" d="M258.7011,-113.5063C207.9123,-154.8316 282.8646,-448.7 211.5,-448.7"/>
<polygon fill="#000000" stroke="#000000" points="264.9452,-111.3315 273.6842,-112.0997 268.7226,-110.0157 272.5,-108.7 272.5,-108.7 272.5,-108.7 268.7226,-110.0157 271.3158,-105.3003 264.9452,-111.3315 264.9452,-111.3315"/>
<ellipse fill="none" stroke="#000000" cx="261.9232" cy="-112.3841" rx="3.2" ry="3.2"/>
</g>
</g>
</svg>
