<?xml version="1.0" encoding="UTF-8" standalone="no"?>
<!DOCTYPE svg PUBLIC "-//W3C//DTD SVG 1.1//EN"
 "http://www.w3.org/Graphics/SVG/1.1/DTD/svg11.dtd">
<!-- Generated by graphviz version 2.40.1 (20161225.0304)
 -->
<!-- Title: twoDegreesRelationshipsDiagram Pages: 1 -->
<svg width="732pt" height="607pt"
 viewBox="0.00 0.00 732.00 606.70" xmlns="http://www.w3.org/2000/svg" xmlns:xlink="http://www.w3.org/1999/xlink">
<g id="graph0" class="graph" transform="scale(1 1) rotate(0) translate(4 602.7)">
<title>twoDegreesRelationshipsDiagram</title>
<polygon fill="#ffffff" stroke="transparent" points="-4,4 -4,-602.7 728,-602.7 728,4 -4,4"/>
<text text-anchor="middle" x="72.4936" y="-7.3" font-family="Helvetica,sans-Serif" font-size="11.00" fill="#000000">Generated by SchemaSpy</text>
<!-- crn_al_DataCore -->
<g id="node1" class="node">
<title>crn_al_DataCore</title>
<g id="a_node1"><a xlink:href="../../tables/crn_al_DataCore.html" xlink:title="crn_al_DataCore" target="_top">
<polygon fill="#ffffff" stroke="transparent" points="211.5,-381.7 211.5,-574.7 345.5,-574.7 345.5,-381.7 211.5,-381.7"/>
<polygon fill="#f5f5f5" stroke="transparent" points="211.5,-551.2 211.5,-574.2 345.5,-574.2 345.5,-551.2 211.5,-551.2"/>
<polygon fill="none" stroke="#000000" points="211.5,-551.2 211.5,-574.2 345.5,-574.2 345.5,-551.2 211.5,-551.2"/>
<text text-anchor="start" x="216.5" y="-559.8" font-family="Helvetica,sans-Serif" font-weight="bold" font-size="11.00" fill="#000000">crn_al_DataCore</text>
<text text-anchor="start" x="311.0219" y="-559.3" font-family="Helvetica,sans-Serif" font-size="11.00" fill="#000000">[table]</text>
<polygon fill="none" stroke="#000000" points="211.5,-529.2 211.5,-551.2 345.5,-551.2 345.5,-529.2 211.5,-529.2"/>
<image xlink:href="../../images/primaryKeys.png" width="11px" height="12px" preserveAspectRatio="xMinYMin meet" x="216.5" y="-546.2"/>
<text text-anchor="start" x="240.5" y="-536.3" font-family="Helvetica,sans-Serif" font-size="11.00" fill="#000000">OBSID1</text>
<polygon fill="none" stroke="#000000" points="211.5,-507.2 211.5,-529.2 345.5,-529.2 345.5,-507.2 211.5,-507.2"/>
<image xlink:href="../../images/foreignKeys.png" width="11px" height="12px" preserveAspectRatio="xMinYMin meet" x="216.5" y="-524.2"/>
<text text-anchor="start" x="240.5" y="-514.3" font-family="Helvetica,sans-Serif" font-size="11.00" fill="#000000">SMPID</text>
<polygon fill="none" stroke="#000000" points="211.5,-485.2 211.5,-507.2 345.5,-507.2 345.5,-485.2 211.5,-485.2"/>
<image xlink:href="../../images/foreignKeys.png" width="11px" height="12px" preserveAspectRatio="xMinYMin meet" x="216.5" y="-502.2"/>
<text text-anchor="start" x="240.5" y="-492.3" font-family="Helvetica,sans-Serif" font-size="11.00" fill="#000000">DBDOI</text>
<polygon fill="none" stroke="#000000" points="211.5,-463.2 211.5,-485.2 345.5,-485.2 345.5,-463.2 211.5,-463.2"/>
<image xlink:href="../../images/foreignKeys.png" width="11px" height="12px" preserveAspectRatio="xMinYMin meet" x="216.5" y="-480.2"/>
<text text-anchor="start" x="240.5" y="-470.3" font-family="Helvetica,sans-Serif" font-size="11.00" fill="#000000">REFDBID1</text>
<polygon fill="none" stroke="#000000" points="211.5,-441.2 211.5,-463.2 345.5,-463.2 345.5,-441.2 211.5,-441.2"/>
<image xlink:href="../../images/foreignKeys.png" width="11px" height="12px" preserveAspectRatio="xMinYMin meet" x="216.5" y="-458.2"/>
<text text-anchor="start" x="240.5" y="-448.3" font-family="Helvetica,sans-Serif" font-size="11.00" fill="#000000">ALSTNDID</text>
<polygon fill="none" stroke="#000000" points="211.5,-419.2 211.5,-441.2 345.5,-441.2 345.5,-419.2 211.5,-419.2"/>
<image xlink:href="../../images/foreignKeys.png" width="11px" height="12px" preserveAspectRatio="xMinYMin meet" x="216.5" y="-436.2"/>
<text text-anchor="start" x="240.5" y="-426.3" font-family="Helvetica,sans-Serif" font-size="11.00" fill="#000000">ALAMSID</text>
<polygon fill="none" stroke="#000000" points="211.5,-400.2 211.5,-419.2 345.5,-419.2 345.5,-400.2 211.5,-400.2"/>
<text text-anchor="start" x="214.5" y="-406.3" font-family="Helvetica,sans-Serif" font-size="11.00" fill="#000000">...</text>
<polygon fill="#ffffff" stroke="transparent" points="211.5,-381.2 211.5,-400.2 248.5,-400.2 248.5,-381.2 211.5,-381.2"/>
<polygon fill="none" stroke="#000000" points="211.5,-381.2 211.5,-400.2 248.5,-400.2 248.5,-381.2 211.5,-381.2"/>
<text text-anchor="start" x="214.5" y="-387.3" font-family="Helvetica,sans-Serif" font-size="11.00" fill="#000000">&lt; 5</text>
<polygon fill="#ffffff" stroke="transparent" points="248.5,-381.2 248.5,-400.2 315.5,-400.2 315.5,-381.2 248.5,-381.2"/>
<polygon fill="none" stroke="#000000" points="248.5,-381.2 248.5,-400.2 315.5,-400.2 315.5,-381.2 248.5,-381.2"/>
<text text-anchor="start" x="258.7089" y="-387.3" font-family="Helvetica,sans-Serif" font-size="11.00" fill="#000000">4.631 rows</text>
<polygon fill="#ffffff" stroke="transparent" points="315.5,-381.2 315.5,-400.2 345.5,-400.2 345.5,-381.2 315.5,-381.2"/>
<polygon fill="none" stroke="#000000" points="315.5,-381.2 315.5,-400.2 345.5,-400.2 345.5,-381.2 315.5,-381.2"/>
<text text-anchor="start" x="326.9053" y="-387.3" font-family="Helvetica,sans-Serif" font-size="11.00" fill="#000000">2 &gt;</text>
</a>
</g>
</g>
<!-- crn_amsID -->
<g id="node2" class="node">
<title>crn_amsID</title>
<g id="a_node2"><a xlink:href="../../tables/crn_amsID.html" xlink:title="crn_amsID" target="_top">
<polygon fill="#ffffff" stroke="transparent" points="21.5,-205.7 21.5,-266.7 121.5,-266.7 121.5,-205.7 21.5,-205.7"/>
<polygon fill="#f5f5f5" stroke="transparent" points="21.5,-243.2 21.5,-266.2 121.5,-266.2 121.5,-243.2 21.5,-243.2"/>
<polygon fill="none" stroke="#000000" points="21.5,-243.2 21.5,-266.2 121.5,-266.2 121.5,-243.2 21.5,-243.2"/>
<text text-anchor="start" x="26.5" y="-251.8" font-family="Helvetica,sans-Serif" font-weight="bold" font-size="11.00" fill="#000000">crn_amsID</text>
<text text-anchor="start" x="87.0219" y="-251.3" font-family="Helvetica,sans-Serif" font-size="11.00" fill="#000000">[table]</text>
<polygon fill="none" stroke="#000000" points="21.5,-224.2 21.5,-243.2 121.5,-243.2 121.5,-224.2 21.5,-224.2"/>
<text text-anchor="start" x="24.5" y="-230.3" font-family="Helvetica,sans-Serif" font-size="11.00" fill="#000000">...</text>
<polygon fill="#ffffff" stroke="transparent" points="21.5,-205.2 21.5,-224.2 44.5,-224.2 44.5,-205.2 21.5,-205.2"/>
<polygon fill="none" stroke="#000000" points="21.5,-205.2 21.5,-224.2 44.5,-224.2 44.5,-205.2 21.5,-205.2"/>
<text text-anchor="start" x="24.5" y="-211.3" font-family="Helvetica,sans-Serif" font-size="11.00" fill="#000000"> &#160;</text>
<polygon fill="#ffffff" stroke="transparent" points="44.5,-205.2 44.5,-224.2 94.5,-224.2 94.5,-205.2 44.5,-205.2"/>
<polygon fill="none" stroke="#000000" points="44.5,-205.2 44.5,-224.2 94.5,-224.2 94.5,-205.2 44.5,-205.2"/>
<text text-anchor="start" x="52.9956" y="-211.3" font-family="Helvetica,sans-Serif" font-size="11.00" fill="#000000">37 rows</text>
<polygon fill="#ffffff" stroke="transparent" points="94.5,-205.2 94.5,-224.2 121.5,-224.2 121.5,-205.2 94.5,-205.2"/>
<polygon fill="none" stroke="#000000" points="94.5,-205.2 94.5,-224.2 121.5,-224.2 121.5,-205.2 94.5,-205.2"/>
<text text-anchor="start" x="102.9053" y="-211.3" font-family="Helvetica,sans-Serif" font-size="11.00" fill="#000000">2 &gt;</text>
</a>
</g>
</g>
<!-- crn_al_DataCore&#45;&gt;crn_amsID -->
<g id="edge1" class="edge">
<title>crn_al_DataCore:w&#45;&gt;crn_amsID:e</title>
<path fill="none" stroke="#000000" d="M196.9842,-428.3756C126.2159,-408.5156 212.3077,-233.2 121.5,-233.2"/>
<polygon fill="#000000" stroke="#000000" points="203.5624,-429.2023 211.051,-433.7719 207.5312,-429.7012 211.5,-430.2 211.5,-430.2 211.5,-430.2 207.5312,-429.7012 211.949,-426.6281 203.5624,-429.2023 203.5624,-429.2023"/>
<ellipse fill="none" stroke="#000000" cx="200.3874" cy="-428.8032" rx="3.2" ry="3.2"/>
</g>
<!-- crn_alstndID -->
<g id="node3" class="node">
<title>crn_alstndID</title>
<g id="a_node3"><a xlink:href="../../tables/crn_alstndID.html" xlink:title="crn_alstndID" target="_top">
<polygon fill="#ffffff" stroke="transparent" points="16,-369.7 16,-430.7 127,-430.7 127,-369.7 16,-369.7"/>
<polygon fill="#f5f5f5" stroke="transparent" points="16.5,-407.2 16.5,-430.2 127.5,-430.2 127.5,-407.2 16.5,-407.2"/>
<polygon fill="none" stroke="#000000" points="16.5,-407.2 16.5,-430.2 127.5,-430.2 127.5,-407.2 16.5,-407.2"/>
<text text-anchor="start" x="21.5" y="-415.8" font-family="Helvetica,sans-Serif" font-weight="bold" font-size="11.00" fill="#000000">crn_alstndID</text>
<text text-anchor="start" x="93.0219" y="-415.3" font-family="Helvetica,sans-Serif" font-size="11.00" fill="#000000">[table]</text>
<polygon fill="none" stroke="#000000" points="16.5,-388.2 16.5,-407.2 127.5,-407.2 127.5,-388.2 16.5,-388.2"/>
<text text-anchor="start" x="19.5" y="-394.3" font-family="Helvetica,sans-Serif" font-size="11.00" fill="#000000">...</text>
<polygon fill="#ffffff" stroke="transparent" points="16.5,-369.2 16.5,-388.2 45.5,-388.2 45.5,-369.2 16.5,-369.2"/>
<polygon fill="none" stroke="#000000" points="16.5,-369.2 16.5,-388.2 45.5,-388.2 45.5,-369.2 16.5,-369.2"/>
<text text-anchor="start" x="19.5" y="-375.3" font-family="Helvetica,sans-Serif" font-size="11.00" fill="#000000"> &#160;</text>
<polygon fill="#ffffff" stroke="transparent" points="45.5,-369.2 45.5,-388.2 97.5,-388.2 97.5,-369.2 45.5,-369.2"/>
<polygon fill="none" stroke="#000000" points="45.5,-369.2 45.5,-388.2 97.5,-388.2 97.5,-369.2 45.5,-369.2"/>
<text text-anchor="start" x="55.9956" y="-375.3" font-family="Helvetica,sans-Serif" font-size="11.00" fill="#000000">26 rows</text>
<polygon fill="#ffffff" stroke="transparent" points="97.5,-369.2 97.5,-388.2 127.5,-388.2 127.5,-369.2 97.5,-369.2"/>
<polygon fill="none" stroke="#000000" points="97.5,-369.2 97.5,-388.2 127.5,-388.2 127.5,-369.2 97.5,-369.2"/>
<text text-anchor="start" x="108.9053" y="-375.3" font-family="Helvetica,sans-Serif" font-size="11.00" fill="#000000">2 &gt;</text>
</a>
</g>
</g>
<!-- crn_al_DataCore&#45;&gt;crn_alstndID -->
<g id="edge2" class="edge">
<title>crn_al_DataCore:w&#45;&gt;crn_alstndID:e</title>
<path fill="none" stroke="#000000" d="M196.9089,-449.8367C167.4087,-439.3094 166.5461,-397.2 127.5,-397.2"/>
<polygon fill="#000000" stroke="#000000" points="203.6029,-450.9209 210.9244,-455.7537 207.5515,-451.5604 211.5,-452.2 211.5,-452.2 211.5,-452.2 207.5515,-451.5604 212.0756,-448.6463 203.6029,-450.9209 203.6029,-450.9209"/>
<ellipse fill="none" stroke="#000000" cx="200.4441" cy="-450.4092" rx="3.2" ry="3.2"/>
</g>
<!-- global_dbDOI -->
<g id="node4" class="node">
<title>global_dbDOI</title>
<g id="a_node4"><a xlink:href="../../tables/global_dbDOI.html" xlink:title="global_dbDOI" target="_top">
<polygon fill="#ffffff" stroke="transparent" points="13,-451.7 13,-512.7 130,-512.7 130,-451.7 13,-451.7"/>
<polygon fill="#f5f5f5" stroke="transparent" points="13.5,-489.2 13.5,-512.2 130.5,-512.2 130.5,-489.2 13.5,-489.2"/>
<polygon fill="none" stroke="#000000" points="13.5,-489.2 13.5,-512.2 130.5,-512.2 130.5,-489.2 13.5,-489.2"/>
<text text-anchor="start" x="18.5" y="-497.8" font-family="Helvetica,sans-Serif" font-weight="bold" font-size="11.00" fill="#000000">global_dbDOI</text>
<text text-anchor="start" x="96.0219" y="-497.3" font-family="Helvetica,sans-Serif" font-size="11.00" fill="#000000">[table]</text>
<polygon fill="none" stroke="#000000" points="13.5,-470.2 13.5,-489.2 130.5,-489.2 130.5,-470.2 13.5,-470.2"/>
<text text-anchor="start" x="16.5" y="-476.3" font-family="Helvetica,sans-Serif" font-size="11.00" fill="#000000">...</text>
<polygon fill="#ffffff" stroke="transparent" points="13.5,-451.2 13.5,-470.2 45.5,-470.2 45.5,-451.2 13.5,-451.2"/>
<polygon fill="none" stroke="#000000" points="13.5,-451.2 13.5,-470.2 45.5,-470.2 45.5,-451.2 13.5,-451.2"/>
<text text-anchor="start" x="16.5" y="-457.3" font-family="Helvetica,sans-Serif" font-size="11.00" fill="#000000"> &#160;</text>
<polygon fill="#ffffff" stroke="transparent" points="45.5,-451.2 45.5,-470.2 99.5,-470.2 99.5,-451.2 45.5,-451.2"/>
<polygon fill="none" stroke="#000000" points="45.5,-451.2 45.5,-470.2 99.5,-470.2 99.5,-451.2 45.5,-451.2"/>
<text text-anchor="start" x="57.9956" y="-457.3" font-family="Helvetica,sans-Serif" font-size="11.00" fill="#000000">26 rows</text>
<polygon fill="#ffffff" stroke="transparent" points="99.5,-451.2 99.5,-470.2 130.5,-470.2 130.5,-451.2 99.5,-451.2"/>
<polygon fill="none" stroke="#000000" points="99.5,-451.2 99.5,-470.2 130.5,-470.2 130.5,-451.2 99.5,-451.2"/>
<text text-anchor="start" x="111.9053" y="-457.3" font-family="Helvetica,sans-Serif" font-size="11.00" fill="#000000">9 &gt;</text>
</a>
</g>
</g>
<!-- crn_al_DataCore&#45;&gt;global_dbDOI -->
<g id="edge3" class="edge">
<title>crn_al_DataCore:w&#45;&gt;global_dbDOI:e</title>
<path fill="none" stroke="#000000" d="M196.8677,-495.1875C171.8627,-491.5277 161.8242,-479.2 130.5,-479.2"/>
<polygon fill="#000000" stroke="#000000" points="203.5191,-495.6477 211.2515,-499.7914 207.5095,-495.9238 211.5,-496.2 211.5,-496.2 211.5,-496.2 207.5095,-495.9238 211.7485,-492.6086 203.5191,-495.6477 203.5191,-495.6477"/>
<ellipse fill="none" stroke="#000000" cx="200.3267" cy="-495.4268" rx="3.2" ry="3.2"/>
</g>
<!-- global_RefCore -->
<g id="node5" class="node">
<title>global_RefCore</title>
<g id="a_node5"><a xlink:href="../../tables/global_RefCore.html" xlink:title="global_RefCore" target="_top">
<polygon fill="#ffffff" stroke="transparent" points="8,-287.7 8,-348.7 135,-348.7 135,-287.7 8,-287.7"/>
<polygon fill="#f5f5f5" stroke="transparent" points="8.5,-325.2 8.5,-348.2 135.5,-348.2 135.5,-325.2 8.5,-325.2"/>
<polygon fill="none" stroke="#000000" points="8.5,-325.2 8.5,-348.2 135.5,-348.2 135.5,-325.2 8.5,-325.2"/>
<text text-anchor="start" x="13.5" y="-333.8" font-family="Helvetica,sans-Serif" font-weight="bold" font-size="11.00" fill="#000000">global_RefCore</text>
<text text-anchor="start" x="101.0219" y="-333.3" font-family="Helvetica,sans-Serif" font-size="11.00" fill="#000000">[table]</text>
<polygon fill="none" stroke="#000000" points="8.5,-306.2 8.5,-325.2 135.5,-325.2 135.5,-306.2 8.5,-306.2"/>
<text text-anchor="start" x="11.5" y="-312.3" font-family="Helvetica,sans-Serif" font-size="11.00" fill="#000000">...</text>
<polygon fill="#ffffff" stroke="transparent" points="8.5,-287.2 8.5,-306.2 39.5,-306.2 39.5,-287.2 8.5,-287.2"/>
<polygon fill="none" stroke="#000000" points="8.5,-287.2 8.5,-306.2 39.5,-306.2 39.5,-287.2 8.5,-287.2"/>
<text text-anchor="start" x="11.5" y="-293.3" font-family="Helvetica,sans-Serif" font-size="11.00" fill="#000000">&lt; 5</text>
<polygon fill="#ffffff" stroke="transparent" points="39.5,-287.2 39.5,-306.2 103.5,-306.2 103.5,-287.2 39.5,-287.2"/>
<polygon fill="none" stroke="#000000" points="39.5,-287.2 39.5,-306.2 103.5,-306.2 103.5,-287.2 39.5,-287.2"/>
<text text-anchor="start" x="46.7089" y="-293.3" font-family="Helvetica,sans-Serif" font-size="11.00" fill="#000000">3.822 rows</text>
<polygon fill="#ffffff" stroke="transparent" points="103.5,-287.2 103.5,-306.2 135.5,-306.2 135.5,-287.2 103.5,-287.2"/>
<polygon fill="none" stroke="#000000" points="103.5,-287.2 103.5,-306.2 135.5,-306.2 135.5,-287.2 103.5,-287.2"/>
<text text-anchor="start" x="110.7904" y="-293.3" font-family="Helvetica,sans-Serif" font-size="11.00" fill="#000000">32 &gt;</text>
</a>
</g>
</g>
<!-- crn_al_DataCore&#45;&gt;global_RefCore -->
<g id="edge4" class="edge">
<title>crn_al_DataCore:w&#45;&gt;global_RefCore:e</title>
<path fill="none" stroke="#000000" d="M197.2257,-471.9523C143.7309,-452.6267 208.3172,-315.2 135.5,-315.2"/>
<polygon fill="#000000" stroke="#000000" points="203.5974,-472.9556 210.94,-477.7562 207.5487,-473.5778 211.5,-474.2 211.5,-474.2 211.5,-474.2 207.5487,-473.5778 212.06,-470.6438 203.5974,-472.9556 203.5974,-472.9556"/>
<ellipse fill="none" stroke="#000000" cx="200.4363" cy="-472.4578" rx="3.2" ry="3.2"/>
</g>
<!-- crn_Sample -->
<g id="node6" class="node">
<title>crn_Sample</title>
<g id="a_node6"><a xlink:href="../../tables/crn_Sample.html" xlink:title="crn_Sample" target="_top">
<polygon fill="#ffffff" stroke="transparent" points="18,-533.7 18,-594.7 125,-594.7 125,-533.7 18,-533.7"/>
<polygon fill="#f5f5f5" stroke="transparent" points="18.5,-571.2 18.5,-594.2 125.5,-594.2 125.5,-571.2 18.5,-571.2"/>
<polygon fill="none" stroke="#000000" points="18.5,-571.2 18.5,-594.2 125.5,-594.2 125.5,-571.2 18.5,-571.2"/>
<text text-anchor="start" x="23.5" y="-579.8" font-family="Helvetica,sans-Serif" font-weight="bold" font-size="11.00" fill="#000000">crn_Sample</text>
<text text-anchor="start" x="91.0219" y="-579.3" font-family="Helvetica,sans-Serif" font-size="11.00" fill="#000000">[table]</text>
<polygon fill="none" stroke="#000000" points="18.5,-552.2 18.5,-571.2 125.5,-571.2 125.5,-552.2 18.5,-552.2"/>
<text text-anchor="start" x="21.5" y="-558.3" font-family="Helvetica,sans-Serif" font-size="11.00" fill="#000000">...</text>
<polygon fill="#ffffff" stroke="transparent" points="18.5,-533.2 18.5,-552.2 42.5,-552.2 42.5,-533.2 18.5,-533.2"/>
<polygon fill="none" stroke="#000000" points="18.5,-533.2 18.5,-552.2 42.5,-552.2 42.5,-533.2 18.5,-533.2"/>
<text text-anchor="start" x="21.5" y="-539.3" font-family="Helvetica,sans-Serif" font-size="11.00" fill="#000000">&lt; 3</text>
<polygon fill="#ffffff" stroke="transparent" points="42.5,-533.2 42.5,-552.2 102.5,-552.2 102.5,-533.2 42.5,-533.2"/>
<polygon fill="none" stroke="#000000" points="42.5,-533.2 42.5,-552.2 102.5,-552.2 102.5,-533.2 42.5,-533.2"/>
<text text-anchor="start" x="45.7089" y="-539.3" font-family="Helvetica,sans-Serif" font-size="11.00" fill="#000000">4.588 rows</text>
<polygon fill="#ffffff" stroke="transparent" points="102.5,-533.2 102.5,-552.2 125.5,-552.2 125.5,-533.2 102.5,-533.2"/>
<polygon fill="none" stroke="#000000" points="102.5,-533.2 102.5,-552.2 125.5,-552.2 125.5,-533.2 102.5,-533.2"/>
<text text-anchor="start" x="106.9053" y="-539.3" font-family="Helvetica,sans-Serif" font-size="11.00" fill="#000000">2 &gt;</text>
</a>
</g>
</g>
<!-- crn_al_DataCore&#45;&gt;crn_Sample -->
<g id="edge5" class="edge">
<title>crn_al_DataCore:w&#45;&gt;crn_Sample:e</title>
<path fill="none" stroke="#000000" d="M196.897,-520.1594C167.9277,-528.5714 162.7251,-561.2 125.5,-561.2"/>
<polygon fill="#000000" stroke="#000000" points="203.5711,-519.2639 211.9788,-521.768 207.5355,-518.732 211.5,-518.2 211.5,-518.2 211.5,-518.2 207.5355,-518.732 211.0212,-514.632 203.5711,-519.2639 203.5711,-519.2639"/>
<ellipse fill="none" stroke="#000000" cx="200.3995" cy="-519.6895" rx="3.2" ry="3.2"/>
</g>
<!-- crn_be_DataCore -->
<g id="node7" class="node">
<title>crn_be_DataCore</title>
<g id="a_node7"><a xlink:href="../../tables/crn_be_DataCore.html" xlink:title="crn_be_DataCore" target="_top">
<polygon fill="#ffffff" stroke="transparent" points="209.5,-167.7 209.5,-360.7 347.5,-360.7 347.5,-167.7 209.5,-167.7"/>
<polygon fill="#f5f5f5" stroke="transparent" points="209.5,-337.2 209.5,-360.2 347.5,-360.2 347.5,-337.2 209.5,-337.2"/>
<polygon fill="none" stroke="#000000" points="209.5,-337.2 209.5,-360.2 347.5,-360.2 347.5,-337.2 209.5,-337.2"/>
<text text-anchor="start" x="214.5" y="-345.8" font-family="Helvetica,sans-Serif" font-weight="bold" font-size="11.00" fill="#000000">crn_be_DataCore</text>
<text text-anchor="start" x="313.0219" y="-345.3" font-family="Helvetica,sans-Serif" font-size="11.00" fill="#000000">[table]</text>
<polygon fill="none" stroke="#000000" points="209.5,-315.2 209.5,-337.2 347.5,-337.2 347.5,-315.2 209.5,-315.2"/>
<image xlink:href="../../images/primaryKeys.png" width="11px" height="12px" preserveAspectRatio="xMinYMin meet" x="214.5" y="-332.2"/>
<text text-anchor="start" x="238.5" y="-322.3" font-family="Helvetica,sans-Serif" font-size="11.00" fill="#000000">OBSID1</text>
<polygon fill="none" stroke="#000000" points="209.5,-293.2 209.5,-315.2 347.5,-315.2 347.5,-293.2 209.5,-293.2"/>
<image xlink:href="../../images/foreignKeys.png" width="11px" height="12px" preserveAspectRatio="xMinYMin meet" x="214.5" y="-310.2"/>
<text text-anchor="start" x="238.5" y="-300.3" font-family="Helvetica,sans-Serif" font-size="11.00" fill="#000000">SMPID</text>
<polygon fill="none" stroke="#000000" points="209.5,-271.2 209.5,-293.2 347.5,-293.2 347.5,-271.2 209.5,-271.2"/>
<image xlink:href="../../images/foreignKeys.png" width="11px" height="12px" preserveAspectRatio="xMinYMin meet" x="214.5" y="-288.2"/>
<text text-anchor="start" x="238.5" y="-278.3" font-family="Helvetica,sans-Serif" font-size="11.00" fill="#000000">DBDOI</text>
<polygon fill="none" stroke="#000000" points="209.5,-249.2 209.5,-271.2 347.5,-271.2 347.5,-249.2 209.5,-249.2"/>
<image xlink:href="../../images/foreignKeys.png" width="11px" height="12px" preserveAspectRatio="xMinYMin meet" x="214.5" y="-266.2"/>
<text text-anchor="start" x="238.5" y="-256.3" font-family="Helvetica,sans-Serif" font-size="11.00" fill="#000000">REFDBID1</text>
<polygon fill="none" stroke="#000000" points="209.5,-227.2 209.5,-249.2 347.5,-249.2 347.5,-227.2 209.5,-227.2"/>
<image xlink:href="../../images/foreignKeys.png" width="11px" height="12px" preserveAspectRatio="xMinYMin meet" x="214.5" y="-244.2"/>
<text text-anchor="start" x="238.5" y="-234.3" font-family="Helvetica,sans-Serif" font-size="11.00" fill="#000000">BESTNDID</text>
<polygon fill="none" stroke="#000000" points="209.5,-205.2 209.5,-227.2 347.5,-227.2 347.5,-205.2 209.5,-205.2"/>
<image xlink:href="../../images/foreignKeys.png" width="11px" height="12px" preserveAspectRatio="xMinYMin meet" x="214.5" y="-222.2"/>
<text text-anchor="start" x="238.5" y="-212.3" font-family="Helvetica,sans-Serif" font-size="11.00" fill="#000000">BEAMSID</text>
<polygon fill="none" stroke="#000000" points="209.5,-186.2 209.5,-205.2 347.5,-205.2 347.5,-186.2 209.5,-186.2"/>
<text text-anchor="start" x="212.5" y="-192.3" font-family="Helvetica,sans-Serif" font-size="11.00" fill="#000000">...</text>
<polygon fill="#ffffff" stroke="transparent" points="209.5,-167.2 209.5,-186.2 248.5,-186.2 248.5,-167.2 209.5,-167.2"/>
<polygon fill="none" stroke="#000000" points="209.5,-167.2 209.5,-186.2 248.5,-186.2 248.5,-167.2 209.5,-167.2"/>
<text text-anchor="start" x="212.5" y="-173.3" font-family="Helvetica,sans-Serif" font-size="11.00" fill="#000000">&lt; 5</text>
<polygon fill="#ffffff" stroke="transparent" points="248.5,-167.2 248.5,-186.2 316.5,-186.2 316.5,-167.2 248.5,-167.2"/>
<polygon fill="none" stroke="#000000" points="248.5,-167.2 248.5,-186.2 316.5,-186.2 316.5,-167.2 248.5,-167.2"/>
<text text-anchor="start" x="259.7089" y="-173.3" font-family="Helvetica,sans-Serif" font-size="11.00" fill="#000000">4.631 rows</text>
<polygon fill="#ffffff" stroke="transparent" points="316.5,-167.2 316.5,-186.2 347.5,-186.2 347.5,-167.2 316.5,-167.2"/>
<polygon fill="none" stroke="#000000" points="316.5,-167.2 316.5,-186.2 347.5,-186.2 347.5,-167.2 316.5,-167.2"/>
<text text-anchor="start" x="328.9053" y="-173.3" font-family="Helvetica,sans-Serif" font-size="11.00" fill="#000000">2 &gt;</text>
</a>
</g>
</g>
<!-- crn_be_DataCore&#45;&gt;crn_amsID -->
<g id="edge6" class="edge">
<title>crn_be_DataCore:w&#45;&gt;crn_amsID:e</title>
<path fill="none" stroke="#000000" d="M194.7673,-217.0664C166.7988,-220.5307 155.8881,-233.2 121.5,-233.2"/>
<polygon fill="#000000" stroke="#000000" points="201.5138,-216.6697 209.7114,-219.7938 205.5069,-216.4349 209.5,-216.2 209.5,-216.2 209.5,-216.2 205.5069,-216.4349 209.2886,-212.6062 201.5138,-216.6697 201.5138,-216.6697"/>
<ellipse fill="none" stroke="#000000" cx="198.3193" cy="-216.8576" rx="3.2" ry="3.2"/>
</g>
<!-- crn_be_DataCore&#45;&gt;global_dbDOI -->
<g id="edge8" class="edge">
<title>crn_be_DataCore:w&#45;&gt;global_dbDOI:e</title>
<path fill="none" stroke="#000000" d="M194.937,-284.1498C127.3179,-304.6096 219.3059,-479.2 130.5,-479.2"/>
<polygon fill="#000000" stroke="#000000" points="201.5708,-283.2617 209.9777,-285.7682 205.5354,-282.7308 209.5,-282.2 209.5,-282.2 209.5,-282.2 205.5354,-282.7308 209.0223,-278.6318 201.5708,-283.2617 201.5708,-283.2617"/>
<ellipse fill="none" stroke="#000000" cx="198.3991" cy="-283.6863" rx="3.2" ry="3.2"/>
</g>
<!-- crn_be_DataCore&#45;&gt;global_RefCore -->
<g id="edge9" class="edge">
<title>crn_be_DataCore:w&#45;&gt;global_RefCore:e</title>
<path fill="none" stroke="#000000" d="M195.1865,-263.0031C169.7827,-274.211 170.8757,-315.2 135.5,-315.2"/>
<polygon fill="#000000" stroke="#000000" points="201.6491,-261.7375 210.1919,-263.7329 205.5746,-260.9688 209.5,-260.2 209.5,-260.2 209.5,-260.2 205.5746,-260.9688 208.8081,-256.6671 201.6491,-261.7375 201.6491,-261.7375"/>
<ellipse fill="none" stroke="#000000" cx="198.5088" cy="-262.3525" rx="3.2" ry="3.2"/>
</g>
<!-- crn_be_DataCore&#45;&gt;crn_Sample -->
<g id="edge10" class="edge">
<title>crn_be_DataCore:w&#45;&gt;crn_Sample:e</title>
<path fill="none" stroke="#000000" d="M194.9292,-305.7093C102.8193,-326.7712 240.2704,-561.2 125.5,-561.2"/>
<polygon fill="#000000" stroke="#000000" points="201.5426,-305.0243 209.8709,-307.7808 205.5213,-304.6121 209.5,-304.2 209.5,-304.2 209.5,-304.2 205.5213,-304.6121 209.1291,-300.6192 201.5426,-305.0243 201.5426,-305.0243"/>
<ellipse fill="none" stroke="#000000" cx="198.3596" cy="-305.354" rx="3.2" ry="3.2"/>
</g>
<!-- crn_bestndID -->
<g id="node8" class="node">
<title>crn_bestndID</title>
<g id="a_node8"><a xlink:href="../../tables/crn_bestndID.html" xlink:title="crn_bestndID" target="_top">
<polygon fill="#ffffff" stroke="transparent" points="14,-123.7 14,-184.7 129,-184.7 129,-123.7 14,-123.7"/>
<polygon fill="#f5f5f5" stroke="transparent" points="14.5,-161.2 14.5,-184.2 129.5,-184.2 129.5,-161.2 14.5,-161.2"/>
<polygon fill="none" stroke="#000000" points="14.5,-161.2 14.5,-184.2 129.5,-184.2 129.5,-161.2 14.5,-161.2"/>
<text text-anchor="start" x="19.5" y="-169.8" font-family="Helvetica,sans-Serif" font-weight="bold" font-size="11.00" fill="#000000">crn_bestndID</text>
<text text-anchor="start" x="95.0219" y="-169.3" font-family="Helvetica,sans-Serif" font-size="11.00" fill="#000000">[table]</text>
<polygon fill="none" stroke="#000000" points="14.5,-142.2 14.5,-161.2 129.5,-161.2 129.5,-142.2 14.5,-142.2"/>
<text text-anchor="start" x="17.5" y="-148.3" font-family="Helvetica,sans-Serif" font-size="11.00" fill="#000000">...</text>
<polygon fill="#ffffff" stroke="transparent" points="14.5,-123.2 14.5,-142.2 45.5,-142.2 45.5,-123.2 14.5,-123.2"/>
<polygon fill="none" stroke="#000000" points="14.5,-123.2 14.5,-142.2 45.5,-142.2 45.5,-123.2 14.5,-123.2"/>
<text text-anchor="start" x="17.5" y="-129.3" font-family="Helvetica,sans-Serif" font-size="11.00" fill="#000000"> &#160;</text>
<polygon fill="#ffffff" stroke="transparent" points="45.5,-123.2 45.5,-142.2 98.5,-142.2 98.5,-123.2 45.5,-123.2"/>
<polygon fill="none" stroke="#000000" points="45.5,-123.2 45.5,-142.2 98.5,-142.2 98.5,-123.2 45.5,-123.2"/>
<text text-anchor="start" x="56.9956" y="-129.3" font-family="Helvetica,sans-Serif" font-size="11.00" fill="#000000">60 rows</text>
<polygon fill="#ffffff" stroke="transparent" points="98.5,-123.2 98.5,-142.2 129.5,-142.2 129.5,-123.2 98.5,-123.2"/>
<polygon fill="none" stroke="#000000" points="98.5,-123.2 98.5,-142.2 129.5,-142.2 129.5,-123.2 98.5,-123.2"/>
<text text-anchor="start" x="110.9053" y="-129.3" font-family="Helvetica,sans-Serif" font-size="11.00" fill="#000000">2 &gt;</text>
</a>
</g>
</g>
<!-- crn_be_DataCore&#45;&gt;crn_bestndID -->
<g id="edge7" class="edge">
<title>crn_be_DataCore:w&#45;&gt;crn_bestndID:e</title>
<path fill="none" stroke="#000000" d="M195.2866,-235.5009C161.3935,-220.8162 176.4889,-151.2 129.5,-151.2"/>
<polygon fill="#000000" stroke="#000000" points="201.6405,-236.7074 208.8283,-241.7368 205.5702,-237.4537 209.5,-238.2 209.5,-238.2 209.5,-238.2 205.5702,-237.4537 210.1717,-234.6632 201.6405,-236.7074 201.6405,-236.7074"/>
<ellipse fill="none" stroke="#000000" cx="198.4966" cy="-236.1104" rx="3.2" ry="3.2"/>
</g>
<!-- crn_v3_basins_EPSG3857 -->
<g id="node9" class="node">
<title>crn_v3_basins_EPSG3857</title>
<g id="a_node9"><a xlink:href="../../tables/crn_v3_basins_EPSG3857.html" xlink:title="crn_v3_basins_EPSG3857" target="_top">
<polygon fill="#ffffff" stroke="transparent" points="422,-282.2 422,-504.2 716,-504.2 716,-282.2 422,-282.2"/>
<polygon fill="#f5f5f5" stroke="transparent" points="424,-479.2 424,-502.2 714,-502.2 714,-479.2 424,-479.2"/>
<polygon fill="none" stroke="#000000" points="424,-479.2 424,-502.2 714,-502.2 714,-479.2 424,-479.2"/>
<text text-anchor="start" x="429" y="-487.8" font-family="Helvetica,sans-Serif" font-weight="bold" font-size="11.00" fill="#000000">crn_v3_basins_EPSG3857</text>
<text text-anchor="start" x="679.0437" y="-487.3" font-family="Helvetica,sans-Serif" font-size="11.00" fill="#000000">[table]</text>
<polygon fill="none" stroke="#000000" points="424,-457.2 424,-479.2 595,-479.2 595,-457.2 424,-457.2"/>
<image xlink:href="../../images/primaryKeys.png" width="11px" height="12px" preserveAspectRatio="xMinYMin meet" x="429" y="-474.2"/>
<text text-anchor="start" x="444" y="-464.3" font-family="Helvetica,sans-Serif" font-size="11.00" fill="#000000">id</text>
<polygon fill="none" stroke="#000000" points="595,-457.2 595,-479.2 714,-479.2 714,-457.2 595,-457.2"/>
<text text-anchor="start" x="598" y="-464.9" font-family="Helvetica,sans-Serif" font-size="11.00" fill="#000000">serial[10]</text>
<polygon fill="#ffffff" stroke="transparent" points="424,-435.2 424,-457.2 595,-457.2 595,-435.2 424,-435.2"/>
<polygon fill="none" stroke="#000000" points="424,-435.2 424,-457.2 595,-457.2 595,-435.2 424,-435.2"/>
<text text-anchor="start" x="444" y="-442.3" font-family="Helvetica,sans-Serif" font-size="11.00" fill="#000000">geom</text>
<polygon fill="none" stroke="#000000" points="595,-435.2 595,-457.2 714,-457.2 714,-435.2 595,-435.2"/>
<text text-anchor="start" x="597.9485" y="-442.9" font-family="Helvetica,sans-Serif" font-size="11.00" fill="#000000">geometry[2147483647]</text>
<polygon fill="none" stroke="#000000" points="424,-413.2 424,-435.2 595,-435.2 595,-413.2 424,-413.2"/>
<image xlink:href="../../images/primaryKeys.png" width="11px" height="12px" preserveAspectRatio="xMinYMin meet" x="429" y="-430.2"/>
<text text-anchor="start" x="444" y="-420.3" font-family="Helvetica,sans-Serif" font-size="11.00" fill="#000000">OBSID1</text>
<polygon fill="none" stroke="#000000" points="595,-413.2 595,-435.2 714,-435.2 714,-413.2 595,-413.2"/>
<text text-anchor="start" x="598" y="-420.9" font-family="Helvetica,sans-Serif" font-size="11.00" fill="#000000">text[2147483647]</text>
<polygon fill="none" stroke="#000000" points="424,-391.2 424,-413.2 595,-413.2 595,-391.2 424,-391.2"/>
<text text-anchor="start" x="444" y="-398.3" font-family="Helvetica,sans-Serif" font-size="11.00" fill="#000000">OBSID2</text>
<polygon fill="none" stroke="#000000" points="595,-391.2 595,-413.2 714,-413.2 714,-391.2 595,-391.2"/>
<text text-anchor="start" x="598" y="-398.9" font-family="Helvetica,sans-Serif" font-size="11.00" fill="#000000">text[2147483647]</text>
<polygon fill="none" stroke="#000000" points="424,-369.2 424,-391.2 595,-391.2 595,-369.2 424,-369.2"/>
<image xlink:href="../../images/foreignKeys.png" width="11px" height="12px" preserveAspectRatio="xMinYMin meet" x="429" y="-386.2"/>
<text text-anchor="start" x="444" y="-376.3" font-family="Helvetica,sans-Serif" font-size="11.00" fill="#000000">STUDYID</text>
<polygon fill="none" stroke="#000000" points="595,-369.2 595,-391.2 714,-391.2 714,-369.2 595,-369.2"/>
<text text-anchor="start" x="598" y="-376.9" font-family="Helvetica,sans-Serif" font-size="11.00" fill="#000000">varchar[5]</text>
<polygon fill="none" stroke="#000000" points="424,-347.2 424,-369.2 595,-369.2 595,-347.2 424,-347.2"/>
<text text-anchor="start" x="444" y="-354.3" font-family="Helvetica,sans-Serif" font-size="11.00" fill="#000000">CRN_SUBCMP</text>
<polygon fill="none" stroke="#000000" points="595,-347.2 595,-369.2 714,-369.2 714,-347.2 595,-347.2"/>
<text text-anchor="start" x="598" y="-354.9" font-family="Helvetica,sans-Serif" font-size="11.00" fill="#000000">varchar[3]</text>
<polygon fill="none" stroke="#000000" points="424,-325.2 424,-347.2 595,-347.2 595,-325.2 424,-325.2"/>
<text text-anchor="start" x="444" y="-332.3" font-family="Helvetica,sans-Serif" font-size="11.00" fill="#000000">CREATED_AT</text>
<polygon fill="none" stroke="#000000" points="595,-325.2 595,-347.2 714,-347.2 714,-325.2 595,-325.2"/>
<text text-anchor="start" x="598" y="-332.9" font-family="Helvetica,sans-Serif" font-size="11.00" fill="#000000">timestamptz[35,6]</text>
<polygon fill="none" stroke="#000000" points="424,-303.2 424,-325.2 595,-325.2 595,-303.2 424,-303.2"/>
<text text-anchor="start" x="444" y="-310.3" font-family="Helvetica,sans-Serif" font-size="11.00" fill="#000000">UPDATED_AT</text>
<polygon fill="none" stroke="#000000" points="595,-303.2 595,-325.2 714,-325.2 714,-303.2 595,-303.2"/>
<text text-anchor="start" x="598" y="-310.9" font-family="Helvetica,sans-Serif" font-size="11.00" fill="#000000">timestamptz[35,6]</text>
<polygon fill="#ffffff" stroke="transparent" points="424,-284.2 424,-303.2 490,-303.2 490,-284.2 424,-284.2"/>
<polygon fill="none" stroke="#000000" points="424,-284.2 424,-303.2 490,-303.2 490,-284.2 424,-284.2"/>
<text text-anchor="start" x="427" y="-290.3" font-family="Helvetica,sans-Serif" font-size="11.00" fill="#000000">&lt; 3</text>
<polygon fill="#ffffff" stroke="transparent" points="490,-284.2 490,-303.2 595,-303.2 595,-284.2 490,-284.2"/>
<polygon fill="none" stroke="#000000" points="490,-284.2 490,-303.2 595,-303.2 595,-284.2 490,-284.2"/>
<text text-anchor="start" x="538.2089" y="-290.3" font-family="Helvetica,sans-Serif" font-size="11.00" fill="#000000">4.631 rows</text>
<polygon fill="#ffffff" stroke="transparent" points="595,-284.2 595,-303.2 714,-303.2 714,-284.2 595,-284.2"/>
<polygon fill="none" stroke="#000000" points="595,-284.2 595,-303.2 714,-303.2 714,-284.2 595,-284.2"/>
<text text-anchor="start" x="695.4053" y="-290.3" font-family="Helvetica,sans-Serif" font-size="11.00" fill="#000000">0 &gt;</text>
<polygon fill="none" stroke="#000000" stroke-width="2" points="423,-283.2 423,-503.2 715,-503.2 715,-283.2 423,-283.2"/>
</a>
</g>
</g>
<!-- crn_v3_basins_EPSG3857&#45;&gt;crn_al_DataCore -->
<g id="edge11" class="edge">
<title>crn_v3_basins_EPSG3857:w&#45;&gt;crn_al_DataCore:e</title>
<path fill="none" stroke="#000000" d="M413.5436,-425.5027C367.0762,-438.2469 403.8605,-540.2 345.5,-540.2"/>
<polygon fill="#000000" stroke="#000000" points="422.7116,-420.3296 423.7007,-428.2682 422.113,-428.466 421.1239,-420.5274 422.7116,-420.3296"/>
<polyline fill="none" stroke="#000000" points="424,-424.2 420.0307,-424.6946 "/>
<ellipse fill="none" stroke="#000000" cx="416.8552" cy="-425.0902" rx="3.2" ry="3.2"/>
</g>
<!-- crn_v3_basins_EPSG3857&#45;&gt;crn_be_DataCore -->
<g id="edge12" class="edge">
<title>crn_v3_basins_EPSG3857:w&#45;&gt;crn_be_DataCore:e</title>
<path fill="none" stroke="#000000" d="M413.6066,-422.8146C373.0865,-410.9032 398.8696,-326.2 347.5,-326.2"/>
<polygon fill="#000000" stroke="#000000" points="423.7355,-420.1294 422.6785,-428.0592 421.0925,-427.8478 422.1496,-419.918 423.7355,-420.1294"/>
<polyline fill="none" stroke="#000000" points="424,-424.2 420.0351,-423.6715 "/>
<ellipse fill="none" stroke="#000000" cx="416.8631" cy="-423.2487" rx="3.2" ry="3.2"/>
</g>
<!-- crn_studies_boundingbox -->
<g id="node10" class="node">
<title>crn_studies_boundingbox</title>
<g id="a_node10"><a xlink:href="../../tables/crn_studies_boundingbox.html" xlink:title="crn_studies_boundingbox" target="_top">
<polygon fill="#ffffff" stroke="transparent" points="184,-38.2 184,-146.2 373,-146.2 373,-38.2 184,-38.2"/>
<polygon fill="#f5f5f5" stroke="transparent" points="184.5,-123.2 184.5,-146.2 373.5,-146.2 373.5,-123.2 184.5,-123.2"/>
<polygon fill="none" stroke="#000000" points="184.5,-123.2 184.5,-146.2 373.5,-146.2 373.5,-123.2 184.5,-123.2"/>
<text text-anchor="start" x="189.5" y="-131.8" font-family="Helvetica,sans-Serif" font-weight="bold" font-size="11.00" fill="#000000">crn_studies_boundingbox</text>
<text text-anchor="start" x="339.0219" y="-131.3" font-family="Helvetica,sans-Serif" font-size="11.00" fill="#000000">[table]</text>
<polygon fill="none" stroke="#000000" points="184.5,-101.2 184.5,-123.2 373.5,-123.2 373.5,-101.2 184.5,-101.2"/>
<image xlink:href="../../images/primaryKeys.png" width="11px" height="12px" preserveAspectRatio="xMinYMin meet" x="189.5" y="-118.2"/>
<text text-anchor="start" x="213.5" y="-108.3" font-family="Helvetica,sans-Serif" font-size="11.00" fill="#000000">id</text>
<polygon fill="#ffffff" stroke="transparent" points="184.5,-79.2 184.5,-101.2 373.5,-101.2 373.5,-79.2 184.5,-79.2"/>
<polygon fill="none" stroke="#000000" points="184.5,-79.2 184.5,-101.2 373.5,-101.2 373.5,-79.2 184.5,-79.2"/>
<text text-anchor="start" x="213.5" y="-86.3" font-family="Helvetica,sans-Serif" font-size="11.00" fill="#000000">geom</text>
<polygon fill="none" stroke="#000000" points="184.5,-57.2 184.5,-79.2 373.5,-79.2 373.5,-57.2 184.5,-57.2"/>
<image xlink:href="../../images/primaryKeys.png" width="11px" height="12px" preserveAspectRatio="xMinYMin meet" x="189.5" y="-74.2"/>
<text text-anchor="start" x="213.5" y="-64.3" font-family="Helvetica,sans-Serif" font-size="11.00" fill="#000000">STUDYID</text>
<polygon fill="#ffffff" stroke="transparent" points="184.5,-38.2 184.5,-57.2 249.5,-57.2 249.5,-38.2 184.5,-38.2"/>
<polygon fill="none" stroke="#000000" points="184.5,-38.2 184.5,-57.2 249.5,-57.2 249.5,-38.2 184.5,-38.2"/>
<text text-anchor="start" x="187.5" y="-44.3" font-family="Helvetica,sans-Serif" font-size="11.00" fill="#000000"> &#160;</text>
<polygon fill="#ffffff" stroke="transparent" points="249.5,-38.2 249.5,-57.2 325.5,-57.2 325.5,-38.2 249.5,-38.2"/>
<polygon fill="none" stroke="#000000" points="249.5,-38.2 249.5,-57.2 325.5,-57.2 325.5,-38.2 249.5,-38.2"/>
<text text-anchor="start" x="277.8807" y="-44.3" font-family="Helvetica,sans-Serif" font-size="11.00" fill="#000000">233 rows</text>
<polygon fill="#ffffff" stroke="transparent" points="325.5,-38.2 325.5,-57.2 373.5,-57.2 373.5,-38.2 325.5,-38.2"/>
<polygon fill="none" stroke="#000000" points="325.5,-38.2 325.5,-57.2 373.5,-57.2 373.5,-38.2 325.5,-38.2"/>
<text text-anchor="start" x="354.9053" y="-44.3" font-family="Helvetica,sans-Serif" font-size="11.00" fill="#000000">2 &gt;</text>
</a>
</g>
</g>
<!-- crn_v3_basins_EPSG3857&#45;&gt;crn_studies_boundingbox -->
<g id="edge13" class="edge">
<title>crn_v3_basins_EPSG3857:w&#45;&gt;crn_studies_boundingbox:e</title>
<path fill="none" stroke="#000000" d="M410.3192,-374.7847C366.8445,-333.3543 438.2485,-68.2 373.5,-68.2"/>
<polygon fill="#000000" stroke="#000000" points="416.5615,-377.2556 422.675,-383.5473 420.2808,-378.7278 424,-380.2 424,-380.2 424,-380.2 420.2808,-378.7278 425.325,-376.8527 416.5615,-377.2556 416.5615,-377.2556"/>
<ellipse fill="none" stroke="#000000" cx="413.5862" cy="-376.0778" rx="3.2" ry="3.2"/>
</g>
<!-- crn_v3_outlets_EPSG3857 -->
<g id="node11" class="node">
<title>crn_v3_outlets_EPSG3857</title>
<g id="a_node11"><a xlink:href="../../tables/crn_v3_outlets_EPSG3857.html" xlink:title="crn_v3_outlets_EPSG3857" target="_top">
<polygon fill="#ffffff" stroke="transparent" points="474,-199.7 474,-260.7 664,-260.7 664,-199.7 474,-199.7"/>
<polygon fill="#f5f5f5" stroke="transparent" points="474,-237.2 474,-260.2 664,-260.2 664,-237.2 474,-237.2"/>
<polygon fill="none" stroke="#000000" points="474,-237.2 474,-260.2 664,-260.2 664,-237.2 474,-237.2"/>
<text text-anchor="start" x="479" y="-245.8" font-family="Helvetica,sans-Serif" font-weight="bold" font-size="11.00" fill="#000000">crn_v3_outlets_EPSG3857</text>
<text text-anchor="start" x="629.5219" y="-245.3" font-family="Helvetica,sans-Serif" font-size="11.00" fill="#000000">[table]</text>
<polygon fill="none" stroke="#000000" points="474,-218.2 474,-237.2 664,-237.2 664,-218.2 474,-218.2"/>
<text text-anchor="start" x="477" y="-224.3" font-family="Helvetica,sans-Serif" font-size="11.00" fill="#000000">...</text>
<polygon fill="#ffffff" stroke="transparent" points="474,-199.2 474,-218.2 544,-218.2 544,-199.2 474,-199.2"/>
<polygon fill="none" stroke="#000000" points="474,-199.2 474,-218.2 544,-218.2 544,-199.2 474,-199.2"/>
<text text-anchor="start" x="477" y="-205.3" font-family="Helvetica,sans-Serif" font-size="11.00" fill="#000000">&lt; 3</text>
<polygon fill="#ffffff" stroke="transparent" points="544,-199.2 544,-218.2 627,-218.2 627,-199.2 544,-199.2"/>
<polygon fill="none" stroke="#000000" points="544,-199.2 544,-218.2 627,-218.2 627,-199.2 544,-199.2"/>
<text text-anchor="start" x="570.2089" y="-205.3" font-family="Helvetica,sans-Serif" font-size="11.00" fill="#000000">4.631 rows</text>
<polygon fill="#ffffff" stroke="transparent" points="627,-199.2 627,-218.2 664,-218.2 664,-199.2 627,-199.2"/>
<polygon fill="none" stroke="#000000" points="627,-199.2 627,-218.2 664,-218.2 664,-199.2 627,-199.2"/>
<text text-anchor="start" x="654.8862" y="-205.3" font-family="Helvetica,sans-Serif" font-size="11.00" fill="#000000"> &#160;</text>
</a>
</g>
</g>
<!-- crn_v3_outlets_EPSG3857&#45;&gt;crn_al_DataCore -->
<g id="edge14" class="edge">
<title>crn_v3_outlets_EPSG3857:w&#45;&gt;crn_al_DataCore:e</title>
<path fill="none" stroke="#000000" d="M463.5535,-227.7506C331.8405,-242.2966 492.2068,-540.2 345.5,-540.2"/>
<polygon fill="#000000" stroke="#000000" points="472.9905,-223.2477 473.4117,-231.2366 471.8139,-231.3208 471.3928,-223.3319 472.9905,-223.2477"/>
<polyline fill="none" stroke="#000000" points="474,-227.2 470.0055,-227.4106 "/>
<ellipse fill="none" stroke="#000000" cx="466.81" cy="-227.579" rx="3.2" ry="3.2"/>
</g>
<!-- crn_v3_outlets_EPSG3857&#45;&gt;crn_be_DataCore -->
<g id="edge15" class="edge">
<title>crn_v3_outlets_EPSG3857:w&#45;&gt;crn_be_DataCore:e</title>
<path fill="none" stroke="#000000" d="M463.4112,-227.9969C404.081,-237.3661 415.128,-326.2 347.5,-326.2"/>
<polygon fill="#000000" stroke="#000000" points="472.902,-223.2713 473.5025,-231.2488 471.907,-231.3689 471.3065,-223.3914 472.902,-223.2713"/>
<polyline fill="none" stroke="#000000" points="474,-227.2 470.0113,-227.5002 "/>
<ellipse fill="none" stroke="#000000" cx="466.8203" cy="-227.7404" rx="3.2" ry="3.2"/>
</g>
<!-- crn_v3_outlets_EPSG3857&#45;&gt;crn_studies_boundingbox -->
<g id="edge16" class="edge">
<title>crn_v3_outlets_EPSG3857:w&#45;&gt;crn_studies_boundingbox:e</title>
<path fill="none" stroke="#000000" d="M459.6279,-225.3036C398.374,-207.3644 451.7113,-68.2 373.5,-68.2"/>
<polygon fill="#000000" stroke="#000000" points="466.0687,-226.1534 473.529,-230.7691 470.0344,-226.6767 474,-227.2 474,-227.2 474,-227.2 470.0344,-226.6767 474.471,-223.6309 466.0687,-226.1534 466.0687,-226.1534"/>
<ellipse fill="none" stroke="#000000" cx="462.8962" cy="-225.7348" rx="3.2" ry="3.2"/>
</g>
</g>
</svg>
