<?xml version="1.0" encoding="UTF-8" standalone="no"?>
<!DOCTYPE svg PUBLIC "-//W3C//DTD SVG 1.1//EN"
 "http://www.w3.org/Graphics/SVG/1.1/DTD/svg11.dtd">
<!-- Generated by graphviz version 2.40.1 (20161225.0304)
 -->
<!-- Title: oneDegreeRelationshipsDiagram Pages: 1 -->
<svg width="651pt" height="875pt"
 viewBox="0.00 0.00 651.00 874.70" xmlns="http://www.w3.org/2000/svg" xmlns:xlink="http://www.w3.org/1999/xlink">
<g id="graph0" class="graph" transform="scale(1 1) rotate(0) translate(4 870.7)">
<title>oneDegreeRelationshipsDiagram</title>
<polygon fill="#ffffff" stroke="transparent" points="-4,4 -4,-870.7 647,-870.7 647,4 -4,4"/>
<text text-anchor="middle" x="72.4936" y="-7.3" font-family="Helvetica,sans-Serif" font-size="11.00" fill="#000000">Generated by SchemaSpy</text>
<!-- crn_al_DataCore -->
<g id="node1" class="node">
<title>crn_al_DataCore</title>
<g id="a_node1"><a xlink:href="../../tables/crn_al_DataCore.html" xlink:title="crn_al_DataCore" target="_top">
<polygon fill="#ffffff" stroke="transparent" points="184,-38.2 184,-700.2 396,-700.2 396,-38.2 184,-38.2"/>
<polygon fill="#f5f5f5" stroke="transparent" points="186,-675.2 186,-698.2 394,-698.2 394,-675.2 186,-675.2"/>
<polygon fill="none" stroke="#000000" points="186,-675.2 186,-698.2 394,-698.2 394,-675.2 186,-675.2"/>
<text text-anchor="start" x="191" y="-683.8" font-family="Helvetica,sans-Serif" font-weight="bold" font-size="11.00" fill="#000000">crn_al_DataCore</text>
<text text-anchor="start" x="359.0437" y="-683.3" font-family="Helvetica,sans-Serif" font-size="11.00" fill="#000000">[table]</text>
<polygon fill="none" stroke="#000000" points="186,-653.2 186,-675.2 302,-675.2 302,-653.2 186,-653.2"/>
<image xlink:href="../../images/primaryKeys.png" width="11px" height="12px" preserveAspectRatio="xMinYMin meet" x="191" y="-670.2"/>
<text text-anchor="start" x="206" y="-660.3" font-family="Helvetica,sans-Serif" font-size="11.00" fill="#000000">OBSID1</text>
<polygon fill="none" stroke="#000000" points="302,-653.2 302,-675.2 394,-675.2 394,-653.2 302,-653.2"/>
<text text-anchor="start" x="305" y="-660.9" font-family="Helvetica,sans-Serif" font-size="11.00" fill="#000000">text[2147483647]</text>
<polygon fill="none" stroke="#000000" points="186,-631.2 186,-653.2 302,-653.2 302,-631.2 186,-631.2"/>
<image xlink:href="../../images/foreignKeys.png" width="11px" height="12px" preserveAspectRatio="xMinYMin meet" x="191" y="-648.2"/>
<text text-anchor="start" x="206" y="-638.3" font-family="Helvetica,sans-Serif" font-size="11.00" fill="#000000">SMPID</text>
<polygon fill="none" stroke="#000000" points="302,-631.2 302,-653.2 394,-653.2 394,-631.2 302,-631.2"/>
<text text-anchor="start" x="305" y="-638.9" font-family="Helvetica,sans-Serif" font-size="11.00" fill="#000000">text[2147483647]</text>
<polygon fill="none" stroke="#000000" points="186,-609.2 186,-631.2 302,-631.2 302,-609.2 186,-609.2"/>
<text text-anchor="start" x="206" y="-616.3" font-family="Helvetica,sans-Serif" font-size="11.00" fill="#000000">OBSID2</text>
<polygon fill="none" stroke="#000000" points="302,-609.2 302,-631.2 394,-631.2 394,-609.2 302,-609.2"/>
<text text-anchor="start" x="305" y="-616.9" font-family="Helvetica,sans-Serif" font-size="11.00" fill="#000000">text[2147483647]</text>
<polygon fill="none" stroke="#000000" points="186,-587.2 186,-609.2 302,-609.2 302,-587.2 186,-587.2"/>
<text text-anchor="start" x="206" y="-594.3" font-family="Helvetica,sans-Serif" font-size="11.00" fill="#000000">IGSNID</text>
<polygon fill="none" stroke="#000000" points="302,-587.2 302,-609.2 394,-609.2 394,-587.2 302,-587.2"/>
<text text-anchor="start" x="305" y="-594.9" font-family="Helvetica,sans-Serif" font-size="11.00" fill="#000000">text[2147483647]</text>
<polygon fill="none" stroke="#000000" points="186,-565.2 186,-587.2 302,-587.2 302,-565.2 186,-565.2"/>
<image xlink:href="../../images/foreignKeys.png" width="11px" height="12px" preserveAspectRatio="xMinYMin meet" x="191" y="-582.2"/>
<text text-anchor="start" x="206" y="-572.3" font-family="Helvetica,sans-Serif" font-size="11.00" fill="#000000">DBDOI</text>
<polygon fill="none" stroke="#000000" points="302,-565.2 302,-587.2 394,-587.2 394,-565.2 302,-565.2"/>
<text text-anchor="start" x="305" y="-572.9" font-family="Helvetica,sans-Serif" font-size="11.00" fill="#000000">text[2147483647]</text>
<polygon fill="none" stroke="#000000" points="186,-543.2 186,-565.2 302,-565.2 302,-543.2 186,-543.2"/>
<image xlink:href="../../images/foreignKeys.png" width="11px" height="12px" preserveAspectRatio="xMinYMin meet" x="191" y="-560.2"/>
<text text-anchor="start" x="206" y="-550.3" font-family="Helvetica,sans-Serif" font-size="11.00" fill="#000000">REFDBID1</text>
<polygon fill="none" stroke="#000000" points="302,-543.2 302,-565.2 394,-565.2 394,-543.2 302,-543.2"/>
<text text-anchor="start" x="305" y="-550.9" font-family="Helvetica,sans-Serif" font-size="11.00" fill="#000000">text[2147483647]</text>
<polygon fill="none" stroke="#000000" points="186,-521.2 186,-543.2 302,-543.2 302,-521.2 186,-521.2"/>
<text text-anchor="start" x="206" y="-528.3" font-family="Helvetica,sans-Serif" font-size="11.00" fill="#000000">AL26NP</text>
<polygon fill="none" stroke="#000000" points="302,-521.2 302,-543.2 394,-543.2 394,-521.2 302,-521.2"/>
<text text-anchor="start" x="305" y="-528.9" font-family="Helvetica,sans-Serif" font-size="11.00" fill="#000000">int8[19]</text>
<polygon fill="none" stroke="#000000" points="186,-499.2 186,-521.2 302,-521.2 302,-499.2 186,-499.2"/>
<text text-anchor="start" x="206" y="-506.3" font-family="Helvetica,sans-Serif" font-size="11.00" fill="#000000">AL26NP_ERR</text>
<polygon fill="none" stroke="#000000" points="302,-499.2 302,-521.2 394,-521.2 394,-499.2 302,-499.2"/>
<text text-anchor="start" x="305" y="-506.9" font-family="Helvetica,sans-Serif" font-size="11.00" fill="#000000">int8[19]</text>
<polygon fill="none" stroke="#000000" points="186,-477.2 186,-499.2 302,-499.2 302,-477.2 186,-477.2"/>
<text text-anchor="start" x="206" y="-484.3" font-family="Helvetica,sans-Serif" font-size="11.00" fill="#000000">AL26EP</text>
<polygon fill="none" stroke="#000000" points="302,-477.2 302,-499.2 394,-499.2 394,-477.2 302,-477.2"/>
<text text-anchor="start" x="305" y="-484.9" font-family="Helvetica,sans-Serif" font-size="11.00" fill="#000000">numeric[0]</text>
<polygon fill="none" stroke="#000000" points="186,-455.2 186,-477.2 302,-477.2 302,-455.2 186,-455.2"/>
<text text-anchor="start" x="206" y="-462.3" font-family="Helvetica,sans-Serif" font-size="11.00" fill="#000000">AL26EP_ERR</text>
<polygon fill="none" stroke="#000000" points="302,-455.2 302,-477.2 394,-477.2 394,-455.2 302,-455.2"/>
<text text-anchor="start" x="305" y="-462.9" font-family="Helvetica,sans-Serif" font-size="11.00" fill="#000000">numeric[0]</text>
<polygon fill="none" stroke="#000000" points="186,-433.2 186,-455.2 302,-455.2 302,-433.2 186,-433.2"/>
<image xlink:href="../../images/foreignKeys.png" width="11px" height="12px" preserveAspectRatio="xMinYMin meet" x="191" y="-450.2"/>
<text text-anchor="start" x="206" y="-440.3" font-family="Helvetica,sans-Serif" font-size="11.00" fill="#000000">ALSTNDID</text>
<polygon fill="none" stroke="#000000" points="302,-433.2 302,-455.2 394,-455.2 394,-433.2 302,-433.2"/>
<text text-anchor="start" x="305" y="-440.9" font-family="Helvetica,sans-Serif" font-size="11.00" fill="#000000">int2[5]</text>
<polygon fill="none" stroke="#000000" points="186,-411.2 186,-433.2 302,-433.2 302,-411.2 186,-411.2"/>
<image xlink:href="../../images/foreignKeys.png" width="11px" height="12px" preserveAspectRatio="xMinYMin meet" x="191" y="-428.2"/>
<text text-anchor="start" x="206" y="-418.3" font-family="Helvetica,sans-Serif" font-size="11.00" fill="#000000">ALAMSID</text>
<polygon fill="none" stroke="#000000" points="302,-411.2 302,-433.2 394,-433.2 394,-411.2 302,-411.2"/>
<text text-anchor="start" x="305" y="-418.9" font-family="Helvetica,sans-Serif" font-size="11.00" fill="#000000">int2[5]</text>
<polygon fill="none" stroke="#000000" points="186,-389.2 186,-411.2 302,-411.2 302,-389.2 186,-389.2"/>
<text text-anchor="start" x="206" y="-396.3" font-family="Helvetica,sans-Serif" font-size="11.00" fill="#000000">AL26NC</text>
<polygon fill="none" stroke="#000000" points="302,-389.2 302,-411.2 394,-411.2 394,-389.2 302,-389.2"/>
<text text-anchor="start" x="305" y="-396.9" font-family="Helvetica,sans-Serif" font-size="11.00" fill="#000000">int8[19]</text>
<polygon fill="none" stroke="#000000" points="186,-367.2 186,-389.2 302,-389.2 302,-367.2 186,-367.2"/>
<text text-anchor="start" x="206" y="-374.3" font-family="Helvetica,sans-Serif" font-size="11.00" fill="#000000">AL26NC_ERR</text>
<polygon fill="none" stroke="#000000" points="302,-367.2 302,-389.2 394,-389.2 394,-367.2 302,-367.2"/>
<text text-anchor="start" x="305" y="-374.9" font-family="Helvetica,sans-Serif" font-size="11.00" fill="#000000">int8[19]</text>
<polygon fill="none" stroke="#000000" points="186,-345.2 186,-367.2 302,-367.2 302,-345.2 186,-345.2"/>
<text text-anchor="start" x="206" y="-352.3" font-family="Helvetica,sans-Serif" font-size="11.00" fill="#000000">ALPROD</text>
<polygon fill="none" stroke="#000000" points="302,-345.2 302,-367.2 394,-367.2 394,-345.2 302,-345.2"/>
<text text-anchor="start" x="305" y="-352.9" font-family="Helvetica,sans-Serif" font-size="11.00" fill="#000000">numeric[12,3]</text>
<polygon fill="none" stroke="#000000" points="186,-323.2 186,-345.2 302,-345.2 302,-323.2 186,-323.2"/>
<text text-anchor="start" x="206" y="-330.3" font-family="Helvetica,sans-Serif" font-size="11.00" fill="#000000">ALTOPO</text>
<polygon fill="none" stroke="#000000" points="302,-323.2 302,-345.2 394,-345.2 394,-323.2 302,-323.2"/>
<text text-anchor="start" x="305" y="-330.9" font-family="Helvetica,sans-Serif" font-size="11.00" fill="#000000">numeric[12,3]</text>
<polygon fill="none" stroke="#000000" points="186,-301.2 186,-323.2 302,-323.2 302,-301.2 186,-301.2"/>
<text text-anchor="start" x="206" y="-308.3" font-family="Helvetica,sans-Serif" font-size="11.00" fill="#000000">ALSELF</text>
<polygon fill="none" stroke="#000000" points="302,-301.2 302,-323.2 394,-323.2 394,-301.2 302,-301.2"/>
<text text-anchor="start" x="305" y="-308.9" font-family="Helvetica,sans-Serif" font-size="11.00" fill="#000000">numeric[12,3]</text>
<polygon fill="none" stroke="#000000" points="186,-279.2 186,-301.2 302,-301.2 302,-279.2 186,-279.2"/>
<text text-anchor="start" x="206" y="-286.3" font-family="Helvetica,sans-Serif" font-size="11.00" fill="#000000">ALSNOW</text>
<polygon fill="none" stroke="#000000" points="302,-279.2 302,-301.2 394,-301.2 394,-279.2 302,-279.2"/>
<text text-anchor="start" x="305" y="-286.9" font-family="Helvetica,sans-Serif" font-size="11.00" fill="#000000">numeric[12,3]</text>
<polygon fill="none" stroke="#000000" points="186,-257.2 186,-279.2 302,-279.2 302,-257.2 186,-257.2"/>
<text text-anchor="start" x="206" y="-264.3" font-family="Helvetica,sans-Serif" font-size="11.00" fill="#000000">ALTOTS</text>
<polygon fill="none" stroke="#000000" points="302,-257.2 302,-279.2 394,-279.2 394,-257.2 302,-257.2"/>
<text text-anchor="start" x="305" y="-264.9" font-family="Helvetica,sans-Serif" font-size="11.00" fill="#000000">numeric[12,3]</text>
<polygon fill="none" stroke="#000000" points="186,-235.2 186,-257.2 302,-257.2 302,-235.2 186,-235.2"/>
<text text-anchor="start" x="206" y="-242.3" font-family="Helvetica,sans-Serif" font-size="11.00" fill="#000000">EAL_GCMYR</text>
<polygon fill="none" stroke="#000000" points="302,-235.2 302,-257.2 394,-257.2 394,-235.2 302,-235.2"/>
<text text-anchor="start" x="305" y="-242.9" font-family="Helvetica,sans-Serif" font-size="11.00" fill="#000000">numeric[12,5]</text>
<polygon fill="none" stroke="#000000" points="186,-213.2 186,-235.2 302,-235.2 302,-213.2 186,-213.2"/>
<text text-anchor="start" x="206" y="-220.3" font-family="Helvetica,sans-Serif" font-size="11.00" fill="#000000">ERRAL_AMS</text>
<polygon fill="none" stroke="#000000" points="302,-213.2 302,-235.2 394,-235.2 394,-213.2 302,-213.2"/>
<text text-anchor="start" x="305" y="-220.9" font-family="Helvetica,sans-Serif" font-size="11.00" fill="#000000">numeric[12,5]</text>
<polygon fill="none" stroke="#000000" points="186,-191.2 186,-213.2 302,-213.2 302,-191.2 186,-191.2"/>
<text text-anchor="start" x="206" y="-198.3" font-family="Helvetica,sans-Serif" font-size="11.00" fill="#000000">ERRAL_MUON</text>
<polygon fill="none" stroke="#000000" points="302,-191.2 302,-213.2 394,-213.2 394,-191.2 302,-191.2"/>
<text text-anchor="start" x="305" y="-198.9" font-family="Helvetica,sans-Serif" font-size="11.00" fill="#000000">numeric[12,5]</text>
<polygon fill="none" stroke="#000000" points="186,-169.2 186,-191.2 302,-191.2 302,-169.2 186,-169.2"/>
<text text-anchor="start" x="206" y="-176.3" font-family="Helvetica,sans-Serif" font-size="11.00" fill="#000000">ERRAL_PROD</text>
<polygon fill="none" stroke="#000000" points="302,-169.2 302,-191.2 394,-191.2 394,-169.2 302,-169.2"/>
<text text-anchor="start" x="305" y="-176.9" font-family="Helvetica,sans-Serif" font-size="11.00" fill="#000000">numeric[12,5]</text>
<polygon fill="none" stroke="#000000" points="186,-147.2 186,-169.2 302,-169.2 302,-147.2 186,-147.2"/>
<text text-anchor="start" x="206" y="-154.3" font-family="Helvetica,sans-Serif" font-size="11.00" fill="#000000">ERRAL_TOT</text>
<polygon fill="none" stroke="#000000" points="302,-147.2 302,-169.2 394,-169.2 394,-147.2 302,-147.2"/>
<text text-anchor="start" x="305" y="-154.9" font-family="Helvetica,sans-Serif" font-size="11.00" fill="#000000">numeric[12,5]</text>
<polygon fill="none" stroke="#000000" points="186,-125.2 186,-147.2 302,-147.2 302,-125.2 186,-125.2"/>
<text text-anchor="start" x="206" y="-132.3" font-family="Helvetica,sans-Serif" font-size="11.00" fill="#000000">EAL_MMKYR</text>
<polygon fill="none" stroke="#000000" points="302,-125.2 302,-147.2 394,-147.2 394,-125.2 302,-125.2"/>
<text text-anchor="start" x="305" y="-132.9" font-family="Helvetica,sans-Serif" font-size="11.00" fill="#000000">numeric[12,2]</text>
<polygon fill="none" stroke="#000000" points="186,-103.2 186,-125.2 302,-125.2 302,-103.2 186,-103.2"/>
<text text-anchor="start" x="206" y="-110.3" font-family="Helvetica,sans-Serif" font-size="11.00" fill="#000000">EAL_ERR</text>
<polygon fill="none" stroke="#000000" points="302,-103.2 302,-125.2 394,-125.2 394,-103.2 302,-103.2"/>
<text text-anchor="start" x="305" y="-110.9" font-family="Helvetica,sans-Serif" font-size="11.00" fill="#000000">numeric[12,2]</text>
<polygon fill="none" stroke="#000000" points="186,-81.2 186,-103.2 302,-103.2 302,-81.2 186,-81.2"/>
<text text-anchor="start" x="206" y="-88.3" font-family="Helvetica,sans-Serif" font-size="11.00" fill="#000000">CREATED_AT</text>
<polygon fill="none" stroke="#000000" points="302,-81.2 302,-103.2 394,-103.2 394,-81.2 302,-81.2"/>
<text text-anchor="start" x="304.6023" y="-88.9" font-family="Helvetica,sans-Serif" font-size="11.00" fill="#000000">timestamptz[35,6]</text>
<polygon fill="none" stroke="#000000" points="186,-59.2 186,-81.2 302,-81.2 302,-59.2 186,-59.2"/>
<text text-anchor="start" x="206" y="-66.3" font-family="Helvetica,sans-Serif" font-size="11.00" fill="#000000">UPDATED_AT</text>
<polygon fill="none" stroke="#000000" points="302,-59.2 302,-81.2 394,-81.2 394,-59.2 302,-59.2"/>
<text text-anchor="start" x="304.6023" y="-66.9" font-family="Helvetica,sans-Serif" font-size="11.00" fill="#000000">timestamptz[35,6]</text>
<polygon fill="#ffffff" stroke="transparent" points="186,-40.2 186,-59.2 225,-59.2 225,-40.2 186,-40.2"/>
<polygon fill="none" stroke="#000000" points="186,-40.2 186,-59.2 225,-59.2 225,-40.2 186,-40.2"/>
<text text-anchor="start" x="189" y="-46.3" font-family="Helvetica,sans-Serif" font-size="11.00" fill="#000000">&lt; 5</text>
<polygon fill="#ffffff" stroke="transparent" points="225,-40.2 225,-59.2 302,-59.2 302,-40.2 225,-40.2"/>
<polygon fill="none" stroke="#000000" points="225,-40.2 225,-59.2 302,-59.2 302,-40.2 225,-40.2"/>
<text text-anchor="start" x="245.2089" y="-46.3" font-family="Helvetica,sans-Serif" font-size="11.00" fill="#000000">6.091 rows</text>
<polygon fill="#ffffff" stroke="transparent" points="302,-40.2 302,-59.2 394,-59.2 394,-40.2 302,-40.2"/>
<polygon fill="none" stroke="#000000" points="302,-40.2 302,-59.2 394,-59.2 394,-40.2 302,-40.2"/>
<text text-anchor="start" x="375.4053" y="-46.3" font-family="Helvetica,sans-Serif" font-size="11.00" fill="#000000">2 &gt;</text>
<polygon fill="none" stroke="#000000" stroke-width="2" points="185,-39.2 185,-699.2 395,-699.2 395,-39.2 185,-39.2"/>
</a>
</g>
</g>
<!-- crn_amsID -->
<g id="node2" class="node">
<title>crn_amsID</title>
<g id="a_node2"><a xlink:href="../../tables/crn_amsID.html" xlink:title="crn_amsID" target="_top">
<polygon fill="#ffffff" stroke="transparent" points="21,-231.7 21,-314.7 122,-314.7 122,-231.7 21,-231.7"/>
<polygon fill="#f5f5f5" stroke="transparent" points="21.5,-291.2 21.5,-314.2 122.5,-314.2 122.5,-291.2 21.5,-291.2"/>
<polygon fill="none" stroke="#000000" points="21.5,-291.2 21.5,-314.2 122.5,-314.2 122.5,-291.2 21.5,-291.2"/>
<text text-anchor="start" x="26.5" y="-299.8" font-family="Helvetica,sans-Serif" font-weight="bold" font-size="11.00" fill="#000000">crn_amsID</text>
<text text-anchor="start" x="88.0219" y="-299.3" font-family="Helvetica,sans-Serif" font-size="11.00" fill="#000000">[table]</text>
<polygon fill="none" stroke="#000000" points="21.5,-269.2 21.5,-291.2 122.5,-291.2 122.5,-269.2 21.5,-269.2"/>
<image xlink:href="../../images/primaryKeys.png" width="11px" height="12px" preserveAspectRatio="xMinYMin meet" x="26.5" y="-286.2"/>
<text text-anchor="start" x="41.5" y="-276.3" font-family="Helvetica,sans-Serif" font-size="11.00" fill="#000000">AMSID</text>
<polygon fill="none" stroke="#000000" points="21.5,-250.2 21.5,-269.2 122.5,-269.2 122.5,-250.2 21.5,-250.2"/>
<text text-anchor="start" x="24.5" y="-256.3" font-family="Helvetica,sans-Serif" font-size="11.00" fill="#000000">...</text>
<polygon fill="#ffffff" stroke="transparent" points="21.5,-231.2 21.5,-250.2 45.5,-250.2 45.5,-231.2 21.5,-231.2"/>
<polygon fill="none" stroke="#000000" points="21.5,-231.2 21.5,-250.2 45.5,-250.2 45.5,-231.2 21.5,-231.2"/>
<text text-anchor="start" x="24.5" y="-237.3" font-family="Helvetica,sans-Serif" font-size="11.00" fill="#000000"> &#160;</text>
<polygon fill="#ffffff" stroke="transparent" points="45.5,-231.2 45.5,-250.2 95.5,-250.2 95.5,-231.2 45.5,-231.2"/>
<polygon fill="none" stroke="#000000" points="45.5,-231.2 45.5,-250.2 95.5,-250.2 95.5,-231.2 45.5,-231.2"/>
<text text-anchor="start" x="53.9956" y="-237.3" font-family="Helvetica,sans-Serif" font-size="11.00" fill="#000000">37 rows</text>
<polygon fill="#ffffff" stroke="transparent" points="95.5,-231.2 95.5,-250.2 122.5,-250.2 122.5,-231.2 95.5,-231.2"/>
<polygon fill="none" stroke="#000000" points="95.5,-231.2 95.5,-250.2 122.5,-250.2 122.5,-231.2 95.5,-231.2"/>
<text text-anchor="start" x="103.9053" y="-237.3" font-family="Helvetica,sans-Serif" font-size="11.00" fill="#000000">2 &gt;</text>
</a>
</g>
</g>
<!-- crn_al_DataCore&#45;&gt;crn_amsID -->
<g id="edge1" class="edge">
<title>crn_al_DataCore:w&#45;&gt;crn_amsID:e</title>
<path fill="none" stroke="#000000" d="M171.7327,-419.4902C128.1643,-399.8587 185.9628,-280.2 122.5,-280.2"/>
<polygon fill="#000000" stroke="#000000" points="178.1405,-420.7072 185.3282,-425.7368 182.0703,-421.4536 186,-422.2 186,-422.2 186,-422.2 182.0703,-421.4536 186.6718,-418.6632 178.1405,-420.7072 178.1405,-420.7072"/>
<ellipse fill="none" stroke="#000000" cx="174.9967" cy="-420.11" rx="3.2" ry="3.2"/>
</g>
<!-- crn_alstndID -->
<g id="node3" class="node">
<title>crn_alstndID</title>
<g id="a_node3"><a xlink:href="../../tables/crn_alstndID.html" xlink:title="crn_alstndID" target="_top">
<polygon fill="#ffffff" stroke="transparent" points="16,-335.7 16,-418.7 127,-418.7 127,-335.7 16,-335.7"/>
<polygon fill="#f5f5f5" stroke="transparent" points="16.5,-395.2 16.5,-418.2 127.5,-418.2 127.5,-395.2 16.5,-395.2"/>
<polygon fill="none" stroke="#000000" points="16.5,-395.2 16.5,-418.2 127.5,-418.2 127.5,-395.2 16.5,-395.2"/>
<text text-anchor="start" x="21.5" y="-403.8" font-family="Helvetica,sans-Serif" font-weight="bold" font-size="11.00" fill="#000000">crn_alstndID</text>
<text text-anchor="start" x="93.0219" y="-403.3" font-family="Helvetica,sans-Serif" font-size="11.00" fill="#000000">[table]</text>
<polygon fill="none" stroke="#000000" points="16.5,-373.2 16.5,-395.2 127.5,-395.2 127.5,-373.2 16.5,-373.2"/>
<image xlink:href="../../images/primaryKeys.png" width="11px" height="12px" preserveAspectRatio="xMinYMin meet" x="21.5" y="-390.2"/>
<text text-anchor="start" x="40.5" y="-380.3" font-family="Helvetica,sans-Serif" font-size="11.00" fill="#000000">ALSTNDID</text>
<polygon fill="none" stroke="#000000" points="16.5,-354.2 16.5,-373.2 127.5,-373.2 127.5,-354.2 16.5,-354.2"/>
<text text-anchor="start" x="19.5" y="-360.3" font-family="Helvetica,sans-Serif" font-size="11.00" fill="#000000">...</text>
<polygon fill="#ffffff" stroke="transparent" points="16.5,-335.2 16.5,-354.2 45.5,-354.2 45.5,-335.2 16.5,-335.2"/>
<polygon fill="none" stroke="#000000" points="16.5,-335.2 16.5,-354.2 45.5,-354.2 45.5,-335.2 16.5,-335.2"/>
<text text-anchor="start" x="19.5" y="-341.3" font-family="Helvetica,sans-Serif" font-size="11.00" fill="#000000"> &#160;</text>
<polygon fill="#ffffff" stroke="transparent" points="45.5,-335.2 45.5,-354.2 97.5,-354.2 97.5,-335.2 45.5,-335.2"/>
<polygon fill="none" stroke="#000000" points="45.5,-335.2 45.5,-354.2 97.5,-354.2 97.5,-335.2 45.5,-335.2"/>
<text text-anchor="start" x="55.9956" y="-341.3" font-family="Helvetica,sans-Serif" font-size="11.00" fill="#000000">26 rows</text>
<polygon fill="#ffffff" stroke="transparent" points="97.5,-335.2 97.5,-354.2 127.5,-354.2 127.5,-335.2 97.5,-335.2"/>
<polygon fill="none" stroke="#000000" points="97.5,-335.2 97.5,-354.2 127.5,-354.2 127.5,-335.2 97.5,-335.2"/>
<text text-anchor="start" x="108.9053" y="-341.3" font-family="Helvetica,sans-Serif" font-size="11.00" fill="#000000">2 &gt;</text>
</a>
</g>
</g>
<!-- crn_al_DataCore&#45;&gt;crn_alstndID -->
<g id="edge2" class="edge">
<title>crn_al_DataCore:w&#45;&gt;crn_alstndID:e</title>
<path fill="none" stroke="#000000" d="M172.0346,-440.2632C152.4527,-426.9148 158.9246,-384.2 127.5,-384.2"/>
<polygon fill="#000000" stroke="#000000" points="178.3001,-442.0294 185.0232,-447.665 182.15,-443.1147 186,-444.2 186,-444.2 186,-444.2 182.15,-443.1147 186.9768,-440.735 178.3001,-442.0294 178.3001,-442.0294"/>
<ellipse fill="none" stroke="#000000" cx="175.2201" cy="-441.1612" rx="3.2" ry="3.2"/>
</g>
<!-- global_dbDOI -->
<g id="node4" class="node">
<title>global_dbDOI</title>
<g id="a_node4"><a xlink:href="../../tables/global_dbDOI.html" xlink:title="global_dbDOI" target="_top">
<polygon fill="#ffffff" stroke="transparent" points="13,-609.7 13,-692.7 130,-692.7 130,-609.7 13,-609.7"/>
<polygon fill="#f5f5f5" stroke="transparent" points="13.5,-669.2 13.5,-692.2 130.5,-692.2 130.5,-669.2 13.5,-669.2"/>
<polygon fill="none" stroke="#000000" points="13.5,-669.2 13.5,-692.2 130.5,-692.2 130.5,-669.2 13.5,-669.2"/>
<text text-anchor="start" x="18.5" y="-677.8" font-family="Helvetica,sans-Serif" font-weight="bold" font-size="11.00" fill="#000000">global_dbDOI</text>
<text text-anchor="start" x="96.0219" y="-677.3" font-family="Helvetica,sans-Serif" font-size="11.00" fill="#000000">[table]</text>
<polygon fill="none" stroke="#000000" points="13.5,-647.2 13.5,-669.2 130.5,-669.2 130.5,-647.2 13.5,-647.2"/>
<image xlink:href="../../images/primaryKeys.png" width="11px" height="12px" preserveAspectRatio="xMinYMin meet" x="18.5" y="-664.2"/>
<text text-anchor="start" x="40.5" y="-654.3" font-family="Helvetica,sans-Serif" font-size="11.00" fill="#000000">DBDOI</text>
<polygon fill="none" stroke="#000000" points="13.5,-628.2 13.5,-647.2 130.5,-647.2 130.5,-628.2 13.5,-628.2"/>
<text text-anchor="start" x="16.5" y="-634.3" font-family="Helvetica,sans-Serif" font-size="11.00" fill="#000000">...</text>
<polygon fill="#ffffff" stroke="transparent" points="13.5,-609.2 13.5,-628.2 42.5,-628.2 42.5,-609.2 13.5,-609.2"/>
<polygon fill="none" stroke="#000000" points="13.5,-609.2 13.5,-628.2 42.5,-628.2 42.5,-609.2 13.5,-609.2"/>
<text text-anchor="start" x="16.5" y="-615.3" font-family="Helvetica,sans-Serif" font-size="11.00" fill="#000000"> &#160;</text>
<polygon fill="#ffffff" stroke="transparent" points="42.5,-609.2 42.5,-628.2 94.5,-628.2 94.5,-609.2 42.5,-609.2"/>
<polygon fill="none" stroke="#000000" points="42.5,-609.2 42.5,-628.2 94.5,-628.2 94.5,-609.2 42.5,-609.2"/>
<text text-anchor="start" x="52.9956" y="-615.3" font-family="Helvetica,sans-Serif" font-size="11.00" fill="#000000">26 rows</text>
<polygon fill="#ffffff" stroke="transparent" points="94.5,-609.2 94.5,-628.2 130.5,-628.2 130.5,-609.2 94.5,-609.2"/>
<polygon fill="none" stroke="#000000" points="94.5,-609.2 94.5,-628.2 130.5,-628.2 130.5,-609.2 94.5,-609.2"/>
<text text-anchor="start" x="105.7904" y="-615.3" font-family="Helvetica,sans-Serif" font-size="11.00" fill="#000000">10 &gt;</text>
</a>
</g>
</g>
<!-- crn_al_DataCore&#45;&gt;global_dbDOI -->
<g id="edge3" class="edge">
<title>crn_al_DataCore:w&#45;&gt;global_dbDOI:e</title>
<path fill="none" stroke="#000000" d="M171.8501,-580.3791C149.4531,-597.0891 168.4907,-658.2 130.5,-658.2"/>
<polygon fill="#000000" stroke="#000000" points="178.3276,-578.466 187.0197,-579.6526 182.1638,-577.333 186,-576.2 186,-576.2 186,-576.2 182.1638,-577.333 184.9803,-572.7474 178.3276,-578.466 178.3276,-578.466"/>
<ellipse fill="none" stroke="#000000" cx="175.2587" cy="-579.3725" rx="3.2" ry="3.2"/>
</g>
<!-- global_RefCore -->
<g id="node5" class="node">
<title>global_RefCore</title>
<g id="a_node5"><a xlink:href="../../tables/global_RefCore.html" xlink:title="global_RefCore" target="_top">
<polygon fill="#ffffff" stroke="transparent" points="8,-439.7 8,-588.7 135,-588.7 135,-439.7 8,-439.7"/>
<polygon fill="#f5f5f5" stroke="transparent" points="8.5,-565.2 8.5,-588.2 135.5,-588.2 135.5,-565.2 8.5,-565.2"/>
<polygon fill="none" stroke="#000000" points="8.5,-565.2 8.5,-588.2 135.5,-588.2 135.5,-565.2 8.5,-565.2"/>
<text text-anchor="start" x="13.5" y="-573.8" font-family="Helvetica,sans-Serif" font-weight="bold" font-size="11.00" fill="#000000">global_RefCore</text>
<text text-anchor="start" x="101.0219" y="-573.3" font-family="Helvetica,sans-Serif" font-size="11.00" fill="#000000">[table]</text>
<polygon fill="none" stroke="#000000" points="8.5,-543.2 8.5,-565.2 135.5,-565.2 135.5,-543.2 8.5,-543.2"/>
<image xlink:href="../../images/primaryKeys.png" width="11px" height="12px" preserveAspectRatio="xMinYMin meet" x="13.5" y="-560.2"/>
<text text-anchor="start" x="37.5" y="-550.3" font-family="Helvetica,sans-Serif" font-size="11.00" fill="#000000">REFDBID</text>
<polygon fill="none" stroke="#000000" points="8.5,-521.2 8.5,-543.2 135.5,-543.2 135.5,-521.2 8.5,-521.2"/>
<image xlink:href="../../images/foreignKeys.png" width="11px" height="12px" preserveAspectRatio="xMinYMin meet" x="13.5" y="-538.2"/>
<text text-anchor="start" x="37.5" y="-528.3" font-family="Helvetica,sans-Serif" font-size="11.00" fill="#000000">OAID</text>
<polygon fill="none" stroke="#000000" points="8.5,-499.2 8.5,-521.2 135.5,-521.2 135.5,-499.2 8.5,-499.2"/>
<image xlink:href="../../images/foreignKeys.png" width="11px" height="12px" preserveAspectRatio="xMinYMin meet" x="13.5" y="-516.2"/>
<text text-anchor="start" x="37.5" y="-506.3" font-family="Helvetica,sans-Serif" font-size="11.00" fill="#000000">PUBTYPEID</text>
<polygon fill="none" stroke="#000000" points="8.5,-477.2 8.5,-499.2 135.5,-499.2 135.5,-477.2 8.5,-477.2"/>
<image xlink:href="../../images/foreignKeys.png" width="11px" height="12px" preserveAspectRatio="xMinYMin meet" x="13.5" y="-494.2"/>
<text text-anchor="start" x="37.5" y="-484.3" font-family="Helvetica,sans-Serif" font-size="11.00" fill="#000000">JOURNALID</text>
<polygon fill="none" stroke="#000000" points="8.5,-458.2 8.5,-477.2 135.5,-477.2 135.5,-458.2 8.5,-458.2"/>
<text text-anchor="start" x="11.5" y="-464.3" font-family="Helvetica,sans-Serif" font-size="11.00" fill="#000000">...</text>
<polygon fill="#ffffff" stroke="transparent" points="8.5,-439.2 8.5,-458.2 39.5,-458.2 39.5,-439.2 8.5,-439.2"/>
<polygon fill="none" stroke="#000000" points="8.5,-439.2 8.5,-458.2 39.5,-458.2 39.5,-439.2 8.5,-439.2"/>
<text text-anchor="start" x="11.5" y="-445.3" font-family="Helvetica,sans-Serif" font-size="11.00" fill="#000000">&lt; 5</text>
<polygon fill="#ffffff" stroke="transparent" points="39.5,-439.2 39.5,-458.2 103.5,-458.2 103.5,-439.2 39.5,-439.2"/>
<polygon fill="none" stroke="#000000" points="39.5,-439.2 39.5,-458.2 103.5,-458.2 103.5,-439.2 39.5,-439.2"/>
<text text-anchor="start" x="46.7089" y="-445.3" font-family="Helvetica,sans-Serif" font-size="11.00" fill="#000000">3.947 rows</text>
<polygon fill="#ffffff" stroke="transparent" points="103.5,-439.2 103.5,-458.2 135.5,-458.2 135.5,-439.2 103.5,-439.2"/>
<polygon fill="none" stroke="#000000" points="103.5,-439.2 103.5,-458.2 135.5,-458.2 135.5,-439.2 103.5,-439.2"/>
<text text-anchor="start" x="110.7904" y="-445.3" font-family="Helvetica,sans-Serif" font-size="11.00" fill="#000000">37 &gt;</text>
</a>
</g>
</g>
<!-- crn_al_DataCore&#45;&gt;global_RefCore -->
<g id="edge4" class="edge">
<title>crn_al_DataCore:w&#45;&gt;global_RefCore:e</title>
<path fill="none" stroke="#000000" d="M171.4203,-554.2C159.5435,-554.2 152.158,-554.2 135.5,-554.2"/>
<polygon fill="#000000" stroke="#000000" points="178,-554.2001 186,-557.8 182,-554.2 186,-554.2 186,-554.2 186,-554.2 182,-554.2 186,-550.6 178,-554.2001 178,-554.2001"/>
<ellipse fill="none" stroke="#000000" cx="174.8" cy="-554.2001" rx="3.2" ry="3.2"/>
</g>
<!-- crn_Sample -->
<g id="node6" class="node">
<title>crn_Sample</title>
<g id="a_node6"><a xlink:href="../../tables/crn_Sample.html" xlink:title="crn_Sample" target="_top">
<polygon fill="#ffffff" stroke="transparent" points="18,-713.7 18,-862.7 125,-862.7 125,-713.7 18,-713.7"/>
<polygon fill="#f5f5f5" stroke="transparent" points="18.5,-839.2 18.5,-862.2 125.5,-862.2 125.5,-839.2 18.5,-839.2"/>
<polygon fill="none" stroke="#000000" points="18.5,-839.2 18.5,-862.2 125.5,-862.2 125.5,-839.2 18.5,-839.2"/>
<text text-anchor="start" x="23.5" y="-847.8" font-family="Helvetica,sans-Serif" font-weight="bold" font-size="11.00" fill="#000000">crn_Sample</text>
<text text-anchor="start" x="91.0219" y="-847.3" font-family="Helvetica,sans-Serif" font-size="11.00" fill="#000000">[table]</text>
<polygon fill="none" stroke="#000000" points="18.5,-817.2 18.5,-839.2 125.5,-839.2 125.5,-817.2 18.5,-817.2"/>
<image xlink:href="../../images/primaryKeys.png" width="11px" height="12px" preserveAspectRatio="xMinYMin meet" x="23.5" y="-834.2"/>
<text text-anchor="start" x="41.5" y="-824.3" font-family="Helvetica,sans-Serif" font-size="11.00" fill="#000000">SMPID</text>
<polygon fill="none" stroke="#000000" points="18.5,-795.2 18.5,-817.2 125.5,-817.2 125.5,-795.2 18.5,-795.2"/>
<image xlink:href="../../images/foreignKeys.png" width="11px" height="12px" preserveAspectRatio="xMinYMin meet" x="23.5" y="-812.2"/>
<text text-anchor="start" x="41.5" y="-802.3" font-family="Helvetica,sans-Serif" font-size="11.00" fill="#000000">SITEID</text>
<polygon fill="none" stroke="#000000" points="18.5,-773.2 18.5,-795.2 125.5,-795.2 125.5,-773.2 18.5,-773.2"/>
<image xlink:href="../../images/foreignKeys.png" width="11px" height="12px" preserveAspectRatio="xMinYMin meet" x="23.5" y="-790.2"/>
<text text-anchor="start" x="41.5" y="-780.3" font-family="Helvetica,sans-Serif" font-size="11.00" fill="#000000">MATERIAL</text>
<polygon fill="none" stroke="#000000" points="18.5,-751.2 18.5,-773.2 125.5,-773.2 125.5,-751.2 18.5,-751.2"/>
<image xlink:href="../../images/foreignKeys.png" width="11px" height="12px" preserveAspectRatio="xMinYMin meet" x="23.5" y="-768.2"/>
<text text-anchor="start" x="41.5" y="-758.3" font-family="Helvetica,sans-Serif" font-size="11.00" fill="#000000">PROJEPSGID</text>
<polygon fill="none" stroke="#000000" points="18.5,-732.2 18.5,-751.2 125.5,-751.2 125.5,-732.2 18.5,-732.2"/>
<text text-anchor="start" x="21.5" y="-738.3" font-family="Helvetica,sans-Serif" font-size="11.00" fill="#000000">...</text>
<polygon fill="#ffffff" stroke="transparent" points="18.5,-713.2 18.5,-732.2 42.5,-732.2 42.5,-713.2 18.5,-713.2"/>
<polygon fill="none" stroke="#000000" points="18.5,-713.2 18.5,-732.2 42.5,-732.2 42.5,-713.2 18.5,-713.2"/>
<text text-anchor="start" x="21.5" y="-719.3" font-family="Helvetica,sans-Serif" font-size="11.00" fill="#000000">&lt; 3</text>
<polygon fill="#ffffff" stroke="transparent" points="42.5,-713.2 42.5,-732.2 102.5,-732.2 102.5,-713.2 42.5,-713.2"/>
<polygon fill="none" stroke="#000000" points="42.5,-713.2 42.5,-732.2 102.5,-732.2 102.5,-713.2 42.5,-713.2"/>
<text text-anchor="start" x="45.7089" y="-719.3" font-family="Helvetica,sans-Serif" font-size="11.00" fill="#000000">6.039 rows</text>
<polygon fill="#ffffff" stroke="transparent" points="102.5,-713.2 102.5,-732.2 125.5,-732.2 125.5,-713.2 102.5,-713.2"/>
<polygon fill="none" stroke="#000000" points="102.5,-713.2 102.5,-732.2 125.5,-732.2 125.5,-713.2 102.5,-713.2"/>
<text text-anchor="start" x="106.9053" y="-719.3" font-family="Helvetica,sans-Serif" font-size="11.00" fill="#000000">2 &gt;</text>
</a>
</g>
</g>
<!-- crn_al_DataCore&#45;&gt;crn_Sample -->
<g id="edge5" class="edge">
<title>crn_al_DataCore:w&#45;&gt;crn_Sample:e</title>
<path fill="none" stroke="#000000" d="M171.5802,-644.4184C112.8509,-665.4039 206.8269,-828.2 125.5,-828.2"/>
<polygon fill="#000000" stroke="#000000" points="178.093,-643.4165 186.5474,-645.7581 182.0465,-642.8083 186,-642.2 186,-642.2 186,-642.2 182.0465,-642.8083 185.4526,-638.6419 178.093,-643.4165 178.093,-643.4165"/>
<ellipse fill="none" stroke="#000000" cx="174.9302" cy="-643.9031" rx="3.2" ry="3.2"/>
</g>
<!-- crn_v3_basins_EPSG3857 -->
<g id="node7" class="node">
<title>crn_v3_basins_EPSG3857</title>
<g id="a_node7"><a xlink:href="../../tables/crn_v3_basins_EPSG3857.html" xlink:title="crn_v3_basins_EPSG3857" target="_top">
<polygon fill="#ffffff" stroke="transparent" points="445.5,-678.7 445.5,-805.7 634.5,-805.7 634.5,-678.7 445.5,-678.7"/>
<polygon fill="#f5f5f5" stroke="transparent" points="446,-782.2 446,-805.2 635,-805.2 635,-782.2 446,-782.2"/>
<polygon fill="none" stroke="#000000" points="446,-782.2 446,-805.2 635,-805.2 635,-782.2 446,-782.2"/>
<text text-anchor="start" x="451" y="-790.8" font-family="Helvetica,sans-Serif" font-weight="bold" font-size="11.00" fill="#000000">crn_v3_basins_EPSG3857</text>
<text text-anchor="start" x="600.5219" y="-790.3" font-family="Helvetica,sans-Serif" font-size="11.00" fill="#000000">[table]</text>
<polygon fill="none" stroke="#000000" points="446,-760.2 446,-782.2 635,-782.2 635,-760.2 446,-760.2"/>
<image xlink:href="../../images/primaryKeys.png" width="11px" height="12px" preserveAspectRatio="xMinYMin meet" x="451" y="-777.2"/>
<text text-anchor="start" x="475" y="-767.3" font-family="Helvetica,sans-Serif" font-size="11.00" fill="#000000">id</text>
<polygon fill="#ffffff" stroke="transparent" points="446,-738.2 446,-760.2 635,-760.2 635,-738.2 446,-738.2"/>
<polygon fill="none" stroke="#000000" points="446,-738.2 446,-760.2 635,-760.2 635,-738.2 446,-738.2"/>
<image xlink:href="../../images/foreignKeys.png" width="11px" height="12px" preserveAspectRatio="xMinYMin meet" x="451" y="-755.2"/>
<text text-anchor="start" x="475" y="-745.3" font-family="Helvetica,sans-Serif" font-size="11.00" fill="#000000">OBSID1</text>
<polygon fill="none" stroke="#000000" points="446,-716.2 446,-738.2 635,-738.2 635,-716.2 446,-716.2"/>
<image xlink:href="../../images/foreignKeys.png" width="11px" height="12px" preserveAspectRatio="xMinYMin meet" x="451" y="-733.2"/>
<text text-anchor="start" x="475" y="-723.3" font-family="Helvetica,sans-Serif" font-size="11.00" fill="#000000">STUDYID</text>
<polygon fill="none" stroke="#000000" points="446,-697.2 446,-716.2 635,-716.2 635,-697.2 446,-697.2"/>
<text text-anchor="start" x="449" y="-703.3" font-family="Helvetica,sans-Serif" font-size="11.00" fill="#000000">...</text>
<polygon fill="#ffffff" stroke="transparent" points="446,-678.2 446,-697.2 515,-697.2 515,-678.2 446,-678.2"/>
<polygon fill="none" stroke="#000000" points="446,-678.2 446,-697.2 515,-697.2 515,-678.2 446,-678.2"/>
<text text-anchor="start" x="449" y="-684.3" font-family="Helvetica,sans-Serif" font-size="11.00" fill="#000000">&lt; 3</text>
<polygon fill="#ffffff" stroke="transparent" points="515,-678.2 515,-697.2 598,-697.2 598,-678.2 515,-678.2"/>
<polygon fill="none" stroke="#000000" points="515,-678.2 515,-697.2 598,-697.2 598,-678.2 515,-678.2"/>
<text text-anchor="start" x="541.2089" y="-684.3" font-family="Helvetica,sans-Serif" font-size="11.00" fill="#000000">6.091 rows</text>
<polygon fill="#ffffff" stroke="transparent" points="598,-678.2 598,-697.2 635,-697.2 635,-678.2 598,-678.2"/>
<polygon fill="none" stroke="#000000" points="598,-678.2 598,-697.2 635,-697.2 635,-678.2 598,-678.2"/>
<text text-anchor="start" x="625.8862" y="-684.3" font-family="Helvetica,sans-Serif" font-size="11.00" fill="#000000"> &#160;</text>
</a>
</g>
</g>
<!-- crn_v3_basins_EPSG3857&#45;&gt;crn_al_DataCore -->
<g id="edge6" class="edge">
<title>crn_v3_basins_EPSG3857:w&#45;&gt;crn_al_DataCore:e</title>
<path fill="none" stroke="#000000" d="M435.5432,-747.0989C407.8603,-734.0096 434.1345,-664.2 394,-664.2"/>
<polygon fill="#000000" stroke="#000000" points="446.0037,-745.1208 444.4277,-752.964 442.859,-752.6488 444.4351,-744.8056 446.0037,-745.1208"/>
<polyline fill="none" stroke="#000000" points="446,-749.2 442.0784,-748.412 "/>
<ellipse fill="none" stroke="#000000" cx="438.9411" cy="-747.7816" rx="3.2" ry="3.2"/>
</g>
<!-- crn_v3_outlets_EPSG3857 -->
<g id="node8" class="node">
<title>crn_v3_outlets_EPSG3857</title>
<g id="a_node8"><a xlink:href="../../tables/crn_v3_outlets_EPSG3857.html" xlink:title="crn_v3_outlets_EPSG3857" target="_top">
<polygon fill="#ffffff" stroke="transparent" points="445,-508.7 445,-657.7 635,-657.7 635,-508.7 445,-508.7"/>
<polygon fill="#f5f5f5" stroke="transparent" points="445,-634.2 445,-657.2 635,-657.2 635,-634.2 445,-634.2"/>
<polygon fill="none" stroke="#000000" points="445,-634.2 445,-657.2 635,-657.2 635,-634.2 445,-634.2"/>
<text text-anchor="start" x="450" y="-642.8" font-family="Helvetica,sans-Serif" font-weight="bold" font-size="11.00" fill="#000000">crn_v3_outlets_EPSG3857</text>
<text text-anchor="start" x="600.5219" y="-642.3" font-family="Helvetica,sans-Serif" font-size="11.00" fill="#000000">[table]</text>
<polygon fill="none" stroke="#000000" points="445,-612.2 445,-634.2 635,-634.2 635,-612.2 445,-612.2"/>
<image xlink:href="../../images/primaryKeys.png" width="11px" height="12px" preserveAspectRatio="xMinYMin meet" x="450" y="-629.2"/>
<text text-anchor="start" x="474" y="-619.3" font-family="Helvetica,sans-Serif" font-size="11.00" fill="#000000">id</text>
<polygon fill="#ffffff" stroke="transparent" points="445,-590.2 445,-612.2 635,-612.2 635,-590.2 445,-590.2"/>
<polygon fill="none" stroke="#000000" points="445,-590.2 445,-612.2 635,-612.2 635,-590.2 445,-590.2"/>
<text text-anchor="start" x="474" y="-597.3" font-family="Helvetica,sans-Serif" font-size="11.00" fill="#000000">geom</text>
<polygon fill="none" stroke="#000000" points="445,-568.2 445,-590.2 635,-590.2 635,-568.2 445,-568.2"/>
<image xlink:href="../../images/primaryKeys.png" width="11px" height="12px" preserveAspectRatio="xMinYMin meet" x="450" y="-585.2"/>
<text text-anchor="start" x="474" y="-575.3" font-family="Helvetica,sans-Serif" font-size="11.00" fill="#000000">OBSID1</text>
<polygon fill="none" stroke="#000000" points="445,-546.2 445,-568.2 635,-568.2 635,-546.2 445,-546.2"/>
<image xlink:href="../../images/foreignKeys.png" width="11px" height="12px" preserveAspectRatio="xMinYMin meet" x="450" y="-563.2"/>
<text text-anchor="start" x="474" y="-553.3" font-family="Helvetica,sans-Serif" font-size="11.00" fill="#000000">STUDYID</text>
<polygon fill="none" stroke="#000000" points="445,-527.2 445,-546.2 635,-546.2 635,-527.2 445,-527.2"/>
<text text-anchor="start" x="448" y="-533.3" font-family="Helvetica,sans-Serif" font-size="11.00" fill="#000000">...</text>
<polygon fill="#ffffff" stroke="transparent" points="445,-508.2 445,-527.2 515,-527.2 515,-508.2 445,-508.2"/>
<polygon fill="none" stroke="#000000" points="445,-508.2 445,-527.2 515,-527.2 515,-508.2 445,-508.2"/>
<text text-anchor="start" x="448" y="-514.3" font-family="Helvetica,sans-Serif" font-size="11.00" fill="#000000">&lt; 3</text>
<polygon fill="#ffffff" stroke="transparent" points="515,-508.2 515,-527.2 598,-527.2 598,-508.2 515,-508.2"/>
<polygon fill="none" stroke="#000000" points="515,-508.2 515,-527.2 598,-527.2 598,-508.2 515,-508.2"/>
<text text-anchor="start" x="541.2089" y="-514.3" font-family="Helvetica,sans-Serif" font-size="11.00" fill="#000000">6.091 rows</text>
<polygon fill="#ffffff" stroke="transparent" points="598,-508.2 598,-527.2 635,-527.2 635,-508.2 598,-508.2"/>
<polygon fill="none" stroke="#000000" points="598,-508.2 598,-527.2 635,-527.2 635,-508.2 598,-508.2"/>
<text text-anchor="start" x="625.8862" y="-514.3" font-family="Helvetica,sans-Serif" font-size="11.00" fill="#000000"> &#160;</text>
</a>
</g>
</g>
<!-- crn_v3_outlets_EPSG3857&#45;&gt;crn_al_DataCore -->
<g id="edge7" class="edge">
<title>crn_v3_outlets_EPSG3857:w&#45;&gt;crn_al_DataCore:e</title>
<path fill="none" stroke="#000000" d="M434.6156,-581.3011C407.1891,-594.3904 433.9258,-664.2 394,-664.2"/>
<polygon fill="#000000" stroke="#000000" points="443.4226,-575.4381 445.0092,-583.2792 443.441,-583.5965 441.8544,-575.7554 443.4226,-575.4381"/>
<polyline fill="none" stroke="#000000" points="445,-579.2 441.0794,-579.9933 "/>
<ellipse fill="none" stroke="#000000" cx="437.943" cy="-580.6279" rx="3.2" ry="3.2"/>
</g>
</g>
</svg>
