<?xml version="1.0" encoding="UTF-8" standalone="no"?>
<!DOCTYPE svg PUBLIC "-//W3C//DTD SVG 1.1//EN"
 "http://www.w3.org/Graphics/SVG/1.1/DTD/svg11.dtd">
<!-- Generated by graphviz version 2.40.1 (20161225.0304)
 -->
<!-- Title: oneDegreeRelationshipsDiagram Pages: 1 -->
<svg width="556pt" height="605pt"
 viewBox="0.00 0.00 556.00 605.20" xmlns="http://www.w3.org/2000/svg" xmlns:xlink="http://www.w3.org/1999/xlink">
<g id="graph0" class="graph" transform="scale(1 1) rotate(0) translate(4 601.2)">
<title>oneDegreeRelationshipsDiagram</title>
<polygon fill="#ffffff" stroke="transparent" points="-4,4 -4,-601.2 552,-601.2 552,4 -4,4"/>
<text text-anchor="middle" x="72.4936" y="-7.3" font-family="Helvetica,sans-Serif" font-size="11.00" fill="#000000">Generated by SchemaSpy</text>
<!-- crn_v3_basins_EPSG3857 -->
<g id="node1" class="node">
<title>crn_v3_basins_EPSG3857</title>
<g id="a_node1"><a xlink:href="../../tables/crn_v3_basins_EPSG3857.html" xlink:title="crn_v3_basins_EPSG3857" target="_top">
<polygon fill="#ffffff" stroke="transparent" points="246,-158.7 246,-424.7 540,-424.7 540,-158.7 246,-158.7"/>
<polygon fill="#f5f5f5" stroke="transparent" points="248,-399.7 248,-422.7 538,-422.7 538,-399.7 248,-399.7"/>
<polygon fill="none" stroke="#000000" points="248,-399.7 248,-422.7 538,-422.7 538,-399.7 248,-399.7"/>
<text text-anchor="start" x="253" y="-408.3" font-family="Helvetica,sans-Serif" font-weight="bold" font-size="11.00" fill="#000000">crn_v3_basins_EPSG3857</text>
<text text-anchor="start" x="503.0437" y="-407.8" font-family="Helvetica,sans-Serif" font-size="11.00" fill="#000000">[table]</text>
<polygon fill="none" stroke="#000000" points="248,-377.7 248,-399.7 419,-399.7 419,-377.7 248,-377.7"/>
<image xlink:href="../../images/primaryKeys.png" width="11px" height="12px" preserveAspectRatio="xMinYMin meet" x="253" y="-394.7"/>
<text text-anchor="start" x="268" y="-384.8" font-family="Helvetica,sans-Serif" font-size="11.00" fill="#000000">id</text>
<polygon fill="none" stroke="#000000" points="419,-377.7 419,-399.7 538,-399.7 538,-377.7 419,-377.7"/>
<text text-anchor="start" x="422" y="-385.4" font-family="Helvetica,sans-Serif" font-size="11.00" fill="#000000">serial[10]</text>
<polygon fill="#ffffff" stroke="transparent" points="248,-355.7 248,-377.7 419,-377.7 419,-355.7 248,-355.7"/>
<polygon fill="none" stroke="#000000" points="248,-355.7 248,-377.7 419,-377.7 419,-355.7 248,-355.7"/>
<text text-anchor="start" x="268" y="-362.8" font-family="Helvetica,sans-Serif" font-size="11.00" fill="#000000">geom</text>
<polygon fill="none" stroke="#000000" points="419,-355.7 419,-377.7 538,-377.7 538,-355.7 419,-355.7"/>
<text text-anchor="start" x="421.9485" y="-363.4" font-family="Helvetica,sans-Serif" font-size="11.00" fill="#000000">geometry[2147483647]</text>
<polygon fill="#ffffff" stroke="transparent" points="248,-333.7 248,-355.7 419,-355.7 419,-333.7 248,-333.7"/>
<polygon fill="none" stroke="#000000" points="248,-333.7 248,-355.7 419,-355.7 419,-333.7 248,-333.7"/>
<image xlink:href="../../images/foreignKeys.png" width="11px" height="12px" preserveAspectRatio="xMinYMin meet" x="253" y="-350.7"/>
<text text-anchor="start" x="268" y="-340.8" font-family="Helvetica,sans-Serif" font-size="11.00" fill="#000000">OBSID1</text>
<polygon fill="none" stroke="#000000" points="419,-333.7 419,-355.7 538,-355.7 538,-333.7 419,-333.7"/>
<text text-anchor="start" x="422" y="-341.4" font-family="Helvetica,sans-Serif" font-size="11.00" fill="#000000">varchar[254]</text>
<polygon fill="none" stroke="#000000" points="248,-311.7 248,-333.7 419,-333.7 419,-311.7 248,-311.7"/>
<text text-anchor="start" x="268" y="-318.8" font-family="Helvetica,sans-Serif" font-size="11.00" fill="#000000">OBSID2</text>
<polygon fill="none" stroke="#000000" points="419,-311.7 419,-333.7 538,-333.7 538,-311.7 419,-311.7"/>
<text text-anchor="start" x="422" y="-319.4" font-family="Helvetica,sans-Serif" font-size="11.00" fill="#000000">varchar[254]</text>
<polygon fill="none" stroke="#000000" points="248,-289.7 248,-311.7 419,-311.7 419,-289.7 248,-289.7"/>
<image xlink:href="../../images/foreignKeys.png" width="11px" height="12px" preserveAspectRatio="xMinYMin meet" x="253" y="-306.7"/>
<text text-anchor="start" x="268" y="-296.8" font-family="Helvetica,sans-Serif" font-size="11.00" fill="#000000">STUDYID</text>
<polygon fill="none" stroke="#000000" points="419,-289.7 419,-311.7 538,-311.7 538,-289.7 419,-289.7"/>
<text text-anchor="start" x="422" y="-297.4" font-family="Helvetica,sans-Serif" font-size="11.00" fill="#000000">varchar[5]</text>
<polygon fill="none" stroke="#000000" points="248,-267.7 248,-289.7 419,-289.7 419,-267.7 248,-267.7"/>
<text text-anchor="start" x="268" y="-274.8" font-family="Helvetica,sans-Serif" font-size="11.00" fill="#000000">CRN_SUBCMP</text>
<polygon fill="none" stroke="#000000" points="419,-267.7 419,-289.7 538,-289.7 538,-267.7 419,-267.7"/>
<text text-anchor="start" x="422" y="-275.4" font-family="Helvetica,sans-Serif" font-size="11.00" fill="#000000">varchar[3]</text>
<polygon fill="none" stroke="#000000" points="248,-245.7 248,-267.7 419,-267.7 419,-245.7 248,-245.7"/>
<text text-anchor="start" x="268" y="-252.8" font-family="Helvetica,sans-Serif" font-size="11.00" fill="#000000">CENTR_LAT</text>
<polygon fill="none" stroke="#000000" points="419,-245.7 419,-267.7 538,-267.7 538,-245.7 419,-245.7"/>
<text text-anchor="start" x="422" y="-253.4" font-family="Helvetica,sans-Serif" font-size="11.00" fill="#000000">numeric[6,4]</text>
<polygon fill="none" stroke="#000000" points="248,-223.7 248,-245.7 419,-245.7 419,-223.7 248,-223.7"/>
<text text-anchor="start" x="268" y="-230.8" font-family="Helvetica,sans-Serif" font-size="11.00" fill="#000000">ATM_PRESS</text>
<polygon fill="none" stroke="#000000" points="419,-223.7 419,-245.7 538,-245.7 538,-223.7 419,-223.7"/>
<text text-anchor="start" x="422" y="-231.4" font-family="Helvetica,sans-Serif" font-size="11.00" fill="#000000">numeric[6,2]</text>
<polygon fill="none" stroke="#000000" points="248,-201.7 248,-223.7 419,-223.7 419,-201.7 248,-201.7"/>
<text text-anchor="start" x="268" y="-208.8" font-family="Helvetica,sans-Serif" font-size="11.00" fill="#000000">CREATED_AT</text>
<polygon fill="none" stroke="#000000" points="419,-201.7 419,-223.7 538,-223.7 538,-201.7 419,-201.7"/>
<text text-anchor="start" x="422" y="-209.4" font-family="Helvetica,sans-Serif" font-size="11.00" fill="#000000">timestamptz[35,6]</text>
<polygon fill="none" stroke="#000000" points="248,-179.7 248,-201.7 419,-201.7 419,-179.7 248,-179.7"/>
<text text-anchor="start" x="268" y="-186.8" font-family="Helvetica,sans-Serif" font-size="11.00" fill="#000000">UPDATED_AT</text>
<polygon fill="none" stroke="#000000" points="419,-179.7 419,-201.7 538,-201.7 538,-179.7 419,-179.7"/>
<text text-anchor="start" x="422" y="-187.4" font-family="Helvetica,sans-Serif" font-size="11.00" fill="#000000">timestamptz[35,6]</text>
<polygon fill="#ffffff" stroke="transparent" points="248,-160.7 248,-179.7 314,-179.7 314,-160.7 248,-160.7"/>
<polygon fill="none" stroke="#000000" points="248,-160.7 248,-179.7 314,-179.7 314,-160.7 248,-160.7"/>
<text text-anchor="start" x="251" y="-166.8" font-family="Helvetica,sans-Serif" font-size="11.00" fill="#000000">&lt; 3</text>
<polygon fill="#ffffff" stroke="transparent" points="314,-160.7 314,-179.7 419,-179.7 419,-160.7 314,-160.7"/>
<polygon fill="none" stroke="#000000" points="314,-160.7 314,-179.7 419,-179.7 419,-160.7 314,-160.7"/>
<text text-anchor="start" x="362.2089" y="-166.8" font-family="Helvetica,sans-Serif" font-size="11.00" fill="#000000">6.091 rows</text>
<polygon fill="#ffffff" stroke="transparent" points="419,-160.7 419,-179.7 538,-179.7 538,-160.7 419,-160.7"/>
<polygon fill="none" stroke="#000000" points="419,-160.7 419,-179.7 538,-179.7 538,-160.7 419,-160.7"/>
<text text-anchor="start" x="519.4053" y="-166.8" font-family="Helvetica,sans-Serif" font-size="11.00" fill="#000000">0 &gt;</text>
<polygon fill="none" stroke="#000000" stroke-width="2" points="247,-159.7 247,-423.7 539,-423.7 539,-159.7 247,-159.7"/>
</a>
</g>
</g>
<!-- crn_al_DataCore -->
<g id="node2" class="node">
<title>crn_al_DataCore</title>
<g id="a_node2"><a xlink:href="../../tables/crn_al_DataCore.html" xlink:title="crn_al_DataCore" target="_top">
<polygon fill="#ffffff" stroke="transparent" points="35.5,-400.2 35.5,-593.2 169.5,-593.2 169.5,-400.2 35.5,-400.2"/>
<polygon fill="#f5f5f5" stroke="transparent" points="35.5,-569.7 35.5,-592.7 169.5,-592.7 169.5,-569.7 35.5,-569.7"/>
<polygon fill="none" stroke="#000000" points="35.5,-569.7 35.5,-592.7 169.5,-592.7 169.5,-569.7 35.5,-569.7"/>
<text text-anchor="start" x="40.5" y="-578.3" font-family="Helvetica,sans-Serif" font-weight="bold" font-size="11.00" fill="#000000">crn_al_DataCore</text>
<text text-anchor="start" x="135.0219" y="-577.8" font-family="Helvetica,sans-Serif" font-size="11.00" fill="#000000">[table]</text>
<polygon fill="none" stroke="#000000" points="35.5,-547.7 35.5,-569.7 169.5,-569.7 169.5,-547.7 35.5,-547.7"/>
<image xlink:href="../../images/primaryKeys.png" width="11px" height="12px" preserveAspectRatio="xMinYMin meet" x="40.5" y="-564.7"/>
<text text-anchor="start" x="64.5" y="-554.8" font-family="Helvetica,sans-Serif" font-size="11.00" fill="#000000">OBSID1</text>
<polygon fill="none" stroke="#000000" points="35.5,-525.7 35.5,-547.7 169.5,-547.7 169.5,-525.7 35.5,-525.7"/>
<image xlink:href="../../images/foreignKeys.png" width="11px" height="12px" preserveAspectRatio="xMinYMin meet" x="40.5" y="-542.7"/>
<text text-anchor="start" x="64.5" y="-532.8" font-family="Helvetica,sans-Serif" font-size="11.00" fill="#000000">SMPID</text>
<polygon fill="none" stroke="#000000" points="35.5,-503.7 35.5,-525.7 169.5,-525.7 169.5,-503.7 35.5,-503.7"/>
<image xlink:href="../../images/foreignKeys.png" width="11px" height="12px" preserveAspectRatio="xMinYMin meet" x="40.5" y="-520.7"/>
<text text-anchor="start" x="64.5" y="-510.8" font-family="Helvetica,sans-Serif" font-size="11.00" fill="#000000">VERID</text>
<polygon fill="none" stroke="#000000" points="35.5,-481.7 35.5,-503.7 169.5,-503.7 169.5,-481.7 35.5,-481.7"/>
<image xlink:href="../../images/foreignKeys.png" width="11px" height="12px" preserveAspectRatio="xMinYMin meet" x="40.5" y="-498.7"/>
<text text-anchor="start" x="64.5" y="-488.8" font-family="Helvetica,sans-Serif" font-size="11.00" fill="#000000">REFDBID1</text>
<polygon fill="none" stroke="#000000" points="35.5,-459.7 35.5,-481.7 169.5,-481.7 169.5,-459.7 35.5,-459.7"/>
<image xlink:href="../../images/foreignKeys.png" width="11px" height="12px" preserveAspectRatio="xMinYMin meet" x="40.5" y="-476.7"/>
<text text-anchor="start" x="64.5" y="-466.8" font-family="Helvetica,sans-Serif" font-size="11.00" fill="#000000">ALSTNDID</text>
<polygon fill="none" stroke="#000000" points="35.5,-437.7 35.5,-459.7 169.5,-459.7 169.5,-437.7 35.5,-437.7"/>
<image xlink:href="../../images/foreignKeys.png" width="11px" height="12px" preserveAspectRatio="xMinYMin meet" x="40.5" y="-454.7"/>
<text text-anchor="start" x="64.5" y="-444.8" font-family="Helvetica,sans-Serif" font-size="11.00" fill="#000000">ALAMSID</text>
<polygon fill="none" stroke="#000000" points="35.5,-418.7 35.5,-437.7 169.5,-437.7 169.5,-418.7 35.5,-418.7"/>
<text text-anchor="start" x="38.5" y="-424.8" font-family="Helvetica,sans-Serif" font-size="11.00" fill="#000000">...</text>
<polygon fill="#ffffff" stroke="transparent" points="35.5,-399.7 35.5,-418.7 72.5,-418.7 72.5,-399.7 35.5,-399.7"/>
<polygon fill="none" stroke="#000000" points="35.5,-399.7 35.5,-418.7 72.5,-418.7 72.5,-399.7 35.5,-399.7"/>
<text text-anchor="start" x="38.5" y="-405.8" font-family="Helvetica,sans-Serif" font-size="11.00" fill="#000000">&lt; 5</text>
<polygon fill="#ffffff" stroke="transparent" points="72.5,-399.7 72.5,-418.7 139.5,-418.7 139.5,-399.7 72.5,-399.7"/>
<polygon fill="none" stroke="#000000" points="72.5,-399.7 72.5,-418.7 139.5,-418.7 139.5,-399.7 72.5,-399.7"/>
<text text-anchor="start" x="82.7089" y="-405.8" font-family="Helvetica,sans-Serif" font-size="11.00" fill="#000000">6.091 rows</text>
<polygon fill="#ffffff" stroke="transparent" points="139.5,-399.7 139.5,-418.7 169.5,-418.7 169.5,-399.7 139.5,-399.7"/>
<polygon fill="none" stroke="#000000" points="139.5,-399.7 139.5,-418.7 169.5,-418.7 169.5,-399.7 139.5,-399.7"/>
<text text-anchor="start" x="150.9053" y="-405.8" font-family="Helvetica,sans-Serif" font-size="11.00" fill="#000000">2 &gt;</text>
</a>
</g>
</g>
<!-- crn_v3_basins_EPSG3857&#45;&gt;crn_al_DataCore -->
<g id="edge1" class="edge">
<title>crn_v3_basins_EPSG3857:w&#45;&gt;crn_al_DataCore:e</title>
<path fill="none" stroke="#000000" d="M237.6298,-345.5622C155.5931,-360.2881 267.0487,-558.7 169.5,-558.7"/>
<polygon fill="#000000" stroke="#000000" points="246.8713,-340.78 247.5342,-348.7525 245.9397,-348.8851 245.2768,-340.9126 246.8713,-340.78"/>
<polyline fill="none" stroke="#000000" points="248,-344.7 244.0138,-345.0315 "/>
<ellipse fill="none" stroke="#000000" cx="240.8248" cy="-345.2966" rx="3.2" ry="3.2"/>
</g>
<!-- crn_be_DataCore -->
<g id="node3" class="node">
<title>crn_be_DataCore</title>
<g id="a_node3"><a xlink:href="../../tables/crn_be_DataCore.html" xlink:title="crn_be_DataCore" target="_top">
<polygon fill="#ffffff" stroke="transparent" points="33.5,-186.2 33.5,-379.2 171.5,-379.2 171.5,-186.2 33.5,-186.2"/>
<polygon fill="#f5f5f5" stroke="transparent" points="33.5,-355.7 33.5,-378.7 171.5,-378.7 171.5,-355.7 33.5,-355.7"/>
<polygon fill="none" stroke="#000000" points="33.5,-355.7 33.5,-378.7 171.5,-378.7 171.5,-355.7 33.5,-355.7"/>
<text text-anchor="start" x="38.5" y="-364.3" font-family="Helvetica,sans-Serif" font-weight="bold" font-size="11.00" fill="#000000">crn_be_DataCore</text>
<text text-anchor="start" x="137.0219" y="-363.8" font-family="Helvetica,sans-Serif" font-size="11.00" fill="#000000">[table]</text>
<polygon fill="none" stroke="#000000" points="33.5,-333.7 33.5,-355.7 171.5,-355.7 171.5,-333.7 33.5,-333.7"/>
<image xlink:href="../../images/primaryKeys.png" width="11px" height="12px" preserveAspectRatio="xMinYMin meet" x="38.5" y="-350.7"/>
<text text-anchor="start" x="62.5" y="-340.8" font-family="Helvetica,sans-Serif" font-size="11.00" fill="#000000">OBSID1</text>
<polygon fill="none" stroke="#000000" points="33.5,-311.7 33.5,-333.7 171.5,-333.7 171.5,-311.7 33.5,-311.7"/>
<image xlink:href="../../images/foreignKeys.png" width="11px" height="12px" preserveAspectRatio="xMinYMin meet" x="38.5" y="-328.7"/>
<text text-anchor="start" x="62.5" y="-318.8" font-family="Helvetica,sans-Serif" font-size="11.00" fill="#000000">SMPID</text>
<polygon fill="none" stroke="#000000" points="33.5,-289.7 33.5,-311.7 171.5,-311.7 171.5,-289.7 33.5,-289.7"/>
<image xlink:href="../../images/foreignKeys.png" width="11px" height="12px" preserveAspectRatio="xMinYMin meet" x="38.5" y="-306.7"/>
<text text-anchor="start" x="62.5" y="-296.8" font-family="Helvetica,sans-Serif" font-size="11.00" fill="#000000">VERID</text>
<polygon fill="none" stroke="#000000" points="33.5,-267.7 33.5,-289.7 171.5,-289.7 171.5,-267.7 33.5,-267.7"/>
<image xlink:href="../../images/foreignKeys.png" width="11px" height="12px" preserveAspectRatio="xMinYMin meet" x="38.5" y="-284.7"/>
<text text-anchor="start" x="62.5" y="-274.8" font-family="Helvetica,sans-Serif" font-size="11.00" fill="#000000">REFDBID1</text>
<polygon fill="none" stroke="#000000" points="33.5,-245.7 33.5,-267.7 171.5,-267.7 171.5,-245.7 33.5,-245.7"/>
<image xlink:href="../../images/foreignKeys.png" width="11px" height="12px" preserveAspectRatio="xMinYMin meet" x="38.5" y="-262.7"/>
<text text-anchor="start" x="62.5" y="-252.8" font-family="Helvetica,sans-Serif" font-size="11.00" fill="#000000">BESTNDID</text>
<polygon fill="none" stroke="#000000" points="33.5,-223.7 33.5,-245.7 171.5,-245.7 171.5,-223.7 33.5,-223.7"/>
<image xlink:href="../../images/foreignKeys.png" width="11px" height="12px" preserveAspectRatio="xMinYMin meet" x="38.5" y="-240.7"/>
<text text-anchor="start" x="62.5" y="-230.8" font-family="Helvetica,sans-Serif" font-size="11.00" fill="#000000">BEAMSID</text>
<polygon fill="none" stroke="#000000" points="33.5,-204.7 33.5,-223.7 171.5,-223.7 171.5,-204.7 33.5,-204.7"/>
<text text-anchor="start" x="36.5" y="-210.8" font-family="Helvetica,sans-Serif" font-size="11.00" fill="#000000">...</text>
<polygon fill="#ffffff" stroke="transparent" points="33.5,-185.7 33.5,-204.7 72.5,-204.7 72.5,-185.7 33.5,-185.7"/>
<polygon fill="none" stroke="#000000" points="33.5,-185.7 33.5,-204.7 72.5,-204.7 72.5,-185.7 33.5,-185.7"/>
<text text-anchor="start" x="36.5" y="-191.8" font-family="Helvetica,sans-Serif" font-size="11.00" fill="#000000">&lt; 5</text>
<polygon fill="#ffffff" stroke="transparent" points="72.5,-185.7 72.5,-204.7 140.5,-204.7 140.5,-185.7 72.5,-185.7"/>
<polygon fill="none" stroke="#000000" points="72.5,-185.7 72.5,-204.7 140.5,-204.7 140.5,-185.7 72.5,-185.7"/>
<text text-anchor="start" x="83.7089" y="-191.8" font-family="Helvetica,sans-Serif" font-size="11.00" fill="#000000">6.091 rows</text>
<polygon fill="#ffffff" stroke="transparent" points="140.5,-185.7 140.5,-204.7 171.5,-204.7 171.5,-185.7 140.5,-185.7"/>
<polygon fill="none" stroke="#000000" points="140.5,-185.7 140.5,-204.7 171.5,-204.7 171.5,-185.7 140.5,-185.7"/>
<text text-anchor="start" x="152.9053" y="-191.8" font-family="Helvetica,sans-Serif" font-size="11.00" fill="#000000">2 &gt;</text>
</a>
</g>
</g>
<!-- crn_v3_basins_EPSG3857&#45;&gt;crn_be_DataCore -->
<g id="edge2" class="edge">
<title>crn_v3_basins_EPSG3857:w&#45;&gt;crn_be_DataCore:e</title>
<path fill="none" stroke="#000000" d="M237.3529,-344.7C211.747,-344.7 201.6484,-344.7 171.5,-344.7"/>
<polygon fill="#000000" stroke="#000000" points="247.2,-340.7 247.2,-348.7 245.6,-348.7 245.6,-340.7 247.2,-340.7"/>
<polyline fill="none" stroke="#000000" points="248,-344.7 244,-344.7 "/>
<ellipse fill="none" stroke="#000000" cx="240.8" cy="-344.7001" rx="3.2" ry="3.2"/>
</g>
<!-- crn_studies_boundingbox -->
<g id="node4" class="node">
<title>crn_studies_boundingbox</title>
<g id="a_node4"><a xlink:href="../../tables/crn_studies_boundingbox.html" xlink:title="crn_studies_boundingbox" target="_top">
<polygon fill="#ffffff" stroke="transparent" points="8,-38.2 8,-165.2 197,-165.2 197,-38.2 8,-38.2"/>
<polygon fill="#f5f5f5" stroke="transparent" points="8.5,-141.7 8.5,-164.7 197.5,-164.7 197.5,-141.7 8.5,-141.7"/>
<polygon fill="none" stroke="#000000" points="8.5,-141.7 8.5,-164.7 197.5,-164.7 197.5,-141.7 8.5,-141.7"/>
<text text-anchor="start" x="13.5" y="-150.3" font-family="Helvetica,sans-Serif" font-weight="bold" font-size="11.00" fill="#000000">crn_studies_boundingbox</text>
<text text-anchor="start" x="163.0219" y="-149.8" font-family="Helvetica,sans-Serif" font-size="11.00" fill="#000000">[table]</text>
<polygon fill="none" stroke="#000000" points="8.5,-119.7 8.5,-141.7 197.5,-141.7 197.5,-119.7 8.5,-119.7"/>
<image xlink:href="../../images/primaryKeys.png" width="11px" height="12px" preserveAspectRatio="xMinYMin meet" x="13.5" y="-136.7"/>
<text text-anchor="start" x="37.5" y="-126.8" font-family="Helvetica,sans-Serif" font-size="11.00" fill="#000000">id</text>
<polygon fill="#ffffff" stroke="transparent" points="8.5,-97.7 8.5,-119.7 197.5,-119.7 197.5,-97.7 8.5,-97.7"/>
<polygon fill="none" stroke="#000000" points="8.5,-97.7 8.5,-119.7 197.5,-119.7 197.5,-97.7 8.5,-97.7"/>
<text text-anchor="start" x="37.5" y="-104.8" font-family="Helvetica,sans-Serif" font-size="11.00" fill="#000000">geom</text>
<polygon fill="#ffffff" stroke="transparent" points="8.5,-75.7 8.5,-97.7 197.5,-97.7 197.5,-75.7 8.5,-75.7"/>
<polygon fill="none" stroke="#000000" points="8.5,-75.7 8.5,-97.7 197.5,-97.7 197.5,-75.7 8.5,-75.7"/>
<image xlink:href="../../images/foreignKeys.png" width="11px" height="12px" preserveAspectRatio="xMinYMin meet" x="13.5" y="-92.7"/>
<text text-anchor="start" x="37.5" y="-82.8" font-family="Helvetica,sans-Serif" font-size="11.00" fill="#000000">STUDYID</text>
<polygon fill="none" stroke="#000000" points="8.5,-56.7 8.5,-75.7 197.5,-75.7 197.5,-56.7 8.5,-56.7"/>
<text text-anchor="start" x="11.5" y="-62.8" font-family="Helvetica,sans-Serif" font-size="11.00" fill="#000000">...</text>
<polygon fill="#ffffff" stroke="transparent" points="8.5,-37.7 8.5,-56.7 73.5,-56.7 73.5,-37.7 8.5,-37.7"/>
<polygon fill="none" stroke="#000000" points="8.5,-37.7 8.5,-56.7 73.5,-56.7 73.5,-37.7 8.5,-37.7"/>
<text text-anchor="start" x="11.5" y="-43.8" font-family="Helvetica,sans-Serif" font-size="11.00" fill="#000000"> &#160;</text>
<polygon fill="#ffffff" stroke="transparent" points="73.5,-37.7 73.5,-56.7 149.5,-56.7 149.5,-37.7 73.5,-37.7"/>
<polygon fill="none" stroke="#000000" points="73.5,-37.7 73.5,-56.7 149.5,-56.7 149.5,-37.7 73.5,-37.7"/>
<text text-anchor="start" x="101.8807" y="-43.8" font-family="Helvetica,sans-Serif" font-size="11.00" fill="#000000">301 rows</text>
<polygon fill="#ffffff" stroke="transparent" points="149.5,-37.7 149.5,-56.7 197.5,-56.7 197.5,-37.7 149.5,-37.7"/>
<polygon fill="none" stroke="#000000" points="149.5,-37.7 149.5,-56.7 197.5,-56.7 197.5,-37.7 149.5,-37.7"/>
<text text-anchor="start" x="178.9053" y="-43.8" font-family="Helvetica,sans-Serif" font-size="11.00" fill="#000000">2 &gt;</text>
</a>
</g>
</g>
<!-- crn_v3_basins_EPSG3857&#45;&gt;crn_studies_boundingbox -->
<g id="edge3" class="edge">
<title>crn_v3_basins_EPSG3857:w&#45;&gt;crn_studies_boundingbox:e</title>
<path fill="none" stroke="#000000" d="M233.642,-298.7181C165.9178,-277.1444 289.6884,-86.7 197.5,-86.7"/>
<polygon fill="#000000" stroke="#000000" points="240.0751,-299.6061 247.5077,-304.2662 244.0376,-300.153 248,-300.7 248,-300.7 248,-300.7 244.0376,-300.153 248.4923,-297.1338 240.0751,-299.6061 240.0751,-299.6061"/>
<ellipse fill="none" stroke="#000000" cx="236.9052" cy="-299.1685" rx="3.2" ry="3.2"/>
</g>
</g>
</svg>
