<?xml version="1.0" encoding="UTF-8" standalone="no"?>
<!DOCTYPE svg PUBLIC "-//W3C//DTD SVG 1.1//EN"
 "http://www.w3.org/Graphics/SVG/1.1/DTD/svg11.dtd">
<!-- Generated by graphviz version 2.40.1 (20161225.0304)
 -->
<!-- Title: twoDegreesRelationshipsDiagram Pages: 1 -->
<svg width="629pt" height="765pt"
 viewBox="0.00 0.00 629.00 765.20" xmlns="http://www.w3.org/2000/svg" xmlns:xlink="http://www.w3.org/1999/xlink">
<g id="graph0" class="graph" transform="scale(1 1) rotate(0) translate(4 761.2)">
<title>twoDegreesRelationshipsDiagram</title>
<polygon fill="#ffffff" stroke="transparent" points="-4,4 -4,-761.2 625,-761.2 625,4 -4,4"/>
<text text-anchor="middle" x="72.4936" y="-7.3" font-family="Helvetica,sans-Serif" font-size="11.00" fill="#000000">Generated by SchemaSpy</text>
<!-- crn_al_DataCore -->
<g id="node1" class="node">
<title>crn_al_DataCore</title>
<g id="a_node1"><a xlink:href="../../tables/crn_al_DataCore.html" xlink:title="crn_al_DataCore" target="_top">
<polygon fill="#ffffff" stroke="transparent" points="260,-227.2 260,-420.2 386,-420.2 386,-227.2 260,-227.2"/>
<polygon fill="#f5f5f5" stroke="transparent" points="260,-396.7 260,-419.7 386,-419.7 386,-396.7 260,-396.7"/>
<polygon fill="none" stroke="#000000" points="260,-396.7 260,-419.7 386,-419.7 386,-396.7 260,-396.7"/>
<text text-anchor="start" x="264.9387" y="-405.8" font-family="Helvetica,sans-Serif" font-weight="bold" font-size="11.00" fill="#000000">crn_al_DataCore</text>
<text text-anchor="start" x="351.5219" y="-404.8" font-family="Helvetica,sans-Serif" font-size="11.00" fill="#000000">[table]</text>
<polygon fill="none" stroke="#000000" points="260,-374.7 260,-396.7 386,-396.7 386,-374.7 260,-374.7"/>
<image xlink:href="../../images/primaryKeys.png" width="11px" height="12px" preserveAspectRatio="xMinYMin meet" x="265" y="-391.7"/>
<text text-anchor="start" x="285" y="-381.8" font-family="Helvetica,sans-Serif" font-size="11.00" fill="#000000">OBSID1</text>
<polygon fill="none" stroke="#000000" points="260,-352.7 260,-374.7 386,-374.7 386,-352.7 260,-352.7"/>
<image xlink:href="../../images/foreignKeys.png" width="11px" height="12px" preserveAspectRatio="xMinYMin meet" x="265" y="-369.7"/>
<text text-anchor="start" x="285" y="-359.8" font-family="Helvetica,sans-Serif" font-size="11.00" fill="#000000">SMPID</text>
<polygon fill="none" stroke="#000000" points="260,-330.7 260,-352.7 386,-352.7 386,-330.7 260,-330.7"/>
<image xlink:href="../../images/foreignKeys.png" width="11px" height="12px" preserveAspectRatio="xMinYMin meet" x="265" y="-347.7"/>
<text text-anchor="start" x="285" y="-337.8" font-family="Helvetica,sans-Serif" font-size="11.00" fill="#000000">DBDOI</text>
<polygon fill="none" stroke="#000000" points="260,-308.7 260,-330.7 386,-330.7 386,-308.7 260,-308.7"/>
<image xlink:href="../../images/foreignKeys.png" width="11px" height="12px" preserveAspectRatio="xMinYMin meet" x="265" y="-325.7"/>
<text text-anchor="start" x="285" y="-315.8" font-family="Helvetica,sans-Serif" font-size="11.00" fill="#000000">REFDBID1</text>
<polygon fill="none" stroke="#000000" points="260,-286.7 260,-308.7 386,-308.7 386,-286.7 260,-286.7"/>
<image xlink:href="../../images/foreignKeys.png" width="11px" height="12px" preserveAspectRatio="xMinYMin meet" x="265" y="-303.7"/>
<text text-anchor="start" x="285" y="-293.8" font-family="Helvetica,sans-Serif" font-size="11.00" fill="#000000">ALSTNDID</text>
<polygon fill="none" stroke="#000000" points="260,-264.7 260,-286.7 386,-286.7 386,-264.7 260,-264.7"/>
<image xlink:href="../../images/foreignKeys.png" width="11px" height="12px" preserveAspectRatio="xMinYMin meet" x="265" y="-281.7"/>
<text text-anchor="start" x="285" y="-271.8" font-family="Helvetica,sans-Serif" font-size="11.00" fill="#000000">ALAMSID</text>
<polygon fill="none" stroke="#000000" points="260,-245.7 260,-264.7 386,-264.7 386,-245.7 260,-245.7"/>
<text text-anchor="start" x="263" y="-251.8" font-family="Helvetica,sans-Serif" font-size="11.00" fill="#000000">...</text>
<polygon fill="#ffffff" stroke="transparent" points="260,-226.7 260,-245.7 293,-245.7 293,-226.7 260,-226.7"/>
<polygon fill="none" stroke="#000000" points="260,-226.7 260,-245.7 293,-245.7 293,-226.7 260,-226.7"/>
<text text-anchor="start" x="263" y="-232.8" font-family="Helvetica,sans-Serif" font-size="11.00" fill="#000000">&lt; 5</text>
<polygon fill="#ffffff" stroke="transparent" points="293,-226.7 293,-245.7 358,-245.7 358,-226.7 293,-226.7"/>
<polygon fill="none" stroke="#000000" points="293,-226.7 293,-245.7 358,-245.7 358,-226.7 293,-226.7"/>
<text text-anchor="start" x="301.2089" y="-232.8" font-family="Helvetica,sans-Serif" font-size="11.00" fill="#000000">4,631 rows</text>
<polygon fill="#ffffff" stroke="transparent" points="358,-226.7 358,-245.7 386,-245.7 386,-226.7 358,-226.7"/>
<polygon fill="none" stroke="#000000" points="358,-226.7 358,-245.7 386,-245.7 386,-226.7 358,-226.7"/>
<text text-anchor="start" x="367.4053" y="-232.8" font-family="Helvetica,sans-Serif" font-size="11.00" fill="#000000">2 &gt;</text>
</a>
</g>
</g>
<!-- crn_amsID -->
<g id="node2" class="node">
<title>crn_amsID</title>
<g id="a_node2"><a xlink:href="../../tables/crn_amsID.html" xlink:title="crn_amsID" target="_top">
<polygon fill="#ffffff" stroke="transparent" points="60,-38.2 60,-99.2 156,-99.2 156,-38.2 60,-38.2"/>
<polygon fill="#f5f5f5" stroke="transparent" points="60,-75.7 60,-98.7 156,-98.7 156,-75.7 60,-75.7"/>
<polygon fill="none" stroke="#000000" points="60,-75.7 60,-98.7 156,-98.7 156,-75.7 60,-75.7"/>
<text text-anchor="start" x="64.9169" y="-84.8" font-family="Helvetica,sans-Serif" font-weight="bold" font-size="11.00" fill="#000000">crn_amsID</text>
<text text-anchor="start" x="121.5219" y="-83.8" font-family="Helvetica,sans-Serif" font-size="11.00" fill="#000000">[table]</text>
<polygon fill="none" stroke="#000000" points="60,-56.7 60,-75.7 156,-75.7 156,-56.7 60,-56.7"/>
<text text-anchor="start" x="63" y="-62.8" font-family="Helvetica,sans-Serif" font-size="11.00" fill="#000000">...</text>
<polygon fill="#ffffff" stroke="transparent" points="60,-37.7 60,-56.7 81,-56.7 81,-37.7 60,-37.7"/>
<polygon fill="none" stroke="#000000" points="60,-37.7 60,-56.7 81,-56.7 81,-37.7 60,-37.7"/>
<text text-anchor="start" x="63" y="-43.8" font-family="Helvetica,sans-Serif" font-size="11.00" fill="#000000"> &#160;</text>
<polygon fill="#ffffff" stroke="transparent" points="81,-37.7 81,-56.7 130,-56.7 130,-37.7 81,-37.7"/>
<polygon fill="none" stroke="#000000" points="81,-37.7 81,-56.7 130,-56.7 130,-37.7 81,-37.7"/>
<text text-anchor="start" x="88.4956" y="-43.8" font-family="Helvetica,sans-Serif" font-size="11.00" fill="#000000">37 rows</text>
<polygon fill="#ffffff" stroke="transparent" points="130,-37.7 130,-56.7 156,-56.7 156,-37.7 130,-37.7"/>
<polygon fill="none" stroke="#000000" points="130,-37.7 130,-56.7 156,-56.7 156,-37.7 130,-37.7"/>
<text text-anchor="start" x="137.4053" y="-43.8" font-family="Helvetica,sans-Serif" font-size="11.00" fill="#000000">2 &gt;</text>
</a>
</g>
</g>
<!-- crn_al_DataCore&#45;&gt;crn_amsID -->
<g id="edge1" class="edge">
<title>crn_al_DataCore:w&#45;&gt;crn_amsID:e</title>
<path fill="none" stroke="#000000" d="M245.4015,-274.0572C194.2048,-260.6389 255.8149,-168.0756 216,-109.7 197.367,-82.3807 189.0686,-65.7 156,-65.7"/>
<polygon fill="#000000" stroke="#000000" points="252.0502,-274.8053 259.5974,-279.2774 256.0251,-275.2527 260,-275.7 260,-275.7 260,-275.7 256.0251,-275.2527 260.4026,-272.1226 252.0502,-274.8053 252.0502,-274.8053"/>
<ellipse fill="none" stroke="#000000" cx="248.8702" cy="-274.4475" rx="3.2" ry="3.2"/>
</g>
<!-- crn_alstndID -->
<g id="node3" class="node">
<title>crn_alstndID</title>
<g id="a_node3"><a xlink:href="../../tables/crn_alstndID.html" xlink:title="crn_alstndID" target="_top">
<polygon fill="#ffffff" stroke="transparent" points="8,-202.7 8,-424.7 208,-424.7 208,-202.7 8,-202.7"/>
<polygon fill="#f5f5f5" stroke="transparent" points="10,-399.7 10,-422.7 206,-422.7 206,-399.7 10,-399.7"/>
<polygon fill="none" stroke="#000000" points="10,-399.7 10,-422.7 206,-422.7 206,-399.7 10,-399.7"/>
<text text-anchor="start" x="15" y="-408.8" font-family="Helvetica,sans-Serif" font-weight="bold" font-size="11.00" fill="#000000">crn_alstndID</text>
<text text-anchor="start" x="171.0437" y="-407.8" font-family="Helvetica,sans-Serif" font-size="11.00" fill="#000000">[table]</text>
<polygon fill="none" stroke="#000000" points="10,-377.7 10,-399.7 114,-399.7 114,-377.7 10,-377.7"/>
<image xlink:href="../../images/primaryKeys.png" width="11px" height="12px" preserveAspectRatio="xMinYMin meet" x="15" y="-394.7"/>
<text text-anchor="start" x="30" y="-384.8" font-family="Helvetica,sans-Serif" font-size="11.00" fill="#000000">ALSTNDID</text>
<polygon fill="none" stroke="#000000" points="114,-377.7 114,-399.7 206,-399.7 206,-377.7 114,-377.7"/>
<text text-anchor="start" x="117" y="-385.4" font-family="Helvetica,sans-Serif" font-size="11.00" fill="#000000">smallserial[5]</text>
<polygon fill="none" stroke="#000000" points="10,-355.7 10,-377.7 114,-377.7 114,-355.7 10,-355.7"/>
<text text-anchor="start" x="30" y="-362.8" font-family="Helvetica,sans-Serif" font-size="11.00" fill="#000000">ALSTND</text>
<polygon fill="none" stroke="#000000" points="114,-355.7 114,-377.7 206,-377.7 206,-355.7 114,-355.7"/>
<text text-anchor="start" x="117" y="-363.4" font-family="Helvetica,sans-Serif" font-size="11.00" fill="#000000">text[2147483647]</text>
<polygon fill="none" stroke="#000000" points="10,-333.7 10,-355.7 114,-355.7 114,-333.7 10,-333.7"/>
<text text-anchor="start" x="30" y="-340.8" font-family="Helvetica,sans-Serif" font-size="11.00" fill="#000000">ALSTND_PUB</text>
<polygon fill="none" stroke="#000000" points="114,-333.7 114,-355.7 206,-355.7 206,-333.7 114,-333.7"/>
<text text-anchor="start" x="117" y="-341.4" font-family="Helvetica,sans-Serif" font-size="11.00" fill="#000000">text[2147483647]</text>
<polygon fill="none" stroke="#000000" points="10,-311.7 10,-333.7 114,-333.7 114,-311.7 10,-311.7"/>
<text text-anchor="start" x="30" y="-318.8" font-family="Helvetica,sans-Serif" font-size="11.00" fill="#000000">ALCORR</text>
<polygon fill="none" stroke="#000000" points="114,-311.7 114,-333.7 206,-333.7 206,-311.7 114,-311.7"/>
<text text-anchor="start" x="117" y="-319.4" font-family="Helvetica,sans-Serif" font-size="11.00" fill="#000000">numeric[5,4]</text>
<polygon fill="none" stroke="#000000" points="10,-289.7 10,-311.7 114,-311.7 114,-289.7 10,-289.7"/>
<text text-anchor="start" x="30" y="-296.8" font-family="Helvetica,sans-Serif" font-size="11.00" fill="#000000">ALSTNDRTIO</text>
<polygon fill="none" stroke="#000000" points="114,-289.7 114,-311.7 206,-311.7 206,-289.7 114,-289.7"/>
<text text-anchor="start" x="117" y="-297.4" font-family="Helvetica,sans-Serif" font-size="11.00" fill="#000000">numeric[0]</text>
<polygon fill="none" stroke="#000000" points="10,-267.7 10,-289.7 114,-289.7 114,-267.7 10,-267.7"/>
<text text-anchor="start" x="30" y="-274.8" font-family="Helvetica,sans-Serif" font-size="11.00" fill="#000000">ALSTNDCOMT</text>
<polygon fill="none" stroke="#000000" points="114,-267.7 114,-289.7 206,-289.7 206,-267.7 114,-267.7"/>
<text text-anchor="start" x="117" y="-275.4" font-family="Helvetica,sans-Serif" font-size="11.00" fill="#000000">text[2147483647]</text>
<polygon fill="none" stroke="#000000" points="10,-245.7 10,-267.7 114,-267.7 114,-245.7 10,-245.7"/>
<text text-anchor="start" x="30" y="-252.8" font-family="Helvetica,sans-Serif" font-size="11.00" fill="#000000">CREATED_AT</text>
<polygon fill="none" stroke="#000000" points="114,-245.7 114,-267.7 206,-267.7 206,-245.7 114,-245.7"/>
<text text-anchor="start" x="116.6023" y="-253.4" font-family="Helvetica,sans-Serif" font-size="11.00" fill="#000000">timestamptz[35,6]</text>
<polygon fill="none" stroke="#000000" points="10,-223.7 10,-245.7 114,-245.7 114,-223.7 10,-223.7"/>
<text text-anchor="start" x="30" y="-230.8" font-family="Helvetica,sans-Serif" font-size="11.00" fill="#000000">UPDATED_AT</text>
<polygon fill="none" stroke="#000000" points="114,-223.7 114,-245.7 206,-245.7 206,-223.7 114,-223.7"/>
<text text-anchor="start" x="116.6023" y="-231.4" font-family="Helvetica,sans-Serif" font-size="11.00" fill="#000000">timestamptz[35,6]</text>
<polygon fill="#ffffff" stroke="transparent" points="10,-204.7 10,-223.7 50,-223.7 50,-204.7 10,-204.7"/>
<polygon fill="none" stroke="#000000" points="10,-204.7 10,-223.7 50,-223.7 50,-204.7 10,-204.7"/>
<text text-anchor="start" x="13" y="-210.8" font-family="Helvetica,sans-Serif" font-size="11.00" fill="#000000">&lt; 0</text>
<polygon fill="#ffffff" stroke="transparent" points="50,-204.7 50,-223.7 114,-223.7 114,-204.7 50,-204.7"/>
<polygon fill="none" stroke="#000000" points="50,-204.7 50,-223.7 114,-223.7 114,-204.7 50,-204.7"/>
<text text-anchor="start" x="72.4956" y="-210.8" font-family="Helvetica,sans-Serif" font-size="11.00" fill="#000000">26 rows</text>
<polygon fill="#ffffff" stroke="transparent" points="114,-204.7 114,-223.7 206,-223.7 206,-204.7 114,-204.7"/>
<polygon fill="none" stroke="#000000" points="114,-204.7 114,-223.7 206,-223.7 206,-204.7 114,-204.7"/>
<text text-anchor="start" x="187.4053" y="-210.8" font-family="Helvetica,sans-Serif" font-size="11.00" fill="#000000">2 &gt;</text>
<polygon fill="none" stroke="#000000" stroke-width="2" points="9,-203.7 9,-423.7 207,-423.7 207,-203.7 9,-203.7"/>
</a>
</g>
</g>
<!-- crn_al_DataCore&#45;&gt;crn_alstndID -->
<g id="edge2" class="edge">
<title>crn_al_DataCore:w&#45;&gt;crn_alstndID:e</title>
<path fill="none" stroke="#000000" d="M246.1061,-301.6102C221.6246,-319.0281 247.1506,-388.7 206,-388.7"/>
<polygon fill="#000000" stroke="#000000" points="252.2992,-299.8673 260.9753,-301.1654 256.1496,-298.7836 260,-297.7 260,-297.7 260,-297.7 256.1496,-298.7836 259.0247,-294.2346 252.2992,-299.8673 252.2992,-299.8673"/>
<ellipse fill="none" stroke="#000000" cx="249.2188" cy="-300.7342" rx="3.2" ry="3.2"/>
</g>
<!-- global_dbDOI -->
<g id="node4" class="node">
<title>global_dbDOI</title>
<g id="a_node4"><a xlink:href="../../tables/global_dbDOI.html" xlink:title="global_dbDOI" target="_top">
<polygon fill="#ffffff" stroke="transparent" points="53,-610.2 53,-671.2 163,-671.2 163,-610.2 53,-610.2"/>
<polygon fill="#f5f5f5" stroke="transparent" points="53,-647.7 53,-670.7 163,-670.7 163,-647.7 53,-647.7"/>
<polygon fill="none" stroke="#000000" points="53,-647.7 53,-670.7 163,-670.7 163,-647.7 53,-647.7"/>
<text text-anchor="start" x="57.8796" y="-656.8" font-family="Helvetica,sans-Serif" font-weight="bold" font-size="11.00" fill="#000000">global_dbDOI</text>
<text text-anchor="start" x="128.5219" y="-655.8" font-family="Helvetica,sans-Serif" font-size="11.00" fill="#000000">[table]</text>
<polygon fill="none" stroke="#000000" points="53,-628.7 53,-647.7 163,-647.7 163,-628.7 53,-628.7"/>
<text text-anchor="start" x="56" y="-634.8" font-family="Helvetica,sans-Serif" font-size="11.00" fill="#000000">...</text>
<polygon fill="#ffffff" stroke="transparent" points="53,-609.7 53,-628.7 81,-628.7 81,-609.7 53,-609.7"/>
<polygon fill="none" stroke="#000000" points="53,-609.7 53,-628.7 81,-628.7 81,-609.7 53,-609.7"/>
<text text-anchor="start" x="56" y="-615.8" font-family="Helvetica,sans-Serif" font-size="11.00" fill="#000000"> &#160;</text>
<polygon fill="#ffffff" stroke="transparent" points="81,-609.7 81,-628.7 133,-628.7 133,-609.7 81,-609.7"/>
<polygon fill="none" stroke="#000000" points="81,-609.7 81,-628.7 133,-628.7 133,-609.7 81,-609.7"/>
<text text-anchor="start" x="91.4956" y="-615.8" font-family="Helvetica,sans-Serif" font-size="11.00" fill="#000000">26 rows</text>
<polygon fill="#ffffff" stroke="transparent" points="133,-609.7 133,-628.7 163,-628.7 163,-609.7 133,-609.7"/>
<polygon fill="none" stroke="#000000" points="133,-609.7 133,-628.7 163,-628.7 163,-609.7 133,-609.7"/>
<text text-anchor="start" x="144.4053" y="-615.8" font-family="Helvetica,sans-Serif" font-size="11.00" fill="#000000">9 &gt;</text>
</a>
</g>
</g>
<!-- crn_al_DataCore&#45;&gt;global_dbDOI -->
<g id="edge3" class="edge">
<title>crn_al_DataCore:w&#45;&gt;global_dbDOI:e</title>
<path fill="none" stroke="#000000" d="M246.2147,-346.8992C209.6095,-379.4281 243.9463,-555.01 216,-599.7 200.6323,-624.2751 191.9845,-637.7 163,-637.7"/>
<polygon fill="#000000" stroke="#000000" points="252.5147,-344.5232 261.2704,-345.0684 256.2573,-343.1116 260,-341.7 260,-341.7 260,-341.7 256.2573,-343.1116 258.7296,-338.3316 252.5147,-344.5232 252.5147,-344.5232"/>
<ellipse fill="none" stroke="#000000" cx="249.5206" cy="-345.6524" rx="3.2" ry="3.2"/>
</g>
<!-- global_RefCore -->
<g id="node5" class="node">
<title>global_RefCore</title>
<g id="a_node5"><a xlink:href="../../tables/global_RefCore.html" xlink:title="global_RefCore" target="_top">
<polygon fill="#ffffff" stroke="transparent" points="48.5,-528.2 48.5,-589.2 167.5,-589.2 167.5,-528.2 48.5,-528.2"/>
<polygon fill="#f5f5f5" stroke="transparent" points="49,-565.7 49,-588.7 168,-588.7 168,-565.7 49,-565.7"/>
<polygon fill="none" stroke="#000000" points="49,-565.7 49,-588.7 168,-588.7 168,-565.7 49,-565.7"/>
<text text-anchor="start" x="53.7992" y="-574.8" font-family="Helvetica,sans-Serif" font-weight="bold" font-size="11.00" fill="#000000">global_RefCore</text>
<text text-anchor="start" x="133.5219" y="-573.8" font-family="Helvetica,sans-Serif" font-size="11.00" fill="#000000">[table]</text>
<polygon fill="none" stroke="#000000" points="49,-546.7 49,-565.7 168,-565.7 168,-546.7 49,-546.7"/>
<text text-anchor="start" x="52" y="-552.8" font-family="Helvetica,sans-Serif" font-size="11.00" fill="#000000">...</text>
<polygon fill="#ffffff" stroke="transparent" points="49,-527.7 49,-546.7 76,-546.7 76,-527.7 49,-527.7"/>
<polygon fill="none" stroke="#000000" points="49,-527.7 49,-546.7 76,-546.7 76,-527.7 49,-527.7"/>
<text text-anchor="start" x="52" y="-533.8" font-family="Helvetica,sans-Serif" font-size="11.00" fill="#000000">&lt; 5</text>
<polygon fill="#ffffff" stroke="transparent" points="76,-527.7 76,-546.7 138,-546.7 138,-527.7 76,-527.7"/>
<polygon fill="none" stroke="#000000" points="76,-527.7 76,-546.7 138,-546.7 138,-527.7 76,-527.7"/>
<text text-anchor="start" x="81.2089" y="-533.8" font-family="Helvetica,sans-Serif" font-size="11.00" fill="#000000">3,822 rows</text>
<polygon fill="#ffffff" stroke="transparent" points="138,-527.7 138,-546.7 168,-546.7 168,-527.7 138,-527.7"/>
<polygon fill="none" stroke="#000000" points="138,-527.7 138,-546.7 168,-546.7 168,-527.7 138,-527.7"/>
<text text-anchor="start" x="143.2904" y="-533.8" font-family="Helvetica,sans-Serif" font-size="11.00" fill="#000000">32 &gt;</text>
</a>
</g>
</g>
<!-- crn_al_DataCore&#45;&gt;global_RefCore -->
<g id="edge4" class="edge">
<title>crn_al_DataCore:w&#45;&gt;global_RefCore:e</title>
<path fill="none" stroke="#000000" d="M245.5788,-321.0005C180.7189,-334.2614 260.9792,-445.9433 216,-517.7 201.5488,-540.7545 195.2093,-555.7 168,-555.7"/>
<polygon fill="#000000" stroke="#000000" points="252.0323,-320.4186 260.3234,-323.2855 256.0162,-320.0593 260,-319.7 260,-319.7 260,-319.7 256.0162,-320.0593 259.6766,-316.1145 252.0323,-320.4186 252.0323,-320.4186"/>
<ellipse fill="none" stroke="#000000" cx="248.8453" cy="-320.706" rx="3.2" ry="3.2"/>
</g>
<!-- crn_Sample -->
<g id="node6" class="node">
<title>crn_Sample</title>
<g id="a_node6"><a xlink:href="../../tables/crn_Sample.html" xlink:title="crn_Sample" target="_top">
<polygon fill="#ffffff" stroke="transparent" points="57.5,-120.2 57.5,-181.2 158.5,-181.2 158.5,-120.2 57.5,-120.2"/>
<polygon fill="#f5f5f5" stroke="transparent" points="58,-157.7 58,-180.7 159,-180.7 159,-157.7 58,-157.7"/>
<polygon fill="none" stroke="#000000" points="58,-157.7 58,-180.7 159,-180.7 159,-157.7 58,-157.7"/>
<text text-anchor="start" x="62.6625" y="-166.8" font-family="Helvetica,sans-Serif" font-weight="bold" font-size="11.00" fill="#000000">crn_Sample</text>
<text text-anchor="start" x="124.5219" y="-165.8" font-family="Helvetica,sans-Serif" font-size="11.00" fill="#000000">[table]</text>
<polygon fill="none" stroke="#000000" points="58,-138.7 58,-157.7 159,-157.7 159,-138.7 58,-138.7"/>
<text text-anchor="start" x="61" y="-144.8" font-family="Helvetica,sans-Serif" font-size="11.00" fill="#000000">...</text>
<polygon fill="#ffffff" stroke="transparent" points="58,-119.7 58,-138.7 79,-138.7 79,-119.7 58,-119.7"/>
<polygon fill="none" stroke="#000000" points="58,-119.7 58,-138.7 79,-138.7 79,-119.7 58,-119.7"/>
<text text-anchor="start" x="60.7027" y="-125.8" font-family="Helvetica,sans-Serif" font-size="11.00" fill="#000000">&lt; 3</text>
<polygon fill="#ffffff" stroke="transparent" points="79,-119.7 79,-138.7 138,-138.7 138,-119.7 79,-119.7"/>
<polygon fill="none" stroke="#000000" points="79,-119.7 79,-138.7 138,-138.7 138,-119.7 79,-119.7"/>
<text text-anchor="start" x="81.6045" y="-125.8" font-family="Helvetica,sans-Serif" font-size="11.00" fill="#000000">4,588 rows</text>
<polygon fill="#ffffff" stroke="transparent" points="138,-119.7 138,-138.7 159,-138.7 159,-119.7 138,-119.7"/>
<polygon fill="none" stroke="#000000" points="138,-119.7 138,-138.7 159,-138.7 159,-119.7 138,-119.7"/>
<text text-anchor="start" x="140.7027" y="-125.8" font-family="Helvetica,sans-Serif" font-size="11.00" fill="#000000">2 &gt;</text>
</a>
</g>
</g>
<!-- crn_al_DataCore&#45;&gt;crn_Sample -->
<g id="edge5" class="edge">
<title>crn_al_DataCore:w&#45;&gt;crn_Sample:e</title>
<path fill="none" stroke="#000000" d="M245.5901,-362.1775C191.5,-348.9809 256.32,-252.9837 216,-191.7 198.41,-164.9644 191.0031,-147.7 159,-147.7"/>
<polygon fill="#000000" stroke="#000000" points="252.0443,-362.8594 259.6217,-367.2801 256.0221,-363.2797 260,-363.7 260,-363.7 260,-363.7 256.0221,-363.2797 260.3783,-360.1199 252.0443,-362.8594 252.0443,-362.8594"/>
<ellipse fill="none" stroke="#000000" cx="248.862" cy="-362.5231" rx="3.2" ry="3.2"/>
</g>
<!-- crn_v3_basins_EPSG3857 -->
<g id="node7" class="node">
<title>crn_v3_basins_EPSG3857</title>
<g id="a_node7"><a xlink:href="../../tables/crn_v3_basins_EPSG3857.html" xlink:title="crn_v3_basins_EPSG3857" target="_top">
<polygon fill="#ffffff" stroke="transparent" points="438,-317.2 438,-378.2 613,-378.2 613,-317.2 438,-317.2"/>
<polygon fill="#f5f5f5" stroke="transparent" points="438.5,-354.7 438.5,-377.7 613.5,-377.7 613.5,-354.7 438.5,-354.7"/>
<polygon fill="none" stroke="#000000" points="438.5,-354.7 438.5,-377.7 613.5,-377.7 613.5,-354.7 438.5,-354.7"/>
<text text-anchor="start" x="443.4769" y="-363.8" font-family="Helvetica,sans-Serif" font-weight="bold" font-size="11.00" fill="#000000">crn_v3_basins_EPSG3857</text>
<text text-anchor="start" x="579.0219" y="-362.8" font-family="Helvetica,sans-Serif" font-size="11.00" fill="#000000">[table]</text>
<polygon fill="none" stroke="#000000" points="438.5,-335.7 438.5,-354.7 613.5,-354.7 613.5,-335.7 438.5,-335.7"/>
<text text-anchor="start" x="441.5" y="-341.8" font-family="Helvetica,sans-Serif" font-size="11.00" fill="#000000">...</text>
<polygon fill="#ffffff" stroke="transparent" points="438.5,-316.7 438.5,-335.7 500.5,-335.7 500.5,-316.7 438.5,-316.7"/>
<polygon fill="none" stroke="#000000" points="438.5,-316.7 438.5,-335.7 500.5,-335.7 500.5,-316.7 438.5,-316.7"/>
<text text-anchor="start" x="441.5" y="-322.8" font-family="Helvetica,sans-Serif" font-size="11.00" fill="#000000">&lt; 3</text>
<polygon fill="#ffffff" stroke="transparent" points="500.5,-316.7 500.5,-335.7 580.5,-335.7 580.5,-316.7 500.5,-316.7"/>
<polygon fill="none" stroke="#000000" points="500.5,-316.7 500.5,-335.7 580.5,-335.7 580.5,-316.7 500.5,-316.7"/>
<text text-anchor="start" x="523.7089" y="-322.8" font-family="Helvetica,sans-Serif" font-size="11.00" fill="#000000">4,631 rows</text>
<polygon fill="#ffffff" stroke="transparent" points="580.5,-316.7 580.5,-335.7 613.5,-335.7 613.5,-316.7 580.5,-316.7"/>
<polygon fill="none" stroke="#000000" points="580.5,-316.7 580.5,-335.7 613.5,-335.7 613.5,-316.7 580.5,-316.7"/>
<text text-anchor="start" x="604.3862" y="-322.8" font-family="Helvetica,sans-Serif" font-size="11.00" fill="#000000"> &#160;</text>
</a>
</g>
</g>
<!-- crn_v3_basins_EPSG3857&#45;&gt;crn_al_DataCore -->
<g id="edge6" class="edge">
<title>crn_v3_basins_EPSG3857:w&#45;&gt;crn_al_DataCore:e</title>
<path fill="none" stroke="#000000" d="M427.9627,-346.9043C410.0637,-355.4205 411.4423,-385.7 386,-385.7"/>
<polygon fill="#000000" stroke="#000000" points="436.8979,-340.9486 438.536,-348.7791 436.9699,-349.1067 435.3318,-341.2762 436.8979,-340.9486"/>
<polyline fill="none" stroke="#000000" points="438.5,-344.7 434.5848,-345.5191 "/>
<ellipse fill="none" stroke="#000000" cx="431.4526" cy="-346.1743" rx="3.2" ry="3.2"/>
</g>
<!-- crn_v3_outlets_EPSG3857 -->
<g id="node8" class="node">
<title>crn_v3_outlets_EPSG3857</title>
<g id="a_node8"><a xlink:href="../../tables/crn_v3_outlets_EPSG3857.html" xlink:title="crn_v3_outlets_EPSG3857" target="_top">
<polygon fill="#ffffff" stroke="transparent" points="438,-399.2 438,-460.2 613,-460.2 613,-399.2 438,-399.2"/>
<polygon fill="#f5f5f5" stroke="transparent" points="438.5,-436.7 438.5,-459.7 613.5,-459.7 613.5,-436.7 438.5,-436.7"/>
<polygon fill="none" stroke="#000000" points="438.5,-436.7 438.5,-459.7 613.5,-459.7 613.5,-436.7 438.5,-436.7"/>
<text text-anchor="start" x="443.17" y="-445.8" font-family="Helvetica,sans-Serif" font-weight="bold" font-size="11.00" fill="#000000">crn_v3_outlets_EPSG3857</text>
<text text-anchor="start" x="579.0219" y="-444.8" font-family="Helvetica,sans-Serif" font-size="11.00" fill="#000000">[table]</text>
<polygon fill="none" stroke="#000000" points="438.5,-417.7 438.5,-436.7 613.5,-436.7 613.5,-417.7 438.5,-417.7"/>
<text text-anchor="start" x="441.5" y="-423.8" font-family="Helvetica,sans-Serif" font-size="11.00" fill="#000000">...</text>
<polygon fill="#ffffff" stroke="transparent" points="438.5,-398.7 438.5,-417.7 500.5,-417.7 500.5,-398.7 438.5,-398.7"/>
<polygon fill="none" stroke="#000000" points="438.5,-398.7 438.5,-417.7 500.5,-417.7 500.5,-398.7 438.5,-398.7"/>
<text text-anchor="start" x="441.5" y="-404.8" font-family="Helvetica,sans-Serif" font-size="11.00" fill="#000000">&lt; 3</text>
<polygon fill="#ffffff" stroke="transparent" points="500.5,-398.7 500.5,-417.7 580.5,-417.7 580.5,-398.7 500.5,-398.7"/>
<polygon fill="none" stroke="#000000" points="500.5,-398.7 500.5,-417.7 580.5,-417.7 580.5,-398.7 500.5,-398.7"/>
<text text-anchor="start" x="523.7089" y="-404.8" font-family="Helvetica,sans-Serif" font-size="11.00" fill="#000000">4,631 rows</text>
<polygon fill="#ffffff" stroke="transparent" points="580.5,-398.7 580.5,-417.7 613.5,-417.7 613.5,-398.7 580.5,-398.7"/>
<polygon fill="none" stroke="#000000" points="580.5,-398.7 580.5,-417.7 613.5,-417.7 613.5,-398.7 580.5,-398.7"/>
<text text-anchor="start" x="604.3862" y="-404.8" font-family="Helvetica,sans-Serif" font-size="11.00" fill="#000000"> &#160;</text>
</a>
</g>
</g>
<!-- crn_v3_outlets_EPSG3857&#45;&gt;crn_al_DataCore -->
<g id="edge7" class="edge">
<title>crn_v3_outlets_EPSG3857:w&#45;&gt;crn_al_DataCore:e</title>
<path fill="none" stroke="#000000" d="M427.9627,-424.4957C410.0637,-415.9795 411.4423,-385.7 386,-385.7"/>
<polygon fill="#000000" stroke="#000000" points="438.536,-422.6209 436.8979,-430.4514 435.3318,-430.1238 436.9699,-422.2933 438.536,-422.6209"/>
<polyline fill="none" stroke="#000000" points="438.5,-426.7 434.5848,-425.8809 "/>
<ellipse fill="none" stroke="#000000" cx="431.4526" cy="-425.2257" rx="3.2" ry="3.2"/>
</g>
<!-- expage_DataCore -->
<g id="node9" class="node">
<title>expage_DataCore</title>
<g id="a_node9"><a xlink:href="../../tables/expage_DataCore.html" xlink:title="expage_DataCore" target="_top">
<polygon fill="#ffffff" stroke="transparent" points="257,-441.2 257,-700.2 389,-700.2 389,-441.2 257,-441.2"/>
<polygon fill="#f5f5f5" stroke="transparent" points="257,-676.7 257,-699.7 389,-699.7 389,-676.7 257,-676.7"/>
<polygon fill="none" stroke="#000000" points="257,-676.7 257,-699.7 389,-699.7 389,-676.7 257,-676.7"/>
<text text-anchor="start" x="261.8752" y="-685.8" font-family="Helvetica,sans-Serif" font-weight="bold" font-size="11.00" fill="#000000">expage_DataCore</text>
<text text-anchor="start" x="354.5219" y="-684.8" font-family="Helvetica,sans-Serif" font-size="11.00" fill="#000000">[table]</text>
<polygon fill="none" stroke="#000000" points="257,-654.7 257,-676.7 389,-676.7 389,-654.7 257,-654.7"/>
<image xlink:href="../../images/primaryKeys.png" width="11px" height="12px" preserveAspectRatio="xMinYMin meet" x="262" y="-671.7"/>
<text text-anchor="start" x="282" y="-661.8" font-family="Helvetica,sans-Serif" font-size="11.00" fill="#000000">OBSID1</text>
<polygon fill="none" stroke="#000000" points="257,-632.7 257,-654.7 389,-654.7 389,-632.7 257,-632.7"/>
<image xlink:href="../../images/foreignKeys.png" width="11px" height="12px" preserveAspectRatio="xMinYMin meet" x="262" y="-649.7"/>
<text text-anchor="start" x="282" y="-639.8" font-family="Helvetica,sans-Serif" font-size="11.00" fill="#000000">SMPID</text>
<polygon fill="none" stroke="#000000" points="257,-610.7 257,-632.7 389,-632.7 389,-610.7 257,-610.7"/>
<image xlink:href="../../images/foreignKeys.png" width="11px" height="12px" preserveAspectRatio="xMinYMin meet" x="262" y="-627.7"/>
<text text-anchor="start" x="282" y="-617.8" font-family="Helvetica,sans-Serif" font-size="11.00" fill="#000000">DBDOI</text>
<polygon fill="none" stroke="#000000" points="257,-588.7 257,-610.7 389,-610.7 389,-588.7 257,-588.7"/>
<image xlink:href="../../images/foreignKeys.png" width="11px" height="12px" preserveAspectRatio="xMinYMin meet" x="262" y="-605.7"/>
<text text-anchor="start" x="282" y="-595.8" font-family="Helvetica,sans-Serif" font-size="11.00" fill="#000000">REFDBID1</text>
<polygon fill="none" stroke="#000000" points="257,-566.7 257,-588.7 389,-588.7 389,-566.7 257,-566.7"/>
<image xlink:href="../../images/foreignKeys.png" width="11px" height="12px" preserveAspectRatio="xMinYMin meet" x="262" y="-583.7"/>
<text text-anchor="start" x="282" y="-573.8" font-family="Helvetica,sans-Serif" font-size="11.00" fill="#000000">REFDBID2</text>
<polygon fill="none" stroke="#000000" points="257,-544.7 257,-566.7 389,-566.7 389,-544.7 257,-544.7"/>
<image xlink:href="../../images/foreignKeys.png" width="11px" height="12px" preserveAspectRatio="xMinYMin meet" x="262" y="-561.7"/>
<text text-anchor="start" x="282" y="-551.8" font-family="Helvetica,sans-Serif" font-size="11.00" fill="#000000">REFDBID3</text>
<polygon fill="none" stroke="#000000" points="257,-522.7 257,-544.7 389,-544.7 389,-522.7 257,-522.7"/>
<image xlink:href="../../images/foreignKeys.png" width="11px" height="12px" preserveAspectRatio="xMinYMin meet" x="262" y="-539.7"/>
<text text-anchor="start" x="282" y="-529.8" font-family="Helvetica,sans-Serif" font-size="11.00" fill="#000000">REFDBID4</text>
<polygon fill="none" stroke="#000000" points="257,-500.7 257,-522.7 389,-522.7 389,-500.7 257,-500.7"/>
<image xlink:href="../../images/foreignKeys.png" width="11px" height="12px" preserveAspectRatio="xMinYMin meet" x="262" y="-517.7"/>
<text text-anchor="start" x="282" y="-507.8" font-family="Helvetica,sans-Serif" font-size="11.00" fill="#000000">BESTNDID</text>
<polygon fill="none" stroke="#000000" points="257,-478.7 257,-500.7 389,-500.7 389,-478.7 257,-478.7"/>
<image xlink:href="../../images/foreignKeys.png" width="11px" height="12px" preserveAspectRatio="xMinYMin meet" x="262" y="-495.7"/>
<text text-anchor="start" x="282" y="-485.8" font-family="Helvetica,sans-Serif" font-size="11.00" fill="#000000">ALSTNDID</text>
<polygon fill="none" stroke="#000000" points="257,-459.7 257,-478.7 389,-478.7 389,-459.7 257,-459.7"/>
<text text-anchor="start" x="260" y="-465.8" font-family="Helvetica,sans-Serif" font-size="11.00" fill="#000000">...</text>
<polygon fill="#ffffff" stroke="transparent" points="257,-440.7 257,-459.7 290,-459.7 290,-440.7 257,-440.7"/>
<polygon fill="none" stroke="#000000" points="257,-440.7 257,-459.7 290,-459.7 290,-440.7 257,-440.7"/>
<text text-anchor="start" x="260" y="-446.8" font-family="Helvetica,sans-Serif" font-size="11.00" fill="#000000">&lt; 8</text>
<polygon fill="#ffffff" stroke="transparent" points="290,-440.7 290,-459.7 361,-459.7 361,-440.7 290,-440.7"/>
<polygon fill="none" stroke="#000000" points="290,-440.7 290,-459.7 361,-459.7 361,-440.7 290,-440.7"/>
<text text-anchor="start" x="298.094" y="-446.8" font-family="Helvetica,sans-Serif" font-size="11.00" fill="#000000">16,009 rows</text>
<polygon fill="#ffffff" stroke="transparent" points="361,-440.7 361,-459.7 389,-459.7 389,-440.7 361,-440.7"/>
<polygon fill="none" stroke="#000000" points="361,-440.7 361,-459.7 389,-459.7 389,-440.7 361,-440.7"/>
<text text-anchor="start" x="370.4053" y="-446.8" font-family="Helvetica,sans-Serif" font-size="11.00" fill="#000000">1 &gt;</text>
</a>
</g>
</g>
<!-- expage_DataCore&#45;&gt;crn_alstndID -->
<g id="edge8" class="edge">
<title>expage_DataCore:w&#45;&gt;crn_alstndID:e</title>
<path fill="none" stroke="#000000" d="M243.1137,-485.864C216.9605,-467.4151 250.3941,-388.7 206,-388.7"/>
<polygon fill="#000000" stroke="#000000" points="249.2888,-487.5698 256.0414,-493.17 253.1444,-488.6349 257,-489.7 257,-489.7 257,-489.7 253.1444,-488.6349 257.9586,-486.23 249.2888,-487.5698 249.2888,-487.5698"/>
<ellipse fill="none" stroke="#000000" cx="246.2043" cy="-486.7177" rx="3.2" ry="3.2"/>
</g>
<!-- expage_DataCore&#45;&gt;global_dbDOI -->
<g id="edge10" class="edge">
<title>expage_DataCore:w&#45;&gt;global_dbDOI:e</title>
<path fill="none" stroke="#000000" d="M242.5318,-622.3875C211.7929,-625.45 200.0813,-637.7 163,-637.7"/>
<polygon fill="#000000" stroke="#000000" points="249.009,-622.0798 257.1709,-625.2959 253.0045,-621.8899 257,-621.7 257,-621.7 257,-621.7 253.0045,-621.8899 256.8291,-618.1041 249.009,-622.0798 249.009,-622.0798"/>
<ellipse fill="none" stroke="#000000" cx="245.8126" cy="-622.2317" rx="3.2" ry="3.2"/>
</g>
<!-- expage_DataCore&#45;&gt;global_RefCore -->
<g id="edge11" class="edge">
<title>expage_DataCore:w&#45;&gt;global_RefCore:e</title>
<path fill="none" stroke="#000000" d="M242.3168,-597.8094C212.0095,-589.3875 206.6098,-555.7 168,-555.7"/>
<polygon fill="#000000" stroke="#000000" points="249.0655,-598.6783 256.5402,-603.2705 253.0328,-599.1892 257,-599.7 257,-599.7 257,-599.7 253.0328,-599.1892 257.4598,-596.1295 249.0655,-598.6783 249.0655,-598.6783"/>
<ellipse fill="none" stroke="#000000" cx="245.8917" cy="-598.2696" rx="3.2" ry="3.2"/>
</g>
<!-- expage_DataCore&#45;&gt;global_RefCore -->
<g id="edge12" class="edge">
<title>expage_DataCore:w&#45;&gt;global_RefCore:e</title>
<path fill="none" stroke="#000000" d="M242.3684,-576.6389C213.6733,-572.2443 203.3345,-555.7 168,-555.7"/>
<polygon fill="#000000" stroke="#000000" points="249.021,-577.1213 256.7396,-581.2906 253.0105,-577.4106 257,-577.7 257,-577.7 257,-577.7 253.0105,-577.4106 257.2604,-574.1094 249.021,-577.1213 249.021,-577.1213"/>
<ellipse fill="none" stroke="#000000" cx="245.8293" cy="-576.8898" rx="3.2" ry="3.2"/>
</g>
<!-- expage_DataCore&#45;&gt;global_RefCore -->
<g id="edge13" class="edge">
<title>expage_DataCore:w&#45;&gt;global_RefCore:e</title>
<path fill="none" stroke="#000000" d="M242.288,-555.7C214.1859,-555.7 202.1476,-555.7 168,-555.7"/>
<polygon fill="#000000" stroke="#000000" points="249,-555.7001 257,-559.3 253,-555.7 257,-555.7 257,-555.7 257,-555.7 253,-555.7 257,-552.1 249,-555.7001 249,-555.7001"/>
<ellipse fill="none" stroke="#000000" cx="245.8" cy="-555.7001" rx="3.2" ry="3.2"/>
</g>
<!-- expage_DataCore&#45;&gt;global_RefCore -->
<g id="edge14" class="edge">
<title>expage_DataCore:w&#45;&gt;global_RefCore:e</title>
<path fill="none" stroke="#000000" d="M242.3684,-534.7611C213.6733,-539.1557 203.3345,-555.7 168,-555.7"/>
<polygon fill="#000000" stroke="#000000" points="249.021,-534.2787 257.2604,-537.2906 253.0105,-533.9894 257,-533.7 257,-533.7 257,-533.7 253.0105,-533.9894 256.7396,-530.1094 249.021,-534.2787 249.021,-534.2787"/>
<ellipse fill="none" stroke="#000000" cx="245.8293" cy="-534.5102" rx="3.2" ry="3.2"/>
</g>
<!-- crn_bestndID -->
<g id="node10" class="node">
<title>crn_bestndID</title>
<g id="a_node10"><a xlink:href="../../tables/crn_bestndID.html" xlink:title="crn_bestndID" target="_top">
<polygon fill="#ffffff" stroke="transparent" points="54,-446.2 54,-507.2 162,-507.2 162,-446.2 54,-446.2"/>
<polygon fill="#f5f5f5" stroke="transparent" points="54,-483.7 54,-506.7 162,-506.7 162,-483.7 54,-483.7"/>
<polygon fill="none" stroke="#000000" points="54,-483.7 54,-506.7 162,-506.7 162,-483.7 54,-483.7"/>
<text text-anchor="start" x="58.797" y="-492.8" font-family="Helvetica,sans-Serif" font-weight="bold" font-size="11.00" fill="#000000">crn_bestndID</text>
<text text-anchor="start" x="127.5219" y="-491.8" font-family="Helvetica,sans-Serif" font-size="11.00" fill="#000000">[table]</text>
<polygon fill="none" stroke="#000000" points="54,-464.7 54,-483.7 162,-483.7 162,-464.7 54,-464.7"/>
<text text-anchor="start" x="57" y="-470.8" font-family="Helvetica,sans-Serif" font-size="11.00" fill="#000000">...</text>
<polygon fill="#ffffff" stroke="transparent" points="54,-445.7 54,-464.7 81,-464.7 81,-445.7 54,-445.7"/>
<polygon fill="none" stroke="#000000" points="54,-445.7 54,-464.7 81,-464.7 81,-445.7 54,-445.7"/>
<text text-anchor="start" x="57" y="-451.8" font-family="Helvetica,sans-Serif" font-size="11.00" fill="#000000"> &#160;</text>
<polygon fill="#ffffff" stroke="transparent" points="81,-445.7 81,-464.7 133,-464.7 133,-445.7 81,-445.7"/>
<polygon fill="none" stroke="#000000" points="81,-445.7 81,-464.7 133,-464.7 133,-445.7 81,-445.7"/>
<text text-anchor="start" x="91.4956" y="-451.8" font-family="Helvetica,sans-Serif" font-size="11.00" fill="#000000">60 rows</text>
<polygon fill="#ffffff" stroke="transparent" points="133,-445.7 133,-464.7 162,-464.7 162,-445.7 133,-445.7"/>
<polygon fill="none" stroke="#000000" points="133,-445.7 133,-464.7 162,-464.7 162,-445.7 133,-445.7"/>
<text text-anchor="start" x="143.4053" y="-451.8" font-family="Helvetica,sans-Serif" font-size="11.00" fill="#000000">2 &gt;</text>
</a>
</g>
</g>
<!-- expage_DataCore&#45;&gt;crn_bestndID -->
<g id="edge9" class="edge">
<title>expage_DataCore:w&#45;&gt;crn_bestndID:e</title>
<path fill="none" stroke="#000000" d="M242.5861,-510.2568C210.0071,-503.3156 202.1457,-473.7 162,-473.7"/>
<polygon fill="#000000" stroke="#000000" points="249.0398,-510.9029 256.6413,-515.2821 253.0199,-511.3015 257,-511.7 257,-511.7 257,-511.7 253.0199,-511.3015 257.3587,-508.1179 249.0398,-510.9029 249.0398,-510.9029"/>
<ellipse fill="none" stroke="#000000" cx="245.8557" cy="-510.5841" rx="3.2" ry="3.2"/>
</g>
<!-- expage_Sample -->
<g id="node11" class="node">
<title>expage_Sample</title>
<g id="a_node11"><a xlink:href="../../tables/expage_Sample.html" xlink:title="expage_Sample" target="_top">
<polygon fill="#ffffff" stroke="transparent" points="47,-692.2 47,-753.2 169,-753.2 169,-692.2 47,-692.2"/>
<polygon fill="#f5f5f5" stroke="transparent" points="47,-729.7 47,-752.7 169,-752.7 169,-729.7 47,-729.7"/>
<polygon fill="none" stroke="#000000" points="47,-729.7 47,-752.7 169,-752.7 169,-729.7 47,-729.7"/>
<text text-anchor="start" x="51.7636" y="-738.8" font-family="Helvetica,sans-Serif" font-weight="bold" font-size="11.00" fill="#000000">expage_Sample</text>
<text text-anchor="start" x="134.5219" y="-737.8" font-family="Helvetica,sans-Serif" font-size="11.00" fill="#000000">[table]</text>
<polygon fill="none" stroke="#000000" points="47,-710.7 47,-729.7 169,-729.7 169,-710.7 47,-710.7"/>
<text text-anchor="start" x="50" y="-716.8" font-family="Helvetica,sans-Serif" font-size="11.00" fill="#000000">...</text>
<polygon fill="#ffffff" stroke="transparent" points="47,-691.7 47,-710.7 75,-710.7 75,-691.7 47,-691.7"/>
<polygon fill="none" stroke="#000000" points="47,-691.7 47,-710.7 75,-710.7 75,-691.7 47,-691.7"/>
<text text-anchor="start" x="50" y="-697.8" font-family="Helvetica,sans-Serif" font-size="11.00" fill="#000000">&lt; 2</text>
<polygon fill="#ffffff" stroke="transparent" points="75,-691.7 75,-710.7 144,-710.7 144,-691.7 75,-691.7"/>
<polygon fill="none" stroke="#000000" points="75,-691.7 75,-710.7 144,-710.7 144,-691.7 75,-691.7"/>
<text text-anchor="start" x="81.094" y="-697.8" font-family="Helvetica,sans-Serif" font-size="11.00" fill="#000000">15,805 rows</text>
<polygon fill="#ffffff" stroke="transparent" points="144,-691.7 144,-710.7 169,-710.7 169,-691.7 144,-691.7"/>
<polygon fill="none" stroke="#000000" points="144,-691.7 144,-710.7 169,-710.7 169,-691.7 144,-691.7"/>
<text text-anchor="start" x="150.4053" y="-697.8" font-family="Helvetica,sans-Serif" font-size="11.00" fill="#000000">1 &gt;</text>
</a>
</g>
</g>
<!-- expage_DataCore&#45;&gt;expage_Sample -->
<g id="edge15" class="edge">
<title>expage_DataCore:w&#45;&gt;expage_Sample:e</title>
<path fill="none" stroke="#000000" d="M242.7534,-647.3504C232.1303,-654.226 230.0865,-669.5019 216,-681.7 195.6932,-699.2845 195.8622,-719.7 169,-719.7"/>
<polygon fill="#000000" stroke="#000000" points="249.2503,-645.6857 257.8936,-647.1873 253.1252,-644.6929 257,-643.7 257,-643.7 257,-643.7 253.1252,-644.6929 256.1064,-640.2127 249.2503,-645.6857 249.2503,-645.6857"/>
<ellipse fill="none" stroke="#000000" cx="246.1505" cy="-646.48" rx="3.2" ry="3.2"/>
</g>
<!-- expage_points_EPSG3857 -->
<g id="node12" class="node">
<title>expage_points_EPSG3857</title>
<g id="a_node12"><a xlink:href="../../tables/expage_points_EPSG3857.html" xlink:title="expage_points_EPSG3857" target="_top">
<polygon fill="#ffffff" stroke="transparent" points="438,-638.2 438,-699.2 613,-699.2 613,-638.2 438,-638.2"/>
<polygon fill="#f5f5f5" stroke="transparent" points="438.5,-675.7 438.5,-698.7 613.5,-698.7 613.5,-675.7 438.5,-675.7"/>
<polygon fill="none" stroke="#000000" points="438.5,-675.7 438.5,-698.7 613.5,-698.7 613.5,-675.7 438.5,-675.7"/>
<text text-anchor="start" x="443.1645" y="-684.8" font-family="Helvetica,sans-Serif" font-weight="bold" font-size="11.00" fill="#000000">expage_points_EPSG3857</text>
<text text-anchor="start" x="579.0219" y="-683.8" font-family="Helvetica,sans-Serif" font-size="11.00" fill="#000000">[table]</text>
<polygon fill="none" stroke="#000000" points="438.5,-656.7 438.5,-675.7 613.5,-675.7 613.5,-656.7 438.5,-656.7"/>
<text text-anchor="start" x="441.5" y="-662.8" font-family="Helvetica,sans-Serif" font-size="11.00" fill="#000000">...</text>
<polygon fill="#ffffff" stroke="transparent" points="438.5,-637.7 438.5,-656.7 497.5,-656.7 497.5,-637.7 438.5,-637.7"/>
<polygon fill="none" stroke="#000000" points="438.5,-637.7 438.5,-656.7 497.5,-656.7 497.5,-637.7 438.5,-637.7"/>
<text text-anchor="start" x="441.5" y="-643.8" font-family="Helvetica,sans-Serif" font-size="11.00" fill="#000000">&lt; 1</text>
<polygon fill="#ffffff" stroke="transparent" points="497.5,-637.7 497.5,-656.7 581.5,-656.7 581.5,-637.7 497.5,-637.7"/>
<polygon fill="none" stroke="#000000" points="497.5,-637.7 497.5,-656.7 581.5,-656.7 581.5,-637.7 497.5,-637.7"/>
<text text-anchor="start" x="518.594" y="-643.8" font-family="Helvetica,sans-Serif" font-size="11.00" fill="#000000">16,009 rows</text>
<polygon fill="#ffffff" stroke="transparent" points="581.5,-637.7 581.5,-656.7 613.5,-656.7 613.5,-637.7 581.5,-637.7"/>
<polygon fill="none" stroke="#000000" points="581.5,-637.7 581.5,-656.7 613.5,-656.7 613.5,-637.7 581.5,-637.7"/>
<text text-anchor="start" x="604.3862" y="-643.8" font-family="Helvetica,sans-Serif" font-size="11.00" fill="#000000"> &#160;</text>
</a>
</g>
</g>
<!-- expage_points_EPSG3857&#45;&gt;expage_DataCore -->
<g id="edge16" class="edge">
<title>expage_points_EPSG3857:w&#45;&gt;expage_DataCore:e</title>
<path fill="none" stroke="#000000" d="M423.8428,-665.7C412.4139,-665.7 405.1563,-665.7 389,-665.7"/>
<polygon fill="#000000" stroke="#000000" points="430.5,-665.7001 438.5,-669.3 434.5,-665.7 438.5,-665.7 438.5,-665.7 438.5,-665.7 434.5,-665.7 438.5,-662.1 430.5,-665.7001 430.5,-665.7001"/>
<ellipse fill="none" stroke="#000000" cx="427.3" cy="-665.7001" rx="3.2" ry="3.2"/>
</g>
</g>
</svg>
