<?xml version="1.0" encoding="UTF-8" standalone="no"?>
<!DOCTYPE svg PUBLIC "-//W3C//DTD SVG 1.1//EN"
 "http://www.w3.org/Graphics/SVG/1.1/DTD/svg11.dtd">
<!-- Generated by graphviz version 2.40.1 (20161225.0304)
 -->
<!-- Title: twoDegreesRelationshipsDiagram Pages: 1 -->
<svg width="732pt" height="625pt"
 viewBox="0.00 0.00 732.00 625.20" xmlns="http://www.w3.org/2000/svg" xmlns:xlink="http://www.w3.org/1999/xlink">
<g id="graph0" class="graph" transform="scale(1 1) rotate(0) translate(4 621.2)">
<title>twoDegreesRelationshipsDiagram</title>
<polygon fill="#ffffff" stroke="transparent" points="-4,4 -4,-621.2 728,-621.2 728,4 -4,4"/>
<text text-anchor="middle" x="72.4936" y="-7.3" font-family="Helvetica,sans-Serif" font-size="11.00" fill="#000000">Generated by SchemaSpy</text>
<!-- crn_al_DataCore -->
<g id="node1" class="node">
<title>crn_al_DataCore</title>
<g id="a_node1"><a xlink:href="../../tables/crn_al_DataCore.html" xlink:title="crn_al_DataCore" target="_top">
<polygon fill="#ffffff" stroke="transparent" points="211.5,-400.2 211.5,-593.2 345.5,-593.2 345.5,-400.2 211.5,-400.2"/>
<polygon fill="#f5f5f5" stroke="transparent" points="211.5,-569.7 211.5,-592.7 345.5,-592.7 345.5,-569.7 211.5,-569.7"/>
<polygon fill="none" stroke="#000000" points="211.5,-569.7 211.5,-592.7 345.5,-592.7 345.5,-569.7 211.5,-569.7"/>
<text text-anchor="start" x="216.5" y="-578.3" font-family="Helvetica,sans-Serif" font-weight="bold" font-size="11.00" fill="#000000">crn_al_DataCore</text>
<text text-anchor="start" x="311.0219" y="-577.8" font-family="Helvetica,sans-Serif" font-size="11.00" fill="#000000">[table]</text>
<polygon fill="none" stroke="#000000" points="211.5,-547.7 211.5,-569.7 345.5,-569.7 345.5,-547.7 211.5,-547.7"/>
<image xlink:href="../../images/primaryKeys.png" width="11px" height="12px" preserveAspectRatio="xMinYMin meet" x="216.5" y="-564.7"/>
<text text-anchor="start" x="240.5" y="-554.8" font-family="Helvetica,sans-Serif" font-size="11.00" fill="#000000">OBSID1</text>
<polygon fill="none" stroke="#000000" points="211.5,-525.7 211.5,-547.7 345.5,-547.7 345.5,-525.7 211.5,-525.7"/>
<image xlink:href="../../images/foreignKeys.png" width="11px" height="12px" preserveAspectRatio="xMinYMin meet" x="216.5" y="-542.7"/>
<text text-anchor="start" x="240.5" y="-532.8" font-family="Helvetica,sans-Serif" font-size="11.00" fill="#000000">SMPID</text>
<polygon fill="none" stroke="#000000" points="211.5,-503.7 211.5,-525.7 345.5,-525.7 345.5,-503.7 211.5,-503.7"/>
<image xlink:href="../../images/foreignKeys.png" width="11px" height="12px" preserveAspectRatio="xMinYMin meet" x="216.5" y="-520.7"/>
<text text-anchor="start" x="240.5" y="-510.8" font-family="Helvetica,sans-Serif" font-size="11.00" fill="#000000">VERID</text>
<polygon fill="none" stroke="#000000" points="211.5,-481.7 211.5,-503.7 345.5,-503.7 345.5,-481.7 211.5,-481.7"/>
<image xlink:href="../../images/foreignKeys.png" width="11px" height="12px" preserveAspectRatio="xMinYMin meet" x="216.5" y="-498.7"/>
<text text-anchor="start" x="240.5" y="-488.8" font-family="Helvetica,sans-Serif" font-size="11.00" fill="#000000">REFDBID1</text>
<polygon fill="none" stroke="#000000" points="211.5,-459.7 211.5,-481.7 345.5,-481.7 345.5,-459.7 211.5,-459.7"/>
<image xlink:href="../../images/foreignKeys.png" width="11px" height="12px" preserveAspectRatio="xMinYMin meet" x="216.5" y="-476.7"/>
<text text-anchor="start" x="240.5" y="-466.8" font-family="Helvetica,sans-Serif" font-size="11.00" fill="#000000">ALSTNDID</text>
<polygon fill="none" stroke="#000000" points="211.5,-437.7 211.5,-459.7 345.5,-459.7 345.5,-437.7 211.5,-437.7"/>
<image xlink:href="../../images/foreignKeys.png" width="11px" height="12px" preserveAspectRatio="xMinYMin meet" x="216.5" y="-454.7"/>
<text text-anchor="start" x="240.5" y="-444.8" font-family="Helvetica,sans-Serif" font-size="11.00" fill="#000000">ALAMSID</text>
<polygon fill="none" stroke="#000000" points="211.5,-418.7 211.5,-437.7 345.5,-437.7 345.5,-418.7 211.5,-418.7"/>
<text text-anchor="start" x="214.5" y="-424.8" font-family="Helvetica,sans-Serif" font-size="11.00" fill="#000000">...</text>
<polygon fill="#ffffff" stroke="transparent" points="211.5,-399.7 211.5,-418.7 248.5,-418.7 248.5,-399.7 211.5,-399.7"/>
<polygon fill="none" stroke="#000000" points="211.5,-399.7 211.5,-418.7 248.5,-418.7 248.5,-399.7 211.5,-399.7"/>
<text text-anchor="start" x="214.5" y="-405.8" font-family="Helvetica,sans-Serif" font-size="11.00" fill="#000000">&lt; 5</text>
<polygon fill="#ffffff" stroke="transparent" points="248.5,-399.7 248.5,-418.7 315.5,-418.7 315.5,-399.7 248.5,-399.7"/>
<polygon fill="none" stroke="#000000" points="248.5,-399.7 248.5,-418.7 315.5,-418.7 315.5,-399.7 248.5,-399.7"/>
<text text-anchor="start" x="258.7089" y="-405.8" font-family="Helvetica,sans-Serif" font-size="11.00" fill="#000000">6.091 rows</text>
<polygon fill="#ffffff" stroke="transparent" points="315.5,-399.7 315.5,-418.7 345.5,-418.7 345.5,-399.7 315.5,-399.7"/>
<polygon fill="none" stroke="#000000" points="315.5,-399.7 315.5,-418.7 345.5,-418.7 345.5,-399.7 315.5,-399.7"/>
<text text-anchor="start" x="326.9053" y="-405.8" font-family="Helvetica,sans-Serif" font-size="11.00" fill="#000000">2 &gt;</text>
</a>
</g>
</g>
<!-- crn_amsID -->
<g id="node2" class="node">
<title>crn_amsID</title>
<g id="a_node2"><a xlink:href="../../tables/crn_amsID.html" xlink:title="crn_amsID" target="_top">
<polygon fill="#ffffff" stroke="transparent" points="21.5,-224.2 21.5,-285.2 121.5,-285.2 121.5,-224.2 21.5,-224.2"/>
<polygon fill="#f5f5f5" stroke="transparent" points="21.5,-261.7 21.5,-284.7 121.5,-284.7 121.5,-261.7 21.5,-261.7"/>
<polygon fill="none" stroke="#000000" points="21.5,-261.7 21.5,-284.7 121.5,-284.7 121.5,-261.7 21.5,-261.7"/>
<text text-anchor="start" x="26.5" y="-270.3" font-family="Helvetica,sans-Serif" font-weight="bold" font-size="11.00" fill="#000000">crn_amsID</text>
<text text-anchor="start" x="87.0219" y="-269.8" font-family="Helvetica,sans-Serif" font-size="11.00" fill="#000000">[table]</text>
<polygon fill="none" stroke="#000000" points="21.5,-242.7 21.5,-261.7 121.5,-261.7 121.5,-242.7 21.5,-242.7"/>
<text text-anchor="start" x="24.5" y="-248.8" font-family="Helvetica,sans-Serif" font-size="11.00" fill="#000000">...</text>
<polygon fill="#ffffff" stroke="transparent" points="21.5,-223.7 21.5,-242.7 44.5,-242.7 44.5,-223.7 21.5,-223.7"/>
<polygon fill="none" stroke="#000000" points="21.5,-223.7 21.5,-242.7 44.5,-242.7 44.5,-223.7 21.5,-223.7"/>
<text text-anchor="start" x="24.5" y="-229.8" font-family="Helvetica,sans-Serif" font-size="11.00" fill="#000000"> &#160;</text>
<polygon fill="#ffffff" stroke="transparent" points="44.5,-223.7 44.5,-242.7 94.5,-242.7 94.5,-223.7 44.5,-223.7"/>
<polygon fill="none" stroke="#000000" points="44.5,-223.7 44.5,-242.7 94.5,-242.7 94.5,-223.7 44.5,-223.7"/>
<text text-anchor="start" x="52.9956" y="-229.8" font-family="Helvetica,sans-Serif" font-size="11.00" fill="#000000">37 rows</text>
<polygon fill="#ffffff" stroke="transparent" points="94.5,-223.7 94.5,-242.7 121.5,-242.7 121.5,-223.7 94.5,-223.7"/>
<polygon fill="none" stroke="#000000" points="94.5,-223.7 94.5,-242.7 121.5,-242.7 121.5,-223.7 94.5,-223.7"/>
<text text-anchor="start" x="102.9053" y="-229.8" font-family="Helvetica,sans-Serif" font-size="11.00" fill="#000000">2 &gt;</text>
</a>
</g>
</g>
<!-- crn_al_DataCore&#45;&gt;crn_amsID -->
<g id="edge1" class="edge">
<title>crn_al_DataCore:w&#45;&gt;crn_amsID:e</title>
<path fill="none" stroke="#000000" d="M196.9842,-446.8756C126.2159,-427.0156 212.3077,-251.7 121.5,-251.7"/>
<polygon fill="#000000" stroke="#000000" points="203.5624,-447.7023 211.051,-452.2719 207.5312,-448.2012 211.5,-448.7 211.5,-448.7 211.5,-448.7 207.5312,-448.2012 211.949,-445.1281 203.5624,-447.7023 203.5624,-447.7023"/>
<ellipse fill="none" stroke="#000000" cx="200.3874" cy="-447.3032" rx="3.2" ry="3.2"/>
</g>
<!-- crn_alstndID -->
<g id="node3" class="node">
<title>crn_alstndID</title>
<g id="a_node3"><a xlink:href="../../tables/crn_alstndID.html" xlink:title="crn_alstndID" target="_top">
<polygon fill="#ffffff" stroke="transparent" points="16,-388.2 16,-449.2 127,-449.2 127,-388.2 16,-388.2"/>
<polygon fill="#f5f5f5" stroke="transparent" points="16.5,-425.7 16.5,-448.7 127.5,-448.7 127.5,-425.7 16.5,-425.7"/>
<polygon fill="none" stroke="#000000" points="16.5,-425.7 16.5,-448.7 127.5,-448.7 127.5,-425.7 16.5,-425.7"/>
<text text-anchor="start" x="21.5" y="-434.3" font-family="Helvetica,sans-Serif" font-weight="bold" font-size="11.00" fill="#000000">crn_alstndID</text>
<text text-anchor="start" x="93.0219" y="-433.8" font-family="Helvetica,sans-Serif" font-size="11.00" fill="#000000">[table]</text>
<polygon fill="none" stroke="#000000" points="16.5,-406.7 16.5,-425.7 127.5,-425.7 127.5,-406.7 16.5,-406.7"/>
<text text-anchor="start" x="19.5" y="-412.8" font-family="Helvetica,sans-Serif" font-size="11.00" fill="#000000">...</text>
<polygon fill="#ffffff" stroke="transparent" points="16.5,-387.7 16.5,-406.7 45.5,-406.7 45.5,-387.7 16.5,-387.7"/>
<polygon fill="none" stroke="#000000" points="16.5,-387.7 16.5,-406.7 45.5,-406.7 45.5,-387.7 16.5,-387.7"/>
<text text-anchor="start" x="19.5" y="-393.8" font-family="Helvetica,sans-Serif" font-size="11.00" fill="#000000"> &#160;</text>
<polygon fill="#ffffff" stroke="transparent" points="45.5,-387.7 45.5,-406.7 97.5,-406.7 97.5,-387.7 45.5,-387.7"/>
<polygon fill="none" stroke="#000000" points="45.5,-387.7 45.5,-406.7 97.5,-406.7 97.5,-387.7 45.5,-387.7"/>
<text text-anchor="start" x="55.9956" y="-393.8" font-family="Helvetica,sans-Serif" font-size="11.00" fill="#000000">26 rows</text>
<polygon fill="#ffffff" stroke="transparent" points="97.5,-387.7 97.5,-406.7 127.5,-406.7 127.5,-387.7 97.5,-387.7"/>
<polygon fill="none" stroke="#000000" points="97.5,-387.7 97.5,-406.7 127.5,-406.7 127.5,-387.7 97.5,-387.7"/>
<text text-anchor="start" x="108.9053" y="-393.8" font-family="Helvetica,sans-Serif" font-size="11.00" fill="#000000">2 &gt;</text>
</a>
</g>
</g>
<!-- crn_al_DataCore&#45;&gt;crn_alstndID -->
<g id="edge2" class="edge">
<title>crn_al_DataCore:w&#45;&gt;crn_alstndID:e</title>
<path fill="none" stroke="#000000" d="M196.9089,-468.3367C167.4087,-457.8094 166.5461,-415.7 127.5,-415.7"/>
<polygon fill="#000000" stroke="#000000" points="203.6029,-469.4209 210.9244,-474.2537 207.5515,-470.0604 211.5,-470.7 211.5,-470.7 211.5,-470.7 207.5515,-470.0604 212.0756,-467.1463 203.6029,-469.4209 203.6029,-469.4209"/>
<ellipse fill="none" stroke="#000000" cx="200.4441" cy="-468.9092" rx="3.2" ry="3.2"/>
</g>
<!-- global_RefCore -->
<g id="node4" class="node">
<title>global_RefCore</title>
<g id="a_node4"><a xlink:href="../../tables/global_RefCore.html" xlink:title="global_RefCore" target="_top">
<polygon fill="#ffffff" stroke="transparent" points="8,-306.2 8,-367.2 135,-367.2 135,-306.2 8,-306.2"/>
<polygon fill="#f5f5f5" stroke="transparent" points="8.5,-343.7 8.5,-366.7 135.5,-366.7 135.5,-343.7 8.5,-343.7"/>
<polygon fill="none" stroke="#000000" points="8.5,-343.7 8.5,-366.7 135.5,-366.7 135.5,-343.7 8.5,-343.7"/>
<text text-anchor="start" x="13.5" y="-352.3" font-family="Helvetica,sans-Serif" font-weight="bold" font-size="11.00" fill="#000000">global_RefCore</text>
<text text-anchor="start" x="101.0219" y="-351.8" font-family="Helvetica,sans-Serif" font-size="11.00" fill="#000000">[table]</text>
<polygon fill="none" stroke="#000000" points="8.5,-324.7 8.5,-343.7 135.5,-343.7 135.5,-324.7 8.5,-324.7"/>
<text text-anchor="start" x="11.5" y="-330.8" font-family="Helvetica,sans-Serif" font-size="11.00" fill="#000000">...</text>
<polygon fill="#ffffff" stroke="transparent" points="8.5,-305.7 8.5,-324.7 39.5,-324.7 39.5,-305.7 8.5,-305.7"/>
<polygon fill="none" stroke="#000000" points="8.5,-305.7 8.5,-324.7 39.5,-324.7 39.5,-305.7 8.5,-305.7"/>
<text text-anchor="start" x="11.5" y="-311.8" font-family="Helvetica,sans-Serif" font-size="11.00" fill="#000000">&lt; 5</text>
<polygon fill="#ffffff" stroke="transparent" points="39.5,-305.7 39.5,-324.7 103.5,-324.7 103.5,-305.7 39.5,-305.7"/>
<polygon fill="none" stroke="#000000" points="39.5,-305.7 39.5,-324.7 103.5,-324.7 103.5,-305.7 39.5,-305.7"/>
<text text-anchor="start" x="46.7089" y="-311.8" font-family="Helvetica,sans-Serif" font-size="11.00" fill="#000000">3.958 rows</text>
<polygon fill="#ffffff" stroke="transparent" points="103.5,-305.7 103.5,-324.7 135.5,-324.7 135.5,-305.7 103.5,-305.7"/>
<polygon fill="none" stroke="#000000" points="103.5,-305.7 103.5,-324.7 135.5,-324.7 135.5,-305.7 103.5,-305.7"/>
<text text-anchor="start" x="110.7904" y="-311.8" font-family="Helvetica,sans-Serif" font-size="11.00" fill="#000000">37 &gt;</text>
</a>
</g>
</g>
<!-- crn_al_DataCore&#45;&gt;global_RefCore -->
<g id="edge3" class="edge">
<title>crn_al_DataCore:w&#45;&gt;global_RefCore:e</title>
<path fill="none" stroke="#000000" d="M197.2257,-490.4523C143.7309,-471.1267 208.3172,-333.7 135.5,-333.7"/>
<polygon fill="#000000" stroke="#000000" points="203.5974,-491.4556 210.94,-496.2562 207.5487,-492.0778 211.5,-492.7 211.5,-492.7 211.5,-492.7 207.5487,-492.0778 212.06,-489.1438 203.5974,-491.4556 203.5974,-491.4556"/>
<ellipse fill="none" stroke="#000000" cx="200.4363" cy="-490.9578" rx="3.2" ry="3.2"/>
</g>
<!-- crn_Sample -->
<g id="node5" class="node">
<title>crn_Sample</title>
<g id="a_node5"><a xlink:href="../../tables/crn_Sample.html" xlink:title="crn_Sample" target="_top">
<polygon fill="#ffffff" stroke="transparent" points="18,-552.2 18,-613.2 125,-613.2 125,-552.2 18,-552.2"/>
<polygon fill="#f5f5f5" stroke="transparent" points="18.5,-589.7 18.5,-612.7 125.5,-612.7 125.5,-589.7 18.5,-589.7"/>
<polygon fill="none" stroke="#000000" points="18.5,-589.7 18.5,-612.7 125.5,-612.7 125.5,-589.7 18.5,-589.7"/>
<text text-anchor="start" x="23.5" y="-598.3" font-family="Helvetica,sans-Serif" font-weight="bold" font-size="11.00" fill="#000000">crn_Sample</text>
<text text-anchor="start" x="91.0219" y="-597.8" font-family="Helvetica,sans-Serif" font-size="11.00" fill="#000000">[table]</text>
<polygon fill="none" stroke="#000000" points="18.5,-570.7 18.5,-589.7 125.5,-589.7 125.5,-570.7 18.5,-570.7"/>
<text text-anchor="start" x="21.5" y="-576.8" font-family="Helvetica,sans-Serif" font-size="11.00" fill="#000000">...</text>
<polygon fill="#ffffff" stroke="transparent" points="18.5,-551.7 18.5,-570.7 42.5,-570.7 42.5,-551.7 18.5,-551.7"/>
<polygon fill="none" stroke="#000000" points="18.5,-551.7 18.5,-570.7 42.5,-570.7 42.5,-551.7 18.5,-551.7"/>
<text text-anchor="start" x="21.5" y="-557.8" font-family="Helvetica,sans-Serif" font-size="11.00" fill="#000000">&lt; 3</text>
<polygon fill="#ffffff" stroke="transparent" points="42.5,-551.7 42.5,-570.7 102.5,-570.7 102.5,-551.7 42.5,-551.7"/>
<polygon fill="none" stroke="#000000" points="42.5,-551.7 42.5,-570.7 102.5,-570.7 102.5,-551.7 42.5,-551.7"/>
<text text-anchor="start" x="45.7089" y="-557.8" font-family="Helvetica,sans-Serif" font-size="11.00" fill="#000000">6.039 rows</text>
<polygon fill="#ffffff" stroke="transparent" points="102.5,-551.7 102.5,-570.7 125.5,-570.7 125.5,-551.7 102.5,-551.7"/>
<polygon fill="none" stroke="#000000" points="102.5,-551.7 102.5,-570.7 125.5,-570.7 125.5,-551.7 102.5,-551.7"/>
<text text-anchor="start" x="106.9053" y="-557.8" font-family="Helvetica,sans-Serif" font-size="11.00" fill="#000000">2 &gt;</text>
</a>
</g>
</g>
<!-- crn_al_DataCore&#45;&gt;crn_Sample -->
<g id="edge4" class="edge">
<title>crn_al_DataCore:w&#45;&gt;crn_Sample:e</title>
<path fill="none" stroke="#000000" d="M196.897,-538.6594C167.9277,-547.0714 162.7251,-579.7 125.5,-579.7"/>
<polygon fill="#000000" stroke="#000000" points="203.5711,-537.7639 211.9788,-540.268 207.5355,-537.232 211.5,-536.7 211.5,-536.7 211.5,-536.7 207.5355,-537.232 211.0212,-533.132 203.5711,-537.7639 203.5711,-537.7639"/>
<ellipse fill="none" stroke="#000000" cx="200.3995" cy="-538.1895" rx="3.2" ry="3.2"/>
</g>
<!-- global_dbDOI -->
<g id="node6" class="node">
<title>global_dbDOI</title>
<g id="a_node6"><a xlink:href="../../tables/global_dbDOI.html" xlink:title="global_dbDOI" target="_top">
<polygon fill="#ffffff" stroke="transparent" points="13,-470.2 13,-531.2 130,-531.2 130,-470.2 13,-470.2"/>
<polygon fill="#f5f5f5" stroke="transparent" points="13.5,-507.7 13.5,-530.7 130.5,-530.7 130.5,-507.7 13.5,-507.7"/>
<polygon fill="none" stroke="#000000" points="13.5,-507.7 13.5,-530.7 130.5,-530.7 130.5,-507.7 13.5,-507.7"/>
<text text-anchor="start" x="18.5" y="-516.3" font-family="Helvetica,sans-Serif" font-weight="bold" font-size="11.00" fill="#000000">global_dbDOI</text>
<text text-anchor="start" x="96.0219" y="-515.8" font-family="Helvetica,sans-Serif" font-size="11.00" fill="#000000">[table]</text>
<polygon fill="none" stroke="#000000" points="13.5,-488.7 13.5,-507.7 130.5,-507.7 130.5,-488.7 13.5,-488.7"/>
<text text-anchor="start" x="16.5" y="-494.8" font-family="Helvetica,sans-Serif" font-size="11.00" fill="#000000">...</text>
<polygon fill="#ffffff" stroke="transparent" points="13.5,-469.7 13.5,-488.7 46.5,-488.7 46.5,-469.7 13.5,-469.7"/>
<polygon fill="none" stroke="#000000" points="13.5,-469.7 13.5,-488.7 46.5,-488.7 46.5,-469.7 13.5,-469.7"/>
<text text-anchor="start" x="16.5" y="-475.8" font-family="Helvetica,sans-Serif" font-size="11.00" fill="#000000">&lt; 2</text>
<polygon fill="#ffffff" stroke="transparent" points="46.5,-469.7 46.5,-488.7 96.5,-488.7 96.5,-469.7 46.5,-469.7"/>
<polygon fill="none" stroke="#000000" points="46.5,-469.7 46.5,-488.7 96.5,-488.7 96.5,-469.7 46.5,-469.7"/>
<text text-anchor="start" x="54.9956" y="-475.8" font-family="Helvetica,sans-Serif" font-size="11.00" fill="#000000">34 rows</text>
<polygon fill="#ffffff" stroke="transparent" points="96.5,-469.7 96.5,-488.7 130.5,-488.7 130.5,-469.7 96.5,-469.7"/>
<polygon fill="none" stroke="#000000" points="96.5,-469.7 96.5,-488.7 130.5,-488.7 130.5,-469.7 96.5,-469.7"/>
<text text-anchor="start" x="105.7904" y="-475.8" font-family="Helvetica,sans-Serif" font-size="11.00" fill="#000000">11 &gt;</text>
</a>
</g>
</g>
<!-- crn_al_DataCore&#45;&gt;global_dbDOI -->
<g id="edge5" class="edge">
<title>crn_al_DataCore:w&#45;&gt;global_dbDOI:e</title>
<path fill="none" stroke="#000000" d="M196.8677,-513.6875C171.8627,-510.0277 161.8242,-497.7 130.5,-497.7"/>
<polygon fill="#000000" stroke="#000000" points="203.5191,-514.1477 211.2515,-518.2914 207.5095,-514.4238 211.5,-514.7 211.5,-514.7 211.5,-514.7 207.5095,-514.4238 211.7485,-511.1086 203.5191,-514.1477 203.5191,-514.1477"/>
<ellipse fill="none" stroke="#000000" cx="200.3267" cy="-513.9268" rx="3.2" ry="3.2"/>
</g>
<!-- crn_be_DataCore -->
<g id="node7" class="node">
<title>crn_be_DataCore</title>
<g id="a_node7"><a xlink:href="../../tables/crn_be_DataCore.html" xlink:title="crn_be_DataCore" target="_top">
<polygon fill="#ffffff" stroke="transparent" points="209.5,-186.2 209.5,-379.2 347.5,-379.2 347.5,-186.2 209.5,-186.2"/>
<polygon fill="#f5f5f5" stroke="transparent" points="209.5,-355.7 209.5,-378.7 347.5,-378.7 347.5,-355.7 209.5,-355.7"/>
<polygon fill="none" stroke="#000000" points="209.5,-355.7 209.5,-378.7 347.5,-378.7 347.5,-355.7 209.5,-355.7"/>
<text text-anchor="start" x="214.5" y="-364.3" font-family="Helvetica,sans-Serif" font-weight="bold" font-size="11.00" fill="#000000">crn_be_DataCore</text>
<text text-anchor="start" x="313.0219" y="-363.8" font-family="Helvetica,sans-Serif" font-size="11.00" fill="#000000">[table]</text>
<polygon fill="none" stroke="#000000" points="209.5,-333.7 209.5,-355.7 347.5,-355.7 347.5,-333.7 209.5,-333.7"/>
<image xlink:href="../../images/primaryKeys.png" width="11px" height="12px" preserveAspectRatio="xMinYMin meet" x="214.5" y="-350.7"/>
<text text-anchor="start" x="238.5" y="-340.8" font-family="Helvetica,sans-Serif" font-size="11.00" fill="#000000">OBSID1</text>
<polygon fill="none" stroke="#000000" points="209.5,-311.7 209.5,-333.7 347.5,-333.7 347.5,-311.7 209.5,-311.7"/>
<image xlink:href="../../images/foreignKeys.png" width="11px" height="12px" preserveAspectRatio="xMinYMin meet" x="214.5" y="-328.7"/>
<text text-anchor="start" x="238.5" y="-318.8" font-family="Helvetica,sans-Serif" font-size="11.00" fill="#000000">SMPID</text>
<polygon fill="none" stroke="#000000" points="209.5,-289.7 209.5,-311.7 347.5,-311.7 347.5,-289.7 209.5,-289.7"/>
<image xlink:href="../../images/foreignKeys.png" width="11px" height="12px" preserveAspectRatio="xMinYMin meet" x="214.5" y="-306.7"/>
<text text-anchor="start" x="238.5" y="-296.8" font-family="Helvetica,sans-Serif" font-size="11.00" fill="#000000">VERID</text>
<polygon fill="none" stroke="#000000" points="209.5,-267.7 209.5,-289.7 347.5,-289.7 347.5,-267.7 209.5,-267.7"/>
<image xlink:href="../../images/foreignKeys.png" width="11px" height="12px" preserveAspectRatio="xMinYMin meet" x="214.5" y="-284.7"/>
<text text-anchor="start" x="238.5" y="-274.8" font-family="Helvetica,sans-Serif" font-size="11.00" fill="#000000">REFDBID1</text>
<polygon fill="none" stroke="#000000" points="209.5,-245.7 209.5,-267.7 347.5,-267.7 347.5,-245.7 209.5,-245.7"/>
<image xlink:href="../../images/foreignKeys.png" width="11px" height="12px" preserveAspectRatio="xMinYMin meet" x="214.5" y="-262.7"/>
<text text-anchor="start" x="238.5" y="-252.8" font-family="Helvetica,sans-Serif" font-size="11.00" fill="#000000">BESTNDID</text>
<polygon fill="none" stroke="#000000" points="209.5,-223.7 209.5,-245.7 347.5,-245.7 347.5,-223.7 209.5,-223.7"/>
<image xlink:href="../../images/foreignKeys.png" width="11px" height="12px" preserveAspectRatio="xMinYMin meet" x="214.5" y="-240.7"/>
<text text-anchor="start" x="238.5" y="-230.8" font-family="Helvetica,sans-Serif" font-size="11.00" fill="#000000">BEAMSID</text>
<polygon fill="none" stroke="#000000" points="209.5,-204.7 209.5,-223.7 347.5,-223.7 347.5,-204.7 209.5,-204.7"/>
<text text-anchor="start" x="212.5" y="-210.8" font-family="Helvetica,sans-Serif" font-size="11.00" fill="#000000">...</text>
<polygon fill="#ffffff" stroke="transparent" points="209.5,-185.7 209.5,-204.7 248.5,-204.7 248.5,-185.7 209.5,-185.7"/>
<polygon fill="none" stroke="#000000" points="209.5,-185.7 209.5,-204.7 248.5,-204.7 248.5,-185.7 209.5,-185.7"/>
<text text-anchor="start" x="212.5" y="-191.8" font-family="Helvetica,sans-Serif" font-size="11.00" fill="#000000">&lt; 5</text>
<polygon fill="#ffffff" stroke="transparent" points="248.5,-185.7 248.5,-204.7 316.5,-204.7 316.5,-185.7 248.5,-185.7"/>
<polygon fill="none" stroke="#000000" points="248.5,-185.7 248.5,-204.7 316.5,-204.7 316.5,-185.7 248.5,-185.7"/>
<text text-anchor="start" x="259.7089" y="-191.8" font-family="Helvetica,sans-Serif" font-size="11.00" fill="#000000">6.091 rows</text>
<polygon fill="#ffffff" stroke="transparent" points="316.5,-185.7 316.5,-204.7 347.5,-204.7 347.5,-185.7 316.5,-185.7"/>
<polygon fill="none" stroke="#000000" points="316.5,-185.7 316.5,-204.7 347.5,-204.7 347.5,-185.7 316.5,-185.7"/>
<text text-anchor="start" x="328.9053" y="-191.8" font-family="Helvetica,sans-Serif" font-size="11.00" fill="#000000">2 &gt;</text>
</a>
</g>
</g>
<!-- crn_be_DataCore&#45;&gt;crn_amsID -->
<g id="edge6" class="edge">
<title>crn_be_DataCore:w&#45;&gt;crn_amsID:e</title>
<path fill="none" stroke="#000000" d="M194.7673,-235.5664C166.7988,-239.0307 155.8881,-251.7 121.5,-251.7"/>
<polygon fill="#000000" stroke="#000000" points="201.5138,-235.1697 209.7114,-238.2938 205.5069,-234.9349 209.5,-234.7 209.5,-234.7 209.5,-234.7 205.5069,-234.9349 209.2886,-231.1062 201.5138,-235.1697 201.5138,-235.1697"/>
<ellipse fill="none" stroke="#000000" cx="198.3193" cy="-235.3576" rx="3.2" ry="3.2"/>
</g>
<!-- crn_be_DataCore&#45;&gt;global_RefCore -->
<g id="edge8" class="edge">
<title>crn_be_DataCore:w&#45;&gt;global_RefCore:e</title>
<path fill="none" stroke="#000000" d="M195.1865,-281.5031C169.7827,-292.711 170.8757,-333.7 135.5,-333.7"/>
<polygon fill="#000000" stroke="#000000" points="201.6491,-280.2375 210.1919,-282.2329 205.5746,-279.4688 209.5,-278.7 209.5,-278.7 209.5,-278.7 205.5746,-279.4688 208.8081,-275.1671 201.6491,-280.2375 201.6491,-280.2375"/>
<ellipse fill="none" stroke="#000000" cx="198.5088" cy="-280.8525" rx="3.2" ry="3.2"/>
</g>
<!-- crn_be_DataCore&#45;&gt;crn_Sample -->
<g id="edge9" class="edge">
<title>crn_be_DataCore:w&#45;&gt;crn_Sample:e</title>
<path fill="none" stroke="#000000" d="M194.9292,-324.2093C102.8193,-345.2712 240.2704,-579.7 125.5,-579.7"/>
<polygon fill="#000000" stroke="#000000" points="201.5426,-323.5243 209.8709,-326.2808 205.5213,-323.1121 209.5,-322.7 209.5,-322.7 209.5,-322.7 205.5213,-323.1121 209.1291,-319.1192 201.5426,-323.5243 201.5426,-323.5243"/>
<ellipse fill="none" stroke="#000000" cx="198.3596" cy="-323.854" rx="3.2" ry="3.2"/>
</g>
<!-- crn_be_DataCore&#45;&gt;global_dbDOI -->
<g id="edge10" class="edge">
<title>crn_be_DataCore:w&#45;&gt;global_dbDOI:e</title>
<path fill="none" stroke="#000000" d="M194.937,-302.6498C127.3179,-323.1096 219.3059,-497.7 130.5,-497.7"/>
<polygon fill="#000000" stroke="#000000" points="201.5708,-301.7617 209.9777,-304.2682 205.5354,-301.2308 209.5,-300.7 209.5,-300.7 209.5,-300.7 205.5354,-301.2308 209.0223,-297.1318 201.5708,-301.7617 201.5708,-301.7617"/>
<ellipse fill="none" stroke="#000000" cx="198.3991" cy="-302.1863" rx="3.2" ry="3.2"/>
</g>
<!-- crn_bestndID -->
<g id="node8" class="node">
<title>crn_bestndID</title>
<g id="a_node8"><a xlink:href="../../tables/crn_bestndID.html" xlink:title="crn_bestndID" target="_top">
<polygon fill="#ffffff" stroke="transparent" points="14,-142.2 14,-203.2 129,-203.2 129,-142.2 14,-142.2"/>
<polygon fill="#f5f5f5" stroke="transparent" points="14.5,-179.7 14.5,-202.7 129.5,-202.7 129.5,-179.7 14.5,-179.7"/>
<polygon fill="none" stroke="#000000" points="14.5,-179.7 14.5,-202.7 129.5,-202.7 129.5,-179.7 14.5,-179.7"/>
<text text-anchor="start" x="19.5" y="-188.3" font-family="Helvetica,sans-Serif" font-weight="bold" font-size="11.00" fill="#000000">crn_bestndID</text>
<text text-anchor="start" x="95.0219" y="-187.8" font-family="Helvetica,sans-Serif" font-size="11.00" fill="#000000">[table]</text>
<polygon fill="none" stroke="#000000" points="14.5,-160.7 14.5,-179.7 129.5,-179.7 129.5,-160.7 14.5,-160.7"/>
<text text-anchor="start" x="17.5" y="-166.8" font-family="Helvetica,sans-Serif" font-size="11.00" fill="#000000">...</text>
<polygon fill="#ffffff" stroke="transparent" points="14.5,-141.7 14.5,-160.7 45.5,-160.7 45.5,-141.7 14.5,-141.7"/>
<polygon fill="none" stroke="#000000" points="14.5,-141.7 14.5,-160.7 45.5,-160.7 45.5,-141.7 14.5,-141.7"/>
<text text-anchor="start" x="17.5" y="-147.8" font-family="Helvetica,sans-Serif" font-size="11.00" fill="#000000"> &#160;</text>
<polygon fill="#ffffff" stroke="transparent" points="45.5,-141.7 45.5,-160.7 98.5,-160.7 98.5,-141.7 45.5,-141.7"/>
<polygon fill="none" stroke="#000000" points="45.5,-141.7 45.5,-160.7 98.5,-160.7 98.5,-141.7 45.5,-141.7"/>
<text text-anchor="start" x="56.9956" y="-147.8" font-family="Helvetica,sans-Serif" font-size="11.00" fill="#000000">60 rows</text>
<polygon fill="#ffffff" stroke="transparent" points="98.5,-141.7 98.5,-160.7 129.5,-160.7 129.5,-141.7 98.5,-141.7"/>
<polygon fill="none" stroke="#000000" points="98.5,-141.7 98.5,-160.7 129.5,-160.7 129.5,-141.7 98.5,-141.7"/>
<text text-anchor="start" x="110.9053" y="-147.8" font-family="Helvetica,sans-Serif" font-size="11.00" fill="#000000">2 &gt;</text>
</a>
</g>
</g>
<!-- crn_be_DataCore&#45;&gt;crn_bestndID -->
<g id="edge7" class="edge">
<title>crn_be_DataCore:w&#45;&gt;crn_bestndID:e</title>
<path fill="none" stroke="#000000" d="M195.2866,-254.0009C161.3935,-239.3162 176.4889,-169.7 129.5,-169.7"/>
<polygon fill="#000000" stroke="#000000" points="201.6405,-255.2074 208.8283,-260.2368 205.5702,-255.9537 209.5,-256.7 209.5,-256.7 209.5,-256.7 205.5702,-255.9537 210.1717,-253.1632 201.6405,-255.2074 201.6405,-255.2074"/>
<ellipse fill="none" stroke="#000000" cx="198.4966" cy="-254.6104" rx="3.2" ry="3.2"/>
</g>
<!-- crn_v3_basins_EPSG3857 -->
<g id="node9" class="node">
<title>crn_v3_basins_EPSG3857</title>
<g id="a_node9"><a xlink:href="../../tables/crn_v3_basins_EPSG3857.html" xlink:title="crn_v3_basins_EPSG3857" target="_top">
<polygon fill="#ffffff" stroke="transparent" points="422,-223.7 422,-555.7 716,-555.7 716,-223.7 422,-223.7"/>
<polygon fill="#f5f5f5" stroke="transparent" points="424,-530.7 424,-553.7 714,-553.7 714,-530.7 424,-530.7"/>
<polygon fill="none" stroke="#000000" points="424,-530.7 424,-553.7 714,-553.7 714,-530.7 424,-530.7"/>
<text text-anchor="start" x="429" y="-539.3" font-family="Helvetica,sans-Serif" font-weight="bold" font-size="11.00" fill="#000000">crn_v3_basins_EPSG3857</text>
<text text-anchor="start" x="679.0437" y="-538.8" font-family="Helvetica,sans-Serif" font-size="11.00" fill="#000000">[table]</text>
<polygon fill="none" stroke="#000000" points="424,-508.7 424,-530.7 595,-530.7 595,-508.7 424,-508.7"/>
<image xlink:href="../../images/primaryKeys.png" width="11px" height="12px" preserveAspectRatio="xMinYMin meet" x="429" y="-525.7"/>
<text text-anchor="start" x="444" y="-515.8" font-family="Helvetica,sans-Serif" font-size="11.00" fill="#000000">id</text>
<polygon fill="none" stroke="#000000" points="595,-508.7 595,-530.7 714,-530.7 714,-508.7 595,-508.7"/>
<text text-anchor="start" x="598" y="-516.4" font-family="Helvetica,sans-Serif" font-size="11.00" fill="#000000">serial[10]</text>
<polygon fill="#ffffff" stroke="transparent" points="424,-486.7 424,-508.7 595,-508.7 595,-486.7 424,-486.7"/>
<polygon fill="none" stroke="#000000" points="424,-486.7 424,-508.7 595,-508.7 595,-486.7 424,-486.7"/>
<text text-anchor="start" x="444" y="-493.8" font-family="Helvetica,sans-Serif" font-size="11.00" fill="#000000">geom</text>
<polygon fill="none" stroke="#000000" points="595,-486.7 595,-508.7 714,-508.7 714,-486.7 595,-486.7"/>
<text text-anchor="start" x="597.9485" y="-494.4" font-family="Helvetica,sans-Serif" font-size="11.00" fill="#000000">geometry[2147483647]</text>
<polygon fill="#ffffff" stroke="transparent" points="424,-464.7 424,-486.7 595,-486.7 595,-464.7 424,-464.7"/>
<polygon fill="none" stroke="#000000" points="424,-464.7 424,-486.7 595,-486.7 595,-464.7 424,-464.7"/>
<image xlink:href="../../images/foreignKeys.png" width="11px" height="12px" preserveAspectRatio="xMinYMin meet" x="429" y="-481.7"/>
<text text-anchor="start" x="444" y="-471.8" font-family="Helvetica,sans-Serif" font-size="11.00" fill="#000000">OBSID1</text>
<polygon fill="none" stroke="#000000" points="595,-464.7 595,-486.7 714,-486.7 714,-464.7 595,-464.7"/>
<text text-anchor="start" x="598" y="-472.4" font-family="Helvetica,sans-Serif" font-size="11.00" fill="#000000">varchar[254]</text>
<polygon fill="none" stroke="#000000" points="424,-442.7 424,-464.7 595,-464.7 595,-442.7 424,-442.7"/>
<text text-anchor="start" x="444" y="-449.8" font-family="Helvetica,sans-Serif" font-size="11.00" fill="#000000">OBSID2</text>
<polygon fill="none" stroke="#000000" points="595,-442.7 595,-464.7 714,-464.7 714,-442.7 595,-442.7"/>
<text text-anchor="start" x="598" y="-450.4" font-family="Helvetica,sans-Serif" font-size="11.00" fill="#000000">varchar[254]</text>
<polygon fill="none" stroke="#000000" points="424,-420.7 424,-442.7 595,-442.7 595,-420.7 424,-420.7"/>
<image xlink:href="../../images/foreignKeys.png" width="11px" height="12px" preserveAspectRatio="xMinYMin meet" x="429" y="-437.7"/>
<text text-anchor="start" x="444" y="-427.8" font-family="Helvetica,sans-Serif" font-size="11.00" fill="#000000">STUDYID</text>
<polygon fill="none" stroke="#000000" points="595,-420.7 595,-442.7 714,-442.7 714,-420.7 595,-420.7"/>
<text text-anchor="start" x="598" y="-428.4" font-family="Helvetica,sans-Serif" font-size="11.00" fill="#000000">varchar[5]</text>
<polygon fill="none" stroke="#000000" points="424,-398.7 424,-420.7 595,-420.7 595,-398.7 424,-398.7"/>
<text text-anchor="start" x="444" y="-405.8" font-family="Helvetica,sans-Serif" font-size="11.00" fill="#000000">CRN_SUBCMP</text>
<polygon fill="none" stroke="#000000" points="595,-398.7 595,-420.7 714,-420.7 714,-398.7 595,-398.7"/>
<text text-anchor="start" x="598" y="-406.4" font-family="Helvetica,sans-Serif" font-size="11.00" fill="#000000">varchar[3]</text>
<polygon fill="none" stroke="#000000" points="424,-376.7 424,-398.7 595,-398.7 595,-376.7 424,-376.7"/>
<text text-anchor="start" x="444" y="-383.8" font-family="Helvetica,sans-Serif" font-size="11.00" fill="#000000">CENTR_LAT</text>
<polygon fill="none" stroke="#000000" points="595,-376.7 595,-398.7 714,-398.7 714,-376.7 595,-376.7"/>
<text text-anchor="start" x="598" y="-384.4" font-family="Helvetica,sans-Serif" font-size="11.00" fill="#000000">numeric[6,4]</text>
<polygon fill="none" stroke="#000000" points="424,-354.7 424,-376.7 595,-376.7 595,-354.7 424,-354.7"/>
<text text-anchor="start" x="444" y="-361.8" font-family="Helvetica,sans-Serif" font-size="11.00" fill="#000000">ATM_PRESS</text>
<polygon fill="none" stroke="#000000" points="595,-354.7 595,-376.7 714,-376.7 714,-354.7 595,-354.7"/>
<text text-anchor="start" x="598" y="-362.4" font-family="Helvetica,sans-Serif" font-size="11.00" fill="#000000">numeric[6,2]</text>
<polygon fill="none" stroke="#000000" points="424,-332.7 424,-354.7 595,-354.7 595,-332.7 424,-332.7"/>
<text text-anchor="start" x="444" y="-339.8" font-family="Helvetica,sans-Serif" font-size="11.00" fill="#000000">CREATED_AT</text>
<polygon fill="none" stroke="#000000" points="595,-332.7 595,-354.7 714,-354.7 714,-332.7 595,-332.7"/>
<text text-anchor="start" x="598" y="-340.4" font-family="Helvetica,sans-Serif" font-size="11.00" fill="#000000">timestamptz[35,6]</text>
<polygon fill="none" stroke="#000000" points="424,-310.7 424,-332.7 595,-332.7 595,-310.7 424,-310.7"/>
<text text-anchor="start" x="444" y="-317.8" font-family="Helvetica,sans-Serif" font-size="11.00" fill="#000000">UPDATED_AT</text>
<polygon fill="none" stroke="#000000" points="595,-310.7 595,-332.7 714,-332.7 714,-310.7 595,-310.7"/>
<text text-anchor="start" x="598" y="-318.4" font-family="Helvetica,sans-Serif" font-size="11.00" fill="#000000">timestamptz[35,6]</text>
<polygon fill="none" stroke="#000000" points="424,-288.7 424,-310.7 595,-310.7 595,-288.7 424,-288.7"/>
<text text-anchor="start" x="444" y="-295.8" font-family="Helvetica,sans-Serif" font-size="11.00" fill="#000000">QTZ_PCNT</text>
<polygon fill="none" stroke="#000000" points="595,-288.7 595,-310.7 714,-310.7 714,-288.7 595,-288.7"/>
<text text-anchor="start" x="598" y="-296.4" font-family="Helvetica,sans-Serif" font-size="11.00" fill="#000000">numeric[7,4]</text>
<polygon fill="none" stroke="#000000" points="424,-266.7 424,-288.7 595,-288.7 595,-266.7 424,-266.7"/>
<text text-anchor="start" x="444" y="-273.8" font-family="Helvetica,sans-Serif" font-size="11.00" fill="#000000">GLA_KM2</text>
<polygon fill="none" stroke="#000000" points="595,-266.7 595,-288.7 714,-288.7 714,-266.7 595,-266.7"/>
<text text-anchor="start" x="598" y="-274.4" font-family="Helvetica,sans-Serif" font-size="11.00" fill="#000000">numeric[10,2]</text>
<polygon fill="none" stroke="#000000" points="424,-244.7 424,-266.7 595,-266.7 595,-244.7 424,-244.7"/>
<text text-anchor="start" x="444" y="-251.8" font-family="Helvetica,sans-Serif" font-size="11.00" fill="#000000">GLA_PCNT</text>
<polygon fill="none" stroke="#000000" points="595,-244.7 595,-266.7 714,-266.7 714,-244.7 595,-244.7"/>
<text text-anchor="start" x="598" y="-252.4" font-family="Helvetica,sans-Serif" font-size="11.00" fill="#000000">numeric[7,4]</text>
<polygon fill="#ffffff" stroke="transparent" points="424,-225.7 424,-244.7 490,-244.7 490,-225.7 424,-225.7"/>
<polygon fill="none" stroke="#000000" points="424,-225.7 424,-244.7 490,-244.7 490,-225.7 424,-225.7"/>
<text text-anchor="start" x="427" y="-231.8" font-family="Helvetica,sans-Serif" font-size="11.00" fill="#000000">&lt; 3</text>
<polygon fill="#ffffff" stroke="transparent" points="490,-225.7 490,-244.7 595,-244.7 595,-225.7 490,-225.7"/>
<polygon fill="none" stroke="#000000" points="490,-225.7 490,-244.7 595,-244.7 595,-225.7 490,-225.7"/>
<text text-anchor="start" x="538.2089" y="-231.8" font-family="Helvetica,sans-Serif" font-size="11.00" fill="#000000">6.091 rows</text>
<polygon fill="#ffffff" stroke="transparent" points="595,-225.7 595,-244.7 714,-244.7 714,-225.7 595,-225.7"/>
<polygon fill="none" stroke="#000000" points="595,-225.7 595,-244.7 714,-244.7 714,-225.7 595,-225.7"/>
<text text-anchor="start" x="695.4053" y="-231.8" font-family="Helvetica,sans-Serif" font-size="11.00" fill="#000000">0 &gt;</text>
<polygon fill="none" stroke="#000000" stroke-width="2" points="423,-224.7 423,-554.7 715,-554.7 715,-224.7 423,-224.7"/>
</a>
</g>
</g>
<!-- crn_v3_basins_EPSG3857&#45;&gt;crn_al_DataCore -->
<g id="edge11" class="edge">
<title>crn_v3_basins_EPSG3857:w&#45;&gt;crn_al_DataCore:e</title>
<path fill="none" stroke="#000000" d="M413.3811,-477.1406C376.3765,-488.1622 392.3075,-558.7 345.5,-558.7"/>
<polygon fill="#000000" stroke="#000000" points="422.6695,-471.8439 423.745,-479.7712 422.1596,-479.9864 421.084,-472.059 422.6695,-471.8439"/>
<polyline fill="none" stroke="#000000" points="424,-475.7 420.0363,-476.2378 "/>
<ellipse fill="none" stroke="#000000" cx="416.8654" cy="-476.668" rx="3.2" ry="3.2"/>
</g>
<!-- crn_v3_basins_EPSG3857&#45;&gt;crn_be_DataCore -->
<g id="edge12" class="edge">
<title>crn_v3_basins_EPSG3857:w&#45;&gt;crn_be_DataCore:e</title>
<path fill="none" stroke="#000000" d="M413.3931,-474.4034C362.9828,-460.7982 410.9722,-344.7 347.5,-344.7"/>
<polygon fill="#000000" stroke="#000000" points="423.6913,-471.6325 422.7205,-479.5734 421.1324,-479.3792 422.1031,-471.4383 423.6913,-471.6325"/>
<polyline fill="none" stroke="#000000" points="424,-475.7 420.0296,-475.2146 "/>
<ellipse fill="none" stroke="#000000" cx="416.8532" cy="-474.8263" rx="3.2" ry="3.2"/>
</g>
<!-- crn_studies_boundingbox -->
<g id="node10" class="node">
<title>crn_studies_boundingbox</title>
<g id="a_node10"><a xlink:href="../../tables/crn_studies_boundingbox.html" xlink:title="crn_studies_boundingbox" target="_top">
<polygon fill="#ffffff" stroke="transparent" points="184,-38.2 184,-165.2 373,-165.2 373,-38.2 184,-38.2"/>
<polygon fill="#f5f5f5" stroke="transparent" points="184.5,-141.7 184.5,-164.7 373.5,-164.7 373.5,-141.7 184.5,-141.7"/>
<polygon fill="none" stroke="#000000" points="184.5,-141.7 184.5,-164.7 373.5,-164.7 373.5,-141.7 184.5,-141.7"/>
<text text-anchor="start" x="189.5" y="-150.3" font-family="Helvetica,sans-Serif" font-weight="bold" font-size="11.00" fill="#000000">crn_studies_boundingbox</text>
<text text-anchor="start" x="339.0219" y="-149.8" font-family="Helvetica,sans-Serif" font-size="11.00" fill="#000000">[table]</text>
<polygon fill="none" stroke="#000000" points="184.5,-119.7 184.5,-141.7 373.5,-141.7 373.5,-119.7 184.5,-119.7"/>
<image xlink:href="../../images/primaryKeys.png" width="11px" height="12px" preserveAspectRatio="xMinYMin meet" x="189.5" y="-136.7"/>
<text text-anchor="start" x="213.5" y="-126.8" font-family="Helvetica,sans-Serif" font-size="11.00" fill="#000000">id</text>
<polygon fill="#ffffff" stroke="transparent" points="184.5,-97.7 184.5,-119.7 373.5,-119.7 373.5,-97.7 184.5,-97.7"/>
<polygon fill="none" stroke="#000000" points="184.5,-97.7 184.5,-119.7 373.5,-119.7 373.5,-97.7 184.5,-97.7"/>
<text text-anchor="start" x="213.5" y="-104.8" font-family="Helvetica,sans-Serif" font-size="11.00" fill="#000000">geom</text>
<polygon fill="#ffffff" stroke="transparent" points="184.5,-75.7 184.5,-97.7 373.5,-97.7 373.5,-75.7 184.5,-75.7"/>
<polygon fill="none" stroke="#000000" points="184.5,-75.7 184.5,-97.7 373.5,-97.7 373.5,-75.7 184.5,-75.7"/>
<image xlink:href="../../images/foreignKeys.png" width="11px" height="12px" preserveAspectRatio="xMinYMin meet" x="189.5" y="-92.7"/>
<text text-anchor="start" x="213.5" y="-82.8" font-family="Helvetica,sans-Serif" font-size="11.00" fill="#000000">STUDYID</text>
<polygon fill="none" stroke="#000000" points="184.5,-56.7 184.5,-75.7 373.5,-75.7 373.5,-56.7 184.5,-56.7"/>
<text text-anchor="start" x="187.5" y="-62.8" font-family="Helvetica,sans-Serif" font-size="11.00" fill="#000000">...</text>
<polygon fill="#ffffff" stroke="transparent" points="184.5,-37.7 184.5,-56.7 249.5,-56.7 249.5,-37.7 184.5,-37.7"/>
<polygon fill="none" stroke="#000000" points="184.5,-37.7 184.5,-56.7 249.5,-56.7 249.5,-37.7 184.5,-37.7"/>
<text text-anchor="start" x="187.5" y="-43.8" font-family="Helvetica,sans-Serif" font-size="11.00" fill="#000000"> &#160;</text>
<polygon fill="#ffffff" stroke="transparent" points="249.5,-37.7 249.5,-56.7 325.5,-56.7 325.5,-37.7 249.5,-37.7"/>
<polygon fill="none" stroke="#000000" points="249.5,-37.7 249.5,-56.7 325.5,-56.7 325.5,-37.7 249.5,-37.7"/>
<text text-anchor="start" x="277.8807" y="-43.8" font-family="Helvetica,sans-Serif" font-size="11.00" fill="#000000">301 rows</text>
<polygon fill="#ffffff" stroke="transparent" points="325.5,-37.7 325.5,-56.7 373.5,-56.7 373.5,-37.7 325.5,-37.7"/>
<polygon fill="none" stroke="#000000" points="325.5,-37.7 325.5,-56.7 373.5,-56.7 373.5,-37.7 325.5,-37.7"/>
<text text-anchor="start" x="354.9053" y="-43.8" font-family="Helvetica,sans-Serif" font-size="11.00" fill="#000000">2 &gt;</text>
</a>
</g>
</g>
<!-- crn_v3_basins_EPSG3857&#45;&gt;crn_studies_boundingbox -->
<g id="edge13" class="edge">
<title>crn_v3_basins_EPSG3857:w&#45;&gt;crn_studies_boundingbox:e</title>
<path fill="none" stroke="#000000" d="M410.2279,-426.823C360.3075,-384.89 445.5356,-86.7 373.5,-86.7"/>
<polygon fill="#000000" stroke="#000000" points="416.4589,-429.0295 422.7983,-435.0935 420.2294,-430.3647 424,-431.7 424,-431.7 424,-431.7 420.2294,-430.3647 425.2017,-428.3065 416.4589,-429.0295 416.4589,-429.0295"/>
<ellipse fill="none" stroke="#000000" cx="413.4424" cy="-427.9613" rx="3.2" ry="3.2"/>
</g>
<!-- crn_v3_outlets_EPSG3857 -->
<g id="node11" class="node">
<title>crn_v3_outlets_EPSG3857</title>
<g id="a_node11"><a xlink:href="../../tables/crn_v3_outlets_EPSG3857.html" xlink:title="crn_v3_outlets_EPSG3857" target="_top">
<polygon fill="#ffffff" stroke="transparent" points="474,-141.2 474,-202.2 664,-202.2 664,-141.2 474,-141.2"/>
<polygon fill="#f5f5f5" stroke="transparent" points="474,-178.7 474,-201.7 664,-201.7 664,-178.7 474,-178.7"/>
<polygon fill="none" stroke="#000000" points="474,-178.7 474,-201.7 664,-201.7 664,-178.7 474,-178.7"/>
<text text-anchor="start" x="479" y="-187.3" font-family="Helvetica,sans-Serif" font-weight="bold" font-size="11.00" fill="#000000">crn_v3_outlets_EPSG3857</text>
<text text-anchor="start" x="629.5219" y="-186.8" font-family="Helvetica,sans-Serif" font-size="11.00" fill="#000000">[table]</text>
<polygon fill="none" stroke="#000000" points="474,-159.7 474,-178.7 664,-178.7 664,-159.7 474,-159.7"/>
<text text-anchor="start" x="477" y="-165.8" font-family="Helvetica,sans-Serif" font-size="11.00" fill="#000000">...</text>
<polygon fill="#ffffff" stroke="transparent" points="474,-140.7 474,-159.7 544,-159.7 544,-140.7 474,-140.7"/>
<polygon fill="none" stroke="#000000" points="474,-140.7 474,-159.7 544,-159.7 544,-140.7 474,-140.7"/>
<text text-anchor="start" x="477" y="-146.8" font-family="Helvetica,sans-Serif" font-size="11.00" fill="#000000">&lt; 3</text>
<polygon fill="#ffffff" stroke="transparent" points="544,-140.7 544,-159.7 627,-159.7 627,-140.7 544,-140.7"/>
<polygon fill="none" stroke="#000000" points="544,-140.7 544,-159.7 627,-159.7 627,-140.7 544,-140.7"/>
<text text-anchor="start" x="570.2089" y="-146.8" font-family="Helvetica,sans-Serif" font-size="11.00" fill="#000000">6.091 rows</text>
<polygon fill="#ffffff" stroke="transparent" points="627,-140.7 627,-159.7 664,-159.7 664,-140.7 627,-140.7"/>
<polygon fill="none" stroke="#000000" points="627,-140.7 627,-159.7 664,-159.7 664,-140.7 627,-140.7"/>
<text text-anchor="start" x="654.8862" y="-146.8" font-family="Helvetica,sans-Serif" font-size="11.00" fill="#000000"> &#160;</text>
</a>
</g>
</g>
<!-- crn_v3_outlets_EPSG3857&#45;&gt;crn_al_DataCore -->
<g id="edge14" class="edge">
<title>crn_v3_outlets_EPSG3857:w&#45;&gt;crn_al_DataCore:e</title>
<path fill="none" stroke="#000000" d="M463.5585,-169.3353C438.5034,-172.6311 429.6082,-188.5999 414,-213.7 372.7246,-280.0765 423.6633,-558.7 345.5,-558.7"/>
<polygon fill="#000000" stroke="#000000" points="472.9585,-164.756 473.4444,-172.7412 471.8474,-172.8384 471.3615,-164.8532 472.9585,-164.756"/>
<polyline fill="none" stroke="#000000" points="474,-168.7 470.0074,-168.9429 "/>
<ellipse fill="none" stroke="#000000" cx="466.8133" cy="-169.1373" rx="3.2" ry="3.2"/>
</g>
<!-- crn_v3_outlets_EPSG3857&#45;&gt;crn_be_DataCore -->
<g id="edge15" class="edge">
<title>crn_v3_outlets_EPSG3857:w&#45;&gt;crn_be_DataCore:e</title>
<path fill="none" stroke="#000000" d="M463.3677,-169.4807C439.2182,-173.3472 432.924,-191.1648 414,-213.7 372.0104,-263.7023 412.7944,-344.7 347.5,-344.7"/>
<polygon fill="#000000" stroke="#000000" points="472.9092,-164.7693 473.4951,-172.7479 471.8994,-172.865 471.3135,-164.8865 472.9092,-164.7693"/>
<polyline fill="none" stroke="#000000" points="474,-168.7 470.0107,-168.9929 "/>
<ellipse fill="none" stroke="#000000" cx="466.8193" cy="-169.2273" rx="3.2" ry="3.2"/>
</g>
<!-- crn_v3_outlets_EPSG3857&#45;&gt;crn_studies_boundingbox -->
<g id="edge16" class="edge">
<title>crn_v3_outlets_EPSG3857:w&#45;&gt;crn_studies_boundingbox:e</title>
<path fill="none" stroke="#000000" d="M459.5772,-166.673C418.4894,-154.0457 425.7436,-86.7 373.5,-86.7"/>
<polygon fill="#000000" stroke="#000000" points="466.0779,-167.5866 473.499,-172.265 470.0389,-168.1433 474,-168.7 474,-168.7 474,-168.7 470.0389,-168.1433 474.501,-165.135 466.0779,-167.5866 466.0779,-167.5866"/>
<ellipse fill="none" stroke="#000000" cx="462.909" cy="-167.1412" rx="3.2" ry="3.2"/>
</g>
</g>
</svg>
