<?xml version="1.0" encoding="UTF-8" standalone="no"?>
<!DOCTYPE svg PUBLIC "-//W3C//DTD SVG 1.1//EN"
 "http://www.w3.org/Graphics/SVG/1.1/DTD/svg11.dtd">
<!-- Generated by graphviz version 2.40.1 (20161225.0304)
 -->
<!-- Title: oneDegreeRelationshipsDiagram Pages: 1 -->
<svg width="538pt" height="587pt"
 viewBox="0.00 0.00 538.00 586.70" xmlns="http://www.w3.org/2000/svg" xmlns:xlink="http://www.w3.org/1999/xlink">
<g id="graph0" class="graph" transform="scale(1 1) rotate(0) translate(4 582.7)">
<title>oneDegreeRelationshipsDiagram</title>
<polygon fill="#ffffff" stroke="transparent" points="-4,4 -4,-582.7 534,-582.7 534,4 -4,4"/>
<text text-anchor="middle" x="72.4936" y="-7.3" font-family="Helvetica,sans-Serif" font-size="11.00" fill="#000000">Generated by SchemaSpy</text>
<!-- crn_v3_basins_EPSG3857 -->
<g id="node1" class="node">
<title>crn_v3_basins_EPSG3857</title>
<g id="a_node1"><a xlink:href="../../tables/crn_v3_basins_EPSG3857.html" xlink:title="crn_v3_basins_EPSG3857" target="_top">
<polygon fill="#ffffff" stroke="transparent" points="228,-184.2 228,-406.2 522,-406.2 522,-184.2 228,-184.2"/>
<polygon fill="#f5f5f5" stroke="transparent" points="230,-381.2 230,-404.2 520,-404.2 520,-381.2 230,-381.2"/>
<polygon fill="none" stroke="#000000" points="230,-381.2 230,-404.2 520,-404.2 520,-381.2 230,-381.2"/>
<text text-anchor="start" x="235" y="-390.3" font-family="Helvetica,sans-Serif" font-weight="bold" font-size="11.00" fill="#000000">crn_v3_basins_EPSG3857</text>
<text text-anchor="start" x="485.0437" y="-389.3" font-family="Helvetica,sans-Serif" font-size="11.00" fill="#000000">[table]</text>
<polygon fill="none" stroke="#000000" points="230,-359.2 230,-381.2 401,-381.2 401,-359.2 230,-359.2"/>
<image xlink:href="../../images/primaryKeys.png" width="11px" height="12px" preserveAspectRatio="xMinYMin meet" x="235" y="-376.2"/>
<text text-anchor="start" x="250" y="-366.3" font-family="Helvetica,sans-Serif" font-size="11.00" fill="#000000">id</text>
<polygon fill="none" stroke="#000000" points="401,-359.2 401,-381.2 520,-381.2 520,-359.2 401,-359.2"/>
<text text-anchor="start" x="404" y="-366.9" font-family="Helvetica,sans-Serif" font-size="11.00" fill="#000000">serial[10]</text>
<polygon fill="#ffffff" stroke="transparent" points="230,-337.2 230,-359.2 401,-359.2 401,-337.2 230,-337.2"/>
<polygon fill="none" stroke="#000000" points="230,-337.2 230,-359.2 401,-359.2 401,-337.2 230,-337.2"/>
<text text-anchor="start" x="250" y="-344.3" font-family="Helvetica,sans-Serif" font-size="11.00" fill="#000000">geom</text>
<polygon fill="none" stroke="#000000" points="401,-337.2 401,-359.2 520,-359.2 520,-337.2 401,-337.2"/>
<text text-anchor="start" x="403.9485" y="-344.9" font-family="Helvetica,sans-Serif" font-size="11.00" fill="#000000">geometry[2147483647]</text>
<polygon fill="none" stroke="#000000" points="230,-315.2 230,-337.2 401,-337.2 401,-315.2 230,-315.2"/>
<image xlink:href="../../images/primaryKeys.png" width="11px" height="12px" preserveAspectRatio="xMinYMin meet" x="235" y="-332.2"/>
<text text-anchor="start" x="250" y="-322.3" font-family="Helvetica,sans-Serif" font-size="11.00" fill="#000000">OBSID1</text>
<polygon fill="none" stroke="#000000" points="401,-315.2 401,-337.2 520,-337.2 520,-315.2 401,-315.2"/>
<text text-anchor="start" x="404" y="-322.9" font-family="Helvetica,sans-Serif" font-size="11.00" fill="#000000">text[2147483647]</text>
<polygon fill="none" stroke="#000000" points="230,-293.2 230,-315.2 401,-315.2 401,-293.2 230,-293.2"/>
<text text-anchor="start" x="250" y="-300.3" font-family="Helvetica,sans-Serif" font-size="11.00" fill="#000000">OBSID2</text>
<polygon fill="none" stroke="#000000" points="401,-293.2 401,-315.2 520,-315.2 520,-293.2 401,-293.2"/>
<text text-anchor="start" x="404" y="-300.9" font-family="Helvetica,sans-Serif" font-size="11.00" fill="#000000">text[2147483647]</text>
<polygon fill="none" stroke="#000000" points="230,-271.2 230,-293.2 401,-293.2 401,-271.2 230,-271.2"/>
<image xlink:href="../../images/foreignKeys.png" width="11px" height="12px" preserveAspectRatio="xMinYMin meet" x="235" y="-288.2"/>
<text text-anchor="start" x="250" y="-278.3" font-family="Helvetica,sans-Serif" font-size="11.00" fill="#000000">STUDYID</text>
<polygon fill="none" stroke="#000000" points="401,-271.2 401,-293.2 520,-293.2 520,-271.2 401,-271.2"/>
<text text-anchor="start" x="404" y="-278.9" font-family="Helvetica,sans-Serif" font-size="11.00" fill="#000000">varchar[5]</text>
<polygon fill="none" stroke="#000000" points="230,-249.2 230,-271.2 401,-271.2 401,-249.2 230,-249.2"/>
<text text-anchor="start" x="250" y="-256.3" font-family="Helvetica,sans-Serif" font-size="11.00" fill="#000000">CRN_SUBCMP</text>
<polygon fill="none" stroke="#000000" points="401,-249.2 401,-271.2 520,-271.2 520,-249.2 401,-249.2"/>
<text text-anchor="start" x="404" y="-256.9" font-family="Helvetica,sans-Serif" font-size="11.00" fill="#000000">varchar[3]</text>
<polygon fill="none" stroke="#000000" points="230,-227.2 230,-249.2 401,-249.2 401,-227.2 230,-227.2"/>
<text text-anchor="start" x="250" y="-234.3" font-family="Helvetica,sans-Serif" font-size="11.00" fill="#000000">CREATED_AT</text>
<polygon fill="none" stroke="#000000" points="401,-227.2 401,-249.2 520,-249.2 520,-227.2 401,-227.2"/>
<text text-anchor="start" x="404" y="-234.9" font-family="Helvetica,sans-Serif" font-size="11.00" fill="#000000">timestamptz[35,6]</text>
<polygon fill="none" stroke="#000000" points="230,-205.2 230,-227.2 401,-227.2 401,-205.2 230,-205.2"/>
<text text-anchor="start" x="250" y="-212.3" font-family="Helvetica,sans-Serif" font-size="11.00" fill="#000000">UPDATED_AT</text>
<polygon fill="none" stroke="#000000" points="401,-205.2 401,-227.2 520,-227.2 520,-205.2 401,-205.2"/>
<text text-anchor="start" x="404" y="-212.9" font-family="Helvetica,sans-Serif" font-size="11.00" fill="#000000">timestamptz[35,6]</text>
<polygon fill="#ffffff" stroke="transparent" points="230,-186.2 230,-205.2 296,-205.2 296,-186.2 230,-186.2"/>
<polygon fill="none" stroke="#000000" points="230,-186.2 230,-205.2 296,-205.2 296,-186.2 230,-186.2"/>
<text text-anchor="start" x="233" y="-192.3" font-family="Helvetica,sans-Serif" font-size="11.00" fill="#000000">&lt; 3</text>
<polygon fill="#ffffff" stroke="transparent" points="296,-186.2 296,-205.2 401,-205.2 401,-186.2 296,-186.2"/>
<polygon fill="none" stroke="#000000" points="296,-186.2 296,-205.2 401,-205.2 401,-186.2 296,-186.2"/>
<text text-anchor="start" x="344.2089" y="-192.3" font-family="Helvetica,sans-Serif" font-size="11.00" fill="#000000">4,631 rows</text>
<polygon fill="#ffffff" stroke="transparent" points="401,-186.2 401,-205.2 520,-205.2 520,-186.2 401,-186.2"/>
<polygon fill="none" stroke="#000000" points="401,-186.2 401,-205.2 520,-205.2 520,-186.2 401,-186.2"/>
<text text-anchor="start" x="501.4053" y="-192.3" font-family="Helvetica,sans-Serif" font-size="11.00" fill="#000000">0 &gt;</text>
<polygon fill="none" stroke="#000000" stroke-width="2" points="229,-185.2 229,-405.2 521,-405.2 521,-185.2 229,-185.2"/>
</a>
</g>
</g>
<!-- crn_al_DataCore -->
<g id="node2" class="node">
<title>crn_al_DataCore</title>
<g id="a_node2"><a xlink:href="../../tables/crn_al_DataCore.html" xlink:title="crn_al_DataCore" target="_top">
<polygon fill="#ffffff" stroke="transparent" points="30.5,-381.7 30.5,-574.7 156.5,-574.7 156.5,-381.7 30.5,-381.7"/>
<polygon fill="#f5f5f5" stroke="transparent" points="30.5,-551.2 30.5,-574.2 156.5,-574.2 156.5,-551.2 30.5,-551.2"/>
<polygon fill="none" stroke="#000000" points="30.5,-551.2 30.5,-574.2 156.5,-574.2 156.5,-551.2 30.5,-551.2"/>
<text text-anchor="start" x="35.4387" y="-560.3" font-family="Helvetica,sans-Serif" font-weight="bold" font-size="11.00" fill="#000000">crn_al_DataCore</text>
<text text-anchor="start" x="122.0219" y="-559.3" font-family="Helvetica,sans-Serif" font-size="11.00" fill="#000000">[table]</text>
<polygon fill="none" stroke="#000000" points="30.5,-529.2 30.5,-551.2 156.5,-551.2 156.5,-529.2 30.5,-529.2"/>
<image xlink:href="../../images/primaryKeys.png" width="11px" height="12px" preserveAspectRatio="xMinYMin meet" x="35.5" y="-546.2"/>
<text text-anchor="start" x="55.5" y="-536.3" font-family="Helvetica,sans-Serif" font-size="11.00" fill="#000000">OBSID1</text>
<polygon fill="none" stroke="#000000" points="30.5,-507.2 30.5,-529.2 156.5,-529.2 156.5,-507.2 30.5,-507.2"/>
<image xlink:href="../../images/foreignKeys.png" width="11px" height="12px" preserveAspectRatio="xMinYMin meet" x="35.5" y="-524.2"/>
<text text-anchor="start" x="55.5" y="-514.3" font-family="Helvetica,sans-Serif" font-size="11.00" fill="#000000">SMPID</text>
<polygon fill="none" stroke="#000000" points="30.5,-485.2 30.5,-507.2 156.5,-507.2 156.5,-485.2 30.5,-485.2"/>
<image xlink:href="../../images/foreignKeys.png" width="11px" height="12px" preserveAspectRatio="xMinYMin meet" x="35.5" y="-502.2"/>
<text text-anchor="start" x="55.5" y="-492.3" font-family="Helvetica,sans-Serif" font-size="11.00" fill="#000000">DBDOI</text>
<polygon fill="none" stroke="#000000" points="30.5,-463.2 30.5,-485.2 156.5,-485.2 156.5,-463.2 30.5,-463.2"/>
<image xlink:href="../../images/foreignKeys.png" width="11px" height="12px" preserveAspectRatio="xMinYMin meet" x="35.5" y="-480.2"/>
<text text-anchor="start" x="55.5" y="-470.3" font-family="Helvetica,sans-Serif" font-size="11.00" fill="#000000">REFDBID1</text>
<polygon fill="none" stroke="#000000" points="30.5,-441.2 30.5,-463.2 156.5,-463.2 156.5,-441.2 30.5,-441.2"/>
<image xlink:href="../../images/foreignKeys.png" width="11px" height="12px" preserveAspectRatio="xMinYMin meet" x="35.5" y="-458.2"/>
<text text-anchor="start" x="55.5" y="-448.3" font-family="Helvetica,sans-Serif" font-size="11.00" fill="#000000">ALSTNDID</text>
<polygon fill="none" stroke="#000000" points="30.5,-419.2 30.5,-441.2 156.5,-441.2 156.5,-419.2 30.5,-419.2"/>
<image xlink:href="../../images/foreignKeys.png" width="11px" height="12px" preserveAspectRatio="xMinYMin meet" x="35.5" y="-436.2"/>
<text text-anchor="start" x="55.5" y="-426.3" font-family="Helvetica,sans-Serif" font-size="11.00" fill="#000000">ALAMSID</text>
<polygon fill="none" stroke="#000000" points="30.5,-400.2 30.5,-419.2 156.5,-419.2 156.5,-400.2 30.5,-400.2"/>
<text text-anchor="start" x="33.5" y="-406.3" font-family="Helvetica,sans-Serif" font-size="11.00" fill="#000000">...</text>
<polygon fill="#ffffff" stroke="transparent" points="30.5,-381.2 30.5,-400.2 63.5,-400.2 63.5,-381.2 30.5,-381.2"/>
<polygon fill="none" stroke="#000000" points="30.5,-381.2 30.5,-400.2 63.5,-400.2 63.5,-381.2 30.5,-381.2"/>
<text text-anchor="start" x="33.5" y="-387.3" font-family="Helvetica,sans-Serif" font-size="11.00" fill="#000000">&lt; 5</text>
<polygon fill="#ffffff" stroke="transparent" points="63.5,-381.2 63.5,-400.2 128.5,-400.2 128.5,-381.2 63.5,-381.2"/>
<polygon fill="none" stroke="#000000" points="63.5,-381.2 63.5,-400.2 128.5,-400.2 128.5,-381.2 63.5,-381.2"/>
<text text-anchor="start" x="71.7089" y="-387.3" font-family="Helvetica,sans-Serif" font-size="11.00" fill="#000000">4,631 rows</text>
<polygon fill="#ffffff" stroke="transparent" points="128.5,-381.2 128.5,-400.2 156.5,-400.2 156.5,-381.2 128.5,-381.2"/>
<polygon fill="none" stroke="#000000" points="128.5,-381.2 128.5,-400.2 156.5,-400.2 156.5,-381.2 128.5,-381.2"/>
<text text-anchor="start" x="137.9053" y="-387.3" font-family="Helvetica,sans-Serif" font-size="11.00" fill="#000000">2 &gt;</text>
</a>
</g>
</g>
<!-- crn_v3_basins_EPSG3857&#45;&gt;crn_al_DataCore -->
<g id="edge1" class="edge">
<title>crn_v3_basins_EPSG3857:w&#45;&gt;crn_al_DataCore:e</title>
<path fill="none" stroke="#000000" d="M219.2325,-327.1541C139.0583,-342.5922 253.1363,-540.2 156.5,-540.2"/>
<polygon fill="#000000" stroke="#000000" points="228.85,-322.2862 229.5562,-330.255 227.9625,-330.3962 227.2563,-322.4275 228.85,-322.2862"/>
<polyline fill="none" stroke="#000000" points="230,-326.2 226.0156,-326.5531 "/>
<ellipse fill="none" stroke="#000000" cx="222.8281" cy="-326.8356" rx="3.2" ry="3.2"/>
</g>
<!-- crn_be_DataCore -->
<g id="node3" class="node">
<title>crn_be_DataCore</title>
<g id="a_node3"><a xlink:href="../../tables/crn_be_DataCore.html" xlink:title="crn_be_DataCore" target="_top">
<polygon fill="#ffffff" stroke="transparent" points="29,-167.7 29,-360.7 158,-360.7 158,-167.7 29,-167.7"/>
<polygon fill="#f5f5f5" stroke="transparent" points="29.5,-337.2 29.5,-360.2 158.5,-360.2 158.5,-337.2 29.5,-337.2"/>
<polygon fill="none" stroke="#000000" points="29.5,-337.2 29.5,-360.2 158.5,-360.2 158.5,-337.2 29.5,-337.2"/>
<text text-anchor="start" x="34.1017" y="-346.3" font-family="Helvetica,sans-Serif" font-weight="bold" font-size="11.00" fill="#000000">crn_be_DataCore</text>
<text text-anchor="start" x="124.0219" y="-345.3" font-family="Helvetica,sans-Serif" font-size="11.00" fill="#000000">[table]</text>
<polygon fill="none" stroke="#000000" points="29.5,-315.2 29.5,-337.2 158.5,-337.2 158.5,-315.2 29.5,-315.2"/>
<image xlink:href="../../images/primaryKeys.png" width="11px" height="12px" preserveAspectRatio="xMinYMin meet" x="34.5" y="-332.2"/>
<text text-anchor="start" x="54.5" y="-322.3" font-family="Helvetica,sans-Serif" font-size="11.00" fill="#000000">OBSID1</text>
<polygon fill="none" stroke="#000000" points="29.5,-293.2 29.5,-315.2 158.5,-315.2 158.5,-293.2 29.5,-293.2"/>
<image xlink:href="../../images/foreignKeys.png" width="11px" height="12px" preserveAspectRatio="xMinYMin meet" x="34.5" y="-310.2"/>
<text text-anchor="start" x="54.5" y="-300.3" font-family="Helvetica,sans-Serif" font-size="11.00" fill="#000000">SMPID</text>
<polygon fill="none" stroke="#000000" points="29.5,-271.2 29.5,-293.2 158.5,-293.2 158.5,-271.2 29.5,-271.2"/>
<image xlink:href="../../images/foreignKeys.png" width="11px" height="12px" preserveAspectRatio="xMinYMin meet" x="34.5" y="-288.2"/>
<text text-anchor="start" x="54.5" y="-278.3" font-family="Helvetica,sans-Serif" font-size="11.00" fill="#000000">DBDOI</text>
<polygon fill="none" stroke="#000000" points="29.5,-249.2 29.5,-271.2 158.5,-271.2 158.5,-249.2 29.5,-249.2"/>
<image xlink:href="../../images/foreignKeys.png" width="11px" height="12px" preserveAspectRatio="xMinYMin meet" x="34.5" y="-266.2"/>
<text text-anchor="start" x="54.5" y="-256.3" font-family="Helvetica,sans-Serif" font-size="11.00" fill="#000000">REFDBID1</text>
<polygon fill="none" stroke="#000000" points="29.5,-227.2 29.5,-249.2 158.5,-249.2 158.5,-227.2 29.5,-227.2"/>
<image xlink:href="../../images/foreignKeys.png" width="11px" height="12px" preserveAspectRatio="xMinYMin meet" x="34.5" y="-244.2"/>
<text text-anchor="start" x="54.5" y="-234.3" font-family="Helvetica,sans-Serif" font-size="11.00" fill="#000000">BESTNDID</text>
<polygon fill="none" stroke="#000000" points="29.5,-205.2 29.5,-227.2 158.5,-227.2 158.5,-205.2 29.5,-205.2"/>
<image xlink:href="../../images/foreignKeys.png" width="11px" height="12px" preserveAspectRatio="xMinYMin meet" x="34.5" y="-222.2"/>
<text text-anchor="start" x="54.5" y="-212.3" font-family="Helvetica,sans-Serif" font-size="11.00" fill="#000000">BEAMSID</text>
<polygon fill="none" stroke="#000000" points="29.5,-186.2 29.5,-205.2 158.5,-205.2 158.5,-186.2 29.5,-186.2"/>
<text text-anchor="start" x="32.5" y="-192.3" font-family="Helvetica,sans-Serif" font-size="11.00" fill="#000000">...</text>
<polygon fill="#ffffff" stroke="transparent" points="29.5,-167.2 29.5,-186.2 64.5,-186.2 64.5,-167.2 29.5,-167.2"/>
<polygon fill="none" stroke="#000000" points="29.5,-167.2 29.5,-186.2 64.5,-186.2 64.5,-167.2 29.5,-167.2"/>
<text text-anchor="start" x="32.5" y="-173.3" font-family="Helvetica,sans-Serif" font-size="11.00" fill="#000000">&lt; 5</text>
<polygon fill="#ffffff" stroke="transparent" points="64.5,-167.2 64.5,-186.2 130.5,-186.2 130.5,-167.2 64.5,-167.2"/>
<polygon fill="none" stroke="#000000" points="64.5,-167.2 64.5,-186.2 130.5,-186.2 130.5,-167.2 64.5,-167.2"/>
<text text-anchor="start" x="73.7089" y="-173.3" font-family="Helvetica,sans-Serif" font-size="11.00" fill="#000000">4,631 rows</text>
<polygon fill="#ffffff" stroke="transparent" points="130.5,-167.2 130.5,-186.2 158.5,-186.2 158.5,-167.2 130.5,-167.2"/>
<polygon fill="none" stroke="#000000" points="130.5,-167.2 130.5,-186.2 158.5,-186.2 158.5,-167.2 130.5,-167.2"/>
<text text-anchor="start" x="139.9053" y="-173.3" font-family="Helvetica,sans-Serif" font-size="11.00" fill="#000000">2 &gt;</text>
</a>
</g>
</g>
<!-- crn_v3_basins_EPSG3857&#45;&gt;crn_be_DataCore -->
<g id="edge2" class="edge">
<title>crn_v3_basins_EPSG3857:w&#45;&gt;crn_be_DataCore:e</title>
<path fill="none" stroke="#000000" d="M219.4195,-326.2C195.9487,-326.2 186.4297,-326.2 158.5,-326.2"/>
<polygon fill="#000000" stroke="#000000" points="229.2,-322.2 229.2,-330.2 227.6,-330.2 227.6,-322.2 229.2,-322.2"/>
<polyline fill="none" stroke="#000000" points="230,-326.2 226,-326.2 "/>
<ellipse fill="none" stroke="#000000" cx="222.8" cy="-326.2001" rx="3.2" ry="3.2"/>
</g>
<!-- crn_studies_boundingbox -->
<g id="node4" class="node">
<title>crn_studies_boundingbox</title>
<g id="a_node4"><a xlink:href="../../tables/crn_studies_boundingbox.html" xlink:title="crn_studies_boundingbox" target="_top">
<polygon fill="#ffffff" stroke="transparent" points="8,-38.2 8,-146.2 179,-146.2 179,-38.2 8,-38.2"/>
<polygon fill="#f5f5f5" stroke="transparent" points="8.5,-123.2 8.5,-146.2 179.5,-146.2 179.5,-123.2 8.5,-123.2"/>
<polygon fill="none" stroke="#000000" points="8.5,-123.2 8.5,-146.2 179.5,-146.2 179.5,-123.2 8.5,-123.2"/>
<text text-anchor="start" x="13.5" y="-132.3" font-family="Helvetica,sans-Serif" font-weight="bold" font-size="11.00" fill="#000000">crn_studies_boundingbox</text>
<text text-anchor="start" x="144.5437" y="-131.3" font-family="Helvetica,sans-Serif" font-size="11.00" fill="#000000">[table]</text>
<polygon fill="none" stroke="#000000" points="8.5,-101.2 8.5,-123.2 179.5,-123.2 179.5,-101.2 8.5,-101.2"/>
<image xlink:href="../../images/primaryKeys.png" width="11px" height="12px" preserveAspectRatio="xMinYMin meet" x="13.5" y="-118.2"/>
<text text-anchor="start" x="28.5" y="-108.3" font-family="Helvetica,sans-Serif" font-size="11.00" fill="#000000">id</text>
<polygon fill="#ffffff" stroke="transparent" points="8.5,-79.2 8.5,-101.2 179.5,-101.2 179.5,-79.2 8.5,-79.2"/>
<polygon fill="none" stroke="#000000" points="8.5,-79.2 8.5,-101.2 179.5,-101.2 179.5,-79.2 8.5,-79.2"/>
<text text-anchor="start" x="28.5" y="-86.3" font-family="Helvetica,sans-Serif" font-size="11.00" fill="#000000">geom</text>
<polygon fill="none" stroke="#000000" points="8.5,-57.2 8.5,-79.2 179.5,-79.2 179.5,-57.2 8.5,-57.2"/>
<image xlink:href="../../images/primaryKeys.png" width="11px" height="12px" preserveAspectRatio="xMinYMin meet" x="13.5" y="-74.2"/>
<text text-anchor="start" x="28.5" y="-64.3" font-family="Helvetica,sans-Serif" font-size="11.00" fill="#000000">STUDYID</text>
<polygon fill="#ffffff" stroke="transparent" points="8.5,-38.2 8.5,-57.2 64.5,-57.2 64.5,-38.2 8.5,-38.2"/>
<polygon fill="none" stroke="#000000" points="8.5,-38.2 8.5,-57.2 64.5,-57.2 64.5,-38.2 8.5,-38.2"/>
<text text-anchor="start" x="11.5" y="-44.3" font-family="Helvetica,sans-Serif" font-size="11.00" fill="#000000"> &#160;</text>
<polygon fill="#ffffff" stroke="transparent" points="64.5,-38.2 64.5,-57.2 136.5,-57.2 136.5,-38.2 64.5,-38.2"/>
<polygon fill="none" stroke="#000000" points="64.5,-38.2 64.5,-57.2 136.5,-57.2 136.5,-38.2 64.5,-38.2"/>
<text text-anchor="start" x="88.8807" y="-44.3" font-family="Helvetica,sans-Serif" font-size="11.00" fill="#000000">233 rows</text>
<polygon fill="#ffffff" stroke="transparent" points="136.5,-38.2 136.5,-57.2 179.5,-57.2 179.5,-38.2 136.5,-38.2"/>
<polygon fill="none" stroke="#000000" points="136.5,-38.2 136.5,-57.2 179.5,-57.2 179.5,-38.2 136.5,-38.2"/>
<text text-anchor="start" x="160.9053" y="-44.3" font-family="Helvetica,sans-Serif" font-size="11.00" fill="#000000">2 &gt;</text>
</a>
</g>
</g>
<!-- crn_v3_basins_EPSG3857&#45;&gt;crn_studies_boundingbox -->
<g id="edge3" class="edge">
<title>crn_v3_basins_EPSG3857:w&#45;&gt;crn_studies_boundingbox:e</title>
<path fill="none" stroke="#000000" d="M215.642,-280.2181C147.9178,-258.6444 271.6884,-68.2 179.5,-68.2"/>
<polygon fill="#000000" stroke="#000000" points="222.0751,-281.1061 229.5077,-285.7662 226.0376,-281.653 230,-282.2 230,-282.2 230,-282.2 226.0376,-281.653 230.4923,-278.6338 222.0751,-281.1061 222.0751,-281.1061"/>
<ellipse fill="none" stroke="#000000" cx="218.9052" cy="-280.6685" rx="3.2" ry="3.2"/>
</g>
</g>
</svg>
