<?xml version="1.0" encoding="UTF-8" standalone="no"?>
<!DOCTYPE svg PUBLIC "-//W3C//DTD SVG 1.1//EN"
 "http://www.w3.org/Graphics/SVG/1.1/DTD/svg11.dtd">
<!-- Generated by graphviz version 2.40.1 (20161225.0304)
 -->
<!-- Title: twoDegreesRelationshipsDiagramImplied Pages: 1 -->
<svg width="426pt" height="863pt"
 viewBox="0.00 0.00 426.00 862.70" xmlns="http://www.w3.org/2000/svg" xmlns:xlink="http://www.w3.org/1999/xlink">
<g id="graph0" class="graph" transform="scale(1 1) rotate(0) translate(4 858.7)">
<title>twoDegreesRelationshipsDiagramImplied</title>
<polygon fill="#ffffff" stroke="transparent" points="-4,4 -4,-858.7 422,-858.7 422,4 -4,4"/>
<text text-anchor="middle" x="72.4936" y="-7.3" font-family="Helvetica,sans-Serif" font-size="11.00" fill="#000000">Generated by SchemaSpy</text>
<!-- crn_aus_basins -->
<g id="node1" class="node">
<title>crn_aus_basins</title>
<g id="a_node1"><a xlink:href="../../tables/crn_aus_basins.html" xlink:title="crn_aus_basins" target="_top">
<polygon fill="#ffffff" stroke="transparent" points="229.5,-789.7 229.5,-850.7 358.5,-850.7 358.5,-789.7 229.5,-789.7"/>
<polygon fill="#f5f5f5" stroke="transparent" points="230,-827.2 230,-850.2 359,-850.2 359,-827.2 230,-827.2"/>
<polygon fill="none" stroke="#000000" points="230,-827.2 230,-850.2 359,-850.2 359,-827.2 230,-827.2"/>
<text text-anchor="start" x="235" y="-835.8" font-family="Helvetica,sans-Serif" font-weight="bold" font-size="11.00" fill="#000000">crn_aus_basins</text>
<text text-anchor="start" x="324.5219" y="-835.3" font-family="Helvetica,sans-Serif" font-size="11.00" fill="#000000">[table]</text>
<polygon fill="none" stroke="#000000" points="230,-808.2 230,-827.2 359,-827.2 359,-808.2 230,-808.2"/>
<text text-anchor="start" x="233" y="-814.3" font-family="Helvetica,sans-Serif" font-size="11.00" fill="#000000">...</text>
<polygon fill="#ffffff" stroke="transparent" points="230,-789.2 230,-808.2 274,-808.2 274,-789.2 230,-789.2"/>
<polygon fill="none" stroke="#000000" points="230,-789.2 230,-808.2 274,-808.2 274,-789.2 230,-789.2"/>
<text text-anchor="start" x="233" y="-795.3" font-family="Helvetica,sans-Serif" font-size="11.00" fill="#000000">&lt; 4</text>
<polygon fill="#ffffff" stroke="transparent" points="274,-789.2 274,-808.2 335,-808.2 335,-789.2 274,-789.2"/>
<polygon fill="none" stroke="#000000" points="274,-789.2 274,-808.2 335,-808.2 335,-789.2 274,-789.2"/>
<text text-anchor="start" x="287.3807" y="-795.3" font-family="Helvetica,sans-Serif" font-size="11.00" fill="#000000">297 rows</text>
<polygon fill="#ffffff" stroke="transparent" points="335,-789.2 335,-808.2 359,-808.2 359,-789.2 335,-789.2"/>
<polygon fill="none" stroke="#000000" points="335,-789.2 335,-808.2 359,-808.2 359,-789.2 335,-789.2"/>
<text text-anchor="start" x="349.8862" y="-795.3" font-family="Helvetica,sans-Serif" font-size="11.00" fill="#000000"> &#160;</text>
</a>
</g>
</g>
<!-- crn_studynote -->
<g id="node2" class="node">
<title>crn_studynote</title>
<g id="a_node2"><a xlink:href="../../tables/crn_studynote.html" xlink:title="crn_studynote" target="_top">
<polygon fill="#ffffff" stroke="transparent" points="8,-440.7 8,-523.7 129,-523.7 129,-440.7 8,-440.7"/>
<polygon fill="#f5f5f5" stroke="transparent" points="8.5,-500.2 8.5,-523.2 129.5,-523.2 129.5,-500.2 8.5,-500.2"/>
<polygon fill="none" stroke="#000000" points="8.5,-500.2 8.5,-523.2 129.5,-523.2 129.5,-500.2 8.5,-500.2"/>
<text text-anchor="start" x="13.5" y="-508.8" font-family="Helvetica,sans-Serif" font-weight="bold" font-size="11.00" fill="#000000">crn_studynote</text>
<text text-anchor="start" x="95.0219" y="-508.3" font-family="Helvetica,sans-Serif" font-size="11.00" fill="#000000">[table]</text>
<polygon fill="none" stroke="#000000" points="8.5,-478.2 8.5,-500.2 129.5,-500.2 129.5,-478.2 8.5,-478.2"/>
<image xlink:href="../../images/primaryKeys.png" width="11px" height="12px" preserveAspectRatio="xMinYMin meet" x="13.5" y="-495.2"/>
<text text-anchor="start" x="37.5" y="-485.3" font-family="Helvetica,sans-Serif" font-size="11.00" fill="#000000">STUDYID</text>
<polygon fill="none" stroke="#000000" points="8.5,-459.2 8.5,-478.2 129.5,-478.2 129.5,-459.2 8.5,-459.2"/>
<text text-anchor="start" x="11.5" y="-465.3" font-family="Helvetica,sans-Serif" font-size="11.00" fill="#000000">...</text>
<polygon fill="#ffffff" stroke="transparent" points="8.5,-440.2 8.5,-459.2 39.5,-459.2 39.5,-440.2 8.5,-440.2"/>
<polygon fill="none" stroke="#000000" points="8.5,-440.2 8.5,-459.2 39.5,-459.2 39.5,-440.2 8.5,-440.2"/>
<text text-anchor="start" x="11.5" y="-446.3" font-family="Helvetica,sans-Serif" font-size="11.00" fill="#000000"> &#160;</text>
<polygon fill="#ffffff" stroke="transparent" points="39.5,-440.2 39.5,-459.2 98.5,-459.2 98.5,-440.2 39.5,-440.2"/>
<polygon fill="none" stroke="#000000" points="39.5,-440.2 39.5,-459.2 98.5,-459.2 98.5,-440.2 39.5,-440.2"/>
<text text-anchor="start" x="50.8807" y="-446.3" font-family="Helvetica,sans-Serif" font-size="11.00" fill="#000000">301 rows</text>
<polygon fill="#ffffff" stroke="transparent" points="98.5,-440.2 98.5,-459.2 129.5,-459.2 129.5,-440.2 98.5,-440.2"/>
<polygon fill="none" stroke="#000000" points="98.5,-440.2 98.5,-459.2 129.5,-459.2 129.5,-440.2 98.5,-440.2"/>
<text text-anchor="start" x="110.9053" y="-446.3" font-family="Helvetica,sans-Serif" font-size="11.00" fill="#000000">9 &gt;</text>
</a>
</g>
</g>
<!-- crn_aus_basins&#45;&gt;crn_studynote -->
<g id="edge1" class="edge">
<title>crn_aus_basins:w&#45;&gt;crn_studynote:e</title>
<path fill="none" stroke="#000000" stroke-dasharray="5,2" d="M215.3851,-816.1654C194.3682,-812.8129 184.1606,-801.1718 170,-779.2 134.7498,-724.5053 194.5699,-489.2 129.5,-489.2"/>
<polygon fill="#000000" stroke="#000000" points="222.02,-816.635 229.7458,-820.791 226.01,-816.9175 230,-817.2 230,-817.2 230,-817.2 226.01,-816.9175 230.2542,-813.609 222.02,-816.635 222.02,-816.635"/>
<ellipse fill="none" stroke="#000000" cx="218.828" cy="-816.4091" rx="3.2" ry="3.2"/>
</g>
<!-- crn_aus_outlets -->
<g id="node3" class="node">
<title>crn_aus_outlets</title>
<g id="a_node3"><a xlink:href="../../tables/crn_aus_outlets.html" xlink:title="crn_aus_outlets" target="_top">
<polygon fill="#ffffff" stroke="transparent" points="228.5,-707.7 228.5,-768.7 359.5,-768.7 359.5,-707.7 228.5,-707.7"/>
<polygon fill="#f5f5f5" stroke="transparent" points="229,-745.2 229,-768.2 360,-768.2 360,-745.2 229,-745.2"/>
<polygon fill="none" stroke="#000000" points="229,-745.2 229,-768.2 360,-768.2 360,-745.2 229,-745.2"/>
<text text-anchor="start" x="234" y="-753.8" font-family="Helvetica,sans-Serif" font-weight="bold" font-size="11.00" fill="#000000">crn_aus_outlets</text>
<text text-anchor="start" x="325.5219" y="-753.3" font-family="Helvetica,sans-Serif" font-size="11.00" fill="#000000">[table]</text>
<polygon fill="none" stroke="#000000" points="229,-726.2 229,-745.2 360,-745.2 360,-726.2 229,-726.2"/>
<text text-anchor="start" x="232" y="-732.3" font-family="Helvetica,sans-Serif" font-size="11.00" fill="#000000">...</text>
<polygon fill="#ffffff" stroke="transparent" points="229,-707.2 229,-726.2 274,-726.2 274,-707.2 229,-707.2"/>
<polygon fill="none" stroke="#000000" points="229,-707.2 229,-726.2 274,-726.2 274,-707.2 229,-707.2"/>
<text text-anchor="start" x="232" y="-713.3" font-family="Helvetica,sans-Serif" font-size="11.00" fill="#000000">&lt; 1</text>
<polygon fill="#ffffff" stroke="transparent" points="274,-707.2 274,-726.2 336,-726.2 336,-707.2 274,-707.2"/>
<polygon fill="none" stroke="#000000" points="274,-707.2 274,-726.2 336,-726.2 336,-707.2 274,-707.2"/>
<text text-anchor="start" x="288.3807" y="-713.3" font-family="Helvetica,sans-Serif" font-size="11.00" fill="#000000">297 rows</text>
<polygon fill="#ffffff" stroke="transparent" points="336,-707.2 336,-726.2 360,-726.2 360,-707.2 336,-707.2"/>
<polygon fill="none" stroke="#000000" points="336,-707.2 336,-726.2 360,-726.2 360,-707.2 336,-707.2"/>
<text text-anchor="start" x="350.8862" y="-713.3" font-family="Helvetica,sans-Serif" font-size="11.00" fill="#000000"> &#160;</text>
</a>
</g>
</g>
<!-- crn_aus_outlets&#45;&gt;crn_studynote -->
<g id="edge2" class="edge">
<title>crn_aus_outlets:w&#45;&gt;crn_studynote:e</title>
<path fill="none" stroke="#000000" stroke-dasharray="5,2" d="M214.625,-734.1133C194.0516,-730.6108 184.4874,-718.5841 170,-697.2 143.5878,-658.2142 176.5903,-489.2 129.5,-489.2"/>
<polygon fill="#000000" stroke="#000000" points="221.0228,-734.5969 228.7286,-738.7898 225.0114,-734.8985 229,-735.2 229,-735.2 229,-735.2 225.0114,-734.8985 229.2714,-731.6102 221.0228,-734.5969 221.0228,-734.5969"/>
<ellipse fill="none" stroke="#000000" cx="217.8319" cy="-734.3557" rx="3.2" ry="3.2"/>
</g>
<!-- crn_inprep_basins -->
<g id="node4" class="node">
<title>crn_inprep_basins</title>
<g id="a_node4"><a xlink:href="../../tables/crn_inprep_basins.html" xlink:title="crn_inprep_basins" target="_top">
<polygon fill="#ffffff" stroke="transparent" points="221.5,-625.7 221.5,-686.7 366.5,-686.7 366.5,-625.7 221.5,-625.7"/>
<polygon fill="#f5f5f5" stroke="transparent" points="222,-663.2 222,-686.2 367,-686.2 367,-663.2 222,-663.2"/>
<polygon fill="none" stroke="#000000" points="222,-663.2 222,-686.2 367,-686.2 367,-663.2 222,-663.2"/>
<text text-anchor="start" x="227" y="-671.8" font-family="Helvetica,sans-Serif" font-weight="bold" font-size="11.00" fill="#000000">crn_inprep_basins</text>
<text text-anchor="start" x="332.5219" y="-671.3" font-family="Helvetica,sans-Serif" font-size="11.00" fill="#000000">[table]</text>
<polygon fill="none" stroke="#000000" points="222,-644.2 222,-663.2 367,-663.2 367,-644.2 222,-644.2"/>
<text text-anchor="start" x="225" y="-650.3" font-family="Helvetica,sans-Serif" font-size="11.00" fill="#000000">...</text>
<polygon fill="#ffffff" stroke="transparent" points="222,-625.2 222,-644.2 274,-644.2 274,-625.2 222,-625.2"/>
<polygon fill="none" stroke="#000000" points="222,-625.2 222,-644.2 274,-644.2 274,-625.2 222,-625.2"/>
<text text-anchor="start" x="225" y="-631.3" font-family="Helvetica,sans-Serif" font-size="11.00" fill="#000000">&lt; 2</text>
<polygon fill="#ffffff" stroke="transparent" points="274,-625.2 274,-644.2 339,-644.2 339,-625.2 274,-625.2"/>
<polygon fill="none" stroke="#000000" points="274,-625.2 274,-644.2 339,-644.2 339,-625.2 274,-625.2"/>
<text text-anchor="start" x="291.3807" y="-631.3" font-family="Helvetica,sans-Serif" font-size="11.00" fill="#000000">157 rows</text>
<polygon fill="#ffffff" stroke="transparent" points="339,-625.2 339,-644.2 367,-644.2 367,-625.2 339,-625.2"/>
<polygon fill="none" stroke="#000000" points="339,-625.2 339,-644.2 367,-644.2 367,-625.2 339,-625.2"/>
<text text-anchor="start" x="357.8862" y="-631.3" font-family="Helvetica,sans-Serif" font-size="11.00" fill="#000000"> &#160;</text>
</a>
</g>
</g>
<!-- crn_inprep_basins&#45;&gt;crn_studynote -->
<g id="edge3" class="edge">
<title>crn_inprep_basins:w&#45;&gt;crn_studynote:e</title>
<path fill="none" stroke="#000000" stroke-dasharray="5,2" d="M207.5067,-651.5546C190.4032,-647.1006 183.4836,-633.8747 170,-615.2 135.5665,-567.51 188.3218,-489.2 129.5,-489.2"/>
<polygon fill="#000000" stroke="#000000" points="214.0511,-652.2975 221.5939,-656.777 218.0255,-652.7488 222,-653.2 222,-653.2 222,-653.2 218.0255,-652.7488 222.4061,-649.623 214.0511,-652.2975 214.0511,-652.2975"/>
<ellipse fill="none" stroke="#000000" cx="210.8715" cy="-651.9366" rx="3.2" ry="3.2"/>
</g>
<!-- crn_inprep_outlets -->
<g id="node5" class="node">
<title>crn_inprep_outlets</title>
<g id="a_node5"><a xlink:href="../../tables/crn_inprep_outlets.html" xlink:title="crn_inprep_outlets" target="_top">
<polygon fill="#ffffff" stroke="transparent" points="220.5,-543.7 220.5,-604.7 367.5,-604.7 367.5,-543.7 220.5,-543.7"/>
<polygon fill="#f5f5f5" stroke="transparent" points="221,-581.2 221,-604.2 368,-604.2 368,-581.2 221,-581.2"/>
<polygon fill="none" stroke="#000000" points="221,-581.2 221,-604.2 368,-604.2 368,-581.2 221,-581.2"/>
<text text-anchor="start" x="226" y="-589.8" font-family="Helvetica,sans-Serif" font-weight="bold" font-size="11.00" fill="#000000">crn_inprep_outlets</text>
<text text-anchor="start" x="333.5219" y="-589.3" font-family="Helvetica,sans-Serif" font-size="11.00" fill="#000000">[table]</text>
<polygon fill="none" stroke="#000000" points="221,-562.2 221,-581.2 368,-581.2 368,-562.2 221,-562.2"/>
<text text-anchor="start" x="224" y="-568.3" font-family="Helvetica,sans-Serif" font-size="11.00" fill="#000000">...</text>
<polygon fill="#ffffff" stroke="transparent" points="221,-543.2 221,-562.2 274,-562.2 274,-543.2 221,-543.2"/>
<polygon fill="none" stroke="#000000" points="221,-543.2 221,-562.2 274,-562.2 274,-543.2 221,-543.2"/>
<text text-anchor="start" x="224" y="-549.3" font-family="Helvetica,sans-Serif" font-size="11.00" fill="#000000">&lt; 1</text>
<polygon fill="#ffffff" stroke="transparent" points="274,-543.2 274,-562.2 340,-562.2 340,-543.2 274,-543.2"/>
<polygon fill="none" stroke="#000000" points="274,-543.2 274,-562.2 340,-562.2 340,-543.2 274,-543.2"/>
<text text-anchor="start" x="292.3807" y="-549.3" font-family="Helvetica,sans-Serif" font-size="11.00" fill="#000000">157 rows</text>
<polygon fill="#ffffff" stroke="transparent" points="340,-543.2 340,-562.2 368,-562.2 368,-543.2 340,-543.2"/>
<polygon fill="none" stroke="#000000" points="340,-543.2 340,-562.2 368,-562.2 368,-543.2 340,-543.2"/>
<text text-anchor="start" x="358.8862" y="-549.3" font-family="Helvetica,sans-Serif" font-size="11.00" fill="#000000"> &#160;</text>
</a>
</g>
</g>
<!-- crn_inprep_outlets&#45;&gt;crn_studynote -->
<g id="edge4" class="edge">
<title>crn_inprep_outlets:w&#45;&gt;crn_studynote:e</title>
<path fill="none" stroke="#000000" stroke-dasharray="5,2" d="M206.675,-569.0001C191.2329,-563.4571 186.7313,-548.2812 170,-533.2 150.2578,-515.4049 156.0786,-489.2 129.5,-489.2"/>
<polygon fill="#000000" stroke="#000000" points="213.0927,-569.9856 220.4535,-574.7583 217.0464,-570.5928 221,-571.2 221,-571.2 221,-571.2 217.0464,-570.5928 221.5465,-567.6417 213.0927,-569.9856 213.0927,-569.9856"/>
<ellipse fill="none" stroke="#000000" cx="209.9298" cy="-569.4999" rx="3.2" ry="3.2"/>
</g>
<!-- crn_int_basins -->
<g id="node6" class="node">
<title>crn_int_basins</title>
<g id="a_node6"><a xlink:href="../../tables/crn_int_basins.html" xlink:title="crn_int_basins" target="_top">
<polygon fill="#ffffff" stroke="transparent" points="232.5,-461.7 232.5,-522.7 355.5,-522.7 355.5,-461.7 232.5,-461.7"/>
<polygon fill="#f5f5f5" stroke="transparent" points="233,-499.2 233,-522.2 356,-522.2 356,-499.2 233,-499.2"/>
<polygon fill="none" stroke="#000000" points="233,-499.2 233,-522.2 356,-522.2 356,-499.2 233,-499.2"/>
<text text-anchor="start" x="238" y="-507.8" font-family="Helvetica,sans-Serif" font-weight="bold" font-size="11.00" fill="#000000">crn_int_basins</text>
<text text-anchor="start" x="321.5219" y="-507.3" font-family="Helvetica,sans-Serif" font-size="11.00" fill="#000000">[table]</text>
<polygon fill="none" stroke="#000000" points="233,-480.2 233,-499.2 356,-499.2 356,-480.2 233,-480.2"/>
<text text-anchor="start" x="236" y="-486.3" font-family="Helvetica,sans-Serif" font-size="11.00" fill="#000000">...</text>
<polygon fill="#ffffff" stroke="transparent" points="233,-461.2 233,-480.2 269,-480.2 269,-461.2 233,-461.2"/>
<polygon fill="none" stroke="#000000" points="233,-461.2 233,-480.2 269,-480.2 269,-461.2 233,-461.2"/>
<text text-anchor="start" x="236" y="-467.3" font-family="Helvetica,sans-Serif" font-size="11.00" fill="#000000">&lt; 4</text>
<polygon fill="#ffffff" stroke="transparent" points="269,-461.2 269,-480.2 336,-480.2 336,-461.2 269,-461.2"/>
<polygon fill="none" stroke="#000000" points="269,-461.2 269,-480.2 336,-480.2 336,-461.2 269,-461.2"/>
<text text-anchor="start" x="279.2089" y="-467.3" font-family="Helvetica,sans-Serif" font-size="11.00" fill="#000000">5.376 rows</text>
<polygon fill="#ffffff" stroke="transparent" points="336,-461.2 336,-480.2 356,-480.2 356,-461.2 336,-461.2"/>
<polygon fill="none" stroke="#000000" points="336,-461.2 336,-480.2 356,-480.2 356,-461.2 336,-461.2"/>
<text text-anchor="start" x="346.8862" y="-467.3" font-family="Helvetica,sans-Serif" font-size="11.00" fill="#000000"> &#160;</text>
</a>
</g>
</g>
<!-- crn_int_basins&#45;&gt;crn_studynote -->
<g id="edge5" class="edge">
<title>crn_int_basins:w&#45;&gt;crn_studynote:e</title>
<path fill="none" stroke="#000000" stroke-dasharray="5,2" d="M218.5951,-489.2C183.9518,-489.2 170.2891,-489.2 129.5,-489.2"/>
<polygon fill="#000000" stroke="#000000" points="225,-489.2001 233,-492.8 229,-489.2 233,-489.2 233,-489.2 233,-489.2 229,-489.2 233,-485.6 225,-489.2001 225,-489.2001"/>
<ellipse fill="none" stroke="#000000" cx="221.8" cy="-489.2001" rx="3.2" ry="3.2"/>
</g>
<!-- crn_int_outlets -->
<g id="node7" class="node">
<title>crn_int_outlets</title>
<g id="a_node7"><a xlink:href="../../tables/crn_int_outlets.html" xlink:title="crn_int_outlets" target="_top">
<polygon fill="#ffffff" stroke="transparent" points="231.5,-379.7 231.5,-440.7 356.5,-440.7 356.5,-379.7 231.5,-379.7"/>
<polygon fill="#f5f5f5" stroke="transparent" points="232,-417.2 232,-440.2 357,-440.2 357,-417.2 232,-417.2"/>
<polygon fill="none" stroke="#000000" points="232,-417.2 232,-440.2 357,-440.2 357,-417.2 232,-417.2"/>
<text text-anchor="start" x="237" y="-425.8" font-family="Helvetica,sans-Serif" font-weight="bold" font-size="11.00" fill="#000000">crn_int_outlets</text>
<text text-anchor="start" x="322.5219" y="-425.3" font-family="Helvetica,sans-Serif" font-size="11.00" fill="#000000">[table]</text>
<polygon fill="none" stroke="#000000" points="232,-398.2 232,-417.2 357,-417.2 357,-398.2 232,-398.2"/>
<text text-anchor="start" x="235" y="-404.3" font-family="Helvetica,sans-Serif" font-size="11.00" fill="#000000">...</text>
<polygon fill="#ffffff" stroke="transparent" points="232,-379.2 232,-398.2 269,-398.2 269,-379.2 232,-379.2"/>
<polygon fill="none" stroke="#000000" points="232,-379.2 232,-398.2 269,-398.2 269,-379.2 232,-379.2"/>
<text text-anchor="start" x="235" y="-385.3" font-family="Helvetica,sans-Serif" font-size="11.00" fill="#000000">&lt; 1</text>
<polygon fill="#ffffff" stroke="transparent" points="269,-379.2 269,-398.2 336,-398.2 336,-379.2 269,-379.2"/>
<polygon fill="none" stroke="#000000" points="269,-379.2 269,-398.2 336,-398.2 336,-379.2 269,-379.2"/>
<text text-anchor="start" x="279.2089" y="-385.3" font-family="Helvetica,sans-Serif" font-size="11.00" fill="#000000">5.376 rows</text>
<polygon fill="#ffffff" stroke="transparent" points="336,-379.2 336,-398.2 357,-398.2 357,-379.2 336,-379.2"/>
<polygon fill="none" stroke="#000000" points="336,-379.2 336,-398.2 357,-398.2 357,-379.2 336,-379.2"/>
<text text-anchor="start" x="347.8862" y="-385.3" font-family="Helvetica,sans-Serif" font-size="11.00" fill="#000000"> &#160;</text>
</a>
</g>
</g>
<!-- crn_int_outlets&#45;&gt;crn_studynote -->
<g id="edge6" class="edge">
<title>crn_int_outlets:w&#45;&gt;crn_studynote:e</title>
<path fill="none" stroke="#000000" stroke-dasharray="5,2" d="M217.6855,-408.9207C196.8885,-414.5867 191.8674,-433.3214 170,-451.2 150.8911,-466.8233 154.1827,-489.2 129.5,-489.2"/>
<polygon fill="#000000" stroke="#000000" points="224.0572,-408.1548 232.4297,-410.7743 228.0286,-407.6774 232,-407.2 232,-407.2 232,-407.2 228.0286,-407.6774 231.5703,-403.6257 224.0572,-408.1548 224.0572,-408.1548"/>
<ellipse fill="none" stroke="#000000" cx="220.88" cy="-408.5367" rx="3.2" ry="3.2"/>
</g>
<!-- crn_studies_boundingbox -->
<g id="node8" class="node">
<title>crn_studies_boundingbox</title>
<g id="a_node8"><a xlink:href="../../tables/crn_studies_boundingbox.html" xlink:title="crn_studies_boundingbox" target="_top">
<polygon fill="#ffffff" stroke="transparent" points="199.5,-297.7 199.5,-358.7 388.5,-358.7 388.5,-297.7 199.5,-297.7"/>
<polygon fill="#f5f5f5" stroke="transparent" points="200,-335.2 200,-358.2 389,-358.2 389,-335.2 200,-335.2"/>
<polygon fill="none" stroke="#000000" points="200,-335.2 200,-358.2 389,-358.2 389,-335.2 200,-335.2"/>
<text text-anchor="start" x="205" y="-343.8" font-family="Helvetica,sans-Serif" font-weight="bold" font-size="11.00" fill="#000000">crn_studies_boundingbox</text>
<text text-anchor="start" x="354.5219" y="-343.3" font-family="Helvetica,sans-Serif" font-size="11.00" fill="#000000">[table]</text>
<polygon fill="none" stroke="#000000" points="200,-316.2 200,-335.2 389,-335.2 389,-316.2 200,-316.2"/>
<text text-anchor="start" x="203" y="-322.3" font-family="Helvetica,sans-Serif" font-size="11.00" fill="#000000">...</text>
<polygon fill="#ffffff" stroke="transparent" points="200,-297.2 200,-316.2 269,-316.2 269,-297.2 200,-297.2"/>
<polygon fill="none" stroke="#000000" points="200,-297.2 200,-316.2 269,-316.2 269,-297.2 200,-297.2"/>
<text text-anchor="start" x="203" y="-303.3" font-family="Helvetica,sans-Serif" font-size="11.00" fill="#000000">&lt; 1</text>
<polygon fill="#ffffff" stroke="transparent" points="269,-297.2 269,-316.2 343,-316.2 343,-297.2 269,-297.2"/>
<polygon fill="none" stroke="#000000" points="269,-297.2 269,-316.2 343,-316.2 343,-297.2 269,-297.2"/>
<text text-anchor="start" x="295.3807" y="-303.3" font-family="Helvetica,sans-Serif" font-size="11.00" fill="#000000">301 rows</text>
<polygon fill="#ffffff" stroke="transparent" points="343,-297.2 343,-316.2 389,-316.2 389,-297.2 343,-297.2"/>
<polygon fill="none" stroke="#000000" points="343,-297.2 343,-316.2 389,-316.2 389,-297.2 343,-297.2"/>
<text text-anchor="start" x="370.4053" y="-303.3" font-family="Helvetica,sans-Serif" font-size="11.00" fill="#000000">2 &gt;</text>
</a>
</g>
</g>
<!-- crn_studies_boundingbox&#45;&gt;crn_studynote -->
<g id="edge7" class="edge">
<title>crn_studies_boundingbox:w&#45;&gt;crn_studynote:e</title>
<path fill="none" stroke="#000000" stroke-dasharray="5,2" d="M189.5373,-326.3348C128.8733,-340.8246 204.9644,-489.2 129.5,-489.2"/>
<polygon fill="#000000" stroke="#000000" points="198.7733,-321.3096 199.636,-329.2629 198.0454,-329.4355 197.1826,-321.4821 198.7733,-321.3096"/>
<polyline fill="none" stroke="#000000" points="200,-325.2 196.0233,-325.6314 "/>
<ellipse fill="none" stroke="#000000" cx="192.842" cy="-325.9765" rx="3.2" ry="3.2"/>
</g>
<!-- crn_xxl_basins -->
<g id="node9" class="node">
<title>crn_xxl_basins</title>
<g id="a_node9"><a xlink:href="../../tables/crn_xxl_basins.html" xlink:title="crn_xxl_basins" target="_top">
<polygon fill="#ffffff" stroke="transparent" points="231.5,-215.7 231.5,-276.7 356.5,-276.7 356.5,-215.7 231.5,-215.7"/>
<polygon fill="#f5f5f5" stroke="transparent" points="232,-253.2 232,-276.2 357,-276.2 357,-253.2 232,-253.2"/>
<polygon fill="none" stroke="#000000" points="232,-253.2 232,-276.2 357,-276.2 357,-253.2 232,-253.2"/>
<text text-anchor="start" x="237" y="-261.8" font-family="Helvetica,sans-Serif" font-weight="bold" font-size="11.00" fill="#000000">crn_xxl_basins</text>
<text text-anchor="start" x="322.5219" y="-261.3" font-family="Helvetica,sans-Serif" font-size="11.00" fill="#000000">[table]</text>
<polygon fill="none" stroke="#000000" points="232,-234.2 232,-253.2 357,-253.2 357,-234.2 232,-234.2"/>
<text text-anchor="start" x="235" y="-240.3" font-family="Helvetica,sans-Serif" font-size="11.00" fill="#000000">...</text>
<polygon fill="#ffffff" stroke="transparent" points="232,-215.2 232,-234.2 274,-234.2 274,-215.2 232,-215.2"/>
<polygon fill="none" stroke="#000000" points="232,-215.2 232,-234.2 274,-234.2 274,-215.2 232,-215.2"/>
<text text-anchor="start" x="235" y="-221.3" font-family="Helvetica,sans-Serif" font-size="11.00" fill="#000000">&lt; 3</text>
<polygon fill="#ffffff" stroke="transparent" points="274,-215.2 274,-234.2 334,-234.2 334,-215.2 274,-215.2"/>
<polygon fill="none" stroke="#000000" points="274,-215.2 274,-234.2 334,-234.2 334,-215.2 274,-215.2"/>
<text text-anchor="start" x="286.3807" y="-221.3" font-family="Helvetica,sans-Serif" font-size="11.00" fill="#000000">261 rows</text>
<polygon fill="#ffffff" stroke="transparent" points="334,-215.2 334,-234.2 357,-234.2 357,-215.2 334,-215.2"/>
<polygon fill="none" stroke="#000000" points="334,-215.2 334,-234.2 357,-234.2 357,-215.2 334,-215.2"/>
<text text-anchor="start" x="347.8862" y="-221.3" font-family="Helvetica,sans-Serif" font-size="11.00" fill="#000000"> &#160;</text>
</a>
</g>
</g>
<!-- crn_xxl_basins&#45;&gt;crn_studynote -->
<g id="edge8" class="edge">
<title>crn_xxl_basins:w&#45;&gt;crn_studynote:e</title>
<path fill="none" stroke="#000000" stroke-dasharray="5,2" d="M217.4764,-244.3926C194.8469,-248.5407 185.4505,-263.3969 170,-287.2 120.1474,-364.0034 221.0645,-489.2 129.5,-489.2"/>
<polygon fill="#000000" stroke="#000000" points="224.0268,-243.8548 232.2947,-246.7879 228.0134,-243.5274 232,-243.2 232,-243.2 232,-243.2 228.0134,-243.5274 231.7053,-239.6121 224.0268,-243.8548 224.0268,-243.8548"/>
<ellipse fill="none" stroke="#000000" cx="220.8376" cy="-244.1167" rx="3.2" ry="3.2"/>
</g>
<!-- crn_xxl_outlets -->
<g id="node10" class="node">
<title>crn_xxl_outlets</title>
<g id="a_node10"><a xlink:href="../../tables/crn_xxl_outlets.html" xlink:title="crn_xxl_outlets" target="_top">
<polygon fill="#ffffff" stroke="transparent" points="178,-38.2 178,-194.2 410,-194.2 410,-38.2 178,-38.2"/>
<polygon fill="#f5f5f5" stroke="transparent" points="180,-169.2 180,-192.2 408,-192.2 408,-169.2 180,-169.2"/>
<polygon fill="none" stroke="#000000" points="180,-169.2 180,-192.2 408,-192.2 408,-169.2 180,-169.2"/>
<text text-anchor="start" x="185" y="-177.8" font-family="Helvetica,sans-Serif" font-weight="bold" font-size="11.00" fill="#000000">crn_xxl_outlets</text>
<text text-anchor="start" x="373.0437" y="-177.3" font-family="Helvetica,sans-Serif" font-size="11.00" fill="#000000">[table]</text>
<polygon fill="#ffffff" stroke="transparent" points="180,-147.2 180,-169.2 289,-169.2 289,-147.2 180,-147.2"/>
<polygon fill="none" stroke="#000000" points="180,-147.2 180,-169.2 289,-169.2 289,-147.2 180,-147.2"/>
<text text-anchor="start" x="200" y="-154.3" font-family="Helvetica,sans-Serif" font-size="11.00" fill="#000000">the_geom</text>
<polygon fill="none" stroke="#000000" points="289,-147.2 289,-169.2 408,-169.2 408,-147.2 289,-147.2"/>
<text text-anchor="start" x="291.9485" y="-154.9" font-family="Helvetica,sans-Serif" font-size="11.00" fill="#000000">geometry[2147483647]</text>
<polygon fill="none" stroke="#000000" points="180,-125.2 180,-147.2 289,-147.2 289,-125.2 180,-125.2"/>
<text text-anchor="start" x="200" y="-132.3" font-family="Helvetica,sans-Serif" font-size="11.00" fill="#000000">OBSID1</text>
<polygon fill="none" stroke="#000000" points="289,-125.2 289,-147.2 408,-147.2 408,-125.2 289,-125.2"/>
<text text-anchor="start" x="292" y="-132.9" font-family="Helvetica,sans-Serif" font-size="11.00" fill="#000000">text[2147483647]</text>
<polygon fill="none" stroke="#000000" points="180,-103.2 180,-125.2 289,-125.2 289,-103.2 180,-103.2"/>
<text text-anchor="start" x="200" y="-110.3" font-family="Helvetica,sans-Serif" font-size="11.00" fill="#000000">OBSID2</text>
<polygon fill="none" stroke="#000000" points="289,-103.2 289,-125.2 408,-125.2 408,-103.2 289,-103.2"/>
<text text-anchor="start" x="292" y="-110.9" font-family="Helvetica,sans-Serif" font-size="11.00" fill="#000000">text[2147483647]</text>
<polygon fill="none" stroke="#000000" points="180,-81.2 180,-103.2 289,-103.2 289,-81.2 180,-81.2"/>
<image xlink:href="../../images/foreignKeys.png" width="11px" height="12px" preserveAspectRatio="xMinYMin meet" x="185" y="-98.2"/>
<text text-anchor="start" x="200" y="-88.3" font-family="Helvetica,sans-Serif" font-size="11.00" fill="#000000">STUDYID</text>
<polygon fill="none" stroke="#000000" points="289,-81.2 289,-103.2 408,-103.2 408,-81.2 289,-81.2"/>
<text text-anchor="start" x="292" y="-88.9" font-family="Helvetica,sans-Serif" font-size="11.00" fill="#000000">varchar[5]</text>
<polygon fill="none" stroke="#000000" points="180,-59.2 180,-81.2 289,-81.2 289,-59.2 180,-59.2"/>
<image xlink:href="../../images/primaryKeys.png" width="11px" height="12px" preserveAspectRatio="xMinYMin meet" x="185" y="-76.2"/>
<text text-anchor="start" x="200" y="-66.3" font-family="Helvetica,sans-Serif" font-size="11.00" fill="#000000">id</text>
<polygon fill="none" stroke="#000000" points="289,-59.2 289,-81.2 408,-81.2 408,-59.2 289,-59.2"/>
<text text-anchor="start" x="292" y="-66.9" font-family="Helvetica,sans-Serif" font-size="11.00" fill="#000000">serial[10]</text>
<polygon fill="#ffffff" stroke="transparent" points="180,-40.2 180,-59.2 220,-59.2 220,-40.2 180,-40.2"/>
<polygon fill="none" stroke="#000000" points="180,-40.2 180,-59.2 220,-59.2 220,-40.2 180,-40.2"/>
<text text-anchor="start" x="183" y="-46.3" font-family="Helvetica,sans-Serif" font-size="11.00" fill="#000000">&lt; 1</text>
<polygon fill="#ffffff" stroke="transparent" points="220,-40.2 220,-59.2 289,-59.2 289,-40.2 220,-40.2"/>
<polygon fill="none" stroke="#000000" points="220,-40.2 220,-59.2 289,-59.2 289,-40.2 220,-40.2"/>
<text text-anchor="start" x="241.3807" y="-46.3" font-family="Helvetica,sans-Serif" font-size="11.00" fill="#000000">261 rows</text>
<polygon fill="#ffffff" stroke="transparent" points="289,-40.2 289,-59.2 408,-59.2 408,-40.2 289,-40.2"/>
<polygon fill="none" stroke="#000000" points="289,-40.2 289,-59.2 408,-59.2 408,-40.2 289,-40.2"/>
<text text-anchor="start" x="389.4053" y="-46.3" font-family="Helvetica,sans-Serif" font-size="11.00" fill="#000000">0 &gt;</text>
<polygon fill="none" stroke="#000000" stroke-width="2" points="179,-39.2 179,-193.2 409,-193.2 409,-39.2 179,-39.2"/>
</a>
</g>
</g>
<!-- crn_xxl_outlets&#45;&gt;crn_studynote -->
<g id="edge9" class="edge">
<title>crn_xxl_outlets:w&#45;&gt;crn_studynote:e</title>
<path fill="none" stroke="#000000" stroke-dasharray="5,2" d="M166.1289,-96.3899C105.6972,-138.8188 213.0485,-489.2 129.5,-489.2"/>
<polygon fill="#000000" stroke="#000000" points="172.3417,-94.5133 181.041,-95.6462 176.1709,-93.3566 180,-92.2 180,-92.2 180,-92.2 176.1709,-93.3566 178.959,-88.7538 172.3417,-94.5133 172.3417,-94.5133"/>
<ellipse fill="none" stroke="#000000" cx="169.2784" cy="-95.4386" rx="3.2" ry="3.2"/>
</g>
</g>
</svg>
