<?xml version="1.0" encoding="UTF-8" standalone="no"?>
<!DOCTYPE svg PUBLIC "-//W3C//DTD SVG 1.1//EN"
 "http://www.w3.org/Graphics/SVG/1.1/DTD/svg11.dtd">
<!-- Generated by graphviz version 2.40.1 (20161225.0304)
 -->
<!-- Title: twoDegreesRelationshipsDiagram Pages: 1 -->
<svg width="542pt" height="369pt"
 viewBox="0.00 0.00 542.00 369.20" xmlns="http://www.w3.org/2000/svg" xmlns:xlink="http://www.w3.org/1999/xlink">
<g id="graph0" class="graph" transform="scale(1 1) rotate(0) translate(4 365.2)">
<title>twoDegreesRelationshipsDiagram</title>
<polygon fill="#ffffff" stroke="transparent" points="-4,4 -4,-365.2 538,-365.2 538,4 -4,4"/>
<text text-anchor="middle" x="72.4936" y="-7.3" font-family="Helvetica,sans-Serif" font-size="11.00" fill="#000000">Generated by SchemaSpy</text>
<!-- crn_v3_basins_EPSG3857 -->
<g id="node1" class="node">
<title>crn_v3_basins_EPSG3857</title>
<g id="a_node1"><a xlink:href="../../tables/crn_v3_basins_EPSG3857.html" xlink:title="crn_v3_basins_EPSG3857" target="_top">
<polygon fill="#ffffff" stroke="transparent" points="351,-208.2 351,-357.2 526,-357.2 526,-208.2 351,-208.2"/>
<polygon fill="#f5f5f5" stroke="transparent" points="351.5,-333.7 351.5,-356.7 526.5,-356.7 526.5,-333.7 351.5,-333.7"/>
<polygon fill="none" stroke="#000000" points="351.5,-333.7 351.5,-356.7 526.5,-356.7 526.5,-333.7 351.5,-333.7"/>
<text text-anchor="start" x="356.4769" y="-342.8" font-family="Helvetica,sans-Serif" font-weight="bold" font-size="11.00" fill="#000000">crn_v3_basins_EPSG3857</text>
<text text-anchor="start" x="492.0219" y="-341.8" font-family="Helvetica,sans-Serif" font-size="11.00" fill="#000000">[table]</text>
<polygon fill="none" stroke="#000000" points="351.5,-311.7 351.5,-333.7 526.5,-333.7 526.5,-311.7 351.5,-311.7"/>
<image xlink:href="../../images/primaryKeys.png" width="11px" height="12px" preserveAspectRatio="xMinYMin meet" x="356.5" y="-328.7"/>
<text text-anchor="start" x="373.5" y="-318.8" font-family="Helvetica,sans-Serif" font-size="11.00" fill="#000000">id</text>
<polygon fill="#ffffff" stroke="transparent" points="351.5,-289.7 351.5,-311.7 526.5,-311.7 526.5,-289.7 351.5,-289.7"/>
<polygon fill="none" stroke="#000000" points="351.5,-289.7 351.5,-311.7 526.5,-311.7 526.5,-289.7 351.5,-289.7"/>
<text text-anchor="start" x="373.5" y="-296.8" font-family="Helvetica,sans-Serif" font-size="11.00" fill="#000000">geom</text>
<polygon fill="none" stroke="#000000" points="351.5,-267.7 351.5,-289.7 526.5,-289.7 526.5,-267.7 351.5,-267.7"/>
<image xlink:href="../../images/primaryKeys.png" width="11px" height="12px" preserveAspectRatio="xMinYMin meet" x="356.5" y="-284.7"/>
<text text-anchor="start" x="373.5" y="-274.8" font-family="Helvetica,sans-Serif" font-size="11.00" fill="#000000">OBSID1</text>
<polygon fill="none" stroke="#000000" points="351.5,-245.7 351.5,-267.7 526.5,-267.7 526.5,-245.7 351.5,-245.7"/>
<image xlink:href="../../images/foreignKeys.png" width="11px" height="12px" preserveAspectRatio="xMinYMin meet" x="356.5" y="-262.7"/>
<text text-anchor="start" x="373.5" y="-252.8" font-family="Helvetica,sans-Serif" font-size="11.00" fill="#000000">STUDYID</text>
<polygon fill="none" stroke="#000000" points="351.5,-226.7 351.5,-245.7 526.5,-245.7 526.5,-226.7 351.5,-226.7"/>
<text text-anchor="start" x="354.5" y="-232.8" font-family="Helvetica,sans-Serif" font-size="11.00" fill="#000000">...</text>
<polygon fill="#ffffff" stroke="transparent" points="351.5,-207.7 351.5,-226.7 413.5,-226.7 413.5,-207.7 351.5,-207.7"/>
<polygon fill="none" stroke="#000000" points="351.5,-207.7 351.5,-226.7 413.5,-226.7 413.5,-207.7 351.5,-207.7"/>
<text text-anchor="start" x="354.5" y="-213.8" font-family="Helvetica,sans-Serif" font-size="11.00" fill="#000000">&lt; 3</text>
<polygon fill="#ffffff" stroke="transparent" points="413.5,-207.7 413.5,-226.7 493.5,-226.7 493.5,-207.7 413.5,-207.7"/>
<polygon fill="none" stroke="#000000" points="413.5,-207.7 413.5,-226.7 493.5,-226.7 493.5,-207.7 413.5,-207.7"/>
<text text-anchor="start" x="436.7089" y="-213.8" font-family="Helvetica,sans-Serif" font-size="11.00" fill="#000000">4,631 rows</text>
<polygon fill="#ffffff" stroke="transparent" points="493.5,-207.7 493.5,-226.7 526.5,-226.7 526.5,-207.7 493.5,-207.7"/>
<polygon fill="none" stroke="#000000" points="493.5,-207.7 493.5,-226.7 526.5,-226.7 526.5,-207.7 493.5,-207.7"/>
<text text-anchor="start" x="517.3862" y="-213.8" font-family="Helvetica,sans-Serif" font-size="11.00" fill="#000000"> &#160;</text>
</a>
</g>
</g>
<!-- crn_al_DataCore -->
<g id="node2" class="node">
<title>crn_al_DataCore</title>
<g id="a_node2"><a xlink:href="../../tables/crn_al_DataCore.html" xlink:title="crn_al_DataCore" target="_top">
<polygon fill="#ffffff" stroke="transparent" points="92,-179.2 92,-240.2 218,-240.2 218,-179.2 92,-179.2"/>
<polygon fill="#f5f5f5" stroke="transparent" points="92,-216.7 92,-239.7 218,-239.7 218,-216.7 92,-216.7"/>
<polygon fill="none" stroke="#000000" points="92,-216.7 92,-239.7 218,-239.7 218,-216.7 92,-216.7"/>
<text text-anchor="start" x="96.9387" y="-225.8" font-family="Helvetica,sans-Serif" font-weight="bold" font-size="11.00" fill="#000000">crn_al_DataCore</text>
<text text-anchor="start" x="183.5219" y="-224.8" font-family="Helvetica,sans-Serif" font-size="11.00" fill="#000000">[table]</text>
<polygon fill="none" stroke="#000000" points="92,-197.7 92,-216.7 218,-216.7 218,-197.7 92,-197.7"/>
<text text-anchor="start" x="95" y="-203.8" font-family="Helvetica,sans-Serif" font-size="11.00" fill="#000000">...</text>
<polygon fill="#ffffff" stroke="transparent" points="92,-178.7 92,-197.7 125,-197.7 125,-178.7 92,-178.7"/>
<polygon fill="none" stroke="#000000" points="92,-178.7 92,-197.7 125,-197.7 125,-178.7 92,-178.7"/>
<text text-anchor="start" x="95" y="-184.8" font-family="Helvetica,sans-Serif" font-size="11.00" fill="#000000">&lt; 5</text>
<polygon fill="#ffffff" stroke="transparent" points="125,-178.7 125,-197.7 190,-197.7 190,-178.7 125,-178.7"/>
<polygon fill="none" stroke="#000000" points="125,-178.7 125,-197.7 190,-197.7 190,-178.7 125,-178.7"/>
<text text-anchor="start" x="133.2089" y="-184.8" font-family="Helvetica,sans-Serif" font-size="11.00" fill="#000000">4,631 rows</text>
<polygon fill="#ffffff" stroke="transparent" points="190,-178.7 190,-197.7 218,-197.7 218,-178.7 190,-178.7"/>
<polygon fill="none" stroke="#000000" points="190,-178.7 190,-197.7 218,-197.7 218,-178.7 190,-178.7"/>
<text text-anchor="start" x="199.4053" y="-184.8" font-family="Helvetica,sans-Serif" font-size="11.00" fill="#000000">2 &gt;</text>
</a>
</g>
</g>
<!-- crn_v3_basins_EPSG3857&#45;&gt;crn_al_DataCore -->
<g id="edge1" class="edge">
<title>crn_v3_basins_EPSG3857:w&#45;&gt;crn_al_DataCore:e</title>
<path fill="none" stroke="#000000" d="M341.0627,-277.0631C328.5918,-272.5518 325.6901,-259.6799 310,-250.7 270.6625,-228.186 263.3246,-206.7 218,-206.7"/>
<polygon fill="#000000" stroke="#000000" points="351.3294,-274.6243 350.0899,-282.5277 348.5092,-282.2798 349.7488,-274.3764 351.3294,-274.6243"/>
<polyline fill="none" stroke="#000000" points="351.5,-278.7 347.5483,-278.0802 "/>
<ellipse fill="none" stroke="#000000" cx="344.3869" cy="-277.5844" rx="3.2" ry="3.2"/>
</g>
<!-- crn_be_DataCore -->
<g id="node3" class="node">
<title>crn_be_DataCore</title>
<g id="a_node3"><a xlink:href="../../tables/crn_be_DataCore.html" xlink:title="crn_be_DataCore" target="_top">
<polygon fill="#ffffff" stroke="transparent" points="90.5,-261.2 90.5,-322.2 219.5,-322.2 219.5,-261.2 90.5,-261.2"/>
<polygon fill="#f5f5f5" stroke="transparent" points="91,-298.7 91,-321.7 220,-321.7 220,-298.7 91,-298.7"/>
<polygon fill="none" stroke="#000000" points="91,-298.7 91,-321.7 220,-321.7 220,-298.7 91,-298.7"/>
<text text-anchor="start" x="95.6017" y="-307.8" font-family="Helvetica,sans-Serif" font-weight="bold" font-size="11.00" fill="#000000">crn_be_DataCore</text>
<text text-anchor="start" x="185.5219" y="-306.8" font-family="Helvetica,sans-Serif" font-size="11.00" fill="#000000">[table]</text>
<polygon fill="none" stroke="#000000" points="91,-279.7 91,-298.7 220,-298.7 220,-279.7 91,-279.7"/>
<text text-anchor="start" x="94" y="-285.8" font-family="Helvetica,sans-Serif" font-size="11.00" fill="#000000">...</text>
<polygon fill="#ffffff" stroke="transparent" points="91,-260.7 91,-279.7 126,-279.7 126,-260.7 91,-260.7"/>
<polygon fill="none" stroke="#000000" points="91,-260.7 91,-279.7 126,-279.7 126,-260.7 91,-260.7"/>
<text text-anchor="start" x="94" y="-266.8" font-family="Helvetica,sans-Serif" font-size="11.00" fill="#000000">&lt; 5</text>
<polygon fill="#ffffff" stroke="transparent" points="126,-260.7 126,-279.7 192,-279.7 192,-260.7 126,-260.7"/>
<polygon fill="none" stroke="#000000" points="126,-260.7 126,-279.7 192,-279.7 192,-260.7 126,-260.7"/>
<text text-anchor="start" x="135.2089" y="-266.8" font-family="Helvetica,sans-Serif" font-size="11.00" fill="#000000">4,631 rows</text>
<polygon fill="#ffffff" stroke="transparent" points="192,-260.7 192,-279.7 220,-279.7 220,-260.7 192,-260.7"/>
<polygon fill="none" stroke="#000000" points="192,-260.7 192,-279.7 220,-279.7 220,-260.7 192,-260.7"/>
<text text-anchor="start" x="201.4053" y="-266.8" font-family="Helvetica,sans-Serif" font-size="11.00" fill="#000000">2 &gt;</text>
</a>
</g>
</g>
<!-- crn_v3_basins_EPSG3857&#45;&gt;crn_be_DataCore -->
<g id="edge2" class="edge">
<title>crn_v3_basins_EPSG3857:w&#45;&gt;crn_be_DataCore:e</title>
<path fill="none" stroke="#000000" d="M341.008,-278.8123C290.9294,-279.9109 274.9499,-288.7 220,-288.7"/>
<polygon fill="#000000" stroke="#000000" points="350.6572,-274.7088 350.7429,-282.7083 349.143,-282.7255 349.0573,-274.7259 350.6572,-274.7088"/>
<polyline fill="none" stroke="#000000" points="351.5,-278.7 347.5002,-278.7429 "/>
<ellipse fill="none" stroke="#000000" cx="344.3004" cy="-278.7771" rx="3.2" ry="3.2"/>
</g>
<!-- crn_studies_boundingbox -->
<g id="node4" class="node">
<title>crn_studies_boundingbox</title>
<g id="a_node4"><a xlink:href="../../tables/crn_studies_boundingbox.html" xlink:title="crn_studies_boundingbox" target="_top">
<polygon fill="#ffffff" stroke="transparent" points="8,-45.7 8,-157.7 302,-157.7 302,-45.7 8,-45.7"/>
<polygon fill="#f5f5f5" stroke="transparent" points="10,-132.7 10,-155.7 300,-155.7 300,-132.7 10,-132.7"/>
<polygon fill="none" stroke="#000000" points="10,-132.7 10,-155.7 300,-155.7 300,-132.7 10,-132.7"/>
<text text-anchor="start" x="15" y="-141.8" font-family="Helvetica,sans-Serif" font-weight="bold" font-size="11.00" fill="#000000">crn_studies_boundingbox</text>
<text text-anchor="start" x="265.0437" y="-140.8" font-family="Helvetica,sans-Serif" font-size="11.00" fill="#000000">[table]</text>
<polygon fill="none" stroke="#000000" points="10,-110.7 10,-132.7 181,-132.7 181,-110.7 10,-110.7"/>
<image xlink:href="../../images/primaryKeys.png" width="11px" height="12px" preserveAspectRatio="xMinYMin meet" x="15" y="-127.7"/>
<text text-anchor="start" x="30" y="-117.8" font-family="Helvetica,sans-Serif" font-size="11.00" fill="#000000">id</text>
<polygon fill="none" stroke="#000000" points="181,-110.7 181,-132.7 300,-132.7 300,-110.7 181,-110.7"/>
<text text-anchor="start" x="184" y="-118.4" font-family="Helvetica,sans-Serif" font-size="11.00" fill="#000000">serial[10]</text>
<polygon fill="#ffffff" stroke="transparent" points="10,-88.7 10,-110.7 181,-110.7 181,-88.7 10,-88.7"/>
<polygon fill="none" stroke="#000000" points="10,-88.7 10,-110.7 181,-110.7 181,-88.7 10,-88.7"/>
<text text-anchor="start" x="30" y="-95.8" font-family="Helvetica,sans-Serif" font-size="11.00" fill="#000000">geom</text>
<polygon fill="none" stroke="#000000" points="181,-88.7 181,-110.7 300,-110.7 300,-88.7 181,-88.7"/>
<text text-anchor="start" x="183.9485" y="-96.4" font-family="Helvetica,sans-Serif" font-size="11.00" fill="#000000">geometry[2147483647]</text>
<polygon fill="none" stroke="#000000" points="10,-66.7 10,-88.7 181,-88.7 181,-66.7 10,-66.7"/>
<image xlink:href="../../images/primaryKeys.png" width="11px" height="12px" preserveAspectRatio="xMinYMin meet" x="15" y="-83.7"/>
<text text-anchor="start" x="30" y="-73.8" font-family="Helvetica,sans-Serif" font-size="11.00" fill="#000000">STUDYID</text>
<polygon fill="none" stroke="#000000" points="181,-66.7 181,-88.7 300,-88.7 300,-66.7 181,-66.7"/>
<text text-anchor="start" x="184" y="-74.4" font-family="Helvetica,sans-Serif" font-size="11.00" fill="#000000">varchar[5]</text>
<polygon fill="#ffffff" stroke="transparent" points="10,-47.7 10,-66.7 81,-66.7 81,-47.7 10,-47.7"/>
<polygon fill="none" stroke="#000000" points="10,-47.7 10,-66.7 81,-66.7 81,-47.7 10,-47.7"/>
<text text-anchor="start" x="13" y="-53.8" font-family="Helvetica,sans-Serif" font-size="11.00" fill="#000000">&lt; 0</text>
<polygon fill="#ffffff" stroke="transparent" points="81,-47.7 81,-66.7 181,-66.7 181,-47.7 81,-47.7"/>
<polygon fill="none" stroke="#000000" points="81,-47.7 81,-66.7 181,-66.7 181,-47.7 81,-47.7"/>
<text text-anchor="start" x="133.3807" y="-53.8" font-family="Helvetica,sans-Serif" font-size="11.00" fill="#000000">233 rows</text>
<polygon fill="#ffffff" stroke="transparent" points="181,-47.7 181,-66.7 300,-66.7 300,-47.7 181,-47.7"/>
<polygon fill="none" stroke="#000000" points="181,-47.7 181,-66.7 300,-66.7 300,-47.7 181,-47.7"/>
<text text-anchor="start" x="281.4053" y="-53.8" font-family="Helvetica,sans-Serif" font-size="11.00" fill="#000000">2 &gt;</text>
<polygon fill="none" stroke="#000000" stroke-width="2" points="9,-46.7 9,-156.7 301,-156.7 301,-46.7 9,-46.7"/>
</a>
</g>
</g>
<!-- crn_v3_basins_EPSG3857&#45;&gt;crn_studies_boundingbox -->
<g id="edge3" class="edge">
<title>crn_v3_basins_EPSG3857:w&#45;&gt;crn_studies_boundingbox:e</title>
<path fill="none" stroke="#000000" d="M337.1569,-254.305C283.3923,-233.0638 377.1238,-77.7 300,-77.7"/>
<polygon fill="#000000" stroke="#000000" points="343.6093,-255.3823 350.9071,-260.2508 347.5546,-256.0412 351.5,-256.7 351.5,-256.7 351.5,-256.7 347.5546,-256.0412 352.0929,-253.1492 343.6093,-255.3823 343.6093,-255.3823"/>
<ellipse fill="none" stroke="#000000" cx="340.453" cy="-254.8553" rx="3.2" ry="3.2"/>
</g>
<!-- crn_v3_outlets_EPSG3857 -->
<g id="node5" class="node">
<title>crn_v3_outlets_EPSG3857</title>
<g id="a_node5"><a xlink:href="../../tables/crn_v3_outlets_EPSG3857.html" xlink:title="crn_v3_outlets_EPSG3857" target="_top">
<polygon fill="#ffffff" stroke="transparent" points="351,-38.2 351,-187.2 526,-187.2 526,-38.2 351,-38.2"/>
<polygon fill="#f5f5f5" stroke="transparent" points="351.5,-163.7 351.5,-186.7 526.5,-186.7 526.5,-163.7 351.5,-163.7"/>
<polygon fill="none" stroke="#000000" points="351.5,-163.7 351.5,-186.7 526.5,-186.7 526.5,-163.7 351.5,-163.7"/>
<text text-anchor="start" x="356.17" y="-172.8" font-family="Helvetica,sans-Serif" font-weight="bold" font-size="11.00" fill="#000000">crn_v3_outlets_EPSG3857</text>
<text text-anchor="start" x="492.0219" y="-171.8" font-family="Helvetica,sans-Serif" font-size="11.00" fill="#000000">[table]</text>
<polygon fill="none" stroke="#000000" points="351.5,-141.7 351.5,-163.7 526.5,-163.7 526.5,-141.7 351.5,-141.7"/>
<image xlink:href="../../images/primaryKeys.png" width="11px" height="12px" preserveAspectRatio="xMinYMin meet" x="356.5" y="-158.7"/>
<text text-anchor="start" x="373.5" y="-148.8" font-family="Helvetica,sans-Serif" font-size="11.00" fill="#000000">id</text>
<polygon fill="#ffffff" stroke="transparent" points="351.5,-119.7 351.5,-141.7 526.5,-141.7 526.5,-119.7 351.5,-119.7"/>
<polygon fill="none" stroke="#000000" points="351.5,-119.7 351.5,-141.7 526.5,-141.7 526.5,-119.7 351.5,-119.7"/>
<text text-anchor="start" x="373.5" y="-126.8" font-family="Helvetica,sans-Serif" font-size="11.00" fill="#000000">geom</text>
<polygon fill="none" stroke="#000000" points="351.5,-97.7 351.5,-119.7 526.5,-119.7 526.5,-97.7 351.5,-97.7"/>
<image xlink:href="../../images/primaryKeys.png" width="11px" height="12px" preserveAspectRatio="xMinYMin meet" x="356.5" y="-114.7"/>
<text text-anchor="start" x="373.5" y="-104.8" font-family="Helvetica,sans-Serif" font-size="11.00" fill="#000000">OBSID1</text>
<polygon fill="none" stroke="#000000" points="351.5,-75.7 351.5,-97.7 526.5,-97.7 526.5,-75.7 351.5,-75.7"/>
<image xlink:href="../../images/foreignKeys.png" width="11px" height="12px" preserveAspectRatio="xMinYMin meet" x="356.5" y="-92.7"/>
<text text-anchor="start" x="373.5" y="-82.8" font-family="Helvetica,sans-Serif" font-size="11.00" fill="#000000">STUDYID</text>
<polygon fill="none" stroke="#000000" points="351.5,-56.7 351.5,-75.7 526.5,-75.7 526.5,-56.7 351.5,-56.7"/>
<text text-anchor="start" x="354.5" y="-62.8" font-family="Helvetica,sans-Serif" font-size="11.00" fill="#000000">...</text>
<polygon fill="#ffffff" stroke="transparent" points="351.5,-37.7 351.5,-56.7 413.5,-56.7 413.5,-37.7 351.5,-37.7"/>
<polygon fill="none" stroke="#000000" points="351.5,-37.7 351.5,-56.7 413.5,-56.7 413.5,-37.7 351.5,-37.7"/>
<text text-anchor="start" x="354.5" y="-43.8" font-family="Helvetica,sans-Serif" font-size="11.00" fill="#000000">&lt; 3</text>
<polygon fill="#ffffff" stroke="transparent" points="413.5,-37.7 413.5,-56.7 493.5,-56.7 493.5,-37.7 413.5,-37.7"/>
<polygon fill="none" stroke="#000000" points="413.5,-37.7 413.5,-56.7 493.5,-56.7 493.5,-37.7 413.5,-37.7"/>
<text text-anchor="start" x="436.7089" y="-43.8" font-family="Helvetica,sans-Serif" font-size="11.00" fill="#000000">4,631 rows</text>
<polygon fill="#ffffff" stroke="transparent" points="493.5,-37.7 493.5,-56.7 526.5,-56.7 526.5,-37.7 493.5,-37.7"/>
<polygon fill="none" stroke="#000000" points="493.5,-37.7 493.5,-56.7 526.5,-56.7 526.5,-37.7 493.5,-37.7"/>
<text text-anchor="start" x="517.3862" y="-43.8" font-family="Helvetica,sans-Serif" font-size="11.00" fill="#000000"> &#160;</text>
</a>
</g>
</g>
<!-- crn_v3_outlets_EPSG3857&#45;&gt;crn_al_DataCore -->
<g id="edge4" class="edge">
<title>crn_v3_outlets_EPSG3857:w&#45;&gt;crn_al_DataCore:e</title>
<path fill="none" stroke="#000000" d="M340.9414,-110.6598C322.639,-118.8905 331.8866,-151.0485 310,-168.7 275.5642,-196.4725 262.2395,-206.7 218,-206.7"/>
<polygon fill="#000000" stroke="#000000" points="349.9834,-104.9132 351.4435,-112.7788 349.8703,-113.0708 348.4103,-105.2052 349.9834,-104.9132"/>
<polyline fill="none" stroke="#000000" points="351.5,-108.7 347.5672,-109.43 "/>
<ellipse fill="none" stroke="#000000" cx="344.4209" cy="-110.014" rx="3.2" ry="3.2"/>
</g>
<!-- crn_v3_outlets_EPSG3857&#45;&gt;crn_be_DataCore -->
<g id="edge5" class="edge">
<title>crn_v3_outlets_EPSG3857:w&#45;&gt;crn_be_DataCore:e</title>
<path fill="none" stroke="#000000" d="M340.9733,-109.6914C293.5726,-119.7899 351.0916,-204.5803 310,-250.7 281.116,-283.1183 263.4193,-288.7 220,-288.7"/>
<polygon fill="#000000" stroke="#000000" points="350.3284,-104.7926 351.0786,-112.7574 349.4857,-112.9074 348.7355,-104.9427 350.3284,-104.7926"/>
<polyline fill="none" stroke="#000000" points="351.5,-108.7 347.5176,-109.0751 "/>
<ellipse fill="none" stroke="#000000" cx="344.3317" cy="-109.3752" rx="3.2" ry="3.2"/>
</g>
<!-- crn_v3_outlets_EPSG3857&#45;&gt;crn_studies_boundingbox -->
<g id="edge6" class="edge">
<title>crn_v3_outlets_EPSG3857:w&#45;&gt;crn_studies_boundingbox:e</title>
<path fill="none" stroke="#000000" d="M336.9181,-85.2938C324.612,-82.7625 317.4268,-77.7 300,-77.7"/>
<polygon fill="#000000" stroke="#000000" points="343.5369,-85.932 351.1544,-90.2834 347.5185,-86.316 351.5,-86.7 351.5,-86.7 351.5,-86.7 347.5185,-86.316 351.8456,-83.1166 343.5369,-85.932 343.5369,-85.932"/>
<ellipse fill="none" stroke="#000000" cx="340.3517" cy="-85.6248" rx="3.2" ry="3.2"/>
</g>
</g>
</svg>
