<?xml version="1.0" encoding="UTF-8" standalone="no"?>
<!DOCTYPE svg PUBLIC "-//W3C//DTD SVG 1.1//EN"
 "http://www.w3.org/Graphics/SVG/1.1/DTD/svg11.dtd">
<!-- Generated by graphviz version 2.40.1 (20161225.0304)
 -->
<!-- Title: oneDegreeRelationshipsDiagram Pages: 1 -->
<svg width="408pt" height="457pt"
 viewBox="0.00 0.00 408.00 457.20" xmlns="http://www.w3.org/2000/svg" xmlns:xlink="http://www.w3.org/1999/xlink">
<g id="graph0" class="graph" transform="scale(1 1) rotate(0) translate(4 453.2)">
<title>oneDegreeRelationshipsDiagram</title>
<polygon fill="#ffffff" stroke="transparent" points="-4,4 -4,-453.2 404,-453.2 404,4 -4,4"/>
<text text-anchor="middle" x="72.4936" y="-7.3" font-family="Helvetica,sans-Serif" font-size="11.00" fill="#000000">Generated by SchemaSpy</text>
<!-- crn_al_DataCore -->
<g id="node1" class="node">
<title>crn_al_DataCore</title>
<g id="a_node1"><a xlink:href="../../tables/crn_al_DataCore.html" xlink:title="crn_al_DataCore" target="_top">
<polygon fill="#ffffff" stroke="transparent" points="256,-252.2 256,-445.2 390,-445.2 390,-252.2 256,-252.2"/>
<polygon fill="#f5f5f5" stroke="transparent" points="256,-421.7 256,-444.7 390,-444.7 390,-421.7 256,-421.7"/>
<polygon fill="none" stroke="#000000" points="256,-421.7 256,-444.7 390,-444.7 390,-421.7 256,-421.7"/>
<text text-anchor="start" x="261" y="-430.3" font-family="Helvetica,sans-Serif" font-weight="bold" font-size="11.00" fill="#000000">crn_al_DataCore</text>
<text text-anchor="start" x="355.5219" y="-429.8" font-family="Helvetica,sans-Serif" font-size="11.00" fill="#000000">[table]</text>
<polygon fill="none" stroke="#000000" points="256,-399.7 256,-421.7 390,-421.7 390,-399.7 256,-399.7"/>
<image xlink:href="../../images/primaryKeys.png" width="11px" height="12px" preserveAspectRatio="xMinYMin meet" x="261" y="-416.7"/>
<text text-anchor="start" x="285" y="-406.8" font-family="Helvetica,sans-Serif" font-size="11.00" fill="#000000">OBSID1</text>
<polygon fill="none" stroke="#000000" points="256,-377.7 256,-399.7 390,-399.7 390,-377.7 256,-377.7"/>
<image xlink:href="../../images/foreignKeys.png" width="11px" height="12px" preserveAspectRatio="xMinYMin meet" x="261" y="-394.7"/>
<text text-anchor="start" x="285" y="-384.8" font-family="Helvetica,sans-Serif" font-size="11.00" fill="#000000">SMPID</text>
<polygon fill="none" stroke="#000000" points="256,-355.7 256,-377.7 390,-377.7 390,-355.7 256,-355.7"/>
<image xlink:href="../../images/foreignKeys.png" width="11px" height="12px" preserveAspectRatio="xMinYMin meet" x="261" y="-372.7"/>
<text text-anchor="start" x="285" y="-362.8" font-family="Helvetica,sans-Serif" font-size="11.00" fill="#000000">DBDOI</text>
<polygon fill="none" stroke="#000000" points="256,-333.7 256,-355.7 390,-355.7 390,-333.7 256,-333.7"/>
<image xlink:href="../../images/foreignKeys.png" width="11px" height="12px" preserveAspectRatio="xMinYMin meet" x="261" y="-350.7"/>
<text text-anchor="start" x="285" y="-340.8" font-family="Helvetica,sans-Serif" font-size="11.00" fill="#000000">REFDBID1</text>
<polygon fill="none" stroke="#000000" points="256,-311.7 256,-333.7 390,-333.7 390,-311.7 256,-311.7"/>
<image xlink:href="../../images/foreignKeys.png" width="11px" height="12px" preserveAspectRatio="xMinYMin meet" x="261" y="-328.7"/>
<text text-anchor="start" x="285" y="-318.8" font-family="Helvetica,sans-Serif" font-size="11.00" fill="#000000">ALSTNDID</text>
<polygon fill="none" stroke="#000000" points="256,-289.7 256,-311.7 390,-311.7 390,-289.7 256,-289.7"/>
<image xlink:href="../../images/foreignKeys.png" width="11px" height="12px" preserveAspectRatio="xMinYMin meet" x="261" y="-306.7"/>
<text text-anchor="start" x="285" y="-296.8" font-family="Helvetica,sans-Serif" font-size="11.00" fill="#000000">ALAMSID</text>
<polygon fill="none" stroke="#000000" points="256,-270.7 256,-289.7 390,-289.7 390,-270.7 256,-270.7"/>
<text text-anchor="start" x="259" y="-276.8" font-family="Helvetica,sans-Serif" font-size="11.00" fill="#000000">...</text>
<polygon fill="#ffffff" stroke="transparent" points="256,-251.7 256,-270.7 293,-270.7 293,-251.7 256,-251.7"/>
<polygon fill="none" stroke="#000000" points="256,-251.7 256,-270.7 293,-270.7 293,-251.7 256,-251.7"/>
<text text-anchor="start" x="259" y="-257.8" font-family="Helvetica,sans-Serif" font-size="11.00" fill="#000000">&lt; 5</text>
<polygon fill="#ffffff" stroke="transparent" points="293,-251.7 293,-270.7 360,-270.7 360,-251.7 293,-251.7"/>
<polygon fill="none" stroke="#000000" points="293,-251.7 293,-270.7 360,-270.7 360,-251.7 293,-251.7"/>
<text text-anchor="start" x="303.2089" y="-257.8" font-family="Helvetica,sans-Serif" font-size="11.00" fill="#000000">4.631 rows</text>
<polygon fill="#ffffff" stroke="transparent" points="360,-251.7 360,-270.7 390,-270.7 390,-251.7 360,-251.7"/>
<polygon fill="none" stroke="#000000" points="360,-251.7 360,-270.7 390,-270.7 390,-251.7 360,-251.7"/>
<text text-anchor="start" x="371.4053" y="-257.8" font-family="Helvetica,sans-Serif" font-size="11.00" fill="#000000">2 &gt;</text>
</a>
</g>
</g>
<!-- crn_amsID -->
<g id="node2" class="node">
<title>crn_amsID</title>
<g id="a_node2"><a xlink:href="../../tables/crn_amsID.html" xlink:title="crn_amsID" target="_top">
<polygon fill="#ffffff" stroke="transparent" points="8,-51.7 8,-229.7 205,-229.7 205,-51.7 8,-51.7"/>
<polygon fill="#f5f5f5" stroke="transparent" points="10.5,-204.7 10.5,-227.7 203.5,-227.7 203.5,-204.7 10.5,-204.7"/>
<polygon fill="none" stroke="#000000" points="10.5,-204.7 10.5,-227.7 203.5,-227.7 203.5,-204.7 10.5,-204.7"/>
<text text-anchor="start" x="15.5" y="-213.3" font-family="Helvetica,sans-Serif" font-weight="bold" font-size="11.00" fill="#000000">crn_amsID</text>
<text text-anchor="start" x="168.5437" y="-212.8" font-family="Helvetica,sans-Serif" font-size="11.00" fill="#000000">[table]</text>
<polygon fill="none" stroke="#000000" points="10.5,-182.7 10.5,-204.7 111.5,-204.7 111.5,-182.7 10.5,-182.7"/>
<image xlink:href="../../images/primaryKeys.png" width="11px" height="12px" preserveAspectRatio="xMinYMin meet" x="15.5" y="-199.7"/>
<text text-anchor="start" x="30.5" y="-189.8" font-family="Helvetica,sans-Serif" font-size="11.00" fill="#000000">AMSID</text>
<polygon fill="none" stroke="#000000" points="111.5,-182.7 111.5,-204.7 203.5,-204.7 203.5,-182.7 111.5,-182.7"/>
<text text-anchor="start" x="114.5" y="-190.4" font-family="Helvetica,sans-Serif" font-size="11.00" fill="#000000">smallserial[5]</text>
<polygon fill="none" stroke="#000000" points="10.5,-160.7 10.5,-182.7 111.5,-182.7 111.5,-160.7 10.5,-160.7"/>
<text text-anchor="start" x="30.5" y="-167.8" font-family="Helvetica,sans-Serif" font-size="11.00" fill="#000000">AMS</text>
<polygon fill="none" stroke="#000000" points="111.5,-160.7 111.5,-182.7 203.5,-182.7 203.5,-160.7 111.5,-160.7"/>
<text text-anchor="start" x="114.5" y="-168.4" font-family="Helvetica,sans-Serif" font-size="11.00" fill="#000000">text[2147483647]</text>
<polygon fill="none" stroke="#000000" points="10.5,-138.7 10.5,-160.7 111.5,-160.7 111.5,-138.7 10.5,-138.7"/>
<text text-anchor="start" x="30.5" y="-145.8" font-family="Helvetica,sans-Serif" font-size="11.00" fill="#000000">AMSORG</text>
<polygon fill="none" stroke="#000000" points="111.5,-138.7 111.5,-160.7 203.5,-160.7 203.5,-138.7 111.5,-138.7"/>
<text text-anchor="start" x="114.5" y="-146.4" font-family="Helvetica,sans-Serif" font-size="11.00" fill="#000000">text[2147483647]</text>
<polygon fill="none" stroke="#000000" points="10.5,-116.7 10.5,-138.7 111.5,-138.7 111.5,-116.7 10.5,-116.7"/>
<text text-anchor="start" x="30.5" y="-123.8" font-family="Helvetica,sans-Serif" font-size="11.00" fill="#000000">AMSURL</text>
<polygon fill="none" stroke="#000000" points="111.5,-116.7 111.5,-138.7 203.5,-138.7 203.5,-116.7 111.5,-116.7"/>
<text text-anchor="start" x="114.5" y="-124.4" font-family="Helvetica,sans-Serif" font-size="11.00" fill="#000000">text[2147483647]</text>
<polygon fill="none" stroke="#000000" points="10.5,-94.7 10.5,-116.7 111.5,-116.7 111.5,-94.7 10.5,-94.7"/>
<text text-anchor="start" x="30.5" y="-101.8" font-family="Helvetica,sans-Serif" font-size="11.00" fill="#000000">CREATED_AT</text>
<polygon fill="none" stroke="#000000" points="111.5,-94.7 111.5,-116.7 203.5,-116.7 203.5,-94.7 111.5,-94.7"/>
<text text-anchor="start" x="114.1023" y="-102.4" font-family="Helvetica,sans-Serif" font-size="11.00" fill="#000000">timestamptz[35,6]</text>
<polygon fill="none" stroke="#000000" points="10.5,-72.7 10.5,-94.7 111.5,-94.7 111.5,-72.7 10.5,-72.7"/>
<text text-anchor="start" x="30.5" y="-79.8" font-family="Helvetica,sans-Serif" font-size="11.00" fill="#000000">UPDATED_AT</text>
<polygon fill="none" stroke="#000000" points="111.5,-72.7 111.5,-94.7 203.5,-94.7 203.5,-72.7 111.5,-72.7"/>
<text text-anchor="start" x="114.1023" y="-80.4" font-family="Helvetica,sans-Serif" font-size="11.00" fill="#000000">timestamptz[35,6]</text>
<polygon fill="#ffffff" stroke="transparent" points="10.5,-53.7 10.5,-72.7 49.5,-72.7 49.5,-53.7 10.5,-53.7"/>
<polygon fill="none" stroke="#000000" points="10.5,-53.7 10.5,-72.7 49.5,-72.7 49.5,-53.7 10.5,-53.7"/>
<text text-anchor="start" x="13.5" y="-59.8" font-family="Helvetica,sans-Serif" font-size="11.00" fill="#000000">&lt; 0</text>
<polygon fill="#ffffff" stroke="transparent" points="49.5,-53.7 49.5,-72.7 111.5,-72.7 111.5,-53.7 49.5,-53.7"/>
<polygon fill="none" stroke="#000000" points="49.5,-53.7 49.5,-72.7 111.5,-72.7 111.5,-53.7 49.5,-53.7"/>
<text text-anchor="start" x="69.9956" y="-59.8" font-family="Helvetica,sans-Serif" font-size="11.00" fill="#000000">37 rows</text>
<polygon fill="#ffffff" stroke="transparent" points="111.5,-53.7 111.5,-72.7 203.5,-72.7 203.5,-53.7 111.5,-53.7"/>
<polygon fill="none" stroke="#000000" points="111.5,-53.7 111.5,-72.7 203.5,-72.7 203.5,-53.7 111.5,-53.7"/>
<text text-anchor="start" x="184.9053" y="-59.8" font-family="Helvetica,sans-Serif" font-size="11.00" fill="#000000">2 &gt;</text>
<polygon fill="none" stroke="#000000" stroke-width="2" points="9,-52.7 9,-228.7 204,-228.7 204,-52.7 9,-52.7"/>
</a>
</g>
</g>
<!-- crn_al_DataCore&#45;&gt;crn_amsID -->
<g id="edge1" class="edge">
<title>crn_al_DataCore:w&#45;&gt;crn_amsID:e</title>
<path fill="none" stroke="#000000" d="M241.7853,-296.8918C213.7711,-277.8309 250.4708,-193.7 203.5,-193.7"/>
<polygon fill="#000000" stroke="#000000" points="248.2725,-298.6297 255.0684,-304.1774 252.1363,-299.6649 256,-300.7 256,-300.7 256,-300.7 252.1363,-299.6649 256.9316,-297.2226 248.2725,-298.6297 248.2725,-298.6297"/>
<ellipse fill="none" stroke="#000000" cx="245.1815" cy="-297.8016" rx="3.2" ry="3.2"/>
</g>
<!-- crn_be_DataCore -->
<g id="node3" class="node">
<title>crn_be_DataCore</title>
<g id="a_node3"><a xlink:href="../../tables/crn_be_DataCore.html" xlink:title="crn_be_DataCore" target="_top">
<polygon fill="#ffffff" stroke="transparent" points="254,-38.2 254,-231.2 392,-231.2 392,-38.2 254,-38.2"/>
<polygon fill="#f5f5f5" stroke="transparent" points="254,-207.7 254,-230.7 392,-230.7 392,-207.7 254,-207.7"/>
<polygon fill="none" stroke="#000000" points="254,-207.7 254,-230.7 392,-230.7 392,-207.7 254,-207.7"/>
<text text-anchor="start" x="259" y="-216.3" font-family="Helvetica,sans-Serif" font-weight="bold" font-size="11.00" fill="#000000">crn_be_DataCore</text>
<text text-anchor="start" x="357.5219" y="-215.8" font-family="Helvetica,sans-Serif" font-size="11.00" fill="#000000">[table]</text>
<polygon fill="none" stroke="#000000" points="254,-185.7 254,-207.7 392,-207.7 392,-185.7 254,-185.7"/>
<image xlink:href="../../images/primaryKeys.png" width="11px" height="12px" preserveAspectRatio="xMinYMin meet" x="259" y="-202.7"/>
<text text-anchor="start" x="283" y="-192.8" font-family="Helvetica,sans-Serif" font-size="11.00" fill="#000000">OBSID1</text>
<polygon fill="none" stroke="#000000" points="254,-163.7 254,-185.7 392,-185.7 392,-163.7 254,-163.7"/>
<image xlink:href="../../images/foreignKeys.png" width="11px" height="12px" preserveAspectRatio="xMinYMin meet" x="259" y="-180.7"/>
<text text-anchor="start" x="283" y="-170.8" font-family="Helvetica,sans-Serif" font-size="11.00" fill="#000000">SMPID</text>
<polygon fill="none" stroke="#000000" points="254,-141.7 254,-163.7 392,-163.7 392,-141.7 254,-141.7"/>
<image xlink:href="../../images/foreignKeys.png" width="11px" height="12px" preserveAspectRatio="xMinYMin meet" x="259" y="-158.7"/>
<text text-anchor="start" x="283" y="-148.8" font-family="Helvetica,sans-Serif" font-size="11.00" fill="#000000">DBDOI</text>
<polygon fill="none" stroke="#000000" points="254,-119.7 254,-141.7 392,-141.7 392,-119.7 254,-119.7"/>
<image xlink:href="../../images/foreignKeys.png" width="11px" height="12px" preserveAspectRatio="xMinYMin meet" x="259" y="-136.7"/>
<text text-anchor="start" x="283" y="-126.8" font-family="Helvetica,sans-Serif" font-size="11.00" fill="#000000">REFDBID1</text>
<polygon fill="none" stroke="#000000" points="254,-97.7 254,-119.7 392,-119.7 392,-97.7 254,-97.7"/>
<image xlink:href="../../images/foreignKeys.png" width="11px" height="12px" preserveAspectRatio="xMinYMin meet" x="259" y="-114.7"/>
<text text-anchor="start" x="283" y="-104.8" font-family="Helvetica,sans-Serif" font-size="11.00" fill="#000000">BESTNDID</text>
<polygon fill="none" stroke="#000000" points="254,-75.7 254,-97.7 392,-97.7 392,-75.7 254,-75.7"/>
<image xlink:href="../../images/foreignKeys.png" width="11px" height="12px" preserveAspectRatio="xMinYMin meet" x="259" y="-92.7"/>
<text text-anchor="start" x="283" y="-82.8" font-family="Helvetica,sans-Serif" font-size="11.00" fill="#000000">BEAMSID</text>
<polygon fill="none" stroke="#000000" points="254,-56.7 254,-75.7 392,-75.7 392,-56.7 254,-56.7"/>
<text text-anchor="start" x="257" y="-62.8" font-family="Helvetica,sans-Serif" font-size="11.00" fill="#000000">...</text>
<polygon fill="#ffffff" stroke="transparent" points="254,-37.7 254,-56.7 293,-56.7 293,-37.7 254,-37.7"/>
<polygon fill="none" stroke="#000000" points="254,-37.7 254,-56.7 293,-56.7 293,-37.7 254,-37.7"/>
<text text-anchor="start" x="257" y="-43.8" font-family="Helvetica,sans-Serif" font-size="11.00" fill="#000000">&lt; 5</text>
<polygon fill="#ffffff" stroke="transparent" points="293,-37.7 293,-56.7 361,-56.7 361,-37.7 293,-37.7"/>
<polygon fill="none" stroke="#000000" points="293,-37.7 293,-56.7 361,-56.7 361,-37.7 293,-37.7"/>
<text text-anchor="start" x="304.2089" y="-43.8" font-family="Helvetica,sans-Serif" font-size="11.00" fill="#000000">4.631 rows</text>
<polygon fill="#ffffff" stroke="transparent" points="361,-37.7 361,-56.7 392,-56.7 392,-37.7 361,-37.7"/>
<polygon fill="none" stroke="#000000" points="361,-37.7 361,-56.7 392,-56.7 392,-37.7 361,-37.7"/>
<text text-anchor="start" x="373.4053" y="-43.8" font-family="Helvetica,sans-Serif" font-size="11.00" fill="#000000">2 &gt;</text>
</a>
</g>
</g>
<!-- crn_be_DataCore&#45;&gt;crn_amsID -->
<g id="edge2" class="edge">
<title>crn_be_DataCore:w&#45;&gt;crn_amsID:e</title>
<path fill="none" stroke="#000000" d="M239.9464,-90.5082C212.4242,-109.5691 250.129,-193.7 203.5,-193.7"/>
<polygon fill="#000000" stroke="#000000" points="246.2785,-88.7924 254.9416,-90.1747 250.1392,-87.7462 254,-86.7 254,-86.7 254,-86.7 250.1392,-87.7462 253.0584,-83.2253 246.2785,-88.7924 246.2785,-88.7924"/>
<ellipse fill="none" stroke="#000000" cx="243.1898" cy="-89.6293" rx="3.2" ry="3.2"/>
</g>
</g>
</svg>
