<?xml version="1.0" encoding="UTF-8" standalone="no"?>
<!DOCTYPE svg PUBLIC "-//W3C//DTD SVG 1.1//EN"
 "http://www.w3.org/Graphics/SVG/1.1/DTD/svg11.dtd">
<!-- Generated by graphviz version 2.40.1 (20161225.0304)
 -->
<!-- Title: twoDegreesRelationshipsDiagram Pages: 1 -->
<svg width="557pt" height="352pt"
 viewBox="0.00 0.00 557.00 351.70" xmlns="http://www.w3.org/2000/svg" xmlns:xlink="http://www.w3.org/1999/xlink">
<g id="graph0" class="graph" transform="scale(1 1) rotate(0) translate(4 347.7)">
<title>twoDegreesRelationshipsDiagram</title>
<polygon fill="#ffffff" stroke="transparent" points="-4,4 -4,-347.7 553,-347.7 553,4 -4,4"/>
<text text-anchor="middle" x="72.4936" y="-7.3" font-family="Helvetica,sans-Serif" font-size="11.00" fill="#000000">Generated by SchemaSpy</text>
<!-- crn_al_DataCore -->
<g id="node1" class="node">
<title>crn_al_DataCore</title>
<g id="a_node1"><a xlink:href="../../tables/crn_al_DataCore.html" xlink:title="crn_al_DataCore" target="_top">
<polygon fill="#ffffff" stroke="transparent" points="413.5,-278.7 413.5,-339.7 539.5,-339.7 539.5,-278.7 413.5,-278.7"/>
<polygon fill="#f5f5f5" stroke="transparent" points="413.5,-316.2 413.5,-339.2 539.5,-339.2 539.5,-316.2 413.5,-316.2"/>
<polygon fill="none" stroke="#000000" points="413.5,-316.2 413.5,-339.2 539.5,-339.2 539.5,-316.2 413.5,-316.2"/>
<text text-anchor="start" x="418.4387" y="-325.3" font-family="Helvetica,sans-Serif" font-weight="bold" font-size="11.00" fill="#000000">crn_al_DataCore</text>
<text text-anchor="start" x="505.0219" y="-324.3" font-family="Helvetica,sans-Serif" font-size="11.00" fill="#000000">[table]</text>
<polygon fill="none" stroke="#000000" points="413.5,-297.2 413.5,-316.2 539.5,-316.2 539.5,-297.2 413.5,-297.2"/>
<text text-anchor="start" x="416.5" y="-303.3" font-family="Helvetica,sans-Serif" font-size="11.00" fill="#000000">...</text>
<polygon fill="#ffffff" stroke="transparent" points="413.5,-278.2 413.5,-297.2 446.5,-297.2 446.5,-278.2 413.5,-278.2"/>
<polygon fill="none" stroke="#000000" points="413.5,-278.2 413.5,-297.2 446.5,-297.2 446.5,-278.2 413.5,-278.2"/>
<text text-anchor="start" x="416.5" y="-284.3" font-family="Helvetica,sans-Serif" font-size="11.00" fill="#000000">&lt; 5</text>
<polygon fill="#ffffff" stroke="transparent" points="446.5,-278.2 446.5,-297.2 511.5,-297.2 511.5,-278.2 446.5,-278.2"/>
<polygon fill="none" stroke="#000000" points="446.5,-278.2 446.5,-297.2 511.5,-297.2 511.5,-278.2 446.5,-278.2"/>
<text text-anchor="start" x="454.7089" y="-284.3" font-family="Helvetica,sans-Serif" font-size="11.00" fill="#000000">4,631 rows</text>
<polygon fill="#ffffff" stroke="transparent" points="511.5,-278.2 511.5,-297.2 539.5,-297.2 539.5,-278.2 511.5,-278.2"/>
<polygon fill="none" stroke="#000000" points="511.5,-278.2 511.5,-297.2 539.5,-297.2 539.5,-278.2 511.5,-278.2"/>
<text text-anchor="start" x="520.9053" y="-284.3" font-family="Helvetica,sans-Serif" font-size="11.00" fill="#000000">2 &gt;</text>
</a>
</g>
</g>
<!-- crn_Sample -->
<g id="node2" class="node">
<title>crn_Sample</title>
<g id="a_node2"><a xlink:href="../../tables/crn_Sample.html" xlink:title="crn_Sample" target="_top">
<polygon fill="#ffffff" stroke="transparent" points="262,-150.7 262,-299.7 363,-299.7 363,-150.7 262,-150.7"/>
<polygon fill="#f5f5f5" stroke="transparent" points="262.5,-276.2 262.5,-299.2 363.5,-299.2 363.5,-276.2 262.5,-276.2"/>
<polygon fill="none" stroke="#000000" points="262.5,-276.2 262.5,-299.2 363.5,-299.2 363.5,-276.2 262.5,-276.2"/>
<text text-anchor="start" x="267.1625" y="-285.3" font-family="Helvetica,sans-Serif" font-weight="bold" font-size="11.00" fill="#000000">crn_Sample</text>
<text text-anchor="start" x="329.0219" y="-284.3" font-family="Helvetica,sans-Serif" font-size="11.00" fill="#000000">[table]</text>
<polygon fill="none" stroke="#000000" points="262.5,-254.2 262.5,-276.2 363.5,-276.2 363.5,-254.2 262.5,-254.2"/>
<image xlink:href="../../images/primaryKeys.png" width="11px" height="12px" preserveAspectRatio="xMinYMin meet" x="267.5" y="-271.2"/>
<text text-anchor="start" x="282.5" y="-261.3" font-family="Helvetica,sans-Serif" font-size="11.00" fill="#000000">SMPID</text>
<polygon fill="none" stroke="#000000" points="262.5,-232.2 262.5,-254.2 363.5,-254.2 363.5,-232.2 262.5,-232.2"/>
<image xlink:href="../../images/foreignKeys.png" width="11px" height="12px" preserveAspectRatio="xMinYMin meet" x="267.5" y="-249.2"/>
<text text-anchor="start" x="282.5" y="-239.3" font-family="Helvetica,sans-Serif" font-size="11.00" fill="#000000">SITEID</text>
<polygon fill="none" stroke="#000000" points="262.5,-210.2 262.5,-232.2 363.5,-232.2 363.5,-210.2 262.5,-210.2"/>
<image xlink:href="../../images/foreignKeys.png" width="11px" height="12px" preserveAspectRatio="xMinYMin meet" x="267.5" y="-227.2"/>
<text text-anchor="start" x="282.5" y="-217.3" font-family="Helvetica,sans-Serif" font-size="11.00" fill="#000000">MATERIAL</text>
<polygon fill="none" stroke="#000000" points="262.5,-188.2 262.5,-210.2 363.5,-210.2 363.5,-188.2 262.5,-188.2"/>
<image xlink:href="../../images/foreignKeys.png" width="11px" height="12px" preserveAspectRatio="xMinYMin meet" x="267.5" y="-205.2"/>
<text text-anchor="start" x="282.5" y="-195.3" font-family="Helvetica,sans-Serif" font-size="11.00" fill="#000000">PROJEPSGID</text>
<polygon fill="none" stroke="#000000" points="262.5,-169.2 262.5,-188.2 363.5,-188.2 363.5,-169.2 262.5,-169.2"/>
<text text-anchor="start" x="265.5" y="-175.3" font-family="Helvetica,sans-Serif" font-size="11.00" fill="#000000">...</text>
<polygon fill="#ffffff" stroke="transparent" points="262.5,-150.2 262.5,-169.2 283.5,-169.2 283.5,-150.2 262.5,-150.2"/>
<polygon fill="none" stroke="#000000" points="262.5,-150.2 262.5,-169.2 283.5,-169.2 283.5,-150.2 262.5,-150.2"/>
<text text-anchor="start" x="265.2027" y="-156.3" font-family="Helvetica,sans-Serif" font-size="11.00" fill="#000000">&lt; 3</text>
<polygon fill="#ffffff" stroke="transparent" points="283.5,-150.2 283.5,-169.2 342.5,-169.2 342.5,-150.2 283.5,-150.2"/>
<polygon fill="none" stroke="#000000" points="283.5,-150.2 283.5,-169.2 342.5,-169.2 342.5,-150.2 283.5,-150.2"/>
<text text-anchor="start" x="286.1045" y="-156.3" font-family="Helvetica,sans-Serif" font-size="11.00" fill="#000000">4,588 rows</text>
<polygon fill="#ffffff" stroke="transparent" points="342.5,-150.2 342.5,-169.2 363.5,-169.2 363.5,-150.2 342.5,-150.2"/>
<polygon fill="none" stroke="#000000" points="342.5,-150.2 342.5,-169.2 363.5,-169.2 363.5,-150.2 342.5,-150.2"/>
<text text-anchor="start" x="345.2027" y="-156.3" font-family="Helvetica,sans-Serif" font-size="11.00" fill="#000000">2 &gt;</text>
</a>
</g>
</g>
<!-- crn_al_DataCore&#45;&gt;crn_Sample -->
<g id="edge1" class="edge">
<title>crn_al_DataCore:w&#45;&gt;crn_Sample:e</title>
<path fill="none" stroke="#000000" d="M399.4684,-301.4968C386.3046,-290.7274 386.1761,-265.2 363.5,-265.2"/>
<polygon fill="#000000" stroke="#000000" points="405.9148,-303.6575 412.3559,-309.6134 409.7074,-304.9287 413.5,-306.2 413.5,-306.2 413.5,-306.2 409.7074,-304.9287 414.6441,-302.7866 405.9148,-303.6575 405.9148,-303.6575"/>
<ellipse fill="none" stroke="#000000" cx="402.8807" cy="-302.6405" rx="3.2" ry="3.2"/>
</g>
<!-- global_GrainSize -->
<g id="node4" class="node">
<title>global_GrainSize</title>
<g id="a_node4"><a xlink:href="../../tables/global_GrainSize.html" xlink:title="global_GrainSize" target="_top">
<polygon fill="#ffffff" stroke="transparent" points="47.5,-193.7 47.5,-254.7 173.5,-254.7 173.5,-193.7 47.5,-193.7"/>
<polygon fill="#f5f5f5" stroke="transparent" points="47.5,-231.2 47.5,-254.2 173.5,-254.2 173.5,-231.2 47.5,-231.2"/>
<polygon fill="none" stroke="#000000" points="47.5,-231.2 47.5,-254.2 173.5,-254.2 173.5,-231.2 47.5,-231.2"/>
<text text-anchor="start" x="52.1313" y="-240.3" font-family="Helvetica,sans-Serif" font-weight="bold" font-size="11.00" fill="#000000">global_GrainSize</text>
<text text-anchor="start" x="139.0219" y="-239.3" font-family="Helvetica,sans-Serif" font-size="11.00" fill="#000000">[table]</text>
<polygon fill="none" stroke="#000000" points="47.5,-212.2 47.5,-231.2 173.5,-231.2 173.5,-212.2 47.5,-212.2"/>
<text text-anchor="start" x="50.5" y="-218.3" font-family="Helvetica,sans-Serif" font-size="11.00" fill="#000000">...</text>
<polygon fill="#ffffff" stroke="transparent" points="47.5,-193.2 47.5,-212.2 83.5,-212.2 83.5,-193.2 47.5,-193.2"/>
<polygon fill="none" stroke="#000000" points="47.5,-193.2 47.5,-212.2 83.5,-212.2 83.5,-193.2 47.5,-193.2"/>
<text text-anchor="start" x="50.5" y="-199.3" font-family="Helvetica,sans-Serif" font-size="11.00" fill="#000000"> &#160;</text>
<polygon fill="#ffffff" stroke="transparent" points="83.5,-193.2 83.5,-212.2 139.5,-212.2 139.5,-193.2 83.5,-193.2"/>
<polygon fill="none" stroke="#000000" points="83.5,-193.2 83.5,-212.2 139.5,-212.2 139.5,-193.2 83.5,-193.2"/>
<text text-anchor="start" x="97.9956" y="-199.3" font-family="Helvetica,sans-Serif" font-size="11.00" fill="#000000">29 rows</text>
<polygon fill="#ffffff" stroke="transparent" points="139.5,-193.2 139.5,-212.2 173.5,-212.2 173.5,-193.2 139.5,-193.2"/>
<polygon fill="none" stroke="#000000" points="139.5,-193.2 139.5,-212.2 173.5,-212.2 173.5,-193.2 139.5,-193.2"/>
<text text-anchor="start" x="154.9053" y="-199.3" font-family="Helvetica,sans-Serif" font-size="11.00" fill="#000000">3 &gt;</text>
</a>
</g>
</g>
<!-- crn_Sample&#45;&gt;global_GrainSize -->
<g id="edge3" class="edge">
<title>crn_Sample:w&#45;&gt;global_GrainSize:e</title>
<path fill="none" stroke="#000000" d="M247.788,-221.2C219.6859,-221.2 207.6476,-221.2 173.5,-221.2"/>
<polygon fill="#000000" stroke="#000000" points="254.5,-221.2001 262.5,-224.8 258.5,-221.2 262.5,-221.2 262.5,-221.2 262.5,-221.2 258.5,-221.2 262.5,-217.6 254.5,-221.2001 254.5,-221.2001"/>
<ellipse fill="none" stroke="#000000" cx="251.3" cy="-221.2001" rx="3.2" ry="3.2"/>
</g>
<!-- crn_projepsgID -->
<g id="node5" class="node">
<title>crn_projepsgID</title>
<g id="a_node5"><a xlink:href="../../tables/crn_projepsgID.html" xlink:title="crn_projepsgID" target="_top">
<polygon fill="#ffffff" stroke="transparent" points="8,-38.2 8,-172.2 213,-172.2 213,-38.2 8,-38.2"/>
<polygon fill="#f5f5f5" stroke="transparent" points="10.5,-147.2 10.5,-170.2 211.5,-170.2 211.5,-147.2 10.5,-147.2"/>
<polygon fill="none" stroke="#000000" points="10.5,-147.2 10.5,-170.2 211.5,-170.2 211.5,-147.2 10.5,-147.2"/>
<text text-anchor="start" x="15.5" y="-156.3" font-family="Helvetica,sans-Serif" font-weight="bold" font-size="11.00" fill="#000000">crn_projepsgID</text>
<text text-anchor="start" x="176.5437" y="-155.3" font-family="Helvetica,sans-Serif" font-size="11.00" fill="#000000">[table]</text>
<polygon fill="none" stroke="#000000" points="10.5,-125.2 10.5,-147.2 119.5,-147.2 119.5,-125.2 10.5,-125.2"/>
<image xlink:href="../../images/primaryKeys.png" width="11px" height="12px" preserveAspectRatio="xMinYMin meet" x="15.5" y="-142.2"/>
<text text-anchor="start" x="30.5" y="-132.3" font-family="Helvetica,sans-Serif" font-size="11.00" fill="#000000">PROJEPSGID</text>
<polygon fill="none" stroke="#000000" points="119.5,-125.2 119.5,-147.2 211.5,-147.2 211.5,-125.2 119.5,-125.2"/>
<text text-anchor="start" x="122.5" y="-132.9" font-family="Helvetica,sans-Serif" font-size="11.00" fill="#000000">int2[5]</text>
<polygon fill="none" stroke="#000000" points="10.5,-103.2 10.5,-125.2 119.5,-125.2 119.5,-103.2 10.5,-103.2"/>
<text text-anchor="start" x="30.5" y="-110.3" font-family="Helvetica,sans-Serif" font-size="11.00" fill="#000000">PROJECTION</text>
<polygon fill="none" stroke="#000000" points="119.5,-103.2 119.5,-125.2 211.5,-125.2 211.5,-103.2 119.5,-103.2"/>
<text text-anchor="start" x="122.5" y="-110.9" font-family="Helvetica,sans-Serif" font-size="11.00" fill="#000000">varchar[13]</text>
<polygon fill="none" stroke="#000000" points="10.5,-81.2 10.5,-103.2 119.5,-103.2 119.5,-81.2 10.5,-81.2"/>
<text text-anchor="start" x="30.5" y="-88.3" font-family="Helvetica,sans-Serif" font-size="11.00" fill="#000000">CREATED_AT</text>
<polygon fill="none" stroke="#000000" points="119.5,-81.2 119.5,-103.2 211.5,-103.2 211.5,-81.2 119.5,-81.2"/>
<text text-anchor="start" x="122.1023" y="-88.9" font-family="Helvetica,sans-Serif" font-size="11.00" fill="#000000">timestamptz[35,6]</text>
<polygon fill="none" stroke="#000000" points="10.5,-59.2 10.5,-81.2 119.5,-81.2 119.5,-59.2 10.5,-59.2"/>
<text text-anchor="start" x="30.5" y="-66.3" font-family="Helvetica,sans-Serif" font-size="11.00" fill="#000000">UPDATED_AT</text>
<polygon fill="none" stroke="#000000" points="119.5,-59.2 119.5,-81.2 211.5,-81.2 211.5,-59.2 119.5,-59.2"/>
<text text-anchor="start" x="122.1023" y="-66.9" font-family="Helvetica,sans-Serif" font-size="11.00" fill="#000000">timestamptz[35,6]</text>
<polygon fill="#ffffff" stroke="transparent" points="10.5,-40.2 10.5,-59.2 50.5,-59.2 50.5,-40.2 10.5,-40.2"/>
<polygon fill="none" stroke="#000000" points="10.5,-40.2 10.5,-59.2 50.5,-59.2 50.5,-40.2 10.5,-40.2"/>
<text text-anchor="start" x="13.5" y="-46.3" font-family="Helvetica,sans-Serif" font-size="11.00" fill="#000000">&lt; 0</text>
<polygon fill="#ffffff" stroke="transparent" points="50.5,-40.2 50.5,-59.2 119.5,-59.2 119.5,-40.2 50.5,-40.2"/>
<polygon fill="none" stroke="#000000" points="50.5,-40.2 50.5,-59.2 119.5,-59.2 119.5,-40.2 50.5,-40.2"/>
<text text-anchor="start" x="71.8807" y="-46.3" font-family="Helvetica,sans-Serif" font-size="11.00" fill="#000000">121 rows</text>
<polygon fill="#ffffff" stroke="transparent" points="119.5,-40.2 119.5,-59.2 211.5,-59.2 211.5,-40.2 119.5,-40.2"/>
<polygon fill="none" stroke="#000000" points="119.5,-40.2 119.5,-59.2 211.5,-59.2 211.5,-40.2 119.5,-40.2"/>
<text text-anchor="start" x="192.9053" y="-46.3" font-family="Helvetica,sans-Serif" font-size="11.00" fill="#000000">1 &gt;</text>
<polygon fill="none" stroke="#000000" stroke-width="2" points="9,-39.2 9,-171.2 212,-171.2 212,-39.2 9,-39.2"/>
</a>
</g>
</g>
<!-- crn_Sample&#45;&gt;crn_projepsgID -->
<g id="edge4" class="edge">
<title>crn_Sample:w&#45;&gt;crn_projepsgID:e</title>
<path fill="none" stroke="#000000" d="M248.4033,-194.2565C232.025,-179.4048 241.3329,-136.2 211.5,-136.2"/>
<polygon fill="#000000" stroke="#000000" points="254.9507,-196.5526 261.3087,-202.5972 258.7254,-197.8763 262.5,-199.2 262.5,-199.2 262.5,-199.2 258.7254,-197.8763 263.6913,-195.8028 254.9507,-196.5526 254.9507,-196.5526"/>
<ellipse fill="none" stroke="#000000" cx="251.931" cy="-195.4936" rx="3.2" ry="3.2"/>
</g>
<!-- global_SiteMaster -->
<g id="node6" class="node">
<title>global_SiteMaster</title>
<g id="a_node6"><a xlink:href="../../tables/global_SiteMaster.html" xlink:title="global_SiteMaster" target="_top">
<polygon fill="#ffffff" stroke="transparent" points="45,-275.7 45,-336.7 176,-336.7 176,-275.7 45,-275.7"/>
<polygon fill="#f5f5f5" stroke="transparent" points="45.5,-313.2 45.5,-336.2 176.5,-336.2 176.5,-313.2 45.5,-313.2"/>
<polygon fill="none" stroke="#000000" points="45.5,-313.2 45.5,-336.2 176.5,-336.2 176.5,-313.2 45.5,-313.2"/>
<text text-anchor="start" x="50.4923" y="-322.3" font-family="Helvetica,sans-Serif" font-weight="bold" font-size="11.00" fill="#000000">global_SiteMaster</text>
<text text-anchor="start" x="142.0219" y="-321.3" font-family="Helvetica,sans-Serif" font-size="11.00" fill="#000000">[table]</text>
<polygon fill="none" stroke="#000000" points="45.5,-294.2 45.5,-313.2 176.5,-313.2 176.5,-294.2 45.5,-294.2"/>
<text text-anchor="start" x="48.5" y="-300.3" font-family="Helvetica,sans-Serif" font-size="11.00" fill="#000000">...</text>
<polygon fill="#ffffff" stroke="transparent" points="45.5,-275.2 45.5,-294.2 78.5,-294.2 78.5,-275.2 45.5,-275.2"/>
<polygon fill="none" stroke="#000000" points="45.5,-275.2 45.5,-294.2 78.5,-294.2 78.5,-275.2 45.5,-275.2"/>
<text text-anchor="start" x="48.5" y="-281.3" font-family="Helvetica,sans-Serif" font-size="11.00" fill="#000000">&lt; 4</text>
<polygon fill="#ffffff" stroke="transparent" points="78.5,-275.2 78.5,-294.2 149.5,-294.2 149.5,-275.2 78.5,-275.2"/>
<polygon fill="none" stroke="#000000" points="78.5,-275.2 78.5,-294.2 149.5,-294.2 149.5,-275.2 78.5,-275.2"/>
<text text-anchor="start" x="86.594" y="-281.3" font-family="Helvetica,sans-Serif" font-size="11.00" fill="#000000">23,245 rows</text>
<polygon fill="#ffffff" stroke="transparent" points="149.5,-275.2 149.5,-294.2 176.5,-294.2 176.5,-275.2 149.5,-275.2"/>
<polygon fill="none" stroke="#000000" points="149.5,-275.2 149.5,-294.2 176.5,-294.2 176.5,-275.2 149.5,-275.2"/>
<text text-anchor="start" x="157.9053" y="-281.3" font-family="Helvetica,sans-Serif" font-size="11.00" fill="#000000">5 &gt;</text>
</a>
</g>
</g>
<!-- crn_Sample&#45;&gt;global_SiteMaster -->
<g id="edge5" class="edge">
<title>crn_Sample:w&#45;&gt;global_SiteMaster:e</title>
<path fill="none" stroke="#000000" d="M248.1593,-245.4788C216.8457,-256.4385 217.6437,-303.2 176.5,-303.2"/>
<polygon fill="#000000" stroke="#000000" points="254.5991,-244.4555 263.065,-246.7554 258.5496,-243.8278 262.5,-243.2 262.5,-243.2 262.5,-243.2 258.5496,-243.8278 261.935,-239.6446 254.5991,-244.4555 254.5991,-244.4555"/>
<ellipse fill="none" stroke="#000000" cx="251.4388" cy="-244.9577" rx="3.2" ry="3.2"/>
</g>
<!-- crn_be_DataCore -->
<g id="node3" class="node">
<title>crn_be_DataCore</title>
<g id="a_node3"><a xlink:href="../../tables/crn_be_DataCore.html" xlink:title="crn_be_DataCore" target="_top">
<polygon fill="#ffffff" stroke="transparent" points="412,-196.7 412,-257.7 541,-257.7 541,-196.7 412,-196.7"/>
<polygon fill="#f5f5f5" stroke="transparent" points="412.5,-234.2 412.5,-257.2 541.5,-257.2 541.5,-234.2 412.5,-234.2"/>
<polygon fill="none" stroke="#000000" points="412.5,-234.2 412.5,-257.2 541.5,-257.2 541.5,-234.2 412.5,-234.2"/>
<text text-anchor="start" x="417.1017" y="-243.3" font-family="Helvetica,sans-Serif" font-weight="bold" font-size="11.00" fill="#000000">crn_be_DataCore</text>
<text text-anchor="start" x="507.0219" y="-242.3" font-family="Helvetica,sans-Serif" font-size="11.00" fill="#000000">[table]</text>
<polygon fill="none" stroke="#000000" points="412.5,-215.2 412.5,-234.2 541.5,-234.2 541.5,-215.2 412.5,-215.2"/>
<text text-anchor="start" x="415.5" y="-221.3" font-family="Helvetica,sans-Serif" font-size="11.00" fill="#000000">...</text>
<polygon fill="#ffffff" stroke="transparent" points="412.5,-196.2 412.5,-215.2 447.5,-215.2 447.5,-196.2 412.5,-196.2"/>
<polygon fill="none" stroke="#000000" points="412.5,-196.2 412.5,-215.2 447.5,-215.2 447.5,-196.2 412.5,-196.2"/>
<text text-anchor="start" x="415.5" y="-202.3" font-family="Helvetica,sans-Serif" font-size="11.00" fill="#000000">&lt; 5</text>
<polygon fill="#ffffff" stroke="transparent" points="447.5,-196.2 447.5,-215.2 513.5,-215.2 513.5,-196.2 447.5,-196.2"/>
<polygon fill="none" stroke="#000000" points="447.5,-196.2 447.5,-215.2 513.5,-215.2 513.5,-196.2 447.5,-196.2"/>
<text text-anchor="start" x="456.7089" y="-202.3" font-family="Helvetica,sans-Serif" font-size="11.00" fill="#000000">4,631 rows</text>
<polygon fill="#ffffff" stroke="transparent" points="513.5,-196.2 513.5,-215.2 541.5,-215.2 541.5,-196.2 513.5,-196.2"/>
<polygon fill="none" stroke="#000000" points="513.5,-196.2 513.5,-215.2 541.5,-215.2 541.5,-196.2 513.5,-196.2"/>
<text text-anchor="start" x="522.9053" y="-202.3" font-family="Helvetica,sans-Serif" font-size="11.00" fill="#000000">2 &gt;</text>
</a>
</g>
</g>
<!-- crn_be_DataCore&#45;&gt;crn_Sample -->
<g id="edge2" class="edge">
<title>crn_be_DataCore:w&#45;&gt;crn_Sample:e</title>
<path fill="none" stroke="#000000" d="M398.6819,-228.9032C385.7811,-239.6726 385.9061,-265.2 363.5,-265.2"/>
<polygon fill="#000000" stroke="#000000" points="404.9267,-226.7778 413.66,-227.608 408.7133,-225.4889 412.5,-224.2 412.5,-224.2 412.5,-224.2 408.7133,-225.4889 411.34,-220.792 404.9267,-226.7778 404.9267,-226.7778"/>
<ellipse fill="none" stroke="#000000" cx="401.8973" cy="-227.8089" rx="3.2" ry="3.2"/>
</g>
</g>
</svg>
