<?xml version="1.0" encoding="UTF-8" standalone="no"?>
<!DOCTYPE svg PUBLIC "-//W3C//DTD SVG 1.1//EN"
 "http://www.w3.org/Graphics/SVG/1.1/DTD/svg11.dtd">
<!-- Generated by graphviz version 2.40.1 (20161225.0304)
 -->
<!-- Title: oneDegreeRelationshipsDiagram Pages: 1 -->
<svg width="651pt" height="1051pt"
 viewBox="0.00 0.00 651.00 1050.70" xmlns="http://www.w3.org/2000/svg" xmlns:xlink="http://www.w3.org/1999/xlink">
<g id="graph0" class="graph" transform="scale(1 1) rotate(0) translate(4 1046.7)">
<title>oneDegreeRelationshipsDiagram</title>
<polygon fill="#ffffff" stroke="transparent" points="-4,4 -4,-1046.7 647,-1046.7 647,4 -4,4"/>
<text text-anchor="middle" x="72.4936" y="-7.3" font-family="Helvetica,sans-Serif" font-size="11.00" fill="#000000">Generated by SchemaSpy</text>
<!-- crn_al_DataCore -->
<g id="node1" class="node">
<title>crn_al_DataCore</title>
<g id="a_node1"><a xlink:href="../../tables/crn_al_DataCore.html" xlink:title="crn_al_DataCore" target="_top">
<polygon fill="#ffffff" stroke="transparent" points="184,-38.2 184,-832.2 396,-832.2 396,-38.2 184,-38.2"/>
<polygon fill="#f5f5f5" stroke="transparent" points="186,-807.2 186,-830.2 394,-830.2 394,-807.2 186,-807.2"/>
<polygon fill="none" stroke="#000000" points="186,-807.2 186,-830.2 394,-830.2 394,-807.2 186,-807.2"/>
<text text-anchor="start" x="191" y="-815.8" font-family="Helvetica,sans-Serif" font-weight="bold" font-size="11.00" fill="#000000">crn_al_DataCore</text>
<text text-anchor="start" x="359.0437" y="-815.3" font-family="Helvetica,sans-Serif" font-size="11.00" fill="#000000">[table]</text>
<polygon fill="none" stroke="#000000" points="186,-785.2 186,-807.2 302,-807.2 302,-785.2 186,-785.2"/>
<image xlink:href="../../images/primaryKeys.png" width="11px" height="12px" preserveAspectRatio="xMinYMin meet" x="191" y="-802.2"/>
<text text-anchor="start" x="206" y="-792.3" font-family="Helvetica,sans-Serif" font-size="11.00" fill="#000000">OBSID1</text>
<polygon fill="none" stroke="#000000" points="302,-785.2 302,-807.2 394,-807.2 394,-785.2 302,-785.2"/>
<text text-anchor="start" x="305" y="-792.9" font-family="Helvetica,sans-Serif" font-size="11.00" fill="#000000">text[2147483647]</text>
<polygon fill="none" stroke="#000000" points="186,-763.2 186,-785.2 302,-785.2 302,-763.2 186,-763.2"/>
<image xlink:href="../../images/foreignKeys.png" width="11px" height="12px" preserveAspectRatio="xMinYMin meet" x="191" y="-780.2"/>
<text text-anchor="start" x="206" y="-770.3" font-family="Helvetica,sans-Serif" font-size="11.00" fill="#000000">SMPID</text>
<polygon fill="none" stroke="#000000" points="302,-763.2 302,-785.2 394,-785.2 394,-763.2 302,-763.2"/>
<text text-anchor="start" x="305" y="-770.9" font-family="Helvetica,sans-Serif" font-size="11.00" fill="#000000">text[2147483647]</text>
<polygon fill="none" stroke="#000000" points="186,-741.2 186,-763.2 302,-763.2 302,-741.2 186,-741.2"/>
<text text-anchor="start" x="206" y="-748.3" font-family="Helvetica,sans-Serif" font-size="11.00" fill="#000000">OBSID2</text>
<polygon fill="none" stroke="#000000" points="302,-741.2 302,-763.2 394,-763.2 394,-741.2 302,-741.2"/>
<text text-anchor="start" x="305" y="-748.9" font-family="Helvetica,sans-Serif" font-size="11.00" fill="#000000">text[2147483647]</text>
<polygon fill="none" stroke="#000000" points="186,-719.2 186,-741.2 302,-741.2 302,-719.2 186,-719.2"/>
<text text-anchor="start" x="206" y="-726.3" font-family="Helvetica,sans-Serif" font-size="11.00" fill="#000000">IGSNID</text>
<polygon fill="none" stroke="#000000" points="302,-719.2 302,-741.2 394,-741.2 394,-719.2 302,-719.2"/>
<text text-anchor="start" x="305" y="-726.9" font-family="Helvetica,sans-Serif" font-size="11.00" fill="#000000">text[2147483647]</text>
<polygon fill="none" stroke="#000000" points="186,-697.2 186,-719.2 302,-719.2 302,-697.2 186,-697.2"/>
<image xlink:href="../../images/foreignKeys.png" width="11px" height="12px" preserveAspectRatio="xMinYMin meet" x="191" y="-714.2"/>
<text text-anchor="start" x="206" y="-704.3" font-family="Helvetica,sans-Serif" font-size="11.00" fill="#000000">VERID</text>
<polygon fill="none" stroke="#000000" points="302,-697.2 302,-719.2 394,-719.2 394,-697.2 302,-697.2"/>
<text text-anchor="start" x="305" y="-704.9" font-family="Helvetica,sans-Serif" font-size="11.00" fill="#000000">int2[5]</text>
<polygon fill="none" stroke="#000000" points="186,-675.2 186,-697.2 302,-697.2 302,-675.2 186,-675.2"/>
<image xlink:href="../../images/foreignKeys.png" width="11px" height="12px" preserveAspectRatio="xMinYMin meet" x="191" y="-692.2"/>
<text text-anchor="start" x="206" y="-682.3" font-family="Helvetica,sans-Serif" font-size="11.00" fill="#000000">REFDBID1</text>
<polygon fill="none" stroke="#000000" points="302,-675.2 302,-697.2 394,-697.2 394,-675.2 302,-675.2"/>
<text text-anchor="start" x="305" y="-682.9" font-family="Helvetica,sans-Serif" font-size="11.00" fill="#000000">text[2147483647]</text>
<polygon fill="none" stroke="#000000" points="186,-653.2 186,-675.2 302,-675.2 302,-653.2 186,-653.2"/>
<text text-anchor="start" x="206" y="-660.3" font-family="Helvetica,sans-Serif" font-size="11.00" fill="#000000">AL26NP</text>
<polygon fill="none" stroke="#000000" points="302,-653.2 302,-675.2 394,-675.2 394,-653.2 302,-653.2"/>
<text text-anchor="start" x="305" y="-660.9" font-family="Helvetica,sans-Serif" font-size="11.00" fill="#000000">int8[19]</text>
<polygon fill="none" stroke="#000000" points="186,-631.2 186,-653.2 302,-653.2 302,-631.2 186,-631.2"/>
<text text-anchor="start" x="206" y="-638.3" font-family="Helvetica,sans-Serif" font-size="11.00" fill="#000000">AL26NP_ERR</text>
<polygon fill="none" stroke="#000000" points="302,-631.2 302,-653.2 394,-653.2 394,-631.2 302,-631.2"/>
<text text-anchor="start" x="305" y="-638.9" font-family="Helvetica,sans-Serif" font-size="11.00" fill="#000000">int8[19]</text>
<polygon fill="none" stroke="#000000" points="186,-609.2 186,-631.2 302,-631.2 302,-609.2 186,-609.2"/>
<text text-anchor="start" x="206" y="-616.3" font-family="Helvetica,sans-Serif" font-size="11.00" fill="#000000">AL26EP</text>
<polygon fill="none" stroke="#000000" points="302,-609.2 302,-631.2 394,-631.2 394,-609.2 302,-609.2"/>
<text text-anchor="start" x="305" y="-616.9" font-family="Helvetica,sans-Serif" font-size="11.00" fill="#000000">numeric[0]</text>
<polygon fill="none" stroke="#000000" points="186,-587.2 186,-609.2 302,-609.2 302,-587.2 186,-587.2"/>
<text text-anchor="start" x="206" y="-594.3" font-family="Helvetica,sans-Serif" font-size="11.00" fill="#000000">AL26EP_ERR</text>
<polygon fill="none" stroke="#000000" points="302,-587.2 302,-609.2 394,-609.2 394,-587.2 302,-587.2"/>
<text text-anchor="start" x="305" y="-594.9" font-family="Helvetica,sans-Serif" font-size="11.00" fill="#000000">numeric[0]</text>
<polygon fill="none" stroke="#000000" points="186,-565.2 186,-587.2 302,-587.2 302,-565.2 186,-565.2"/>
<image xlink:href="../../images/foreignKeys.png" width="11px" height="12px" preserveAspectRatio="xMinYMin meet" x="191" y="-582.2"/>
<text text-anchor="start" x="206" y="-572.3" font-family="Helvetica,sans-Serif" font-size="11.00" fill="#000000">ALSTNDID</text>
<polygon fill="none" stroke="#000000" points="302,-565.2 302,-587.2 394,-587.2 394,-565.2 302,-565.2"/>
<text text-anchor="start" x="305" y="-572.9" font-family="Helvetica,sans-Serif" font-size="11.00" fill="#000000">int2[5]</text>
<polygon fill="none" stroke="#000000" points="186,-543.2 186,-565.2 302,-565.2 302,-543.2 186,-543.2"/>
<image xlink:href="../../images/foreignKeys.png" width="11px" height="12px" preserveAspectRatio="xMinYMin meet" x="191" y="-560.2"/>
<text text-anchor="start" x="206" y="-550.3" font-family="Helvetica,sans-Serif" font-size="11.00" fill="#000000">ALAMSID</text>
<polygon fill="none" stroke="#000000" points="302,-543.2 302,-565.2 394,-565.2 394,-543.2 302,-543.2"/>
<text text-anchor="start" x="305" y="-550.9" font-family="Helvetica,sans-Serif" font-size="11.00" fill="#000000">int2[5]</text>
<polygon fill="none" stroke="#000000" points="186,-521.2 186,-543.2 302,-543.2 302,-521.2 186,-521.2"/>
<text text-anchor="start" x="206" y="-528.3" font-family="Helvetica,sans-Serif" font-size="11.00" fill="#000000">AL26NC</text>
<polygon fill="none" stroke="#000000" points="302,-521.2 302,-543.2 394,-543.2 394,-521.2 302,-521.2"/>
<text text-anchor="start" x="305" y="-528.9" font-family="Helvetica,sans-Serif" font-size="11.00" fill="#000000">int8[19]</text>
<polygon fill="none" stroke="#000000" points="186,-499.2 186,-521.2 302,-521.2 302,-499.2 186,-499.2"/>
<text text-anchor="start" x="206" y="-506.3" font-family="Helvetica,sans-Serif" font-size="11.00" fill="#000000">AL26NC_ERR</text>
<polygon fill="none" stroke="#000000" points="302,-499.2 302,-521.2 394,-521.2 394,-499.2 302,-499.2"/>
<text text-anchor="start" x="305" y="-506.9" font-family="Helvetica,sans-Serif" font-size="11.00" fill="#000000">int8[19]</text>
<polygon fill="none" stroke="#000000" points="186,-477.2 186,-499.2 302,-499.2 302,-477.2 186,-477.2"/>
<text text-anchor="start" x="206" y="-484.3" font-family="Helvetica,sans-Serif" font-size="11.00" fill="#000000">ALPROD</text>
<polygon fill="none" stroke="#000000" points="302,-477.2 302,-499.2 394,-499.2 394,-477.2 302,-477.2"/>
<text text-anchor="start" x="305" y="-484.9" font-family="Helvetica,sans-Serif" font-size="11.00" fill="#000000">numeric[12,3]</text>
<polygon fill="none" stroke="#000000" points="186,-455.2 186,-477.2 302,-477.2 302,-455.2 186,-455.2"/>
<text text-anchor="start" x="206" y="-462.3" font-family="Helvetica,sans-Serif" font-size="11.00" fill="#000000">ALTOPO</text>
<polygon fill="none" stroke="#000000" points="302,-455.2 302,-477.2 394,-477.2 394,-455.2 302,-455.2"/>
<text text-anchor="start" x="305" y="-462.9" font-family="Helvetica,sans-Serif" font-size="11.00" fill="#000000">numeric[12,3]</text>
<polygon fill="none" stroke="#000000" points="186,-433.2 186,-455.2 302,-455.2 302,-433.2 186,-433.2"/>
<text text-anchor="start" x="206" y="-440.3" font-family="Helvetica,sans-Serif" font-size="11.00" fill="#000000">ALSELF</text>
<polygon fill="none" stroke="#000000" points="302,-433.2 302,-455.2 394,-455.2 394,-433.2 302,-433.2"/>
<text text-anchor="start" x="305" y="-440.9" font-family="Helvetica,sans-Serif" font-size="11.00" fill="#000000">numeric[12,3]</text>
<polygon fill="none" stroke="#000000" points="186,-411.2 186,-433.2 302,-433.2 302,-411.2 186,-411.2"/>
<text text-anchor="start" x="206" y="-418.3" font-family="Helvetica,sans-Serif" font-size="11.00" fill="#000000">ALSNOW</text>
<polygon fill="none" stroke="#000000" points="302,-411.2 302,-433.2 394,-433.2 394,-411.2 302,-411.2"/>
<text text-anchor="start" x="305" y="-418.9" font-family="Helvetica,sans-Serif" font-size="11.00" fill="#000000">numeric[12,3]</text>
<polygon fill="none" stroke="#000000" points="186,-389.2 186,-411.2 302,-411.2 302,-389.2 186,-389.2"/>
<text text-anchor="start" x="206" y="-396.3" font-family="Helvetica,sans-Serif" font-size="11.00" fill="#000000">ALTOTS</text>
<polygon fill="none" stroke="#000000" points="302,-389.2 302,-411.2 394,-411.2 394,-389.2 302,-389.2"/>
<text text-anchor="start" x="305" y="-396.9" font-family="Helvetica,sans-Serif" font-size="11.00" fill="#000000">numeric[12,3]</text>
<polygon fill="none" stroke="#000000" points="186,-367.2 186,-389.2 302,-389.2 302,-367.2 186,-367.2"/>
<text text-anchor="start" x="206" y="-374.3" font-family="Helvetica,sans-Serif" font-size="11.00" fill="#000000">EAL_GCMYR</text>
<polygon fill="none" stroke="#000000" points="302,-367.2 302,-389.2 394,-389.2 394,-367.2 302,-367.2"/>
<text text-anchor="start" x="305" y="-374.9" font-family="Helvetica,sans-Serif" font-size="11.00" fill="#000000">numeric[12,5]</text>
<polygon fill="none" stroke="#000000" points="186,-345.2 186,-367.2 302,-367.2 302,-345.2 186,-345.2"/>
<text text-anchor="start" x="206" y="-352.3" font-family="Helvetica,sans-Serif" font-size="11.00" fill="#000000">ERRAL_AMS</text>
<polygon fill="none" stroke="#000000" points="302,-345.2 302,-367.2 394,-367.2 394,-345.2 302,-345.2"/>
<text text-anchor="start" x="305" y="-352.9" font-family="Helvetica,sans-Serif" font-size="11.00" fill="#000000">numeric[12,5]</text>
<polygon fill="none" stroke="#000000" points="186,-323.2 186,-345.2 302,-345.2 302,-323.2 186,-323.2"/>
<text text-anchor="start" x="206" y="-330.3" font-family="Helvetica,sans-Serif" font-size="11.00" fill="#000000">ERRAL_MUON</text>
<polygon fill="none" stroke="#000000" points="302,-323.2 302,-345.2 394,-345.2 394,-323.2 302,-323.2"/>
<text text-anchor="start" x="305" y="-330.9" font-family="Helvetica,sans-Serif" font-size="11.00" fill="#000000">numeric[12,5]</text>
<polygon fill="none" stroke="#000000" points="186,-301.2 186,-323.2 302,-323.2 302,-301.2 186,-301.2"/>
<text text-anchor="start" x="206" y="-308.3" font-family="Helvetica,sans-Serif" font-size="11.00" fill="#000000">ERRAL_PROD</text>
<polygon fill="none" stroke="#000000" points="302,-301.2 302,-323.2 394,-323.2 394,-301.2 302,-301.2"/>
<text text-anchor="start" x="305" y="-308.9" font-family="Helvetica,sans-Serif" font-size="11.00" fill="#000000">numeric[12,5]</text>
<polygon fill="none" stroke="#000000" points="186,-279.2 186,-301.2 302,-301.2 302,-279.2 186,-279.2"/>
<text text-anchor="start" x="206" y="-286.3" font-family="Helvetica,sans-Serif" font-size="11.00" fill="#000000">ERRAL_TOT</text>
<polygon fill="none" stroke="#000000" points="302,-279.2 302,-301.2 394,-301.2 394,-279.2 302,-279.2"/>
<text text-anchor="start" x="305" y="-286.9" font-family="Helvetica,sans-Serif" font-size="11.00" fill="#000000">numeric[12,5]</text>
<polygon fill="none" stroke="#000000" points="186,-257.2 186,-279.2 302,-279.2 302,-257.2 186,-257.2"/>
<text text-anchor="start" x="206" y="-264.3" font-family="Helvetica,sans-Serif" font-size="11.00" fill="#000000">EAL_MMKYR</text>
<polygon fill="none" stroke="#000000" points="302,-257.2 302,-279.2 394,-279.2 394,-257.2 302,-257.2"/>
<text text-anchor="start" x="305" y="-264.9" font-family="Helvetica,sans-Serif" font-size="11.00" fill="#000000">numeric[12,2]</text>
<polygon fill="none" stroke="#000000" points="186,-235.2 186,-257.2 302,-257.2 302,-235.2 186,-235.2"/>
<text text-anchor="start" x="206" y="-242.3" font-family="Helvetica,sans-Serif" font-size="11.00" fill="#000000">EAL_ERR</text>
<polygon fill="none" stroke="#000000" points="302,-235.2 302,-257.2 394,-257.2 394,-235.2 302,-235.2"/>
<text text-anchor="start" x="305" y="-242.9" font-family="Helvetica,sans-Serif" font-size="11.00" fill="#000000">numeric[12,2]</text>
<polygon fill="none" stroke="#000000" points="186,-213.2 186,-235.2 302,-235.2 302,-213.2 186,-213.2"/>
<text text-anchor="start" x="206" y="-220.3" font-family="Helvetica,sans-Serif" font-size="11.00" fill="#000000">CREATED_AT</text>
<polygon fill="none" stroke="#000000" points="302,-213.2 302,-235.2 394,-235.2 394,-213.2 302,-213.2"/>
<text text-anchor="start" x="304.6023" y="-220.9" font-family="Helvetica,sans-Serif" font-size="11.00" fill="#000000">timestamptz[35,6]</text>
<polygon fill="none" stroke="#000000" points="186,-191.2 186,-213.2 302,-213.2 302,-191.2 186,-191.2"/>
<text text-anchor="start" x="206" y="-198.3" font-family="Helvetica,sans-Serif" font-size="11.00" fill="#000000">UPDATED_AT</text>
<polygon fill="none" stroke="#000000" points="302,-191.2 302,-213.2 394,-213.2 394,-191.2 302,-191.2"/>
<text text-anchor="start" x="304.6023" y="-198.9" font-family="Helvetica,sans-Serif" font-size="11.00" fill="#000000">timestamptz[35,6]</text>
<polygon fill="none" stroke="#000000" points="186,-169.2 186,-191.2 302,-191.2 302,-169.2 186,-169.2"/>
<text text-anchor="start" x="206" y="-176.3" font-family="Helvetica,sans-Serif" font-size="11.00" fill="#000000">EALL</text>
<polygon fill="none" stroke="#000000" points="302,-169.2 302,-191.2 394,-191.2 394,-169.2 302,-169.2"/>
<text text-anchor="start" x="305" y="-176.9" font-family="Helvetica,sans-Serif" font-size="11.00" fill="#000000">numeric[12,2]</text>
<polygon fill="none" stroke="#000000" points="186,-147.2 186,-169.2 302,-169.2 302,-147.2 186,-147.2"/>
<text text-anchor="start" x="206" y="-154.3" font-family="Helvetica,sans-Serif" font-size="11.00" fill="#000000">EALL_INT</text>
<polygon fill="none" stroke="#000000" points="302,-147.2 302,-169.2 394,-169.2 394,-147.2 302,-147.2"/>
<text text-anchor="start" x="305" y="-154.9" font-family="Helvetica,sans-Serif" font-size="11.00" fill="#000000">numeric[12,2]</text>
<polygon fill="none" stroke="#000000" points="186,-125.2 186,-147.2 302,-147.2 302,-125.2 186,-125.2"/>
<text text-anchor="start" x="206" y="-132.3" font-family="Helvetica,sans-Serif" font-size="11.00" fill="#000000">EALL_EXT</text>
<polygon fill="none" stroke="#000000" points="302,-125.2 302,-147.2 394,-147.2 394,-125.2 302,-125.2"/>
<text text-anchor="start" x="305" y="-132.9" font-family="Helvetica,sans-Serif" font-size="11.00" fill="#000000">numeric[12,2]</text>
<polygon fill="none" stroke="#000000" points="186,-103.2 186,-125.2 302,-125.2 302,-103.2 186,-103.2"/>
<text text-anchor="start" x="206" y="-110.3" font-family="Helvetica,sans-Serif" font-size="11.00" fill="#000000">EALLNS</text>
<polygon fill="none" stroke="#000000" points="302,-103.2 302,-125.2 394,-125.2 394,-103.2 302,-103.2"/>
<text text-anchor="start" x="305" y="-110.9" font-family="Helvetica,sans-Serif" font-size="11.00" fill="#000000">numeric[12,2]</text>
<polygon fill="none" stroke="#000000" points="186,-81.2 186,-103.2 302,-103.2 302,-81.2 186,-81.2"/>
<text text-anchor="start" x="206" y="-88.3" font-family="Helvetica,sans-Serif" font-size="11.00" fill="#000000">EALLNS_INT</text>
<polygon fill="none" stroke="#000000" points="302,-81.2 302,-103.2 394,-103.2 394,-81.2 302,-81.2"/>
<text text-anchor="start" x="305" y="-88.9" font-family="Helvetica,sans-Serif" font-size="11.00" fill="#000000">numeric[12,2]</text>
<polygon fill="none" stroke="#000000" points="186,-59.2 186,-81.2 302,-81.2 302,-59.2 186,-59.2"/>
<text text-anchor="start" x="206" y="-66.3" font-family="Helvetica,sans-Serif" font-size="11.00" fill="#000000">EALLNS_EXT</text>
<polygon fill="none" stroke="#000000" points="302,-59.2 302,-81.2 394,-81.2 394,-59.2 302,-59.2"/>
<text text-anchor="start" x="305" y="-66.9" font-family="Helvetica,sans-Serif" font-size="11.00" fill="#000000">numeric[12,2]</text>
<polygon fill="#ffffff" stroke="transparent" points="186,-40.2 186,-59.2 225,-59.2 225,-40.2 186,-40.2"/>
<polygon fill="none" stroke="#000000" points="186,-40.2 186,-59.2 225,-59.2 225,-40.2 186,-40.2"/>
<text text-anchor="start" x="189" y="-46.3" font-family="Helvetica,sans-Serif" font-size="11.00" fill="#000000">&lt; 5</text>
<polygon fill="#ffffff" stroke="transparent" points="225,-40.2 225,-59.2 302,-59.2 302,-40.2 225,-40.2"/>
<polygon fill="none" stroke="#000000" points="225,-40.2 225,-59.2 302,-59.2 302,-40.2 225,-40.2"/>
<text text-anchor="start" x="245.2089" y="-46.3" font-family="Helvetica,sans-Serif" font-size="11.00" fill="#000000">6.091 rows</text>
<polygon fill="#ffffff" stroke="transparent" points="302,-40.2 302,-59.2 394,-59.2 394,-40.2 302,-40.2"/>
<polygon fill="none" stroke="#000000" points="302,-40.2 302,-59.2 394,-59.2 394,-40.2 302,-40.2"/>
<text text-anchor="start" x="375.4053" y="-46.3" font-family="Helvetica,sans-Serif" font-size="11.00" fill="#000000">2 &gt;</text>
<polygon fill="none" stroke="#000000" stroke-width="2" points="185,-39.2 185,-831.2 395,-831.2 395,-39.2 185,-39.2"/>
</a>
</g>
</g>
<!-- crn_amsID -->
<g id="node2" class="node">
<title>crn_amsID</title>
<g id="a_node2"><a xlink:href="../../tables/crn_amsID.html" xlink:title="crn_amsID" target="_top">
<polygon fill="#ffffff" stroke="transparent" points="21,-363.7 21,-446.7 122,-446.7 122,-363.7 21,-363.7"/>
<polygon fill="#f5f5f5" stroke="transparent" points="21.5,-423.2 21.5,-446.2 122.5,-446.2 122.5,-423.2 21.5,-423.2"/>
<polygon fill="none" stroke="#000000" points="21.5,-423.2 21.5,-446.2 122.5,-446.2 122.5,-423.2 21.5,-423.2"/>
<text text-anchor="start" x="26.5" y="-431.8" font-family="Helvetica,sans-Serif" font-weight="bold" font-size="11.00" fill="#000000">crn_amsID</text>
<text text-anchor="start" x="88.0219" y="-431.3" font-family="Helvetica,sans-Serif" font-size="11.00" fill="#000000">[table]</text>
<polygon fill="none" stroke="#000000" points="21.5,-401.2 21.5,-423.2 122.5,-423.2 122.5,-401.2 21.5,-401.2"/>
<image xlink:href="../../images/primaryKeys.png" width="11px" height="12px" preserveAspectRatio="xMinYMin meet" x="26.5" y="-418.2"/>
<text text-anchor="start" x="41.5" y="-408.3" font-family="Helvetica,sans-Serif" font-size="11.00" fill="#000000">AMSID</text>
<polygon fill="none" stroke="#000000" points="21.5,-382.2 21.5,-401.2 122.5,-401.2 122.5,-382.2 21.5,-382.2"/>
<text text-anchor="start" x="24.5" y="-388.3" font-family="Helvetica,sans-Serif" font-size="11.00" fill="#000000">...</text>
<polygon fill="#ffffff" stroke="transparent" points="21.5,-363.2 21.5,-382.2 45.5,-382.2 45.5,-363.2 21.5,-363.2"/>
<polygon fill="none" stroke="#000000" points="21.5,-363.2 21.5,-382.2 45.5,-382.2 45.5,-363.2 21.5,-363.2"/>
<text text-anchor="start" x="24.5" y="-369.3" font-family="Helvetica,sans-Serif" font-size="11.00" fill="#000000"> &#160;</text>
<polygon fill="#ffffff" stroke="transparent" points="45.5,-363.2 45.5,-382.2 95.5,-382.2 95.5,-363.2 45.5,-363.2"/>
<polygon fill="none" stroke="#000000" points="45.5,-363.2 45.5,-382.2 95.5,-382.2 95.5,-363.2 45.5,-363.2"/>
<text text-anchor="start" x="53.9956" y="-369.3" font-family="Helvetica,sans-Serif" font-size="11.00" fill="#000000">37 rows</text>
<polygon fill="#ffffff" stroke="transparent" points="95.5,-363.2 95.5,-382.2 122.5,-382.2 122.5,-363.2 95.5,-363.2"/>
<polygon fill="none" stroke="#000000" points="95.5,-363.2 95.5,-382.2 122.5,-382.2 122.5,-363.2 95.5,-363.2"/>
<text text-anchor="start" x="103.9053" y="-369.3" font-family="Helvetica,sans-Serif" font-size="11.00" fill="#000000">2 &gt;</text>
</a>
</g>
</g>
<!-- crn_al_DataCore&#45;&gt;crn_amsID -->
<g id="edge1" class="edge">
<title>crn_al_DataCore:w&#45;&gt;crn_amsID:e</title>
<path fill="none" stroke="#000000" d="M171.7327,-551.4902C128.1643,-531.8587 185.9628,-412.2 122.5,-412.2"/>
<polygon fill="#000000" stroke="#000000" points="178.1405,-552.7072 185.3282,-557.7368 182.0703,-553.4536 186,-554.2 186,-554.2 186,-554.2 182.0703,-553.4536 186.6718,-550.6632 178.1405,-552.7072 178.1405,-552.7072"/>
<ellipse fill="none" stroke="#000000" cx="174.9967" cy="-552.11" rx="3.2" ry="3.2"/>
</g>
<!-- crn_alstndID -->
<g id="node3" class="node">
<title>crn_alstndID</title>
<g id="a_node3"><a xlink:href="../../tables/crn_alstndID.html" xlink:title="crn_alstndID" target="_top">
<polygon fill="#ffffff" stroke="transparent" points="16,-467.7 16,-550.7 127,-550.7 127,-467.7 16,-467.7"/>
<polygon fill="#f5f5f5" stroke="transparent" points="16.5,-527.2 16.5,-550.2 127.5,-550.2 127.5,-527.2 16.5,-527.2"/>
<polygon fill="none" stroke="#000000" points="16.5,-527.2 16.5,-550.2 127.5,-550.2 127.5,-527.2 16.5,-527.2"/>
<text text-anchor="start" x="21.5" y="-535.8" font-family="Helvetica,sans-Serif" font-weight="bold" font-size="11.00" fill="#000000">crn_alstndID</text>
<text text-anchor="start" x="93.0219" y="-535.3" font-family="Helvetica,sans-Serif" font-size="11.00" fill="#000000">[table]</text>
<polygon fill="none" stroke="#000000" points="16.5,-505.2 16.5,-527.2 127.5,-527.2 127.5,-505.2 16.5,-505.2"/>
<image xlink:href="../../images/primaryKeys.png" width="11px" height="12px" preserveAspectRatio="xMinYMin meet" x="21.5" y="-522.2"/>
<text text-anchor="start" x="40.5" y="-512.3" font-family="Helvetica,sans-Serif" font-size="11.00" fill="#000000">ALSTNDID</text>
<polygon fill="none" stroke="#000000" points="16.5,-486.2 16.5,-505.2 127.5,-505.2 127.5,-486.2 16.5,-486.2"/>
<text text-anchor="start" x="19.5" y="-492.3" font-family="Helvetica,sans-Serif" font-size="11.00" fill="#000000">...</text>
<polygon fill="#ffffff" stroke="transparent" points="16.5,-467.2 16.5,-486.2 45.5,-486.2 45.5,-467.2 16.5,-467.2"/>
<polygon fill="none" stroke="#000000" points="16.5,-467.2 16.5,-486.2 45.5,-486.2 45.5,-467.2 16.5,-467.2"/>
<text text-anchor="start" x="19.5" y="-473.3" font-family="Helvetica,sans-Serif" font-size="11.00" fill="#000000"> &#160;</text>
<polygon fill="#ffffff" stroke="transparent" points="45.5,-467.2 45.5,-486.2 97.5,-486.2 97.5,-467.2 45.5,-467.2"/>
<polygon fill="none" stroke="#000000" points="45.5,-467.2 45.5,-486.2 97.5,-486.2 97.5,-467.2 45.5,-467.2"/>
<text text-anchor="start" x="55.9956" y="-473.3" font-family="Helvetica,sans-Serif" font-size="11.00" fill="#000000">26 rows</text>
<polygon fill="#ffffff" stroke="transparent" points="97.5,-467.2 97.5,-486.2 127.5,-486.2 127.5,-467.2 97.5,-467.2"/>
<polygon fill="none" stroke="#000000" points="97.5,-467.2 97.5,-486.2 127.5,-486.2 127.5,-467.2 97.5,-467.2"/>
<text text-anchor="start" x="108.9053" y="-473.3" font-family="Helvetica,sans-Serif" font-size="11.00" fill="#000000">2 &gt;</text>
</a>
</g>
</g>
<!-- crn_al_DataCore&#45;&gt;crn_alstndID -->
<g id="edge2" class="edge">
<title>crn_al_DataCore:w&#45;&gt;crn_alstndID:e</title>
<path fill="none" stroke="#000000" d="M172.0346,-572.2632C152.4527,-558.9148 158.9246,-516.2 127.5,-516.2"/>
<polygon fill="#000000" stroke="#000000" points="178.3001,-574.0294 185.0232,-579.665 182.15,-575.1147 186,-576.2 186,-576.2 186,-576.2 182.15,-575.1147 186.9768,-572.735 178.3001,-574.0294 178.3001,-574.0294"/>
<ellipse fill="none" stroke="#000000" cx="175.2201" cy="-573.1612" rx="3.2" ry="3.2"/>
</g>
<!-- global_RefCore -->
<g id="node4" class="node">
<title>global_RefCore</title>
<g id="a_node4"><a xlink:href="../../tables/global_RefCore.html" xlink:title="global_RefCore" target="_top">
<polygon fill="#ffffff" stroke="transparent" points="8,-571.7 8,-720.7 135,-720.7 135,-571.7 8,-571.7"/>
<polygon fill="#f5f5f5" stroke="transparent" points="8.5,-697.2 8.5,-720.2 135.5,-720.2 135.5,-697.2 8.5,-697.2"/>
<polygon fill="none" stroke="#000000" points="8.5,-697.2 8.5,-720.2 135.5,-720.2 135.5,-697.2 8.5,-697.2"/>
<text text-anchor="start" x="13.5" y="-705.8" font-family="Helvetica,sans-Serif" font-weight="bold" font-size="11.00" fill="#000000">global_RefCore</text>
<text text-anchor="start" x="101.0219" y="-705.3" font-family="Helvetica,sans-Serif" font-size="11.00" fill="#000000">[table]</text>
<polygon fill="none" stroke="#000000" points="8.5,-675.2 8.5,-697.2 135.5,-697.2 135.5,-675.2 8.5,-675.2"/>
<image xlink:href="../../images/primaryKeys.png" width="11px" height="12px" preserveAspectRatio="xMinYMin meet" x="13.5" y="-692.2"/>
<text text-anchor="start" x="37.5" y="-682.3" font-family="Helvetica,sans-Serif" font-size="11.00" fill="#000000">REFDBID</text>
<polygon fill="none" stroke="#000000" points="8.5,-653.2 8.5,-675.2 135.5,-675.2 135.5,-653.2 8.5,-653.2"/>
<image xlink:href="../../images/foreignKeys.png" width="11px" height="12px" preserveAspectRatio="xMinYMin meet" x="13.5" y="-670.2"/>
<text text-anchor="start" x="37.5" y="-660.3" font-family="Helvetica,sans-Serif" font-size="11.00" fill="#000000">OAID</text>
<polygon fill="none" stroke="#000000" points="8.5,-631.2 8.5,-653.2 135.5,-653.2 135.5,-631.2 8.5,-631.2"/>
<image xlink:href="../../images/foreignKeys.png" width="11px" height="12px" preserveAspectRatio="xMinYMin meet" x="13.5" y="-648.2"/>
<text text-anchor="start" x="37.5" y="-638.3" font-family="Helvetica,sans-Serif" font-size="11.00" fill="#000000">PUBTYPEID</text>
<polygon fill="none" stroke="#000000" points="8.5,-609.2 8.5,-631.2 135.5,-631.2 135.5,-609.2 8.5,-609.2"/>
<image xlink:href="../../images/foreignKeys.png" width="11px" height="12px" preserveAspectRatio="xMinYMin meet" x="13.5" y="-626.2"/>
<text text-anchor="start" x="37.5" y="-616.3" font-family="Helvetica,sans-Serif" font-size="11.00" fill="#000000">JOURNALID</text>
<polygon fill="none" stroke="#000000" points="8.5,-590.2 8.5,-609.2 135.5,-609.2 135.5,-590.2 8.5,-590.2"/>
<text text-anchor="start" x="11.5" y="-596.3" font-family="Helvetica,sans-Serif" font-size="11.00" fill="#000000">...</text>
<polygon fill="#ffffff" stroke="transparent" points="8.5,-571.2 8.5,-590.2 39.5,-590.2 39.5,-571.2 8.5,-571.2"/>
<polygon fill="none" stroke="#000000" points="8.5,-571.2 8.5,-590.2 39.5,-590.2 39.5,-571.2 8.5,-571.2"/>
<text text-anchor="start" x="11.5" y="-577.3" font-family="Helvetica,sans-Serif" font-size="11.00" fill="#000000">&lt; 5</text>
<polygon fill="#ffffff" stroke="transparent" points="39.5,-571.2 39.5,-590.2 103.5,-590.2 103.5,-571.2 39.5,-571.2"/>
<polygon fill="none" stroke="#000000" points="39.5,-571.2 39.5,-590.2 103.5,-590.2 103.5,-571.2 39.5,-571.2"/>
<text text-anchor="start" x="46.7089" y="-577.3" font-family="Helvetica,sans-Serif" font-size="11.00" fill="#000000">3.958 rows</text>
<polygon fill="#ffffff" stroke="transparent" points="103.5,-571.2 103.5,-590.2 135.5,-590.2 135.5,-571.2 103.5,-571.2"/>
<polygon fill="none" stroke="#000000" points="103.5,-571.2 103.5,-590.2 135.5,-590.2 135.5,-571.2 103.5,-571.2"/>
<text text-anchor="start" x="110.7904" y="-577.3" font-family="Helvetica,sans-Serif" font-size="11.00" fill="#000000">37 &gt;</text>
</a>
</g>
</g>
<!-- crn_al_DataCore&#45;&gt;global_RefCore -->
<g id="edge3" class="edge">
<title>crn_al_DataCore:w&#45;&gt;global_RefCore:e</title>
<path fill="none" stroke="#000000" d="M171.4203,-686.2C159.5435,-686.2 152.158,-686.2 135.5,-686.2"/>
<polygon fill="#000000" stroke="#000000" points="178,-686.2001 186,-689.8 182,-686.2 186,-686.2 186,-686.2 186,-686.2 182,-686.2 186,-682.6 178,-686.2001 178,-686.2001"/>
<ellipse fill="none" stroke="#000000" cx="174.8" cy="-686.2001" rx="3.2" ry="3.2"/>
</g>
<!-- crn_Sample -->
<g id="node5" class="node">
<title>crn_Sample</title>
<g id="a_node5"><a xlink:href="../../tables/crn_Sample.html" xlink:title="crn_Sample" target="_top">
<polygon fill="#ffffff" stroke="transparent" points="18,-889.7 18,-1038.7 125,-1038.7 125,-889.7 18,-889.7"/>
<polygon fill="#f5f5f5" stroke="transparent" points="18.5,-1015.2 18.5,-1038.2 125.5,-1038.2 125.5,-1015.2 18.5,-1015.2"/>
<polygon fill="none" stroke="#000000" points="18.5,-1015.2 18.5,-1038.2 125.5,-1038.2 125.5,-1015.2 18.5,-1015.2"/>
<text text-anchor="start" x="23.5" y="-1023.8" font-family="Helvetica,sans-Serif" font-weight="bold" font-size="11.00" fill="#000000">crn_Sample</text>
<text text-anchor="start" x="91.0219" y="-1023.3" font-family="Helvetica,sans-Serif" font-size="11.00" fill="#000000">[table]</text>
<polygon fill="none" stroke="#000000" points="18.5,-993.2 18.5,-1015.2 125.5,-1015.2 125.5,-993.2 18.5,-993.2"/>
<image xlink:href="../../images/primaryKeys.png" width="11px" height="12px" preserveAspectRatio="xMinYMin meet" x="23.5" y="-1010.2"/>
<text text-anchor="start" x="41.5" y="-1000.3" font-family="Helvetica,sans-Serif" font-size="11.00" fill="#000000">SMPID</text>
<polygon fill="none" stroke="#000000" points="18.5,-971.2 18.5,-993.2 125.5,-993.2 125.5,-971.2 18.5,-971.2"/>
<image xlink:href="../../images/foreignKeys.png" width="11px" height="12px" preserveAspectRatio="xMinYMin meet" x="23.5" y="-988.2"/>
<text text-anchor="start" x="41.5" y="-978.3" font-family="Helvetica,sans-Serif" font-size="11.00" fill="#000000">SITEID</text>
<polygon fill="none" stroke="#000000" points="18.5,-949.2 18.5,-971.2 125.5,-971.2 125.5,-949.2 18.5,-949.2"/>
<image xlink:href="../../images/foreignKeys.png" width="11px" height="12px" preserveAspectRatio="xMinYMin meet" x="23.5" y="-966.2"/>
<text text-anchor="start" x="41.5" y="-956.3" font-family="Helvetica,sans-Serif" font-size="11.00" fill="#000000">MATERIAL</text>
<polygon fill="none" stroke="#000000" points="18.5,-927.2 18.5,-949.2 125.5,-949.2 125.5,-927.2 18.5,-927.2"/>
<image xlink:href="../../images/foreignKeys.png" width="11px" height="12px" preserveAspectRatio="xMinYMin meet" x="23.5" y="-944.2"/>
<text text-anchor="start" x="41.5" y="-934.3" font-family="Helvetica,sans-Serif" font-size="11.00" fill="#000000">PROJEPSGID</text>
<polygon fill="none" stroke="#000000" points="18.5,-908.2 18.5,-927.2 125.5,-927.2 125.5,-908.2 18.5,-908.2"/>
<text text-anchor="start" x="21.5" y="-914.3" font-family="Helvetica,sans-Serif" font-size="11.00" fill="#000000">...</text>
<polygon fill="#ffffff" stroke="transparent" points="18.5,-889.2 18.5,-908.2 42.5,-908.2 42.5,-889.2 18.5,-889.2"/>
<polygon fill="none" stroke="#000000" points="18.5,-889.2 18.5,-908.2 42.5,-908.2 42.5,-889.2 18.5,-889.2"/>
<text text-anchor="start" x="21.5" y="-895.3" font-family="Helvetica,sans-Serif" font-size="11.00" fill="#000000">&lt; 3</text>
<polygon fill="#ffffff" stroke="transparent" points="42.5,-889.2 42.5,-908.2 102.5,-908.2 102.5,-889.2 42.5,-889.2"/>
<polygon fill="none" stroke="#000000" points="42.5,-889.2 42.5,-908.2 102.5,-908.2 102.5,-889.2 42.5,-889.2"/>
<text text-anchor="start" x="45.7089" y="-895.3" font-family="Helvetica,sans-Serif" font-size="11.00" fill="#000000">6.039 rows</text>
<polygon fill="#ffffff" stroke="transparent" points="102.5,-889.2 102.5,-908.2 125.5,-908.2 125.5,-889.2 102.5,-889.2"/>
<polygon fill="none" stroke="#000000" points="102.5,-889.2 102.5,-908.2 125.5,-908.2 125.5,-889.2 102.5,-889.2"/>
<text text-anchor="start" x="106.9053" y="-895.3" font-family="Helvetica,sans-Serif" font-size="11.00" fill="#000000">2 &gt;</text>
</a>
</g>
</g>
<!-- crn_al_DataCore&#45;&gt;crn_Sample -->
<g id="edge4" class="edge">
<title>crn_al_DataCore:w&#45;&gt;crn_Sample:e</title>
<path fill="none" stroke="#000000" d="M171.3435,-776.0514C95.502,-797.8182 225.6256,-1004.2 125.5,-1004.2"/>
<polygon fill="#000000" stroke="#000000" points="178.0631,-775.2026 186.4512,-777.7716 182.0315,-774.7013 186,-774.2 186,-774.2 186,-774.2 182.0315,-774.7013 185.5488,-770.6284 178.0631,-775.2026 178.0631,-775.2026"/>
<ellipse fill="none" stroke="#000000" cx="174.8883" cy="-775.6037" rx="3.2" ry="3.2"/>
</g>
<!-- global_dbDOI -->
<g id="node6" class="node">
<title>global_dbDOI</title>
<g id="a_node6"><a xlink:href="../../tables/global_dbDOI.html" xlink:title="global_dbDOI" target="_top">
<polygon fill="#ffffff" stroke="transparent" points="13,-741.7 13,-868.7 130,-868.7 130,-741.7 13,-741.7"/>
<polygon fill="#f5f5f5" stroke="transparent" points="13.5,-845.2 13.5,-868.2 130.5,-868.2 130.5,-845.2 13.5,-845.2"/>
<polygon fill="none" stroke="#000000" points="13.5,-845.2 13.5,-868.2 130.5,-868.2 130.5,-845.2 13.5,-845.2"/>
<text text-anchor="start" x="18.5" y="-853.8" font-family="Helvetica,sans-Serif" font-weight="bold" font-size="11.00" fill="#000000">global_dbDOI</text>
<text text-anchor="start" x="96.0219" y="-853.3" font-family="Helvetica,sans-Serif" font-size="11.00" fill="#000000">[table]</text>
<polygon fill="none" stroke="#000000" points="13.5,-823.2 13.5,-845.2 130.5,-845.2 130.5,-823.2 13.5,-823.2"/>
<image xlink:href="../../images/primaryKeys.png" width="11px" height="12px" preserveAspectRatio="xMinYMin meet" x="18.5" y="-840.2"/>
<text text-anchor="start" x="40.5" y="-830.3" font-family="Helvetica,sans-Serif" font-size="11.00" fill="#000000">VERID</text>
<polygon fill="none" stroke="#000000" points="13.5,-801.2 13.5,-823.2 130.5,-823.2 130.5,-801.2 13.5,-801.2"/>
<image xlink:href="../../images/foreignKeys.png" width="11px" height="12px" preserveAspectRatio="xMinYMin meet" x="18.5" y="-818.2"/>
<text text-anchor="start" x="40.5" y="-808.3" font-family="Helvetica,sans-Serif" font-size="11.00" fill="#000000">OBSOLETES</text>
<polygon fill="none" stroke="#000000" points="13.5,-779.2 13.5,-801.2 130.5,-801.2 130.5,-779.2 13.5,-779.2"/>
<image xlink:href="../../images/foreignKeys.png" width="11px" height="12px" preserveAspectRatio="xMinYMin meet" x="18.5" y="-796.2"/>
<text text-anchor="start" x="40.5" y="-786.3" font-family="Helvetica,sans-Serif" font-size="11.00" fill="#000000">OBSOLTD_BY</text>
<polygon fill="none" stroke="#000000" points="13.5,-760.2 13.5,-779.2 130.5,-779.2 130.5,-760.2 13.5,-760.2"/>
<text text-anchor="start" x="16.5" y="-766.3" font-family="Helvetica,sans-Serif" font-size="11.00" fill="#000000">...</text>
<polygon fill="#ffffff" stroke="transparent" points="13.5,-741.2 13.5,-760.2 46.5,-760.2 46.5,-741.2 13.5,-741.2"/>
<polygon fill="none" stroke="#000000" points="13.5,-741.2 13.5,-760.2 46.5,-760.2 46.5,-741.2 13.5,-741.2"/>
<text text-anchor="start" x="16.5" y="-747.3" font-family="Helvetica,sans-Serif" font-size="11.00" fill="#000000">&lt; 2</text>
<polygon fill="#ffffff" stroke="transparent" points="46.5,-741.2 46.5,-760.2 96.5,-760.2 96.5,-741.2 46.5,-741.2"/>
<polygon fill="none" stroke="#000000" points="46.5,-741.2 46.5,-760.2 96.5,-760.2 96.5,-741.2 46.5,-741.2"/>
<text text-anchor="start" x="54.9956" y="-747.3" font-family="Helvetica,sans-Serif" font-size="11.00" fill="#000000">34 rows</text>
<polygon fill="#ffffff" stroke="transparent" points="96.5,-741.2 96.5,-760.2 130.5,-760.2 130.5,-741.2 96.5,-741.2"/>
<polygon fill="none" stroke="#000000" points="96.5,-741.2 96.5,-760.2 130.5,-760.2 130.5,-741.2 96.5,-741.2"/>
<text text-anchor="start" x="105.7904" y="-747.3" font-family="Helvetica,sans-Serif" font-size="11.00" fill="#000000">11 &gt;</text>
</a>
</g>
</g>
<!-- crn_al_DataCore&#45;&gt;global_dbDOI -->
<g id="edge5" class="edge">
<title>crn_al_DataCore:w&#45;&gt;global_dbDOI:e</title>
<path fill="none" stroke="#000000" d="M171.4984,-711.5702C136.6499,-731.6077 185.7161,-834.2 130.5,-834.2"/>
<polygon fill="#000000" stroke="#000000" points="178.2077,-710.011 186.8149,-711.7066 182.1038,-709.1055 186,-708.2 186,-708.2 186,-708.2 182.1038,-709.1055 185.1851,-704.6934 178.2077,-710.011 178.2077,-710.011"/>
<ellipse fill="none" stroke="#000000" cx="175.0907" cy="-710.7354" rx="3.2" ry="3.2"/>
</g>
<!-- crn_v3_basins_EPSG3857 -->
<g id="node7" class="node">
<title>crn_v3_basins_EPSG3857</title>
<g id="a_node7"><a xlink:href="../../tables/crn_v3_basins_EPSG3857.html" xlink:title="crn_v3_basins_EPSG3857" target="_top">
<polygon fill="#ffffff" stroke="transparent" points="445.5,-810.7 445.5,-959.7 634.5,-959.7 634.5,-810.7 445.5,-810.7"/>
<polygon fill="#f5f5f5" stroke="transparent" points="446,-936.2 446,-959.2 635,-959.2 635,-936.2 446,-936.2"/>
<polygon fill="none" stroke="#000000" points="446,-936.2 446,-959.2 635,-959.2 635,-936.2 446,-936.2"/>
<text text-anchor="start" x="451" y="-944.8" font-family="Helvetica,sans-Serif" font-weight="bold" font-size="11.00" fill="#000000">crn_v3_basins_EPSG3857</text>
<text text-anchor="start" x="600.5219" y="-944.3" font-family="Helvetica,sans-Serif" font-size="11.00" fill="#000000">[table]</text>
<polygon fill="none" stroke="#000000" points="446,-914.2 446,-936.2 635,-936.2 635,-914.2 446,-914.2"/>
<image xlink:href="../../images/primaryKeys.png" width="11px" height="12px" preserveAspectRatio="xMinYMin meet" x="451" y="-931.2"/>
<text text-anchor="start" x="475" y="-921.3" font-family="Helvetica,sans-Serif" font-size="11.00" fill="#000000">id</text>
<polygon fill="#ffffff" stroke="transparent" points="446,-892.2 446,-914.2 635,-914.2 635,-892.2 446,-892.2"/>
<polygon fill="none" stroke="#000000" points="446,-892.2 446,-914.2 635,-914.2 635,-892.2 446,-892.2"/>
<text text-anchor="start" x="475" y="-899.3" font-family="Helvetica,sans-Serif" font-size="11.00" fill="#000000">geom</text>
<polygon fill="#ffffff" stroke="transparent" points="446,-870.2 446,-892.2 635,-892.2 635,-870.2 446,-870.2"/>
<polygon fill="none" stroke="#000000" points="446,-870.2 446,-892.2 635,-892.2 635,-870.2 446,-870.2"/>
<image xlink:href="../../images/foreignKeys.png" width="11px" height="12px" preserveAspectRatio="xMinYMin meet" x="451" y="-887.2"/>
<text text-anchor="start" x="475" y="-877.3" font-family="Helvetica,sans-Serif" font-size="11.00" fill="#000000">OBSID1</text>
<polygon fill="none" stroke="#000000" points="446,-848.2 446,-870.2 635,-870.2 635,-848.2 446,-848.2"/>
<image xlink:href="../../images/foreignKeys.png" width="11px" height="12px" preserveAspectRatio="xMinYMin meet" x="451" y="-865.2"/>
<text text-anchor="start" x="475" y="-855.3" font-family="Helvetica,sans-Serif" font-size="11.00" fill="#000000">STUDYID</text>
<polygon fill="none" stroke="#000000" points="446,-829.2 446,-848.2 635,-848.2 635,-829.2 446,-829.2"/>
<text text-anchor="start" x="449" y="-835.3" font-family="Helvetica,sans-Serif" font-size="11.00" fill="#000000">...</text>
<polygon fill="#ffffff" stroke="transparent" points="446,-810.2 446,-829.2 515,-829.2 515,-810.2 446,-810.2"/>
<polygon fill="none" stroke="#000000" points="446,-810.2 446,-829.2 515,-829.2 515,-810.2 446,-810.2"/>
<text text-anchor="start" x="449" y="-816.3" font-family="Helvetica,sans-Serif" font-size="11.00" fill="#000000">&lt; 3</text>
<polygon fill="#ffffff" stroke="transparent" points="515,-810.2 515,-829.2 598,-829.2 598,-810.2 515,-810.2"/>
<polygon fill="none" stroke="#000000" points="515,-810.2 515,-829.2 598,-829.2 598,-810.2 515,-810.2"/>
<text text-anchor="start" x="541.2089" y="-816.3" font-family="Helvetica,sans-Serif" font-size="11.00" fill="#000000">6.091 rows</text>
<polygon fill="#ffffff" stroke="transparent" points="598,-810.2 598,-829.2 635,-829.2 635,-810.2 598,-810.2"/>
<polygon fill="none" stroke="#000000" points="598,-810.2 598,-829.2 635,-829.2 635,-810.2 598,-810.2"/>
<text text-anchor="start" x="625.8862" y="-816.3" font-family="Helvetica,sans-Serif" font-size="11.00" fill="#000000"> &#160;</text>
</a>
</g>
</g>
<!-- crn_v3_basins_EPSG3857&#45;&gt;crn_al_DataCore -->
<g id="edge6" class="edge">
<title>crn_v3_basins_EPSG3857:w&#45;&gt;crn_al_DataCore:e</title>
<path fill="none" stroke="#000000" d="M435.5432,-879.0989C407.8603,-866.0096 434.1345,-796.2 394,-796.2"/>
<polygon fill="#000000" stroke="#000000" points="446.0037,-877.1208 444.4277,-884.964 442.859,-884.6488 444.4351,-876.8056 446.0037,-877.1208"/>
<polyline fill="none" stroke="#000000" points="446,-881.2 442.0784,-880.412 "/>
<ellipse fill="none" stroke="#000000" cx="438.9411" cy="-879.7816" rx="3.2" ry="3.2"/>
</g>
<!-- crn_v3_outlets_EPSG3857 -->
<g id="node8" class="node">
<title>crn_v3_outlets_EPSG3857</title>
<g id="a_node8"><a xlink:href="../../tables/crn_v3_outlets_EPSG3857.html" xlink:title="crn_v3_outlets_EPSG3857" target="_top">
<polygon fill="#ffffff" stroke="transparent" points="445,-640.7 445,-789.7 635,-789.7 635,-640.7 445,-640.7"/>
<polygon fill="#f5f5f5" stroke="transparent" points="445,-766.2 445,-789.2 635,-789.2 635,-766.2 445,-766.2"/>
<polygon fill="none" stroke="#000000" points="445,-766.2 445,-789.2 635,-789.2 635,-766.2 445,-766.2"/>
<text text-anchor="start" x="450" y="-774.8" font-family="Helvetica,sans-Serif" font-weight="bold" font-size="11.00" fill="#000000">crn_v3_outlets_EPSG3857</text>
<text text-anchor="start" x="600.5219" y="-774.3" font-family="Helvetica,sans-Serif" font-size="11.00" fill="#000000">[table]</text>
<polygon fill="none" stroke="#000000" points="445,-744.2 445,-766.2 635,-766.2 635,-744.2 445,-744.2"/>
<image xlink:href="../../images/primaryKeys.png" width="11px" height="12px" preserveAspectRatio="xMinYMin meet" x="450" y="-761.2"/>
<text text-anchor="start" x="474" y="-751.3" font-family="Helvetica,sans-Serif" font-size="11.00" fill="#000000">id</text>
<polygon fill="#ffffff" stroke="transparent" points="445,-722.2 445,-744.2 635,-744.2 635,-722.2 445,-722.2"/>
<polygon fill="none" stroke="#000000" points="445,-722.2 445,-744.2 635,-744.2 635,-722.2 445,-722.2"/>
<text text-anchor="start" x="474" y="-729.3" font-family="Helvetica,sans-Serif" font-size="11.00" fill="#000000">geom</text>
<polygon fill="none" stroke="#000000" points="445,-700.2 445,-722.2 635,-722.2 635,-700.2 445,-700.2"/>
<image xlink:href="../../images/primaryKeys.png" width="11px" height="12px" preserveAspectRatio="xMinYMin meet" x="450" y="-717.2"/>
<text text-anchor="start" x="474" y="-707.3" font-family="Helvetica,sans-Serif" font-size="11.00" fill="#000000">OBSID1</text>
<polygon fill="none" stroke="#000000" points="445,-678.2 445,-700.2 635,-700.2 635,-678.2 445,-678.2"/>
<image xlink:href="../../images/foreignKeys.png" width="11px" height="12px" preserveAspectRatio="xMinYMin meet" x="450" y="-695.2"/>
<text text-anchor="start" x="474" y="-685.3" font-family="Helvetica,sans-Serif" font-size="11.00" fill="#000000">STUDYID</text>
<polygon fill="none" stroke="#000000" points="445,-659.2 445,-678.2 635,-678.2 635,-659.2 445,-659.2"/>
<text text-anchor="start" x="448" y="-665.3" font-family="Helvetica,sans-Serif" font-size="11.00" fill="#000000">...</text>
<polygon fill="#ffffff" stroke="transparent" points="445,-640.2 445,-659.2 515,-659.2 515,-640.2 445,-640.2"/>
<polygon fill="none" stroke="#000000" points="445,-640.2 445,-659.2 515,-659.2 515,-640.2 445,-640.2"/>
<text text-anchor="start" x="448" y="-646.3" font-family="Helvetica,sans-Serif" font-size="11.00" fill="#000000">&lt; 3</text>
<polygon fill="#ffffff" stroke="transparent" points="515,-640.2 515,-659.2 598,-659.2 598,-640.2 515,-640.2"/>
<polygon fill="none" stroke="#000000" points="515,-640.2 515,-659.2 598,-659.2 598,-640.2 515,-640.2"/>
<text text-anchor="start" x="541.2089" y="-646.3" font-family="Helvetica,sans-Serif" font-size="11.00" fill="#000000">6.091 rows</text>
<polygon fill="#ffffff" stroke="transparent" points="598,-640.2 598,-659.2 635,-659.2 635,-640.2 598,-640.2"/>
<polygon fill="none" stroke="#000000" points="598,-640.2 598,-659.2 635,-659.2 635,-640.2 598,-640.2"/>
<text text-anchor="start" x="625.8862" y="-646.3" font-family="Helvetica,sans-Serif" font-size="11.00" fill="#000000"> &#160;</text>
</a>
</g>
</g>
<!-- crn_v3_outlets_EPSG3857&#45;&gt;crn_al_DataCore -->
<g id="edge7" class="edge">
<title>crn_v3_outlets_EPSG3857:w&#45;&gt;crn_al_DataCore:e</title>
<path fill="none" stroke="#000000" d="M434.6156,-713.3011C407.1891,-726.3904 433.9258,-796.2 394,-796.2"/>
<polygon fill="#000000" stroke="#000000" points="443.4226,-707.4381 445.0092,-715.2792 443.441,-715.5965 441.8544,-707.7554 443.4226,-707.4381"/>
<polyline fill="none" stroke="#000000" points="445,-711.2 441.0794,-711.9933 "/>
<ellipse fill="none" stroke="#000000" cx="437.943" cy="-712.6279" rx="3.2" ry="3.2"/>
</g>
</g>
</svg>
