<?xml version="1.0" encoding="UTF-8" standalone="no"?>
<!DOCTYPE svg PUBLIC "-//W3C//DTD SVG 1.1//EN"
 "http://www.w3.org/Graphics/SVG/1.1/DTD/svg11.dtd">
<!-- Generated by graphviz version 2.40.1 (20161225.0304)
 -->
<!-- Title: oneDegreeRelationshipsDiagramImplied Pages: 1 -->
<svg width="727pt" height="369pt"
 viewBox="0.00 0.00 727.00 369.20" xmlns="http://www.w3.org/2000/svg" xmlns:xlink="http://www.w3.org/1999/xlink">
<g id="graph0" class="graph" transform="scale(1 1) rotate(0) translate(4 365.2)">
<title>oneDegreeRelationshipsDiagramImplied</title>
<polygon fill="#ffffff" stroke="transparent" points="-4,4 -4,-365.2 723,-365.2 723,4 -4,4"/>
<text text-anchor="middle" x="72.4936" y="-7.3" font-family="Helvetica,sans-Serif" font-size="11.00" fill="#000000">Generated by SchemaSpy</text>
<!-- crn_studies_boundingbox -->
<g id="node1" class="node">
<title>crn_studies_boundingbox</title>
<g id="a_node1"><a xlink:href="../../tables/crn_studies_boundingbox.html" xlink:title="crn_studies_boundingbox" target="_top">
<polygon fill="#ffffff" stroke="transparent" points="178,-95.7 178,-251.7 472,-251.7 472,-95.7 178,-95.7"/>
<polygon fill="#f5f5f5" stroke="transparent" points="180,-226.7 180,-249.7 470,-249.7 470,-226.7 180,-226.7"/>
<polygon fill="none" stroke="#000000" points="180,-226.7 180,-249.7 470,-249.7 470,-226.7 180,-226.7"/>
<text text-anchor="start" x="185" y="-235.3" font-family="Helvetica,sans-Serif" font-weight="bold" font-size="11.00" fill="#000000">crn_studies_boundingbox</text>
<text text-anchor="start" x="435.0437" y="-234.8" font-family="Helvetica,sans-Serif" font-size="11.00" fill="#000000">[table]</text>
<polygon fill="none" stroke="#000000" points="180,-204.7 180,-226.7 351,-226.7 351,-204.7 180,-204.7"/>
<image xlink:href="../../images/primaryKeys.png" width="11px" height="12px" preserveAspectRatio="xMinYMin meet" x="185" y="-221.7"/>
<text text-anchor="start" x="200" y="-211.8" font-family="Helvetica,sans-Serif" font-size="11.00" fill="#000000">id</text>
<polygon fill="none" stroke="#000000" points="351,-204.7 351,-226.7 470,-226.7 470,-204.7 351,-204.7"/>
<text text-anchor="start" x="354" y="-212.4" font-family="Helvetica,sans-Serif" font-size="11.00" fill="#000000">serial[10]</text>
<polygon fill="#ffffff" stroke="transparent" points="180,-182.7 180,-204.7 351,-204.7 351,-182.7 180,-182.7"/>
<polygon fill="none" stroke="#000000" points="180,-182.7 180,-204.7 351,-204.7 351,-182.7 180,-182.7"/>
<text text-anchor="start" x="200" y="-189.8" font-family="Helvetica,sans-Serif" font-size="11.00" fill="#000000">geom</text>
<polygon fill="none" stroke="#000000" points="351,-182.7 351,-204.7 470,-204.7 470,-182.7 351,-182.7"/>
<text text-anchor="start" x="353.9485" y="-190.4" font-family="Helvetica,sans-Serif" font-size="11.00" fill="#000000">geometry[2147483647]</text>
<polygon fill="#ffffff" stroke="transparent" points="180,-160.7 180,-182.7 351,-182.7 351,-160.7 180,-160.7"/>
<polygon fill="none" stroke="#000000" points="180,-160.7 180,-182.7 351,-182.7 351,-160.7 180,-160.7"/>
<image xlink:href="../../images/foreignKeys.png" width="11px" height="12px" preserveAspectRatio="xMinYMin meet" x="185" y="-177.7"/>
<text text-anchor="start" x="200" y="-167.8" font-family="Helvetica,sans-Serif" font-size="11.00" fill="#000000">STUDYID</text>
<polygon fill="none" stroke="#000000" points="351,-160.7 351,-182.7 470,-182.7 470,-160.7 351,-160.7"/>
<text text-anchor="start" x="354" y="-168.4" font-family="Helvetica,sans-Serif" font-size="11.00" fill="#000000">varchar[5]</text>
<polygon fill="none" stroke="#000000" points="180,-138.7 180,-160.7 351,-160.7 351,-138.7 180,-138.7"/>
<text text-anchor="start" x="200" y="-145.8" font-family="Helvetica,sans-Serif" font-size="11.00" fill="#000000">CREATED_AT</text>
<polygon fill="none" stroke="#000000" points="351,-138.7 351,-160.7 470,-160.7 470,-138.7 351,-138.7"/>
<text text-anchor="start" x="354" y="-146.4" font-family="Helvetica,sans-Serif" font-size="11.00" fill="#000000">timestamptz[35,6]</text>
<polygon fill="none" stroke="#000000" points="180,-116.7 180,-138.7 351,-138.7 351,-116.7 180,-116.7"/>
<text text-anchor="start" x="200" y="-123.8" font-family="Helvetica,sans-Serif" font-size="11.00" fill="#000000">UPDATED_AT</text>
<polygon fill="none" stroke="#000000" points="351,-116.7 351,-138.7 470,-138.7 470,-116.7 351,-116.7"/>
<text text-anchor="start" x="354" y="-124.4" font-family="Helvetica,sans-Serif" font-size="11.00" fill="#000000">timestamptz[35,6]</text>
<polygon fill="#ffffff" stroke="transparent" points="180,-97.7 180,-116.7 251,-116.7 251,-97.7 180,-97.7"/>
<polygon fill="none" stroke="#000000" points="180,-97.7 180,-116.7 251,-116.7 251,-97.7 180,-97.7"/>
<text text-anchor="start" x="183" y="-103.8" font-family="Helvetica,sans-Serif" font-size="11.00" fill="#000000">&lt; 1</text>
<polygon fill="#ffffff" stroke="transparent" points="251,-97.7 251,-116.7 351,-116.7 351,-97.7 251,-97.7"/>
<polygon fill="none" stroke="#000000" points="251,-97.7 251,-116.7 351,-116.7 351,-97.7 251,-97.7"/>
<text text-anchor="start" x="303.3807" y="-103.8" font-family="Helvetica,sans-Serif" font-size="11.00" fill="#000000">301 rows</text>
<polygon fill="#ffffff" stroke="transparent" points="351,-97.7 351,-116.7 470,-116.7 470,-97.7 351,-97.7"/>
<polygon fill="none" stroke="#000000" points="351,-97.7 351,-116.7 470,-116.7 470,-97.7 351,-97.7"/>
<text text-anchor="start" x="451.4053" y="-103.8" font-family="Helvetica,sans-Serif" font-size="11.00" fill="#000000">2 &gt;</text>
<polygon fill="none" stroke="#000000" stroke-width="2" points="179,-96.7 179,-250.7 471,-250.7 471,-96.7 179,-96.7"/>
</a>
</g>
</g>
<!-- crn_studynote -->
<g id="node2" class="node">
<title>crn_studynote</title>
<g id="a_node2"><a xlink:href="../../tables/crn_studynote.html" xlink:title="crn_studynote" target="_top">
<polygon fill="#ffffff" stroke="transparent" points="8,-123.2 8,-206.2 129,-206.2 129,-123.2 8,-123.2"/>
<polygon fill="#f5f5f5" stroke="transparent" points="8.5,-182.7 8.5,-205.7 129.5,-205.7 129.5,-182.7 8.5,-182.7"/>
<polygon fill="none" stroke="#000000" points="8.5,-182.7 8.5,-205.7 129.5,-205.7 129.5,-182.7 8.5,-182.7"/>
<text text-anchor="start" x="13.5" y="-191.3" font-family="Helvetica,sans-Serif" font-weight="bold" font-size="11.00" fill="#000000">crn_studynote</text>
<text text-anchor="start" x="95.0219" y="-190.8" font-family="Helvetica,sans-Serif" font-size="11.00" fill="#000000">[table]</text>
<polygon fill="none" stroke="#000000" points="8.5,-160.7 8.5,-182.7 129.5,-182.7 129.5,-160.7 8.5,-160.7"/>
<image xlink:href="../../images/primaryKeys.png" width="11px" height="12px" preserveAspectRatio="xMinYMin meet" x="13.5" y="-177.7"/>
<text text-anchor="start" x="37.5" y="-167.8" font-family="Helvetica,sans-Serif" font-size="11.00" fill="#000000">STUDYID</text>
<polygon fill="none" stroke="#000000" points="8.5,-141.7 8.5,-160.7 129.5,-160.7 129.5,-141.7 8.5,-141.7"/>
<text text-anchor="start" x="11.5" y="-147.8" font-family="Helvetica,sans-Serif" font-size="11.00" fill="#000000">...</text>
<polygon fill="#ffffff" stroke="transparent" points="8.5,-122.7 8.5,-141.7 39.5,-141.7 39.5,-122.7 8.5,-122.7"/>
<polygon fill="none" stroke="#000000" points="8.5,-122.7 8.5,-141.7 39.5,-141.7 39.5,-122.7 8.5,-122.7"/>
<text text-anchor="start" x="11.5" y="-128.8" font-family="Helvetica,sans-Serif" font-size="11.00" fill="#000000"> &#160;</text>
<polygon fill="#ffffff" stroke="transparent" points="39.5,-122.7 39.5,-141.7 98.5,-141.7 98.5,-122.7 39.5,-122.7"/>
<polygon fill="none" stroke="#000000" points="39.5,-122.7 39.5,-141.7 98.5,-141.7 98.5,-122.7 39.5,-122.7"/>
<text text-anchor="start" x="50.8807" y="-128.8" font-family="Helvetica,sans-Serif" font-size="11.00" fill="#000000">301 rows</text>
<polygon fill="#ffffff" stroke="transparent" points="98.5,-122.7 98.5,-141.7 129.5,-141.7 129.5,-122.7 98.5,-122.7"/>
<polygon fill="none" stroke="#000000" points="98.5,-122.7 98.5,-141.7 129.5,-141.7 129.5,-122.7 98.5,-122.7"/>
<text text-anchor="start" x="110.9053" y="-128.8" font-family="Helvetica,sans-Serif" font-size="11.00" fill="#000000">9 &gt;</text>
</a>
</g>
</g>
<!-- crn_studies_boundingbox&#45;&gt;crn_studynote -->
<g id="edge1" class="edge">
<title>crn_studies_boundingbox:w&#45;&gt;crn_studynote:e</title>
<path fill="none" stroke="#000000" stroke-dasharray="5,2" d="M169.3362,-171.7C154.9956,-171.7 147.9115,-171.7 129.5,-171.7"/>
<polygon fill="#000000" stroke="#000000" points="179.2,-167.7 179.2,-175.7 177.6,-175.7 177.6,-167.7 179.2,-167.7"/>
<polyline fill="none" stroke="#000000" points="180,-171.7 176,-171.7 "/>
<ellipse fill="none" stroke="#000000" cx="172.8" cy="-171.7001" rx="3.2" ry="3.2"/>
</g>
<!-- crn_v3_basins_EPSG3857 -->
<g id="node3" class="node">
<title>crn_v3_basins_EPSG3857</title>
<g id="a_node3"><a xlink:href="../../tables/crn_v3_basins_EPSG3857.html" xlink:title="crn_v3_basins_EPSG3857" target="_top">
<polygon fill="#ffffff" stroke="transparent" points="521.5,-208.2 521.5,-357.2 710.5,-357.2 710.5,-208.2 521.5,-208.2"/>
<polygon fill="#f5f5f5" stroke="transparent" points="522,-333.7 522,-356.7 711,-356.7 711,-333.7 522,-333.7"/>
<polygon fill="none" stroke="#000000" points="522,-333.7 522,-356.7 711,-356.7 711,-333.7 522,-333.7"/>
<text text-anchor="start" x="527" y="-342.3" font-family="Helvetica,sans-Serif" font-weight="bold" font-size="11.00" fill="#000000">crn_v3_basins_EPSG3857</text>
<text text-anchor="start" x="676.5219" y="-341.8" font-family="Helvetica,sans-Serif" font-size="11.00" fill="#000000">[table]</text>
<polygon fill="none" stroke="#000000" points="522,-311.7 522,-333.7 711,-333.7 711,-311.7 522,-311.7"/>
<image xlink:href="../../images/primaryKeys.png" width="11px" height="12px" preserveAspectRatio="xMinYMin meet" x="527" y="-328.7"/>
<text text-anchor="start" x="551" y="-318.8" font-family="Helvetica,sans-Serif" font-size="11.00" fill="#000000">id</text>
<polygon fill="#ffffff" stroke="transparent" points="522,-289.7 522,-311.7 711,-311.7 711,-289.7 522,-289.7"/>
<polygon fill="none" stroke="#000000" points="522,-289.7 522,-311.7 711,-311.7 711,-289.7 522,-289.7"/>
<text text-anchor="start" x="551" y="-296.8" font-family="Helvetica,sans-Serif" font-size="11.00" fill="#000000">geom</text>
<polygon fill="#ffffff" stroke="transparent" points="522,-267.7 522,-289.7 711,-289.7 711,-267.7 522,-267.7"/>
<polygon fill="none" stroke="#000000" points="522,-267.7 522,-289.7 711,-289.7 711,-267.7 522,-267.7"/>
<image xlink:href="../../images/foreignKeys.png" width="11px" height="12px" preserveAspectRatio="xMinYMin meet" x="527" y="-284.7"/>
<text text-anchor="start" x="551" y="-274.8" font-family="Helvetica,sans-Serif" font-size="11.00" fill="#000000">OBSID1</text>
<polygon fill="none" stroke="#000000" points="522,-245.7 522,-267.7 711,-267.7 711,-245.7 522,-245.7"/>
<image xlink:href="../../images/foreignKeys.png" width="11px" height="12px" preserveAspectRatio="xMinYMin meet" x="527" y="-262.7"/>
<text text-anchor="start" x="551" y="-252.8" font-family="Helvetica,sans-Serif" font-size="11.00" fill="#000000">STUDYID</text>
<polygon fill="none" stroke="#000000" points="522,-226.7 522,-245.7 711,-245.7 711,-226.7 522,-226.7"/>
<text text-anchor="start" x="525" y="-232.8" font-family="Helvetica,sans-Serif" font-size="11.00" fill="#000000">...</text>
<polygon fill="#ffffff" stroke="transparent" points="522,-207.7 522,-226.7 591,-226.7 591,-207.7 522,-207.7"/>
<polygon fill="none" stroke="#000000" points="522,-207.7 522,-226.7 591,-226.7 591,-207.7 522,-207.7"/>
<text text-anchor="start" x="525" y="-213.8" font-family="Helvetica,sans-Serif" font-size="11.00" fill="#000000">&lt; 3</text>
<polygon fill="#ffffff" stroke="transparent" points="591,-207.7 591,-226.7 674,-226.7 674,-207.7 591,-207.7"/>
<polygon fill="none" stroke="#000000" points="591,-207.7 591,-226.7 674,-226.7 674,-207.7 591,-207.7"/>
<text text-anchor="start" x="617.2089" y="-213.8" font-family="Helvetica,sans-Serif" font-size="11.00" fill="#000000">6.091 rows</text>
<polygon fill="#ffffff" stroke="transparent" points="674,-207.7 674,-226.7 711,-226.7 711,-207.7 674,-207.7"/>
<polygon fill="none" stroke="#000000" points="674,-207.7 674,-226.7 711,-226.7 711,-207.7 674,-207.7"/>
<text text-anchor="start" x="701.8862" y="-213.8" font-family="Helvetica,sans-Serif" font-size="11.00" fill="#000000"> &#160;</text>
</a>
</g>
</g>
<!-- crn_v3_basins_EPSG3857&#45;&gt;crn_studies_boundingbox -->
<g id="edge2" class="edge">
<title>crn_v3_basins_EPSG3857:w&#45;&gt;crn_studies_boundingbox:e</title>
<path fill="none" stroke="#000000" d="M507.9566,-252.368C486.2026,-235.0466 508.2316,-171.7 470,-171.7"/>
<polygon fill="#000000" stroke="#000000" points="514.3554,-254.3418 520.9388,-260.14 518.1777,-255.5209 522,-256.7 522,-256.7 522,-256.7 518.1777,-255.5209 523.0612,-253.26 514.3554,-254.3418 514.3554,-254.3418"/>
<ellipse fill="none" stroke="#000000" cx="511.2976" cy="-253.3985" rx="3.2" ry="3.2"/>
</g>
<!-- crn_v3_outlets_EPSG3857 -->
<g id="node4" class="node">
<title>crn_v3_outlets_EPSG3857</title>
<g id="a_node4"><a xlink:href="../../tables/crn_v3_outlets_EPSG3857.html" xlink:title="crn_v3_outlets_EPSG3857" target="_top">
<polygon fill="#ffffff" stroke="transparent" points="521,-38.2 521,-187.2 711,-187.2 711,-38.2 521,-38.2"/>
<polygon fill="#f5f5f5" stroke="transparent" points="521,-163.7 521,-186.7 711,-186.7 711,-163.7 521,-163.7"/>
<polygon fill="none" stroke="#000000" points="521,-163.7 521,-186.7 711,-186.7 711,-163.7 521,-163.7"/>
<text text-anchor="start" x="526" y="-172.3" font-family="Helvetica,sans-Serif" font-weight="bold" font-size="11.00" fill="#000000">crn_v3_outlets_EPSG3857</text>
<text text-anchor="start" x="676.5219" y="-171.8" font-family="Helvetica,sans-Serif" font-size="11.00" fill="#000000">[table]</text>
<polygon fill="none" stroke="#000000" points="521,-141.7 521,-163.7 711,-163.7 711,-141.7 521,-141.7"/>
<image xlink:href="../../images/primaryKeys.png" width="11px" height="12px" preserveAspectRatio="xMinYMin meet" x="526" y="-158.7"/>
<text text-anchor="start" x="550" y="-148.8" font-family="Helvetica,sans-Serif" font-size="11.00" fill="#000000">id</text>
<polygon fill="#ffffff" stroke="transparent" points="521,-119.7 521,-141.7 711,-141.7 711,-119.7 521,-119.7"/>
<polygon fill="none" stroke="#000000" points="521,-119.7 521,-141.7 711,-141.7 711,-119.7 521,-119.7"/>
<text text-anchor="start" x="550" y="-126.8" font-family="Helvetica,sans-Serif" font-size="11.00" fill="#000000">geom</text>
<polygon fill="none" stroke="#000000" points="521,-97.7 521,-119.7 711,-119.7 711,-97.7 521,-97.7"/>
<image xlink:href="../../images/primaryKeys.png" width="11px" height="12px" preserveAspectRatio="xMinYMin meet" x="526" y="-114.7"/>
<text text-anchor="start" x="550" y="-104.8" font-family="Helvetica,sans-Serif" font-size="11.00" fill="#000000">OBSID1</text>
<polygon fill="none" stroke="#000000" points="521,-75.7 521,-97.7 711,-97.7 711,-75.7 521,-75.7"/>
<image xlink:href="../../images/foreignKeys.png" width="11px" height="12px" preserveAspectRatio="xMinYMin meet" x="526" y="-92.7"/>
<text text-anchor="start" x="550" y="-82.8" font-family="Helvetica,sans-Serif" font-size="11.00" fill="#000000">STUDYID</text>
<polygon fill="none" stroke="#000000" points="521,-56.7 521,-75.7 711,-75.7 711,-56.7 521,-56.7"/>
<text text-anchor="start" x="524" y="-62.8" font-family="Helvetica,sans-Serif" font-size="11.00" fill="#000000">...</text>
<polygon fill="#ffffff" stroke="transparent" points="521,-37.7 521,-56.7 591,-56.7 591,-37.7 521,-37.7"/>
<polygon fill="none" stroke="#000000" points="521,-37.7 521,-56.7 591,-56.7 591,-37.7 521,-37.7"/>
<text text-anchor="start" x="524" y="-43.8" font-family="Helvetica,sans-Serif" font-size="11.00" fill="#000000">&lt; 3</text>
<polygon fill="#ffffff" stroke="transparent" points="591,-37.7 591,-56.7 674,-56.7 674,-37.7 591,-37.7"/>
<polygon fill="none" stroke="#000000" points="591,-37.7 591,-56.7 674,-56.7 674,-37.7 591,-37.7"/>
<text text-anchor="start" x="617.2089" y="-43.8" font-family="Helvetica,sans-Serif" font-size="11.00" fill="#000000">6.091 rows</text>
<polygon fill="#ffffff" stroke="transparent" points="674,-37.7 674,-56.7 711,-56.7 711,-37.7 674,-37.7"/>
<polygon fill="none" stroke="#000000" points="674,-37.7 674,-56.7 711,-56.7 711,-37.7 674,-37.7"/>
<text text-anchor="start" x="701.8862" y="-43.8" font-family="Helvetica,sans-Serif" font-size="11.00" fill="#000000"> &#160;</text>
</a>
</g>
</g>
<!-- crn_v3_outlets_EPSG3857&#45;&gt;crn_studies_boundingbox -->
<g id="edge3" class="edge">
<title>crn_v3_outlets_EPSG3857:w&#45;&gt;crn_studies_boundingbox:e</title>
<path fill="none" stroke="#000000" d="M507.0669,-91.032C485.5746,-108.3534 508.0328,-171.7 470,-171.7"/>
<polygon fill="#000000" stroke="#000000" points="513.3607,-89.0752 522.0688,-90.1377 517.1804,-87.8876 521,-86.7 521,-86.7 521,-86.7 517.1804,-87.8876 519.9312,-83.2623 513.3607,-89.0752 513.3607,-89.0752"/>
<ellipse fill="none" stroke="#000000" cx="510.305" cy="-90.0253" rx="3.2" ry="3.2"/>
</g>
</g>
</svg>
