<?xml version="1.0" encoding="UTF-8" standalone="no"?>
<!DOCTYPE svg PUBLIC "-//W3C//DTD SVG 1.1//EN"
 "http://www.w3.org/Graphics/SVG/1.1/DTD/svg11.dtd">
<!-- Generated by graphviz version 2.40.1 (20161225.0304)
 -->
<!-- Title: oneDegreeRelationshipsDiagram Pages: 1 -->
<svg width="405pt" height="523pt"
 viewBox="0.00 0.00 405.00 523.20" xmlns="http://www.w3.org/2000/svg" xmlns:xlink="http://www.w3.org/1999/xlink">
<g id="graph0" class="graph" transform="scale(1 1) rotate(0) translate(4 519.2)">
<title>oneDegreeRelationshipsDiagram</title>
<polygon fill="#ffffff" stroke="transparent" points="-4,4 -4,-519.2 401,-519.2 401,4 -4,4"/>
<text text-anchor="middle" x="72.4936" y="-7.3" font-family="Helvetica,sans-Serif" font-size="11.00" fill="#000000">Generated by SchemaSpy</text>
<!-- crn_al_DataCore -->
<g id="node1" class="node">
<title>crn_al_DataCore</title>
<g id="a_node1"><a xlink:href="../../tables/crn_al_DataCore.html" xlink:title="crn_al_DataCore" target="_top">
<polygon fill="#ffffff" stroke="transparent" points="260,-318.2 260,-511.2 386,-511.2 386,-318.2 260,-318.2"/>
<polygon fill="#f5f5f5" stroke="transparent" points="260,-487.7 260,-510.7 386,-510.7 386,-487.7 260,-487.7"/>
<polygon fill="none" stroke="#000000" points="260,-487.7 260,-510.7 386,-510.7 386,-487.7 260,-487.7"/>
<text text-anchor="start" x="264.9387" y="-496.8" font-family="Helvetica,sans-Serif" font-weight="bold" font-size="11.00" fill="#000000">crn_al_DataCore</text>
<text text-anchor="start" x="351.5219" y="-495.8" font-family="Helvetica,sans-Serif" font-size="11.00" fill="#000000">[table]</text>
<polygon fill="none" stroke="#000000" points="260,-465.7 260,-487.7 386,-487.7 386,-465.7 260,-465.7"/>
<image xlink:href="../../images/primaryKeys.png" width="11px" height="12px" preserveAspectRatio="xMinYMin meet" x="265" y="-482.7"/>
<text text-anchor="start" x="285" y="-472.8" font-family="Helvetica,sans-Serif" font-size="11.00" fill="#000000">OBSID1</text>
<polygon fill="none" stroke="#000000" points="260,-443.7 260,-465.7 386,-465.7 386,-443.7 260,-443.7"/>
<image xlink:href="../../images/foreignKeys.png" width="11px" height="12px" preserveAspectRatio="xMinYMin meet" x="265" y="-460.7"/>
<text text-anchor="start" x="285" y="-450.8" font-family="Helvetica,sans-Serif" font-size="11.00" fill="#000000">SMPID</text>
<polygon fill="none" stroke="#000000" points="260,-421.7 260,-443.7 386,-443.7 386,-421.7 260,-421.7"/>
<image xlink:href="../../images/foreignKeys.png" width="11px" height="12px" preserveAspectRatio="xMinYMin meet" x="265" y="-438.7"/>
<text text-anchor="start" x="285" y="-428.8" font-family="Helvetica,sans-Serif" font-size="11.00" fill="#000000">DBDOI</text>
<polygon fill="none" stroke="#000000" points="260,-399.7 260,-421.7 386,-421.7 386,-399.7 260,-399.7"/>
<image xlink:href="../../images/foreignKeys.png" width="11px" height="12px" preserveAspectRatio="xMinYMin meet" x="265" y="-416.7"/>
<text text-anchor="start" x="285" y="-406.8" font-family="Helvetica,sans-Serif" font-size="11.00" fill="#000000">REFDBID1</text>
<polygon fill="none" stroke="#000000" points="260,-377.7 260,-399.7 386,-399.7 386,-377.7 260,-377.7"/>
<image xlink:href="../../images/foreignKeys.png" width="11px" height="12px" preserveAspectRatio="xMinYMin meet" x="265" y="-394.7"/>
<text text-anchor="start" x="285" y="-384.8" font-family="Helvetica,sans-Serif" font-size="11.00" fill="#000000">ALSTNDID</text>
<polygon fill="none" stroke="#000000" points="260,-355.7 260,-377.7 386,-377.7 386,-355.7 260,-355.7"/>
<image xlink:href="../../images/foreignKeys.png" width="11px" height="12px" preserveAspectRatio="xMinYMin meet" x="265" y="-372.7"/>
<text text-anchor="start" x="285" y="-362.8" font-family="Helvetica,sans-Serif" font-size="11.00" fill="#000000">ALAMSID</text>
<polygon fill="none" stroke="#000000" points="260,-336.7 260,-355.7 386,-355.7 386,-336.7 260,-336.7"/>
<text text-anchor="start" x="263" y="-342.8" font-family="Helvetica,sans-Serif" font-size="11.00" fill="#000000">...</text>
<polygon fill="#ffffff" stroke="transparent" points="260,-317.7 260,-336.7 293,-336.7 293,-317.7 260,-317.7"/>
<polygon fill="none" stroke="#000000" points="260,-317.7 260,-336.7 293,-336.7 293,-317.7 260,-317.7"/>
<text text-anchor="start" x="263" y="-323.8" font-family="Helvetica,sans-Serif" font-size="11.00" fill="#000000">&lt; 5</text>
<polygon fill="#ffffff" stroke="transparent" points="293,-317.7 293,-336.7 358,-336.7 358,-317.7 293,-317.7"/>
<polygon fill="none" stroke="#000000" points="293,-317.7 293,-336.7 358,-336.7 358,-317.7 293,-317.7"/>
<text text-anchor="start" x="301.2089" y="-323.8" font-family="Helvetica,sans-Serif" font-size="11.00" fill="#000000">4,631 rows</text>
<polygon fill="#ffffff" stroke="transparent" points="358,-317.7 358,-336.7 386,-336.7 386,-317.7 358,-317.7"/>
<polygon fill="none" stroke="#000000" points="358,-317.7 358,-336.7 386,-336.7 386,-317.7 358,-317.7"/>
<text text-anchor="start" x="367.4053" y="-323.8" font-family="Helvetica,sans-Serif" font-size="11.00" fill="#000000">2 &gt;</text>
</a>
</g>
</g>
<!-- crn_alstndID -->
<g id="node2" class="node">
<title>crn_alstndID</title>
<g id="a_node2"><a xlink:href="../../tables/crn_alstndID.html" xlink:title="crn_alstndID" target="_top">
<polygon fill="#ffffff" stroke="transparent" points="8,-51.7 8,-273.7 208,-273.7 208,-51.7 8,-51.7"/>
<polygon fill="#f5f5f5" stroke="transparent" points="10,-248.7 10,-271.7 206,-271.7 206,-248.7 10,-248.7"/>
<polygon fill="none" stroke="#000000" points="10,-248.7 10,-271.7 206,-271.7 206,-248.7 10,-248.7"/>
<text text-anchor="start" x="15" y="-257.8" font-family="Helvetica,sans-Serif" font-weight="bold" font-size="11.00" fill="#000000">crn_alstndID</text>
<text text-anchor="start" x="171.0437" y="-256.8" font-family="Helvetica,sans-Serif" font-size="11.00" fill="#000000">[table]</text>
<polygon fill="none" stroke="#000000" points="10,-226.7 10,-248.7 114,-248.7 114,-226.7 10,-226.7"/>
<image xlink:href="../../images/primaryKeys.png" width="11px" height="12px" preserveAspectRatio="xMinYMin meet" x="15" y="-243.7"/>
<text text-anchor="start" x="30" y="-233.8" font-family="Helvetica,sans-Serif" font-size="11.00" fill="#000000">ALSTNDID</text>
<polygon fill="none" stroke="#000000" points="114,-226.7 114,-248.7 206,-248.7 206,-226.7 114,-226.7"/>
<text text-anchor="start" x="117" y="-234.4" font-family="Helvetica,sans-Serif" font-size="11.00" fill="#000000">smallserial[5]</text>
<polygon fill="none" stroke="#000000" points="10,-204.7 10,-226.7 114,-226.7 114,-204.7 10,-204.7"/>
<text text-anchor="start" x="30" y="-211.8" font-family="Helvetica,sans-Serif" font-size="11.00" fill="#000000">ALSTND</text>
<polygon fill="none" stroke="#000000" points="114,-204.7 114,-226.7 206,-226.7 206,-204.7 114,-204.7"/>
<text text-anchor="start" x="117" y="-212.4" font-family="Helvetica,sans-Serif" font-size="11.00" fill="#000000">text[2147483647]</text>
<polygon fill="none" stroke="#000000" points="10,-182.7 10,-204.7 114,-204.7 114,-182.7 10,-182.7"/>
<text text-anchor="start" x="30" y="-189.8" font-family="Helvetica,sans-Serif" font-size="11.00" fill="#000000">ALSTND_PUB</text>
<polygon fill="none" stroke="#000000" points="114,-182.7 114,-204.7 206,-204.7 206,-182.7 114,-182.7"/>
<text text-anchor="start" x="117" y="-190.4" font-family="Helvetica,sans-Serif" font-size="11.00" fill="#000000">text[2147483647]</text>
<polygon fill="none" stroke="#000000" points="10,-160.7 10,-182.7 114,-182.7 114,-160.7 10,-160.7"/>
<text text-anchor="start" x="30" y="-167.8" font-family="Helvetica,sans-Serif" font-size="11.00" fill="#000000">ALCORR</text>
<polygon fill="none" stroke="#000000" points="114,-160.7 114,-182.7 206,-182.7 206,-160.7 114,-160.7"/>
<text text-anchor="start" x="117" y="-168.4" font-family="Helvetica,sans-Serif" font-size="11.00" fill="#000000">numeric[5,4]</text>
<polygon fill="none" stroke="#000000" points="10,-138.7 10,-160.7 114,-160.7 114,-138.7 10,-138.7"/>
<text text-anchor="start" x="30" y="-145.8" font-family="Helvetica,sans-Serif" font-size="11.00" fill="#000000">ALSTNDRTIO</text>
<polygon fill="none" stroke="#000000" points="114,-138.7 114,-160.7 206,-160.7 206,-138.7 114,-138.7"/>
<text text-anchor="start" x="117" y="-146.4" font-family="Helvetica,sans-Serif" font-size="11.00" fill="#000000">numeric[0]</text>
<polygon fill="none" stroke="#000000" points="10,-116.7 10,-138.7 114,-138.7 114,-116.7 10,-116.7"/>
<text text-anchor="start" x="30" y="-123.8" font-family="Helvetica,sans-Serif" font-size="11.00" fill="#000000">ALSTNDCOMT</text>
<polygon fill="none" stroke="#000000" points="114,-116.7 114,-138.7 206,-138.7 206,-116.7 114,-116.7"/>
<text text-anchor="start" x="117" y="-124.4" font-family="Helvetica,sans-Serif" font-size="11.00" fill="#000000">text[2147483647]</text>
<polygon fill="none" stroke="#000000" points="10,-94.7 10,-116.7 114,-116.7 114,-94.7 10,-94.7"/>
<text text-anchor="start" x="30" y="-101.8" font-family="Helvetica,sans-Serif" font-size="11.00" fill="#000000">CREATED_AT</text>
<polygon fill="none" stroke="#000000" points="114,-94.7 114,-116.7 206,-116.7 206,-94.7 114,-94.7"/>
<text text-anchor="start" x="116.6023" y="-102.4" font-family="Helvetica,sans-Serif" font-size="11.00" fill="#000000">timestamptz[35,6]</text>
<polygon fill="none" stroke="#000000" points="10,-72.7 10,-94.7 114,-94.7 114,-72.7 10,-72.7"/>
<text text-anchor="start" x="30" y="-79.8" font-family="Helvetica,sans-Serif" font-size="11.00" fill="#000000">UPDATED_AT</text>
<polygon fill="none" stroke="#000000" points="114,-72.7 114,-94.7 206,-94.7 206,-72.7 114,-72.7"/>
<text text-anchor="start" x="116.6023" y="-80.4" font-family="Helvetica,sans-Serif" font-size="11.00" fill="#000000">timestamptz[35,6]</text>
<polygon fill="#ffffff" stroke="transparent" points="10,-53.7 10,-72.7 50,-72.7 50,-53.7 10,-53.7"/>
<polygon fill="none" stroke="#000000" points="10,-53.7 10,-72.7 50,-72.7 50,-53.7 10,-53.7"/>
<text text-anchor="start" x="13" y="-59.8" font-family="Helvetica,sans-Serif" font-size="11.00" fill="#000000">&lt; 0</text>
<polygon fill="#ffffff" stroke="transparent" points="50,-53.7 50,-72.7 114,-72.7 114,-53.7 50,-53.7"/>
<polygon fill="none" stroke="#000000" points="50,-53.7 50,-72.7 114,-72.7 114,-53.7 50,-53.7"/>
<text text-anchor="start" x="72.4956" y="-59.8" font-family="Helvetica,sans-Serif" font-size="11.00" fill="#000000">26 rows</text>
<polygon fill="#ffffff" stroke="transparent" points="114,-53.7 114,-72.7 206,-72.7 206,-53.7 114,-53.7"/>
<polygon fill="none" stroke="#000000" points="114,-53.7 114,-72.7 206,-72.7 206,-53.7 114,-53.7"/>
<text text-anchor="start" x="187.4053" y="-59.8" font-family="Helvetica,sans-Serif" font-size="11.00" fill="#000000">2 &gt;</text>
<polygon fill="none" stroke="#000000" stroke-width="2" points="9,-52.7 9,-272.7 207,-272.7 207,-52.7 9,-52.7"/>
</a>
</g>
</g>
<!-- crn_al_DataCore&#45;&gt;crn_alstndID -->
<g id="edge1" class="edge">
<title>crn_al_DataCore:w&#45;&gt;crn_alstndID:e</title>
<path fill="none" stroke="#000000" d="M245.7881,-385.9502C201.8831,-365.4847 271.566,-237.7 206,-237.7"/>
<polygon fill="#000000" stroke="#000000" points="252.1457,-387.1803 259.3161,-392.2344 256.0728,-387.9401 260,-388.7 260,-388.7 260,-388.7 256.0728,-387.9401 260.6839,-385.1656 252.1457,-387.1803 252.1457,-387.1803"/>
<ellipse fill="none" stroke="#000000" cx="249.0039" cy="-386.5724" rx="3.2" ry="3.2"/>
</g>
<!-- expage_DataCore -->
<g id="node3" class="node">
<title>expage_DataCore</title>
<g id="a_node3"><a xlink:href="../../tables/expage_DataCore.html" xlink:title="expage_DataCore" target="_top">
<polygon fill="#ffffff" stroke="transparent" points="257,-38.2 257,-297.2 389,-297.2 389,-38.2 257,-38.2"/>
<polygon fill="#f5f5f5" stroke="transparent" points="257,-273.7 257,-296.7 389,-296.7 389,-273.7 257,-273.7"/>
<polygon fill="none" stroke="#000000" points="257,-273.7 257,-296.7 389,-296.7 389,-273.7 257,-273.7"/>
<text text-anchor="start" x="261.8752" y="-282.8" font-family="Helvetica,sans-Serif" font-weight="bold" font-size="11.00" fill="#000000">expage_DataCore</text>
<text text-anchor="start" x="354.5219" y="-281.8" font-family="Helvetica,sans-Serif" font-size="11.00" fill="#000000">[table]</text>
<polygon fill="none" stroke="#000000" points="257,-251.7 257,-273.7 389,-273.7 389,-251.7 257,-251.7"/>
<image xlink:href="../../images/primaryKeys.png" width="11px" height="12px" preserveAspectRatio="xMinYMin meet" x="262" y="-268.7"/>
<text text-anchor="start" x="282" y="-258.8" font-family="Helvetica,sans-Serif" font-size="11.00" fill="#000000">OBSID1</text>
<polygon fill="none" stroke="#000000" points="257,-229.7 257,-251.7 389,-251.7 389,-229.7 257,-229.7"/>
<image xlink:href="../../images/foreignKeys.png" width="11px" height="12px" preserveAspectRatio="xMinYMin meet" x="262" y="-246.7"/>
<text text-anchor="start" x="282" y="-236.8" font-family="Helvetica,sans-Serif" font-size="11.00" fill="#000000">SMPID</text>
<polygon fill="none" stroke="#000000" points="257,-207.7 257,-229.7 389,-229.7 389,-207.7 257,-207.7"/>
<image xlink:href="../../images/foreignKeys.png" width="11px" height="12px" preserveAspectRatio="xMinYMin meet" x="262" y="-224.7"/>
<text text-anchor="start" x="282" y="-214.8" font-family="Helvetica,sans-Serif" font-size="11.00" fill="#000000">DBDOI</text>
<polygon fill="none" stroke="#000000" points="257,-185.7 257,-207.7 389,-207.7 389,-185.7 257,-185.7"/>
<image xlink:href="../../images/foreignKeys.png" width="11px" height="12px" preserveAspectRatio="xMinYMin meet" x="262" y="-202.7"/>
<text text-anchor="start" x="282" y="-192.8" font-family="Helvetica,sans-Serif" font-size="11.00" fill="#000000">REFDBID1</text>
<polygon fill="none" stroke="#000000" points="257,-163.7 257,-185.7 389,-185.7 389,-163.7 257,-163.7"/>
<image xlink:href="../../images/foreignKeys.png" width="11px" height="12px" preserveAspectRatio="xMinYMin meet" x="262" y="-180.7"/>
<text text-anchor="start" x="282" y="-170.8" font-family="Helvetica,sans-Serif" font-size="11.00" fill="#000000">REFDBID2</text>
<polygon fill="none" stroke="#000000" points="257,-141.7 257,-163.7 389,-163.7 389,-141.7 257,-141.7"/>
<image xlink:href="../../images/foreignKeys.png" width="11px" height="12px" preserveAspectRatio="xMinYMin meet" x="262" y="-158.7"/>
<text text-anchor="start" x="282" y="-148.8" font-family="Helvetica,sans-Serif" font-size="11.00" fill="#000000">REFDBID3</text>
<polygon fill="none" stroke="#000000" points="257,-119.7 257,-141.7 389,-141.7 389,-119.7 257,-119.7"/>
<image xlink:href="../../images/foreignKeys.png" width="11px" height="12px" preserveAspectRatio="xMinYMin meet" x="262" y="-136.7"/>
<text text-anchor="start" x="282" y="-126.8" font-family="Helvetica,sans-Serif" font-size="11.00" fill="#000000">REFDBID4</text>
<polygon fill="none" stroke="#000000" points="257,-97.7 257,-119.7 389,-119.7 389,-97.7 257,-97.7"/>
<image xlink:href="../../images/foreignKeys.png" width="11px" height="12px" preserveAspectRatio="xMinYMin meet" x="262" y="-114.7"/>
<text text-anchor="start" x="282" y="-104.8" font-family="Helvetica,sans-Serif" font-size="11.00" fill="#000000">BESTNDID</text>
<polygon fill="none" stroke="#000000" points="257,-75.7 257,-97.7 389,-97.7 389,-75.7 257,-75.7"/>
<image xlink:href="../../images/foreignKeys.png" width="11px" height="12px" preserveAspectRatio="xMinYMin meet" x="262" y="-92.7"/>
<text text-anchor="start" x="282" y="-82.8" font-family="Helvetica,sans-Serif" font-size="11.00" fill="#000000">ALSTNDID</text>
<polygon fill="none" stroke="#000000" points="257,-56.7 257,-75.7 389,-75.7 389,-56.7 257,-56.7"/>
<text text-anchor="start" x="260" y="-62.8" font-family="Helvetica,sans-Serif" font-size="11.00" fill="#000000">...</text>
<polygon fill="#ffffff" stroke="transparent" points="257,-37.7 257,-56.7 290,-56.7 290,-37.7 257,-37.7"/>
<polygon fill="none" stroke="#000000" points="257,-37.7 257,-56.7 290,-56.7 290,-37.7 257,-37.7"/>
<text text-anchor="start" x="260" y="-43.8" font-family="Helvetica,sans-Serif" font-size="11.00" fill="#000000">&lt; 8</text>
<polygon fill="#ffffff" stroke="transparent" points="290,-37.7 290,-56.7 361,-56.7 361,-37.7 290,-37.7"/>
<polygon fill="none" stroke="#000000" points="290,-37.7 290,-56.7 361,-56.7 361,-37.7 290,-37.7"/>
<text text-anchor="start" x="298.094" y="-43.8" font-family="Helvetica,sans-Serif" font-size="11.00" fill="#000000">16,009 rows</text>
<polygon fill="#ffffff" stroke="transparent" points="361,-37.7 361,-56.7 389,-56.7 389,-37.7 361,-37.7"/>
<polygon fill="none" stroke="#000000" points="361,-37.7 361,-56.7 389,-56.7 389,-37.7 361,-37.7"/>
<text text-anchor="start" x="370.4053" y="-43.8" font-family="Helvetica,sans-Serif" font-size="11.00" fill="#000000">1 &gt;</text>
</a>
</g>
</g>
<!-- expage_DataCore&#45;&gt;crn_alstndID -->
<g id="edge2" class="edge">
<title>expage_DataCore:w&#45;&gt;crn_alstndID:e</title>
<path fill="none" stroke="#000000" d="M242.6499,-89.5816C199.9534,-110.4573 271.0248,-237.7 206,-237.7"/>
<polygon fill="#000000" stroke="#000000" points="249.1566,-88.2751 257.7088,-90.2295 253.0783,-87.4875 257,-86.7 257,-86.7 257,-86.7 253.0783,-87.4875 256.2912,-83.1705 249.1566,-88.2751 249.1566,-88.2751"/>
<ellipse fill="none" stroke="#000000" cx="246.0192" cy="-88.9051" rx="3.2" ry="3.2"/>
</g>
</g>
</svg>
