<?xml version="1.0" encoding="UTF-8" standalone="no"?>
<!DOCTYPE svg PUBLIC "-//W3C//DTD SVG 1.1//EN"
 "http://www.w3.org/Graphics/SVG/1.1/DTD/svg11.dtd">
<!-- Generated by graphviz version 2.40.1 (20161225.0304)
 -->
<!-- Title: oneDegreeRelationshipsDiagram Pages: 1 -->
<svg width="658pt" height="842pt"
 viewBox="0.00 0.00 658.00 841.70" xmlns="http://www.w3.org/2000/svg" xmlns:xlink="http://www.w3.org/1999/xlink">
<g id="graph0" class="graph" transform="scale(1 1) rotate(0) translate(4 837.7)">
<title>oneDegreeRelationshipsDiagram</title>
<polygon fill="#ffffff" stroke="transparent" points="-4,4 -4,-837.7 654,-837.7 654,4 -4,4"/>
<text text-anchor="middle" x="72.4936" y="-7.3" font-family="Helvetica,sans-Serif" font-size="11.00" fill="#000000">Generated by SchemaSpy</text>
<!-- expage_DataCore -->
<g id="node1" class="node">
<title>expage_DataCore</title>
<g id="a_node1"><a xlink:href="../../tables/expage_DataCore.html" xlink:title="expage_DataCore" target="_top">
<polygon fill="#ffffff" stroke="transparent" points="186,-38.2 186,-678.2 404,-678.2 404,-38.2 186,-38.2"/>
<polygon fill="#f5f5f5" stroke="transparent" points="188,-653.2 188,-676.2 402,-676.2 402,-653.2 188,-653.2"/>
<polygon fill="none" stroke="#000000" points="188,-653.2 188,-676.2 402,-676.2 402,-653.2 188,-653.2"/>
<text text-anchor="start" x="193" y="-661.8" font-family="Helvetica,sans-Serif" font-weight="bold" font-size="11.00" fill="#000000">expage_DataCore</text>
<text text-anchor="start" x="367.0437" y="-661.3" font-family="Helvetica,sans-Serif" font-size="11.00" fill="#000000">[table]</text>
<polygon fill="none" stroke="#000000" points="188,-631.2 188,-653.2 310,-653.2 310,-631.2 188,-631.2"/>
<image xlink:href="../../images/primaryKeys.png" width="11px" height="12px" preserveAspectRatio="xMinYMin meet" x="193" y="-648.2"/>
<text text-anchor="start" x="208" y="-638.3" font-family="Helvetica,sans-Serif" font-size="11.00" fill="#000000">OBSID1</text>
<polygon fill="none" stroke="#000000" points="310,-631.2 310,-653.2 402,-653.2 402,-631.2 310,-631.2"/>
<text text-anchor="start" x="313" y="-638.9" font-family="Helvetica,sans-Serif" font-size="11.00" fill="#000000">text[2147483647]</text>
<polygon fill="none" stroke="#000000" points="188,-609.2 188,-631.2 310,-631.2 310,-609.2 188,-609.2"/>
<image xlink:href="../../images/foreignKeys.png" width="11px" height="12px" preserveAspectRatio="xMinYMin meet" x="193" y="-626.2"/>
<text text-anchor="start" x="208" y="-616.3" font-family="Helvetica,sans-Serif" font-size="11.00" fill="#000000">SMPID</text>
<polygon fill="none" stroke="#000000" points="310,-609.2 310,-631.2 402,-631.2 402,-609.2 310,-609.2"/>
<text text-anchor="start" x="313" y="-616.9" font-family="Helvetica,sans-Serif" font-size="11.00" fill="#000000">text[2147483647]</text>
<polygon fill="none" stroke="#000000" points="188,-587.2 188,-609.2 310,-609.2 310,-587.2 188,-587.2"/>
<text text-anchor="start" x="208" y="-594.3" font-family="Helvetica,sans-Serif" font-size="11.00" fill="#000000">OBSID2</text>
<polygon fill="none" stroke="#000000" points="310,-587.2 310,-609.2 402,-609.2 402,-587.2 310,-587.2"/>
<text text-anchor="start" x="313" y="-594.9" font-family="Helvetica,sans-Serif" font-size="11.00" fill="#000000">text[2147483647]</text>
<polygon fill="none" stroke="#000000" points="188,-565.2 188,-587.2 310,-587.2 310,-565.2 188,-565.2"/>
<text text-anchor="start" x="208" y="-572.3" font-family="Helvetica,sans-Serif" font-size="11.00" fill="#000000">IGSNID</text>
<polygon fill="none" stroke="#000000" points="310,-565.2 310,-587.2 402,-587.2 402,-565.2 310,-565.2"/>
<text text-anchor="start" x="313" y="-572.9" font-family="Helvetica,sans-Serif" font-size="11.00" fill="#000000">text[2147483647]</text>
<polygon fill="none" stroke="#000000" points="188,-543.2 188,-565.2 310,-565.2 310,-543.2 188,-543.2"/>
<image xlink:href="../../images/foreignKeys.png" width="11px" height="12px" preserveAspectRatio="xMinYMin meet" x="193" y="-560.2"/>
<text text-anchor="start" x="208" y="-550.3" font-family="Helvetica,sans-Serif" font-size="11.00" fill="#000000">VERID</text>
<polygon fill="none" stroke="#000000" points="310,-543.2 310,-565.2 402,-565.2 402,-543.2 310,-543.2"/>
<text text-anchor="start" x="313" y="-550.9" font-family="Helvetica,sans-Serif" font-size="11.00" fill="#000000">int2[5]</text>
<polygon fill="none" stroke="#000000" points="188,-521.2 188,-543.2 310,-543.2 310,-521.2 188,-521.2"/>
<image xlink:href="../../images/foreignKeys.png" width="11px" height="12px" preserveAspectRatio="xMinYMin meet" x="193" y="-538.2"/>
<text text-anchor="start" x="208" y="-528.3" font-family="Helvetica,sans-Serif" font-size="11.00" fill="#000000">REFDBID1</text>
<polygon fill="none" stroke="#000000" points="310,-521.2 310,-543.2 402,-543.2 402,-521.2 310,-521.2"/>
<text text-anchor="start" x="313" y="-528.9" font-family="Helvetica,sans-Serif" font-size="11.00" fill="#000000">text[2147483647]</text>
<polygon fill="none" stroke="#000000" points="188,-499.2 188,-521.2 310,-521.2 310,-499.2 188,-499.2"/>
<image xlink:href="../../images/foreignKeys.png" width="11px" height="12px" preserveAspectRatio="xMinYMin meet" x="193" y="-516.2"/>
<text text-anchor="start" x="208" y="-506.3" font-family="Helvetica,sans-Serif" font-size="11.00" fill="#000000">REFDBID2</text>
<polygon fill="none" stroke="#000000" points="310,-499.2 310,-521.2 402,-521.2 402,-499.2 310,-499.2"/>
<text text-anchor="start" x="313" y="-506.9" font-family="Helvetica,sans-Serif" font-size="11.00" fill="#000000">text[2147483647]</text>
<polygon fill="none" stroke="#000000" points="188,-477.2 188,-499.2 310,-499.2 310,-477.2 188,-477.2"/>
<image xlink:href="../../images/foreignKeys.png" width="11px" height="12px" preserveAspectRatio="xMinYMin meet" x="193" y="-494.2"/>
<text text-anchor="start" x="208" y="-484.3" font-family="Helvetica,sans-Serif" font-size="11.00" fill="#000000">REFDBID3</text>
<polygon fill="none" stroke="#000000" points="310,-477.2 310,-499.2 402,-499.2 402,-477.2 310,-477.2"/>
<text text-anchor="start" x="313" y="-484.9" font-family="Helvetica,sans-Serif" font-size="11.00" fill="#000000">text[2147483647]</text>
<polygon fill="none" stroke="#000000" points="188,-455.2 188,-477.2 310,-477.2 310,-455.2 188,-455.2"/>
<image xlink:href="../../images/foreignKeys.png" width="11px" height="12px" preserveAspectRatio="xMinYMin meet" x="193" y="-472.2"/>
<text text-anchor="start" x="208" y="-462.3" font-family="Helvetica,sans-Serif" font-size="11.00" fill="#000000">REFDBID4</text>
<polygon fill="none" stroke="#000000" points="310,-455.2 310,-477.2 402,-477.2 402,-455.2 310,-455.2"/>
<text text-anchor="start" x="313" y="-462.9" font-family="Helvetica,sans-Serif" font-size="11.00" fill="#000000">text[2147483647]</text>
<polygon fill="none" stroke="#000000" points="188,-433.2 188,-455.2 310,-455.2 310,-433.2 188,-433.2"/>
<text text-anchor="start" x="208" y="-440.3" font-family="Helvetica,sans-Serif" font-size="11.00" fill="#000000">BE10NP</text>
<polygon fill="none" stroke="#000000" points="310,-433.2 310,-455.2 402,-455.2 402,-433.2 310,-433.2"/>
<text text-anchor="start" x="313" y="-440.9" font-family="Helvetica,sans-Serif" font-size="11.00" fill="#000000">int8[19]</text>
<polygon fill="none" stroke="#000000" points="188,-411.2 188,-433.2 310,-433.2 310,-411.2 188,-411.2"/>
<text text-anchor="start" x="208" y="-418.3" font-family="Helvetica,sans-Serif" font-size="11.00" fill="#000000">BE10NP_ERR</text>
<polygon fill="none" stroke="#000000" points="310,-411.2 310,-433.2 402,-433.2 402,-411.2 310,-411.2"/>
<text text-anchor="start" x="313" y="-418.9" font-family="Helvetica,sans-Serif" font-size="11.00" fill="#000000">int8[19]</text>
<polygon fill="none" stroke="#000000" points="188,-389.2 188,-411.2 310,-411.2 310,-389.2 188,-389.2"/>
<image xlink:href="../../images/foreignKeys.png" width="11px" height="12px" preserveAspectRatio="xMinYMin meet" x="193" y="-406.2"/>
<text text-anchor="start" x="208" y="-396.3" font-family="Helvetica,sans-Serif" font-size="11.00" fill="#000000">BESTNDID</text>
<polygon fill="none" stroke="#000000" points="310,-389.2 310,-411.2 402,-411.2 402,-389.2 310,-389.2"/>
<text text-anchor="start" x="313" y="-396.9" font-family="Helvetica,sans-Serif" font-size="11.00" fill="#000000">int2[5]</text>
<polygon fill="none" stroke="#000000" points="188,-367.2 188,-389.2 310,-389.2 310,-367.2 188,-367.2"/>
<text text-anchor="start" x="208" y="-374.3" font-family="Helvetica,sans-Serif" font-size="11.00" fill="#000000">BE10AP</text>
<polygon fill="none" stroke="#000000" points="310,-367.2 310,-389.2 402,-389.2 402,-367.2 310,-367.2"/>
<text text-anchor="start" x="313" y="-374.9" font-family="Helvetica,sans-Serif" font-size="11.00" fill="#000000">numeric[0]</text>
<polygon fill="none" stroke="#000000" points="188,-345.2 188,-367.2 310,-367.2 310,-345.2 188,-345.2"/>
<text text-anchor="start" x="208" y="-352.3" font-family="Helvetica,sans-Serif" font-size="11.00" fill="#000000">BE10AP_ERR</text>
<polygon fill="none" stroke="#000000" points="310,-345.2 310,-367.2 402,-367.2 402,-345.2 310,-345.2"/>
<text text-anchor="start" x="313" y="-352.9" font-family="Helvetica,sans-Serif" font-size="11.00" fill="#000000">numeric[0]</text>
<polygon fill="none" stroke="#000000" points="188,-323.2 188,-345.2 310,-345.2 310,-323.2 188,-323.2"/>
<text text-anchor="start" x="208" y="-330.3" font-family="Helvetica,sans-Serif" font-size="11.00" fill="#000000">AL26NP</text>
<polygon fill="none" stroke="#000000" points="310,-323.2 310,-345.2 402,-345.2 402,-323.2 310,-323.2"/>
<text text-anchor="start" x="313" y="-330.9" font-family="Helvetica,sans-Serif" font-size="11.00" fill="#000000">int8[19]</text>
<polygon fill="none" stroke="#000000" points="188,-301.2 188,-323.2 310,-323.2 310,-301.2 188,-301.2"/>
<text text-anchor="start" x="208" y="-308.3" font-family="Helvetica,sans-Serif" font-size="11.00" fill="#000000">AL26NP_ERR</text>
<polygon fill="none" stroke="#000000" points="310,-301.2 310,-323.2 402,-323.2 402,-301.2 310,-301.2"/>
<text text-anchor="start" x="313" y="-308.9" font-family="Helvetica,sans-Serif" font-size="11.00" fill="#000000">int8[19]</text>
<polygon fill="none" stroke="#000000" points="188,-279.2 188,-301.2 310,-301.2 310,-279.2 188,-279.2"/>
<image xlink:href="../../images/foreignKeys.png" width="11px" height="12px" preserveAspectRatio="xMinYMin meet" x="193" y="-296.2"/>
<text text-anchor="start" x="208" y="-286.3" font-family="Helvetica,sans-Serif" font-size="11.00" fill="#000000">ALSTNDID</text>
<polygon fill="none" stroke="#000000" points="310,-279.2 310,-301.2 402,-301.2 402,-279.2 310,-279.2"/>
<text text-anchor="start" x="313" y="-286.9" font-family="Helvetica,sans-Serif" font-size="11.00" fill="#000000">int2[5]</text>
<polygon fill="none" stroke="#000000" points="188,-257.2 188,-279.2 310,-279.2 310,-257.2 188,-257.2"/>
<text text-anchor="start" x="208" y="-264.3" font-family="Helvetica,sans-Serif" font-size="11.00" fill="#000000">AL26AP</text>
<polygon fill="none" stroke="#000000" points="310,-257.2 310,-279.2 402,-279.2 402,-257.2 310,-257.2"/>
<text text-anchor="start" x="313" y="-264.9" font-family="Helvetica,sans-Serif" font-size="11.00" fill="#000000">numeric[0]</text>
<polygon fill="none" stroke="#000000" points="188,-235.2 188,-257.2 310,-257.2 310,-235.2 188,-235.2"/>
<text text-anchor="start" x="208" y="-242.3" font-family="Helvetica,sans-Serif" font-size="11.00" fill="#000000">AL26AP_ERR</text>
<polygon fill="none" stroke="#000000" points="310,-235.2 310,-257.2 402,-257.2 402,-235.2 310,-235.2"/>
<text text-anchor="start" x="313" y="-242.9" font-family="Helvetica,sans-Serif" font-size="11.00" fill="#000000">numeric[0]</text>
<polygon fill="none" stroke="#000000" points="188,-213.2 188,-235.2 310,-235.2 310,-213.2 188,-213.2"/>
<text text-anchor="start" x="208" y="-220.3" font-family="Helvetica,sans-Serif" font-size="11.00" fill="#000000">ABE_YR</text>
<polygon fill="none" stroke="#000000" points="310,-213.2 310,-235.2 402,-235.2 402,-213.2 310,-213.2"/>
<text text-anchor="start" x="313" y="-220.9" font-family="Helvetica,sans-Serif" font-size="11.00" fill="#000000">numeric[0]</text>
<polygon fill="none" stroke="#000000" points="188,-191.2 188,-213.2 310,-213.2 310,-191.2 188,-191.2"/>
<text text-anchor="start" x="208" y="-198.3" font-family="Helvetica,sans-Serif" font-size="11.00" fill="#000000">ABE_ERREXT</text>
<polygon fill="none" stroke="#000000" points="310,-191.2 310,-213.2 402,-213.2 402,-191.2 310,-191.2"/>
<text text-anchor="start" x="313" y="-198.9" font-family="Helvetica,sans-Serif" font-size="11.00" fill="#000000">numeric[0]</text>
<polygon fill="none" stroke="#000000" points="188,-169.2 188,-191.2 310,-191.2 310,-169.2 188,-169.2"/>
<text text-anchor="start" x="208" y="-176.3" font-family="Helvetica,sans-Serif" font-size="11.00" fill="#000000">ABE_ERRINT</text>
<polygon fill="none" stroke="#000000" points="310,-169.2 310,-191.2 402,-191.2 402,-169.2 310,-169.2"/>
<text text-anchor="start" x="313" y="-176.9" font-family="Helvetica,sans-Serif" font-size="11.00" fill="#000000">numeric[0]</text>
<polygon fill="none" stroke="#000000" points="188,-147.2 188,-169.2 310,-169.2 310,-147.2 188,-147.2"/>
<text text-anchor="start" x="208" y="-154.3" font-family="Helvetica,sans-Serif" font-size="11.00" fill="#000000">AAL_YR</text>
<polygon fill="none" stroke="#000000" points="310,-147.2 310,-169.2 402,-169.2 402,-147.2 310,-147.2"/>
<text text-anchor="start" x="313" y="-154.9" font-family="Helvetica,sans-Serif" font-size="11.00" fill="#000000">numeric[0]</text>
<polygon fill="none" stroke="#000000" points="188,-125.2 188,-147.2 310,-147.2 310,-125.2 188,-125.2"/>
<text text-anchor="start" x="208" y="-132.3" font-family="Helvetica,sans-Serif" font-size="11.00" fill="#000000">AAL_ERREXT</text>
<polygon fill="none" stroke="#000000" points="310,-125.2 310,-147.2 402,-147.2 402,-125.2 310,-125.2"/>
<text text-anchor="start" x="313" y="-132.9" font-family="Helvetica,sans-Serif" font-size="11.00" fill="#000000">numeric[0]</text>
<polygon fill="none" stroke="#000000" points="188,-103.2 188,-125.2 310,-125.2 310,-103.2 188,-103.2"/>
<text text-anchor="start" x="208" y="-110.3" font-family="Helvetica,sans-Serif" font-size="11.00" fill="#000000">AAL_ERRINT</text>
<polygon fill="none" stroke="#000000" points="310,-103.2 310,-125.2 402,-125.2 402,-103.2 310,-103.2"/>
<text text-anchor="start" x="313" y="-110.9" font-family="Helvetica,sans-Serif" font-size="11.00" fill="#000000">numeric[0]</text>
<polygon fill="none" stroke="#000000" points="188,-81.2 188,-103.2 310,-103.2 310,-81.2 188,-81.2"/>
<text text-anchor="start" x="208" y="-88.3" font-family="Helvetica,sans-Serif" font-size="11.00" fill="#000000">CREATED_AT</text>
<polygon fill="none" stroke="#000000" points="310,-81.2 310,-103.2 402,-103.2 402,-81.2 310,-81.2"/>
<text text-anchor="start" x="312.6023" y="-88.9" font-family="Helvetica,sans-Serif" font-size="11.00" fill="#000000">timestamptz[35,6]</text>
<polygon fill="none" stroke="#000000" points="188,-59.2 188,-81.2 310,-81.2 310,-59.2 188,-59.2"/>
<text text-anchor="start" x="208" y="-66.3" font-family="Helvetica,sans-Serif" font-size="11.00" fill="#000000">UPDATED_AT</text>
<polygon fill="none" stroke="#000000" points="310,-59.2 310,-81.2 402,-81.2 402,-59.2 310,-59.2"/>
<text text-anchor="start" x="312.6023" y="-66.9" font-family="Helvetica,sans-Serif" font-size="11.00" fill="#000000">timestamptz[35,6]</text>
<polygon fill="#ffffff" stroke="transparent" points="188,-40.2 188,-59.2 227,-59.2 227,-40.2 188,-40.2"/>
<polygon fill="none" stroke="#000000" points="188,-40.2 188,-59.2 227,-59.2 227,-40.2 188,-40.2"/>
<text text-anchor="start" x="191" y="-46.3" font-family="Helvetica,sans-Serif" font-size="11.00" fill="#000000">&lt; 8</text>
<polygon fill="#ffffff" stroke="transparent" points="227,-40.2 227,-59.2 310,-59.2 310,-40.2 227,-40.2"/>
<polygon fill="none" stroke="#000000" points="227,-40.2 227,-59.2 310,-59.2 310,-40.2 227,-40.2"/>
<text text-anchor="start" x="247.094" y="-46.3" font-family="Helvetica,sans-Serif" font-size="11.00" fill="#000000">16.009 rows</text>
<polygon fill="#ffffff" stroke="transparent" points="310,-40.2 310,-59.2 402,-59.2 402,-40.2 310,-40.2"/>
<polygon fill="none" stroke="#000000" points="310,-40.2 310,-59.2 402,-59.2 402,-40.2 310,-40.2"/>
<text text-anchor="start" x="383.4053" y="-46.3" font-family="Helvetica,sans-Serif" font-size="11.00" fill="#000000">1 &gt;</text>
<polygon fill="none" stroke="#000000" stroke-width="2" points="187,-39.2 187,-677.2 403,-677.2 403,-39.2 187,-39.2"/>
</a>
</g>
</g>
<!-- crn_alstndID -->
<g id="node2" class="node">
<title>crn_alstndID</title>
<g id="a_node2"><a xlink:href="../../tables/crn_alstndID.html" xlink:title="crn_alstndID" target="_top">
<polygon fill="#ffffff" stroke="transparent" points="17,-176.7 17,-259.7 128,-259.7 128,-176.7 17,-176.7"/>
<polygon fill="#f5f5f5" stroke="transparent" points="17.5,-236.2 17.5,-259.2 128.5,-259.2 128.5,-236.2 17.5,-236.2"/>
<polygon fill="none" stroke="#000000" points="17.5,-236.2 17.5,-259.2 128.5,-259.2 128.5,-236.2 17.5,-236.2"/>
<text text-anchor="start" x="22.5" y="-244.8" font-family="Helvetica,sans-Serif" font-weight="bold" font-size="11.00" fill="#000000">crn_alstndID</text>
<text text-anchor="start" x="94.0219" y="-244.3" font-family="Helvetica,sans-Serif" font-size="11.00" fill="#000000">[table]</text>
<polygon fill="none" stroke="#000000" points="17.5,-214.2 17.5,-236.2 128.5,-236.2 128.5,-214.2 17.5,-214.2"/>
<image xlink:href="../../images/primaryKeys.png" width="11px" height="12px" preserveAspectRatio="xMinYMin meet" x="22.5" y="-231.2"/>
<text text-anchor="start" x="41.5" y="-221.3" font-family="Helvetica,sans-Serif" font-size="11.00" fill="#000000">ALSTNDID</text>
<polygon fill="none" stroke="#000000" points="17.5,-195.2 17.5,-214.2 128.5,-214.2 128.5,-195.2 17.5,-195.2"/>
<text text-anchor="start" x="20.5" y="-201.3" font-family="Helvetica,sans-Serif" font-size="11.00" fill="#000000">...</text>
<polygon fill="#ffffff" stroke="transparent" points="17.5,-176.2 17.5,-195.2 46.5,-195.2 46.5,-176.2 17.5,-176.2"/>
<polygon fill="none" stroke="#000000" points="17.5,-176.2 17.5,-195.2 46.5,-195.2 46.5,-176.2 17.5,-176.2"/>
<text text-anchor="start" x="20.5" y="-182.3" font-family="Helvetica,sans-Serif" font-size="11.00" fill="#000000"> &#160;</text>
<polygon fill="#ffffff" stroke="transparent" points="46.5,-176.2 46.5,-195.2 98.5,-195.2 98.5,-176.2 46.5,-176.2"/>
<polygon fill="none" stroke="#000000" points="46.5,-176.2 46.5,-195.2 98.5,-195.2 98.5,-176.2 46.5,-176.2"/>
<text text-anchor="start" x="56.9956" y="-182.3" font-family="Helvetica,sans-Serif" font-size="11.00" fill="#000000">26 rows</text>
<polygon fill="#ffffff" stroke="transparent" points="98.5,-176.2 98.5,-195.2 128.5,-195.2 128.5,-176.2 98.5,-176.2"/>
<polygon fill="none" stroke="#000000" points="98.5,-176.2 98.5,-195.2 128.5,-195.2 128.5,-176.2 98.5,-176.2"/>
<text text-anchor="start" x="109.9053" y="-182.3" font-family="Helvetica,sans-Serif" font-size="11.00" fill="#000000">2 &gt;</text>
</a>
</g>
</g>
<!-- expage_DataCore&#45;&gt;crn_alstndID -->
<g id="edge1" class="edge">
<title>expage_DataCore:w&#45;&gt;crn_alstndID:e</title>
<path fill="none" stroke="#000000" d="M174.0136,-286.3286C153.1474,-272.3353 161.8512,-225.2 128.5,-225.2"/>
<polygon fill="#000000" stroke="#000000" points="180.2899,-288.0658 187.0396,-293.6695 184.145,-289.1329 188,-290.2 188,-290.2 188,-290.2 184.145,-289.1329 188.9604,-286.7305 180.2899,-288.0658 180.2899,-288.0658"/>
<ellipse fill="none" stroke="#000000" cx="177.2059" cy="-287.2122" rx="3.2" ry="3.2"/>
</g>
<!-- crn_bestndID -->
<g id="node3" class="node">
<title>crn_bestndID</title>
<g id="a_node3"><a xlink:href="../../tables/crn_bestndID.html" xlink:title="crn_bestndID" target="_top">
<polygon fill="#ffffff" stroke="transparent" points="15,-280.7 15,-363.7 130,-363.7 130,-280.7 15,-280.7"/>
<polygon fill="#f5f5f5" stroke="transparent" points="15.5,-340.2 15.5,-363.2 130.5,-363.2 130.5,-340.2 15.5,-340.2"/>
<polygon fill="none" stroke="#000000" points="15.5,-340.2 15.5,-363.2 130.5,-363.2 130.5,-340.2 15.5,-340.2"/>
<text text-anchor="start" x="20.5" y="-348.8" font-family="Helvetica,sans-Serif" font-weight="bold" font-size="11.00" fill="#000000">crn_bestndID</text>
<text text-anchor="start" x="96.0219" y="-348.3" font-family="Helvetica,sans-Serif" font-size="11.00" fill="#000000">[table]</text>
<polygon fill="none" stroke="#000000" points="15.5,-318.2 15.5,-340.2 130.5,-340.2 130.5,-318.2 15.5,-318.2"/>
<image xlink:href="../../images/primaryKeys.png" width="11px" height="12px" preserveAspectRatio="xMinYMin meet" x="20.5" y="-335.2"/>
<text text-anchor="start" x="40.5" y="-325.3" font-family="Helvetica,sans-Serif" font-size="11.00" fill="#000000">BESTNDID</text>
<polygon fill="none" stroke="#000000" points="15.5,-299.2 15.5,-318.2 130.5,-318.2 130.5,-299.2 15.5,-299.2"/>
<text text-anchor="start" x="18.5" y="-305.3" font-family="Helvetica,sans-Serif" font-size="11.00" fill="#000000">...</text>
<polygon fill="#ffffff" stroke="transparent" points="15.5,-280.2 15.5,-299.2 46.5,-299.2 46.5,-280.2 15.5,-280.2"/>
<polygon fill="none" stroke="#000000" points="15.5,-280.2 15.5,-299.2 46.5,-299.2 46.5,-280.2 15.5,-280.2"/>
<text text-anchor="start" x="18.5" y="-286.3" font-family="Helvetica,sans-Serif" font-size="11.00" fill="#000000"> &#160;</text>
<polygon fill="#ffffff" stroke="transparent" points="46.5,-280.2 46.5,-299.2 99.5,-299.2 99.5,-280.2 46.5,-280.2"/>
<polygon fill="none" stroke="#000000" points="46.5,-280.2 46.5,-299.2 99.5,-299.2 99.5,-280.2 46.5,-280.2"/>
<text text-anchor="start" x="57.9956" y="-286.3" font-family="Helvetica,sans-Serif" font-size="11.00" fill="#000000">60 rows</text>
<polygon fill="#ffffff" stroke="transparent" points="99.5,-280.2 99.5,-299.2 130.5,-299.2 130.5,-280.2 99.5,-280.2"/>
<polygon fill="none" stroke="#000000" points="99.5,-280.2 99.5,-299.2 130.5,-299.2 130.5,-280.2 99.5,-280.2"/>
<text text-anchor="start" x="111.9053" y="-286.3" font-family="Helvetica,sans-Serif" font-size="11.00" fill="#000000">2 &gt;</text>
</a>
</g>
</g>
<!-- expage_DataCore&#45;&gt;crn_bestndID -->
<g id="edge2" class="edge">
<title>expage_DataCore:w&#45;&gt;crn_bestndID:e</title>
<path fill="none" stroke="#000000" d="M174.0358,-396.1793C152.9047,-381.1597 165.2371,-329.2 130.5,-329.2"/>
<polygon fill="#000000" stroke="#000000" points="180.3123,-397.9865 187.0039,-403.6595 184.1562,-399.0932 188,-400.2 188,-400.2 188,-400.2 184.1562,-399.0932 188.9961,-396.7405 180.3123,-397.9865 180.3123,-397.9865"/>
<ellipse fill="none" stroke="#000000" cx="177.2372" cy="-397.101" rx="3.2" ry="3.2"/>
</g>
<!-- global_RefCore -->
<g id="node4" class="node">
<title>global_RefCore</title>
<g id="a_node4"><a xlink:href="../../tables/global_RefCore.html" xlink:title="global_RefCore" target="_top">
<polygon fill="#ffffff" stroke="transparent" points="9,-384.7 9,-533.7 136,-533.7 136,-384.7 9,-384.7"/>
<polygon fill="#f5f5f5" stroke="transparent" points="9.5,-510.2 9.5,-533.2 136.5,-533.2 136.5,-510.2 9.5,-510.2"/>
<polygon fill="none" stroke="#000000" points="9.5,-510.2 9.5,-533.2 136.5,-533.2 136.5,-510.2 9.5,-510.2"/>
<text text-anchor="start" x="14.5" y="-518.8" font-family="Helvetica,sans-Serif" font-weight="bold" font-size="11.00" fill="#000000">global_RefCore</text>
<text text-anchor="start" x="102.0219" y="-518.3" font-family="Helvetica,sans-Serif" font-size="11.00" fill="#000000">[table]</text>
<polygon fill="none" stroke="#000000" points="9.5,-488.2 9.5,-510.2 136.5,-510.2 136.5,-488.2 9.5,-488.2"/>
<image xlink:href="../../images/primaryKeys.png" width="11px" height="12px" preserveAspectRatio="xMinYMin meet" x="14.5" y="-505.2"/>
<text text-anchor="start" x="38.5" y="-495.3" font-family="Helvetica,sans-Serif" font-size="11.00" fill="#000000">REFDBID</text>
<polygon fill="none" stroke="#000000" points="9.5,-466.2 9.5,-488.2 136.5,-488.2 136.5,-466.2 9.5,-466.2"/>
<image xlink:href="../../images/foreignKeys.png" width="11px" height="12px" preserveAspectRatio="xMinYMin meet" x="14.5" y="-483.2"/>
<text text-anchor="start" x="38.5" y="-473.3" font-family="Helvetica,sans-Serif" font-size="11.00" fill="#000000">OAID</text>
<polygon fill="none" stroke="#000000" points="9.5,-444.2 9.5,-466.2 136.5,-466.2 136.5,-444.2 9.5,-444.2"/>
<image xlink:href="../../images/foreignKeys.png" width="11px" height="12px" preserveAspectRatio="xMinYMin meet" x="14.5" y="-461.2"/>
<text text-anchor="start" x="38.5" y="-451.3" font-family="Helvetica,sans-Serif" font-size="11.00" fill="#000000">PUBTYPEID</text>
<polygon fill="none" stroke="#000000" points="9.5,-422.2 9.5,-444.2 136.5,-444.2 136.5,-422.2 9.5,-422.2"/>
<image xlink:href="../../images/foreignKeys.png" width="11px" height="12px" preserveAspectRatio="xMinYMin meet" x="14.5" y="-439.2"/>
<text text-anchor="start" x="38.5" y="-429.3" font-family="Helvetica,sans-Serif" font-size="11.00" fill="#000000">JOURNALID</text>
<polygon fill="none" stroke="#000000" points="9.5,-403.2 9.5,-422.2 136.5,-422.2 136.5,-403.2 9.5,-403.2"/>
<text text-anchor="start" x="12.5" y="-409.3" font-family="Helvetica,sans-Serif" font-size="11.00" fill="#000000">...</text>
<polygon fill="#ffffff" stroke="transparent" points="9.5,-384.2 9.5,-403.2 40.5,-403.2 40.5,-384.2 9.5,-384.2"/>
<polygon fill="none" stroke="#000000" points="9.5,-384.2 9.5,-403.2 40.5,-403.2 40.5,-384.2 9.5,-384.2"/>
<text text-anchor="start" x="12.5" y="-390.3" font-family="Helvetica,sans-Serif" font-size="11.00" fill="#000000">&lt; 5</text>
<polygon fill="#ffffff" stroke="transparent" points="40.5,-384.2 40.5,-403.2 104.5,-403.2 104.5,-384.2 40.5,-384.2"/>
<polygon fill="none" stroke="#000000" points="40.5,-384.2 40.5,-403.2 104.5,-403.2 104.5,-384.2 40.5,-384.2"/>
<text text-anchor="start" x="47.7089" y="-390.3" font-family="Helvetica,sans-Serif" font-size="11.00" fill="#000000">3.947 rows</text>
<polygon fill="#ffffff" stroke="transparent" points="104.5,-384.2 104.5,-403.2 136.5,-403.2 136.5,-384.2 104.5,-384.2"/>
<polygon fill="none" stroke="#000000" points="104.5,-384.2 104.5,-403.2 136.5,-403.2 136.5,-384.2 104.5,-384.2"/>
<text text-anchor="start" x="111.7904" y="-390.3" font-family="Helvetica,sans-Serif" font-size="11.00" fill="#000000">37 &gt;</text>
</a>
</g>
</g>
<!-- expage_DataCore&#45;&gt;global_RefCore -->
<g id="edge3" class="edge">
<title>expage_DataCore:w&#45;&gt;global_RefCore:e</title>
<path fill="none" stroke="#000000" d="M173.8452,-528.1536C160.6325,-519.3416 157.7381,-499.2 136.5,-499.2"/>
<polygon fill="#000000" stroke="#000000" points="180.3081,-530.0011 187.0105,-535.6613 184.1541,-531.1005 188,-532.2 188,-532.2 188,-532.2 184.1541,-531.1005 188.9895,-528.7387 180.3081,-530.0011 180.3081,-530.0011"/>
<ellipse fill="none" stroke="#000000" cx="177.2314" cy="-529.1215" rx="3.2" ry="3.2"/>
</g>
<!-- expage_DataCore&#45;&gt;global_RefCore -->
<g id="edge4" class="edge">
<title>expage_DataCore:w&#45;&gt;global_RefCore:e</title>
<path fill="none" stroke="#000000" d="M173.3704,-508.4813C161.0803,-505.3875 154.0539,-499.2 136.5,-499.2"/>
<polygon fill="#000000" stroke="#000000" points="180.0546,-509.2665 187.5799,-513.7754 184.0273,-509.7332 188,-510.2 188,-510.2 188,-510.2 184.0273,-509.7332 188.4201,-506.6246 180.0546,-509.2665 180.0546,-509.2665"/>
<ellipse fill="none" stroke="#000000" cx="176.8765" cy="-508.8931" rx="3.2" ry="3.2"/>
</g>
<!-- expage_DataCore&#45;&gt;global_RefCore -->
<g id="edge5" class="edge">
<title>expage_DataCore:w&#45;&gt;global_RefCore:e</title>
<path fill="none" stroke="#000000" d="M173.3704,-489.9188C161.0803,-493.0125 154.0539,-499.2 136.5,-499.2"/>
<polygon fill="#000000" stroke="#000000" points="180.0546,-489.1335 188.4201,-491.7754 184.0273,-488.6668 188,-488.2 188,-488.2 188,-488.2 184.0273,-488.6668 187.5799,-484.6246 180.0546,-489.1335 180.0546,-489.1335"/>
<ellipse fill="none" stroke="#000000" cx="176.8765" cy="-489.5069" rx="3.2" ry="3.2"/>
</g>
<!-- expage_DataCore&#45;&gt;global_RefCore -->
<g id="edge6" class="edge">
<title>expage_DataCore:w&#45;&gt;global_RefCore:e</title>
<path fill="none" stroke="#000000" d="M173.8452,-470.2464C160.6325,-479.0584 157.7381,-499.2 136.5,-499.2"/>
<polygon fill="#000000" stroke="#000000" points="180.3081,-468.3989 188.9895,-469.6613 184.1541,-467.2995 188,-466.2 188,-466.2 188,-466.2 184.1541,-467.2995 187.0105,-462.7387 180.3081,-468.3989 180.3081,-468.3989"/>
<ellipse fill="none" stroke="#000000" cx="177.2314" cy="-469.2785" rx="3.2" ry="3.2"/>
</g>
<!-- expage_Sample -->
<g id="node5" class="node">
<title>expage_Sample</title>
<g id="a_node5"><a xlink:href="../../tables/expage_Sample.html" xlink:title="expage_Sample" target="_top">
<polygon fill="#ffffff" stroke="transparent" points="8,-702.7 8,-829.7 137,-829.7 137,-702.7 8,-702.7"/>
<polygon fill="#f5f5f5" stroke="transparent" points="8.5,-806.2 8.5,-829.2 137.5,-829.2 137.5,-806.2 8.5,-806.2"/>
<polygon fill="none" stroke="#000000" points="8.5,-806.2 8.5,-829.2 137.5,-829.2 137.5,-806.2 8.5,-806.2"/>
<text text-anchor="start" x="13.5" y="-814.8" font-family="Helvetica,sans-Serif" font-weight="bold" font-size="11.00" fill="#000000">expage_Sample</text>
<text text-anchor="start" x="103.0219" y="-814.3" font-family="Helvetica,sans-Serif" font-size="11.00" fill="#000000">[table]</text>
<polygon fill="none" stroke="#000000" points="8.5,-784.2 8.5,-806.2 137.5,-806.2 137.5,-784.2 8.5,-784.2"/>
<image xlink:href="../../images/primaryKeys.png" width="11px" height="12px" preserveAspectRatio="xMinYMin meet" x="13.5" y="-801.2"/>
<text text-anchor="start" x="37.5" y="-791.3" font-family="Helvetica,sans-Serif" font-size="11.00" fill="#000000">SMPID</text>
<polygon fill="none" stroke="#000000" points="8.5,-762.2 8.5,-784.2 137.5,-784.2 137.5,-762.2 8.5,-762.2"/>
<image xlink:href="../../images/foreignKeys.png" width="11px" height="12px" preserveAspectRatio="xMinYMin meet" x="13.5" y="-779.2"/>
<text text-anchor="start" x="37.5" y="-769.3" font-family="Helvetica,sans-Serif" font-size="11.00" fill="#000000">SITEID</text>
<polygon fill="none" stroke="#000000" points="8.5,-740.2 8.5,-762.2 137.5,-762.2 137.5,-740.2 8.5,-740.2"/>
<image xlink:href="../../images/foreignKeys.png" width="11px" height="12px" preserveAspectRatio="xMinYMin meet" x="13.5" y="-757.2"/>
<text text-anchor="start" x="37.5" y="-747.3" font-family="Helvetica,sans-Serif" font-size="11.00" fill="#000000">MATERIALID</text>
<polygon fill="none" stroke="#000000" points="8.5,-721.2 8.5,-740.2 137.5,-740.2 137.5,-721.2 8.5,-721.2"/>
<text text-anchor="start" x="11.5" y="-727.3" font-family="Helvetica,sans-Serif" font-size="11.00" fill="#000000">...</text>
<polygon fill="#ffffff" stroke="transparent" points="8.5,-702.2 8.5,-721.2 40.5,-721.2 40.5,-702.2 8.5,-702.2"/>
<polygon fill="none" stroke="#000000" points="8.5,-702.2 8.5,-721.2 40.5,-721.2 40.5,-702.2 8.5,-702.2"/>
<text text-anchor="start" x="11.5" y="-708.3" font-family="Helvetica,sans-Serif" font-size="11.00" fill="#000000">&lt; 2</text>
<polygon fill="#ffffff" stroke="transparent" points="40.5,-702.2 40.5,-721.2 110.5,-721.2 110.5,-702.2 40.5,-702.2"/>
<polygon fill="none" stroke="#000000" points="40.5,-702.2 40.5,-721.2 110.5,-721.2 110.5,-702.2 40.5,-702.2"/>
<text text-anchor="start" x="47.594" y="-708.3" font-family="Helvetica,sans-Serif" font-size="11.00" fill="#000000">15.805 rows</text>
<polygon fill="#ffffff" stroke="transparent" points="110.5,-702.2 110.5,-721.2 137.5,-721.2 137.5,-702.2 110.5,-702.2"/>
<polygon fill="none" stroke="#000000" points="110.5,-702.2 110.5,-721.2 137.5,-721.2 137.5,-702.2 110.5,-702.2"/>
<text text-anchor="start" x="118.9053" y="-708.3" font-family="Helvetica,sans-Serif" font-size="11.00" fill="#000000">1 &gt;</text>
</a>
</g>
</g>
<!-- expage_DataCore&#45;&gt;expage_Sample -->
<g id="edge7" class="edge">
<title>expage_DataCore:w&#45;&gt;expage_Sample:e</title>
<path fill="none" stroke="#000000" d="M173.6435,-622.6739C121.7636,-643.9442 212.7595,-795.2 137.5,-795.2"/>
<polygon fill="#000000" stroke="#000000" points="180.1162,-621.5586 188.6113,-623.7477 184.0581,-620.8793 188,-620.2 188,-620.2 188,-620.2 184.0581,-620.8793 187.3887,-616.6523 180.1162,-621.5586 180.1162,-621.5586"/>
<ellipse fill="none" stroke="#000000" cx="176.9627" cy="-622.102" rx="3.2" ry="3.2"/>
</g>
<!-- global_dbDOI -->
<g id="node6" class="node">
<title>global_dbDOI</title>
<g id="a_node6"><a xlink:href="../../tables/global_dbDOI.html" xlink:title="global_dbDOI" target="_top">
<polygon fill="#ffffff" stroke="transparent" points="14,-554.7 14,-681.7 131,-681.7 131,-554.7 14,-554.7"/>
<polygon fill="#f5f5f5" stroke="transparent" points="14.5,-658.2 14.5,-681.2 131.5,-681.2 131.5,-658.2 14.5,-658.2"/>
<polygon fill="none" stroke="#000000" points="14.5,-658.2 14.5,-681.2 131.5,-681.2 131.5,-658.2 14.5,-658.2"/>
<text text-anchor="start" x="19.5" y="-666.8" font-family="Helvetica,sans-Serif" font-weight="bold" font-size="11.00" fill="#000000">global_dbDOI</text>
<text text-anchor="start" x="97.0219" y="-666.3" font-family="Helvetica,sans-Serif" font-size="11.00" fill="#000000">[table]</text>
<polygon fill="none" stroke="#000000" points="14.5,-636.2 14.5,-658.2 131.5,-658.2 131.5,-636.2 14.5,-636.2"/>
<image xlink:href="../../images/primaryKeys.png" width="11px" height="12px" preserveAspectRatio="xMinYMin meet" x="19.5" y="-653.2"/>
<text text-anchor="start" x="41.5" y="-643.3" font-family="Helvetica,sans-Serif" font-size="11.00" fill="#000000">VERID</text>
<polygon fill="none" stroke="#000000" points="14.5,-614.2 14.5,-636.2 131.5,-636.2 131.5,-614.2 14.5,-614.2"/>
<image xlink:href="../../images/foreignKeys.png" width="11px" height="12px" preserveAspectRatio="xMinYMin meet" x="19.5" y="-631.2"/>
<text text-anchor="start" x="41.5" y="-621.3" font-family="Helvetica,sans-Serif" font-size="11.00" fill="#000000">OBSOLETES</text>
<polygon fill="none" stroke="#000000" points="14.5,-592.2 14.5,-614.2 131.5,-614.2 131.5,-592.2 14.5,-592.2"/>
<image xlink:href="../../images/foreignKeys.png" width="11px" height="12px" preserveAspectRatio="xMinYMin meet" x="19.5" y="-609.2"/>
<text text-anchor="start" x="41.5" y="-599.3" font-family="Helvetica,sans-Serif" font-size="11.00" fill="#000000">OBSOLTD_BY</text>
<polygon fill="none" stroke="#000000" points="14.5,-573.2 14.5,-592.2 131.5,-592.2 131.5,-573.2 14.5,-573.2"/>
<text text-anchor="start" x="17.5" y="-579.3" font-family="Helvetica,sans-Serif" font-size="11.00" fill="#000000">...</text>
<polygon fill="#ffffff" stroke="transparent" points="14.5,-554.2 14.5,-573.2 47.5,-573.2 47.5,-554.2 14.5,-554.2"/>
<polygon fill="none" stroke="#000000" points="14.5,-554.2 14.5,-573.2 47.5,-573.2 47.5,-554.2 14.5,-554.2"/>
<text text-anchor="start" x="17.5" y="-560.3" font-family="Helvetica,sans-Serif" font-size="11.00" fill="#000000">&lt; 2</text>
<polygon fill="#ffffff" stroke="transparent" points="47.5,-554.2 47.5,-573.2 97.5,-573.2 97.5,-554.2 47.5,-554.2"/>
<polygon fill="none" stroke="#000000" points="47.5,-554.2 47.5,-573.2 97.5,-573.2 97.5,-554.2 47.5,-554.2"/>
<text text-anchor="start" x="55.9956" y="-560.3" font-family="Helvetica,sans-Serif" font-size="11.00" fill="#000000">30 rows</text>
<polygon fill="#ffffff" stroke="transparent" points="97.5,-554.2 97.5,-573.2 131.5,-573.2 131.5,-554.2 97.5,-554.2"/>
<polygon fill="none" stroke="#000000" points="97.5,-554.2 97.5,-573.2 131.5,-573.2 131.5,-554.2 97.5,-554.2"/>
<text text-anchor="start" x="106.7904" y="-560.3" font-family="Helvetica,sans-Serif" font-size="11.00" fill="#000000">11 &gt;</text>
</a>
</g>
</g>
<!-- expage_DataCore&#45;&gt;global_dbDOI -->
<g id="edge8" class="edge">
<title>expage_DataCore:w&#45;&gt;global_dbDOI:e</title>
<path fill="none" stroke="#000000" d="M174.0131,-557.9609C148.08,-575.3597 174.0068,-647.2 131.5,-647.2"/>
<polygon fill="#000000" stroke="#000000" points="180.2744,-556.2773 188.9348,-557.6765 184.1372,-555.2387 188,-554.2 188,-554.2 188,-554.2 184.1372,-555.2387 187.0652,-550.7235 180.2744,-556.2773 180.2744,-556.2773"/>
<ellipse fill="none" stroke="#000000" cx="177.1842" cy="-557.1083" rx="3.2" ry="3.2"/>
</g>
<!-- expage_points_EPSG3857 -->
<g id="node7" class="node">
<title>expage_points_EPSG3857</title>
<g id="a_node7"><a xlink:href="../../tables/expage_points_EPSG3857.html" xlink:title="expage_points_EPSG3857" target="_top">
<polygon fill="#ffffff" stroke="transparent" points="453,-593.7 453,-720.7 642,-720.7 642,-593.7 453,-593.7"/>
<polygon fill="#f5f5f5" stroke="transparent" points="453.5,-697.2 453.5,-720.2 642.5,-720.2 642.5,-697.2 453.5,-697.2"/>
<polygon fill="none" stroke="#000000" points="453.5,-697.2 453.5,-720.2 642.5,-720.2 642.5,-697.2 453.5,-697.2"/>
<text text-anchor="start" x="458.5" y="-705.8" font-family="Helvetica,sans-Serif" font-weight="bold" font-size="11.00" fill="#000000">expage_points_EPSG3857</text>
<text text-anchor="start" x="608.0219" y="-705.3" font-family="Helvetica,sans-Serif" font-size="11.00" fill="#000000">[table]</text>
<polygon fill="none" stroke="#000000" points="453.5,-675.2 453.5,-697.2 642.5,-697.2 642.5,-675.2 453.5,-675.2"/>
<image xlink:href="../../images/primaryKeys.png" width="11px" height="12px" preserveAspectRatio="xMinYMin meet" x="458.5" y="-692.2"/>
<text text-anchor="start" x="482.5" y="-682.3" font-family="Helvetica,sans-Serif" font-size="11.00" fill="#000000">id</text>
<polygon fill="#ffffff" stroke="transparent" points="453.5,-653.2 453.5,-675.2 642.5,-675.2 642.5,-653.2 453.5,-653.2"/>
<polygon fill="none" stroke="#000000" points="453.5,-653.2 453.5,-675.2 642.5,-675.2 642.5,-653.2 453.5,-653.2"/>
<text text-anchor="start" x="482.5" y="-660.3" font-family="Helvetica,sans-Serif" font-size="11.00" fill="#000000">geom</text>
<polygon fill="none" stroke="#000000" points="453.5,-631.2 453.5,-653.2 642.5,-653.2 642.5,-631.2 453.5,-631.2"/>
<image xlink:href="../../images/primaryKeys.png" width="11px" height="12px" preserveAspectRatio="xMinYMin meet" x="458.5" y="-648.2"/>
<text text-anchor="start" x="482.5" y="-638.3" font-family="Helvetica,sans-Serif" font-size="11.00" fill="#000000">OBSID1</text>
<polygon fill="none" stroke="#000000" points="453.5,-612.2 453.5,-631.2 642.5,-631.2 642.5,-612.2 453.5,-612.2"/>
<text text-anchor="start" x="456.5" y="-618.3" font-family="Helvetica,sans-Serif" font-size="11.00" fill="#000000">...</text>
<polygon fill="#ffffff" stroke="transparent" points="453.5,-593.2 453.5,-612.2 519.5,-612.2 519.5,-593.2 453.5,-593.2"/>
<polygon fill="none" stroke="#000000" points="453.5,-593.2 453.5,-612.2 519.5,-612.2 519.5,-593.2 453.5,-593.2"/>
<text text-anchor="start" x="456.5" y="-599.3" font-family="Helvetica,sans-Serif" font-size="11.00" fill="#000000">&lt; 1</text>
<polygon fill="#ffffff" stroke="transparent" points="519.5,-593.2 519.5,-612.2 607.5,-612.2 607.5,-593.2 519.5,-593.2"/>
<polygon fill="none" stroke="#000000" points="519.5,-593.2 519.5,-612.2 607.5,-612.2 607.5,-593.2 519.5,-593.2"/>
<text text-anchor="start" x="544.594" y="-599.3" font-family="Helvetica,sans-Serif" font-size="11.00" fill="#000000">16.009 rows</text>
<polygon fill="#ffffff" stroke="transparent" points="607.5,-593.2 607.5,-612.2 642.5,-612.2 642.5,-593.2 607.5,-593.2"/>
<polygon fill="none" stroke="#000000" points="607.5,-593.2 607.5,-612.2 642.5,-612.2 642.5,-593.2 607.5,-593.2"/>
<text text-anchor="start" x="633.3862" y="-599.3" font-family="Helvetica,sans-Serif" font-size="11.00" fill="#000000"> &#160;</text>
</a>
</g>
</g>
<!-- expage_points_EPSG3857&#45;&gt;expage_DataCore -->
<g id="edge9" class="edge">
<title>expage_points_EPSG3857:w&#45;&gt;expage_DataCore:e</title>
<path fill="none" stroke="#000000" d="M439.0156,-642.2C426.6771,-642.2 419.1667,-642.2 402,-642.2"/>
<polygon fill="#000000" stroke="#000000" points="445.5,-642.2001 453.5,-645.8 449.5,-642.2 453.5,-642.2 453.5,-642.2 453.5,-642.2 449.5,-642.2 453.5,-638.6 445.5,-642.2001 445.5,-642.2001"/>
<ellipse fill="none" stroke="#000000" cx="442.3" cy="-642.2001" rx="3.2" ry="3.2"/>
</g>
</g>
</svg>
