<?xml version="1.0" encoding="UTF-8" standalone="no"?>
<!DOCTYPE svg PUBLIC "-//W3C//DTD SVG 1.1//EN"
 "http://www.w3.org/Graphics/SVG/1.1/DTD/svg11.dtd">
<!-- Generated by graphviz version 2.40.1 (20161225.0304)
 -->
<!-- Title: twoDegreesRelationshipsDiagram Pages: 1 -->
<svg width="685pt" height="439pt"
 viewBox="0.00 0.00 685.00 439.20" xmlns="http://www.w3.org/2000/svg" xmlns:xlink="http://www.w3.org/1999/xlink">
<g id="graph0" class="graph" transform="scale(1 1) rotate(0) translate(4 435.2)">
<title>twoDegreesRelationshipsDiagram</title>
<polygon fill="#ffffff" stroke="transparent" points="-4,4 -4,-435.2 681,-435.2 681,4 -4,4"/>
<text text-anchor="middle" x="72.4936" y="-7.3" font-family="Helvetica,sans-Serif" font-size="11.00" fill="#000000">Generated by SchemaSpy</text>
<!-- expage_DataCore -->
<g id="node1" class="node">
<title>expage_DataCore</title>
<g id="a_node1"><a xlink:href="../../tables/expage_DataCore.html" xlink:title="expage_DataCore" target="_top">
<polygon fill="#ffffff" stroke="transparent" points="186,-104.2 186,-363.2 326,-363.2 326,-104.2 186,-104.2"/>
<polygon fill="#f5f5f5" stroke="transparent" points="186,-339.7 186,-362.7 326,-362.7 326,-339.7 186,-339.7"/>
<polygon fill="none" stroke="#000000" points="186,-339.7 186,-362.7 326,-362.7 326,-339.7 186,-339.7"/>
<text text-anchor="start" x="191" y="-348.3" font-family="Helvetica,sans-Serif" font-weight="bold" font-size="11.00" fill="#000000">expage_DataCore</text>
<text text-anchor="start" x="291.5219" y="-347.8" font-family="Helvetica,sans-Serif" font-size="11.00" fill="#000000">[table]</text>
<polygon fill="none" stroke="#000000" points="186,-317.7 186,-339.7 326,-339.7 326,-317.7 186,-317.7"/>
<image xlink:href="../../images/primaryKeys.png" width="11px" height="12px" preserveAspectRatio="xMinYMin meet" x="191" y="-334.7"/>
<text text-anchor="start" x="215" y="-324.8" font-family="Helvetica,sans-Serif" font-size="11.00" fill="#000000">OBSID1</text>
<polygon fill="none" stroke="#000000" points="186,-295.7 186,-317.7 326,-317.7 326,-295.7 186,-295.7"/>
<image xlink:href="../../images/foreignKeys.png" width="11px" height="12px" preserveAspectRatio="xMinYMin meet" x="191" y="-312.7"/>
<text text-anchor="start" x="215" y="-302.8" font-family="Helvetica,sans-Serif" font-size="11.00" fill="#000000">SMPID</text>
<polygon fill="none" stroke="#000000" points="186,-273.7 186,-295.7 326,-295.7 326,-273.7 186,-273.7"/>
<image xlink:href="../../images/foreignKeys.png" width="11px" height="12px" preserveAspectRatio="xMinYMin meet" x="191" y="-290.7"/>
<text text-anchor="start" x="215" y="-280.8" font-family="Helvetica,sans-Serif" font-size="11.00" fill="#000000">DBDOI</text>
<polygon fill="none" stroke="#000000" points="186,-251.7 186,-273.7 326,-273.7 326,-251.7 186,-251.7"/>
<image xlink:href="../../images/foreignKeys.png" width="11px" height="12px" preserveAspectRatio="xMinYMin meet" x="191" y="-268.7"/>
<text text-anchor="start" x="215" y="-258.8" font-family="Helvetica,sans-Serif" font-size="11.00" fill="#000000">REFDBID1</text>
<polygon fill="none" stroke="#000000" points="186,-229.7 186,-251.7 326,-251.7 326,-229.7 186,-229.7"/>
<image xlink:href="../../images/foreignKeys.png" width="11px" height="12px" preserveAspectRatio="xMinYMin meet" x="191" y="-246.7"/>
<text text-anchor="start" x="215" y="-236.8" font-family="Helvetica,sans-Serif" font-size="11.00" fill="#000000">REFDBID2</text>
<polygon fill="none" stroke="#000000" points="186,-207.7 186,-229.7 326,-229.7 326,-207.7 186,-207.7"/>
<image xlink:href="../../images/foreignKeys.png" width="11px" height="12px" preserveAspectRatio="xMinYMin meet" x="191" y="-224.7"/>
<text text-anchor="start" x="215" y="-214.8" font-family="Helvetica,sans-Serif" font-size="11.00" fill="#000000">REFDBID3</text>
<polygon fill="none" stroke="#000000" points="186,-185.7 186,-207.7 326,-207.7 326,-185.7 186,-185.7"/>
<image xlink:href="../../images/foreignKeys.png" width="11px" height="12px" preserveAspectRatio="xMinYMin meet" x="191" y="-202.7"/>
<text text-anchor="start" x="215" y="-192.8" font-family="Helvetica,sans-Serif" font-size="11.00" fill="#000000">REFDBID4</text>
<polygon fill="none" stroke="#000000" points="186,-163.7 186,-185.7 326,-185.7 326,-163.7 186,-163.7"/>
<image xlink:href="../../images/foreignKeys.png" width="11px" height="12px" preserveAspectRatio="xMinYMin meet" x="191" y="-180.7"/>
<text text-anchor="start" x="215" y="-170.8" font-family="Helvetica,sans-Serif" font-size="11.00" fill="#000000">BESTNDID</text>
<polygon fill="none" stroke="#000000" points="186,-141.7 186,-163.7 326,-163.7 326,-141.7 186,-141.7"/>
<image xlink:href="../../images/foreignKeys.png" width="11px" height="12px" preserveAspectRatio="xMinYMin meet" x="191" y="-158.7"/>
<text text-anchor="start" x="215" y="-148.8" font-family="Helvetica,sans-Serif" font-size="11.00" fill="#000000">ALSTNDID</text>
<polygon fill="none" stroke="#000000" points="186,-122.7 186,-141.7 326,-141.7 326,-122.7 186,-122.7"/>
<text text-anchor="start" x="189" y="-128.8" font-family="Helvetica,sans-Serif" font-size="11.00" fill="#000000">...</text>
<polygon fill="#ffffff" stroke="transparent" points="186,-103.7 186,-122.7 223,-122.7 223,-103.7 186,-103.7"/>
<polygon fill="none" stroke="#000000" points="186,-103.7 186,-122.7 223,-122.7 223,-103.7 186,-103.7"/>
<text text-anchor="start" x="189" y="-109.8" font-family="Helvetica,sans-Serif" font-size="11.00" fill="#000000">&lt; 8</text>
<polygon fill="#ffffff" stroke="transparent" points="223,-103.7 223,-122.7 296,-122.7 296,-103.7 223,-103.7"/>
<polygon fill="none" stroke="#000000" points="223,-103.7 223,-122.7 296,-122.7 296,-103.7 223,-103.7"/>
<text text-anchor="start" x="233.094" y="-109.8" font-family="Helvetica,sans-Serif" font-size="11.00" fill="#000000">16.009 rows</text>
<polygon fill="#ffffff" stroke="transparent" points="296,-103.7 296,-122.7 326,-122.7 326,-103.7 296,-103.7"/>
<polygon fill="none" stroke="#000000" points="296,-103.7 296,-122.7 326,-122.7 326,-103.7 296,-103.7"/>
<text text-anchor="start" x="307.4053" y="-109.8" font-family="Helvetica,sans-Serif" font-size="11.00" fill="#000000">1 &gt;</text>
</a>
</g>
</g>
<!-- crn_alstndID -->
<g id="node2" class="node">
<title>crn_alstndID</title>
<g id="a_node2"><a xlink:href="../../tables/crn_alstndID.html" xlink:title="crn_alstndID" target="_top">
<polygon fill="#ffffff" stroke="transparent" points="17,-38.2 17,-99.2 128,-99.2 128,-38.2 17,-38.2"/>
<polygon fill="#f5f5f5" stroke="transparent" points="17.5,-75.7 17.5,-98.7 128.5,-98.7 128.5,-75.7 17.5,-75.7"/>
<polygon fill="none" stroke="#000000" points="17.5,-75.7 17.5,-98.7 128.5,-98.7 128.5,-75.7 17.5,-75.7"/>
<text text-anchor="start" x="22.5" y="-84.3" font-family="Helvetica,sans-Serif" font-weight="bold" font-size="11.00" fill="#000000">crn_alstndID</text>
<text text-anchor="start" x="94.0219" y="-83.8" font-family="Helvetica,sans-Serif" font-size="11.00" fill="#000000">[table]</text>
<polygon fill="none" stroke="#000000" points="17.5,-56.7 17.5,-75.7 128.5,-75.7 128.5,-56.7 17.5,-56.7"/>
<text text-anchor="start" x="20.5" y="-62.8" font-family="Helvetica,sans-Serif" font-size="11.00" fill="#000000">...</text>
<polygon fill="#ffffff" stroke="transparent" points="17.5,-37.7 17.5,-56.7 46.5,-56.7 46.5,-37.7 17.5,-37.7"/>
<polygon fill="none" stroke="#000000" points="17.5,-37.7 17.5,-56.7 46.5,-56.7 46.5,-37.7 17.5,-37.7"/>
<text text-anchor="start" x="20.5" y="-43.8" font-family="Helvetica,sans-Serif" font-size="11.00" fill="#000000"> &#160;</text>
<polygon fill="#ffffff" stroke="transparent" points="46.5,-37.7 46.5,-56.7 98.5,-56.7 98.5,-37.7 46.5,-37.7"/>
<polygon fill="none" stroke="#000000" points="46.5,-37.7 46.5,-56.7 98.5,-56.7 98.5,-37.7 46.5,-37.7"/>
<text text-anchor="start" x="56.9956" y="-43.8" font-family="Helvetica,sans-Serif" font-size="11.00" fill="#000000">26 rows</text>
<polygon fill="#ffffff" stroke="transparent" points="98.5,-37.7 98.5,-56.7 128.5,-56.7 128.5,-37.7 98.5,-37.7"/>
<polygon fill="none" stroke="#000000" points="98.5,-37.7 98.5,-56.7 128.5,-56.7 128.5,-37.7 98.5,-37.7"/>
<text text-anchor="start" x="109.9053" y="-43.8" font-family="Helvetica,sans-Serif" font-size="11.00" fill="#000000">2 &gt;</text>
</a>
</g>
</g>
<!-- expage_DataCore&#45;&gt;crn_alstndID -->
<g id="edge1" class="edge">
<title>expage_DataCore:w&#45;&gt;crn_alstndID:e</title>
<path fill="none" stroke="#000000" d="M171.7919,-148.7357C147.3706,-131.716 168.874,-65.7 128.5,-65.7"/>
<polygon fill="#000000" stroke="#000000" points="178.2943,-150.55 185.0325,-156.1676 182.1472,-151.625 186,-152.7 186,-152.7 186,-152.7 182.1472,-151.625 186.9675,-149.2324 178.2943,-150.55 178.2943,-150.55"/>
<ellipse fill="none" stroke="#000000" cx="175.212" cy="-149.6899" rx="3.2" ry="3.2"/>
</g>
<!-- crn_bestndID -->
<g id="node3" class="node">
<title>crn_bestndID</title>
<g id="a_node3"><a xlink:href="../../tables/crn_bestndID.html" xlink:title="crn_bestndID" target="_top">
<polygon fill="#ffffff" stroke="transparent" points="15,-120.2 15,-181.2 130,-181.2 130,-120.2 15,-120.2"/>
<polygon fill="#f5f5f5" stroke="transparent" points="15.5,-157.7 15.5,-180.7 130.5,-180.7 130.5,-157.7 15.5,-157.7"/>
<polygon fill="none" stroke="#000000" points="15.5,-157.7 15.5,-180.7 130.5,-180.7 130.5,-157.7 15.5,-157.7"/>
<text text-anchor="start" x="20.5" y="-166.3" font-family="Helvetica,sans-Serif" font-weight="bold" font-size="11.00" fill="#000000">crn_bestndID</text>
<text text-anchor="start" x="96.0219" y="-165.8" font-family="Helvetica,sans-Serif" font-size="11.00" fill="#000000">[table]</text>
<polygon fill="none" stroke="#000000" points="15.5,-138.7 15.5,-157.7 130.5,-157.7 130.5,-138.7 15.5,-138.7"/>
<text text-anchor="start" x="18.5" y="-144.8" font-family="Helvetica,sans-Serif" font-size="11.00" fill="#000000">...</text>
<polygon fill="#ffffff" stroke="transparent" points="15.5,-119.7 15.5,-138.7 46.5,-138.7 46.5,-119.7 15.5,-119.7"/>
<polygon fill="none" stroke="#000000" points="15.5,-119.7 15.5,-138.7 46.5,-138.7 46.5,-119.7 15.5,-119.7"/>
<text text-anchor="start" x="18.5" y="-125.8" font-family="Helvetica,sans-Serif" font-size="11.00" fill="#000000"> &#160;</text>
<polygon fill="#ffffff" stroke="transparent" points="46.5,-119.7 46.5,-138.7 99.5,-138.7 99.5,-119.7 46.5,-119.7"/>
<polygon fill="none" stroke="#000000" points="46.5,-119.7 46.5,-138.7 99.5,-138.7 99.5,-119.7 46.5,-119.7"/>
<text text-anchor="start" x="57.9956" y="-125.8" font-family="Helvetica,sans-Serif" font-size="11.00" fill="#000000">60 rows</text>
<polygon fill="#ffffff" stroke="transparent" points="99.5,-119.7 99.5,-138.7 130.5,-138.7 130.5,-119.7 99.5,-119.7"/>
<polygon fill="none" stroke="#000000" points="99.5,-119.7 99.5,-138.7 130.5,-138.7 130.5,-119.7 99.5,-119.7"/>
<text text-anchor="start" x="111.9053" y="-125.8" font-family="Helvetica,sans-Serif" font-size="11.00" fill="#000000">2 &gt;</text>
</a>
</g>
</g>
<!-- expage_DataCore&#45;&gt;crn_bestndID -->
<g id="edge2" class="edge">
<title>expage_DataCore:w&#45;&gt;crn_bestndID:e</title>
<path fill="none" stroke="#000000" d="M171.7149,-171.6028C157.1078,-164.5107 152.1446,-147.7 130.5,-147.7"/>
<polygon fill="#000000" stroke="#000000" points="178.1817,-173.0048 185.2372,-178.2183 182.0908,-173.8524 186,-174.7 186,-174.7 186,-174.7 182.0908,-173.8524 186.7628,-171.1817 178.1817,-173.0048 178.1817,-173.0048"/>
<ellipse fill="none" stroke="#000000" cx="175.0543" cy="-172.3267" rx="3.2" ry="3.2"/>
</g>
<!-- global_dbDOI -->
<g id="node4" class="node">
<title>global_dbDOI</title>
<g id="a_node4"><a xlink:href="../../tables/global_dbDOI.html" xlink:title="global_dbDOI" target="_top">
<polygon fill="#ffffff" stroke="transparent" points="14,-284.2 14,-345.2 131,-345.2 131,-284.2 14,-284.2"/>
<polygon fill="#f5f5f5" stroke="transparent" points="14.5,-321.7 14.5,-344.7 131.5,-344.7 131.5,-321.7 14.5,-321.7"/>
<polygon fill="none" stroke="#000000" points="14.5,-321.7 14.5,-344.7 131.5,-344.7 131.5,-321.7 14.5,-321.7"/>
<text text-anchor="start" x="19.5" y="-330.3" font-family="Helvetica,sans-Serif" font-weight="bold" font-size="11.00" fill="#000000">global_dbDOI</text>
<text text-anchor="start" x="97.0219" y="-329.8" font-family="Helvetica,sans-Serif" font-size="11.00" fill="#000000">[table]</text>
<polygon fill="none" stroke="#000000" points="14.5,-302.7 14.5,-321.7 131.5,-321.7 131.5,-302.7 14.5,-302.7"/>
<text text-anchor="start" x="17.5" y="-308.8" font-family="Helvetica,sans-Serif" font-size="11.00" fill="#000000">...</text>
<polygon fill="#ffffff" stroke="transparent" points="14.5,-283.7 14.5,-302.7 46.5,-302.7 46.5,-283.7 14.5,-283.7"/>
<polygon fill="none" stroke="#000000" points="14.5,-283.7 14.5,-302.7 46.5,-302.7 46.5,-283.7 14.5,-283.7"/>
<text text-anchor="start" x="17.5" y="-289.8" font-family="Helvetica,sans-Serif" font-size="11.00" fill="#000000"> &#160;</text>
<polygon fill="#ffffff" stroke="transparent" points="46.5,-283.7 46.5,-302.7 100.5,-302.7 100.5,-283.7 46.5,-283.7"/>
<polygon fill="none" stroke="#000000" points="46.5,-283.7 46.5,-302.7 100.5,-302.7 100.5,-283.7 46.5,-283.7"/>
<text text-anchor="start" x="58.9956" y="-289.8" font-family="Helvetica,sans-Serif" font-size="11.00" fill="#000000">26 rows</text>
<polygon fill="#ffffff" stroke="transparent" points="100.5,-283.7 100.5,-302.7 131.5,-302.7 131.5,-283.7 100.5,-283.7"/>
<polygon fill="none" stroke="#000000" points="100.5,-283.7 100.5,-302.7 131.5,-302.7 131.5,-283.7 100.5,-283.7"/>
<text text-anchor="start" x="112.9053" y="-289.8" font-family="Helvetica,sans-Serif" font-size="11.00" fill="#000000">9 &gt;</text>
</a>
</g>
</g>
<!-- expage_DataCore&#45;&gt;global_dbDOI -->
<g id="edge3" class="edge">
<title>expage_DataCore:w&#45;&gt;global_dbDOI:e</title>
<path fill="none" stroke="#000000" d="M171.5215,-288.0107C157.5047,-295.2205 152.6186,-311.7 131.5,-311.7"/>
<polygon fill="#000000" stroke="#000000" points="178.2013,-286.4833 186.8025,-288.2094 182.1006,-285.5917 186,-284.7 186,-284.7 186,-284.7 182.1006,-285.5917 185.1975,-281.1906 178.2013,-286.4833 178.2013,-286.4833"/>
<ellipse fill="none" stroke="#000000" cx="175.0818" cy="-287.1967" rx="3.2" ry="3.2"/>
</g>
<!-- global_RefCore -->
<g id="node5" class="node">
<title>global_RefCore</title>
<g id="a_node5"><a xlink:href="../../tables/global_RefCore.html" xlink:title="global_RefCore" target="_top">
<polygon fill="#ffffff" stroke="transparent" points="9,-202.2 9,-263.2 136,-263.2 136,-202.2 9,-202.2"/>
<polygon fill="#f5f5f5" stroke="transparent" points="9.5,-239.7 9.5,-262.7 136.5,-262.7 136.5,-239.7 9.5,-239.7"/>
<polygon fill="none" stroke="#000000" points="9.5,-239.7 9.5,-262.7 136.5,-262.7 136.5,-239.7 9.5,-239.7"/>
<text text-anchor="start" x="14.5" y="-248.3" font-family="Helvetica,sans-Serif" font-weight="bold" font-size="11.00" fill="#000000">global_RefCore</text>
<text text-anchor="start" x="102.0219" y="-247.8" font-family="Helvetica,sans-Serif" font-size="11.00" fill="#000000">[table]</text>
<polygon fill="none" stroke="#000000" points="9.5,-220.7 9.5,-239.7 136.5,-239.7 136.5,-220.7 9.5,-220.7"/>
<text text-anchor="start" x="12.5" y="-226.8" font-family="Helvetica,sans-Serif" font-size="11.00" fill="#000000">...</text>
<polygon fill="#ffffff" stroke="transparent" points="9.5,-201.7 9.5,-220.7 40.5,-220.7 40.5,-201.7 9.5,-201.7"/>
<polygon fill="none" stroke="#000000" points="9.5,-201.7 9.5,-220.7 40.5,-220.7 40.5,-201.7 9.5,-201.7"/>
<text text-anchor="start" x="12.5" y="-207.8" font-family="Helvetica,sans-Serif" font-size="11.00" fill="#000000">&lt; 5</text>
<polygon fill="#ffffff" stroke="transparent" points="40.5,-201.7 40.5,-220.7 104.5,-220.7 104.5,-201.7 40.5,-201.7"/>
<polygon fill="none" stroke="#000000" points="40.5,-201.7 40.5,-220.7 104.5,-220.7 104.5,-201.7 40.5,-201.7"/>
<text text-anchor="start" x="47.7089" y="-207.8" font-family="Helvetica,sans-Serif" font-size="11.00" fill="#000000">3.860 rows</text>
<polygon fill="#ffffff" stroke="transparent" points="104.5,-201.7 104.5,-220.7 136.5,-220.7 136.5,-201.7 104.5,-201.7"/>
<polygon fill="none" stroke="#000000" points="104.5,-201.7 104.5,-220.7 136.5,-220.7 136.5,-201.7 104.5,-201.7"/>
<text text-anchor="start" x="111.7904" y="-207.8" font-family="Helvetica,sans-Serif" font-size="11.00" fill="#000000">35 &gt;</text>
</a>
</g>
</g>
<!-- expage_DataCore&#45;&gt;global_RefCore -->
<g id="edge4" class="edge">
<title>expage_DataCore:w&#45;&gt;global_RefCore:e</title>
<path fill="none" stroke="#000000" d="M171.9273,-258.3858C159.5607,-249.4408 156.9502,-229.7 136.5,-229.7"/>
<polygon fill="#000000" stroke="#000000" points="178.3513,-260.3552 184.9448,-266.1419 182.1757,-261.5276 186,-262.7 186,-262.7 186,-262.7 182.1757,-261.5276 187.0552,-259.2581 178.3513,-260.3552 178.3513,-260.3552"/>
<ellipse fill="none" stroke="#000000" cx="175.2919" cy="-259.4172" rx="3.2" ry="3.2"/>
</g>
<!-- expage_DataCore&#45;&gt;global_RefCore -->
<g id="edge5" class="edge">
<title>expage_DataCore:w&#45;&gt;global_RefCore:e</title>
<path fill="none" stroke="#000000" d="M171.5598,-238.8836C159.9771,-235.7593 153.2264,-229.7 136.5,-229.7"/>
<polygon fill="#000000" stroke="#000000" points="178.0626,-239.7015 185.5507,-244.2719 182.0313,-240.2008 186,-240.7 186,-240.7 186,-240.7 182.0313,-240.2008 186.4493,-237.1281 178.0626,-239.7015 178.0626,-239.7015"/>
<ellipse fill="none" stroke="#000000" cx="174.8876" cy="-239.3021" rx="3.2" ry="3.2"/>
</g>
<!-- expage_DataCore&#45;&gt;global_RefCore -->
<g id="edge6" class="edge">
<title>expage_DataCore:w&#45;&gt;global_RefCore:e</title>
<path fill="none" stroke="#000000" d="M171.5598,-220.5164C159.9771,-223.6407 153.2264,-229.7 136.5,-229.7"/>
<polygon fill="#000000" stroke="#000000" points="178.0626,-219.6985 186.4493,-222.2719 182.0313,-219.1992 186,-218.7 186,-218.7 186,-218.7 182.0313,-219.1992 185.5507,-215.1281 178.0626,-219.6985 178.0626,-219.6985"/>
<ellipse fill="none" stroke="#000000" cx="174.8876" cy="-220.0979" rx="3.2" ry="3.2"/>
</g>
<!-- expage_DataCore&#45;&gt;global_RefCore -->
<g id="edge7" class="edge">
<title>expage_DataCore:w&#45;&gt;global_RefCore:e</title>
<path fill="none" stroke="#000000" d="M171.9273,-201.0142C159.5607,-209.9592 156.9502,-229.7 136.5,-229.7"/>
<polygon fill="#000000" stroke="#000000" points="178.3513,-199.0448 187.0552,-200.1419 182.1757,-197.8724 186,-196.7 186,-196.7 186,-196.7 182.1757,-197.8724 184.9448,-193.2581 178.3513,-199.0448 178.3513,-199.0448"/>
<ellipse fill="none" stroke="#000000" cx="175.2919" cy="-199.9828" rx="3.2" ry="3.2"/>
</g>
<!-- expage_Sample -->
<g id="node6" class="node">
<title>expage_Sample</title>
<g id="a_node6"><a xlink:href="../../tables/expage_Sample.html" xlink:title="expage_Sample" target="_top">
<polygon fill="#ffffff" stroke="transparent" points="8,-366.2 8,-427.2 137,-427.2 137,-366.2 8,-366.2"/>
<polygon fill="#f5f5f5" stroke="transparent" points="8.5,-403.7 8.5,-426.7 137.5,-426.7 137.5,-403.7 8.5,-403.7"/>
<polygon fill="none" stroke="#000000" points="8.5,-403.7 8.5,-426.7 137.5,-426.7 137.5,-403.7 8.5,-403.7"/>
<text text-anchor="start" x="13.5" y="-412.3" font-family="Helvetica,sans-Serif" font-weight="bold" font-size="11.00" fill="#000000">expage_Sample</text>
<text text-anchor="start" x="103.0219" y="-411.8" font-family="Helvetica,sans-Serif" font-size="11.00" fill="#000000">[table]</text>
<polygon fill="none" stroke="#000000" points="8.5,-384.7 8.5,-403.7 137.5,-403.7 137.5,-384.7 8.5,-384.7"/>
<text text-anchor="start" x="11.5" y="-390.8" font-family="Helvetica,sans-Serif" font-size="11.00" fill="#000000">...</text>
<polygon fill="#ffffff" stroke="transparent" points="8.5,-365.7 8.5,-384.7 40.5,-384.7 40.5,-365.7 8.5,-365.7"/>
<polygon fill="none" stroke="#000000" points="8.5,-365.7 8.5,-384.7 40.5,-384.7 40.5,-365.7 8.5,-365.7"/>
<text text-anchor="start" x="11.5" y="-371.8" font-family="Helvetica,sans-Serif" font-size="11.00" fill="#000000">&lt; 2</text>
<polygon fill="#ffffff" stroke="transparent" points="40.5,-365.7 40.5,-384.7 110.5,-384.7 110.5,-365.7 40.5,-365.7"/>
<polygon fill="none" stroke="#000000" points="40.5,-365.7 40.5,-384.7 110.5,-384.7 110.5,-365.7 40.5,-365.7"/>
<text text-anchor="start" x="47.594" y="-371.8" font-family="Helvetica,sans-Serif" font-size="11.00" fill="#000000">15.805 rows</text>
<polygon fill="#ffffff" stroke="transparent" points="110.5,-365.7 110.5,-384.7 137.5,-384.7 137.5,-365.7 110.5,-365.7"/>
<polygon fill="none" stroke="#000000" points="110.5,-365.7 110.5,-384.7 137.5,-384.7 137.5,-365.7 110.5,-365.7"/>
<text text-anchor="start" x="118.9053" y="-371.8" font-family="Helvetica,sans-Serif" font-size="11.00" fill="#000000">1 &gt;</text>
</a>
</g>
</g>
<!-- expage_DataCore&#45;&gt;expage_Sample -->
<g id="edge8" class="edge">
<title>expage_DataCore:w&#45;&gt;expage_Sample:e</title>
<path fill="none" stroke="#000000" d="M172.1395,-311.134C151.103,-328.8629 175.7167,-393.7 137.5,-393.7"/>
<polygon fill="#000000" stroke="#000000" points="178.3804,-309.1375 187.0969,-310.1288 182.1902,-307.9188 186,-306.7 186,-306.7 186,-306.7 182.1902,-307.9188 184.9031,-303.2712 178.3804,-309.1375 178.3804,-309.1375"/>
<ellipse fill="none" stroke="#000000" cx="175.3325" cy="-310.1126" rx="3.2" ry="3.2"/>
</g>
<!-- expage_points_EPSG3857 -->
<g id="node7" class="node">
<title>expage_points_EPSG3857</title>
<g id="a_node7"><a xlink:href="../../tables/expage_points_EPSG3857.html" xlink:title="expage_points_EPSG3857" target="_top">
<polygon fill="#ffffff" stroke="transparent" points="375,-230.7 375,-408.7 669,-408.7 669,-230.7 375,-230.7"/>
<polygon fill="#f5f5f5" stroke="transparent" points="377,-383.7 377,-406.7 667,-406.7 667,-383.7 377,-383.7"/>
<polygon fill="none" stroke="#000000" points="377,-383.7 377,-406.7 667,-406.7 667,-383.7 377,-383.7"/>
<text text-anchor="start" x="382" y="-392.3" font-family="Helvetica,sans-Serif" font-weight="bold" font-size="11.00" fill="#000000">expage_points_EPSG3857</text>
<text text-anchor="start" x="632.0437" y="-391.8" font-family="Helvetica,sans-Serif" font-size="11.00" fill="#000000">[table]</text>
<polygon fill="none" stroke="#000000" points="377,-361.7 377,-383.7 548,-383.7 548,-361.7 377,-361.7"/>
<image xlink:href="../../images/primaryKeys.png" width="11px" height="12px" preserveAspectRatio="xMinYMin meet" x="382" y="-378.7"/>
<text text-anchor="start" x="397" y="-368.8" font-family="Helvetica,sans-Serif" font-size="11.00" fill="#000000">id</text>
<polygon fill="none" stroke="#000000" points="548,-361.7 548,-383.7 667,-383.7 667,-361.7 548,-361.7"/>
<text text-anchor="start" x="551" y="-369.4" font-family="Helvetica,sans-Serif" font-size="11.00" fill="#000000">serial[10]</text>
<polygon fill="#ffffff" stroke="transparent" points="377,-339.7 377,-361.7 548,-361.7 548,-339.7 377,-339.7"/>
<polygon fill="none" stroke="#000000" points="377,-339.7 377,-361.7 548,-361.7 548,-339.7 377,-339.7"/>
<text text-anchor="start" x="397" y="-346.8" font-family="Helvetica,sans-Serif" font-size="11.00" fill="#000000">geom</text>
<polygon fill="none" stroke="#000000" points="548,-339.7 548,-361.7 667,-361.7 667,-339.7 548,-339.7"/>
<text text-anchor="start" x="550.9485" y="-347.4" font-family="Helvetica,sans-Serif" font-size="11.00" fill="#000000">geometry[2147483647]</text>
<polygon fill="none" stroke="#000000" points="377,-317.7 377,-339.7 548,-339.7 548,-317.7 377,-317.7"/>
<image xlink:href="../../images/primaryKeys.png" width="11px" height="12px" preserveAspectRatio="xMinYMin meet" x="382" y="-334.7"/>
<text text-anchor="start" x="397" y="-324.8" font-family="Helvetica,sans-Serif" font-size="11.00" fill="#000000">OBSID1</text>
<polygon fill="none" stroke="#000000" points="548,-317.7 548,-339.7 667,-339.7 667,-317.7 548,-317.7"/>
<text text-anchor="start" x="551" y="-325.4" font-family="Helvetica,sans-Serif" font-size="11.00" fill="#000000">text[2147483647]</text>
<polygon fill="none" stroke="#000000" points="377,-295.7 377,-317.7 548,-317.7 548,-295.7 377,-295.7"/>
<text text-anchor="start" x="397" y="-302.8" font-family="Helvetica,sans-Serif" font-size="11.00" fill="#000000">OBSID2</text>
<polygon fill="none" stroke="#000000" points="548,-295.7 548,-317.7 667,-317.7 667,-295.7 548,-295.7"/>
<text text-anchor="start" x="551" y="-303.4" font-family="Helvetica,sans-Serif" font-size="11.00" fill="#000000">text[2147483647]</text>
<polygon fill="none" stroke="#000000" points="377,-273.7 377,-295.7 548,-295.7 548,-273.7 377,-273.7"/>
<text text-anchor="start" x="397" y="-280.8" font-family="Helvetica,sans-Serif" font-size="11.00" fill="#000000">CREATED_AT</text>
<polygon fill="none" stroke="#000000" points="548,-273.7 548,-295.7 667,-295.7 667,-273.7 548,-273.7"/>
<text text-anchor="start" x="551" y="-281.4" font-family="Helvetica,sans-Serif" font-size="11.00" fill="#000000">timestamptz[35,6]</text>
<polygon fill="none" stroke="#000000" points="377,-251.7 377,-273.7 548,-273.7 548,-251.7 377,-251.7"/>
<text text-anchor="start" x="397" y="-258.8" font-family="Helvetica,sans-Serif" font-size="11.00" fill="#000000">UPDATED_AT</text>
<polygon fill="none" stroke="#000000" points="548,-251.7 548,-273.7 667,-273.7 667,-251.7 548,-251.7"/>
<text text-anchor="start" x="551" y="-259.4" font-family="Helvetica,sans-Serif" font-size="11.00" fill="#000000">timestamptz[35,6]</text>
<polygon fill="#ffffff" stroke="transparent" points="377,-232.7 377,-251.7 440,-251.7 440,-232.7 377,-232.7"/>
<polygon fill="none" stroke="#000000" points="377,-232.7 377,-251.7 440,-251.7 440,-232.7 377,-232.7"/>
<text text-anchor="start" x="380" y="-238.8" font-family="Helvetica,sans-Serif" font-size="11.00" fill="#000000">&lt; 1</text>
<polygon fill="#ffffff" stroke="transparent" points="440,-232.7 440,-251.7 548,-251.7 548,-232.7 440,-232.7"/>
<polygon fill="none" stroke="#000000" points="440,-232.7 440,-251.7 548,-251.7 548,-232.7 440,-232.7"/>
<text text-anchor="start" x="485.094" y="-238.8" font-family="Helvetica,sans-Serif" font-size="11.00" fill="#000000">16.009 rows</text>
<polygon fill="#ffffff" stroke="transparent" points="548,-232.7 548,-251.7 667,-251.7 667,-232.7 548,-232.7"/>
<polygon fill="none" stroke="#000000" points="548,-232.7 548,-251.7 667,-251.7 667,-232.7 548,-232.7"/>
<text text-anchor="start" x="648.4053" y="-238.8" font-family="Helvetica,sans-Serif" font-size="11.00" fill="#000000">0 &gt;</text>
<polygon fill="none" stroke="#000000" stroke-width="2" points="376,-231.7 376,-407.7 668,-407.7 668,-231.7 376,-231.7"/>
</a>
</g>
</g>
<!-- expage_points_EPSG3857&#45;&gt;expage_DataCore -->
<g id="edge9" class="edge">
<title>expage_points_EPSG3857:w&#45;&gt;expage_DataCore:e</title>
<path fill="none" stroke="#000000" d="M362.276,-328.7C350.2815,-328.7 342.8229,-328.7 326,-328.7"/>
<polygon fill="#000000" stroke="#000000" points="369,-328.7001 377,-332.3 373,-328.7 377,-328.7 377,-328.7 377,-328.7 373,-328.7 377,-325.1 369,-328.7001 369,-328.7001"/>
<ellipse fill="none" stroke="#000000" cx="365.8" cy="-328.7001" rx="3.2" ry="3.2"/>
</g>
</g>
</svg>
