<?xml version="1.0" encoding="UTF-8" standalone="no"?>
<!DOCTYPE svg PUBLIC "-//W3C//DTD SVG 1.1//EN"
 "http://www.w3.org/Graphics/SVG/1.1/DTD/svg11.dtd">
<!-- Generated by graphviz version 2.40.1 (20161225.0304)
 -->
<!-- Title: oneDegreeRelationshipsDiagram Pages: 1 -->
<svg width="499pt" height="355pt"
 viewBox="0.00 0.00 499.00 354.70" xmlns="http://www.w3.org/2000/svg" xmlns:xlink="http://www.w3.org/1999/xlink">
<g id="graph0" class="graph" transform="scale(1 1) rotate(0) translate(4 350.7)">
<title>oneDegreeRelationshipsDiagram</title>
<polygon fill="#ffffff" stroke="transparent" points="-4,4 -4,-350.7 495,-350.7 495,4 -4,4"/>
<text text-anchor="middle" x="72.4936" y="-7.3" font-family="Helvetica,sans-Serif" font-size="11.00" fill="#000000">Generated by SchemaSpy</text>
<!-- expage_points_EPSG3857 -->
<g id="node1" class="node">
<title>expage_points_EPSG3857</title>
<g id="a_node1"><a xlink:href="../../tables/expage_points_EPSG3857.html" xlink:title="expage_points_EPSG3857" target="_top">
<polygon fill="#ffffff" stroke="transparent" points="189,-164.7 189,-342.7 483,-342.7 483,-164.7 189,-164.7"/>
<polygon fill="#f5f5f5" stroke="transparent" points="191,-317.7 191,-340.7 481,-340.7 481,-317.7 191,-317.7"/>
<polygon fill="none" stroke="#000000" points="191,-317.7 191,-340.7 481,-340.7 481,-317.7 191,-317.7"/>
<text text-anchor="start" x="196" y="-326.8" font-family="Helvetica,sans-Serif" font-weight="bold" font-size="11.00" fill="#000000">expage_points_EPSG3857</text>
<text text-anchor="start" x="446.0437" y="-325.8" font-family="Helvetica,sans-Serif" font-size="11.00" fill="#000000">[table]</text>
<polygon fill="none" stroke="#000000" points="191,-295.7 191,-317.7 362,-317.7 362,-295.7 191,-295.7"/>
<image xlink:href="../../images/primaryKeys.png" width="11px" height="12px" preserveAspectRatio="xMinYMin meet" x="196" y="-312.7"/>
<text text-anchor="start" x="211" y="-302.8" font-family="Helvetica,sans-Serif" font-size="11.00" fill="#000000">id</text>
<polygon fill="none" stroke="#000000" points="362,-295.7 362,-317.7 481,-317.7 481,-295.7 362,-295.7"/>
<text text-anchor="start" x="365" y="-303.4" font-family="Helvetica,sans-Serif" font-size="11.00" fill="#000000">serial[10]</text>
<polygon fill="#ffffff" stroke="transparent" points="191,-273.7 191,-295.7 362,-295.7 362,-273.7 191,-273.7"/>
<polygon fill="none" stroke="#000000" points="191,-273.7 191,-295.7 362,-295.7 362,-273.7 191,-273.7"/>
<text text-anchor="start" x="211" y="-280.8" font-family="Helvetica,sans-Serif" font-size="11.00" fill="#000000">geom</text>
<polygon fill="none" stroke="#000000" points="362,-273.7 362,-295.7 481,-295.7 481,-273.7 362,-273.7"/>
<text text-anchor="start" x="364.9485" y="-281.4" font-family="Helvetica,sans-Serif" font-size="11.00" fill="#000000">geometry[2147483647]</text>
<polygon fill="none" stroke="#000000" points="191,-251.7 191,-273.7 362,-273.7 362,-251.7 191,-251.7"/>
<image xlink:href="../../images/primaryKeys.png" width="11px" height="12px" preserveAspectRatio="xMinYMin meet" x="196" y="-268.7"/>
<text text-anchor="start" x="211" y="-258.8" font-family="Helvetica,sans-Serif" font-size="11.00" fill="#000000">OBSID1</text>
<polygon fill="none" stroke="#000000" points="362,-251.7 362,-273.7 481,-273.7 481,-251.7 362,-251.7"/>
<text text-anchor="start" x="365" y="-259.4" font-family="Helvetica,sans-Serif" font-size="11.00" fill="#000000">text[2147483647]</text>
<polygon fill="none" stroke="#000000" points="191,-229.7 191,-251.7 362,-251.7 362,-229.7 191,-229.7"/>
<text text-anchor="start" x="211" y="-236.8" font-family="Helvetica,sans-Serif" font-size="11.00" fill="#000000">OBSID2</text>
<polygon fill="none" stroke="#000000" points="362,-229.7 362,-251.7 481,-251.7 481,-229.7 362,-229.7"/>
<text text-anchor="start" x="365" y="-237.4" font-family="Helvetica,sans-Serif" font-size="11.00" fill="#000000">text[2147483647]</text>
<polygon fill="none" stroke="#000000" points="191,-207.7 191,-229.7 362,-229.7 362,-207.7 191,-207.7"/>
<text text-anchor="start" x="211" y="-214.8" font-family="Helvetica,sans-Serif" font-size="11.00" fill="#000000">CREATED_AT</text>
<polygon fill="none" stroke="#000000" points="362,-207.7 362,-229.7 481,-229.7 481,-207.7 362,-207.7"/>
<text text-anchor="start" x="365" y="-215.4" font-family="Helvetica,sans-Serif" font-size="11.00" fill="#000000">timestamptz[35,6]</text>
<polygon fill="none" stroke="#000000" points="191,-185.7 191,-207.7 362,-207.7 362,-185.7 191,-185.7"/>
<text text-anchor="start" x="211" y="-192.8" font-family="Helvetica,sans-Serif" font-size="11.00" fill="#000000">UPDATED_AT</text>
<polygon fill="none" stroke="#000000" points="362,-185.7 362,-207.7 481,-207.7 481,-185.7 362,-185.7"/>
<text text-anchor="start" x="365" y="-193.4" font-family="Helvetica,sans-Serif" font-size="11.00" fill="#000000">timestamptz[35,6]</text>
<polygon fill="#ffffff" stroke="transparent" points="191,-166.7 191,-185.7 254,-185.7 254,-166.7 191,-166.7"/>
<polygon fill="none" stroke="#000000" points="191,-166.7 191,-185.7 254,-185.7 254,-166.7 191,-166.7"/>
<text text-anchor="start" x="194" y="-172.8" font-family="Helvetica,sans-Serif" font-size="11.00" fill="#000000">&lt; 1</text>
<polygon fill="#ffffff" stroke="transparent" points="254,-166.7 254,-185.7 362,-185.7 362,-166.7 254,-166.7"/>
<polygon fill="none" stroke="#000000" points="254,-166.7 254,-185.7 362,-185.7 362,-166.7 254,-166.7"/>
<text text-anchor="start" x="299.094" y="-172.8" font-family="Helvetica,sans-Serif" font-size="11.00" fill="#000000">16,009 rows</text>
<polygon fill="#ffffff" stroke="transparent" points="362,-166.7 362,-185.7 481,-185.7 481,-166.7 362,-166.7"/>
<polygon fill="none" stroke="#000000" points="362,-166.7 362,-185.7 481,-185.7 481,-166.7 362,-166.7"/>
<text text-anchor="start" x="462.4053" y="-172.8" font-family="Helvetica,sans-Serif" font-size="11.00" fill="#000000">0 &gt;</text>
<polygon fill="none" stroke="#000000" stroke-width="2" points="190,-165.7 190,-341.7 482,-341.7 482,-165.7 190,-165.7"/>
</a>
</g>
</g>
<!-- expage_DataCore -->
<g id="node2" class="node">
<title>expage_DataCore</title>
<g id="a_node2"><a xlink:href="../../tables/expage_DataCore.html" xlink:title="expage_DataCore" target="_top">
<polygon fill="#ffffff" stroke="transparent" points="8,-38.2 8,-297.2 140,-297.2 140,-38.2 8,-38.2"/>
<polygon fill="#f5f5f5" stroke="transparent" points="8,-273.7 8,-296.7 140,-296.7 140,-273.7 8,-273.7"/>
<polygon fill="none" stroke="#000000" points="8,-273.7 8,-296.7 140,-296.7 140,-273.7 8,-273.7"/>
<text text-anchor="start" x="12.8752" y="-282.8" font-family="Helvetica,sans-Serif" font-weight="bold" font-size="11.00" fill="#000000">expage_DataCore</text>
<text text-anchor="start" x="105.5219" y="-281.8" font-family="Helvetica,sans-Serif" font-size="11.00" fill="#000000">[table]</text>
<polygon fill="none" stroke="#000000" points="8,-251.7 8,-273.7 140,-273.7 140,-251.7 8,-251.7"/>
<image xlink:href="../../images/primaryKeys.png" width="11px" height="12px" preserveAspectRatio="xMinYMin meet" x="13" y="-268.7"/>
<text text-anchor="start" x="33" y="-258.8" font-family="Helvetica,sans-Serif" font-size="11.00" fill="#000000">OBSID1</text>
<polygon fill="none" stroke="#000000" points="8,-229.7 8,-251.7 140,-251.7 140,-229.7 8,-229.7"/>
<image xlink:href="../../images/foreignKeys.png" width="11px" height="12px" preserveAspectRatio="xMinYMin meet" x="13" y="-246.7"/>
<text text-anchor="start" x="33" y="-236.8" font-family="Helvetica,sans-Serif" font-size="11.00" fill="#000000">SMPID</text>
<polygon fill="none" stroke="#000000" points="8,-207.7 8,-229.7 140,-229.7 140,-207.7 8,-207.7"/>
<image xlink:href="../../images/foreignKeys.png" width="11px" height="12px" preserveAspectRatio="xMinYMin meet" x="13" y="-224.7"/>
<text text-anchor="start" x="33" y="-214.8" font-family="Helvetica,sans-Serif" font-size="11.00" fill="#000000">DBDOI</text>
<polygon fill="none" stroke="#000000" points="8,-185.7 8,-207.7 140,-207.7 140,-185.7 8,-185.7"/>
<image xlink:href="../../images/foreignKeys.png" width="11px" height="12px" preserveAspectRatio="xMinYMin meet" x="13" y="-202.7"/>
<text text-anchor="start" x="33" y="-192.8" font-family="Helvetica,sans-Serif" font-size="11.00" fill="#000000">REFDBID1</text>
<polygon fill="none" stroke="#000000" points="8,-163.7 8,-185.7 140,-185.7 140,-163.7 8,-163.7"/>
<image xlink:href="../../images/foreignKeys.png" width="11px" height="12px" preserveAspectRatio="xMinYMin meet" x="13" y="-180.7"/>
<text text-anchor="start" x="33" y="-170.8" font-family="Helvetica,sans-Serif" font-size="11.00" fill="#000000">REFDBID2</text>
<polygon fill="none" stroke="#000000" points="8,-141.7 8,-163.7 140,-163.7 140,-141.7 8,-141.7"/>
<image xlink:href="../../images/foreignKeys.png" width="11px" height="12px" preserveAspectRatio="xMinYMin meet" x="13" y="-158.7"/>
<text text-anchor="start" x="33" y="-148.8" font-family="Helvetica,sans-Serif" font-size="11.00" fill="#000000">REFDBID3</text>
<polygon fill="none" stroke="#000000" points="8,-119.7 8,-141.7 140,-141.7 140,-119.7 8,-119.7"/>
<image xlink:href="../../images/foreignKeys.png" width="11px" height="12px" preserveAspectRatio="xMinYMin meet" x="13" y="-136.7"/>
<text text-anchor="start" x="33" y="-126.8" font-family="Helvetica,sans-Serif" font-size="11.00" fill="#000000">REFDBID4</text>
<polygon fill="none" stroke="#000000" points="8,-97.7 8,-119.7 140,-119.7 140,-97.7 8,-97.7"/>
<image xlink:href="../../images/foreignKeys.png" width="11px" height="12px" preserveAspectRatio="xMinYMin meet" x="13" y="-114.7"/>
<text text-anchor="start" x="33" y="-104.8" font-family="Helvetica,sans-Serif" font-size="11.00" fill="#000000">BESTNDID</text>
<polygon fill="none" stroke="#000000" points="8,-75.7 8,-97.7 140,-97.7 140,-75.7 8,-75.7"/>
<image xlink:href="../../images/foreignKeys.png" width="11px" height="12px" preserveAspectRatio="xMinYMin meet" x="13" y="-92.7"/>
<text text-anchor="start" x="33" y="-82.8" font-family="Helvetica,sans-Serif" font-size="11.00" fill="#000000">ALSTNDID</text>
<polygon fill="none" stroke="#000000" points="8,-56.7 8,-75.7 140,-75.7 140,-56.7 8,-56.7"/>
<text text-anchor="start" x="11" y="-62.8" font-family="Helvetica,sans-Serif" font-size="11.00" fill="#000000">...</text>
<polygon fill="#ffffff" stroke="transparent" points="8,-37.7 8,-56.7 41,-56.7 41,-37.7 8,-37.7"/>
<polygon fill="none" stroke="#000000" points="8,-37.7 8,-56.7 41,-56.7 41,-37.7 8,-37.7"/>
<text text-anchor="start" x="11" y="-43.8" font-family="Helvetica,sans-Serif" font-size="11.00" fill="#000000">&lt; 8</text>
<polygon fill="#ffffff" stroke="transparent" points="41,-37.7 41,-56.7 112,-56.7 112,-37.7 41,-37.7"/>
<polygon fill="none" stroke="#000000" points="41,-37.7 41,-56.7 112,-56.7 112,-37.7 41,-37.7"/>
<text text-anchor="start" x="49.094" y="-43.8" font-family="Helvetica,sans-Serif" font-size="11.00" fill="#000000">16,009 rows</text>
<polygon fill="#ffffff" stroke="transparent" points="112,-37.7 112,-56.7 140,-56.7 140,-37.7 112,-37.7"/>
<polygon fill="none" stroke="#000000" points="112,-37.7 112,-56.7 140,-56.7 140,-37.7 112,-37.7"/>
<text text-anchor="start" x="121.4053" y="-43.8" font-family="Helvetica,sans-Serif" font-size="11.00" fill="#000000">1 &gt;</text>
</a>
</g>
</g>
<!-- expage_points_EPSG3857&#45;&gt;expage_DataCore -->
<g id="edge1" class="edge">
<title>expage_points_EPSG3857:w&#45;&gt;expage_DataCore:e</title>
<path fill="none" stroke="#000000" d="M176.276,-262.7C164.2815,-262.7 156.8229,-262.7 140,-262.7"/>
<polygon fill="#000000" stroke="#000000" points="183,-262.7001 191,-266.3 187,-262.7 191,-262.7 191,-262.7 191,-262.7 187,-262.7 191,-259.1 183,-262.7001 183,-262.7001"/>
<ellipse fill="none" stroke="#000000" cx="179.8" cy="-262.7001" rx="3.2" ry="3.2"/>
</g>
</g>
</svg>
