<?xml version="1.0" encoding="UTF-8" standalone="no"?>
<!DOCTYPE svg PUBLIC "-//W3C//DTD SVG 1.1//EN"
 "http://www.w3.org/Graphics/SVG/1.1/DTD/svg11.dtd">
<!-- Generated by graphviz version 2.40.1 (20161225.0304)
 -->
<!-- Title: oneDegreeRelationshipsDiagram Pages: 1 -->
<svg width="249pt" height="1768pt"
 viewBox="0.00 0.00 249.00 1768.20" xmlns="http://www.w3.org/2000/svg" xmlns:xlink="http://www.w3.org/1999/xlink">
<g id="graph0" class="graph" transform="scale(1 1) rotate(0) translate(4 1764.2)">
<title>oneDegreeRelationshipsDiagram</title>
<polygon fill="#ffffff" stroke="transparent" points="-4,4 -4,-1764.2 245,-1764.2 245,4 -4,4"/>
<text text-anchor="middle" x="72.4936" y="-7.3" font-family="Helvetica,sans-Serif" font-size="11.00" fill="#000000">Generated by SchemaSpy</text>
<!-- expage -->
<g id="node1" class="node">
<title>expage</title>
<g id="a_node1"><a xlink:href="../../tables/expage.html" xlink:title="expage" target="_top">
<polygon fill="#ffffff" stroke="transparent" points="8,-38.2 8,-1756.2 233,-1756.2 233,-38.2 8,-38.2"/>
<polygon fill="#f5f5f5" stroke="transparent" points="10.5,-1731.2 10.5,-1754.2 231.5,-1754.2 231.5,-1731.2 10.5,-1731.2"/>
<polygon fill="none" stroke="#000000" points="10.5,-1731.2 10.5,-1754.2 231.5,-1754.2 231.5,-1731.2 10.5,-1731.2"/>
<text text-anchor="start" x="15.5" y="-1740.3" font-family="Helvetica,sans-Serif" font-weight="bold" font-size="11.00" fill="#000000">expage</text>
<text text-anchor="start" x="196.5437" y="-1739.3" font-family="Helvetica,sans-Serif" font-size="11.00" fill="#000000">[table]</text>
<polygon fill="none" stroke="#000000" points="10.5,-1709.2 10.5,-1731.2 112.5,-1731.2 112.5,-1709.2 10.5,-1709.2"/>
<text text-anchor="start" x="30.5" y="-1716.3" font-family="Helvetica,sans-Serif" font-size="11.00" fill="#000000">geom</text>
<polygon fill="none" stroke="#000000" points="112.5,-1709.2 112.5,-1731.2 231.5,-1731.2 231.5,-1709.2 112.5,-1709.2"/>
<text text-anchor="start" x="115.4485" y="-1716.9" font-family="Helvetica,sans-Serif" font-size="11.00" fill="#000000">geometry[2147483647]</text>
<polygon fill="none" stroke="#000000" points="10.5,-1687.2 10.5,-1709.2 112.5,-1709.2 112.5,-1687.2 10.5,-1687.2"/>
<text text-anchor="start" x="30.5" y="-1694.3" font-family="Helvetica,sans-Serif" font-size="11.00" fill="#000000">OBSID1</text>
<polygon fill="none" stroke="#000000" points="112.5,-1687.2 112.5,-1709.2 231.5,-1709.2 231.5,-1687.2 112.5,-1687.2"/>
<text text-anchor="start" x="115.5" y="-1694.9" font-family="Helvetica,sans-Serif" font-size="11.00" fill="#000000">text[2147483647]</text>
<polygon fill="none" stroke="#000000" points="10.5,-1665.2 10.5,-1687.2 112.5,-1687.2 112.5,-1665.2 10.5,-1665.2"/>
<text text-anchor="start" x="30.5" y="-1672.3" font-family="Helvetica,sans-Serif" font-size="11.00" fill="#000000">OBSID2</text>
<polygon fill="none" stroke="#000000" points="112.5,-1665.2 112.5,-1687.2 231.5,-1687.2 231.5,-1665.2 112.5,-1665.2"/>
<text text-anchor="start" x="115.5" y="-1672.9" font-family="Helvetica,sans-Serif" font-size="11.00" fill="#000000">text[2147483647]</text>
<polygon fill="none" stroke="#000000" points="10.5,-1643.2 10.5,-1665.2 112.5,-1665.2 112.5,-1643.2 10.5,-1643.2"/>
<text text-anchor="start" x="30.5" y="-1650.3" font-family="Helvetica,sans-Serif" font-size="11.00" fill="#000000">IGSNID</text>
<polygon fill="none" stroke="#000000" points="112.5,-1643.2 112.5,-1665.2 231.5,-1665.2 231.5,-1643.2 112.5,-1643.2"/>
<text text-anchor="start" x="115.5" y="-1650.9" font-family="Helvetica,sans-Serif" font-size="11.00" fill="#000000">text[2147483647]</text>
<polygon fill="none" stroke="#000000" points="10.5,-1621.2 10.5,-1643.2 112.5,-1643.2 112.5,-1621.2 10.5,-1621.2"/>
<image xlink:href="../../images/foreignKeys.png" width="11px" height="12px" preserveAspectRatio="xMinYMin meet" x="15.5" y="-1638.2"/>
<text text-anchor="start" x="30.5" y="-1628.3" font-family="Helvetica,sans-Serif" font-size="11.00" fill="#000000">DBDOI</text>
<polygon fill="none" stroke="#000000" points="112.5,-1621.2 112.5,-1643.2 231.5,-1643.2 231.5,-1621.2 112.5,-1621.2"/>
<text text-anchor="start" x="115.5" y="-1628.9" font-family="Helvetica,sans-Serif" font-size="11.00" fill="#000000">text[2147483647]</text>
<polygon fill="none" stroke="#000000" points="10.5,-1599.2 10.5,-1621.2 112.5,-1621.2 112.5,-1599.2 10.5,-1599.2"/>
<text text-anchor="start" x="30.5" y="-1606.3" font-family="Helvetica,sans-Serif" font-size="11.00" fill="#000000">DBVERNO</text>
<polygon fill="none" stroke="#000000" points="112.5,-1599.2 112.5,-1621.2 231.5,-1621.2 231.5,-1599.2 112.5,-1599.2"/>
<text text-anchor="start" x="115.5" y="-1606.9" font-family="Helvetica,sans-Serif" font-size="11.00" fill="#000000">numeric[7,3]</text>
<polygon fill="none" stroke="#000000" points="10.5,-1577.2 10.5,-1599.2 112.5,-1599.2 112.5,-1577.2 10.5,-1577.2"/>
<text text-anchor="start" x="30.5" y="-1584.3" font-family="Helvetica,sans-Serif" font-size="11.00" fill="#000000">SMPID</text>
<polygon fill="none" stroke="#000000" points="112.5,-1577.2 112.5,-1599.2 231.5,-1599.2 231.5,-1577.2 112.5,-1577.2"/>
<text text-anchor="start" x="115.5" y="-1584.9" font-family="Helvetica,sans-Serif" font-size="11.00" fill="#000000">text[2147483647]</text>
<polygon fill="none" stroke="#000000" points="10.5,-1555.2 10.5,-1577.2 112.5,-1577.2 112.5,-1555.2 10.5,-1555.2"/>
<image xlink:href="../../images/foreignKeys.png" width="11px" height="12px" preserveAspectRatio="xMinYMin meet" x="15.5" y="-1572.2"/>
<text text-anchor="start" x="30.5" y="-1562.3" font-family="Helvetica,sans-Serif" font-size="11.00" fill="#000000">SITEID</text>
<polygon fill="none" stroke="#000000" points="112.5,-1555.2 112.5,-1577.2 231.5,-1577.2 231.5,-1555.2 112.5,-1555.2"/>
<text text-anchor="start" x="115.5" y="-1562.9" font-family="Helvetica,sans-Serif" font-size="11.00" fill="#000000">text[2147483647]</text>
<polygon fill="none" stroke="#000000" points="10.5,-1533.2 10.5,-1555.2 112.5,-1555.2 112.5,-1533.2 10.5,-1533.2"/>
<image xlink:href="../../images/foreignKeys.png" width="11px" height="12px" preserveAspectRatio="xMinYMin meet" x="15.5" y="-1550.2"/>
<text text-anchor="start" x="30.5" y="-1540.3" font-family="Helvetica,sans-Serif" font-size="11.00" fill="#000000">METASITEID</text>
<polygon fill="none" stroke="#000000" points="112.5,-1533.2 112.5,-1555.2 231.5,-1555.2 231.5,-1533.2 112.5,-1533.2"/>
<text text-anchor="start" x="115.5" y="-1540.9" font-family="Helvetica,sans-Serif" font-size="11.00" fill="#000000">text[2147483647]</text>
<polygon fill="none" stroke="#000000" points="10.5,-1511.2 10.5,-1533.2 112.5,-1533.2 112.5,-1511.2 10.5,-1511.2"/>
<text text-anchor="start" x="30.5" y="-1518.3" font-family="Helvetica,sans-Serif" font-size="11.00" fill="#000000">CNTRY</text>
<polygon fill="none" stroke="#000000" points="112.5,-1511.2 112.5,-1533.2 231.5,-1533.2 231.5,-1511.2 112.5,-1511.2"/>
<text text-anchor="start" x="115.5" y="-1518.9" font-family="Helvetica,sans-Serif" font-size="11.00" fill="#000000">varchar[2147483647]</text>
<polygon fill="none" stroke="#000000" points="10.5,-1489.2 10.5,-1511.2 112.5,-1511.2 112.5,-1489.2 10.5,-1489.2"/>
<text text-anchor="start" x="30.5" y="-1496.3" font-family="Helvetica,sans-Serif" font-size="11.00" fill="#000000">REGION_INT</text>
<polygon fill="none" stroke="#000000" points="112.5,-1489.2 112.5,-1511.2 231.5,-1511.2 231.5,-1489.2 112.5,-1489.2"/>
<text text-anchor="start" x="115.5" y="-1496.9" font-family="Helvetica,sans-Serif" font-size="11.00" fill="#000000">text[2147483647]</text>
<polygon fill="none" stroke="#000000" points="10.5,-1467.2 10.5,-1489.2 112.5,-1489.2 112.5,-1467.2 10.5,-1467.2"/>
<text text-anchor="start" x="30.5" y="-1474.3" font-family="Helvetica,sans-Serif" font-size="11.00" fill="#000000">REGION_REG</text>
<polygon fill="none" stroke="#000000" points="112.5,-1467.2 112.5,-1489.2 231.5,-1489.2 231.5,-1467.2 112.5,-1467.2"/>
<text text-anchor="start" x="115.5" y="-1474.9" font-family="Helvetica,sans-Serif" font-size="11.00" fill="#000000">varchar[2147483647]</text>
<polygon fill="none" stroke="#000000" points="10.5,-1445.2 10.5,-1467.2 112.5,-1467.2 112.5,-1445.2 10.5,-1445.2"/>
<text text-anchor="start" x="30.5" y="-1452.3" font-family="Helvetica,sans-Serif" font-size="11.00" fill="#000000">DIV_ADMIN</text>
<polygon fill="none" stroke="#000000" points="112.5,-1445.2 112.5,-1467.2 231.5,-1467.2 231.5,-1445.2 112.5,-1445.2"/>
<text text-anchor="start" x="115.5" y="-1452.9" font-family="Helvetica,sans-Serif" font-size="11.00" fill="#000000">varchar[2147483647]</text>
<polygon fill="none" stroke="#000000" points="10.5,-1423.2 10.5,-1445.2 112.5,-1445.2 112.5,-1423.2 10.5,-1423.2"/>
<text text-anchor="start" x="30.5" y="-1430.3" font-family="Helvetica,sans-Serif" font-size="11.00" fill="#000000">DIV_OTHER</text>
<polygon fill="none" stroke="#000000" points="112.5,-1423.2 112.5,-1445.2 231.5,-1445.2 231.5,-1423.2 112.5,-1423.2"/>
<text text-anchor="start" x="115.5" y="-1430.9" font-family="Helvetica,sans-Serif" font-size="11.00" fill="#000000">text[2147483647]</text>
<polygon fill="none" stroke="#000000" points="10.5,-1401.2 10.5,-1423.2 112.5,-1423.2 112.5,-1401.2 10.5,-1401.2"/>
<text text-anchor="start" x="30.5" y="-1408.3" font-family="Helvetica,sans-Serif" font-size="11.00" fill="#000000">ISL_NAME</text>
<polygon fill="none" stroke="#000000" points="112.5,-1401.2 112.5,-1423.2 231.5,-1423.2 231.5,-1401.2 112.5,-1401.2"/>
<text text-anchor="start" x="115.5" y="-1408.9" font-family="Helvetica,sans-Serif" font-size="11.00" fill="#000000">text[2147483647]</text>
<polygon fill="none" stroke="#000000" points="10.5,-1379.2 10.5,-1401.2 112.5,-1401.2 112.5,-1379.2 10.5,-1379.2"/>
<text text-anchor="start" x="30.5" y="-1386.3" font-family="Helvetica,sans-Serif" font-size="11.00" fill="#000000">BASIN</text>
<polygon fill="none" stroke="#000000" points="112.5,-1379.2 112.5,-1401.2 231.5,-1401.2 231.5,-1379.2 112.5,-1379.2"/>
<text text-anchor="start" x="115.5" y="-1386.9" font-family="Helvetica,sans-Serif" font-size="11.00" fill="#000000">text[2147483647]</text>
<polygon fill="none" stroke="#000000" points="10.5,-1357.2 10.5,-1379.2 112.5,-1379.2 112.5,-1357.2 10.5,-1357.2"/>
<text text-anchor="start" x="30.5" y="-1364.3" font-family="Helvetica,sans-Serif" font-size="11.00" fill="#000000">AHGFL1</text>
<polygon fill="none" stroke="#000000" points="112.5,-1357.2 112.5,-1379.2 231.5,-1379.2 231.5,-1357.2 112.5,-1357.2"/>
<text text-anchor="start" x="115.5" y="-1364.9" font-family="Helvetica,sans-Serif" font-size="11.00" fill="#000000">varchar[3]</text>
<polygon fill="none" stroke="#000000" points="10.5,-1335.2 10.5,-1357.2 112.5,-1357.2 112.5,-1335.2 10.5,-1335.2"/>
<text text-anchor="start" x="30.5" y="-1342.3" font-family="Helvetica,sans-Serif" font-size="11.00" fill="#000000">AHGFL2</text>
<polygon fill="none" stroke="#000000" points="112.5,-1335.2 112.5,-1357.2 231.5,-1357.2 231.5,-1335.2 112.5,-1335.2"/>
<text text-anchor="start" x="115.5" y="-1342.9" font-family="Helvetica,sans-Serif" font-size="11.00" fill="#000000">varchar[6]</text>
<polygon fill="none" stroke="#000000" points="10.5,-1313.2 10.5,-1335.2 112.5,-1335.2 112.5,-1313.2 10.5,-1313.2"/>
<text text-anchor="start" x="30.5" y="-1320.3" font-family="Helvetica,sans-Serif" font-size="11.00" fill="#000000">RIVNAME</text>
<polygon fill="none" stroke="#000000" points="112.5,-1313.2 112.5,-1335.2 231.5,-1335.2 231.5,-1313.2 112.5,-1313.2"/>
<text text-anchor="start" x="115.5" y="-1320.9" font-family="Helvetica,sans-Serif" font-size="11.00" fill="#000000">text[2147483647]</text>
<polygon fill="none" stroke="#000000" points="10.5,-1291.2 10.5,-1313.2 112.5,-1313.2 112.5,-1291.2 10.5,-1291.2"/>
<text text-anchor="start" x="30.5" y="-1298.3" font-family="Helvetica,sans-Serif" font-size="11.00" fill="#000000">RIVDIV</text>
<polygon fill="none" stroke="#000000" points="112.5,-1291.2 112.5,-1313.2 231.5,-1313.2 231.5,-1291.2 112.5,-1291.2"/>
<text text-anchor="start" x="115.5" y="-1298.9" font-family="Helvetica,sans-Serif" font-size="11.00" fill="#000000">text[2147483647]</text>
<polygon fill="none" stroke="#000000" points="10.5,-1269.2 10.5,-1291.2 112.5,-1291.2 112.5,-1269.2 10.5,-1269.2"/>
<text text-anchor="start" x="30.5" y="-1276.3" font-family="Helvetica,sans-Serif" font-size="11.00" fill="#000000">IBRACODE</text>
<polygon fill="none" stroke="#000000" points="112.5,-1269.2 112.5,-1291.2 231.5,-1291.2 231.5,-1269.2 112.5,-1269.2"/>
<text text-anchor="start" x="115.5" y="-1276.9" font-family="Helvetica,sans-Serif" font-size="11.00" fill="#000000">varchar[3]</text>
<polygon fill="none" stroke="#000000" points="10.5,-1247.2 10.5,-1269.2 112.5,-1269.2 112.5,-1247.2 10.5,-1247.2"/>
<text text-anchor="start" x="30.5" y="-1254.3" font-family="Helvetica,sans-Serif" font-size="11.00" fill="#000000">IBRAREGION</text>
<polygon fill="none" stroke="#000000" points="112.5,-1247.2 112.5,-1269.2 231.5,-1269.2 231.5,-1247.2 112.5,-1247.2"/>
<text text-anchor="start" x="115.5" y="-1254.9" font-family="Helvetica,sans-Serif" font-size="11.00" fill="#000000">text[2147483647]</text>
<polygon fill="none" stroke="#000000" points="10.5,-1225.2 10.5,-1247.2 112.5,-1247.2 112.5,-1225.2 10.5,-1225.2"/>
<text text-anchor="start" x="30.5" y="-1232.3" font-family="Helvetica,sans-Serif" font-size="11.00" fill="#000000">X_WGS84</text>
<polygon fill="none" stroke="#000000" points="112.5,-1225.2 112.5,-1247.2 231.5,-1247.2 231.5,-1225.2 112.5,-1225.2"/>
<text text-anchor="start" x="115.5" y="-1232.9" font-family="Helvetica,sans-Serif" font-size="11.00" fill="#000000">numeric[10,6]</text>
<polygon fill="none" stroke="#000000" points="10.5,-1203.2 10.5,-1225.2 112.5,-1225.2 112.5,-1203.2 10.5,-1203.2"/>
<text text-anchor="start" x="30.5" y="-1210.3" font-family="Helvetica,sans-Serif" font-size="11.00" fill="#000000">Y_WGS84</text>
<polygon fill="none" stroke="#000000" points="112.5,-1203.2 112.5,-1225.2 231.5,-1225.2 231.5,-1203.2 112.5,-1203.2"/>
<text text-anchor="start" x="115.5" y="-1210.9" font-family="Helvetica,sans-Serif" font-size="11.00" fill="#000000">numeric[10,6]</text>
<polygon fill="none" stroke="#000000" points="10.5,-1181.2 10.5,-1203.2 112.5,-1203.2 112.5,-1181.2 10.5,-1181.2"/>
<text text-anchor="start" x="30.5" y="-1188.3" font-family="Helvetica,sans-Serif" font-size="11.00" fill="#000000">CORDS_ELEV</text>
<polygon fill="none" stroke="#000000" points="112.5,-1181.2 112.5,-1203.2 231.5,-1203.2 231.5,-1181.2 112.5,-1181.2"/>
<text text-anchor="start" x="115.5" y="-1188.9" font-family="Helvetica,sans-Serif" font-size="11.00" fill="#000000">varchar[2147483647]</text>
<polygon fill="none" stroke="#000000" points="10.5,-1159.2 10.5,-1181.2 112.5,-1181.2 112.5,-1159.2 10.5,-1159.2"/>
<text text-anchor="start" x="30.5" y="-1166.3" font-family="Helvetica,sans-Serif" font-size="11.00" fill="#000000">ELEVATION</text>
<polygon fill="none" stroke="#000000" points="112.5,-1159.2 112.5,-1181.2 231.5,-1181.2 231.5,-1159.2 112.5,-1159.2"/>
<text text-anchor="start" x="115.5" y="-1166.9" font-family="Helvetica,sans-Serif" font-size="11.00" fill="#000000">numeric[6,2]</text>
<polygon fill="none" stroke="#000000" points="10.5,-1137.2 10.5,-1159.2 112.5,-1159.2 112.5,-1137.2 10.5,-1137.2"/>
<text text-anchor="start" x="30.5" y="-1144.3" font-family="Helvetica,sans-Serif" font-size="11.00" fill="#000000">SITE_COMMT</text>
<polygon fill="none" stroke="#000000" points="112.5,-1137.2 112.5,-1159.2 231.5,-1159.2 231.5,-1137.2 112.5,-1137.2"/>
<text text-anchor="start" x="115.5" y="-1144.9" font-family="Helvetica,sans-Serif" font-size="11.00" fill="#000000">text[2147483647]</text>
<polygon fill="none" stroke="#000000" points="10.5,-1115.2 10.5,-1137.2 112.5,-1137.2 112.5,-1115.2 10.5,-1115.2"/>
<text text-anchor="start" x="30.5" y="-1122.3" font-family="Helvetica,sans-Serif" font-size="11.00" fill="#000000">REFDBID1</text>
<polygon fill="none" stroke="#000000" points="112.5,-1115.2 112.5,-1137.2 231.5,-1137.2 231.5,-1115.2 112.5,-1115.2"/>
<text text-anchor="start" x="115.5" y="-1122.9" font-family="Helvetica,sans-Serif" font-size="11.00" fill="#000000">text[2147483647]</text>
<polygon fill="none" stroke="#000000" points="10.5,-1093.2 10.5,-1115.2 112.5,-1115.2 112.5,-1093.2 10.5,-1093.2"/>
<text text-anchor="start" x="30.5" y="-1100.3" font-family="Helvetica,sans-Serif" font-size="11.00" fill="#000000">OAID1</text>
<polygon fill="none" stroke="#000000" points="112.5,-1093.2 112.5,-1115.2 231.5,-1115.2 231.5,-1093.2 112.5,-1093.2"/>
<text text-anchor="start" x="115.5" y="-1100.9" font-family="Helvetica,sans-Serif" font-size="11.00" fill="#000000">varchar[11]</text>
<polygon fill="none" stroke="#000000" points="10.5,-1071.2 10.5,-1093.2 112.5,-1093.2 112.5,-1071.2 10.5,-1071.2"/>
<text text-anchor="start" x="30.5" y="-1078.3" font-family="Helvetica,sans-Serif" font-size="11.00" fill="#000000">AUTHOR1</text>
<polygon fill="none" stroke="#000000" points="112.5,-1071.2 112.5,-1093.2 231.5,-1093.2 231.5,-1071.2 112.5,-1071.2"/>
<text text-anchor="start" x="115.5" y="-1078.9" font-family="Helvetica,sans-Serif" font-size="11.00" fill="#000000">text[2147483647]</text>
<polygon fill="none" stroke="#000000" points="10.5,-1049.2 10.5,-1071.2 112.5,-1071.2 112.5,-1049.2 10.5,-1049.2"/>
<text text-anchor="start" x="30.5" y="-1056.3" font-family="Helvetica,sans-Serif" font-size="11.00" fill="#000000">PUBYEAR1</text>
<polygon fill="none" stroke="#000000" points="112.5,-1049.2 112.5,-1071.2 231.5,-1071.2 231.5,-1049.2 112.5,-1049.2"/>
<text text-anchor="start" x="115.5" y="-1056.9" font-family="Helvetica,sans-Serif" font-size="11.00" fill="#000000">int2[5]</text>
<polygon fill="none" stroke="#000000" points="10.5,-1027.2 10.5,-1049.2 112.5,-1049.2 112.5,-1027.2 10.5,-1027.2"/>
<text text-anchor="start" x="30.5" y="-1034.3" font-family="Helvetica,sans-Serif" font-size="11.00" fill="#000000">REFID1</text>
<polygon fill="none" stroke="#000000" points="112.5,-1027.2 112.5,-1049.2 231.5,-1049.2 231.5,-1027.2 112.5,-1027.2"/>
<text text-anchor="start" x="115.5" y="-1034.9" font-family="Helvetica,sans-Serif" font-size="11.00" fill="#000000">text[2147483647]</text>
<polygon fill="none" stroke="#000000" points="10.5,-1005.2 10.5,-1027.2 112.5,-1027.2 112.5,-1005.2 10.5,-1005.2"/>
<text text-anchor="start" x="30.5" y="-1012.3" font-family="Helvetica,sans-Serif" font-size="11.00" fill="#000000">REFDOI1</text>
<polygon fill="none" stroke="#000000" points="112.5,-1005.2 112.5,-1027.2 231.5,-1027.2 231.5,-1005.2 112.5,-1005.2"/>
<text text-anchor="start" x="115.5" y="-1012.9" font-family="Helvetica,sans-Serif" font-size="11.00" fill="#000000">text[2147483647]</text>
<polygon fill="none" stroke="#000000" points="10.5,-983.2 10.5,-1005.2 112.5,-1005.2 112.5,-983.2 10.5,-983.2"/>
<text text-anchor="start" x="30.5" y="-990.3" font-family="Helvetica,sans-Serif" font-size="11.00" fill="#000000">REFDBID2</text>
<polygon fill="none" stroke="#000000" points="112.5,-983.2 112.5,-1005.2 231.5,-1005.2 231.5,-983.2 112.5,-983.2"/>
<text text-anchor="start" x="115.5" y="-990.9" font-family="Helvetica,sans-Serif" font-size="11.00" fill="#000000">text[2147483647]</text>
<polygon fill="none" stroke="#000000" points="10.5,-961.2 10.5,-983.2 112.5,-983.2 112.5,-961.2 10.5,-961.2"/>
<text text-anchor="start" x="30.5" y="-968.3" font-family="Helvetica,sans-Serif" font-size="11.00" fill="#000000">OAID2</text>
<polygon fill="none" stroke="#000000" points="112.5,-961.2 112.5,-983.2 231.5,-983.2 231.5,-961.2 112.5,-961.2"/>
<text text-anchor="start" x="115.5" y="-968.9" font-family="Helvetica,sans-Serif" font-size="11.00" fill="#000000">varchar[11]</text>
<polygon fill="none" stroke="#000000" points="10.5,-939.2 10.5,-961.2 112.5,-961.2 112.5,-939.2 10.5,-939.2"/>
<text text-anchor="start" x="30.5" y="-946.3" font-family="Helvetica,sans-Serif" font-size="11.00" fill="#000000">AUTHOR2</text>
<polygon fill="none" stroke="#000000" points="112.5,-939.2 112.5,-961.2 231.5,-961.2 231.5,-939.2 112.5,-939.2"/>
<text text-anchor="start" x="115.5" y="-946.9" font-family="Helvetica,sans-Serif" font-size="11.00" fill="#000000">text[2147483647]</text>
<polygon fill="none" stroke="#000000" points="10.5,-917.2 10.5,-939.2 112.5,-939.2 112.5,-917.2 10.5,-917.2"/>
<text text-anchor="start" x="30.5" y="-924.3" font-family="Helvetica,sans-Serif" font-size="11.00" fill="#000000">PUBYEAR2</text>
<polygon fill="none" stroke="#000000" points="112.5,-917.2 112.5,-939.2 231.5,-939.2 231.5,-917.2 112.5,-917.2"/>
<text text-anchor="start" x="115.5" y="-924.9" font-family="Helvetica,sans-Serif" font-size="11.00" fill="#000000">int2[5]</text>
<polygon fill="none" stroke="#000000" points="10.5,-895.2 10.5,-917.2 112.5,-917.2 112.5,-895.2 10.5,-895.2"/>
<text text-anchor="start" x="30.5" y="-902.3" font-family="Helvetica,sans-Serif" font-size="11.00" fill="#000000">REFID2</text>
<polygon fill="none" stroke="#000000" points="112.5,-895.2 112.5,-917.2 231.5,-917.2 231.5,-895.2 112.5,-895.2"/>
<text text-anchor="start" x="115.5" y="-902.9" font-family="Helvetica,sans-Serif" font-size="11.00" fill="#000000">text[2147483647]</text>
<polygon fill="none" stroke="#000000" points="10.5,-873.2 10.5,-895.2 112.5,-895.2 112.5,-873.2 10.5,-873.2"/>
<text text-anchor="start" x="30.5" y="-880.3" font-family="Helvetica,sans-Serif" font-size="11.00" fill="#000000">REFDOI2</text>
<polygon fill="none" stroke="#000000" points="112.5,-873.2 112.5,-895.2 231.5,-895.2 231.5,-873.2 112.5,-873.2"/>
<text text-anchor="start" x="115.5" y="-880.9" font-family="Helvetica,sans-Serif" font-size="11.00" fill="#000000">text[2147483647]</text>
<polygon fill="none" stroke="#000000" points="10.5,-851.2 10.5,-873.2 112.5,-873.2 112.5,-851.2 10.5,-851.2"/>
<text text-anchor="start" x="30.5" y="-858.3" font-family="Helvetica,sans-Serif" font-size="11.00" fill="#000000">REFDBID3</text>
<polygon fill="none" stroke="#000000" points="112.5,-851.2 112.5,-873.2 231.5,-873.2 231.5,-851.2 112.5,-851.2"/>
<text text-anchor="start" x="115.5" y="-858.9" font-family="Helvetica,sans-Serif" font-size="11.00" fill="#000000">text[2147483647]</text>
<polygon fill="none" stroke="#000000" points="10.5,-829.2 10.5,-851.2 112.5,-851.2 112.5,-829.2 10.5,-829.2"/>
<text text-anchor="start" x="30.5" y="-836.3" font-family="Helvetica,sans-Serif" font-size="11.00" fill="#000000">OAID3</text>
<polygon fill="none" stroke="#000000" points="112.5,-829.2 112.5,-851.2 231.5,-851.2 231.5,-829.2 112.5,-829.2"/>
<text text-anchor="start" x="115.5" y="-836.9" font-family="Helvetica,sans-Serif" font-size="11.00" fill="#000000">varchar[11]</text>
<polygon fill="none" stroke="#000000" points="10.5,-807.2 10.5,-829.2 112.5,-829.2 112.5,-807.2 10.5,-807.2"/>
<text text-anchor="start" x="30.5" y="-814.3" font-family="Helvetica,sans-Serif" font-size="11.00" fill="#000000">AUTHOR3</text>
<polygon fill="none" stroke="#000000" points="112.5,-807.2 112.5,-829.2 231.5,-829.2 231.5,-807.2 112.5,-807.2"/>
<text text-anchor="start" x="115.5" y="-814.9" font-family="Helvetica,sans-Serif" font-size="11.00" fill="#000000">text[2147483647]</text>
<polygon fill="none" stroke="#000000" points="10.5,-785.2 10.5,-807.2 112.5,-807.2 112.5,-785.2 10.5,-785.2"/>
<text text-anchor="start" x="30.5" y="-792.3" font-family="Helvetica,sans-Serif" font-size="11.00" fill="#000000">PUBYEAR3</text>
<polygon fill="none" stroke="#000000" points="112.5,-785.2 112.5,-807.2 231.5,-807.2 231.5,-785.2 112.5,-785.2"/>
<text text-anchor="start" x="115.5" y="-792.9" font-family="Helvetica,sans-Serif" font-size="11.00" fill="#000000">int2[5]</text>
<polygon fill="none" stroke="#000000" points="10.5,-763.2 10.5,-785.2 112.5,-785.2 112.5,-763.2 10.5,-763.2"/>
<text text-anchor="start" x="30.5" y="-770.3" font-family="Helvetica,sans-Serif" font-size="11.00" fill="#000000">REFID3</text>
<polygon fill="none" stroke="#000000" points="112.5,-763.2 112.5,-785.2 231.5,-785.2 231.5,-763.2 112.5,-763.2"/>
<text text-anchor="start" x="115.5" y="-770.9" font-family="Helvetica,sans-Serif" font-size="11.00" fill="#000000">text[2147483647]</text>
<polygon fill="none" stroke="#000000" points="10.5,-741.2 10.5,-763.2 112.5,-763.2 112.5,-741.2 10.5,-741.2"/>
<text text-anchor="start" x="30.5" y="-748.3" font-family="Helvetica,sans-Serif" font-size="11.00" fill="#000000">REFDOI3</text>
<polygon fill="none" stroke="#000000" points="112.5,-741.2 112.5,-763.2 231.5,-763.2 231.5,-741.2 112.5,-741.2"/>
<text text-anchor="start" x="115.5" y="-748.9" font-family="Helvetica,sans-Serif" font-size="11.00" fill="#000000">text[2147483647]</text>
<polygon fill="none" stroke="#000000" points="10.5,-719.2 10.5,-741.2 112.5,-741.2 112.5,-719.2 10.5,-719.2"/>
<text text-anchor="start" x="30.5" y="-726.3" font-family="Helvetica,sans-Serif" font-size="11.00" fill="#000000">REFDBID4</text>
<polygon fill="none" stroke="#000000" points="112.5,-719.2 112.5,-741.2 231.5,-741.2 231.5,-719.2 112.5,-719.2"/>
<text text-anchor="start" x="115.5" y="-726.9" font-family="Helvetica,sans-Serif" font-size="11.00" fill="#000000">text[2147483647]</text>
<polygon fill="none" stroke="#000000" points="10.5,-697.2 10.5,-719.2 112.5,-719.2 112.5,-697.2 10.5,-697.2"/>
<text text-anchor="start" x="30.5" y="-704.3" font-family="Helvetica,sans-Serif" font-size="11.00" fill="#000000">OAID4</text>
<polygon fill="none" stroke="#000000" points="112.5,-697.2 112.5,-719.2 231.5,-719.2 231.5,-697.2 112.5,-697.2"/>
<text text-anchor="start" x="115.5" y="-704.9" font-family="Helvetica,sans-Serif" font-size="11.00" fill="#000000">varchar[11]</text>
<polygon fill="none" stroke="#000000" points="10.5,-675.2 10.5,-697.2 112.5,-697.2 112.5,-675.2 10.5,-675.2"/>
<text text-anchor="start" x="30.5" y="-682.3" font-family="Helvetica,sans-Serif" font-size="11.00" fill="#000000">AUTHOR4</text>
<polygon fill="none" stroke="#000000" points="112.5,-675.2 112.5,-697.2 231.5,-697.2 231.5,-675.2 112.5,-675.2"/>
<text text-anchor="start" x="115.5" y="-682.9" font-family="Helvetica,sans-Serif" font-size="11.00" fill="#000000">text[2147483647]</text>
<polygon fill="none" stroke="#000000" points="10.5,-653.2 10.5,-675.2 112.5,-675.2 112.5,-653.2 10.5,-653.2"/>
<text text-anchor="start" x="30.5" y="-660.3" font-family="Helvetica,sans-Serif" font-size="11.00" fill="#000000">PUBYEAR4</text>
<polygon fill="none" stroke="#000000" points="112.5,-653.2 112.5,-675.2 231.5,-675.2 231.5,-653.2 112.5,-653.2"/>
<text text-anchor="start" x="115.5" y="-660.9" font-family="Helvetica,sans-Serif" font-size="11.00" fill="#000000">int2[5]</text>
<polygon fill="none" stroke="#000000" points="10.5,-631.2 10.5,-653.2 112.5,-653.2 112.5,-631.2 10.5,-631.2"/>
<text text-anchor="start" x="30.5" y="-638.3" font-family="Helvetica,sans-Serif" font-size="11.00" fill="#000000">REFID4</text>
<polygon fill="none" stroke="#000000" points="112.5,-631.2 112.5,-653.2 231.5,-653.2 231.5,-631.2 112.5,-631.2"/>
<text text-anchor="start" x="115.5" y="-638.9" font-family="Helvetica,sans-Serif" font-size="11.00" fill="#000000">text[2147483647]</text>
<polygon fill="none" stroke="#000000" points="10.5,-609.2 10.5,-631.2 112.5,-631.2 112.5,-609.2 10.5,-609.2"/>
<text text-anchor="start" x="30.5" y="-616.3" font-family="Helvetica,sans-Serif" font-size="11.00" fill="#000000">REFDOI4</text>
<polygon fill="none" stroke="#000000" points="112.5,-609.2 112.5,-631.2 231.5,-631.2 231.5,-609.2 112.5,-609.2"/>
<text text-anchor="start" x="115.5" y="-616.9" font-family="Helvetica,sans-Serif" font-size="11.00" fill="#000000">text[2147483647]</text>
<polygon fill="none" stroke="#000000" points="10.5,-587.2 10.5,-609.2 112.5,-609.2 112.5,-587.2 10.5,-587.2"/>
<text text-anchor="start" x="30.5" y="-594.3" font-family="Helvetica,sans-Serif" font-size="11.00" fill="#000000">MATERIAL</text>
<polygon fill="none" stroke="#000000" points="112.5,-587.2 112.5,-609.2 231.5,-609.2 231.5,-587.2 112.5,-587.2"/>
<text text-anchor="start" x="115.5" y="-594.9" font-family="Helvetica,sans-Serif" font-size="11.00" fill="#000000">text[2147483647]</text>
<polygon fill="none" stroke="#000000" points="10.5,-565.2 10.5,-587.2 112.5,-587.2 112.5,-565.2 10.5,-565.2"/>
<text text-anchor="start" x="30.5" y="-572.3" font-family="Helvetica,sans-Serif" font-size="11.00" fill="#000000">THICKNESS</text>
<polygon fill="none" stroke="#000000" points="112.5,-565.2 112.5,-587.2 231.5,-587.2 231.5,-565.2 112.5,-565.2"/>
<text text-anchor="start" x="115.5" y="-572.9" font-family="Helvetica,sans-Serif" font-size="11.00" fill="#000000">numeric[7,4]</text>
<polygon fill="none" stroke="#000000" points="10.5,-543.2 10.5,-565.2 112.5,-565.2 112.5,-543.2 10.5,-543.2"/>
<text text-anchor="start" x="30.5" y="-550.3" font-family="Helvetica,sans-Serif" font-size="11.00" fill="#000000">DENSITY</text>
<polygon fill="none" stroke="#000000" points="112.5,-543.2 112.5,-565.2 231.5,-565.2 231.5,-543.2 112.5,-543.2"/>
<text text-anchor="start" x="115.5" y="-550.9" font-family="Helvetica,sans-Serif" font-size="11.00" fill="#000000">numeric[6,4]</text>
<polygon fill="none" stroke="#000000" points="10.5,-521.2 10.5,-543.2 112.5,-543.2 112.5,-521.2 10.5,-521.2"/>
<text text-anchor="start" x="30.5" y="-528.3" font-family="Helvetica,sans-Serif" font-size="11.00" fill="#000000">SHIELDING</text>
<polygon fill="none" stroke="#000000" points="112.5,-521.2 112.5,-543.2 231.5,-543.2 231.5,-521.2 112.5,-521.2"/>
<text text-anchor="start" x="115.5" y="-528.9" font-family="Helvetica,sans-Serif" font-size="11.00" fill="#000000">numeric[7,6]</text>
<polygon fill="none" stroke="#000000" points="10.5,-499.2 10.5,-521.2 112.5,-521.2 112.5,-499.2 10.5,-499.2"/>
<text text-anchor="start" x="30.5" y="-506.3" font-family="Helvetica,sans-Serif" font-size="11.00" fill="#000000">SMP_YR</text>
<polygon fill="none" stroke="#000000" points="112.5,-499.2 112.5,-521.2 231.5,-521.2 231.5,-499.2 112.5,-499.2"/>
<text text-anchor="start" x="115.5" y="-506.9" font-family="Helvetica,sans-Serif" font-size="11.00" fill="#000000">int2[5]</text>
<polygon fill="none" stroke="#000000" points="10.5,-477.2 10.5,-499.2 112.5,-499.2 112.5,-477.2 10.5,-477.2"/>
<text text-anchor="start" x="30.5" y="-484.3" font-family="Helvetica,sans-Serif" font-size="11.00" fill="#000000">SMP_COMMT</text>
<polygon fill="none" stroke="#000000" points="112.5,-477.2 112.5,-499.2 231.5,-499.2 231.5,-477.2 112.5,-477.2"/>
<text text-anchor="start" x="115.5" y="-484.9" font-family="Helvetica,sans-Serif" font-size="11.00" fill="#000000">text[2147483647]</text>
<polygon fill="none" stroke="#000000" points="10.5,-455.2 10.5,-477.2 112.5,-477.2 112.5,-455.2 10.5,-455.2"/>
<text text-anchor="start" x="30.5" y="-462.3" font-family="Helvetica,sans-Serif" font-size="11.00" fill="#000000">BE10NP</text>
<polygon fill="none" stroke="#000000" points="112.5,-455.2 112.5,-477.2 231.5,-477.2 231.5,-455.2 112.5,-455.2"/>
<text text-anchor="start" x="115.5" y="-462.9" font-family="Helvetica,sans-Serif" font-size="11.00" fill="#000000">int8[19]</text>
<polygon fill="none" stroke="#000000" points="10.5,-433.2 10.5,-455.2 112.5,-455.2 112.5,-433.2 10.5,-433.2"/>
<text text-anchor="start" x="30.5" y="-440.3" font-family="Helvetica,sans-Serif" font-size="11.00" fill="#000000">BE10NP_ERR</text>
<polygon fill="none" stroke="#000000" points="112.5,-433.2 112.5,-455.2 231.5,-455.2 231.5,-433.2 112.5,-433.2"/>
<text text-anchor="start" x="115.5" y="-440.9" font-family="Helvetica,sans-Serif" font-size="11.00" fill="#000000">int8[19]</text>
<polygon fill="none" stroke="#000000" points="10.5,-411.2 10.5,-433.2 112.5,-433.2 112.5,-411.2 10.5,-411.2"/>
<text text-anchor="start" x="30.5" y="-418.3" font-family="Helvetica,sans-Serif" font-size="11.00" fill="#000000">BESTND</text>
<polygon fill="none" stroke="#000000" points="112.5,-411.2 112.5,-433.2 231.5,-433.2 231.5,-411.2 112.5,-411.2"/>
<text text-anchor="start" x="115.5" y="-418.9" font-family="Helvetica,sans-Serif" font-size="11.00" fill="#000000">text[2147483647]</text>
<polygon fill="none" stroke="#000000" points="10.5,-389.2 10.5,-411.2 112.5,-411.2 112.5,-389.2 10.5,-389.2"/>
<text text-anchor="start" x="30.5" y="-396.3" font-family="Helvetica,sans-Serif" font-size="11.00" fill="#000000">BECORR</text>
<polygon fill="none" stroke="#000000" points="112.5,-389.2 112.5,-411.2 231.5,-411.2 231.5,-389.2 112.5,-389.2"/>
<text text-anchor="start" x="115.5" y="-396.9" font-family="Helvetica,sans-Serif" font-size="11.00" fill="#000000">numeric[5,4]</text>
<polygon fill="none" stroke="#000000" points="10.5,-367.2 10.5,-389.2 112.5,-389.2 112.5,-367.2 10.5,-367.2"/>
<text text-anchor="start" x="30.5" y="-374.3" font-family="Helvetica,sans-Serif" font-size="11.00" fill="#000000">BE10AP</text>
<polygon fill="none" stroke="#000000" points="112.5,-367.2 112.5,-389.2 231.5,-389.2 231.5,-367.2 112.5,-367.2"/>
<text text-anchor="start" x="115.5" y="-374.9" font-family="Helvetica,sans-Serif" font-size="11.00" fill="#000000">numeric[0]</text>
<polygon fill="none" stroke="#000000" points="10.5,-345.2 10.5,-367.2 112.5,-367.2 112.5,-345.2 10.5,-345.2"/>
<text text-anchor="start" x="30.5" y="-352.3" font-family="Helvetica,sans-Serif" font-size="11.00" fill="#000000">BE10AP_ERR</text>
<polygon fill="none" stroke="#000000" points="112.5,-345.2 112.5,-367.2 231.5,-367.2 231.5,-345.2 112.5,-345.2"/>
<text text-anchor="start" x="115.5" y="-352.9" font-family="Helvetica,sans-Serif" font-size="11.00" fill="#000000">numeric[0]</text>
<polygon fill="none" stroke="#000000" points="10.5,-323.2 10.5,-345.2 112.5,-345.2 112.5,-323.2 10.5,-323.2"/>
<text text-anchor="start" x="30.5" y="-330.3" font-family="Helvetica,sans-Serif" font-size="11.00" fill="#000000">AL26NP</text>
<polygon fill="none" stroke="#000000" points="112.5,-323.2 112.5,-345.2 231.5,-345.2 231.5,-323.2 112.5,-323.2"/>
<text text-anchor="start" x="115.5" y="-330.9" font-family="Helvetica,sans-Serif" font-size="11.00" fill="#000000">int8[19]</text>
<polygon fill="none" stroke="#000000" points="10.5,-301.2 10.5,-323.2 112.5,-323.2 112.5,-301.2 10.5,-301.2"/>
<text text-anchor="start" x="30.5" y="-308.3" font-family="Helvetica,sans-Serif" font-size="11.00" fill="#000000">AL26NP_ERR</text>
<polygon fill="none" stroke="#000000" points="112.5,-301.2 112.5,-323.2 231.5,-323.2 231.5,-301.2 112.5,-301.2"/>
<text text-anchor="start" x="115.5" y="-308.9" font-family="Helvetica,sans-Serif" font-size="11.00" fill="#000000">int8[19]</text>
<polygon fill="none" stroke="#000000" points="10.5,-279.2 10.5,-301.2 112.5,-301.2 112.5,-279.2 10.5,-279.2"/>
<text text-anchor="start" x="30.5" y="-286.3" font-family="Helvetica,sans-Serif" font-size="11.00" fill="#000000">ALSTND</text>
<polygon fill="none" stroke="#000000" points="112.5,-279.2 112.5,-301.2 231.5,-301.2 231.5,-279.2 112.5,-279.2"/>
<text text-anchor="start" x="115.5" y="-286.9" font-family="Helvetica,sans-Serif" font-size="11.00" fill="#000000">text[2147483647]</text>
<polygon fill="none" stroke="#000000" points="10.5,-257.2 10.5,-279.2 112.5,-279.2 112.5,-257.2 10.5,-257.2"/>
<text text-anchor="start" x="30.5" y="-264.3" font-family="Helvetica,sans-Serif" font-size="11.00" fill="#000000">ALCORR</text>
<polygon fill="none" stroke="#000000" points="112.5,-257.2 112.5,-279.2 231.5,-279.2 231.5,-257.2 112.5,-257.2"/>
<text text-anchor="start" x="115.5" y="-264.9" font-family="Helvetica,sans-Serif" font-size="11.00" fill="#000000">numeric[5,4]</text>
<polygon fill="none" stroke="#000000" points="10.5,-235.2 10.5,-257.2 112.5,-257.2 112.5,-235.2 10.5,-235.2"/>
<text text-anchor="start" x="30.5" y="-242.3" font-family="Helvetica,sans-Serif" font-size="11.00" fill="#000000">AL26AP</text>
<polygon fill="none" stroke="#000000" points="112.5,-235.2 112.5,-257.2 231.5,-257.2 231.5,-235.2 112.5,-235.2"/>
<text text-anchor="start" x="115.5" y="-242.9" font-family="Helvetica,sans-Serif" font-size="11.00" fill="#000000">numeric[0]</text>
<polygon fill="none" stroke="#000000" points="10.5,-213.2 10.5,-235.2 112.5,-235.2 112.5,-213.2 10.5,-213.2"/>
<text text-anchor="start" x="30.5" y="-220.3" font-family="Helvetica,sans-Serif" font-size="11.00" fill="#000000">AL26AP_ERR</text>
<polygon fill="none" stroke="#000000" points="112.5,-213.2 112.5,-235.2 231.5,-235.2 231.5,-213.2 112.5,-213.2"/>
<text text-anchor="start" x="115.5" y="-220.9" font-family="Helvetica,sans-Serif" font-size="11.00" fill="#000000">numeric[0]</text>
<polygon fill="none" stroke="#000000" points="10.5,-191.2 10.5,-213.2 112.5,-213.2 112.5,-191.2 10.5,-191.2"/>
<text text-anchor="start" x="30.5" y="-198.3" font-family="Helvetica,sans-Serif" font-size="11.00" fill="#000000">ABE_YR</text>
<polygon fill="none" stroke="#000000" points="112.5,-191.2 112.5,-213.2 231.5,-213.2 231.5,-191.2 112.5,-191.2"/>
<text text-anchor="start" x="115.5" y="-198.9" font-family="Helvetica,sans-Serif" font-size="11.00" fill="#000000">numeric[0]</text>
<polygon fill="none" stroke="#000000" points="10.5,-169.2 10.5,-191.2 112.5,-191.2 112.5,-169.2 10.5,-169.2"/>
<text text-anchor="start" x="30.5" y="-176.3" font-family="Helvetica,sans-Serif" font-size="11.00" fill="#000000">ABE_ERREXT</text>
<polygon fill="none" stroke="#000000" points="112.5,-169.2 112.5,-191.2 231.5,-191.2 231.5,-169.2 112.5,-169.2"/>
<text text-anchor="start" x="115.5" y="-176.9" font-family="Helvetica,sans-Serif" font-size="11.00" fill="#000000">numeric[0]</text>
<polygon fill="none" stroke="#000000" points="10.5,-147.2 10.5,-169.2 112.5,-169.2 112.5,-147.2 10.5,-147.2"/>
<text text-anchor="start" x="30.5" y="-154.3" font-family="Helvetica,sans-Serif" font-size="11.00" fill="#000000">ABE_ERRINT</text>
<polygon fill="none" stroke="#000000" points="112.5,-147.2 112.5,-169.2 231.5,-169.2 231.5,-147.2 112.5,-147.2"/>
<text text-anchor="start" x="115.5" y="-154.9" font-family="Helvetica,sans-Serif" font-size="11.00" fill="#000000">numeric[0]</text>
<polygon fill="none" stroke="#000000" points="10.5,-125.2 10.5,-147.2 112.5,-147.2 112.5,-125.2 10.5,-125.2"/>
<text text-anchor="start" x="30.5" y="-132.3" font-family="Helvetica,sans-Serif" font-size="11.00" fill="#000000">AAL_YR</text>
<polygon fill="none" stroke="#000000" points="112.5,-125.2 112.5,-147.2 231.5,-147.2 231.5,-125.2 112.5,-125.2"/>
<text text-anchor="start" x="115.5" y="-132.9" font-family="Helvetica,sans-Serif" font-size="11.00" fill="#000000">numeric[0]</text>
<polygon fill="none" stroke="#000000" points="10.5,-103.2 10.5,-125.2 112.5,-125.2 112.5,-103.2 10.5,-103.2"/>
<text text-anchor="start" x="30.5" y="-110.3" font-family="Helvetica,sans-Serif" font-size="11.00" fill="#000000">AAL_ERREXT</text>
<polygon fill="none" stroke="#000000" points="112.5,-103.2 112.5,-125.2 231.5,-125.2 231.5,-103.2 112.5,-103.2"/>
<text text-anchor="start" x="115.5" y="-110.9" font-family="Helvetica,sans-Serif" font-size="11.00" fill="#000000">numeric[0]</text>
<polygon fill="none" stroke="#000000" points="10.5,-81.2 10.5,-103.2 112.5,-103.2 112.5,-81.2 10.5,-81.2"/>
<text text-anchor="start" x="30.5" y="-88.3" font-family="Helvetica,sans-Serif" font-size="11.00" fill="#000000">AAL_ERRINT</text>
<polygon fill="none" stroke="#000000" points="112.5,-81.2 112.5,-103.2 231.5,-103.2 231.5,-81.2 112.5,-81.2"/>
<text text-anchor="start" x="115.5" y="-88.9" font-family="Helvetica,sans-Serif" font-size="11.00" fill="#000000">numeric[0]</text>
<polygon fill="none" stroke="#000000" points="10.5,-59.2 10.5,-81.2 112.5,-81.2 112.5,-59.2 10.5,-59.2"/>
<image xlink:href="../../images/primaryKeys.png" width="11px" height="12px" preserveAspectRatio="xMinYMin meet" x="15.5" y="-76.2"/>
<text text-anchor="start" x="30.5" y="-66.3" font-family="Helvetica,sans-Serif" font-size="11.00" fill="#000000">id</text>
<polygon fill="none" stroke="#000000" points="112.5,-59.2 112.5,-81.2 231.5,-81.2 231.5,-59.2 112.5,-59.2"/>
<text text-anchor="start" x="115.5" y="-66.9" font-family="Helvetica,sans-Serif" font-size="11.00" fill="#000000">serial[10]</text>
<polygon fill="#ffffff" stroke="transparent" points="10.5,-40.2 10.5,-59.2 39.5,-59.2 39.5,-40.2 10.5,-40.2"/>
<polygon fill="none" stroke="#000000" points="10.5,-40.2 10.5,-59.2 39.5,-59.2 39.5,-40.2 10.5,-40.2"/>
<text text-anchor="start" x="13.5" y="-46.3" font-family="Helvetica,sans-Serif" font-size="11.00" fill="#000000">&lt; 0</text>
<polygon fill="#ffffff" stroke="transparent" points="39.5,-40.2 39.5,-59.2 112.5,-59.2 112.5,-40.2 39.5,-40.2"/>
<polygon fill="none" stroke="#000000" points="39.5,-40.2 39.5,-59.2 112.5,-59.2 112.5,-40.2 39.5,-40.2"/>
<text text-anchor="start" x="49.594" y="-46.3" font-family="Helvetica,sans-Serif" font-size="11.00" fill="#000000">16,009 rows</text>
<polygon fill="#ffffff" stroke="transparent" points="112.5,-40.2 112.5,-59.2 231.5,-59.2 231.5,-40.2 112.5,-40.2"/>
<polygon fill="none" stroke="#000000" points="112.5,-40.2 112.5,-59.2 231.5,-59.2 231.5,-40.2 112.5,-40.2"/>
<text text-anchor="start" x="212.9053" y="-46.3" font-family="Helvetica,sans-Serif" font-size="11.00" fill="#000000">0 &gt;</text>
<polygon fill="none" stroke="#000000" stroke-width="2" points="9,-39.2 9,-1755.2 232,-1755.2 232,-39.2 9,-39.2"/>
</a>
</g>
</g>
</g>
</svg>
