<?xml version="1.0" encoding="UTF-8" standalone="no"?>
<!DOCTYPE svg PUBLIC "-//W3C//DTD SVG 1.1//EN"
 "http://www.w3.org/Graphics/SVG/1.1/DTD/svg11.dtd">
<!-- Generated by graphviz version 2.40.1 (20161225.0304)
 -->
<!-- Title: oneDegreeRelationshipsDiagramImplied Pages: 1 -->
<svg width="610pt" height="457pt"
 viewBox="0.00 0.00 610.00 457.20" xmlns="http://www.w3.org/2000/svg" xmlns:xlink="http://www.w3.org/1999/xlink">
<g id="graph0" class="graph" transform="scale(1 1) rotate(0) translate(4 453.2)">
<title>oneDegreeRelationshipsDiagramImplied</title>
<polygon fill="#ffffff" stroke="transparent" points="-4,4 -4,-453.2 606,-453.2 606,4 -4,4"/>
<text text-anchor="middle" x="72.4936" y="-7.3" font-family="Helvetica,sans-Serif" font-size="11.00" fill="#000000">Generated by SchemaSpy</text>
<!-- expage_DataCore -->
<g id="node1" class="node">
<title>expage_DataCore</title>
<g id="a_node1"><a xlink:href="../../tables/expage_DataCore.html" xlink:title="expage_DataCore" target="_top">
<polygon fill="#ffffff" stroke="transparent" points="454,-101.2 454,-360.2 594,-360.2 594,-101.2 454,-101.2"/>
<polygon fill="#f5f5f5" stroke="transparent" points="454,-336.7 454,-359.7 594,-359.7 594,-336.7 454,-336.7"/>
<polygon fill="none" stroke="#000000" points="454,-336.7 454,-359.7 594,-359.7 594,-336.7 454,-336.7"/>
<text text-anchor="start" x="459" y="-345.3" font-family="Helvetica,sans-Serif" font-weight="bold" font-size="11.00" fill="#000000">expage_DataCore</text>
<text text-anchor="start" x="559.5219" y="-344.8" font-family="Helvetica,sans-Serif" font-size="11.00" fill="#000000">[table]</text>
<polygon fill="none" stroke="#000000" points="454,-314.7 454,-336.7 594,-336.7 594,-314.7 454,-314.7"/>
<image xlink:href="../../images/primaryKeys.png" width="11px" height="12px" preserveAspectRatio="xMinYMin meet" x="459" y="-331.7"/>
<text text-anchor="start" x="483" y="-321.8" font-family="Helvetica,sans-Serif" font-size="11.00" fill="#000000">OBSID1</text>
<polygon fill="none" stroke="#000000" points="454,-292.7 454,-314.7 594,-314.7 594,-292.7 454,-292.7"/>
<image xlink:href="../../images/foreignKeys.png" width="11px" height="12px" preserveAspectRatio="xMinYMin meet" x="459" y="-309.7"/>
<text text-anchor="start" x="483" y="-299.8" font-family="Helvetica,sans-Serif" font-size="11.00" fill="#000000">SMPID</text>
<polygon fill="none" stroke="#000000" points="454,-270.7 454,-292.7 594,-292.7 594,-270.7 454,-270.7"/>
<image xlink:href="../../images/foreignKeys.png" width="11px" height="12px" preserveAspectRatio="xMinYMin meet" x="459" y="-287.7"/>
<text text-anchor="start" x="483" y="-277.8" font-family="Helvetica,sans-Serif" font-size="11.00" fill="#000000">VERID</text>
<polygon fill="none" stroke="#000000" points="454,-248.7 454,-270.7 594,-270.7 594,-248.7 454,-248.7"/>
<image xlink:href="../../images/foreignKeys.png" width="11px" height="12px" preserveAspectRatio="xMinYMin meet" x="459" y="-265.7"/>
<text text-anchor="start" x="483" y="-255.8" font-family="Helvetica,sans-Serif" font-size="11.00" fill="#000000">REFDBID1</text>
<polygon fill="none" stroke="#000000" points="454,-226.7 454,-248.7 594,-248.7 594,-226.7 454,-226.7"/>
<image xlink:href="../../images/foreignKeys.png" width="11px" height="12px" preserveAspectRatio="xMinYMin meet" x="459" y="-243.7"/>
<text text-anchor="start" x="483" y="-233.8" font-family="Helvetica,sans-Serif" font-size="11.00" fill="#000000">REFDBID2</text>
<polygon fill="none" stroke="#000000" points="454,-204.7 454,-226.7 594,-226.7 594,-204.7 454,-204.7"/>
<image xlink:href="../../images/foreignKeys.png" width="11px" height="12px" preserveAspectRatio="xMinYMin meet" x="459" y="-221.7"/>
<text text-anchor="start" x="483" y="-211.8" font-family="Helvetica,sans-Serif" font-size="11.00" fill="#000000">REFDBID3</text>
<polygon fill="none" stroke="#000000" points="454,-182.7 454,-204.7 594,-204.7 594,-182.7 454,-182.7"/>
<image xlink:href="../../images/foreignKeys.png" width="11px" height="12px" preserveAspectRatio="xMinYMin meet" x="459" y="-199.7"/>
<text text-anchor="start" x="483" y="-189.8" font-family="Helvetica,sans-Serif" font-size="11.00" fill="#000000">REFDBID4</text>
<polygon fill="none" stroke="#000000" points="454,-160.7 454,-182.7 594,-182.7 594,-160.7 454,-160.7"/>
<image xlink:href="../../images/foreignKeys.png" width="11px" height="12px" preserveAspectRatio="xMinYMin meet" x="459" y="-177.7"/>
<text text-anchor="start" x="483" y="-167.8" font-family="Helvetica,sans-Serif" font-size="11.00" fill="#000000">BESTNDID</text>
<polygon fill="none" stroke="#000000" points="454,-138.7 454,-160.7 594,-160.7 594,-138.7 454,-138.7"/>
<image xlink:href="../../images/foreignKeys.png" width="11px" height="12px" preserveAspectRatio="xMinYMin meet" x="459" y="-155.7"/>
<text text-anchor="start" x="483" y="-145.8" font-family="Helvetica,sans-Serif" font-size="11.00" fill="#000000">ALSTNDID</text>
<polygon fill="none" stroke="#000000" points="454,-119.7 454,-138.7 594,-138.7 594,-119.7 454,-119.7"/>
<text text-anchor="start" x="457" y="-125.8" font-family="Helvetica,sans-Serif" font-size="11.00" fill="#000000">...</text>
<polygon fill="#ffffff" stroke="transparent" points="454,-100.7 454,-119.7 491,-119.7 491,-100.7 454,-100.7"/>
<polygon fill="none" stroke="#000000" points="454,-100.7 454,-119.7 491,-119.7 491,-100.7 454,-100.7"/>
<text text-anchor="start" x="457" y="-106.8" font-family="Helvetica,sans-Serif" font-size="11.00" fill="#000000">&lt; 8</text>
<polygon fill="#ffffff" stroke="transparent" points="491,-100.7 491,-119.7 564,-119.7 564,-100.7 491,-100.7"/>
<polygon fill="none" stroke="#000000" points="491,-100.7 491,-119.7 564,-119.7 564,-100.7 491,-100.7"/>
<text text-anchor="start" x="501.094" y="-106.8" font-family="Helvetica,sans-Serif" font-size="11.00" fill="#000000">16.009 rows</text>
<polygon fill="#ffffff" stroke="transparent" points="564,-100.7 564,-119.7 594,-119.7 594,-100.7 564,-100.7"/>
<polygon fill="none" stroke="#000000" points="564,-100.7 564,-119.7 594,-119.7 594,-100.7 564,-100.7"/>
<text text-anchor="start" x="575.4053" y="-106.8" font-family="Helvetica,sans-Serif" font-size="11.00" fill="#000000">1 &gt;</text>
</a>
</g>
</g>
<!-- expage_Sample -->
<g id="node2" class="node">
<title>expage_Sample</title>
<g id="a_node2"><a xlink:href="../../tables/expage_Sample.html" xlink:title="expage_Sample" target="_top">
<polygon fill="#ffffff" stroke="transparent" points="198,-73.7 198,-339.7 405,-339.7 405,-73.7 198,-73.7"/>
<polygon fill="#f5f5f5" stroke="transparent" points="200.5,-314.7 200.5,-337.7 403.5,-337.7 403.5,-314.7 200.5,-314.7"/>
<polygon fill="none" stroke="#000000" points="200.5,-314.7 200.5,-337.7 403.5,-337.7 403.5,-314.7 200.5,-314.7"/>
<text text-anchor="start" x="205.5" y="-323.3" font-family="Helvetica,sans-Serif" font-weight="bold" font-size="11.00" fill="#000000">expage_Sample</text>
<text text-anchor="start" x="368.5437" y="-322.8" font-family="Helvetica,sans-Serif" font-size="11.00" fill="#000000">[table]</text>
<polygon fill="none" stroke="#000000" points="200.5,-292.7 200.5,-314.7 311.5,-314.7 311.5,-292.7 200.5,-292.7"/>
<image xlink:href="../../images/primaryKeys.png" width="11px" height="12px" preserveAspectRatio="xMinYMin meet" x="205.5" y="-309.7"/>
<text text-anchor="start" x="220.5" y="-299.8" font-family="Helvetica,sans-Serif" font-size="11.00" fill="#000000">SMPID</text>
<polygon fill="none" stroke="#000000" points="311.5,-292.7 311.5,-314.7 403.5,-314.7 403.5,-292.7 311.5,-292.7"/>
<text text-anchor="start" x="314.5" y="-300.4" font-family="Helvetica,sans-Serif" font-size="11.00" fill="#000000">text[2147483647]</text>
<polygon fill="none" stroke="#000000" points="200.5,-270.7 200.5,-292.7 311.5,-292.7 311.5,-270.7 200.5,-270.7"/>
<image xlink:href="../../images/foreignKeys.png" width="11px" height="12px" preserveAspectRatio="xMinYMin meet" x="205.5" y="-287.7"/>
<text text-anchor="start" x="220.5" y="-277.8" font-family="Helvetica,sans-Serif" font-size="11.00" fill="#000000">SITEID</text>
<polygon fill="none" stroke="#000000" points="311.5,-270.7 311.5,-292.7 403.5,-292.7 403.5,-270.7 311.5,-270.7"/>
<text text-anchor="start" x="314.5" y="-278.4" font-family="Helvetica,sans-Serif" font-size="11.00" fill="#000000">text[2147483647]</text>
<polygon fill="none" stroke="#000000" points="200.5,-248.7 200.5,-270.7 311.5,-270.7 311.5,-248.7 200.5,-248.7"/>
<image xlink:href="../../images/foreignKeys.png" width="11px" height="12px" preserveAspectRatio="xMinYMin meet" x="205.5" y="-265.7"/>
<text text-anchor="start" x="220.5" y="-255.8" font-family="Helvetica,sans-Serif" font-size="11.00" fill="#000000">MATERIALID</text>
<polygon fill="none" stroke="#000000" points="311.5,-248.7 311.5,-270.7 403.5,-270.7 403.5,-248.7 311.5,-248.7"/>
<text text-anchor="start" x="314.5" y="-256.4" font-family="Helvetica,sans-Serif" font-size="11.00" fill="#000000">int2[5]</text>
<polygon fill="none" stroke="#000000" points="200.5,-226.7 200.5,-248.7 311.5,-248.7 311.5,-226.7 200.5,-226.7"/>
<text text-anchor="start" x="220.5" y="-233.8" font-family="Helvetica,sans-Serif" font-size="11.00" fill="#000000">THICKNESS</text>
<polygon fill="none" stroke="#000000" points="311.5,-226.7 311.5,-248.7 403.5,-248.7 403.5,-226.7 311.5,-226.7"/>
<text text-anchor="start" x="314.5" y="-234.4" font-family="Helvetica,sans-Serif" font-size="11.00" fill="#000000">numeric[7,4]</text>
<polygon fill="none" stroke="#000000" points="200.5,-204.7 200.5,-226.7 311.5,-226.7 311.5,-204.7 200.5,-204.7"/>
<text text-anchor="start" x="220.5" y="-211.8" font-family="Helvetica,sans-Serif" font-size="11.00" fill="#000000">DENSITY</text>
<polygon fill="none" stroke="#000000" points="311.5,-204.7 311.5,-226.7 403.5,-226.7 403.5,-204.7 311.5,-204.7"/>
<text text-anchor="start" x="314.5" y="-212.4" font-family="Helvetica,sans-Serif" font-size="11.00" fill="#000000">numeric[6,4]</text>
<polygon fill="none" stroke="#000000" points="200.5,-182.7 200.5,-204.7 311.5,-204.7 311.5,-182.7 200.5,-182.7"/>
<text text-anchor="start" x="220.5" y="-189.8" font-family="Helvetica,sans-Serif" font-size="11.00" fill="#000000">SHIELDING</text>
<polygon fill="none" stroke="#000000" points="311.5,-182.7 311.5,-204.7 403.5,-204.7 403.5,-182.7 311.5,-182.7"/>
<text text-anchor="start" x="314.5" y="-190.4" font-family="Helvetica,sans-Serif" font-size="11.00" fill="#000000">numeric[7,6]</text>
<polygon fill="none" stroke="#000000" points="200.5,-160.7 200.5,-182.7 311.5,-182.7 311.5,-160.7 200.5,-160.7"/>
<text text-anchor="start" x="220.5" y="-167.8" font-family="Helvetica,sans-Serif" font-size="11.00" fill="#000000">SMP_YR</text>
<polygon fill="none" stroke="#000000" points="311.5,-160.7 311.5,-182.7 403.5,-182.7 403.5,-160.7 311.5,-160.7"/>
<text text-anchor="start" x="314.5" y="-168.4" font-family="Helvetica,sans-Serif" font-size="11.00" fill="#000000">int2[5]</text>
<polygon fill="none" stroke="#000000" points="200.5,-138.7 200.5,-160.7 311.5,-160.7 311.5,-138.7 200.5,-138.7"/>
<text text-anchor="start" x="220.5" y="-145.8" font-family="Helvetica,sans-Serif" font-size="11.00" fill="#000000">SMP_COMMT</text>
<polygon fill="none" stroke="#000000" points="311.5,-138.7 311.5,-160.7 403.5,-160.7 403.5,-138.7 311.5,-138.7"/>
<text text-anchor="start" x="314.5" y="-146.4" font-family="Helvetica,sans-Serif" font-size="11.00" fill="#000000">text[2147483647]</text>
<polygon fill="none" stroke="#000000" points="200.5,-116.7 200.5,-138.7 311.5,-138.7 311.5,-116.7 200.5,-116.7"/>
<text text-anchor="start" x="220.5" y="-123.8" font-family="Helvetica,sans-Serif" font-size="11.00" fill="#000000">CREATED_AT</text>
<polygon fill="none" stroke="#000000" points="311.5,-116.7 311.5,-138.7 403.5,-138.7 403.5,-116.7 311.5,-116.7"/>
<text text-anchor="start" x="314.1023" y="-124.4" font-family="Helvetica,sans-Serif" font-size="11.00" fill="#000000">timestamptz[35,6]</text>
<polygon fill="none" stroke="#000000" points="200.5,-94.7 200.5,-116.7 311.5,-116.7 311.5,-94.7 200.5,-94.7"/>
<text text-anchor="start" x="220.5" y="-101.8" font-family="Helvetica,sans-Serif" font-size="11.00" fill="#000000">UPDATED_AT</text>
<polygon fill="none" stroke="#000000" points="311.5,-94.7 311.5,-116.7 403.5,-116.7 403.5,-94.7 311.5,-94.7"/>
<text text-anchor="start" x="314.1023" y="-102.4" font-family="Helvetica,sans-Serif" font-size="11.00" fill="#000000">timestamptz[35,6]</text>
<polygon fill="#ffffff" stroke="transparent" points="200.5,-75.7 200.5,-94.7 233.5,-94.7 233.5,-75.7 200.5,-75.7"/>
<polygon fill="none" stroke="#000000" points="200.5,-75.7 200.5,-94.7 233.5,-94.7 233.5,-75.7 200.5,-75.7"/>
<text text-anchor="start" x="203.5" y="-81.8" font-family="Helvetica,sans-Serif" font-size="11.00" fill="#000000">&lt; 2</text>
<polygon fill="#ffffff" stroke="transparent" points="233.5,-75.7 233.5,-94.7 311.5,-94.7 311.5,-75.7 233.5,-75.7"/>
<polygon fill="none" stroke="#000000" points="233.5,-75.7 233.5,-94.7 311.5,-94.7 311.5,-75.7 233.5,-75.7"/>
<text text-anchor="start" x="248.594" y="-81.8" font-family="Helvetica,sans-Serif" font-size="11.00" fill="#000000">15.805 rows</text>
<polygon fill="#ffffff" stroke="transparent" points="311.5,-75.7 311.5,-94.7 403.5,-94.7 403.5,-75.7 311.5,-75.7"/>
<polygon fill="none" stroke="#000000" points="311.5,-75.7 311.5,-94.7 403.5,-94.7 403.5,-75.7 311.5,-75.7"/>
<text text-anchor="start" x="384.9053" y="-81.8" font-family="Helvetica,sans-Serif" font-size="11.00" fill="#000000">1 &gt;</text>
<polygon fill="none" stroke="#000000" stroke-width="2" points="199,-74.7 199,-338.7 404,-338.7 404,-74.7 199,-74.7"/>
</a>
</g>
</g>
<!-- expage_DataCore&#45;&gt;expage_Sample -->
<g id="edge1" class="edge">
<title>expage_DataCore:w&#45;&gt;expage_Sample:e</title>
<path fill="none" stroke="#000000" d="M439.4203,-303.7C427.5435,-303.7 420.158,-303.7 403.5,-303.7"/>
<polygon fill="#000000" stroke="#000000" points="446,-303.7001 454,-307.3 450,-303.7 454,-303.7 454,-303.7 454,-303.7 450,-303.7 454,-300.1 446,-303.7001 446,-303.7001"/>
<ellipse fill="none" stroke="#000000" cx="442.8" cy="-303.7001" rx="3.2" ry="3.2"/>
</g>
<!-- global_GrainSize -->
<g id="node3" class="node">
<title>global_GrainSize</title>
<g id="a_node3"><a xlink:href="../../tables/global_GrainSize.html" xlink:title="global_GrainSize" target="_top">
<polygon fill="#ffffff" stroke="transparent" points="10.5,-38.2 10.5,-165.2 146.5,-165.2 146.5,-38.2 10.5,-38.2"/>
<polygon fill="#f5f5f5" stroke="transparent" points="10.5,-141.7 10.5,-164.7 146.5,-164.7 146.5,-141.7 10.5,-141.7"/>
<polygon fill="none" stroke="#000000" points="10.5,-141.7 10.5,-164.7 146.5,-164.7 146.5,-141.7 10.5,-141.7"/>
<text text-anchor="start" x="15.5" y="-150.3" font-family="Helvetica,sans-Serif" font-weight="bold" font-size="11.00" fill="#000000">global_GrainSize</text>
<text text-anchor="start" x="112.0219" y="-149.8" font-family="Helvetica,sans-Serif" font-size="11.00" fill="#000000">[table]</text>
<polygon fill="none" stroke="#000000" points="10.5,-119.7 10.5,-141.7 146.5,-141.7 146.5,-119.7 10.5,-119.7"/>
<image xlink:href="../../images/primaryKeys.png" width="11px" height="12px" preserveAspectRatio="xMinYMin meet" x="15.5" y="-136.7"/>
<text text-anchor="start" x="39.5" y="-126.8" font-family="Helvetica,sans-Serif" font-size="11.00" fill="#000000">GRNSIZEID</text>
<polygon fill="#ffffff" stroke="transparent" points="10.5,-97.7 10.5,-119.7 146.5,-119.7 146.5,-97.7 10.5,-97.7"/>
<polygon fill="none" stroke="#000000" points="10.5,-97.7 10.5,-119.7 146.5,-119.7 146.5,-97.7 10.5,-97.7"/>
<text text-anchor="start" x="39.5" y="-104.8" font-family="Helvetica,sans-Serif" font-size="11.00" fill="#000000">GRNSIZE</text>
<polygon fill="#ffffff" stroke="transparent" points="10.5,-75.7 10.5,-97.7 146.5,-97.7 146.5,-75.7 10.5,-75.7"/>
<polygon fill="none" stroke="#000000" points="10.5,-75.7 10.5,-97.7 146.5,-97.7 146.5,-75.7 10.5,-75.7"/>
<text text-anchor="start" x="39.5" y="-82.8" font-family="Helvetica,sans-Serif" font-size="11.00" fill="#000000">GRNSIZEABB</text>
<polygon fill="none" stroke="#000000" points="10.5,-56.7 10.5,-75.7 146.5,-75.7 146.5,-56.7 10.5,-56.7"/>
<text text-anchor="start" x="13.5" y="-62.8" font-family="Helvetica,sans-Serif" font-size="11.00" fill="#000000">...</text>
<polygon fill="#ffffff" stroke="transparent" points="10.5,-37.7 10.5,-56.7 51.5,-56.7 51.5,-37.7 10.5,-37.7"/>
<polygon fill="none" stroke="#000000" points="10.5,-37.7 10.5,-56.7 51.5,-56.7 51.5,-37.7 10.5,-37.7"/>
<text text-anchor="start" x="13.5" y="-43.8" font-family="Helvetica,sans-Serif" font-size="11.00" fill="#000000"> &#160;</text>
<polygon fill="#ffffff" stroke="transparent" points="51.5,-37.7 51.5,-56.7 110.5,-56.7 110.5,-37.7 51.5,-37.7"/>
<polygon fill="none" stroke="#000000" points="51.5,-37.7 51.5,-56.7 110.5,-56.7 110.5,-37.7 51.5,-37.7"/>
<text text-anchor="start" x="68.9956" y="-43.8" font-family="Helvetica,sans-Serif" font-size="11.00" fill="#000000">29 rows</text>
<polygon fill="#ffffff" stroke="transparent" points="110.5,-37.7 110.5,-56.7 146.5,-56.7 146.5,-37.7 110.5,-37.7"/>
<polygon fill="none" stroke="#000000" points="110.5,-37.7 110.5,-56.7 146.5,-56.7 146.5,-37.7 110.5,-37.7"/>
<text text-anchor="start" x="127.9053" y="-43.8" font-family="Helvetica,sans-Serif" font-size="11.00" fill="#000000">3 &gt;</text>
</a>
</g>
</g>
<!-- expage_Sample&#45;&gt;global_GrainSize -->
<g id="edge2" class="edge">
<title>expage_Sample:w&#45;&gt;global_GrainSize:e</title>
<path fill="none" stroke="#000000" d="M186.2936,-256.5112C150.3646,-236.6463 202.827,-130.7 146.5,-130.7"/>
<polygon fill="#000000" stroke="#000000" points="192.6942,-257.9479 199.7115,-263.2126 196.5971,-258.8239 200.5,-259.7 200.5,-259.7 200.5,-259.7 196.5971,-258.8239 201.2885,-256.1874 192.6942,-257.9479 192.6942,-257.9479"/>
<ellipse fill="none" stroke="#000000" cx="189.5719" cy="-257.247" rx="3.2" ry="3.2"/>
</g>
<!-- global_SiteMaster -->
<g id="node4" class="node">
<title>global_SiteMaster</title>
<g id="a_node4"><a xlink:href="../../tables/global_SiteMaster.html" xlink:title="global_SiteMaster" target="_top">
<polygon fill="#ffffff" stroke="transparent" points="8,-186.2 8,-445.2 149,-445.2 149,-186.2 8,-186.2"/>
<polygon fill="#f5f5f5" stroke="transparent" points="8.5,-421.7 8.5,-444.7 149.5,-444.7 149.5,-421.7 8.5,-421.7"/>
<polygon fill="none" stroke="#000000" points="8.5,-421.7 8.5,-444.7 149.5,-444.7 149.5,-421.7 8.5,-421.7"/>
<text text-anchor="start" x="13.5" y="-430.3" font-family="Helvetica,sans-Serif" font-weight="bold" font-size="11.00" fill="#000000">global_SiteMaster</text>
<text text-anchor="start" x="115.0219" y="-429.8" font-family="Helvetica,sans-Serif" font-size="11.00" fill="#000000">[table]</text>
<polygon fill="none" stroke="#000000" points="8.5,-399.7 8.5,-421.7 149.5,-421.7 149.5,-399.7 8.5,-399.7"/>
<image xlink:href="../../images/primaryKeys.png" width="11px" height="12px" preserveAspectRatio="xMinYMin meet" x="13.5" y="-416.7"/>
<text text-anchor="start" x="37.5" y="-406.8" font-family="Helvetica,sans-Serif" font-size="11.00" fill="#000000">SITEID</text>
<polygon fill="none" stroke="#000000" points="8.5,-377.7 8.5,-399.7 149.5,-399.7 149.5,-377.7 8.5,-377.7"/>
<image xlink:href="../../images/foreignKeys.png" width="11px" height="12px" preserveAspectRatio="xMinYMin meet" x="13.5" y="-394.7"/>
<text text-anchor="start" x="37.5" y="-384.8" font-family="Helvetica,sans-Serif" font-size="11.00" fill="#000000">METASITEID</text>
<polygon fill="none" stroke="#000000" points="8.5,-355.7 8.5,-377.7 149.5,-377.7 149.5,-355.7 8.5,-355.7"/>
<image xlink:href="../../images/foreignKeys.png" width="11px" height="12px" preserveAspectRatio="xMinYMin meet" x="13.5" y="-372.7"/>
<text text-anchor="start" x="37.5" y="-362.8" font-family="Helvetica,sans-Serif" font-size="11.00" fill="#000000">RIVID</text>
<polygon fill="none" stroke="#000000" points="8.5,-333.7 8.5,-355.7 149.5,-355.7 149.5,-333.7 8.5,-333.7"/>
<image xlink:href="../../images/foreignKeys.png" width="11px" height="12px" preserveAspectRatio="xMinYMin meet" x="13.5" y="-350.7"/>
<text text-anchor="start" x="37.5" y="-340.8" font-family="Helvetica,sans-Serif" font-size="11.00" fill="#000000">IBRAID</text>
<polygon fill="none" stroke="#000000" points="8.5,-311.7 8.5,-333.7 149.5,-333.7 149.5,-311.7 8.5,-311.7"/>
<image xlink:href="../../images/foreignKeys.png" width="11px" height="12px" preserveAspectRatio="xMinYMin meet" x="13.5" y="-328.7"/>
<text text-anchor="start" x="37.5" y="-318.8" font-family="Helvetica,sans-Serif" font-size="11.00" fill="#000000">SITECODEID</text>
<polygon fill="none" stroke="#000000" points="8.5,-289.7 8.5,-311.7 149.5,-311.7 149.5,-289.7 8.5,-289.7"/>
<image xlink:href="../../images/foreignKeys.png" width="11px" height="12px" preserveAspectRatio="xMinYMin meet" x="13.5" y="-306.7"/>
<text text-anchor="start" x="37.5" y="-296.8" font-family="Helvetica,sans-Serif" font-size="11.00" fill="#000000">BIOMEID</text>
<polygon fill="none" stroke="#000000" points="8.5,-267.7 8.5,-289.7 149.5,-289.7 149.5,-267.7 8.5,-267.7"/>
<image xlink:href="../../images/foreignKeys.png" width="11px" height="12px" preserveAspectRatio="xMinYMin meet" x="13.5" y="-284.7"/>
<text text-anchor="start" x="37.5" y="-274.8" font-family="Helvetica,sans-Serif" font-size="11.00" fill="#000000">CATCHSZEID</text>
<polygon fill="none" stroke="#000000" points="8.5,-245.7 8.5,-267.7 149.5,-267.7 149.5,-245.7 8.5,-245.7"/>
<image xlink:href="../../images/foreignKeys.png" width="11px" height="12px" preserveAspectRatio="xMinYMin meet" x="13.5" y="-262.7"/>
<text text-anchor="start" x="37.5" y="-252.8" font-family="Helvetica,sans-Serif" font-size="11.00" fill="#000000">BASINSZEID</text>
<polygon fill="none" stroke="#000000" points="8.5,-223.7 8.5,-245.7 149.5,-245.7 149.5,-223.7 8.5,-223.7"/>
<image xlink:href="../../images/foreignKeys.png" width="11px" height="12px" preserveAspectRatio="xMinYMin meet" x="13.5" y="-240.7"/>
<text text-anchor="start" x="37.5" y="-230.8" font-family="Helvetica,sans-Serif" font-size="11.00" fill="#000000">FLOWTYPEID</text>
<polygon fill="none" stroke="#000000" points="8.5,-204.7 8.5,-223.7 149.5,-223.7 149.5,-204.7 8.5,-204.7"/>
<text text-anchor="start" x="11.5" y="-210.8" font-family="Helvetica,sans-Serif" font-size="11.00" fill="#000000">...</text>
<polygon fill="#ffffff" stroke="transparent" points="8.5,-185.7 8.5,-204.7 46.5,-204.7 46.5,-185.7 8.5,-185.7"/>
<polygon fill="none" stroke="#000000" points="8.5,-185.7 8.5,-204.7 46.5,-204.7 46.5,-185.7 8.5,-185.7"/>
<text text-anchor="start" x="11.5" y="-191.8" font-family="Helvetica,sans-Serif" font-size="11.00" fill="#000000">&lt; 8</text>
<polygon fill="#ffffff" stroke="transparent" points="46.5,-185.7 46.5,-204.7 119.5,-204.7 119.5,-185.7 46.5,-185.7"/>
<polygon fill="none" stroke="#000000" points="46.5,-185.7 46.5,-204.7 119.5,-204.7 119.5,-185.7 46.5,-185.7"/>
<text text-anchor="start" x="56.594" y="-191.8" font-family="Helvetica,sans-Serif" font-size="11.00" fill="#000000">25.221 rows</text>
<polygon fill="#ffffff" stroke="transparent" points="119.5,-185.7 119.5,-204.7 149.5,-204.7 149.5,-185.7 119.5,-185.7"/>
<polygon fill="none" stroke="#000000" points="119.5,-185.7 119.5,-204.7 149.5,-204.7 149.5,-185.7 119.5,-185.7"/>
<text text-anchor="start" x="130.9053" y="-191.8" font-family="Helvetica,sans-Serif" font-size="11.00" fill="#000000">6 &gt;</text>
</a>
</g>
</g>
<!-- expage_Sample&#45;&gt;global_SiteMaster -->
<g id="edge3" class="edge">
<title>expage_Sample:w&#45;&gt;global_SiteMaster:e</title>
<path fill="none" stroke="#000000" d="M186.021,-285.1504C151.6928,-305.6651 205.1307,-410.7 149.5,-410.7"/>
<polygon fill="#000000" stroke="#000000" points="192.7179,-283.5546 201.3346,-285.2019 196.609,-282.6273 200.5,-281.7 200.5,-281.7 200.5,-281.7 196.609,-282.6273 199.6654,-278.1981 192.7179,-283.5546 192.7179,-283.5546"/>
<ellipse fill="none" stroke="#000000" cx="189.6051" cy="-284.2964" rx="3.2" ry="3.2"/>
</g>
</g>
</svg>
