<?xml version="1.0" encoding="UTF-8" standalone="no"?>
<!DOCTYPE svg PUBLIC "-//W3C//DTD SVG 1.1//EN"
 "http://www.w3.org/Graphics/SVG/1.1/DTD/svg11.dtd">
<!-- Generated by graphviz version 2.40.1 (20161225.0304)
 -->
<!-- Title: oneDegreeRelationshipsDiagramImplied Pages: 1 -->
<svg width="637pt" height="798pt"
 viewBox="0.00 0.00 637.00 797.70" xmlns="http://www.w3.org/2000/svg" xmlns:xlink="http://www.w3.org/1999/xlink">
<g id="graph0" class="graph" transform="scale(1 1) rotate(0) translate(4 793.7)">
<title>oneDegreeRelationshipsDiagramImplied</title>
<polygon fill="#ffffff" stroke="transparent" points="-4,4 -4,-793.7 633,-793.7 633,4 -4,4"/>
<text text-anchor="middle" x="72.4936" y="-7.3" font-family="Helvetica,sans-Serif" font-size="11.00" fill="#000000">Generated by SchemaSpy</text>
<!-- expage_DataCore -->
<g id="node1" class="node">
<title>expage_DataCore</title>
<g id="a_node1"><a xlink:href="../../tables/expage_DataCore.html" xlink:title="expage_DataCore" target="_top">
<polygon fill="#ffffff" stroke="transparent" points="179,-38.2 179,-678.2 397,-678.2 397,-38.2 179,-38.2"/>
<polygon fill="#f5f5f5" stroke="transparent" points="181,-653.2 181,-676.2 395,-676.2 395,-653.2 181,-653.2"/>
<polygon fill="none" stroke="#000000" points="181,-653.2 181,-676.2 395,-676.2 395,-653.2 181,-653.2"/>
<text text-anchor="start" x="186" y="-662.3" font-family="Helvetica,sans-Serif" font-weight="bold" font-size="11.00" fill="#000000">expage_DataCore</text>
<text text-anchor="start" x="360.0437" y="-661.3" font-family="Helvetica,sans-Serif" font-size="11.00" fill="#000000">[table]</text>
<polygon fill="none" stroke="#000000" points="181,-631.2 181,-653.2 303,-653.2 303,-631.2 181,-631.2"/>
<image xlink:href="../../images/primaryKeys.png" width="11px" height="12px" preserveAspectRatio="xMinYMin meet" x="186" y="-648.2"/>
<text text-anchor="start" x="201" y="-638.3" font-family="Helvetica,sans-Serif" font-size="11.00" fill="#000000">OBSID1</text>
<polygon fill="none" stroke="#000000" points="303,-631.2 303,-653.2 395,-653.2 395,-631.2 303,-631.2"/>
<text text-anchor="start" x="306" y="-638.9" font-family="Helvetica,sans-Serif" font-size="11.00" fill="#000000">text[2147483647]</text>
<polygon fill="none" stroke="#000000" points="181,-609.2 181,-631.2 303,-631.2 303,-609.2 181,-609.2"/>
<image xlink:href="../../images/foreignKeys.png" width="11px" height="12px" preserveAspectRatio="xMinYMin meet" x="186" y="-626.2"/>
<text text-anchor="start" x="201" y="-616.3" font-family="Helvetica,sans-Serif" font-size="11.00" fill="#000000">SMPID</text>
<polygon fill="none" stroke="#000000" points="303,-609.2 303,-631.2 395,-631.2 395,-609.2 303,-609.2"/>
<text text-anchor="start" x="306" y="-616.9" font-family="Helvetica,sans-Serif" font-size="11.00" fill="#000000">text[2147483647]</text>
<polygon fill="none" stroke="#000000" points="181,-587.2 181,-609.2 303,-609.2 303,-587.2 181,-587.2"/>
<text text-anchor="start" x="201" y="-594.3" font-family="Helvetica,sans-Serif" font-size="11.00" fill="#000000">OBSID2</text>
<polygon fill="none" stroke="#000000" points="303,-587.2 303,-609.2 395,-609.2 395,-587.2 303,-587.2"/>
<text text-anchor="start" x="306" y="-594.9" font-family="Helvetica,sans-Serif" font-size="11.00" fill="#000000">text[2147483647]</text>
<polygon fill="none" stroke="#000000" points="181,-565.2 181,-587.2 303,-587.2 303,-565.2 181,-565.2"/>
<text text-anchor="start" x="201" y="-572.3" font-family="Helvetica,sans-Serif" font-size="11.00" fill="#000000">IGSNID</text>
<polygon fill="none" stroke="#000000" points="303,-565.2 303,-587.2 395,-587.2 395,-565.2 303,-565.2"/>
<text text-anchor="start" x="306" y="-572.9" font-family="Helvetica,sans-Serif" font-size="11.00" fill="#000000">text[2147483647]</text>
<polygon fill="none" stroke="#000000" points="181,-543.2 181,-565.2 303,-565.2 303,-543.2 181,-543.2"/>
<image xlink:href="../../images/foreignKeys.png" width="11px" height="12px" preserveAspectRatio="xMinYMin meet" x="186" y="-560.2"/>
<text text-anchor="start" x="201" y="-550.3" font-family="Helvetica,sans-Serif" font-size="11.00" fill="#000000">DBDOI</text>
<polygon fill="none" stroke="#000000" points="303,-543.2 303,-565.2 395,-565.2 395,-543.2 303,-543.2"/>
<text text-anchor="start" x="306" y="-550.9" font-family="Helvetica,sans-Serif" font-size="11.00" fill="#000000">text[2147483647]</text>
<polygon fill="none" stroke="#000000" points="181,-521.2 181,-543.2 303,-543.2 303,-521.2 181,-521.2"/>
<image xlink:href="../../images/foreignKeys.png" width="11px" height="12px" preserveAspectRatio="xMinYMin meet" x="186" y="-538.2"/>
<text text-anchor="start" x="201" y="-528.3" font-family="Helvetica,sans-Serif" font-size="11.00" fill="#000000">REFDBID1</text>
<polygon fill="none" stroke="#000000" points="303,-521.2 303,-543.2 395,-543.2 395,-521.2 303,-521.2"/>
<text text-anchor="start" x="306" y="-528.9" font-family="Helvetica,sans-Serif" font-size="11.00" fill="#000000">text[2147483647]</text>
<polygon fill="none" stroke="#000000" points="181,-499.2 181,-521.2 303,-521.2 303,-499.2 181,-499.2"/>
<image xlink:href="../../images/foreignKeys.png" width="11px" height="12px" preserveAspectRatio="xMinYMin meet" x="186" y="-516.2"/>
<text text-anchor="start" x="201" y="-506.3" font-family="Helvetica,sans-Serif" font-size="11.00" fill="#000000">REFDBID2</text>
<polygon fill="none" stroke="#000000" points="303,-499.2 303,-521.2 395,-521.2 395,-499.2 303,-499.2"/>
<text text-anchor="start" x="306" y="-506.9" font-family="Helvetica,sans-Serif" font-size="11.00" fill="#000000">text[2147483647]</text>
<polygon fill="none" stroke="#000000" points="181,-477.2 181,-499.2 303,-499.2 303,-477.2 181,-477.2"/>
<image xlink:href="../../images/foreignKeys.png" width="11px" height="12px" preserveAspectRatio="xMinYMin meet" x="186" y="-494.2"/>
<text text-anchor="start" x="201" y="-484.3" font-family="Helvetica,sans-Serif" font-size="11.00" fill="#000000">REFDBID3</text>
<polygon fill="none" stroke="#000000" points="303,-477.2 303,-499.2 395,-499.2 395,-477.2 303,-477.2"/>
<text text-anchor="start" x="306" y="-484.9" font-family="Helvetica,sans-Serif" font-size="11.00" fill="#000000">text[2147483647]</text>
<polygon fill="none" stroke="#000000" points="181,-455.2 181,-477.2 303,-477.2 303,-455.2 181,-455.2"/>
<image xlink:href="../../images/foreignKeys.png" width="11px" height="12px" preserveAspectRatio="xMinYMin meet" x="186" y="-472.2"/>
<text text-anchor="start" x="201" y="-462.3" font-family="Helvetica,sans-Serif" font-size="11.00" fill="#000000">REFDBID4</text>
<polygon fill="none" stroke="#000000" points="303,-455.2 303,-477.2 395,-477.2 395,-455.2 303,-455.2"/>
<text text-anchor="start" x="306" y="-462.9" font-family="Helvetica,sans-Serif" font-size="11.00" fill="#000000">text[2147483647]</text>
<polygon fill="none" stroke="#000000" points="181,-433.2 181,-455.2 303,-455.2 303,-433.2 181,-433.2"/>
<text text-anchor="start" x="201" y="-440.3" font-family="Helvetica,sans-Serif" font-size="11.00" fill="#000000">BE10NP</text>
<polygon fill="none" stroke="#000000" points="303,-433.2 303,-455.2 395,-455.2 395,-433.2 303,-433.2"/>
<text text-anchor="start" x="306" y="-440.9" font-family="Helvetica,sans-Serif" font-size="11.00" fill="#000000">int8[19]</text>
<polygon fill="none" stroke="#000000" points="181,-411.2 181,-433.2 303,-433.2 303,-411.2 181,-411.2"/>
<text text-anchor="start" x="201" y="-418.3" font-family="Helvetica,sans-Serif" font-size="11.00" fill="#000000">BE10NP_ERR</text>
<polygon fill="none" stroke="#000000" points="303,-411.2 303,-433.2 395,-433.2 395,-411.2 303,-411.2"/>
<text text-anchor="start" x="306" y="-418.9" font-family="Helvetica,sans-Serif" font-size="11.00" fill="#000000">int8[19]</text>
<polygon fill="none" stroke="#000000" points="181,-389.2 181,-411.2 303,-411.2 303,-389.2 181,-389.2"/>
<image xlink:href="../../images/foreignKeys.png" width="11px" height="12px" preserveAspectRatio="xMinYMin meet" x="186" y="-406.2"/>
<text text-anchor="start" x="201" y="-396.3" font-family="Helvetica,sans-Serif" font-size="11.00" fill="#000000">BESTNDID</text>
<polygon fill="none" stroke="#000000" points="303,-389.2 303,-411.2 395,-411.2 395,-389.2 303,-389.2"/>
<text text-anchor="start" x="306" y="-396.9" font-family="Helvetica,sans-Serif" font-size="11.00" fill="#000000">int2[5]</text>
<polygon fill="none" stroke="#000000" points="181,-367.2 181,-389.2 303,-389.2 303,-367.2 181,-367.2"/>
<text text-anchor="start" x="201" y="-374.3" font-family="Helvetica,sans-Serif" font-size="11.00" fill="#000000">BE10AP</text>
<polygon fill="none" stroke="#000000" points="303,-367.2 303,-389.2 395,-389.2 395,-367.2 303,-367.2"/>
<text text-anchor="start" x="306" y="-374.9" font-family="Helvetica,sans-Serif" font-size="11.00" fill="#000000">numeric[0]</text>
<polygon fill="none" stroke="#000000" points="181,-345.2 181,-367.2 303,-367.2 303,-345.2 181,-345.2"/>
<text text-anchor="start" x="201" y="-352.3" font-family="Helvetica,sans-Serif" font-size="11.00" fill="#000000">BE10AP_ERR</text>
<polygon fill="none" stroke="#000000" points="303,-345.2 303,-367.2 395,-367.2 395,-345.2 303,-345.2"/>
<text text-anchor="start" x="306" y="-352.9" font-family="Helvetica,sans-Serif" font-size="11.00" fill="#000000">numeric[0]</text>
<polygon fill="none" stroke="#000000" points="181,-323.2 181,-345.2 303,-345.2 303,-323.2 181,-323.2"/>
<text text-anchor="start" x="201" y="-330.3" font-family="Helvetica,sans-Serif" font-size="11.00" fill="#000000">AL26NP</text>
<polygon fill="none" stroke="#000000" points="303,-323.2 303,-345.2 395,-345.2 395,-323.2 303,-323.2"/>
<text text-anchor="start" x="306" y="-330.9" font-family="Helvetica,sans-Serif" font-size="11.00" fill="#000000">int8[19]</text>
<polygon fill="none" stroke="#000000" points="181,-301.2 181,-323.2 303,-323.2 303,-301.2 181,-301.2"/>
<text text-anchor="start" x="201" y="-308.3" font-family="Helvetica,sans-Serif" font-size="11.00" fill="#000000">AL26NP_ERR</text>
<polygon fill="none" stroke="#000000" points="303,-301.2 303,-323.2 395,-323.2 395,-301.2 303,-301.2"/>
<text text-anchor="start" x="306" y="-308.9" font-family="Helvetica,sans-Serif" font-size="11.00" fill="#000000">int8[19]</text>
<polygon fill="none" stroke="#000000" points="181,-279.2 181,-301.2 303,-301.2 303,-279.2 181,-279.2"/>
<image xlink:href="../../images/foreignKeys.png" width="11px" height="12px" preserveAspectRatio="xMinYMin meet" x="186" y="-296.2"/>
<text text-anchor="start" x="201" y="-286.3" font-family="Helvetica,sans-Serif" font-size="11.00" fill="#000000">ALSTNDID</text>
<polygon fill="none" stroke="#000000" points="303,-279.2 303,-301.2 395,-301.2 395,-279.2 303,-279.2"/>
<text text-anchor="start" x="306" y="-286.9" font-family="Helvetica,sans-Serif" font-size="11.00" fill="#000000">int2[5]</text>
<polygon fill="none" stroke="#000000" points="181,-257.2 181,-279.2 303,-279.2 303,-257.2 181,-257.2"/>
<text text-anchor="start" x="201" y="-264.3" font-family="Helvetica,sans-Serif" font-size="11.00" fill="#000000">AL26AP</text>
<polygon fill="none" stroke="#000000" points="303,-257.2 303,-279.2 395,-279.2 395,-257.2 303,-257.2"/>
<text text-anchor="start" x="306" y="-264.9" font-family="Helvetica,sans-Serif" font-size="11.00" fill="#000000">numeric[0]</text>
<polygon fill="none" stroke="#000000" points="181,-235.2 181,-257.2 303,-257.2 303,-235.2 181,-235.2"/>
<text text-anchor="start" x="201" y="-242.3" font-family="Helvetica,sans-Serif" font-size="11.00" fill="#000000">AL26AP_ERR</text>
<polygon fill="none" stroke="#000000" points="303,-235.2 303,-257.2 395,-257.2 395,-235.2 303,-235.2"/>
<text text-anchor="start" x="306" y="-242.9" font-family="Helvetica,sans-Serif" font-size="11.00" fill="#000000">numeric[0]</text>
<polygon fill="none" stroke="#000000" points="181,-213.2 181,-235.2 303,-235.2 303,-213.2 181,-213.2"/>
<text text-anchor="start" x="201" y="-220.3" font-family="Helvetica,sans-Serif" font-size="11.00" fill="#000000">ABE_YR</text>
<polygon fill="none" stroke="#000000" points="303,-213.2 303,-235.2 395,-235.2 395,-213.2 303,-213.2"/>
<text text-anchor="start" x="306" y="-220.9" font-family="Helvetica,sans-Serif" font-size="11.00" fill="#000000">numeric[0]</text>
<polygon fill="none" stroke="#000000" points="181,-191.2 181,-213.2 303,-213.2 303,-191.2 181,-191.2"/>
<text text-anchor="start" x="201" y="-198.3" font-family="Helvetica,sans-Serif" font-size="11.00" fill="#000000">ABE_ERREXT</text>
<polygon fill="none" stroke="#000000" points="303,-191.2 303,-213.2 395,-213.2 395,-191.2 303,-191.2"/>
<text text-anchor="start" x="306" y="-198.9" font-family="Helvetica,sans-Serif" font-size="11.00" fill="#000000">numeric[0]</text>
<polygon fill="none" stroke="#000000" points="181,-169.2 181,-191.2 303,-191.2 303,-169.2 181,-169.2"/>
<text text-anchor="start" x="201" y="-176.3" font-family="Helvetica,sans-Serif" font-size="11.00" fill="#000000">ABE_ERRINT</text>
<polygon fill="none" stroke="#000000" points="303,-169.2 303,-191.2 395,-191.2 395,-169.2 303,-169.2"/>
<text text-anchor="start" x="306" y="-176.9" font-family="Helvetica,sans-Serif" font-size="11.00" fill="#000000">numeric[0]</text>
<polygon fill="none" stroke="#000000" points="181,-147.2 181,-169.2 303,-169.2 303,-147.2 181,-147.2"/>
<text text-anchor="start" x="201" y="-154.3" font-family="Helvetica,sans-Serif" font-size="11.00" fill="#000000">AAL_YR</text>
<polygon fill="none" stroke="#000000" points="303,-147.2 303,-169.2 395,-169.2 395,-147.2 303,-147.2"/>
<text text-anchor="start" x="306" y="-154.9" font-family="Helvetica,sans-Serif" font-size="11.00" fill="#000000">numeric[0]</text>
<polygon fill="none" stroke="#000000" points="181,-125.2 181,-147.2 303,-147.2 303,-125.2 181,-125.2"/>
<text text-anchor="start" x="201" y="-132.3" font-family="Helvetica,sans-Serif" font-size="11.00" fill="#000000">AAL_ERREXT</text>
<polygon fill="none" stroke="#000000" points="303,-125.2 303,-147.2 395,-147.2 395,-125.2 303,-125.2"/>
<text text-anchor="start" x="306" y="-132.9" font-family="Helvetica,sans-Serif" font-size="11.00" fill="#000000">numeric[0]</text>
<polygon fill="none" stroke="#000000" points="181,-103.2 181,-125.2 303,-125.2 303,-103.2 181,-103.2"/>
<text text-anchor="start" x="201" y="-110.3" font-family="Helvetica,sans-Serif" font-size="11.00" fill="#000000">AAL_ERRINT</text>
<polygon fill="none" stroke="#000000" points="303,-103.2 303,-125.2 395,-125.2 395,-103.2 303,-103.2"/>
<text text-anchor="start" x="306" y="-110.9" font-family="Helvetica,sans-Serif" font-size="11.00" fill="#000000">numeric[0]</text>
<polygon fill="none" stroke="#000000" points="181,-81.2 181,-103.2 303,-103.2 303,-81.2 181,-81.2"/>
<text text-anchor="start" x="201" y="-88.3" font-family="Helvetica,sans-Serif" font-size="11.00" fill="#000000">CREATED_AT</text>
<polygon fill="none" stroke="#000000" points="303,-81.2 303,-103.2 395,-103.2 395,-81.2 303,-81.2"/>
<text text-anchor="start" x="305.6023" y="-88.9" font-family="Helvetica,sans-Serif" font-size="11.00" fill="#000000">timestamptz[35,6]</text>
<polygon fill="none" stroke="#000000" points="181,-59.2 181,-81.2 303,-81.2 303,-59.2 181,-59.2"/>
<text text-anchor="start" x="201" y="-66.3" font-family="Helvetica,sans-Serif" font-size="11.00" fill="#000000">UPDATED_AT</text>
<polygon fill="none" stroke="#000000" points="303,-59.2 303,-81.2 395,-81.2 395,-59.2 303,-59.2"/>
<text text-anchor="start" x="305.6023" y="-66.9" font-family="Helvetica,sans-Serif" font-size="11.00" fill="#000000">timestamptz[35,6]</text>
<polygon fill="#ffffff" stroke="transparent" points="181,-40.2 181,-59.2 220,-59.2 220,-40.2 181,-40.2"/>
<polygon fill="none" stroke="#000000" points="181,-40.2 181,-59.2 220,-59.2 220,-40.2 181,-40.2"/>
<text text-anchor="start" x="184" y="-46.3" font-family="Helvetica,sans-Serif" font-size="11.00" fill="#000000">&lt; 8</text>
<polygon fill="#ffffff" stroke="transparent" points="220,-40.2 220,-59.2 303,-59.2 303,-40.2 220,-40.2"/>
<polygon fill="none" stroke="#000000" points="220,-40.2 220,-59.2 303,-59.2 303,-40.2 220,-40.2"/>
<text text-anchor="start" x="240.094" y="-46.3" font-family="Helvetica,sans-Serif" font-size="11.00" fill="#000000">16,009 rows</text>
<polygon fill="#ffffff" stroke="transparent" points="303,-40.2 303,-59.2 395,-59.2 395,-40.2 303,-40.2"/>
<polygon fill="none" stroke="#000000" points="303,-40.2 303,-59.2 395,-59.2 395,-40.2 303,-40.2"/>
<text text-anchor="start" x="376.4053" y="-46.3" font-family="Helvetica,sans-Serif" font-size="11.00" fill="#000000">1 &gt;</text>
<polygon fill="none" stroke="#000000" stroke-width="2" points="180,-39.2 180,-677.2 396,-677.2 396,-39.2 180,-39.2"/>
</a>
</g>
</g>
<!-- crn_alstndID -->
<g id="node2" class="node">
<title>crn_alstndID</title>
<g id="a_node2"><a xlink:href="../../tables/crn_alstndID.html" xlink:title="crn_alstndID" target="_top">
<polygon fill="#ffffff" stroke="transparent" points="17,-176.7 17,-259.7 121,-259.7 121,-176.7 17,-176.7"/>
<polygon fill="#f5f5f5" stroke="transparent" points="17,-236.2 17,-259.2 121,-259.2 121,-236.2 17,-236.2"/>
<polygon fill="none" stroke="#000000" points="17,-236.2 17,-259.2 121,-259.2 121,-236.2 17,-236.2"/>
<text text-anchor="start" x="21.634" y="-245.3" font-family="Helvetica,sans-Serif" font-weight="bold" font-size="11.00" fill="#000000">crn_alstndID</text>
<text text-anchor="start" x="86.5219" y="-244.3" font-family="Helvetica,sans-Serif" font-size="11.00" fill="#000000">[table]</text>
<polygon fill="none" stroke="#000000" points="17,-214.2 17,-236.2 121,-236.2 121,-214.2 17,-214.2"/>
<image xlink:href="../../images/primaryKeys.png" width="11px" height="12px" preserveAspectRatio="xMinYMin meet" x="22" y="-231.2"/>
<text text-anchor="start" x="37" y="-221.3" font-family="Helvetica,sans-Serif" font-size="11.00" fill="#000000">ALSTNDID</text>
<polygon fill="none" stroke="#000000" points="17,-195.2 17,-214.2 121,-214.2 121,-195.2 17,-195.2"/>
<text text-anchor="start" x="20" y="-201.3" font-family="Helvetica,sans-Serif" font-size="11.00" fill="#000000">...</text>
<polygon fill="#ffffff" stroke="transparent" points="17,-176.2 17,-195.2 42,-195.2 42,-176.2 17,-176.2"/>
<polygon fill="none" stroke="#000000" points="17,-176.2 17,-195.2 42,-195.2 42,-176.2 17,-176.2"/>
<text text-anchor="start" x="20" y="-182.3" font-family="Helvetica,sans-Serif" font-size="11.00" fill="#000000"> &#160;</text>
<polygon fill="#ffffff" stroke="transparent" points="42,-176.2 42,-195.2 93,-195.2 93,-176.2 42,-176.2"/>
<polygon fill="none" stroke="#000000" points="42,-176.2 42,-195.2 93,-195.2 93,-176.2 42,-176.2"/>
<text text-anchor="start" x="51.4956" y="-182.3" font-family="Helvetica,sans-Serif" font-size="11.00" fill="#000000">26 rows</text>
<polygon fill="#ffffff" stroke="transparent" points="93,-176.2 93,-195.2 121,-195.2 121,-176.2 93,-176.2"/>
<polygon fill="none" stroke="#000000" points="93,-176.2 93,-195.2 121,-195.2 121,-176.2 93,-176.2"/>
<text text-anchor="start" x="102.4053" y="-182.3" font-family="Helvetica,sans-Serif" font-size="11.00" fill="#000000">2 &gt;</text>
</a>
</g>
</g>
<!-- expage_DataCore&#45;&gt;crn_alstndID -->
<g id="edge1" class="edge">
<title>expage_DataCore:w&#45;&gt;crn_alstndID:e</title>
<path fill="none" stroke="#000000" d="M166.9437,-286.3286C145.939,-272.3353 154.4793,-225.2 121,-225.2"/>
<polygon fill="#000000" stroke="#000000" points="173.2872,-288.0757 180.0441,-293.6708 177.1436,-289.1378 181,-290.2 181,-290.2 181,-290.2 177.1436,-289.1378 181.9559,-286.7292 173.2872,-288.0757 173.2872,-288.0757"/>
<ellipse fill="none" stroke="#000000" cx="170.2021" cy="-287.226" rx="3.2" ry="3.2"/>
</g>
<!-- crn_bestndID -->
<g id="node3" class="node">
<title>crn_bestndID</title>
<g id="a_node3"><a xlink:href="../../tables/crn_bestndID.html" xlink:title="crn_bestndID" target="_top">
<polygon fill="#ffffff" stroke="transparent" points="15,-280.7 15,-363.7 123,-363.7 123,-280.7 15,-280.7"/>
<polygon fill="#f5f5f5" stroke="transparent" points="15,-340.2 15,-363.2 123,-363.2 123,-340.2 15,-340.2"/>
<polygon fill="none" stroke="#000000" points="15,-340.2 15,-363.2 123,-363.2 123,-340.2 15,-340.2"/>
<text text-anchor="start" x="19.797" y="-349.3" font-family="Helvetica,sans-Serif" font-weight="bold" font-size="11.00" fill="#000000">crn_bestndID</text>
<text text-anchor="start" x="88.5219" y="-348.3" font-family="Helvetica,sans-Serif" font-size="11.00" fill="#000000">[table]</text>
<polygon fill="none" stroke="#000000" points="15,-318.2 15,-340.2 123,-340.2 123,-318.2 15,-318.2"/>
<image xlink:href="../../images/primaryKeys.png" width="11px" height="12px" preserveAspectRatio="xMinYMin meet" x="20" y="-335.2"/>
<text text-anchor="start" x="37" y="-325.3" font-family="Helvetica,sans-Serif" font-size="11.00" fill="#000000">BESTNDID</text>
<polygon fill="none" stroke="#000000" points="15,-299.2 15,-318.2 123,-318.2 123,-299.2 15,-299.2"/>
<text text-anchor="start" x="18" y="-305.3" font-family="Helvetica,sans-Serif" font-size="11.00" fill="#000000">...</text>
<polygon fill="#ffffff" stroke="transparent" points="15,-280.2 15,-299.2 42,-299.2 42,-280.2 15,-280.2"/>
<polygon fill="none" stroke="#000000" points="15,-280.2 15,-299.2 42,-299.2 42,-280.2 15,-280.2"/>
<text text-anchor="start" x="18" y="-286.3" font-family="Helvetica,sans-Serif" font-size="11.00" fill="#000000"> &#160;</text>
<polygon fill="#ffffff" stroke="transparent" points="42,-280.2 42,-299.2 94,-299.2 94,-280.2 42,-280.2"/>
<polygon fill="none" stroke="#000000" points="42,-280.2 42,-299.2 94,-299.2 94,-280.2 42,-280.2"/>
<text text-anchor="start" x="52.4956" y="-286.3" font-family="Helvetica,sans-Serif" font-size="11.00" fill="#000000">60 rows</text>
<polygon fill="#ffffff" stroke="transparent" points="94,-280.2 94,-299.2 123,-299.2 123,-280.2 94,-280.2"/>
<polygon fill="none" stroke="#000000" points="94,-280.2 94,-299.2 123,-299.2 123,-280.2 94,-280.2"/>
<text text-anchor="start" x="104.4053" y="-286.3" font-family="Helvetica,sans-Serif" font-size="11.00" fill="#000000">2 &gt;</text>
</a>
</g>
</g>
<!-- expage_DataCore&#45;&gt;crn_bestndID -->
<g id="edge2" class="edge">
<title>expage_DataCore:w&#45;&gt;crn_bestndID:e</title>
<path fill="none" stroke="#000000" d="M166.9705,-396.1793C145.7027,-381.1597 157.857,-329.2 123,-329.2"/>
<polygon fill="#000000" stroke="#000000" points="173.3096,-397.996 180.0082,-403.6607 177.1548,-399.098 181,-400.2 181,-400.2 181,-400.2 177.1548,-399.098 181.9918,-396.7393 173.3096,-397.996 173.3096,-397.996"/>
<ellipse fill="none" stroke="#000000" cx="170.2334" cy="-397.1144" rx="3.2" ry="3.2"/>
</g>
<!-- global_dbDOI -->
<g id="node4" class="node">
<title>global_dbDOI</title>
<g id="a_node4"><a xlink:href="../../tables/global_dbDOI.html" xlink:title="global_dbDOI" target="_top">
<polygon fill="#ffffff" stroke="transparent" points="14,-554.7 14,-637.7 124,-637.7 124,-554.7 14,-554.7"/>
<polygon fill="#f5f5f5" stroke="transparent" points="14,-614.2 14,-637.2 124,-637.2 124,-614.2 14,-614.2"/>
<polygon fill="none" stroke="#000000" points="14,-614.2 14,-637.2 124,-637.2 124,-614.2 14,-614.2"/>
<text text-anchor="start" x="18.8796" y="-623.3" font-family="Helvetica,sans-Serif" font-weight="bold" font-size="11.00" fill="#000000">global_dbDOI</text>
<text text-anchor="start" x="89.5219" y="-622.3" font-family="Helvetica,sans-Serif" font-size="11.00" fill="#000000">[table]</text>
<polygon fill="none" stroke="#000000" points="14,-592.2 14,-614.2 124,-614.2 124,-592.2 14,-592.2"/>
<image xlink:href="../../images/primaryKeys.png" width="11px" height="12px" preserveAspectRatio="xMinYMin meet" x="19" y="-609.2"/>
<text text-anchor="start" x="37" y="-599.3" font-family="Helvetica,sans-Serif" font-size="11.00" fill="#000000">DBDOI</text>
<polygon fill="none" stroke="#000000" points="14,-573.2 14,-592.2 124,-592.2 124,-573.2 14,-573.2"/>
<text text-anchor="start" x="17" y="-579.3" font-family="Helvetica,sans-Serif" font-size="11.00" fill="#000000">...</text>
<polygon fill="#ffffff" stroke="transparent" points="14,-554.2 14,-573.2 42,-573.2 42,-554.2 14,-554.2"/>
<polygon fill="none" stroke="#000000" points="14,-554.2 14,-573.2 42,-573.2 42,-554.2 14,-554.2"/>
<text text-anchor="start" x="17" y="-560.3" font-family="Helvetica,sans-Serif" font-size="11.00" fill="#000000"> &#160;</text>
<polygon fill="#ffffff" stroke="transparent" points="42,-554.2 42,-573.2 94,-573.2 94,-554.2 42,-554.2"/>
<polygon fill="none" stroke="#000000" points="42,-554.2 42,-573.2 94,-573.2 94,-554.2 42,-554.2"/>
<text text-anchor="start" x="52.4956" y="-560.3" font-family="Helvetica,sans-Serif" font-size="11.00" fill="#000000">26 rows</text>
<polygon fill="#ffffff" stroke="transparent" points="94,-554.2 94,-573.2 124,-573.2 124,-554.2 94,-554.2"/>
<polygon fill="none" stroke="#000000" points="94,-554.2 94,-573.2 124,-573.2 124,-554.2 94,-554.2"/>
<text text-anchor="start" x="105.4053" y="-560.3" font-family="Helvetica,sans-Serif" font-size="11.00" fill="#000000">9 &gt;</text>
</a>
</g>
</g>
<!-- expage_DataCore&#45;&gt;global_dbDOI -->
<g id="edge3" class="edge">
<title>expage_DataCore:w&#45;&gt;global_dbDOI:e</title>
<path fill="none" stroke="#000000" d="M166.6764,-558.3777C149.7243,-570.2273 151.4044,-603.2 124,-603.2"/>
<polygon fill="#000000" stroke="#000000" points="173.32,-556.44 182.008,-557.656 177.16,-555.32 181,-554.2 181,-554.2 181,-554.2 177.16,-555.32 179.992,-550.744 173.32,-556.44 173.32,-556.44"/>
<ellipse fill="none" stroke="#000000" cx="170.248" cy="-557.3361" rx="3.2" ry="3.2"/>
</g>
<!-- global_RefCore -->
<g id="node5" class="node">
<title>global_RefCore</title>
<g id="a_node5"><a xlink:href="../../tables/global_RefCore.html" xlink:title="global_RefCore" target="_top">
<polygon fill="#ffffff" stroke="transparent" points="9.5,-384.7 9.5,-533.7 128.5,-533.7 128.5,-384.7 9.5,-384.7"/>
<polygon fill="#f5f5f5" stroke="transparent" points="10,-510.2 10,-533.2 129,-533.2 129,-510.2 10,-510.2"/>
<polygon fill="none" stroke="#000000" points="10,-510.2 10,-533.2 129,-533.2 129,-510.2 10,-510.2"/>
<text text-anchor="start" x="14.7992" y="-519.3" font-family="Helvetica,sans-Serif" font-weight="bold" font-size="11.00" fill="#000000">global_RefCore</text>
<text text-anchor="start" x="94.5219" y="-518.3" font-family="Helvetica,sans-Serif" font-size="11.00" fill="#000000">[table]</text>
<polygon fill="none" stroke="#000000" points="10,-488.2 10,-510.2 129,-510.2 129,-488.2 10,-488.2"/>
<image xlink:href="../../images/primaryKeys.png" width="11px" height="12px" preserveAspectRatio="xMinYMin meet" x="15" y="-505.2"/>
<text text-anchor="start" x="35" y="-495.3" font-family="Helvetica,sans-Serif" font-size="11.00" fill="#000000">REFDBID</text>
<polygon fill="none" stroke="#000000" points="10,-466.2 10,-488.2 129,-488.2 129,-466.2 10,-466.2"/>
<image xlink:href="../../images/foreignKeys.png" width="11px" height="12px" preserveAspectRatio="xMinYMin meet" x="15" y="-483.2"/>
<text text-anchor="start" x="35" y="-473.3" font-family="Helvetica,sans-Serif" font-size="11.00" fill="#000000">OAID</text>
<polygon fill="none" stroke="#000000" points="10,-444.2 10,-466.2 129,-466.2 129,-444.2 10,-444.2"/>
<image xlink:href="../../images/foreignKeys.png" width="11px" height="12px" preserveAspectRatio="xMinYMin meet" x="15" y="-461.2"/>
<text text-anchor="start" x="35" y="-451.3" font-family="Helvetica,sans-Serif" font-size="11.00" fill="#000000">PUBTYPEID</text>
<polygon fill="none" stroke="#000000" points="10,-422.2 10,-444.2 129,-444.2 129,-422.2 10,-422.2"/>
<image xlink:href="../../images/foreignKeys.png" width="11px" height="12px" preserveAspectRatio="xMinYMin meet" x="15" y="-439.2"/>
<text text-anchor="start" x="35" y="-429.3" font-family="Helvetica,sans-Serif" font-size="11.00" fill="#000000">JOURNALID</text>
<polygon fill="none" stroke="#000000" points="10,-403.2 10,-422.2 129,-422.2 129,-403.2 10,-403.2"/>
<text text-anchor="start" x="13" y="-409.3" font-family="Helvetica,sans-Serif" font-size="11.00" fill="#000000">...</text>
<polygon fill="#ffffff" stroke="transparent" points="10,-384.2 10,-403.2 37,-403.2 37,-384.2 10,-384.2"/>
<polygon fill="none" stroke="#000000" points="10,-384.2 10,-403.2 37,-403.2 37,-384.2 10,-384.2"/>
<text text-anchor="start" x="13" y="-390.3" font-family="Helvetica,sans-Serif" font-size="11.00" fill="#000000">&lt; 5</text>
<polygon fill="#ffffff" stroke="transparent" points="37,-384.2 37,-403.2 99,-403.2 99,-384.2 37,-384.2"/>
<polygon fill="none" stroke="#000000" points="37,-384.2 37,-403.2 99,-403.2 99,-384.2 37,-384.2"/>
<text text-anchor="start" x="42.2089" y="-390.3" font-family="Helvetica,sans-Serif" font-size="11.00" fill="#000000">3,765 rows</text>
<polygon fill="#ffffff" stroke="transparent" points="99,-384.2 99,-403.2 129,-403.2 129,-384.2 99,-384.2"/>
<polygon fill="none" stroke="#000000" points="99,-384.2 99,-403.2 129,-403.2 129,-384.2 99,-384.2"/>
<text text-anchor="start" x="104.2904" y="-390.3" font-family="Helvetica,sans-Serif" font-size="11.00" fill="#000000">32 &gt;</text>
</a>
</g>
</g>
<!-- expage_DataCore&#45;&gt;global_RefCore -->
<g id="edge4" class="edge">
<title>expage_DataCore:w&#45;&gt;global_RefCore:e</title>
<path fill="none" stroke="#000000" d="M166.7299,-528.1536C153.3874,-519.3416 150.3845,-499.2 129,-499.2"/>
<polygon fill="#000000" stroke="#000000" points="173.3034,-530.0175 180.0179,-535.6635 177.1517,-531.1088 181,-532.2 181,-532.2 181,-532.2 177.1517,-531.1088 181.9821,-528.7365 173.3034,-530.0175 173.3034,-530.0175"/>
<ellipse fill="none" stroke="#000000" cx="170.2248" cy="-529.1445" rx="3.2" ry="3.2"/>
</g>
<!-- expage_DataCore&#45;&gt;global_RefCore -->
<g id="edge5" class="edge">
<title>expage_DataCore:w&#45;&gt;global_RefCore:e</title>
<path fill="none" stroke="#000000" d="M166.6207,-508.5769C153.9676,-505.5171 146.9015,-499.2 129,-499.2"/>
<polygon fill="#000000" stroke="#000000" points="173.0505,-509.3026 180.5962,-513.7773 177.0252,-509.7513 181,-510.2 181,-510.2 181,-510.2 177.0252,-509.7513 181.4038,-506.6227 173.0505,-509.3026 173.0505,-509.3026"/>
<ellipse fill="none" stroke="#000000" cx="169.8707" cy="-508.9437" rx="3.2" ry="3.2"/>
</g>
<!-- expage_DataCore&#45;&gt;global_RefCore -->
<g id="edge6" class="edge">
<title>expage_DataCore:w&#45;&gt;global_RefCore:e</title>
<path fill="none" stroke="#000000" d="M166.6207,-489.8231C153.9676,-492.8829 146.9015,-499.2 129,-499.2"/>
<polygon fill="#000000" stroke="#000000" points="173.0505,-489.0974 181.4038,-491.7773 177.0252,-488.6487 181,-488.2 181,-488.2 181,-488.2 177.0252,-488.6487 180.5962,-484.6227 173.0505,-489.0974 173.0505,-489.0974"/>
<ellipse fill="none" stroke="#000000" cx="169.8707" cy="-489.4563" rx="3.2" ry="3.2"/>
</g>
<!-- expage_DataCore&#45;&gt;global_RefCore -->
<g id="edge7" class="edge">
<title>expage_DataCore:w&#45;&gt;global_RefCore:e</title>
<path fill="none" stroke="#000000" d="M166.7299,-470.2464C153.3874,-479.0584 150.3845,-499.2 129,-499.2"/>
<polygon fill="#000000" stroke="#000000" points="173.3034,-468.3825 181.9821,-469.6635 177.1517,-467.2912 181,-466.2 181,-466.2 181,-466.2 177.1517,-467.2912 180.0179,-462.7365 173.3034,-468.3825 173.3034,-468.3825"/>
<ellipse fill="none" stroke="#000000" cx="170.2248" cy="-469.2555" rx="3.2" ry="3.2"/>
</g>
<!-- expage_Sample -->
<g id="node6" class="node">
<title>expage_Sample</title>
<g id="a_node6"><a xlink:href="../../tables/expage_Sample.html" xlink:title="expage_Sample" target="_top">
<polygon fill="#ffffff" stroke="transparent" points="8,-658.7 8,-785.7 130,-785.7 130,-658.7 8,-658.7"/>
<polygon fill="#f5f5f5" stroke="transparent" points="8,-762.2 8,-785.2 130,-785.2 130,-762.2 8,-762.2"/>
<polygon fill="none" stroke="#000000" points="8,-762.2 8,-785.2 130,-785.2 130,-762.2 8,-762.2"/>
<text text-anchor="start" x="12.7636" y="-771.3" font-family="Helvetica,sans-Serif" font-weight="bold" font-size="11.00" fill="#000000">expage_Sample</text>
<text text-anchor="start" x="95.5219" y="-770.3" font-family="Helvetica,sans-Serif" font-size="11.00" fill="#000000">[table]</text>
<polygon fill="none" stroke="#000000" points="8,-740.2 8,-762.2 130,-762.2 130,-740.2 8,-740.2"/>
<image xlink:href="../../images/primaryKeys.png" width="11px" height="12px" preserveAspectRatio="xMinYMin meet" x="13" y="-757.2"/>
<text text-anchor="start" x="34" y="-747.3" font-family="Helvetica,sans-Serif" font-size="11.00" fill="#000000">SMPID</text>
<polygon fill="none" stroke="#000000" points="8,-718.2 8,-740.2 130,-740.2 130,-718.2 8,-718.2"/>
<image xlink:href="../../images/foreignKeys.png" width="11px" height="12px" preserveAspectRatio="xMinYMin meet" x="13" y="-735.2"/>
<text text-anchor="start" x="34" y="-725.3" font-family="Helvetica,sans-Serif" font-size="11.00" fill="#000000">SITEID</text>
<polygon fill="none" stroke="#000000" points="8,-696.2 8,-718.2 130,-718.2 130,-696.2 8,-696.2"/>
<image xlink:href="../../images/foreignKeys.png" width="11px" height="12px" preserveAspectRatio="xMinYMin meet" x="13" y="-713.2"/>
<text text-anchor="start" x="34" y="-703.3" font-family="Helvetica,sans-Serif" font-size="11.00" fill="#000000">MATERIALID</text>
<polygon fill="none" stroke="#000000" points="8,-677.2 8,-696.2 130,-696.2 130,-677.2 8,-677.2"/>
<text text-anchor="start" x="11" y="-683.3" font-family="Helvetica,sans-Serif" font-size="11.00" fill="#000000">...</text>
<polygon fill="#ffffff" stroke="transparent" points="8,-658.2 8,-677.2 36,-677.2 36,-658.2 8,-658.2"/>
<polygon fill="none" stroke="#000000" points="8,-658.2 8,-677.2 36,-677.2 36,-658.2 8,-658.2"/>
<text text-anchor="start" x="11" y="-664.3" font-family="Helvetica,sans-Serif" font-size="11.00" fill="#000000">&lt; 2</text>
<polygon fill="#ffffff" stroke="transparent" points="36,-658.2 36,-677.2 105,-677.2 105,-658.2 36,-658.2"/>
<polygon fill="none" stroke="#000000" points="36,-658.2 36,-677.2 105,-677.2 105,-658.2 36,-658.2"/>
<text text-anchor="start" x="42.094" y="-664.3" font-family="Helvetica,sans-Serif" font-size="11.00" fill="#000000">15,805 rows</text>
<polygon fill="#ffffff" stroke="transparent" points="105,-658.2 105,-677.2 130,-677.2 130,-658.2 105,-658.2"/>
<polygon fill="none" stroke="#000000" points="105,-658.2 105,-677.2 130,-677.2 130,-658.2 105,-658.2"/>
<text text-anchor="start" x="111.4053" y="-664.3" font-family="Helvetica,sans-Serif" font-size="11.00" fill="#000000">1 &gt;</text>
</a>
</g>
</g>
<!-- expage_DataCore&#45;&gt;expage_Sample -->
<g id="edge8" class="edge">
<title>expage_DataCore:w&#45;&gt;expage_Sample:e</title>
<path fill="none" stroke="#000000" d="M166.8004,-623.4382C131.1891,-643.6111 186.6214,-751.2 130,-751.2"/>
<polygon fill="#000000" stroke="#000000" points="173.2002,-621.9788 181.8005,-623.7099 177.1001,-621.0894 181,-620.2 181,-620.2 181,-620.2 177.1001,-621.0894 180.1995,-616.6901 173.2002,-621.9788 173.2002,-621.9788"/>
<ellipse fill="none" stroke="#000000" cx="170.0803" cy="-622.6903" rx="3.2" ry="3.2"/>
</g>
<!-- expage_points_EPSG3857 -->
<g id="node7" class="node">
<title>expage_points_EPSG3857</title>
<g id="a_node7"><a xlink:href="../../tables/expage_points_EPSG3857.html" xlink:title="expage_points_EPSG3857" target="_top">
<polygon fill="#ffffff" stroke="transparent" points="446,-593.7 446,-720.7 621,-720.7 621,-593.7 446,-593.7"/>
<polygon fill="#f5f5f5" stroke="transparent" points="446.5,-697.2 446.5,-720.2 621.5,-720.2 621.5,-697.2 446.5,-697.2"/>
<polygon fill="none" stroke="#000000" points="446.5,-697.2 446.5,-720.2 621.5,-720.2 621.5,-697.2 446.5,-697.2"/>
<text text-anchor="start" x="451.1645" y="-706.3" font-family="Helvetica,sans-Serif" font-weight="bold" font-size="11.00" fill="#000000">expage_points_EPSG3857</text>
<text text-anchor="start" x="587.0219" y="-705.3" font-family="Helvetica,sans-Serif" font-size="11.00" fill="#000000">[table]</text>
<polygon fill="none" stroke="#000000" points="446.5,-675.2 446.5,-697.2 621.5,-697.2 621.5,-675.2 446.5,-675.2"/>
<image xlink:href="../../images/primaryKeys.png" width="11px" height="12px" preserveAspectRatio="xMinYMin meet" x="451.5" y="-692.2"/>
<text text-anchor="start" x="468.5" y="-682.3" font-family="Helvetica,sans-Serif" font-size="11.00" fill="#000000">id</text>
<polygon fill="#ffffff" stroke="transparent" points="446.5,-653.2 446.5,-675.2 621.5,-675.2 621.5,-653.2 446.5,-653.2"/>
<polygon fill="none" stroke="#000000" points="446.5,-653.2 446.5,-675.2 621.5,-675.2 621.5,-653.2 446.5,-653.2"/>
<text text-anchor="start" x="468.5" y="-660.3" font-family="Helvetica,sans-Serif" font-size="11.00" fill="#000000">geom</text>
<polygon fill="none" stroke="#000000" points="446.5,-631.2 446.5,-653.2 621.5,-653.2 621.5,-631.2 446.5,-631.2"/>
<image xlink:href="../../images/primaryKeys.png" width="11px" height="12px" preserveAspectRatio="xMinYMin meet" x="451.5" y="-648.2"/>
<text text-anchor="start" x="468.5" y="-638.3" font-family="Helvetica,sans-Serif" font-size="11.00" fill="#000000">OBSID1</text>
<polygon fill="none" stroke="#000000" points="446.5,-612.2 446.5,-631.2 621.5,-631.2 621.5,-612.2 446.5,-612.2"/>
<text text-anchor="start" x="449.5" y="-618.3" font-family="Helvetica,sans-Serif" font-size="11.00" fill="#000000">...</text>
<polygon fill="#ffffff" stroke="transparent" points="446.5,-593.2 446.5,-612.2 505.5,-612.2 505.5,-593.2 446.5,-593.2"/>
<polygon fill="none" stroke="#000000" points="446.5,-593.2 446.5,-612.2 505.5,-612.2 505.5,-593.2 446.5,-593.2"/>
<text text-anchor="start" x="449.5" y="-599.3" font-family="Helvetica,sans-Serif" font-size="11.00" fill="#000000">&lt; 1</text>
<polygon fill="#ffffff" stroke="transparent" points="505.5,-593.2 505.5,-612.2 589.5,-612.2 589.5,-593.2 505.5,-593.2"/>
<polygon fill="none" stroke="#000000" points="505.5,-593.2 505.5,-612.2 589.5,-612.2 589.5,-593.2 505.5,-593.2"/>
<text text-anchor="start" x="526.594" y="-599.3" font-family="Helvetica,sans-Serif" font-size="11.00" fill="#000000">16,009 rows</text>
<polygon fill="#ffffff" stroke="transparent" points="589.5,-593.2 589.5,-612.2 621.5,-612.2 621.5,-593.2 589.5,-593.2"/>
<polygon fill="none" stroke="#000000" points="589.5,-593.2 589.5,-612.2 621.5,-612.2 621.5,-593.2 589.5,-593.2"/>
<text text-anchor="start" x="612.3862" y="-599.3" font-family="Helvetica,sans-Serif" font-size="11.00" fill="#000000"> &#160;</text>
</a>
</g>
</g>
<!-- expage_points_EPSG3857&#45;&gt;expage_DataCore -->
<g id="edge9" class="edge">
<title>expage_points_EPSG3857:w&#45;&gt;expage_DataCore:e</title>
<path fill="none" stroke="#000000" d="M432.0156,-642.2C419.6771,-642.2 412.1667,-642.2 395,-642.2"/>
<polygon fill="#000000" stroke="#000000" points="438.5,-642.2001 446.5,-645.8 442.5,-642.2 446.5,-642.2 446.5,-642.2 446.5,-642.2 442.5,-642.2 446.5,-638.6 438.5,-642.2001 438.5,-642.2001"/>
<ellipse fill="none" stroke="#000000" cx="435.3" cy="-642.2001" rx="3.2" ry="3.2"/>
</g>
</g>
</svg>
