<?xml version="1.0" encoding="UTF-8" standalone="no"?>
<!DOCTYPE svg PUBLIC "-//W3C//DTD SVG 1.1//EN"
 "http://www.w3.org/Graphics/SVG/1.1/DTD/svg11.dtd">
<!-- Generated by graphviz version 2.40.1 (20161225.0304)
 -->
<!-- Title: oneDegreeRelationshipsDiagram Pages: 1 -->
<svg width="445pt" height="551pt"
 viewBox="0.00 0.00 445.00 551.20" xmlns="http://www.w3.org/2000/svg" xmlns:xlink="http://www.w3.org/1999/xlink">
<g id="graph0" class="graph" transform="scale(1 1) rotate(0) translate(4 547.2)">
<title>oneDegreeRelationshipsDiagram</title>
<polygon fill="#ffffff" stroke="transparent" points="-4,4 -4,-547.2 441,-547.2 441,4 -4,4"/>
<text text-anchor="middle" x="72.4936" y="-7.3" font-family="Helvetica,sans-Serif" font-size="11.00" fill="#000000">Generated by SchemaSpy</text>
<!-- fos_DataCore -->
<g id="node1" class="node">
<title>fos_DataCore</title>
<g id="a_node1"><a xlink:href="../../tables/fos_DataCore.html" xlink:title="fos_DataCore" target="_top">
<polygon fill="#ffffff" stroke="transparent" points="316,-38.2 316,-539.2 429,-539.2 429,-38.2 316,-38.2"/>
<polygon fill="#f5f5f5" stroke="transparent" points="316.5,-515.7 316.5,-538.7 429.5,-538.7 429.5,-515.7 316.5,-515.7"/>
<polygon fill="none" stroke="#000000" points="316.5,-515.7 316.5,-538.7 429.5,-538.7 429.5,-515.7 316.5,-515.7"/>
<text text-anchor="start" x="321.5" y="-524.8" font-family="Helvetica,sans-Serif" font-weight="bold" font-size="11.00" fill="#000000">fos_DataCore</text>
<text text-anchor="start" x="394.5437" y="-523.8" font-family="Helvetica,sans-Serif" font-size="11.00" fill="#000000">[table]</text>
<polygon fill="none" stroke="#000000" points="316.5,-493.7 316.5,-515.7 429.5,-515.7 429.5,-493.7 316.5,-493.7"/>
<image xlink:href="../../images/primaryKeys.png" width="11px" height="12px" preserveAspectRatio="xMinYMin meet" x="321.5" y="-510.7"/>
<text text-anchor="start" x="337.5" y="-500.8" font-family="Helvetica,sans-Serif" font-size="11.00" fill="#000000">OBSID1</text>
<polygon fill="none" stroke="#000000" points="316.5,-471.7 316.5,-493.7 429.5,-493.7 429.5,-471.7 316.5,-471.7"/>
<image xlink:href="../../images/foreignKeys.png" width="11px" height="12px" preserveAspectRatio="xMinYMin meet" x="321.5" y="-488.7"/>
<text text-anchor="start" x="337.5" y="-478.8" font-family="Helvetica,sans-Serif" font-size="11.00" fill="#000000">SMPID</text>
<polygon fill="none" stroke="#000000" points="316.5,-449.7 316.5,-471.7 429.5,-471.7 429.5,-449.7 316.5,-449.7"/>
<image xlink:href="../../images/foreignKeys.png" width="11px" height="12px" preserveAspectRatio="xMinYMin meet" x="321.5" y="-466.7"/>
<text text-anchor="start" x="337.5" y="-456.8" font-family="Helvetica,sans-Serif" font-size="11.00" fill="#000000">LAB_ORIGID</text>
<polygon fill="none" stroke="#000000" points="316.5,-427.7 316.5,-449.7 429.5,-449.7 429.5,-427.7 316.5,-427.7"/>
<image xlink:href="../../images/foreignKeys.png" width="11px" height="12px" preserveAspectRatio="xMinYMin meet" x="321.5" y="-444.7"/>
<text text-anchor="start" x="337.5" y="-434.8" font-family="Helvetica,sans-Serif" font-size="11.00" fill="#000000">FOS_MTDID</text>
<polygon fill="none" stroke="#000000" points="316.5,-405.7 316.5,-427.7 429.5,-427.7 429.5,-405.7 316.5,-405.7"/>
<image xlink:href="../../images/foreignKeys.png" width="11px" height="12px" preserveAspectRatio="xMinYMin meet" x="321.5" y="-422.7"/>
<text text-anchor="start" x="337.5" y="-412.8" font-family="Helvetica,sans-Serif" font-size="11.00" fill="#000000">FOS_MTDSID</text>
<polygon fill="none" stroke="#000000" points="316.5,-383.7 316.5,-405.7 429.5,-405.7 429.5,-383.7 316.5,-383.7"/>
<image xlink:href="../../images/foreignKeys.png" width="11px" height="12px" preserveAspectRatio="xMinYMin meet" x="321.5" y="-400.7"/>
<text text-anchor="start" x="337.5" y="-390.8" font-family="Helvetica,sans-Serif" font-size="11.00" fill="#000000">DBDOI</text>
<polygon fill="none" stroke="#000000" points="316.5,-361.7 316.5,-383.7 429.5,-383.7 429.5,-361.7 316.5,-361.7"/>
<image xlink:href="../../images/foreignKeys.png" width="11px" height="12px" preserveAspectRatio="xMinYMin meet" x="321.5" y="-378.7"/>
<text text-anchor="start" x="337.5" y="-368.8" font-family="Helvetica,sans-Serif" font-size="11.00" fill="#000000">REFDBID1</text>
<polygon fill="none" stroke="#000000" points="316.5,-339.7 316.5,-361.7 429.5,-361.7 429.5,-339.7 316.5,-339.7"/>
<image xlink:href="../../images/foreignKeys.png" width="11px" height="12px" preserveAspectRatio="xMinYMin meet" x="321.5" y="-356.7"/>
<text text-anchor="start" x="337.5" y="-346.8" font-family="Helvetica,sans-Serif" font-size="11.00" fill="#000000">REFDBID2</text>
<polygon fill="none" stroke="#000000" points="316.5,-317.7 316.5,-339.7 429.5,-339.7 429.5,-317.7 316.5,-317.7"/>
<image xlink:href="../../images/foreignKeys.png" width="11px" height="12px" preserveAspectRatio="xMinYMin meet" x="321.5" y="-334.7"/>
<text text-anchor="start" x="337.5" y="-324.8" font-family="Helvetica,sans-Serif" font-size="11.00" fill="#000000">REFDBID3</text>
<polygon fill="none" stroke="#000000" points="316.5,-295.7 316.5,-317.7 429.5,-317.7 429.5,-295.7 316.5,-295.7"/>
<image xlink:href="../../images/foreignKeys.png" width="11px" height="12px" preserveAspectRatio="xMinYMin meet" x="321.5" y="-312.7"/>
<text text-anchor="start" x="337.5" y="-302.8" font-family="Helvetica,sans-Serif" font-size="11.00" fill="#000000">REFDBID4</text>
<polygon fill="none" stroke="#000000" points="316.5,-273.7 316.5,-295.7 429.5,-295.7 429.5,-273.7 316.5,-273.7"/>
<image xlink:href="../../images/foreignKeys.png" width="11px" height="12px" preserveAspectRatio="xMinYMin meet" x="321.5" y="-290.7"/>
<text text-anchor="start" x="337.5" y="-280.8" font-family="Helvetica,sans-Serif" font-size="11.00" fill="#000000">FOSMAT1ID</text>
<polygon fill="none" stroke="#000000" points="316.5,-251.7 316.5,-273.7 429.5,-273.7 429.5,-251.7 316.5,-251.7"/>
<image xlink:href="../../images/foreignKeys.png" width="11px" height="12px" preserveAspectRatio="xMinYMin meet" x="321.5" y="-268.7"/>
<text text-anchor="start" x="337.5" y="-258.8" font-family="Helvetica,sans-Serif" font-size="11.00" fill="#000000">FOSMAT2ID</text>
<polygon fill="none" stroke="#000000" points="316.5,-229.7 316.5,-251.7 429.5,-251.7 429.5,-229.7 316.5,-229.7"/>
<image xlink:href="../../images/foreignKeys.png" width="11px" height="12px" preserveAspectRatio="xMinYMin meet" x="321.5" y="-246.7"/>
<text text-anchor="start" x="337.5" y="-236.8" font-family="Helvetica,sans-Serif" font-size="11.00" fill="#000000">SPECIESID</text>
<polygon fill="none" stroke="#000000" points="316.5,-207.7 316.5,-229.7 429.5,-229.7 429.5,-207.7 316.5,-207.7"/>
<image xlink:href="../../images/foreignKeys.png" width="11px" height="12px" preserveAspectRatio="xMinYMin meet" x="321.5" y="-224.7"/>
<text text-anchor="start" x="337.5" y="-214.8" font-family="Helvetica,sans-Serif" font-size="11.00" fill="#000000">GENUSID</text>
<polygon fill="none" stroke="#000000" points="316.5,-185.7 316.5,-207.7 429.5,-207.7 429.5,-185.7 316.5,-185.7"/>
<image xlink:href="../../images/foreignKeys.png" width="11px" height="12px" preserveAspectRatio="xMinYMin meet" x="321.5" y="-202.7"/>
<text text-anchor="start" x="337.5" y="-192.8" font-family="Helvetica,sans-Serif" font-size="11.00" fill="#000000">FAMILYID</text>
<polygon fill="none" stroke="#000000" points="316.5,-163.7 316.5,-185.7 429.5,-185.7 429.5,-163.7 316.5,-163.7"/>
<image xlink:href="../../images/foreignKeys.png" width="11px" height="12px" preserveAspectRatio="xMinYMin meet" x="321.5" y="-180.7"/>
<text text-anchor="start" x="337.5" y="-170.8" font-family="Helvetica,sans-Serif" font-size="11.00" fill="#000000">ORDRID</text>
<polygon fill="none" stroke="#000000" points="316.5,-141.7 316.5,-163.7 429.5,-163.7 429.5,-141.7 316.5,-141.7"/>
<image xlink:href="../../images/foreignKeys.png" width="11px" height="12px" preserveAspectRatio="xMinYMin meet" x="321.5" y="-158.7"/>
<text text-anchor="start" x="337.5" y="-148.8" font-family="Helvetica,sans-Serif" font-size="11.00" fill="#000000">INFRACLAID</text>
<polygon fill="none" stroke="#000000" points="316.5,-119.7 316.5,-141.7 429.5,-141.7 429.5,-119.7 316.5,-119.7"/>
<image xlink:href="../../images/foreignKeys.png" width="11px" height="12px" preserveAspectRatio="xMinYMin meet" x="321.5" y="-136.7"/>
<text text-anchor="start" x="337.5" y="-126.8" font-family="Helvetica,sans-Serif" font-size="11.00" fill="#000000">CLASSID</text>
<polygon fill="none" stroke="#000000" points="316.5,-97.7 316.5,-119.7 429.5,-119.7 429.5,-97.7 316.5,-97.7"/>
<image xlink:href="../../images/foreignKeys.png" width="11px" height="12px" preserveAspectRatio="xMinYMin meet" x="321.5" y="-114.7"/>
<text text-anchor="start" x="337.5" y="-104.8" font-family="Helvetica,sans-Serif" font-size="11.00" fill="#000000">CHEMTYPEID</text>
<polygon fill="none" stroke="#000000" points="316.5,-75.7 316.5,-97.7 429.5,-97.7 429.5,-75.7 316.5,-75.7"/>
<image xlink:href="../../images/foreignKeys.png" width="11px" height="12px" preserveAspectRatio="xMinYMin meet" x="321.5" y="-92.7"/>
<text text-anchor="start" x="337.5" y="-82.8" font-family="Helvetica,sans-Serif" font-size="11.00" fill="#000000">CHEMPREPID</text>
<polygon fill="none" stroke="#000000" points="316.5,-56.7 316.5,-75.7 429.5,-75.7 429.5,-56.7 316.5,-56.7"/>
<text text-anchor="start" x="319.5" y="-62.8" font-family="Helvetica,sans-Serif" font-size="11.00" fill="#000000">...</text>
<polygon fill="#ffffff" stroke="transparent" points="316.5,-37.7 316.5,-56.7 343.5,-56.7 343.5,-37.7 316.5,-37.7"/>
<polygon fill="none" stroke="#000000" points="316.5,-37.7 316.5,-56.7 343.5,-56.7 343.5,-37.7 316.5,-37.7"/>
<text text-anchor="start" x="319.1452" y="-43.8" font-family="Helvetica,sans-Serif" font-size="11.00" fill="#000000">&lt; 19</text>
<polygon fill="#ffffff" stroke="transparent" points="343.5,-37.7 343.5,-56.7 408.5,-56.7 408.5,-37.7 343.5,-37.7"/>
<polygon fill="none" stroke="#000000" points="343.5,-37.7 343.5,-56.7 408.5,-56.7 408.5,-37.7 343.5,-37.7"/>
<text text-anchor="start" x="346.047" y="-43.8" font-family="Helvetica,sans-Serif" font-size="11.00" fill="#000000">11,858 rows</text>
<polygon fill="#ffffff" stroke="transparent" points="408.5,-37.7 408.5,-56.7 429.5,-56.7 429.5,-37.7 408.5,-37.7"/>
<polygon fill="none" stroke="#000000" points="408.5,-37.7 408.5,-56.7 429.5,-56.7 429.5,-37.7 408.5,-37.7"/>
<text text-anchor="start" x="411.2027" y="-43.8" font-family="Helvetica,sans-Serif" font-size="11.00" fill="#000000">1 &gt;</text>
</a>
</g>
</g>
<!-- fos_TaxRank2_infraclaID -->
<g id="node2" class="node">
<title>fos_TaxRank2_infraclaID</title>
<g id="a_node2"><a xlink:href="../../tables/fos_TaxRank2_infraclaID.html" xlink:title="fos_TaxRank2_infraclaID" target="_top">
<polygon fill="#ffffff" stroke="transparent" points="8,-54.7 8,-188.7 267,-188.7 267,-54.7 8,-54.7"/>
<polygon fill="#f5f5f5" stroke="transparent" points="10.5,-163.7 10.5,-186.7 265.5,-186.7 265.5,-163.7 10.5,-163.7"/>
<polygon fill="none" stroke="#000000" points="10.5,-163.7 10.5,-186.7 265.5,-186.7 265.5,-163.7 10.5,-163.7"/>
<text text-anchor="start" x="15.5" y="-172.8" font-family="Helvetica,sans-Serif" font-weight="bold" font-size="11.00" fill="#000000">fos_TaxRank2_infraclaID</text>
<text text-anchor="start" x="230.5437" y="-171.8" font-family="Helvetica,sans-Serif" font-size="11.00" fill="#000000">[table]</text>
<polygon fill="none" stroke="#000000" points="10.5,-141.7 10.5,-163.7 173.5,-163.7 173.5,-141.7 10.5,-141.7"/>
<image xlink:href="../../images/primaryKeys.png" width="11px" height="12px" preserveAspectRatio="xMinYMin meet" x="15.5" y="-158.7"/>
<text text-anchor="start" x="30.5" y="-148.8" font-family="Helvetica,sans-Serif" font-size="11.00" fill="#000000">INFRACLAID</text>
<polygon fill="none" stroke="#000000" points="173.5,-141.7 173.5,-163.7 265.5,-163.7 265.5,-141.7 173.5,-141.7"/>
<text text-anchor="start" x="176.5" y="-149.4" font-family="Helvetica,sans-Serif" font-size="11.00" fill="#000000">smallserial[5]</text>
<polygon fill="#ffffff" stroke="transparent" points="10.5,-119.7 10.5,-141.7 173.5,-141.7 173.5,-119.7 10.5,-119.7"/>
<polygon fill="none" stroke="#000000" points="10.5,-119.7 10.5,-141.7 173.5,-141.7 173.5,-119.7 10.5,-119.7"/>
<text text-anchor="start" x="30.5" y="-126.8" font-family="Helvetica,sans-Serif" font-size="11.00" fill="#000000">INFRACLASS</text>
<polygon fill="none" stroke="#000000" points="173.5,-119.7 173.5,-141.7 265.5,-141.7 265.5,-119.7 173.5,-119.7"/>
<text text-anchor="start" x="176.5" y="-127.4" font-family="Helvetica,sans-Serif" font-size="11.00" fill="#000000">text[2147483647]</text>
<polygon fill="none" stroke="#000000" points="10.5,-97.7 10.5,-119.7 173.5,-119.7 173.5,-97.7 10.5,-97.7"/>
<text text-anchor="start" x="30.5" y="-104.8" font-family="Helvetica,sans-Serif" font-size="11.00" fill="#000000">CREATED_AT</text>
<polygon fill="none" stroke="#000000" points="173.5,-97.7 173.5,-119.7 265.5,-119.7 265.5,-97.7 173.5,-97.7"/>
<text text-anchor="start" x="176.1023" y="-105.4" font-family="Helvetica,sans-Serif" font-size="11.00" fill="#000000">timestamptz[35,6]</text>
<polygon fill="none" stroke="#000000" points="10.5,-75.7 10.5,-97.7 173.5,-97.7 173.5,-75.7 10.5,-75.7"/>
<text text-anchor="start" x="30.5" y="-82.8" font-family="Helvetica,sans-Serif" font-size="11.00" fill="#000000">UPDATED_AT</text>
<polygon fill="none" stroke="#000000" points="173.5,-75.7 173.5,-97.7 265.5,-97.7 265.5,-75.7 173.5,-75.7"/>
<text text-anchor="start" x="176.1023" y="-83.4" font-family="Helvetica,sans-Serif" font-size="11.00" fill="#000000">timestamptz[35,6]</text>
<polygon fill="#ffffff" stroke="transparent" points="10.5,-56.7 10.5,-75.7 80.5,-75.7 80.5,-56.7 10.5,-56.7"/>
<polygon fill="none" stroke="#000000" points="10.5,-56.7 10.5,-75.7 80.5,-75.7 80.5,-56.7 10.5,-56.7"/>
<text text-anchor="start" x="13.5" y="-62.8" font-family="Helvetica,sans-Serif" font-size="11.00" fill="#000000">&lt; 0</text>
<polygon fill="#ffffff" stroke="transparent" points="80.5,-56.7 80.5,-75.7 173.5,-75.7 173.5,-56.7 80.5,-56.7"/>
<polygon fill="none" stroke="#000000" points="80.5,-56.7 80.5,-75.7 173.5,-75.7 173.5,-56.7 80.5,-56.7"/>
<text text-anchor="start" x="131.9956" y="-62.8" font-family="Helvetica,sans-Serif" font-size="11.00" fill="#000000">13 rows</text>
<polygon fill="#ffffff" stroke="transparent" points="173.5,-56.7 173.5,-75.7 265.5,-75.7 265.5,-56.7 173.5,-56.7"/>
<polygon fill="none" stroke="#000000" points="173.5,-56.7 173.5,-75.7 265.5,-75.7 265.5,-56.7 173.5,-56.7"/>
<text text-anchor="start" x="246.9053" y="-62.8" font-family="Helvetica,sans-Serif" font-size="11.00" fill="#000000">1 &gt;</text>
<polygon fill="none" stroke="#000000" stroke-width="2" points="9,-55.7 9,-187.7 266,-187.7 266,-55.7 9,-55.7"/>
</a>
</g>
</g>
<!-- fos_DataCore&#45;&gt;fos_TaxRank2_infraclaID -->
<g id="edge1" class="edge">
<title>fos_DataCore:w&#45;&gt;fos_TaxRank2_infraclaID:e</title>
<path fill="none" stroke="#000000" d="M301.776,-152.7C289.7815,-152.7 282.3229,-152.7 265.5,-152.7"/>
<polygon fill="#000000" stroke="#000000" points="308.5,-152.7001 316.5,-156.3 312.5,-152.7 316.5,-152.7 316.5,-152.7 316.5,-152.7 312.5,-152.7 316.5,-149.1 308.5,-152.7001 308.5,-152.7001"/>
<ellipse fill="none" stroke="#000000" cx="305.3" cy="-152.7001" rx="3.2" ry="3.2"/>
</g>
</g>
</svg>
