<?xml version="1.0" encoding="UTF-8" standalone="no"?>
<!DOCTYPE svg PUBLIC "-//W3C//DTD SVG 1.1//EN"
 "http://www.w3.org/Graphics/SVG/1.1/DTD/svg11.dtd">
<!-- Generated by graphviz version 2.40.1 (20161225.0304)
 -->
<!-- Title: oneDegreeRelationshipsDiagram Pages: 1 -->
<svg width="442pt" height="551pt"
 viewBox="0.00 0.00 442.00 551.20" xmlns="http://www.w3.org/2000/svg" xmlns:xlink="http://www.w3.org/1999/xlink">
<g id="graph0" class="graph" transform="scale(1 1) rotate(0) translate(4 547.2)">
<title>oneDegreeRelationshipsDiagram</title>
<polygon fill="#ffffff" stroke="transparent" points="-4,4 -4,-547.2 438,-547.2 438,4 -4,4"/>
<text text-anchor="middle" x="72.4936" y="-7.3" font-family="Helvetica,sans-Serif" font-size="11.00" fill="#000000">Generated by SchemaSpy</text>
<!-- fos_DataCore -->
<g id="node1" class="node">
<title>fos_DataCore</title>
<g id="a_node1"><a xlink:href="../../tables/fos_DataCore.html" xlink:title="fos_DataCore" target="_top">
<polygon fill="#ffffff" stroke="transparent" points="309,-38.2 309,-539.2 426,-539.2 426,-38.2 309,-38.2"/>
<polygon fill="#f5f5f5" stroke="transparent" points="309.5,-515.7 309.5,-538.7 426.5,-538.7 426.5,-515.7 309.5,-515.7"/>
<polygon fill="none" stroke="#000000" points="309.5,-515.7 309.5,-538.7 426.5,-538.7 426.5,-515.7 309.5,-515.7"/>
<text text-anchor="start" x="314.5" y="-524.3" font-family="Helvetica,sans-Serif" font-weight="bold" font-size="11.00" fill="#000000">fos_DataCore</text>
<text text-anchor="start" x="392.0219" y="-523.8" font-family="Helvetica,sans-Serif" font-size="11.00" fill="#000000">[table]</text>
<polygon fill="none" stroke="#000000" points="309.5,-493.7 309.5,-515.7 426.5,-515.7 426.5,-493.7 309.5,-493.7"/>
<image xlink:href="../../images/primaryKeys.png" width="11px" height="12px" preserveAspectRatio="xMinYMin meet" x="314.5" y="-510.7"/>
<text text-anchor="start" x="332.5" y="-500.8" font-family="Helvetica,sans-Serif" font-size="11.00" fill="#000000">OBSID1</text>
<polygon fill="none" stroke="#000000" points="309.5,-471.7 309.5,-493.7 426.5,-493.7 426.5,-471.7 309.5,-471.7"/>
<image xlink:href="../../images/foreignKeys.png" width="11px" height="12px" preserveAspectRatio="xMinYMin meet" x="314.5" y="-488.7"/>
<text text-anchor="start" x="332.5" y="-478.8" font-family="Helvetica,sans-Serif" font-size="11.00" fill="#000000">SMPID</text>
<polygon fill="none" stroke="#000000" points="309.5,-449.7 309.5,-471.7 426.5,-471.7 426.5,-449.7 309.5,-449.7"/>
<image xlink:href="../../images/foreignKeys.png" width="11px" height="12px" preserveAspectRatio="xMinYMin meet" x="314.5" y="-466.7"/>
<text text-anchor="start" x="332.5" y="-456.8" font-family="Helvetica,sans-Serif" font-size="11.00" fill="#000000">LAB_ORIGID</text>
<polygon fill="none" stroke="#000000" points="309.5,-427.7 309.5,-449.7 426.5,-449.7 426.5,-427.7 309.5,-427.7"/>
<image xlink:href="../../images/foreignKeys.png" width="11px" height="12px" preserveAspectRatio="xMinYMin meet" x="314.5" y="-444.7"/>
<text text-anchor="start" x="332.5" y="-434.8" font-family="Helvetica,sans-Serif" font-size="11.00" fill="#000000">FOS_MTDID</text>
<polygon fill="none" stroke="#000000" points="309.5,-405.7 309.5,-427.7 426.5,-427.7 426.5,-405.7 309.5,-405.7"/>
<image xlink:href="../../images/foreignKeys.png" width="11px" height="12px" preserveAspectRatio="xMinYMin meet" x="314.5" y="-422.7"/>
<text text-anchor="start" x="332.5" y="-412.8" font-family="Helvetica,sans-Serif" font-size="11.00" fill="#000000">FOS_MTDSID</text>
<polygon fill="none" stroke="#000000" points="309.5,-383.7 309.5,-405.7 426.5,-405.7 426.5,-383.7 309.5,-383.7"/>
<image xlink:href="../../images/foreignKeys.png" width="11px" height="12px" preserveAspectRatio="xMinYMin meet" x="314.5" y="-400.7"/>
<text text-anchor="start" x="332.5" y="-390.8" font-family="Helvetica,sans-Serif" font-size="11.00" fill="#000000">DBDOI</text>
<polygon fill="none" stroke="#000000" points="309.5,-361.7 309.5,-383.7 426.5,-383.7 426.5,-361.7 309.5,-361.7"/>
<image xlink:href="../../images/foreignKeys.png" width="11px" height="12px" preserveAspectRatio="xMinYMin meet" x="314.5" y="-378.7"/>
<text text-anchor="start" x="332.5" y="-368.8" font-family="Helvetica,sans-Serif" font-size="11.00" fill="#000000">REFDBID1</text>
<polygon fill="none" stroke="#000000" points="309.5,-339.7 309.5,-361.7 426.5,-361.7 426.5,-339.7 309.5,-339.7"/>
<image xlink:href="../../images/foreignKeys.png" width="11px" height="12px" preserveAspectRatio="xMinYMin meet" x="314.5" y="-356.7"/>
<text text-anchor="start" x="332.5" y="-346.8" font-family="Helvetica,sans-Serif" font-size="11.00" fill="#000000">REFDBID2</text>
<polygon fill="none" stroke="#000000" points="309.5,-317.7 309.5,-339.7 426.5,-339.7 426.5,-317.7 309.5,-317.7"/>
<image xlink:href="../../images/foreignKeys.png" width="11px" height="12px" preserveAspectRatio="xMinYMin meet" x="314.5" y="-334.7"/>
<text text-anchor="start" x="332.5" y="-324.8" font-family="Helvetica,sans-Serif" font-size="11.00" fill="#000000">REFDBID3</text>
<polygon fill="none" stroke="#000000" points="309.5,-295.7 309.5,-317.7 426.5,-317.7 426.5,-295.7 309.5,-295.7"/>
<image xlink:href="../../images/foreignKeys.png" width="11px" height="12px" preserveAspectRatio="xMinYMin meet" x="314.5" y="-312.7"/>
<text text-anchor="start" x="332.5" y="-302.8" font-family="Helvetica,sans-Serif" font-size="11.00" fill="#000000">REFDBID4</text>
<polygon fill="none" stroke="#000000" points="309.5,-273.7 309.5,-295.7 426.5,-295.7 426.5,-273.7 309.5,-273.7"/>
<image xlink:href="../../images/foreignKeys.png" width="11px" height="12px" preserveAspectRatio="xMinYMin meet" x="314.5" y="-290.7"/>
<text text-anchor="start" x="332.5" y="-280.8" font-family="Helvetica,sans-Serif" font-size="11.00" fill="#000000">FOSMAT1ID</text>
<polygon fill="none" stroke="#000000" points="309.5,-251.7 309.5,-273.7 426.5,-273.7 426.5,-251.7 309.5,-251.7"/>
<image xlink:href="../../images/foreignKeys.png" width="11px" height="12px" preserveAspectRatio="xMinYMin meet" x="314.5" y="-268.7"/>
<text text-anchor="start" x="332.5" y="-258.8" font-family="Helvetica,sans-Serif" font-size="11.00" fill="#000000">FOSMAT2ID</text>
<polygon fill="none" stroke="#000000" points="309.5,-229.7 309.5,-251.7 426.5,-251.7 426.5,-229.7 309.5,-229.7"/>
<image xlink:href="../../images/foreignKeys.png" width="11px" height="12px" preserveAspectRatio="xMinYMin meet" x="314.5" y="-246.7"/>
<text text-anchor="start" x="332.5" y="-236.8" font-family="Helvetica,sans-Serif" font-size="11.00" fill="#000000">SPECIESID</text>
<polygon fill="none" stroke="#000000" points="309.5,-207.7 309.5,-229.7 426.5,-229.7 426.5,-207.7 309.5,-207.7"/>
<image xlink:href="../../images/foreignKeys.png" width="11px" height="12px" preserveAspectRatio="xMinYMin meet" x="314.5" y="-224.7"/>
<text text-anchor="start" x="332.5" y="-214.8" font-family="Helvetica,sans-Serif" font-size="11.00" fill="#000000">GENUSID</text>
<polygon fill="none" stroke="#000000" points="309.5,-185.7 309.5,-207.7 426.5,-207.7 426.5,-185.7 309.5,-185.7"/>
<image xlink:href="../../images/foreignKeys.png" width="11px" height="12px" preserveAspectRatio="xMinYMin meet" x="314.5" y="-202.7"/>
<text text-anchor="start" x="332.5" y="-192.8" font-family="Helvetica,sans-Serif" font-size="11.00" fill="#000000">FAMILYID</text>
<polygon fill="none" stroke="#000000" points="309.5,-163.7 309.5,-185.7 426.5,-185.7 426.5,-163.7 309.5,-163.7"/>
<image xlink:href="../../images/foreignKeys.png" width="11px" height="12px" preserveAspectRatio="xMinYMin meet" x="314.5" y="-180.7"/>
<text text-anchor="start" x="332.5" y="-170.8" font-family="Helvetica,sans-Serif" font-size="11.00" fill="#000000">ORDRID</text>
<polygon fill="none" stroke="#000000" points="309.5,-141.7 309.5,-163.7 426.5,-163.7 426.5,-141.7 309.5,-141.7"/>
<image xlink:href="../../images/foreignKeys.png" width="11px" height="12px" preserveAspectRatio="xMinYMin meet" x="314.5" y="-158.7"/>
<text text-anchor="start" x="332.5" y="-148.8" font-family="Helvetica,sans-Serif" font-size="11.00" fill="#000000">INFRACLAID</text>
<polygon fill="none" stroke="#000000" points="309.5,-119.7 309.5,-141.7 426.5,-141.7 426.5,-119.7 309.5,-119.7"/>
<image xlink:href="../../images/foreignKeys.png" width="11px" height="12px" preserveAspectRatio="xMinYMin meet" x="314.5" y="-136.7"/>
<text text-anchor="start" x="332.5" y="-126.8" font-family="Helvetica,sans-Serif" font-size="11.00" fill="#000000">CLASSID</text>
<polygon fill="none" stroke="#000000" points="309.5,-97.7 309.5,-119.7 426.5,-119.7 426.5,-97.7 309.5,-97.7"/>
<image xlink:href="../../images/foreignKeys.png" width="11px" height="12px" preserveAspectRatio="xMinYMin meet" x="314.5" y="-114.7"/>
<text text-anchor="start" x="332.5" y="-104.8" font-family="Helvetica,sans-Serif" font-size="11.00" fill="#000000">CHEMTYPEID</text>
<polygon fill="none" stroke="#000000" points="309.5,-75.7 309.5,-97.7 426.5,-97.7 426.5,-75.7 309.5,-75.7"/>
<image xlink:href="../../images/foreignKeys.png" width="11px" height="12px" preserveAspectRatio="xMinYMin meet" x="314.5" y="-92.7"/>
<text text-anchor="start" x="332.5" y="-82.8" font-family="Helvetica,sans-Serif" font-size="11.00" fill="#000000">CHEMPREPID</text>
<polygon fill="none" stroke="#000000" points="309.5,-56.7 309.5,-75.7 426.5,-75.7 426.5,-56.7 309.5,-56.7"/>
<text text-anchor="start" x="312.5" y="-62.8" font-family="Helvetica,sans-Serif" font-size="11.00" fill="#000000">...</text>
<polygon fill="#ffffff" stroke="transparent" points="309.5,-37.7 309.5,-56.7 338.5,-56.7 338.5,-37.7 309.5,-37.7"/>
<polygon fill="none" stroke="#000000" points="309.5,-37.7 309.5,-56.7 338.5,-56.7 338.5,-37.7 309.5,-37.7"/>
<text text-anchor="start" x="312.5" y="-43.8" font-family="Helvetica,sans-Serif" font-size="11.00" fill="#000000">&lt; 19</text>
<polygon fill="#ffffff" stroke="transparent" points="338.5,-37.7 338.5,-56.7 404.5,-56.7 404.5,-37.7 338.5,-37.7"/>
<polygon fill="none" stroke="#000000" points="338.5,-37.7 338.5,-56.7 404.5,-56.7 404.5,-37.7 338.5,-37.7"/>
<text text-anchor="start" x="341.594" y="-43.8" font-family="Helvetica,sans-Serif" font-size="11.00" fill="#000000">11.858 rows</text>
<polygon fill="#ffffff" stroke="transparent" points="404.5,-37.7 404.5,-56.7 426.5,-56.7 426.5,-37.7 404.5,-37.7"/>
<polygon fill="none" stroke="#000000" points="404.5,-37.7 404.5,-56.7 426.5,-56.7 426.5,-37.7 404.5,-37.7"/>
<text text-anchor="start" x="407.9053" y="-43.8" font-family="Helvetica,sans-Serif" font-size="11.00" fill="#000000">1 &gt;</text>
</a>
</g>
</g>
<!-- fos_TaxRank5_genusID -->
<g id="node2" class="node">
<title>fos_TaxRank5_genusID</title>
<g id="a_node2"><a xlink:href="../../tables/fos_TaxRank5_genusID.html" xlink:title="fos_TaxRank5_genusID" target="_top">
<polygon fill="#ffffff" stroke="transparent" points="8,-120.7 8,-254.7 260,-254.7 260,-120.7 8,-120.7"/>
<polygon fill="#f5f5f5" stroke="transparent" points="10,-229.7 10,-252.7 258,-252.7 258,-229.7 10,-229.7"/>
<polygon fill="none" stroke="#000000" points="10,-229.7 10,-252.7 258,-252.7 258,-229.7 10,-229.7"/>
<text text-anchor="start" x="15" y="-238.3" font-family="Helvetica,sans-Serif" font-weight="bold" font-size="11.00" fill="#000000">fos_TaxRank5_genusID</text>
<text text-anchor="start" x="223.0437" y="-237.8" font-family="Helvetica,sans-Serif" font-size="11.00" fill="#000000">[table]</text>
<polygon fill="none" stroke="#000000" points="10,-207.7 10,-229.7 166,-229.7 166,-207.7 10,-207.7"/>
<image xlink:href="../../images/primaryKeys.png" width="11px" height="12px" preserveAspectRatio="xMinYMin meet" x="15" y="-224.7"/>
<text text-anchor="start" x="30" y="-214.8" font-family="Helvetica,sans-Serif" font-size="11.00" fill="#000000">GENUSID</text>
<polygon fill="none" stroke="#000000" points="166,-207.7 166,-229.7 258,-229.7 258,-207.7 166,-207.7"/>
<text text-anchor="start" x="169" y="-215.4" font-family="Helvetica,sans-Serif" font-size="11.00" fill="#000000">smallserial[5]</text>
<polygon fill="#ffffff" stroke="transparent" points="10,-185.7 10,-207.7 166,-207.7 166,-185.7 10,-185.7"/>
<polygon fill="none" stroke="#000000" points="10,-185.7 10,-207.7 166,-207.7 166,-185.7 10,-185.7"/>
<text text-anchor="start" x="30" y="-192.8" font-family="Helvetica,sans-Serif" font-size="11.00" fill="#000000">GENUS</text>
<polygon fill="none" stroke="#000000" points="166,-185.7 166,-207.7 258,-207.7 258,-185.7 166,-185.7"/>
<text text-anchor="start" x="169" y="-193.4" font-family="Helvetica,sans-Serif" font-size="11.00" fill="#000000">text[2147483647]</text>
<polygon fill="none" stroke="#000000" points="10,-163.7 10,-185.7 166,-185.7 166,-163.7 10,-163.7"/>
<text text-anchor="start" x="30" y="-170.8" font-family="Helvetica,sans-Serif" font-size="11.00" fill="#000000">CREATED_AT</text>
<polygon fill="none" stroke="#000000" points="166,-163.7 166,-185.7 258,-185.7 258,-163.7 166,-163.7"/>
<text text-anchor="start" x="168.6023" y="-171.4" font-family="Helvetica,sans-Serif" font-size="11.00" fill="#000000">timestamptz[35,6]</text>
<polygon fill="none" stroke="#000000" points="10,-141.7 10,-163.7 166,-163.7 166,-141.7 10,-141.7"/>
<text text-anchor="start" x="30" y="-148.8" font-family="Helvetica,sans-Serif" font-size="11.00" fill="#000000">UPDATED_AT</text>
<polygon fill="none" stroke="#000000" points="166,-141.7 166,-163.7 258,-163.7 258,-141.7 166,-141.7"/>
<text text-anchor="start" x="168.6023" y="-149.4" font-family="Helvetica,sans-Serif" font-size="11.00" fill="#000000">timestamptz[35,6]</text>
<polygon fill="#ffffff" stroke="transparent" points="10,-122.7 10,-141.7 73,-141.7 73,-122.7 10,-122.7"/>
<polygon fill="none" stroke="#000000" points="10,-122.7 10,-141.7 73,-141.7 73,-122.7 10,-122.7"/>
<text text-anchor="start" x="13" y="-128.8" font-family="Helvetica,sans-Serif" font-size="11.00" fill="#000000">&lt; 0</text>
<polygon fill="#ffffff" stroke="transparent" points="73,-122.7 73,-141.7 166,-141.7 166,-122.7 73,-122.7"/>
<polygon fill="none" stroke="#000000" points="73,-122.7 73,-141.7 166,-141.7 166,-122.7 73,-122.7"/>
<text text-anchor="start" x="118.3807" y="-128.8" font-family="Helvetica,sans-Serif" font-size="11.00" fill="#000000">219 rows</text>
<polygon fill="#ffffff" stroke="transparent" points="166,-122.7 166,-141.7 258,-141.7 258,-122.7 166,-122.7"/>
<polygon fill="none" stroke="#000000" points="166,-122.7 166,-141.7 258,-141.7 258,-122.7 166,-122.7"/>
<text text-anchor="start" x="239.4053" y="-128.8" font-family="Helvetica,sans-Serif" font-size="11.00" fill="#000000">1 &gt;</text>
<polygon fill="none" stroke="#000000" stroke-width="2" points="9,-121.7 9,-253.7 259,-253.7 259,-121.7 9,-121.7"/>
</a>
</g>
</g>
<!-- fos_DataCore&#45;&gt;fos_TaxRank5_genusID -->
<g id="edge1" class="edge">
<title>fos_DataCore:w&#45;&gt;fos_TaxRank5_genusID:e</title>
<path fill="none" stroke="#000000" d="M295.0156,-218.7C282.6771,-218.7 275.1667,-218.7 258,-218.7"/>
<polygon fill="#000000" stroke="#000000" points="301.5,-218.7001 309.5,-222.3 305.5,-218.7 309.5,-218.7 309.5,-218.7 309.5,-218.7 305.5,-218.7 309.5,-215.1 301.5,-218.7001 301.5,-218.7001"/>
<ellipse fill="none" stroke="#000000" cx="298.3" cy="-218.7001" rx="3.2" ry="3.2"/>
</g>
</g>
</svg>
