<?xml version="1.0" encoding="UTF-8" standalone="no"?>
<!DOCTYPE svg PUBLIC "-//W3C//DTD SVG 1.1//EN"
 "http://www.w3.org/Graphics/SVG/1.1/DTD/svg11.dtd">
<!-- Generated by graphviz version 2.40.1 (20161225.0304)
 -->
<!-- Title: twoDegreesRelationshipsDiagramImplied Pages: 1 -->
<svg width="435pt" height="295pt"
 viewBox="0.00 0.00 435.00 294.70" xmlns="http://www.w3.org/2000/svg" xmlns:xlink="http://www.w3.org/1999/xlink">
<g id="graph0" class="graph" transform="scale(1 1) rotate(0) translate(4 290.7)">
<title>twoDegreesRelationshipsDiagramImplied</title>
<polygon fill="#ffffff" stroke="transparent" points="-4,4 -4,-290.7 431,-290.7 431,4 -4,4"/>
<text text-anchor="middle" x="72.4936" y="-7.3" font-family="Helvetica,sans-Serif" font-size="11.00" fill="#000000">Generated by SchemaSpy</text>
<!-- geography_columns -->
<g id="node1" class="node">
<title>geography_columns</title>
<g id="a_node1"><a xlink:href="../../tables/geography_columns.html" xlink:title="geography_columns" target="_top">
<polygon fill="#ffffff" stroke="transparent" points="173,-101.7 173,-282.7 419,-282.7 419,-101.7 173,-101.7"/>
<polygon fill="#f5f5f5" stroke="transparent" points="175,-257.2 175,-280.2 417,-280.2 417,-257.2 175,-257.2"/>
<polygon fill="none" stroke="#000000" points="175,-257.2 175,-280.2 417,-280.2 417,-257.2 175,-257.2"/>
<text text-anchor="start" x="180" y="-266.3" font-family="Helvetica,sans-Serif" font-weight="bold" font-size="11.00" fill="#000000">geography_columns</text>
<text text-anchor="start" x="383.8895" y="-265.3" font-family="Helvetica,sans-Serif" font-size="11.00" fill="#000000">[view]</text>
<polygon fill="none" stroke="#000000" points="175,-235.2 175,-257.2 317,-257.2 317,-235.2 175,-235.2"/>
<text text-anchor="start" x="195" y="-242.3" font-family="Helvetica,sans-Serif" font-size="11.00" fill="#000000">f_table_catalog</text>
<polygon fill="none" stroke="#000000" points="317,-235.2 317,-257.2 417,-257.2 417,-235.2 317,-235.2"/>
<text text-anchor="start" x="319.6153" y="-242.9" font-family="Helvetica,sans-Serif" font-size="11.00" fill="#000000">name[2147483647]</text>
<polygon fill="none" stroke="#000000" points="175,-213.2 175,-235.2 317,-235.2 317,-213.2 175,-213.2"/>
<text text-anchor="start" x="195" y="-220.3" font-family="Helvetica,sans-Serif" font-size="11.00" fill="#000000">f_table_schema</text>
<polygon fill="none" stroke="#000000" points="317,-213.2 317,-235.2 417,-235.2 417,-213.2 317,-213.2"/>
<text text-anchor="start" x="319.6153" y="-220.9" font-family="Helvetica,sans-Serif" font-size="11.00" fill="#000000">name[2147483647]</text>
<polygon fill="none" stroke="#000000" points="175,-191.2 175,-213.2 317,-213.2 317,-191.2 175,-191.2"/>
<text text-anchor="start" x="195" y="-198.3" font-family="Helvetica,sans-Serif" font-size="11.00" fill="#000000">f_table_name</text>
<polygon fill="none" stroke="#000000" points="317,-191.2 317,-213.2 417,-213.2 417,-191.2 317,-191.2"/>
<text text-anchor="start" x="319.6153" y="-198.9" font-family="Helvetica,sans-Serif" font-size="11.00" fill="#000000">name[2147483647]</text>
<polygon fill="none" stroke="#000000" points="175,-169.2 175,-191.2 317,-191.2 317,-169.2 175,-169.2"/>
<text text-anchor="start" x="195" y="-176.3" font-family="Helvetica,sans-Serif" font-size="11.00" fill="#000000">f_geography_column</text>
<polygon fill="none" stroke="#000000" points="317,-169.2 317,-191.2 417,-191.2 417,-169.2 317,-169.2"/>
<text text-anchor="start" x="319.6153" y="-176.9" font-family="Helvetica,sans-Serif" font-size="11.00" fill="#000000">name[2147483647]</text>
<polygon fill="none" stroke="#000000" points="175,-147.2 175,-169.2 317,-169.2 317,-147.2 175,-147.2"/>
<text text-anchor="start" x="195" y="-154.3" font-family="Helvetica,sans-Serif" font-size="11.00" fill="#000000">coord_dimension</text>
<polygon fill="none" stroke="#000000" points="317,-147.2 317,-169.2 417,-169.2 417,-147.2 317,-147.2"/>
<text text-anchor="start" x="320" y="-154.9" font-family="Helvetica,sans-Serif" font-size="11.00" fill="#000000">int4[10]</text>
<polygon fill="none" stroke="#000000" points="175,-125.2 175,-147.2 317,-147.2 317,-125.2 175,-125.2"/>
<image xlink:href="../../images/foreignKeys.png" width="11px" height="12px" preserveAspectRatio="xMinYMin meet" x="180" y="-142.2"/>
<text text-anchor="start" x="195" y="-132.3" font-family="Helvetica,sans-Serif" font-size="11.00" fill="#000000">srid</text>
<polygon fill="none" stroke="#000000" points="317,-125.2 317,-147.2 417,-147.2 417,-125.2 317,-125.2"/>
<text text-anchor="start" x="320" y="-132.9" font-family="Helvetica,sans-Serif" font-size="11.00" fill="#000000">int4[10]</text>
<polygon fill="none" stroke="#000000" points="175,-103.2 175,-125.2 317,-125.2 317,-103.2 175,-103.2"/>
<text text-anchor="start" x="195" y="-110.3" font-family="Helvetica,sans-Serif" font-size="11.00" fill="#000000">type</text>
<polygon fill="none" stroke="#000000" points="317,-103.2 317,-125.2 417,-125.2 417,-103.2 317,-103.2"/>
<text text-anchor="start" x="320" y="-110.9" font-family="Helvetica,sans-Serif" font-size="11.00" fill="#000000">text[2147483647]</text>
<polygon fill="none" stroke="#000000" stroke-width="2" points="174,-102.7 174,-281.7 418,-281.7 418,-102.7 174,-102.7"/>
</a>
</g>
</g>
<!-- spatial_ref_sys -->
<g id="node2" class="node">
<title>spatial_ref_sys</title>
<g id="a_node2"><a xlink:href="../../tables/spatial_ref_sys.html" xlink:title="spatial_ref_sys" target="_top">
<polygon fill="#ffffff" stroke="transparent" points="8,-42.7 8,-125.7 124,-125.7 124,-42.7 8,-42.7"/>
<polygon fill="#f5f5f5" stroke="transparent" points="8,-102.2 8,-125.2 124,-125.2 124,-102.2 8,-102.2"/>
<polygon fill="none" stroke="#000000" points="8,-102.2 8,-125.2 124,-125.2 124,-102.2 8,-102.2"/>
<text text-anchor="start" x="12.8266" y="-111.3" font-family="Helvetica,sans-Serif" font-weight="bold" font-size="11.00" fill="#000000">spatial_ref_sys</text>
<text text-anchor="start" x="89.5219" y="-110.3" font-family="Helvetica,sans-Serif" font-size="11.00" fill="#000000">[table]</text>
<polygon fill="none" stroke="#000000" points="8,-80.2 8,-102.2 124,-102.2 124,-80.2 8,-80.2"/>
<image xlink:href="../../images/primaryKeys.png" width="11px" height="12px" preserveAspectRatio="xMinYMin meet" x="13" y="-97.2"/>
<text text-anchor="start" x="33" y="-87.3" font-family="Helvetica,sans-Serif" font-size="11.00" fill="#000000">srid</text>
<polygon fill="none" stroke="#000000" points="8,-61.2 8,-80.2 124,-80.2 124,-61.2 8,-61.2"/>
<text text-anchor="start" x="11" y="-67.3" font-family="Helvetica,sans-Serif" font-size="11.00" fill="#000000">...</text>
<polygon fill="#ffffff" stroke="transparent" points="8,-42.2 8,-61.2 32,-61.2 32,-42.2 8,-42.2"/>
<polygon fill="none" stroke="#000000" points="8,-42.2 8,-61.2 32,-61.2 32,-42.2 8,-42.2"/>
<text text-anchor="start" x="11" y="-48.3" font-family="Helvetica,sans-Serif" font-size="11.00" fill="#000000"> &#160;</text>
<polygon fill="#ffffff" stroke="transparent" points="32,-42.2 32,-61.2 97,-61.2 97,-42.2 32,-42.2"/>
<polygon fill="none" stroke="#000000" points="32,-42.2 32,-61.2 97,-61.2 97,-42.2 32,-42.2"/>
<text text-anchor="start" x="40.2089" y="-48.3" font-family="Helvetica,sans-Serif" font-size="11.00" fill="#000000">8,500 rows</text>
<polygon fill="#ffffff" stroke="transparent" points="97,-42.2 97,-61.2 124,-61.2 124,-42.2 97,-42.2"/>
<polygon fill="none" stroke="#000000" points="97,-42.2 97,-61.2 124,-61.2 124,-42.2 97,-42.2"/>
<text text-anchor="start" x="105.4053" y="-48.3" font-family="Helvetica,sans-Serif" font-size="11.00" fill="#000000">2 &gt;</text>
</a>
</g>
</g>
<!-- geography_columns&#45;&gt;spatial_ref_sys -->
<g id="edge1" class="edge">
<title>geography_columns:w&#45;&gt;spatial_ref_sys:e</title>
<path fill="none" stroke="#000000" stroke-dasharray="5,2" d="M161.2382,-131.7207C146.9517,-120.3385 148.3247,-91.2 124,-91.2"/>
<polygon fill="#000000" stroke="#000000" points="167.3928,-133.7239 173.8858,-139.6232 171.1964,-134.962 175,-136.2 175,-136.2 175,-136.2 171.1964,-134.962 176.1142,-132.7768 167.3928,-133.7239 167.3928,-133.7239"/>
<ellipse fill="none" stroke="#000000" cx="164.3499" cy="-132.7335" rx="3.2" ry="3.2"/>
</g>
<!-- geometry_columns -->
<g id="node3" class="node">
<title>geometry_columns</title>
<g id="a_node3"><a xlink:href="../../tables/geometry_columns.html" xlink:title="geometry_columns" target="_top">
<polygon fill="#ffffff" stroke="transparent" points="229,-38.2 229,-80.2 363,-80.2 363,-38.2 229,-38.2"/>
<polygon fill="#f5f5f5" stroke="transparent" points="229,-57.2 229,-80.2 363,-80.2 363,-57.2 229,-57.2"/>
<polygon fill="none" stroke="#000000" points="229,-57.2 229,-80.2 363,-80.2 363,-57.2 229,-57.2"/>
<text text-anchor="start" x="233.5487" y="-66.3" font-family="Helvetica,sans-Serif" font-weight="bold" font-size="11.00" fill="#000000">geometry_columns</text>
<text text-anchor="start" x="329.9448" y="-65.3" font-family="Helvetica,sans-Serif" font-size="11.00" fill="#000000">[view]</text>
<polygon fill="none" stroke="#000000" points="229,-38.2 229,-57.2 363,-57.2 363,-38.2 229,-38.2"/>
<text text-anchor="start" x="232" y="-44.3" font-family="Helvetica,sans-Serif" font-size="11.00" fill="#000000">...</text>
</a>
</g>
</g>
<!-- geometry_columns&#45;&gt;spatial_ref_sys -->
<g id="edge2" class="edge">
<title>geometry_columns:w&#45;&gt;spatial_ref_sys:e</title>
<path fill="none" stroke="#000000" stroke-dasharray="5,2" d="M214.4422,-48.5651C177.0788,-55.9918 169.2618,-91.2 124,-91.2"/>
<polygon fill="#000000" stroke="#000000" points="221.0349,-47.9469 229.3361,-50.7843 225.0175,-47.5735 229,-47.2 229,-47.2 229,-47.2 225.0175,-47.5735 228.6639,-43.6157 221.0349,-47.9469 221.0349,-47.9469"/>
<ellipse fill="none" stroke="#000000" cx="217.8489" cy="-48.2457" rx="3.2" ry="3.2"/>
</g>
</g>
</svg>
