<?xml version="1.0" encoding="UTF-8" standalone="no"?>
<!DOCTYPE svg PUBLIC "-//W3C//DTD SVG 1.1//EN"
 "http://www.w3.org/Graphics/SVG/1.1/DTD/svg11.dtd">
<!-- Generated by graphviz version 2.40.1 (20161225.0304)
 -->
<!-- Title: twoDegreesRelationshipsDiagramImplied Pages: 1 -->
<svg width="428pt" height="295pt"
 viewBox="0.00 0.00 428.00 294.70" xmlns="http://www.w3.org/2000/svg" xmlns:xlink="http://www.w3.org/1999/xlink">
<g id="graph0" class="graph" transform="scale(1 1) rotate(0) translate(4 290.7)">
<title>twoDegreesRelationshipsDiagramImplied</title>
<polygon fill="#ffffff" stroke="transparent" points="-4,4 -4,-290.7 424,-290.7 424,4 -4,4"/>
<text text-anchor="middle" x="72.4936" y="-7.3" font-family="Helvetica,sans-Serif" font-size="11.00" fill="#000000">Generated by SchemaSpy</text>
<!-- geography_columns -->
<g id="node1" class="node">
<title>geography_columns</title>
<g id="a_node1"><a xlink:href="../../tables/geography_columns.html" xlink:title="geography_columns" target="_top">
<polygon fill="#ffffff" stroke="transparent" points="222,-240.7 222,-282.7 363,-282.7 363,-240.7 222,-240.7"/>
<polygon fill="#f5f5f5" stroke="transparent" points="222.5,-259.7 222.5,-282.7 363.5,-282.7 363.5,-259.7 222.5,-259.7"/>
<polygon fill="none" stroke="#000000" points="222.5,-259.7 222.5,-282.7 363.5,-282.7 363.5,-259.7 222.5,-259.7"/>
<text text-anchor="start" x="227.4857" y="-268.8" font-family="Helvetica,sans-Serif" font-weight="bold" font-size="11.00" fill="#000000">geography_columns</text>
<text text-anchor="start" x="330.4448" y="-267.8" font-family="Helvetica,sans-Serif" font-size="11.00" fill="#000000">[view]</text>
<polygon fill="none" stroke="#000000" points="222.5,-240.7 222.5,-259.7 363.5,-259.7 363.5,-240.7 222.5,-240.7"/>
<text text-anchor="start" x="225.5" y="-246.8" font-family="Helvetica,sans-Serif" font-size="11.00" fill="#000000">...</text>
</a>
</g>
</g>
<!-- spatial_ref_sys -->
<g id="node2" class="node">
<title>spatial_ref_sys</title>
<g id="a_node2"><a xlink:href="../../tables/spatial_ref_sys.html" xlink:title="spatial_ref_sys" target="_top">
<polygon fill="#ffffff" stroke="transparent" points="8,-112.2 8,-195.2 124,-195.2 124,-112.2 8,-112.2"/>
<polygon fill="#f5f5f5" stroke="transparent" points="8,-171.7 8,-194.7 124,-194.7 124,-171.7 8,-171.7"/>
<polygon fill="none" stroke="#000000" points="8,-171.7 8,-194.7 124,-194.7 124,-171.7 8,-171.7"/>
<text text-anchor="start" x="12.8266" y="-180.8" font-family="Helvetica,sans-Serif" font-weight="bold" font-size="11.00" fill="#000000">spatial_ref_sys</text>
<text text-anchor="start" x="89.5219" y="-179.8" font-family="Helvetica,sans-Serif" font-size="11.00" fill="#000000">[table]</text>
<polygon fill="none" stroke="#000000" points="8,-149.7 8,-171.7 124,-171.7 124,-149.7 8,-149.7"/>
<image xlink:href="../../images/primaryKeys.png" width="11px" height="12px" preserveAspectRatio="xMinYMin meet" x="13" y="-166.7"/>
<text text-anchor="start" x="33" y="-156.8" font-family="Helvetica,sans-Serif" font-size="11.00" fill="#000000">srid</text>
<polygon fill="none" stroke="#000000" points="8,-130.7 8,-149.7 124,-149.7 124,-130.7 8,-130.7"/>
<text text-anchor="start" x="11" y="-136.8" font-family="Helvetica,sans-Serif" font-size="11.00" fill="#000000">...</text>
<polygon fill="#ffffff" stroke="transparent" points="8,-111.7 8,-130.7 32,-130.7 32,-111.7 8,-111.7"/>
<polygon fill="none" stroke="#000000" points="8,-111.7 8,-130.7 32,-130.7 32,-111.7 8,-111.7"/>
<text text-anchor="start" x="11" y="-117.8" font-family="Helvetica,sans-Serif" font-size="11.00" fill="#000000"> &#160;</text>
<polygon fill="#ffffff" stroke="transparent" points="32,-111.7 32,-130.7 97,-130.7 97,-111.7 32,-111.7"/>
<polygon fill="none" stroke="#000000" points="32,-111.7 32,-130.7 97,-130.7 97,-111.7 32,-111.7"/>
<text text-anchor="start" x="40.2089" y="-117.8" font-family="Helvetica,sans-Serif" font-size="11.00" fill="#000000">8,500 rows</text>
<polygon fill="#ffffff" stroke="transparent" points="97,-111.7 97,-130.7 124,-130.7 124,-111.7 97,-111.7"/>
<polygon fill="none" stroke="#000000" points="97,-111.7 97,-130.7 124,-130.7 124,-111.7 97,-111.7"/>
<text text-anchor="start" x="105.4053" y="-117.8" font-family="Helvetica,sans-Serif" font-size="11.00" fill="#000000">2 &gt;</text>
</a>
</g>
</g>
<!-- geography_columns&#45;&gt;spatial_ref_sys -->
<g id="edge1" class="edge">
<title>geography_columns:w&#45;&gt;spatial_ref_sys:e</title>
<path fill="none" stroke="#000000" stroke-dasharray="5,2" d="M207.9437,-249.2475C191.1164,-247.9399 181.7017,-243.3361 165,-229.7 137.368,-207.1397 159.672,-160.7 124,-160.7"/>
<polygon fill="#000000" stroke="#000000" points="214.5039,-249.4514 222.3881,-253.2983 218.5019,-249.5757 222.5,-249.7 222.5,-249.7 222.5,-249.7 218.5019,-249.5757 222.6119,-246.1017 214.5039,-249.4514 214.5039,-249.4514"/>
<ellipse fill="none" stroke="#000000" cx="211.3054" cy="-249.3519" rx="3.2" ry="3.2"/>
</g>
<!-- geometry_columns -->
<g id="node3" class="node">
<title>geometry_columns</title>
<g id="a_node3"><a xlink:href="../../tables/geometry_columns.html" xlink:title="geometry_columns" target="_top">
<polygon fill="#ffffff" stroke="transparent" points="173,-38.2 173,-219.2 412,-219.2 412,-38.2 173,-38.2"/>
<polygon fill="#f5f5f5" stroke="transparent" points="175.5,-193.7 175.5,-216.7 410.5,-216.7 410.5,-193.7 175.5,-193.7"/>
<polygon fill="none" stroke="#000000" points="175.5,-193.7 175.5,-216.7 410.5,-216.7 410.5,-193.7 175.5,-193.7"/>
<text text-anchor="start" x="180.5" y="-202.8" font-family="Helvetica,sans-Serif" font-weight="bold" font-size="11.00" fill="#000000">geometry_columns</text>
<text text-anchor="start" x="377.3895" y="-201.8" font-family="Helvetica,sans-Serif" font-size="11.00" fill="#000000">[view]</text>
<polygon fill="none" stroke="#000000" points="175.5,-171.7 175.5,-193.7 310.5,-193.7 310.5,-171.7 175.5,-171.7"/>
<text text-anchor="start" x="195.5" y="-178.8" font-family="Helvetica,sans-Serif" font-size="11.00" fill="#000000">f_table_catalog</text>
<polygon fill="none" stroke="#000000" points="310.5,-171.7 310.5,-193.7 410.5,-193.7 410.5,-171.7 310.5,-171.7"/>
<text text-anchor="start" x="313.5" y="-179.4" font-family="Helvetica,sans-Serif" font-size="11.00" fill="#000000">varchar[256]</text>
<polygon fill="none" stroke="#000000" points="175.5,-149.7 175.5,-171.7 310.5,-171.7 310.5,-149.7 175.5,-149.7"/>
<text text-anchor="start" x="195.5" y="-156.8" font-family="Helvetica,sans-Serif" font-size="11.00" fill="#000000">f_table_schema</text>
<polygon fill="none" stroke="#000000" points="310.5,-149.7 310.5,-171.7 410.5,-171.7 410.5,-149.7 310.5,-149.7"/>
<text text-anchor="start" x="313.1153" y="-157.4" font-family="Helvetica,sans-Serif" font-size="11.00" fill="#000000">name[2147483647]</text>
<polygon fill="none" stroke="#000000" points="175.5,-127.7 175.5,-149.7 310.5,-149.7 310.5,-127.7 175.5,-127.7"/>
<text text-anchor="start" x="195.5" y="-134.8" font-family="Helvetica,sans-Serif" font-size="11.00" fill="#000000">f_table_name</text>
<polygon fill="none" stroke="#000000" points="310.5,-127.7 310.5,-149.7 410.5,-149.7 410.5,-127.7 310.5,-127.7"/>
<text text-anchor="start" x="313.1153" y="-135.4" font-family="Helvetica,sans-Serif" font-size="11.00" fill="#000000">name[2147483647]</text>
<polygon fill="none" stroke="#000000" points="175.5,-105.7 175.5,-127.7 310.5,-127.7 310.5,-105.7 175.5,-105.7"/>
<text text-anchor="start" x="195.5" y="-112.8" font-family="Helvetica,sans-Serif" font-size="11.00" fill="#000000">f_geometry_column</text>
<polygon fill="none" stroke="#000000" points="310.5,-105.7 310.5,-127.7 410.5,-127.7 410.5,-105.7 310.5,-105.7"/>
<text text-anchor="start" x="313.1153" y="-113.4" font-family="Helvetica,sans-Serif" font-size="11.00" fill="#000000">name[2147483647]</text>
<polygon fill="none" stroke="#000000" points="175.5,-83.7 175.5,-105.7 310.5,-105.7 310.5,-83.7 175.5,-83.7"/>
<text text-anchor="start" x="195.5" y="-90.8" font-family="Helvetica,sans-Serif" font-size="11.00" fill="#000000">coord_dimension</text>
<polygon fill="none" stroke="#000000" points="310.5,-83.7 310.5,-105.7 410.5,-105.7 410.5,-83.7 310.5,-83.7"/>
<text text-anchor="start" x="313.5" y="-91.4" font-family="Helvetica,sans-Serif" font-size="11.00" fill="#000000">int4[10]</text>
<polygon fill="none" stroke="#000000" points="175.5,-61.7 175.5,-83.7 310.5,-83.7 310.5,-61.7 175.5,-61.7"/>
<image xlink:href="../../images/foreignKeys.png" width="11px" height="12px" preserveAspectRatio="xMinYMin meet" x="180.5" y="-78.7"/>
<text text-anchor="start" x="195.5" y="-68.8" font-family="Helvetica,sans-Serif" font-size="11.00" fill="#000000">srid</text>
<polygon fill="none" stroke="#000000" points="310.5,-61.7 310.5,-83.7 410.5,-83.7 410.5,-61.7 310.5,-61.7"/>
<text text-anchor="start" x="313.5" y="-69.4" font-family="Helvetica,sans-Serif" font-size="11.00" fill="#000000">int4[10]</text>
<polygon fill="none" stroke="#000000" points="175.5,-39.7 175.5,-61.7 310.5,-61.7 310.5,-39.7 175.5,-39.7"/>
<text text-anchor="start" x="195.5" y="-46.8" font-family="Helvetica,sans-Serif" font-size="11.00" fill="#000000">type</text>
<polygon fill="none" stroke="#000000" points="310.5,-39.7 310.5,-61.7 410.5,-61.7 410.5,-39.7 310.5,-39.7"/>
<text text-anchor="start" x="313.5" y="-47.4" font-family="Helvetica,sans-Serif" font-size="11.00" fill="#000000">varchar[30]</text>
<polygon fill="none" stroke="#000000" stroke-width="2" points="174,-39.2 174,-218.2 411,-218.2 411,-39.2 174,-39.2"/>
</a>
</g>
</g>
<!-- geometry_columns&#45;&gt;spatial_ref_sys -->
<g id="edge2" class="edge">
<title>geometry_columns:w&#45;&gt;spatial_ref_sys:e</title>
<path fill="none" stroke="#000000" stroke-dasharray="5,2" d="M161.5174,-76.9444C139.0886,-94.5228 163.2979,-160.7 124,-160.7"/>
<polygon fill="#000000" stroke="#000000" points="167.8449,-75.0237 176.5457,-76.1448 171.6725,-73.8619 175.5,-72.7 175.5,-72.7 175.5,-72.7 171.6725,-73.8619 174.4543,-69.2552 167.8449,-75.0237 167.8449,-75.0237"/>
<ellipse fill="none" stroke="#000000" cx="164.7829" cy="-75.9532" rx="3.2" ry="3.2"/>
</g>
</g>
</svg>
