<?xml version="1.0" encoding="UTF-8" standalone="no"?>
<!DOCTYPE svg PUBLIC "-//W3C//DTD SVG 1.1//EN"
 "http://www.w3.org/Graphics/SVG/1.1/DTD/svg11.dtd">
<!-- Generated by graphviz version 2.40.1 (20161225.0304)
 -->
<!-- Title: oneDegreeRelationshipsDiagramImplied Pages: 1 -->
<svg width="420pt" height="1483pt"
 viewBox="0.00 0.00 420.00 1483.20" xmlns="http://www.w3.org/2000/svg" xmlns:xlink="http://www.w3.org/1999/xlink">
<g id="graph0" class="graph" transform="scale(1 1) rotate(0) translate(4 1479.2)">
<title>oneDegreeRelationshipsDiagramImplied</title>
<polygon fill="#ffffff" stroke="transparent" points="-4,4 -4,-1479.2 416,-1479.2 416,4 -4,4"/>
<text text-anchor="middle" x="72.4936" y="-7.3" font-family="Helvetica,sans-Serif" font-size="11.00" fill="#000000">Generated by SchemaSpy</text>
<!-- crn_aus_basins -->
<g id="node1" class="node">
<title>crn_aus_basins</title>
<g id="a_node1"><a xlink:href="../../tables/crn_aus_basins.html" xlink:title="crn_aus_basins" target="_top">
<polygon fill="#ffffff" stroke="transparent" points="267,-1278.2 267,-1471.2 396,-1471.2 396,-1278.2 267,-1278.2"/>
<polygon fill="#f5f5f5" stroke="transparent" points="267.5,-1447.7 267.5,-1470.7 396.5,-1470.7 396.5,-1447.7 267.5,-1447.7"/>
<polygon fill="none" stroke="#000000" points="267.5,-1447.7 267.5,-1470.7 396.5,-1470.7 396.5,-1447.7 267.5,-1447.7"/>
<text text-anchor="start" x="272.5" y="-1456.3" font-family="Helvetica,sans-Serif" font-weight="bold" font-size="11.00" fill="#000000">crn_aus_basins</text>
<text text-anchor="start" x="362.0219" y="-1455.8" font-family="Helvetica,sans-Serif" font-size="11.00" fill="#000000">[table]</text>
<polygon fill="none" stroke="#000000" points="267.5,-1425.7 267.5,-1447.7 396.5,-1447.7 396.5,-1425.7 267.5,-1425.7"/>
<image xlink:href="../../images/foreignKeys.png" width="11px" height="12px" preserveAspectRatio="xMinYMin meet" x="272.5" y="-1442.7"/>
<text text-anchor="start" x="296.5" y="-1432.8" font-family="Helvetica,sans-Serif" font-size="11.00" fill="#000000">DBDOI</text>
<polygon fill="none" stroke="#000000" points="267.5,-1403.7 267.5,-1425.7 396.5,-1425.7 396.5,-1403.7 267.5,-1403.7"/>
<image xlink:href="../../images/foreignKeys.png" width="11px" height="12px" preserveAspectRatio="xMinYMin meet" x="272.5" y="-1420.7"/>
<text text-anchor="start" x="296.5" y="-1410.8" font-family="Helvetica,sans-Serif" font-size="11.00" fill="#000000">SITEID</text>
<polygon fill="none" stroke="#000000" points="267.5,-1381.7 267.5,-1403.7 396.5,-1403.7 396.5,-1381.7 267.5,-1381.7"/>
<image xlink:href="../../images/foreignKeys.png" width="11px" height="12px" preserveAspectRatio="xMinYMin meet" x="272.5" y="-1398.7"/>
<text text-anchor="start" x="296.5" y="-1388.8" font-family="Helvetica,sans-Serif" font-size="11.00" fill="#000000">METASITEID</text>
<polygon fill="none" stroke="#000000" points="267.5,-1359.7 267.5,-1381.7 396.5,-1381.7 396.5,-1359.7 267.5,-1359.7"/>
<image xlink:href="../../images/foreignKeys.png" width="11px" height="12px" preserveAspectRatio="xMinYMin meet" x="272.5" y="-1376.7"/>
<text text-anchor="start" x="296.5" y="-1366.8" font-family="Helvetica,sans-Serif" font-size="11.00" fill="#000000">OAID</text>
<polygon fill="none" stroke="#000000" points="267.5,-1337.7 267.5,-1359.7 396.5,-1359.7 396.5,-1337.7 267.5,-1337.7"/>
<image xlink:href="../../images/foreignKeys.png" width="11px" height="12px" preserveAspectRatio="xMinYMin meet" x="272.5" y="-1354.7"/>
<text text-anchor="start" x="296.5" y="-1344.8" font-family="Helvetica,sans-Serif" font-size="11.00" fill="#000000">PROJEPSGID</text>
<polygon fill="none" stroke="#000000" points="267.5,-1315.7 267.5,-1337.7 396.5,-1337.7 396.5,-1315.7 267.5,-1315.7"/>
<image xlink:href="../../images/primaryKeys.png" width="11px" height="12px" preserveAspectRatio="xMinYMin meet" x="272.5" y="-1332.7"/>
<text text-anchor="start" x="296.5" y="-1322.8" font-family="Helvetica,sans-Serif" font-size="11.00" fill="#000000">id</text>
<polygon fill="none" stroke="#000000" points="267.5,-1296.7 267.5,-1315.7 396.5,-1315.7 396.5,-1296.7 267.5,-1296.7"/>
<text text-anchor="start" x="270.5" y="-1302.8" font-family="Helvetica,sans-Serif" font-size="11.00" fill="#000000">...</text>
<polygon fill="#ffffff" stroke="transparent" points="267.5,-1277.7 267.5,-1296.7 311.5,-1296.7 311.5,-1277.7 267.5,-1277.7"/>
<polygon fill="none" stroke="#000000" points="267.5,-1277.7 267.5,-1296.7 311.5,-1296.7 311.5,-1277.7 267.5,-1277.7"/>
<text text-anchor="start" x="270.5" y="-1283.8" font-family="Helvetica,sans-Serif" font-size="11.00" fill="#000000">&lt; 5</text>
<polygon fill="#ffffff" stroke="transparent" points="311.5,-1277.7 311.5,-1296.7 372.5,-1296.7 372.5,-1277.7 311.5,-1277.7"/>
<polygon fill="none" stroke="#000000" points="311.5,-1277.7 311.5,-1296.7 372.5,-1296.7 372.5,-1277.7 311.5,-1277.7"/>
<text text-anchor="start" x="324.8807" y="-1283.8" font-family="Helvetica,sans-Serif" font-size="11.00" fill="#000000">297 rows</text>
<polygon fill="#ffffff" stroke="transparent" points="372.5,-1277.7 372.5,-1296.7 396.5,-1296.7 396.5,-1277.7 372.5,-1277.7"/>
<polygon fill="none" stroke="#000000" points="372.5,-1277.7 372.5,-1296.7 396.5,-1296.7 396.5,-1277.7 372.5,-1277.7"/>
<text text-anchor="start" x="387.3862" y="-1283.8" font-family="Helvetica,sans-Serif" font-size="11.00" fill="#000000"> &#160;</text>
</a>
</g>
</g>
<!-- global_Author -->
<g id="node2" class="node">
<title>global_Author</title>
<g id="a_node2"><a xlink:href="../../tables/global_Author.html" xlink:title="global_Author" target="_top">
<polygon fill="#ffffff" stroke="transparent" points="8,-369.7 8,-679.7 210,-679.7 210,-369.7 8,-369.7"/>
<polygon fill="#f5f5f5" stroke="transparent" points="10,-654.7 10,-677.7 208,-677.7 208,-654.7 10,-654.7"/>
<polygon fill="none" stroke="#000000" points="10,-654.7 10,-677.7 208,-677.7 208,-654.7 10,-654.7"/>
<text text-anchor="start" x="15" y="-663.3" font-family="Helvetica,sans-Serif" font-weight="bold" font-size="11.00" fill="#000000">global_Author</text>
<text text-anchor="start" x="173.0437" y="-662.8" font-family="Helvetica,sans-Serif" font-size="11.00" fill="#000000">[table]</text>
<polygon fill="none" stroke="#000000" points="10,-632.7 10,-654.7 116,-654.7 116,-632.7 10,-632.7"/>
<image xlink:href="../../images/primaryKeys.png" width="11px" height="12px" preserveAspectRatio="xMinYMin meet" x="15" y="-649.7"/>
<text text-anchor="start" x="30" y="-639.8" font-family="Helvetica,sans-Serif" font-size="11.00" fill="#000000">OAID</text>
<polygon fill="none" stroke="#000000" points="116,-632.7 116,-654.7 208,-654.7 208,-632.7 116,-632.7"/>
<text text-anchor="start" x="119" y="-640.4" font-family="Helvetica,sans-Serif" font-size="11.00" fill="#000000">varchar[11]</text>
<polygon fill="none" stroke="#000000" points="10,-610.7 10,-632.7 116,-632.7 116,-610.7 10,-610.7"/>
<text text-anchor="start" x="30" y="-617.8" font-family="Helvetica,sans-Serif" font-size="11.00" fill="#000000">AUTH</text>
<polygon fill="none" stroke="#000000" points="116,-610.7 116,-632.7 208,-632.7 208,-610.7 116,-610.7"/>
<text text-anchor="start" x="119" y="-618.4" font-family="Helvetica,sans-Serif" font-size="11.00" fill="#000000">text[2147483647]</text>
<polygon fill="none" stroke="#000000" points="10,-588.7 10,-610.7 116,-610.7 116,-588.7 10,-588.7"/>
<text text-anchor="start" x="30" y="-595.8" font-family="Helvetica,sans-Serif" font-size="11.00" fill="#000000">FORENAME</text>
<polygon fill="none" stroke="#000000" points="116,-588.7 116,-610.7 208,-610.7 208,-588.7 116,-588.7"/>
<text text-anchor="start" x="119" y="-596.4" font-family="Helvetica,sans-Serif" font-size="11.00" fill="#000000">text[2147483647]</text>
<polygon fill="none" stroke="#000000" points="10,-566.7 10,-588.7 116,-588.7 116,-566.7 10,-566.7"/>
<text text-anchor="start" x="30" y="-573.8" font-family="Helvetica,sans-Serif" font-size="11.00" fill="#000000">INITIALS</text>
<polygon fill="none" stroke="#000000" points="116,-566.7 116,-588.7 208,-588.7 208,-566.7 116,-566.7"/>
<text text-anchor="start" x="119" y="-574.4" font-family="Helvetica,sans-Serif" font-size="11.00" fill="#000000">text[2147483647]</text>
<polygon fill="none" stroke="#000000" points="10,-544.7 10,-566.7 116,-566.7 116,-544.7 10,-544.7"/>
<text text-anchor="start" x="30" y="-551.8" font-family="Helvetica,sans-Serif" font-size="11.00" fill="#000000">ORCID</text>
<polygon fill="none" stroke="#000000" points="116,-544.7 116,-566.7 208,-566.7 208,-544.7 116,-544.7"/>
<text text-anchor="start" x="119" y="-552.4" font-family="Helvetica,sans-Serif" font-size="11.00" fill="#000000">varchar[19]</text>
<polygon fill="none" stroke="#000000" points="10,-522.7 10,-544.7 116,-544.7 116,-522.7 10,-522.7"/>
<text text-anchor="start" x="30" y="-529.8" font-family="Helvetica,sans-Serif" font-size="11.00" fill="#000000">SCOPUSID</text>
<polygon fill="none" stroke="#000000" points="116,-522.7 116,-544.7 208,-544.7 208,-522.7 116,-522.7"/>
<text text-anchor="start" x="119" y="-530.4" font-family="Helvetica,sans-Serif" font-size="11.00" fill="#000000">text[2147483647]</text>
<polygon fill="none" stroke="#000000" points="10,-500.7 10,-522.7 116,-522.7 116,-500.7 10,-500.7"/>
<text text-anchor="start" x="30" y="-507.8" font-family="Helvetica,sans-Serif" font-size="11.00" fill="#000000">WSCC_RESID</text>
<polygon fill="none" stroke="#000000" points="116,-500.7 116,-522.7 208,-522.7 208,-500.7 116,-500.7"/>
<text text-anchor="start" x="119" y="-508.4" font-family="Helvetica,sans-Serif" font-size="11.00" fill="#000000">text[2147483647]</text>
<polygon fill="none" stroke="#000000" points="10,-478.7 10,-500.7 116,-500.7 116,-478.7 10,-478.7"/>
<text text-anchor="start" x="30" y="-485.8" font-family="Helvetica,sans-Serif" font-size="11.00" fill="#000000">AUTH_COMMT</text>
<polygon fill="none" stroke="#000000" points="116,-478.7 116,-500.7 208,-500.7 208,-478.7 116,-478.7"/>
<text text-anchor="start" x="119" y="-486.4" font-family="Helvetica,sans-Serif" font-size="11.00" fill="#000000">text[2147483647]</text>
<polygon fill="none" stroke="#000000" points="10,-456.7 10,-478.7 116,-478.7 116,-456.7 10,-456.7"/>
<text text-anchor="start" x="30" y="-463.8" font-family="Helvetica,sans-Serif" font-size="11.00" fill="#000000">CREATED_AT</text>
<polygon fill="none" stroke="#000000" points="116,-456.7 116,-478.7 208,-478.7 208,-456.7 116,-456.7"/>
<text text-anchor="start" x="118.6023" y="-464.4" font-family="Helvetica,sans-Serif" font-size="11.00" fill="#000000">timestamptz[35,6]</text>
<polygon fill="none" stroke="#000000" points="10,-434.7 10,-456.7 116,-456.7 116,-434.7 10,-434.7"/>
<text text-anchor="start" x="30" y="-441.8" font-family="Helvetica,sans-Serif" font-size="11.00" fill="#000000">UPDATED_AT</text>
<polygon fill="none" stroke="#000000" points="116,-434.7 116,-456.7 208,-456.7 208,-434.7 116,-434.7"/>
<text text-anchor="start" x="118.6023" y="-442.4" font-family="Helvetica,sans-Serif" font-size="11.00" fill="#000000">timestamptz[35,6]</text>
<polygon fill="none" stroke="#000000" points="10,-412.7 10,-434.7 116,-434.7 116,-412.7 10,-412.7"/>
<text text-anchor="start" x="30" y="-419.8" font-family="Helvetica,sans-Serif" font-size="11.00" fill="#000000">AUTH_URL</text>
<polygon fill="none" stroke="#000000" points="116,-412.7 116,-434.7 208,-434.7 208,-412.7 116,-412.7"/>
<text text-anchor="start" x="119" y="-420.4" font-family="Helvetica,sans-Serif" font-size="11.00" fill="#000000">text[2147483647]</text>
<polygon fill="none" stroke="#000000" points="10,-390.7 10,-412.7 116,-412.7 116,-390.7 10,-390.7"/>
<text text-anchor="start" x="30" y="-397.8" font-family="Helvetica,sans-Serif" font-size="11.00" fill="#000000">URL_DATE</text>
<polygon fill="none" stroke="#000000" points="116,-390.7 116,-412.7 208,-412.7 208,-390.7 116,-390.7"/>
<text text-anchor="start" x="119" y="-398.4" font-family="Helvetica,sans-Serif" font-size="11.00" fill="#000000">date[13]</text>
<polygon fill="#ffffff" stroke="transparent" points="10,-371.7 10,-390.7 44,-390.7 44,-371.7 10,-371.7"/>
<polygon fill="none" stroke="#000000" points="10,-371.7 10,-390.7 44,-390.7 44,-371.7 10,-371.7"/>
<text text-anchor="start" x="13" y="-377.8" font-family="Helvetica,sans-Serif" font-size="11.00" fill="#000000">&lt; 0</text>
<polygon fill="#ffffff" stroke="transparent" points="44,-371.7 44,-390.7 116,-390.7 116,-371.7 44,-371.7"/>
<polygon fill="none" stroke="#000000" points="44,-371.7 44,-390.7 116,-390.7 116,-371.7 44,-371.7"/>
<text text-anchor="start" x="59.2089" y="-377.8" font-family="Helvetica,sans-Serif" font-size="11.00" fill="#000000">1.733 rows</text>
<polygon fill="#ffffff" stroke="transparent" points="116,-371.7 116,-390.7 208,-390.7 208,-371.7 116,-371.7"/>
<polygon fill="none" stroke="#000000" points="116,-371.7 116,-390.7 208,-390.7 208,-371.7 116,-371.7"/>
<text text-anchor="start" x="189.4053" y="-377.8" font-family="Helvetica,sans-Serif" font-size="11.00" fill="#000000">8 &gt;</text>
<polygon fill="none" stroke="#000000" stroke-width="2" points="9,-370.7 9,-678.7 209,-678.7 209,-370.7 9,-370.7"/>
</a>
</g>
</g>
<!-- crn_aus_basins&#45;&gt;global_Author -->
<g id="edge1" class="edge">
<title>crn_aus_basins:w&#45;&gt;global_Author:e</title>
<path fill="none" stroke="#000000" stroke-dasharray="5,2" d="M254.7166,-1363.0273C198.2026,-1285.33 284.1407,-643.7 208,-643.7"/>
<polygon fill="#000000" stroke="#000000" points="260.6407,-1366.583 265.6473,-1373.7867 264.0703,-1368.6415 267.5,-1370.7 267.5,-1370.7 267.5,-1370.7 264.0703,-1368.6415 269.3527,-1367.6133 260.6407,-1366.583 260.6407,-1366.583"/>
<ellipse fill="none" stroke="#000000" cx="257.8969" cy="-1364.9362" rx="3.2" ry="3.2"/>
</g>
<!-- crn_inprep_basins -->
<g id="node3" class="node">
<title>crn_inprep_basins</title>
<g id="a_node3"><a xlink:href="../../tables/crn_inprep_basins.html" xlink:title="crn_inprep_basins" target="_top">
<polygon fill="#ffffff" stroke="transparent" points="259,-1064.2 259,-1257.2 404,-1257.2 404,-1064.2 259,-1064.2"/>
<polygon fill="#f5f5f5" stroke="transparent" points="259.5,-1233.7 259.5,-1256.7 404.5,-1256.7 404.5,-1233.7 259.5,-1233.7"/>
<polygon fill="none" stroke="#000000" points="259.5,-1233.7 259.5,-1256.7 404.5,-1256.7 404.5,-1233.7 259.5,-1233.7"/>
<text text-anchor="start" x="264.5" y="-1242.3" font-family="Helvetica,sans-Serif" font-weight="bold" font-size="11.00" fill="#000000">crn_inprep_basins</text>
<text text-anchor="start" x="370.0219" y="-1241.8" font-family="Helvetica,sans-Serif" font-size="11.00" fill="#000000">[table]</text>
<polygon fill="none" stroke="#000000" points="259.5,-1211.7 259.5,-1233.7 404.5,-1233.7 404.5,-1211.7 259.5,-1211.7"/>
<image xlink:href="../../images/foreignKeys.png" width="11px" height="12px" preserveAspectRatio="xMinYMin meet" x="264.5" y="-1228.7"/>
<text text-anchor="start" x="288.5" y="-1218.8" font-family="Helvetica,sans-Serif" font-size="11.00" fill="#000000">DBDOI</text>
<polygon fill="none" stroke="#000000" points="259.5,-1189.7 259.5,-1211.7 404.5,-1211.7 404.5,-1189.7 259.5,-1189.7"/>
<image xlink:href="../../images/foreignKeys.png" width="11px" height="12px" preserveAspectRatio="xMinYMin meet" x="264.5" y="-1206.7"/>
<text text-anchor="start" x="288.5" y="-1196.8" font-family="Helvetica,sans-Serif" font-size="11.00" fill="#000000">SITEID</text>
<polygon fill="none" stroke="#000000" points="259.5,-1167.7 259.5,-1189.7 404.5,-1189.7 404.5,-1167.7 259.5,-1167.7"/>
<image xlink:href="../../images/foreignKeys.png" width="11px" height="12px" preserveAspectRatio="xMinYMin meet" x="264.5" y="-1184.7"/>
<text text-anchor="start" x="288.5" y="-1174.8" font-family="Helvetica,sans-Serif" font-size="11.00" fill="#000000">METASITEID</text>
<polygon fill="none" stroke="#000000" points="259.5,-1145.7 259.5,-1167.7 404.5,-1167.7 404.5,-1145.7 259.5,-1145.7"/>
<image xlink:href="../../images/foreignKeys.png" width="11px" height="12px" preserveAspectRatio="xMinYMin meet" x="264.5" y="-1162.7"/>
<text text-anchor="start" x="288.5" y="-1152.8" font-family="Helvetica,sans-Serif" font-size="11.00" fill="#000000">OAID</text>
<polygon fill="none" stroke="#000000" points="259.5,-1123.7 259.5,-1145.7 404.5,-1145.7 404.5,-1123.7 259.5,-1123.7"/>
<image xlink:href="../../images/foreignKeys.png" width="11px" height="12px" preserveAspectRatio="xMinYMin meet" x="264.5" y="-1140.7"/>
<text text-anchor="start" x="288.5" y="-1130.8" font-family="Helvetica,sans-Serif" font-size="11.00" fill="#000000">PROJEPSGID</text>
<polygon fill="none" stroke="#000000" points="259.5,-1101.7 259.5,-1123.7 404.5,-1123.7 404.5,-1101.7 259.5,-1101.7"/>
<image xlink:href="../../images/primaryKeys.png" width="11px" height="12px" preserveAspectRatio="xMinYMin meet" x="264.5" y="-1118.7"/>
<text text-anchor="start" x="288.5" y="-1108.8" font-family="Helvetica,sans-Serif" font-size="11.00" fill="#000000">id</text>
<polygon fill="none" stroke="#000000" points="259.5,-1082.7 259.5,-1101.7 404.5,-1101.7 404.5,-1082.7 259.5,-1082.7"/>
<text text-anchor="start" x="262.5" y="-1088.8" font-family="Helvetica,sans-Serif" font-size="11.00" fill="#000000">...</text>
<polygon fill="#ffffff" stroke="transparent" points="259.5,-1063.7 259.5,-1082.7 311.5,-1082.7 311.5,-1063.7 259.5,-1063.7"/>
<polygon fill="none" stroke="#000000" points="259.5,-1063.7 259.5,-1082.7 311.5,-1082.7 311.5,-1063.7 259.5,-1063.7"/>
<text text-anchor="start" x="262.5" y="-1069.8" font-family="Helvetica,sans-Serif" font-size="11.00" fill="#000000">&lt; 5</text>
<polygon fill="#ffffff" stroke="transparent" points="311.5,-1063.7 311.5,-1082.7 376.5,-1082.7 376.5,-1063.7 311.5,-1063.7"/>
<polygon fill="none" stroke="#000000" points="311.5,-1063.7 311.5,-1082.7 376.5,-1082.7 376.5,-1063.7 311.5,-1063.7"/>
<text text-anchor="start" x="328.8807" y="-1069.8" font-family="Helvetica,sans-Serif" font-size="11.00" fill="#000000">157 rows</text>
<polygon fill="#ffffff" stroke="transparent" points="376.5,-1063.7 376.5,-1082.7 404.5,-1082.7 404.5,-1063.7 376.5,-1063.7"/>
<polygon fill="none" stroke="#000000" points="376.5,-1063.7 376.5,-1082.7 404.5,-1082.7 404.5,-1063.7 376.5,-1063.7"/>
<text text-anchor="start" x="395.3862" y="-1069.8" font-family="Helvetica,sans-Serif" font-size="11.00" fill="#000000"> &#160;</text>
</a>
</g>
</g>
<!-- crn_inprep_basins&#45;&gt;global_Author -->
<g id="edge2" class="edge">
<title>crn_inprep_basins:w&#45;&gt;global_Author:e</title>
<path fill="none" stroke="#000000" stroke-dasharray="5,2" d="M245.2542,-1153.4241C160.9392,-1109.7334 317.2024,-643.7 208,-643.7"/>
<polygon fill="#000000" stroke="#000000" points="251.7035,-1154.9071 258.6932,-1160.2084 255.6017,-1155.8035 259.5,-1156.7 259.5,-1156.7 259.5,-1156.7 255.6017,-1155.8035 260.3068,-1153.1916 251.7035,-1154.9071 251.7035,-1154.9071"/>
<ellipse fill="none" stroke="#000000" cx="248.5849" cy="-1154.1899" rx="3.2" ry="3.2"/>
</g>
<!-- crn_int_basins -->
<g id="node4" class="node">
<title>crn_int_basins</title>
<g id="a_node4"><a xlink:href="../../tables/crn_int_basins.html" xlink:title="crn_int_basins" target="_top">
<polygon fill="#ffffff" stroke="transparent" points="270,-850.2 270,-1043.2 393,-1043.2 393,-850.2 270,-850.2"/>
<polygon fill="#f5f5f5" stroke="transparent" points="270.5,-1019.7 270.5,-1042.7 393.5,-1042.7 393.5,-1019.7 270.5,-1019.7"/>
<polygon fill="none" stroke="#000000" points="270.5,-1019.7 270.5,-1042.7 393.5,-1042.7 393.5,-1019.7 270.5,-1019.7"/>
<text text-anchor="start" x="275.5" y="-1028.3" font-family="Helvetica,sans-Serif" font-weight="bold" font-size="11.00" fill="#000000">crn_int_basins</text>
<text text-anchor="start" x="359.0219" y="-1027.8" font-family="Helvetica,sans-Serif" font-size="11.00" fill="#000000">[table]</text>
<polygon fill="none" stroke="#000000" points="270.5,-997.7 270.5,-1019.7 393.5,-1019.7 393.5,-997.7 270.5,-997.7"/>
<image xlink:href="../../images/foreignKeys.png" width="11px" height="12px" preserveAspectRatio="xMinYMin meet" x="275.5" y="-1014.7"/>
<text text-anchor="start" x="299.5" y="-1004.8" font-family="Helvetica,sans-Serif" font-size="11.00" fill="#000000">DBDOI</text>
<polygon fill="none" stroke="#000000" points="270.5,-975.7 270.5,-997.7 393.5,-997.7 393.5,-975.7 270.5,-975.7"/>
<image xlink:href="../../images/foreignKeys.png" width="11px" height="12px" preserveAspectRatio="xMinYMin meet" x="275.5" y="-992.7"/>
<text text-anchor="start" x="299.5" y="-982.8" font-family="Helvetica,sans-Serif" font-size="11.00" fill="#000000">SITEID</text>
<polygon fill="none" stroke="#000000" points="270.5,-953.7 270.5,-975.7 393.5,-975.7 393.5,-953.7 270.5,-953.7"/>
<image xlink:href="../../images/foreignKeys.png" width="11px" height="12px" preserveAspectRatio="xMinYMin meet" x="275.5" y="-970.7"/>
<text text-anchor="start" x="299.5" y="-960.8" font-family="Helvetica,sans-Serif" font-size="11.00" fill="#000000">METASITEID</text>
<polygon fill="none" stroke="#000000" points="270.5,-931.7 270.5,-953.7 393.5,-953.7 393.5,-931.7 270.5,-931.7"/>
<image xlink:href="../../images/foreignKeys.png" width="11px" height="12px" preserveAspectRatio="xMinYMin meet" x="275.5" y="-948.7"/>
<text text-anchor="start" x="299.5" y="-938.8" font-family="Helvetica,sans-Serif" font-size="11.00" fill="#000000">OAID</text>
<polygon fill="none" stroke="#000000" points="270.5,-909.7 270.5,-931.7 393.5,-931.7 393.5,-909.7 270.5,-909.7"/>
<image xlink:href="../../images/foreignKeys.png" width="11px" height="12px" preserveAspectRatio="xMinYMin meet" x="275.5" y="-926.7"/>
<text text-anchor="start" x="299.5" y="-916.8" font-family="Helvetica,sans-Serif" font-size="11.00" fill="#000000">PROJEPSGID</text>
<polygon fill="none" stroke="#000000" points="270.5,-887.7 270.5,-909.7 393.5,-909.7 393.5,-887.7 270.5,-887.7"/>
<image xlink:href="../../images/primaryKeys.png" width="11px" height="12px" preserveAspectRatio="xMinYMin meet" x="275.5" y="-904.7"/>
<text text-anchor="start" x="299.5" y="-894.8" font-family="Helvetica,sans-Serif" font-size="11.00" fill="#000000">id</text>
<polygon fill="none" stroke="#000000" points="270.5,-868.7 270.5,-887.7 393.5,-887.7 393.5,-868.7 270.5,-868.7"/>
<text text-anchor="start" x="273.5" y="-874.8" font-family="Helvetica,sans-Serif" font-size="11.00" fill="#000000">...</text>
<polygon fill="#ffffff" stroke="transparent" points="270.5,-849.7 270.5,-868.7 306.5,-868.7 306.5,-849.7 270.5,-849.7"/>
<polygon fill="none" stroke="#000000" points="270.5,-849.7 270.5,-868.7 306.5,-868.7 306.5,-849.7 270.5,-849.7"/>
<text text-anchor="start" x="273.5" y="-855.8" font-family="Helvetica,sans-Serif" font-size="11.00" fill="#000000">&lt; 5</text>
<polygon fill="#ffffff" stroke="transparent" points="306.5,-849.7 306.5,-868.7 373.5,-868.7 373.5,-849.7 306.5,-849.7"/>
<polygon fill="none" stroke="#000000" points="306.5,-849.7 306.5,-868.7 373.5,-868.7 373.5,-849.7 306.5,-849.7"/>
<text text-anchor="start" x="316.7089" y="-855.8" font-family="Helvetica,sans-Serif" font-size="11.00" fill="#000000">5.376 rows</text>
<polygon fill="#ffffff" stroke="transparent" points="373.5,-849.7 373.5,-868.7 393.5,-868.7 393.5,-849.7 373.5,-849.7"/>
<polygon fill="none" stroke="#000000" points="373.5,-849.7 373.5,-868.7 393.5,-868.7 393.5,-849.7 373.5,-849.7"/>
<text text-anchor="start" x="384.3862" y="-855.8" font-family="Helvetica,sans-Serif" font-size="11.00" fill="#000000"> &#160;</text>
</a>
</g>
</g>
<!-- crn_int_basins&#45;&gt;global_Author -->
<g id="edge3" class="edge">
<title>crn_int_basins:w&#45;&gt;global_Author:e</title>
<path fill="none" stroke="#000000" stroke-dasharray="5,2" d="M257.0403,-937.5103C213.2051,-897.8062 270.5774,-643.7 208,-643.7"/>
<polygon fill="#000000" stroke="#000000" points="263.0356,-939.8219 269.2049,-946.059 266.7678,-941.261 270.5,-942.7 270.5,-942.7 270.5,-942.7 266.7678,-941.261 271.7951,-939.341 263.0356,-939.8219 263.0356,-939.8219"/>
<ellipse fill="none" stroke="#000000" cx="260.0499" cy="-938.6707" rx="3.2" ry="3.2"/>
</g>
<!-- crn_xxl_basins -->
<g id="node5" class="node">
<title>crn_xxl_basins</title>
<g id="a_node5"><a xlink:href="../../tables/crn_xxl_basins.html" xlink:title="crn_xxl_basins" target="_top">
<polygon fill="#ffffff" stroke="transparent" points="269,-636.2 269,-829.2 394,-829.2 394,-636.2 269,-636.2"/>
<polygon fill="#f5f5f5" stroke="transparent" points="269.5,-805.7 269.5,-828.7 394.5,-828.7 394.5,-805.7 269.5,-805.7"/>
<polygon fill="none" stroke="#000000" points="269.5,-805.7 269.5,-828.7 394.5,-828.7 394.5,-805.7 269.5,-805.7"/>
<text text-anchor="start" x="274.5" y="-814.3" font-family="Helvetica,sans-Serif" font-weight="bold" font-size="11.00" fill="#000000">crn_xxl_basins</text>
<text text-anchor="start" x="360.0219" y="-813.8" font-family="Helvetica,sans-Serif" font-size="11.00" fill="#000000">[table]</text>
<polygon fill="none" stroke="#000000" points="269.5,-783.7 269.5,-805.7 394.5,-805.7 394.5,-783.7 269.5,-783.7"/>
<image xlink:href="../../images/foreignKeys.png" width="11px" height="12px" preserveAspectRatio="xMinYMin meet" x="274.5" y="-800.7"/>
<text text-anchor="start" x="298.5" y="-790.8" font-family="Helvetica,sans-Serif" font-size="11.00" fill="#000000">DBDOI</text>
<polygon fill="none" stroke="#000000" points="269.5,-761.7 269.5,-783.7 394.5,-783.7 394.5,-761.7 269.5,-761.7"/>
<image xlink:href="../../images/foreignKeys.png" width="11px" height="12px" preserveAspectRatio="xMinYMin meet" x="274.5" y="-778.7"/>
<text text-anchor="start" x="298.5" y="-768.8" font-family="Helvetica,sans-Serif" font-size="11.00" fill="#000000">SITEID</text>
<polygon fill="none" stroke="#000000" points="269.5,-739.7 269.5,-761.7 394.5,-761.7 394.5,-739.7 269.5,-739.7"/>
<image xlink:href="../../images/foreignKeys.png" width="11px" height="12px" preserveAspectRatio="xMinYMin meet" x="274.5" y="-756.7"/>
<text text-anchor="start" x="298.5" y="-746.8" font-family="Helvetica,sans-Serif" font-size="11.00" fill="#000000">METASITEID</text>
<polygon fill="none" stroke="#000000" points="269.5,-717.7 269.5,-739.7 394.5,-739.7 394.5,-717.7 269.5,-717.7"/>
<image xlink:href="../../images/foreignKeys.png" width="11px" height="12px" preserveAspectRatio="xMinYMin meet" x="274.5" y="-734.7"/>
<text text-anchor="start" x="298.5" y="-724.8" font-family="Helvetica,sans-Serif" font-size="11.00" fill="#000000">OAID</text>
<polygon fill="none" stroke="#000000" points="269.5,-695.7 269.5,-717.7 394.5,-717.7 394.5,-695.7 269.5,-695.7"/>
<image xlink:href="../../images/foreignKeys.png" width="11px" height="12px" preserveAspectRatio="xMinYMin meet" x="274.5" y="-712.7"/>
<text text-anchor="start" x="298.5" y="-702.8" font-family="Helvetica,sans-Serif" font-size="11.00" fill="#000000">PROJEPSGID</text>
<polygon fill="none" stroke="#000000" points="269.5,-673.7 269.5,-695.7 394.5,-695.7 394.5,-673.7 269.5,-673.7"/>
<image xlink:href="../../images/primaryKeys.png" width="11px" height="12px" preserveAspectRatio="xMinYMin meet" x="274.5" y="-690.7"/>
<text text-anchor="start" x="298.5" y="-680.8" font-family="Helvetica,sans-Serif" font-size="11.00" fill="#000000">id</text>
<polygon fill="none" stroke="#000000" points="269.5,-654.7 269.5,-673.7 394.5,-673.7 394.5,-654.7 269.5,-654.7"/>
<text text-anchor="start" x="272.5" y="-660.8" font-family="Helvetica,sans-Serif" font-size="11.00" fill="#000000">...</text>
<polygon fill="#ffffff" stroke="transparent" points="269.5,-635.7 269.5,-654.7 311.5,-654.7 311.5,-635.7 269.5,-635.7"/>
<polygon fill="none" stroke="#000000" points="269.5,-635.7 269.5,-654.7 311.5,-654.7 311.5,-635.7 269.5,-635.7"/>
<text text-anchor="start" x="272.5" y="-641.8" font-family="Helvetica,sans-Serif" font-size="11.00" fill="#000000">&lt; 5</text>
<polygon fill="#ffffff" stroke="transparent" points="311.5,-635.7 311.5,-654.7 371.5,-654.7 371.5,-635.7 311.5,-635.7"/>
<polygon fill="none" stroke="#000000" points="311.5,-635.7 311.5,-654.7 371.5,-654.7 371.5,-635.7 311.5,-635.7"/>
<text text-anchor="start" x="323.8807" y="-641.8" font-family="Helvetica,sans-Serif" font-size="11.00" fill="#000000">261 rows</text>
<polygon fill="#ffffff" stroke="transparent" points="371.5,-635.7 371.5,-654.7 394.5,-654.7 394.5,-635.7 371.5,-635.7"/>
<polygon fill="none" stroke="#000000" points="371.5,-635.7 371.5,-654.7 394.5,-654.7 394.5,-635.7 371.5,-635.7"/>
<text text-anchor="start" x="385.3862" y="-641.8" font-family="Helvetica,sans-Serif" font-size="11.00" fill="#000000"> &#160;</text>
</a>
</g>
</g>
<!-- crn_xxl_basins&#45;&gt;global_Author -->
<g id="edge4" class="edge">
<title>crn_xxl_basins:w&#45;&gt;global_Author:e</title>
<path fill="none" stroke="#000000" stroke-dasharray="5,2" d="M255.3823,-725.0477C229.5857,-708.7781 248.8004,-643.7 208,-643.7"/>
<polygon fill="#000000" stroke="#000000" points="261.755,-726.6963 268.5983,-732.1853 265.6275,-727.6981 269.5,-728.7 269.5,-728.7 269.5,-728.7 265.6275,-727.6981 270.4017,-725.2147 261.755,-726.6963 261.755,-726.6963"/>
<ellipse fill="none" stroke="#000000" cx="258.657" cy="-725.8948" rx="3.2" ry="3.2"/>
</g>
<!-- global_RefCore -->
<g id="node6" class="node">
<title>global_RefCore</title>
<g id="a_node6"><a xlink:href="../../tables/global_RefCore.html" xlink:title="global_RefCore" target="_top">
<polygon fill="#ffffff" stroke="transparent" points="268,-466.2 268,-615.2 395,-615.2 395,-466.2 268,-466.2"/>
<polygon fill="#f5f5f5" stroke="transparent" points="268.5,-591.7 268.5,-614.7 395.5,-614.7 395.5,-591.7 268.5,-591.7"/>
<polygon fill="none" stroke="#000000" points="268.5,-591.7 268.5,-614.7 395.5,-614.7 395.5,-591.7 268.5,-591.7"/>
<text text-anchor="start" x="273.5" y="-600.3" font-family="Helvetica,sans-Serif" font-weight="bold" font-size="11.00" fill="#000000">global_RefCore</text>
<text text-anchor="start" x="361.0219" y="-599.8" font-family="Helvetica,sans-Serif" font-size="11.00" fill="#000000">[table]</text>
<polygon fill="none" stroke="#000000" points="268.5,-569.7 268.5,-591.7 395.5,-591.7 395.5,-569.7 268.5,-569.7"/>
<image xlink:href="../../images/primaryKeys.png" width="11px" height="12px" preserveAspectRatio="xMinYMin meet" x="273.5" y="-586.7"/>
<text text-anchor="start" x="297.5" y="-576.8" font-family="Helvetica,sans-Serif" font-size="11.00" fill="#000000">REFDBID</text>
<polygon fill="none" stroke="#000000" points="268.5,-547.7 268.5,-569.7 395.5,-569.7 395.5,-547.7 268.5,-547.7"/>
<image xlink:href="../../images/foreignKeys.png" width="11px" height="12px" preserveAspectRatio="xMinYMin meet" x="273.5" y="-564.7"/>
<text text-anchor="start" x="297.5" y="-554.8" font-family="Helvetica,sans-Serif" font-size="11.00" fill="#000000">OAID</text>
<polygon fill="none" stroke="#000000" points="268.5,-525.7 268.5,-547.7 395.5,-547.7 395.5,-525.7 268.5,-525.7"/>
<image xlink:href="../../images/foreignKeys.png" width="11px" height="12px" preserveAspectRatio="xMinYMin meet" x="273.5" y="-542.7"/>
<text text-anchor="start" x="297.5" y="-532.8" font-family="Helvetica,sans-Serif" font-size="11.00" fill="#000000">PUBTYPEID</text>
<polygon fill="none" stroke="#000000" points="268.5,-503.7 268.5,-525.7 395.5,-525.7 395.5,-503.7 268.5,-503.7"/>
<image xlink:href="../../images/foreignKeys.png" width="11px" height="12px" preserveAspectRatio="xMinYMin meet" x="273.5" y="-520.7"/>
<text text-anchor="start" x="297.5" y="-510.8" font-family="Helvetica,sans-Serif" font-size="11.00" fill="#000000">JOURNALID</text>
<polygon fill="none" stroke="#000000" points="268.5,-484.7 268.5,-503.7 395.5,-503.7 395.5,-484.7 268.5,-484.7"/>
<text text-anchor="start" x="271.5" y="-490.8" font-family="Helvetica,sans-Serif" font-size="11.00" fill="#000000">...</text>
<polygon fill="#ffffff" stroke="transparent" points="268.5,-465.7 268.5,-484.7 299.5,-484.7 299.5,-465.7 268.5,-465.7"/>
<polygon fill="none" stroke="#000000" points="268.5,-465.7 268.5,-484.7 299.5,-484.7 299.5,-465.7 268.5,-465.7"/>
<text text-anchor="start" x="271.5" y="-471.8" font-family="Helvetica,sans-Serif" font-size="11.00" fill="#000000">&lt; 5</text>
<polygon fill="#ffffff" stroke="transparent" points="299.5,-465.7 299.5,-484.7 363.5,-484.7 363.5,-465.7 299.5,-465.7"/>
<polygon fill="none" stroke="#000000" points="299.5,-465.7 299.5,-484.7 363.5,-484.7 363.5,-465.7 299.5,-465.7"/>
<text text-anchor="start" x="306.7089" y="-471.8" font-family="Helvetica,sans-Serif" font-size="11.00" fill="#000000">3.947 rows</text>
<polygon fill="#ffffff" stroke="transparent" points="363.5,-465.7 363.5,-484.7 395.5,-484.7 395.5,-465.7 363.5,-465.7"/>
<polygon fill="none" stroke="#000000" points="363.5,-465.7 363.5,-484.7 395.5,-484.7 395.5,-465.7 363.5,-465.7"/>
<text text-anchor="start" x="370.7904" y="-471.8" font-family="Helvetica,sans-Serif" font-size="11.00" fill="#000000">37 &gt;</text>
</a>
</g>
</g>
<!-- global_RefCore&#45;&gt;global_Author -->
<g id="edge5" class="edge">
<title>global_RefCore:w&#45;&gt;global_Author:e</title>
<path fill="none" stroke="#000000" d="M254.489,-562.3523C228.9617,-578.6219 248.5737,-643.7 208,-643.7"/>
<polygon fill="#000000" stroke="#000000" points="260.7587,-560.718 269.4081,-562.1836 264.6293,-559.709 268.5,-558.7 268.5,-558.7 268.5,-558.7 264.6293,-559.709 267.5919,-555.2164 260.7587,-560.718 260.7587,-560.718"/>
<ellipse fill="none" stroke="#000000" cx="257.6622" cy="-561.5252" rx="3.2" ry="3.2"/>
</g>
<!-- ippd_datasets -->
<g id="node7" class="node">
<title>ippd_datasets</title>
<g id="a_node7"><a xlink:href="../../tables/ippd_datasets.html" xlink:title="ippd_datasets" target="_top">
<polygon fill="#ffffff" stroke="transparent" points="272,-230.2 272,-445.2 391,-445.2 391,-230.2 272,-230.2"/>
<polygon fill="#f5f5f5" stroke="transparent" points="272.5,-421.7 272.5,-444.7 391.5,-444.7 391.5,-421.7 272.5,-421.7"/>
<polygon fill="none" stroke="#000000" points="272.5,-421.7 272.5,-444.7 391.5,-444.7 391.5,-421.7 272.5,-421.7"/>
<text text-anchor="start" x="277.5" y="-430.3" font-family="Helvetica,sans-Serif" font-weight="bold" font-size="11.00" fill="#000000">ippd_datasets</text>
<text text-anchor="start" x="357.0219" y="-429.8" font-family="Helvetica,sans-Serif" font-size="11.00" fill="#000000">[table]</text>
<polygon fill="none" stroke="#000000" points="272.5,-399.7 272.5,-421.7 391.5,-421.7 391.5,-399.7 272.5,-399.7"/>
<image xlink:href="../../images/foreignKeys.png" width="11px" height="12px" preserveAspectRatio="xMinYMin meet" x="277.5" y="-416.7"/>
<text text-anchor="start" x="299.5" y="-406.8" font-family="Helvetica,sans-Serif" font-size="11.00" fill="#000000">DATASETID</text>
<polygon fill="none" stroke="#000000" points="272.5,-377.7 272.5,-399.7 391.5,-399.7 391.5,-377.7 272.5,-377.7"/>
<image xlink:href="../../images/foreignKeys.png" width="11px" height="12px" preserveAspectRatio="xMinYMin meet" x="277.5" y="-394.7"/>
<text text-anchor="start" x="299.5" y="-384.8" font-family="Helvetica,sans-Serif" font-size="11.00" fill="#000000">PRME_OAID</text>
<polygon fill="none" stroke="#000000" points="272.5,-355.7 272.5,-377.7 391.5,-377.7 391.5,-355.7 272.5,-355.7"/>
<image xlink:href="../../images/foreignKeys.png" width="11px" height="12px" preserveAspectRatio="xMinYMin meet" x="277.5" y="-372.7"/>
<text text-anchor="start" x="299.5" y="-362.8" font-family="Helvetica,sans-Serif" font-size="11.00" fill="#000000">UNITID</text>
<polygon fill="none" stroke="#000000" points="272.5,-333.7 272.5,-355.7 391.5,-355.7 391.5,-333.7 272.5,-333.7"/>
<image xlink:href="../../images/foreignKeys.png" width="11px" height="12px" preserveAspectRatio="xMinYMin meet" x="277.5" y="-350.7"/>
<text text-anchor="start" x="299.5" y="-340.8" font-family="Helvetica,sans-Serif" font-size="11.00" fill="#000000">SITEID</text>
<polygon fill="none" stroke="#000000" points="272.5,-311.7 272.5,-333.7 391.5,-333.7 391.5,-311.7 272.5,-311.7"/>
<image xlink:href="../../images/foreignKeys.png" width="11px" height="12px" preserveAspectRatio="xMinYMin meet" x="277.5" y="-328.7"/>
<text text-anchor="start" x="299.5" y="-318.8" font-family="Helvetica,sans-Serif" font-size="11.00" fill="#000000">OAID</text>
<polygon fill="none" stroke="#000000" points="272.5,-289.7 272.5,-311.7 391.5,-311.7 391.5,-289.7 272.5,-289.7"/>
<image xlink:href="../../images/foreignKeys.png" width="11px" height="12px" preserveAspectRatio="xMinYMin meet" x="277.5" y="-306.7"/>
<text text-anchor="start" x="299.5" y="-296.8" font-family="Helvetica,sans-Serif" font-size="11.00" fill="#000000">METASITEID</text>
<polygon fill="none" stroke="#000000" points="272.5,-267.7 272.5,-289.7 391.5,-289.7 391.5,-267.7 272.5,-267.7"/>
<image xlink:href="../../images/primaryKeys.png" width="11px" height="12px" preserveAspectRatio="xMinYMin meet" x="277.5" y="-284.7"/>
<text text-anchor="start" x="299.5" y="-274.8" font-family="Helvetica,sans-Serif" font-size="11.00" fill="#000000">id</text>
<polygon fill="none" stroke="#000000" points="272.5,-248.7 272.5,-267.7 391.5,-267.7 391.5,-248.7 272.5,-248.7"/>
<text text-anchor="start" x="275.5" y="-254.8" font-family="Helvetica,sans-Serif" font-size="11.00" fill="#000000">...</text>
<polygon fill="#ffffff" stroke="transparent" points="272.5,-229.7 272.5,-248.7 311.5,-248.7 311.5,-229.7 272.5,-229.7"/>
<polygon fill="none" stroke="#000000" points="272.5,-229.7 272.5,-248.7 311.5,-248.7 311.5,-229.7 272.5,-229.7"/>
<text text-anchor="start" x="275.5" y="-235.8" font-family="Helvetica,sans-Serif" font-size="11.00" fill="#000000">&lt; 6</text>
<polygon fill="#ffffff" stroke="transparent" points="311.5,-229.7 311.5,-248.7 370.5,-248.7 370.5,-229.7 311.5,-229.7"/>
<polygon fill="none" stroke="#000000" points="311.5,-229.7 311.5,-248.7 370.5,-248.7 370.5,-229.7 311.5,-229.7"/>
<text text-anchor="start" x="322.8807" y="-235.8" font-family="Helvetica,sans-Serif" font-size="11.00" fill="#000000">311 rows</text>
<polygon fill="#ffffff" stroke="transparent" points="370.5,-229.7 370.5,-248.7 391.5,-248.7 391.5,-229.7 370.5,-229.7"/>
<polygon fill="none" stroke="#000000" points="370.5,-229.7 370.5,-248.7 391.5,-248.7 391.5,-229.7 370.5,-229.7"/>
<text text-anchor="start" x="382.3862" y="-235.8" font-family="Helvetica,sans-Serif" font-size="11.00" fill="#000000"> &#160;</text>
</a>
</g>
</g>
<!-- ippd_datasets&#45;&gt;global_Author -->
<g id="edge6" class="edge">
<title>ippd_datasets:w&#45;&gt;global_Author:e</title>
<path fill="none" stroke="#000000" stroke-dasharray="5,2" d="M258.7152,-327.7421C210.92,-368.5802 275.359,-643.7 208,-643.7"/>
<polygon fill="#000000" stroke="#000000" points="264.9868,-325.4482 273.7367,-326.0809 268.7434,-324.0741 272.5,-322.7 272.5,-322.7 272.5,-322.7 268.7434,-324.0741 271.2633,-319.3191 264.9868,-325.4482 264.9868,-325.4482"/>
<ellipse fill="none" stroke="#000000" cx="261.9816" cy="-326.5474" rx="3.2" ry="3.2"/>
</g>
<!-- ippd_datasets&#45;&gt;global_Author -->
<g id="edge7" class="edge">
<title>ippd_datasets:w&#45;&gt;global_Author:e</title>
<path fill="none" stroke="#000000" stroke-dasharray="5,2" d="M259.2692,-394.5051C222.57,-432.462 261.1998,-643.7 208,-643.7"/>
<polygon fill="#000000" stroke="#000000" points="265.1741,-391.9143 273.9464,-391.9966 268.8371,-390.3072 272.5,-388.7 272.5,-388.7 272.5,-388.7 268.8371,-390.3072 271.0536,-385.4034 265.1741,-391.9143 265.1741,-391.9143"/>
<ellipse fill="none" stroke="#000000" cx="262.2438" cy="-393.2001" rx="3.2" ry="3.2"/>
</g>
<!-- sahulchar_units -->
<g id="node8" class="node">
<title>sahulchar_units</title>
<g id="a_node8"><a xlink:href="../../tables/sahulchar_units.html" xlink:title="sahulchar_units" target="_top">
<polygon fill="#ffffff" stroke="transparent" points="266,-38.2 266,-209.2 397,-209.2 397,-38.2 266,-38.2"/>
<polygon fill="#f5f5f5" stroke="transparent" points="266.5,-185.7 266.5,-208.7 397.5,-208.7 397.5,-185.7 266.5,-185.7"/>
<polygon fill="none" stroke="#000000" points="266.5,-185.7 266.5,-208.7 397.5,-208.7 397.5,-185.7 266.5,-185.7"/>
<text text-anchor="start" x="271.5" y="-194.3" font-family="Helvetica,sans-Serif" font-weight="bold" font-size="11.00" fill="#000000">sahulchar_units</text>
<text text-anchor="start" x="363.0219" y="-193.8" font-family="Helvetica,sans-Serif" font-size="11.00" fill="#000000">[table]</text>
<polygon fill="none" stroke="#000000" points="266.5,-163.7 266.5,-185.7 397.5,-185.7 397.5,-163.7 266.5,-163.7"/>
<image xlink:href="../../images/foreignKeys.png" width="11px" height="12px" preserveAspectRatio="xMinYMin meet" x="271.5" y="-180.7"/>
<text text-anchor="start" x="295.5" y="-170.8" font-family="Helvetica,sans-Serif" font-size="11.00" fill="#000000">UNITID</text>
<polygon fill="none" stroke="#000000" points="266.5,-141.7 266.5,-163.7 397.5,-163.7 397.5,-141.7 266.5,-141.7"/>
<image xlink:href="../../images/foreignKeys.png" width="11px" height="12px" preserveAspectRatio="xMinYMin meet" x="271.5" y="-158.7"/>
<text text-anchor="start" x="295.5" y="-148.8" font-family="Helvetica,sans-Serif" font-size="11.00" fill="#000000">SITEID</text>
<polygon fill="none" stroke="#000000" points="266.5,-119.7 266.5,-141.7 397.5,-141.7 397.5,-119.7 266.5,-119.7"/>
<image xlink:href="../../images/foreignKeys.png" width="11px" height="12px" preserveAspectRatio="xMinYMin meet" x="271.5" y="-136.7"/>
<text text-anchor="start" x="295.5" y="-126.8" font-family="Helvetica,sans-Serif" font-size="11.00" fill="#000000">OAID</text>
<polygon fill="none" stroke="#000000" points="266.5,-97.7 266.5,-119.7 397.5,-119.7 397.5,-97.7 266.5,-97.7"/>
<image xlink:href="../../images/foreignKeys.png" width="11px" height="12px" preserveAspectRatio="xMinYMin meet" x="271.5" y="-114.7"/>
<text text-anchor="start" x="295.5" y="-104.8" font-family="Helvetica,sans-Serif" font-size="11.00" fill="#000000">METASITEID</text>
<polygon fill="none" stroke="#000000" points="266.5,-75.7 266.5,-97.7 397.5,-97.7 397.5,-75.7 266.5,-75.7"/>
<image xlink:href="../../images/primaryKeys.png" width="11px" height="12px" preserveAspectRatio="xMinYMin meet" x="271.5" y="-92.7"/>
<text text-anchor="start" x="295.5" y="-82.8" font-family="Helvetica,sans-Serif" font-size="11.00" fill="#000000">id</text>
<polygon fill="none" stroke="#000000" points="266.5,-56.7 266.5,-75.7 397.5,-75.7 397.5,-56.7 266.5,-56.7"/>
<text text-anchor="start" x="269.5" y="-62.8" font-family="Helvetica,sans-Serif" font-size="11.00" fill="#000000">...</text>
<polygon fill="#ffffff" stroke="transparent" points="266.5,-37.7 266.5,-56.7 311.5,-56.7 311.5,-37.7 266.5,-37.7"/>
<polygon fill="none" stroke="#000000" points="266.5,-37.7 266.5,-56.7 311.5,-56.7 311.5,-37.7 266.5,-37.7"/>
<text text-anchor="start" x="269.5" y="-43.8" font-family="Helvetica,sans-Serif" font-size="11.00" fill="#000000">&lt; 4</text>
<polygon fill="#ffffff" stroke="transparent" points="311.5,-37.7 311.5,-56.7 373.5,-56.7 373.5,-37.7 311.5,-37.7"/>
<polygon fill="none" stroke="#000000" points="311.5,-37.7 311.5,-56.7 373.5,-56.7 373.5,-37.7 311.5,-37.7"/>
<text text-anchor="start" x="325.8807" y="-43.8" font-family="Helvetica,sans-Serif" font-size="11.00" fill="#000000">535 rows</text>
<polygon fill="#ffffff" stroke="transparent" points="373.5,-37.7 373.5,-56.7 397.5,-56.7 397.5,-37.7 373.5,-37.7"/>
<polygon fill="none" stroke="#000000" points="373.5,-37.7 373.5,-56.7 397.5,-56.7 397.5,-37.7 373.5,-37.7"/>
<text text-anchor="start" x="388.3862" y="-43.8" font-family="Helvetica,sans-Serif" font-size="11.00" fill="#000000"> &#160;</text>
</a>
</g>
</g>
<!-- sahulchar_units&#45;&gt;global_Author -->
<g id="edge8" class="edge">
<title>sahulchar_units:w&#45;&gt;global_Author:e</title>
<path fill="none" stroke="#000000" stroke-dasharray="5,2" d="M252.1894,-133.9759C167.1625,-177.6666 317.3605,-643.7 208,-643.7"/>
<polygon fill="#000000" stroke="#000000" points="258.7017,-132.4852 267.3033,-134.2092 262.6009,-131.5926 266.5,-130.7 266.5,-130.7 266.5,-130.7 262.6009,-131.5926 265.6967,-127.1908 258.7017,-132.4852 258.7017,-132.4852"/>
<ellipse fill="none" stroke="#000000" cx="255.5824" cy="-133.1993" rx="3.2" ry="3.2"/>
</g>
</g>
</svg>
