<?xml version="1.0" encoding="UTF-8" standalone="no"?>
<!DOCTYPE svg PUBLIC "-//W3C//DTD SVG 1.1//EN"
 "http://www.w3.org/Graphics/SVG/1.1/DTD/svg11.dtd">
<!-- Generated by graphviz version 2.40.1 (20161225.0304)
 -->
<!-- Title: oneDegreeRelationshipsDiagram Pages: 1 -->
<svg width="394pt" height="315pt"
 viewBox="0.00 0.00 394.00 314.70" xmlns="http://www.w3.org/2000/svg" xmlns:xlink="http://www.w3.org/1999/xlink">
<g id="graph0" class="graph" transform="scale(1 1) rotate(0) translate(4 310.7)">
<title>oneDegreeRelationshipsDiagram</title>
<polygon fill="#ffffff" stroke="transparent" points="-4,4 -4,-310.7 390,-310.7 390,4 -4,4"/>
<text text-anchor="middle" x="72.4936" y="-7.3" font-family="Helvetica,sans-Serif" font-size="11.00" fill="#000000">Generated by SchemaSpy</text>
<!-- global_RefCore -->
<g id="node1" class="node">
<title>global_RefCore</title>
<g id="a_node1"><a xlink:href="../../tables/global_RefCore.html" xlink:title="global_RefCore" target="_top">
<polygon fill="#ffffff" stroke="transparent" points="259,-153.7 259,-302.7 378,-302.7 378,-153.7 259,-153.7"/>
<polygon fill="#f5f5f5" stroke="transparent" points="259.5,-279.2 259.5,-302.2 378.5,-302.2 378.5,-279.2 259.5,-279.2"/>
<polygon fill="none" stroke="#000000" points="259.5,-279.2 259.5,-302.2 378.5,-302.2 378.5,-279.2 259.5,-279.2"/>
<text text-anchor="start" x="264.2992" y="-288.3" font-family="Helvetica,sans-Serif" font-weight="bold" font-size="11.00" fill="#000000">global_RefCore</text>
<text text-anchor="start" x="344.0219" y="-287.3" font-family="Helvetica,sans-Serif" font-size="11.00" fill="#000000">[table]</text>
<polygon fill="none" stroke="#000000" points="259.5,-257.2 259.5,-279.2 378.5,-279.2 378.5,-257.2 259.5,-257.2"/>
<image xlink:href="../../images/primaryKeys.png" width="11px" height="12px" preserveAspectRatio="xMinYMin meet" x="264.5" y="-274.2"/>
<text text-anchor="start" x="284.5" y="-264.3" font-family="Helvetica,sans-Serif" font-size="11.00" fill="#000000">REFDBID</text>
<polygon fill="none" stroke="#000000" points="259.5,-235.2 259.5,-257.2 378.5,-257.2 378.5,-235.2 259.5,-235.2"/>
<image xlink:href="../../images/foreignKeys.png" width="11px" height="12px" preserveAspectRatio="xMinYMin meet" x="264.5" y="-252.2"/>
<text text-anchor="start" x="284.5" y="-242.3" font-family="Helvetica,sans-Serif" font-size="11.00" fill="#000000">OAID</text>
<polygon fill="none" stroke="#000000" points="259.5,-213.2 259.5,-235.2 378.5,-235.2 378.5,-213.2 259.5,-213.2"/>
<image xlink:href="../../images/foreignKeys.png" width="11px" height="12px" preserveAspectRatio="xMinYMin meet" x="264.5" y="-230.2"/>
<text text-anchor="start" x="284.5" y="-220.3" font-family="Helvetica,sans-Serif" font-size="11.00" fill="#000000">PUBTYPEID</text>
<polygon fill="none" stroke="#000000" points="259.5,-191.2 259.5,-213.2 378.5,-213.2 378.5,-191.2 259.5,-191.2"/>
<image xlink:href="../../images/foreignKeys.png" width="11px" height="12px" preserveAspectRatio="xMinYMin meet" x="264.5" y="-208.2"/>
<text text-anchor="start" x="284.5" y="-198.3" font-family="Helvetica,sans-Serif" font-size="11.00" fill="#000000">JOURNALID</text>
<polygon fill="none" stroke="#000000" points="259.5,-172.2 259.5,-191.2 378.5,-191.2 378.5,-172.2 259.5,-172.2"/>
<text text-anchor="start" x="262.5" y="-178.3" font-family="Helvetica,sans-Serif" font-size="11.00" fill="#000000">...</text>
<polygon fill="#ffffff" stroke="transparent" points="259.5,-153.2 259.5,-172.2 286.5,-172.2 286.5,-153.2 259.5,-153.2"/>
<polygon fill="none" stroke="#000000" points="259.5,-153.2 259.5,-172.2 286.5,-172.2 286.5,-153.2 259.5,-153.2"/>
<text text-anchor="start" x="262.5" y="-159.3" font-family="Helvetica,sans-Serif" font-size="11.00" fill="#000000">&lt; 5</text>
<polygon fill="#ffffff" stroke="transparent" points="286.5,-153.2 286.5,-172.2 348.5,-172.2 348.5,-153.2 286.5,-153.2"/>
<polygon fill="none" stroke="#000000" points="286.5,-153.2 286.5,-172.2 348.5,-172.2 348.5,-153.2 286.5,-153.2"/>
<text text-anchor="start" x="291.7089" y="-159.3" font-family="Helvetica,sans-Serif" font-size="11.00" fill="#000000">3,822 rows</text>
<polygon fill="#ffffff" stroke="transparent" points="348.5,-153.2 348.5,-172.2 378.5,-172.2 378.5,-153.2 348.5,-153.2"/>
<polygon fill="none" stroke="#000000" points="348.5,-153.2 348.5,-172.2 378.5,-172.2 378.5,-153.2 348.5,-153.2"/>
<text text-anchor="start" x="353.7904" y="-159.3" font-family="Helvetica,sans-Serif" font-size="11.00" fill="#000000">32 &gt;</text>
</a>
</g>
</g>
<!-- global_Journal -->
<g id="node2" class="node">
<title>global_Journal</title>
<g id="a_node2"><a xlink:href="../../tables/global_Journal.html" xlink:title="global_Journal" target="_top">
<polygon fill="#ffffff" stroke="transparent" points="8,-38.2 8,-238.2 210,-238.2 210,-38.2 8,-38.2"/>
<polygon fill="#f5f5f5" stroke="transparent" points="10,-213.2 10,-236.2 208,-236.2 208,-213.2 10,-213.2"/>
<polygon fill="none" stroke="#000000" points="10,-213.2 10,-236.2 208,-236.2 208,-213.2 10,-213.2"/>
<text text-anchor="start" x="15" y="-222.3" font-family="Helvetica,sans-Serif" font-weight="bold" font-size="11.00" fill="#000000">global_Journal</text>
<text text-anchor="start" x="173.0437" y="-221.3" font-family="Helvetica,sans-Serif" font-size="11.00" fill="#000000">[table]</text>
<polygon fill="none" stroke="#000000" points="10,-191.2 10,-213.2 116,-213.2 116,-191.2 10,-191.2"/>
<image xlink:href="../../images/primaryKeys.png" width="11px" height="12px" preserveAspectRatio="xMinYMin meet" x="15" y="-208.2"/>
<text text-anchor="start" x="30" y="-198.3" font-family="Helvetica,sans-Serif" font-size="11.00" fill="#000000">JOURNALID</text>
<polygon fill="none" stroke="#000000" points="116,-191.2 116,-213.2 208,-213.2 208,-191.2 116,-191.2"/>
<text text-anchor="start" x="119" y="-198.9" font-family="Helvetica,sans-Serif" font-size="11.00" fill="#000000">smallserial[5]</text>
<polygon fill="none" stroke="#000000" points="10,-169.2 10,-191.2 116,-191.2 116,-169.2 10,-169.2"/>
<text text-anchor="start" x="30" y="-176.3" font-family="Helvetica,sans-Serif" font-size="11.00" fill="#000000">JOURNAL</text>
<polygon fill="none" stroke="#000000" points="116,-169.2 116,-191.2 208,-191.2 208,-169.2 116,-169.2"/>
<text text-anchor="start" x="119" y="-176.9" font-family="Helvetica,sans-Serif" font-size="11.00" fill="#000000">text[2147483647]</text>
<polygon fill="none" stroke="#000000" points="10,-147.2 10,-169.2 116,-169.2 116,-147.2 10,-147.2"/>
<text text-anchor="start" x="30" y="-154.3" font-family="Helvetica,sans-Serif" font-size="11.00" fill="#000000">JOURNALABB</text>
<polygon fill="none" stroke="#000000" points="116,-147.2 116,-169.2 208,-169.2 208,-147.2 116,-147.2"/>
<text text-anchor="start" x="119" y="-154.9" font-family="Helvetica,sans-Serif" font-size="11.00" fill="#000000">text[2147483647]</text>
<polygon fill="none" stroke="#000000" points="10,-125.2 10,-147.2 116,-147.2 116,-125.2 10,-125.2"/>
<text text-anchor="start" x="30" y="-132.3" font-family="Helvetica,sans-Serif" font-size="11.00" fill="#000000">PRINT_ISSN</text>
<polygon fill="none" stroke="#000000" points="116,-125.2 116,-147.2 208,-147.2 208,-125.2 116,-125.2"/>
<text text-anchor="start" x="119" y="-132.9" font-family="Helvetica,sans-Serif" font-size="11.00" fill="#000000">varchar[9]</text>
<polygon fill="none" stroke="#000000" points="10,-103.2 10,-125.2 116,-125.2 116,-103.2 10,-103.2"/>
<text text-anchor="start" x="30" y="-110.3" font-family="Helvetica,sans-Serif" font-size="11.00" fill="#000000">ONLIN_ISSN</text>
<polygon fill="none" stroke="#000000" points="116,-103.2 116,-125.2 208,-125.2 208,-103.2 116,-103.2"/>
<text text-anchor="start" x="119" y="-110.9" font-family="Helvetica,sans-Serif" font-size="11.00" fill="#000000">varchar[9]</text>
<polygon fill="none" stroke="#000000" points="10,-81.2 10,-103.2 116,-103.2 116,-81.2 10,-81.2"/>
<text text-anchor="start" x="30" y="-88.3" font-family="Helvetica,sans-Serif" font-size="11.00" fill="#000000">CREATED_AT</text>
<polygon fill="none" stroke="#000000" points="116,-81.2 116,-103.2 208,-103.2 208,-81.2 116,-81.2"/>
<text text-anchor="start" x="118.6023" y="-88.9" font-family="Helvetica,sans-Serif" font-size="11.00" fill="#000000">timestamptz[35,6]</text>
<polygon fill="none" stroke="#000000" points="10,-59.2 10,-81.2 116,-81.2 116,-59.2 10,-59.2"/>
<text text-anchor="start" x="30" y="-66.3" font-family="Helvetica,sans-Serif" font-size="11.00" fill="#000000">UPDATED_AT</text>
<polygon fill="none" stroke="#000000" points="116,-59.2 116,-81.2 208,-81.2 208,-59.2 116,-59.2"/>
<text text-anchor="start" x="118.6023" y="-66.9" font-family="Helvetica,sans-Serif" font-size="11.00" fill="#000000">timestamptz[35,6]</text>
<polygon fill="#ffffff" stroke="transparent" points="10,-40.2 10,-59.2 44,-59.2 44,-40.2 10,-40.2"/>
<polygon fill="none" stroke="#000000" points="10,-40.2 10,-59.2 44,-59.2 44,-40.2 10,-40.2"/>
<text text-anchor="start" x="13" y="-46.3" font-family="Helvetica,sans-Serif" font-size="11.00" fill="#000000">&lt; 0</text>
<polygon fill="#ffffff" stroke="transparent" points="44,-40.2 44,-59.2 116,-59.2 116,-40.2 44,-40.2"/>
<polygon fill="none" stroke="#000000" points="44,-40.2 44,-59.2 116,-59.2 116,-40.2 44,-40.2"/>
<text text-anchor="start" x="59.2089" y="-46.3" font-family="Helvetica,sans-Serif" font-size="11.00" fill="#000000">1,415 rows</text>
<polygon fill="#ffffff" stroke="transparent" points="116,-40.2 116,-59.2 208,-59.2 208,-40.2 116,-40.2"/>
<polygon fill="none" stroke="#000000" points="116,-40.2 116,-59.2 208,-59.2 208,-40.2 116,-40.2"/>
<text text-anchor="start" x="189.4053" y="-46.3" font-family="Helvetica,sans-Serif" font-size="11.00" fill="#000000">1 &gt;</text>
<polygon fill="none" stroke="#000000" stroke-width="2" points="9,-39.2 9,-237.2 209,-237.2 209,-39.2 9,-39.2"/>
</a>
</g>
</g>
<!-- global_RefCore&#45;&gt;global_Journal -->
<g id="edge1" class="edge">
<title>global_RefCore:w&#45;&gt;global_Journal:e</title>
<path fill="none" stroke="#000000" d="M245.0156,-202.2C232.6771,-202.2 225.1667,-202.2 208,-202.2"/>
<polygon fill="#000000" stroke="#000000" points="251.5,-202.2001 259.5,-205.8 255.5,-202.2 259.5,-202.2 259.5,-202.2 259.5,-202.2 255.5,-202.2 259.5,-198.6 251.5,-202.2001 251.5,-202.2001"/>
<ellipse fill="none" stroke="#000000" cx="248.3" cy="-202.2001" rx="3.2" ry="3.2"/>
</g>
</g>
</svg>
