<?xml version="1.0" encoding="UTF-8" standalone="no"?>
<!DOCTYPE svg PUBLIC "-//W3C//DTD SVG 1.1//EN"
 "http://www.w3.org/Graphics/SVG/1.1/DTD/svg11.dtd">
<!-- Generated by graphviz version 2.40.1 (20161225.0304)
 -->
<!-- Title: twoDegreesRelationshipsDiagram Pages: 1 -->
<svg width="722pt" height="371pt"
 viewBox="0.00 0.00 722.00 371.20" xmlns="http://www.w3.org/2000/svg" xmlns:xlink="http://www.w3.org/1999/xlink">
<g id="graph0" class="graph" transform="scale(1 1) rotate(0) translate(4 367.2)">
<title>twoDegreesRelationshipsDiagram</title>
<polygon fill="#ffffff" stroke="transparent" points="-4,4 -4,-367.2 718,-367.2 718,4 -4,4"/>
<text text-anchor="middle" x="72.4936" y="-7.3" font-family="Helvetica,sans-Serif" font-size="11.00" fill="#000000">Generated by SchemaSpy</text>
<!-- global_DataSetMaster -->
<g id="node1" class="node">
<title>global_DataSetMaster</title>
<g id="a_node1"><a xlink:href="../../tables/global_DataSetMaster.html" xlink:title="global_DataSetMaster" target="_top">
<polygon fill="#ffffff" stroke="transparent" points="294,-148.2 294,-319.2 458,-319.2 458,-148.2 294,-148.2"/>
<polygon fill="#f5f5f5" stroke="transparent" points="294,-295.7 294,-318.7 458,-318.7 458,-295.7 294,-295.7"/>
<polygon fill="none" stroke="#000000" points="294,-295.7 294,-318.7 458,-318.7 458,-295.7 294,-295.7"/>
<text text-anchor="start" x="299" y="-304.3" font-family="Helvetica,sans-Serif" font-weight="bold" font-size="11.00" fill="#000000">global_DataSetMaster</text>
<text text-anchor="start" x="423.5219" y="-303.8" font-family="Helvetica,sans-Serif" font-size="11.00" fill="#000000">[table]</text>
<polygon fill="none" stroke="#000000" points="294,-273.7 294,-295.7 458,-295.7 458,-273.7 294,-273.7"/>
<image xlink:href="../../images/primaryKeys.png" width="11px" height="12px" preserveAspectRatio="xMinYMin meet" x="299" y="-290.7"/>
<text text-anchor="start" x="323" y="-280.8" font-family="Helvetica,sans-Serif" font-size="11.00" fill="#000000">DATASETID</text>
<polygon fill="none" stroke="#000000" points="294,-251.7 294,-273.7 458,-273.7 458,-251.7 294,-251.7"/>
<image xlink:href="../../images/foreignKeys.png" width="11px" height="12px" preserveAspectRatio="xMinYMin meet" x="299" y="-268.7"/>
<text text-anchor="start" x="323" y="-258.8" font-family="Helvetica,sans-Serif" font-size="11.00" fill="#000000">UNITID</text>
<polygon fill="none" stroke="#000000" points="294,-229.7 294,-251.7 458,-251.7 458,-229.7 294,-229.7"/>
<image xlink:href="../../images/foreignKeys.png" width="11px" height="12px" preserveAspectRatio="xMinYMin meet" x="299" y="-246.7"/>
<text text-anchor="start" x="323" y="-236.8" font-family="Helvetica,sans-Serif" font-size="11.00" fill="#000000">DSETTYPEID</text>
<polygon fill="#ffffff" stroke="transparent" points="294,-207.7 294,-229.7 458,-229.7 458,-207.7 294,-207.7"/>
<polygon fill="none" stroke="#000000" points="294,-207.7 294,-229.7 458,-229.7 458,-207.7 294,-207.7"/>
<text text-anchor="start" x="323" y="-214.8" font-family="Helvetica,sans-Serif" font-size="11.00" fill="#000000">NEODSETID</text>
<polygon fill="none" stroke="#000000" points="294,-185.7 294,-207.7 458,-207.7 458,-185.7 294,-185.7"/>
<image xlink:href="../../images/foreignKeys.png" width="11px" height="12px" preserveAspectRatio="xMinYMin meet" x="299" y="-202.7"/>
<text text-anchor="start" x="323" y="-192.8" font-family="Helvetica,sans-Serif" font-size="11.00" fill="#000000">DSETSOURCE</text>
<polygon fill="none" stroke="#000000" points="294,-166.7 294,-185.7 458,-185.7 458,-166.7 294,-166.7"/>
<text text-anchor="start" x="297" y="-172.8" font-family="Helvetica,sans-Serif" font-size="11.00" fill="#000000">...</text>
<polygon fill="#ffffff" stroke="transparent" points="294,-147.7 294,-166.7 351,-166.7 351,-147.7 294,-147.7"/>
<polygon fill="none" stroke="#000000" points="294,-147.7 294,-166.7 351,-166.7 351,-147.7 294,-147.7"/>
<text text-anchor="start" x="297" y="-153.8" font-family="Helvetica,sans-Serif" font-size="11.00" fill="#000000">&lt; 3</text>
<polygon fill="#ffffff" stroke="transparent" points="351,-147.7 351,-166.7 419,-166.7 419,-147.7 351,-147.7"/>
<polygon fill="none" stroke="#000000" points="351,-147.7 351,-166.7 419,-166.7 419,-147.7 351,-147.7"/>
<text text-anchor="start" x="371.3807" y="-153.8" font-family="Helvetica,sans-Serif" font-size="11.00" fill="#000000">311 rows</text>
<polygon fill="#ffffff" stroke="transparent" points="419,-147.7 419,-166.7 458,-166.7 458,-147.7 419,-147.7"/>
<polygon fill="none" stroke="#000000" points="419,-147.7 419,-166.7 458,-166.7 458,-147.7 419,-147.7"/>
<text text-anchor="start" x="439.4053" y="-153.8" font-family="Helvetica,sans-Serif" font-size="11.00" fill="#000000">3 &gt;</text>
</a>
</g>
</g>
<!-- cabah_datasourceID -->
<g id="node2" class="node">
<title>cabah_datasourceID</title>
<g id="a_node2"><a xlink:href="../../tables/cabah_datasourceID.html" xlink:title="cabah_datasourceID" target="_top">
<polygon fill="#ffffff" stroke="transparent" points="48.5,-38.2 48.5,-99.2 204.5,-99.2 204.5,-38.2 48.5,-38.2"/>
<polygon fill="#f5f5f5" stroke="transparent" points="48.5,-75.7 48.5,-98.7 204.5,-98.7 204.5,-75.7 48.5,-75.7"/>
<polygon fill="none" stroke="#000000" points="48.5,-75.7 48.5,-98.7 204.5,-98.7 204.5,-75.7 48.5,-75.7"/>
<text text-anchor="start" x="53.5" y="-84.3" font-family="Helvetica,sans-Serif" font-weight="bold" font-size="11.00" fill="#000000">cabah_datasourceID</text>
<text text-anchor="start" x="170.0219" y="-83.8" font-family="Helvetica,sans-Serif" font-size="11.00" fill="#000000">[table]</text>
<polygon fill="none" stroke="#000000" points="48.5,-56.7 48.5,-75.7 204.5,-75.7 204.5,-56.7 48.5,-56.7"/>
<text text-anchor="start" x="51.5" y="-62.8" font-family="Helvetica,sans-Serif" font-size="11.00" fill="#000000">...</text>
<polygon fill="#ffffff" stroke="transparent" points="48.5,-37.7 48.5,-56.7 99.5,-56.7 99.5,-37.7 48.5,-37.7"/>
<polygon fill="none" stroke="#000000" points="48.5,-37.7 48.5,-56.7 99.5,-56.7 99.5,-37.7 48.5,-37.7"/>
<text text-anchor="start" x="51.5" y="-43.8" font-family="Helvetica,sans-Serif" font-size="11.00" fill="#000000"> &#160;</text>
<polygon fill="#ffffff" stroke="transparent" points="99.5,-37.7 99.5,-56.7 163.5,-56.7 163.5,-37.7 99.5,-37.7"/>
<polygon fill="none" stroke="#000000" points="99.5,-37.7 99.5,-56.7 163.5,-56.7 163.5,-37.7 99.5,-37.7"/>
<text text-anchor="start" x="121.9956" y="-43.8" font-family="Helvetica,sans-Serif" font-size="11.00" fill="#000000">11 rows</text>
<polygon fill="#ffffff" stroke="transparent" points="163.5,-37.7 163.5,-56.7 204.5,-56.7 204.5,-37.7 163.5,-37.7"/>
<polygon fill="none" stroke="#000000" points="163.5,-37.7 163.5,-56.7 204.5,-56.7 204.5,-37.7 163.5,-37.7"/>
<text text-anchor="start" x="185.9053" y="-43.8" font-family="Helvetica,sans-Serif" font-size="11.00" fill="#000000">6 &gt;</text>
</a>
</g>
</g>
<!-- global_DataSetMaster&#45;&gt;cabah_datasourceID -->
<g id="edge1" class="edge">
<title>global_DataSetMaster:w&#45;&gt;cabah_datasourceID:e</title>
<path fill="none" stroke="#000000" d="M279.7743,-193.7741C257.8578,-182.2558 274.855,-139.2256 253,-109.7 235.6844,-86.307 233.6043,-65.7 204.5,-65.7"/>
<polygon fill="#000000" stroke="#000000" points="286.164,-195.0883 293.2747,-200.2262 290.082,-195.8942 294,-196.7 294,-196.7 294,-196.7 290.082,-195.8942 294.7253,-193.1738 286.164,-195.0883 286.164,-195.0883"/>
<ellipse fill="none" stroke="#000000" cx="283.0296" cy="-194.4436" rx="3.2" ry="3.2"/>
</g>
<!-- global_datasettypeID -->
<g id="node3" class="node">
<title>global_datasettypeID</title>
<g id="a_node3"><a xlink:href="../../tables/global_datasettypeID.html" xlink:title="global_datasettypeID" target="_top">
<polygon fill="#ffffff" stroke="transparent" points="8,-120.7 8,-276.7 245,-276.7 245,-120.7 8,-120.7"/>
<polygon fill="#f5f5f5" stroke="transparent" points="10.5,-251.7 10.5,-274.7 243.5,-274.7 243.5,-251.7 10.5,-251.7"/>
<polygon fill="none" stroke="#000000" points="10.5,-251.7 10.5,-274.7 243.5,-274.7 243.5,-251.7 10.5,-251.7"/>
<text text-anchor="start" x="15.5" y="-260.3" font-family="Helvetica,sans-Serif" font-weight="bold" font-size="11.00" fill="#000000">global_datasettypeID</text>
<text text-anchor="start" x="208.5437" y="-259.8" font-family="Helvetica,sans-Serif" font-size="11.00" fill="#000000">[table]</text>
<polygon fill="none" stroke="#000000" points="10.5,-229.7 10.5,-251.7 151.5,-251.7 151.5,-229.7 10.5,-229.7"/>
<image xlink:href="../../images/primaryKeys.png" width="11px" height="12px" preserveAspectRatio="xMinYMin meet" x="15.5" y="-246.7"/>
<text text-anchor="start" x="30.5" y="-236.8" font-family="Helvetica,sans-Serif" font-size="11.00" fill="#000000">DSETTYPEID</text>
<polygon fill="none" stroke="#000000" points="151.5,-229.7 151.5,-251.7 243.5,-251.7 243.5,-229.7 151.5,-229.7"/>
<text text-anchor="start" x="154.5" y="-237.4" font-family="Helvetica,sans-Serif" font-size="11.00" fill="#000000">serial[10]</text>
<polygon fill="none" stroke="#000000" points="10.5,-207.7 10.5,-229.7 151.5,-229.7 151.5,-207.7 10.5,-207.7"/>
<text text-anchor="start" x="30.5" y="-214.8" font-family="Helvetica,sans-Serif" font-size="11.00" fill="#000000">DSETTYPE</text>
<polygon fill="none" stroke="#000000" points="151.5,-207.7 151.5,-229.7 243.5,-229.7 243.5,-207.7 151.5,-207.7"/>
<text text-anchor="start" x="154.5" y="-215.4" font-family="Helvetica,sans-Serif" font-size="11.00" fill="#000000">text[2147483647]</text>
<polygon fill="none" stroke="#000000" points="10.5,-185.7 10.5,-207.7 151.5,-207.7 151.5,-185.7 10.5,-185.7"/>
<text text-anchor="start" x="30.5" y="-192.8" font-family="Helvetica,sans-Serif" font-size="11.00" fill="#000000">DSTYPNOTE</text>
<polygon fill="none" stroke="#000000" points="151.5,-185.7 151.5,-207.7 243.5,-207.7 243.5,-185.7 151.5,-185.7"/>
<text text-anchor="start" x="154.5" y="-193.4" font-family="Helvetica,sans-Serif" font-size="11.00" fill="#000000">text[2147483647]</text>
<polygon fill="none" stroke="#000000" points="10.5,-163.7 10.5,-185.7 151.5,-185.7 151.5,-163.7 10.5,-163.7"/>
<text text-anchor="start" x="30.5" y="-170.8" font-family="Helvetica,sans-Serif" font-size="11.00" fill="#000000">CREATED_AT</text>
<polygon fill="none" stroke="#000000" points="151.5,-163.7 151.5,-185.7 243.5,-185.7 243.5,-163.7 151.5,-163.7"/>
<text text-anchor="start" x="154.1023" y="-171.4" font-family="Helvetica,sans-Serif" font-size="11.00" fill="#000000">timestamptz[35,6]</text>
<polygon fill="none" stroke="#000000" points="10.5,-141.7 10.5,-163.7 151.5,-163.7 151.5,-141.7 10.5,-141.7"/>
<text text-anchor="start" x="30.5" y="-148.8" font-family="Helvetica,sans-Serif" font-size="11.00" fill="#000000">UPDATED_AT</text>
<polygon fill="none" stroke="#000000" points="151.5,-141.7 151.5,-163.7 243.5,-163.7 243.5,-141.7 151.5,-141.7"/>
<text text-anchor="start" x="154.1023" y="-149.4" font-family="Helvetica,sans-Serif" font-size="11.00" fill="#000000">timestamptz[35,6]</text>
<polygon fill="#ffffff" stroke="transparent" points="10.5,-122.7 10.5,-141.7 69.5,-141.7 69.5,-122.7 10.5,-122.7"/>
<polygon fill="none" stroke="#000000" points="10.5,-122.7 10.5,-141.7 69.5,-141.7 69.5,-122.7 10.5,-122.7"/>
<text text-anchor="start" x="13.5" y="-128.8" font-family="Helvetica,sans-Serif" font-size="11.00" fill="#000000">&lt; 0</text>
<polygon fill="#ffffff" stroke="transparent" points="69.5,-122.7 69.5,-141.7 151.5,-141.7 151.5,-122.7 69.5,-122.7"/>
<polygon fill="none" stroke="#000000" points="69.5,-122.7 69.5,-141.7 151.5,-141.7 151.5,-122.7 69.5,-122.7"/>
<text text-anchor="start" x="109.9956" y="-128.8" font-family="Helvetica,sans-Serif" font-size="11.00" fill="#000000">42 rows</text>
<polygon fill="#ffffff" stroke="transparent" points="151.5,-122.7 151.5,-141.7 243.5,-141.7 243.5,-122.7 151.5,-122.7"/>
<polygon fill="none" stroke="#000000" points="151.5,-122.7 151.5,-141.7 243.5,-141.7 243.5,-122.7 151.5,-122.7"/>
<text text-anchor="start" x="224.9053" y="-128.8" font-family="Helvetica,sans-Serif" font-size="11.00" fill="#000000">1 &gt;</text>
<polygon fill="none" stroke="#000000" stroke-width="2" points="9,-121.7 9,-275.7 244,-275.7 244,-121.7 9,-121.7"/>
</a>
</g>
</g>
<!-- global_DataSetMaster&#45;&gt;global_datasettypeID -->
<g id="edge2" class="edge">
<title>global_DataSetMaster:w&#45;&gt;global_datasettypeID:e</title>
<path fill="none" stroke="#000000" d="M279.4203,-240.7C267.5435,-240.7 260.158,-240.7 243.5,-240.7"/>
<polygon fill="#000000" stroke="#000000" points="286,-240.7001 294,-244.3 290,-240.7 294,-240.7 294,-240.7 294,-240.7 290,-240.7 294,-237.1 286,-240.7001 286,-240.7001"/>
<ellipse fill="none" stroke="#000000" cx="282.8" cy="-240.7001" rx="3.2" ry="3.2"/>
</g>
<!-- global_UnitMaster -->
<g id="node4" class="node">
<title>global_UnitMaster</title>
<g id="a_node4"><a xlink:href="../../tables/global_UnitMaster.html" xlink:title="global_UnitMaster" target="_top">
<polygon fill="#ffffff" stroke="transparent" points="55,-298.2 55,-359.2 198,-359.2 198,-298.2 55,-298.2"/>
<polygon fill="#f5f5f5" stroke="transparent" points="55.5,-335.7 55.5,-358.7 198.5,-358.7 198.5,-335.7 55.5,-335.7"/>
<polygon fill="none" stroke="#000000" points="55.5,-335.7 55.5,-358.7 198.5,-358.7 198.5,-335.7 55.5,-335.7"/>
<text text-anchor="start" x="60.5" y="-344.3" font-family="Helvetica,sans-Serif" font-weight="bold" font-size="11.00" fill="#000000">global_UnitMaster</text>
<text text-anchor="start" x="164.0219" y="-343.8" font-family="Helvetica,sans-Serif" font-size="11.00" fill="#000000">[table]</text>
<polygon fill="none" stroke="#000000" points="55.5,-316.7 55.5,-335.7 198.5,-335.7 198.5,-316.7 55.5,-316.7"/>
<text text-anchor="start" x="58.5" y="-322.8" font-family="Helvetica,sans-Serif" font-size="11.00" fill="#000000">...</text>
<polygon fill="#ffffff" stroke="transparent" points="55.5,-297.7 55.5,-316.7 101.5,-316.7 101.5,-297.7 55.5,-297.7"/>
<polygon fill="none" stroke="#000000" points="55.5,-297.7 55.5,-316.7 101.5,-316.7 101.5,-297.7 55.5,-297.7"/>
<text text-anchor="start" x="58.5" y="-303.8" font-family="Helvetica,sans-Serif" font-size="11.00" fill="#000000">&lt; 5</text>
<polygon fill="#ffffff" stroke="transparent" points="101.5,-297.7 101.5,-316.7 164.5,-316.7 164.5,-297.7 101.5,-297.7"/>
<polygon fill="none" stroke="#000000" points="101.5,-297.7 101.5,-316.7 164.5,-316.7 164.5,-297.7 101.5,-297.7"/>
<text text-anchor="start" x="116.8807" y="-303.8" font-family="Helvetica,sans-Serif" font-size="11.00" fill="#000000">607 rows</text>
<polygon fill="#ffffff" stroke="transparent" points="164.5,-297.7 164.5,-316.7 198.5,-316.7 198.5,-297.7 164.5,-297.7"/>
<polygon fill="none" stroke="#000000" points="164.5,-297.7 164.5,-316.7 198.5,-316.7 198.5,-297.7 164.5,-297.7"/>
<text text-anchor="start" x="179.9053" y="-303.8" font-family="Helvetica,sans-Serif" font-size="11.00" fill="#000000">4 &gt;</text>
</a>
</g>
</g>
<!-- global_DataSetMaster&#45;&gt;global_UnitMaster -->
<g id="edge3" class="edge">
<title>global_DataSetMaster:w&#45;&gt;global_UnitMaster:e</title>
<path fill="none" stroke="#000000" d="M280.1038,-267.2308C254.4421,-281.6761 219.7529,-325.7 198.5,-325.7"/>
<polygon fill="#000000" stroke="#000000" points="286.3941,-265.1799 295.116,-266.1227 290.197,-263.94 294,-262.7 294,-262.7 294,-262.7 290.197,-263.94 292.884,-259.2773 286.3941,-265.1799 286.3941,-265.1799"/>
<ellipse fill="none" stroke="#000000" cx="283.3517" cy="-266.1719" rx="3.2" ry="3.2"/>
</g>
<!-- global_datasetpublicationID -->
<g id="node5" class="node">
<title>global_datasetpublicationID</title>
<g id="a_node5"><a xlink:href="../../tables/global_datasetpublicationID.html" xlink:title="global_datasetpublicationID" target="_top">
<polygon fill="#ffffff" stroke="transparent" points="507,-273.2 507,-334.2 706,-334.2 706,-273.2 507,-273.2"/>
<polygon fill="#f5f5f5" stroke="transparent" points="507.5,-310.7 507.5,-333.7 706.5,-333.7 706.5,-310.7 507.5,-310.7"/>
<polygon fill="none" stroke="#000000" points="507.5,-310.7 507.5,-333.7 706.5,-333.7 706.5,-310.7 507.5,-310.7"/>
<text text-anchor="start" x="512.5" y="-319.3" font-family="Helvetica,sans-Serif" font-weight="bold" font-size="11.00" fill="#000000">global_datasetpublicationID</text>
<text text-anchor="start" x="672.0219" y="-318.8" font-family="Helvetica,sans-Serif" font-size="11.00" fill="#000000">[table]</text>
<polygon fill="none" stroke="#000000" points="507.5,-291.7 507.5,-310.7 706.5,-310.7 706.5,-291.7 507.5,-291.7"/>
<text text-anchor="start" x="510.5" y="-297.8" font-family="Helvetica,sans-Serif" font-size="11.00" fill="#000000">...</text>
<polygon fill="#ffffff" stroke="transparent" points="507.5,-272.7 507.5,-291.7 586.5,-291.7 586.5,-272.7 507.5,-272.7"/>
<polygon fill="none" stroke="#000000" points="507.5,-272.7 507.5,-291.7 586.5,-291.7 586.5,-272.7 507.5,-272.7"/>
<text text-anchor="start" x="510.5" y="-278.8" font-family="Helvetica,sans-Serif" font-size="11.00" fill="#000000">&lt; 2</text>
<polygon fill="#ffffff" stroke="transparent" points="586.5,-272.7 586.5,-291.7 665.5,-291.7 665.5,-272.7 586.5,-272.7"/>
<polygon fill="none" stroke="#000000" points="586.5,-272.7 586.5,-291.7 665.5,-291.7 665.5,-272.7 586.5,-272.7"/>
<text text-anchor="start" x="617.8807" y="-278.8" font-family="Helvetica,sans-Serif" font-size="11.00" fill="#000000">403 rows</text>
<polygon fill="#ffffff" stroke="transparent" points="665.5,-272.7 665.5,-291.7 706.5,-291.7 706.5,-272.7 665.5,-272.7"/>
<polygon fill="none" stroke="#000000" points="665.5,-272.7 665.5,-291.7 706.5,-291.7 706.5,-272.7 665.5,-272.7"/>
<text text-anchor="start" x="697.3862" y="-278.8" font-family="Helvetica,sans-Serif" font-size="11.00" fill="#000000"> &#160;</text>
</a>
</g>
</g>
<!-- global_datasetpublicationID&#45;&gt;global_DataSetMaster -->
<g id="edge4" class="edge">
<title>global_datasetpublicationID:w&#45;&gt;global_DataSetMaster:e</title>
<path fill="none" stroke="#000000" d="M493.2629,-298.2C481.5086,-293.7 475.3405,-284.7 458,-284.7"/>
<polygon fill="#000000" stroke="#000000" points="499.6206,-299.3163 506.8774,-304.2457 503.5603,-300.0082 507.5,-300.7 507.5,-300.7 507.5,-300.7 503.5603,-300.0082 508.1226,-297.1543 499.6206,-299.3163 499.6206,-299.3163"/>
<ellipse fill="none" stroke="#000000" cx="496.4688" cy="-298.7629" rx="3.2" ry="3.2"/>
</g>
<!-- ippd_Sample -->
<g id="node6" class="node">
<title>ippd_Sample</title>
<g id="a_node6"><a xlink:href="../../tables/ippd_Sample.html" xlink:title="ippd_Sample" target="_top">
<polygon fill="#ffffff" stroke="transparent" points="550,-191.2 550,-252.2 663,-252.2 663,-191.2 550,-191.2"/>
<polygon fill="#f5f5f5" stroke="transparent" points="550.5,-228.7 550.5,-251.7 663.5,-251.7 663.5,-228.7 550.5,-228.7"/>
<polygon fill="none" stroke="#000000" points="550.5,-228.7 550.5,-251.7 663.5,-251.7 663.5,-228.7 550.5,-228.7"/>
<text text-anchor="start" x="555.5" y="-237.3" font-family="Helvetica,sans-Serif" font-weight="bold" font-size="11.00" fill="#000000">ippd_Sample</text>
<text text-anchor="start" x="629.0219" y="-236.8" font-family="Helvetica,sans-Serif" font-size="11.00" fill="#000000">[table]</text>
<polygon fill="none" stroke="#000000" points="550.5,-209.7 550.5,-228.7 663.5,-228.7 663.5,-209.7 550.5,-209.7"/>
<text text-anchor="start" x="553.5" y="-215.8" font-family="Helvetica,sans-Serif" font-size="11.00" fill="#000000">...</text>
<polygon fill="#ffffff" stroke="transparent" points="550.5,-190.7 550.5,-209.7 574.5,-209.7 574.5,-190.7 550.5,-190.7"/>
<polygon fill="none" stroke="#000000" points="550.5,-190.7 550.5,-209.7 574.5,-209.7 574.5,-190.7 550.5,-190.7"/>
<text text-anchor="start" x="553.5" y="-196.8" font-family="Helvetica,sans-Serif" font-size="11.00" fill="#000000">&lt; 4</text>
<polygon fill="#ffffff" stroke="transparent" points="574.5,-190.7 574.5,-209.7 640.5,-209.7 640.5,-190.7 574.5,-190.7"/>
<polygon fill="none" stroke="#000000" points="574.5,-190.7 574.5,-209.7 640.5,-209.7 640.5,-190.7 574.5,-190.7"/>
<text text-anchor="start" x="577.594" y="-196.8" font-family="Helvetica,sans-Serif" font-size="11.00" fill="#000000">18.370 rows</text>
<polygon fill="#ffffff" stroke="transparent" points="640.5,-190.7 640.5,-209.7 663.5,-209.7 663.5,-190.7 640.5,-190.7"/>
<polygon fill="none" stroke="#000000" points="640.5,-190.7 640.5,-209.7 663.5,-209.7 663.5,-190.7 640.5,-190.7"/>
<text text-anchor="start" x="644.9053" y="-196.8" font-family="Helvetica,sans-Serif" font-size="11.00" fill="#000000">3 &gt;</text>
</a>
</g>
</g>
<!-- ippd_Sample&#45;&gt;global_DataSetMaster -->
<g id="edge5" class="edge">
<title>ippd_Sample:w&#45;&gt;global_DataSetMaster:e</title>
<path fill="none" stroke="#000000" d="M535.892,-220.8959C501.1517,-232.3479 502.9794,-284.7 458,-284.7"/>
<polygon fill="#000000" stroke="#000000" points="542.5889,-219.8893 551.0352,-222.26 546.5444,-219.2946 550.5,-218.7 550.5,-218.7 550.5,-218.7 546.5444,-219.2946 549.9648,-215.14 542.5889,-219.8893 542.5889,-219.8893"/>
<ellipse fill="none" stroke="#000000" cx="539.4244" cy="-220.365" rx="3.2" ry="3.2"/>
</g>
<!-- ippd_Sample&#45;&gt;global_DataSetMaster -->
<g id="edge6" class="edge">
<title>ippd_Sample:w&#45;&gt;global_DataSetMaster:e</title>
<path fill="none" stroke="#000000" d="M536.0065,-218.7C506.2268,-218.7 493.8116,-218.7 458,-218.7"/>
<polygon fill="#000000" stroke="#000000" points="542.5,-218.7001 550.5,-222.3 546.5,-218.7 550.5,-218.7 550.5,-218.7 550.5,-218.7 546.5,-218.7 550.5,-215.1 542.5,-218.7001 542.5,-218.7001"/>
<ellipse fill="none" stroke="#000000" cx="539.3" cy="-218.7001" rx="3.2" ry="3.2"/>
</g>
</g>
</svg>
