<?xml version="1.0" encoding="UTF-8" standalone="no"?>
<!DOCTYPE svg PUBLIC "-//W3C//DTD SVG 1.1//EN"
 "http://www.w3.org/Graphics/SVG/1.1/DTD/svg11.dtd">
<!-- Generated by graphviz version 2.40.1 (20161225.0304)
 -->
<!-- Title: twoDegreesRelationshipsDiagram Pages: 1 -->
<svg width="572pt" height="521pt"
 viewBox="0.00 0.00 572.00 521.20" xmlns="http://www.w3.org/2000/svg" xmlns:xlink="http://www.w3.org/1999/xlink">
<g id="graph0" class="graph" transform="scale(1 1) rotate(0) translate(4 517.2)">
<title>twoDegreesRelationshipsDiagram</title>
<polygon fill="#ffffff" stroke="transparent" points="-4,4 -4,-517.2 568,-517.2 568,4 -4,4"/>
<text text-anchor="middle" x="72.4936" y="-7.3" font-family="Helvetica,sans-Serif" font-size="11.00" fill="#000000">Generated by SchemaSpy</text>
<!-- arch_Sample -->
<g id="node1" class="node">
<title>arch_Sample</title>
<g id="a_node1"><a xlink:href="../../tables/arch_Sample.html" xlink:title="arch_Sample" target="_top">
<polygon fill="#ffffff" stroke="transparent" points="441.5,-448.2 441.5,-509.2 548.5,-509.2 548.5,-448.2 441.5,-448.2"/>
<polygon fill="#f5f5f5" stroke="transparent" points="442,-485.7 442,-508.7 549,-508.7 549,-485.7 442,-485.7"/>
<polygon fill="none" stroke="#000000" points="442,-485.7 442,-508.7 549,-508.7 549,-485.7 442,-485.7"/>
<text text-anchor="start" x="446.605" y="-494.8" font-family="Helvetica,sans-Serif" font-weight="bold" font-size="11.00" fill="#000000">arch_Sample</text>
<text text-anchor="start" x="514.5219" y="-493.8" font-family="Helvetica,sans-Serif" font-size="11.00" fill="#000000">[table]</text>
<polygon fill="none" stroke="#000000" points="442,-466.7 442,-485.7 549,-485.7 549,-466.7 442,-466.7"/>
<text text-anchor="start" x="445" y="-472.8" font-family="Helvetica,sans-Serif" font-size="11.00" fill="#000000">...</text>
<polygon fill="#ffffff" stroke="transparent" points="442,-447.7 442,-466.7 463,-466.7 463,-447.7 442,-447.7"/>
<polygon fill="none" stroke="#000000" points="442,-447.7 442,-466.7 463,-466.7 463,-447.7 442,-447.7"/>
<text text-anchor="start" x="444.7027" y="-453.8" font-family="Helvetica,sans-Serif" font-size="11.00" fill="#000000">&lt; 2</text>
<polygon fill="#ffffff" stroke="transparent" points="463,-447.7 463,-466.7 528,-466.7 528,-447.7 463,-447.7"/>
<polygon fill="none" stroke="#000000" points="463,-447.7 463,-466.7 528,-466.7 528,-447.7 463,-447.7"/>
<text text-anchor="start" x="465.547" y="-453.8" font-family="Helvetica,sans-Serif" font-size="11.00" fill="#000000">10,412 rows</text>
<polygon fill="#ffffff" stroke="transparent" points="528,-447.7 528,-466.7 549,-466.7 549,-447.7 528,-447.7"/>
<polygon fill="none" stroke="#000000" points="528,-447.7 528,-466.7 549,-466.7 549,-447.7 528,-447.7"/>
<text text-anchor="start" x="530.7026" y="-453.8" font-family="Helvetica,sans-Serif" font-size="11.00" fill="#000000">3 &gt;</text>
</a>
</g>
</g>
<!-- global_SiteMaster -->
<g id="node2" class="node">
<title>global_SiteMaster</title>
<g id="a_node2"><a xlink:href="../../tables/global_SiteMaster.html" xlink:title="global_SiteMaster" target="_top">
<polygon fill="#ffffff" stroke="transparent" points="254,-175.2 254,-346.2 385,-346.2 385,-175.2 254,-175.2"/>
<polygon fill="#f5f5f5" stroke="transparent" points="254.5,-322.7 254.5,-345.7 385.5,-345.7 385.5,-322.7 254.5,-322.7"/>
<polygon fill="none" stroke="#000000" points="254.5,-322.7 254.5,-345.7 385.5,-345.7 385.5,-322.7 254.5,-322.7"/>
<text text-anchor="start" x="259.4923" y="-331.8" font-family="Helvetica,sans-Serif" font-weight="bold" font-size="11.00" fill="#000000">global_SiteMaster</text>
<text text-anchor="start" x="351.0219" y="-330.8" font-family="Helvetica,sans-Serif" font-size="11.00" fill="#000000">[table]</text>
<polygon fill="none" stroke="#000000" points="254.5,-300.7 254.5,-322.7 385.5,-322.7 385.5,-300.7 254.5,-300.7"/>
<image xlink:href="../../images/primaryKeys.png" width="11px" height="12px" preserveAspectRatio="xMinYMin meet" x="259.5" y="-317.7"/>
<text text-anchor="start" x="278.5" y="-307.8" font-family="Helvetica,sans-Serif" font-size="11.00" fill="#000000">SITEID</text>
<polygon fill="none" stroke="#000000" points="254.5,-278.7 254.5,-300.7 385.5,-300.7 385.5,-278.7 254.5,-278.7"/>
<image xlink:href="../../images/foreignKeys.png" width="11px" height="12px" preserveAspectRatio="xMinYMin meet" x="259.5" y="-295.7"/>
<text text-anchor="start" x="278.5" y="-285.8" font-family="Helvetica,sans-Serif" font-size="11.00" fill="#000000">METASITEID</text>
<polygon fill="none" stroke="#000000" points="254.5,-256.7 254.5,-278.7 385.5,-278.7 385.5,-256.7 254.5,-256.7"/>
<image xlink:href="../../images/foreignKeys.png" width="11px" height="12px" preserveAspectRatio="xMinYMin meet" x="259.5" y="-273.7"/>
<text text-anchor="start" x="278.5" y="-263.8" font-family="Helvetica,sans-Serif" font-size="11.00" fill="#000000">RIVID</text>
<polygon fill="none" stroke="#000000" points="254.5,-234.7 254.5,-256.7 385.5,-256.7 385.5,-234.7 254.5,-234.7"/>
<image xlink:href="../../images/foreignKeys.png" width="11px" height="12px" preserveAspectRatio="xMinYMin meet" x="259.5" y="-251.7"/>
<text text-anchor="start" x="278.5" y="-241.8" font-family="Helvetica,sans-Serif" font-size="11.00" fill="#000000">IBRAID</text>
<polygon fill="none" stroke="#000000" points="254.5,-212.7 254.5,-234.7 385.5,-234.7 385.5,-212.7 254.5,-212.7"/>
<image xlink:href="../../images/foreignKeys.png" width="11px" height="12px" preserveAspectRatio="xMinYMin meet" x="259.5" y="-229.7"/>
<text text-anchor="start" x="278.5" y="-219.8" font-family="Helvetica,sans-Serif" font-size="11.00" fill="#000000">SITECODEID</text>
<polygon fill="none" stroke="#000000" points="254.5,-193.7 254.5,-212.7 385.5,-212.7 385.5,-193.7 254.5,-193.7"/>
<text text-anchor="start" x="257.5" y="-199.8" font-family="Helvetica,sans-Serif" font-size="11.00" fill="#000000">...</text>
<polygon fill="#ffffff" stroke="transparent" points="254.5,-174.7 254.5,-193.7 287.5,-193.7 287.5,-174.7 254.5,-174.7"/>
<polygon fill="none" stroke="#000000" points="254.5,-174.7 254.5,-193.7 287.5,-193.7 287.5,-174.7 254.5,-174.7"/>
<text text-anchor="start" x="257.5" y="-180.8" font-family="Helvetica,sans-Serif" font-size="11.00" fill="#000000">&lt; 4</text>
<polygon fill="#ffffff" stroke="transparent" points="287.5,-174.7 287.5,-193.7 358.5,-193.7 358.5,-174.7 287.5,-174.7"/>
<polygon fill="none" stroke="#000000" points="287.5,-174.7 287.5,-193.7 358.5,-193.7 358.5,-174.7 287.5,-174.7"/>
<text text-anchor="start" x="295.594" y="-180.8" font-family="Helvetica,sans-Serif" font-size="11.00" fill="#000000">23,245 rows</text>
<polygon fill="#ffffff" stroke="transparent" points="358.5,-174.7 358.5,-193.7 385.5,-193.7 385.5,-174.7 358.5,-174.7"/>
<polygon fill="none" stroke="#000000" points="358.5,-174.7 358.5,-193.7 385.5,-193.7 385.5,-174.7 358.5,-174.7"/>
<text text-anchor="start" x="366.9053" y="-180.8" font-family="Helvetica,sans-Serif" font-size="11.00" fill="#000000">5 &gt;</text>
</a>
</g>
</g>
<!-- arch_Sample&#45;&gt;global_SiteMaster -->
<g id="edge1" class="edge">
<title>arch_Sample:w&#45;&gt;global_SiteMaster:e</title>
<path fill="none" stroke="#000000" d="M427.5801,-473.124C378.4444,-452.2596 456.8714,-311.7 385.5,-311.7"/>
<polygon fill="#000000" stroke="#000000" points="434.1247,-474.2931 441.3669,-479.2439 438.0623,-474.9965 442,-475.7 442,-475.7 442,-475.7 438.0623,-474.9965 442.6331,-472.1561 434.1247,-474.2931 434.1247,-474.2931"/>
<ellipse fill="none" stroke="#000000" cx="430.9746" cy="-473.7303" rx="3.2" ry="3.2"/>
</g>
<!-- global_ibraID -->
<g id="node6" class="node">
<title>global_ibraID</title>
<g id="a_node6"><a xlink:href="../../tables/global_ibraID.html" xlink:title="global_ibraID" target="_top">
<polygon fill="#ffffff" stroke="transparent" points="53,-120.2 53,-181.2 160,-181.2 160,-120.2 53,-120.2"/>
<polygon fill="#f5f5f5" stroke="transparent" points="53.5,-157.7 53.5,-180.7 160.5,-180.7 160.5,-157.7 53.5,-157.7"/>
<polygon fill="none" stroke="#000000" points="53.5,-157.7 53.5,-180.7 160.5,-180.7 160.5,-157.7 53.5,-157.7"/>
<text text-anchor="start" x="58.1067" y="-166.8" font-family="Helvetica,sans-Serif" font-weight="bold" font-size="11.00" fill="#000000">global_ibraID</text>
<text text-anchor="start" x="126.0219" y="-165.8" font-family="Helvetica,sans-Serif" font-size="11.00" fill="#000000">[table]</text>
<polygon fill="none" stroke="#000000" points="53.5,-138.7 53.5,-157.7 160.5,-157.7 160.5,-138.7 53.5,-138.7"/>
<text text-anchor="start" x="56.5" y="-144.8" font-family="Helvetica,sans-Serif" font-size="11.00" fill="#000000">...</text>
<polygon fill="#ffffff" stroke="transparent" points="53.5,-119.7 53.5,-138.7 80.5,-138.7 80.5,-119.7 53.5,-119.7"/>
<polygon fill="none" stroke="#000000" points="53.5,-119.7 53.5,-138.7 80.5,-138.7 80.5,-119.7 53.5,-119.7"/>
<text text-anchor="start" x="56.5" y="-125.8" font-family="Helvetica,sans-Serif" font-size="11.00" fill="#000000"> &#160;</text>
<polygon fill="#ffffff" stroke="transparent" points="80.5,-119.7 80.5,-138.7 131.5,-138.7 131.5,-119.7 80.5,-119.7"/>
<polygon fill="none" stroke="#000000" points="80.5,-119.7 80.5,-138.7 131.5,-138.7 131.5,-119.7 80.5,-119.7"/>
<text text-anchor="start" x="89.9956" y="-125.8" font-family="Helvetica,sans-Serif" font-size="11.00" fill="#000000">90 rows</text>
<polygon fill="#ffffff" stroke="transparent" points="131.5,-119.7 131.5,-138.7 160.5,-138.7 160.5,-119.7 131.5,-119.7"/>
<polygon fill="none" stroke="#000000" points="131.5,-119.7 131.5,-138.7 160.5,-138.7 160.5,-119.7 131.5,-119.7"/>
<text text-anchor="start" x="141.9053" y="-125.8" font-family="Helvetica,sans-Serif" font-size="11.00" fill="#000000">1 &gt;</text>
</a>
</g>
</g>
<!-- global_SiteMaster&#45;&gt;global_ibraID -->
<g id="edge5" class="edge">
<title>global_SiteMaster:w&#45;&gt;global_ibraID:e</title>
<path fill="none" stroke="#000000" d="M240.5218,-242.1605C227.05,-233.3541 229.4801,-209.9273 213,-192.7 191.7562,-170.4931 191.2318,-147.7 160.5,-147.7"/>
<polygon fill="#000000" stroke="#000000" points="246.7448,-243.7362 253.6163,-249.1899 250.6224,-244.7181 254.5,-245.7 254.5,-245.7 254.5,-245.7 250.6224,-244.7181 255.3837,-242.2101 246.7448,-243.7362 246.7448,-243.7362"/>
<ellipse fill="none" stroke="#000000" cx="243.6427" cy="-242.9507" rx="3.2" ry="3.2"/>
</g>
<!-- global_MetaSite -->
<g id="node7" class="node">
<title>global_MetaSite</title>
<g id="a_node7"><a xlink:href="../../tables/global_MetaSite.html" xlink:title="global_MetaSite" target="_top">
<polygon fill="#ffffff" stroke="transparent" points="46,-424.2 46,-485.2 167,-485.2 167,-424.2 46,-424.2"/>
<polygon fill="#f5f5f5" stroke="transparent" points="46.5,-461.7 46.5,-484.7 167.5,-484.7 167.5,-461.7 46.5,-461.7"/>
<polygon fill="none" stroke="#000000" points="46.5,-461.7 46.5,-484.7 167.5,-484.7 167.5,-461.7 46.5,-461.7"/>
<text text-anchor="start" x="51.0733" y="-470.8" font-family="Helvetica,sans-Serif" font-weight="bold" font-size="11.00" fill="#000000">global_MetaSite</text>
<text text-anchor="start" x="133.0219" y="-469.8" font-family="Helvetica,sans-Serif" font-size="11.00" fill="#000000">[table]</text>
<polygon fill="none" stroke="#000000" points="46.5,-442.7 46.5,-461.7 167.5,-461.7 167.5,-442.7 46.5,-442.7"/>
<text text-anchor="start" x="49.5" y="-448.8" font-family="Helvetica,sans-Serif" font-size="11.00" fill="#000000">...</text>
<polygon fill="#ffffff" stroke="transparent" points="46.5,-423.7 46.5,-442.7 72.5,-442.7 72.5,-423.7 46.5,-423.7"/>
<polygon fill="none" stroke="#000000" points="46.5,-423.7 46.5,-442.7 72.5,-442.7 72.5,-423.7 46.5,-423.7"/>
<text text-anchor="start" x="49.5" y="-429.8" font-family="Helvetica,sans-Serif" font-size="11.00" fill="#000000"> &#160;</text>
<polygon fill="#ffffff" stroke="transparent" points="72.5,-423.7 72.5,-442.7 138.5,-442.7 138.5,-423.7 72.5,-423.7"/>
<polygon fill="none" stroke="#000000" points="72.5,-423.7 72.5,-442.7 138.5,-442.7 138.5,-423.7 72.5,-423.7"/>
<text text-anchor="start" x="81.7089" y="-429.8" font-family="Helvetica,sans-Serif" font-size="11.00" fill="#000000">7,686 rows</text>
<polygon fill="#ffffff" stroke="transparent" points="138.5,-423.7 138.5,-442.7 167.5,-442.7 167.5,-423.7 138.5,-423.7"/>
<polygon fill="none" stroke="#000000" points="138.5,-423.7 138.5,-442.7 167.5,-442.7 167.5,-423.7 138.5,-423.7"/>
<text text-anchor="start" x="148.9053" y="-429.8" font-family="Helvetica,sans-Serif" font-size="11.00" fill="#000000">1 &gt;</text>
</a>
</g>
</g>
<!-- global_SiteMaster&#45;&gt;global_MetaSite -->
<g id="edge6" class="edge">
<title>global_SiteMaster:w&#45;&gt;global_MetaSite:e</title>
<path fill="none" stroke="#000000" d="M239.9207,-291.9429C205.5675,-304.8489 242.4374,-370.5761 213,-413.7 198.1457,-435.4606 193.8472,-451.7 167.5,-451.7"/>
<polygon fill="#000000" stroke="#000000" points="246.593,-290.9165 255.0474,-293.2581 250.5465,-290.3082 254.5,-289.7 254.5,-289.7 254.5,-289.7 250.5465,-290.3082 253.9526,-286.1419 246.593,-290.9165 246.593,-290.9165"/>
<ellipse fill="none" stroke="#000000" cx="243.4302" cy="-291.403" rx="3.2" ry="3.2"/>
</g>
<!-- global_rivID -->
<g id="node8" class="node">
<title>global_rivID</title>
<g id="a_node8"><a xlink:href="../../tables/global_rivID.html" xlink:title="global_rivID" target="_top">
<polygon fill="#ffffff" stroke="transparent" points="8,-202.7 8,-402.7 205,-402.7 205,-202.7 8,-202.7"/>
<polygon fill="#f5f5f5" stroke="transparent" points="10.5,-377.7 10.5,-400.7 203.5,-400.7 203.5,-377.7 10.5,-377.7"/>
<polygon fill="none" stroke="#000000" points="10.5,-377.7 10.5,-400.7 203.5,-400.7 203.5,-377.7 10.5,-377.7"/>
<text text-anchor="start" x="15.5" y="-386.8" font-family="Helvetica,sans-Serif" font-weight="bold" font-size="11.00" fill="#000000">global_rivID</text>
<text text-anchor="start" x="168.5437" y="-385.8" font-family="Helvetica,sans-Serif" font-size="11.00" fill="#000000">[table]</text>
<polygon fill="none" stroke="#000000" points="10.5,-355.7 10.5,-377.7 111.5,-377.7 111.5,-355.7 10.5,-355.7"/>
<image xlink:href="../../images/primaryKeys.png" width="11px" height="12px" preserveAspectRatio="xMinYMin meet" x="15.5" y="-372.7"/>
<text text-anchor="start" x="30.5" y="-362.8" font-family="Helvetica,sans-Serif" font-size="11.00" fill="#000000">RIVID</text>
<polygon fill="none" stroke="#000000" points="111.5,-355.7 111.5,-377.7 203.5,-377.7 203.5,-355.7 111.5,-355.7"/>
<text text-anchor="start" x="114.5" y="-363.4" font-family="Helvetica,sans-Serif" font-size="11.00" fill="#000000">int2[5]</text>
<polygon fill="none" stroke="#000000" points="10.5,-333.7 10.5,-355.7 111.5,-355.7 111.5,-333.7 10.5,-333.7"/>
<text text-anchor="start" x="30.5" y="-340.8" font-family="Helvetica,sans-Serif" font-size="11.00" fill="#000000">AHGFL1</text>
<polygon fill="none" stroke="#000000" points="111.5,-333.7 111.5,-355.7 203.5,-355.7 203.5,-333.7 111.5,-333.7"/>
<text text-anchor="start" x="114.5" y="-341.4" font-family="Helvetica,sans-Serif" font-size="11.00" fill="#000000">varchar[3]</text>
<polygon fill="#ffffff" stroke="transparent" points="10.5,-311.7 10.5,-333.7 111.5,-333.7 111.5,-311.7 10.5,-311.7"/>
<polygon fill="none" stroke="#000000" points="10.5,-311.7 10.5,-333.7 111.5,-333.7 111.5,-311.7 10.5,-311.7"/>
<text text-anchor="start" x="30.5" y="-318.8" font-family="Helvetica,sans-Serif" font-size="11.00" fill="#000000">AHGFL2</text>
<polygon fill="none" stroke="#000000" points="111.5,-311.7 111.5,-333.7 203.5,-333.7 203.5,-311.7 111.5,-311.7"/>
<text text-anchor="start" x="114.5" y="-319.4" font-family="Helvetica,sans-Serif" font-size="11.00" fill="#000000">varchar[6]</text>
<polygon fill="none" stroke="#000000" points="10.5,-289.7 10.5,-311.7 111.5,-311.7 111.5,-289.7 10.5,-289.7"/>
<text text-anchor="start" x="30.5" y="-296.8" font-family="Helvetica,sans-Serif" font-size="11.00" fill="#000000">RIVNAME</text>
<polygon fill="none" stroke="#000000" points="111.5,-289.7 111.5,-311.7 203.5,-311.7 203.5,-289.7 111.5,-289.7"/>
<text text-anchor="start" x="114.5" y="-297.4" font-family="Helvetica,sans-Serif" font-size="11.00" fill="#000000">text[2147483647]</text>
<polygon fill="none" stroke="#000000" points="10.5,-267.7 10.5,-289.7 111.5,-289.7 111.5,-267.7 10.5,-267.7"/>
<text text-anchor="start" x="30.5" y="-274.8" font-family="Helvetica,sans-Serif" font-size="11.00" fill="#000000">RIVDIV</text>
<polygon fill="none" stroke="#000000" points="111.5,-267.7 111.5,-289.7 203.5,-289.7 203.5,-267.7 111.5,-267.7"/>
<text text-anchor="start" x="114.5" y="-275.4" font-family="Helvetica,sans-Serif" font-size="11.00" fill="#000000">text[2147483647]</text>
<polygon fill="none" stroke="#000000" points="10.5,-245.7 10.5,-267.7 111.5,-267.7 111.5,-245.7 10.5,-245.7"/>
<text text-anchor="start" x="30.5" y="-252.8" font-family="Helvetica,sans-Serif" font-size="11.00" fill="#000000">CREATED_AT</text>
<polygon fill="none" stroke="#000000" points="111.5,-245.7 111.5,-267.7 203.5,-267.7 203.5,-245.7 111.5,-245.7"/>
<text text-anchor="start" x="114.1023" y="-253.4" font-family="Helvetica,sans-Serif" font-size="11.00" fill="#000000">timestamptz[35,6]</text>
<polygon fill="none" stroke="#000000" points="10.5,-223.7 10.5,-245.7 111.5,-245.7 111.5,-223.7 10.5,-223.7"/>
<text text-anchor="start" x="30.5" y="-230.8" font-family="Helvetica,sans-Serif" font-size="11.00" fill="#000000">UPDATED_AT</text>
<polygon fill="none" stroke="#000000" points="111.5,-223.7 111.5,-245.7 203.5,-245.7 203.5,-223.7 111.5,-223.7"/>
<text text-anchor="start" x="114.1023" y="-231.4" font-family="Helvetica,sans-Serif" font-size="11.00" fill="#000000">timestamptz[35,6]</text>
<polygon fill="#ffffff" stroke="transparent" points="10.5,-204.7 10.5,-223.7 46.5,-223.7 46.5,-204.7 10.5,-204.7"/>
<polygon fill="none" stroke="#000000" points="10.5,-204.7 10.5,-223.7 46.5,-223.7 46.5,-204.7 10.5,-204.7"/>
<text text-anchor="start" x="13.5" y="-210.8" font-family="Helvetica,sans-Serif" font-size="11.00" fill="#000000">&lt; 0</text>
<polygon fill="#ffffff" stroke="transparent" points="46.5,-204.7 46.5,-223.7 111.5,-223.7 111.5,-204.7 46.5,-204.7"/>
<polygon fill="none" stroke="#000000" points="46.5,-204.7 46.5,-223.7 111.5,-223.7 111.5,-204.7 46.5,-204.7"/>
<text text-anchor="start" x="63.8807" y="-210.8" font-family="Helvetica,sans-Serif" font-size="11.00" fill="#000000">219 rows</text>
<polygon fill="#ffffff" stroke="transparent" points="111.5,-204.7 111.5,-223.7 203.5,-223.7 203.5,-204.7 111.5,-204.7"/>
<polygon fill="none" stroke="#000000" points="111.5,-204.7 111.5,-223.7 203.5,-223.7 203.5,-204.7 111.5,-204.7"/>
<text text-anchor="start" x="184.9053" y="-210.8" font-family="Helvetica,sans-Serif" font-size="11.00" fill="#000000">1 &gt;</text>
<polygon fill="none" stroke="#000000" stroke-width="2" points="9,-203.7 9,-401.7 204,-401.7 204,-203.7 9,-203.7"/>
</a>
</g>
</g>
<!-- global_SiteMaster&#45;&gt;global_rivID -->
<g id="edge7" class="edge">
<title>global_SiteMaster:w&#45;&gt;global_rivID:e</title>
<path fill="none" stroke="#000000" d="M240.4616,-271.7035C215.198,-290.2249 247.0017,-366.7 203.5,-366.7"/>
<polygon fill="#000000" stroke="#000000" points="246.8067,-269.894 255.4873,-271.162 250.6534,-268.797 254.5,-267.7 254.5,-267.7 254.5,-267.7 250.6534,-268.797 253.5127,-264.238 246.8067,-269.894 246.8067,-269.894"/>
<ellipse fill="none" stroke="#000000" cx="243.7294" cy="-270.7717" rx="3.2" ry="3.2"/>
</g>
<!-- global_SiteCode -->
<g id="node9" class="node">
<title>global_SiteCode</title>
<g id="a_node9"><a xlink:href="../../tables/global_SiteCode.html" xlink:title="global_SiteCode" target="_top">
<polygon fill="#ffffff" stroke="transparent" points="45,-38.2 45,-99.2 168,-99.2 168,-38.2 45,-38.2"/>
<polygon fill="#f5f5f5" stroke="transparent" points="45.5,-75.7 45.5,-98.7 168.5,-98.7 168.5,-75.7 45.5,-75.7"/>
<polygon fill="none" stroke="#000000" points="45.5,-75.7 45.5,-98.7 168.5,-98.7 168.5,-75.7 45.5,-75.7"/>
<text text-anchor="start" x="50.1548" y="-84.8" font-family="Helvetica,sans-Serif" font-weight="bold" font-size="11.00" fill="#000000">global_SiteCode</text>
<text text-anchor="start" x="134.0219" y="-83.8" font-family="Helvetica,sans-Serif" font-size="11.00" fill="#000000">[table]</text>
<polygon fill="none" stroke="#000000" points="45.5,-56.7 45.5,-75.7 168.5,-75.7 168.5,-56.7 45.5,-56.7"/>
<text text-anchor="start" x="48.5" y="-62.8" font-family="Helvetica,sans-Serif" font-size="11.00" fill="#000000">...</text>
<polygon fill="#ffffff" stroke="transparent" points="45.5,-37.7 45.5,-56.7 84.5,-56.7 84.5,-37.7 45.5,-37.7"/>
<polygon fill="none" stroke="#000000" points="45.5,-37.7 45.5,-56.7 84.5,-56.7 84.5,-37.7 45.5,-37.7"/>
<text text-anchor="start" x="48.5" y="-43.8" font-family="Helvetica,sans-Serif" font-size="11.00" fill="#000000">&lt; 1</text>
<polygon fill="#ffffff" stroke="transparent" points="84.5,-37.7 84.5,-56.7 137.5,-56.7 137.5,-37.7 84.5,-37.7"/>
<polygon fill="none" stroke="#000000" points="84.5,-37.7 84.5,-56.7 137.5,-56.7 137.5,-37.7 84.5,-37.7"/>
<text text-anchor="start" x="95.9956" y="-43.8" font-family="Helvetica,sans-Serif" font-size="11.00" fill="#000000">74 rows</text>
<polygon fill="#ffffff" stroke="transparent" points="137.5,-37.7 137.5,-56.7 168.5,-56.7 168.5,-37.7 137.5,-37.7"/>
<polygon fill="none" stroke="#000000" points="137.5,-37.7 137.5,-56.7 168.5,-56.7 168.5,-37.7 137.5,-37.7"/>
<text text-anchor="start" x="149.9053" y="-43.8" font-family="Helvetica,sans-Serif" font-size="11.00" fill="#000000">2 &gt;</text>
</a>
</g>
</g>
<!-- global_SiteMaster&#45;&gt;global_SiteCode -->
<g id="edge8" class="edge">
<title>global_SiteMaster:w&#45;&gt;global_SiteCode:e</title>
<path fill="none" stroke="#000000" d="M240.0156,-221.3579C208.8182,-208.9698 238.9177,-150.1276 213,-109.7 197.989,-86.2852 196.3133,-65.7 168.5,-65.7"/>
<polygon fill="#000000" stroke="#000000" points="246.6026,-222.423 253.9253,-227.2538 250.5513,-223.0615 254.5,-223.7 254.5,-223.7 254.5,-223.7 250.5513,-223.0615 255.0747,-220.1462 246.6026,-222.423 246.6026,-222.423"/>
<ellipse fill="none" stroke="#000000" cx="243.4436" cy="-221.9121" rx="3.2" ry="3.2"/>
</g>
<!-- crn_Sample -->
<g id="node3" class="node">
<title>crn_Sample</title>
<g id="a_node3"><a xlink:href="../../tables/crn_Sample.html" xlink:title="crn_Sample" target="_top">
<polygon fill="#ffffff" stroke="transparent" points="444.5,-366.2 444.5,-427.2 545.5,-427.2 545.5,-366.2 444.5,-366.2"/>
<polygon fill="#f5f5f5" stroke="transparent" points="445,-403.7 445,-426.7 546,-426.7 546,-403.7 445,-403.7"/>
<polygon fill="none" stroke="#000000" points="445,-403.7 445,-426.7 546,-426.7 546,-403.7 445,-403.7"/>
<text text-anchor="start" x="449.6625" y="-412.8" font-family="Helvetica,sans-Serif" font-weight="bold" font-size="11.00" fill="#000000">crn_Sample</text>
<text text-anchor="start" x="511.5219" y="-411.8" font-family="Helvetica,sans-Serif" font-size="11.00" fill="#000000">[table]</text>
<polygon fill="none" stroke="#000000" points="445,-384.7 445,-403.7 546,-403.7 546,-384.7 445,-384.7"/>
<text text-anchor="start" x="448" y="-390.8" font-family="Helvetica,sans-Serif" font-size="11.00" fill="#000000">...</text>
<polygon fill="#ffffff" stroke="transparent" points="445,-365.7 445,-384.7 466,-384.7 466,-365.7 445,-365.7"/>
<polygon fill="none" stroke="#000000" points="445,-365.7 445,-384.7 466,-384.7 466,-365.7 445,-365.7"/>
<text text-anchor="start" x="447.7027" y="-371.8" font-family="Helvetica,sans-Serif" font-size="11.00" fill="#000000">&lt; 3</text>
<polygon fill="#ffffff" stroke="transparent" points="466,-365.7 466,-384.7 525,-384.7 525,-365.7 466,-365.7"/>
<polygon fill="none" stroke="#000000" points="466,-365.7 466,-384.7 525,-384.7 525,-365.7 466,-365.7"/>
<text text-anchor="start" x="468.6045" y="-371.8" font-family="Helvetica,sans-Serif" font-size="11.00" fill="#000000">4,588 rows</text>
<polygon fill="#ffffff" stroke="transparent" points="525,-365.7 525,-384.7 546,-384.7 546,-365.7 525,-365.7"/>
<polygon fill="none" stroke="#000000" points="525,-365.7 525,-384.7 546,-384.7 546,-365.7 525,-365.7"/>
<text text-anchor="start" x="527.7026" y="-371.8" font-family="Helvetica,sans-Serif" font-size="11.00" fill="#000000">2 &gt;</text>
</a>
</g>
</g>
<!-- crn_Sample&#45;&gt;global_SiteMaster -->
<g id="edge2" class="edge">
<title>crn_Sample:w&#45;&gt;global_SiteMaster:e</title>
<path fill="none" stroke="#000000" d="M431.031,-389.9636C406.5938,-373.922 424.7235,-311.7 385.5,-311.7"/>
<polygon fill="#000000" stroke="#000000" points="437.2717,-391.6328 444.0698,-397.1777 441.1358,-392.6664 445,-393.7 445,-393.7 445,-393.7 441.1358,-392.6664 445.9302,-390.2223 437.2717,-391.6328 437.2717,-391.6328"/>
<ellipse fill="none" stroke="#000000" cx="434.1804" cy="-390.8059" rx="3.2" ry="3.2"/>
</g>
<!-- expage_Sample -->
<g id="node4" class="node">
<title>expage_Sample</title>
<g id="a_node4"><a xlink:href="../../tables/expage_Sample.html" xlink:title="expage_Sample" target="_top">
<polygon fill="#ffffff" stroke="transparent" points="434,-284.2 434,-345.2 556,-345.2 556,-284.2 434,-284.2"/>
<polygon fill="#f5f5f5" stroke="transparent" points="434,-321.7 434,-344.7 556,-344.7 556,-321.7 434,-321.7"/>
<polygon fill="none" stroke="#000000" points="434,-321.7 434,-344.7 556,-344.7 556,-321.7 434,-321.7"/>
<text text-anchor="start" x="438.7636" y="-330.8" font-family="Helvetica,sans-Serif" font-weight="bold" font-size="11.00" fill="#000000">expage_Sample</text>
<text text-anchor="start" x="521.5219" y="-329.8" font-family="Helvetica,sans-Serif" font-size="11.00" fill="#000000">[table]</text>
<polygon fill="none" stroke="#000000" points="434,-302.7 434,-321.7 556,-321.7 556,-302.7 434,-302.7"/>
<text text-anchor="start" x="437" y="-308.8" font-family="Helvetica,sans-Serif" font-size="11.00" fill="#000000">...</text>
<polygon fill="#ffffff" stroke="transparent" points="434,-283.7 434,-302.7 462,-302.7 462,-283.7 434,-283.7"/>
<polygon fill="none" stroke="#000000" points="434,-283.7 434,-302.7 462,-302.7 462,-283.7 434,-283.7"/>
<text text-anchor="start" x="437" y="-289.8" font-family="Helvetica,sans-Serif" font-size="11.00" fill="#000000">&lt; 2</text>
<polygon fill="#ffffff" stroke="transparent" points="462,-283.7 462,-302.7 531,-302.7 531,-283.7 462,-283.7"/>
<polygon fill="none" stroke="#000000" points="462,-283.7 462,-302.7 531,-302.7 531,-283.7 462,-283.7"/>
<text text-anchor="start" x="468.094" y="-289.8" font-family="Helvetica,sans-Serif" font-size="11.00" fill="#000000">15,805 rows</text>
<polygon fill="#ffffff" stroke="transparent" points="531,-283.7 531,-302.7 556,-302.7 556,-283.7 531,-283.7"/>
<polygon fill="none" stroke="#000000" points="531,-283.7 531,-302.7 556,-302.7 556,-283.7 531,-283.7"/>
<text text-anchor="start" x="537.4053" y="-289.8" font-family="Helvetica,sans-Serif" font-size="11.00" fill="#000000">1 &gt;</text>
</a>
</g>
</g>
<!-- expage_Sample&#45;&gt;global_SiteMaster -->
<g id="edge3" class="edge">
<title>expage_Sample:w&#45;&gt;global_SiteMaster:e</title>
<path fill="none" stroke="#000000" d="M419.2829,-311.7C408.2886,-311.7 401.1615,-311.7 385.5,-311.7"/>
<polygon fill="#000000" stroke="#000000" points="426,-311.7001 434,-315.3 430,-311.7 434,-311.7 434,-311.7 434,-311.7 430,-311.7 434,-308.1 426,-311.7001 426,-311.7001"/>
<ellipse fill="none" stroke="#000000" cx="422.8" cy="-311.7001" rx="3.2" ry="3.2"/>
</g>
<!-- fos_Sample -->
<g id="node5" class="node">
<title>fos_Sample</title>
<g id="a_node5"><a xlink:href="../../tables/fos_Sample.html" xlink:title="fos_Sample" target="_top">
<polygon fill="#ffffff" stroke="transparent" points="444.5,-202.2 444.5,-263.2 545.5,-263.2 545.5,-202.2 444.5,-202.2"/>
<polygon fill="#f5f5f5" stroke="transparent" points="445,-239.7 445,-262.7 546,-262.7 546,-239.7 445,-239.7"/>
<polygon fill="none" stroke="#000000" points="445,-239.7 445,-262.7 546,-262.7 546,-239.7 445,-239.7"/>
<text text-anchor="start" x="449.965" y="-248.8" font-family="Helvetica,sans-Serif" font-weight="bold" font-size="11.00" fill="#000000">fos_Sample</text>
<text text-anchor="start" x="511.5219" y="-247.8" font-family="Helvetica,sans-Serif" font-size="11.00" fill="#000000">[table]</text>
<polygon fill="none" stroke="#000000" points="445,-220.7 445,-239.7 546,-239.7 546,-220.7 445,-220.7"/>
<text text-anchor="start" x="448" y="-226.8" font-family="Helvetica,sans-Serif" font-size="11.00" fill="#000000">...</text>
<polygon fill="#ffffff" stroke="transparent" points="445,-201.7 445,-220.7 466,-220.7 466,-201.7 445,-201.7"/>
<polygon fill="none" stroke="#000000" points="445,-201.7 445,-220.7 466,-220.7 466,-201.7 445,-201.7"/>
<text text-anchor="start" x="447.7027" y="-207.8" font-family="Helvetica,sans-Serif" font-size="11.00" fill="#000000">&lt; 1</text>
<polygon fill="#ffffff" stroke="transparent" points="466,-201.7 466,-220.7 525,-220.7 525,-201.7 466,-201.7"/>
<polygon fill="none" stroke="#000000" points="466,-201.7 466,-220.7 525,-220.7 525,-201.7 466,-201.7"/>
<text text-anchor="start" x="468.6045" y="-207.8" font-family="Helvetica,sans-Serif" font-size="11.00" fill="#000000">2,235 rows</text>
<polygon fill="#ffffff" stroke="transparent" points="525,-201.7 525,-220.7 546,-220.7 546,-201.7 525,-201.7"/>
<polygon fill="none" stroke="#000000" points="525,-201.7 525,-220.7 546,-220.7 546,-201.7 525,-201.7"/>
<text text-anchor="start" x="527.7026" y="-207.8" font-family="Helvetica,sans-Serif" font-size="11.00" fill="#000000">1 &gt;</text>
</a>
</g>
</g>
<!-- fos_Sample&#45;&gt;global_SiteMaster -->
<g id="edge4" class="edge">
<title>fos_Sample:w&#45;&gt;global_SiteMaster:e</title>
<path fill="none" stroke="#000000" d="M431.031,-233.4364C406.5938,-249.478 424.7235,-311.7 385.5,-311.7"/>
<polygon fill="#000000" stroke="#000000" points="437.2717,-231.7672 445.9302,-233.1777 441.1358,-230.7336 445,-229.7 445,-229.7 445,-229.7 441.1358,-230.7336 444.0698,-226.2223 437.2717,-231.7672 437.2717,-231.7672"/>
<ellipse fill="none" stroke="#000000" cx="434.1804" cy="-232.5941" rx="3.2" ry="3.2"/>
</g>
<!-- sed_Sample -->
<g id="node10" class="node">
<title>sed_Sample</title>
<g id="a_node10"><a xlink:href="../../tables/sed_Sample.html" xlink:title="sed_Sample" target="_top">
<polygon fill="#ffffff" stroke="transparent" points="443,-120.2 443,-181.2 547,-181.2 547,-120.2 443,-120.2"/>
<polygon fill="#f5f5f5" stroke="transparent" points="443,-157.7 443,-180.7 547,-180.7 547,-157.7 443,-157.7"/>
<polygon fill="none" stroke="#000000" points="443,-157.7 443,-180.7 547,-180.7 547,-157.7 443,-157.7"/>
<text text-anchor="start" x="447.936" y="-166.8" font-family="Helvetica,sans-Serif" font-weight="bold" font-size="11.00" fill="#000000">sed_Sample</text>
<text text-anchor="start" x="512.5219" y="-165.8" font-family="Helvetica,sans-Serif" font-size="11.00" fill="#000000">[table]</text>
<polygon fill="none" stroke="#000000" points="443,-138.7 443,-157.7 547,-157.7 547,-138.7 443,-138.7"/>
<text text-anchor="start" x="446" y="-144.8" font-family="Helvetica,sans-Serif" font-size="11.00" fill="#000000">...</text>
<polygon fill="#ffffff" stroke="transparent" points="443,-119.7 443,-138.7 465,-138.7 465,-119.7 443,-119.7"/>
<polygon fill="none" stroke="#000000" points="443,-119.7 443,-138.7 465,-138.7 465,-119.7 443,-119.7"/>
<text text-anchor="start" x="446" y="-125.8" font-family="Helvetica,sans-Serif" font-size="11.00" fill="#000000">&lt; 9</text>
<polygon fill="#ffffff" stroke="transparent" points="465,-119.7 465,-138.7 525,-138.7 525,-119.7 465,-119.7"/>
<polygon fill="none" stroke="#000000" points="465,-119.7 465,-138.7 525,-138.7 525,-119.7 465,-119.7"/>
<text text-anchor="start" x="468.2089" y="-125.8" font-family="Helvetica,sans-Serif" font-size="11.00" fill="#000000">3,181 rows</text>
<polygon fill="#ffffff" stroke="transparent" points="525,-119.7 525,-138.7 547,-138.7 547,-119.7 525,-119.7"/>
<polygon fill="none" stroke="#000000" points="525,-119.7 525,-138.7 547,-138.7 547,-119.7 525,-119.7"/>
<text text-anchor="start" x="528.4053" y="-125.8" font-family="Helvetica,sans-Serif" font-size="11.00" fill="#000000">2 &gt;</text>
</a>
</g>
</g>
<!-- sed_Sample&#45;&gt;global_SiteMaster -->
<g id="edge9" class="edge">
<title>sed_Sample:w&#45;&gt;global_SiteMaster:e</title>
<path fill="none" stroke="#000000" d="M428.5388,-150.276C379.1964,-171.1404 457.0065,-311.7 385.5,-311.7"/>
<polygon fill="#000000" stroke="#000000" points="435.124,-149.103 443.6314,-151.2442 439.062,-148.4015 443,-147.7 443,-147.7 443,-147.7 439.062,-148.4015 442.3686,-144.1558 435.124,-149.103 435.124,-149.103"/>
<ellipse fill="none" stroke="#000000" cx="431.9736" cy="-149.6643" rx="3.2" ry="3.2"/>
</g>
</g>
</svg>
