<?xml version="1.0" encoding="UTF-8" standalone="no"?>
<!DOCTYPE svg PUBLIC "-//W3C//DTD SVG 1.1//EN"
 "http://www.w3.org/Graphics/SVG/1.1/DTD/svg11.dtd">
<!-- Generated by graphviz version 2.40.1 (20161225.0304)
 -->
<!-- Title: oneDegreeRelationshipsDiagramImplied Pages: 1 -->
<svg width="722pt" height="639pt"
 viewBox="0.00 0.00 722.00 638.70" xmlns="http://www.w3.org/2000/svg" xmlns:xlink="http://www.w3.org/1999/xlink">
<g id="graph0" class="graph" transform="scale(1 1) rotate(0) translate(4 634.7)">
<title>oneDegreeRelationshipsDiagramImplied</title>
<polygon fill="#ffffff" stroke="transparent" points="-4,4 -4,-634.7 718,-634.7 718,4 -4,4"/>
<text text-anchor="middle" x="72.4936" y="-7.3" font-family="Helvetica,sans-Serif" font-size="11.00" fill="#000000">Generated by SchemaSpy</text>
<!-- global_DataSetMaster -->
<g id="node1" class="node">
<title>global_DataSetMaster</title>
<g id="a_node1"><a xlink:href="../../tables/global_DataSetMaster.html" xlink:title="global_DataSetMaster" target="_top">
<polygon fill="#ffffff" stroke="transparent" points="216,-38.2 216,-348.2 458,-348.2 458,-38.2 216,-38.2"/>
<polygon fill="#f5f5f5" stroke="transparent" points="218,-323.2 218,-346.2 456,-346.2 456,-323.2 218,-323.2"/>
<polygon fill="none" stroke="#000000" points="218,-323.2 218,-346.2 456,-346.2 456,-323.2 218,-323.2"/>
<text text-anchor="start" x="223" y="-331.8" font-family="Helvetica,sans-Serif" font-weight="bold" font-size="11.00" fill="#000000">global_DataSetMaster</text>
<text text-anchor="start" x="421.0437" y="-331.3" font-family="Helvetica,sans-Serif" font-size="11.00" fill="#000000">[table]</text>
<polygon fill="none" stroke="#000000" points="218,-301.2 218,-323.2 364,-323.2 364,-301.2 218,-301.2"/>
<image xlink:href="../../images/primaryKeys.png" width="11px" height="12px" preserveAspectRatio="xMinYMin meet" x="223" y="-318.2"/>
<text text-anchor="start" x="238" y="-308.3" font-family="Helvetica,sans-Serif" font-size="11.00" fill="#000000">DATASETID</text>
<polygon fill="none" stroke="#000000" points="364,-301.2 364,-323.2 456,-323.2 456,-301.2 364,-301.2"/>
<text text-anchor="start" x="367" y="-308.9" font-family="Helvetica,sans-Serif" font-size="11.00" fill="#000000">serial[10]</text>
<polygon fill="none" stroke="#000000" points="218,-279.2 218,-301.2 364,-301.2 364,-279.2 218,-279.2"/>
<image xlink:href="../../images/foreignKeys.png" width="11px" height="12px" preserveAspectRatio="xMinYMin meet" x="223" y="-296.2"/>
<text text-anchor="start" x="238" y="-286.3" font-family="Helvetica,sans-Serif" font-size="11.00" fill="#000000">UNITID</text>
<polygon fill="none" stroke="#000000" points="364,-279.2 364,-301.2 456,-301.2 456,-279.2 364,-279.2"/>
<text text-anchor="start" x="367" y="-286.9" font-family="Helvetica,sans-Serif" font-size="11.00" fill="#000000">int4[10]</text>
<polygon fill="none" stroke="#000000" points="218,-257.2 218,-279.2 364,-279.2 364,-257.2 218,-257.2"/>
<image xlink:href="../../images/foreignKeys.png" width="11px" height="12px" preserveAspectRatio="xMinYMin meet" x="223" y="-274.2"/>
<text text-anchor="start" x="238" y="-264.3" font-family="Helvetica,sans-Serif" font-size="11.00" fill="#000000">DSETTYPEID</text>
<polygon fill="none" stroke="#000000" points="364,-257.2 364,-279.2 456,-279.2 456,-257.2 364,-257.2"/>
<text text-anchor="start" x="367" y="-264.9" font-family="Helvetica,sans-Serif" font-size="11.00" fill="#000000">int2[5]</text>
<polygon fill="#ffffff" stroke="transparent" points="218,-235.2 218,-257.2 364,-257.2 364,-235.2 218,-235.2"/>
<polygon fill="none" stroke="#000000" points="218,-235.2 218,-257.2 364,-257.2 364,-235.2 218,-235.2"/>
<text text-anchor="start" x="238" y="-242.3" font-family="Helvetica,sans-Serif" font-size="11.00" fill="#000000">NEODSETID</text>
<polygon fill="none" stroke="#000000" points="364,-235.2 364,-257.2 456,-257.2 456,-235.2 364,-235.2"/>
<text text-anchor="start" x="367" y="-242.9" font-family="Helvetica,sans-Serif" font-size="11.00" fill="#000000">int4[10]</text>
<polygon fill="none" stroke="#000000" points="218,-213.2 218,-235.2 364,-235.2 364,-213.2 218,-213.2"/>
<text text-anchor="start" x="238" y="-220.3" font-family="Helvetica,sans-Serif" font-size="11.00" fill="#000000">NEODSETDOI</text>
<polygon fill="none" stroke="#000000" points="364,-213.2 364,-235.2 456,-235.2 456,-213.2 364,-213.2"/>
<text text-anchor="start" x="367" y="-220.9" font-family="Helvetica,sans-Serif" font-size="11.00" fill="#000000">text[2147483647]</text>
<polygon fill="none" stroke="#000000" points="218,-191.2 218,-213.2 364,-213.2 364,-191.2 218,-191.2"/>
<text text-anchor="start" x="238" y="-198.3" font-family="Helvetica,sans-Serif" font-size="11.00" fill="#000000">DSETNAME</text>
<polygon fill="none" stroke="#000000" points="364,-191.2 364,-213.2 456,-213.2 456,-191.2 364,-191.2"/>
<text text-anchor="start" x="367" y="-198.9" font-family="Helvetica,sans-Serif" font-size="11.00" fill="#000000">text[2147483647]</text>
<polygon fill="none" stroke="#000000" points="218,-169.2 218,-191.2 364,-191.2 364,-169.2 218,-169.2"/>
<image xlink:href="../../images/foreignKeys.png" width="11px" height="12px" preserveAspectRatio="xMinYMin meet" x="223" y="-186.2"/>
<text text-anchor="start" x="238" y="-176.3" font-family="Helvetica,sans-Serif" font-size="11.00" fill="#000000">DSETSOURCE</text>
<polygon fill="none" stroke="#000000" points="364,-169.2 364,-191.2 456,-191.2 456,-169.2 364,-169.2"/>
<text text-anchor="start" x="367" y="-176.9" font-family="Helvetica,sans-Serif" font-size="11.00" fill="#000000">int4[10]</text>
<polygon fill="none" stroke="#000000" points="218,-147.2 218,-169.2 364,-169.2 364,-147.2 218,-147.2"/>
<text text-anchor="start" x="238" y="-154.3" font-family="Helvetica,sans-Serif" font-size="11.00" fill="#000000">DSETAGEOLD</text>
<polygon fill="none" stroke="#000000" points="364,-147.2 364,-169.2 456,-169.2 456,-147.2 364,-147.2"/>
<text text-anchor="start" x="367" y="-154.9" font-family="Helvetica,sans-Serif" font-size="11.00" fill="#000000">numeric[0]</text>
<polygon fill="none" stroke="#000000" points="218,-125.2 218,-147.2 364,-147.2 364,-125.2 218,-125.2"/>
<text text-anchor="start" x="238" y="-132.3" font-family="Helvetica,sans-Serif" font-size="11.00" fill="#000000">DSETAGEYNG</text>
<polygon fill="none" stroke="#000000" points="364,-125.2 364,-147.2 456,-147.2 456,-125.2 364,-125.2"/>
<text text-anchor="start" x="367" y="-132.9" font-family="Helvetica,sans-Serif" font-size="11.00" fill="#000000">numeric[0]</text>
<polygon fill="none" stroke="#000000" points="218,-103.2 218,-125.2 364,-125.2 364,-103.2 218,-103.2"/>
<text text-anchor="start" x="238" y="-110.3" font-family="Helvetica,sans-Serif" font-size="11.00" fill="#000000">DSETNOTE</text>
<polygon fill="none" stroke="#000000" points="364,-103.2 364,-125.2 456,-125.2 456,-103.2 364,-103.2"/>
<text text-anchor="start" x="367" y="-110.9" font-family="Helvetica,sans-Serif" font-size="11.00" fill="#000000">text[2147483647]</text>
<polygon fill="none" stroke="#000000" points="218,-81.2 218,-103.2 364,-103.2 364,-81.2 218,-81.2"/>
<text text-anchor="start" x="238" y="-88.3" font-family="Helvetica,sans-Serif" font-size="11.00" fill="#000000">CREATED_AT</text>
<polygon fill="none" stroke="#000000" points="364,-81.2 364,-103.2 456,-103.2 456,-81.2 364,-81.2"/>
<text text-anchor="start" x="366.6023" y="-88.9" font-family="Helvetica,sans-Serif" font-size="11.00" fill="#000000">timestamptz[35,6]</text>
<polygon fill="none" stroke="#000000" points="218,-59.2 218,-81.2 364,-81.2 364,-59.2 218,-59.2"/>
<text text-anchor="start" x="238" y="-66.3" font-family="Helvetica,sans-Serif" font-size="11.00" fill="#000000">UPDATED_AT</text>
<polygon fill="none" stroke="#000000" points="364,-59.2 364,-81.2 456,-81.2 456,-59.2 364,-59.2"/>
<text text-anchor="start" x="366.6023" y="-66.9" font-family="Helvetica,sans-Serif" font-size="11.00" fill="#000000">timestamptz[35,6]</text>
<polygon fill="#ffffff" stroke="transparent" points="218,-40.2 218,-59.2 276,-59.2 276,-40.2 218,-40.2"/>
<polygon fill="none" stroke="#000000" points="218,-40.2 218,-59.2 276,-59.2 276,-40.2 218,-40.2"/>
<text text-anchor="start" x="221" y="-46.3" font-family="Helvetica,sans-Serif" font-size="11.00" fill="#000000">&lt; 3</text>
<polygon fill="#ffffff" stroke="transparent" points="276,-40.2 276,-59.2 364,-59.2 364,-40.2 276,-40.2"/>
<polygon fill="none" stroke="#000000" points="276,-40.2 276,-59.2 364,-59.2 364,-40.2 276,-40.2"/>
<text text-anchor="start" x="316.3807" y="-46.3" font-family="Helvetica,sans-Serif" font-size="11.00" fill="#000000">311 rows</text>
<polygon fill="#ffffff" stroke="transparent" points="364,-40.2 364,-59.2 456,-59.2 456,-40.2 364,-40.2"/>
<polygon fill="none" stroke="#000000" points="364,-40.2 364,-59.2 456,-59.2 456,-40.2 364,-40.2"/>
<text text-anchor="start" x="437.4053" y="-46.3" font-family="Helvetica,sans-Serif" font-size="11.00" fill="#000000">4 &gt;</text>
<polygon fill="none" stroke="#000000" stroke-width="2" points="217,-39.2 217,-347.2 457,-347.2 457,-39.2 217,-39.2"/>
</a>
</g>
</g>
<!-- cabah_datasourceID -->
<g id="node2" class="node">
<title>cabah_datasourceID</title>
<g id="a_node2"><a xlink:href="../../tables/cabah_datasourceID.html" xlink:title="cabah_datasourceID" target="_top">
<polygon fill="#ffffff" stroke="transparent" points="9.5,-93.7 9.5,-198.7 165.5,-198.7 165.5,-93.7 9.5,-93.7"/>
<polygon fill="#f5f5f5" stroke="transparent" points="9.5,-175.2 9.5,-198.2 165.5,-198.2 165.5,-175.2 9.5,-175.2"/>
<polygon fill="none" stroke="#000000" points="9.5,-175.2 9.5,-198.2 165.5,-198.2 165.5,-175.2 9.5,-175.2"/>
<text text-anchor="start" x="14.5" y="-183.8" font-family="Helvetica,sans-Serif" font-weight="bold" font-size="11.00" fill="#000000">cabah_datasourceID</text>
<text text-anchor="start" x="131.0219" y="-183.3" font-family="Helvetica,sans-Serif" font-size="11.00" fill="#000000">[table]</text>
<polygon fill="none" stroke="#000000" points="9.5,-153.2 9.5,-175.2 165.5,-175.2 165.5,-153.2 9.5,-153.2"/>
<image xlink:href="../../images/primaryKeys.png" width="11px" height="12px" preserveAspectRatio="xMinYMin meet" x="14.5" y="-170.2"/>
<text text-anchor="start" x="38.5" y="-160.3" font-family="Helvetica,sans-Serif" font-size="11.00" fill="#000000">DATASRCID</text>
<polygon fill="#ffffff" stroke="transparent" points="9.5,-131.2 9.5,-153.2 165.5,-153.2 165.5,-131.2 9.5,-131.2"/>
<polygon fill="none" stroke="#000000" points="9.5,-131.2 9.5,-153.2 165.5,-153.2 165.5,-131.2 9.5,-131.2"/>
<text text-anchor="start" x="38.5" y="-138.3" font-family="Helvetica,sans-Serif" font-size="11.00" fill="#000000">DATASOURCE</text>
<polygon fill="none" stroke="#000000" points="9.5,-112.2 9.5,-131.2 165.5,-131.2 165.5,-112.2 9.5,-112.2"/>
<text text-anchor="start" x="12.5" y="-118.3" font-family="Helvetica,sans-Serif" font-size="11.00" fill="#000000">...</text>
<polygon fill="#ffffff" stroke="transparent" points="9.5,-93.2 9.5,-112.2 60.5,-112.2 60.5,-93.2 9.5,-93.2"/>
<polygon fill="none" stroke="#000000" points="9.5,-93.2 9.5,-112.2 60.5,-112.2 60.5,-93.2 9.5,-93.2"/>
<text text-anchor="start" x="12.5" y="-99.3" font-family="Helvetica,sans-Serif" font-size="11.00" fill="#000000"> &#160;</text>
<polygon fill="#ffffff" stroke="transparent" points="60.5,-93.2 60.5,-112.2 124.5,-112.2 124.5,-93.2 60.5,-93.2"/>
<polygon fill="none" stroke="#000000" points="60.5,-93.2 60.5,-112.2 124.5,-112.2 124.5,-93.2 60.5,-93.2"/>
<text text-anchor="start" x="82.9956" y="-99.3" font-family="Helvetica,sans-Serif" font-size="11.00" fill="#000000">11 rows</text>
<polygon fill="#ffffff" stroke="transparent" points="124.5,-93.2 124.5,-112.2 165.5,-112.2 165.5,-93.2 124.5,-93.2"/>
<polygon fill="none" stroke="#000000" points="124.5,-93.2 124.5,-112.2 165.5,-112.2 165.5,-93.2 124.5,-93.2"/>
<text text-anchor="start" x="146.9053" y="-99.3" font-family="Helvetica,sans-Serif" font-size="11.00" fill="#000000">6 &gt;</text>
</a>
</g>
</g>
<!-- global_DataSetMaster&#45;&gt;cabah_datasourceID -->
<g id="edge1" class="edge">
<title>global_DataSetMaster:w&#45;&gt;cabah_datasourceID:e</title>
<path fill="none" stroke="#000000" d="M203.724,-177.9753C190.7302,-173.5789 184.1758,-164.2 165.5,-164.2"/>
<polygon fill="#000000" stroke="#000000" points="210.0954,-178.9681 217.4457,-183.7571 214.0477,-179.5841 218,-180.2 218,-180.2 218,-180.2 214.0477,-179.5841 218.5543,-176.6429 210.0954,-178.9681 210.0954,-178.9681"/>
<ellipse fill="none" stroke="#000000" cx="206.9336" cy="-178.4754" rx="3.2" ry="3.2"/>
</g>
<!-- global_datasettypeID -->
<g id="node3" class="node">
<title>global_datasettypeID</title>
<g id="a_node3"><a xlink:href="../../tables/global_datasettypeID.html" xlink:title="global_datasettypeID" target="_top">
<polygon fill="#ffffff" stroke="transparent" points="8,-219.7 8,-302.7 167,-302.7 167,-219.7 8,-219.7"/>
<polygon fill="#f5f5f5" stroke="transparent" points="8.5,-279.2 8.5,-302.2 167.5,-302.2 167.5,-279.2 8.5,-279.2"/>
<polygon fill="none" stroke="#000000" points="8.5,-279.2 8.5,-302.2 167.5,-302.2 167.5,-279.2 8.5,-279.2"/>
<text text-anchor="start" x="13.5" y="-287.8" font-family="Helvetica,sans-Serif" font-weight="bold" font-size="11.00" fill="#000000">global_datasettypeID</text>
<text text-anchor="start" x="133.0219" y="-287.3" font-family="Helvetica,sans-Serif" font-size="11.00" fill="#000000">[table]</text>
<polygon fill="none" stroke="#000000" points="8.5,-257.2 8.5,-279.2 167.5,-279.2 167.5,-257.2 8.5,-257.2"/>
<image xlink:href="../../images/primaryKeys.png" width="11px" height="12px" preserveAspectRatio="xMinYMin meet" x="13.5" y="-274.2"/>
<text text-anchor="start" x="37.5" y="-264.3" font-family="Helvetica,sans-Serif" font-size="11.00" fill="#000000">DSETTYPEID</text>
<polygon fill="none" stroke="#000000" points="8.5,-238.2 8.5,-257.2 167.5,-257.2 167.5,-238.2 8.5,-238.2"/>
<text text-anchor="start" x="11.5" y="-244.3" font-family="Helvetica,sans-Serif" font-size="11.00" fill="#000000">...</text>
<polygon fill="#ffffff" stroke="transparent" points="8.5,-219.2 8.5,-238.2 61.5,-238.2 61.5,-219.2 8.5,-219.2"/>
<polygon fill="none" stroke="#000000" points="8.5,-219.2 8.5,-238.2 61.5,-238.2 61.5,-219.2 8.5,-219.2"/>
<text text-anchor="start" x="11.5" y="-225.3" font-family="Helvetica,sans-Serif" font-size="11.00" fill="#000000"> &#160;</text>
<polygon fill="#ffffff" stroke="transparent" points="61.5,-219.2 61.5,-238.2 125.5,-238.2 125.5,-219.2 61.5,-219.2"/>
<polygon fill="none" stroke="#000000" points="61.5,-219.2 61.5,-238.2 125.5,-238.2 125.5,-219.2 61.5,-219.2"/>
<text text-anchor="start" x="83.9956" y="-225.3" font-family="Helvetica,sans-Serif" font-size="11.00" fill="#000000">42 rows</text>
<polygon fill="#ffffff" stroke="transparent" points="125.5,-219.2 125.5,-238.2 167.5,-238.2 167.5,-219.2 125.5,-219.2"/>
<polygon fill="none" stroke="#000000" points="125.5,-219.2 125.5,-238.2 167.5,-238.2 167.5,-219.2 125.5,-219.2"/>
<text text-anchor="start" x="148.9053" y="-225.3" font-family="Helvetica,sans-Serif" font-size="11.00" fill="#000000">1 &gt;</text>
</a>
</g>
</g>
<!-- global_DataSetMaster&#45;&gt;global_datasettypeID -->
<g id="edge2" class="edge">
<title>global_DataSetMaster:w&#45;&gt;global_datasettypeID:e</title>
<path fill="none" stroke="#000000" d="M203.4203,-268.2C191.5435,-268.2 184.158,-268.2 167.5,-268.2"/>
<polygon fill="#000000" stroke="#000000" points="210,-268.2001 218,-271.8 214,-268.2 218,-268.2 218,-268.2 218,-268.2 214,-268.2 218,-264.6 210,-268.2001 210,-268.2001"/>
<ellipse fill="none" stroke="#000000" cx="206.8" cy="-268.2001" rx="3.2" ry="3.2"/>
</g>
<!-- global_UnitMaster -->
<g id="node4" class="node">
<title>global_UnitMaster</title>
<g id="a_node4"><a xlink:href="../../tables/global_UnitMaster.html" xlink:title="global_UnitMaster" target="_top">
<polygon fill="#ffffff" stroke="transparent" points="16,-323.7 16,-582.7 159,-582.7 159,-323.7 16,-323.7"/>
<polygon fill="#f5f5f5" stroke="transparent" points="16.5,-559.2 16.5,-582.2 159.5,-582.2 159.5,-559.2 16.5,-559.2"/>
<polygon fill="none" stroke="#000000" points="16.5,-559.2 16.5,-582.2 159.5,-582.2 159.5,-559.2 16.5,-559.2"/>
<text text-anchor="start" x="21.5" y="-567.8" font-family="Helvetica,sans-Serif" font-weight="bold" font-size="11.00" fill="#000000">global_UnitMaster</text>
<text text-anchor="start" x="125.0219" y="-567.3" font-family="Helvetica,sans-Serif" font-size="11.00" fill="#000000">[table]</text>
<polygon fill="none" stroke="#000000" points="16.5,-537.2 16.5,-559.2 159.5,-559.2 159.5,-537.2 16.5,-537.2"/>
<image xlink:href="../../images/primaryKeys.png" width="11px" height="12px" preserveAspectRatio="xMinYMin meet" x="21.5" y="-554.2"/>
<text text-anchor="start" x="45.5" y="-544.3" font-family="Helvetica,sans-Serif" font-size="11.00" fill="#000000">UNITID</text>
<polygon fill="none" stroke="#000000" points="16.5,-515.2 16.5,-537.2 159.5,-537.2 159.5,-515.2 16.5,-515.2"/>
<image xlink:href="../../images/foreignKeys.png" width="11px" height="12px" preserveAspectRatio="xMinYMin meet" x="21.5" y="-532.2"/>
<text text-anchor="start" x="45.5" y="-522.3" font-family="Helvetica,sans-Serif" font-size="11.00" fill="#000000">SITEID</text>
<polygon fill="#ffffff" stroke="transparent" points="16.5,-493.2 16.5,-515.2 159.5,-515.2 159.5,-493.2 16.5,-493.2"/>
<polygon fill="none" stroke="#000000" points="16.5,-493.2 16.5,-515.2 159.5,-515.2 159.5,-493.2 16.5,-493.2"/>
<text text-anchor="start" x="45.5" y="-500.3" font-family="Helvetica,sans-Serif" font-size="11.00" fill="#000000">UNITHANDLE</text>
<polygon fill="none" stroke="#000000" points="16.5,-471.2 16.5,-493.2 159.5,-493.2 159.5,-471.2 16.5,-471.2"/>
<image xlink:href="../../images/foreignKeys.png" width="11px" height="12px" preserveAspectRatio="xMinYMin meet" x="21.5" y="-488.2"/>
<text text-anchor="start" x="45.5" y="-478.3" font-family="Helvetica,sans-Serif" font-size="11.00" fill="#000000">UNITTYPEID</text>
<polygon fill="none" stroke="#000000" points="16.5,-449.2 16.5,-471.2 159.5,-471.2 159.5,-449.2 16.5,-449.2"/>
<image xlink:href="../../images/foreignKeys.png" width="11px" height="12px" preserveAspectRatio="xMinYMin meet" x="21.5" y="-466.2"/>
<text text-anchor="start" x="45.5" y="-456.3" font-family="Helvetica,sans-Serif" font-size="11.00" fill="#000000">COLLECTID</text>
<polygon fill="none" stroke="#000000" points="16.5,-427.2 16.5,-449.2 159.5,-449.2 159.5,-427.2 16.5,-427.2"/>
<image xlink:href="../../images/foreignKeys.png" width="11px" height="12px" preserveAspectRatio="xMinYMin meet" x="21.5" y="-444.2"/>
<text text-anchor="start" x="45.5" y="-434.3" font-family="Helvetica,sans-Serif" font-size="11.00" fill="#000000">DEPOSITID</text>
<polygon fill="#ffffff" stroke="transparent" points="16.5,-405.2 16.5,-427.2 159.5,-427.2 159.5,-405.2 16.5,-405.2"/>
<polygon fill="none" stroke="#000000" points="16.5,-405.2 16.5,-427.2 159.5,-427.2 159.5,-405.2 16.5,-405.2"/>
<text text-anchor="start" x="45.5" y="-412.3" font-family="Helvetica,sans-Serif" font-size="11.00" fill="#000000">NEO_HANDLE</text>
<polygon fill="none" stroke="#000000" points="16.5,-383.2 16.5,-405.2 159.5,-405.2 159.5,-383.2 16.5,-383.2"/>
<image xlink:href="../../images/foreignKeys.png" width="11px" height="12px" preserveAspectRatio="xMinYMin meet" x="21.5" y="-400.2"/>
<text text-anchor="start" x="45.5" y="-390.3" font-family="Helvetica,sans-Serif" font-size="11.00" fill="#000000">UNIT_REF</text>
<polygon fill="#ffffff" stroke="transparent" points="16.5,-361.2 16.5,-383.2 159.5,-383.2 159.5,-361.2 16.5,-361.2"/>
<polygon fill="none" stroke="#000000" points="16.5,-361.2 16.5,-383.2 159.5,-383.2 159.5,-361.2 16.5,-361.2"/>
<text text-anchor="start" x="45.5" y="-368.3" font-family="Helvetica,sans-Serif" font-size="11.00" fill="#000000">NEO_UNITID</text>
<polygon fill="none" stroke="#000000" points="16.5,-342.2 16.5,-361.2 159.5,-361.2 159.5,-342.2 16.5,-342.2"/>
<text text-anchor="start" x="19.5" y="-348.3" font-family="Helvetica,sans-Serif" font-size="11.00" fill="#000000">...</text>
<polygon fill="#ffffff" stroke="transparent" points="16.5,-323.2 16.5,-342.2 62.5,-342.2 62.5,-323.2 16.5,-323.2"/>
<polygon fill="none" stroke="#000000" points="16.5,-323.2 16.5,-342.2 62.5,-342.2 62.5,-323.2 16.5,-323.2"/>
<text text-anchor="start" x="19.5" y="-329.3" font-family="Helvetica,sans-Serif" font-size="11.00" fill="#000000">&lt; 5</text>
<polygon fill="#ffffff" stroke="transparent" points="62.5,-323.2 62.5,-342.2 125.5,-342.2 125.5,-323.2 62.5,-323.2"/>
<polygon fill="none" stroke="#000000" points="62.5,-323.2 62.5,-342.2 125.5,-342.2 125.5,-323.2 62.5,-323.2"/>
<text text-anchor="start" x="77.8807" y="-329.3" font-family="Helvetica,sans-Serif" font-size="11.00" fill="#000000">607 rows</text>
<polygon fill="#ffffff" stroke="transparent" points="125.5,-323.2 125.5,-342.2 159.5,-342.2 159.5,-323.2 125.5,-323.2"/>
<polygon fill="none" stroke="#000000" points="125.5,-323.2 125.5,-342.2 159.5,-342.2 159.5,-323.2 125.5,-323.2"/>
<text text-anchor="start" x="140.9053" y="-329.3" font-family="Helvetica,sans-Serif" font-size="11.00" fill="#000000">9 &gt;</text>
</a>
</g>
</g>
<!-- global_DataSetMaster&#45;&gt;global_UnitMaster -->
<g id="edge3" class="edge">
<title>global_DataSetMaster:w&#45;&gt;global_UnitMaster:e</title>
<path fill="none" stroke="#000000" d="M203.6128,-291.7807C116.0191,-313.3401 271.6808,-548.2 159.5,-548.2"/>
<polygon fill="#000000" stroke="#000000" points="210.0478,-291.0737 218.3932,-293.7785 214.0239,-290.6369 218,-290.2 218,-290.2 218,-290.2 214.0239,-290.6369 217.6068,-286.6215 210.0478,-291.0737 210.0478,-291.0737"/>
<ellipse fill="none" stroke="#000000" cx="206.867" cy="-291.4232" rx="3.2" ry="3.2"/>
</g>
<!-- global_datasetpublicationID -->
<g id="node5" class="node">
<title>global_datasetpublicationID</title>
<g id="a_node5"><a xlink:href="../../tables/global_datasetpublicationID.html" xlink:title="global_datasetpublicationID" target="_top">
<polygon fill="#ffffff" stroke="transparent" points="507,-285.7 507,-390.7 706,-390.7 706,-285.7 507,-285.7"/>
<polygon fill="#f5f5f5" stroke="transparent" points="507.5,-367.2 507.5,-390.2 706.5,-390.2 706.5,-367.2 507.5,-367.2"/>
<polygon fill="none" stroke="#000000" points="507.5,-367.2 507.5,-390.2 706.5,-390.2 706.5,-367.2 507.5,-367.2"/>
<text text-anchor="start" x="512.5" y="-375.8" font-family="Helvetica,sans-Serif" font-weight="bold" font-size="11.00" fill="#000000">global_datasetpublicationID</text>
<text text-anchor="start" x="672.0219" y="-375.3" font-family="Helvetica,sans-Serif" font-size="11.00" fill="#000000">[table]</text>
<polygon fill="none" stroke="#000000" points="507.5,-345.2 507.5,-367.2 706.5,-367.2 706.5,-345.2 507.5,-345.2"/>
<image xlink:href="../../images/primaryKeys.png" width="11px" height="12px" preserveAspectRatio="xMinYMin meet" x="512.5" y="-362.2"/>
<text text-anchor="start" x="536.5" y="-352.3" font-family="Helvetica,sans-Serif" font-size="11.00" fill="#000000">DATASETID</text>
<polygon fill="none" stroke="#000000" points="507.5,-323.2 507.5,-345.2 706.5,-345.2 706.5,-323.2 507.5,-323.2"/>
<image xlink:href="../../images/primaryKeys.png" width="11px" height="12px" preserveAspectRatio="xMinYMin meet" x="512.5" y="-340.2"/>
<text text-anchor="start" x="536.5" y="-330.3" font-family="Helvetica,sans-Serif" font-size="11.00" fill="#000000">REFDBID</text>
<polygon fill="none" stroke="#000000" points="507.5,-304.2 507.5,-323.2 706.5,-323.2 706.5,-304.2 507.5,-304.2"/>
<text text-anchor="start" x="510.5" y="-310.3" font-family="Helvetica,sans-Serif" font-size="11.00" fill="#000000">...</text>
<polygon fill="#ffffff" stroke="transparent" points="507.5,-285.2 507.5,-304.2 586.5,-304.2 586.5,-285.2 507.5,-285.2"/>
<polygon fill="none" stroke="#000000" points="507.5,-285.2 507.5,-304.2 586.5,-304.2 586.5,-285.2 507.5,-285.2"/>
<text text-anchor="start" x="510.5" y="-291.3" font-family="Helvetica,sans-Serif" font-size="11.00" fill="#000000">&lt; 2</text>
<polygon fill="#ffffff" stroke="transparent" points="586.5,-285.2 586.5,-304.2 665.5,-304.2 665.5,-285.2 586.5,-285.2"/>
<polygon fill="none" stroke="#000000" points="586.5,-285.2 586.5,-304.2 665.5,-304.2 665.5,-285.2 586.5,-285.2"/>
<text text-anchor="start" x="617.8807" y="-291.3" font-family="Helvetica,sans-Serif" font-size="11.00" fill="#000000">403 rows</text>
<polygon fill="#ffffff" stroke="transparent" points="665.5,-285.2 665.5,-304.2 706.5,-304.2 706.5,-285.2 665.5,-285.2"/>
<polygon fill="none" stroke="#000000" points="665.5,-285.2 665.5,-304.2 706.5,-304.2 706.5,-285.2 665.5,-285.2"/>
<text text-anchor="start" x="697.3862" y="-291.3" font-family="Helvetica,sans-Serif" font-size="11.00" fill="#000000"> &#160;</text>
</a>
</g>
</g>
<!-- global_datasetpublicationID&#45;&gt;global_DataSetMaster -->
<g id="edge4" class="edge">
<title>global_datasetpublicationID:w&#45;&gt;global_DataSetMaster:e</title>
<path fill="none" stroke="#000000" d="M493.7239,-351.8203C479.3166,-340.691 480.2253,-312.2 456,-312.2"/>
<polygon fill="#000000" stroke="#000000" points="499.876,-353.7761 506.4093,-359.6308 503.688,-354.9881 507.5,-356.2 507.5,-356.2 507.5,-356.2 503.688,-354.9881 508.5907,-352.7692 499.876,-353.7761 499.876,-353.7761"/>
<ellipse fill="none" stroke="#000000" cx="496.8264" cy="-352.8066" rx="3.2" ry="3.2"/>
</g>
<!-- ippd_datasets -->
<g id="node6" class="node">
<title>ippd_datasets</title>
<g id="a_node6"><a xlink:href="../../tables/ippd_datasets.html" xlink:title="ippd_datasets" target="_top">
<polygon fill="#ffffff" stroke="transparent" points="547,-411.7 547,-626.7 666,-626.7 666,-411.7 547,-411.7"/>
<polygon fill="#f5f5f5" stroke="transparent" points="547.5,-603.2 547.5,-626.2 666.5,-626.2 666.5,-603.2 547.5,-603.2"/>
<polygon fill="none" stroke="#000000" points="547.5,-603.2 547.5,-626.2 666.5,-626.2 666.5,-603.2 547.5,-603.2"/>
<text text-anchor="start" x="552.5" y="-611.8" font-family="Helvetica,sans-Serif" font-weight="bold" font-size="11.00" fill="#000000">ippd_datasets</text>
<text text-anchor="start" x="632.0219" y="-611.3" font-family="Helvetica,sans-Serif" font-size="11.00" fill="#000000">[table]</text>
<polygon fill="none" stroke="#000000" points="547.5,-581.2 547.5,-603.2 666.5,-603.2 666.5,-581.2 547.5,-581.2"/>
<image xlink:href="../../images/foreignKeys.png" width="11px" height="12px" preserveAspectRatio="xMinYMin meet" x="552.5" y="-598.2"/>
<text text-anchor="start" x="574.5" y="-588.3" font-family="Helvetica,sans-Serif" font-size="11.00" fill="#000000">DATASETID</text>
<polygon fill="none" stroke="#000000" points="547.5,-559.2 547.5,-581.2 666.5,-581.2 666.5,-559.2 547.5,-559.2"/>
<image xlink:href="../../images/foreignKeys.png" width="11px" height="12px" preserveAspectRatio="xMinYMin meet" x="552.5" y="-576.2"/>
<text text-anchor="start" x="574.5" y="-566.3" font-family="Helvetica,sans-Serif" font-size="11.00" fill="#000000">PRME_OAID</text>
<polygon fill="none" stroke="#000000" points="547.5,-537.2 547.5,-559.2 666.5,-559.2 666.5,-537.2 547.5,-537.2"/>
<image xlink:href="../../images/foreignKeys.png" width="11px" height="12px" preserveAspectRatio="xMinYMin meet" x="552.5" y="-554.2"/>
<text text-anchor="start" x="574.5" y="-544.3" font-family="Helvetica,sans-Serif" font-size="11.00" fill="#000000">UNITID</text>
<polygon fill="none" stroke="#000000" points="547.5,-515.2 547.5,-537.2 666.5,-537.2 666.5,-515.2 547.5,-515.2"/>
<image xlink:href="../../images/foreignKeys.png" width="11px" height="12px" preserveAspectRatio="xMinYMin meet" x="552.5" y="-532.2"/>
<text text-anchor="start" x="574.5" y="-522.3" font-family="Helvetica,sans-Serif" font-size="11.00" fill="#000000">SITEID</text>
<polygon fill="none" stroke="#000000" points="547.5,-493.2 547.5,-515.2 666.5,-515.2 666.5,-493.2 547.5,-493.2"/>
<image xlink:href="../../images/foreignKeys.png" width="11px" height="12px" preserveAspectRatio="xMinYMin meet" x="552.5" y="-510.2"/>
<text text-anchor="start" x="574.5" y="-500.3" font-family="Helvetica,sans-Serif" font-size="11.00" fill="#000000">OAID</text>
<polygon fill="none" stroke="#000000" points="547.5,-471.2 547.5,-493.2 666.5,-493.2 666.5,-471.2 547.5,-471.2"/>
<image xlink:href="../../images/foreignKeys.png" width="11px" height="12px" preserveAspectRatio="xMinYMin meet" x="552.5" y="-488.2"/>
<text text-anchor="start" x="574.5" y="-478.3" font-family="Helvetica,sans-Serif" font-size="11.00" fill="#000000">METASITEID</text>
<polygon fill="none" stroke="#000000" points="547.5,-449.2 547.5,-471.2 666.5,-471.2 666.5,-449.2 547.5,-449.2"/>
<image xlink:href="../../images/primaryKeys.png" width="11px" height="12px" preserveAspectRatio="xMinYMin meet" x="552.5" y="-466.2"/>
<text text-anchor="start" x="574.5" y="-456.3" font-family="Helvetica,sans-Serif" font-size="11.00" fill="#000000">id</text>
<polygon fill="none" stroke="#000000" points="547.5,-430.2 547.5,-449.2 666.5,-449.2 666.5,-430.2 547.5,-430.2"/>
<text text-anchor="start" x="550.5" y="-436.3" font-family="Helvetica,sans-Serif" font-size="11.00" fill="#000000">...</text>
<polygon fill="#ffffff" stroke="transparent" points="547.5,-411.2 547.5,-430.2 586.5,-430.2 586.5,-411.2 547.5,-411.2"/>
<polygon fill="none" stroke="#000000" points="547.5,-411.2 547.5,-430.2 586.5,-430.2 586.5,-411.2 547.5,-411.2"/>
<text text-anchor="start" x="550.5" y="-417.3" font-family="Helvetica,sans-Serif" font-size="11.00" fill="#000000">&lt; 6</text>
<polygon fill="#ffffff" stroke="transparent" points="586.5,-411.2 586.5,-430.2 645.5,-430.2 645.5,-411.2 586.5,-411.2"/>
<polygon fill="none" stroke="#000000" points="586.5,-411.2 586.5,-430.2 645.5,-430.2 645.5,-411.2 586.5,-411.2"/>
<text text-anchor="start" x="597.8807" y="-417.3" font-family="Helvetica,sans-Serif" font-size="11.00" fill="#000000">311 rows</text>
<polygon fill="#ffffff" stroke="transparent" points="645.5,-411.2 645.5,-430.2 666.5,-430.2 666.5,-411.2 645.5,-411.2"/>
<polygon fill="none" stroke="#000000" points="645.5,-411.2 645.5,-430.2 666.5,-430.2 666.5,-411.2 645.5,-411.2"/>
<text text-anchor="start" x="657.3862" y="-417.3" font-family="Helvetica,sans-Serif" font-size="11.00" fill="#000000"> &#160;</text>
</a>
</g>
</g>
<!-- ippd_datasets&#45;&gt;global_DataSetMaster -->
<g id="edge5" class="edge">
<title>ippd_datasets:w&#45;&gt;global_DataSetMaster:e</title>
<path fill="none" stroke="#000000" stroke-dasharray="5,2" d="M533.6841,-587.1011C487.6806,-549.1518 516.2184,-312.2 456,-312.2"/>
<polygon fill="#000000" stroke="#000000" points="539.9948,-589.4301 546.2535,-595.5773 543.7474,-590.815 547.5,-592.2 547.5,-592.2 547.5,-592.2 543.7474,-590.815 548.7465,-588.8227 539.9948,-589.4301 539.9948,-589.4301"/>
<ellipse fill="none" stroke="#000000" cx="536.9927" cy="-588.3221" rx="3.2" ry="3.2"/>
</g>
<!-- ippd_datasets&#45;&gt;global_UnitMaster -->
<g id="edge6" class="edge">
<title>ippd_datasets:w&#45;&gt;global_UnitMaster:e</title>
<path fill="none" stroke="#000000" stroke-dasharray="5,2" d="M532.6703,-548.2C372.4185,-548.2 326.8924,-548.2 159.5,-548.2"/>
<polygon fill="#000000" stroke="#000000" points="539.5,-548.2001 547.5,-551.8 543.5,-548.2 547.5,-548.2 547.5,-548.2 547.5,-548.2 543.5,-548.2 547.5,-544.6 539.5,-548.2001 539.5,-548.2001"/>
<ellipse fill="none" stroke="#000000" cx="536.3" cy="-548.2001" rx="3.2" ry="3.2"/>
</g>
<!-- ippd_Sample -->
<g id="node7" class="node">
<title>ippd_Sample</title>
<g id="a_node7"><a xlink:href="../../tables/ippd_Sample.html" xlink:title="ippd_Sample" target="_top">
<polygon fill="#ffffff" stroke="transparent" points="550,-93.7 550,-264.7 663,-264.7 663,-93.7 550,-93.7"/>
<polygon fill="#f5f5f5" stroke="transparent" points="550.5,-241.2 550.5,-264.2 663.5,-264.2 663.5,-241.2 550.5,-241.2"/>
<polygon fill="none" stroke="#000000" points="550.5,-241.2 550.5,-264.2 663.5,-264.2 663.5,-241.2 550.5,-241.2"/>
<text text-anchor="start" x="555.5" y="-249.8" font-family="Helvetica,sans-Serif" font-weight="bold" font-size="11.00" fill="#000000">ippd_Sample</text>
<text text-anchor="start" x="629.0219" y="-249.3" font-family="Helvetica,sans-Serif" font-size="11.00" fill="#000000">[table]</text>
<polygon fill="none" stroke="#000000" points="550.5,-219.2 550.5,-241.2 663.5,-241.2 663.5,-219.2 550.5,-219.2"/>
<image xlink:href="../../images/primaryKeys.png" width="11px" height="12px" preserveAspectRatio="xMinYMin meet" x="555.5" y="-236.2"/>
<text text-anchor="start" x="574.5" y="-226.3" font-family="Helvetica,sans-Serif" font-size="11.00" fill="#000000">SAMPLEID</text>
<polygon fill="none" stroke="#000000" points="550.5,-197.2 550.5,-219.2 663.5,-219.2 663.5,-197.2 550.5,-197.2"/>
<image xlink:href="../../images/foreignKeys.png" width="11px" height="12px" preserveAspectRatio="xMinYMin meet" x="555.5" y="-214.2"/>
<text text-anchor="start" x="574.5" y="-204.3" font-family="Helvetica,sans-Serif" font-size="11.00" fill="#000000">ANLYSUNTID</text>
<polygon fill="none" stroke="#000000" points="550.5,-175.2 550.5,-197.2 663.5,-197.2 663.5,-175.2 550.5,-175.2"/>
<image xlink:href="../../images/foreignKeys.png" width="11px" height="12px" preserveAspectRatio="xMinYMin meet" x="555.5" y="-192.2"/>
<text text-anchor="start" x="574.5" y="-182.3" font-family="Helvetica,sans-Serif" font-size="11.00" fill="#000000">NEODSETID</text>
<polygon fill="none" stroke="#000000" points="550.5,-153.2 550.5,-175.2 663.5,-175.2 663.5,-153.2 550.5,-153.2"/>
<image xlink:href="../../images/foreignKeys.png" width="11px" height="12px" preserveAspectRatio="xMinYMin meet" x="555.5" y="-170.2"/>
<text text-anchor="start" x="574.5" y="-160.3" font-family="Helvetica,sans-Serif" font-size="11.00" fill="#000000">TAXONID</text>
<polygon fill="none" stroke="#000000" points="550.5,-131.2 550.5,-153.2 663.5,-153.2 663.5,-131.2 550.5,-131.2"/>
<image xlink:href="../../images/foreignKeys.png" width="11px" height="12px" preserveAspectRatio="xMinYMin meet" x="555.5" y="-148.2"/>
<text text-anchor="start" x="574.5" y="-138.3" font-family="Helvetica,sans-Serif" font-size="11.00" fill="#000000">DATASETID</text>
<polygon fill="none" stroke="#000000" points="550.5,-112.2 550.5,-131.2 663.5,-131.2 663.5,-112.2 550.5,-112.2"/>
<text text-anchor="start" x="553.5" y="-118.3" font-family="Helvetica,sans-Serif" font-size="11.00" fill="#000000">...</text>
<polygon fill="#ffffff" stroke="transparent" points="550.5,-93.2 550.5,-112.2 574.5,-112.2 574.5,-93.2 550.5,-93.2"/>
<polygon fill="none" stroke="#000000" points="550.5,-93.2 550.5,-112.2 574.5,-112.2 574.5,-93.2 550.5,-93.2"/>
<text text-anchor="start" x="553.5" y="-99.3" font-family="Helvetica,sans-Serif" font-size="11.00" fill="#000000">&lt; 4</text>
<polygon fill="#ffffff" stroke="transparent" points="574.5,-93.2 574.5,-112.2 640.5,-112.2 640.5,-93.2 574.5,-93.2"/>
<polygon fill="none" stroke="#000000" points="574.5,-93.2 574.5,-112.2 640.5,-112.2 640.5,-93.2 574.5,-93.2"/>
<text text-anchor="start" x="577.594" y="-99.3" font-family="Helvetica,sans-Serif" font-size="11.00" fill="#000000">18.370 rows</text>
<polygon fill="#ffffff" stroke="transparent" points="640.5,-93.2 640.5,-112.2 663.5,-112.2 663.5,-93.2 640.5,-93.2"/>
<polygon fill="none" stroke="#000000" points="640.5,-93.2 640.5,-112.2 663.5,-112.2 663.5,-93.2 640.5,-93.2"/>
<text text-anchor="start" x="644.9053" y="-99.3" font-family="Helvetica,sans-Serif" font-size="11.00" fill="#000000">3 &gt;</text>
</a>
</g>
</g>
<!-- ippd_Sample&#45;&gt;global_DataSetMaster -->
<g id="edge7" class="edge">
<title>ippd_Sample:w&#45;&gt;global_DataSetMaster:e</title>
<path fill="none" stroke="#000000" stroke-dasharray="5,2" d="M536.1428,-144.1092C473.2103,-162.7859 537.0417,-312.2 456,-312.2"/>
<polygon fill="#000000" stroke="#000000" points="542.5698,-143.2546 550.9746,-145.7686 546.5349,-142.7273 550.5,-142.2 550.5,-142.2 550.5,-142.2 546.5349,-142.7273 550.0254,-138.6314 542.5698,-143.2546 542.5698,-143.2546"/>
<ellipse fill="none" stroke="#000000" cx="539.3977" cy="-143.6764" rx="3.2" ry="3.2"/>
</g>
<!-- ippd_Sample&#45;&gt;global_DataSetMaster -->
<g id="edge8" class="edge">
<title>ippd_Sample:w&#45;&gt;global_DataSetMaster:e</title>
<path fill="none" stroke="#000000" d="M535.9973,-188.1963C501.1885,-198.6072 500.309,-246.2 456,-246.2"/>
<polygon fill="#000000" stroke="#000000" points="542.5747,-187.291 550.9909,-189.7664 546.5374,-186.7455 550.5,-186.2 550.5,-186.2 550.5,-186.2 546.5374,-186.7455 550.0091,-182.6336 542.5747,-187.291 542.5747,-187.291"/>
<ellipse fill="none" stroke="#000000" cx="539.4046" cy="-187.7274" rx="3.2" ry="3.2"/>
</g>
</g>
</svg>
