<?xml version="1.0" encoding="UTF-8" standalone="no"?>
<!DOCTYPE svg PUBLIC "-//W3C//DTD SVG 1.1//EN"
 "http://www.w3.org/Graphics/SVG/1.1/DTD/svg11.dtd">
<!-- Generated by graphviz version 2.40.1 (20161225.0304)
 -->
<!-- Title: oneDegreeRelationshipsDiagramImplied Pages: 1 -->
<svg width="406pt" height="1351pt"
 viewBox="0.00 0.00 406.00 1351.20" xmlns="http://www.w3.org/2000/svg" xmlns:xlink="http://www.w3.org/1999/xlink">
<g id="graph0" class="graph" transform="scale(1 1) rotate(0) translate(4 1347.2)">
<title>oneDegreeRelationshipsDiagramImplied</title>
<polygon fill="#ffffff" stroke="transparent" points="-4,4 -4,-1347.2 402,-1347.2 402,4 -4,4"/>
<text text-anchor="middle" x="72.4936" y="-7.3" font-family="Helvetica,sans-Serif" font-size="11.00" fill="#000000">Generated by SchemaSpy</text>
<!-- crn_aus_basins -->
<g id="node1" class="node">
<title>crn_aus_basins</title>
<g id="a_node1"><a xlink:href="../../tables/crn_aus_basins.html" xlink:title="crn_aus_basins" target="_top">
<polygon fill="#ffffff" stroke="transparent" points="260,-1168.2 260,-1339.2 389,-1339.2 389,-1168.2 260,-1168.2"/>
<polygon fill="#f5f5f5" stroke="transparent" points="260.5,-1315.7 260.5,-1338.7 389.5,-1338.7 389.5,-1315.7 260.5,-1315.7"/>
<polygon fill="none" stroke="#000000" points="260.5,-1315.7 260.5,-1338.7 389.5,-1338.7 389.5,-1315.7 260.5,-1315.7"/>
<text text-anchor="start" x="265.5" y="-1324.3" font-family="Helvetica,sans-Serif" font-weight="bold" font-size="11.00" fill="#000000">crn_aus_basins</text>
<text text-anchor="start" x="355.0219" y="-1323.8" font-family="Helvetica,sans-Serif" font-size="11.00" fill="#000000">[table]</text>
<polygon fill="none" stroke="#000000" points="260.5,-1293.7 260.5,-1315.7 389.5,-1315.7 389.5,-1293.7 260.5,-1293.7"/>
<image xlink:href="../../images/foreignKeys.png" width="11px" height="12px" preserveAspectRatio="xMinYMin meet" x="265.5" y="-1310.7"/>
<text text-anchor="start" x="289.5" y="-1300.8" font-family="Helvetica,sans-Serif" font-size="11.00" fill="#000000">STUDYID</text>
<polygon fill="none" stroke="#000000" points="260.5,-1271.7 260.5,-1293.7 389.5,-1293.7 389.5,-1271.7 260.5,-1271.7"/>
<image xlink:href="../../images/foreignKeys.png" width="11px" height="12px" preserveAspectRatio="xMinYMin meet" x="265.5" y="-1288.7"/>
<text text-anchor="start" x="289.5" y="-1278.8" font-family="Helvetica,sans-Serif" font-size="11.00" fill="#000000">DBDOI</text>
<polygon fill="none" stroke="#000000" points="260.5,-1249.7 260.5,-1271.7 389.5,-1271.7 389.5,-1249.7 260.5,-1249.7"/>
<image xlink:href="../../images/foreignKeys.png" width="11px" height="12px" preserveAspectRatio="xMinYMin meet" x="265.5" y="-1266.7"/>
<text text-anchor="start" x="289.5" y="-1256.8" font-family="Helvetica,sans-Serif" font-size="11.00" fill="#000000">OAID</text>
<polygon fill="none" stroke="#000000" points="260.5,-1227.7 260.5,-1249.7 389.5,-1249.7 389.5,-1227.7 260.5,-1227.7"/>
<image xlink:href="../../images/foreignKeys.png" width="11px" height="12px" preserveAspectRatio="xMinYMin meet" x="265.5" y="-1244.7"/>
<text text-anchor="start" x="289.5" y="-1234.8" font-family="Helvetica,sans-Serif" font-size="11.00" fill="#000000">PROJEPSGID</text>
<polygon fill="none" stroke="#000000" points="260.5,-1205.7 260.5,-1227.7 389.5,-1227.7 389.5,-1205.7 260.5,-1205.7"/>
<image xlink:href="../../images/primaryKeys.png" width="11px" height="12px" preserveAspectRatio="xMinYMin meet" x="265.5" y="-1222.7"/>
<text text-anchor="start" x="289.5" y="-1212.8" font-family="Helvetica,sans-Serif" font-size="11.00" fill="#000000">id</text>
<polygon fill="none" stroke="#000000" points="260.5,-1186.7 260.5,-1205.7 389.5,-1205.7 389.5,-1186.7 260.5,-1186.7"/>
<text text-anchor="start" x="263.5" y="-1192.8" font-family="Helvetica,sans-Serif" font-size="11.00" fill="#000000">...</text>
<polygon fill="#ffffff" stroke="transparent" points="260.5,-1167.7 260.5,-1186.7 304.5,-1186.7 304.5,-1167.7 260.5,-1167.7"/>
<polygon fill="none" stroke="#000000" points="260.5,-1167.7 260.5,-1186.7 304.5,-1186.7 304.5,-1167.7 260.5,-1167.7"/>
<text text-anchor="start" x="263.5" y="-1173.8" font-family="Helvetica,sans-Serif" font-size="11.00" fill="#000000">&lt; 4</text>
<polygon fill="#ffffff" stroke="transparent" points="304.5,-1167.7 304.5,-1186.7 365.5,-1186.7 365.5,-1167.7 304.5,-1167.7"/>
<polygon fill="none" stroke="#000000" points="304.5,-1167.7 304.5,-1186.7 365.5,-1186.7 365.5,-1167.7 304.5,-1167.7"/>
<text text-anchor="start" x="317.8807" y="-1173.8" font-family="Helvetica,sans-Serif" font-size="11.00" fill="#000000">297 rows</text>
<polygon fill="#ffffff" stroke="transparent" points="365.5,-1167.7 365.5,-1186.7 389.5,-1186.7 389.5,-1167.7 365.5,-1167.7"/>
<polygon fill="none" stroke="#000000" points="365.5,-1167.7 365.5,-1186.7 389.5,-1186.7 389.5,-1167.7 365.5,-1167.7"/>
<text text-anchor="start" x="380.3862" y="-1173.8" font-family="Helvetica,sans-Serif" font-size="11.00" fill="#000000"> &#160;</text>
</a>
</g>
</g>
<!-- global_Author -->
<g id="node2" class="node">
<title>global_Author</title>
<g id="a_node2"><a xlink:href="../../tables/global_Author.html" xlink:title="global_Author" target="_top">
<polygon fill="#ffffff" stroke="transparent" points="8,-369.7 8,-679.7 210,-679.7 210,-369.7 8,-369.7"/>
<polygon fill="#f5f5f5" stroke="transparent" points="10,-654.7 10,-677.7 208,-677.7 208,-654.7 10,-654.7"/>
<polygon fill="none" stroke="#000000" points="10,-654.7 10,-677.7 208,-677.7 208,-654.7 10,-654.7"/>
<text text-anchor="start" x="15" y="-663.3" font-family="Helvetica,sans-Serif" font-weight="bold" font-size="11.00" fill="#000000">global_Author</text>
<text text-anchor="start" x="173.0437" y="-662.8" font-family="Helvetica,sans-Serif" font-size="11.00" fill="#000000">[table]</text>
<polygon fill="none" stroke="#000000" points="10,-632.7 10,-654.7 116,-654.7 116,-632.7 10,-632.7"/>
<image xlink:href="../../images/primaryKeys.png" width="11px" height="12px" preserveAspectRatio="xMinYMin meet" x="15" y="-649.7"/>
<text text-anchor="start" x="30" y="-639.8" font-family="Helvetica,sans-Serif" font-size="11.00" fill="#000000">OAID</text>
<polygon fill="none" stroke="#000000" points="116,-632.7 116,-654.7 208,-654.7 208,-632.7 116,-632.7"/>
<text text-anchor="start" x="119" y="-640.4" font-family="Helvetica,sans-Serif" font-size="11.00" fill="#000000">varchar[11]</text>
<polygon fill="none" stroke="#000000" points="10,-610.7 10,-632.7 116,-632.7 116,-610.7 10,-610.7"/>
<text text-anchor="start" x="30" y="-617.8" font-family="Helvetica,sans-Serif" font-size="11.00" fill="#000000">AUTH</text>
<polygon fill="none" stroke="#000000" points="116,-610.7 116,-632.7 208,-632.7 208,-610.7 116,-610.7"/>
<text text-anchor="start" x="119" y="-618.4" font-family="Helvetica,sans-Serif" font-size="11.00" fill="#000000">text[2147483647]</text>
<polygon fill="none" stroke="#000000" points="10,-588.7 10,-610.7 116,-610.7 116,-588.7 10,-588.7"/>
<text text-anchor="start" x="30" y="-595.8" font-family="Helvetica,sans-Serif" font-size="11.00" fill="#000000">FORENAME</text>
<polygon fill="none" stroke="#000000" points="116,-588.7 116,-610.7 208,-610.7 208,-588.7 116,-588.7"/>
<text text-anchor="start" x="119" y="-596.4" font-family="Helvetica,sans-Serif" font-size="11.00" fill="#000000">text[2147483647]</text>
<polygon fill="none" stroke="#000000" points="10,-566.7 10,-588.7 116,-588.7 116,-566.7 10,-566.7"/>
<text text-anchor="start" x="30" y="-573.8" font-family="Helvetica,sans-Serif" font-size="11.00" fill="#000000">INITIALS</text>
<polygon fill="none" stroke="#000000" points="116,-566.7 116,-588.7 208,-588.7 208,-566.7 116,-566.7"/>
<text text-anchor="start" x="119" y="-574.4" font-family="Helvetica,sans-Serif" font-size="11.00" fill="#000000">text[2147483647]</text>
<polygon fill="none" stroke="#000000" points="10,-544.7 10,-566.7 116,-566.7 116,-544.7 10,-544.7"/>
<text text-anchor="start" x="30" y="-551.8" font-family="Helvetica,sans-Serif" font-size="11.00" fill="#000000">ORCID</text>
<polygon fill="none" stroke="#000000" points="116,-544.7 116,-566.7 208,-566.7 208,-544.7 116,-544.7"/>
<text text-anchor="start" x="119" y="-552.4" font-family="Helvetica,sans-Serif" font-size="11.00" fill="#000000">varchar[19]</text>
<polygon fill="none" stroke="#000000" points="10,-522.7 10,-544.7 116,-544.7 116,-522.7 10,-522.7"/>
<text text-anchor="start" x="30" y="-529.8" font-family="Helvetica,sans-Serif" font-size="11.00" fill="#000000">SCOPUSID</text>
<polygon fill="none" stroke="#000000" points="116,-522.7 116,-544.7 208,-544.7 208,-522.7 116,-522.7"/>
<text text-anchor="start" x="119" y="-530.4" font-family="Helvetica,sans-Serif" font-size="11.00" fill="#000000">text[2147483647]</text>
<polygon fill="none" stroke="#000000" points="10,-500.7 10,-522.7 116,-522.7 116,-500.7 10,-500.7"/>
<text text-anchor="start" x="30" y="-507.8" font-family="Helvetica,sans-Serif" font-size="11.00" fill="#000000">WSCC_RESID</text>
<polygon fill="none" stroke="#000000" points="116,-500.7 116,-522.7 208,-522.7 208,-500.7 116,-500.7"/>
<text text-anchor="start" x="119" y="-508.4" font-family="Helvetica,sans-Serif" font-size="11.00" fill="#000000">text[2147483647]</text>
<polygon fill="none" stroke="#000000" points="10,-478.7 10,-500.7 116,-500.7 116,-478.7 10,-478.7"/>
<text text-anchor="start" x="30" y="-485.8" font-family="Helvetica,sans-Serif" font-size="11.00" fill="#000000">AUTH_COMMT</text>
<polygon fill="none" stroke="#000000" points="116,-478.7 116,-500.7 208,-500.7 208,-478.7 116,-478.7"/>
<text text-anchor="start" x="119" y="-486.4" font-family="Helvetica,sans-Serif" font-size="11.00" fill="#000000">text[2147483647]</text>
<polygon fill="none" stroke="#000000" points="10,-456.7 10,-478.7 116,-478.7 116,-456.7 10,-456.7"/>
<text text-anchor="start" x="30" y="-463.8" font-family="Helvetica,sans-Serif" font-size="11.00" fill="#000000">CREATED_AT</text>
<polygon fill="none" stroke="#000000" points="116,-456.7 116,-478.7 208,-478.7 208,-456.7 116,-456.7"/>
<text text-anchor="start" x="118.6023" y="-464.4" font-family="Helvetica,sans-Serif" font-size="11.00" fill="#000000">timestamptz[35,6]</text>
<polygon fill="none" stroke="#000000" points="10,-434.7 10,-456.7 116,-456.7 116,-434.7 10,-434.7"/>
<text text-anchor="start" x="30" y="-441.8" font-family="Helvetica,sans-Serif" font-size="11.00" fill="#000000">UPDATED_AT</text>
<polygon fill="none" stroke="#000000" points="116,-434.7 116,-456.7 208,-456.7 208,-434.7 116,-434.7"/>
<text text-anchor="start" x="118.6023" y="-442.4" font-family="Helvetica,sans-Serif" font-size="11.00" fill="#000000">timestamptz[35,6]</text>
<polygon fill="none" stroke="#000000" points="10,-412.7 10,-434.7 116,-434.7 116,-412.7 10,-412.7"/>
<text text-anchor="start" x="30" y="-419.8" font-family="Helvetica,sans-Serif" font-size="11.00" fill="#000000">AUTH_URL</text>
<polygon fill="none" stroke="#000000" points="116,-412.7 116,-434.7 208,-434.7 208,-412.7 116,-412.7"/>
<text text-anchor="start" x="119" y="-420.4" font-family="Helvetica,sans-Serif" font-size="11.00" fill="#000000">text[2147483647]</text>
<polygon fill="none" stroke="#000000" points="10,-390.7 10,-412.7 116,-412.7 116,-390.7 10,-390.7"/>
<text text-anchor="start" x="30" y="-397.8" font-family="Helvetica,sans-Serif" font-size="11.00" fill="#000000">URL_DATE</text>
<polygon fill="none" stroke="#000000" points="116,-390.7 116,-412.7 208,-412.7 208,-390.7 116,-390.7"/>
<text text-anchor="start" x="119" y="-398.4" font-family="Helvetica,sans-Serif" font-size="11.00" fill="#000000">date[13]</text>
<polygon fill="#ffffff" stroke="transparent" points="10,-371.7 10,-390.7 44,-390.7 44,-371.7 10,-371.7"/>
<polygon fill="none" stroke="#000000" points="10,-371.7 10,-390.7 44,-390.7 44,-371.7 10,-371.7"/>
<text text-anchor="start" x="13" y="-377.8" font-family="Helvetica,sans-Serif" font-size="11.00" fill="#000000">&lt; 0</text>
<polygon fill="#ffffff" stroke="transparent" points="44,-371.7 44,-390.7 116,-390.7 116,-371.7 44,-371.7"/>
<polygon fill="none" stroke="#000000" points="44,-371.7 44,-390.7 116,-390.7 116,-371.7 44,-371.7"/>
<text text-anchor="start" x="59.2089" y="-377.8" font-family="Helvetica,sans-Serif" font-size="11.00" fill="#000000">1.733 rows</text>
<polygon fill="#ffffff" stroke="transparent" points="116,-371.7 116,-390.7 208,-390.7 208,-371.7 116,-371.7"/>
<polygon fill="none" stroke="#000000" points="116,-371.7 116,-390.7 208,-390.7 208,-371.7 116,-371.7"/>
<text text-anchor="start" x="189.4053" y="-377.8" font-family="Helvetica,sans-Serif" font-size="11.00" fill="#000000">8 &gt;</text>
<polygon fill="none" stroke="#000000" stroke-width="2" points="9,-370.7 9,-678.7 209,-678.7 209,-370.7 9,-370.7"/>
</a>
</g>
</g>
<!-- crn_aus_basins&#45;&gt;global_Author -->
<g id="edge1" class="edge">
<title>crn_aus_basins:w&#45;&gt;global_Author:e</title>
<path fill="none" stroke="#000000" stroke-dasharray="5,2" d="M248.4493,-1252.4445C202.6132,-1179.2278 272.0999,-643.7 208,-643.7"/>
<polygon fill="#000000" stroke="#000000" points="253.9002,-1256.1787 258.4654,-1263.6699 257.2001,-1258.4393 260.5,-1260.7 260.5,-1260.7 260.5,-1260.7 257.2001,-1258.4393 262.5346,-1257.7301 253.9002,-1256.1787 253.9002,-1256.1787"/>
<ellipse fill="none" stroke="#000000" cx="251.2602" cy="-1254.3701" rx="3.2" ry="3.2"/>
</g>
<!-- crn_int_basins -->
<g id="node3" class="node">
<title>crn_int_basins</title>
<g id="a_node3"><a xlink:href="../../tables/crn_int_basins.html" xlink:title="crn_int_basins" target="_top">
<polygon fill="#ffffff" stroke="transparent" points="263,-976.2 263,-1147.2 386,-1147.2 386,-976.2 263,-976.2"/>
<polygon fill="#f5f5f5" stroke="transparent" points="263.5,-1123.7 263.5,-1146.7 386.5,-1146.7 386.5,-1123.7 263.5,-1123.7"/>
<polygon fill="none" stroke="#000000" points="263.5,-1123.7 263.5,-1146.7 386.5,-1146.7 386.5,-1123.7 263.5,-1123.7"/>
<text text-anchor="start" x="268.5" y="-1132.3" font-family="Helvetica,sans-Serif" font-weight="bold" font-size="11.00" fill="#000000">crn_int_basins</text>
<text text-anchor="start" x="352.0219" y="-1131.8" font-family="Helvetica,sans-Serif" font-size="11.00" fill="#000000">[table]</text>
<polygon fill="none" stroke="#000000" points="263.5,-1101.7 263.5,-1123.7 386.5,-1123.7 386.5,-1101.7 263.5,-1101.7"/>
<image xlink:href="../../images/foreignKeys.png" width="11px" height="12px" preserveAspectRatio="xMinYMin meet" x="268.5" y="-1118.7"/>
<text text-anchor="start" x="292.5" y="-1108.8" font-family="Helvetica,sans-Serif" font-size="11.00" fill="#000000">STUDYID</text>
<polygon fill="none" stroke="#000000" points="263.5,-1079.7 263.5,-1101.7 386.5,-1101.7 386.5,-1079.7 263.5,-1079.7"/>
<image xlink:href="../../images/foreignKeys.png" width="11px" height="12px" preserveAspectRatio="xMinYMin meet" x="268.5" y="-1096.7"/>
<text text-anchor="start" x="292.5" y="-1086.8" font-family="Helvetica,sans-Serif" font-size="11.00" fill="#000000">DBDOI</text>
<polygon fill="none" stroke="#000000" points="263.5,-1057.7 263.5,-1079.7 386.5,-1079.7 386.5,-1057.7 263.5,-1057.7"/>
<image xlink:href="../../images/foreignKeys.png" width="11px" height="12px" preserveAspectRatio="xMinYMin meet" x="268.5" y="-1074.7"/>
<text text-anchor="start" x="292.5" y="-1064.8" font-family="Helvetica,sans-Serif" font-size="11.00" fill="#000000">OAID</text>
<polygon fill="none" stroke="#000000" points="263.5,-1035.7 263.5,-1057.7 386.5,-1057.7 386.5,-1035.7 263.5,-1035.7"/>
<image xlink:href="../../images/foreignKeys.png" width="11px" height="12px" preserveAspectRatio="xMinYMin meet" x="268.5" y="-1052.7"/>
<text text-anchor="start" x="292.5" y="-1042.8" font-family="Helvetica,sans-Serif" font-size="11.00" fill="#000000">PROJEPSGID</text>
<polygon fill="none" stroke="#000000" points="263.5,-1013.7 263.5,-1035.7 386.5,-1035.7 386.5,-1013.7 263.5,-1013.7"/>
<image xlink:href="../../images/primaryKeys.png" width="11px" height="12px" preserveAspectRatio="xMinYMin meet" x="268.5" y="-1030.7"/>
<text text-anchor="start" x="292.5" y="-1020.8" font-family="Helvetica,sans-Serif" font-size="11.00" fill="#000000">id</text>
<polygon fill="none" stroke="#000000" points="263.5,-994.7 263.5,-1013.7 386.5,-1013.7 386.5,-994.7 263.5,-994.7"/>
<text text-anchor="start" x="266.5" y="-1000.8" font-family="Helvetica,sans-Serif" font-size="11.00" fill="#000000">...</text>
<polygon fill="#ffffff" stroke="transparent" points="263.5,-975.7 263.5,-994.7 299.5,-994.7 299.5,-975.7 263.5,-975.7"/>
<polygon fill="none" stroke="#000000" points="263.5,-975.7 263.5,-994.7 299.5,-994.7 299.5,-975.7 263.5,-975.7"/>
<text text-anchor="start" x="266.5" y="-981.8" font-family="Helvetica,sans-Serif" font-size="11.00" fill="#000000">&lt; 4</text>
<polygon fill="#ffffff" stroke="transparent" points="299.5,-975.7 299.5,-994.7 366.5,-994.7 366.5,-975.7 299.5,-975.7"/>
<polygon fill="none" stroke="#000000" points="299.5,-975.7 299.5,-994.7 366.5,-994.7 366.5,-975.7 299.5,-975.7"/>
<text text-anchor="start" x="309.7089" y="-981.8" font-family="Helvetica,sans-Serif" font-size="11.00" fill="#000000">5.376 rows</text>
<polygon fill="#ffffff" stroke="transparent" points="366.5,-975.7 366.5,-994.7 386.5,-994.7 386.5,-975.7 366.5,-975.7"/>
<polygon fill="none" stroke="#000000" points="366.5,-975.7 366.5,-994.7 386.5,-994.7 386.5,-975.7 366.5,-975.7"/>
<text text-anchor="start" x="377.3862" y="-981.8" font-family="Helvetica,sans-Serif" font-size="11.00" fill="#000000"> &#160;</text>
</a>
</g>
</g>
<!-- crn_int_basins&#45;&gt;global_Author -->
<g id="edge2" class="edge">
<title>crn_int_basins:w&#45;&gt;global_Author:e</title>
<path fill="none" stroke="#000000" stroke-dasharray="5,2" d="M249.4478,-1064.7641C182.8072,-1021.9189 297.8515,-643.7 208,-643.7"/>
<polygon fill="#000000" stroke="#000000" points="255.7965,-1066.5422 262.529,-1072.1666 259.6482,-1067.6211 263.5,-1068.7 263.5,-1068.7 263.5,-1068.7 259.6482,-1067.6211 264.471,-1065.2334 255.7965,-1066.5422 255.7965,-1066.5422"/>
<ellipse fill="none" stroke="#000000" cx="252.7151" cy="-1065.6791" rx="3.2" ry="3.2"/>
</g>
<!-- crn_xxl_basins -->
<g id="node4" class="node">
<title>crn_xxl_basins</title>
<g id="a_node4"><a xlink:href="../../tables/crn_xxl_basins.html" xlink:title="crn_xxl_basins" target="_top">
<polygon fill="#ffffff" stroke="transparent" points="262,-806.2 262,-955.2 387,-955.2 387,-806.2 262,-806.2"/>
<polygon fill="#f5f5f5" stroke="transparent" points="262.5,-931.7 262.5,-954.7 387.5,-954.7 387.5,-931.7 262.5,-931.7"/>
<polygon fill="none" stroke="#000000" points="262.5,-931.7 262.5,-954.7 387.5,-954.7 387.5,-931.7 262.5,-931.7"/>
<text text-anchor="start" x="267.5" y="-940.3" font-family="Helvetica,sans-Serif" font-weight="bold" font-size="11.00" fill="#000000">crn_xxl_basins</text>
<text text-anchor="start" x="353.0219" y="-939.8" font-family="Helvetica,sans-Serif" font-size="11.00" fill="#000000">[table]</text>
<polygon fill="none" stroke="#000000" points="262.5,-909.7 262.5,-931.7 387.5,-931.7 387.5,-909.7 262.5,-909.7"/>
<image xlink:href="../../images/foreignKeys.png" width="11px" height="12px" preserveAspectRatio="xMinYMin meet" x="267.5" y="-926.7"/>
<text text-anchor="start" x="291.5" y="-916.8" font-family="Helvetica,sans-Serif" font-size="11.00" fill="#000000">STUDYID</text>
<polygon fill="none" stroke="#000000" points="262.5,-887.7 262.5,-909.7 387.5,-909.7 387.5,-887.7 262.5,-887.7"/>
<image xlink:href="../../images/foreignKeys.png" width="11px" height="12px" preserveAspectRatio="xMinYMin meet" x="267.5" y="-904.7"/>
<text text-anchor="start" x="291.5" y="-894.8" font-family="Helvetica,sans-Serif" font-size="11.00" fill="#000000">OAID</text>
<polygon fill="none" stroke="#000000" points="262.5,-865.7 262.5,-887.7 387.5,-887.7 387.5,-865.7 262.5,-865.7"/>
<image xlink:href="../../images/foreignKeys.png" width="11px" height="12px" preserveAspectRatio="xMinYMin meet" x="267.5" y="-882.7"/>
<text text-anchor="start" x="291.5" y="-872.8" font-family="Helvetica,sans-Serif" font-size="11.00" fill="#000000">PROJEPSGID</text>
<polygon fill="none" stroke="#000000" points="262.5,-843.7 262.5,-865.7 387.5,-865.7 387.5,-843.7 262.5,-843.7"/>
<image xlink:href="../../images/primaryKeys.png" width="11px" height="12px" preserveAspectRatio="xMinYMin meet" x="267.5" y="-860.7"/>
<text text-anchor="start" x="291.5" y="-850.8" font-family="Helvetica,sans-Serif" font-size="11.00" fill="#000000">id</text>
<polygon fill="none" stroke="#000000" points="262.5,-824.7 262.5,-843.7 387.5,-843.7 387.5,-824.7 262.5,-824.7"/>
<text text-anchor="start" x="265.5" y="-830.8" font-family="Helvetica,sans-Serif" font-size="11.00" fill="#000000">...</text>
<polygon fill="#ffffff" stroke="transparent" points="262.5,-805.7 262.5,-824.7 304.5,-824.7 304.5,-805.7 262.5,-805.7"/>
<polygon fill="none" stroke="#000000" points="262.5,-805.7 262.5,-824.7 304.5,-824.7 304.5,-805.7 262.5,-805.7"/>
<text text-anchor="start" x="265.5" y="-811.8" font-family="Helvetica,sans-Serif" font-size="11.00" fill="#000000">&lt; 3</text>
<polygon fill="#ffffff" stroke="transparent" points="304.5,-805.7 304.5,-824.7 364.5,-824.7 364.5,-805.7 304.5,-805.7"/>
<polygon fill="none" stroke="#000000" points="304.5,-805.7 304.5,-824.7 364.5,-824.7 364.5,-805.7 304.5,-805.7"/>
<text text-anchor="start" x="316.8807" y="-811.8" font-family="Helvetica,sans-Serif" font-size="11.00" fill="#000000">261 rows</text>
<polygon fill="#ffffff" stroke="transparent" points="364.5,-805.7 364.5,-824.7 387.5,-824.7 387.5,-805.7 364.5,-805.7"/>
<polygon fill="none" stroke="#000000" points="364.5,-805.7 364.5,-824.7 387.5,-824.7 387.5,-805.7 364.5,-805.7"/>
<text text-anchor="start" x="378.3862" y="-811.8" font-family="Helvetica,sans-Serif" font-size="11.00" fill="#000000"> &#160;</text>
</a>
</g>
</g>
<!-- crn_xxl_basins&#45;&gt;global_Author -->
<g id="edge3" class="edge">
<title>crn_xxl_basins:w&#45;&gt;global_Author:e</title>
<path fill="none" stroke="#000000" stroke-dasharray="5,2" d="M248.0747,-897.0716C162.5835,-875.3541 318.4604,-643.7 208,-643.7"/>
<polygon fill="#000000" stroke="#000000" points="254.5505,-897.8026 262.0962,-902.2773 258.5252,-898.2513 262.5,-898.7 262.5,-898.7 262.5,-898.7 258.5252,-898.2513 262.9038,-895.1227 254.5505,-897.8026 254.5505,-897.8026"/>
<ellipse fill="none" stroke="#000000" cx="251.3707" cy="-897.4436" rx="3.2" ry="3.2"/>
</g>
<!-- global_RefCore -->
<g id="node5" class="node">
<title>global_RefCore</title>
<g id="a_node5"><a xlink:href="../../tables/global_RefCore.html" xlink:title="global_RefCore" target="_top">
<polygon fill="#ffffff" stroke="transparent" points="261,-636.2 261,-785.2 388,-785.2 388,-636.2 261,-636.2"/>
<polygon fill="#f5f5f5" stroke="transparent" points="261.5,-761.7 261.5,-784.7 388.5,-784.7 388.5,-761.7 261.5,-761.7"/>
<polygon fill="none" stroke="#000000" points="261.5,-761.7 261.5,-784.7 388.5,-784.7 388.5,-761.7 261.5,-761.7"/>
<text text-anchor="start" x="266.5" y="-770.3" font-family="Helvetica,sans-Serif" font-weight="bold" font-size="11.00" fill="#000000">global_RefCore</text>
<text text-anchor="start" x="354.0219" y="-769.8" font-family="Helvetica,sans-Serif" font-size="11.00" fill="#000000">[table]</text>
<polygon fill="none" stroke="#000000" points="261.5,-739.7 261.5,-761.7 388.5,-761.7 388.5,-739.7 261.5,-739.7"/>
<image xlink:href="../../images/primaryKeys.png" width="11px" height="12px" preserveAspectRatio="xMinYMin meet" x="266.5" y="-756.7"/>
<text text-anchor="start" x="290.5" y="-746.8" font-family="Helvetica,sans-Serif" font-size="11.00" fill="#000000">REFDBID</text>
<polygon fill="none" stroke="#000000" points="261.5,-717.7 261.5,-739.7 388.5,-739.7 388.5,-717.7 261.5,-717.7"/>
<image xlink:href="../../images/foreignKeys.png" width="11px" height="12px" preserveAspectRatio="xMinYMin meet" x="266.5" y="-734.7"/>
<text text-anchor="start" x="290.5" y="-724.8" font-family="Helvetica,sans-Serif" font-size="11.00" fill="#000000">OAID</text>
<polygon fill="none" stroke="#000000" points="261.5,-695.7 261.5,-717.7 388.5,-717.7 388.5,-695.7 261.5,-695.7"/>
<image xlink:href="../../images/foreignKeys.png" width="11px" height="12px" preserveAspectRatio="xMinYMin meet" x="266.5" y="-712.7"/>
<text text-anchor="start" x="290.5" y="-702.8" font-family="Helvetica,sans-Serif" font-size="11.00" fill="#000000">PUBTYPEID</text>
<polygon fill="none" stroke="#000000" points="261.5,-673.7 261.5,-695.7 388.5,-695.7 388.5,-673.7 261.5,-673.7"/>
<image xlink:href="../../images/foreignKeys.png" width="11px" height="12px" preserveAspectRatio="xMinYMin meet" x="266.5" y="-690.7"/>
<text text-anchor="start" x="290.5" y="-680.8" font-family="Helvetica,sans-Serif" font-size="11.00" fill="#000000">JOURNALID</text>
<polygon fill="none" stroke="#000000" points="261.5,-654.7 261.5,-673.7 388.5,-673.7 388.5,-654.7 261.5,-654.7"/>
<text text-anchor="start" x="264.5" y="-660.8" font-family="Helvetica,sans-Serif" font-size="11.00" fill="#000000">...</text>
<polygon fill="#ffffff" stroke="transparent" points="261.5,-635.7 261.5,-654.7 292.5,-654.7 292.5,-635.7 261.5,-635.7"/>
<polygon fill="none" stroke="#000000" points="261.5,-635.7 261.5,-654.7 292.5,-654.7 292.5,-635.7 261.5,-635.7"/>
<text text-anchor="start" x="264.5" y="-641.8" font-family="Helvetica,sans-Serif" font-size="11.00" fill="#000000">&lt; 5</text>
<polygon fill="#ffffff" stroke="transparent" points="292.5,-635.7 292.5,-654.7 356.5,-654.7 356.5,-635.7 292.5,-635.7"/>
<polygon fill="none" stroke="#000000" points="292.5,-635.7 292.5,-654.7 356.5,-654.7 356.5,-635.7 292.5,-635.7"/>
<text text-anchor="start" x="299.7089" y="-641.8" font-family="Helvetica,sans-Serif" font-size="11.00" fill="#000000">3.947 rows</text>
<polygon fill="#ffffff" stroke="transparent" points="356.5,-635.7 356.5,-654.7 388.5,-654.7 388.5,-635.7 356.5,-635.7"/>
<polygon fill="none" stroke="#000000" points="356.5,-635.7 356.5,-654.7 388.5,-654.7 388.5,-635.7 356.5,-635.7"/>
<text text-anchor="start" x="363.7904" y="-641.8" font-family="Helvetica,sans-Serif" font-size="11.00" fill="#000000">37 &gt;</text>
</a>
</g>
</g>
<!-- global_RefCore&#45;&gt;global_Author -->
<g id="edge4" class="edge">
<title>global_RefCore:w&#45;&gt;global_Author:e</title>
<path fill="none" stroke="#000000" d="M247.5931,-724.6003C224.9466,-707.6212 246.7094,-643.7 208,-643.7"/>
<polygon fill="#000000" stroke="#000000" points="253.8265,-726.4378 260.482,-732.1531 257.6632,-727.5689 261.5,-728.7 261.5,-728.7 261.5,-728.7 257.6632,-727.5689 262.518,-725.2469 253.8265,-726.4378 253.8265,-726.4378"/>
<ellipse fill="none" stroke="#000000" cx="250.7571" cy="-725.533" rx="3.2" ry="3.2"/>
</g>
<!-- ippd_datasets -->
<g id="node6" class="node">
<title>ippd_datasets</title>
<g id="a_node6"><a xlink:href="../../tables/ippd_datasets.html" xlink:title="ippd_datasets" target="_top">
<polygon fill="#ffffff" stroke="transparent" points="265,-400.2 265,-615.2 384,-615.2 384,-400.2 265,-400.2"/>
<polygon fill="#f5f5f5" stroke="transparent" points="265.5,-591.7 265.5,-614.7 384.5,-614.7 384.5,-591.7 265.5,-591.7"/>
<polygon fill="none" stroke="#000000" points="265.5,-591.7 265.5,-614.7 384.5,-614.7 384.5,-591.7 265.5,-591.7"/>
<text text-anchor="start" x="270.5" y="-600.3" font-family="Helvetica,sans-Serif" font-weight="bold" font-size="11.00" fill="#000000">ippd_datasets</text>
<text text-anchor="start" x="350.0219" y="-599.8" font-family="Helvetica,sans-Serif" font-size="11.00" fill="#000000">[table]</text>
<polygon fill="none" stroke="#000000" points="265.5,-569.7 265.5,-591.7 384.5,-591.7 384.5,-569.7 265.5,-569.7"/>
<image xlink:href="../../images/foreignKeys.png" width="11px" height="12px" preserveAspectRatio="xMinYMin meet" x="270.5" y="-586.7"/>
<text text-anchor="start" x="292.5" y="-576.8" font-family="Helvetica,sans-Serif" font-size="11.00" fill="#000000">DATASETID</text>
<polygon fill="none" stroke="#000000" points="265.5,-547.7 265.5,-569.7 384.5,-569.7 384.5,-547.7 265.5,-547.7"/>
<image xlink:href="../../images/foreignKeys.png" width="11px" height="12px" preserveAspectRatio="xMinYMin meet" x="270.5" y="-564.7"/>
<text text-anchor="start" x="292.5" y="-554.8" font-family="Helvetica,sans-Serif" font-size="11.00" fill="#000000">PRME_OAID</text>
<polygon fill="none" stroke="#000000" points="265.5,-525.7 265.5,-547.7 384.5,-547.7 384.5,-525.7 265.5,-525.7"/>
<image xlink:href="../../images/foreignKeys.png" width="11px" height="12px" preserveAspectRatio="xMinYMin meet" x="270.5" y="-542.7"/>
<text text-anchor="start" x="292.5" y="-532.8" font-family="Helvetica,sans-Serif" font-size="11.00" fill="#000000">UNITID</text>
<polygon fill="none" stroke="#000000" points="265.5,-503.7 265.5,-525.7 384.5,-525.7 384.5,-503.7 265.5,-503.7"/>
<image xlink:href="../../images/foreignKeys.png" width="11px" height="12px" preserveAspectRatio="xMinYMin meet" x="270.5" y="-520.7"/>
<text text-anchor="start" x="292.5" y="-510.8" font-family="Helvetica,sans-Serif" font-size="11.00" fill="#000000">SITEID</text>
<polygon fill="none" stroke="#000000" points="265.5,-481.7 265.5,-503.7 384.5,-503.7 384.5,-481.7 265.5,-481.7"/>
<image xlink:href="../../images/foreignKeys.png" width="11px" height="12px" preserveAspectRatio="xMinYMin meet" x="270.5" y="-498.7"/>
<text text-anchor="start" x="292.5" y="-488.8" font-family="Helvetica,sans-Serif" font-size="11.00" fill="#000000">OAID</text>
<polygon fill="none" stroke="#000000" points="265.5,-459.7 265.5,-481.7 384.5,-481.7 384.5,-459.7 265.5,-459.7"/>
<image xlink:href="../../images/foreignKeys.png" width="11px" height="12px" preserveAspectRatio="xMinYMin meet" x="270.5" y="-476.7"/>
<text text-anchor="start" x="292.5" y="-466.8" font-family="Helvetica,sans-Serif" font-size="11.00" fill="#000000">METASITEID</text>
<polygon fill="none" stroke="#000000" points="265.5,-437.7 265.5,-459.7 384.5,-459.7 384.5,-437.7 265.5,-437.7"/>
<image xlink:href="../../images/primaryKeys.png" width="11px" height="12px" preserveAspectRatio="xMinYMin meet" x="270.5" y="-454.7"/>
<text text-anchor="start" x="292.5" y="-444.8" font-family="Helvetica,sans-Serif" font-size="11.00" fill="#000000">id</text>
<polygon fill="none" stroke="#000000" points="265.5,-418.7 265.5,-437.7 384.5,-437.7 384.5,-418.7 265.5,-418.7"/>
<text text-anchor="start" x="268.5" y="-424.8" font-family="Helvetica,sans-Serif" font-size="11.00" fill="#000000">...</text>
<polygon fill="#ffffff" stroke="transparent" points="265.5,-399.7 265.5,-418.7 304.5,-418.7 304.5,-399.7 265.5,-399.7"/>
<polygon fill="none" stroke="#000000" points="265.5,-399.7 265.5,-418.7 304.5,-418.7 304.5,-399.7 265.5,-399.7"/>
<text text-anchor="start" x="268.5" y="-405.8" font-family="Helvetica,sans-Serif" font-size="11.00" fill="#000000">&lt; 6</text>
<polygon fill="#ffffff" stroke="transparent" points="304.5,-399.7 304.5,-418.7 363.5,-418.7 363.5,-399.7 304.5,-399.7"/>
<polygon fill="none" stroke="#000000" points="304.5,-399.7 304.5,-418.7 363.5,-418.7 363.5,-399.7 304.5,-399.7"/>
<text text-anchor="start" x="315.8807" y="-405.8" font-family="Helvetica,sans-Serif" font-size="11.00" fill="#000000">311 rows</text>
<polygon fill="#ffffff" stroke="transparent" points="363.5,-399.7 363.5,-418.7 384.5,-418.7 384.5,-399.7 363.5,-399.7"/>
<polygon fill="none" stroke="#000000" points="363.5,-399.7 363.5,-418.7 384.5,-418.7 384.5,-399.7 363.5,-399.7"/>
<text text-anchor="start" x="375.3862" y="-405.8" font-family="Helvetica,sans-Serif" font-size="11.00" fill="#000000"> &#160;</text>
</a>
</g>
</g>
<!-- ippd_datasets&#45;&gt;global_Author -->
<g id="edge5" class="edge">
<title>ippd_datasets:w&#45;&gt;global_Author:e</title>
<path fill="none" stroke="#000000" stroke-dasharray="5,2" d="M251.1244,-495.4498C206.4684,-515.9153 274.0616,-643.7 208,-643.7"/>
<polygon fill="#000000" stroke="#000000" points="257.6425,-494.203 266.1764,-496.2359 261.5712,-493.4515 265.5,-492.7 265.5,-492.7 265.5,-492.7 261.5712,-493.4515 264.8236,-489.1641 257.6425,-494.203 257.6425,-494.203"/>
<ellipse fill="none" stroke="#000000" cx="254.4994" cy="-494.8043" rx="3.2" ry="3.2"/>
</g>
<!-- ippd_datasets&#45;&gt;global_Author -->
<g id="edge6" class="edge">
<title>ippd_datasets:w&#45;&gt;global_Author:e</title>
<path fill="none" stroke="#000000" stroke-dasharray="5,2" d="M251.4766,-562.5731C227.2654,-579.2016 247.7303,-643.7 208,-643.7"/>
<polygon fill="#000000" stroke="#000000" points="257.7887,-560.8298 266.4584,-562.1701 261.6444,-559.7649 265.5,-558.7 265.5,-558.7 265.5,-558.7 261.6444,-559.7649 264.5416,-555.2299 257.7887,-560.8298 257.7887,-560.8298"/>
<ellipse fill="none" stroke="#000000" cx="254.7042" cy="-561.6818" rx="3.2" ry="3.2"/>
</g>
<!-- neo_contacts -->
<g id="node7" class="node">
<title>neo_contacts</title>
<g id="a_node7"><a xlink:href="../../tables/neo_contacts.html" xlink:title="neo_contacts" target="_top">
<polygon fill="#ffffff" stroke="transparent" points="266.5,-230.2 266.5,-379.2 382.5,-379.2 382.5,-230.2 266.5,-230.2"/>
<polygon fill="#f5f5f5" stroke="transparent" points="266.5,-355.7 266.5,-378.7 382.5,-378.7 382.5,-355.7 266.5,-355.7"/>
<polygon fill="none" stroke="#000000" points="266.5,-355.7 266.5,-378.7 382.5,-378.7 382.5,-355.7 266.5,-355.7"/>
<text text-anchor="start" x="271.5" y="-364.3" font-family="Helvetica,sans-Serif" font-weight="bold" font-size="11.00" fill="#000000">neo_contacts</text>
<text text-anchor="start" x="348.0219" y="-363.8" font-family="Helvetica,sans-Serif" font-size="11.00" fill="#000000">[table]</text>
<polygon fill="none" stroke="#000000" points="266.5,-333.7 266.5,-355.7 382.5,-355.7 382.5,-333.7 266.5,-333.7"/>
<image xlink:href="../../images/primaryKeys.png" width="11px" height="12px" preserveAspectRatio="xMinYMin meet" x="271.5" y="-350.7"/>
<text text-anchor="start" x="291.5" y="-340.8" font-family="Helvetica,sans-Serif" font-size="11.00" fill="#000000">CONTACTID</text>
<polygon fill="none" stroke="#000000" points="266.5,-311.7 266.5,-333.7 382.5,-333.7 382.5,-311.7 266.5,-311.7"/>
<image xlink:href="../../images/foreignKeys.png" width="11px" height="12px" preserveAspectRatio="xMinYMin meet" x="271.5" y="-328.7"/>
<text text-anchor="start" x="291.5" y="-318.8" font-family="Helvetica,sans-Serif" font-size="11.00" fill="#000000">ALIASID</text>
<polygon fill="none" stroke="#000000" points="266.5,-289.7 266.5,-311.7 382.5,-311.7 382.5,-289.7 266.5,-289.7"/>
<image xlink:href="../../images/foreignKeys.png" width="11px" height="12px" preserveAspectRatio="xMinYMin meet" x="271.5" y="-306.7"/>
<text text-anchor="start" x="291.5" y="-296.8" font-family="Helvetica,sans-Serif" font-size="11.00" fill="#000000">CSTATUSID</text>
<polygon fill="none" stroke="#000000" points="266.5,-267.7 266.5,-289.7 382.5,-289.7 382.5,-267.7 266.5,-267.7"/>
<image xlink:href="../../images/foreignKeys.png" width="11px" height="12px" preserveAspectRatio="xMinYMin meet" x="271.5" y="-284.7"/>
<text text-anchor="start" x="291.5" y="-274.8" font-family="Helvetica,sans-Serif" font-size="11.00" fill="#000000">OAID</text>
<polygon fill="none" stroke="#000000" points="266.5,-248.7 266.5,-267.7 382.5,-267.7 382.5,-248.7 266.5,-248.7"/>
<text text-anchor="start" x="269.5" y="-254.8" font-family="Helvetica,sans-Serif" font-size="11.00" fill="#000000">...</text>
<polygon fill="#ffffff" stroke="transparent" points="266.5,-229.7 266.5,-248.7 291.5,-248.7 291.5,-229.7 266.5,-229.7"/>
<polygon fill="none" stroke="#000000" points="266.5,-229.7 266.5,-248.7 291.5,-248.7 291.5,-229.7 266.5,-229.7"/>
<text text-anchor="start" x="269.5" y="-235.8" font-family="Helvetica,sans-Serif" font-size="11.00" fill="#000000">&lt; 3</text>
<polygon fill="#ffffff" stroke="transparent" points="291.5,-229.7 291.5,-248.7 358.5,-248.7 358.5,-229.7 291.5,-229.7"/>
<polygon fill="none" stroke="#000000" points="291.5,-229.7 291.5,-248.7 358.5,-248.7 358.5,-229.7 291.5,-229.7"/>
<text text-anchor="start" x="295.594" y="-235.8" font-family="Helvetica,sans-Serif" font-size="11.00" fill="#000000">13.396 rows</text>
<polygon fill="#ffffff" stroke="transparent" points="358.5,-229.7 358.5,-248.7 382.5,-248.7 382.5,-229.7 358.5,-229.7"/>
<polygon fill="none" stroke="#000000" points="358.5,-229.7 358.5,-248.7 382.5,-248.7 382.5,-229.7 358.5,-229.7"/>
<text text-anchor="start" x="363.9053" y="-235.8" font-family="Helvetica,sans-Serif" font-size="11.00" fill="#000000">3 &gt;</text>
</a>
</g>
</g>
<!-- neo_contacts&#45;&gt;global_Author -->
<g id="edge7" class="edge">
<title>neo_contacts:w&#45;&gt;global_Author:e</title>
<path fill="none" stroke="#000000" d="M252.5112,-283.3149C197.5755,-325.567 284.6913,-643.7 208,-643.7"/>
<polygon fill="#000000" stroke="#000000" points="258.9027,-281.2064 267.6279,-282.1188 262.7014,-279.9532 266.5,-278.7 266.5,-278.7 266.5,-278.7 262.7014,-279.9532 265.3721,-275.2812 258.9027,-281.2064 258.9027,-281.2064"/>
<ellipse fill="none" stroke="#000000" cx="255.8638" cy="-282.2089" rx="3.2" ry="3.2"/>
</g>
<!-- sahulchar_units -->
<g id="node8" class="node">
<title>sahulchar_units</title>
<g id="a_node8"><a xlink:href="../../tables/sahulchar_units.html" xlink:title="sahulchar_units" target="_top">
<polygon fill="#ffffff" stroke="transparent" points="259,-38.2 259,-209.2 390,-209.2 390,-38.2 259,-38.2"/>
<polygon fill="#f5f5f5" stroke="transparent" points="259.5,-185.7 259.5,-208.7 390.5,-208.7 390.5,-185.7 259.5,-185.7"/>
<polygon fill="none" stroke="#000000" points="259.5,-185.7 259.5,-208.7 390.5,-208.7 390.5,-185.7 259.5,-185.7"/>
<text text-anchor="start" x="264.5" y="-194.3" font-family="Helvetica,sans-Serif" font-weight="bold" font-size="11.00" fill="#000000">sahulchar_units</text>
<text text-anchor="start" x="356.0219" y="-193.8" font-family="Helvetica,sans-Serif" font-size="11.00" fill="#000000">[table]</text>
<polygon fill="none" stroke="#000000" points="259.5,-163.7 259.5,-185.7 390.5,-185.7 390.5,-163.7 259.5,-163.7"/>
<image xlink:href="../../images/foreignKeys.png" width="11px" height="12px" preserveAspectRatio="xMinYMin meet" x="264.5" y="-180.7"/>
<text text-anchor="start" x="288.5" y="-170.8" font-family="Helvetica,sans-Serif" font-size="11.00" fill="#000000">UNITID</text>
<polygon fill="none" stroke="#000000" points="259.5,-141.7 259.5,-163.7 390.5,-163.7 390.5,-141.7 259.5,-141.7"/>
<image xlink:href="../../images/foreignKeys.png" width="11px" height="12px" preserveAspectRatio="xMinYMin meet" x="264.5" y="-158.7"/>
<text text-anchor="start" x="288.5" y="-148.8" font-family="Helvetica,sans-Serif" font-size="11.00" fill="#000000">SITEID</text>
<polygon fill="none" stroke="#000000" points="259.5,-119.7 259.5,-141.7 390.5,-141.7 390.5,-119.7 259.5,-119.7"/>
<image xlink:href="../../images/foreignKeys.png" width="11px" height="12px" preserveAspectRatio="xMinYMin meet" x="264.5" y="-136.7"/>
<text text-anchor="start" x="288.5" y="-126.8" font-family="Helvetica,sans-Serif" font-size="11.00" fill="#000000">OAID</text>
<polygon fill="none" stroke="#000000" points="259.5,-97.7 259.5,-119.7 390.5,-119.7 390.5,-97.7 259.5,-97.7"/>
<image xlink:href="../../images/foreignKeys.png" width="11px" height="12px" preserveAspectRatio="xMinYMin meet" x="264.5" y="-114.7"/>
<text text-anchor="start" x="288.5" y="-104.8" font-family="Helvetica,sans-Serif" font-size="11.00" fill="#000000">METASITEID</text>
<polygon fill="none" stroke="#000000" points="259.5,-75.7 259.5,-97.7 390.5,-97.7 390.5,-75.7 259.5,-75.7"/>
<image xlink:href="../../images/primaryKeys.png" width="11px" height="12px" preserveAspectRatio="xMinYMin meet" x="264.5" y="-92.7"/>
<text text-anchor="start" x="288.5" y="-82.8" font-family="Helvetica,sans-Serif" font-size="11.00" fill="#000000">id</text>
<polygon fill="none" stroke="#000000" points="259.5,-56.7 259.5,-75.7 390.5,-75.7 390.5,-56.7 259.5,-56.7"/>
<text text-anchor="start" x="262.5" y="-62.8" font-family="Helvetica,sans-Serif" font-size="11.00" fill="#000000">...</text>
<polygon fill="#ffffff" stroke="transparent" points="259.5,-37.7 259.5,-56.7 304.5,-56.7 304.5,-37.7 259.5,-37.7"/>
<polygon fill="none" stroke="#000000" points="259.5,-37.7 259.5,-56.7 304.5,-56.7 304.5,-37.7 259.5,-37.7"/>
<text text-anchor="start" x="262.5" y="-43.8" font-family="Helvetica,sans-Serif" font-size="11.00" fill="#000000">&lt; 4</text>
<polygon fill="#ffffff" stroke="transparent" points="304.5,-37.7 304.5,-56.7 366.5,-56.7 366.5,-37.7 304.5,-37.7"/>
<polygon fill="none" stroke="#000000" points="304.5,-37.7 304.5,-56.7 366.5,-56.7 366.5,-37.7 304.5,-37.7"/>
<text text-anchor="start" x="318.8807" y="-43.8" font-family="Helvetica,sans-Serif" font-size="11.00" fill="#000000">535 rows</text>
<polygon fill="#ffffff" stroke="transparent" points="366.5,-37.7 366.5,-56.7 390.5,-56.7 390.5,-37.7 366.5,-37.7"/>
<polygon fill="none" stroke="#000000" points="366.5,-37.7 366.5,-56.7 390.5,-56.7 390.5,-37.7 366.5,-37.7"/>
<text text-anchor="start" x="381.3862" y="-43.8" font-family="Helvetica,sans-Serif" font-size="11.00" fill="#000000"> &#160;</text>
</a>
</g>
</g>
<!-- sahulchar_units&#45;&gt;global_Author -->
<g id="edge8" class="edge">
<title>sahulchar_units:w&#45;&gt;global_Author:e</title>
<path fill="none" stroke="#000000" stroke-dasharray="5,2" d="M245.2542,-133.9759C160.9392,-177.6666 317.2024,-643.7 208,-643.7"/>
<polygon fill="#000000" stroke="#000000" points="251.7035,-132.4929 260.3068,-134.2084 255.6017,-131.5965 259.5,-130.7 259.5,-130.7 259.5,-130.7 255.6017,-131.5965 258.6932,-127.1916 251.7035,-132.4929 251.7035,-132.4929"/>
<ellipse fill="none" stroke="#000000" cx="248.5849" cy="-133.2101" rx="3.2" ry="3.2"/>
</g>
</g>
</svg>
