<?xml version="1.0" encoding="UTF-8" standalone="no"?>
<!DOCTYPE svg PUBLIC "-//W3C//DTD SVG 1.1//EN"
 "http://www.w3.org/Graphics/SVG/1.1/DTD/svg11.dtd">
<!-- Generated by graphviz version 2.40.1 (20161225.0304)
 -->
<!-- Title: twoDegreesRelationshipsDiagramImplied Pages: 1 -->
<svg width="925pt" height="1669pt"
 viewBox="0.00 0.00 924.74 1669.20" xmlns="http://www.w3.org/2000/svg" xmlns:xlink="http://www.w3.org/1999/xlink">
<g id="graph0" class="graph" transform="scale(1 1) rotate(0) translate(4 1665.2)">
<title>twoDegreesRelationshipsDiagramImplied</title>
<polygon fill="#ffffff" stroke="transparent" points="-4,4 -4,-1665.2 920.7443,-1665.2 920.7443,4 -4,4"/>
<text text-anchor="middle" x="72.4936" y="-7.3" font-family="Helvetica,sans-Serif" font-size="11.00" fill="#000000">Generated by SchemaSpy</text>
<!-- arch_Sample -->
<g id="node1" class="node">
<title>arch_Sample</title>
<g id="a_node1"><a xlink:href="../../tables/arch_Sample.html" xlink:title="arch_Sample" target="_top">
<polygon fill="#ffffff" stroke="transparent" points="727.7443,-1186.2 727.7443,-1247.2 840.7443,-1247.2 840.7443,-1186.2 727.7443,-1186.2"/>
<polygon fill="#f5f5f5" stroke="transparent" points="728.2443,-1223.7 728.2443,-1246.7 841.2443,-1246.7 841.2443,-1223.7 728.2443,-1223.7"/>
<polygon fill="none" stroke="#000000" points="728.2443,-1223.7 728.2443,-1246.7 841.2443,-1246.7 841.2443,-1223.7 728.2443,-1223.7"/>
<text text-anchor="start" x="733.2443" y="-1232.3" font-family="Helvetica,sans-Serif" font-weight="bold" font-size="11.00" fill="#000000">arch_Sample</text>
<text text-anchor="start" x="806.7662" y="-1231.8" font-family="Helvetica,sans-Serif" font-size="11.00" fill="#000000">[table]</text>
<polygon fill="none" stroke="#000000" points="728.2443,-1204.7 728.2443,-1223.7 841.2443,-1223.7 841.2443,-1204.7 728.2443,-1204.7"/>
<text text-anchor="start" x="731.2443" y="-1210.8" font-family="Helvetica,sans-Serif" font-size="11.00" fill="#000000">...</text>
<polygon fill="#ffffff" stroke="transparent" points="728.2443,-1185.7 728.2443,-1204.7 752.2443,-1204.7 752.2443,-1185.7 728.2443,-1185.7"/>
<polygon fill="none" stroke="#000000" points="728.2443,-1185.7 728.2443,-1204.7 752.2443,-1204.7 752.2443,-1185.7 728.2443,-1185.7"/>
<text text-anchor="start" x="731.2443" y="-1191.8" font-family="Helvetica,sans-Serif" font-size="11.00" fill="#000000">&lt; 2</text>
<polygon fill="#ffffff" stroke="transparent" points="752.2443,-1185.7 752.2443,-1204.7 818.2443,-1204.7 818.2443,-1185.7 752.2443,-1185.7"/>
<polygon fill="none" stroke="#000000" points="752.2443,-1185.7 752.2443,-1204.7 818.2443,-1204.7 818.2443,-1185.7 752.2443,-1185.7"/>
<text text-anchor="start" x="755.3383" y="-1191.8" font-family="Helvetica,sans-Serif" font-size="11.00" fill="#000000">10.412 rows</text>
<polygon fill="#ffffff" stroke="transparent" points="818.2443,-1185.7 818.2443,-1204.7 841.2443,-1204.7 841.2443,-1185.7 818.2443,-1185.7"/>
<polygon fill="none" stroke="#000000" points="818.2443,-1185.7 818.2443,-1204.7 841.2443,-1204.7 841.2443,-1185.7 818.2443,-1185.7"/>
<text text-anchor="start" x="822.6496" y="-1191.8" font-family="Helvetica,sans-Serif" font-size="11.00" fill="#000000">3 &gt;</text>
</a>
</g>
</g>
<!-- global_SiteMaster -->
<g id="node2" class="node">
<title>global_SiteMaster</title>
<g id="a_node2"><a xlink:href="../../tables/global_SiteMaster.html" xlink:title="global_SiteMaster" target="_top">
<polygon fill="#ffffff" stroke="transparent" points="469.7443,-773.2 469.7443,-834.2 610.7443,-834.2 610.7443,-773.2 469.7443,-773.2"/>
<polygon fill="#f5f5f5" stroke="transparent" points="470.2443,-810.7 470.2443,-833.7 611.2443,-833.7 611.2443,-810.7 470.2443,-810.7"/>
<polygon fill="none" stroke="#000000" points="470.2443,-810.7 470.2443,-833.7 611.2443,-833.7 611.2443,-810.7 470.2443,-810.7"/>
<text text-anchor="start" x="475.2443" y="-819.3" font-family="Helvetica,sans-Serif" font-weight="bold" font-size="11.00" fill="#000000">global_SiteMaster</text>
<text text-anchor="start" x="576.7662" y="-818.8" font-family="Helvetica,sans-Serif" font-size="11.00" fill="#000000">[table]</text>
<polygon fill="none" stroke="#000000" points="470.2443,-791.7 470.2443,-810.7 611.2443,-810.7 611.2443,-791.7 470.2443,-791.7"/>
<text text-anchor="start" x="473.2443" y="-797.8" font-family="Helvetica,sans-Serif" font-size="11.00" fill="#000000">...</text>
<polygon fill="#ffffff" stroke="transparent" points="470.2443,-772.7 470.2443,-791.7 505.2443,-791.7 505.2443,-772.7 470.2443,-772.7"/>
<polygon fill="none" stroke="#000000" points="470.2443,-772.7 470.2443,-791.7 505.2443,-791.7 505.2443,-772.7 470.2443,-772.7"/>
<text text-anchor="start" x="473.2443" y="-778.8" font-family="Helvetica,sans-Serif" font-size="11.00" fill="#000000">&lt; 5</text>
<polygon fill="#ffffff" stroke="transparent" points="505.2443,-772.7 505.2443,-791.7 577.2443,-791.7 577.2443,-772.7 505.2443,-772.7"/>
<polygon fill="none" stroke="#000000" points="505.2443,-772.7 505.2443,-791.7 577.2443,-791.7 577.2443,-772.7 505.2443,-772.7"/>
<text text-anchor="start" x="514.3383" y="-778.8" font-family="Helvetica,sans-Serif" font-size="11.00" fill="#000000">23.245 rows</text>
<polygon fill="#ffffff" stroke="transparent" points="577.2443,-772.7 577.2443,-791.7 611.2443,-791.7 611.2443,-772.7 577.2443,-772.7"/>
<polygon fill="none" stroke="#000000" points="577.2443,-772.7 577.2443,-791.7 611.2443,-791.7 611.2443,-772.7 577.2443,-772.7"/>
<text text-anchor="start" x="586.5347" y="-778.8" font-family="Helvetica,sans-Serif" font-size="11.00" fill="#000000">20 &gt;</text>
</a>
</g>
</g>
<!-- arch_Sample&#45;&gt;global_SiteMaster -->
<g id="edge1" class="edge">
<title>arch_Sample:w&#45;&gt;global_SiteMaster:e</title>
<path fill="none" stroke="#000000" d="M713.5508,-1213.1367C686.1191,-1210.7791 672.7741,-1200.6427 651.7443,-1175.7 651.039,-1174.8634 578.0479,-930.3965 550.5587,-838.2736"/>
<polygon fill="#000000" stroke="#000000" points="720.2502,-1213.3935 728.1064,-1217.2974 724.2473,-1213.5467 728.2443,-1213.7 728.2443,-1213.7 728.2443,-1213.7 724.2473,-1213.5467 728.3823,-1210.1026 720.2502,-1213.3935 720.2502,-1213.3935"/>
<ellipse fill="none" stroke="#000000" cx="717.0526" cy="-1213.2709" rx="3.2" ry="3.2"/>
</g>
<!-- global_MetaSite -->
<g id="node4" class="node">
<title>global_MetaSite</title>
<g id="a_node4"><a xlink:href="../../tables/global_MetaSite.html" xlink:title="global_MetaSite" target="_top">
<polygon fill="#ffffff" stroke="transparent" points="290.7443,-619.2 290.7443,-680.2 420.7443,-680.2 420.7443,-619.2 290.7443,-619.2"/>
<polygon fill="#f5f5f5" stroke="transparent" points="290.7443,-656.7 290.7443,-679.7 420.7443,-679.7 420.7443,-656.7 290.7443,-656.7"/>
<polygon fill="none" stroke="#000000" points="290.7443,-656.7 290.7443,-679.7 420.7443,-679.7 420.7443,-656.7 290.7443,-656.7"/>
<text text-anchor="start" x="295.7443" y="-665.3" font-family="Helvetica,sans-Serif" font-weight="bold" font-size="11.00" fill="#000000">global_MetaSite</text>
<text text-anchor="start" x="386.2662" y="-664.8" font-family="Helvetica,sans-Serif" font-size="11.00" fill="#000000">[table]</text>
<polygon fill="none" stroke="#000000" points="290.7443,-637.7 290.7443,-656.7 420.7443,-656.7 420.7443,-637.7 290.7443,-637.7"/>
<text text-anchor="start" x="293.7443" y="-643.8" font-family="Helvetica,sans-Serif" font-size="11.00" fill="#000000">...</text>
<polygon fill="#ffffff" stroke="transparent" points="290.7443,-618.7 290.7443,-637.7 319.7443,-637.7 319.7443,-618.7 290.7443,-618.7"/>
<polygon fill="none" stroke="#000000" points="290.7443,-618.7 290.7443,-637.7 319.7443,-637.7 319.7443,-618.7 290.7443,-618.7"/>
<text text-anchor="start" x="293.7443" y="-624.8" font-family="Helvetica,sans-Serif" font-size="11.00" fill="#000000">&lt; 2</text>
<polygon fill="#ffffff" stroke="transparent" points="319.7443,-618.7 319.7443,-637.7 388.7443,-637.7 388.7443,-618.7 319.7443,-618.7"/>
<polygon fill="none" stroke="#000000" points="319.7443,-618.7 319.7443,-637.7 388.7443,-637.7 388.7443,-618.7 319.7443,-618.7"/>
<text text-anchor="start" x="325.8383" y="-624.8" font-family="Helvetica,sans-Serif" font-size="11.00" fill="#000000">12.138 rows</text>
<polygon fill="#ffffff" stroke="transparent" points="388.7443,-618.7 388.7443,-637.7 420.7443,-637.7 420.7443,-618.7 388.7443,-618.7"/>
<polygon fill="none" stroke="#000000" points="388.7443,-618.7 388.7443,-637.7 420.7443,-637.7 420.7443,-618.7 388.7443,-618.7"/>
<text text-anchor="start" x="396.0347" y="-624.8" font-family="Helvetica,sans-Serif" font-size="11.00" fill="#000000">16 &gt;</text>
</a>
</g>
</g>
<!-- global_SiteMaster&#45;&gt;global_MetaSite -->
<g id="edge22" class="edge">
<title>global_SiteMaster:w&#45;&gt;global_MetaSite:e</title>
<path fill="none" stroke="#000000" d="M476.3048,-759.6165C471.1712,-755.146 466.2393,-750.4828 461.7443,-745.7 443.255,-726.0268 448.0425,-713.5804 428.7443,-694.7 425.0196,-691.0559 420.9489,-687.5671 416.6963,-684.2593"/>
<polygon fill="#000000" stroke="#000000" points="481.6001,-763.9794 485.4852,-771.845 484.6873,-766.523 487.7744,-769.0666 487.7744,-769.0666 487.7744,-769.0666 484.6873,-766.523 490.0636,-766.2881 481.6001,-763.9794 481.6001,-763.9794"/>
<ellipse fill="none" stroke="#000000" cx="479.1304" cy="-761.9446" rx="3.2" ry="3.2"/>
</g>
<!-- global_SiteCode -->
<g id="node14" class="node">
<title>global_SiteCode</title>
<g id="a_node14"><a xlink:href="../../tables/global_SiteCode.html" xlink:title="global_SiteCode" target="_top">
<polygon fill="#ffffff" stroke="transparent" points="30.7443,-648.7 30.7443,-826.7 241.7443,-826.7 241.7443,-648.7 30.7443,-648.7"/>
<polygon fill="#f5f5f5" stroke="transparent" points="33.2443,-801.7 33.2443,-824.7 240.2443,-824.7 240.2443,-801.7 33.2443,-801.7"/>
<polygon fill="none" stroke="#000000" points="33.2443,-801.7 33.2443,-824.7 240.2443,-824.7 240.2443,-801.7 33.2443,-801.7"/>
<text text-anchor="start" x="38.2443" y="-810.3" font-family="Helvetica,sans-Serif" font-weight="bold" font-size="11.00" fill="#000000">global_SiteCode</text>
<text text-anchor="start" x="205.288" y="-809.8" font-family="Helvetica,sans-Serif" font-size="11.00" fill="#000000">[table]</text>
<polygon fill="none" stroke="#000000" points="33.2443,-779.7 33.2443,-801.7 148.2443,-801.7 148.2443,-779.7 33.2443,-779.7"/>
<image xlink:href="../../images/primaryKeys.png" width="11px" height="12px" preserveAspectRatio="xMinYMin meet" x="38.2443" y="-796.7"/>
<text text-anchor="start" x="53.2443" y="-786.8" font-family="Helvetica,sans-Serif" font-size="11.00" fill="#000000">SITECODEID</text>
<polygon fill="none" stroke="#000000" points="148.2443,-779.7 148.2443,-801.7 240.2443,-801.7 240.2443,-779.7 148.2443,-779.7"/>
<text text-anchor="start" x="151.2443" y="-787.4" font-family="Helvetica,sans-Serif" font-size="11.00" fill="#000000">smallserial[5]</text>
<polygon fill="none" stroke="#000000" points="33.2443,-757.7 33.2443,-779.7 148.2443,-779.7 148.2443,-757.7 33.2443,-757.7"/>
<text text-anchor="start" x="53.2443" y="-764.8" font-family="Helvetica,sans-Serif" font-size="11.00" fill="#000000">SITECODE</text>
<polygon fill="none" stroke="#000000" points="148.2443,-757.7 148.2443,-779.7 240.2443,-779.7 240.2443,-757.7 148.2443,-757.7"/>
<text text-anchor="start" x="151.2443" y="-765.4" font-family="Helvetica,sans-Serif" font-size="11.00" fill="#000000">text[2147483647]</text>
<polygon fill="none" stroke="#000000" points="33.2443,-735.7 33.2443,-757.7 148.2443,-757.7 148.2443,-735.7 33.2443,-735.7"/>
<text text-anchor="start" x="53.2443" y="-742.8" font-family="Helvetica,sans-Serif" font-size="11.00" fill="#000000">CREATED_AT</text>
<polygon fill="none" stroke="#000000" points="148.2443,-735.7 148.2443,-757.7 240.2443,-757.7 240.2443,-735.7 148.2443,-735.7"/>
<text text-anchor="start" x="150.8466" y="-743.4" font-family="Helvetica,sans-Serif" font-size="11.00" fill="#000000">timestamptz[35,6]</text>
<polygon fill="none" stroke="#000000" points="33.2443,-713.7 33.2443,-735.7 148.2443,-735.7 148.2443,-713.7 33.2443,-713.7"/>
<text text-anchor="start" x="53.2443" y="-720.8" font-family="Helvetica,sans-Serif" font-size="11.00" fill="#000000">UPDATED_AT</text>
<polygon fill="none" stroke="#000000" points="148.2443,-713.7 148.2443,-735.7 240.2443,-735.7 240.2443,-713.7 148.2443,-713.7"/>
<text text-anchor="start" x="150.8466" y="-721.4" font-family="Helvetica,sans-Serif" font-size="11.00" fill="#000000">timestamptz[35,6]</text>
<polygon fill="none" stroke="#000000" points="33.2443,-691.7 33.2443,-713.7 148.2443,-713.7 148.2443,-691.7 33.2443,-691.7"/>
<image xlink:href="../../images/foreignKeys.png" width="11px" height="12px" preserveAspectRatio="xMinYMin meet" x="38.2443" y="-708.7"/>
<text text-anchor="start" x="53.2443" y="-698.8" font-family="Helvetica,sans-Serif" font-size="11.00" fill="#000000">PARENTID</text>
<polygon fill="none" stroke="#000000" points="148.2443,-691.7 148.2443,-713.7 240.2443,-713.7 240.2443,-691.7 148.2443,-691.7"/>
<text text-anchor="start" x="151.2443" y="-699.4" font-family="Helvetica,sans-Serif" font-size="11.00" fill="#000000">int2[5]</text>
<polygon fill="none" stroke="#000000" points="33.2443,-669.7 33.2443,-691.7 148.2443,-691.7 148.2443,-669.7 33.2443,-669.7"/>
<text text-anchor="start" x="53.2443" y="-676.8" font-family="Helvetica,sans-Serif" font-size="11.00" fill="#000000">SITEDESCR</text>
<polygon fill="none" stroke="#000000" points="148.2443,-669.7 148.2443,-691.7 240.2443,-691.7 240.2443,-669.7 148.2443,-669.7"/>
<text text-anchor="start" x="151.2443" y="-677.4" font-family="Helvetica,sans-Serif" font-size="11.00" fill="#000000">text[2147483647]</text>
<polygon fill="#ffffff" stroke="transparent" points="33.2443,-650.7 33.2443,-669.7 79.2443,-669.7 79.2443,-650.7 33.2443,-650.7"/>
<polygon fill="none" stroke="#000000" points="33.2443,-650.7 33.2443,-669.7 79.2443,-669.7 79.2443,-650.7 33.2443,-650.7"/>
<text text-anchor="start" x="36.2443" y="-656.8" font-family="Helvetica,sans-Serif" font-size="11.00" fill="#000000">&lt; 1</text>
<polygon fill="#ffffff" stroke="transparent" points="79.2443,-650.7 79.2443,-669.7 148.2443,-669.7 148.2443,-650.7 79.2443,-650.7"/>
<polygon fill="none" stroke="#000000" points="79.2443,-650.7 79.2443,-669.7 148.2443,-669.7 148.2443,-650.7 79.2443,-650.7"/>
<text text-anchor="start" x="106.7399" y="-656.8" font-family="Helvetica,sans-Serif" font-size="11.00" fill="#000000">87 rows</text>
<polygon fill="#ffffff" stroke="transparent" points="148.2443,-650.7 148.2443,-669.7 240.2443,-669.7 240.2443,-650.7 148.2443,-650.7"/>
<polygon fill="none" stroke="#000000" points="148.2443,-650.7 148.2443,-669.7 240.2443,-669.7 240.2443,-650.7 148.2443,-650.7"/>
<text text-anchor="start" x="221.6496" y="-656.8" font-family="Helvetica,sans-Serif" font-size="11.00" fill="#000000">3 &gt;</text>
<polygon fill="none" stroke="#000000" stroke-width="2" points="31.7443,-649.7 31.7443,-825.7 240.7443,-825.7 240.7443,-649.7 31.7443,-649.7"/>
</a>
</g>
</g>
<!-- global_SiteMaster&#45;&gt;global_SiteCode -->
<g id="edge24" class="edge">
<title>global_SiteMaster:w&#45;&gt;global_SiteCode:e</title>
<path fill="none" stroke="#000000" d="M447.0214,-797.5792C387.8226,-794.2078 309.57,-790.7 240.2443,-790.7"/>
<polygon fill="#000000" stroke="#000000" points="453.658,-797.9658 461.435,-802.025 457.6512,-798.1985 461.6444,-798.4311 461.6444,-798.4311 461.6444,-798.4311 457.6512,-798.1985 461.8538,-794.8372 453.658,-797.9658 453.658,-797.9658"/>
<ellipse fill="none" stroke="#000000" cx="450.4634" cy="-797.7796" rx="3.2" ry="3.2"/>
</g>
<!-- global_biomeID -->
<g id="node15" class="node">
<title>global_biomeID</title>
<g id="a_node15"><a xlink:href="../../tables/global_biomeID.html" xlink:title="global_biomeID" target="_top">
<polygon fill="#ffffff" stroke="transparent" points="291.7443,-705.2 291.7443,-766.2 419.7443,-766.2 419.7443,-705.2 291.7443,-705.2"/>
<polygon fill="#f5f5f5" stroke="transparent" points="291.7443,-742.7 291.7443,-765.7 419.7443,-765.7 419.7443,-742.7 291.7443,-742.7"/>
<polygon fill="none" stroke="#000000" points="291.7443,-742.7 291.7443,-765.7 419.7443,-765.7 419.7443,-742.7 291.7443,-742.7"/>
<text text-anchor="start" x="296.7443" y="-751.3" font-family="Helvetica,sans-Serif" font-weight="bold" font-size="11.00" fill="#000000">global_biomeID</text>
<text text-anchor="start" x="385.2662" y="-750.8" font-family="Helvetica,sans-Serif" font-size="11.00" fill="#000000">[table]</text>
<polygon fill="none" stroke="#000000" points="291.7443,-723.7 291.7443,-742.7 419.7443,-742.7 419.7443,-723.7 291.7443,-723.7"/>
<text text-anchor="start" x="294.7443" y="-729.8" font-family="Helvetica,sans-Serif" font-size="11.00" fill="#000000">...</text>
<polygon fill="#ffffff" stroke="transparent" points="291.7443,-704.7 291.7443,-723.7 333.7443,-723.7 333.7443,-704.7 291.7443,-704.7"/>
<polygon fill="none" stroke="#000000" points="291.7443,-704.7 291.7443,-723.7 333.7443,-723.7 333.7443,-704.7 291.7443,-704.7"/>
<text text-anchor="start" x="294.7443" y="-710.8" font-family="Helvetica,sans-Serif" font-size="11.00" fill="#000000">&lt; 1</text>
<polygon fill="#ffffff" stroke="transparent" points="333.7443,-704.7 333.7443,-723.7 387.7443,-723.7 387.7443,-704.7 333.7443,-704.7"/>
<polygon fill="none" stroke="#000000" points="333.7443,-704.7 333.7443,-723.7 387.7443,-723.7 387.7443,-704.7 333.7443,-704.7"/>
<text text-anchor="start" x="346.2399" y="-710.8" font-family="Helvetica,sans-Serif" font-size="11.00" fill="#000000">65 rows</text>
<polygon fill="#ffffff" stroke="transparent" points="387.7443,-704.7 387.7443,-723.7 419.7443,-723.7 419.7443,-704.7 387.7443,-704.7"/>
<polygon fill="none" stroke="#000000" points="387.7443,-704.7 387.7443,-723.7 419.7443,-723.7 419.7443,-704.7 387.7443,-704.7"/>
<text text-anchor="start" x="401.1496" y="-710.8" font-family="Helvetica,sans-Serif" font-size="11.00" fill="#000000">2 &gt;</text>
</a>
</g>
</g>
<!-- global_SiteMaster&#45;&gt;global_biomeID -->
<g id="edge20" class="edge">
<title>global_SiteMaster:w&#45;&gt;global_biomeID:e</title>
<path fill="none" stroke="#000000" d="M480.8446,-761.048C457.5341,-745.9769 433.1845,-732.7 419.7443,-732.7"/>
<polygon fill="#000000" stroke="#000000" points="486.2106,-764.6087 490.8861,-772.0316 489.5436,-766.8203 492.8765,-769.032 492.8765,-769.032 492.8765,-769.032 489.5436,-766.8203 494.867,-766.0323 486.2106,-764.6087 486.2106,-764.6087"/>
<ellipse fill="none" stroke="#000000" cx="483.5442" cy="-762.8393" rx="3.2" ry="3.2"/>
</g>
<!-- global_ibraID -->
<g id="node16" class="node">
<title>global_ibraID</title>
<g id="a_node16"><a xlink:href="../../tables/global_ibraID.html" xlink:title="global_ibraID" target="_top">
<polygon fill="#ffffff" stroke="transparent" points="298.2443,-897.2 298.2443,-958.2 413.2443,-958.2 413.2443,-897.2 298.2443,-897.2"/>
<polygon fill="#f5f5f5" stroke="transparent" points="298.7443,-934.7 298.7443,-957.7 413.7443,-957.7 413.7443,-934.7 298.7443,-934.7"/>
<polygon fill="none" stroke="#000000" points="298.7443,-934.7 298.7443,-957.7 413.7443,-957.7 413.7443,-934.7 298.7443,-934.7"/>
<text text-anchor="start" x="303.7443" y="-943.3" font-family="Helvetica,sans-Serif" font-weight="bold" font-size="11.00" fill="#000000">global_ibraID</text>
<text text-anchor="start" x="379.2662" y="-942.8" font-family="Helvetica,sans-Serif" font-size="11.00" fill="#000000">[table]</text>
<polygon fill="none" stroke="#000000" points="298.7443,-915.7 298.7443,-934.7 413.7443,-934.7 413.7443,-915.7 298.7443,-915.7"/>
<text text-anchor="start" x="301.7443" y="-921.8" font-family="Helvetica,sans-Serif" font-size="11.00" fill="#000000">...</text>
<polygon fill="#ffffff" stroke="transparent" points="298.7443,-896.7 298.7443,-915.7 329.7443,-915.7 329.7443,-896.7 298.7443,-896.7"/>
<polygon fill="none" stroke="#000000" points="298.7443,-896.7 298.7443,-915.7 329.7443,-915.7 329.7443,-896.7 298.7443,-896.7"/>
<text text-anchor="start" x="301.7443" y="-902.8" font-family="Helvetica,sans-Serif" font-size="11.00" fill="#000000"> &#160;</text>
<polygon fill="#ffffff" stroke="transparent" points="329.7443,-896.7 329.7443,-915.7 382.7443,-915.7 382.7443,-896.7 329.7443,-896.7"/>
<polygon fill="none" stroke="#000000" points="329.7443,-896.7 329.7443,-915.7 382.7443,-915.7 382.7443,-896.7 329.7443,-896.7"/>
<text text-anchor="start" x="341.2399" y="-902.8" font-family="Helvetica,sans-Serif" font-size="11.00" fill="#000000">90 rows</text>
<polygon fill="#ffffff" stroke="transparent" points="382.7443,-896.7 382.7443,-915.7 413.7443,-915.7 413.7443,-896.7 382.7443,-896.7"/>
<polygon fill="none" stroke="#000000" points="382.7443,-896.7 382.7443,-915.7 413.7443,-915.7 413.7443,-896.7 382.7443,-896.7"/>
<text text-anchor="start" x="395.1496" y="-902.8" font-family="Helvetica,sans-Serif" font-size="11.00" fill="#000000">1 &gt;</text>
</a>
</g>
</g>
<!-- global_SiteMaster&#45;&gt;global_ibraID -->
<g id="edge21" class="edge">
<title>global_SiteMaster:w&#45;&gt;global_ibraID:e</title>
<path fill="none" stroke="#000000" d="M515.1608,-851.0003C493.3798,-884.9375 458.3437,-924.7 413.7443,-924.7"/>
<polygon fill="#000000" stroke="#000000" points="518.6902,-845.206 525.9264,-840.2465 520.771,-841.7899 522.8519,-838.3737 522.8519,-838.3737 522.8519,-838.3737 520.771,-841.7899 519.7774,-836.501 518.6902,-845.206 518.6902,-845.206"/>
<ellipse fill="none" stroke="#000000" cx="517.0255" cy="-847.939" rx="3.2" ry="3.2"/>
</g>
<!-- global_rivID -->
<g id="node17" class="node">
<title>global_rivID</title>
<g id="a_node17"><a xlink:href="../../tables/global_rivID.html" xlink:title="global_rivID" target="_top">
<polygon fill="#ffffff" stroke="transparent" points="302.2443,-815.2 302.2443,-876.2 409.2443,-876.2 409.2443,-815.2 302.2443,-815.2"/>
<polygon fill="#f5f5f5" stroke="transparent" points="302.7443,-852.7 302.7443,-875.7 409.7443,-875.7 409.7443,-852.7 302.7443,-852.7"/>
<polygon fill="none" stroke="#000000" points="302.7443,-852.7 302.7443,-875.7 409.7443,-875.7 409.7443,-852.7 302.7443,-852.7"/>
<text text-anchor="start" x="307.7443" y="-861.3" font-family="Helvetica,sans-Serif" font-weight="bold" font-size="11.00" fill="#000000">global_rivID</text>
<text text-anchor="start" x="375.2662" y="-860.8" font-family="Helvetica,sans-Serif" font-size="11.00" fill="#000000">[table]</text>
<polygon fill="none" stroke="#000000" points="302.7443,-833.7 302.7443,-852.7 409.7443,-852.7 409.7443,-833.7 302.7443,-833.7"/>
<text text-anchor="start" x="305.7443" y="-839.8" font-family="Helvetica,sans-Serif" font-size="11.00" fill="#000000">...</text>
<polygon fill="#ffffff" stroke="transparent" points="302.7443,-814.7 302.7443,-833.7 326.7443,-833.7 326.7443,-814.7 302.7443,-814.7"/>
<polygon fill="none" stroke="#000000" points="302.7443,-814.7 302.7443,-833.7 326.7443,-833.7 326.7443,-814.7 302.7443,-814.7"/>
<text text-anchor="start" x="305.7443" y="-820.8" font-family="Helvetica,sans-Serif" font-size="11.00" fill="#000000"> &#160;</text>
<polygon fill="#ffffff" stroke="transparent" points="326.7443,-814.7 326.7443,-833.7 382.7443,-833.7 382.7443,-814.7 326.7443,-814.7"/>
<polygon fill="none" stroke="#000000" points="326.7443,-814.7 326.7443,-833.7 382.7443,-833.7 382.7443,-814.7 326.7443,-814.7"/>
<text text-anchor="start" x="335.125" y="-820.8" font-family="Helvetica,sans-Serif" font-size="11.00" fill="#000000">219 rows</text>
<polygon fill="#ffffff" stroke="transparent" points="382.7443,-814.7 382.7443,-833.7 409.7443,-833.7 409.7443,-814.7 382.7443,-814.7"/>
<polygon fill="none" stroke="#000000" points="382.7443,-814.7 382.7443,-833.7 409.7443,-833.7 409.7443,-814.7 382.7443,-814.7"/>
<text text-anchor="start" x="391.1496" y="-820.8" font-family="Helvetica,sans-Serif" font-size="11.00" fill="#000000">1 &gt;</text>
</a>
</g>
</g>
<!-- global_SiteMaster&#45;&gt;global_rivID -->
<g id="edge23" class="edge">
<title>global_SiteMaster:w&#45;&gt;global_rivID:e</title>
<path fill="none" stroke="#000000" d="M447.6182,-838.4258C435.0554,-841.0488 422.2002,-842.7 409.7443,-842.7"/>
<polygon fill="#000000" stroke="#000000" points="453.8583,-836.9405 462.4746,-838.59 457.7496,-836.0141 461.6409,-835.0878 461.6409,-835.0878 461.6409,-835.0878 457.7496,-836.0141 460.8072,-831.5857 453.8583,-836.9405 453.8583,-836.9405"/>
<ellipse fill="none" stroke="#000000" cx="450.7453" cy="-837.6815" rx="3.2" ry="3.2"/>
</g>
<!-- crn_aus_basins -->
<g id="node3" class="node">
<title>crn_aus_basins</title>
<g id="a_node3"><a xlink:href="../../tables/crn_aus_basins.html" xlink:title="crn_aus_basins" target="_top">
<polygon fill="#ffffff" stroke="transparent" points="719.7443,-1596.2 719.7443,-1657.2 848.7443,-1657.2 848.7443,-1596.2 719.7443,-1596.2"/>
<polygon fill="#f5f5f5" stroke="transparent" points="720.2443,-1633.7 720.2443,-1656.7 849.2443,-1656.7 849.2443,-1633.7 720.2443,-1633.7"/>
<polygon fill="none" stroke="#000000" points="720.2443,-1633.7 720.2443,-1656.7 849.2443,-1656.7 849.2443,-1633.7 720.2443,-1633.7"/>
<text text-anchor="start" x="725.2443" y="-1642.3" font-family="Helvetica,sans-Serif" font-weight="bold" font-size="11.00" fill="#000000">crn_aus_basins</text>
<text text-anchor="start" x="814.7662" y="-1641.8" font-family="Helvetica,sans-Serif" font-size="11.00" fill="#000000">[table]</text>
<polygon fill="none" stroke="#000000" points="720.2443,-1614.7 720.2443,-1633.7 849.2443,-1633.7 849.2443,-1614.7 720.2443,-1614.7"/>
<text text-anchor="start" x="723.2443" y="-1620.8" font-family="Helvetica,sans-Serif" font-size="11.00" fill="#000000">...</text>
<polygon fill="#ffffff" stroke="transparent" points="720.2443,-1595.7 720.2443,-1614.7 764.2443,-1614.7 764.2443,-1595.7 720.2443,-1595.7"/>
<polygon fill="none" stroke="#000000" points="720.2443,-1595.7 720.2443,-1614.7 764.2443,-1614.7 764.2443,-1595.7 720.2443,-1595.7"/>
<text text-anchor="start" x="723.2443" y="-1601.8" font-family="Helvetica,sans-Serif" font-size="11.00" fill="#000000">&lt; 5</text>
<polygon fill="#ffffff" stroke="transparent" points="764.2443,-1595.7 764.2443,-1614.7 825.2443,-1614.7 825.2443,-1595.7 764.2443,-1595.7"/>
<polygon fill="none" stroke="#000000" points="764.2443,-1595.7 764.2443,-1614.7 825.2443,-1614.7 825.2443,-1595.7 764.2443,-1595.7"/>
<text text-anchor="start" x="777.625" y="-1601.8" font-family="Helvetica,sans-Serif" font-size="11.00" fill="#000000">273 rows</text>
<polygon fill="#ffffff" stroke="transparent" points="825.2443,-1595.7 825.2443,-1614.7 849.2443,-1614.7 849.2443,-1595.7 825.2443,-1595.7"/>
<polygon fill="none" stroke="#000000" points="825.2443,-1595.7 825.2443,-1614.7 849.2443,-1614.7 849.2443,-1595.7 825.2443,-1595.7"/>
<text text-anchor="start" x="840.1305" y="-1601.8" font-family="Helvetica,sans-Serif" font-size="11.00" fill="#000000"> &#160;</text>
</a>
</g>
</g>
<!-- crn_aus_basins&#45;&gt;global_SiteMaster -->
<g id="edge3" class="edge">
<title>crn_aus_basins:w&#45;&gt;global_SiteMaster:e</title>
<path fill="none" stroke="#000000" stroke-dasharray="5,2" d="M705.6917,-1623.0153C681.0467,-1620.4099 668.48,-1610.0071 651.7443,-1585.7 566.1978,-1461.4514 545.3388,-973.2282 541.1639,-838.3725"/>
<polygon fill="#000000" stroke="#000000" points="712.2532,-1623.324 720.0751,-1627.296 716.2488,-1623.512 720.2443,-1623.7 720.2443,-1623.7 720.2443,-1623.7 716.2488,-1623.512 720.4135,-1620.104 712.2532,-1623.324 712.2532,-1623.324"/>
<ellipse fill="none" stroke="#000000" cx="709.0567" cy="-1623.1736" rx="3.2" ry="3.2"/>
</g>
<!-- crn_aus_basins&#45;&gt;global_MetaSite -->
<g id="edge2" class="edge">
<title>crn_aus_basins:w&#45;&gt;global_MetaSite:e</title>
<path fill="none" stroke="#000000" stroke-dasharray="5,2" d="M705.7039,-1622.7593C621.504,-1612.2286 505.8397,-1515.1483 461.7443,-1425.7 389.8443,-1279.8495 511.1938,-834.8573 428.7443,-694.7 426.5552,-690.9786 423.9252,-687.5229 420.9824,-684.3204"/>
<polygon fill="#000000" stroke="#000000" points="712.261,-1623.1834 720.0119,-1627.2925 716.2527,-1623.4417 720.2443,-1623.7 720.2443,-1623.7 720.2443,-1623.7 716.2527,-1623.4417 720.4768,-1620.1075 712.261,-1623.1834 712.261,-1623.1834"/>
<ellipse fill="none" stroke="#000000" cx="709.0677" cy="-1622.9768" rx="3.2" ry="3.2"/>
</g>
<!-- cabah_datasourceID -->
<g id="node13" class="node">
<title>cabah_datasourceID</title>
<g id="a_node13"><a xlink:href="../../tables/cabah_datasourceID.html" xlink:title="cabah_datasourceID" target="_top">
<polygon fill="#ffffff" stroke="transparent" points="58.2443,-566.2 58.2443,-627.2 214.2443,-627.2 214.2443,-566.2 58.2443,-566.2"/>
<polygon fill="#f5f5f5" stroke="transparent" points="58.2443,-603.7 58.2443,-626.7 214.2443,-626.7 214.2443,-603.7 58.2443,-603.7"/>
<polygon fill="none" stroke="#000000" points="58.2443,-603.7 58.2443,-626.7 214.2443,-626.7 214.2443,-603.7 58.2443,-603.7"/>
<text text-anchor="start" x="63.2443" y="-612.3" font-family="Helvetica,sans-Serif" font-weight="bold" font-size="11.00" fill="#000000">cabah_datasourceID</text>
<text text-anchor="start" x="179.7662" y="-611.8" font-family="Helvetica,sans-Serif" font-size="11.00" fill="#000000">[table]</text>
<polygon fill="none" stroke="#000000" points="58.2443,-584.7 58.2443,-603.7 214.2443,-603.7 214.2443,-584.7 58.2443,-584.7"/>
<text text-anchor="start" x="61.2443" y="-590.8" font-family="Helvetica,sans-Serif" font-size="11.00" fill="#000000">...</text>
<polygon fill="#ffffff" stroke="transparent" points="58.2443,-565.7 58.2443,-584.7 109.2443,-584.7 109.2443,-565.7 58.2443,-565.7"/>
<polygon fill="none" stroke="#000000" points="58.2443,-565.7 58.2443,-584.7 109.2443,-584.7 109.2443,-565.7 58.2443,-565.7"/>
<text text-anchor="start" x="61.2443" y="-571.8" font-family="Helvetica,sans-Serif" font-size="11.00" fill="#000000"> &#160;</text>
<polygon fill="#ffffff" stroke="transparent" points="109.2443,-565.7 109.2443,-584.7 173.2443,-584.7 173.2443,-565.7 109.2443,-565.7"/>
<polygon fill="none" stroke="#000000" points="109.2443,-565.7 109.2443,-584.7 173.2443,-584.7 173.2443,-565.7 109.2443,-565.7"/>
<text text-anchor="start" x="131.7399" y="-571.8" font-family="Helvetica,sans-Serif" font-size="11.00" fill="#000000">10 rows</text>
<polygon fill="#ffffff" stroke="transparent" points="173.2443,-565.7 173.2443,-584.7 214.2443,-584.7 214.2443,-565.7 173.2443,-565.7"/>
<polygon fill="none" stroke="#000000" points="173.2443,-565.7 173.2443,-584.7 214.2443,-584.7 214.2443,-565.7 173.2443,-565.7"/>
<text text-anchor="start" x="195.6496" y="-571.8" font-family="Helvetica,sans-Serif" font-size="11.00" fill="#000000">1 &gt;</text>
</a>
</g>
</g>
<!-- global_MetaSite&#45;&gt;cabah_datasourceID -->
<g id="edge17" class="edge">
<title>global_MetaSite:w&#45;&gt;cabah_datasourceID:e</title>
<path fill="none" stroke="#000000" d="M283.6903,-609.3038C262.0332,-600.4708 237.7621,-593.7 214.2443,-593.7"/>
<polygon fill="#000000" stroke="#000000" points="289.8271,-611.9865 295.7153,-618.4895 293.4922,-613.5887 297.1573,-615.1909 297.1573,-615.1909 297.1573,-615.1909 293.4922,-613.5887 298.5993,-611.8923 289.8271,-611.9865 289.8271,-611.9865"/>
<ellipse fill="none" stroke="#000000" cx="286.895" cy="-610.7047" rx="3.2" ry="3.2"/>
</g>
<!-- global_MetaSite&#45;&gt;global_SiteCode -->
<g id="edge18" class="edge">
<title>global_MetaSite:w&#45;&gt;global_SiteCode:e</title>
<path fill="none" stroke="#000000" d="M283.0483,-694.3536C282.9466,-694.4689 282.8453,-694.5843 282.7443,-694.7 252.062,-729.8544 286.9052,-790.7 240.2443,-790.7"/>
<polygon fill="#000000" stroke="#000000" points="287.7005,-689.8118 295.9398,-686.7993 290.5627,-687.0176 293.425,-684.2233 293.425,-684.2233 293.425,-684.2233 290.5627,-687.0176 290.9101,-681.6473 287.7005,-689.8118 287.7005,-689.8118"/>
<ellipse fill="none" stroke="#000000" cx="285.4108" cy="-692.0472" rx="3.2" ry="3.2"/>
</g>
<!-- crn_inprep_basins -->
<g id="node5" class="node">
<title>crn_inprep_basins</title>
<g id="a_node5"><a xlink:href="../../tables/crn_inprep_basins.html" xlink:title="crn_inprep_basins" target="_top">
<polygon fill="#ffffff" stroke="transparent" points="711.7443,-1514.2 711.7443,-1575.2 856.7443,-1575.2 856.7443,-1514.2 711.7443,-1514.2"/>
<polygon fill="#f5f5f5" stroke="transparent" points="712.2443,-1551.7 712.2443,-1574.7 857.2443,-1574.7 857.2443,-1551.7 712.2443,-1551.7"/>
<polygon fill="none" stroke="#000000" points="712.2443,-1551.7 712.2443,-1574.7 857.2443,-1574.7 857.2443,-1551.7 712.2443,-1551.7"/>
<text text-anchor="start" x="717.2443" y="-1560.3" font-family="Helvetica,sans-Serif" font-weight="bold" font-size="11.00" fill="#000000">crn_inprep_basins</text>
<text text-anchor="start" x="822.7662" y="-1559.8" font-family="Helvetica,sans-Serif" font-size="11.00" fill="#000000">[table]</text>
<polygon fill="none" stroke="#000000" points="712.2443,-1532.7 712.2443,-1551.7 857.2443,-1551.7 857.2443,-1532.7 712.2443,-1532.7"/>
<text text-anchor="start" x="715.2443" y="-1538.8" font-family="Helvetica,sans-Serif" font-size="11.00" fill="#000000">...</text>
<polygon fill="#ffffff" stroke="transparent" points="712.2443,-1513.7 712.2443,-1532.7 770.2443,-1532.7 770.2443,-1513.7 712.2443,-1513.7"/>
<polygon fill="none" stroke="#000000" points="712.2443,-1513.7 712.2443,-1532.7 770.2443,-1532.7 770.2443,-1513.7 712.2443,-1513.7"/>
<text text-anchor="start" x="715.2443" y="-1519.8" font-family="Helvetica,sans-Serif" font-size="11.00" fill="#000000">&lt; 5</text>
<polygon fill="#ffffff" stroke="transparent" points="770.2443,-1513.7 770.2443,-1532.7 826.2443,-1532.7 826.2443,-1513.7 770.2443,-1513.7"/>
<polygon fill="none" stroke="#000000" points="770.2443,-1513.7 770.2443,-1532.7 826.2443,-1532.7 826.2443,-1513.7 770.2443,-1513.7"/>
<text text-anchor="start" x="790.8548" y="-1519.8" font-family="Helvetica,sans-Serif" font-size="11.00" fill="#000000">0 rows</text>
<polygon fill="#ffffff" stroke="transparent" points="826.2443,-1513.7 826.2443,-1532.7 857.2443,-1532.7 857.2443,-1513.7 826.2443,-1513.7"/>
<polygon fill="none" stroke="#000000" points="826.2443,-1513.7 826.2443,-1532.7 857.2443,-1532.7 857.2443,-1513.7 826.2443,-1513.7"/>
<text text-anchor="start" x="848.1305" y="-1519.8" font-family="Helvetica,sans-Serif" font-size="11.00" fill="#000000"> &#160;</text>
</a>
</g>
</g>
<!-- crn_inprep_basins&#45;&gt;global_SiteMaster -->
<g id="edge5" class="edge">
<title>crn_inprep_basins:w&#45;&gt;global_SiteMaster:e</title>
<path fill="none" stroke="#000000" stroke-dasharray="5,2" d="M697.6689,-1539.7848C564.4116,-1504.0712 543.8997,-979.2238 540.7907,-838.3054"/>
<polygon fill="#000000" stroke="#000000" points="704.3125,-1540.6577 711.7753,-1545.2693 708.2784,-1541.1789 712.2443,-1541.7 712.2443,-1541.7 712.2443,-1541.7 708.2784,-1541.1789 712.7133,-1538.1307 704.3125,-1540.6577 704.3125,-1540.6577"/>
<ellipse fill="none" stroke="#000000" cx="701.1398" cy="-1540.2408" rx="3.2" ry="3.2"/>
</g>
<!-- crn_inprep_basins&#45;&gt;global_MetaSite -->
<g id="edge4" class="edge">
<title>crn_inprep_basins:w&#45;&gt;global_MetaSite:e</title>
<path fill="none" stroke="#000000" stroke-dasharray="5,2" d="M697.8305,-1541.0608C614.5014,-1533.6858 526.8843,-1462.3298 461.7443,-1318.7 404.3902,-1192.2376 499.6135,-814.1143 428.7443,-694.7 426.5408,-690.9871 423.8998,-687.5379 420.9485,-684.3404"/>
<polygon fill="#000000" stroke="#000000" points="704.2522,-1541.3455 712.0848,-1545.2965 708.2483,-1541.5228 712.2443,-1541.7 712.2443,-1541.7 712.2443,-1541.7 708.2483,-1541.5228 712.4038,-1538.1035 704.2522,-1541.3455 704.2522,-1541.3455"/>
<ellipse fill="none" stroke="#000000" cx="701.0553" cy="-1541.2038" rx="3.2" ry="3.2"/>
</g>
<!-- crn_int_basins -->
<g id="node6" class="node">
<title>crn_int_basins</title>
<g id="a_node6"><a xlink:href="../../tables/crn_int_basins.html" xlink:title="crn_int_basins" target="_top">
<polygon fill="#ffffff" stroke="transparent" points="722.7443,-1432.2 722.7443,-1493.2 845.7443,-1493.2 845.7443,-1432.2 722.7443,-1432.2"/>
<polygon fill="#f5f5f5" stroke="transparent" points="723.2443,-1469.7 723.2443,-1492.7 846.2443,-1492.7 846.2443,-1469.7 723.2443,-1469.7"/>
<polygon fill="none" stroke="#000000" points="723.2443,-1469.7 723.2443,-1492.7 846.2443,-1492.7 846.2443,-1469.7 723.2443,-1469.7"/>
<text text-anchor="start" x="728.2443" y="-1478.3" font-family="Helvetica,sans-Serif" font-weight="bold" font-size="11.00" fill="#000000">crn_int_basins</text>
<text text-anchor="start" x="811.7662" y="-1477.8" font-family="Helvetica,sans-Serif" font-size="11.00" fill="#000000">[table]</text>
<polygon fill="none" stroke="#000000" points="723.2443,-1450.7 723.2443,-1469.7 846.2443,-1469.7 846.2443,-1450.7 723.2443,-1450.7"/>
<text text-anchor="start" x="726.2443" y="-1456.8" font-family="Helvetica,sans-Serif" font-size="11.00" fill="#000000">...</text>
<polygon fill="#ffffff" stroke="transparent" points="723.2443,-1431.7 723.2443,-1450.7 759.2443,-1450.7 759.2443,-1431.7 723.2443,-1431.7"/>
<polygon fill="none" stroke="#000000" points="723.2443,-1431.7 723.2443,-1450.7 759.2443,-1450.7 759.2443,-1431.7 723.2443,-1431.7"/>
<text text-anchor="start" x="726.2443" y="-1437.8" font-family="Helvetica,sans-Serif" font-size="11.00" fill="#000000">&lt; 5</text>
<polygon fill="#ffffff" stroke="transparent" points="759.2443,-1431.7 759.2443,-1450.7 826.2443,-1450.7 826.2443,-1431.7 759.2443,-1431.7"/>
<polygon fill="none" stroke="#000000" points="759.2443,-1431.7 759.2443,-1450.7 826.2443,-1450.7 826.2443,-1431.7 759.2443,-1431.7"/>
<text text-anchor="start" x="769.4532" y="-1437.8" font-family="Helvetica,sans-Serif" font-size="11.00" fill="#000000">4.152 rows</text>
<polygon fill="#ffffff" stroke="transparent" points="826.2443,-1431.7 826.2443,-1450.7 846.2443,-1450.7 846.2443,-1431.7 826.2443,-1431.7"/>
<polygon fill="none" stroke="#000000" points="826.2443,-1431.7 826.2443,-1450.7 846.2443,-1450.7 846.2443,-1431.7 826.2443,-1431.7"/>
<text text-anchor="start" x="837.1305" y="-1437.8" font-family="Helvetica,sans-Serif" font-size="11.00" fill="#000000"> &#160;</text>
</a>
</g>
</g>
<!-- crn_int_basins&#45;&gt;global_SiteMaster -->
<g id="edge7" class="edge">
<title>crn_int_basins:w&#45;&gt;global_SiteMaster:e</title>
<path fill="none" stroke="#000000" stroke-dasharray="5,2" d="M708.5589,-1459.0731C682.8597,-1456.6052 669.8086,-1446.455 651.7443,-1421.7 582.5783,-1326.9159 550.8965,-954.6117 542.5629,-838.4868"/>
<polygon fill="#000000" stroke="#000000" points="715.2516,-1459.3587 723.0908,-1463.2967 719.248,-1459.5294 723.2443,-1459.7 723.2443,-1459.7 723.2443,-1459.7 719.248,-1459.5294 723.3979,-1456.1033 715.2516,-1459.3587 715.2516,-1459.3587"/>
<ellipse fill="none" stroke="#000000" cx="712.0545" cy="-1459.2222" rx="3.2" ry="3.2"/>
</g>
<!-- crn_int_basins&#45;&gt;global_MetaSite -->
<g id="edge6" class="edge">
<title>crn_int_basins:w&#45;&gt;global_MetaSite:e</title>
<path fill="none" stroke="#000000" stroke-dasharray="5,2" d="M708.7628,-1458.8903C590.8008,-1445.749 492.8224,-1276.0496 461.7443,-1199.7 419.3449,-1095.5372 486.7399,-791.0541 428.7443,-694.7 426.5178,-691.0008 423.8589,-687.5623 420.8943,-684.3728"/>
<polygon fill="#000000" stroke="#000000" points="715.2568,-1459.2533 723.0433,-1463.2944 719.2506,-1459.4767 723.2443,-1459.7 723.2443,-1459.7 723.2443,-1459.7 719.2506,-1459.4767 723.4453,-1456.1056 715.2568,-1459.2533 715.2568,-1459.2533"/>
<ellipse fill="none" stroke="#000000" cx="712.0618" cy="-1459.0747" rx="3.2" ry="3.2"/>
</g>
<!-- crn_Sample -->
<g id="node7" class="node">
<title>crn_Sample</title>
<g id="a_node7"><a xlink:href="../../tables/crn_Sample.html" xlink:title="crn_Sample" target="_top">
<polygon fill="#ffffff" stroke="transparent" points="730.7443,-1104.2 730.7443,-1165.2 837.7443,-1165.2 837.7443,-1104.2 730.7443,-1104.2"/>
<polygon fill="#f5f5f5" stroke="transparent" points="731.2443,-1141.7 731.2443,-1164.7 838.2443,-1164.7 838.2443,-1141.7 731.2443,-1141.7"/>
<polygon fill="none" stroke="#000000" points="731.2443,-1141.7 731.2443,-1164.7 838.2443,-1164.7 838.2443,-1141.7 731.2443,-1141.7"/>
<text text-anchor="start" x="736.2443" y="-1150.3" font-family="Helvetica,sans-Serif" font-weight="bold" font-size="11.00" fill="#000000">crn_Sample</text>
<text text-anchor="start" x="803.7662" y="-1149.8" font-family="Helvetica,sans-Serif" font-size="11.00" fill="#000000">[table]</text>
<polygon fill="none" stroke="#000000" points="731.2443,-1122.7 731.2443,-1141.7 838.2443,-1141.7 838.2443,-1122.7 731.2443,-1122.7"/>
<text text-anchor="start" x="734.2443" y="-1128.8" font-family="Helvetica,sans-Serif" font-size="11.00" fill="#000000">...</text>
<polygon fill="#ffffff" stroke="transparent" points="731.2443,-1103.7 731.2443,-1122.7 755.2443,-1122.7 755.2443,-1103.7 731.2443,-1103.7"/>
<polygon fill="none" stroke="#000000" points="731.2443,-1103.7 731.2443,-1122.7 755.2443,-1122.7 755.2443,-1103.7 731.2443,-1103.7"/>
<text text-anchor="start" x="734.2443" y="-1109.8" font-family="Helvetica,sans-Serif" font-size="11.00" fill="#000000">&lt; 3</text>
<polygon fill="#ffffff" stroke="transparent" points="755.2443,-1103.7 755.2443,-1122.7 815.2443,-1122.7 815.2443,-1103.7 755.2443,-1103.7"/>
<polygon fill="none" stroke="#000000" points="755.2443,-1103.7 755.2443,-1122.7 815.2443,-1122.7 815.2443,-1103.7 755.2443,-1103.7"/>
<text text-anchor="start" x="758.4532" y="-1109.8" font-family="Helvetica,sans-Serif" font-size="11.00" fill="#000000">4.588 rows</text>
<polygon fill="#ffffff" stroke="transparent" points="815.2443,-1103.7 815.2443,-1122.7 838.2443,-1122.7 838.2443,-1103.7 815.2443,-1103.7"/>
<polygon fill="none" stroke="#000000" points="815.2443,-1103.7 815.2443,-1122.7 838.2443,-1122.7 838.2443,-1103.7 815.2443,-1103.7"/>
<text text-anchor="start" x="819.6496" y="-1109.8" font-family="Helvetica,sans-Serif" font-size="11.00" fill="#000000">2 &gt;</text>
</a>
</g>
</g>
<!-- crn_Sample&#45;&gt;global_SiteMaster -->
<g id="edge8" class="edge">
<title>crn_Sample:w&#45;&gt;global_SiteMaster:e</title>
<path fill="none" stroke="#000000" d="M716.6422,-1130.8544C593.6208,-1116.3749 554.8278,-919.7734 544.004,-838.4912"/>
<polygon fill="#000000" stroke="#000000" points="723.2577,-1131.2375 731.0362,-1135.294 727.251,-1131.4687 731.2443,-1131.7 731.2443,-1131.7 731.2443,-1131.7 727.251,-1131.4687 731.4525,-1128.106 723.2577,-1131.2375 723.2577,-1131.2375"/>
<ellipse fill="none" stroke="#000000" cx="720.0631" cy="-1131.0525" rx="3.2" ry="3.2"/>
</g>
<!-- crn_xxl_basins -->
<g id="node8" class="node">
<title>crn_xxl_basins</title>
<g id="a_node8"><a xlink:href="../../tables/crn_xxl_basins.html" xlink:title="crn_xxl_basins" target="_top">
<polygon fill="#ffffff" stroke="transparent" points="721.7443,-1350.2 721.7443,-1411.2 846.7443,-1411.2 846.7443,-1350.2 721.7443,-1350.2"/>
<polygon fill="#f5f5f5" stroke="transparent" points="722.2443,-1387.7 722.2443,-1410.7 847.2443,-1410.7 847.2443,-1387.7 722.2443,-1387.7"/>
<polygon fill="none" stroke="#000000" points="722.2443,-1387.7 722.2443,-1410.7 847.2443,-1410.7 847.2443,-1387.7 722.2443,-1387.7"/>
<text text-anchor="start" x="727.2443" y="-1396.3" font-family="Helvetica,sans-Serif" font-weight="bold" font-size="11.00" fill="#000000">crn_xxl_basins</text>
<text text-anchor="start" x="812.7662" y="-1395.8" font-family="Helvetica,sans-Serif" font-size="11.00" fill="#000000">[table]</text>
<polygon fill="none" stroke="#000000" points="722.2443,-1368.7 722.2443,-1387.7 847.2443,-1387.7 847.2443,-1368.7 722.2443,-1368.7"/>
<text text-anchor="start" x="725.2443" y="-1374.8" font-family="Helvetica,sans-Serif" font-size="11.00" fill="#000000">...</text>
<polygon fill="#ffffff" stroke="transparent" points="722.2443,-1349.7 722.2443,-1368.7 764.2443,-1368.7 764.2443,-1349.7 722.2443,-1349.7"/>
<polygon fill="none" stroke="#000000" points="722.2443,-1349.7 722.2443,-1368.7 764.2443,-1368.7 764.2443,-1349.7 722.2443,-1349.7"/>
<text text-anchor="start" x="725.2443" y="-1355.8" font-family="Helvetica,sans-Serif" font-size="11.00" fill="#000000">&lt; 5</text>
<polygon fill="#ffffff" stroke="transparent" points="764.2443,-1349.7 764.2443,-1368.7 824.2443,-1368.7 824.2443,-1349.7 764.2443,-1349.7"/>
<polygon fill="none" stroke="#000000" points="764.2443,-1349.7 764.2443,-1368.7 824.2443,-1368.7 824.2443,-1349.7 764.2443,-1349.7"/>
<text text-anchor="start" x="776.625" y="-1355.8" font-family="Helvetica,sans-Serif" font-size="11.00" fill="#000000">206 rows</text>
<polygon fill="#ffffff" stroke="transparent" points="824.2443,-1349.7 824.2443,-1368.7 847.2443,-1368.7 847.2443,-1349.7 824.2443,-1349.7"/>
<polygon fill="none" stroke="#000000" points="824.2443,-1349.7 824.2443,-1368.7 847.2443,-1368.7 847.2443,-1349.7 824.2443,-1349.7"/>
<text text-anchor="start" x="838.1305" y="-1355.8" font-family="Helvetica,sans-Serif" font-size="11.00" fill="#000000"> &#160;</text>
</a>
</g>
</g>
<!-- crn_xxl_basins&#45;&gt;global_SiteMaster -->
<g id="edge10" class="edge">
<title>crn_xxl_basins:w&#45;&gt;global_SiteMaster:e</title>
<path fill="none" stroke="#000000" stroke-dasharray="5,2" d="M707.7487,-1377.0429C682.4354,-1374.4698 669.8648,-1363.9988 651.7443,-1339.7 636.4561,-1319.1991 568.049,-954.2327 546.6584,-838.5617"/>
<polygon fill="#000000" stroke="#000000" points="714.2525,-1377.3377 722.0813,-1381.2963 718.2484,-1377.5188 722.2443,-1377.7 722.2443,-1377.7 722.2443,-1377.7 718.2484,-1377.5188 722.4074,-1374.1037 714.2525,-1377.3377 714.2525,-1377.3377"/>
<ellipse fill="none" stroke="#000000" cx="711.0558" cy="-1377.1927" rx="3.2" ry="3.2"/>
</g>
<!-- crn_xxl_basins&#45;&gt;global_MetaSite -->
<g id="edge9" class="edge">
<title>crn_xxl_basins:w&#45;&gt;global_MetaSite:e</title>
<path fill="none" stroke="#000000" stroke-dasharray="5,2" d="M707.8467,-1377.127C557.1816,-1364.9783 503.7917,-1162.4707 461.7443,-1039.7 436.7901,-966.8382 469.45,-760.0804 428.7443,-694.7 426.4624,-691.0348 423.7606,-687.6225 420.7635,-684.4529"/>
<polygon fill="#000000" stroke="#000000" points="714.2507,-1377.3818 722.1011,-1381.2972 718.2475,-1377.5409 722.2443,-1377.7 722.2443,-1377.7 722.2443,-1377.7 718.2475,-1377.5409 722.3875,-1374.1028 714.2507,-1377.3818 714.2507,-1377.3818"/>
<ellipse fill="none" stroke="#000000" cx="711.0532" cy="-1377.2545" rx="3.2" ry="3.2"/>
</g>
<!-- expage -->
<g id="node9" class="node">
<title>expage</title>
<g id="a_node9"><a xlink:href="../../tables/expage.html" xlink:title="expage" target="_top">
<polygon fill="#ffffff" stroke="transparent" points="735.2443,-1268.2 735.2443,-1329.2 833.2443,-1329.2 833.2443,-1268.2 735.2443,-1268.2"/>
<polygon fill="#f5f5f5" stroke="transparent" points="735.2443,-1305.7 735.2443,-1328.7 833.2443,-1328.7 833.2443,-1305.7 735.2443,-1305.7"/>
<polygon fill="none" stroke="#000000" points="735.2443,-1305.7 735.2443,-1328.7 833.2443,-1328.7 833.2443,-1305.7 735.2443,-1305.7"/>
<text text-anchor="start" x="740.2443" y="-1314.3" font-family="Helvetica,sans-Serif" font-weight="bold" font-size="11.00" fill="#000000">expage</text>
<text text-anchor="start" x="798.288" y="-1313.8" font-family="Helvetica,sans-Serif" font-size="11.00" fill="#000000">[table]</text>
<polygon fill="none" stroke="#000000" points="735.2443,-1286.7 735.2443,-1305.7 833.2443,-1305.7 833.2443,-1286.7 735.2443,-1286.7"/>
<text text-anchor="start" x="738.2443" y="-1292.8" font-family="Helvetica,sans-Serif" font-size="11.00" fill="#000000">...</text>
<polygon fill="#ffffff" stroke="transparent" points="735.2443,-1267.7 735.2443,-1286.7 756.2443,-1286.7 756.2443,-1267.7 735.2443,-1267.7"/>
<polygon fill="none" stroke="#000000" points="735.2443,-1267.7 735.2443,-1286.7 756.2443,-1286.7 756.2443,-1267.7 735.2443,-1267.7"/>
<text text-anchor="start" x="737.947" y="-1273.8" font-family="Helvetica,sans-Serif" font-size="11.00" fill="#000000">&lt; 3</text>
<polygon fill="#ffffff" stroke="transparent" points="756.2443,-1267.7 756.2443,-1286.7 821.2443,-1286.7 821.2443,-1267.7 756.2443,-1267.7"/>
<polygon fill="none" stroke="#000000" points="756.2443,-1267.7 756.2443,-1286.7 821.2443,-1286.7 821.2443,-1267.7 756.2443,-1267.7"/>
<text text-anchor="start" x="758.7913" y="-1273.8" font-family="Helvetica,sans-Serif" font-size="11.00" fill="#000000">16.009 rows</text>
<polygon fill="#ffffff" stroke="transparent" points="821.2443,-1267.7 821.2443,-1286.7 833.2443,-1286.7 833.2443,-1267.7 821.2443,-1267.7"/>
<polygon fill="none" stroke="#000000" points="821.2443,-1267.7 821.2443,-1286.7 833.2443,-1286.7 833.2443,-1267.7 821.2443,-1267.7"/>
<text text-anchor="start" x="824.1874" y="-1273.8" font-family="Helvetica,sans-Serif" font-size="11.00" fill="#000000"> &#160;</text>
</a>
</g>
</g>
<!-- expage&#45;&gt;global_SiteMaster -->
<g id="edge12" class="edge">
<title>expage:w&#45;&gt;global_SiteMaster:e</title>
<path fill="none" stroke="#000000" stroke-dasharray="5,2" d="M720.5568,-1295.37C689.7609,-1293.783 673.4477,-1285.815 651.7443,-1257.7 599.1034,-1189.5079 638.4319,-1150.5668 618.7443,-1066.7 599.2516,-983.6633 568.6391,-888.1657 551.9872,-838.2303"/>
<polygon fill="#000000" stroke="#000000" points="727.2463,-1295.5203 735.1634,-1299.2991 731.2453,-1295.6101 735.2443,-1295.7 735.2443,-1295.7 735.2443,-1295.7 731.2453,-1295.6101 735.3252,-1292.1009 727.2463,-1295.5203 727.2463,-1295.5203"/>
<ellipse fill="none" stroke="#000000" cx="724.0472" cy="-1295.4484" rx="3.2" ry="3.2"/>
</g>
<!-- expage&#45;&gt;global_MetaSite -->
<g id="edge11" class="edge">
<title>expage:w&#45;&gt;global_MetaSite:e</title>
<path fill="none" stroke="#000000" stroke-dasharray="5,2" d="M720.7294,-1295.2179C690.6536,-1292.9961 676.9104,-1282.7631 651.7443,-1257.7 508.582,-1115.1235 526.0427,-1036.2443 461.7443,-844.7 440.0215,-779.9878 468.2653,-750.3565 428.7443,-694.7 426.1584,-691.0583 423.1761,-687.6521 419.9257,-684.4763"/>
<polygon fill="#000000" stroke="#000000" points="727.2487,-1295.4344 735.1248,-1299.298 731.2465,-1295.5672 735.2443,-1295.7 735.2443,-1295.7 735.2443,-1295.7 731.2465,-1295.5672 735.3639,-1292.102 727.2487,-1295.4344 727.2487,-1295.4344"/>
<ellipse fill="none" stroke="#000000" cx="724.0505" cy="-1295.3281" rx="3.2" ry="3.2"/>
</g>
<!-- expage_Sample -->
<g id="node10" class="node">
<title>expage_Sample</title>
<g id="a_node10"><a xlink:href="../../tables/expage_Sample.html" xlink:title="expage_Sample" target="_top">
<polygon fill="#ffffff" stroke="transparent" points="719.7443,-1022.2 719.7443,-1083.2 848.7443,-1083.2 848.7443,-1022.2 719.7443,-1022.2"/>
<polygon fill="#f5f5f5" stroke="transparent" points="720.2443,-1059.7 720.2443,-1082.7 849.2443,-1082.7 849.2443,-1059.7 720.2443,-1059.7"/>
<polygon fill="none" stroke="#000000" points="720.2443,-1059.7 720.2443,-1082.7 849.2443,-1082.7 849.2443,-1059.7 720.2443,-1059.7"/>
<text text-anchor="start" x="725.2443" y="-1068.3" font-family="Helvetica,sans-Serif" font-weight="bold" font-size="11.00" fill="#000000">expage_Sample</text>
<text text-anchor="start" x="814.7662" y="-1067.8" font-family="Helvetica,sans-Serif" font-size="11.00" fill="#000000">[table]</text>
<polygon fill="none" stroke="#000000" points="720.2443,-1040.7 720.2443,-1059.7 849.2443,-1059.7 849.2443,-1040.7 720.2443,-1040.7"/>
<text text-anchor="start" x="723.2443" y="-1046.8" font-family="Helvetica,sans-Serif" font-size="11.00" fill="#000000">...</text>
<polygon fill="#ffffff" stroke="transparent" points="720.2443,-1021.7 720.2443,-1040.7 752.2443,-1040.7 752.2443,-1021.7 720.2443,-1021.7"/>
<polygon fill="none" stroke="#000000" points="720.2443,-1021.7 720.2443,-1040.7 752.2443,-1040.7 752.2443,-1021.7 720.2443,-1021.7"/>
<text text-anchor="start" x="723.2443" y="-1027.8" font-family="Helvetica,sans-Serif" font-size="11.00" fill="#000000">&lt; 2</text>
<polygon fill="#ffffff" stroke="transparent" points="752.2443,-1021.7 752.2443,-1040.7 822.2443,-1040.7 822.2443,-1021.7 752.2443,-1021.7"/>
<polygon fill="none" stroke="#000000" points="752.2443,-1021.7 752.2443,-1040.7 822.2443,-1040.7 822.2443,-1021.7 752.2443,-1021.7"/>
<text text-anchor="start" x="759.3383" y="-1027.8" font-family="Helvetica,sans-Serif" font-size="11.00" fill="#000000">15.805 rows</text>
<polygon fill="#ffffff" stroke="transparent" points="822.2443,-1021.7 822.2443,-1040.7 849.2443,-1040.7 849.2443,-1021.7 822.2443,-1021.7"/>
<polygon fill="none" stroke="#000000" points="822.2443,-1021.7 822.2443,-1040.7 849.2443,-1040.7 849.2443,-1021.7 822.2443,-1021.7"/>
<text text-anchor="start" x="830.6496" y="-1027.8" font-family="Helvetica,sans-Serif" font-size="11.00" fill="#000000">1 &gt;</text>
</a>
</g>
</g>
<!-- expage_Sample&#45;&gt;global_SiteMaster -->
<g id="edge13" class="edge">
<title>expage_Sample:w&#45;&gt;global_SiteMaster:e</title>
<path fill="none" stroke="#000000" d="M705.7544,-1048.7385C612.0341,-1036.1431 565.5048,-902.9893 548.3173,-838.424"/>
<polygon fill="#000000" stroke="#000000" points="712.2619,-1049.1703 720.0059,-1053.2921 716.2531,-1049.4351 720.2443,-1049.7 720.2443,-1049.7 720.2443,-1049.7 716.2531,-1049.4351 720.4827,-1046.1079 712.2619,-1049.1703 712.2619,-1049.1703"/>
<ellipse fill="none" stroke="#000000" cx="709.0689" cy="-1048.9584" rx="3.2" ry="3.2"/>
</g>
<!-- fos_Sample -->
<g id="node11" class="node">
<title>fos_Sample</title>
<g id="a_node11"><a xlink:href="../../tables/fos_Sample.html" xlink:title="fos_Sample" target="_top">
<polygon fill="#ffffff" stroke="transparent" points="731.2443,-940.2 731.2443,-1001.2 837.2443,-1001.2 837.2443,-940.2 731.2443,-940.2"/>
<polygon fill="#f5f5f5" stroke="transparent" points="731.2443,-977.7 731.2443,-1000.7 837.2443,-1000.7 837.2443,-977.7 731.2443,-977.7"/>
<polygon fill="none" stroke="#000000" points="731.2443,-977.7 731.2443,-1000.7 837.2443,-1000.7 837.2443,-977.7 731.2443,-977.7"/>
<text text-anchor="start" x="736.2443" y="-986.3" font-family="Helvetica,sans-Serif" font-weight="bold" font-size="11.00" fill="#000000">fos_Sample</text>
<text text-anchor="start" x="802.7662" y="-985.8" font-family="Helvetica,sans-Serif" font-size="11.00" fill="#000000">[table]</text>
<polygon fill="none" stroke="#000000" points="731.2443,-958.7 731.2443,-977.7 837.2443,-977.7 837.2443,-958.7 731.2443,-958.7"/>
<text text-anchor="start" x="734.2443" y="-964.8" font-family="Helvetica,sans-Serif" font-size="11.00" fill="#000000">...</text>
<polygon fill="#ffffff" stroke="transparent" points="731.2443,-939.7 731.2443,-958.7 754.2443,-958.7 754.2443,-939.7 731.2443,-939.7"/>
<polygon fill="none" stroke="#000000" points="731.2443,-939.7 731.2443,-958.7 754.2443,-958.7 754.2443,-939.7 731.2443,-939.7"/>
<text text-anchor="start" x="734.2443" y="-945.8" font-family="Helvetica,sans-Serif" font-size="11.00" fill="#000000">&lt; 1</text>
<polygon fill="#ffffff" stroke="transparent" points="754.2443,-939.7 754.2443,-958.7 814.2443,-958.7 814.2443,-939.7 754.2443,-939.7"/>
<polygon fill="none" stroke="#000000" points="754.2443,-939.7 754.2443,-958.7 814.2443,-958.7 814.2443,-939.7 754.2443,-939.7"/>
<text text-anchor="start" x="757.4532" y="-945.8" font-family="Helvetica,sans-Serif" font-size="11.00" fill="#000000">2.235 rows</text>
<polygon fill="#ffffff" stroke="transparent" points="814.2443,-939.7 814.2443,-958.7 837.2443,-958.7 837.2443,-939.7 814.2443,-939.7"/>
<polygon fill="none" stroke="#000000" points="814.2443,-939.7 814.2443,-958.7 837.2443,-958.7 837.2443,-939.7 814.2443,-939.7"/>
<text text-anchor="start" x="818.6496" y="-945.8" font-family="Helvetica,sans-Serif" font-size="11.00" fill="#000000">1 &gt;</text>
</a>
</g>
</g>
<!-- fos_Sample&#45;&gt;global_SiteMaster -->
<g id="edge14" class="edge">
<title>fos_Sample:w&#45;&gt;global_SiteMaster:e</title>
<path fill="none" stroke="#000000" d="M716.6873,-966.7777C644.8909,-957.6938 588.221,-883.6121 559.9495,-838.4802"/>
<polygon fill="#000000" stroke="#000000" points="723.2603,-967.1941 731.0167,-971.2928 727.2523,-967.447 731.2443,-967.7 731.2443,-967.7 731.2443,-967.7 727.2523,-967.447 731.472,-964.1072 723.2603,-967.1941 723.2603,-967.1941"/>
<ellipse fill="none" stroke="#000000" cx="720.0667" cy="-966.9917" rx="3.2" ry="3.2"/>
</g>
<!-- fossahul_webmercator_nrand_25000 -->
<g id="node12" class="node">
<title>fossahul_webmercator_nrand_25000</title>
<g id="a_node12"><a xlink:href="../../tables/fossahul_webmercator_nrand_25000.html" xlink:title="fossahul_webmercator_nrand_25000" target="_top">
<polygon fill="#ffffff" stroke="transparent" points="659.7443,-776.2 659.7443,-837.2 908.7443,-837.2 908.7443,-776.2 659.7443,-776.2"/>
<polygon fill="#f5f5f5" stroke="transparent" points="660.2443,-813.7 660.2443,-836.7 909.2443,-836.7 909.2443,-813.7 660.2443,-813.7"/>
<polygon fill="none" stroke="#000000" points="660.2443,-813.7 660.2443,-836.7 909.2443,-836.7 909.2443,-813.7 660.2443,-813.7"/>
<text text-anchor="start" x="665.2443" y="-822.3" font-family="Helvetica,sans-Serif" font-weight="bold" font-size="11.00" fill="#000000">fossahul_webmercator_nrand_25000</text>
<text text-anchor="start" x="874.7662" y="-821.8" font-family="Helvetica,sans-Serif" font-size="11.00" fill="#000000">[table]</text>
<polygon fill="none" stroke="#000000" points="660.2443,-794.7 660.2443,-813.7 909.2443,-813.7 909.2443,-794.7 660.2443,-794.7"/>
<text text-anchor="start" x="663.2443" y="-800.8" font-family="Helvetica,sans-Serif" font-size="11.00" fill="#000000">...</text>
<polygon fill="#ffffff" stroke="transparent" points="660.2443,-775.7 660.2443,-794.7 756.2443,-794.7 756.2443,-775.7 660.2443,-775.7"/>
<polygon fill="none" stroke="#000000" points="660.2443,-775.7 660.2443,-794.7 756.2443,-794.7 756.2443,-775.7 660.2443,-775.7"/>
<text text-anchor="start" x="663.2443" y="-781.8" font-family="Helvetica,sans-Serif" font-size="11.00" fill="#000000">&lt; 3</text>
<polygon fill="#ffffff" stroke="transparent" points="756.2443,-775.7 756.2443,-794.7 859.2443,-794.7 859.2443,-775.7 756.2443,-775.7"/>
<polygon fill="none" stroke="#000000" points="756.2443,-775.7 756.2443,-794.7 859.2443,-794.7 859.2443,-775.7 756.2443,-775.7"/>
<text text-anchor="start" x="796.3383" y="-781.8" font-family="Helvetica,sans-Serif" font-size="11.00" fill="#000000">11.858 rows</text>
<polygon fill="#ffffff" stroke="transparent" points="859.2443,-775.7 859.2443,-794.7 909.2443,-794.7 909.2443,-775.7 859.2443,-775.7"/>
<polygon fill="none" stroke="#000000" points="859.2443,-775.7 859.2443,-794.7 909.2443,-794.7 909.2443,-775.7 859.2443,-775.7"/>
<text text-anchor="start" x="900.1305" y="-781.8" font-family="Helvetica,sans-Serif" font-size="11.00" fill="#000000"> &#160;</text>
</a>
</g>
</g>
<!-- fossahul_webmercator_nrand_25000&#45;&gt;global_SiteMaster -->
<g id="edge16" class="edge">
<title>fossahul_webmercator_nrand_25000:w&#45;&gt;global_SiteMaster:e</title>
<path fill="none" stroke="#000000" stroke-dasharray="5,2" d="M645.6045,-803.7C636.7825,-803.7 627.8029,-803.7 618.9943,-803.7"/>
<polygon fill="#000000" stroke="#000000" points="652.2443,-803.7001 660.2444,-807.3 656.2443,-803.7 660.2443,-803.7 660.2443,-803.7 660.2443,-803.7 656.2443,-803.7 660.2443,-800.1 652.2443,-803.7001 652.2443,-803.7001"/>
<ellipse fill="none" stroke="#000000" cx="649.0443" cy="-803.7001" rx="3.2" ry="3.2"/>
</g>
<!-- fossahul_webmercator_nrand_25000&#45;&gt;global_MetaSite -->
<g id="edge15" class="edge">
<title>fossahul_webmercator_nrand_25000:w&#45;&gt;global_MetaSite:e</title>
<path fill="none" stroke="#000000" stroke-dasharray="5,2" d="M646.2404,-799.4731C635.7743,-791.263 635.4403,-773.0587 618.7443,-762.7 556.0422,-723.7978 529.1334,-738.7607 461.7443,-708.7 445.6835,-701.5357 428.8228,-692.768 413.3926,-684.2052"/>
<polygon fill="#000000" stroke="#000000" points="652.5856,-801.3883 659.204,-807.1464 656.415,-802.5441 660.2443,-803.7 660.2443,-803.7 660.2443,-803.7 656.415,-802.5441 661.2846,-800.2536 652.5856,-801.3883 652.5856,-801.3883"/>
<ellipse fill="none" stroke="#000000" cx="649.5221" cy="-800.4636" rx="3.2" ry="3.2"/>
</g>
<!-- global_SiteCode&#45;&gt;global_SiteCode -->
<g id="edge19" class="edge">
<title>global_SiteCode:w&#45;&gt;global_SiteCode:e</title>
<path fill="none" stroke="#000000" d="M21.7846,-711.9207C-20.3389,-753.5179 -9.2205,-843.7 136.7443,-843.7 294.7443,-843.7 294.7443,-826.0333 240.2443,-790.7"/>
<polygon fill="#000000" stroke="#000000" points="27.0114,-707.7151 35.5011,-705.5048 30.1279,-705.2076 33.2443,-702.7 33.2443,-702.7 33.2443,-702.7 30.1279,-705.2076 30.9875,-699.8952 27.0114,-707.7151 27.0114,-707.7151"/>
<ellipse fill="none" stroke="#000000" cx="24.5183" cy="-709.7212" rx="3.2" ry="3.2"/>
</g>
<!-- sahularch_c14 -->
<g id="node18" class="node">
<title>sahularch_c14</title>
<g id="a_node18"><a xlink:href="../../tables/sahularch_c14.html" xlink:title="sahularch_c14" target="_top">
<polygon fill="#ffffff" stroke="transparent" points="723.2443,-694.2 723.2443,-755.2 845.2443,-755.2 845.2443,-694.2 723.2443,-694.2"/>
<polygon fill="#f5f5f5" stroke="transparent" points="723.2443,-731.7 723.2443,-754.7 845.2443,-754.7 845.2443,-731.7 723.2443,-731.7"/>
<polygon fill="none" stroke="#000000" points="723.2443,-731.7 723.2443,-754.7 845.2443,-754.7 845.2443,-731.7 723.2443,-731.7"/>
<text text-anchor="start" x="728.2443" y="-740.3" font-family="Helvetica,sans-Serif" font-weight="bold" font-size="11.00" fill="#000000">sahularch_c14</text>
<text text-anchor="start" x="810.7662" y="-739.8" font-family="Helvetica,sans-Serif" font-size="11.00" fill="#000000">[table]</text>
<polygon fill="none" stroke="#000000" points="723.2443,-712.7 723.2443,-731.7 845.2443,-731.7 845.2443,-712.7 723.2443,-712.7"/>
<text text-anchor="start" x="726.2443" y="-718.8" font-family="Helvetica,sans-Serif" font-size="11.00" fill="#000000">...</text>
<polygon fill="#ffffff" stroke="transparent" points="723.2443,-693.7 723.2443,-712.7 759.2443,-712.7 759.2443,-693.7 723.2443,-693.7"/>
<polygon fill="none" stroke="#000000" points="723.2443,-693.7 723.2443,-712.7 759.2443,-712.7 759.2443,-693.7 723.2443,-693.7"/>
<text text-anchor="start" x="726.2443" y="-699.8" font-family="Helvetica,sans-Serif" font-size="11.00" fill="#000000">&lt; 3</text>
<polygon fill="#ffffff" stroke="transparent" points="759.2443,-693.7 759.2443,-712.7 825.2443,-712.7 825.2443,-693.7 759.2443,-693.7"/>
<polygon fill="none" stroke="#000000" points="759.2443,-693.7 759.2443,-712.7 825.2443,-712.7 825.2443,-693.7 759.2443,-693.7"/>
<text text-anchor="start" x="768.4532" y="-699.8" font-family="Helvetica,sans-Serif" font-size="11.00" fill="#000000">9.501 rows</text>
<polygon fill="#ffffff" stroke="transparent" points="825.2443,-693.7 825.2443,-712.7 845.2443,-712.7 845.2443,-693.7 825.2443,-693.7"/>
<polygon fill="none" stroke="#000000" points="825.2443,-693.7 825.2443,-712.7 845.2443,-712.7 845.2443,-693.7 825.2443,-693.7"/>
<text text-anchor="start" x="836.1305" y="-699.8" font-family="Helvetica,sans-Serif" font-size="11.00" fill="#000000"> &#160;</text>
</a>
</g>
</g>
<!-- sahularch_c14&#45;&gt;global_SiteMaster -->
<g id="edge26" class="edge">
<title>sahularch_c14:w&#45;&gt;global_SiteMaster:e</title>
<path fill="none" stroke="#000000" stroke-dasharray="5,2" d="M708.7859,-722.391C664.2217,-726.5678 619.8003,-748.9407 587.758,-769.1623"/>
<polygon fill="#000000" stroke="#000000" points="715.2535,-722.0819 723.4162,-725.2959 719.2489,-721.891 723.2443,-721.7 723.2443,-721.7 723.2443,-721.7 719.2489,-721.891 723.0725,-718.1041 715.2535,-722.0819 715.2535,-722.0819"/>
<ellipse fill="none" stroke="#000000" cx="712.0571" cy="-722.2347" rx="3.2" ry="3.2"/>
</g>
<!-- sahularch_c14&#45;&gt;global_MetaSite -->
<g id="edge25" class="edge">
<title>sahularch_c14:w&#45;&gt;global_MetaSite:e</title>
<path fill="none" stroke="#000000" stroke-dasharray="5,2" d="M708.5789,-721.5193C608.6593,-719.0948 498.9572,-692.7628 428.8291,-672.6792"/>
<polygon fill="#000000" stroke="#000000" points="715.2449,-721.6014 723.2,-725.2997 719.2446,-721.6507 723.2443,-721.7 723.2443,-721.7 723.2443,-721.7 719.2446,-721.6507 723.2887,-718.1003 715.2449,-721.6014 715.2449,-721.6014"/>
<ellipse fill="none" stroke="#000000" cx="712.0452" cy="-721.562" rx="3.2" ry="3.2"/>
</g>
<!-- sahularch_osl -->
<g id="node19" class="node">
<title>sahularch_osl</title>
<g id="a_node19"><a xlink:href="../../tables/sahularch_osl.html" xlink:title="sahularch_osl" target="_top">
<polygon fill="#ffffff" stroke="transparent" points="724.7443,-612.2 724.7443,-673.2 843.7443,-673.2 843.7443,-612.2 724.7443,-612.2"/>
<polygon fill="#f5f5f5" stroke="transparent" points="725.2443,-649.7 725.2443,-672.7 844.2443,-672.7 844.2443,-649.7 725.2443,-649.7"/>
<polygon fill="none" stroke="#000000" points="725.2443,-649.7 725.2443,-672.7 844.2443,-672.7 844.2443,-649.7 725.2443,-649.7"/>
<text text-anchor="start" x="730.2443" y="-658.3" font-family="Helvetica,sans-Serif" font-weight="bold" font-size="11.00" fill="#000000">sahularch_osl</text>
<text text-anchor="start" x="809.7662" y="-657.8" font-family="Helvetica,sans-Serif" font-size="11.00" fill="#000000">[table]</text>
<polygon fill="none" stroke="#000000" points="725.2443,-630.7 725.2443,-649.7 844.2443,-649.7 844.2443,-630.7 725.2443,-630.7"/>
<text text-anchor="start" x="728.2443" y="-636.8" font-family="Helvetica,sans-Serif" font-size="11.00" fill="#000000">...</text>
<polygon fill="#ffffff" stroke="transparent" points="725.2443,-611.7 725.2443,-630.7 764.2443,-630.7 764.2443,-611.7 725.2443,-611.7"/>
<polygon fill="none" stroke="#000000" points="725.2443,-611.7 725.2443,-630.7 764.2443,-630.7 764.2443,-611.7 725.2443,-611.7"/>
<text text-anchor="start" x="728.2443" y="-617.8" font-family="Helvetica,sans-Serif" font-size="11.00" fill="#000000">&lt; 3</text>
<polygon fill="#ffffff" stroke="transparent" points="764.2443,-611.7 764.2443,-630.7 823.2443,-630.7 823.2443,-611.7 764.2443,-611.7"/>
<polygon fill="none" stroke="#000000" points="764.2443,-611.7 764.2443,-630.7 823.2443,-630.7 823.2443,-611.7 764.2443,-611.7"/>
<text text-anchor="start" x="775.625" y="-617.8" font-family="Helvetica,sans-Serif" font-size="11.00" fill="#000000">973 rows</text>
<polygon fill="#ffffff" stroke="transparent" points="823.2443,-611.7 823.2443,-630.7 844.2443,-630.7 844.2443,-611.7 823.2443,-611.7"/>
<polygon fill="none" stroke="#000000" points="823.2443,-611.7 823.2443,-630.7 844.2443,-630.7 844.2443,-611.7 823.2443,-611.7"/>
<text text-anchor="start" x="835.1305" y="-617.8" font-family="Helvetica,sans-Serif" font-size="11.00" fill="#000000"> &#160;</text>
</a>
</g>
</g>
<!-- sahularch_osl&#45;&gt;global_SiteMaster -->
<g id="edge28" class="edge">
<title>sahularch_osl:w&#45;&gt;global_SiteMaster:e</title>
<path fill="none" stroke="#000000" stroke-dasharray="5,2" d="M710.5236,-640.6799C640.3716,-650.0148 586.0509,-723.8819 559.0506,-768.9198"/>
<polygon fill="#000000" stroke="#000000" points="717.262,-640.2314 725.4835,-643.2921 721.2532,-639.9657 725.2443,-639.7 725.2443,-639.7 725.2443,-639.7 721.2532,-639.9657 725.0052,-636.1079 717.262,-640.2314 717.262,-640.2314"/>
<ellipse fill="none" stroke="#000000" cx="714.0691" cy="-640.444" rx="3.2" ry="3.2"/>
</g>
<!-- sahularch_osl&#45;&gt;global_MetaSite -->
<g id="edge27" class="edge">
<title>sahularch_osl:w&#45;&gt;global_MetaSite:e</title>
<path fill="none" stroke="#000000" stroke-dasharray="5,2" d="M710.6834,-639.7253C611.3601,-640.0652 500.0361,-643.7559 428.9906,-646.5497"/>
<polygon fill="#000000" stroke="#000000" points="717.2443,-639.714 725.2506,-643.3 721.2443,-639.707 725.2443,-639.7 725.2443,-639.7 725.2443,-639.7 721.2443,-639.707 725.238,-636.1 717.2443,-639.714 717.2443,-639.714"/>
<ellipse fill="none" stroke="#000000" cx="714.0443" cy="-639.7196" rx="3.2" ry="3.2"/>
</g>
<!-- sahularch_tl -->
<g id="node20" class="node">
<title>sahularch_tl</title>
<g id="a_node20"><a xlink:href="../../tables/sahularch_tl.html" xlink:title="sahularch_tl" target="_top">
<polygon fill="#ffffff" stroke="transparent" points="729.7443,-530.2 729.7443,-591.2 838.7443,-591.2 838.7443,-530.2 729.7443,-530.2"/>
<polygon fill="#f5f5f5" stroke="transparent" points="730.2443,-567.7 730.2443,-590.7 839.2443,-590.7 839.2443,-567.7 730.2443,-567.7"/>
<polygon fill="none" stroke="#000000" points="730.2443,-567.7 730.2443,-590.7 839.2443,-590.7 839.2443,-567.7 730.2443,-567.7"/>
<text text-anchor="start" x="735.2443" y="-576.3" font-family="Helvetica,sans-Serif" font-weight="bold" font-size="11.00" fill="#000000">sahularch_tl</text>
<text text-anchor="start" x="804.7662" y="-575.8" font-family="Helvetica,sans-Serif" font-size="11.00" fill="#000000">[table]</text>
<polygon fill="none" stroke="#000000" points="730.2443,-548.7 730.2443,-567.7 839.2443,-567.7 839.2443,-548.7 730.2443,-548.7"/>
<text text-anchor="start" x="733.2443" y="-554.8" font-family="Helvetica,sans-Serif" font-size="11.00" fill="#000000">...</text>
<polygon fill="#ffffff" stroke="transparent" points="730.2443,-529.7 730.2443,-548.7 764.2443,-548.7 764.2443,-529.7 730.2443,-529.7"/>
<polygon fill="none" stroke="#000000" points="730.2443,-529.7 730.2443,-548.7 764.2443,-548.7 764.2443,-529.7 730.2443,-529.7"/>
<text text-anchor="start" x="733.2443" y="-535.8" font-family="Helvetica,sans-Serif" font-size="11.00" fill="#000000">&lt; 3</text>
<polygon fill="#ffffff" stroke="transparent" points="764.2443,-529.7 764.2443,-548.7 820.2443,-548.7 820.2443,-529.7 764.2443,-529.7"/>
<polygon fill="none" stroke="#000000" points="764.2443,-529.7 764.2443,-548.7 820.2443,-548.7 820.2443,-529.7 764.2443,-529.7"/>
<text text-anchor="start" x="772.625" y="-535.8" font-family="Helvetica,sans-Serif" font-size="11.00" fill="#000000">240 rows</text>
<polygon fill="#ffffff" stroke="transparent" points="820.2443,-529.7 820.2443,-548.7 839.2443,-548.7 839.2443,-529.7 820.2443,-529.7"/>
<polygon fill="none" stroke="#000000" points="820.2443,-529.7 820.2443,-548.7 839.2443,-548.7 839.2443,-529.7 820.2443,-529.7"/>
<text text-anchor="start" x="830.1305" y="-535.8" font-family="Helvetica,sans-Serif" font-size="11.00" fill="#000000"> &#160;</text>
</a>
</g>
</g>
<!-- sahularch_tl&#45;&gt;global_SiteMaster -->
<g id="edge30" class="edge">
<title>sahularch_tl:w&#45;&gt;global_SiteMaster:e</title>
<path fill="none" stroke="#000000" stroke-dasharray="5,2" d="M715.7387,-558.6231C619.6497,-570.9837 568.6263,-704.3445 549.387,-768.976"/>
<polygon fill="#000000" stroke="#000000" points="722.2605,-558.2081 730.473,-561.2927 726.2524,-557.9541 730.2443,-557.7 730.2443,-557.7 730.2443,-557.7 726.2524,-557.9541 730.0157,-554.1073 722.2605,-558.2081 722.2605,-558.2081"/>
<ellipse fill="none" stroke="#000000" cx="719.0669" cy="-558.4114" rx="3.2" ry="3.2"/>
</g>
<!-- sahularch_tl&#45;&gt;global_MetaSite -->
<g id="edge29" class="edge">
<title>sahularch_tl:w&#45;&gt;global_MetaSite:e</title>
<path fill="none" stroke="#000000" stroke-dasharray="5,2" d="M715.7383,-557.9135C612.4771,-560.9106 500.2649,-594.8483 429.0469,-620.5906"/>
<polygon fill="#000000" stroke="#000000" points="722.2452,-557.8178 730.2973,-561.2996 726.2448,-557.7589 730.2443,-557.7 730.2443,-557.7 730.2443,-557.7 726.2448,-557.7589 730.1913,-554.1004 722.2452,-557.8178 722.2452,-557.8178"/>
<ellipse fill="none" stroke="#000000" cx="719.0455" cy="-557.8649" rx="3.2" ry="3.2"/>
</g>
<!-- sahulsed_aeolian_osl -->
<g id="node21" class="node">
<title>sahulsed_aeolian_osl</title>
<g id="a_node21"><a xlink:href="../../tables/sahulsed_aeolian_osl.html" xlink:title="sahulsed_aeolian_osl" target="_top">
<polygon fill="#ffffff" stroke="transparent" points="702.7443,-448.2 702.7443,-509.2 865.7443,-509.2 865.7443,-448.2 702.7443,-448.2"/>
<polygon fill="#f5f5f5" stroke="transparent" points="703.2443,-485.7 703.2443,-508.7 866.2443,-508.7 866.2443,-485.7 703.2443,-485.7"/>
<polygon fill="none" stroke="#000000" points="703.2443,-485.7 703.2443,-508.7 866.2443,-508.7 866.2443,-485.7 703.2443,-485.7"/>
<text text-anchor="start" x="708.2443" y="-494.3" font-family="Helvetica,sans-Serif" font-weight="bold" font-size="11.00" fill="#000000">sahulsed_aeolian_osl</text>
<text text-anchor="start" x="831.7662" y="-493.8" font-family="Helvetica,sans-Serif" font-size="11.00" fill="#000000">[table]</text>
<polygon fill="none" stroke="#000000" points="703.2443,-466.7 703.2443,-485.7 866.2443,-485.7 866.2443,-466.7 703.2443,-466.7"/>
<text text-anchor="start" x="706.2443" y="-472.8" font-family="Helvetica,sans-Serif" font-size="11.00" fill="#000000">...</text>
<polygon fill="#ffffff" stroke="transparent" points="703.2443,-447.7 703.2443,-466.7 764.2443,-466.7 764.2443,-447.7 703.2443,-447.7"/>
<polygon fill="none" stroke="#000000" points="703.2443,-447.7 703.2443,-466.7 764.2443,-466.7 764.2443,-447.7 703.2443,-447.7"/>
<text text-anchor="start" x="706.2443" y="-453.8" font-family="Helvetica,sans-Serif" font-size="11.00" fill="#000000">&lt; 3</text>
<polygon fill="#ffffff" stroke="transparent" points="764.2443,-447.7 764.2443,-466.7 834.2443,-466.7 834.2443,-447.7 764.2443,-447.7"/>
<polygon fill="none" stroke="#000000" points="764.2443,-447.7 764.2443,-466.7 834.2443,-466.7 834.2443,-447.7 764.2443,-447.7"/>
<text text-anchor="start" x="786.625" y="-453.8" font-family="Helvetica,sans-Serif" font-size="11.00" fill="#000000">772 rows</text>
<polygon fill="#ffffff" stroke="transparent" points="834.2443,-447.7 834.2443,-466.7 866.2443,-466.7 866.2443,-447.7 834.2443,-447.7"/>
<polygon fill="none" stroke="#000000" points="834.2443,-447.7 834.2443,-466.7 866.2443,-466.7 866.2443,-447.7 834.2443,-447.7"/>
<text text-anchor="start" x="857.1305" y="-453.8" font-family="Helvetica,sans-Serif" font-size="11.00" fill="#000000"> &#160;</text>
</a>
</g>
</g>
<!-- sahulsed_aeolian_osl&#45;&gt;global_SiteMaster -->
<g id="edge32" class="edge">
<title>sahulsed_aeolian_osl:w&#45;&gt;global_SiteMaster:e</title>
<path fill="none" stroke="#000000" stroke-dasharray="5,2" d="M689.1792,-478.8454C629.1155,-505.2277 571.5195,-690.5943 549.5728,-768.9088"/>
<polygon fill="#000000" stroke="#000000" points="695.4372,-477.446 704.03,-479.2132 699.3408,-476.573 703.2443,-475.7 703.2443,-475.7 703.2443,-475.7 699.3408,-476.573 702.4586,-472.1868 695.4372,-477.446 695.4372,-477.446"/>
<ellipse fill="none" stroke="#000000" cx="692.3143" cy="-478.1444" rx="3.2" ry="3.2"/>
</g>
<!-- sahulsed_aeolian_osl&#45;&gt;global_MetaSite -->
<g id="edge31" class="edge">
<title>sahulsed_aeolian_osl:w&#45;&gt;global_MetaSite:e</title>
<path fill="none" stroke="#000000" stroke-dasharray="5,2" d="M688.7939,-476.0984C570.3243,-482.5696 453.2093,-566.3537 394.5297,-615.1152"/>
<polygon fill="#000000" stroke="#000000" points="695.2474,-475.9205 703.3436,-479.2986 699.2459,-475.8103 703.2443,-475.7 703.2443,-475.7 703.2443,-475.7 699.2459,-475.8103 703.1451,-472.1014 695.2474,-475.9205 695.2474,-475.9205"/>
<ellipse fill="none" stroke="#000000" cx="692.0486" cy="-476.0087" rx="3.2" ry="3.2"/>
</g>
<!-- sahulsed_aeolian_tl -->
<g id="node22" class="node">
<title>sahulsed_aeolian_tl</title>
<g id="a_node22"><a xlink:href="../../tables/sahulsed_aeolian_tl.html" xlink:title="sahulsed_aeolian_tl" target="_top">
<polygon fill="#ffffff" stroke="transparent" points="707.7443,-366.2 707.7443,-427.2 860.7443,-427.2 860.7443,-366.2 707.7443,-366.2"/>
<polygon fill="#f5f5f5" stroke="transparent" points="708.2443,-403.7 708.2443,-426.7 861.2443,-426.7 861.2443,-403.7 708.2443,-403.7"/>
<polygon fill="none" stroke="#000000" points="708.2443,-403.7 708.2443,-426.7 861.2443,-426.7 861.2443,-403.7 708.2443,-403.7"/>
<text text-anchor="start" x="713.2443" y="-412.3" font-family="Helvetica,sans-Serif" font-weight="bold" font-size="11.00" fill="#000000">sahulsed_aeolian_tl</text>
<text text-anchor="start" x="826.7662" y="-411.8" font-family="Helvetica,sans-Serif" font-size="11.00" fill="#000000">[table]</text>
<polygon fill="none" stroke="#000000" points="708.2443,-384.7 708.2443,-403.7 861.2443,-403.7 861.2443,-384.7 708.2443,-384.7"/>
<text text-anchor="start" x="711.2443" y="-390.8" font-family="Helvetica,sans-Serif" font-size="11.00" fill="#000000">...</text>
<polygon fill="#ffffff" stroke="transparent" points="708.2443,-365.7 708.2443,-384.7 764.2443,-384.7 764.2443,-365.7 708.2443,-365.7"/>
<polygon fill="none" stroke="#000000" points="708.2443,-365.7 708.2443,-384.7 764.2443,-384.7 764.2443,-365.7 708.2443,-365.7"/>
<text text-anchor="start" x="711.2443" y="-371.8" font-family="Helvetica,sans-Serif" font-size="11.00" fill="#000000">&lt; 3</text>
<polygon fill="#ffffff" stroke="transparent" points="764.2443,-365.7 764.2443,-384.7 831.2443,-384.7 831.2443,-365.7 764.2443,-365.7"/>
<polygon fill="none" stroke="#000000" points="764.2443,-365.7 764.2443,-384.7 831.2443,-384.7 831.2443,-365.7 764.2443,-365.7"/>
<text text-anchor="start" x="783.625" y="-371.8" font-family="Helvetica,sans-Serif" font-size="11.00" fill="#000000">361 rows</text>
<polygon fill="#ffffff" stroke="transparent" points="831.2443,-365.7 831.2443,-384.7 861.2443,-384.7 861.2443,-365.7 831.2443,-365.7"/>
<polygon fill="none" stroke="#000000" points="831.2443,-365.7 831.2443,-384.7 861.2443,-384.7 861.2443,-365.7 831.2443,-365.7"/>
<text text-anchor="start" x="852.1305" y="-371.8" font-family="Helvetica,sans-Serif" font-size="11.00" fill="#000000"> &#160;</text>
</a>
</g>
</g>
<!-- sahulsed_aeolian_tl&#45;&gt;global_SiteMaster -->
<g id="edge34" class="edge">
<title>sahulsed_aeolian_tl:w&#45;&gt;global_SiteMaster:e</title>
<path fill="none" stroke="#000000" stroke-dasharray="5,2" d="M693.8799,-395.228C673.7985,-400.0599 666.6794,-415.9827 651.7443,-437.7 578.4419,-544.2898 552.1397,-700.5196 543.7499,-769.1763"/>
<polygon fill="#000000" stroke="#000000" points="700.2892,-394.5462 708.6251,-397.2798 704.2668,-394.1231 708.2443,-393.7 708.2443,-393.7 708.2443,-393.7 704.2668,-394.1231 707.8635,-390.1202 700.2892,-394.5462 700.2892,-394.5462"/>
<ellipse fill="none" stroke="#000000" cx="697.1072" cy="-394.8847" rx="3.2" ry="3.2"/>
</g>
<!-- sahulsed_aeolian_tl&#45;&gt;global_MetaSite -->
<g id="edge33" class="edge">
<title>sahulsed_aeolian_tl:w&#45;&gt;global_MetaSite:e</title>
<path fill="none" stroke="#000000" stroke-dasharray="5,2" d="M693.5588,-393.816C587.636,-395.557 549.1493,-417.3288 461.7443,-487.7 418.9399,-522.1625 387.5739,-578.6846 370.4955,-615.0314"/>
<polygon fill="#000000" stroke="#000000" points="700.2446,-393.7632 708.2728,-397.2999 704.2445,-393.7316 708.2443,-393.7 708.2443,-393.7 708.2443,-393.7 704.2445,-393.7316 708.2159,-390.1001 700.2446,-393.7632 700.2446,-393.7632"/>
<ellipse fill="none" stroke="#000000" cx="697.0447" cy="-393.7885" rx="3.2" ry="3.2"/>
</g>
<!-- sahulsed_fluvial_osl -->
<g id="node23" class="node">
<title>sahulsed_fluvial_osl</title>
<g id="a_node23"><a xlink:href="../../tables/sahulsed_fluvial_osl.html" xlink:title="sahulsed_fluvial_osl" target="_top">
<polygon fill="#ffffff" stroke="transparent" points="706.2443,-284.2 706.2443,-345.2 862.2443,-345.2 862.2443,-284.2 706.2443,-284.2"/>
<polygon fill="#f5f5f5" stroke="transparent" points="706.2443,-321.7 706.2443,-344.7 862.2443,-344.7 862.2443,-321.7 706.2443,-321.7"/>
<polygon fill="none" stroke="#000000" points="706.2443,-321.7 706.2443,-344.7 862.2443,-344.7 862.2443,-321.7 706.2443,-321.7"/>
<text text-anchor="start" x="711.2443" y="-330.3" font-family="Helvetica,sans-Serif" font-weight="bold" font-size="11.00" fill="#000000">sahulsed_fluvial_osl</text>
<text text-anchor="start" x="827.7662" y="-329.8" font-family="Helvetica,sans-Serif" font-size="11.00" fill="#000000">[table]</text>
<polygon fill="none" stroke="#000000" points="706.2443,-302.7 706.2443,-321.7 862.2443,-321.7 862.2443,-302.7 706.2443,-302.7"/>
<text text-anchor="start" x="709.2443" y="-308.8" font-family="Helvetica,sans-Serif" font-size="11.00" fill="#000000">...</text>
<polygon fill="#ffffff" stroke="transparent" points="706.2443,-283.7 706.2443,-302.7 759.2443,-302.7 759.2443,-283.7 706.2443,-283.7"/>
<polygon fill="none" stroke="#000000" points="706.2443,-283.7 706.2443,-302.7 759.2443,-302.7 759.2443,-283.7 706.2443,-283.7"/>
<text text-anchor="start" x="709.2443" y="-289.8" font-family="Helvetica,sans-Serif" font-size="11.00" fill="#000000">&lt; 3</text>
<polygon fill="#ffffff" stroke="transparent" points="759.2443,-283.7 759.2443,-302.7 834.2443,-302.7 834.2443,-283.7 759.2443,-283.7"/>
<polygon fill="none" stroke="#000000" points="759.2443,-283.7 759.2443,-302.7 834.2443,-302.7 834.2443,-283.7 759.2443,-283.7"/>
<text text-anchor="start" x="777.4532" y="-289.8" font-family="Helvetica,sans-Serif" font-size="11.00" fill="#000000">1.212 rows</text>
<polygon fill="#ffffff" stroke="transparent" points="834.2443,-283.7 834.2443,-302.7 862.2443,-302.7 862.2443,-283.7 834.2443,-283.7"/>
<polygon fill="none" stroke="#000000" points="834.2443,-283.7 834.2443,-302.7 862.2443,-302.7 862.2443,-283.7 834.2443,-283.7"/>
<text text-anchor="start" x="853.1305" y="-289.8" font-family="Helvetica,sans-Serif" font-size="11.00" fill="#000000"> &#160;</text>
</a>
</g>
</g>
<!-- sahulsed_fluvial_osl&#45;&gt;global_SiteMaster -->
<g id="edge36" class="edge">
<title>sahulsed_fluvial_osl:w&#45;&gt;global_SiteMaster:e</title>
<path fill="none" stroke="#000000" stroke-dasharray="5,2" d="M691.866,-314.2964C604.4564,-346.1792 557.6417,-662.8008 544.2948,-769.1035"/>
<polygon fill="#000000" stroke="#000000" points="698.3717,-313.1217 706.8841,-315.2427 702.308,-312.4108 706.2443,-311.7 706.2443,-311.7 706.2443,-311.7 702.308,-312.4108 705.6046,-308.1573 698.3717,-313.1217 698.3717,-313.1217"/>
<ellipse fill="none" stroke="#000000" cx="695.2226" cy="-313.6903" rx="3.2" ry="3.2"/>
</g>
<!-- sahulsed_fluvial_osl&#45;&gt;global_MetaSite -->
<g id="edge35" class="edge">
<title>sahulsed_fluvial_osl:w&#45;&gt;global_MetaSite:e</title>
<path fill="none" stroke="#000000" stroke-dasharray="5,2" d="M691.7556,-311.7484C586.9407,-312.5046 542.0186,-322.9314 461.7443,-398.7 398.6209,-458.2804 371.5283,-561.4099 361.2456,-615.0446"/>
<polygon fill="#000000" stroke="#000000" points="698.2444,-311.7268 706.2564,-315.3 702.2444,-311.7134 706.2443,-311.7 706.2443,-311.7 706.2443,-311.7 702.2444,-311.7134 706.2323,-308.1 698.2444,-311.7268 698.2444,-311.7268"/>
<ellipse fill="none" stroke="#000000" cx="695.0444" cy="-311.7375" rx="3.2" ry="3.2"/>
</g>
<!-- sahulsed_fluvial_tl -->
<g id="node24" class="node">
<title>sahulsed_fluvial_tl</title>
<g id="a_node24"><a xlink:href="../../tables/sahulsed_fluvial_tl.html" xlink:title="sahulsed_fluvial_tl" target="_top">
<polygon fill="#ffffff" stroke="transparent" points="711.2443,-202.2 711.2443,-263.2 857.2443,-263.2 857.2443,-202.2 711.2443,-202.2"/>
<polygon fill="#f5f5f5" stroke="transparent" points="711.2443,-239.7 711.2443,-262.7 857.2443,-262.7 857.2443,-239.7 711.2443,-239.7"/>
<polygon fill="none" stroke="#000000" points="711.2443,-239.7 711.2443,-262.7 857.2443,-262.7 857.2443,-239.7 711.2443,-239.7"/>
<text text-anchor="start" x="716.2443" y="-248.3" font-family="Helvetica,sans-Serif" font-weight="bold" font-size="11.00" fill="#000000">sahulsed_fluvial_tl</text>
<text text-anchor="start" x="822.7662" y="-247.8" font-family="Helvetica,sans-Serif" font-size="11.00" fill="#000000">[table]</text>
<polygon fill="none" stroke="#000000" points="711.2443,-220.7 711.2443,-239.7 857.2443,-239.7 857.2443,-220.7 711.2443,-220.7"/>
<text text-anchor="start" x="714.2443" y="-226.8" font-family="Helvetica,sans-Serif" font-size="11.00" fill="#000000">...</text>
<polygon fill="#ffffff" stroke="transparent" points="711.2443,-201.7 711.2443,-220.7 763.2443,-220.7 763.2443,-201.7 711.2443,-201.7"/>
<polygon fill="none" stroke="#000000" points="711.2443,-201.7 711.2443,-220.7 763.2443,-220.7 763.2443,-201.7 711.2443,-201.7"/>
<text text-anchor="start" x="714.2443" y="-207.8" font-family="Helvetica,sans-Serif" font-size="11.00" fill="#000000">&lt; 3</text>
<polygon fill="#ffffff" stroke="transparent" points="763.2443,-201.7 763.2443,-220.7 829.2443,-220.7 829.2443,-201.7 763.2443,-201.7"/>
<polygon fill="none" stroke="#000000" points="763.2443,-201.7 763.2443,-220.7 829.2443,-220.7 829.2443,-201.7 763.2443,-201.7"/>
<text text-anchor="start" x="781.625" y="-207.8" font-family="Helvetica,sans-Serif" font-size="11.00" fill="#000000">564 rows</text>
<polygon fill="#ffffff" stroke="transparent" points="829.2443,-201.7 829.2443,-220.7 857.2443,-220.7 857.2443,-201.7 829.2443,-201.7"/>
<polygon fill="none" stroke="#000000" points="829.2443,-201.7 829.2443,-220.7 857.2443,-220.7 857.2443,-201.7 829.2443,-201.7"/>
<text text-anchor="start" x="848.1305" y="-207.8" font-family="Helvetica,sans-Serif" font-size="11.00" fill="#000000"> &#160;</text>
</a>
</g>
</g>
<!-- sahulsed_fluvial_tl&#45;&gt;global_SiteMaster -->
<g id="edge38" class="edge">
<title>sahulsed_fluvial_tl:w&#45;&gt;global_SiteMaster:e</title>
<path fill="none" stroke="#000000" stroke-dasharray="5,2" d="M696.7153,-232.046C594.2031,-265.6375 553.2252,-650.4405 542.974,-769.0864"/>
<polygon fill="#000000" stroke="#000000" points="703.3466,-230.9753 711.8182,-233.254 707.2955,-230.3377 711.2443,-229.7 711.2443,-229.7 711.2443,-229.7 707.2955,-230.3377 710.6704,-226.146 703.3466,-230.9753 703.3466,-230.9753"/>
<ellipse fill="none" stroke="#000000" cx="700.1875" cy="-231.4854" rx="3.2" ry="3.2"/>
</g>
<!-- sahulsed_fluvial_tl&#45;&gt;global_MetaSite -->
<g id="edge37" class="edge">
<title>sahulsed_fluvial_tl:w&#45;&gt;global_MetaSite:e</title>
<path fill="none" stroke="#000000" stroke-dasharray="5,2" d="M696.5387,-229.7049C589.9674,-229.8277 540.1773,-232.9695 461.7443,-312.7 418.6789,-356.4779 378.1282,-537.9703 362.5089,-614.9426"/>
<polygon fill="#000000" stroke="#000000" points="703.2443,-229.7027 711.2456,-233.3 707.2443,-229.7014 711.2443,-229.7 711.2443,-229.7 711.2443,-229.7 707.2443,-229.7014 711.2431,-226.1 703.2443,-229.7027 703.2443,-229.7027"/>
<ellipse fill="none" stroke="#000000" cx="700.0443" cy="-229.7038" rx="3.2" ry="3.2"/>
</g>
<!-- sahulsed_lacustrine_osl -->
<g id="node25" class="node">
<title>sahulsed_lacustrine_osl</title>
<g id="a_node25"><a xlink:href="../../tables/sahulsed_lacustrine_osl.html" xlink:title="sahulsed_lacustrine_osl" target="_top">
<polygon fill="#ffffff" stroke="transparent" points="695.2443,-120.2 695.2443,-181.2 873.2443,-181.2 873.2443,-120.2 695.2443,-120.2"/>
<polygon fill="#f5f5f5" stroke="transparent" points="695.2443,-157.7 695.2443,-180.7 873.2443,-180.7 873.2443,-157.7 695.2443,-157.7"/>
<polygon fill="none" stroke="#000000" points="695.2443,-157.7 695.2443,-180.7 873.2443,-180.7 873.2443,-157.7 695.2443,-157.7"/>
<text text-anchor="start" x="700.2443" y="-166.3" font-family="Helvetica,sans-Serif" font-weight="bold" font-size="11.00" fill="#000000">sahulsed_lacustrine_osl</text>
<text text-anchor="start" x="838.7662" y="-165.8" font-family="Helvetica,sans-Serif" font-size="11.00" fill="#000000">[table]</text>
<polygon fill="none" stroke="#000000" points="695.2443,-138.7 695.2443,-157.7 873.2443,-157.7 873.2443,-138.7 695.2443,-138.7"/>
<text text-anchor="start" x="698.2443" y="-144.8" font-family="Helvetica,sans-Serif" font-size="11.00" fill="#000000">...</text>
<polygon fill="#ffffff" stroke="transparent" points="695.2443,-119.7 695.2443,-138.7 763.2443,-138.7 763.2443,-119.7 695.2443,-119.7"/>
<polygon fill="none" stroke="#000000" points="695.2443,-119.7 695.2443,-138.7 763.2443,-138.7 763.2443,-119.7 695.2443,-119.7"/>
<text text-anchor="start" x="698.2443" y="-125.8" font-family="Helvetica,sans-Serif" font-size="11.00" fill="#000000">&lt; 3</text>
<polygon fill="#ffffff" stroke="transparent" points="763.2443,-119.7 763.2443,-138.7 837.2443,-138.7 837.2443,-119.7 763.2443,-119.7"/>
<polygon fill="none" stroke="#000000" points="763.2443,-119.7 763.2443,-138.7 837.2443,-138.7 837.2443,-119.7 763.2443,-119.7"/>
<text text-anchor="start" x="789.625" y="-125.8" font-family="Helvetica,sans-Serif" font-size="11.00" fill="#000000">474 rows</text>
<polygon fill="#ffffff" stroke="transparent" points="837.2443,-119.7 837.2443,-138.7 873.2443,-138.7 873.2443,-119.7 837.2443,-119.7"/>
<polygon fill="none" stroke="#000000" points="837.2443,-119.7 837.2443,-138.7 873.2443,-138.7 873.2443,-119.7 837.2443,-119.7"/>
<text text-anchor="start" x="864.1305" y="-125.8" font-family="Helvetica,sans-Serif" font-size="11.00" fill="#000000"> &#160;</text>
</a>
</g>
</g>
<!-- sahulsed_lacustrine_osl&#45;&gt;global_SiteMaster -->
<g id="edge40" class="edge">
<title>sahulsed_lacustrine_osl:w&#45;&gt;global_SiteMaster:e</title>
<path fill="none" stroke="#000000" stroke-dasharray="5,2" d="M680.9803,-149.7669C564.7327,-184.1795 544.3819,-638.4395 540.9286,-768.8938"/>
<polygon fill="#000000" stroke="#000000" points="687.327,-148.8473 695.7606,-151.2628 691.2857,-148.2736 695.2443,-147.7 695.2443,-147.7 695.2443,-147.7 691.2857,-148.2736 694.7281,-144.1372 687.327,-148.8473 687.327,-148.8473"/>
<ellipse fill="none" stroke="#000000" cx="684.1601" cy="-149.3062" rx="3.2" ry="3.2"/>
</g>
<!-- sahulsed_lacustrine_osl&#45;&gt;global_MetaSite -->
<g id="edge39" class="edge">
<title>sahulsed_lacustrine_osl:w&#45;&gt;global_MetaSite:e</title>
<path fill="none" stroke="#000000" stroke-dasharray="5,2" d="M680.468,-148.4746C618.2692,-154.3243 495.8631,-192.3447 461.7443,-229.7 409.3794,-287.0324 372.5229,-525.1525 360.2276,-615.0945"/>
<polygon fill="#000000" stroke="#000000" points="687.2553,-148.1189 695.4328,-151.2951 691.2498,-147.9094 695.2443,-147.7 695.2443,-147.7 695.2443,-147.7 691.2498,-147.9094 695.0558,-144.1049 687.2553,-148.1189 687.2553,-148.1189"/>
<ellipse fill="none" stroke="#000000" cx="684.0597" cy="-148.2864" rx="3.2" ry="3.2"/>
</g>
<!-- sahulsed_lacustrine_tl -->
<g id="node26" class="node">
<title>sahulsed_lacustrine_tl</title>
<g id="a_node26"><a xlink:href="../../tables/sahulsed_lacustrine_tl.html" xlink:title="sahulsed_lacustrine_tl" target="_top">
<polygon fill="#ffffff" stroke="transparent" points="700.2443,-38.2 700.2443,-99.2 868.2443,-99.2 868.2443,-38.2 700.2443,-38.2"/>
<polygon fill="#f5f5f5" stroke="transparent" points="700.2443,-75.7 700.2443,-98.7 868.2443,-98.7 868.2443,-75.7 700.2443,-75.7"/>
<polygon fill="none" stroke="#000000" points="700.2443,-75.7 700.2443,-98.7 868.2443,-98.7 868.2443,-75.7 700.2443,-75.7"/>
<text text-anchor="start" x="705.2443" y="-84.3" font-family="Helvetica,sans-Serif" font-weight="bold" font-size="11.00" fill="#000000">sahulsed_lacustrine_tl</text>
<text text-anchor="start" x="833.7662" y="-83.8" font-family="Helvetica,sans-Serif" font-size="11.00" fill="#000000">[table]</text>
<polygon fill="none" stroke="#000000" points="700.2443,-56.7 700.2443,-75.7 868.2443,-75.7 868.2443,-56.7 700.2443,-56.7"/>
<text text-anchor="start" x="703.2443" y="-62.8" font-family="Helvetica,sans-Serif" font-size="11.00" fill="#000000">...</text>
<polygon fill="#ffffff" stroke="transparent" points="700.2443,-37.7 700.2443,-56.7 766.2443,-56.7 766.2443,-37.7 700.2443,-37.7"/>
<polygon fill="none" stroke="#000000" points="700.2443,-37.7 700.2443,-56.7 766.2443,-56.7 766.2443,-37.7 700.2443,-37.7"/>
<text text-anchor="start" x="703.2443" y="-43.8" font-family="Helvetica,sans-Serif" font-size="11.00" fill="#000000">&lt; 3</text>
<polygon fill="#ffffff" stroke="transparent" points="766.2443,-37.7 766.2443,-56.7 833.2443,-56.7 833.2443,-37.7 766.2443,-37.7"/>
<polygon fill="none" stroke="#000000" points="766.2443,-37.7 766.2443,-56.7 833.2443,-56.7 833.2443,-37.7 766.2443,-37.7"/>
<text text-anchor="start" x="791.7399" y="-43.8" font-family="Helvetica,sans-Serif" font-size="11.00" fill="#000000">41 rows</text>
<polygon fill="#ffffff" stroke="transparent" points="833.2443,-37.7 833.2443,-56.7 868.2443,-56.7 868.2443,-37.7 833.2443,-37.7"/>
<polygon fill="none" stroke="#000000" points="833.2443,-37.7 833.2443,-56.7 868.2443,-56.7 868.2443,-37.7 833.2443,-37.7"/>
<text text-anchor="start" x="859.1305" y="-43.8" font-family="Helvetica,sans-Serif" font-size="11.00" fill="#000000"> &#160;</text>
</a>
</g>
</g>
<!-- sahulsed_lacustrine_tl&#45;&gt;global_SiteMaster -->
<g id="edge42" class="edge">
<title>sahulsed_lacustrine_tl:w&#45;&gt;global_SiteMaster:e</title>
<path fill="none" stroke="#000000" stroke-dasharray="5,2" d="M685.6513,-67.7234C668.6626,-73.1659 662.9036,-89.1097 651.7443,-109.7 619.8365,-168.5741 560.6739,-636.6979 544.452,-768.9895"/>
<polygon fill="#000000" stroke="#000000" points="692.3201,-66.7988 700.7388,-69.2659 696.2822,-66.2494 700.2443,-65.7 700.2443,-65.7 700.2443,-65.7 696.2822,-66.2494 699.7499,-62.1341 692.3201,-66.7988 692.3201,-66.7988"/>
<ellipse fill="none" stroke="#000000" cx="689.1505" cy="-67.2383" rx="3.2" ry="3.2"/>
</g>
<!-- sahulsed_lacustrine_tl&#45;&gt;global_MetaSite -->
<g id="edge41" class="edge">
<title>sahulsed_lacustrine_tl:w&#45;&gt;global_MetaSite:e</title>
<path fill="none" stroke="#000000" stroke-dasharray="5,2" d="M685.6017,-65.7434C581.9505,-66.4181 532.3004,-75.9136 461.7443,-158.7 402.2786,-228.4736 368.9913,-514.8258 358.9929,-614.946"/>
<polygon fill="#000000" stroke="#000000" points="692.2444,-65.7238 700.255,-69.3 696.2443,-65.7119 700.2443,-65.7 700.2443,-65.7 700.2443,-65.7 696.2443,-65.7119 700.2336,-62.1 692.2444,-65.7238 692.2444,-65.7238"/>
<ellipse fill="none" stroke="#000000" cx="689.0444" cy="-65.7333" rx="3.2" ry="3.2"/>
</g>
<!-- sed_Sample -->
<g id="node27" class="node">
<title>sed_Sample</title>
<g id="a_node27"><a xlink:href="../../tables/sed_Sample.html" xlink:title="sed_Sample" target="_top">
<polygon fill="#ffffff" stroke="transparent" points="729.7443,-858.2 729.7443,-919.2 838.7443,-919.2 838.7443,-858.2 729.7443,-858.2"/>
<polygon fill="#f5f5f5" stroke="transparent" points="730.2443,-895.7 730.2443,-918.7 839.2443,-918.7 839.2443,-895.7 730.2443,-895.7"/>
<polygon fill="none" stroke="#000000" points="730.2443,-895.7 730.2443,-918.7 839.2443,-918.7 839.2443,-895.7 730.2443,-895.7"/>
<text text-anchor="start" x="735.2443" y="-904.3" font-family="Helvetica,sans-Serif" font-weight="bold" font-size="11.00" fill="#000000">sed_Sample</text>
<text text-anchor="start" x="804.7662" y="-903.8" font-family="Helvetica,sans-Serif" font-size="11.00" fill="#000000">[table]</text>
<polygon fill="none" stroke="#000000" points="730.2443,-876.7 730.2443,-895.7 839.2443,-895.7 839.2443,-876.7 730.2443,-876.7"/>
<text text-anchor="start" x="733.2443" y="-882.8" font-family="Helvetica,sans-Serif" font-size="11.00" fill="#000000">...</text>
<polygon fill="#ffffff" stroke="transparent" points="730.2443,-857.7 730.2443,-876.7 755.2443,-876.7 755.2443,-857.7 730.2443,-857.7"/>
<polygon fill="none" stroke="#000000" points="730.2443,-857.7 730.2443,-876.7 755.2443,-876.7 755.2443,-857.7 730.2443,-857.7"/>
<text text-anchor="start" x="733.2443" y="-863.8" font-family="Helvetica,sans-Serif" font-size="11.00" fill="#000000">&lt; 9</text>
<polygon fill="#ffffff" stroke="transparent" points="755.2443,-857.7 755.2443,-876.7 816.2443,-876.7 816.2443,-857.7 755.2443,-857.7"/>
<polygon fill="none" stroke="#000000" points="755.2443,-857.7 755.2443,-876.7 816.2443,-876.7 816.2443,-857.7 755.2443,-857.7"/>
<text text-anchor="start" x="759.4532" y="-863.8" font-family="Helvetica,sans-Serif" font-size="11.00" fill="#000000">3.181 rows</text>
<polygon fill="#ffffff" stroke="transparent" points="816.2443,-857.7 816.2443,-876.7 839.2443,-876.7 839.2443,-857.7 816.2443,-857.7"/>
<polygon fill="none" stroke="#000000" points="816.2443,-857.7 816.2443,-876.7 839.2443,-876.7 839.2443,-857.7 816.2443,-857.7"/>
<text text-anchor="start" x="820.6496" y="-863.8" font-family="Helvetica,sans-Serif" font-size="11.00" fill="#000000">2 &gt;</text>
</a>
</g>
</g>
<!-- sed_Sample&#45;&gt;global_SiteMaster -->
<g id="edge43" class="edge">
<title>sed_Sample:w&#45;&gt;global_SiteMaster:e</title>
<path fill="none" stroke="#000000" d="M715.6132,-885.0359C669.4672,-880.929 623.1842,-858.503 589.7616,-838.2377"/>
<polygon fill="#000000" stroke="#000000" points="722.2526,-885.3372 730.0811,-889.2963 726.2484,-885.5186 730.2443,-885.7 730.2443,-885.7 730.2443,-885.7 726.2484,-885.5186 730.4076,-882.1037 722.2526,-885.3372 722.2526,-885.3372"/>
<ellipse fill="none" stroke="#000000" cx="719.0559" cy="-885.1921" rx="3.2" ry="3.2"/>
</g>
</g>
</svg>
