<?xml version="1.0" encoding="UTF-8" standalone="no"?>
<!DOCTYPE svg PUBLIC "-//W3C//DTD SVG 1.1//EN"
 "http://www.w3.org/Graphics/SVG/1.1/DTD/svg11.dtd">
<!-- Generated by graphviz version 2.40.1 (20161225.0304)
 -->
<!-- Title: twoDegreesRelationshipsDiagram Pages: 1 -->
<svg width="583pt" height="497pt"
 viewBox="0.00 0.00 583.00 496.70" xmlns="http://www.w3.org/2000/svg" xmlns:xlink="http://www.w3.org/1999/xlink">
<g id="graph0" class="graph" transform="scale(1 1) rotate(0) translate(4 492.7)">
<title>twoDegreesRelationshipsDiagram</title>
<polygon fill="#ffffff" stroke="transparent" points="-4,4 -4,-492.7 579,-492.7 579,4 -4,4"/>
<text text-anchor="middle" x="72.4936" y="-7.3" font-family="Helvetica,sans-Serif" font-size="11.00" fill="#000000">Generated by SchemaSpy</text>
<!-- arch_Sample -->
<g id="node1" class="node">
<title>arch_Sample</title>
<g id="a_node1"><a xlink:href="../../tables/arch_Sample.html" xlink:title="arch_Sample" target="_top">
<polygon fill="#ffffff" stroke="transparent" points="452.5,-380.2 452.5,-441.2 559.5,-441.2 559.5,-380.2 452.5,-380.2"/>
<polygon fill="#f5f5f5" stroke="transparent" points="453,-417.7 453,-440.7 560,-440.7 560,-417.7 453,-417.7"/>
<polygon fill="none" stroke="#000000" points="453,-417.7 453,-440.7 560,-440.7 560,-417.7 453,-417.7"/>
<text text-anchor="start" x="457.605" y="-426.8" font-family="Helvetica,sans-Serif" font-weight="bold" font-size="11.00" fill="#000000">arch_Sample</text>
<text text-anchor="start" x="525.5219" y="-425.8" font-family="Helvetica,sans-Serif" font-size="11.00" fill="#000000">[table]</text>
<polygon fill="none" stroke="#000000" points="453,-398.7 453,-417.7 560,-417.7 560,-398.7 453,-398.7"/>
<text text-anchor="start" x="456" y="-404.8" font-family="Helvetica,sans-Serif" font-size="11.00" fill="#000000">...</text>
<polygon fill="#ffffff" stroke="transparent" points="453,-379.7 453,-398.7 474,-398.7 474,-379.7 453,-379.7"/>
<polygon fill="none" stroke="#000000" points="453,-379.7 453,-398.7 474,-398.7 474,-379.7 453,-379.7"/>
<text text-anchor="start" x="455.7027" y="-385.8" font-family="Helvetica,sans-Serif" font-size="11.00" fill="#000000">&lt; 2</text>
<polygon fill="#ffffff" stroke="transparent" points="474,-379.7 474,-398.7 539,-398.7 539,-379.7 474,-379.7"/>
<polygon fill="none" stroke="#000000" points="474,-379.7 474,-398.7 539,-398.7 539,-379.7 474,-379.7"/>
<text text-anchor="start" x="476.547" y="-385.8" font-family="Helvetica,sans-Serif" font-size="11.00" fill="#000000">10,412 rows</text>
<polygon fill="#ffffff" stroke="transparent" points="539,-379.7 539,-398.7 560,-398.7 560,-379.7 539,-379.7"/>
<polygon fill="none" stroke="#000000" points="539,-379.7 539,-398.7 560,-398.7 560,-379.7 539,-379.7"/>
<text text-anchor="start" x="541.7026" y="-385.8" font-family="Helvetica,sans-Serif" font-size="11.00" fill="#000000">3 &gt;</text>
</a>
</g>
</g>
<!-- global_SiteMaster -->
<g id="node2" class="node">
<title>global_SiteMaster</title>
<g id="a_node2"><a xlink:href="../../tables/global_SiteMaster.html" xlink:title="global_SiteMaster" target="_top">
<polygon fill="#ffffff" stroke="transparent" points="265,-107.2 265,-278.2 396,-278.2 396,-107.2 265,-107.2"/>
<polygon fill="#f5f5f5" stroke="transparent" points="265.5,-254.7 265.5,-277.7 396.5,-277.7 396.5,-254.7 265.5,-254.7"/>
<polygon fill="none" stroke="#000000" points="265.5,-254.7 265.5,-277.7 396.5,-277.7 396.5,-254.7 265.5,-254.7"/>
<text text-anchor="start" x="270.4923" y="-263.8" font-family="Helvetica,sans-Serif" font-weight="bold" font-size="11.00" fill="#000000">global_SiteMaster</text>
<text text-anchor="start" x="362.0219" y="-262.8" font-family="Helvetica,sans-Serif" font-size="11.00" fill="#000000">[table]</text>
<polygon fill="none" stroke="#000000" points="265.5,-232.7 265.5,-254.7 396.5,-254.7 396.5,-232.7 265.5,-232.7"/>
<image xlink:href="../../images/primaryKeys.png" width="11px" height="12px" preserveAspectRatio="xMinYMin meet" x="270.5" y="-249.7"/>
<text text-anchor="start" x="289.5" y="-239.8" font-family="Helvetica,sans-Serif" font-size="11.00" fill="#000000">SITEID</text>
<polygon fill="none" stroke="#000000" points="265.5,-210.7 265.5,-232.7 396.5,-232.7 396.5,-210.7 265.5,-210.7"/>
<image xlink:href="../../images/foreignKeys.png" width="11px" height="12px" preserveAspectRatio="xMinYMin meet" x="270.5" y="-227.7"/>
<text text-anchor="start" x="289.5" y="-217.8" font-family="Helvetica,sans-Serif" font-size="11.00" fill="#000000">METASITEID</text>
<polygon fill="none" stroke="#000000" points="265.5,-188.7 265.5,-210.7 396.5,-210.7 396.5,-188.7 265.5,-188.7"/>
<image xlink:href="../../images/foreignKeys.png" width="11px" height="12px" preserveAspectRatio="xMinYMin meet" x="270.5" y="-205.7"/>
<text text-anchor="start" x="289.5" y="-195.8" font-family="Helvetica,sans-Serif" font-size="11.00" fill="#000000">RIVID</text>
<polygon fill="none" stroke="#000000" points="265.5,-166.7 265.5,-188.7 396.5,-188.7 396.5,-166.7 265.5,-166.7"/>
<image xlink:href="../../images/foreignKeys.png" width="11px" height="12px" preserveAspectRatio="xMinYMin meet" x="270.5" y="-183.7"/>
<text text-anchor="start" x="289.5" y="-173.8" font-family="Helvetica,sans-Serif" font-size="11.00" fill="#000000">IBRAID</text>
<polygon fill="none" stroke="#000000" points="265.5,-144.7 265.5,-166.7 396.5,-166.7 396.5,-144.7 265.5,-144.7"/>
<image xlink:href="../../images/foreignKeys.png" width="11px" height="12px" preserveAspectRatio="xMinYMin meet" x="270.5" y="-161.7"/>
<text text-anchor="start" x="289.5" y="-151.8" font-family="Helvetica,sans-Serif" font-size="11.00" fill="#000000">SITECODEID</text>
<polygon fill="none" stroke="#000000" points="265.5,-125.7 265.5,-144.7 396.5,-144.7 396.5,-125.7 265.5,-125.7"/>
<text text-anchor="start" x="268.5" y="-131.8" font-family="Helvetica,sans-Serif" font-size="11.00" fill="#000000">...</text>
<polygon fill="#ffffff" stroke="transparent" points="265.5,-106.7 265.5,-125.7 298.5,-125.7 298.5,-106.7 265.5,-106.7"/>
<polygon fill="none" stroke="#000000" points="265.5,-106.7 265.5,-125.7 298.5,-125.7 298.5,-106.7 265.5,-106.7"/>
<text text-anchor="start" x="268.5" y="-112.8" font-family="Helvetica,sans-Serif" font-size="11.00" fill="#000000">&lt; 4</text>
<polygon fill="#ffffff" stroke="transparent" points="298.5,-106.7 298.5,-125.7 369.5,-125.7 369.5,-106.7 298.5,-106.7"/>
<polygon fill="none" stroke="#000000" points="298.5,-106.7 298.5,-125.7 369.5,-125.7 369.5,-106.7 298.5,-106.7"/>
<text text-anchor="start" x="306.594" y="-112.8" font-family="Helvetica,sans-Serif" font-size="11.00" fill="#000000">23,245 rows</text>
<polygon fill="#ffffff" stroke="transparent" points="369.5,-106.7 369.5,-125.7 396.5,-125.7 396.5,-106.7 369.5,-106.7"/>
<polygon fill="none" stroke="#000000" points="369.5,-106.7 369.5,-125.7 396.5,-125.7 396.5,-106.7 369.5,-106.7"/>
<text text-anchor="start" x="377.9053" y="-112.8" font-family="Helvetica,sans-Serif" font-size="11.00" fill="#000000">5 &gt;</text>
</a>
</g>
</g>
<!-- arch_Sample&#45;&gt;global_SiteMaster -->
<g id="edge1" class="edge">
<title>arch_Sample:w&#45;&gt;global_SiteMaster:e</title>
<path fill="none" stroke="#000000" d="M438.5801,-405.124C389.4444,-384.2596 467.8714,-243.7 396.5,-243.7"/>
<polygon fill="#000000" stroke="#000000" points="445.1247,-406.2931 452.3669,-411.2439 449.0623,-406.9965 453,-407.7 453,-407.7 453,-407.7 449.0623,-406.9965 453.6331,-404.1561 445.1247,-406.2931 445.1247,-406.2931"/>
<ellipse fill="none" stroke="#000000" cx="441.9746" cy="-405.7303" rx="3.2" ry="3.2"/>
</g>
<!-- global_ibraID -->
<g id="node6" class="node">
<title>global_ibraID</title>
<g id="a_node6"><a xlink:href="../../tables/global_ibraID.html" xlink:title="global_ibraID" target="_top">
<polygon fill="#ffffff" stroke="transparent" points="58.5,-120.2 58.5,-181.2 165.5,-181.2 165.5,-120.2 58.5,-120.2"/>
<polygon fill="#f5f5f5" stroke="transparent" points="59,-157.7 59,-180.7 166,-180.7 166,-157.7 59,-157.7"/>
<polygon fill="none" stroke="#000000" points="59,-157.7 59,-180.7 166,-180.7 166,-157.7 59,-157.7"/>
<text text-anchor="start" x="63.6067" y="-166.8" font-family="Helvetica,sans-Serif" font-weight="bold" font-size="11.00" fill="#000000">global_ibraID</text>
<text text-anchor="start" x="131.5219" y="-165.8" font-family="Helvetica,sans-Serif" font-size="11.00" fill="#000000">[table]</text>
<polygon fill="none" stroke="#000000" points="59,-138.7 59,-157.7 166,-157.7 166,-138.7 59,-138.7"/>
<text text-anchor="start" x="62" y="-144.8" font-family="Helvetica,sans-Serif" font-size="11.00" fill="#000000">...</text>
<polygon fill="#ffffff" stroke="transparent" points="59,-119.7 59,-138.7 86,-138.7 86,-119.7 59,-119.7"/>
<polygon fill="none" stroke="#000000" points="59,-119.7 59,-138.7 86,-138.7 86,-119.7 59,-119.7"/>
<text text-anchor="start" x="62" y="-125.8" font-family="Helvetica,sans-Serif" font-size="11.00" fill="#000000"> &#160;</text>
<polygon fill="#ffffff" stroke="transparent" points="86,-119.7 86,-138.7 137,-138.7 137,-119.7 86,-119.7"/>
<polygon fill="none" stroke="#000000" points="86,-119.7 86,-138.7 137,-138.7 137,-119.7 86,-119.7"/>
<text text-anchor="start" x="95.4956" y="-125.8" font-family="Helvetica,sans-Serif" font-size="11.00" fill="#000000">90 rows</text>
<polygon fill="#ffffff" stroke="transparent" points="137,-119.7 137,-138.7 166,-138.7 166,-119.7 137,-119.7"/>
<polygon fill="none" stroke="#000000" points="137,-119.7 137,-138.7 166,-138.7 166,-119.7 137,-119.7"/>
<text text-anchor="start" x="147.4053" y="-125.8" font-family="Helvetica,sans-Serif" font-size="11.00" fill="#000000">1 &gt;</text>
</a>
</g>
</g>
<!-- global_SiteMaster&#45;&gt;global_ibraID -->
<g id="edge5" class="edge">
<title>global_SiteMaster:w&#45;&gt;global_ibraID:e</title>
<path fill="none" stroke="#000000" d="M250.7456,-176.5606C217.1055,-171.0807 206.7758,-147.7 166,-147.7"/>
<polygon fill="#000000" stroke="#000000" points="257.5237,-177.084 265.2228,-181.2893 261.5119,-177.392 265.5,-177.7 265.5,-177.7 265.5,-177.7 261.5119,-177.392 265.7772,-174.1107 257.5237,-177.084 257.5237,-177.084"/>
<ellipse fill="none" stroke="#000000" cx="254.3332" cy="-176.8376" rx="3.2" ry="3.2"/>
</g>
<!-- global_MetaSite -->
<g id="node7" class="node">
<title>global_MetaSite</title>
<g id="a_node7"><a xlink:href="../../tables/global_MetaSite.html" xlink:title="global_MetaSite" target="_top">
<polygon fill="#ffffff" stroke="transparent" points="8,-284.7 8,-484.7 216,-484.7 216,-284.7 8,-284.7"/>
<polygon fill="#f5f5f5" stroke="transparent" points="10,-459.7 10,-482.7 214,-482.7 214,-459.7 10,-459.7"/>
<polygon fill="none" stroke="#000000" points="10,-459.7 10,-482.7 214,-482.7 214,-459.7 10,-459.7"/>
<text text-anchor="start" x="15" y="-468.8" font-family="Helvetica,sans-Serif" font-weight="bold" font-size="11.00" fill="#000000">global_MetaSite</text>
<text text-anchor="start" x="179.0437" y="-467.8" font-family="Helvetica,sans-Serif" font-size="11.00" fill="#000000">[table]</text>
<polygon fill="none" stroke="#000000" points="10,-437.7 10,-459.7 122,-459.7 122,-437.7 10,-437.7"/>
<image xlink:href="../../images/primaryKeys.png" width="11px" height="12px" preserveAspectRatio="xMinYMin meet" x="15" y="-454.7"/>
<text text-anchor="start" x="30" y="-444.8" font-family="Helvetica,sans-Serif" font-size="11.00" fill="#000000">METASITEID</text>
<polygon fill="none" stroke="#000000" points="122,-437.7 122,-459.7 214,-459.7 214,-437.7 122,-437.7"/>
<text text-anchor="start" x="125" y="-445.4" font-family="Helvetica,sans-Serif" font-size="11.00" fill="#000000">text[2147483647]</text>
<polygon fill="none" stroke="#000000" points="10,-415.7 10,-437.7 122,-437.7 122,-415.7 10,-415.7"/>
<text text-anchor="start" x="30" y="-422.8" font-family="Helvetica,sans-Serif" font-size="11.00" fill="#000000">METANAME</text>
<polygon fill="none" stroke="#000000" points="122,-415.7 122,-437.7 214,-437.7 214,-415.7 122,-415.7"/>
<text text-anchor="start" x="125" y="-423.4" font-family="Helvetica,sans-Serif" font-size="11.00" fill="#000000">text[2147483647]</text>
<polygon fill="none" stroke="#000000" points="10,-393.7 10,-415.7 122,-415.7 122,-393.7 10,-393.7"/>
<text text-anchor="start" x="30" y="-400.8" font-family="Helvetica,sans-Serif" font-size="11.00" fill="#000000">META_WKT84</text>
<polygon fill="none" stroke="#000000" points="122,-393.7 122,-415.7 214,-415.7 214,-393.7 122,-393.7"/>
<text text-anchor="start" x="125" y="-401.4" font-family="Helvetica,sans-Serif" font-size="11.00" fill="#000000">text[2147483647]</text>
<polygon fill="none" stroke="#000000" points="10,-371.7 10,-393.7 122,-393.7 122,-371.7 10,-371.7"/>
<text text-anchor="start" x="30" y="-378.8" font-family="Helvetica,sans-Serif" font-size="11.00" fill="#000000">META_AREA</text>
<polygon fill="none" stroke="#000000" points="122,-371.7 122,-393.7 214,-393.7 214,-371.7 122,-371.7"/>
<text text-anchor="start" x="125" y="-379.4" font-family="Helvetica,sans-Serif" font-size="11.00" fill="#000000">numeric[0]</text>
<polygon fill="none" stroke="#000000" points="10,-349.7 10,-371.7 122,-371.7 122,-349.7 10,-349.7"/>
<text text-anchor="start" x="30" y="-356.8" font-family="Helvetica,sans-Serif" font-size="11.00" fill="#000000">META_COMMT</text>
<polygon fill="none" stroke="#000000" points="122,-349.7 122,-371.7 214,-371.7 214,-349.7 122,-349.7"/>
<text text-anchor="start" x="125" y="-357.4" font-family="Helvetica,sans-Serif" font-size="11.00" fill="#000000">text[2147483647]</text>
<polygon fill="none" stroke="#000000" points="10,-327.7 10,-349.7 122,-349.7 122,-327.7 10,-327.7"/>
<text text-anchor="start" x="30" y="-334.8" font-family="Helvetica,sans-Serif" font-size="11.00" fill="#000000">CREATED_AT</text>
<polygon fill="none" stroke="#000000" points="122,-327.7 122,-349.7 214,-349.7 214,-327.7 122,-327.7"/>
<text text-anchor="start" x="124.6023" y="-335.4" font-family="Helvetica,sans-Serif" font-size="11.00" fill="#000000">timestamptz[35,6]</text>
<polygon fill="none" stroke="#000000" points="10,-305.7 10,-327.7 122,-327.7 122,-305.7 10,-305.7"/>
<text text-anchor="start" x="30" y="-312.8" font-family="Helvetica,sans-Serif" font-size="11.00" fill="#000000">UPDATED_AT</text>
<polygon fill="none" stroke="#000000" points="122,-305.7 122,-327.7 214,-327.7 214,-305.7 122,-305.7"/>
<text text-anchor="start" x="124.6023" y="-313.4" font-family="Helvetica,sans-Serif" font-size="11.00" fill="#000000">timestamptz[35,6]</text>
<polygon fill="#ffffff" stroke="transparent" points="10,-286.7 10,-305.7 47,-305.7 47,-286.7 10,-286.7"/>
<polygon fill="none" stroke="#000000" points="10,-286.7 10,-305.7 47,-305.7 47,-286.7 10,-286.7"/>
<text text-anchor="start" x="13" y="-292.8" font-family="Helvetica,sans-Serif" font-size="11.00" fill="#000000">&lt; 0</text>
<polygon fill="#ffffff" stroke="transparent" points="47,-286.7 47,-305.7 122,-305.7 122,-286.7 47,-286.7"/>
<polygon fill="none" stroke="#000000" points="47,-286.7 47,-305.7 122,-305.7 122,-286.7 47,-286.7"/>
<text text-anchor="start" x="65.2089" y="-292.8" font-family="Helvetica,sans-Serif" font-size="11.00" fill="#000000">7,686 rows</text>
<polygon fill="#ffffff" stroke="transparent" points="122,-286.7 122,-305.7 214,-305.7 214,-286.7 122,-286.7"/>
<polygon fill="none" stroke="#000000" points="122,-286.7 122,-305.7 214,-305.7 214,-286.7 122,-286.7"/>
<text text-anchor="start" x="195.4053" y="-292.8" font-family="Helvetica,sans-Serif" font-size="11.00" fill="#000000">1 &gt;</text>
<polygon fill="none" stroke="#000000" stroke-width="2" points="9,-285.7 9,-483.7 215,-483.7 215,-285.7 9,-285.7"/>
</a>
</g>
</g>
<!-- global_SiteMaster&#45;&gt;global_MetaSite -->
<g id="edge6" class="edge">
<title>global_SiteMaster:w&#45;&gt;global_MetaSite:e</title>
<path fill="none" stroke="#000000" d="M250.7651,-223.6624C178.2706,-245.8492 311.7952,-448.7 214,-448.7"/>
<polygon fill="#000000" stroke="#000000" points="257.57,-222.7562 265.9753,-225.2685 261.535,-222.2281 265.5,-221.7 265.5,-221.7 265.5,-221.7 261.535,-222.2281 265.0247,-218.1315 257.57,-222.7562 257.57,-222.7562"/>
<ellipse fill="none" stroke="#000000" cx="254.398" cy="-223.1787" rx="3.2" ry="3.2"/>
</g>
<!-- global_rivID -->
<g id="node8" class="node">
<title>global_rivID</title>
<g id="a_node8"><a xlink:href="../../tables/global_rivID.html" xlink:title="global_rivID" target="_top">
<polygon fill="#ffffff" stroke="transparent" points="61.5,-202.2 61.5,-263.2 162.5,-263.2 162.5,-202.2 61.5,-202.2"/>
<polygon fill="#f5f5f5" stroke="transparent" points="62,-239.7 62,-262.7 163,-262.7 163,-239.7 62,-239.7"/>
<polygon fill="none" stroke="#000000" points="62,-239.7 62,-262.7 163,-262.7 163,-239.7 62,-239.7"/>
<text text-anchor="start" x="66.9716" y="-248.8" font-family="Helvetica,sans-Serif" font-weight="bold" font-size="11.00" fill="#000000">global_rivID</text>
<text text-anchor="start" x="128.5219" y="-247.8" font-family="Helvetica,sans-Serif" font-size="11.00" fill="#000000">[table]</text>
<polygon fill="none" stroke="#000000" points="62,-220.7 62,-239.7 163,-239.7 163,-220.7 62,-220.7"/>
<text text-anchor="start" x="65" y="-226.8" font-family="Helvetica,sans-Serif" font-size="11.00" fill="#000000">...</text>
<polygon fill="#ffffff" stroke="transparent" points="62,-201.7 62,-220.7 83,-220.7 83,-201.7 62,-201.7"/>
<polygon fill="none" stroke="#000000" points="62,-201.7 62,-220.7 83,-220.7 83,-201.7 62,-201.7"/>
<text text-anchor="start" x="65" y="-207.8" font-family="Helvetica,sans-Serif" font-size="11.00" fill="#000000"> &#160;</text>
<polygon fill="#ffffff" stroke="transparent" points="83,-201.7 83,-220.7 137,-220.7 137,-201.7 83,-201.7"/>
<polygon fill="none" stroke="#000000" points="83,-201.7 83,-220.7 137,-220.7 137,-201.7 83,-201.7"/>
<text text-anchor="start" x="89.3807" y="-207.8" font-family="Helvetica,sans-Serif" font-size="11.00" fill="#000000">219 rows</text>
<polygon fill="#ffffff" stroke="transparent" points="137,-201.7 137,-220.7 163,-220.7 163,-201.7 137,-201.7"/>
<polygon fill="none" stroke="#000000" points="137,-201.7 137,-220.7 163,-220.7 163,-201.7 137,-201.7"/>
<text text-anchor="start" x="144.4053" y="-207.8" font-family="Helvetica,sans-Serif" font-size="11.00" fill="#000000">1 &gt;</text>
</a>
</g>
</g>
<!-- global_SiteMaster&#45;&gt;global_rivID -->
<g id="edge7" class="edge">
<title>global_SiteMaster:w&#45;&gt;global_rivID:e</title>
<path fill="none" stroke="#000000" d="M250.7888,-200.7677C215.807,-206.1119 205.0896,-229.7 163,-229.7"/>
<polygon fill="#000000" stroke="#000000" points="257.521,-200.2792 265.7606,-203.2906 261.5105,-199.9896 265.5,-199.7 265.5,-199.7 265.5,-199.7 261.5105,-199.9896 265.2394,-196.1094 257.521,-200.2792 257.521,-200.2792"/>
<ellipse fill="none" stroke="#000000" cx="254.3294" cy="-200.5108" rx="3.2" ry="3.2"/>
</g>
<!-- global_SiteCode -->
<g id="node9" class="node">
<title>global_SiteCode</title>
<g id="a_node9"><a xlink:href="../../tables/global_SiteCode.html" xlink:title="global_SiteCode" target="_top">
<polygon fill="#ffffff" stroke="transparent" points="50.5,-38.2 50.5,-99.2 173.5,-99.2 173.5,-38.2 50.5,-38.2"/>
<polygon fill="#f5f5f5" stroke="transparent" points="51,-75.7 51,-98.7 174,-98.7 174,-75.7 51,-75.7"/>
<polygon fill="none" stroke="#000000" points="51,-75.7 51,-98.7 174,-98.7 174,-75.7 51,-75.7"/>
<text text-anchor="start" x="55.6548" y="-84.8" font-family="Helvetica,sans-Serif" font-weight="bold" font-size="11.00" fill="#000000">global_SiteCode</text>
<text text-anchor="start" x="139.5219" y="-83.8" font-family="Helvetica,sans-Serif" font-size="11.00" fill="#000000">[table]</text>
<polygon fill="none" stroke="#000000" points="51,-56.7 51,-75.7 174,-75.7 174,-56.7 51,-56.7"/>
<text text-anchor="start" x="54" y="-62.8" font-family="Helvetica,sans-Serif" font-size="11.00" fill="#000000">...</text>
<polygon fill="#ffffff" stroke="transparent" points="51,-37.7 51,-56.7 90,-56.7 90,-37.7 51,-37.7"/>
<polygon fill="none" stroke="#000000" points="51,-37.7 51,-56.7 90,-56.7 90,-37.7 51,-37.7"/>
<text text-anchor="start" x="54" y="-43.8" font-family="Helvetica,sans-Serif" font-size="11.00" fill="#000000">&lt; 1</text>
<polygon fill="#ffffff" stroke="transparent" points="90,-37.7 90,-56.7 143,-56.7 143,-37.7 90,-37.7"/>
<polygon fill="none" stroke="#000000" points="90,-37.7 90,-56.7 143,-56.7 143,-37.7 90,-37.7"/>
<text text-anchor="start" x="101.4956" y="-43.8" font-family="Helvetica,sans-Serif" font-size="11.00" fill="#000000">74 rows</text>
<polygon fill="#ffffff" stroke="transparent" points="143,-37.7 143,-56.7 174,-56.7 174,-37.7 143,-37.7"/>
<polygon fill="none" stroke="#000000" points="143,-37.7 143,-56.7 174,-56.7 174,-37.7 143,-37.7"/>
<text text-anchor="start" x="155.4053" y="-43.8" font-family="Helvetica,sans-Serif" font-size="11.00" fill="#000000">2 &gt;</text>
</a>
</g>
</g>
<!-- global_SiteMaster&#45;&gt;global_SiteCode -->
<g id="edge8" class="edge">
<title>global_SiteMaster:w&#45;&gt;global_SiteCode:e</title>
<path fill="none" stroke="#000000" d="M251.2123,-151.9909C239.2196,-143.9987 239.1517,-124.6656 224,-109.7 202.9396,-88.8984 203.6015,-65.7 174,-65.7"/>
<polygon fill="#000000" stroke="#000000" points="257.7567,-153.6898 264.5954,-159.1845 261.6283,-154.6949 265.5,-155.7 265.5,-155.7 265.5,-155.7 261.6283,-154.6949 266.4046,-152.2155 257.7567,-153.6898 257.7567,-153.6898"/>
<ellipse fill="none" stroke="#000000" cx="254.6593" cy="-152.8857" rx="3.2" ry="3.2"/>
</g>
<!-- crn_Sample -->
<g id="node3" class="node">
<title>crn_Sample</title>
<g id="a_node3"><a xlink:href="../../tables/crn_Sample.html" xlink:title="crn_Sample" target="_top">
<polygon fill="#ffffff" stroke="transparent" points="455.5,-298.2 455.5,-359.2 556.5,-359.2 556.5,-298.2 455.5,-298.2"/>
<polygon fill="#f5f5f5" stroke="transparent" points="456,-335.7 456,-358.7 557,-358.7 557,-335.7 456,-335.7"/>
<polygon fill="none" stroke="#000000" points="456,-335.7 456,-358.7 557,-358.7 557,-335.7 456,-335.7"/>
<text text-anchor="start" x="460.6625" y="-344.8" font-family="Helvetica,sans-Serif" font-weight="bold" font-size="11.00" fill="#000000">crn_Sample</text>
<text text-anchor="start" x="522.5219" y="-343.8" font-family="Helvetica,sans-Serif" font-size="11.00" fill="#000000">[table]</text>
<polygon fill="none" stroke="#000000" points="456,-316.7 456,-335.7 557,-335.7 557,-316.7 456,-316.7"/>
<text text-anchor="start" x="459" y="-322.8" font-family="Helvetica,sans-Serif" font-size="11.00" fill="#000000">...</text>
<polygon fill="#ffffff" stroke="transparent" points="456,-297.7 456,-316.7 477,-316.7 477,-297.7 456,-297.7"/>
<polygon fill="none" stroke="#000000" points="456,-297.7 456,-316.7 477,-316.7 477,-297.7 456,-297.7"/>
<text text-anchor="start" x="458.7027" y="-303.8" font-family="Helvetica,sans-Serif" font-size="11.00" fill="#000000">&lt; 3</text>
<polygon fill="#ffffff" stroke="transparent" points="477,-297.7 477,-316.7 536,-316.7 536,-297.7 477,-297.7"/>
<polygon fill="none" stroke="#000000" points="477,-297.7 477,-316.7 536,-316.7 536,-297.7 477,-297.7"/>
<text text-anchor="start" x="479.6045" y="-303.8" font-family="Helvetica,sans-Serif" font-size="11.00" fill="#000000">4,588 rows</text>
<polygon fill="#ffffff" stroke="transparent" points="536,-297.7 536,-316.7 557,-316.7 557,-297.7 536,-297.7"/>
<polygon fill="none" stroke="#000000" points="536,-297.7 536,-316.7 557,-316.7 557,-297.7 536,-297.7"/>
<text text-anchor="start" x="538.7026" y="-303.8" font-family="Helvetica,sans-Serif" font-size="11.00" fill="#000000">2 &gt;</text>
</a>
</g>
</g>
<!-- crn_Sample&#45;&gt;global_SiteMaster -->
<g id="edge2" class="edge">
<title>crn_Sample:w&#45;&gt;global_SiteMaster:e</title>
<path fill="none" stroke="#000000" d="M442.031,-321.9636C417.5938,-305.922 435.7235,-243.7 396.5,-243.7"/>
<polygon fill="#000000" stroke="#000000" points="448.2717,-323.6328 455.0698,-329.1777 452.1358,-324.6664 456,-325.7 456,-325.7 456,-325.7 452.1358,-324.6664 456.9302,-322.2223 448.2717,-323.6328 448.2717,-323.6328"/>
<ellipse fill="none" stroke="#000000" cx="445.1804" cy="-322.8059" rx="3.2" ry="3.2"/>
</g>
<!-- expage_Sample -->
<g id="node4" class="node">
<title>expage_Sample</title>
<g id="a_node4"><a xlink:href="../../tables/expage_Sample.html" xlink:title="expage_Sample" target="_top">
<polygon fill="#ffffff" stroke="transparent" points="445,-216.2 445,-277.2 567,-277.2 567,-216.2 445,-216.2"/>
<polygon fill="#f5f5f5" stroke="transparent" points="445,-253.7 445,-276.7 567,-276.7 567,-253.7 445,-253.7"/>
<polygon fill="none" stroke="#000000" points="445,-253.7 445,-276.7 567,-276.7 567,-253.7 445,-253.7"/>
<text text-anchor="start" x="449.7636" y="-262.8" font-family="Helvetica,sans-Serif" font-weight="bold" font-size="11.00" fill="#000000">expage_Sample</text>
<text text-anchor="start" x="532.5219" y="-261.8" font-family="Helvetica,sans-Serif" font-size="11.00" fill="#000000">[table]</text>
<polygon fill="none" stroke="#000000" points="445,-234.7 445,-253.7 567,-253.7 567,-234.7 445,-234.7"/>
<text text-anchor="start" x="448" y="-240.8" font-family="Helvetica,sans-Serif" font-size="11.00" fill="#000000">...</text>
<polygon fill="#ffffff" stroke="transparent" points="445,-215.7 445,-234.7 473,-234.7 473,-215.7 445,-215.7"/>
<polygon fill="none" stroke="#000000" points="445,-215.7 445,-234.7 473,-234.7 473,-215.7 445,-215.7"/>
<text text-anchor="start" x="448" y="-221.8" font-family="Helvetica,sans-Serif" font-size="11.00" fill="#000000">&lt; 2</text>
<polygon fill="#ffffff" stroke="transparent" points="473,-215.7 473,-234.7 542,-234.7 542,-215.7 473,-215.7"/>
<polygon fill="none" stroke="#000000" points="473,-215.7 473,-234.7 542,-234.7 542,-215.7 473,-215.7"/>
<text text-anchor="start" x="479.094" y="-221.8" font-family="Helvetica,sans-Serif" font-size="11.00" fill="#000000">15,805 rows</text>
<polygon fill="#ffffff" stroke="transparent" points="542,-215.7 542,-234.7 567,-234.7 567,-215.7 542,-215.7"/>
<polygon fill="none" stroke="#000000" points="542,-215.7 542,-234.7 567,-234.7 567,-215.7 542,-215.7"/>
<text text-anchor="start" x="548.4053" y="-221.8" font-family="Helvetica,sans-Serif" font-size="11.00" fill="#000000">1 &gt;</text>
</a>
</g>
</g>
<!-- expage_Sample&#45;&gt;global_SiteMaster -->
<g id="edge3" class="edge">
<title>expage_Sample:w&#45;&gt;global_SiteMaster:e</title>
<path fill="none" stroke="#000000" d="M430.2829,-243.7C419.2886,-243.7 412.1615,-243.7 396.5,-243.7"/>
<polygon fill="#000000" stroke="#000000" points="437,-243.7001 445,-247.3 441,-243.7 445,-243.7 445,-243.7 445,-243.7 441,-243.7 445,-240.1 437,-243.7001 437,-243.7001"/>
<ellipse fill="none" stroke="#000000" cx="433.8" cy="-243.7001" rx="3.2" ry="3.2"/>
</g>
<!-- fos_Sample -->
<g id="node5" class="node">
<title>fos_Sample</title>
<g id="a_node5"><a xlink:href="../../tables/fos_Sample.html" xlink:title="fos_Sample" target="_top">
<polygon fill="#ffffff" stroke="transparent" points="455.5,-134.2 455.5,-195.2 556.5,-195.2 556.5,-134.2 455.5,-134.2"/>
<polygon fill="#f5f5f5" stroke="transparent" points="456,-171.7 456,-194.7 557,-194.7 557,-171.7 456,-171.7"/>
<polygon fill="none" stroke="#000000" points="456,-171.7 456,-194.7 557,-194.7 557,-171.7 456,-171.7"/>
<text text-anchor="start" x="460.965" y="-180.8" font-family="Helvetica,sans-Serif" font-weight="bold" font-size="11.00" fill="#000000">fos_Sample</text>
<text text-anchor="start" x="522.5219" y="-179.8" font-family="Helvetica,sans-Serif" font-size="11.00" fill="#000000">[table]</text>
<polygon fill="none" stroke="#000000" points="456,-152.7 456,-171.7 557,-171.7 557,-152.7 456,-152.7"/>
<text text-anchor="start" x="459" y="-158.8" font-family="Helvetica,sans-Serif" font-size="11.00" fill="#000000">...</text>
<polygon fill="#ffffff" stroke="transparent" points="456,-133.7 456,-152.7 477,-152.7 477,-133.7 456,-133.7"/>
<polygon fill="none" stroke="#000000" points="456,-133.7 456,-152.7 477,-152.7 477,-133.7 456,-133.7"/>
<text text-anchor="start" x="458.7027" y="-139.8" font-family="Helvetica,sans-Serif" font-size="11.00" fill="#000000">&lt; 1</text>
<polygon fill="#ffffff" stroke="transparent" points="477,-133.7 477,-152.7 536,-152.7 536,-133.7 477,-133.7"/>
<polygon fill="none" stroke="#000000" points="477,-133.7 477,-152.7 536,-152.7 536,-133.7 477,-133.7"/>
<text text-anchor="start" x="479.6045" y="-139.8" font-family="Helvetica,sans-Serif" font-size="11.00" fill="#000000">2,235 rows</text>
<polygon fill="#ffffff" stroke="transparent" points="536,-133.7 536,-152.7 557,-152.7 557,-133.7 536,-133.7"/>
<polygon fill="none" stroke="#000000" points="536,-133.7 536,-152.7 557,-152.7 557,-133.7 536,-133.7"/>
<text text-anchor="start" x="538.7026" y="-139.8" font-family="Helvetica,sans-Serif" font-size="11.00" fill="#000000">1 &gt;</text>
</a>
</g>
</g>
<!-- fos_Sample&#45;&gt;global_SiteMaster -->
<g id="edge4" class="edge">
<title>fos_Sample:w&#45;&gt;global_SiteMaster:e</title>
<path fill="none" stroke="#000000" d="M442.031,-165.4364C417.5938,-181.478 435.7235,-243.7 396.5,-243.7"/>
<polygon fill="#000000" stroke="#000000" points="448.2717,-163.7672 456.9302,-165.1777 452.1358,-162.7336 456,-161.7 456,-161.7 456,-161.7 452.1358,-162.7336 455.0698,-158.2223 448.2717,-163.7672 448.2717,-163.7672"/>
<ellipse fill="none" stroke="#000000" cx="445.1804" cy="-164.5941" rx="3.2" ry="3.2"/>
</g>
<!-- sed_Sample -->
<g id="node10" class="node">
<title>sed_Sample</title>
<g id="a_node10"><a xlink:href="../../tables/sed_Sample.html" xlink:title="sed_Sample" target="_top">
<polygon fill="#ffffff" stroke="transparent" points="454,-52.2 454,-113.2 558,-113.2 558,-52.2 454,-52.2"/>
<polygon fill="#f5f5f5" stroke="transparent" points="454,-89.7 454,-112.7 558,-112.7 558,-89.7 454,-89.7"/>
<polygon fill="none" stroke="#000000" points="454,-89.7 454,-112.7 558,-112.7 558,-89.7 454,-89.7"/>
<text text-anchor="start" x="458.936" y="-98.8" font-family="Helvetica,sans-Serif" font-weight="bold" font-size="11.00" fill="#000000">sed_Sample</text>
<text text-anchor="start" x="523.5219" y="-97.8" font-family="Helvetica,sans-Serif" font-size="11.00" fill="#000000">[table]</text>
<polygon fill="none" stroke="#000000" points="454,-70.7 454,-89.7 558,-89.7 558,-70.7 454,-70.7"/>
<text text-anchor="start" x="457" y="-76.8" font-family="Helvetica,sans-Serif" font-size="11.00" fill="#000000">...</text>
<polygon fill="#ffffff" stroke="transparent" points="454,-51.7 454,-70.7 476,-70.7 476,-51.7 454,-51.7"/>
<polygon fill="none" stroke="#000000" points="454,-51.7 454,-70.7 476,-70.7 476,-51.7 454,-51.7"/>
<text text-anchor="start" x="457" y="-57.8" font-family="Helvetica,sans-Serif" font-size="11.00" fill="#000000">&lt; 9</text>
<polygon fill="#ffffff" stroke="transparent" points="476,-51.7 476,-70.7 536,-70.7 536,-51.7 476,-51.7"/>
<polygon fill="none" stroke="#000000" points="476,-51.7 476,-70.7 536,-70.7 536,-51.7 476,-51.7"/>
<text text-anchor="start" x="479.2089" y="-57.8" font-family="Helvetica,sans-Serif" font-size="11.00" fill="#000000">3,181 rows</text>
<polygon fill="#ffffff" stroke="transparent" points="536,-51.7 536,-70.7 558,-70.7 558,-51.7 536,-51.7"/>
<polygon fill="none" stroke="#000000" points="536,-51.7 536,-70.7 558,-70.7 558,-51.7 536,-51.7"/>
<text text-anchor="start" x="539.4053" y="-57.8" font-family="Helvetica,sans-Serif" font-size="11.00" fill="#000000">2 &gt;</text>
</a>
</g>
</g>
<!-- sed_Sample&#45;&gt;global_SiteMaster -->
<g id="edge9" class="edge">
<title>sed_Sample:w&#45;&gt;global_SiteMaster:e</title>
<path fill="none" stroke="#000000" d="M439.5388,-82.276C390.1964,-103.1404 468.0065,-243.7 396.5,-243.7"/>
<polygon fill="#000000" stroke="#000000" points="446.124,-81.103 454.6314,-83.2442 450.062,-80.4015 454,-79.7 454,-79.7 454,-79.7 450.062,-80.4015 453.3686,-76.1558 446.124,-81.103 446.124,-81.103"/>
<ellipse fill="none" stroke="#000000" cx="442.9736" cy="-81.6643" rx="3.2" ry="3.2"/>
</g>
</g>
</svg>
