<?xml version="1.0" encoding="UTF-8" standalone="no"?>
<!DOCTYPE svg PUBLIC "-//W3C//DTD SVG 1.1//EN"
 "http://www.w3.org/Graphics/SVG/1.1/DTD/svg11.dtd">
<!-- Generated by graphviz version 2.40.1 (20161225.0304)
 -->
<!-- Title: oneDegreeRelationshipsDiagramImplied Pages: 1 -->
<svg width="449pt" height="315pt"
 viewBox="0.00 0.00 448.83 314.70" xmlns="http://www.w3.org/2000/svg" xmlns:xlink="http://www.w3.org/1999/xlink">
<g id="graph0" class="graph" transform="scale(1 1) rotate(0) translate(4 310.7)">
<title>oneDegreeRelationshipsDiagramImplied</title>
<polygon fill="#ffffff" stroke="transparent" points="-4,4 -4,-310.7 444.8253,-310.7 444.8253,4 -4,4"/>
<text text-anchor="middle" x="72.4936" y="-7.3" font-family="Helvetica,sans-Serif" font-size="11.00" fill="#000000">Generated by SchemaSpy</text>
<!-- global_SiteCode -->
<g id="node1" class="node">
<title>global_SiteCode</title>
<g id="a_node1"><a xlink:href="../../tables/global_SiteCode.html" xlink:title="global_SiteCode" target="_top">
<polygon fill="#ffffff" stroke="transparent" points="31.8253,-38.2 31.8253,-216.2 242.8253,-216.2 242.8253,-38.2 31.8253,-38.2"/>
<polygon fill="#f5f5f5" stroke="transparent" points="34.3253,-191.2 34.3253,-214.2 241.3253,-214.2 241.3253,-191.2 34.3253,-191.2"/>
<polygon fill="none" stroke="#000000" points="34.3253,-191.2 34.3253,-214.2 241.3253,-214.2 241.3253,-191.2 34.3253,-191.2"/>
<text text-anchor="start" x="39.3253" y="-199.8" font-family="Helvetica,sans-Serif" font-weight="bold" font-size="11.00" fill="#000000">global_SiteCode</text>
<text text-anchor="start" x="206.369" y="-199.3" font-family="Helvetica,sans-Serif" font-size="11.00" fill="#000000">[table]</text>
<polygon fill="none" stroke="#000000" points="34.3253,-169.2 34.3253,-191.2 149.3253,-191.2 149.3253,-169.2 34.3253,-169.2"/>
<image xlink:href="../../images/primaryKeys.png" width="11px" height="12px" preserveAspectRatio="xMinYMin meet" x="39.3253" y="-186.2"/>
<text text-anchor="start" x="54.3253" y="-176.3" font-family="Helvetica,sans-Serif" font-size="11.00" fill="#000000">SITECODEID</text>
<polygon fill="none" stroke="#000000" points="149.3253,-169.2 149.3253,-191.2 241.3253,-191.2 241.3253,-169.2 149.3253,-169.2"/>
<text text-anchor="start" x="152.3253" y="-176.9" font-family="Helvetica,sans-Serif" font-size="11.00" fill="#000000">smallserial[5]</text>
<polygon fill="none" stroke="#000000" points="34.3253,-147.2 34.3253,-169.2 149.3253,-169.2 149.3253,-147.2 34.3253,-147.2"/>
<text text-anchor="start" x="54.3253" y="-154.3" font-family="Helvetica,sans-Serif" font-size="11.00" fill="#000000">SITECODE</text>
<polygon fill="none" stroke="#000000" points="149.3253,-147.2 149.3253,-169.2 241.3253,-169.2 241.3253,-147.2 149.3253,-147.2"/>
<text text-anchor="start" x="152.3253" y="-154.9" font-family="Helvetica,sans-Serif" font-size="11.00" fill="#000000">text[2147483647]</text>
<polygon fill="none" stroke="#000000" points="34.3253,-125.2 34.3253,-147.2 149.3253,-147.2 149.3253,-125.2 34.3253,-125.2"/>
<text text-anchor="start" x="54.3253" y="-132.3" font-family="Helvetica,sans-Serif" font-size="11.00" fill="#000000">CREATED_AT</text>
<polygon fill="none" stroke="#000000" points="149.3253,-125.2 149.3253,-147.2 241.3253,-147.2 241.3253,-125.2 149.3253,-125.2"/>
<text text-anchor="start" x="151.9276" y="-132.9" font-family="Helvetica,sans-Serif" font-size="11.00" fill="#000000">timestamptz[35,6]</text>
<polygon fill="none" stroke="#000000" points="34.3253,-103.2 34.3253,-125.2 149.3253,-125.2 149.3253,-103.2 34.3253,-103.2"/>
<text text-anchor="start" x="54.3253" y="-110.3" font-family="Helvetica,sans-Serif" font-size="11.00" fill="#000000">UPDATED_AT</text>
<polygon fill="none" stroke="#000000" points="149.3253,-103.2 149.3253,-125.2 241.3253,-125.2 241.3253,-103.2 149.3253,-103.2"/>
<text text-anchor="start" x="151.9276" y="-110.9" font-family="Helvetica,sans-Serif" font-size="11.00" fill="#000000">timestamptz[35,6]</text>
<polygon fill="none" stroke="#000000" points="34.3253,-81.2 34.3253,-103.2 149.3253,-103.2 149.3253,-81.2 34.3253,-81.2"/>
<image xlink:href="../../images/foreignKeys.png" width="11px" height="12px" preserveAspectRatio="xMinYMin meet" x="39.3253" y="-98.2"/>
<text text-anchor="start" x="54.3253" y="-88.3" font-family="Helvetica,sans-Serif" font-size="11.00" fill="#000000">PARENTID</text>
<polygon fill="none" stroke="#000000" points="149.3253,-81.2 149.3253,-103.2 241.3253,-103.2 241.3253,-81.2 149.3253,-81.2"/>
<text text-anchor="start" x="152.3253" y="-88.9" font-family="Helvetica,sans-Serif" font-size="11.00" fill="#000000">int2[5]</text>
<polygon fill="none" stroke="#000000" points="34.3253,-59.2 34.3253,-81.2 149.3253,-81.2 149.3253,-59.2 34.3253,-59.2"/>
<text text-anchor="start" x="54.3253" y="-66.3" font-family="Helvetica,sans-Serif" font-size="11.00" fill="#000000">SITEDESCR</text>
<polygon fill="none" stroke="#000000" points="149.3253,-59.2 149.3253,-81.2 241.3253,-81.2 241.3253,-59.2 149.3253,-59.2"/>
<text text-anchor="start" x="152.3253" y="-66.9" font-family="Helvetica,sans-Serif" font-size="11.00" fill="#000000">text[2147483647]</text>
<polygon fill="#ffffff" stroke="transparent" points="34.3253,-40.2 34.3253,-59.2 80.3253,-59.2 80.3253,-40.2 34.3253,-40.2"/>
<polygon fill="none" stroke="#000000" points="34.3253,-40.2 34.3253,-59.2 80.3253,-59.2 80.3253,-40.2 34.3253,-40.2"/>
<text text-anchor="start" x="37.3253" y="-46.3" font-family="Helvetica,sans-Serif" font-size="11.00" fill="#000000">&lt; 1</text>
<polygon fill="#ffffff" stroke="transparent" points="80.3253,-40.2 80.3253,-59.2 149.3253,-59.2 149.3253,-40.2 80.3253,-40.2"/>
<polygon fill="none" stroke="#000000" points="80.3253,-40.2 80.3253,-59.2 149.3253,-59.2 149.3253,-40.2 80.3253,-40.2"/>
<text text-anchor="start" x="107.8209" y="-46.3" font-family="Helvetica,sans-Serif" font-size="11.00" fill="#000000">74 rows</text>
<polygon fill="#ffffff" stroke="transparent" points="149.3253,-40.2 149.3253,-59.2 241.3253,-59.2 241.3253,-40.2 149.3253,-40.2"/>
<polygon fill="none" stroke="#000000" points="149.3253,-40.2 149.3253,-59.2 241.3253,-59.2 241.3253,-40.2 149.3253,-40.2"/>
<text text-anchor="start" x="222.7306" y="-46.3" font-family="Helvetica,sans-Serif" font-size="11.00" fill="#000000">2 &gt;</text>
<polygon fill="none" stroke="#000000" stroke-width="2" points="32.8253,-39.2 32.8253,-215.2 241.8253,-215.2 241.8253,-39.2 32.8253,-39.2"/>
</a>
</g>
</g>
<!-- global_SiteCode&#45;&gt;global_SiteCode -->
<g id="edge1" class="edge">
<title>global_SiteCode:w&#45;&gt;global_SiteCode:e</title>
<path fill="none" stroke="#000000" d="M22.8243,-101.1575C-20.7961,-142.6362 -9.8368,-233.2 137.8253,-233.2 297.3253,-233.2 297.3253,-215.5333 241.3253,-180.2"/>
<polygon fill="#000000" stroke="#000000" points="28.0137,-97.1157 36.5374,-95.0402 31.1695,-94.6579 34.3253,-92.2 34.3253,-92.2 34.3253,-92.2 31.1695,-94.6579 32.1132,-89.3598 28.0137,-97.1157 28.0137,-97.1157"/>
<ellipse fill="none" stroke="#000000" cx="25.4891" cy="-99.082" rx="3.2" ry="3.2"/>
</g>
<!-- global_SiteMaster -->
<g id="node2" class="node">
<title>global_SiteMaster</title>
<g id="a_node2"><a xlink:href="../../tables/global_SiteMaster.html" xlink:title="global_SiteMaster" target="_top">
<polygon fill="#ffffff" stroke="transparent" points="291.8253,-131.7 291.8253,-302.7 432.8253,-302.7 432.8253,-131.7 291.8253,-131.7"/>
<polygon fill="#f5f5f5" stroke="transparent" points="292.3253,-279.2 292.3253,-302.2 433.3253,-302.2 433.3253,-279.2 292.3253,-279.2"/>
<polygon fill="none" stroke="#000000" points="292.3253,-279.2 292.3253,-302.2 433.3253,-302.2 433.3253,-279.2 292.3253,-279.2"/>
<text text-anchor="start" x="297.3253" y="-287.8" font-family="Helvetica,sans-Serif" font-weight="bold" font-size="11.00" fill="#000000">global_SiteMaster</text>
<text text-anchor="start" x="398.8472" y="-287.3" font-family="Helvetica,sans-Serif" font-size="11.00" fill="#000000">[table]</text>
<polygon fill="none" stroke="#000000" points="292.3253,-257.2 292.3253,-279.2 433.3253,-279.2 433.3253,-257.2 292.3253,-257.2"/>
<image xlink:href="../../images/primaryKeys.png" width="11px" height="12px" preserveAspectRatio="xMinYMin meet" x="297.325" y="-274.2"/>
<text text-anchor="start" x="321.3253" y="-264.3" font-family="Helvetica,sans-Serif" font-size="11.00" fill="#000000">SITEID</text>
<polygon fill="none" stroke="#000000" points="292.3253,-235.2 292.3253,-257.2 433.3253,-257.2 433.3253,-235.2 292.3253,-235.2"/>
<image xlink:href="../../images/foreignKeys.png" width="11px" height="12px" preserveAspectRatio="xMinYMin meet" x="297.325" y="-252.2"/>
<text text-anchor="start" x="321.3253" y="-242.3" font-family="Helvetica,sans-Serif" font-size="11.00" fill="#000000">METASITEID</text>
<polygon fill="none" stroke="#000000" points="292.3253,-213.2 292.3253,-235.2 433.3253,-235.2 433.3253,-213.2 292.3253,-213.2"/>
<image xlink:href="../../images/foreignKeys.png" width="11px" height="12px" preserveAspectRatio="xMinYMin meet" x="297.325" y="-230.2"/>
<text text-anchor="start" x="321.3253" y="-220.3" font-family="Helvetica,sans-Serif" font-size="11.00" fill="#000000">RIVID</text>
<polygon fill="none" stroke="#000000" points="292.3253,-191.2 292.3253,-213.2 433.3253,-213.2 433.3253,-191.2 292.3253,-191.2"/>
<image xlink:href="../../images/foreignKeys.png" width="11px" height="12px" preserveAspectRatio="xMinYMin meet" x="297.325" y="-208.2"/>
<text text-anchor="start" x="321.3253" y="-198.3" font-family="Helvetica,sans-Serif" font-size="11.00" fill="#000000">IBRAID</text>
<polygon fill="none" stroke="#000000" points="292.3253,-169.2 292.3253,-191.2 433.3253,-191.2 433.3253,-169.2 292.3253,-169.2"/>
<image xlink:href="../../images/foreignKeys.png" width="11px" height="12px" preserveAspectRatio="xMinYMin meet" x="297.325" y="-186.2"/>
<text text-anchor="start" x="321.3253" y="-176.3" font-family="Helvetica,sans-Serif" font-size="11.00" fill="#000000">SITECODEID</text>
<polygon fill="none" stroke="#000000" points="292.3253,-150.2 292.3253,-169.2 433.3253,-169.2 433.3253,-150.2 292.3253,-150.2"/>
<text text-anchor="start" x="295.3253" y="-156.3" font-family="Helvetica,sans-Serif" font-size="11.00" fill="#000000">...</text>
<polygon fill="#ffffff" stroke="transparent" points="292.3253,-131.2 292.3253,-150.2 330.3253,-150.2 330.3253,-131.2 292.3253,-131.2"/>
<polygon fill="none" stroke="#000000" points="292.3253,-131.2 292.3253,-150.2 330.3253,-150.2 330.3253,-131.2 292.3253,-131.2"/>
<text text-anchor="start" x="295.3253" y="-137.3" font-family="Helvetica,sans-Serif" font-size="11.00" fill="#000000">&lt; 4</text>
<polygon fill="#ffffff" stroke="transparent" points="330.3253,-131.2 330.3253,-150.2 403.3253,-150.2 403.3253,-131.2 330.3253,-131.2"/>
<polygon fill="none" stroke="#000000" points="330.3253,-131.2 330.3253,-150.2 403.3253,-150.2 403.3253,-131.2 330.3253,-131.2"/>
<text text-anchor="start" x="340.4193" y="-137.3" font-family="Helvetica,sans-Serif" font-size="11.00" fill="#000000">23.245 rows</text>
<polygon fill="#ffffff" stroke="transparent" points="403.3253,-131.2 403.3253,-150.2 433.3253,-150.2 433.3253,-131.2 403.3253,-131.2"/>
<polygon fill="none" stroke="#000000" points="403.3253,-131.2 403.3253,-150.2 433.3253,-150.2 433.3253,-131.2 403.3253,-131.2"/>
<text text-anchor="start" x="414.7306" y="-137.3" font-family="Helvetica,sans-Serif" font-size="11.00" fill="#000000">5 &gt;</text>
</a>
</g>
</g>
<!-- global_SiteMaster&#45;&gt;global_SiteCode -->
<g id="edge2" class="edge">
<title>global_SiteMaster:w&#45;&gt;global_SiteCode:e</title>
<path fill="none" stroke="#000000" d="M277.6013,-180.2C265.6068,-180.2 258.1482,-180.2 241.3253,-180.2"/>
<polygon fill="#000000" stroke="#000000" points="284.3253,-180.2001 292.3253,-183.8 288.3253,-180.2 292.3253,-180.2 292.3253,-180.2 292.3253,-180.2 288.3253,-180.2 292.3253,-176.6 284.3253,-180.2001 284.3253,-180.2001"/>
<ellipse fill="none" stroke="#000000" cx="281.1253" cy="-180.2001" rx="3.2" ry="3.2"/>
</g>
</g>
</svg>
