<?xml version="1.0" encoding="UTF-8" standalone="no"?>
<!DOCTYPE svg PUBLIC "-//W3C//DTD SVG 1.1//EN"
 "http://www.w3.org/Graphics/SVG/1.1/DTD/svg11.dtd">
<!-- Generated by graphviz version 2.40.1 (20161225.0304)
 -->
<!-- Title: oneDegreeRelationshipsDiagram Pages: 1 -->
<svg width="402pt" height="488pt"
 viewBox="0.00 0.00 402.00 487.70" xmlns="http://www.w3.org/2000/svg" xmlns:xlink="http://www.w3.org/1999/xlink">
<g id="graph0" class="graph" transform="scale(1 1) rotate(0) translate(4 483.7)">
<title>oneDegreeRelationshipsDiagram</title>
<polygon fill="#ffffff" stroke="transparent" points="-4,4 -4,-483.7 398,-483.7 398,4 -4,4"/>
<text text-anchor="middle" x="72.4936" y="-7.3" font-family="Helvetica,sans-Serif" font-size="11.00" fill="#000000">Generated by SchemaSpy</text>
<!-- global_RefCore -->
<g id="node1" class="node">
<title>global_RefCore</title>
<g id="a_node1"><a xlink:href="../../tables/global_RefCore.html" xlink:title="global_RefCore" target="_top">
<polygon fill="#ffffff" stroke="transparent" points="259,-326.7 259,-475.7 386,-475.7 386,-326.7 259,-326.7"/>
<polygon fill="#f5f5f5" stroke="transparent" points="259.5,-452.2 259.5,-475.2 386.5,-475.2 386.5,-452.2 259.5,-452.2"/>
<polygon fill="none" stroke="#000000" points="259.5,-452.2 259.5,-475.2 386.5,-475.2 386.5,-452.2 259.5,-452.2"/>
<text text-anchor="start" x="264.5" y="-460.8" font-family="Helvetica,sans-Serif" font-weight="bold" font-size="11.00" fill="#000000">global_RefCore</text>
<text text-anchor="start" x="352.0219" y="-460.3" font-family="Helvetica,sans-Serif" font-size="11.00" fill="#000000">[table]</text>
<polygon fill="none" stroke="#000000" points="259.5,-430.2 259.5,-452.2 386.5,-452.2 386.5,-430.2 259.5,-430.2"/>
<image xlink:href="../../images/primaryKeys.png" width="11px" height="12px" preserveAspectRatio="xMinYMin meet" x="264.5" y="-447.2"/>
<text text-anchor="start" x="288.5" y="-437.3" font-family="Helvetica,sans-Serif" font-size="11.00" fill="#000000">REFDBID</text>
<polygon fill="none" stroke="#000000" points="259.5,-408.2 259.5,-430.2 386.5,-430.2 386.5,-408.2 259.5,-408.2"/>
<image xlink:href="../../images/foreignKeys.png" width="11px" height="12px" preserveAspectRatio="xMinYMin meet" x="264.5" y="-425.2"/>
<text text-anchor="start" x="288.5" y="-415.3" font-family="Helvetica,sans-Serif" font-size="11.00" fill="#000000">OAID</text>
<polygon fill="none" stroke="#000000" points="259.5,-386.2 259.5,-408.2 386.5,-408.2 386.5,-386.2 259.5,-386.2"/>
<image xlink:href="../../images/foreignKeys.png" width="11px" height="12px" preserveAspectRatio="xMinYMin meet" x="264.5" y="-403.2"/>
<text text-anchor="start" x="288.5" y="-393.3" font-family="Helvetica,sans-Serif" font-size="11.00" fill="#000000">PUBTYPEID</text>
<polygon fill="none" stroke="#000000" points="259.5,-364.2 259.5,-386.2 386.5,-386.2 386.5,-364.2 259.5,-364.2"/>
<image xlink:href="../../images/foreignKeys.png" width="11px" height="12px" preserveAspectRatio="xMinYMin meet" x="264.5" y="-381.2"/>
<text text-anchor="start" x="288.5" y="-371.3" font-family="Helvetica,sans-Serif" font-size="11.00" fill="#000000">JOURNALID</text>
<polygon fill="none" stroke="#000000" points="259.5,-345.2 259.5,-364.2 386.5,-364.2 386.5,-345.2 259.5,-345.2"/>
<text text-anchor="start" x="262.5" y="-351.3" font-family="Helvetica,sans-Serif" font-size="11.00" fill="#000000">...</text>
<polygon fill="#ffffff" stroke="transparent" points="259.5,-326.2 259.5,-345.2 290.5,-345.2 290.5,-326.2 259.5,-326.2"/>
<polygon fill="none" stroke="#000000" points="259.5,-326.2 259.5,-345.2 290.5,-345.2 290.5,-326.2 259.5,-326.2"/>
<text text-anchor="start" x="262.5" y="-332.3" font-family="Helvetica,sans-Serif" font-size="11.00" fill="#000000">&lt; 5</text>
<polygon fill="#ffffff" stroke="transparent" points="290.5,-326.2 290.5,-345.2 354.5,-345.2 354.5,-326.2 290.5,-326.2"/>
<polygon fill="none" stroke="#000000" points="290.5,-326.2 290.5,-345.2 354.5,-345.2 354.5,-326.2 290.5,-326.2"/>
<text text-anchor="start" x="297.7089" y="-332.3" font-family="Helvetica,sans-Serif" font-size="11.00" fill="#000000">3.947 rows</text>
<polygon fill="#ffffff" stroke="transparent" points="354.5,-326.2 354.5,-345.2 386.5,-345.2 386.5,-326.2 354.5,-326.2"/>
<polygon fill="none" stroke="#000000" points="354.5,-326.2 354.5,-345.2 386.5,-345.2 386.5,-326.2 354.5,-326.2"/>
<text text-anchor="start" x="361.7904" y="-332.3" font-family="Helvetica,sans-Serif" font-size="11.00" fill="#000000">37 &gt;</text>
</a>
</g>
</g>
<!-- global_Author -->
<g id="node2" class="node">
<title>global_Author</title>
<g id="a_node2"><a xlink:href="../../tables/global_Author.html" xlink:title="global_Author" target="_top">
<polygon fill="#ffffff" stroke="transparent" points="8,-38.2 8,-348.2 210,-348.2 210,-38.2 8,-38.2"/>
<polygon fill="#f5f5f5" stroke="transparent" points="10,-323.2 10,-346.2 208,-346.2 208,-323.2 10,-323.2"/>
<polygon fill="none" stroke="#000000" points="10,-323.2 10,-346.2 208,-346.2 208,-323.2 10,-323.2"/>
<text text-anchor="start" x="15" y="-331.8" font-family="Helvetica,sans-Serif" font-weight="bold" font-size="11.00" fill="#000000">global_Author</text>
<text text-anchor="start" x="173.0437" y="-331.3" font-family="Helvetica,sans-Serif" font-size="11.00" fill="#000000">[table]</text>
<polygon fill="none" stroke="#000000" points="10,-301.2 10,-323.2 116,-323.2 116,-301.2 10,-301.2"/>
<image xlink:href="../../images/primaryKeys.png" width="11px" height="12px" preserveAspectRatio="xMinYMin meet" x="15" y="-318.2"/>
<text text-anchor="start" x="30" y="-308.3" font-family="Helvetica,sans-Serif" font-size="11.00" fill="#000000">OAID</text>
<polygon fill="none" stroke="#000000" points="116,-301.2 116,-323.2 208,-323.2 208,-301.2 116,-301.2"/>
<text text-anchor="start" x="119" y="-308.9" font-family="Helvetica,sans-Serif" font-size="11.00" fill="#000000">varchar[11]</text>
<polygon fill="none" stroke="#000000" points="10,-279.2 10,-301.2 116,-301.2 116,-279.2 10,-279.2"/>
<text text-anchor="start" x="30" y="-286.3" font-family="Helvetica,sans-Serif" font-size="11.00" fill="#000000">AUTH</text>
<polygon fill="none" stroke="#000000" points="116,-279.2 116,-301.2 208,-301.2 208,-279.2 116,-279.2"/>
<text text-anchor="start" x="119" y="-286.9" font-family="Helvetica,sans-Serif" font-size="11.00" fill="#000000">text[2147483647]</text>
<polygon fill="none" stroke="#000000" points="10,-257.2 10,-279.2 116,-279.2 116,-257.2 10,-257.2"/>
<text text-anchor="start" x="30" y="-264.3" font-family="Helvetica,sans-Serif" font-size="11.00" fill="#000000">FORENAME</text>
<polygon fill="none" stroke="#000000" points="116,-257.2 116,-279.2 208,-279.2 208,-257.2 116,-257.2"/>
<text text-anchor="start" x="119" y="-264.9" font-family="Helvetica,sans-Serif" font-size="11.00" fill="#000000">text[2147483647]</text>
<polygon fill="none" stroke="#000000" points="10,-235.2 10,-257.2 116,-257.2 116,-235.2 10,-235.2"/>
<text text-anchor="start" x="30" y="-242.3" font-family="Helvetica,sans-Serif" font-size="11.00" fill="#000000">INITIALS</text>
<polygon fill="none" stroke="#000000" points="116,-235.2 116,-257.2 208,-257.2 208,-235.2 116,-235.2"/>
<text text-anchor="start" x="119" y="-242.9" font-family="Helvetica,sans-Serif" font-size="11.00" fill="#000000">text[2147483647]</text>
<polygon fill="none" stroke="#000000" points="10,-213.2 10,-235.2 116,-235.2 116,-213.2 10,-213.2"/>
<text text-anchor="start" x="30" y="-220.3" font-family="Helvetica,sans-Serif" font-size="11.00" fill="#000000">ORCID</text>
<polygon fill="none" stroke="#000000" points="116,-213.2 116,-235.2 208,-235.2 208,-213.2 116,-213.2"/>
<text text-anchor="start" x="119" y="-220.9" font-family="Helvetica,sans-Serif" font-size="11.00" fill="#000000">varchar[19]</text>
<polygon fill="none" stroke="#000000" points="10,-191.2 10,-213.2 116,-213.2 116,-191.2 10,-191.2"/>
<text text-anchor="start" x="30" y="-198.3" font-family="Helvetica,sans-Serif" font-size="11.00" fill="#000000">SCOPUSID</text>
<polygon fill="none" stroke="#000000" points="116,-191.2 116,-213.2 208,-213.2 208,-191.2 116,-191.2"/>
<text text-anchor="start" x="119" y="-198.9" font-family="Helvetica,sans-Serif" font-size="11.00" fill="#000000">text[2147483647]</text>
<polygon fill="none" stroke="#000000" points="10,-169.2 10,-191.2 116,-191.2 116,-169.2 10,-169.2"/>
<text text-anchor="start" x="30" y="-176.3" font-family="Helvetica,sans-Serif" font-size="11.00" fill="#000000">WSCC_RESID</text>
<polygon fill="none" stroke="#000000" points="116,-169.2 116,-191.2 208,-191.2 208,-169.2 116,-169.2"/>
<text text-anchor="start" x="119" y="-176.9" font-family="Helvetica,sans-Serif" font-size="11.00" fill="#000000">text[2147483647]</text>
<polygon fill="none" stroke="#000000" points="10,-147.2 10,-169.2 116,-169.2 116,-147.2 10,-147.2"/>
<text text-anchor="start" x="30" y="-154.3" font-family="Helvetica,sans-Serif" font-size="11.00" fill="#000000">AUTH_COMMT</text>
<polygon fill="none" stroke="#000000" points="116,-147.2 116,-169.2 208,-169.2 208,-147.2 116,-147.2"/>
<text text-anchor="start" x="119" y="-154.9" font-family="Helvetica,sans-Serif" font-size="11.00" fill="#000000">text[2147483647]</text>
<polygon fill="none" stroke="#000000" points="10,-125.2 10,-147.2 116,-147.2 116,-125.2 10,-125.2"/>
<text text-anchor="start" x="30" y="-132.3" font-family="Helvetica,sans-Serif" font-size="11.00" fill="#000000">CREATED_AT</text>
<polygon fill="none" stroke="#000000" points="116,-125.2 116,-147.2 208,-147.2 208,-125.2 116,-125.2"/>
<text text-anchor="start" x="118.6023" y="-132.9" font-family="Helvetica,sans-Serif" font-size="11.00" fill="#000000">timestamptz[35,6]</text>
<polygon fill="none" stroke="#000000" points="10,-103.2 10,-125.2 116,-125.2 116,-103.2 10,-103.2"/>
<text text-anchor="start" x="30" y="-110.3" font-family="Helvetica,sans-Serif" font-size="11.00" fill="#000000">UPDATED_AT</text>
<polygon fill="none" stroke="#000000" points="116,-103.2 116,-125.2 208,-125.2 208,-103.2 116,-103.2"/>
<text text-anchor="start" x="118.6023" y="-110.9" font-family="Helvetica,sans-Serif" font-size="11.00" fill="#000000">timestamptz[35,6]</text>
<polygon fill="none" stroke="#000000" points="10,-81.2 10,-103.2 116,-103.2 116,-81.2 10,-81.2"/>
<text text-anchor="start" x="30" y="-88.3" font-family="Helvetica,sans-Serif" font-size="11.00" fill="#000000">AUTH_URL</text>
<polygon fill="none" stroke="#000000" points="116,-81.2 116,-103.2 208,-103.2 208,-81.2 116,-81.2"/>
<text text-anchor="start" x="119" y="-88.9" font-family="Helvetica,sans-Serif" font-size="11.00" fill="#000000">text[2147483647]</text>
<polygon fill="none" stroke="#000000" points="10,-59.2 10,-81.2 116,-81.2 116,-59.2 10,-59.2"/>
<text text-anchor="start" x="30" y="-66.3" font-family="Helvetica,sans-Serif" font-size="11.00" fill="#000000">URL_DATE</text>
<polygon fill="none" stroke="#000000" points="116,-59.2 116,-81.2 208,-81.2 208,-59.2 116,-59.2"/>
<text text-anchor="start" x="119" y="-66.9" font-family="Helvetica,sans-Serif" font-size="11.00" fill="#000000">date[13]</text>
<polygon fill="#ffffff" stroke="transparent" points="10,-40.2 10,-59.2 44,-59.2 44,-40.2 10,-40.2"/>
<polygon fill="none" stroke="#000000" points="10,-40.2 10,-59.2 44,-59.2 44,-40.2 10,-40.2"/>
<text text-anchor="start" x="13" y="-46.3" font-family="Helvetica,sans-Serif" font-size="11.00" fill="#000000">&lt; 0</text>
<polygon fill="#ffffff" stroke="transparent" points="44,-40.2 44,-59.2 116,-59.2 116,-40.2 44,-40.2"/>
<polygon fill="none" stroke="#000000" points="44,-40.2 44,-59.2 116,-59.2 116,-40.2 44,-40.2"/>
<text text-anchor="start" x="59.2089" y="-46.3" font-family="Helvetica,sans-Serif" font-size="11.00" fill="#000000">1.733 rows</text>
<polygon fill="#ffffff" stroke="transparent" points="116,-40.2 116,-59.2 208,-59.2 208,-40.2 116,-40.2"/>
<polygon fill="none" stroke="#000000" points="116,-40.2 116,-59.2 208,-59.2 208,-40.2 116,-40.2"/>
<text text-anchor="start" x="189.4053" y="-46.3" font-family="Helvetica,sans-Serif" font-size="11.00" fill="#000000">2 &gt;</text>
<polygon fill="none" stroke="#000000" stroke-width="2" points="9,-39.2 9,-347.2 209,-347.2 209,-39.2 9,-39.2"/>
</a>
</g>
</g>
<!-- global_RefCore&#45;&gt;global_Author -->
<g id="edge1" class="edge">
<title>global_RefCore:w&#45;&gt;global_Author:e</title>
<path fill="none" stroke="#000000" d="M245.3662,-415.3918C217.5986,-396.3309 254.7985,-312.2 208,-312.2"/>
<polygon fill="#000000" stroke="#000000" points="251.7755,-417.1187 258.5634,-422.676 255.6377,-418.1593 259.5,-419.2 259.5,-419.2 259.5,-419.2 255.6377,-418.1593 260.4366,-415.724 251.7755,-417.1187 251.7755,-417.1187"/>
<ellipse fill="none" stroke="#000000" cx="248.6857" cy="-416.2861" rx="3.2" ry="3.2"/>
</g>
<!-- neo_contacts -->
<g id="node3" class="node">
<title>neo_contacts</title>
<g id="a_node3"><a xlink:href="../../tables/neo_contacts.html" xlink:title="neo_contacts" target="_top">
<polygon fill="#ffffff" stroke="transparent" points="264.5,-156.7 264.5,-305.7 380.5,-305.7 380.5,-156.7 264.5,-156.7"/>
<polygon fill="#f5f5f5" stroke="transparent" points="264.5,-282.2 264.5,-305.2 380.5,-305.2 380.5,-282.2 264.5,-282.2"/>
<polygon fill="none" stroke="#000000" points="264.5,-282.2 264.5,-305.2 380.5,-305.2 380.5,-282.2 264.5,-282.2"/>
<text text-anchor="start" x="269.5" y="-290.8" font-family="Helvetica,sans-Serif" font-weight="bold" font-size="11.00" fill="#000000">neo_contacts</text>
<text text-anchor="start" x="346.0219" y="-290.3" font-family="Helvetica,sans-Serif" font-size="11.00" fill="#000000">[table]</text>
<polygon fill="none" stroke="#000000" points="264.5,-260.2 264.5,-282.2 380.5,-282.2 380.5,-260.2 264.5,-260.2"/>
<image xlink:href="../../images/primaryKeys.png" width="11px" height="12px" preserveAspectRatio="xMinYMin meet" x="269.5" y="-277.2"/>
<text text-anchor="start" x="289.5" y="-267.3" font-family="Helvetica,sans-Serif" font-size="11.00" fill="#000000">CONTACTID</text>
<polygon fill="none" stroke="#000000" points="264.5,-238.2 264.5,-260.2 380.5,-260.2 380.5,-238.2 264.5,-238.2"/>
<image xlink:href="../../images/foreignKeys.png" width="11px" height="12px" preserveAspectRatio="xMinYMin meet" x="269.5" y="-255.2"/>
<text text-anchor="start" x="289.5" y="-245.3" font-family="Helvetica,sans-Serif" font-size="11.00" fill="#000000">ALIASID</text>
<polygon fill="none" stroke="#000000" points="264.5,-216.2 264.5,-238.2 380.5,-238.2 380.5,-216.2 264.5,-216.2"/>
<image xlink:href="../../images/foreignKeys.png" width="11px" height="12px" preserveAspectRatio="xMinYMin meet" x="269.5" y="-233.2"/>
<text text-anchor="start" x="289.5" y="-223.3" font-family="Helvetica,sans-Serif" font-size="11.00" fill="#000000">CSTATUSID</text>
<polygon fill="none" stroke="#000000" points="264.5,-194.2 264.5,-216.2 380.5,-216.2 380.5,-194.2 264.5,-194.2"/>
<image xlink:href="../../images/foreignKeys.png" width="11px" height="12px" preserveAspectRatio="xMinYMin meet" x="269.5" y="-211.2"/>
<text text-anchor="start" x="289.5" y="-201.3" font-family="Helvetica,sans-Serif" font-size="11.00" fill="#000000">OAID</text>
<polygon fill="none" stroke="#000000" points="264.5,-175.2 264.5,-194.2 380.5,-194.2 380.5,-175.2 264.5,-175.2"/>
<text text-anchor="start" x="267.5" y="-181.3" font-family="Helvetica,sans-Serif" font-size="11.00" fill="#000000">...</text>
<polygon fill="#ffffff" stroke="transparent" points="264.5,-156.2 264.5,-175.2 289.5,-175.2 289.5,-156.2 264.5,-156.2"/>
<polygon fill="none" stroke="#000000" points="264.5,-156.2 264.5,-175.2 289.5,-175.2 289.5,-156.2 264.5,-156.2"/>
<text text-anchor="start" x="267.5" y="-162.3" font-family="Helvetica,sans-Serif" font-size="11.00" fill="#000000">&lt; 3</text>
<polygon fill="#ffffff" stroke="transparent" points="289.5,-156.2 289.5,-175.2 356.5,-175.2 356.5,-156.2 289.5,-156.2"/>
<polygon fill="none" stroke="#000000" points="289.5,-156.2 289.5,-175.2 356.5,-175.2 356.5,-156.2 289.5,-156.2"/>
<text text-anchor="start" x="293.594" y="-162.3" font-family="Helvetica,sans-Serif" font-size="11.00" fill="#000000">13.396 rows</text>
<polygon fill="#ffffff" stroke="transparent" points="356.5,-156.2 356.5,-175.2 380.5,-175.2 380.5,-156.2 356.5,-156.2"/>
<polygon fill="none" stroke="#000000" points="356.5,-156.2 356.5,-175.2 380.5,-175.2 380.5,-156.2 356.5,-156.2"/>
<text text-anchor="start" x="361.9053" y="-162.3" font-family="Helvetica,sans-Serif" font-size="11.00" fill="#000000">3 &gt;</text>
</a>
</g>
</g>
<!-- neo_contacts&#45;&gt;global_Author -->
<g id="edge2" class="edge">
<title>neo_contacts:w&#45;&gt;global_Author:e</title>
<path fill="none" stroke="#000000" d="M250.3421,-208.7601C220.6362,-227.3262 255.8962,-312.2 208,-312.2"/>
<polygon fill="#000000" stroke="#000000" points="256.7415,-207.1509 265.3779,-208.6913 260.6208,-206.1755 264.5,-205.2 264.5,-205.2 264.5,-205.2 260.6208,-206.1755 263.6221,-201.7087 256.7415,-207.1509 256.7415,-207.1509"/>
<ellipse fill="none" stroke="#000000" cx="253.6381" cy="-207.9313" rx="3.2" ry="3.2"/>
</g>
</g>
</svg>
