<?xml version="1.0" encoding="UTF-8" standalone="no"?>
<!DOCTYPE svg PUBLIC "-//W3C//DTD SVG 1.1//EN"
 "http://www.w3.org/Graphics/SVG/1.1/DTD/svg11.dtd">
<!-- Generated by graphviz version 2.40.1 (20161225.0304)
 -->
<!-- Title: oneDegreeRelationshipsDiagram Pages: 1 -->
<svg width="401pt" height="227pt"
 viewBox="0.00 0.00 401.00 226.70" xmlns="http://www.w3.org/2000/svg" xmlns:xlink="http://www.w3.org/1999/xlink">
<g id="graph0" class="graph" transform="scale(1 1) rotate(0) translate(4 222.7)">
<title>oneDegreeRelationshipsDiagram</title>
<polygon fill="#ffffff" stroke="transparent" points="-4,4 -4,-222.7 397,-222.7 397,4 -4,4"/>
<text text-anchor="middle" x="72.4936" y="-7.3" font-family="Helvetica,sans-Serif" font-size="11.00" fill="#000000">Generated by SchemaSpy</text>
<!-- global_RefCore -->
<g id="node1" class="node">
<title>global_RefCore</title>
<g id="a_node1"><a xlink:href="../../tables/global_RefCore.html" xlink:title="global_RefCore" target="_top">
<polygon fill="#ffffff" stroke="transparent" points="266,-65.7 266,-214.7 385,-214.7 385,-65.7 266,-65.7"/>
<polygon fill="#f5f5f5" stroke="transparent" points="266.5,-191.2 266.5,-214.2 385.5,-214.2 385.5,-191.2 266.5,-191.2"/>
<polygon fill="none" stroke="#000000" points="266.5,-191.2 266.5,-214.2 385.5,-214.2 385.5,-191.2 266.5,-191.2"/>
<text text-anchor="start" x="271.2992" y="-200.3" font-family="Helvetica,sans-Serif" font-weight="bold" font-size="11.00" fill="#000000">global_RefCore</text>
<text text-anchor="start" x="351.0219" y="-199.3" font-family="Helvetica,sans-Serif" font-size="11.00" fill="#000000">[table]</text>
<polygon fill="none" stroke="#000000" points="266.5,-169.2 266.5,-191.2 385.5,-191.2 385.5,-169.2 266.5,-169.2"/>
<image xlink:href="../../images/primaryKeys.png" width="11px" height="12px" preserveAspectRatio="xMinYMin meet" x="271.5" y="-186.2"/>
<text text-anchor="start" x="291.5" y="-176.3" font-family="Helvetica,sans-Serif" font-size="11.00" fill="#000000">REFDBID</text>
<polygon fill="none" stroke="#000000" points="266.5,-147.2 266.5,-169.2 385.5,-169.2 385.5,-147.2 266.5,-147.2"/>
<image xlink:href="../../images/foreignKeys.png" width="11px" height="12px" preserveAspectRatio="xMinYMin meet" x="271.5" y="-164.2"/>
<text text-anchor="start" x="291.5" y="-154.3" font-family="Helvetica,sans-Serif" font-size="11.00" fill="#000000">OAID</text>
<polygon fill="none" stroke="#000000" points="266.5,-125.2 266.5,-147.2 385.5,-147.2 385.5,-125.2 266.5,-125.2"/>
<image xlink:href="../../images/foreignKeys.png" width="11px" height="12px" preserveAspectRatio="xMinYMin meet" x="271.5" y="-142.2"/>
<text text-anchor="start" x="291.5" y="-132.3" font-family="Helvetica,sans-Serif" font-size="11.00" fill="#000000">PUBTYPEID</text>
<polygon fill="none" stroke="#000000" points="266.5,-103.2 266.5,-125.2 385.5,-125.2 385.5,-103.2 266.5,-103.2"/>
<image xlink:href="../../images/foreignKeys.png" width="11px" height="12px" preserveAspectRatio="xMinYMin meet" x="271.5" y="-120.2"/>
<text text-anchor="start" x="291.5" y="-110.3" font-family="Helvetica,sans-Serif" font-size="11.00" fill="#000000">JOURNALID</text>
<polygon fill="none" stroke="#000000" points="266.5,-84.2 266.5,-103.2 385.5,-103.2 385.5,-84.2 266.5,-84.2"/>
<text text-anchor="start" x="269.5" y="-90.3" font-family="Helvetica,sans-Serif" font-size="11.00" fill="#000000">...</text>
<polygon fill="#ffffff" stroke="transparent" points="266.5,-65.2 266.5,-84.2 293.5,-84.2 293.5,-65.2 266.5,-65.2"/>
<polygon fill="none" stroke="#000000" points="266.5,-65.2 266.5,-84.2 293.5,-84.2 293.5,-65.2 266.5,-65.2"/>
<text text-anchor="start" x="269.5" y="-71.3" font-family="Helvetica,sans-Serif" font-size="11.00" fill="#000000">&lt; 5</text>
<polygon fill="#ffffff" stroke="transparent" points="293.5,-65.2 293.5,-84.2 355.5,-84.2 355.5,-65.2 293.5,-65.2"/>
<polygon fill="none" stroke="#000000" points="293.5,-65.2 293.5,-84.2 355.5,-84.2 355.5,-65.2 293.5,-65.2"/>
<text text-anchor="start" x="298.7089" y="-71.3" font-family="Helvetica,sans-Serif" font-size="11.00" fill="#000000">3,822 rows</text>
<polygon fill="#ffffff" stroke="transparent" points="355.5,-65.2 355.5,-84.2 385.5,-84.2 385.5,-65.2 355.5,-65.2"/>
<polygon fill="none" stroke="#000000" points="355.5,-65.2 355.5,-84.2 385.5,-84.2 385.5,-65.2 355.5,-65.2"/>
<text text-anchor="start" x="360.7904" y="-71.3" font-family="Helvetica,sans-Serif" font-size="11.00" fill="#000000">32 &gt;</text>
</a>
</g>
</g>
<!-- global_PubType -->
<g id="node2" class="node">
<title>global_PubType</title>
<g id="a_node2"><a xlink:href="../../tables/global_PubType.html" xlink:title="global_PubType" target="_top">
<polygon fill="#ffffff" stroke="transparent" points="8,-38.2 8,-172.2 217,-172.2 217,-38.2 8,-38.2"/>
<polygon fill="#f5f5f5" stroke="transparent" points="10.5,-147.2 10.5,-170.2 215.5,-170.2 215.5,-147.2 10.5,-147.2"/>
<polygon fill="none" stroke="#000000" points="10.5,-147.2 10.5,-170.2 215.5,-170.2 215.5,-147.2 10.5,-147.2"/>
<text text-anchor="start" x="15.5" y="-156.3" font-family="Helvetica,sans-Serif" font-weight="bold" font-size="11.00" fill="#000000">global_PubType</text>
<text text-anchor="start" x="180.5437" y="-155.3" font-family="Helvetica,sans-Serif" font-size="11.00" fill="#000000">[table]</text>
<polygon fill="none" stroke="#000000" points="10.5,-125.2 10.5,-147.2 123.5,-147.2 123.5,-125.2 10.5,-125.2"/>
<image xlink:href="../../images/primaryKeys.png" width="11px" height="12px" preserveAspectRatio="xMinYMin meet" x="15.5" y="-142.2"/>
<text text-anchor="start" x="30.5" y="-132.3" font-family="Helvetica,sans-Serif" font-size="11.00" fill="#000000">PUBTYPEID</text>
<polygon fill="none" stroke="#000000" points="123.5,-125.2 123.5,-147.2 215.5,-147.2 215.5,-125.2 123.5,-125.2"/>
<text text-anchor="start" x="126.5" y="-132.9" font-family="Helvetica,sans-Serif" font-size="11.00" fill="#000000">int2[5]</text>
<polygon fill="none" stroke="#000000" points="10.5,-103.2 10.5,-125.2 123.5,-125.2 123.5,-103.2 10.5,-103.2"/>
<text text-anchor="start" x="30.5" y="-110.3" font-family="Helvetica,sans-Serif" font-size="11.00" fill="#000000">PUBTYPE</text>
<polygon fill="none" stroke="#000000" points="123.5,-103.2 123.5,-125.2 215.5,-125.2 215.5,-103.2 123.5,-103.2"/>
<text text-anchor="start" x="126.5" y="-110.9" font-family="Helvetica,sans-Serif" font-size="11.00" fill="#000000">text[2147483647]</text>
<polygon fill="none" stroke="#000000" points="10.5,-81.2 10.5,-103.2 123.5,-103.2 123.5,-81.2 10.5,-81.2"/>
<text text-anchor="start" x="30.5" y="-88.3" font-family="Helvetica,sans-Serif" font-size="11.00" fill="#000000">CREATED_AT</text>
<polygon fill="none" stroke="#000000" points="123.5,-81.2 123.5,-103.2 215.5,-103.2 215.5,-81.2 123.5,-81.2"/>
<text text-anchor="start" x="126.1023" y="-88.9" font-family="Helvetica,sans-Serif" font-size="11.00" fill="#000000">timestamptz[35,6]</text>
<polygon fill="none" stroke="#000000" points="10.5,-59.2 10.5,-81.2 123.5,-81.2 123.5,-59.2 10.5,-59.2"/>
<text text-anchor="start" x="30.5" y="-66.3" font-family="Helvetica,sans-Serif" font-size="11.00" fill="#000000">UPDATED_AT</text>
<polygon fill="none" stroke="#000000" points="123.5,-59.2 123.5,-81.2 215.5,-81.2 215.5,-59.2 123.5,-59.2"/>
<text text-anchor="start" x="126.1023" y="-66.9" font-family="Helvetica,sans-Serif" font-size="11.00" fill="#000000">timestamptz[35,6]</text>
<polygon fill="#ffffff" stroke="transparent" points="10.5,-40.2 10.5,-59.2 55.5,-59.2 55.5,-40.2 10.5,-40.2"/>
<polygon fill="none" stroke="#000000" points="10.5,-40.2 10.5,-59.2 55.5,-59.2 55.5,-40.2 10.5,-40.2"/>
<text text-anchor="start" x="13.5" y="-46.3" font-family="Helvetica,sans-Serif" font-size="11.00" fill="#000000">&lt; 0</text>
<polygon fill="#ffffff" stroke="transparent" points="55.5,-40.2 55.5,-59.2 123.5,-59.2 123.5,-40.2 55.5,-40.2"/>
<polygon fill="none" stroke="#000000" points="55.5,-40.2 55.5,-59.2 123.5,-59.2 123.5,-40.2 55.5,-40.2"/>
<text text-anchor="start" x="81.9956" y="-46.3" font-family="Helvetica,sans-Serif" font-size="11.00" fill="#000000">16 rows</text>
<polygon fill="#ffffff" stroke="transparent" points="123.5,-40.2 123.5,-59.2 215.5,-59.2 215.5,-40.2 123.5,-40.2"/>
<polygon fill="none" stroke="#000000" points="123.5,-40.2 123.5,-59.2 215.5,-59.2 215.5,-40.2 123.5,-40.2"/>
<text text-anchor="start" x="196.9053" y="-46.3" font-family="Helvetica,sans-Serif" font-size="11.00" fill="#000000">1 &gt;</text>
<polygon fill="none" stroke="#000000" stroke-width="2" points="9,-39.2 9,-171.2 216,-171.2 216,-39.2 9,-39.2"/>
</a>
</g>
</g>
<!-- global_RefCore&#45;&gt;global_PubType -->
<g id="edge1" class="edge">
<title>global_RefCore:w&#45;&gt;global_PubType:e</title>
<path fill="none" stroke="#000000" d="M251.776,-136.2C239.7815,-136.2 232.3229,-136.2 215.5,-136.2"/>
<polygon fill="#000000" stroke="#000000" points="258.5,-136.2001 266.5,-139.8 262.5,-136.2 266.5,-136.2 266.5,-136.2 266.5,-136.2 262.5,-136.2 266.5,-132.6 258.5,-136.2001 258.5,-136.2001"/>
<ellipse fill="none" stroke="#000000" cx="255.3" cy="-136.2001" rx="3.2" ry="3.2"/>
</g>
</g>
</svg>
