<?xml version="1.0" encoding="UTF-8" standalone="no"?>
<!DOCTYPE svg PUBLIC "-//W3C//DTD SVG 1.1//EN"
 "http://www.w3.org/Graphics/SVG/1.1/DTD/svg11.dtd">
<!-- Generated by graphviz version 2.40.1 (20161225.0304)
 -->
<!-- Title: oneDegreeRelationshipsDiagramImplied Pages: 1 -->
<svg width="420pt" height="1225pt"
 viewBox="0.00 0.00 420.00 1225.20" xmlns="http://www.w3.org/2000/svg" xmlns:xlink="http://www.w3.org/1999/xlink">
<g id="graph0" class="graph" transform="scale(1 1) rotate(0) translate(4 1221.2)">
<title>oneDegreeRelationshipsDiagramImplied</title>
<polygon fill="#ffffff" stroke="transparent" points="-4,4 -4,-1221.2 416,-1221.2 416,4 -4,4"/>
<text text-anchor="middle" x="72.4936" y="-7.3" font-family="Helvetica,sans-Serif" font-size="11.00" fill="#000000">Generated by SchemaSpy</text>
<!-- crn_aus_basins -->
<g id="node1" class="node">
<title>crn_aus_basins</title>
<g id="a_node1"><a xlink:href="../../tables/crn_aus_basins.html" xlink:title="crn_aus_basins" target="_top">
<polygon fill="#ffffff" stroke="transparent" points="267,-1020.2 267,-1213.2 396,-1213.2 396,-1020.2 267,-1020.2"/>
<polygon fill="#f5f5f5" stroke="transparent" points="267.5,-1189.7 267.5,-1212.7 396.5,-1212.7 396.5,-1189.7 267.5,-1189.7"/>
<polygon fill="none" stroke="#000000" points="267.5,-1189.7 267.5,-1212.7 396.5,-1212.7 396.5,-1189.7 267.5,-1189.7"/>
<text text-anchor="start" x="272.5" y="-1198.3" font-family="Helvetica,sans-Serif" font-weight="bold" font-size="11.00" fill="#000000">crn_aus_basins</text>
<text text-anchor="start" x="362.0219" y="-1197.8" font-family="Helvetica,sans-Serif" font-size="11.00" fill="#000000">[table]</text>
<polygon fill="none" stroke="#000000" points="267.5,-1167.7 267.5,-1189.7 396.5,-1189.7 396.5,-1167.7 267.5,-1167.7"/>
<image xlink:href="../../images/foreignKeys.png" width="11px" height="12px" preserveAspectRatio="xMinYMin meet" x="272.5" y="-1184.7"/>
<text text-anchor="start" x="296.5" y="-1174.8" font-family="Helvetica,sans-Serif" font-size="11.00" fill="#000000">DBDOI</text>
<polygon fill="none" stroke="#000000" points="267.5,-1145.7 267.5,-1167.7 396.5,-1167.7 396.5,-1145.7 267.5,-1145.7"/>
<image xlink:href="../../images/foreignKeys.png" width="11px" height="12px" preserveAspectRatio="xMinYMin meet" x="272.5" y="-1162.7"/>
<text text-anchor="start" x="296.5" y="-1152.8" font-family="Helvetica,sans-Serif" font-size="11.00" fill="#000000">SITEID</text>
<polygon fill="none" stroke="#000000" points="267.5,-1123.7 267.5,-1145.7 396.5,-1145.7 396.5,-1123.7 267.5,-1123.7"/>
<image xlink:href="../../images/foreignKeys.png" width="11px" height="12px" preserveAspectRatio="xMinYMin meet" x="272.5" y="-1140.7"/>
<text text-anchor="start" x="296.5" y="-1130.8" font-family="Helvetica,sans-Serif" font-size="11.00" fill="#000000">METASITEID</text>
<polygon fill="none" stroke="#000000" points="267.5,-1101.7 267.5,-1123.7 396.5,-1123.7 396.5,-1101.7 267.5,-1101.7"/>
<image xlink:href="../../images/foreignKeys.png" width="11px" height="12px" preserveAspectRatio="xMinYMin meet" x="272.5" y="-1118.7"/>
<text text-anchor="start" x="296.5" y="-1108.8" font-family="Helvetica,sans-Serif" font-size="11.00" fill="#000000">OAID</text>
<polygon fill="none" stroke="#000000" points="267.5,-1079.7 267.5,-1101.7 396.5,-1101.7 396.5,-1079.7 267.5,-1079.7"/>
<image xlink:href="../../images/foreignKeys.png" width="11px" height="12px" preserveAspectRatio="xMinYMin meet" x="272.5" y="-1096.7"/>
<text text-anchor="start" x="296.5" y="-1086.8" font-family="Helvetica,sans-Serif" font-size="11.00" fill="#000000">PROJEPSGID</text>
<polygon fill="none" stroke="#000000" points="267.5,-1057.7 267.5,-1079.7 396.5,-1079.7 396.5,-1057.7 267.5,-1057.7"/>
<image xlink:href="../../images/primaryKeys.png" width="11px" height="12px" preserveAspectRatio="xMinYMin meet" x="272.5" y="-1074.7"/>
<text text-anchor="start" x="296.5" y="-1064.8" font-family="Helvetica,sans-Serif" font-size="11.00" fill="#000000">id</text>
<polygon fill="none" stroke="#000000" points="267.5,-1038.7 267.5,-1057.7 396.5,-1057.7 396.5,-1038.7 267.5,-1038.7"/>
<text text-anchor="start" x="270.5" y="-1044.8" font-family="Helvetica,sans-Serif" font-size="11.00" fill="#000000">...</text>
<polygon fill="#ffffff" stroke="transparent" points="267.5,-1019.7 267.5,-1038.7 311.5,-1038.7 311.5,-1019.7 267.5,-1019.7"/>
<polygon fill="none" stroke="#000000" points="267.5,-1019.7 267.5,-1038.7 311.5,-1038.7 311.5,-1019.7 267.5,-1019.7"/>
<text text-anchor="start" x="270.5" y="-1025.8" font-family="Helvetica,sans-Serif" font-size="11.00" fill="#000000">&lt; 5</text>
<polygon fill="#ffffff" stroke="transparent" points="311.5,-1019.7 311.5,-1038.7 372.5,-1038.7 372.5,-1019.7 311.5,-1019.7"/>
<polygon fill="none" stroke="#000000" points="311.5,-1019.7 311.5,-1038.7 372.5,-1038.7 372.5,-1019.7 311.5,-1019.7"/>
<text text-anchor="start" x="324.8807" y="-1025.8" font-family="Helvetica,sans-Serif" font-size="11.00" fill="#000000">273 rows</text>
<polygon fill="#ffffff" stroke="transparent" points="372.5,-1019.7 372.5,-1038.7 396.5,-1038.7 396.5,-1019.7 372.5,-1019.7"/>
<polygon fill="none" stroke="#000000" points="372.5,-1019.7 372.5,-1038.7 396.5,-1038.7 396.5,-1019.7 372.5,-1019.7"/>
<text text-anchor="start" x="387.3862" y="-1025.8" font-family="Helvetica,sans-Serif" font-size="11.00" fill="#000000"> &#160;</text>
</a>
</g>
</g>
<!-- global_Author -->
<g id="node2" class="node">
<title>global_Author</title>
<g id="a_node2"><a xlink:href="../../tables/global_Author.html" xlink:title="global_Author" target="_top">
<polygon fill="#ffffff" stroke="transparent" points="8,-303.7 8,-613.7 210,-613.7 210,-303.7 8,-303.7"/>
<polygon fill="#f5f5f5" stroke="transparent" points="10,-588.7 10,-611.7 208,-611.7 208,-588.7 10,-588.7"/>
<polygon fill="none" stroke="#000000" points="10,-588.7 10,-611.7 208,-611.7 208,-588.7 10,-588.7"/>
<text text-anchor="start" x="15" y="-597.3" font-family="Helvetica,sans-Serif" font-weight="bold" font-size="11.00" fill="#000000">global_Author</text>
<text text-anchor="start" x="173.0437" y="-596.8" font-family="Helvetica,sans-Serif" font-size="11.00" fill="#000000">[table]</text>
<polygon fill="none" stroke="#000000" points="10,-566.7 10,-588.7 116,-588.7 116,-566.7 10,-566.7"/>
<image xlink:href="../../images/primaryKeys.png" width="11px" height="12px" preserveAspectRatio="xMinYMin meet" x="15" y="-583.7"/>
<text text-anchor="start" x="30" y="-573.8" font-family="Helvetica,sans-Serif" font-size="11.00" fill="#000000">OAID</text>
<polygon fill="none" stroke="#000000" points="116,-566.7 116,-588.7 208,-588.7 208,-566.7 116,-566.7"/>
<text text-anchor="start" x="119" y="-574.4" font-family="Helvetica,sans-Serif" font-size="11.00" fill="#000000">varchar[11]</text>
<polygon fill="none" stroke="#000000" points="10,-544.7 10,-566.7 116,-566.7 116,-544.7 10,-544.7"/>
<text text-anchor="start" x="30" y="-551.8" font-family="Helvetica,sans-Serif" font-size="11.00" fill="#000000">AUTH</text>
<polygon fill="none" stroke="#000000" points="116,-544.7 116,-566.7 208,-566.7 208,-544.7 116,-544.7"/>
<text text-anchor="start" x="119" y="-552.4" font-family="Helvetica,sans-Serif" font-size="11.00" fill="#000000">text[2147483647]</text>
<polygon fill="none" stroke="#000000" points="10,-522.7 10,-544.7 116,-544.7 116,-522.7 10,-522.7"/>
<text text-anchor="start" x="30" y="-529.8" font-family="Helvetica,sans-Serif" font-size="11.00" fill="#000000">FORENAME</text>
<polygon fill="none" stroke="#000000" points="116,-522.7 116,-544.7 208,-544.7 208,-522.7 116,-522.7"/>
<text text-anchor="start" x="119" y="-530.4" font-family="Helvetica,sans-Serif" font-size="11.00" fill="#000000">text[2147483647]</text>
<polygon fill="none" stroke="#000000" points="10,-500.7 10,-522.7 116,-522.7 116,-500.7 10,-500.7"/>
<text text-anchor="start" x="30" y="-507.8" font-family="Helvetica,sans-Serif" font-size="11.00" fill="#000000">INITIALS</text>
<polygon fill="none" stroke="#000000" points="116,-500.7 116,-522.7 208,-522.7 208,-500.7 116,-500.7"/>
<text text-anchor="start" x="119" y="-508.4" font-family="Helvetica,sans-Serif" font-size="11.00" fill="#000000">text[2147483647]</text>
<polygon fill="none" stroke="#000000" points="10,-478.7 10,-500.7 116,-500.7 116,-478.7 10,-478.7"/>
<text text-anchor="start" x="30" y="-485.8" font-family="Helvetica,sans-Serif" font-size="11.00" fill="#000000">ORCID</text>
<polygon fill="none" stroke="#000000" points="116,-478.7 116,-500.7 208,-500.7 208,-478.7 116,-478.7"/>
<text text-anchor="start" x="119" y="-486.4" font-family="Helvetica,sans-Serif" font-size="11.00" fill="#000000">varchar[19]</text>
<polygon fill="none" stroke="#000000" points="10,-456.7 10,-478.7 116,-478.7 116,-456.7 10,-456.7"/>
<text text-anchor="start" x="30" y="-463.8" font-family="Helvetica,sans-Serif" font-size="11.00" fill="#000000">SCOPUSID</text>
<polygon fill="none" stroke="#000000" points="116,-456.7 116,-478.7 208,-478.7 208,-456.7 116,-456.7"/>
<text text-anchor="start" x="119" y="-464.4" font-family="Helvetica,sans-Serif" font-size="11.00" fill="#000000">text[2147483647]</text>
<polygon fill="none" stroke="#000000" points="10,-434.7 10,-456.7 116,-456.7 116,-434.7 10,-434.7"/>
<text text-anchor="start" x="30" y="-441.8" font-family="Helvetica,sans-Serif" font-size="11.00" fill="#000000">WSCC_RESID</text>
<polygon fill="none" stroke="#000000" points="116,-434.7 116,-456.7 208,-456.7 208,-434.7 116,-434.7"/>
<text text-anchor="start" x="119" y="-442.4" font-family="Helvetica,sans-Serif" font-size="11.00" fill="#000000">text[2147483647]</text>
<polygon fill="none" stroke="#000000" points="10,-412.7 10,-434.7 116,-434.7 116,-412.7 10,-412.7"/>
<text text-anchor="start" x="30" y="-419.8" font-family="Helvetica,sans-Serif" font-size="11.00" fill="#000000">AUTH_COMMT</text>
<polygon fill="none" stroke="#000000" points="116,-412.7 116,-434.7 208,-434.7 208,-412.7 116,-412.7"/>
<text text-anchor="start" x="119" y="-420.4" font-family="Helvetica,sans-Serif" font-size="11.00" fill="#000000">text[2147483647]</text>
<polygon fill="none" stroke="#000000" points="10,-390.7 10,-412.7 116,-412.7 116,-390.7 10,-390.7"/>
<text text-anchor="start" x="30" y="-397.8" font-family="Helvetica,sans-Serif" font-size="11.00" fill="#000000">CREATED_AT</text>
<polygon fill="none" stroke="#000000" points="116,-390.7 116,-412.7 208,-412.7 208,-390.7 116,-390.7"/>
<text text-anchor="start" x="118.6023" y="-398.4" font-family="Helvetica,sans-Serif" font-size="11.00" fill="#000000">timestamptz[35,6]</text>
<polygon fill="none" stroke="#000000" points="10,-368.7 10,-390.7 116,-390.7 116,-368.7 10,-368.7"/>
<text text-anchor="start" x="30" y="-375.8" font-family="Helvetica,sans-Serif" font-size="11.00" fill="#000000">UPDATED_AT</text>
<polygon fill="none" stroke="#000000" points="116,-368.7 116,-390.7 208,-390.7 208,-368.7 116,-368.7"/>
<text text-anchor="start" x="118.6023" y="-376.4" font-family="Helvetica,sans-Serif" font-size="11.00" fill="#000000">timestamptz[35,6]</text>
<polygon fill="none" stroke="#000000" points="10,-346.7 10,-368.7 116,-368.7 116,-346.7 10,-346.7"/>
<text text-anchor="start" x="30" y="-353.8" font-family="Helvetica,sans-Serif" font-size="11.00" fill="#000000">AUTH_URL</text>
<polygon fill="none" stroke="#000000" points="116,-346.7 116,-368.7 208,-368.7 208,-346.7 116,-346.7"/>
<text text-anchor="start" x="119" y="-354.4" font-family="Helvetica,sans-Serif" font-size="11.00" fill="#000000">text[2147483647]</text>
<polygon fill="none" stroke="#000000" points="10,-324.7 10,-346.7 116,-346.7 116,-324.7 10,-324.7"/>
<text text-anchor="start" x="30" y="-331.8" font-family="Helvetica,sans-Serif" font-size="11.00" fill="#000000">URL_DATE</text>
<polygon fill="none" stroke="#000000" points="116,-324.7 116,-346.7 208,-346.7 208,-324.7 116,-324.7"/>
<text text-anchor="start" x="119" y="-332.4" font-family="Helvetica,sans-Serif" font-size="11.00" fill="#000000">date[13]</text>
<polygon fill="#ffffff" stroke="transparent" points="10,-305.7 10,-324.7 44,-324.7 44,-305.7 10,-305.7"/>
<polygon fill="none" stroke="#000000" points="10,-305.7 10,-324.7 44,-324.7 44,-305.7 10,-305.7"/>
<text text-anchor="start" x="13" y="-311.8" font-family="Helvetica,sans-Serif" font-size="11.00" fill="#000000">&lt; 0</text>
<polygon fill="#ffffff" stroke="transparent" points="44,-305.7 44,-324.7 116,-324.7 116,-305.7 44,-305.7"/>
<polygon fill="none" stroke="#000000" points="44,-305.7 44,-324.7 116,-324.7 116,-305.7 44,-305.7"/>
<text text-anchor="start" x="59.2089" y="-311.8" font-family="Helvetica,sans-Serif" font-size="11.00" fill="#000000">1.723 rows</text>
<polygon fill="#ffffff" stroke="transparent" points="116,-305.7 116,-324.7 208,-324.7 208,-305.7 116,-305.7"/>
<polygon fill="none" stroke="#000000" points="116,-305.7 116,-324.7 208,-324.7 208,-305.7 116,-305.7"/>
<text text-anchor="start" x="189.4053" y="-311.8" font-family="Helvetica,sans-Serif" font-size="11.00" fill="#000000">6 &gt;</text>
<polygon fill="none" stroke="#000000" stroke-width="2" points="9,-304.7 9,-612.7 209,-612.7 209,-304.7 9,-304.7"/>
</a>
</g>
</g>
<!-- crn_aus_basins&#45;&gt;global_Author -->
<g id="edge1" class="edge">
<title>crn_aus_basins:w&#45;&gt;global_Author:e</title>
<path fill="none" stroke="#000000" stroke-dasharray="5,2" d="M255.8139,-1103.8604C216.1524,-1034.3002 263.255,-577.7 208,-577.7"/>
<polygon fill="#000000" stroke="#000000" points="261.1197,-1107.8738 265.3282,-1115.5711 264.3098,-1110.2869 267.5,-1112.7 267.5,-1112.7 267.5,-1112.7 264.3098,-1110.2869 269.6718,-1109.8289 261.1197,-1107.8738 261.1197,-1107.8738"/>
<ellipse fill="none" stroke="#000000" cx="258.5676" cy="-1105.9434" rx="3.2" ry="3.2"/>
</g>
<!-- crn_inprep_basins -->
<g id="node3" class="node">
<title>crn_inprep_basins</title>
<g id="a_node3"><a xlink:href="../../tables/crn_inprep_basins.html" xlink:title="crn_inprep_basins" target="_top">
<polygon fill="#ffffff" stroke="transparent" points="259,-806.2 259,-999.2 404,-999.2 404,-806.2 259,-806.2"/>
<polygon fill="#f5f5f5" stroke="transparent" points="259.5,-975.7 259.5,-998.7 404.5,-998.7 404.5,-975.7 259.5,-975.7"/>
<polygon fill="none" stroke="#000000" points="259.5,-975.7 259.5,-998.7 404.5,-998.7 404.5,-975.7 259.5,-975.7"/>
<text text-anchor="start" x="264.5" y="-984.3" font-family="Helvetica,sans-Serif" font-weight="bold" font-size="11.00" fill="#000000">crn_inprep_basins</text>
<text text-anchor="start" x="370.0219" y="-983.8" font-family="Helvetica,sans-Serif" font-size="11.00" fill="#000000">[table]</text>
<polygon fill="none" stroke="#000000" points="259.5,-953.7 259.5,-975.7 404.5,-975.7 404.5,-953.7 259.5,-953.7"/>
<image xlink:href="../../images/foreignKeys.png" width="11px" height="12px" preserveAspectRatio="xMinYMin meet" x="264.5" y="-970.7"/>
<text text-anchor="start" x="288.5" y="-960.8" font-family="Helvetica,sans-Serif" font-size="11.00" fill="#000000">DBDOI</text>
<polygon fill="none" stroke="#000000" points="259.5,-931.7 259.5,-953.7 404.5,-953.7 404.5,-931.7 259.5,-931.7"/>
<image xlink:href="../../images/foreignKeys.png" width="11px" height="12px" preserveAspectRatio="xMinYMin meet" x="264.5" y="-948.7"/>
<text text-anchor="start" x="288.5" y="-938.8" font-family="Helvetica,sans-Serif" font-size="11.00" fill="#000000">SITEID</text>
<polygon fill="none" stroke="#000000" points="259.5,-909.7 259.5,-931.7 404.5,-931.7 404.5,-909.7 259.5,-909.7"/>
<image xlink:href="../../images/foreignKeys.png" width="11px" height="12px" preserveAspectRatio="xMinYMin meet" x="264.5" y="-926.7"/>
<text text-anchor="start" x="288.5" y="-916.8" font-family="Helvetica,sans-Serif" font-size="11.00" fill="#000000">METASITEID</text>
<polygon fill="none" stroke="#000000" points="259.5,-887.7 259.5,-909.7 404.5,-909.7 404.5,-887.7 259.5,-887.7"/>
<image xlink:href="../../images/foreignKeys.png" width="11px" height="12px" preserveAspectRatio="xMinYMin meet" x="264.5" y="-904.7"/>
<text text-anchor="start" x="288.5" y="-894.8" font-family="Helvetica,sans-Serif" font-size="11.00" fill="#000000">OAID</text>
<polygon fill="none" stroke="#000000" points="259.5,-865.7 259.5,-887.7 404.5,-887.7 404.5,-865.7 259.5,-865.7"/>
<image xlink:href="../../images/foreignKeys.png" width="11px" height="12px" preserveAspectRatio="xMinYMin meet" x="264.5" y="-882.7"/>
<text text-anchor="start" x="288.5" y="-872.8" font-family="Helvetica,sans-Serif" font-size="11.00" fill="#000000">PROJEPSGID</text>
<polygon fill="none" stroke="#000000" points="259.5,-843.7 259.5,-865.7 404.5,-865.7 404.5,-843.7 259.5,-843.7"/>
<image xlink:href="../../images/primaryKeys.png" width="11px" height="12px" preserveAspectRatio="xMinYMin meet" x="264.5" y="-860.7"/>
<text text-anchor="start" x="288.5" y="-850.8" font-family="Helvetica,sans-Serif" font-size="11.00" fill="#000000">id</text>
<polygon fill="none" stroke="#000000" points="259.5,-824.7 259.5,-843.7 404.5,-843.7 404.5,-824.7 259.5,-824.7"/>
<text text-anchor="start" x="262.5" y="-830.8" font-family="Helvetica,sans-Serif" font-size="11.00" fill="#000000">...</text>
<polygon fill="#ffffff" stroke="transparent" points="259.5,-805.7 259.5,-824.7 317.5,-824.7 317.5,-805.7 259.5,-805.7"/>
<polygon fill="none" stroke="#000000" points="259.5,-805.7 259.5,-824.7 317.5,-824.7 317.5,-805.7 259.5,-805.7"/>
<text text-anchor="start" x="262.5" y="-811.8" font-family="Helvetica,sans-Serif" font-size="11.00" fill="#000000">&lt; 5</text>
<polygon fill="#ffffff" stroke="transparent" points="317.5,-805.7 317.5,-824.7 373.5,-824.7 373.5,-805.7 317.5,-805.7"/>
<polygon fill="none" stroke="#000000" points="317.5,-805.7 317.5,-824.7 373.5,-824.7 373.5,-805.7 317.5,-805.7"/>
<text text-anchor="start" x="338.1105" y="-811.8" font-family="Helvetica,sans-Serif" font-size="11.00" fill="#000000">0 rows</text>
<polygon fill="#ffffff" stroke="transparent" points="373.5,-805.7 373.5,-824.7 404.5,-824.7 404.5,-805.7 373.5,-805.7"/>
<polygon fill="none" stroke="#000000" points="373.5,-805.7 373.5,-824.7 404.5,-824.7 404.5,-805.7 373.5,-805.7"/>
<text text-anchor="start" x="395.3862" y="-811.8" font-family="Helvetica,sans-Serif" font-size="11.00" fill="#000000"> &#160;</text>
</a>
</g>
</g>
<!-- crn_inprep_basins&#45;&gt;global_Author -->
<g id="edge2" class="edge">
<title>crn_inprep_basins:w&#45;&gt;global_Author:e</title>
<path fill="none" stroke="#000000" stroke-dasharray="5,2" d="M246.0095,-893.6579C200.1476,-852.8198 274.8836,-577.7 208,-577.7"/>
<polygon fill="#000000" stroke="#000000" points="252.0063,-895.8991 258.2396,-902.0722 255.7532,-897.2996 259.5,-898.7 259.5,-898.7 259.5,-898.7 255.7532,-897.2996 260.7604,-895.3278 252.0063,-895.8991 252.0063,-895.8991"/>
<ellipse fill="none" stroke="#000000" cx="249.0088" cy="-894.7788" rx="3.2" ry="3.2"/>
</g>
<!-- crn_int_basins -->
<g id="node4" class="node">
<title>crn_int_basins</title>
<g id="a_node4"><a xlink:href="../../tables/crn_int_basins.html" xlink:title="crn_int_basins" target="_top">
<polygon fill="#ffffff" stroke="transparent" points="270,-592.2 270,-785.2 393,-785.2 393,-592.2 270,-592.2"/>
<polygon fill="#f5f5f5" stroke="transparent" points="270.5,-761.7 270.5,-784.7 393.5,-784.7 393.5,-761.7 270.5,-761.7"/>
<polygon fill="none" stroke="#000000" points="270.5,-761.7 270.5,-784.7 393.5,-784.7 393.5,-761.7 270.5,-761.7"/>
<text text-anchor="start" x="275.5" y="-770.3" font-family="Helvetica,sans-Serif" font-weight="bold" font-size="11.00" fill="#000000">crn_int_basins</text>
<text text-anchor="start" x="359.0219" y="-769.8" font-family="Helvetica,sans-Serif" font-size="11.00" fill="#000000">[table]</text>
<polygon fill="none" stroke="#000000" points="270.5,-739.7 270.5,-761.7 393.5,-761.7 393.5,-739.7 270.5,-739.7"/>
<image xlink:href="../../images/foreignKeys.png" width="11px" height="12px" preserveAspectRatio="xMinYMin meet" x="275.5" y="-756.7"/>
<text text-anchor="start" x="299.5" y="-746.8" font-family="Helvetica,sans-Serif" font-size="11.00" fill="#000000">DBDOI</text>
<polygon fill="none" stroke="#000000" points="270.5,-717.7 270.5,-739.7 393.5,-739.7 393.5,-717.7 270.5,-717.7"/>
<image xlink:href="../../images/foreignKeys.png" width="11px" height="12px" preserveAspectRatio="xMinYMin meet" x="275.5" y="-734.7"/>
<text text-anchor="start" x="299.5" y="-724.8" font-family="Helvetica,sans-Serif" font-size="11.00" fill="#000000">SITEID</text>
<polygon fill="none" stroke="#000000" points="270.5,-695.7 270.5,-717.7 393.5,-717.7 393.5,-695.7 270.5,-695.7"/>
<image xlink:href="../../images/foreignKeys.png" width="11px" height="12px" preserveAspectRatio="xMinYMin meet" x="275.5" y="-712.7"/>
<text text-anchor="start" x="299.5" y="-702.8" font-family="Helvetica,sans-Serif" font-size="11.00" fill="#000000">METASITEID</text>
<polygon fill="none" stroke="#000000" points="270.5,-673.7 270.5,-695.7 393.5,-695.7 393.5,-673.7 270.5,-673.7"/>
<image xlink:href="../../images/foreignKeys.png" width="11px" height="12px" preserveAspectRatio="xMinYMin meet" x="275.5" y="-690.7"/>
<text text-anchor="start" x="299.5" y="-680.8" font-family="Helvetica,sans-Serif" font-size="11.00" fill="#000000">OAID</text>
<polygon fill="none" stroke="#000000" points="270.5,-651.7 270.5,-673.7 393.5,-673.7 393.5,-651.7 270.5,-651.7"/>
<image xlink:href="../../images/foreignKeys.png" width="11px" height="12px" preserveAspectRatio="xMinYMin meet" x="275.5" y="-668.7"/>
<text text-anchor="start" x="299.5" y="-658.8" font-family="Helvetica,sans-Serif" font-size="11.00" fill="#000000">PROJEPSGID</text>
<polygon fill="none" stroke="#000000" points="270.5,-629.7 270.5,-651.7 393.5,-651.7 393.5,-629.7 270.5,-629.7"/>
<image xlink:href="../../images/primaryKeys.png" width="11px" height="12px" preserveAspectRatio="xMinYMin meet" x="275.5" y="-646.7"/>
<text text-anchor="start" x="299.5" y="-636.8" font-family="Helvetica,sans-Serif" font-size="11.00" fill="#000000">id</text>
<polygon fill="none" stroke="#000000" points="270.5,-610.7 270.5,-629.7 393.5,-629.7 393.5,-610.7 270.5,-610.7"/>
<text text-anchor="start" x="273.5" y="-616.8" font-family="Helvetica,sans-Serif" font-size="11.00" fill="#000000">...</text>
<polygon fill="#ffffff" stroke="transparent" points="270.5,-591.7 270.5,-610.7 306.5,-610.7 306.5,-591.7 270.5,-591.7"/>
<polygon fill="none" stroke="#000000" points="270.5,-591.7 270.5,-610.7 306.5,-610.7 306.5,-591.7 270.5,-591.7"/>
<text text-anchor="start" x="273.5" y="-597.8" font-family="Helvetica,sans-Serif" font-size="11.00" fill="#000000">&lt; 5</text>
<polygon fill="#ffffff" stroke="transparent" points="306.5,-591.7 306.5,-610.7 373.5,-610.7 373.5,-591.7 306.5,-591.7"/>
<polygon fill="none" stroke="#000000" points="306.5,-591.7 306.5,-610.7 373.5,-610.7 373.5,-591.7 306.5,-591.7"/>
<text text-anchor="start" x="316.7089" y="-597.8" font-family="Helvetica,sans-Serif" font-size="11.00" fill="#000000">4.152 rows</text>
<polygon fill="#ffffff" stroke="transparent" points="373.5,-591.7 373.5,-610.7 393.5,-610.7 393.5,-591.7 373.5,-591.7"/>
<polygon fill="none" stroke="#000000" points="373.5,-591.7 373.5,-610.7 393.5,-610.7 393.5,-591.7 373.5,-591.7"/>
<text text-anchor="start" x="384.3862" y="-597.8" font-family="Helvetica,sans-Serif" font-size="11.00" fill="#000000"> &#160;</text>
</a>
</g>
</g>
<!-- crn_int_basins&#45;&gt;global_Author -->
<g id="edge3" class="edge">
<title>crn_int_basins:w&#45;&gt;global_Author:e</title>
<path fill="none" stroke="#000000" stroke-dasharray="5,2" d="M256.2612,-681.3804C224.3342,-663.3199 257.2653,-577.7 208,-577.7"/>
<polygon fill="#000000" stroke="#000000" points="262.7089,-682.8836 269.6826,-688.206 266.6045,-683.7918 270.5,-684.7 270.5,-684.7 270.5,-684.7 266.6045,-683.7918 271.3174,-681.194 262.7089,-682.8836 262.7089,-682.8836"/>
<ellipse fill="none" stroke="#000000" cx="259.5925" cy="-682.157" rx="3.2" ry="3.2"/>
</g>
<!-- crn_xxl_basins -->
<g id="node5" class="node">
<title>crn_xxl_basins</title>
<g id="a_node5"><a xlink:href="../../tables/crn_xxl_basins.html" xlink:title="crn_xxl_basins" target="_top">
<polygon fill="#ffffff" stroke="transparent" points="269,-378.2 269,-571.2 394,-571.2 394,-378.2 269,-378.2"/>
<polygon fill="#f5f5f5" stroke="transparent" points="269.5,-547.7 269.5,-570.7 394.5,-570.7 394.5,-547.7 269.5,-547.7"/>
<polygon fill="none" stroke="#000000" points="269.5,-547.7 269.5,-570.7 394.5,-570.7 394.5,-547.7 269.5,-547.7"/>
<text text-anchor="start" x="274.5" y="-556.3" font-family="Helvetica,sans-Serif" font-weight="bold" font-size="11.00" fill="#000000">crn_xxl_basins</text>
<text text-anchor="start" x="360.0219" y="-555.8" font-family="Helvetica,sans-Serif" font-size="11.00" fill="#000000">[table]</text>
<polygon fill="none" stroke="#000000" points="269.5,-525.7 269.5,-547.7 394.5,-547.7 394.5,-525.7 269.5,-525.7"/>
<image xlink:href="../../images/foreignKeys.png" width="11px" height="12px" preserveAspectRatio="xMinYMin meet" x="274.5" y="-542.7"/>
<text text-anchor="start" x="298.5" y="-532.8" font-family="Helvetica,sans-Serif" font-size="11.00" fill="#000000">DBDOI</text>
<polygon fill="none" stroke="#000000" points="269.5,-503.7 269.5,-525.7 394.5,-525.7 394.5,-503.7 269.5,-503.7"/>
<image xlink:href="../../images/foreignKeys.png" width="11px" height="12px" preserveAspectRatio="xMinYMin meet" x="274.5" y="-520.7"/>
<text text-anchor="start" x="298.5" y="-510.8" font-family="Helvetica,sans-Serif" font-size="11.00" fill="#000000">SITEID</text>
<polygon fill="none" stroke="#000000" points="269.5,-481.7 269.5,-503.7 394.5,-503.7 394.5,-481.7 269.5,-481.7"/>
<image xlink:href="../../images/foreignKeys.png" width="11px" height="12px" preserveAspectRatio="xMinYMin meet" x="274.5" y="-498.7"/>
<text text-anchor="start" x="298.5" y="-488.8" font-family="Helvetica,sans-Serif" font-size="11.00" fill="#000000">METASITEID</text>
<polygon fill="none" stroke="#000000" points="269.5,-459.7 269.5,-481.7 394.5,-481.7 394.5,-459.7 269.5,-459.7"/>
<image xlink:href="../../images/foreignKeys.png" width="11px" height="12px" preserveAspectRatio="xMinYMin meet" x="274.5" y="-476.7"/>
<text text-anchor="start" x="298.5" y="-466.8" font-family="Helvetica,sans-Serif" font-size="11.00" fill="#000000">OAID</text>
<polygon fill="none" stroke="#000000" points="269.5,-437.7 269.5,-459.7 394.5,-459.7 394.5,-437.7 269.5,-437.7"/>
<image xlink:href="../../images/foreignKeys.png" width="11px" height="12px" preserveAspectRatio="xMinYMin meet" x="274.5" y="-454.7"/>
<text text-anchor="start" x="298.5" y="-444.8" font-family="Helvetica,sans-Serif" font-size="11.00" fill="#000000">PROJEPSGID</text>
<polygon fill="none" stroke="#000000" points="269.5,-415.7 269.5,-437.7 394.5,-437.7 394.5,-415.7 269.5,-415.7"/>
<image xlink:href="../../images/primaryKeys.png" width="11px" height="12px" preserveAspectRatio="xMinYMin meet" x="274.5" y="-432.7"/>
<text text-anchor="start" x="298.5" y="-422.8" font-family="Helvetica,sans-Serif" font-size="11.00" fill="#000000">id</text>
<polygon fill="none" stroke="#000000" points="269.5,-396.7 269.5,-415.7 394.5,-415.7 394.5,-396.7 269.5,-396.7"/>
<text text-anchor="start" x="272.5" y="-402.8" font-family="Helvetica,sans-Serif" font-size="11.00" fill="#000000">...</text>
<polygon fill="#ffffff" stroke="transparent" points="269.5,-377.7 269.5,-396.7 311.5,-396.7 311.5,-377.7 269.5,-377.7"/>
<polygon fill="none" stroke="#000000" points="269.5,-377.7 269.5,-396.7 311.5,-396.7 311.5,-377.7 269.5,-377.7"/>
<text text-anchor="start" x="272.5" y="-383.8" font-family="Helvetica,sans-Serif" font-size="11.00" fill="#000000">&lt; 5</text>
<polygon fill="#ffffff" stroke="transparent" points="311.5,-377.7 311.5,-396.7 371.5,-396.7 371.5,-377.7 311.5,-377.7"/>
<polygon fill="none" stroke="#000000" points="311.5,-377.7 311.5,-396.7 371.5,-396.7 371.5,-377.7 311.5,-377.7"/>
<text text-anchor="start" x="323.8807" y="-383.8" font-family="Helvetica,sans-Serif" font-size="11.00" fill="#000000">206 rows</text>
<polygon fill="#ffffff" stroke="transparent" points="371.5,-377.7 371.5,-396.7 394.5,-396.7 394.5,-377.7 371.5,-377.7"/>
<polygon fill="none" stroke="#000000" points="371.5,-377.7 371.5,-396.7 394.5,-396.7 394.5,-377.7 371.5,-377.7"/>
<text text-anchor="start" x="385.3862" y="-383.8" font-family="Helvetica,sans-Serif" font-size="11.00" fill="#000000"> &#160;</text>
</a>
</g>
</g>
<!-- crn_xxl_basins&#45;&gt;global_Author -->
<g id="edge4" class="edge">
<title>crn_xxl_basins:w&#45;&gt;global_Author:e</title>
<path fill="none" stroke="#000000" stroke-dasharray="5,2" d="M255.342,-474.0196C223.6702,-492.0801 257.066,-577.7 208,-577.7"/>
<polygon fill="#000000" stroke="#000000" points="261.7112,-472.5263 270.3218,-474.2049 265.6056,-471.6131 269.5,-470.7 269.5,-470.7 269.5,-470.7 265.6056,-471.6131 268.6782,-467.1951 261.7112,-472.5263 261.7112,-472.5263"/>
<ellipse fill="none" stroke="#000000" cx="258.5957" cy="-473.2568" rx="3.2" ry="3.2"/>
</g>
<!-- global_RefCore -->
<g id="node6" class="node">
<title>global_RefCore</title>
<g id="a_node6"><a xlink:href="../../tables/global_RefCore.html" xlink:title="global_RefCore" target="_top">
<polygon fill="#ffffff" stroke="transparent" points="268,-208.2 268,-357.2 395,-357.2 395,-208.2 268,-208.2"/>
<polygon fill="#f5f5f5" stroke="transparent" points="268.5,-333.7 268.5,-356.7 395.5,-356.7 395.5,-333.7 268.5,-333.7"/>
<polygon fill="none" stroke="#000000" points="268.5,-333.7 268.5,-356.7 395.5,-356.7 395.5,-333.7 268.5,-333.7"/>
<text text-anchor="start" x="273.5" y="-342.3" font-family="Helvetica,sans-Serif" font-weight="bold" font-size="11.00" fill="#000000">global_RefCore</text>
<text text-anchor="start" x="361.0219" y="-341.8" font-family="Helvetica,sans-Serif" font-size="11.00" fill="#000000">[table]</text>
<polygon fill="none" stroke="#000000" points="268.5,-311.7 268.5,-333.7 395.5,-333.7 395.5,-311.7 268.5,-311.7"/>
<image xlink:href="../../images/primaryKeys.png" width="11px" height="12px" preserveAspectRatio="xMinYMin meet" x="273.5" y="-328.7"/>
<text text-anchor="start" x="297.5" y="-318.8" font-family="Helvetica,sans-Serif" font-size="11.00" fill="#000000">REFDBID</text>
<polygon fill="none" stroke="#000000" points="268.5,-289.7 268.5,-311.7 395.5,-311.7 395.5,-289.7 268.5,-289.7"/>
<image xlink:href="../../images/foreignKeys.png" width="11px" height="12px" preserveAspectRatio="xMinYMin meet" x="273.5" y="-306.7"/>
<text text-anchor="start" x="297.5" y="-296.8" font-family="Helvetica,sans-Serif" font-size="11.00" fill="#000000">OAID</text>
<polygon fill="none" stroke="#000000" points="268.5,-267.7 268.5,-289.7 395.5,-289.7 395.5,-267.7 268.5,-267.7"/>
<image xlink:href="../../images/foreignKeys.png" width="11px" height="12px" preserveAspectRatio="xMinYMin meet" x="273.5" y="-284.7"/>
<text text-anchor="start" x="297.5" y="-274.8" font-family="Helvetica,sans-Serif" font-size="11.00" fill="#000000">PUBTYPEID</text>
<polygon fill="none" stroke="#000000" points="268.5,-245.7 268.5,-267.7 395.5,-267.7 395.5,-245.7 268.5,-245.7"/>
<image xlink:href="../../images/foreignKeys.png" width="11px" height="12px" preserveAspectRatio="xMinYMin meet" x="273.5" y="-262.7"/>
<text text-anchor="start" x="297.5" y="-252.8" font-family="Helvetica,sans-Serif" font-size="11.00" fill="#000000">JOURNALID</text>
<polygon fill="none" stroke="#000000" points="268.5,-226.7 268.5,-245.7 395.5,-245.7 395.5,-226.7 268.5,-226.7"/>
<text text-anchor="start" x="271.5" y="-232.8" font-family="Helvetica,sans-Serif" font-size="11.00" fill="#000000">...</text>
<polygon fill="#ffffff" stroke="transparent" points="268.5,-207.7 268.5,-226.7 299.5,-226.7 299.5,-207.7 268.5,-207.7"/>
<polygon fill="none" stroke="#000000" points="268.5,-207.7 268.5,-226.7 299.5,-226.7 299.5,-207.7 268.5,-207.7"/>
<text text-anchor="start" x="271.5" y="-213.8" font-family="Helvetica,sans-Serif" font-size="11.00" fill="#000000">&lt; 5</text>
<polygon fill="#ffffff" stroke="transparent" points="299.5,-207.7 299.5,-226.7 363.5,-226.7 363.5,-207.7 299.5,-207.7"/>
<polygon fill="none" stroke="#000000" points="299.5,-207.7 299.5,-226.7 363.5,-226.7 363.5,-207.7 299.5,-207.7"/>
<text text-anchor="start" x="306.7089" y="-213.8" font-family="Helvetica,sans-Serif" font-size="11.00" fill="#000000">3.936 rows</text>
<polygon fill="#ffffff" stroke="transparent" points="363.5,-207.7 363.5,-226.7 395.5,-226.7 395.5,-207.7 363.5,-207.7"/>
<polygon fill="none" stroke="#000000" points="363.5,-207.7 363.5,-226.7 395.5,-226.7 395.5,-207.7 363.5,-207.7"/>
<text text-anchor="start" x="370.7904" y="-213.8" font-family="Helvetica,sans-Serif" font-size="11.00" fill="#000000">36 &gt;</text>
</a>
</g>
</g>
<!-- global_RefCore&#45;&gt;global_Author -->
<g id="edge5" class="edge">
<title>global_RefCore:w&#45;&gt;global_Author:e</title>
<path fill="none" stroke="#000000" d="M255.1925,-306.2332C215.591,-345.2736 265.7151,-577.7 208,-577.7"/>
<polygon fill="#000000" stroke="#000000" points="261.1131,-303.7715 269.8822,-304.0241 264.8065,-302.2357 268.5,-300.7 268.5,-300.7 268.5,-300.7 264.8065,-302.2357 267.1178,-297.3759 261.1131,-303.7715 261.1131,-303.7715"/>
<ellipse fill="none" stroke="#000000" cx="258.1583" cy="-305.0001" rx="3.2" ry="3.2"/>
</g>
<!-- sahulchar_units -->
<g id="node7" class="node">
<title>sahulchar_units</title>
<g id="a_node7"><a xlink:href="../../tables/sahulchar_units.html" xlink:title="sahulchar_units" target="_top">
<polygon fill="#ffffff" stroke="transparent" points="266,-38.2 266,-187.2 397,-187.2 397,-38.2 266,-38.2"/>
<polygon fill="#f5f5f5" stroke="transparent" points="266.5,-163.7 266.5,-186.7 397.5,-186.7 397.5,-163.7 266.5,-163.7"/>
<polygon fill="none" stroke="#000000" points="266.5,-163.7 266.5,-186.7 397.5,-186.7 397.5,-163.7 266.5,-163.7"/>
<text text-anchor="start" x="271.5" y="-172.3" font-family="Helvetica,sans-Serif" font-weight="bold" font-size="11.00" fill="#000000">sahulchar_units</text>
<text text-anchor="start" x="363.0219" y="-171.8" font-family="Helvetica,sans-Serif" font-size="11.00" fill="#000000">[table]</text>
<polygon fill="none" stroke="#000000" points="266.5,-141.7 266.5,-163.7 397.5,-163.7 397.5,-141.7 266.5,-141.7"/>
<image xlink:href="../../images/foreignKeys.png" width="11px" height="12px" preserveAspectRatio="xMinYMin meet" x="271.5" y="-158.7"/>
<text text-anchor="start" x="295.5" y="-148.8" font-family="Helvetica,sans-Serif" font-size="11.00" fill="#000000">UNITID</text>
<polygon fill="none" stroke="#000000" points="266.5,-119.7 266.5,-141.7 397.5,-141.7 397.5,-119.7 266.5,-119.7"/>
<image xlink:href="../../images/foreignKeys.png" width="11px" height="12px" preserveAspectRatio="xMinYMin meet" x="271.5" y="-136.7"/>
<text text-anchor="start" x="295.5" y="-126.8" font-family="Helvetica,sans-Serif" font-size="11.00" fill="#000000">SITEID</text>
<polygon fill="none" stroke="#000000" points="266.5,-97.7 266.5,-119.7 397.5,-119.7 397.5,-97.7 266.5,-97.7"/>
<image xlink:href="../../images/foreignKeys.png" width="11px" height="12px" preserveAspectRatio="xMinYMin meet" x="271.5" y="-114.7"/>
<text text-anchor="start" x="295.5" y="-104.8" font-family="Helvetica,sans-Serif" font-size="11.00" fill="#000000">OAID</text>
<polygon fill="none" stroke="#000000" points="266.5,-75.7 266.5,-97.7 397.5,-97.7 397.5,-75.7 266.5,-75.7"/>
<image xlink:href="../../images/foreignKeys.png" width="11px" height="12px" preserveAspectRatio="xMinYMin meet" x="271.5" y="-92.7"/>
<text text-anchor="start" x="295.5" y="-82.8" font-family="Helvetica,sans-Serif" font-size="11.00" fill="#000000">METASITEID</text>
<polygon fill="none" stroke="#000000" points="266.5,-56.7 266.5,-75.7 397.5,-75.7 397.5,-56.7 266.5,-56.7"/>
<text text-anchor="start" x="269.5" y="-62.8" font-family="Helvetica,sans-Serif" font-size="11.00" fill="#000000">...</text>
<polygon fill="#ffffff" stroke="transparent" points="266.5,-37.7 266.5,-56.7 311.5,-56.7 311.5,-37.7 266.5,-37.7"/>
<polygon fill="none" stroke="#000000" points="266.5,-37.7 266.5,-56.7 311.5,-56.7 311.5,-37.7 266.5,-37.7"/>
<text text-anchor="start" x="269.5" y="-43.8" font-family="Helvetica,sans-Serif" font-size="11.00" fill="#000000">&lt; 4</text>
<polygon fill="#ffffff" stroke="transparent" points="311.5,-37.7 311.5,-56.7 373.5,-56.7 373.5,-37.7 311.5,-37.7"/>
<polygon fill="none" stroke="#000000" points="311.5,-37.7 311.5,-56.7 373.5,-56.7 373.5,-37.7 311.5,-37.7"/>
<text text-anchor="start" x="325.8807" y="-43.8" font-family="Helvetica,sans-Serif" font-size="11.00" fill="#000000">531 rows</text>
<polygon fill="#ffffff" stroke="transparent" points="373.5,-37.7 373.5,-56.7 397.5,-56.7 397.5,-37.7 373.5,-37.7"/>
<polygon fill="none" stroke="#000000" points="373.5,-37.7 373.5,-56.7 397.5,-56.7 397.5,-37.7 373.5,-37.7"/>
<text text-anchor="start" x="388.3862" y="-43.8" font-family="Helvetica,sans-Serif" font-size="11.00" fill="#000000"> &#160;</text>
</a>
</g>
</g>
<!-- sahulchar_units&#45;&gt;global_Author -->
<g id="edge6" class="edge">
<title>sahulchar_units:w&#45;&gt;global_Author:e</title>
<path fill="none" stroke="#000000" stroke-dasharray="5,2" d="M252.4172,-112.2054C176.2012,-155.1234 307.6963,-577.7 208,-577.7"/>
<polygon fill="#000000" stroke="#000000" points="258.7369,-110.6324 267.3696,-112.1934 262.6184,-109.6662 266.5,-108.7 266.5,-108.7 266.5,-108.7 262.6184,-109.6662 265.6304,-105.2066 258.7369,-110.6324 258.7369,-110.6324"/>
<ellipse fill="none" stroke="#000000" cx="255.6316" cy="-111.4054" rx="3.2" ry="3.2"/>
</g>
</g>
</svg>
