<?xml version="1.0" encoding="UTF-8" standalone="no"?>
<!DOCTYPE svg PUBLIC "-//W3C//DTD SVG 1.1//EN"
 "http://www.w3.org/Graphics/SVG/1.1/DTD/svg11.dtd">
<!-- Generated by graphviz version 2.40.1 (20161225.0304)
 -->
<!-- Title: twoDegreesRelationshipsDiagram Pages: 1 -->
<svg width="1098pt" height="1244pt"
 viewBox="0.00 0.00 1098.00 1243.79" xmlns="http://www.w3.org/2000/svg" xmlns:xlink="http://www.w3.org/1999/xlink">
<g id="graph0" class="graph" transform="scale(1 1) rotate(0) translate(4 1239.7905)">
<title>twoDegreesRelationshipsDiagram</title>
<polygon fill="#ffffff" stroke="transparent" points="-4,4 -4,-1239.7905 1094,-1239.7905 1094,4 -4,4"/>
<text text-anchor="middle" x="72.4936" y="-7.3" font-family="Helvetica,sans-Serif" font-size="11.00" fill="#000000">Generated by SchemaSpy</text>
<!-- arch_c14_DataCore -->
<g id="node1" class="node">
<title>arch_c14_DataCore</title>
<g id="a_node1"><a xlink:href="../../tables/arch_c14_DataCore.html" xlink:title="arch_c14_DataCore" target="_top">
<polygon fill="#ffffff" stroke="transparent" points="388,-568.7905 388,-629.7905 539,-629.7905 539,-568.7905 388,-568.7905"/>
<polygon fill="#f5f5f5" stroke="transparent" points="388.5,-606.2905 388.5,-629.2905 539.5,-629.2905 539.5,-606.2905 388.5,-606.2905"/>
<polygon fill="none" stroke="#000000" points="388.5,-606.2905 388.5,-629.2905 539.5,-629.2905 539.5,-606.2905 388.5,-606.2905"/>
<text text-anchor="start" x="393.5" y="-614.8905" font-family="Helvetica,sans-Serif" font-weight="bold" font-size="11.00" fill="#000000">arch_c14_DataCore</text>
<text text-anchor="start" x="505.0219" y="-614.3905" font-family="Helvetica,sans-Serif" font-size="11.00" fill="#000000">[table]</text>
<polygon fill="none" stroke="#000000" points="388.5,-587.2905 388.5,-606.2905 539.5,-606.2905 539.5,-587.2905 388.5,-587.2905"/>
<text text-anchor="start" x="391.5" y="-593.3905" font-family="Helvetica,sans-Serif" font-size="11.00" fill="#000000">...</text>
<polygon fill="#ffffff" stroke="transparent" points="388.5,-568.2905 388.5,-587.2905 437.5,-587.2905 437.5,-568.2905 388.5,-568.2905"/>
<polygon fill="none" stroke="#000000" points="388.5,-568.2905 388.5,-587.2905 437.5,-587.2905 437.5,-568.2905 388.5,-568.2905"/>
<text text-anchor="start" x="391.5" y="-574.3905" font-family="Helvetica,sans-Serif" font-size="11.00" fill="#000000">&lt; 24</text>
<polygon fill="#ffffff" stroke="transparent" points="437.5,-568.2905 437.5,-587.2905 507.5,-587.2905 507.5,-568.2905 437.5,-568.2905"/>
<polygon fill="none" stroke="#000000" points="437.5,-568.2905 437.5,-587.2905 507.5,-587.2905 507.5,-568.2905 437.5,-568.2905"/>
<text text-anchor="start" x="450.7089" y="-574.3905" font-family="Helvetica,sans-Serif" font-size="11.00" fill="#000000">9.501 rows</text>
<polygon fill="#ffffff" stroke="transparent" points="507.5,-568.2905 507.5,-587.2905 539.5,-587.2905 539.5,-568.2905 507.5,-568.2905"/>
<polygon fill="none" stroke="#000000" points="507.5,-568.2905 507.5,-587.2905 539.5,-587.2905 539.5,-568.2905 507.5,-568.2905"/>
<text text-anchor="start" x="520.9053" y="-574.3905" font-family="Helvetica,sans-Serif" font-size="11.00" fill="#000000">1 &gt;</text>
</a>
</g>
</g>
<!-- global_RefCore -->
<g id="node2" class="node">
<title>global_RefCore</title>
<g id="a_node2"><a xlink:href="../../tables/global_RefCore.html" xlink:title="global_RefCore" target="_top">
<polygon fill="#ffffff" stroke="transparent" points="208,-645.7905 208,-794.7905 335,-794.7905 335,-645.7905 208,-645.7905"/>
<polygon fill="#f5f5f5" stroke="transparent" points="208.5,-771.2905 208.5,-794.2905 335.5,-794.2905 335.5,-771.2905 208.5,-771.2905"/>
<polygon fill="none" stroke="#000000" points="208.5,-771.2905 208.5,-794.2905 335.5,-794.2905 335.5,-771.2905 208.5,-771.2905"/>
<text text-anchor="start" x="213.5" y="-779.8905" font-family="Helvetica,sans-Serif" font-weight="bold" font-size="11.00" fill="#000000">global_RefCore</text>
<text text-anchor="start" x="301.0219" y="-779.3905" font-family="Helvetica,sans-Serif" font-size="11.00" fill="#000000">[table]</text>
<polygon fill="none" stroke="#000000" points="208.5,-749.2905 208.5,-771.2905 335.5,-771.2905 335.5,-749.2905 208.5,-749.2905"/>
<image xlink:href="../../images/primaryKeys.png" width="11px" height="12px" preserveAspectRatio="xMinYMin meet" x="213.5" y="-766.291"/>
<text text-anchor="start" x="237.5" y="-756.3905" font-family="Helvetica,sans-Serif" font-size="11.00" fill="#000000">REFDBID</text>
<polygon fill="none" stroke="#000000" points="208.5,-727.2905 208.5,-749.2905 335.5,-749.2905 335.5,-727.2905 208.5,-727.2905"/>
<image xlink:href="../../images/foreignKeys.png" width="11px" height="12px" preserveAspectRatio="xMinYMin meet" x="213.5" y="-744.291"/>
<text text-anchor="start" x="237.5" y="-734.3905" font-family="Helvetica,sans-Serif" font-size="11.00" fill="#000000">OAID</text>
<polygon fill="none" stroke="#000000" points="208.5,-705.2905 208.5,-727.2905 335.5,-727.2905 335.5,-705.2905 208.5,-705.2905"/>
<image xlink:href="../../images/foreignKeys.png" width="11px" height="12px" preserveAspectRatio="xMinYMin meet" x="213.5" y="-722.291"/>
<text text-anchor="start" x="237.5" y="-712.3905" font-family="Helvetica,sans-Serif" font-size="11.00" fill="#000000">PUBTYPEID</text>
<polygon fill="none" stroke="#000000" points="208.5,-683.2905 208.5,-705.2905 335.5,-705.2905 335.5,-683.2905 208.5,-683.2905"/>
<image xlink:href="../../images/foreignKeys.png" width="11px" height="12px" preserveAspectRatio="xMinYMin meet" x="213.5" y="-700.291"/>
<text text-anchor="start" x="237.5" y="-690.3905" font-family="Helvetica,sans-Serif" font-size="11.00" fill="#000000">JOURNALID</text>
<polygon fill="none" stroke="#000000" points="208.5,-664.2905 208.5,-683.2905 335.5,-683.2905 335.5,-664.2905 208.5,-664.2905"/>
<text text-anchor="start" x="211.5" y="-670.3905" font-family="Helvetica,sans-Serif" font-size="11.00" fill="#000000">...</text>
<polygon fill="#ffffff" stroke="transparent" points="208.5,-645.2905 208.5,-664.2905 239.5,-664.2905 239.5,-645.2905 208.5,-645.2905"/>
<polygon fill="none" stroke="#000000" points="208.5,-645.2905 208.5,-664.2905 239.5,-664.2905 239.5,-645.2905 208.5,-645.2905"/>
<text text-anchor="start" x="211.5" y="-651.3905" font-family="Helvetica,sans-Serif" font-size="11.00" fill="#000000">&lt; 5</text>
<polygon fill="#ffffff" stroke="transparent" points="239.5,-645.2905 239.5,-664.2905 303.5,-664.2905 303.5,-645.2905 239.5,-645.2905"/>
<polygon fill="none" stroke="#000000" points="239.5,-645.2905 239.5,-664.2905 303.5,-664.2905 303.5,-645.2905 239.5,-645.2905"/>
<text text-anchor="start" x="246.7089" y="-651.3905" font-family="Helvetica,sans-Serif" font-size="11.00" fill="#000000">3.947 rows</text>
<polygon fill="#ffffff" stroke="transparent" points="303.5,-645.2905 303.5,-664.2905 335.5,-664.2905 335.5,-645.2905 303.5,-645.2905"/>
<polygon fill="none" stroke="#000000" points="303.5,-645.2905 303.5,-664.2905 335.5,-664.2905 335.5,-645.2905 303.5,-645.2905"/>
<text text-anchor="start" x="310.7904" y="-651.3905" font-family="Helvetica,sans-Serif" font-size="11.00" fill="#000000">37 &gt;</text>
</a>
</g>
</g>
<!-- arch_c14_DataCore&#45;&gt;global_RefCore -->
<g id="edge1" class="edge">
<title>arch_c14_DataCore:w&#45;&gt;global_RefCore:e</title>
<path fill="none" stroke="#000000" d="M373.9168,-594.9892C326.1386,-601.4336 406.2658,-742.7378 335.5,-760.2905"/>
<polygon fill="#000000" stroke="#000000" points="380.5317,-595.5794 388.18,-599.8763 384.5158,-595.935 388.5,-596.2905 388.5,-596.2905 388.5,-596.2905 384.5158,-595.935 388.82,-592.7048 380.5317,-595.5794 380.5317,-595.5794"/>
<ellipse fill="none" stroke="#000000" cx="377.3443" cy="-595.295" rx="3.2" ry="3.2"/>
</g>
<!-- arch_c14_DataCore&#45;&gt;global_RefCore -->
<g id="edge2" class="edge">
<title>arch_c14_DataCore:w&#45;&gt;global_RefCore:e</title>
<path fill="none" stroke="#000000" d="M373.9168,-597.7336C326.1386,-614.3582 406.2658,-754.7476 335.5,-760.2905"/>
<polygon fill="#000000" stroke="#000000" points="380.5389,-597.0784 388.8545,-599.873 384.5194,-596.6845 388.5,-596.2905 388.5,-596.2905 388.5,-596.2905 384.5194,-596.6845 388.1455,-592.708 380.5389,-597.0784 380.5389,-597.0784"/>
<ellipse fill="none" stroke="#000000" cx="377.3544" cy="-597.3935" rx="3.2" ry="3.2"/>
</g>
<!-- arch_c14_DataCore&#45;&gt;global_RefCore -->
<g id="edge3" class="edge">
<title>arch_c14_DataCore:w&#45;&gt;global_RefCore:e</title>
<path fill="none" stroke="#000000" d="M374.5297,-600.144C325.4583,-626.1007 406.565,-766.7847 335.5,-760.2905"/>
<polygon fill="#000000" stroke="#000000" points="380.788,-598.4178 389.4573,-599.7609 384.644,-597.3542 388.5,-596.2905 388.5,-596.2905 388.5,-596.2905 384.644,-597.3542 387.5427,-592.8201 380.788,-598.4178 380.788,-598.4178"/>
<ellipse fill="none" stroke="#000000" cx="377.7032" cy="-599.2687" rx="3.2" ry="3.2"/>
</g>
<!-- arch_c14_DataCore&#45;&gt;global_RefCore -->
<g id="edge4" class="edge">
<title>arch_c14_DataCore:w&#45;&gt;global_RefCore:e</title>
<path fill="none" stroke="#000000" d="M375.1565,-602.3061C324.7726,-637.8526 406.8642,-778.9234 335.5,-760.2905"/>
<polygon fill="#000000" stroke="#000000" points="381.2069,-599.5785 389.9796,-599.5725 384.8534,-597.9345 388.5,-596.2905 388.5,-596.2905 388.5,-596.2905 384.8534,-597.9345 387.0204,-593.0086 381.2069,-599.5785 381.2069,-599.5785"/>
<ellipse fill="none" stroke="#000000" cx="378.2896" cy="-600.8936" rx="3.2" ry="3.2"/>
</g>
<!-- global_Journal -->
<g id="node17" class="node">
<title>global_Journal</title>
<g id="a_node17"><a xlink:href="../../tables/global_Journal.html" xlink:title="global_Journal" target="_top">
<polygon fill="#ffffff" stroke="transparent" points="21.5,-546.7905 21.5,-607.7905 145.5,-607.7905 145.5,-546.7905 21.5,-546.7905"/>
<polygon fill="#f5f5f5" stroke="transparent" points="21.5,-584.2905 21.5,-607.2905 145.5,-607.2905 145.5,-584.2905 21.5,-584.2905"/>
<polygon fill="none" stroke="#000000" points="21.5,-584.2905 21.5,-607.2905 145.5,-607.2905 145.5,-584.2905 21.5,-584.2905"/>
<text text-anchor="start" x="26.5" y="-592.8905" font-family="Helvetica,sans-Serif" font-weight="bold" font-size="11.00" fill="#000000">global_Journal</text>
<text text-anchor="start" x="111.0219" y="-592.3905" font-family="Helvetica,sans-Serif" font-size="11.00" fill="#000000">[table]</text>
<polygon fill="none" stroke="#000000" points="21.5,-565.2905 21.5,-584.2905 145.5,-584.2905 145.5,-565.2905 21.5,-565.2905"/>
<text text-anchor="start" x="24.5" y="-571.3905" font-family="Helvetica,sans-Serif" font-size="11.00" fill="#000000">...</text>
<polygon fill="#ffffff" stroke="transparent" points="21.5,-546.2905 21.5,-565.2905 49.5,-565.2905 49.5,-546.2905 21.5,-546.2905"/>
<polygon fill="none" stroke="#000000" points="21.5,-546.2905 21.5,-565.2905 49.5,-565.2905 49.5,-546.2905 21.5,-546.2905"/>
<text text-anchor="start" x="24.5" y="-552.3905" font-family="Helvetica,sans-Serif" font-size="11.00" fill="#000000"> &#160;</text>
<polygon fill="#ffffff" stroke="transparent" points="49.5,-546.2905 49.5,-565.2905 116.5,-565.2905 116.5,-546.2905 49.5,-546.2905"/>
<polygon fill="none" stroke="#000000" points="49.5,-546.2905 49.5,-565.2905 116.5,-565.2905 116.5,-546.2905 49.5,-546.2905"/>
<text text-anchor="start" x="59.7089" y="-552.3905" font-family="Helvetica,sans-Serif" font-size="11.00" fill="#000000">1.420 rows</text>
<polygon fill="#ffffff" stroke="transparent" points="116.5,-546.2905 116.5,-565.2905 145.5,-565.2905 145.5,-546.2905 116.5,-546.2905"/>
<polygon fill="none" stroke="#000000" points="116.5,-546.2905 116.5,-565.2905 145.5,-565.2905 145.5,-546.2905 116.5,-546.2905"/>
<text text-anchor="start" x="126.9053" y="-552.3905" font-family="Helvetica,sans-Serif" font-size="11.00" fill="#000000">1 &gt;</text>
</a>
</g>
</g>
<!-- global_RefCore&#45;&gt;global_Journal -->
<g id="edge36" class="edge">
<title>global_RefCore:w&#45;&gt;global_Journal:e</title>
<path fill="none" stroke="#000000" d="M194.001,-691.0808C158.3661,-671.9975 199.8541,-574.2905 145.5,-574.2905"/>
<polygon fill="#000000" stroke="#000000" points="200.6891,-692.5614 207.7219,-697.8054 204.5946,-693.426 208.5,-694.2905 208.5,-694.2905 208.5,-694.2905 204.5946,-693.426 209.2781,-690.7756 200.6891,-692.5614 200.6891,-692.5614"/>
<ellipse fill="none" stroke="#000000" cx="197.5647" cy="-691.8697" rx="3.2" ry="3.2"/>
</g>
<!-- global_Author -->
<g id="node18" class="node">
<title>global_Author</title>
<g id="a_node18"><a xlink:href="../../tables/global_Author.html" xlink:title="global_Author" target="_top">
<polygon fill="#ffffff" stroke="transparent" points="23.5,-710.7905 23.5,-771.7905 143.5,-771.7905 143.5,-710.7905 23.5,-710.7905"/>
<polygon fill="#f5f5f5" stroke="transparent" points="23.5,-748.2905 23.5,-771.2905 143.5,-771.2905 143.5,-748.2905 23.5,-748.2905"/>
<polygon fill="none" stroke="#000000" points="23.5,-748.2905 23.5,-771.2905 143.5,-771.2905 143.5,-748.2905 23.5,-748.2905"/>
<text text-anchor="start" x="28.5" y="-756.8905" font-family="Helvetica,sans-Serif" font-weight="bold" font-size="11.00" fill="#000000">global_Author</text>
<text text-anchor="start" x="109.0219" y="-756.3905" font-family="Helvetica,sans-Serif" font-size="11.00" fill="#000000">[table]</text>
<polygon fill="none" stroke="#000000" points="23.5,-729.2905 23.5,-748.2905 143.5,-748.2905 143.5,-729.2905 23.5,-729.2905"/>
<text text-anchor="start" x="26.5" y="-735.3905" font-family="Helvetica,sans-Serif" font-size="11.00" fill="#000000">...</text>
<polygon fill="#ffffff" stroke="transparent" points="23.5,-710.2905 23.5,-729.2905 49.5,-729.2905 49.5,-710.2905 23.5,-710.2905"/>
<polygon fill="none" stroke="#000000" points="23.5,-710.2905 23.5,-729.2905 49.5,-729.2905 49.5,-710.2905 23.5,-710.2905"/>
<text text-anchor="start" x="26.5" y="-716.3905" font-family="Helvetica,sans-Serif" font-size="11.00" fill="#000000"> &#160;</text>
<polygon fill="#ffffff" stroke="transparent" points="49.5,-710.2905 49.5,-729.2905 115.5,-729.2905 115.5,-710.2905 49.5,-710.2905"/>
<polygon fill="none" stroke="#000000" points="49.5,-710.2905 49.5,-729.2905 115.5,-729.2905 115.5,-710.2905 49.5,-710.2905"/>
<text text-anchor="start" x="58.7089" y="-716.3905" font-family="Helvetica,sans-Serif" font-size="11.00" fill="#000000">1.733 rows</text>
<polygon fill="#ffffff" stroke="transparent" points="115.5,-710.2905 115.5,-729.2905 143.5,-729.2905 143.5,-710.2905 115.5,-710.2905"/>
<polygon fill="none" stroke="#000000" points="115.5,-710.2905 115.5,-729.2905 143.5,-729.2905 143.5,-710.2905 115.5,-710.2905"/>
<text text-anchor="start" x="124.9053" y="-716.3905" font-family="Helvetica,sans-Serif" font-size="11.00" fill="#000000">1 &gt;</text>
</a>
</g>
</g>
<!-- global_RefCore&#45;&gt;global_Author -->
<g id="edge37" class="edge">
<title>global_RefCore:w&#45;&gt;global_Author:e</title>
<path fill="none" stroke="#000000" d="M193.9889,-738.2905C176.0526,-738.2905 166.8594,-738.2905 143.5,-738.2905"/>
<polygon fill="#000000" stroke="#000000" points="200.5,-738.2906 208.5,-741.8905 204.5,-738.2906 208.5,-738.2905 208.5,-738.2905 208.5,-738.2905 204.5,-738.2906 208.5,-734.6905 200.5,-738.2906 200.5,-738.2906"/>
<ellipse fill="none" stroke="#000000" cx="197.3" cy="-738.2906" rx="3.2" ry="3.2"/>
</g>
<!-- global_PubType -->
<g id="node19" class="node">
<title>global_PubType</title>
<g id="a_node19"><a xlink:href="../../tables/global_PubType.html" xlink:title="global_PubType" target="_top">
<polygon fill="#ffffff" stroke="transparent" points="18,-628.7905 18,-689.7905 149,-689.7905 149,-628.7905 18,-628.7905"/>
<polygon fill="#f5f5f5" stroke="transparent" points="18.5,-666.2905 18.5,-689.2905 149.5,-689.2905 149.5,-666.2905 18.5,-666.2905"/>
<polygon fill="none" stroke="#000000" points="18.5,-666.2905 18.5,-689.2905 149.5,-689.2905 149.5,-666.2905 18.5,-666.2905"/>
<text text-anchor="start" x="23.5" y="-674.8905" font-family="Helvetica,sans-Serif" font-weight="bold" font-size="11.00" fill="#000000">global_PubType</text>
<text text-anchor="start" x="115.0219" y="-674.3905" font-family="Helvetica,sans-Serif" font-size="11.00" fill="#000000">[table]</text>
<polygon fill="none" stroke="#000000" points="18.5,-647.2905 18.5,-666.2905 149.5,-666.2905 149.5,-647.2905 18.5,-647.2905"/>
<text text-anchor="start" x="21.5" y="-653.3905" font-family="Helvetica,sans-Serif" font-size="11.00" fill="#000000">...</text>
<polygon fill="#ffffff" stroke="transparent" points="18.5,-628.2905 18.5,-647.2905 57.5,-647.2905 57.5,-628.2905 18.5,-628.2905"/>
<polygon fill="none" stroke="#000000" points="18.5,-628.2905 18.5,-647.2905 57.5,-647.2905 57.5,-628.2905 18.5,-628.2905"/>
<text text-anchor="start" x="21.5" y="-634.3905" font-family="Helvetica,sans-Serif" font-size="11.00" fill="#000000"> &#160;</text>
<polygon fill="#ffffff" stroke="transparent" points="57.5,-628.2905 57.5,-647.2905 114.5,-647.2905 114.5,-628.2905 57.5,-628.2905"/>
<polygon fill="none" stroke="#000000" points="57.5,-628.2905 57.5,-647.2905 114.5,-647.2905 114.5,-628.2905 57.5,-628.2905"/>
<text text-anchor="start" x="72.9956" y="-634.3905" font-family="Helvetica,sans-Serif" font-size="11.00" fill="#000000">16 rows</text>
<polygon fill="#ffffff" stroke="transparent" points="114.5,-628.2905 114.5,-647.2905 149.5,-647.2905 149.5,-628.2905 114.5,-628.2905"/>
<polygon fill="none" stroke="#000000" points="114.5,-628.2905 114.5,-647.2905 149.5,-647.2905 149.5,-628.2905 114.5,-628.2905"/>
<text text-anchor="start" x="130.9053" y="-634.3905" font-family="Helvetica,sans-Serif" font-size="11.00" fill="#000000">1 &gt;</text>
</a>
</g>
</g>
<!-- global_RefCore&#45;&gt;global_PubType -->
<g id="edge38" class="edge">
<title>global_RefCore:w&#45;&gt;global_PubType:e</title>
<path fill="none" stroke="#000000" d="M194.4595,-712.3538C174.7389,-699.0054 181.0558,-656.2905 149.5,-656.2905"/>
<polygon fill="#000000" stroke="#000000" points="200.7971,-714.1307 207.5281,-719.7569 204.6485,-715.2106 208.5,-716.2905 208.5,-716.2905 208.5,-716.2905 204.6485,-715.2106 209.4719,-712.8242 200.7971,-714.1307 200.7971,-714.1307"/>
<ellipse fill="none" stroke="#000000" cx="197.7159" cy="-713.2668" rx="3.2" ry="3.2"/>
</g>
<!-- global_RefAbstract -->
<g id="node20" class="node">
<title>global_RefAbstract</title>
<g id="a_node20"><a xlink:href="../../tables/global_RefAbstract.html" xlink:title="global_RefAbstract" target="_top">
<polygon fill="#ffffff" stroke="transparent" points="9,-874.7905 9,-935.7905 158,-935.7905 158,-874.7905 9,-874.7905"/>
<polygon fill="#f5f5f5" stroke="transparent" points="9.5,-912.2905 9.5,-935.2905 158.5,-935.2905 158.5,-912.2905 9.5,-912.2905"/>
<polygon fill="none" stroke="#000000" points="9.5,-912.2905 9.5,-935.2905 158.5,-935.2905 158.5,-912.2905 9.5,-912.2905"/>
<text text-anchor="start" x="14.5" y="-920.8905" font-family="Helvetica,sans-Serif" font-weight="bold" font-size="11.00" fill="#000000">global_RefAbstract</text>
<text text-anchor="start" x="124.0219" y="-920.3905" font-family="Helvetica,sans-Serif" font-size="11.00" fill="#000000">[table]</text>
<polygon fill="none" stroke="#000000" points="9.5,-893.2905 9.5,-912.2905 158.5,-912.2905 158.5,-893.2905 9.5,-893.2905"/>
<text text-anchor="start" x="12.5" y="-899.3905" font-family="Helvetica,sans-Serif" font-size="11.00" fill="#000000">...</text>
<polygon fill="#ffffff" stroke="transparent" points="9.5,-874.2905 9.5,-893.2905 49.5,-893.2905 49.5,-874.2905 9.5,-874.2905"/>
<polygon fill="none" stroke="#000000" points="9.5,-874.2905 9.5,-893.2905 49.5,-893.2905 49.5,-874.2905 9.5,-874.2905"/>
<text text-anchor="start" x="12.5" y="-880.3905" font-family="Helvetica,sans-Serif" font-size="11.00" fill="#000000"> &#160;</text>
<polygon fill="#ffffff" stroke="transparent" points="49.5,-874.2905 49.5,-893.2905 122.5,-893.2905 122.5,-874.2905 49.5,-874.2905"/>
<polygon fill="none" stroke="#000000" points="49.5,-874.2905 49.5,-893.2905 122.5,-893.2905 122.5,-874.2905 49.5,-874.2905"/>
<text text-anchor="start" x="65.7089" y="-880.3905" font-family="Helvetica,sans-Serif" font-size="11.00" fill="#000000">3.962 rows</text>
<polygon fill="#ffffff" stroke="transparent" points="122.5,-874.2905 122.5,-893.2905 158.5,-893.2905 158.5,-874.2905 122.5,-874.2905"/>
<polygon fill="none" stroke="#000000" points="122.5,-874.2905 122.5,-893.2905 158.5,-893.2905 158.5,-874.2905 122.5,-874.2905"/>
<text text-anchor="start" x="139.9053" y="-880.3905" font-family="Helvetica,sans-Serif" font-size="11.00" fill="#000000">1 &gt;</text>
</a>
</g>
</g>
<!-- global_RefCore&#45;&gt;global_RefAbstract -->
<g id="edge39" class="edge">
<title>global_RefCore:w&#45;&gt;global_RefAbstract:e</title>
<path fill="none" stroke="#000000" d="M197.9373,-761.7892C151.1881,-776.9653 221.358,-902.2905 158.5,-902.2905"/>
<polygon fill="#000000" stroke="#000000" points="207.146,-756.4426 208.2699,-764.3633 206.6857,-764.588 205.5619,-756.6674 207.146,-756.4426"/>
<polyline fill="none" stroke="#000000" points="208.5,-760.2905 204.5397,-760.8525 "/>
<ellipse fill="none" stroke="#000000" cx="201.3714" cy="-761.302" rx="3.2" ry="3.2"/>
</g>
<!-- global_RefKeyword -->
<g id="node21" class="node">
<title>global_RefKeyword</title>
<g id="a_node21"><a xlink:href="../../tables/global_RefKeyword.html" xlink:title="global_RefKeyword" target="_top">
<polygon fill="#ffffff" stroke="transparent" points="8,-792.7905 8,-853.7905 159,-853.7905 159,-792.7905 8,-792.7905"/>
<polygon fill="#f5f5f5" stroke="transparent" points="8.5,-830.2905 8.5,-853.2905 159.5,-853.2905 159.5,-830.2905 8.5,-830.2905"/>
<polygon fill="none" stroke="#000000" points="8.5,-830.2905 8.5,-853.2905 159.5,-853.2905 159.5,-830.2905 8.5,-830.2905"/>
<text text-anchor="start" x="13.5" y="-838.8905" font-family="Helvetica,sans-Serif" font-weight="bold" font-size="11.00" fill="#000000">global_RefKeyword</text>
<text text-anchor="start" x="125.0219" y="-838.3905" font-family="Helvetica,sans-Serif" font-size="11.00" fill="#000000">[table]</text>
<polygon fill="none" stroke="#000000" points="8.5,-811.2905 8.5,-830.2905 159.5,-830.2905 159.5,-811.2905 8.5,-811.2905"/>
<text text-anchor="start" x="11.5" y="-817.3905" font-family="Helvetica,sans-Serif" font-size="11.00" fill="#000000">...</text>
<polygon fill="#ffffff" stroke="transparent" points="8.5,-792.2905 8.5,-811.2905 49.5,-811.2905 49.5,-792.2905 8.5,-792.2905"/>
<polygon fill="none" stroke="#000000" points="8.5,-792.2905 8.5,-811.2905 49.5,-811.2905 49.5,-792.2905 8.5,-792.2905"/>
<text text-anchor="start" x="11.5" y="-798.3905" font-family="Helvetica,sans-Serif" font-size="11.00" fill="#000000"> &#160;</text>
<polygon fill="#ffffff" stroke="transparent" points="49.5,-792.2905 49.5,-811.2905 123.5,-811.2905 123.5,-792.2905 49.5,-792.2905"/>
<polygon fill="none" stroke="#000000" points="49.5,-792.2905 49.5,-811.2905 123.5,-811.2905 123.5,-792.2905 49.5,-792.2905"/>
<text text-anchor="start" x="66.7089" y="-798.3905" font-family="Helvetica,sans-Serif" font-size="11.00" fill="#000000">3.962 rows</text>
<polygon fill="#ffffff" stroke="transparent" points="123.5,-792.2905 123.5,-811.2905 159.5,-811.2905 159.5,-792.2905 123.5,-792.2905"/>
<polygon fill="none" stroke="#000000" points="123.5,-792.2905 123.5,-811.2905 159.5,-811.2905 159.5,-792.2905 123.5,-792.2905"/>
<text text-anchor="start" x="140.9053" y="-798.3905" font-family="Helvetica,sans-Serif" font-size="11.00" fill="#000000">1 &gt;</text>
</a>
</g>
</g>
<!-- global_RefCore&#45;&gt;global_RefKeyword -->
<g id="edge40" class="edge">
<title>global_RefCore:w&#45;&gt;global_RefKeyword:e</title>
<path fill="none" stroke="#000000" d="M198.1878,-762.7169C178.0841,-773.942 189.7602,-820.2905 159.5,-820.2905"/>
<polygon fill="#000000" stroke="#000000" points="206.8051,-756.5801 208.6375,-764.3675 207.08,-764.7339 205.2476,-756.9466 206.8051,-756.5801"/>
<polyline fill="none" stroke="#000000" points="208.5,-760.2905 204.6063,-761.2067 "/>
<ellipse fill="none" stroke="#000000" cx="201.4914" cy="-761.9397" rx="3.2" ry="3.2"/>
</g>
<!-- arch_osl_DataCore -->
<g id="node3" class="node">
<title>arch_osl_DataCore</title>
<g id="a_node3"><a xlink:href="../../tables/arch_osl_DataCore.html" xlink:title="arch_osl_DataCore" target="_top">
<polygon fill="#ffffff" stroke="transparent" points="389.5,-486.7905 389.5,-547.7905 537.5,-547.7905 537.5,-486.7905 389.5,-486.7905"/>
<polygon fill="#f5f5f5" stroke="transparent" points="389.5,-524.2905 389.5,-547.2905 537.5,-547.2905 537.5,-524.2905 389.5,-524.2905"/>
<polygon fill="none" stroke="#000000" points="389.5,-524.2905 389.5,-547.2905 537.5,-547.2905 537.5,-524.2905 389.5,-524.2905"/>
<text text-anchor="start" x="394.5" y="-532.8905" font-family="Helvetica,sans-Serif" font-weight="bold" font-size="11.00" fill="#000000">arch_osl_DataCore</text>
<text text-anchor="start" x="503.0219" y="-532.3905" font-family="Helvetica,sans-Serif" font-size="11.00" fill="#000000">[table]</text>
<polygon fill="none" stroke="#000000" points="389.5,-505.2905 389.5,-524.2905 537.5,-524.2905 537.5,-505.2905 389.5,-505.2905"/>
<text text-anchor="start" x="392.5" y="-511.3905" font-family="Helvetica,sans-Serif" font-size="11.00" fill="#000000">...</text>
<polygon fill="#ffffff" stroke="transparent" points="389.5,-486.2905 389.5,-505.2905 441.5,-505.2905 441.5,-486.2905 389.5,-486.2905"/>
<polygon fill="none" stroke="#000000" points="389.5,-486.2905 389.5,-505.2905 441.5,-505.2905 441.5,-486.2905 389.5,-486.2905"/>
<text text-anchor="start" x="392.5" y="-492.3905" font-family="Helvetica,sans-Serif" font-size="11.00" fill="#000000">&lt; 20</text>
<polygon fill="#ffffff" stroke="transparent" points="441.5,-486.2905 441.5,-505.2905 503.5,-505.2905 503.5,-486.2905 441.5,-486.2905"/>
<polygon fill="none" stroke="#000000" points="441.5,-486.2905 441.5,-505.2905 503.5,-505.2905 503.5,-486.2905 441.5,-486.2905"/>
<text text-anchor="start" x="455.8807" y="-492.3905" font-family="Helvetica,sans-Serif" font-size="11.00" fill="#000000">973 rows</text>
<polygon fill="#ffffff" stroke="transparent" points="503.5,-486.2905 503.5,-505.2905 537.5,-505.2905 537.5,-486.2905 503.5,-486.2905"/>
<polygon fill="none" stroke="#000000" points="503.5,-486.2905 503.5,-505.2905 537.5,-505.2905 537.5,-486.2905 503.5,-486.2905"/>
<text text-anchor="start" x="518.9053" y="-492.3905" font-family="Helvetica,sans-Serif" font-size="11.00" fill="#000000">1 &gt;</text>
</a>
</g>
</g>
<!-- arch_osl_DataCore&#45;&gt;global_RefCore -->
<g id="edge5" class="edge">
<title>arch_osl_DataCore:w&#45;&gt;global_RefCore:e</title>
<path fill="none" stroke="#000000" d="M375.0531,-513.3455C293.4808,-518.7728 441.9708,-742.2183 335.5,-760.2905"/>
<polygon fill="#000000" stroke="#000000" points="381.5171,-513.7683 389.265,-517.8829 385.5085,-514.0294 389.5,-514.2905 389.5,-514.2905 389.5,-514.2905 385.5085,-514.0294 389.735,-510.6982 381.5171,-513.7683 381.5171,-513.7683"/>
<ellipse fill="none" stroke="#000000" cx="378.3239" cy="-513.5594" rx="3.2" ry="3.2"/>
</g>
<!-- arch_osl_DataCore&#45;&gt;global_RefCore -->
<g id="edge6" class="edge">
<title>arch_osl_DataCore:w&#45;&gt;global_RefCore:e</title>
<path fill="none" stroke="#000000" d="M375.0531,-515.1568C293.4808,-531.7418 441.9708,-754.5835 335.5,-760.2905"/>
<polygon fill="#000000" stroke="#000000" points="381.5143,-514.7694 389.7155,-517.8841 385.5072,-514.53 389.5,-514.2905 389.5,-514.2905 389.5,-514.2905 385.5072,-514.53 389.2845,-510.697 381.5143,-514.7694 381.5143,-514.7694"/>
<ellipse fill="none" stroke="#000000" cx="378.3201" cy="-514.961" rx="3.2" ry="3.2"/>
</g>
<!-- arch_osl_DataCore&#45;&gt;global_RefCore -->
<g id="edge7" class="edge">
<title>arch_osl_DataCore:w&#45;&gt;global_RefCore:e</title>
<path fill="none" stroke="#000000" d="M375.0531,-516.9681C293.4808,-544.7108 441.9708,-766.9487 335.5,-760.2905"/>
<polygon fill="#000000" stroke="#000000" points="381.634,-515.7485 390.1561,-517.8303 385.567,-515.0195 389.5,-514.2905 389.5,-514.2905 389.5,-514.2905 385.567,-515.0195 388.8439,-510.7508 381.634,-515.7485 381.634,-515.7485"/>
<ellipse fill="none" stroke="#000000" cx="378.4875" cy="-516.3316" rx="3.2" ry="3.2"/>
</g>
<!-- arch_osl_DataCore&#45;&gt;global_RefCore -->
<g id="edge8" class="edge">
<title>arch_osl_DataCore:w&#45;&gt;global_RefCore:e</title>
<path fill="none" stroke="#000000" d="M375.5585,-518.5421C292.8699,-556.7686 442.1895,-779.353 335.5,-760.2905"/>
<polygon fill="#000000" stroke="#000000" points="381.8479,-516.6241 390.5501,-517.734 385.674,-515.4573 389.5,-514.2905 389.5,-514.2905 389.5,-514.2905 385.674,-515.4573 388.4499,-510.8471 381.8479,-516.6241 381.8479,-516.6241"/>
<ellipse fill="none" stroke="#000000" cx="378.7871" cy="-517.5576" rx="3.2" ry="3.2"/>
</g>
<!-- arch_tl_DataCore -->
<g id="node4" class="node">
<title>arch_tl_DataCore</title>
<g id="a_node4"><a xlink:href="../../tables/arch_tl_DataCore.html" xlink:title="arch_tl_DataCore" target="_top">
<polygon fill="#ffffff" stroke="transparent" points="394.5,-404.7905 394.5,-465.7905 532.5,-465.7905 532.5,-404.7905 394.5,-404.7905"/>
<polygon fill="#f5f5f5" stroke="transparent" points="394.5,-442.2905 394.5,-465.2905 532.5,-465.2905 532.5,-442.2905 394.5,-442.2905"/>
<polygon fill="none" stroke="#000000" points="394.5,-442.2905 394.5,-465.2905 532.5,-465.2905 532.5,-442.2905 394.5,-442.2905"/>
<text text-anchor="start" x="399.5" y="-450.8905" font-family="Helvetica,sans-Serif" font-weight="bold" font-size="11.00" fill="#000000">arch_tl_DataCore</text>
<text text-anchor="start" x="498.0219" y="-450.3905" font-family="Helvetica,sans-Serif" font-size="11.00" fill="#000000">[table]</text>
<polygon fill="none" stroke="#000000" points="394.5,-423.2905 394.5,-442.2905 532.5,-442.2905 532.5,-423.2905 394.5,-423.2905"/>
<text text-anchor="start" x="397.5" y="-429.3905" font-family="Helvetica,sans-Serif" font-size="11.00" fill="#000000">...</text>
<polygon fill="#ffffff" stroke="transparent" points="394.5,-404.2905 394.5,-423.2905 441.5,-423.2905 441.5,-404.2905 394.5,-404.2905"/>
<polygon fill="none" stroke="#000000" points="394.5,-404.2905 394.5,-423.2905 441.5,-423.2905 441.5,-404.2905 394.5,-404.2905"/>
<text text-anchor="start" x="397.5" y="-410.3905" font-family="Helvetica,sans-Serif" font-size="11.00" fill="#000000">&lt; 20</text>
<polygon fill="#ffffff" stroke="transparent" points="441.5,-404.2905 441.5,-423.2905 501.5,-423.2905 501.5,-404.2905 441.5,-404.2905"/>
<polygon fill="none" stroke="#000000" points="441.5,-404.2905 441.5,-423.2905 501.5,-423.2905 501.5,-404.2905 441.5,-404.2905"/>
<text text-anchor="start" x="453.8807" y="-410.3905" font-family="Helvetica,sans-Serif" font-size="11.00" fill="#000000">240 rows</text>
<polygon fill="#ffffff" stroke="transparent" points="501.5,-404.2905 501.5,-423.2905 532.5,-423.2905 532.5,-404.2905 501.5,-404.2905"/>
<polygon fill="none" stroke="#000000" points="501.5,-404.2905 501.5,-423.2905 532.5,-423.2905 532.5,-404.2905 501.5,-404.2905"/>
<text text-anchor="start" x="513.9053" y="-410.3905" font-family="Helvetica,sans-Serif" font-size="11.00" fill="#000000">1 &gt;</text>
</a>
</g>
</g>
<!-- arch_tl_DataCore&#45;&gt;global_RefCore -->
<g id="edge9" class="edge">
<title>arch_tl_DataCore:w&#45;&gt;global_RefCore:e</title>
<path fill="none" stroke="#000000" d="M379.9747,-433.8784C333.3699,-462.6546 403.7729,-742.7749 335.5,-760.2905"/>
<polygon fill="#000000" stroke="#000000" points="386.5474,-433.1599 394.8912,-435.8692 390.5237,-432.7252 394.5,-432.2905 394.5,-432.2905 394.5,-432.2905 390.5237,-432.7252 394.1088,-428.7119 386.5474,-433.1599 386.5474,-433.1599"/>
<ellipse fill="none" stroke="#000000" cx="383.3663" cy="-433.5077" rx="3.2" ry="3.2"/>
</g>
<!-- arch_tl_DataCore&#45;&gt;global_RefCore -->
<g id="edge10" class="edge">
<title>arch_tl_DataCore:w&#45;&gt;global_RefCore:e</title>
<path fill="none" stroke="#000000" d="M380.5735,-436.2059C332.7708,-473.2043 404.0622,-754.7359 335.5,-760.2905"/>
<polygon fill="#000000" stroke="#000000" points="386.7986,-434.4558 395.4744,-435.7562 390.6493,-433.3732 394.5,-432.2905 394.5,-432.2905 394.5,-432.2905 390.6493,-433.3732 393.5256,-428.8249 386.7986,-434.4558 386.7986,-434.4558"/>
<ellipse fill="none" stroke="#000000" cx="383.718" cy="-435.3219" rx="3.2" ry="3.2"/>
</g>
<!-- arch_tl_DataCore&#45;&gt;global_RefCore -->
<g id="edge11" class="edge">
<title>arch_tl_DataCore:w&#45;&gt;global_RefCore:e</title>
<path fill="none" stroke="#000000" d="M381.185,-438.3C332.1667,-483.7594 404.3514,-766.7984 335.5,-760.2905"/>
<polygon fill="#000000" stroke="#000000" points="387.2083,-435.5815 395.9809,-435.5718 390.8541,-433.936 394.5,-432.2905 394.5,-432.2905 394.5,-432.2905 390.8541,-433.936 393.0191,-429.0093 387.2083,-435.5815 387.2083,-435.5815"/>
<ellipse fill="none" stroke="#000000" cx="384.2916" cy="-436.8979" rx="3.2" ry="3.2"/>
</g>
<!-- arch_tl_DataCore&#45;&gt;global_RefCore -->
<g id="edge12" class="edge">
<title>arch_tl_DataCore:w&#45;&gt;global_RefCore:e</title>
<path fill="none" stroke="#000000" d="M382.1263,-439.8206C331.2512,-493.1261 404.7854,-779.0015 335.5,-760.2905"/>
<polygon fill="#000000" stroke="#000000" points="387.666,-436.4494 396.3715,-435.3659 391.083,-434.37 394.5,-432.2905 394.5,-432.2905 394.5,-432.2905 391.083,-434.37 392.6285,-429.2152 387.666,-436.4494 387.666,-436.4494"/>
<ellipse fill="none" stroke="#000000" cx="384.9323" cy="-438.113" rx="3.2" ry="3.2"/>
</g>
<!-- c14_calcurve -->
<g id="node5" class="node">
<title>c14_calcurve</title>
<g id="a_node5"><a xlink:href="../../tables/c14_calcurve.html" xlink:title="c14_calcurve" target="_top">
<polygon fill="#ffffff" stroke="transparent" points="406.5,-240.7905 406.5,-301.7905 520.5,-301.7905 520.5,-240.7905 406.5,-240.7905"/>
<polygon fill="#f5f5f5" stroke="transparent" points="406.5,-278.2905 406.5,-301.2905 520.5,-301.2905 520.5,-278.2905 406.5,-278.2905"/>
<polygon fill="none" stroke="#000000" points="406.5,-278.2905 406.5,-301.2905 520.5,-301.2905 520.5,-278.2905 406.5,-278.2905"/>
<text text-anchor="start" x="411.5" y="-286.8905" font-family="Helvetica,sans-Serif" font-weight="bold" font-size="11.00" fill="#000000">c14_calcurve</text>
<text text-anchor="start" x="486.0219" y="-286.3905" font-family="Helvetica,sans-Serif" font-size="11.00" fill="#000000">[table]</text>
<polygon fill="none" stroke="#000000" points="406.5,-259.2905 406.5,-278.2905 520.5,-278.2905 520.5,-259.2905 406.5,-259.2905"/>
<text text-anchor="start" x="409.5" y="-265.3905" font-family="Helvetica,sans-Serif" font-size="11.00" fill="#000000">...</text>
<polygon fill="#ffffff" stroke="transparent" points="406.5,-240.2905 406.5,-259.2905 444.5,-259.2905 444.5,-240.2905 406.5,-240.2905"/>
<polygon fill="none" stroke="#000000" points="406.5,-240.2905 406.5,-259.2905 444.5,-259.2905 444.5,-240.2905 406.5,-240.2905"/>
<text text-anchor="start" x="409.5" y="-246.3905" font-family="Helvetica,sans-Serif" font-size="11.00" fill="#000000">&lt; 1</text>
<polygon fill="#ffffff" stroke="transparent" points="444.5,-240.2905 444.5,-259.2905 490.5,-259.2905 490.5,-240.2905 444.5,-240.2905"/>
<polygon fill="none" stroke="#000000" points="444.5,-240.2905 444.5,-259.2905 490.5,-259.2905 490.5,-240.2905 444.5,-240.2905"/>
<text text-anchor="start" x="455.1105" y="-246.3905" font-family="Helvetica,sans-Serif" font-size="11.00" fill="#000000">0 rows</text>
<polygon fill="#ffffff" stroke="transparent" points="490.5,-240.2905 490.5,-259.2905 520.5,-259.2905 520.5,-240.2905 490.5,-240.2905"/>
<polygon fill="none" stroke="#000000" points="490.5,-240.2905 490.5,-259.2905 520.5,-259.2905 520.5,-240.2905 490.5,-240.2905"/>
<text text-anchor="start" x="501.9053" y="-246.3905" font-family="Helvetica,sans-Serif" font-size="11.00" fill="#000000">1 &gt;</text>
</a>
</g>
</g>
<!-- c14_calcurve&#45;&gt;global_RefCore -->
<g id="edge13" class="edge">
<title>c14_calcurve:w&#45;&gt;global_RefCore:e</title>
<path fill="none" stroke="#000000" d="M392.5275,-272.2461C382.8003,-279.4939 382.0248,-295.6901 376,-312.2905 358.9488,-359.2728 385.4808,-760.2905 335.5,-760.2905"/>
<polygon fill="#000000" stroke="#000000" points="398.8025,-270.4697 407.4806,-271.7544 402.6513,-269.3801 406.5,-268.2905 406.5,-268.2905 406.5,-268.2905 402.6513,-269.3801 405.5194,-264.8267 398.8025,-270.4697 398.8025,-270.4697"/>
<ellipse fill="none" stroke="#000000" cx="395.7235" cy="-271.3414" rx="3.2" ry="3.2"/>
</g>
<!-- c14_calprogram -->
<g id="node6" class="node">
<title>c14_calprogram</title>
<g id="a_node6"><a xlink:href="../../tables/c14_calprogram.html" xlink:title="c14_calprogram" target="_top">
<polygon fill="#ffffff" stroke="transparent" points="398,-158.7905 398,-219.7905 529,-219.7905 529,-158.7905 398,-158.7905"/>
<polygon fill="#f5f5f5" stroke="transparent" points="398.5,-196.2905 398.5,-219.2905 529.5,-219.2905 529.5,-196.2905 398.5,-196.2905"/>
<polygon fill="none" stroke="#000000" points="398.5,-196.2905 398.5,-219.2905 529.5,-219.2905 529.5,-196.2905 398.5,-196.2905"/>
<text text-anchor="start" x="403.5" y="-204.8905" font-family="Helvetica,sans-Serif" font-weight="bold" font-size="11.00" fill="#000000">c14_calprogram</text>
<text text-anchor="start" x="495.0219" y="-204.3905" font-family="Helvetica,sans-Serif" font-size="11.00" fill="#000000">[table]</text>
<polygon fill="none" stroke="#000000" points="398.5,-177.2905 398.5,-196.2905 529.5,-196.2905 529.5,-177.2905 398.5,-177.2905"/>
<text text-anchor="start" x="401.5" y="-183.3905" font-family="Helvetica,sans-Serif" font-size="11.00" fill="#000000">...</text>
<polygon fill="#ffffff" stroke="transparent" points="398.5,-158.2905 398.5,-177.2905 438.5,-177.2905 438.5,-158.2905 398.5,-158.2905"/>
<polygon fill="none" stroke="#000000" points="398.5,-158.2905 398.5,-177.2905 438.5,-177.2905 438.5,-158.2905 398.5,-158.2905"/>
<text text-anchor="start" x="401.5" y="-164.3905" font-family="Helvetica,sans-Serif" font-size="11.00" fill="#000000">&lt; 2</text>
<polygon fill="#ffffff" stroke="transparent" points="438.5,-158.2905 438.5,-177.2905 498.5,-177.2905 498.5,-158.2905 438.5,-158.2905"/>
<polygon fill="none" stroke="#000000" points="438.5,-158.2905 438.5,-177.2905 498.5,-177.2905 498.5,-158.2905 438.5,-158.2905"/>
<text text-anchor="start" x="450.8807" y="-164.3905" font-family="Helvetica,sans-Serif" font-size="11.00" fill="#000000">195 rows</text>
<polygon fill="#ffffff" stroke="transparent" points="498.5,-158.2905 498.5,-177.2905 529.5,-177.2905 529.5,-158.2905 498.5,-158.2905"/>
<polygon fill="none" stroke="#000000" points="498.5,-158.2905 498.5,-177.2905 529.5,-177.2905 529.5,-158.2905 498.5,-158.2905"/>
<text text-anchor="start" x="510.9053" y="-164.3905" font-family="Helvetica,sans-Serif" font-size="11.00" fill="#000000">2 &gt;</text>
</a>
</g>
</g>
<!-- c14_calprogram&#45;&gt;global_RefCore -->
<g id="edge14" class="edge">
<title>c14_calprogram:w&#45;&gt;global_RefCore:e</title>
<path fill="none" stroke="#000000" d="M386.521,-194.8501C343.104,-266.2539 395.0242,-760.2905 335.5,-760.2905"/>
<polygon fill="#000000" stroke="#000000" points="391.9909,-190.9416 400.593,-189.2196 395.2455,-188.6161 398.5,-186.2905 398.5,-186.2905 398.5,-186.2905 395.2455,-188.6161 396.407,-183.3615 391.9909,-190.9416 391.9909,-190.9416"/>
<ellipse fill="none" stroke="#000000" cx="389.3873" cy="-192.802" rx="3.2" ry="3.2"/>
</g>
<!-- char_DataCore -->
<g id="node7" class="node">
<title>char_DataCore</title>
<g id="a_node7"><a xlink:href="../../tables/char_DataCore.html" xlink:title="char_DataCore" target="_top">
<polygon fill="#ffffff" stroke="transparent" points="612,-85.7905 612,-146.7905 736,-146.7905 736,-85.7905 612,-85.7905"/>
<polygon fill="#f5f5f5" stroke="transparent" points="612,-123.2905 612,-146.2905 736,-146.2905 736,-123.2905 612,-123.2905"/>
<polygon fill="none" stroke="#000000" points="612,-123.2905 612,-146.2905 736,-146.2905 736,-123.2905 612,-123.2905"/>
<text text-anchor="start" x="617" y="-131.8905" font-family="Helvetica,sans-Serif" font-weight="bold" font-size="11.00" fill="#000000">char_DataCore</text>
<text text-anchor="start" x="701.5219" y="-131.3905" font-family="Helvetica,sans-Serif" font-size="11.00" fill="#000000">[table]</text>
<polygon fill="none" stroke="#000000" points="612,-104.2905 612,-123.2905 736,-123.2905 736,-104.2905 612,-104.2905"/>
<text text-anchor="start" x="615" y="-110.3905" font-family="Helvetica,sans-Serif" font-size="11.00" fill="#000000">...</text>
<polygon fill="#ffffff" stroke="transparent" points="612,-85.2905 612,-104.2905 649,-104.2905 649,-85.2905 612,-85.2905"/>
<polygon fill="none" stroke="#000000" points="612,-85.2905 612,-104.2905 649,-104.2905 649,-85.2905 612,-85.2905"/>
<text text-anchor="start" x="615" y="-91.3905" font-family="Helvetica,sans-Serif" font-size="11.00" fill="#000000">&lt; 16</text>
<polygon fill="#ffffff" stroke="transparent" points="649,-85.2905 649,-104.2905 719,-104.2905 719,-85.2905 649,-85.2905"/>
<polygon fill="none" stroke="#000000" points="649,-85.2905 649,-104.2905 719,-104.2905 719,-85.2905 649,-85.2905"/>
<text text-anchor="start" x="656.094" y="-91.3905" font-family="Helvetica,sans-Serif" font-size="11.00" fill="#000000">48.234 rows</text>
<polygon fill="#ffffff" stroke="transparent" points="719,-85.2905 719,-104.2905 736,-104.2905 736,-85.2905 719,-85.2905"/>
<polygon fill="none" stroke="#000000" points="719,-85.2905 719,-104.2905 736,-104.2905 736,-85.2905 719,-85.2905"/>
<text text-anchor="start" x="726.8862" y="-91.3905" font-family="Helvetica,sans-Serif" font-size="11.00" fill="#000000"> &#160;</text>
</a>
</g>
</g>
<!-- char_DataCore&#45;&gt;global_RefCore -->
<g id="edge18" class="edge">
<title>char_DataCore:w&#45;&gt;global_RefCore:e</title>
<path fill="none" stroke="#000000" d="M597.7575,-110.5349C578.5911,-101.9115 577.956,-75.4708 551,-66.2905 477.3748,-41.2165 432.5765,-12.9194 376,-66.2905 319.813,-119.2942 412.7423,-760.2905 335.5,-760.2905"/>
<polygon fill="#000000" stroke="#000000" points="604.1457,-111.7709 611.3161,-116.825 608.0728,-112.5307 612,-113.2905 612,-113.2905 612,-113.2905 608.0728,-112.5307 612.6839,-109.7561 604.1457,-111.7709 604.1457,-111.7709"/>
<ellipse fill="none" stroke="#000000" cx="601.0039" cy="-111.163" rx="3.2" ry="3.2"/>
</g>
<!-- char_DataCore&#45;&gt;global_RefCore -->
<g id="edge19" class="edge">
<title>char_DataCore:w&#45;&gt;global_RefCore:e</title>
<path fill="none" stroke="#000000" d="M598.339,-108.3796C579.1202,-97.0882 577.4315,-72.6702 551,-64.2905 476.859,-40.7854 432.5855,-10.9289 376,-64.2905 320.1268,-116.9804 412.2986,-754.2905 335.5,-760.2905"/>
<polygon fill="#000000" stroke="#000000" points="604.4717,-110.5842 610.7821,-116.6783 608.2358,-111.9374 612,-113.2905 612,-113.2905 612,-113.2905 608.2358,-111.9374 613.2179,-109.9028 604.4717,-110.5842 604.4717,-110.5842"/>
<ellipse fill="none" stroke="#000000" cx="601.4603" cy="-109.5016" rx="3.2" ry="3.2"/>
</g>
<!-- char_DataCore&#45;&gt;global_RefCore -->
<g id="edge20" class="edge">
<title>char_DataCore:w&#45;&gt;global_RefCore:e</title>
<path fill="none" stroke="#000000" d="M597.541,-113.6181C579.068,-109.4067 577.061,-85.5527 551,-77.2905 476.859,-53.7854 432.5855,-23.9289 376,-77.2905 320.1268,-129.9804 412.2986,-767.2905 335.5,-760.2905"/>
<polygon fill="#000000" stroke="#000000" points="604.0021,-113.4718 612.0816,-116.8896 608.001,-113.3812 612,-113.2905 612,-113.2905 612,-113.2905 608.001,-113.3812 611.9184,-109.6915 604.0021,-113.4718 604.0021,-113.4718"/>
<ellipse fill="none" stroke="#000000" cx="600.8029" cy="-113.5443" rx="3.2" ry="3.2"/>
</g>
<!-- char_DataCore&#45;&gt;c14_calcurve -->
<g id="edge15" class="edge">
<title>char_DataCore:w&#45;&gt;c14_calcurve:e</title>
<path fill="none" stroke="#000000" d="M597.5813,-115.3645C540.6738,-133.7576 595.0281,-268.2905 520.5,-268.2905"/>
<polygon fill="#000000" stroke="#000000" points="604.0815,-114.4295 612.5126,-116.8539 608.0407,-113.86 612,-113.2905 612,-113.2905 612,-113.2905 608.0407,-113.86 611.4874,-109.7272 604.0815,-114.4295 604.0815,-114.4295"/>
<ellipse fill="none" stroke="#000000" cx="600.9141" cy="-114.8852" rx="3.2" ry="3.2"/>
</g>
<!-- char_DataCore&#45;&gt;c14_calprogram -->
<g id="edge16" class="edge">
<title>char_DataCore:w&#45;&gt;c14_calprogram:e</title>
<path fill="none" stroke="#000000" d="M597.6526,-115.8887C565.7074,-128.8928 572.9138,-186.2905 529.5,-186.2905"/>
<polygon fill="#000000" stroke="#000000" points="604.128,-114.7161 612.6415,-116.8329 608.064,-114.0033 612,-113.2905 612,-113.2905 612,-113.2905 608.064,-114.0033 611.3585,-109.7482 604.128,-114.7161 604.128,-114.7161"/>
<ellipse fill="none" stroke="#000000" cx="600.9792" cy="-115.2863" rx="3.2" ry="3.2"/>
</g>
<!-- cabah_datasourceID -->
<g id="node8" class="node">
<title>cabah_datasourceID</title>
<g id="a_node8"><a xlink:href="../../tables/cabah_datasourceID.html" xlink:title="cabah_datasourceID" target="_top">
<polygon fill="#ffffff" stroke="transparent" points="385.5,-322.7905 385.5,-383.7905 541.5,-383.7905 541.5,-322.7905 385.5,-322.7905"/>
<polygon fill="#f5f5f5" stroke="transparent" points="385.5,-360.2905 385.5,-383.2905 541.5,-383.2905 541.5,-360.2905 385.5,-360.2905"/>
<polygon fill="none" stroke="#000000" points="385.5,-360.2905 385.5,-383.2905 541.5,-383.2905 541.5,-360.2905 385.5,-360.2905"/>
<text text-anchor="start" x="390.5" y="-368.8905" font-family="Helvetica,sans-Serif" font-weight="bold" font-size="11.00" fill="#000000">cabah_datasourceID</text>
<text text-anchor="start" x="507.0219" y="-368.3905" font-family="Helvetica,sans-Serif" font-size="11.00" fill="#000000">[table]</text>
<polygon fill="none" stroke="#000000" points="385.5,-341.2905 385.5,-360.2905 541.5,-360.2905 541.5,-341.2905 385.5,-341.2905"/>
<text text-anchor="start" x="388.5" y="-347.3905" font-family="Helvetica,sans-Serif" font-size="11.00" fill="#000000">...</text>
<polygon fill="#ffffff" stroke="transparent" points="385.5,-322.2905 385.5,-341.2905 436.5,-341.2905 436.5,-322.2905 385.5,-322.2905"/>
<polygon fill="none" stroke="#000000" points="385.5,-322.2905 385.5,-341.2905 436.5,-341.2905 436.5,-322.2905 385.5,-322.2905"/>
<text text-anchor="start" x="388.5" y="-328.3905" font-family="Helvetica,sans-Serif" font-size="11.00" fill="#000000"> &#160;</text>
<polygon fill="#ffffff" stroke="transparent" points="436.5,-322.2905 436.5,-341.2905 500.5,-341.2905 500.5,-322.2905 436.5,-322.2905"/>
<polygon fill="none" stroke="#000000" points="436.5,-322.2905 436.5,-341.2905 500.5,-341.2905 500.5,-322.2905 436.5,-322.2905"/>
<text text-anchor="start" x="458.9956" y="-328.3905" font-family="Helvetica,sans-Serif" font-size="11.00" fill="#000000">11 rows</text>
<polygon fill="#ffffff" stroke="transparent" points="500.5,-322.2905 500.5,-341.2905 541.5,-341.2905 541.5,-322.2905 500.5,-322.2905"/>
<polygon fill="none" stroke="#000000" points="500.5,-322.2905 500.5,-341.2905 541.5,-341.2905 541.5,-322.2905 500.5,-322.2905"/>
<text text-anchor="start" x="522.9053" y="-328.3905" font-family="Helvetica,sans-Serif" font-size="11.00" fill="#000000">6 &gt;</text>
</a>
</g>
</g>
<!-- char_DataCore&#45;&gt;cabah_datasourceID -->
<g id="edge17" class="edge">
<title>char_DataCore:w&#45;&gt;cabah_datasourceID:e</title>
<path fill="none" stroke="#000000" d="M597.4448,-114.9956C516.3329,-136.3101 645.9216,-350.2905 541.5,-350.2905"/>
<polygon fill="#000000" stroke="#000000" points="604.0543,-114.2214 612.4189,-116.8661 608.0272,-113.756 612,-113.2905 612,-113.2905 612,-113.2905 608.0272,-113.756 611.5811,-109.715 604.0543,-114.2214 604.0543,-114.2214"/>
<ellipse fill="none" stroke="#000000" cx="600.8761" cy="-114.5937" rx="3.2" ry="3.2"/>
</g>
<!-- crn_al_DataCore -->
<g id="node9" class="node">
<title>crn_al_DataCore</title>
<g id="a_node9"><a xlink:href="../../tables/crn_al_DataCore.html" xlink:title="crn_al_DataCore" target="_top">
<polygon fill="#ffffff" stroke="transparent" points="396.5,-76.7905 396.5,-137.7905 530.5,-137.7905 530.5,-76.7905 396.5,-76.7905"/>
<polygon fill="#f5f5f5" stroke="transparent" points="396.5,-114.2905 396.5,-137.2905 530.5,-137.2905 530.5,-114.2905 396.5,-114.2905"/>
<polygon fill="none" stroke="#000000" points="396.5,-114.2905 396.5,-137.2905 530.5,-137.2905 530.5,-114.2905 396.5,-114.2905"/>
<text text-anchor="start" x="401.5" y="-122.8905" font-family="Helvetica,sans-Serif" font-weight="bold" font-size="11.00" fill="#000000">crn_al_DataCore</text>
<text text-anchor="start" x="496.0219" y="-122.3905" font-family="Helvetica,sans-Serif" font-size="11.00" fill="#000000">[table]</text>
<polygon fill="none" stroke="#000000" points="396.5,-95.2905 396.5,-114.2905 530.5,-114.2905 530.5,-95.2905 396.5,-95.2905"/>
<text text-anchor="start" x="399.5" y="-101.3905" font-family="Helvetica,sans-Serif" font-size="11.00" fill="#000000">...</text>
<polygon fill="#ffffff" stroke="transparent" points="396.5,-76.2905 396.5,-95.2905 433.5,-95.2905 433.5,-76.2905 396.5,-76.2905"/>
<polygon fill="none" stroke="#000000" points="396.5,-76.2905 396.5,-95.2905 433.5,-95.2905 433.5,-76.2905 396.5,-76.2905"/>
<text text-anchor="start" x="399.5" y="-82.3905" font-family="Helvetica,sans-Serif" font-size="11.00" fill="#000000">&lt; 5</text>
<polygon fill="#ffffff" stroke="transparent" points="433.5,-76.2905 433.5,-95.2905 500.5,-95.2905 500.5,-76.2905 433.5,-76.2905"/>
<polygon fill="none" stroke="#000000" points="433.5,-76.2905 433.5,-95.2905 500.5,-95.2905 500.5,-76.2905 433.5,-76.2905"/>
<text text-anchor="start" x="443.7089" y="-82.3905" font-family="Helvetica,sans-Serif" font-size="11.00" fill="#000000">6.091 rows</text>
<polygon fill="#ffffff" stroke="transparent" points="500.5,-76.2905 500.5,-95.2905 530.5,-95.2905 530.5,-76.2905 500.5,-76.2905"/>
<polygon fill="none" stroke="#000000" points="500.5,-76.2905 500.5,-95.2905 530.5,-95.2905 530.5,-76.2905 500.5,-76.2905"/>
<text text-anchor="start" x="511.9053" y="-82.3905" font-family="Helvetica,sans-Serif" font-size="11.00" fill="#000000">2 &gt;</text>
</a>
</g>
</g>
<!-- crn_al_DataCore&#45;&gt;global_RefCore -->
<g id="edge21" class="edge">
<title>crn_al_DataCore:w&#45;&gt;global_RefCore:e</title>
<path fill="none" stroke="#000000" d="M384.2372,-112.1147C333.6472,-186.1279 403.9852,-760.2905 335.5,-760.2905"/>
<polygon fill="#000000" stroke="#000000" points="389.7558,-108.5936 398.4364,-107.3254 393.1279,-106.4421 396.5,-104.2905 396.5,-104.2905 396.5,-104.2905 393.1279,-106.4421 394.5636,-101.2557 389.7558,-108.5936 389.7558,-108.5936"/>
<ellipse fill="none" stroke="#000000" cx="387.0582" cy="-110.3149" rx="3.2" ry="3.2"/>
</g>
<!-- crn_be_DataCore -->
<g id="node10" class="node">
<title>crn_be_DataCore</title>
<g id="a_node10"><a xlink:href="../../tables/crn_be_DataCore.html" xlink:title="crn_be_DataCore" target="_top">
<polygon fill="#ffffff" stroke="transparent" points="394.5,-1170.7905 394.5,-1231.7905 532.5,-1231.7905 532.5,-1170.7905 394.5,-1170.7905"/>
<polygon fill="#f5f5f5" stroke="transparent" points="394.5,-1208.2905 394.5,-1231.2905 532.5,-1231.2905 532.5,-1208.2905 394.5,-1208.2905"/>
<polygon fill="none" stroke="#000000" points="394.5,-1208.2905 394.5,-1231.2905 532.5,-1231.2905 532.5,-1208.2905 394.5,-1208.2905"/>
<text text-anchor="start" x="399.5" y="-1216.8905" font-family="Helvetica,sans-Serif" font-weight="bold" font-size="11.00" fill="#000000">crn_be_DataCore</text>
<text text-anchor="start" x="498.0219" y="-1216.3905" font-family="Helvetica,sans-Serif" font-size="11.00" fill="#000000">[table]</text>
<polygon fill="none" stroke="#000000" points="394.5,-1189.2905 394.5,-1208.2905 532.5,-1208.2905 532.5,-1189.2905 394.5,-1189.2905"/>
<text text-anchor="start" x="397.5" y="-1195.3905" font-family="Helvetica,sans-Serif" font-size="11.00" fill="#000000">...</text>
<polygon fill="#ffffff" stroke="transparent" points="394.5,-1170.2905 394.5,-1189.2905 433.5,-1189.2905 433.5,-1170.2905 394.5,-1170.2905"/>
<polygon fill="none" stroke="#000000" points="394.5,-1170.2905 394.5,-1189.2905 433.5,-1189.2905 433.5,-1170.2905 394.5,-1170.2905"/>
<text text-anchor="start" x="397.5" y="-1176.3905" font-family="Helvetica,sans-Serif" font-size="11.00" fill="#000000">&lt; 5</text>
<polygon fill="#ffffff" stroke="transparent" points="433.5,-1170.2905 433.5,-1189.2905 501.5,-1189.2905 501.5,-1170.2905 433.5,-1170.2905"/>
<polygon fill="none" stroke="#000000" points="433.5,-1170.2905 433.5,-1189.2905 501.5,-1189.2905 501.5,-1170.2905 433.5,-1170.2905"/>
<text text-anchor="start" x="444.7089" y="-1176.3905" font-family="Helvetica,sans-Serif" font-size="11.00" fill="#000000">6.091 rows</text>
<polygon fill="#ffffff" stroke="transparent" points="501.5,-1170.2905 501.5,-1189.2905 532.5,-1189.2905 532.5,-1170.2905 501.5,-1170.2905"/>
<polygon fill="none" stroke="#000000" points="501.5,-1170.2905 501.5,-1189.2905 532.5,-1189.2905 532.5,-1170.2905 501.5,-1170.2905"/>
<text text-anchor="start" x="513.9053" y="-1176.3905" font-family="Helvetica,sans-Serif" font-size="11.00" fill="#000000">2 &gt;</text>
</a>
</g>
</g>
<!-- crn_be_DataCore&#45;&gt;global_RefCore -->
<g id="edge22" class="edge">
<title>crn_be_DataCore:w&#45;&gt;global_RefCore:e</title>
<path fill="none" stroke="#000000" d="M380.4241,-1194.504C310.6137,-1151.6942 428.3414,-760.2905 335.5,-760.2905"/>
<polygon fill="#000000" stroke="#000000" points="386.7746,-1196.2123 393.5648,-1201.767 390.6373,-1197.2514 394.5,-1198.2905 394.5,-1198.2905 394.5,-1198.2905 390.6373,-1197.2514 395.4352,-1194.8141 386.7746,-1196.2123 386.7746,-1196.2123"/>
<ellipse fill="none" stroke="#000000" cx="383.6845" cy="-1195.381" rx="3.2" ry="3.2"/>
</g>
<!-- expage_DataCore -->
<g id="node11" class="node">
<title>expage_DataCore</title>
<g id="a_node11"><a xlink:href="../../tables/expage_DataCore.html" xlink:title="expage_DataCore" target="_top">
<polygon fill="#ffffff" stroke="transparent" points="393.5,-1060.7905 393.5,-1121.7905 533.5,-1121.7905 533.5,-1060.7905 393.5,-1060.7905"/>
<polygon fill="#f5f5f5" stroke="transparent" points="393.5,-1098.2905 393.5,-1121.2905 533.5,-1121.2905 533.5,-1098.2905 393.5,-1098.2905"/>
<polygon fill="none" stroke="#000000" points="393.5,-1098.2905 393.5,-1121.2905 533.5,-1121.2905 533.5,-1098.2905 393.5,-1098.2905"/>
<text text-anchor="start" x="398.5" y="-1106.8905" font-family="Helvetica,sans-Serif" font-weight="bold" font-size="11.00" fill="#000000">expage_DataCore</text>
<text text-anchor="start" x="499.0219" y="-1106.3905" font-family="Helvetica,sans-Serif" font-size="11.00" fill="#000000">[table]</text>
<polygon fill="none" stroke="#000000" points="393.5,-1079.2905 393.5,-1098.2905 533.5,-1098.2905 533.5,-1079.2905 393.5,-1079.2905"/>
<text text-anchor="start" x="396.5" y="-1085.3905" font-family="Helvetica,sans-Serif" font-size="11.00" fill="#000000">...</text>
<polygon fill="#ffffff" stroke="transparent" points="393.5,-1060.2905 393.5,-1079.2905 430.5,-1079.2905 430.5,-1060.2905 393.5,-1060.2905"/>
<polygon fill="none" stroke="#000000" points="393.5,-1060.2905 393.5,-1079.2905 430.5,-1079.2905 430.5,-1060.2905 393.5,-1060.2905"/>
<text text-anchor="start" x="396.5" y="-1066.3905" font-family="Helvetica,sans-Serif" font-size="11.00" fill="#000000">&lt; 8</text>
<polygon fill="#ffffff" stroke="transparent" points="430.5,-1060.2905 430.5,-1079.2905 503.5,-1079.2905 503.5,-1060.2905 430.5,-1060.2905"/>
<polygon fill="none" stroke="#000000" points="430.5,-1060.2905 430.5,-1079.2905 503.5,-1079.2905 503.5,-1060.2905 430.5,-1060.2905"/>
<text text-anchor="start" x="440.594" y="-1066.3905" font-family="Helvetica,sans-Serif" font-size="11.00" fill="#000000">16.009 rows</text>
<polygon fill="#ffffff" stroke="transparent" points="503.5,-1060.2905 503.5,-1079.2905 533.5,-1079.2905 533.5,-1060.2905 503.5,-1060.2905"/>
<polygon fill="none" stroke="#000000" points="503.5,-1060.2905 503.5,-1079.2905 533.5,-1079.2905 533.5,-1060.2905 503.5,-1060.2905"/>
<text text-anchor="start" x="514.9053" y="-1066.3905" font-family="Helvetica,sans-Serif" font-size="11.00" fill="#000000">1 &gt;</text>
</a>
</g>
</g>
<!-- expage_DataCore&#45;&gt;global_RefCore -->
<g id="edge23" class="edge">
<title>expage_DataCore:w&#45;&gt;global_RefCore:e</title>
<path fill="none" stroke="#000000" d="M380.8282,-1080.6096C330.7152,-1027.2582 404.6043,-742.5523 335.5,-760.2905"/>
<polygon fill="#000000" stroke="#000000" points="386.6587,-1084.1437 391.6339,-1091.3691 390.0793,-1086.2171 393.5,-1088.2905 393.5,-1088.2905 393.5,-1088.2905 390.0793,-1086.2171 395.3661,-1085.2119 386.6587,-1084.1437 386.6587,-1084.1437"/>
<ellipse fill="none" stroke="#000000" cx="383.9221" cy="-1082.4849" rx="3.2" ry="3.2"/>
</g>
<!-- expage_DataCore&#45;&gt;global_RefCore -->
<g id="edge24" class="edge">
<title>expage_DataCore:w&#45;&gt;global_RefCore:e</title>
<path fill="none" stroke="#000000" d="M380.2057,-1082.4772C331.331,-1037.8168 404.3152,-754.7124 335.5,-760.2905"/>
<polygon fill="#000000" stroke="#000000" points="386.1701,-1085.0853 392.0576,-1091.589 389.8351,-1086.6879 393.5,-1088.2905 393.5,-1088.2905 393.5,-1088.2905 389.8351,-1086.6879 394.9424,-1084.9921 386.1701,-1085.0853 386.1701,-1085.0853"/>
<ellipse fill="none" stroke="#000000" cx="383.2382" cy="-1083.8032" rx="3.2" ry="3.2"/>
</g>
<!-- expage_DataCore&#45;&gt;global_RefCore -->
<g id="edge25" class="edge">
<title>expage_DataCore:w&#45;&gt;global_RefCore:e</title>
<path fill="none" stroke="#000000" d="M379.296,-1084.3489C332.2454,-1047.1843 403.8815,-766.7573 335.5,-760.2905"/>
<polygon fill="#000000" stroke="#000000" points="385.7913,-1086.1513 392.5374,-1091.7595 389.6457,-1087.2209 393.5,-1088.2905 393.5,-1088.2905 393.5,-1088.2905 389.6457,-1087.2209 394.4626,-1084.8216 385.7913,-1086.1513 385.7913,-1086.1513"/>
<ellipse fill="none" stroke="#000000" cx="382.7078" cy="-1085.2956" rx="3.2" ry="3.2"/>
</g>
<!-- expage_DataCore&#45;&gt;global_RefCore -->
<g id="edge26" class="edge">
<title>expage_DataCore:w&#45;&gt;global_RefCore:e</title>
<path fill="none" stroke="#000000" d="M378.9992,-1086.9188C332.5476,-1058.9204 403.7369,-778.728 335.5,-760.2905"/>
<polygon fill="#000000" stroke="#000000" points="385.5356,-1087.5371 393.1609,-1091.8745 389.5178,-1087.9138 393.5,-1088.2905 393.5,-1088.2905 393.5,-1088.2905 389.5178,-1087.9138 393.8391,-1084.7065 385.5356,-1087.5371 385.5356,-1087.5371"/>
<ellipse fill="none" stroke="#000000" cx="382.3498" cy="-1087.2357" rx="3.2" ry="3.2"/>
</g>
<!-- fos_DataCore -->
<g id="node12" class="node">
<title>fos_DataCore</title>
<g id="a_node12"><a xlink:href="../../tables/fos_DataCore.html" xlink:title="fos_DataCore" target="_top">
<polygon fill="#ffffff" stroke="transparent" points="405,-978.7905 405,-1039.7905 522,-1039.7905 522,-978.7905 405,-978.7905"/>
<polygon fill="#f5f5f5" stroke="transparent" points="405.5,-1016.2905 405.5,-1039.2905 522.5,-1039.2905 522.5,-1016.2905 405.5,-1016.2905"/>
<polygon fill="none" stroke="#000000" points="405.5,-1016.2905 405.5,-1039.2905 522.5,-1039.2905 522.5,-1016.2905 405.5,-1016.2905"/>
<text text-anchor="start" x="410.5" y="-1024.8905" font-family="Helvetica,sans-Serif" font-weight="bold" font-size="11.00" fill="#000000">fos_DataCore</text>
<text text-anchor="start" x="488.0219" y="-1024.3905" font-family="Helvetica,sans-Serif" font-size="11.00" fill="#000000">[table]</text>
<polygon fill="none" stroke="#000000" points="405.5,-997.2905 405.5,-1016.2905 522.5,-1016.2905 522.5,-997.2905 405.5,-997.2905"/>
<text text-anchor="start" x="408.5" y="-1003.3905" font-family="Helvetica,sans-Serif" font-size="11.00" fill="#000000">...</text>
<polygon fill="#ffffff" stroke="transparent" points="405.5,-978.2905 405.5,-997.2905 434.5,-997.2905 434.5,-978.2905 405.5,-978.2905"/>
<polygon fill="none" stroke="#000000" points="405.5,-978.2905 405.5,-997.2905 434.5,-997.2905 434.5,-978.2905 405.5,-978.2905"/>
<text text-anchor="start" x="408.5" y="-984.3905" font-family="Helvetica,sans-Serif" font-size="11.00" fill="#000000">&lt; 19</text>
<polygon fill="#ffffff" stroke="transparent" points="434.5,-978.2905 434.5,-997.2905 500.5,-997.2905 500.5,-978.2905 434.5,-978.2905"/>
<polygon fill="none" stroke="#000000" points="434.5,-978.2905 434.5,-997.2905 500.5,-997.2905 500.5,-978.2905 434.5,-978.2905"/>
<text text-anchor="start" x="437.594" y="-984.3905" font-family="Helvetica,sans-Serif" font-size="11.00" fill="#000000">11.858 rows</text>
<polygon fill="#ffffff" stroke="transparent" points="500.5,-978.2905 500.5,-997.2905 522.5,-997.2905 522.5,-978.2905 500.5,-978.2905"/>
<polygon fill="none" stroke="#000000" points="500.5,-978.2905 500.5,-997.2905 522.5,-997.2905 522.5,-978.2905 500.5,-978.2905"/>
<text text-anchor="start" x="503.9053" y="-984.3905" font-family="Helvetica,sans-Serif" font-size="11.00" fill="#000000">1 &gt;</text>
</a>
</g>
</g>
<!-- fos_DataCore&#45;&gt;global_RefCore -->
<g id="edge27" class="edge">
<title>fos_DataCore:w&#45;&gt;global_RefCore:e</title>
<path fill="none" stroke="#000000" d="M395.5956,-995.6431C384.0533,-980.3081 383.1821,-965.1082 376,-949.2905 356.5314,-906.4132 382.5903,-741.2905 335.5,-760.2905"/>
<polygon fill="#000000" stroke="#000000" points="400.0512,-1000.433 402.8641,-1008.7425 402.7756,-1003.3618 405.5,-1006.2905 405.5,-1006.2905 405.5,-1006.2905 402.7756,-1003.3618 408.1359,-1003.8386 400.0512,-1000.433 400.0512,-1000.433"/>
<ellipse fill="none" stroke="#000000" cx="397.8717" cy="-998.09" rx="3.2" ry="3.2"/>
</g>
<!-- fos_DataCore&#45;&gt;global_RefCore -->
<g id="edge28" class="edge">
<title>fos_DataCore:w&#45;&gt;global_RefCore:e</title>
<path fill="none" stroke="#000000" d="M392.8278,-999.3497C383.8552,-990.6727 382.5605,-976.7394 376,-962.2905 356.5314,-919.4132 382.5903,-754.2905 335.5,-760.2905"/>
<polygon fill="#000000" stroke="#000000" points="398.4835,-1002.4475 403.7706,-1009.448 401.9918,-1004.369 405.5,-1006.2905 405.5,-1006.2905 405.5,-1006.2905 401.9918,-1004.369 407.2294,-1003.1331 398.4835,-1002.4475 398.4835,-1002.4475"/>
<ellipse fill="none" stroke="#000000" cx="395.6769" cy="-1000.9102" rx="3.2" ry="3.2"/>
</g>
<!-- fos_DataCore&#45;&gt;global_RefCore -->
<g id="edge29" class="edge">
<title>fos_DataCore:w&#45;&gt;global_RefCore:e</title>
<path fill="none" stroke="#000000" d="M390.9642,-1006.1236C383.6358,-1001.6166 382.0771,-988.6747 376,-975.2905 356.5314,-932.4132 382.5903,-767.2905 335.5,-760.2905"/>
<polygon fill="#000000" stroke="#000000" points="397.5005,-1006.1986 405.4586,-1009.8903 401.5003,-1006.2446 405.5,-1006.2905 405.5,-1006.2905 405.5,-1006.2905 401.5003,-1006.2446 405.5414,-1002.6908 397.5005,-1006.1986 397.5005,-1006.1986"/>
<ellipse fill="none" stroke="#000000" cx="394.3007" cy="-1006.1618" rx="3.2" ry="3.2"/>
</g>
<!-- fos_DataCore&#45;&gt;global_RefCore -->
<g id="edge30" class="edge">
<title>fos_DataCore:w&#45;&gt;global_RefCore:e</title>
<path fill="none" stroke="#000000" d="M393.4048,-1014.5756C383.9074,-1017.2592 382.6986,-1003.0436 376,-988.2905 356.5314,-945.4132 382.5903,-780.2905 335.5,-760.2905"/>
<polygon fill="#000000" stroke="#000000" points="398.8999,-1010.8115 407.5344,-1009.2606 402.2,-1008.551 405.5,-1006.2905 405.5,-1006.2905 405.5,-1006.2905 402.2,-1008.551 403.4656,-1003.3205 398.8999,-1010.8115 398.8999,-1010.8115"/>
<ellipse fill="none" stroke="#000000" cx="396.2599" cy="-1012.6199" rx="3.2" ry="3.2"/>
</g>
<!-- global_DataSetMaster -->
<g id="node13" class="node">
<title>global_DataSetMaster</title>
<g id="a_node13"><a xlink:href="../../tables/global_DataSetMaster.html" xlink:title="global_DataSetMaster" target="_top">
<polygon fill="#ffffff" stroke="transparent" points="592,-658.7905 592,-829.7905 756,-829.7905 756,-658.7905 592,-658.7905"/>
<polygon fill="#f5f5f5" stroke="transparent" points="592,-806.2905 592,-829.2905 756,-829.2905 756,-806.2905 592,-806.2905"/>
<polygon fill="none" stroke="#000000" points="592,-806.2905 592,-829.2905 756,-829.2905 756,-806.2905 592,-806.2905"/>
<text text-anchor="start" x="597" y="-814.8905" font-family="Helvetica,sans-Serif" font-weight="bold" font-size="11.00" fill="#000000">global_DataSetMaster</text>
<text text-anchor="start" x="721.5219" y="-814.3905" font-family="Helvetica,sans-Serif" font-size="11.00" fill="#000000">[table]</text>
<polygon fill="none" stroke="#000000" points="592,-784.2905 592,-806.2905 756,-806.2905 756,-784.2905 592,-784.2905"/>
<image xlink:href="../../images/primaryKeys.png" width="11px" height="12px" preserveAspectRatio="xMinYMin meet" x="597" y="-801.291"/>
<text text-anchor="start" x="621" y="-791.3905" font-family="Helvetica,sans-Serif" font-size="11.00" fill="#000000">DATASETID</text>
<polygon fill="none" stroke="#000000" points="592,-762.2905 592,-784.2905 756,-784.2905 756,-762.2905 592,-762.2905"/>
<image xlink:href="../../images/foreignKeys.png" width="11px" height="12px" preserveAspectRatio="xMinYMin meet" x="597" y="-779.291"/>
<text text-anchor="start" x="621" y="-769.3905" font-family="Helvetica,sans-Serif" font-size="11.00" fill="#000000">UNITID</text>
<polygon fill="none" stroke="#000000" points="592,-740.2905 592,-762.2905 756,-762.2905 756,-740.2905 592,-740.2905"/>
<image xlink:href="../../images/foreignKeys.png" width="11px" height="12px" preserveAspectRatio="xMinYMin meet" x="597" y="-757.291"/>
<text text-anchor="start" x="621" y="-747.3905" font-family="Helvetica,sans-Serif" font-size="11.00" fill="#000000">DSETTYPEID</text>
<polygon fill="#ffffff" stroke="transparent" points="592,-718.2905 592,-740.2905 756,-740.2905 756,-718.2905 592,-718.2905"/>
<polygon fill="none" stroke="#000000" points="592,-718.2905 592,-740.2905 756,-740.2905 756,-718.2905 592,-718.2905"/>
<text text-anchor="start" x="621" y="-725.3905" font-family="Helvetica,sans-Serif" font-size="11.00" fill="#000000">NEODSETID</text>
<polygon fill="none" stroke="#000000" points="592,-696.2905 592,-718.2905 756,-718.2905 756,-696.2905 592,-696.2905"/>
<image xlink:href="../../images/foreignKeys.png" width="11px" height="12px" preserveAspectRatio="xMinYMin meet" x="597" y="-713.291"/>
<text text-anchor="start" x="621" y="-703.3905" font-family="Helvetica,sans-Serif" font-size="11.00" fill="#000000">DSETSOURCE</text>
<polygon fill="none" stroke="#000000" points="592,-677.2905 592,-696.2905 756,-696.2905 756,-677.2905 592,-677.2905"/>
<text text-anchor="start" x="595" y="-683.3905" font-family="Helvetica,sans-Serif" font-size="11.00" fill="#000000">...</text>
<polygon fill="#ffffff" stroke="transparent" points="592,-658.2905 592,-677.2905 649,-677.2905 649,-658.2905 592,-658.2905"/>
<polygon fill="none" stroke="#000000" points="592,-658.2905 592,-677.2905 649,-677.2905 649,-658.2905 592,-658.2905"/>
<text text-anchor="start" x="595" y="-664.3905" font-family="Helvetica,sans-Serif" font-size="11.00" fill="#000000">&lt; 3</text>
<polygon fill="#ffffff" stroke="transparent" points="649,-658.2905 649,-677.2905 717,-677.2905 717,-658.2905 649,-658.2905"/>
<polygon fill="none" stroke="#000000" points="649,-658.2905 649,-677.2905 717,-677.2905 717,-658.2905 649,-658.2905"/>
<text text-anchor="start" x="669.3807" y="-664.3905" font-family="Helvetica,sans-Serif" font-size="11.00" fill="#000000">311 rows</text>
<polygon fill="#ffffff" stroke="transparent" points="717,-658.2905 717,-677.2905 756,-677.2905 756,-658.2905 717,-658.2905"/>
<polygon fill="none" stroke="#000000" points="717,-658.2905 717,-677.2905 756,-677.2905 756,-658.2905 717,-658.2905"/>
<text text-anchor="start" x="737.4053" y="-664.3905" font-family="Helvetica,sans-Serif" font-size="11.00" fill="#000000">2 &gt;</text>
</a>
</g>
</g>
<!-- global_DataSetMaster&#45;&gt;cabah_datasourceID -->
<g id="edge31" class="edge">
<title>global_DataSetMaster:w&#45;&gt;cabah_datasourceID:e</title>
<path fill="none" stroke="#000000" d="M578.109,-702.5138C525.994,-660.1502 616.146,-350.2905 541.5,-350.2905"/>
<polygon fill="#000000" stroke="#000000" points="584.4348,-704.6891 590.8293,-710.6949 588.2174,-705.9898 592,-707.2905 592,-707.2905 592,-707.2905 588.2174,-705.9898 593.1707,-703.8862 584.4348,-704.6891 584.4348,-704.6891"/>
<ellipse fill="none" stroke="#000000" cx="581.4087" cy="-703.6485" rx="3.2" ry="3.2"/>
</g>
<!-- global_datasettypeID -->
<g id="node14" class="node">
<title>global_datasettypeID</title>
<g id="a_node14"><a xlink:href="../../tables/global_datasettypeID.html" xlink:title="global_datasettypeID" target="_top">
<polygon fill="#ffffff" stroke="transparent" points="384,-650.7905 384,-711.7905 543,-711.7905 543,-650.7905 384,-650.7905"/>
<polygon fill="#f5f5f5" stroke="transparent" points="384.5,-688.2905 384.5,-711.2905 543.5,-711.2905 543.5,-688.2905 384.5,-688.2905"/>
<polygon fill="none" stroke="#000000" points="384.5,-688.2905 384.5,-711.2905 543.5,-711.2905 543.5,-688.2905 384.5,-688.2905"/>
<text text-anchor="start" x="389.5" y="-696.8905" font-family="Helvetica,sans-Serif" font-weight="bold" font-size="11.00" fill="#000000">global_datasettypeID</text>
<text text-anchor="start" x="509.0219" y="-696.3905" font-family="Helvetica,sans-Serif" font-size="11.00" fill="#000000">[table]</text>
<polygon fill="none" stroke="#000000" points="384.5,-669.2905 384.5,-688.2905 543.5,-688.2905 543.5,-669.2905 384.5,-669.2905"/>
<text text-anchor="start" x="387.5" y="-675.3905" font-family="Helvetica,sans-Serif" font-size="11.00" fill="#000000">...</text>
<polygon fill="#ffffff" stroke="transparent" points="384.5,-650.2905 384.5,-669.2905 437.5,-669.2905 437.5,-650.2905 384.5,-650.2905"/>
<polygon fill="none" stroke="#000000" points="384.5,-650.2905 384.5,-669.2905 437.5,-669.2905 437.5,-650.2905 384.5,-650.2905"/>
<text text-anchor="start" x="387.5" y="-656.3905" font-family="Helvetica,sans-Serif" font-size="11.00" fill="#000000"> &#160;</text>
<polygon fill="#ffffff" stroke="transparent" points="437.5,-650.2905 437.5,-669.2905 501.5,-669.2905 501.5,-650.2905 437.5,-650.2905"/>
<polygon fill="none" stroke="#000000" points="437.5,-650.2905 437.5,-669.2905 501.5,-669.2905 501.5,-650.2905 437.5,-650.2905"/>
<text text-anchor="start" x="459.9956" y="-656.3905" font-family="Helvetica,sans-Serif" font-size="11.00" fill="#000000">42 rows</text>
<polygon fill="#ffffff" stroke="transparent" points="501.5,-650.2905 501.5,-669.2905 543.5,-669.2905 543.5,-650.2905 501.5,-650.2905"/>
<polygon fill="none" stroke="#000000" points="501.5,-650.2905 501.5,-669.2905 543.5,-669.2905 543.5,-650.2905 501.5,-650.2905"/>
<text text-anchor="start" x="524.9053" y="-656.3905" font-family="Helvetica,sans-Serif" font-size="11.00" fill="#000000">1 &gt;</text>
</a>
</g>
</g>
<!-- global_DataSetMaster&#45;&gt;global_datasettypeID -->
<g id="edge32" class="edge">
<title>global_DataSetMaster:w&#45;&gt;global_datasettypeID:e</title>
<path fill="none" stroke="#000000" d="M578.2262,-746.5008C560.5678,-730.2603 576.366,-678.2905 543.5,-678.2905"/>
<polygon fill="#000000" stroke="#000000" points="584.4438,-748.6629 590.8176,-754.6908 588.2219,-749.9767 592,-751.2905 592,-751.2905 592,-751.2905 588.2219,-749.9767 593.1824,-747.8903 584.4438,-748.6629 584.4438,-748.6629"/>
<ellipse fill="none" stroke="#000000" cx="581.4214" cy="-747.6119" rx="3.2" ry="3.2"/>
</g>
<!-- global_UnitMaster -->
<g id="node15" class="node">
<title>global_UnitMaster</title>
<g id="a_node15"><a xlink:href="../../tables/global_UnitMaster.html" xlink:title="global_UnitMaster" target="_top">
<polygon fill="#ffffff" stroke="transparent" points="392,-896.7905 392,-957.7905 535,-957.7905 535,-896.7905 392,-896.7905"/>
<polygon fill="#f5f5f5" stroke="transparent" points="392.5,-934.2905 392.5,-957.2905 535.5,-957.2905 535.5,-934.2905 392.5,-934.2905"/>
<polygon fill="none" stroke="#000000" points="392.5,-934.2905 392.5,-957.2905 535.5,-957.2905 535.5,-934.2905 392.5,-934.2905"/>
<text text-anchor="start" x="397.5" y="-942.8905" font-family="Helvetica,sans-Serif" font-weight="bold" font-size="11.00" fill="#000000">global_UnitMaster</text>
<text text-anchor="start" x="501.0219" y="-942.3905" font-family="Helvetica,sans-Serif" font-size="11.00" fill="#000000">[table]</text>
<polygon fill="none" stroke="#000000" points="392.5,-915.2905 392.5,-934.2905 535.5,-934.2905 535.5,-915.2905 392.5,-915.2905"/>
<text text-anchor="start" x="395.5" y="-921.3905" font-family="Helvetica,sans-Serif" font-size="11.00" fill="#000000">...</text>
<polygon fill="#ffffff" stroke="transparent" points="392.5,-896.2905 392.5,-915.2905 438.5,-915.2905 438.5,-896.2905 392.5,-896.2905"/>
<polygon fill="none" stroke="#000000" points="392.5,-896.2905 392.5,-915.2905 438.5,-915.2905 438.5,-896.2905 392.5,-896.2905"/>
<text text-anchor="start" x="395.5" y="-902.3905" font-family="Helvetica,sans-Serif" font-size="11.00" fill="#000000">&lt; 5</text>
<polygon fill="#ffffff" stroke="transparent" points="438.5,-896.2905 438.5,-915.2905 501.5,-915.2905 501.5,-896.2905 438.5,-896.2905"/>
<polygon fill="none" stroke="#000000" points="438.5,-896.2905 438.5,-915.2905 501.5,-915.2905 501.5,-896.2905 438.5,-896.2905"/>
<text text-anchor="start" x="453.8807" y="-902.3905" font-family="Helvetica,sans-Serif" font-size="11.00" fill="#000000">607 rows</text>
<polygon fill="#ffffff" stroke="transparent" points="501.5,-896.2905 501.5,-915.2905 535.5,-915.2905 535.5,-896.2905 501.5,-896.2905"/>
<polygon fill="none" stroke="#000000" points="501.5,-896.2905 501.5,-915.2905 535.5,-915.2905 535.5,-896.2905 501.5,-896.2905"/>
<text text-anchor="start" x="516.9053" y="-902.3905" font-family="Helvetica,sans-Serif" font-size="11.00" fill="#000000">4 &gt;</text>
</a>
</g>
</g>
<!-- global_DataSetMaster&#45;&gt;global_UnitMaster -->
<g id="edge33" class="edge">
<title>global_DataSetMaster:w&#45;&gt;global_UnitMaster:e</title>
<path fill="none" stroke="#000000" d="M577.6717,-776.0403C533.2319,-796.5058 601.4172,-924.2905 535.5,-924.2905"/>
<polygon fill="#000000" stroke="#000000" points="584.1434,-774.7984 592.6785,-776.826 588.0717,-774.0445 592,-773.2905 592,-773.2905 592,-773.2905 588.0717,-774.0445 591.3215,-769.7551 584.1434,-774.7984 584.1434,-774.7984"/>
<ellipse fill="none" stroke="#000000" cx="581.0007" cy="-775.4015" rx="3.2" ry="3.2"/>
</g>
<!-- global_UnitMaster&#45;&gt;global_RefCore -->
<g id="edge41" class="edge">
<title>global_UnitMaster:w&#45;&gt;global_RefCore:e</title>
<path fill="none" stroke="#000000" d="M378.0595,-921.7145C328.8206,-900.8502 406.9387,-760.2905 335.5,-760.2905"/>
<polygon fill="#000000" stroke="#000000" points="384.6243,-922.8856 391.8678,-927.8346 388.5622,-923.588 392.5,-924.2905 392.5,-924.2905 392.5,-924.2905 388.5622,-923.588 393.1322,-920.7465 384.6243,-922.8856 384.6243,-922.8856"/>
<ellipse fill="none" stroke="#000000" cx="381.4741" cy="-922.3236" rx="3.2" ry="3.2"/>
</g>
<!-- global_datasetpublicationID -->
<g id="node16" class="node">
<title>global_datasetpublicationID</title>
<g id="a_node16"><a xlink:href="../../tables/global_datasetpublicationID.html" xlink:title="global_datasetpublicationID" target="_top">
<polygon fill="#ffffff" stroke="transparent" points="805,-930.2905 805,-1130.2905 1082,-1130.2905 1082,-930.2905 805,-930.2905"/>
<polygon fill="#f5f5f5" stroke="transparent" points="807.5,-1105.2905 807.5,-1128.2905 1080.5,-1128.2905 1080.5,-1105.2905 807.5,-1105.2905"/>
<polygon fill="none" stroke="#000000" points="807.5,-1105.2905 807.5,-1128.2905 1080.5,-1128.2905 1080.5,-1105.2905 807.5,-1105.2905"/>
<text text-anchor="start" x="812.5" y="-1113.8905" font-family="Helvetica,sans-Serif" font-weight="bold" font-size="11.00" fill="#000000">global_datasetpublicationID</text>
<text text-anchor="start" x="1045.5437" y="-1113.3905" font-family="Helvetica,sans-Serif" font-size="11.00" fill="#000000">[table]</text>
<polygon fill="none" stroke="#000000" points="807.5,-1083.2905 807.5,-1105.2905 988.5,-1105.2905 988.5,-1083.2905 807.5,-1083.2905"/>
<image xlink:href="../../images/primaryKeys.png" width="11px" height="12px" preserveAspectRatio="xMinYMin meet" x="812.5" y="-1100.29"/>
<text text-anchor="start" x="827.5" y="-1090.3905" font-family="Helvetica,sans-Serif" font-size="11.00" fill="#000000">DATASETID</text>
<polygon fill="none" stroke="#000000" points="988.5,-1083.2905 988.5,-1105.2905 1080.5,-1105.2905 1080.5,-1083.2905 988.5,-1083.2905"/>
<text text-anchor="start" x="991.5" y="-1090.9905" font-family="Helvetica,sans-Serif" font-size="11.00" fill="#000000">int4[10]</text>
<polygon fill="none" stroke="#000000" points="807.5,-1061.2905 807.5,-1083.2905 988.5,-1083.2905 988.5,-1061.2905 807.5,-1061.2905"/>
<image xlink:href="../../images/primaryKeys.png" width="11px" height="12px" preserveAspectRatio="xMinYMin meet" x="812.5" y="-1078.29"/>
<text text-anchor="start" x="827.5" y="-1068.3905" font-family="Helvetica,sans-Serif" font-size="11.00" fill="#000000">REFDBID</text>
<polygon fill="none" stroke="#000000" points="988.5,-1061.2905 988.5,-1083.2905 1080.5,-1083.2905 1080.5,-1061.2905 988.5,-1061.2905"/>
<text text-anchor="start" x="991.5" y="-1068.9905" font-family="Helvetica,sans-Serif" font-size="11.00" fill="#000000">text[2147483647]</text>
<polygon fill="none" stroke="#000000" points="807.5,-1039.2905 807.5,-1061.2905 988.5,-1061.2905 988.5,-1039.2905 807.5,-1039.2905"/>
<text text-anchor="start" x="827.5" y="-1046.3905" font-family="Helvetica,sans-Serif" font-size="11.00" fill="#000000">NEODSETID</text>
<polygon fill="none" stroke="#000000" points="988.5,-1039.2905 988.5,-1061.2905 1080.5,-1061.2905 1080.5,-1039.2905 988.5,-1039.2905"/>
<text text-anchor="start" x="991.5" y="-1046.9905" font-family="Helvetica,sans-Serif" font-size="11.00" fill="#000000">int4[10]</text>
<polygon fill="none" stroke="#000000" points="807.5,-1017.2905 807.5,-1039.2905 988.5,-1039.2905 988.5,-1017.2905 807.5,-1017.2905"/>
<text text-anchor="start" x="827.5" y="-1024.3905" font-family="Helvetica,sans-Serif" font-size="11.00" fill="#000000">NEO_REFID</text>
<polygon fill="none" stroke="#000000" points="988.5,-1017.2905 988.5,-1039.2905 1080.5,-1039.2905 1080.5,-1017.2905 988.5,-1017.2905"/>
<text text-anchor="start" x="991.5" y="-1024.9905" font-family="Helvetica,sans-Serif" font-size="11.00" fill="#000000">int4[10]</text>
<polygon fill="none" stroke="#000000" points="807.5,-995.2905 807.5,-1017.2905 988.5,-1017.2905 988.5,-995.2905 807.5,-995.2905"/>
<text text-anchor="start" x="827.5" y="-1002.3905" font-family="Helvetica,sans-Serif" font-size="11.00" fill="#000000">PRIMARYPUB</text>
<polygon fill="none" stroke="#000000" points="988.5,-995.2905 988.5,-1017.2905 1080.5,-1017.2905 1080.5,-995.2905 988.5,-995.2905"/>
<text text-anchor="start" x="991.5" y="-1002.9905" font-family="Helvetica,sans-Serif" font-size="11.00" fill="#000000">bool[1]</text>
<polygon fill="none" stroke="#000000" points="807.5,-973.2905 807.5,-995.2905 988.5,-995.2905 988.5,-973.2905 807.5,-973.2905"/>
<text text-anchor="start" x="827.5" y="-980.3905" font-family="Helvetica,sans-Serif" font-size="11.00" fill="#000000">CREATED_AT</text>
<polygon fill="none" stroke="#000000" points="988.5,-973.2905 988.5,-995.2905 1080.5,-995.2905 1080.5,-973.2905 988.5,-973.2905"/>
<text text-anchor="start" x="991.1023" y="-980.9905" font-family="Helvetica,sans-Serif" font-size="11.00" fill="#000000">timestamptz[35,6]</text>
<polygon fill="none" stroke="#000000" points="807.5,-951.2905 807.5,-973.2905 988.5,-973.2905 988.5,-951.2905 807.5,-951.2905"/>
<text text-anchor="start" x="827.5" y="-958.3905" font-family="Helvetica,sans-Serif" font-size="11.00" fill="#000000">UPDATED_AT</text>
<polygon fill="none" stroke="#000000" points="988.5,-951.2905 988.5,-973.2905 1080.5,-973.2905 1080.5,-951.2905 988.5,-951.2905"/>
<text text-anchor="start" x="991.1023" y="-958.9905" font-family="Helvetica,sans-Serif" font-size="11.00" fill="#000000">timestamptz[35,6]</text>
<polygon fill="#ffffff" stroke="transparent" points="807.5,-932.2905 807.5,-951.2905 883.5,-951.2905 883.5,-932.2905 807.5,-932.2905"/>
<polygon fill="none" stroke="#000000" points="807.5,-932.2905 807.5,-951.2905 883.5,-951.2905 883.5,-932.2905 807.5,-932.2905"/>
<text text-anchor="start" x="810.5" y="-938.3905" font-family="Helvetica,sans-Serif" font-size="11.00" fill="#000000">&lt; 2</text>
<polygon fill="#ffffff" stroke="transparent" points="883.5,-932.2905 883.5,-951.2905 988.5,-951.2905 988.5,-932.2905 883.5,-932.2905"/>
<polygon fill="none" stroke="#000000" points="883.5,-932.2905 883.5,-951.2905 988.5,-951.2905 988.5,-932.2905 883.5,-932.2905"/>
<text text-anchor="start" x="940.8807" y="-938.3905" font-family="Helvetica,sans-Serif" font-size="11.00" fill="#000000">403 rows</text>
<polygon fill="#ffffff" stroke="transparent" points="988.5,-932.2905 988.5,-951.2905 1080.5,-951.2905 1080.5,-932.2905 988.5,-932.2905"/>
<polygon fill="none" stroke="#000000" points="988.5,-932.2905 988.5,-951.2905 1080.5,-951.2905 1080.5,-932.2905 988.5,-932.2905"/>
<text text-anchor="start" x="1061.9053" y="-938.3905" font-family="Helvetica,sans-Serif" font-size="11.00" fill="#000000">0 &gt;</text>
<polygon fill="none" stroke="#000000" stroke-width="2" points="806,-931.2905 806,-1129.2905 1081,-1129.2905 1081,-931.2905 806,-931.2905"/>
</a>
</g>
</g>
<!-- global_datasetpublicationID&#45;&gt;global_RefCore -->
<g id="edge35" class="edge">
<title>global_datasetpublicationID:w&#45;&gt;global_RefCore:e</title>
<path fill="none" stroke="#000000" d="M792.8296,-1073.0798C686.4863,-1083.5601 444.6874,-1193.9057 376,-1132.2905 314.1002,-1076.7641 418.6551,-760.2905 335.5,-760.2905"/>
<polygon fill="#000000" stroke="#000000" points="799.5116,-1072.7204 807.6934,-1075.8853 803.5058,-1072.5055 807.5,-1072.2905 807.5,-1072.2905 807.5,-1072.2905 803.5058,-1072.5055 807.3066,-1068.6957 799.5116,-1072.7204 799.5116,-1072.7204"/>
<ellipse fill="none" stroke="#000000" cx="796.3162" cy="-1072.8923" rx="3.2" ry="3.2"/>
</g>
<!-- global_datasetpublicationID&#45;&gt;global_DataSetMaster -->
<g id="edge34" class="edge">
<title>global_datasetpublicationID:w&#45;&gt;global_DataSetMaster:e</title>
<path fill="none" stroke="#000000" d="M792.9553,-1092.8909C689.5607,-1070.8265 885.4466,-795.2905 756,-795.2905"/>
<polygon fill="#000000" stroke="#000000" points="799.5368,-1093.5242 807.1551,-1097.874 803.5184,-1093.9074 807.5,-1094.2905 807.5,-1094.2905 807.5,-1094.2905 803.5184,-1093.9074 807.8449,-1090.7071 799.5368,-1093.5242 799.5368,-1093.5242"/>
<ellipse fill="none" stroke="#000000" cx="796.3515" cy="-1093.2177" rx="3.2" ry="3.2"/>
</g>
<!-- ippd_Sample -->
<g id="node22" class="node">
<title>ippd_Sample</title>
<g id="a_node22"><a xlink:href="../../tables/ippd_Sample.html" xlink:title="ippd_Sample" target="_top">
<polygon fill="#ffffff" stroke="transparent" points="887,-701.7905 887,-762.7905 1000,-762.7905 1000,-701.7905 887,-701.7905"/>
<polygon fill="#f5f5f5" stroke="transparent" points="887.5,-739.2905 887.5,-762.2905 1000.5,-762.2905 1000.5,-739.2905 887.5,-739.2905"/>
<polygon fill="none" stroke="#000000" points="887.5,-739.2905 887.5,-762.2905 1000.5,-762.2905 1000.5,-739.2905 887.5,-739.2905"/>
<text text-anchor="start" x="892.5" y="-747.8905" font-family="Helvetica,sans-Serif" font-weight="bold" font-size="11.00" fill="#000000">ippd_Sample</text>
<text text-anchor="start" x="966.0219" y="-747.3905" font-family="Helvetica,sans-Serif" font-size="11.00" fill="#000000">[table]</text>
<polygon fill="none" stroke="#000000" points="887.5,-720.2905 887.5,-739.2905 1000.5,-739.2905 1000.5,-720.2905 887.5,-720.2905"/>
<text text-anchor="start" x="890.5" y="-726.3905" font-family="Helvetica,sans-Serif" font-size="11.00" fill="#000000">...</text>
<polygon fill="#ffffff" stroke="transparent" points="887.5,-701.2905 887.5,-720.2905 911.5,-720.2905 911.5,-701.2905 887.5,-701.2905"/>
<polygon fill="none" stroke="#000000" points="887.5,-701.2905 887.5,-720.2905 911.5,-720.2905 911.5,-701.2905 887.5,-701.2905"/>
<text text-anchor="start" x="890.5" y="-707.3905" font-family="Helvetica,sans-Serif" font-size="11.00" fill="#000000">&lt; 3</text>
<polygon fill="#ffffff" stroke="transparent" points="911.5,-701.2905 911.5,-720.2905 977.5,-720.2905 977.5,-701.2905 911.5,-701.2905"/>
<polygon fill="none" stroke="#000000" points="911.5,-701.2905 911.5,-720.2905 977.5,-720.2905 977.5,-701.2905 911.5,-701.2905"/>
<text text-anchor="start" x="914.594" y="-707.3905" font-family="Helvetica,sans-Serif" font-size="11.00" fill="#000000">18.370 rows</text>
<polygon fill="#ffffff" stroke="transparent" points="977.5,-701.2905 977.5,-720.2905 1000.5,-720.2905 1000.5,-701.2905 977.5,-701.2905"/>
<polygon fill="none" stroke="#000000" points="977.5,-701.2905 977.5,-720.2905 1000.5,-720.2905 1000.5,-701.2905 977.5,-701.2905"/>
<text text-anchor="start" x="981.9053" y="-707.3905" font-family="Helvetica,sans-Serif" font-size="11.00" fill="#000000">3 &gt;</text>
</a>
</g>
</g>
<!-- ippd_Sample&#45;&gt;global_DataSetMaster -->
<g id="edge42" class="edge">
<title>ippd_Sample:w&#45;&gt;global_DataSetMaster:e</title>
<path fill="none" stroke="#000000" d="M873.0461,-729.2905C826.1486,-729.2905 809.3077,-729.2905 756,-729.2905"/>
<polygon fill="#000000" stroke="#000000" points="879.5,-729.2906 887.5,-732.8905 883.5,-729.2906 887.5,-729.2905 887.5,-729.2905 887.5,-729.2905 883.5,-729.2906 887.5,-725.6905 879.5,-729.2906 879.5,-729.2906"/>
<ellipse fill="none" stroke="#000000" cx="876.3" cy="-729.2906" rx="3.2" ry="3.2"/>
</g>
<!-- sed&#45;osl_DataCore -->
<g id="node23" class="node">
<title>sed&#45;osl_DataCore</title>
<g id="a_node23"><a xlink:href="../../tables/sed-osl_DataCore.html" xlink:title="sed&#45;osl_DataCore" target="_top">
<polygon fill="#ffffff" stroke="transparent" points="393,-814.7905 393,-875.7905 534,-875.7905 534,-814.7905 393,-814.7905"/>
<polygon fill="#f5f5f5" stroke="transparent" points="393.5,-852.2905 393.5,-875.2905 534.5,-875.2905 534.5,-852.2905 393.5,-852.2905"/>
<polygon fill="none" stroke="#000000" points="393.5,-852.2905 393.5,-875.2905 534.5,-875.2905 534.5,-852.2905 393.5,-852.2905"/>
<text text-anchor="start" x="398.5" y="-860.8905" font-family="Helvetica,sans-Serif" font-weight="bold" font-size="11.00" fill="#000000">sed&#45;osl_DataCore</text>
<text text-anchor="start" x="500.0219" y="-860.3905" font-family="Helvetica,sans-Serif" font-size="11.00" fill="#000000">[table]</text>
<polygon fill="none" stroke="#000000" points="393.5,-833.2905 393.5,-852.2905 534.5,-852.2905 534.5,-833.2905 393.5,-833.2905"/>
<text text-anchor="start" x="396.5" y="-839.3905" font-family="Helvetica,sans-Serif" font-size="11.00" fill="#000000">...</text>
<polygon fill="#ffffff" stroke="transparent" points="393.5,-814.2905 393.5,-833.2905 437.5,-833.2905 437.5,-814.2905 393.5,-814.2905"/>
<polygon fill="none" stroke="#000000" points="393.5,-814.2905 393.5,-833.2905 437.5,-833.2905 437.5,-814.2905 393.5,-814.2905"/>
<text text-anchor="start" x="396.5" y="-820.3905" font-family="Helvetica,sans-Serif" font-size="11.00" fill="#000000">&lt; 20</text>
<polygon fill="#ffffff" stroke="transparent" points="437.5,-814.2905 437.5,-833.2905 504.5,-833.2905 504.5,-814.2905 437.5,-814.2905"/>
<polygon fill="none" stroke="#000000" points="437.5,-814.2905 437.5,-833.2905 504.5,-833.2905 504.5,-814.2905 437.5,-814.2905"/>
<text text-anchor="start" x="447.7089" y="-820.3905" font-family="Helvetica,sans-Serif" font-size="11.00" fill="#000000">2.458 rows</text>
<polygon fill="#ffffff" stroke="transparent" points="504.5,-814.2905 504.5,-833.2905 534.5,-833.2905 534.5,-814.2905 504.5,-814.2905"/>
<polygon fill="none" stroke="#000000" points="504.5,-814.2905 504.5,-833.2905 534.5,-833.2905 534.5,-814.2905 504.5,-814.2905"/>
<text text-anchor="start" x="515.9053" y="-820.3905" font-family="Helvetica,sans-Serif" font-size="11.00" fill="#000000">1 &gt;</text>
</a>
</g>
</g>
<!-- sed&#45;osl_DataCore&#45;&gt;global_RefCore -->
<g id="edge43" class="edge">
<title>sed&#45;osl_DataCore:w&#45;&gt;global_RefCore:e</title>
<path fill="none" stroke="#000000" d="M381.3786,-834.0098C354.7945,-806.5613 375.2571,-743.3687 335.5,-760.2905"/>
<polygon fill="#000000" stroke="#000000" points="386.8943,-837.7778 391.4693,-845.2631 390.1971,-840.0342 393.5,-842.2905 393.5,-842.2905 393.5,-842.2905 390.1971,-840.0342 395.5307,-839.318 386.8943,-837.7778 386.8943,-837.7778"/>
<ellipse fill="none" stroke="#000000" cx="384.252" cy="-835.9727" rx="3.2" ry="3.2"/>
</g>
<!-- sed&#45;osl_DataCore&#45;&gt;global_RefCore -->
<g id="edge44" class="edge">
<title>sed&#45;osl_DataCore:w&#45;&gt;global_RefCore:e</title>
<path fill="none" stroke="#000000" d="M380.0223,-836.7984C355.494,-817.1655 374.5596,-755.0405 335.5,-760.2905"/>
<polygon fill="#000000" stroke="#000000" points="386.0915,-839.2715 392.1414,-845.6244 389.7958,-840.781 393.5,-842.2905 393.5,-842.2905 393.5,-842.2905 389.7958,-840.781 394.8586,-838.9567 386.0915,-839.2715 386.0915,-839.2715"/>
<ellipse fill="none" stroke="#000000" cx="383.1281" cy="-838.0639" rx="3.2" ry="3.2"/>
</g>
<!-- sed&#45;osl_DataCore&#45;&gt;global_RefCore -->
<g id="edge45" class="edge">
<title>sed&#45;osl_DataCore:w&#45;&gt;global_RefCore:e</title>
<path fill="none" stroke="#000000" d="M379.06,-840.59C355.9942,-828.2706 374.0365,-766.3335 335.5,-760.2905"/>
<polygon fill="#000000" stroke="#000000" points="385.5549,-841.3548 393.0789,-845.8658 389.5275,-841.8227 393.5,-842.2905 393.5,-842.2905 393.5,-842.2905 389.5275,-841.8227 393.9211,-838.7153 385.5549,-841.3548 385.5549,-841.3548"/>
<ellipse fill="none" stroke="#000000" cx="382.3769" cy="-840.9805" rx="3.2" ry="3.2"/>
</g>
<!-- sed&#45;osl_DataCore&#45;&gt;global_RefCore -->
<g id="edge46" class="edge">
<title>sed&#45;osl_DataCore:w&#45;&gt;global_RefCore:e</title>
<path fill="none" stroke="#000000" d="M379.3756,-845.2459C355.8298,-841.6029 374.2109,-777.6343 335.5,-760.2905"/>
<polygon fill="#000000" stroke="#000000" points="385.6696,-843.929 394.2373,-845.8142 389.5848,-843.1098 393.5,-842.2905 393.5,-842.2905 393.5,-842.2905 389.5848,-843.1098 392.7627,-838.7669 385.6696,-843.929 385.6696,-843.929"/>
<ellipse fill="none" stroke="#000000" cx="382.5374" cy="-844.5844" rx="3.2" ry="3.2"/>
</g>
<!-- sed&#45;tl_DataCore -->
<g id="node24" class="node">
<title>sed&#45;tl_DataCore</title>
<g id="a_node24"><a xlink:href="../../tables/sed-tl_DataCore.html" xlink:title="sed&#45;tl_DataCore" target="_top">
<polygon fill="#ffffff" stroke="transparent" points="398,-732.7905 398,-793.7905 529,-793.7905 529,-732.7905 398,-732.7905"/>
<polygon fill="#f5f5f5" stroke="transparent" points="398.5,-770.2905 398.5,-793.2905 529.5,-793.2905 529.5,-770.2905 398.5,-770.2905"/>
<polygon fill="none" stroke="#000000" points="398.5,-770.2905 398.5,-793.2905 529.5,-793.2905 529.5,-770.2905 398.5,-770.2905"/>
<text text-anchor="start" x="403.5" y="-778.8905" font-family="Helvetica,sans-Serif" font-weight="bold" font-size="11.00" fill="#000000">sed&#45;tl_DataCore</text>
<text text-anchor="start" x="495.0219" y="-778.3905" font-family="Helvetica,sans-Serif" font-size="11.00" fill="#000000">[table]</text>
<polygon fill="none" stroke="#000000" points="398.5,-751.2905 398.5,-770.2905 529.5,-770.2905 529.5,-751.2905 398.5,-751.2905"/>
<text text-anchor="start" x="401.5" y="-757.3905" font-family="Helvetica,sans-Serif" font-size="11.00" fill="#000000">...</text>
<polygon fill="#ffffff" stroke="transparent" points="398.5,-732.2905 398.5,-751.2905 441.5,-751.2905 441.5,-732.2905 398.5,-732.2905"/>
<polygon fill="none" stroke="#000000" points="398.5,-732.2905 398.5,-751.2905 441.5,-751.2905 441.5,-732.2905 398.5,-732.2905"/>
<text text-anchor="start" x="401.5" y="-738.3905" font-family="Helvetica,sans-Serif" font-size="11.00" fill="#000000">&lt; 20</text>
<polygon fill="#ffffff" stroke="transparent" points="441.5,-732.2905 441.5,-751.2905 499.5,-751.2905 499.5,-732.2905 441.5,-732.2905"/>
<polygon fill="none" stroke="#000000" points="441.5,-732.2905 441.5,-751.2905 499.5,-751.2905 499.5,-732.2905 441.5,-732.2905"/>
<text text-anchor="start" x="451.8807" y="-738.3905" font-family="Helvetica,sans-Serif" font-size="11.00" fill="#000000">966 rows</text>
<polygon fill="#ffffff" stroke="transparent" points="499.5,-732.2905 499.5,-751.2905 529.5,-751.2905 529.5,-732.2905 499.5,-732.2905"/>
<polygon fill="none" stroke="#000000" points="499.5,-732.2905 499.5,-751.2905 529.5,-751.2905 529.5,-732.2905 499.5,-732.2905"/>
<text text-anchor="start" x="510.9053" y="-738.3905" font-family="Helvetica,sans-Serif" font-size="11.00" fill="#000000">1 &gt;</text>
</a>
</g>
</g>
<!-- sed&#45;tl_DataCore&#45;&gt;global_RefCore -->
<g id="edge47" class="edge">
<title>sed&#45;tl_DataCore:w&#45;&gt;global_RefCore:e</title>
<path fill="none" stroke="#000000" d="M386.229,-752.4732C367.6379,-741.802 358.9063,-744.4077 335.5,-760.2905"/>
<polygon fill="#000000" stroke="#000000" points="391.7528,-755.9922 396.5657,-763.3268 395.1264,-758.1414 398.5,-760.2905 398.5,-760.2905 398.5,-760.2905 395.1264,-758.1414 400.4343,-757.2543 391.7528,-755.9922 391.7528,-755.9922"/>
<ellipse fill="none" stroke="#000000" cx="389.0539" cy="-754.2728" rx="3.2" ry="3.2"/>
</g>
<!-- sed&#45;tl_DataCore&#45;&gt;global_RefCore -->
<g id="edge48" class="edge">
<title>sed&#45;tl_DataCore:w&#45;&gt;global_RefCore:e</title>
<path fill="none" stroke="#000000" d="M384.1841,-757.4616C366.9645,-754.5194 358.0313,-755.4624 335.5,-760.2905"/>
<polygon fill="#000000" stroke="#000000" points="390.6518,-758.7396 397.8021,-763.8222 394.5759,-759.5151 398.5,-760.2905 398.5,-760.2905 398.5,-760.2905 394.5759,-759.5151 399.1979,-756.7588 390.6518,-758.7396 390.6518,-758.7396"/>
<ellipse fill="none" stroke="#000000" cx="387.5125" cy="-758.1192" rx="3.2" ry="3.2"/>
</g>
<!-- sed&#45;tl_DataCore&#45;&gt;global_RefCore -->
<g id="edge49" class="edge">
<title>sed&#45;tl_DataCore:w&#45;&gt;global_RefCore:e</title>
<path fill="none" stroke="#000000" d="M384.1841,-763.591C366.9645,-767.0235 358.0313,-765.9234 335.5,-760.2905"/>
<polygon fill="#000000" stroke="#000000" points="390.7045,-762.0878 399.3088,-763.7985 394.6022,-761.1892 398.5,-760.2905 398.5,-760.2905 398.5,-760.2905 394.6022,-761.1892 397.6912,-756.7826 390.7045,-762.0878 390.7045,-762.0878"/>
<ellipse fill="none" stroke="#000000" cx="387.5863" cy="-762.8067" rx="3.2" ry="3.2"/>
</g>
<!-- sed&#45;tl_DataCore&#45;&gt;global_RefCore -->
<g id="edge50" class="edge">
<title>sed&#45;tl_DataCore:w&#45;&gt;global_RefCore:e</title>
<path fill="none" stroke="#000000" d="M386.4903,-768.3609C367.7192,-779.7775 359.0156,-777.0874 335.5,-760.2905"/>
<polygon fill="#000000" stroke="#000000" points="391.8599,-764.7526 400.5079,-763.2786 395.18,-762.5216 398.5,-760.2905 398.5,-760.2905 398.5,-760.2905 395.18,-762.5216 396.4921,-757.3025 391.8599,-764.7526 391.8599,-764.7526"/>
<ellipse fill="none" stroke="#000000" cx="389.2039" cy="-766.5374" rx="3.2" ry="3.2"/>
</g>
</g>
</svg>
