<?xml version="1.0" encoding="UTF-8" standalone="no"?>
<!DOCTYPE svg PUBLIC "-//W3C//DTD SVG 1.1//EN"
 "http://www.w3.org/Graphics/SVG/1.1/DTD/svg11.dtd">
<!-- Generated by graphviz version 2.40.1 (20161225.0304)
 -->
<!-- Title: twoDegreesRelationshipsDiagram Pages: 1 -->
<svg width="780pt" height="774pt"
 viewBox="0.00 0.00 780.00 774.20" xmlns="http://www.w3.org/2000/svg" xmlns:xlink="http://www.w3.org/1999/xlink">
<g id="graph0" class="graph" transform="scale(1 1) rotate(0) translate(4 770.2)">
<title>twoDegreesRelationshipsDiagram</title>
<polygon fill="#ffffff" stroke="transparent" points="-4,4 -4,-770.2 776,-770.2 776,4 -4,4"/>
<text text-anchor="middle" x="72.4936" y="-7.3" font-family="Helvetica,sans-Serif" font-size="11.00" fill="#000000">Generated by SchemaSpy</text>
<!-- arch_Sample -->
<g id="node1" class="node">
<title>arch_Sample</title>
<g id="a_node1"><a xlink:href="../../tables/arch_Sample.html" xlink:title="arch_Sample" target="_top">
<polygon fill="#ffffff" stroke="transparent" points="643,-701.2 643,-762.2 756,-762.2 756,-701.2 643,-701.2"/>
<polygon fill="#f5f5f5" stroke="transparent" points="643.5,-738.7 643.5,-761.7 756.5,-761.7 756.5,-738.7 643.5,-738.7"/>
<polygon fill="none" stroke="#000000" points="643.5,-738.7 643.5,-761.7 756.5,-761.7 756.5,-738.7 643.5,-738.7"/>
<text text-anchor="start" x="648.5" y="-747.3" font-family="Helvetica,sans-Serif" font-weight="bold" font-size="11.00" fill="#000000">arch_Sample</text>
<text text-anchor="start" x="722.0219" y="-746.8" font-family="Helvetica,sans-Serif" font-size="11.00" fill="#000000">[table]</text>
<polygon fill="none" stroke="#000000" points="643.5,-719.7 643.5,-738.7 756.5,-738.7 756.5,-719.7 643.5,-719.7"/>
<text text-anchor="start" x="646.5" y="-725.8" font-family="Helvetica,sans-Serif" font-size="11.00" fill="#000000">...</text>
<polygon fill="#ffffff" stroke="transparent" points="643.5,-700.7 643.5,-719.7 667.5,-719.7 667.5,-700.7 643.5,-700.7"/>
<polygon fill="none" stroke="#000000" points="643.5,-700.7 643.5,-719.7 667.5,-719.7 667.5,-700.7 643.5,-700.7"/>
<text text-anchor="start" x="646.5" y="-706.8" font-family="Helvetica,sans-Serif" font-size="11.00" fill="#000000">&lt; 2</text>
<polygon fill="#ffffff" stroke="transparent" points="667.5,-700.7 667.5,-719.7 733.5,-719.7 733.5,-700.7 667.5,-700.7"/>
<polygon fill="none" stroke="#000000" points="667.5,-700.7 667.5,-719.7 733.5,-719.7 733.5,-700.7 667.5,-700.7"/>
<text text-anchor="start" x="670.594" y="-706.8" font-family="Helvetica,sans-Serif" font-size="11.00" fill="#000000">10.412 rows</text>
<polygon fill="#ffffff" stroke="transparent" points="733.5,-700.7 733.5,-719.7 756.5,-719.7 756.5,-700.7 733.5,-700.7"/>
<polygon fill="none" stroke="#000000" points="733.5,-700.7 733.5,-719.7 756.5,-719.7 756.5,-700.7 733.5,-700.7"/>
<text text-anchor="start" x="737.9053" y="-706.8" font-family="Helvetica,sans-Serif" font-size="11.00" fill="#000000">3 &gt;</text>
</a>
</g>
</g>
<!-- global_SiteMaster -->
<g id="node2" class="node">
<title>global_SiteMaster</title>
<g id="a_node2"><a xlink:href="../../tables/global_SiteMaster.html" xlink:title="global_SiteMaster" target="_top">
<polygon fill="#ffffff" stroke="transparent" points="445,-340.2 445,-599.2 586,-599.2 586,-340.2 445,-340.2"/>
<polygon fill="#f5f5f5" stroke="transparent" points="445.5,-575.7 445.5,-598.7 586.5,-598.7 586.5,-575.7 445.5,-575.7"/>
<polygon fill="none" stroke="#000000" points="445.5,-575.7 445.5,-598.7 586.5,-598.7 586.5,-575.7 445.5,-575.7"/>
<text text-anchor="start" x="450.5" y="-584.3" font-family="Helvetica,sans-Serif" font-weight="bold" font-size="11.00" fill="#000000">global_SiteMaster</text>
<text text-anchor="start" x="552.0219" y="-583.8" font-family="Helvetica,sans-Serif" font-size="11.00" fill="#000000">[table]</text>
<polygon fill="none" stroke="#000000" points="445.5,-553.7 445.5,-575.7 586.5,-575.7 586.5,-553.7 445.5,-553.7"/>
<image xlink:href="../../images/primaryKeys.png" width="11px" height="12px" preserveAspectRatio="xMinYMin meet" x="450.5" y="-570.7"/>
<text text-anchor="start" x="474.5" y="-560.8" font-family="Helvetica,sans-Serif" font-size="11.00" fill="#000000">SITEID</text>
<polygon fill="none" stroke="#000000" points="445.5,-531.7 445.5,-553.7 586.5,-553.7 586.5,-531.7 445.5,-531.7"/>
<image xlink:href="../../images/foreignKeys.png" width="11px" height="12px" preserveAspectRatio="xMinYMin meet" x="450.5" y="-548.7"/>
<text text-anchor="start" x="474.5" y="-538.8" font-family="Helvetica,sans-Serif" font-size="11.00" fill="#000000">METASITEID</text>
<polygon fill="none" stroke="#000000" points="445.5,-509.7 445.5,-531.7 586.5,-531.7 586.5,-509.7 445.5,-509.7"/>
<image xlink:href="../../images/foreignKeys.png" width="11px" height="12px" preserveAspectRatio="xMinYMin meet" x="450.5" y="-526.7"/>
<text text-anchor="start" x="474.5" y="-516.8" font-family="Helvetica,sans-Serif" font-size="11.00" fill="#000000">RIVID</text>
<polygon fill="none" stroke="#000000" points="445.5,-487.7 445.5,-509.7 586.5,-509.7 586.5,-487.7 445.5,-487.7"/>
<image xlink:href="../../images/foreignKeys.png" width="11px" height="12px" preserveAspectRatio="xMinYMin meet" x="450.5" y="-504.7"/>
<text text-anchor="start" x="474.5" y="-494.8" font-family="Helvetica,sans-Serif" font-size="11.00" fill="#000000">IBRAID</text>
<polygon fill="none" stroke="#000000" points="445.5,-465.7 445.5,-487.7 586.5,-487.7 586.5,-465.7 445.5,-465.7"/>
<image xlink:href="../../images/foreignKeys.png" width="11px" height="12px" preserveAspectRatio="xMinYMin meet" x="450.5" y="-482.7"/>
<text text-anchor="start" x="474.5" y="-472.8" font-family="Helvetica,sans-Serif" font-size="11.00" fill="#000000">SITECODEID</text>
<polygon fill="none" stroke="#000000" points="445.5,-443.7 445.5,-465.7 586.5,-465.7 586.5,-443.7 445.5,-443.7"/>
<image xlink:href="../../images/foreignKeys.png" width="11px" height="12px" preserveAspectRatio="xMinYMin meet" x="450.5" y="-460.7"/>
<text text-anchor="start" x="474.5" y="-450.8" font-family="Helvetica,sans-Serif" font-size="11.00" fill="#000000">BIOMEID</text>
<polygon fill="none" stroke="#000000" points="445.5,-421.7 445.5,-443.7 586.5,-443.7 586.5,-421.7 445.5,-421.7"/>
<image xlink:href="../../images/foreignKeys.png" width="11px" height="12px" preserveAspectRatio="xMinYMin meet" x="450.5" y="-438.7"/>
<text text-anchor="start" x="474.5" y="-428.8" font-family="Helvetica,sans-Serif" font-size="11.00" fill="#000000">CATCHSZEID</text>
<polygon fill="none" stroke="#000000" points="445.5,-399.7 445.5,-421.7 586.5,-421.7 586.5,-399.7 445.5,-399.7"/>
<image xlink:href="../../images/foreignKeys.png" width="11px" height="12px" preserveAspectRatio="xMinYMin meet" x="450.5" y="-416.7"/>
<text text-anchor="start" x="474.5" y="-406.8" font-family="Helvetica,sans-Serif" font-size="11.00" fill="#000000">BASINSZEID</text>
<polygon fill="none" stroke="#000000" points="445.5,-377.7 445.5,-399.7 586.5,-399.7 586.5,-377.7 445.5,-377.7"/>
<image xlink:href="../../images/foreignKeys.png" width="11px" height="12px" preserveAspectRatio="xMinYMin meet" x="450.5" y="-394.7"/>
<text text-anchor="start" x="474.5" y="-384.8" font-family="Helvetica,sans-Serif" font-size="11.00" fill="#000000">FLOWTYPEID</text>
<polygon fill="none" stroke="#000000" points="445.5,-358.7 445.5,-377.7 586.5,-377.7 586.5,-358.7 445.5,-358.7"/>
<text text-anchor="start" x="448.5" y="-364.8" font-family="Helvetica,sans-Serif" font-size="11.00" fill="#000000">...</text>
<polygon fill="#ffffff" stroke="transparent" points="445.5,-339.7 445.5,-358.7 483.5,-358.7 483.5,-339.7 445.5,-339.7"/>
<polygon fill="none" stroke="#000000" points="445.5,-339.7 445.5,-358.7 483.5,-358.7 483.5,-339.7 445.5,-339.7"/>
<text text-anchor="start" x="448.5" y="-345.8" font-family="Helvetica,sans-Serif" font-size="11.00" fill="#000000">&lt; 8</text>
<polygon fill="#ffffff" stroke="transparent" points="483.5,-339.7 483.5,-358.7 556.5,-358.7 556.5,-339.7 483.5,-339.7"/>
<polygon fill="none" stroke="#000000" points="483.5,-339.7 483.5,-358.7 556.5,-358.7 556.5,-339.7 483.5,-339.7"/>
<text text-anchor="start" x="493.594" y="-345.8" font-family="Helvetica,sans-Serif" font-size="11.00" fill="#000000">23.734 rows</text>
<polygon fill="#ffffff" stroke="transparent" points="556.5,-339.7 556.5,-358.7 586.5,-358.7 586.5,-339.7 556.5,-339.7"/>
<polygon fill="none" stroke="#000000" points="556.5,-339.7 556.5,-358.7 586.5,-358.7 586.5,-339.7 556.5,-339.7"/>
<text text-anchor="start" x="567.9053" y="-345.8" font-family="Helvetica,sans-Serif" font-size="11.00" fill="#000000">5 &gt;</text>
</a>
</g>
</g>
<!-- arch_Sample&#45;&gt;global_SiteMaster -->
<g id="edge1" class="edge">
<title>arch_Sample:w&#45;&gt;global_SiteMaster:e</title>
<path fill="none" stroke="#000000" d="M629.0595,-726.124C579.8206,-705.2596 657.9387,-564.7 586.5,-564.7"/>
<polygon fill="#000000" stroke="#000000" points="635.6243,-727.295 642.8678,-732.2441 639.5622,-727.9975 643.5,-728.7 643.5,-728.7 643.5,-728.7 639.5622,-727.9975 644.1322,-725.1559 635.6243,-727.295 635.6243,-727.295"/>
<ellipse fill="none" stroke="#000000" cx="632.4741" cy="-726.733" rx="3.2" ry="3.2"/>
</g>
<!-- global_biomeID -->
<g id="node6" class="node">
<title>global_biomeID</title>
<g id="a_node6"><a xlink:href="../../tables/global_biomeID.html" xlink:title="global_biomeID" target="_top">
<polygon fill="#ffffff" stroke="transparent" points="190,-284.7 190,-462.7 396,-462.7 396,-284.7 190,-284.7"/>
<polygon fill="#f5f5f5" stroke="transparent" points="192,-437.7 192,-460.7 394,-460.7 394,-437.7 192,-437.7"/>
<polygon fill="none" stroke="#000000" points="192,-437.7 192,-460.7 394,-460.7 394,-437.7 192,-437.7"/>
<text text-anchor="start" x="197" y="-446.3" font-family="Helvetica,sans-Serif" font-weight="bold" font-size="11.00" fill="#000000">global_biomeID</text>
<text text-anchor="start" x="359.0437" y="-445.8" font-family="Helvetica,sans-Serif" font-size="11.00" fill="#000000">[table]</text>
<polygon fill="none" stroke="#000000" points="192,-415.7 192,-437.7 302,-437.7 302,-415.7 192,-415.7"/>
<image xlink:href="../../images/primaryKeys.png" width="11px" height="12px" preserveAspectRatio="xMinYMin meet" x="197" y="-432.7"/>
<text text-anchor="start" x="212" y="-422.8" font-family="Helvetica,sans-Serif" font-size="11.00" fill="#000000">BIOMEID</text>
<polygon fill="none" stroke="#000000" points="302,-415.7 302,-437.7 394,-437.7 394,-415.7 302,-415.7"/>
<text text-anchor="start" x="305" y="-423.4" font-family="Helvetica,sans-Serif" font-size="11.00" fill="#000000">serial[10]</text>
<polygon fill="#ffffff" stroke="transparent" points="192,-393.7 192,-415.7 302,-415.7 302,-393.7 192,-393.7"/>
<polygon fill="none" stroke="#000000" points="192,-393.7 192,-415.7 302,-415.7 302,-393.7 192,-393.7"/>
<text text-anchor="start" x="212" y="-400.8" font-family="Helvetica,sans-Serif" font-size="11.00" fill="#000000">BIOMETYPE</text>
<polygon fill="none" stroke="#000000" points="302,-393.7 302,-415.7 394,-415.7 394,-393.7 302,-393.7"/>
<text text-anchor="start" x="305" y="-401.4" font-family="Helvetica,sans-Serif" font-size="11.00" fill="#000000">text[2147483647]</text>
<polygon fill="none" stroke="#000000" points="192,-371.7 192,-393.7 302,-393.7 302,-371.7 192,-371.7"/>
<image xlink:href="../../images/foreignKeys.png" width="11px" height="12px" preserveAspectRatio="xMinYMin meet" x="197" y="-388.7"/>
<text text-anchor="start" x="212" y="-378.8" font-family="Helvetica,sans-Serif" font-size="11.00" fill="#000000">PARENTID</text>
<polygon fill="none" stroke="#000000" points="302,-371.7 302,-393.7 394,-393.7 394,-371.7 302,-371.7"/>
<text text-anchor="start" x="305" y="-379.4" font-family="Helvetica,sans-Serif" font-size="11.00" fill="#000000">int2[5]</text>
<polygon fill="none" stroke="#000000" points="192,-349.7 192,-371.7 302,-371.7 302,-349.7 192,-349.7"/>
<text text-anchor="start" x="212" y="-356.8" font-family="Helvetica,sans-Serif" font-size="11.00" fill="#000000">BIOMEDESCR</text>
<polygon fill="none" stroke="#000000" points="302,-349.7 302,-371.7 394,-371.7 394,-349.7 302,-349.7"/>
<text text-anchor="start" x="305" y="-357.4" font-family="Helvetica,sans-Serif" font-size="11.00" fill="#000000">text[2147483647]</text>
<polygon fill="none" stroke="#000000" points="192,-327.7 192,-349.7 302,-349.7 302,-327.7 192,-327.7"/>
<text text-anchor="start" x="212" y="-334.8" font-family="Helvetica,sans-Serif" font-size="11.00" fill="#000000">CREATED_AT</text>
<polygon fill="none" stroke="#000000" points="302,-327.7 302,-349.7 394,-349.7 394,-327.7 302,-327.7"/>
<text text-anchor="start" x="304.6023" y="-335.4" font-family="Helvetica,sans-Serif" font-size="11.00" fill="#000000">timestamptz[35,6]</text>
<polygon fill="none" stroke="#000000" points="192,-305.7 192,-327.7 302,-327.7 302,-305.7 192,-305.7"/>
<text text-anchor="start" x="212" y="-312.8" font-family="Helvetica,sans-Serif" font-size="11.00" fill="#000000">UPDATED_AT</text>
<polygon fill="none" stroke="#000000" points="302,-305.7 302,-327.7 394,-327.7 394,-305.7 302,-305.7"/>
<text text-anchor="start" x="304.6023" y="-313.4" font-family="Helvetica,sans-Serif" font-size="11.00" fill="#000000">timestamptz[35,6]</text>
<polygon fill="#ffffff" stroke="transparent" points="192,-286.7 192,-305.7 235,-305.7 235,-286.7 192,-286.7"/>
<polygon fill="none" stroke="#000000" points="192,-286.7 192,-305.7 235,-305.7 235,-286.7 192,-286.7"/>
<text text-anchor="start" x="195" y="-292.8" font-family="Helvetica,sans-Serif" font-size="11.00" fill="#000000">&lt; 1</text>
<polygon fill="#ffffff" stroke="transparent" points="235,-286.7 235,-305.7 302,-305.7 302,-286.7 235,-286.7"/>
<polygon fill="none" stroke="#000000" points="235,-286.7 235,-305.7 302,-305.7 302,-286.7 235,-286.7"/>
<text text-anchor="start" x="260.4956" y="-292.8" font-family="Helvetica,sans-Serif" font-size="11.00" fill="#000000">65 rows</text>
<polygon fill="#ffffff" stroke="transparent" points="302,-286.7 302,-305.7 394,-305.7 394,-286.7 302,-286.7"/>
<polygon fill="none" stroke="#000000" points="302,-286.7 302,-305.7 394,-305.7 394,-286.7 302,-286.7"/>
<text text-anchor="start" x="375.4053" y="-292.8" font-family="Helvetica,sans-Serif" font-size="11.00" fill="#000000">2 &gt;</text>
<polygon fill="none" stroke="#000000" stroke-width="2" points="191,-285.7 191,-461.7 395,-461.7 395,-285.7 191,-285.7"/>
</a>
</g>
</g>
<!-- global_SiteMaster&#45;&gt;global_biomeID -->
<g id="edge8" class="edge">
<title>global_SiteMaster:w&#45;&gt;global_biomeID:e</title>
<path fill="none" stroke="#000000" d="M431.2773,-451.0395C418.3531,-443.4498 414.1505,-426.7 394,-426.7"/>
<polygon fill="#000000" stroke="#000000" points="437.7525,-452.706 444.6027,-458.1864 441.6262,-453.703 445.5,-454.7 445.5,-454.7 445.5,-454.7 441.6262,-453.703 446.3973,-451.2136 437.7525,-452.706 437.7525,-452.706"/>
<ellipse fill="none" stroke="#000000" cx="434.6535" cy="-451.9084" rx="3.2" ry="3.2"/>
</g>
<!-- global_MetaSite -->
<g id="node7" class="node">
<title>global_MetaSite</title>
<g id="a_node7"><a xlink:href="../../tables/global_MetaSite.html" xlink:title="global_MetaSite" target="_top">
<polygon fill="#ffffff" stroke="transparent" points="228,-693.2 228,-754.2 358,-754.2 358,-693.2 228,-693.2"/>
<polygon fill="#f5f5f5" stroke="transparent" points="228,-730.7 228,-753.7 358,-753.7 358,-730.7 228,-730.7"/>
<polygon fill="none" stroke="#000000" points="228,-730.7 228,-753.7 358,-753.7 358,-730.7 228,-730.7"/>
<text text-anchor="start" x="233" y="-739.3" font-family="Helvetica,sans-Serif" font-weight="bold" font-size="11.00" fill="#000000">global_MetaSite</text>
<text text-anchor="start" x="323.5219" y="-738.8" font-family="Helvetica,sans-Serif" font-size="11.00" fill="#000000">[table]</text>
<polygon fill="none" stroke="#000000" points="228,-711.7 228,-730.7 358,-730.7 358,-711.7 228,-711.7"/>
<text text-anchor="start" x="231" y="-717.8" font-family="Helvetica,sans-Serif" font-size="11.00" fill="#000000">...</text>
<polygon fill="#ffffff" stroke="transparent" points="228,-692.7 228,-711.7 260,-711.7 260,-692.7 228,-692.7"/>
<polygon fill="none" stroke="#000000" points="228,-692.7 228,-711.7 260,-711.7 260,-692.7 228,-692.7"/>
<text text-anchor="start" x="231" y="-698.8" font-family="Helvetica,sans-Serif" font-size="11.00" fill="#000000">&lt; 2</text>
<polygon fill="#ffffff" stroke="transparent" points="260,-692.7 260,-711.7 331,-711.7 331,-692.7 260,-692.7"/>
<polygon fill="none" stroke="#000000" points="260,-692.7 260,-711.7 331,-711.7 331,-692.7 260,-692.7"/>
<text text-anchor="start" x="268.094" y="-698.8" font-family="Helvetica,sans-Serif" font-size="11.00" fill="#000000">12.140 rows</text>
<polygon fill="#ffffff" stroke="transparent" points="331,-692.7 331,-711.7 358,-711.7 358,-692.7 331,-692.7"/>
<polygon fill="none" stroke="#000000" points="331,-692.7 331,-711.7 358,-711.7 358,-692.7 331,-692.7"/>
<text text-anchor="start" x="339.4053" y="-698.8" font-family="Helvetica,sans-Serif" font-size="11.00" fill="#000000">1 &gt;</text>
</a>
</g>
</g>
<!-- global_SiteMaster&#45;&gt;global_MetaSite -->
<g id="edge12" class="edge">
<title>global_SiteMaster:w&#45;&gt;global_MetaSite:e</title>
<path fill="none" stroke="#000000" d="M431.1152,-544.6101C390.2732,-557.5487 436.6508,-633.3248 404,-682.7 389.373,-704.8192 384.5181,-720.7 358,-720.7"/>
<polygon fill="#000000" stroke="#000000" points="437.5696,-543.7531 445.9739,-546.2687 441.5348,-543.2265 445.5,-542.7 445.5,-542.7 445.5,-542.7 441.5348,-543.2265 445.0261,-539.1313 437.5696,-543.7531 437.5696,-543.7531"/>
<ellipse fill="none" stroke="#000000" cx="434.3974" cy="-544.1743" rx="3.2" ry="3.2"/>
</g>
<!-- global_SiteCode -->
<g id="node8" class="node">
<title>global_SiteCode</title>
<g id="a_node8"><a xlink:href="../../tables/global_SiteCode.html" xlink:title="global_SiteCode" target="_top">
<polygon fill="#ffffff" stroke="transparent" points="8,-585.2 8,-646.2 141,-646.2 141,-585.2 8,-585.2"/>
<polygon fill="#f5f5f5" stroke="transparent" points="8.5,-622.7 8.5,-645.7 141.5,-645.7 141.5,-622.7 8.5,-622.7"/>
<polygon fill="none" stroke="#000000" points="8.5,-622.7 8.5,-645.7 141.5,-645.7 141.5,-622.7 8.5,-622.7"/>
<text text-anchor="start" x="13.5" y="-631.3" font-family="Helvetica,sans-Serif" font-weight="bold" font-size="11.00" fill="#000000">global_SiteCode</text>
<text text-anchor="start" x="107.0219" y="-630.8" font-family="Helvetica,sans-Serif" font-size="11.00" fill="#000000">[table]</text>
<polygon fill="none" stroke="#000000" points="8.5,-603.7 8.5,-622.7 141.5,-622.7 141.5,-603.7 8.5,-603.7"/>
<text text-anchor="start" x="11.5" y="-609.8" font-family="Helvetica,sans-Serif" font-size="11.00" fill="#000000">...</text>
<polygon fill="#ffffff" stroke="transparent" points="8.5,-584.7 8.5,-603.7 52.5,-603.7 52.5,-584.7 8.5,-584.7"/>
<polygon fill="none" stroke="#000000" points="8.5,-584.7 8.5,-603.7 52.5,-603.7 52.5,-584.7 8.5,-584.7"/>
<text text-anchor="start" x="11.5" y="-590.8" font-family="Helvetica,sans-Serif" font-size="11.00" fill="#000000">&lt; 1</text>
<polygon fill="#ffffff" stroke="transparent" points="52.5,-584.7 52.5,-603.7 108.5,-603.7 108.5,-584.7 52.5,-584.7"/>
<polygon fill="none" stroke="#000000" points="52.5,-584.7 52.5,-603.7 108.5,-603.7 108.5,-584.7 52.5,-584.7"/>
<text text-anchor="start" x="66.9956" y="-590.8" font-family="Helvetica,sans-Serif" font-size="11.00" fill="#000000">87 rows</text>
<polygon fill="#ffffff" stroke="transparent" points="108.5,-584.7 108.5,-603.7 141.5,-603.7 141.5,-584.7 108.5,-584.7"/>
<polygon fill="none" stroke="#000000" points="108.5,-584.7 108.5,-603.7 141.5,-603.7 141.5,-584.7 108.5,-584.7"/>
<text text-anchor="start" x="122.9053" y="-590.8" font-family="Helvetica,sans-Serif" font-size="11.00" fill="#000000">3 &gt;</text>
</a>
</g>
</g>
<!-- global_SiteMaster&#45;&gt;global_SiteCode -->
<g id="edge14" class="edge">
<title>global_SiteMaster:w&#45;&gt;global_SiteCode:e</title>
<path fill="none" stroke="#000000" d="M431.0269,-479.2633C422.543,-482.6567 417.1162,-488.5745 404,-491.7 355.6568,-503.2199 221.7872,-488.9216 182,-518.7 145.5804,-545.958 186.9905,-612.7 141.5,-612.7"/>
<polygon fill="#000000" stroke="#000000" points="437.6226,-478.0952 446.1278,-480.2448 441.5613,-477.3976 445.5,-476.7 445.5,-476.7 445.5,-476.7 441.5613,-477.3976 444.8722,-473.1552 437.6226,-478.0952 437.6226,-478.0952"/>
<ellipse fill="none" stroke="#000000" cx="434.4716" cy="-478.6533" rx="3.2" ry="3.2"/>
</g>
<!-- cabah_basinsizeID -->
<g id="node9" class="node">
<title>cabah_basinsizeID</title>
<g id="a_node9"><a xlink:href="../../tables/cabah_basinsizeID.html" xlink:title="cabah_basinsizeID" target="_top">
<polygon fill="#ffffff" stroke="transparent" points="220,-120.2 220,-181.2 366,-181.2 366,-120.2 220,-120.2"/>
<polygon fill="#f5f5f5" stroke="transparent" points="220,-157.7 220,-180.7 366,-180.7 366,-157.7 220,-157.7"/>
<polygon fill="none" stroke="#000000" points="220,-157.7 220,-180.7 366,-180.7 366,-157.7 220,-157.7"/>
<text text-anchor="start" x="225" y="-166.3" font-family="Helvetica,sans-Serif" font-weight="bold" font-size="11.00" fill="#000000">cabah_basinsizeID</text>
<text text-anchor="start" x="331.5219" y="-165.8" font-family="Helvetica,sans-Serif" font-size="11.00" fill="#000000">[table]</text>
<polygon fill="none" stroke="#000000" points="220,-138.7 220,-157.7 366,-157.7 366,-138.7 220,-138.7"/>
<text text-anchor="start" x="223" y="-144.8" font-family="Helvetica,sans-Serif" font-size="11.00" fill="#000000">...</text>
<polygon fill="#ffffff" stroke="transparent" points="220,-119.7 220,-138.7 269,-138.7 269,-119.7 220,-119.7"/>
<polygon fill="none" stroke="#000000" points="220,-119.7 220,-138.7 269,-138.7 269,-119.7 220,-119.7"/>
<text text-anchor="start" x="223" y="-125.8" font-family="Helvetica,sans-Serif" font-size="11.00" fill="#000000"> &#160;</text>
<polygon fill="#ffffff" stroke="transparent" points="269,-119.7 269,-138.7 326,-138.7 326,-119.7 269,-119.7"/>
<polygon fill="none" stroke="#000000" points="269,-119.7 269,-138.7 326,-138.7 326,-119.7 269,-119.7"/>
<text text-anchor="start" x="290.6105" y="-125.8" font-family="Helvetica,sans-Serif" font-size="11.00" fill="#000000">6 rows</text>
<polygon fill="#ffffff" stroke="transparent" points="326,-119.7 326,-138.7 366,-138.7 366,-119.7 326,-119.7"/>
<polygon fill="none" stroke="#000000" points="326,-119.7 326,-138.7 366,-138.7 366,-119.7 326,-119.7"/>
<text text-anchor="start" x="347.4053" y="-125.8" font-family="Helvetica,sans-Serif" font-size="11.00" fill="#000000">1 &gt;</text>
</a>
</g>
</g>
<!-- global_SiteMaster&#45;&gt;cabah_basinsizeID -->
<g id="edge7" class="edge">
<title>global_SiteMaster:w&#45;&gt;cabah_basinsizeID:e</title>
<path fill="none" stroke="#000000" d="M431.9156,-404.8392C401.8242,-374.1039 423.1813,-231.4268 404,-191.7 392.7652,-168.4313 391.839,-147.7 366,-147.7"/>
<polygon fill="#000000" stroke="#000000" points="438.1545,-407.5309 444.0739,-414.0055 441.8272,-409.1154 445.5,-410.7 445.5,-410.7 445.5,-410.7 441.8272,-409.1154 446.9261,-407.3945 438.1545,-407.5309 438.1545,-407.5309"/>
<ellipse fill="none" stroke="#000000" cx="435.2163" cy="-406.2632" rx="3.2" ry="3.2"/>
</g>
<!-- cabah_catchmentsizeID -->
<g id="node10" class="node">
<title>cabah_catchmentsizeID</title>
<g id="a_node10"><a xlink:href="../../tables/cabah_catchmentsizeID.html" xlink:title="cabah_catchmentsizeID" target="_top">
<polygon fill="#ffffff" stroke="transparent" points="205.5,-202.2 205.5,-263.2 380.5,-263.2 380.5,-202.2 205.5,-202.2"/>
<polygon fill="#f5f5f5" stroke="transparent" points="206,-239.7 206,-262.7 381,-262.7 381,-239.7 206,-239.7"/>
<polygon fill="none" stroke="#000000" points="206,-239.7 206,-262.7 381,-262.7 381,-239.7 206,-239.7"/>
<text text-anchor="start" x="211" y="-248.3" font-family="Helvetica,sans-Serif" font-weight="bold" font-size="11.00" fill="#000000">cabah_catchmentsizeID</text>
<text text-anchor="start" x="346.5219" y="-247.8" font-family="Helvetica,sans-Serif" font-size="11.00" fill="#000000">[table]</text>
<polygon fill="none" stroke="#000000" points="206,-220.7 206,-239.7 381,-239.7 381,-220.7 206,-220.7"/>
<text text-anchor="start" x="209" y="-226.8" font-family="Helvetica,sans-Serif" font-size="11.00" fill="#000000">...</text>
<polygon fill="#ffffff" stroke="transparent" points="206,-201.7 206,-220.7 270,-220.7 270,-201.7 206,-201.7"/>
<polygon fill="none" stroke="#000000" points="206,-201.7 206,-220.7 270,-220.7 270,-201.7 206,-201.7"/>
<text text-anchor="start" x="209" y="-207.8" font-family="Helvetica,sans-Serif" font-size="11.00" fill="#000000"> &#160;</text>
<polygon fill="#ffffff" stroke="transparent" points="270,-201.7 270,-220.7 334,-220.7 334,-201.7 270,-201.7"/>
<polygon fill="none" stroke="#000000" points="270,-201.7 270,-220.7 334,-220.7 334,-201.7 270,-201.7"/>
<text text-anchor="start" x="298.6105" y="-207.8" font-family="Helvetica,sans-Serif" font-size="11.00" fill="#000000">4 rows</text>
<polygon fill="#ffffff" stroke="transparent" points="334,-201.7 334,-220.7 381,-220.7 381,-201.7 334,-201.7"/>
<polygon fill="none" stroke="#000000" points="334,-201.7 334,-220.7 381,-220.7 381,-201.7 334,-201.7"/>
<text text-anchor="start" x="362.4053" y="-207.8" font-family="Helvetica,sans-Serif" font-size="11.00" fill="#000000">1 &gt;</text>
</a>
</g>
</g>
<!-- global_SiteMaster&#45;&gt;cabah_catchmentsizeID -->
<g id="edge9" class="edge">
<title>global_SiteMaster:w&#45;&gt;cabah_catchmentsizeID:e</title>
<path fill="none" stroke="#000000" d="M431.0318,-430.6908C364.7084,-409.6079 470.12,-229.7 381,-229.7"/>
<polygon fill="#000000" stroke="#000000" points="437.576,-431.5996 445.0048,-436.2658 441.538,-432.1498 445.5,-432.7 445.5,-432.7 445.5,-432.7 441.538,-432.1498 445.9952,-429.1342 437.576,-431.5996 437.576,-431.5996"/>
<ellipse fill="none" stroke="#000000" cx="434.4065" cy="-431.1594" rx="3.2" ry="3.2"/>
</g>
<!-- cabah_flowtypeID -->
<g id="node11" class="node">
<title>cabah_flowtypeID</title>
<g id="a_node11"><a xlink:href="../../tables/cabah_flowtypeID.html" xlink:title="cabah_flowtypeID" target="_top">
<polygon fill="#ffffff" stroke="transparent" points="222.5,-38.2 222.5,-99.2 363.5,-99.2 363.5,-38.2 222.5,-38.2"/>
<polygon fill="#f5f5f5" stroke="transparent" points="223,-75.7 223,-98.7 364,-98.7 364,-75.7 223,-75.7"/>
<polygon fill="none" stroke="#000000" points="223,-75.7 223,-98.7 364,-98.7 364,-75.7 223,-75.7"/>
<text text-anchor="start" x="228" y="-84.3" font-family="Helvetica,sans-Serif" font-weight="bold" font-size="11.00" fill="#000000">cabah_flowtypeID</text>
<text text-anchor="start" x="329.5219" y="-83.8" font-family="Helvetica,sans-Serif" font-size="11.00" fill="#000000">[table]</text>
<polygon fill="none" stroke="#000000" points="223,-56.7 223,-75.7 364,-75.7 364,-56.7 223,-56.7"/>
<text text-anchor="start" x="226" y="-62.8" font-family="Helvetica,sans-Serif" font-size="11.00" fill="#000000">...</text>
<polygon fill="#ffffff" stroke="transparent" points="223,-37.7 223,-56.7 270,-56.7 270,-37.7 223,-37.7"/>
<polygon fill="none" stroke="#000000" points="223,-37.7 223,-56.7 270,-56.7 270,-37.7 223,-37.7"/>
<text text-anchor="start" x="226" y="-43.8" font-family="Helvetica,sans-Serif" font-size="11.00" fill="#000000"> &#160;</text>
<polygon fill="#ffffff" stroke="transparent" points="270,-37.7 270,-56.7 325,-56.7 325,-37.7 270,-37.7"/>
<polygon fill="none" stroke="#000000" points="270,-37.7 270,-56.7 325,-56.7 325,-37.7 270,-37.7"/>
<text text-anchor="start" x="289.6105" y="-43.8" font-family="Helvetica,sans-Serif" font-size="11.00" fill="#000000">6 rows</text>
<polygon fill="#ffffff" stroke="transparent" points="325,-37.7 325,-56.7 364,-56.7 364,-37.7 325,-37.7"/>
<polygon fill="none" stroke="#000000" points="325,-37.7 325,-56.7 364,-56.7 364,-37.7 325,-37.7"/>
<text text-anchor="start" x="345.4053" y="-43.8" font-family="Helvetica,sans-Serif" font-size="11.00" fill="#000000">1 &gt;</text>
</a>
</g>
</g>
<!-- global_SiteMaster&#45;&gt;cabah_flowtypeID -->
<g id="edge10" class="edge">
<title>global_SiteMaster:w&#45;&gt;cabah_flowtypeID:e</title>
<path fill="none" stroke="#000000" d="M431.675,-384.0197C390.521,-351.7055 428.5463,-161.4711 404,-109.7 392.6776,-85.8196 390.4286,-65.7 364,-65.7"/>
<polygon fill="#000000" stroke="#000000" points="437.9224,-386.1347 444.3456,-392.1099 441.7112,-387.4173 445.5,-388.7 445.5,-388.7 445.5,-388.7 441.7112,-387.4173 446.6544,-385.2901 437.9224,-386.1347 437.9224,-386.1347"/>
<ellipse fill="none" stroke="#000000" cx="434.8914" cy="-385.1085" rx="3.2" ry="3.2"/>
</g>
<!-- global_ibraID -->
<g id="node12" class="node">
<title>global_ibraID</title>
<g id="a_node12"><a xlink:href="../../tables/global_ibraID.html" xlink:title="global_ibraID" target="_top">
<polygon fill="#ffffff" stroke="transparent" points="235.5,-529.2 235.5,-590.2 350.5,-590.2 350.5,-529.2 235.5,-529.2"/>
<polygon fill="#f5f5f5" stroke="transparent" points="236,-566.7 236,-589.7 351,-589.7 351,-566.7 236,-566.7"/>
<polygon fill="none" stroke="#000000" points="236,-566.7 236,-589.7 351,-589.7 351,-566.7 236,-566.7"/>
<text text-anchor="start" x="241" y="-575.3" font-family="Helvetica,sans-Serif" font-weight="bold" font-size="11.00" fill="#000000">global_ibraID</text>
<text text-anchor="start" x="316.5219" y="-574.8" font-family="Helvetica,sans-Serif" font-size="11.00" fill="#000000">[table]</text>
<polygon fill="none" stroke="#000000" points="236,-547.7 236,-566.7 351,-566.7 351,-547.7 236,-547.7"/>
<text text-anchor="start" x="239" y="-553.8" font-family="Helvetica,sans-Serif" font-size="11.00" fill="#000000">...</text>
<polygon fill="#ffffff" stroke="transparent" points="236,-528.7 236,-547.7 267,-547.7 267,-528.7 236,-528.7"/>
<polygon fill="none" stroke="#000000" points="236,-528.7 236,-547.7 267,-547.7 267,-528.7 236,-528.7"/>
<text text-anchor="start" x="239" y="-534.8" font-family="Helvetica,sans-Serif" font-size="11.00" fill="#000000"> &#160;</text>
<polygon fill="#ffffff" stroke="transparent" points="267,-528.7 267,-547.7 320,-547.7 320,-528.7 267,-528.7"/>
<polygon fill="none" stroke="#000000" points="267,-528.7 267,-547.7 320,-547.7 320,-528.7 267,-528.7"/>
<text text-anchor="start" x="278.4956" y="-534.8" font-family="Helvetica,sans-Serif" font-size="11.00" fill="#000000">90 rows</text>
<polygon fill="#ffffff" stroke="transparent" points="320,-528.7 320,-547.7 351,-547.7 351,-528.7 320,-528.7"/>
<polygon fill="none" stroke="#000000" points="320,-528.7 320,-547.7 351,-547.7 351,-528.7 320,-528.7"/>
<text text-anchor="start" x="332.4053" y="-534.8" font-family="Helvetica,sans-Serif" font-size="11.00" fill="#000000">1 &gt;</text>
</a>
</g>
</g>
<!-- global_SiteMaster&#45;&gt;global_ibraID -->
<g id="edge11" class="edge">
<title>global_SiteMaster:w&#45;&gt;global_ibraID:e</title>
<path fill="none" stroke="#000000" d="M431.1048,-500.6298C396.4702,-510.6937 394.8898,-556.7 351,-556.7"/>
<polygon fill="#000000" stroke="#000000" points="437.5709,-499.763 445.9783,-502.2681 441.5355,-499.2315 445.5,-498.7 445.5,-498.7 445.5,-498.7 441.5355,-499.2315 445.0217,-495.1319 437.5709,-499.763 437.5709,-499.763"/>
<ellipse fill="none" stroke="#000000" cx="434.3993" cy="-500.1882" rx="3.2" ry="3.2"/>
</g>
<!-- global_rivID -->
<g id="node13" class="node">
<title>global_rivID</title>
<g id="a_node13"><a xlink:href="../../tables/global_rivID.html" xlink:title="global_rivID" target="_top">
<polygon fill="#ffffff" stroke="transparent" points="239.5,-611.2 239.5,-672.2 346.5,-672.2 346.5,-611.2 239.5,-611.2"/>
<polygon fill="#f5f5f5" stroke="transparent" points="240,-648.7 240,-671.7 347,-671.7 347,-648.7 240,-648.7"/>
<polygon fill="none" stroke="#000000" points="240,-648.7 240,-671.7 347,-671.7 347,-648.7 240,-648.7"/>
<text text-anchor="start" x="245" y="-657.3" font-family="Helvetica,sans-Serif" font-weight="bold" font-size="11.00" fill="#000000">global_rivID</text>
<text text-anchor="start" x="312.5219" y="-656.8" font-family="Helvetica,sans-Serif" font-size="11.00" fill="#000000">[table]</text>
<polygon fill="none" stroke="#000000" points="240,-629.7 240,-648.7 347,-648.7 347,-629.7 240,-629.7"/>
<text text-anchor="start" x="243" y="-635.8" font-family="Helvetica,sans-Serif" font-size="11.00" fill="#000000">...</text>
<polygon fill="#ffffff" stroke="transparent" points="240,-610.7 240,-629.7 264,-629.7 264,-610.7 240,-610.7"/>
<polygon fill="none" stroke="#000000" points="240,-610.7 240,-629.7 264,-629.7 264,-610.7 240,-610.7"/>
<text text-anchor="start" x="243" y="-616.8" font-family="Helvetica,sans-Serif" font-size="11.00" fill="#000000"> &#160;</text>
<polygon fill="#ffffff" stroke="transparent" points="264,-610.7 264,-629.7 320,-629.7 320,-610.7 264,-610.7"/>
<polygon fill="none" stroke="#000000" points="264,-610.7 264,-629.7 320,-629.7 320,-610.7 264,-610.7"/>
<text text-anchor="start" x="272.3807" y="-616.8" font-family="Helvetica,sans-Serif" font-size="11.00" fill="#000000">219 rows</text>
<polygon fill="#ffffff" stroke="transparent" points="320,-610.7 320,-629.7 347,-629.7 347,-610.7 320,-610.7"/>
<polygon fill="none" stroke="#000000" points="320,-610.7 320,-629.7 347,-629.7 347,-610.7 320,-610.7"/>
<text text-anchor="start" x="328.4053" y="-616.8" font-family="Helvetica,sans-Serif" font-size="11.00" fill="#000000">1 &gt;</text>
</a>
</g>
</g>
<!-- global_SiteMaster&#45;&gt;global_rivID -->
<g id="edge13" class="edge">
<title>global_SiteMaster:w&#45;&gt;global_rivID:e</title>
<path fill="none" stroke="#000000" d="M431.3281,-523.9438C411.9422,-535.5141 426.6589,-575.4143 404,-600.7 383.6808,-623.3747 377.4469,-638.7 347,-638.7"/>
<polygon fill="#000000" stroke="#000000" points="437.7017,-522.485 446.3033,-524.2092 441.6008,-521.5925 445.5,-520.7 445.5,-520.7 445.5,-520.7 441.6008,-521.5925 444.6967,-517.1908 437.7017,-522.485 437.7017,-522.485"/>
<ellipse fill="none" stroke="#000000" cx="434.5823" cy="-523.199" rx="3.2" ry="3.2"/>
</g>
<!-- crn_Sample -->
<g id="node3" class="node">
<title>crn_Sample</title>
<g id="a_node3"><a xlink:href="../../tables/crn_Sample.html" xlink:title="crn_Sample" target="_top">
<polygon fill="#ffffff" stroke="transparent" points="646,-619.2 646,-680.2 753,-680.2 753,-619.2 646,-619.2"/>
<polygon fill="#f5f5f5" stroke="transparent" points="646.5,-656.7 646.5,-679.7 753.5,-679.7 753.5,-656.7 646.5,-656.7"/>
<polygon fill="none" stroke="#000000" points="646.5,-656.7 646.5,-679.7 753.5,-679.7 753.5,-656.7 646.5,-656.7"/>
<text text-anchor="start" x="651.5" y="-665.3" font-family="Helvetica,sans-Serif" font-weight="bold" font-size="11.00" fill="#000000">crn_Sample</text>
<text text-anchor="start" x="719.0219" y="-664.8" font-family="Helvetica,sans-Serif" font-size="11.00" fill="#000000">[table]</text>
<polygon fill="none" stroke="#000000" points="646.5,-637.7 646.5,-656.7 753.5,-656.7 753.5,-637.7 646.5,-637.7"/>
<text text-anchor="start" x="649.5" y="-643.8" font-family="Helvetica,sans-Serif" font-size="11.00" fill="#000000">...</text>
<polygon fill="#ffffff" stroke="transparent" points="646.5,-618.7 646.5,-637.7 670.5,-637.7 670.5,-618.7 646.5,-618.7"/>
<polygon fill="none" stroke="#000000" points="646.5,-618.7 646.5,-637.7 670.5,-637.7 670.5,-618.7 646.5,-618.7"/>
<text text-anchor="start" x="649.5" y="-624.8" font-family="Helvetica,sans-Serif" font-size="11.00" fill="#000000">&lt; 3</text>
<polygon fill="#ffffff" stroke="transparent" points="670.5,-618.7 670.5,-637.7 730.5,-637.7 730.5,-618.7 670.5,-618.7"/>
<polygon fill="none" stroke="#000000" points="670.5,-618.7 670.5,-637.7 730.5,-637.7 730.5,-618.7 670.5,-618.7"/>
<text text-anchor="start" x="673.7089" y="-624.8" font-family="Helvetica,sans-Serif" font-size="11.00" fill="#000000">4.588 rows</text>
<polygon fill="#ffffff" stroke="transparent" points="730.5,-618.7 730.5,-637.7 753.5,-637.7 753.5,-618.7 730.5,-618.7"/>
<polygon fill="none" stroke="#000000" points="730.5,-618.7 730.5,-637.7 753.5,-637.7 753.5,-618.7 730.5,-618.7"/>
<text text-anchor="start" x="734.9053" y="-624.8" font-family="Helvetica,sans-Serif" font-size="11.00" fill="#000000">2 &gt;</text>
</a>
</g>
</g>
<!-- crn_Sample&#45;&gt;global_SiteMaster -->
<g id="edge2" class="edge">
<title>crn_Sample:w&#45;&gt;global_SiteMaster:e</title>
<path fill="none" stroke="#000000" d="M632.4755,-642.9636C607.9033,-626.922 625.8375,-564.7 586.5,-564.7"/>
<polygon fill="#000000" stroke="#000000" points="638.7696,-644.6404 645.5732,-650.1787 642.6348,-645.6702 646.5,-646.7 646.5,-646.7 646.5,-646.7 642.6348,-645.6702 647.4268,-643.2213 638.7696,-644.6404 638.7696,-644.6404"/>
<ellipse fill="none" stroke="#000000" cx="635.6775" cy="-643.8166" rx="3.2" ry="3.2"/>
</g>
<!-- expage_Sample -->
<g id="node4" class="node">
<title>expage_Sample</title>
<g id="a_node4"><a xlink:href="../../tables/expage_Sample.html" xlink:title="expage_Sample" target="_top">
<polygon fill="#ffffff" stroke="transparent" points="635,-537.2 635,-598.2 764,-598.2 764,-537.2 635,-537.2"/>
<polygon fill="#f5f5f5" stroke="transparent" points="635.5,-574.7 635.5,-597.7 764.5,-597.7 764.5,-574.7 635.5,-574.7"/>
<polygon fill="none" stroke="#000000" points="635.5,-574.7 635.5,-597.7 764.5,-597.7 764.5,-574.7 635.5,-574.7"/>
<text text-anchor="start" x="640.5" y="-583.3" font-family="Helvetica,sans-Serif" font-weight="bold" font-size="11.00" fill="#000000">expage_Sample</text>
<text text-anchor="start" x="730.0219" y="-582.8" font-family="Helvetica,sans-Serif" font-size="11.00" fill="#000000">[table]</text>
<polygon fill="none" stroke="#000000" points="635.5,-555.7 635.5,-574.7 764.5,-574.7 764.5,-555.7 635.5,-555.7"/>
<text text-anchor="start" x="638.5" y="-561.8" font-family="Helvetica,sans-Serif" font-size="11.00" fill="#000000">...</text>
<polygon fill="#ffffff" stroke="transparent" points="635.5,-536.7 635.5,-555.7 667.5,-555.7 667.5,-536.7 635.5,-536.7"/>
<polygon fill="none" stroke="#000000" points="635.5,-536.7 635.5,-555.7 667.5,-555.7 667.5,-536.7 635.5,-536.7"/>
<text text-anchor="start" x="638.5" y="-542.8" font-family="Helvetica,sans-Serif" font-size="11.00" fill="#000000">&lt; 2</text>
<polygon fill="#ffffff" stroke="transparent" points="667.5,-536.7 667.5,-555.7 737.5,-555.7 737.5,-536.7 667.5,-536.7"/>
<polygon fill="none" stroke="#000000" points="667.5,-536.7 667.5,-555.7 737.5,-555.7 737.5,-536.7 667.5,-536.7"/>
<text text-anchor="start" x="674.594" y="-542.8" font-family="Helvetica,sans-Serif" font-size="11.00" fill="#000000">15.805 rows</text>
<polygon fill="#ffffff" stroke="transparent" points="737.5,-536.7 737.5,-555.7 764.5,-555.7 764.5,-536.7 737.5,-536.7"/>
<polygon fill="none" stroke="#000000" points="737.5,-536.7 737.5,-555.7 764.5,-555.7 764.5,-536.7 737.5,-536.7"/>
<text text-anchor="start" x="745.9053" y="-542.8" font-family="Helvetica,sans-Serif" font-size="11.00" fill="#000000">1 &gt;</text>
</a>
</g>
</g>
<!-- expage_Sample&#45;&gt;global_SiteMaster -->
<g id="edge3" class="edge">
<title>expage_Sample:w&#45;&gt;global_SiteMaster:e</title>
<path fill="none" stroke="#000000" d="M620.9909,-564.7C609.6774,-564.7 602.4931,-564.7 586.5,-564.7"/>
<polygon fill="#000000" stroke="#000000" points="627.5,-564.7001 635.5,-568.3 631.5,-564.7 635.5,-564.7 635.5,-564.7 635.5,-564.7 631.5,-564.7 635.5,-561.1 627.5,-564.7001 627.5,-564.7001"/>
<ellipse fill="none" stroke="#000000" cx="624.3" cy="-564.7001" rx="3.2" ry="3.2"/>
</g>
<!-- fos_Sample -->
<g id="node5" class="node">
<title>fos_Sample</title>
<g id="a_node5"><a xlink:href="../../tables/fos_Sample.html" xlink:title="fos_Sample" target="_top">
<polygon fill="#ffffff" stroke="transparent" points="646.5,-455.2 646.5,-516.2 752.5,-516.2 752.5,-455.2 646.5,-455.2"/>
<polygon fill="#f5f5f5" stroke="transparent" points="646.5,-492.7 646.5,-515.7 752.5,-515.7 752.5,-492.7 646.5,-492.7"/>
<polygon fill="none" stroke="#000000" points="646.5,-492.7 646.5,-515.7 752.5,-515.7 752.5,-492.7 646.5,-492.7"/>
<text text-anchor="start" x="651.5" y="-501.3" font-family="Helvetica,sans-Serif" font-weight="bold" font-size="11.00" fill="#000000">fos_Sample</text>
<text text-anchor="start" x="718.0219" y="-500.8" font-family="Helvetica,sans-Serif" font-size="11.00" fill="#000000">[table]</text>
<polygon fill="none" stroke="#000000" points="646.5,-473.7 646.5,-492.7 752.5,-492.7 752.5,-473.7 646.5,-473.7"/>
<text text-anchor="start" x="649.5" y="-479.8" font-family="Helvetica,sans-Serif" font-size="11.00" fill="#000000">...</text>
<polygon fill="#ffffff" stroke="transparent" points="646.5,-454.7 646.5,-473.7 669.5,-473.7 669.5,-454.7 646.5,-454.7"/>
<polygon fill="none" stroke="#000000" points="646.5,-454.7 646.5,-473.7 669.5,-473.7 669.5,-454.7 646.5,-454.7"/>
<text text-anchor="start" x="649.5" y="-460.8" font-family="Helvetica,sans-Serif" font-size="11.00" fill="#000000">&lt; 1</text>
<polygon fill="#ffffff" stroke="transparent" points="669.5,-454.7 669.5,-473.7 729.5,-473.7 729.5,-454.7 669.5,-454.7"/>
<polygon fill="none" stroke="#000000" points="669.5,-454.7 669.5,-473.7 729.5,-473.7 729.5,-454.7 669.5,-454.7"/>
<text text-anchor="start" x="672.7089" y="-460.8" font-family="Helvetica,sans-Serif" font-size="11.00" fill="#000000">2.235 rows</text>
<polygon fill="#ffffff" stroke="transparent" points="729.5,-454.7 729.5,-473.7 752.5,-473.7 752.5,-454.7 729.5,-454.7"/>
<polygon fill="none" stroke="#000000" points="729.5,-454.7 729.5,-473.7 752.5,-473.7 752.5,-454.7 729.5,-454.7"/>
<text text-anchor="start" x="733.9053" y="-460.8" font-family="Helvetica,sans-Serif" font-size="11.00" fill="#000000">1 &gt;</text>
</a>
</g>
</g>
<!-- fos_Sample&#45;&gt;global_SiteMaster -->
<g id="edge4" class="edge">
<title>fos_Sample:w&#45;&gt;global_SiteMaster:e</title>
<path fill="none" stroke="#000000" d="M632.4755,-486.4364C607.9033,-502.478 625.8375,-564.7 586.5,-564.7"/>
<polygon fill="#000000" stroke="#000000" points="638.7696,-484.7596 647.4268,-486.1787 642.6348,-483.7298 646.5,-482.7 646.5,-482.7 646.5,-482.7 642.6348,-483.7298 645.5732,-479.2213 638.7696,-484.7596 638.7696,-484.7596"/>
<ellipse fill="none" stroke="#000000" cx="635.6775" cy="-485.5834" rx="3.2" ry="3.2"/>
</g>
<!-- global_biomeID&#45;&gt;global_biomeID -->
<g id="edge5" class="edge">
<title>global_biomeID:w&#45;&gt;global_biomeID:e</title>
<path fill="none" stroke="#000000" d="M180.2726,-391.4215C138.4491,-427.2924 149.6484,-479.7 293,-479.7 448.5,-479.7 448.5,-462.0333 394,-426.7"/>
<polygon fill="#000000" stroke="#000000" points="185.5806,-387.474 194.1483,-385.5887 188.7903,-385.087 192,-382.7 192,-382.7 192,-382.7 188.7903,-385.087 189.8517,-379.8113 185.5806,-387.474 185.5806,-387.474"/>
<ellipse fill="none" stroke="#000000" cx="183.0128" cy="-389.3837" rx="3.2" ry="3.2"/>
</g>
<!-- global_MetaSite&#45;&gt;global_SiteCode -->
<g id="edge6" class="edge">
<title>global_MetaSite:w&#45;&gt;global_SiteCode:e</title>
<path fill="none" stroke="#000000" d="M213.6593,-718.3105C199.7467,-712.8115 195.3849,-698.5129 182,-682.7 158.7781,-655.2657 177.443,-612.7 141.5,-612.7"/>
<polygon fill="#000000" stroke="#000000" points="220.1088,-719.3851 227.4083,-724.251 224.0544,-720.0425 228,-720.7 228,-720.7 228,-720.7 224.0544,-720.0425 228.5917,-717.149 220.1088,-719.3851 220.1088,-719.3851"/>
<ellipse fill="none" stroke="#000000" cx="216.9523" cy="-718.8591" rx="3.2" ry="3.2"/>
</g>
<!-- sed_Sample -->
<g id="node14" class="node">
<title>sed_Sample</title>
<g id="a_node14"><a xlink:href="../../tables/sed_Sample.html" xlink:title="sed_Sample" target="_top">
<polygon fill="#ffffff" stroke="transparent" points="645,-373.2 645,-434.2 754,-434.2 754,-373.2 645,-373.2"/>
<polygon fill="#f5f5f5" stroke="transparent" points="645.5,-410.7 645.5,-433.7 754.5,-433.7 754.5,-410.7 645.5,-410.7"/>
<polygon fill="none" stroke="#000000" points="645.5,-410.7 645.5,-433.7 754.5,-433.7 754.5,-410.7 645.5,-410.7"/>
<text text-anchor="start" x="650.5" y="-419.3" font-family="Helvetica,sans-Serif" font-weight="bold" font-size="11.00" fill="#000000">sed_Sample</text>
<text text-anchor="start" x="720.0219" y="-418.8" font-family="Helvetica,sans-Serif" font-size="11.00" fill="#000000">[table]</text>
<polygon fill="none" stroke="#000000" points="645.5,-391.7 645.5,-410.7 754.5,-410.7 754.5,-391.7 645.5,-391.7"/>
<text text-anchor="start" x="648.5" y="-397.8" font-family="Helvetica,sans-Serif" font-size="11.00" fill="#000000">...</text>
<polygon fill="#ffffff" stroke="transparent" points="645.5,-372.7 645.5,-391.7 670.5,-391.7 670.5,-372.7 645.5,-372.7"/>
<polygon fill="none" stroke="#000000" points="645.5,-372.7 645.5,-391.7 670.5,-391.7 670.5,-372.7 645.5,-372.7"/>
<text text-anchor="start" x="648.5" y="-378.8" font-family="Helvetica,sans-Serif" font-size="11.00" fill="#000000">&lt; 9</text>
<polygon fill="#ffffff" stroke="transparent" points="670.5,-372.7 670.5,-391.7 731.5,-391.7 731.5,-372.7 670.5,-372.7"/>
<polygon fill="none" stroke="#000000" points="670.5,-372.7 670.5,-391.7 731.5,-391.7 731.5,-372.7 670.5,-372.7"/>
<text text-anchor="start" x="674.7089" y="-378.8" font-family="Helvetica,sans-Serif" font-size="11.00" fill="#000000">3.181 rows</text>
<polygon fill="#ffffff" stroke="transparent" points="731.5,-372.7 731.5,-391.7 754.5,-391.7 754.5,-372.7 731.5,-372.7"/>
<polygon fill="none" stroke="#000000" points="731.5,-372.7 731.5,-391.7 754.5,-391.7 754.5,-372.7 731.5,-372.7"/>
<text text-anchor="start" x="735.9053" y="-378.8" font-family="Helvetica,sans-Serif" font-size="11.00" fill="#000000">2 &gt;</text>
</a>
</g>
</g>
<!-- sed_Sample&#45;&gt;global_SiteMaster -->
<g id="edge15" class="edge">
<title>sed_Sample:w&#45;&gt;global_SiteMaster:e</title>
<path fill="none" stroke="#000000" d="M631.292,-403.1456C580.9964,-423.5467 658.3644,-564.7 586.5,-564.7"/>
<polygon fill="#000000" stroke="#000000" points="637.6159,-402.0571 646.1107,-404.2478 641.558,-401.3786 645.5,-400.7 645.5,-400.7 645.5,-400.7 641.558,-401.3786 644.8893,-397.1522 637.6159,-402.0571 637.6159,-402.0571"/>
<ellipse fill="none" stroke="#000000" cx="634.4623" cy="-402.6" rx="3.2" ry="3.2"/>
</g>
</g>
</svg>
