<?xml version="1.0" encoding="UTF-8" standalone="no"?>
<!DOCTYPE svg PUBLIC "-//W3C//DTD SVG 1.1//EN"
 "http://www.w3.org/Graphics/SVG/1.1/DTD/svg11.dtd">
<!-- Generated by graphviz version 2.40.1 (20161225.0304)
 -->
<!-- Title: twoDegreesRelationshipsDiagram Pages: 1 -->
<svg width="447pt" height="371pt"
 viewBox="0.00 0.00 447.00 371.20" xmlns="http://www.w3.org/2000/svg" xmlns:xlink="http://www.w3.org/1999/xlink">
<g id="graph0" class="graph" transform="scale(1 1) rotate(0) translate(4 367.2)">
<title>twoDegreesRelationshipsDiagram</title>
<polygon fill="#ffffff" stroke="transparent" points="-4,4 -4,-367.2 443,-367.2 443,4 -4,4"/>
<text text-anchor="middle" x="72.4936" y="-7.3" font-family="Helvetica,sans-Serif" font-size="11.00" fill="#000000">Generated by SchemaSpy</text>
<!-- global_DataSetID -->
<g id="node1" class="node">
<title>global_DataSetID</title>
<g id="a_node1"><a xlink:href="../../tables/global_DataSetID.html" xlink:title="global_DataSetID" target="_top">
<polygon fill="#ffffff" stroke="transparent" points="294,-170.2 294,-319.2 431,-319.2 431,-170.2 294,-170.2"/>
<polygon fill="#f5f5f5" stroke="transparent" points="294.5,-295.7 294.5,-318.7 431.5,-318.7 431.5,-295.7 294.5,-295.7"/>
<polygon fill="none" stroke="#000000" points="294.5,-295.7 294.5,-318.7 431.5,-318.7 431.5,-295.7 294.5,-295.7"/>
<text text-anchor="start" x="299.5" y="-304.3" font-family="Helvetica,sans-Serif" font-weight="bold" font-size="11.00" fill="#000000">global_DataSetID</text>
<text text-anchor="start" x="397.0219" y="-303.8" font-family="Helvetica,sans-Serif" font-size="11.00" fill="#000000">[table]</text>
<polygon fill="none" stroke="#000000" points="294.5,-273.7 294.5,-295.7 431.5,-295.7 431.5,-273.7 294.5,-273.7"/>
<image xlink:href="../../images/primaryKeys.png" width="11px" height="12px" preserveAspectRatio="xMinYMin meet" x="299.5" y="-290.7"/>
<text text-anchor="start" x="323.5" y="-280.8" font-family="Helvetica,sans-Serif" font-size="11.00" fill="#000000">DATASETID</text>
<polygon fill="none" stroke="#000000" points="294.5,-251.7 294.5,-273.7 431.5,-273.7 431.5,-251.7 294.5,-251.7"/>
<image xlink:href="../../images/foreignKeys.png" width="11px" height="12px" preserveAspectRatio="xMinYMin meet" x="299.5" y="-268.7"/>
<text text-anchor="start" x="323.5" y="-258.8" font-family="Helvetica,sans-Serif" font-size="11.00" fill="#000000">UNITID</text>
<polygon fill="none" stroke="#000000" points="294.5,-229.7 294.5,-251.7 431.5,-251.7 431.5,-229.7 294.5,-229.7"/>
<image xlink:href="../../images/foreignKeys.png" width="11px" height="12px" preserveAspectRatio="xMinYMin meet" x="299.5" y="-246.7"/>
<text text-anchor="start" x="323.5" y="-236.8" font-family="Helvetica,sans-Serif" font-size="11.00" fill="#000000">DSETTYPEID</text>
<polygon fill="none" stroke="#000000" points="294.5,-207.7 294.5,-229.7 431.5,-229.7 431.5,-207.7 294.5,-207.7"/>
<image xlink:href="../../images/foreignKeys.png" width="11px" height="12px" preserveAspectRatio="xMinYMin meet" x="299.5" y="-224.7"/>
<text text-anchor="start" x="323.5" y="-214.8" font-family="Helvetica,sans-Serif" font-size="11.00" fill="#000000">DSETSOURCE</text>
<polygon fill="none" stroke="#000000" points="294.5,-188.7 294.5,-207.7 431.5,-207.7 431.5,-188.7 294.5,-188.7"/>
<text text-anchor="start" x="297.5" y="-194.8" font-family="Helvetica,sans-Serif" font-size="11.00" fill="#000000">...</text>
<polygon fill="#ffffff" stroke="transparent" points="294.5,-169.7 294.5,-188.7 342.5,-188.7 342.5,-169.7 294.5,-169.7"/>
<polygon fill="none" stroke="#000000" points="294.5,-169.7 294.5,-188.7 342.5,-188.7 342.5,-169.7 294.5,-169.7"/>
<text text-anchor="start" x="297.5" y="-175.8" font-family="Helvetica,sans-Serif" font-size="11.00" fill="#000000">&lt; 3</text>
<polygon fill="#ffffff" stroke="transparent" points="342.5,-169.7 342.5,-188.7 405.5,-188.7 405.5,-169.7 342.5,-169.7"/>
<polygon fill="none" stroke="#000000" points="342.5,-169.7 342.5,-188.7 405.5,-188.7 405.5,-169.7 342.5,-169.7"/>
<text text-anchor="start" x="357.8807" y="-175.8" font-family="Helvetica,sans-Serif" font-size="11.00" fill="#000000">154 rows</text>
<polygon fill="#ffffff" stroke="transparent" points="405.5,-169.7 405.5,-188.7 431.5,-188.7 431.5,-169.7 405.5,-169.7"/>
<polygon fill="none" stroke="#000000" points="405.5,-169.7 405.5,-188.7 431.5,-188.7 431.5,-169.7 405.5,-169.7"/>
<text text-anchor="start" x="422.3862" y="-175.8" font-family="Helvetica,sans-Serif" font-size="11.00" fill="#000000"> &#160;</text>
</a>
</g>
</g>
<!-- cabah_datasourceID -->
<g id="node2" class="node">
<title>cabah_datasourceID</title>
<g id="a_node2"><a xlink:href="../../tables/cabah_datasourceID.html" xlink:title="cabah_datasourceID" target="_top">
<polygon fill="#ffffff" stroke="transparent" points="48.5,-38.2 48.5,-99.2 204.5,-99.2 204.5,-38.2 48.5,-38.2"/>
<polygon fill="#f5f5f5" stroke="transparent" points="48.5,-75.7 48.5,-98.7 204.5,-98.7 204.5,-75.7 48.5,-75.7"/>
<polygon fill="none" stroke="#000000" points="48.5,-75.7 48.5,-98.7 204.5,-98.7 204.5,-75.7 48.5,-75.7"/>
<text text-anchor="start" x="53.5" y="-84.3" font-family="Helvetica,sans-Serif" font-weight="bold" font-size="11.00" fill="#000000">cabah_datasourceID</text>
<text text-anchor="start" x="170.0219" y="-83.8" font-family="Helvetica,sans-Serif" font-size="11.00" fill="#000000">[table]</text>
<polygon fill="none" stroke="#000000" points="48.5,-56.7 48.5,-75.7 204.5,-75.7 204.5,-56.7 48.5,-56.7"/>
<text text-anchor="start" x="51.5" y="-62.8" font-family="Helvetica,sans-Serif" font-size="11.00" fill="#000000">...</text>
<polygon fill="#ffffff" stroke="transparent" points="48.5,-37.7 48.5,-56.7 99.5,-56.7 99.5,-37.7 48.5,-37.7"/>
<polygon fill="none" stroke="#000000" points="48.5,-37.7 48.5,-56.7 99.5,-56.7 99.5,-37.7 48.5,-37.7"/>
<text text-anchor="start" x="51.5" y="-43.8" font-family="Helvetica,sans-Serif" font-size="11.00" fill="#000000"> &#160;</text>
<polygon fill="#ffffff" stroke="transparent" points="99.5,-37.7 99.5,-56.7 163.5,-56.7 163.5,-37.7 99.5,-37.7"/>
<polygon fill="none" stroke="#000000" points="99.5,-37.7 99.5,-56.7 163.5,-56.7 163.5,-37.7 99.5,-37.7"/>
<text text-anchor="start" x="121.9956" y="-43.8" font-family="Helvetica,sans-Serif" font-size="11.00" fill="#000000">11 rows</text>
<polygon fill="#ffffff" stroke="transparent" points="163.5,-37.7 163.5,-56.7 204.5,-56.7 204.5,-37.7 163.5,-37.7"/>
<polygon fill="none" stroke="#000000" points="163.5,-37.7 163.5,-56.7 204.5,-56.7 204.5,-37.7 163.5,-37.7"/>
<text text-anchor="start" x="185.9053" y="-43.8" font-family="Helvetica,sans-Serif" font-size="11.00" fill="#000000">6 &gt;</text>
</a>
</g>
</g>
<!-- global_DataSetID&#45;&gt;cabah_datasourceID -->
<g id="edge1" class="edge">
<title>global_DataSetID:w&#45;&gt;cabah_datasourceID:e</title>
<path fill="none" stroke="#000000" d="M280.1693,-216.2822C250.7431,-204.0049 278.9118,-147.6649 253,-109.7 236.5929,-85.6611 233.6043,-65.7 204.5,-65.7"/>
<polygon fill="#000000" stroke="#000000" points="286.6115,-217.369 293.9011,-222.2498 290.5557,-218.0345 294.5,-218.7 294.5,-218.7 294.5,-218.7 290.5557,-218.0345 295.0989,-215.1502 286.6115,-217.369 286.6115,-217.369"/>
<ellipse fill="none" stroke="#000000" cx="283.4561" cy="-216.8367" rx="3.2" ry="3.2"/>
</g>
<!-- global_datasettypeID -->
<g id="node3" class="node">
<title>global_datasettypeID</title>
<g id="a_node3"><a xlink:href="../../tables/global_datasettypeID.html" xlink:title="global_datasettypeID" target="_top">
<polygon fill="#ffffff" stroke="transparent" points="8,-120.7 8,-276.7 245,-276.7 245,-120.7 8,-120.7"/>
<polygon fill="#f5f5f5" stroke="transparent" points="10.5,-251.7 10.5,-274.7 243.5,-274.7 243.5,-251.7 10.5,-251.7"/>
<polygon fill="none" stroke="#000000" points="10.5,-251.7 10.5,-274.7 243.5,-274.7 243.5,-251.7 10.5,-251.7"/>
<text text-anchor="start" x="15.5" y="-260.3" font-family="Helvetica,sans-Serif" font-weight="bold" font-size="11.00" fill="#000000">global_datasettypeID</text>
<text text-anchor="start" x="208.5437" y="-259.8" font-family="Helvetica,sans-Serif" font-size="11.00" fill="#000000">[table]</text>
<polygon fill="none" stroke="#000000" points="10.5,-229.7 10.5,-251.7 151.5,-251.7 151.5,-229.7 10.5,-229.7"/>
<image xlink:href="../../images/primaryKeys.png" width="11px" height="12px" preserveAspectRatio="xMinYMin meet" x="15.5" y="-246.7"/>
<text text-anchor="start" x="30.5" y="-236.8" font-family="Helvetica,sans-Serif" font-size="11.00" fill="#000000">DSETTYPEID</text>
<polygon fill="none" stroke="#000000" points="151.5,-229.7 151.5,-251.7 243.5,-251.7 243.5,-229.7 151.5,-229.7"/>
<text text-anchor="start" x="154.5" y="-237.4" font-family="Helvetica,sans-Serif" font-size="11.00" fill="#000000">serial[10]</text>
<polygon fill="none" stroke="#000000" points="10.5,-207.7 10.5,-229.7 151.5,-229.7 151.5,-207.7 10.5,-207.7"/>
<text text-anchor="start" x="30.5" y="-214.8" font-family="Helvetica,sans-Serif" font-size="11.00" fill="#000000">DSETTYPE</text>
<polygon fill="none" stroke="#000000" points="151.5,-207.7 151.5,-229.7 243.5,-229.7 243.5,-207.7 151.5,-207.7"/>
<text text-anchor="start" x="154.5" y="-215.4" font-family="Helvetica,sans-Serif" font-size="11.00" fill="#000000">text[2147483647]</text>
<polygon fill="none" stroke="#000000" points="10.5,-185.7 10.5,-207.7 151.5,-207.7 151.5,-185.7 10.5,-185.7"/>
<text text-anchor="start" x="30.5" y="-192.8" font-family="Helvetica,sans-Serif" font-size="11.00" fill="#000000">DSTYPNOTE</text>
<polygon fill="none" stroke="#000000" points="151.5,-185.7 151.5,-207.7 243.5,-207.7 243.5,-185.7 151.5,-185.7"/>
<text text-anchor="start" x="154.5" y="-193.4" font-family="Helvetica,sans-Serif" font-size="11.00" fill="#000000">text[2147483647]</text>
<polygon fill="none" stroke="#000000" points="10.5,-163.7 10.5,-185.7 151.5,-185.7 151.5,-163.7 10.5,-163.7"/>
<text text-anchor="start" x="30.5" y="-170.8" font-family="Helvetica,sans-Serif" font-size="11.00" fill="#000000">CREATED_AT</text>
<polygon fill="none" stroke="#000000" points="151.5,-163.7 151.5,-185.7 243.5,-185.7 243.5,-163.7 151.5,-163.7"/>
<text text-anchor="start" x="154.1023" y="-171.4" font-family="Helvetica,sans-Serif" font-size="11.00" fill="#000000">timestamptz[35,6]</text>
<polygon fill="none" stroke="#000000" points="10.5,-141.7 10.5,-163.7 151.5,-163.7 151.5,-141.7 10.5,-141.7"/>
<text text-anchor="start" x="30.5" y="-148.8" font-family="Helvetica,sans-Serif" font-size="11.00" fill="#000000">UPDATED_AT</text>
<polygon fill="none" stroke="#000000" points="151.5,-141.7 151.5,-163.7 243.5,-163.7 243.5,-141.7 151.5,-141.7"/>
<text text-anchor="start" x="154.1023" y="-149.4" font-family="Helvetica,sans-Serif" font-size="11.00" fill="#000000">timestamptz[35,6]</text>
<polygon fill="#ffffff" stroke="transparent" points="10.5,-122.7 10.5,-141.7 69.5,-141.7 69.5,-122.7 10.5,-122.7"/>
<polygon fill="none" stroke="#000000" points="10.5,-122.7 10.5,-141.7 69.5,-141.7 69.5,-122.7 10.5,-122.7"/>
<text text-anchor="start" x="13.5" y="-128.8" font-family="Helvetica,sans-Serif" font-size="11.00" fill="#000000">&lt; 0</text>
<polygon fill="#ffffff" stroke="transparent" points="69.5,-122.7 69.5,-141.7 151.5,-141.7 151.5,-122.7 69.5,-122.7"/>
<polygon fill="none" stroke="#000000" points="69.5,-122.7 69.5,-141.7 151.5,-141.7 151.5,-122.7 69.5,-122.7"/>
<text text-anchor="start" x="109.9956" y="-128.8" font-family="Helvetica,sans-Serif" font-size="11.00" fill="#000000">42 rows</text>
<polygon fill="#ffffff" stroke="transparent" points="151.5,-122.7 151.5,-141.7 243.5,-141.7 243.5,-122.7 151.5,-122.7"/>
<polygon fill="none" stroke="#000000" points="151.5,-122.7 151.5,-141.7 243.5,-141.7 243.5,-122.7 151.5,-122.7"/>
<text text-anchor="start" x="224.9053" y="-128.8" font-family="Helvetica,sans-Serif" font-size="11.00" fill="#000000">1 &gt;</text>
<polygon fill="none" stroke="#000000" stroke-width="2" points="9,-121.7 9,-275.7 244,-275.7 244,-121.7 9,-121.7"/>
</a>
</g>
</g>
<!-- global_DataSetID&#45;&gt;global_datasettypeID -->
<g id="edge2" class="edge">
<title>global_DataSetID:w&#45;&gt;global_datasettypeID:e</title>
<path fill="none" stroke="#000000" d="M279.776,-240.7C267.7815,-240.7 260.3229,-240.7 243.5,-240.7"/>
<polygon fill="#000000" stroke="#000000" points="286.5,-240.7001 294.5,-244.3 290.5,-240.7 294.5,-240.7 294.5,-240.7 294.5,-240.7 290.5,-240.7 294.5,-237.1 286.5,-240.7001 286.5,-240.7001"/>
<ellipse fill="none" stroke="#000000" cx="283.3" cy="-240.7001" rx="3.2" ry="3.2"/>
</g>
<!-- global_UnitMaster -->
<g id="node4" class="node">
<title>global_UnitMaster</title>
<g id="a_node4"><a xlink:href="../../tables/global_UnitMaster.html" xlink:title="global_UnitMaster" target="_top">
<polygon fill="#ffffff" stroke="transparent" points="55,-298.2 55,-359.2 198,-359.2 198,-298.2 55,-298.2"/>
<polygon fill="#f5f5f5" stroke="transparent" points="55.5,-335.7 55.5,-358.7 198.5,-358.7 198.5,-335.7 55.5,-335.7"/>
<polygon fill="none" stroke="#000000" points="55.5,-335.7 55.5,-358.7 198.5,-358.7 198.5,-335.7 55.5,-335.7"/>
<text text-anchor="start" x="60.5" y="-344.3" font-family="Helvetica,sans-Serif" font-weight="bold" font-size="11.00" fill="#000000">global_UnitMaster</text>
<text text-anchor="start" x="164.0219" y="-343.8" font-family="Helvetica,sans-Serif" font-size="11.00" fill="#000000">[table]</text>
<polygon fill="none" stroke="#000000" points="55.5,-316.7 55.5,-335.7 198.5,-335.7 198.5,-316.7 55.5,-316.7"/>
<text text-anchor="start" x="58.5" y="-322.8" font-family="Helvetica,sans-Serif" font-size="11.00" fill="#000000">...</text>
<polygon fill="#ffffff" stroke="transparent" points="55.5,-297.7 55.5,-316.7 101.5,-316.7 101.5,-297.7 55.5,-297.7"/>
<polygon fill="none" stroke="#000000" points="55.5,-297.7 55.5,-316.7 101.5,-316.7 101.5,-297.7 55.5,-297.7"/>
<text text-anchor="start" x="58.5" y="-303.8" font-family="Helvetica,sans-Serif" font-size="11.00" fill="#000000">&lt; 5</text>
<polygon fill="#ffffff" stroke="transparent" points="101.5,-297.7 101.5,-316.7 164.5,-316.7 164.5,-297.7 101.5,-297.7"/>
<polygon fill="none" stroke="#000000" points="101.5,-297.7 101.5,-316.7 164.5,-316.7 164.5,-297.7 101.5,-297.7"/>
<text text-anchor="start" x="116.8807" y="-303.8" font-family="Helvetica,sans-Serif" font-size="11.00" fill="#000000">597 rows</text>
<polygon fill="#ffffff" stroke="transparent" points="164.5,-297.7 164.5,-316.7 198.5,-316.7 198.5,-297.7 164.5,-297.7"/>
<polygon fill="none" stroke="#000000" points="164.5,-297.7 164.5,-316.7 198.5,-316.7 198.5,-297.7 164.5,-297.7"/>
<text text-anchor="start" x="179.9053" y="-303.8" font-family="Helvetica,sans-Serif" font-size="11.00" fill="#000000">2 &gt;</text>
</a>
</g>
</g>
<!-- global_DataSetID&#45;&gt;global_UnitMaster -->
<g id="edge3" class="edge">
<title>global_DataSetID:w&#45;&gt;global_UnitMaster:e</title>
<path fill="none" stroke="#000000" d="M280.5422,-267.2308C254.7521,-281.6761 219.8305,-325.7 198.5,-325.7"/>
<polygon fill="#000000" stroke="#000000" points="286.8908,-265.17 295.6115,-266.1241 290.6954,-263.935 294.5,-262.7 294.5,-262.7 294.5,-262.7 290.6954,-263.935 293.3885,-259.2759 286.8908,-265.17 286.8908,-265.17"/>
<ellipse fill="none" stroke="#000000" cx="283.8472" cy="-266.158" rx="3.2" ry="3.2"/>
</g>
</g>
</svg>
