<?xml version="1.0" encoding="UTF-8" standalone="no"?>
<!DOCTYPE svg PUBLIC "-//W3C//DTD SVG 1.1//EN"
 "http://www.w3.org/Graphics/SVG/1.1/DTD/svg11.dtd">
<!-- Generated by graphviz version 2.40.1 (20161225.0304)
 -->
<!-- Title: twoDegreesRelationshipsDiagram Pages: 1 -->
<svg width="609pt" height="589pt"
 viewBox="0.00 0.00 609.11 588.70" xmlns="http://www.w3.org/2000/svg" xmlns:xlink="http://www.w3.org/1999/xlink">
<g id="graph0" class="graph" transform="scale(1 1) rotate(0) translate(4 584.7)">
<title>twoDegreesRelationshipsDiagram</title>
<polygon fill="#ffffff" stroke="transparent" points="-4,4 -4,-584.7 605.112,-584.7 605.112,4 -4,4"/>
<text text-anchor="middle" x="72.4936" y="-7.3" font-family="Helvetica,sans-Serif" font-size="11.00" fill="#000000">Generated by SchemaSpy</text>
<!-- arch_Sample -->
<g id="node1" class="node">
<title>arch_Sample</title>
<g id="a_node1"><a xlink:href="../../tables/arch_Sample.html" xlink:title="arch_Sample" target="_top">
<polygon fill="#ffffff" stroke="transparent" points="478.612,-515.7 478.612,-576.7 585.612,-576.7 585.612,-515.7 478.612,-515.7"/>
<polygon fill="#f5f5f5" stroke="transparent" points="479.112,-553.2 479.112,-576.2 586.112,-576.2 586.112,-553.2 479.112,-553.2"/>
<polygon fill="none" stroke="#000000" points="479.112,-553.2 479.112,-576.2 586.112,-576.2 586.112,-553.2 479.112,-553.2"/>
<text text-anchor="start" x="483.717" y="-562.3" font-family="Helvetica,sans-Serif" font-weight="bold" font-size="11.00" fill="#000000">arch_Sample</text>
<text text-anchor="start" x="551.6339" y="-561.3" font-family="Helvetica,sans-Serif" font-size="11.00" fill="#000000">[table]</text>
<polygon fill="none" stroke="#000000" points="479.112,-534.2 479.112,-553.2 586.112,-553.2 586.112,-534.2 479.112,-534.2"/>
<text text-anchor="start" x="482.112" y="-540.3" font-family="Helvetica,sans-Serif" font-size="11.00" fill="#000000">...</text>
<polygon fill="#ffffff" stroke="transparent" points="479.112,-515.2 479.112,-534.2 500.112,-534.2 500.112,-515.2 479.112,-515.2"/>
<polygon fill="none" stroke="#000000" points="479.112,-515.2 479.112,-534.2 500.112,-534.2 500.112,-515.2 479.112,-515.2"/>
<text text-anchor="start" x="481.8147" y="-521.3" font-family="Helvetica,sans-Serif" font-size="11.00" fill="#000000">&lt; 2</text>
<polygon fill="#ffffff" stroke="transparent" points="500.112,-515.2 500.112,-534.2 565.112,-534.2 565.112,-515.2 500.112,-515.2"/>
<polygon fill="none" stroke="#000000" points="500.112,-515.2 500.112,-534.2 565.112,-534.2 565.112,-515.2 500.112,-515.2"/>
<text text-anchor="start" x="502.659" y="-521.3" font-family="Helvetica,sans-Serif" font-size="11.00" fill="#000000">10,412 rows</text>
<polygon fill="#ffffff" stroke="transparent" points="565.112,-515.2 565.112,-534.2 586.112,-534.2 586.112,-515.2 565.112,-515.2"/>
<polygon fill="none" stroke="#000000" points="565.112,-515.2 565.112,-534.2 586.112,-534.2 586.112,-515.2 565.112,-515.2"/>
<text text-anchor="start" x="567.8147" y="-521.3" font-family="Helvetica,sans-Serif" font-size="11.00" fill="#000000">3 &gt;</text>
</a>
</g>
</g>
<!-- global_SiteMaster -->
<g id="node2" class="node">
<title>global_SiteMaster</title>
<g id="a_node2"><a xlink:href="../../tables/global_SiteMaster.html" xlink:title="global_SiteMaster" target="_top">
<polygon fill="#ffffff" stroke="transparent" points="291.112,-242.7 291.112,-413.7 422.112,-413.7 422.112,-242.7 291.112,-242.7"/>
<polygon fill="#f5f5f5" stroke="transparent" points="291.612,-390.2 291.612,-413.2 422.612,-413.2 422.612,-390.2 291.612,-390.2"/>
<polygon fill="none" stroke="#000000" points="291.612,-390.2 291.612,-413.2 422.612,-413.2 422.612,-390.2 291.612,-390.2"/>
<text text-anchor="start" x="296.6043" y="-399.3" font-family="Helvetica,sans-Serif" font-weight="bold" font-size="11.00" fill="#000000">global_SiteMaster</text>
<text text-anchor="start" x="388.1339" y="-398.3" font-family="Helvetica,sans-Serif" font-size="11.00" fill="#000000">[table]</text>
<polygon fill="none" stroke="#000000" points="291.612,-368.2 291.612,-390.2 422.612,-390.2 422.612,-368.2 291.612,-368.2"/>
<image xlink:href="../../images/primaryKeys.png" width="11px" height="12px" preserveAspectRatio="xMinYMin meet" x="296.612" y="-385.2"/>
<text text-anchor="start" x="315.612" y="-375.3" font-family="Helvetica,sans-Serif" font-size="11.00" fill="#000000">SITEID</text>
<polygon fill="none" stroke="#000000" points="291.612,-346.2 291.612,-368.2 422.612,-368.2 422.612,-346.2 291.612,-346.2"/>
<image xlink:href="../../images/foreignKeys.png" width="11px" height="12px" preserveAspectRatio="xMinYMin meet" x="296.612" y="-363.2"/>
<text text-anchor="start" x="315.612" y="-353.3" font-family="Helvetica,sans-Serif" font-size="11.00" fill="#000000">METASITEID</text>
<polygon fill="none" stroke="#000000" points="291.612,-324.2 291.612,-346.2 422.612,-346.2 422.612,-324.2 291.612,-324.2"/>
<image xlink:href="../../images/foreignKeys.png" width="11px" height="12px" preserveAspectRatio="xMinYMin meet" x="296.612" y="-341.2"/>
<text text-anchor="start" x="315.612" y="-331.3" font-family="Helvetica,sans-Serif" font-size="11.00" fill="#000000">RIVID</text>
<polygon fill="none" stroke="#000000" points="291.612,-302.2 291.612,-324.2 422.612,-324.2 422.612,-302.2 291.612,-302.2"/>
<image xlink:href="../../images/foreignKeys.png" width="11px" height="12px" preserveAspectRatio="xMinYMin meet" x="296.612" y="-319.2"/>
<text text-anchor="start" x="315.612" y="-309.3" font-family="Helvetica,sans-Serif" font-size="11.00" fill="#000000">IBRAID</text>
<polygon fill="none" stroke="#000000" points="291.612,-280.2 291.612,-302.2 422.612,-302.2 422.612,-280.2 291.612,-280.2"/>
<image xlink:href="../../images/foreignKeys.png" width="11px" height="12px" preserveAspectRatio="xMinYMin meet" x="296.612" y="-297.2"/>
<text text-anchor="start" x="315.612" y="-287.3" font-family="Helvetica,sans-Serif" font-size="11.00" fill="#000000">SITECODEID</text>
<polygon fill="none" stroke="#000000" points="291.612,-261.2 291.612,-280.2 422.612,-280.2 422.612,-261.2 291.612,-261.2"/>
<text text-anchor="start" x="294.612" y="-267.3" font-family="Helvetica,sans-Serif" font-size="11.00" fill="#000000">...</text>
<polygon fill="#ffffff" stroke="transparent" points="291.612,-242.2 291.612,-261.2 324.612,-261.2 324.612,-242.2 291.612,-242.2"/>
<polygon fill="none" stroke="#000000" points="291.612,-242.2 291.612,-261.2 324.612,-261.2 324.612,-242.2 291.612,-242.2"/>
<text text-anchor="start" x="294.612" y="-248.3" font-family="Helvetica,sans-Serif" font-size="11.00" fill="#000000">&lt; 4</text>
<polygon fill="#ffffff" stroke="transparent" points="324.612,-242.2 324.612,-261.2 395.612,-261.2 395.612,-242.2 324.612,-242.2"/>
<polygon fill="none" stroke="#000000" points="324.612,-242.2 324.612,-261.2 395.612,-261.2 395.612,-242.2 324.612,-242.2"/>
<text text-anchor="start" x="332.706" y="-248.3" font-family="Helvetica,sans-Serif" font-size="11.00" fill="#000000">23,245 rows</text>
<polygon fill="#ffffff" stroke="transparent" points="395.612,-242.2 395.612,-261.2 422.612,-261.2 422.612,-242.2 395.612,-242.2"/>
<polygon fill="none" stroke="#000000" points="395.612,-242.2 395.612,-261.2 422.612,-261.2 422.612,-242.2 395.612,-242.2"/>
<text text-anchor="start" x="404.0173" y="-248.3" font-family="Helvetica,sans-Serif" font-size="11.00" fill="#000000">5 &gt;</text>
</a>
</g>
</g>
<!-- arch_Sample&#45;&gt;global_SiteMaster -->
<g id="edge1" class="edge">
<title>arch_Sample:w&#45;&gt;global_SiteMaster:e</title>
<path fill="none" stroke="#000000" d="M464.6921,-540.624C415.5564,-519.7596 493.9835,-379.2 422.612,-379.2"/>
<polygon fill="#000000" stroke="#000000" points="471.2367,-541.7931 478.4789,-546.7439 475.1744,-542.4965 479.112,-543.2 479.112,-543.2 479.112,-543.2 475.1744,-542.4965 479.7452,-539.6561 471.2367,-541.7931 471.2367,-541.7931"/>
<ellipse fill="none" stroke="#000000" cx="468.0866" cy="-541.2303" rx="3.2" ry="3.2"/>
</g>
<!-- global_SiteCode -->
<g id="node6" class="node">
<title>global_SiteCode</title>
<g id="a_node6"><a xlink:href="../../tables/global_SiteCode.html" xlink:title="global_SiteCode" target="_top">
<polygon fill="#ffffff" stroke="transparent" points="31.112,-38.2 31.112,-216.2 242.112,-216.2 242.112,-38.2 31.112,-38.2"/>
<polygon fill="#f5f5f5" stroke="transparent" points="33.612,-191.2 33.612,-214.2 240.612,-214.2 240.612,-191.2 33.612,-191.2"/>
<polygon fill="none" stroke="#000000" points="33.612,-191.2 33.612,-214.2 240.612,-214.2 240.612,-191.2 33.612,-191.2"/>
<text text-anchor="start" x="38.612" y="-200.3" font-family="Helvetica,sans-Serif" font-weight="bold" font-size="11.00" fill="#000000">global_SiteCode</text>
<text text-anchor="start" x="205.6557" y="-199.3" font-family="Helvetica,sans-Serif" font-size="11.00" fill="#000000">[table]</text>
<polygon fill="none" stroke="#000000" points="33.612,-169.2 33.612,-191.2 148.612,-191.2 148.612,-169.2 33.612,-169.2"/>
<image xlink:href="../../images/primaryKeys.png" width="11px" height="12px" preserveAspectRatio="xMinYMin meet" x="38.612" y="-186.2"/>
<text text-anchor="start" x="53.612" y="-176.3" font-family="Helvetica,sans-Serif" font-size="11.00" fill="#000000">SITECODEID</text>
<polygon fill="none" stroke="#000000" points="148.612,-169.2 148.612,-191.2 240.612,-191.2 240.612,-169.2 148.612,-169.2"/>
<text text-anchor="start" x="151.612" y="-176.9" font-family="Helvetica,sans-Serif" font-size="11.00" fill="#000000">smallserial[5]</text>
<polygon fill="none" stroke="#000000" points="33.612,-147.2 33.612,-169.2 148.612,-169.2 148.612,-147.2 33.612,-147.2"/>
<text text-anchor="start" x="53.612" y="-154.3" font-family="Helvetica,sans-Serif" font-size="11.00" fill="#000000">SITECODE</text>
<polygon fill="none" stroke="#000000" points="148.612,-147.2 148.612,-169.2 240.612,-169.2 240.612,-147.2 148.612,-147.2"/>
<text text-anchor="start" x="151.612" y="-154.9" font-family="Helvetica,sans-Serif" font-size="11.00" fill="#000000">text[2147483647]</text>
<polygon fill="none" stroke="#000000" points="33.612,-125.2 33.612,-147.2 148.612,-147.2 148.612,-125.2 33.612,-125.2"/>
<text text-anchor="start" x="53.612" y="-132.3" font-family="Helvetica,sans-Serif" font-size="11.00" fill="#000000">CREATED_AT</text>
<polygon fill="none" stroke="#000000" points="148.612,-125.2 148.612,-147.2 240.612,-147.2 240.612,-125.2 148.612,-125.2"/>
<text text-anchor="start" x="151.2143" y="-132.9" font-family="Helvetica,sans-Serif" font-size="11.00" fill="#000000">timestamptz[35,6]</text>
<polygon fill="none" stroke="#000000" points="33.612,-103.2 33.612,-125.2 148.612,-125.2 148.612,-103.2 33.612,-103.2"/>
<text text-anchor="start" x="53.612" y="-110.3" font-family="Helvetica,sans-Serif" font-size="11.00" fill="#000000">UPDATED_AT</text>
<polygon fill="none" stroke="#000000" points="148.612,-103.2 148.612,-125.2 240.612,-125.2 240.612,-103.2 148.612,-103.2"/>
<text text-anchor="start" x="151.2143" y="-110.9" font-family="Helvetica,sans-Serif" font-size="11.00" fill="#000000">timestamptz[35,6]</text>
<polygon fill="none" stroke="#000000" points="33.612,-81.2 33.612,-103.2 148.612,-103.2 148.612,-81.2 33.612,-81.2"/>
<image xlink:href="../../images/foreignKeys.png" width="11px" height="12px" preserveAspectRatio="xMinYMin meet" x="38.612" y="-98.2"/>
<text text-anchor="start" x="53.612" y="-88.3" font-family="Helvetica,sans-Serif" font-size="11.00" fill="#000000">PARENTID</text>
<polygon fill="none" stroke="#000000" points="148.612,-81.2 148.612,-103.2 240.612,-103.2 240.612,-81.2 148.612,-81.2"/>
<text text-anchor="start" x="151.612" y="-88.9" font-family="Helvetica,sans-Serif" font-size="11.00" fill="#000000">int2[5]</text>
<polygon fill="none" stroke="#000000" points="33.612,-59.2 33.612,-81.2 148.612,-81.2 148.612,-59.2 33.612,-59.2"/>
<text text-anchor="start" x="53.612" y="-66.3" font-family="Helvetica,sans-Serif" font-size="11.00" fill="#000000">SITEDESCR</text>
<polygon fill="none" stroke="#000000" points="148.612,-59.2 148.612,-81.2 240.612,-81.2 240.612,-59.2 148.612,-59.2"/>
<text text-anchor="start" x="151.612" y="-66.9" font-family="Helvetica,sans-Serif" font-size="11.00" fill="#000000">text[2147483647]</text>
<polygon fill="#ffffff" stroke="transparent" points="33.612,-40.2 33.612,-59.2 79.612,-59.2 79.612,-40.2 33.612,-40.2"/>
<polygon fill="none" stroke="#000000" points="33.612,-40.2 33.612,-59.2 79.612,-59.2 79.612,-40.2 33.612,-40.2"/>
<text text-anchor="start" x="36.612" y="-46.3" font-family="Helvetica,sans-Serif" font-size="11.00" fill="#000000">&lt; 1</text>
<polygon fill="#ffffff" stroke="transparent" points="79.612,-40.2 79.612,-59.2 148.612,-59.2 148.612,-40.2 79.612,-40.2"/>
<polygon fill="none" stroke="#000000" points="79.612,-40.2 79.612,-59.2 148.612,-59.2 148.612,-40.2 79.612,-40.2"/>
<text text-anchor="start" x="107.1076" y="-46.3" font-family="Helvetica,sans-Serif" font-size="11.00" fill="#000000">74 rows</text>
<polygon fill="#ffffff" stroke="transparent" points="148.612,-40.2 148.612,-59.2 240.612,-59.2 240.612,-40.2 148.612,-40.2"/>
<polygon fill="none" stroke="#000000" points="148.612,-40.2 148.612,-59.2 240.612,-59.2 240.612,-40.2 148.612,-40.2"/>
<text text-anchor="start" x="222.0173" y="-46.3" font-family="Helvetica,sans-Serif" font-size="11.00" fill="#000000">2 &gt;</text>
<polygon fill="none" stroke="#000000" stroke-width="2" points="32.112,-39.2 32.112,-215.2 241.112,-215.2 241.112,-39.2 32.112,-39.2"/>
</a>
</g>
</g>
<!-- global_SiteMaster&#45;&gt;global_SiteCode -->
<g id="edge9" class="edge">
<title>global_SiteMaster:w&#45;&gt;global_SiteCode:e</title>
<path fill="none" stroke="#000000" d="M277.5199,-287.5068C248.5785,-268.2466 288.9653,-180.2 240.612,-180.2"/>
<polygon fill="#000000" stroke="#000000" points="283.8734,-289.1719 290.6994,-294.6824 287.7427,-290.1859 291.612,-291.2 291.612,-291.2 291.612,-291.2 287.7427,-290.1859 292.5247,-287.7176 283.8734,-289.1719 283.8734,-289.1719"/>
<ellipse fill="none" stroke="#000000" cx="280.7779" cy="-288.3606" rx="3.2" ry="3.2"/>
</g>
<!-- global_ibraID -->
<g id="node7" class="node">
<title>global_ibraID</title>
<g id="a_node7"><a xlink:href="../../tables/global_ibraID.html" xlink:title="global_ibraID" target="_top">
<polygon fill="#ffffff" stroke="transparent" points="83.112,-255.7 83.112,-316.7 190.112,-316.7 190.112,-255.7 83.112,-255.7"/>
<polygon fill="#f5f5f5" stroke="transparent" points="83.612,-293.2 83.612,-316.2 190.612,-316.2 190.612,-293.2 83.612,-293.2"/>
<polygon fill="none" stroke="#000000" points="83.612,-293.2 83.612,-316.2 190.612,-316.2 190.612,-293.2 83.612,-293.2"/>
<text text-anchor="start" x="88.2187" y="-302.3" font-family="Helvetica,sans-Serif" font-weight="bold" font-size="11.00" fill="#000000">global_ibraID</text>
<text text-anchor="start" x="156.1339" y="-301.3" font-family="Helvetica,sans-Serif" font-size="11.00" fill="#000000">[table]</text>
<polygon fill="none" stroke="#000000" points="83.612,-274.2 83.612,-293.2 190.612,-293.2 190.612,-274.2 83.612,-274.2"/>
<text text-anchor="start" x="86.612" y="-280.3" font-family="Helvetica,sans-Serif" font-size="11.00" fill="#000000">...</text>
<polygon fill="#ffffff" stroke="transparent" points="83.612,-255.2 83.612,-274.2 110.612,-274.2 110.612,-255.2 83.612,-255.2"/>
<polygon fill="none" stroke="#000000" points="83.612,-255.2 83.612,-274.2 110.612,-274.2 110.612,-255.2 83.612,-255.2"/>
<text text-anchor="start" x="86.612" y="-261.3" font-family="Helvetica,sans-Serif" font-size="11.00" fill="#000000"> &#160;</text>
<polygon fill="#ffffff" stroke="transparent" points="110.612,-255.2 110.612,-274.2 161.612,-274.2 161.612,-255.2 110.612,-255.2"/>
<polygon fill="none" stroke="#000000" points="110.612,-255.2 110.612,-274.2 161.612,-274.2 161.612,-255.2 110.612,-255.2"/>
<text text-anchor="start" x="120.1076" y="-261.3" font-family="Helvetica,sans-Serif" font-size="11.00" fill="#000000">90 rows</text>
<polygon fill="#ffffff" stroke="transparent" points="161.612,-255.2 161.612,-274.2 190.612,-274.2 190.612,-255.2 161.612,-255.2"/>
<polygon fill="none" stroke="#000000" points="161.612,-255.2 161.612,-274.2 190.612,-274.2 190.612,-255.2 161.612,-255.2"/>
<text text-anchor="start" x="172.0173" y="-261.3" font-family="Helvetica,sans-Serif" font-size="11.00" fill="#000000">1 &gt;</text>
</a>
</g>
</g>
<!-- global_SiteMaster&#45;&gt;global_ibraID -->
<g id="edge6" class="edge">
<title>global_SiteMaster:w&#45;&gt;global_ibraID:e</title>
<path fill="none" stroke="#000000" d="M277.1033,-312.1323C242.6139,-306.7881 232.1346,-283.2 190.612,-283.2"/>
<polygon fill="#000000" stroke="#000000" points="283.6336,-312.6128 291.3478,-316.7903 287.6228,-312.9064 291.612,-313.2 291.612,-313.2 291.612,-313.2 287.6228,-312.9064 291.8763,-309.6097 283.6336,-312.6128 283.6336,-312.6128"/>
<ellipse fill="none" stroke="#000000" cx="280.4422" cy="-312.3779" rx="3.2" ry="3.2"/>
</g>
<!-- global_MetaSite -->
<g id="node8" class="node">
<title>global_MetaSite</title>
<g id="a_node8"><a xlink:href="../../tables/global_MetaSite.html" xlink:title="global_MetaSite" target="_top">
<polygon fill="#ffffff" stroke="transparent" points="76.112,-419.7 76.112,-480.7 197.112,-480.7 197.112,-419.7 76.112,-419.7"/>
<polygon fill="#f5f5f5" stroke="transparent" points="76.612,-457.2 76.612,-480.2 197.612,-480.2 197.612,-457.2 76.612,-457.2"/>
<polygon fill="none" stroke="#000000" points="76.612,-457.2 76.612,-480.2 197.612,-480.2 197.612,-457.2 76.612,-457.2"/>
<text text-anchor="start" x="81.1853" y="-466.3" font-family="Helvetica,sans-Serif" font-weight="bold" font-size="11.00" fill="#000000">global_MetaSite</text>
<text text-anchor="start" x="163.1339" y="-465.3" font-family="Helvetica,sans-Serif" font-size="11.00" fill="#000000">[table]</text>
<polygon fill="none" stroke="#000000" points="76.612,-438.2 76.612,-457.2 197.612,-457.2 197.612,-438.2 76.612,-438.2"/>
<text text-anchor="start" x="79.612" y="-444.3" font-family="Helvetica,sans-Serif" font-size="11.00" fill="#000000">...</text>
<polygon fill="#ffffff" stroke="transparent" points="76.612,-419.2 76.612,-438.2 102.612,-438.2 102.612,-419.2 76.612,-419.2"/>
<polygon fill="none" stroke="#000000" points="76.612,-419.2 76.612,-438.2 102.612,-438.2 102.612,-419.2 76.612,-419.2"/>
<text text-anchor="start" x="79.612" y="-425.3" font-family="Helvetica,sans-Serif" font-size="11.00" fill="#000000"> &#160;</text>
<polygon fill="#ffffff" stroke="transparent" points="102.612,-419.2 102.612,-438.2 168.612,-438.2 168.612,-419.2 102.612,-419.2"/>
<polygon fill="none" stroke="#000000" points="102.612,-419.2 102.612,-438.2 168.612,-438.2 168.612,-419.2 102.612,-419.2"/>
<text text-anchor="start" x="111.8209" y="-425.3" font-family="Helvetica,sans-Serif" font-size="11.00" fill="#000000">7,686 rows</text>
<polygon fill="#ffffff" stroke="transparent" points="168.612,-419.2 168.612,-438.2 197.612,-438.2 197.612,-419.2 168.612,-419.2"/>
<polygon fill="none" stroke="#000000" points="168.612,-419.2 168.612,-438.2 197.612,-438.2 197.612,-419.2 168.612,-419.2"/>
<text text-anchor="start" x="179.0173" y="-425.3" font-family="Helvetica,sans-Serif" font-size="11.00" fill="#000000">1 &gt;</text>
</a>
</g>
</g>
<!-- global_SiteMaster&#45;&gt;global_MetaSite -->
<g id="edge7" class="edge">
<title>global_SiteMaster:w&#45;&gt;global_MetaSite:e</title>
<path fill="none" stroke="#000000" d="M277.4547,-361.0152C264.6624,-370.0293 266.9935,-393.0945 250.112,-409.2 229.2711,-429.083 226.4162,-447.2 197.612,-447.2"/>
<polygon fill="#000000" stroke="#000000" points="283.8876,-359.2817 292.5488,-360.676 287.7498,-358.2408 291.612,-357.2 291.612,-357.2 291.612,-357.2 287.7498,-358.2408 290.6753,-353.724 283.8876,-359.2817 283.8876,-359.2817"/>
<ellipse fill="none" stroke="#000000" cx="280.7978" cy="-360.1144" rx="3.2" ry="3.2"/>
</g>
<!-- global_rivID -->
<g id="node9" class="node">
<title>global_rivID</title>
<g id="a_node9"><a xlink:href="../../tables/global_rivID.html" xlink:title="global_rivID" target="_top">
<polygon fill="#ffffff" stroke="transparent" points="86.112,-337.7 86.112,-398.7 187.112,-398.7 187.112,-337.7 86.112,-337.7"/>
<polygon fill="#f5f5f5" stroke="transparent" points="86.612,-375.2 86.612,-398.2 187.612,-398.2 187.612,-375.2 86.612,-375.2"/>
<polygon fill="none" stroke="#000000" points="86.612,-375.2 86.612,-398.2 187.612,-398.2 187.612,-375.2 86.612,-375.2"/>
<text text-anchor="start" x="91.5836" y="-384.3" font-family="Helvetica,sans-Serif" font-weight="bold" font-size="11.00" fill="#000000">global_rivID</text>
<text text-anchor="start" x="153.1339" y="-383.3" font-family="Helvetica,sans-Serif" font-size="11.00" fill="#000000">[table]</text>
<polygon fill="none" stroke="#000000" points="86.612,-356.2 86.612,-375.2 187.612,-375.2 187.612,-356.2 86.612,-356.2"/>
<text text-anchor="start" x="89.612" y="-362.3" font-family="Helvetica,sans-Serif" font-size="11.00" fill="#000000">...</text>
<polygon fill="#ffffff" stroke="transparent" points="86.612,-337.2 86.612,-356.2 107.612,-356.2 107.612,-337.2 86.612,-337.2"/>
<polygon fill="none" stroke="#000000" points="86.612,-337.2 86.612,-356.2 107.612,-356.2 107.612,-337.2 86.612,-337.2"/>
<text text-anchor="start" x="89.612" y="-343.3" font-family="Helvetica,sans-Serif" font-size="11.00" fill="#000000"> &#160;</text>
<polygon fill="#ffffff" stroke="transparent" points="107.612,-337.2 107.612,-356.2 161.612,-356.2 161.612,-337.2 107.612,-337.2"/>
<polygon fill="none" stroke="#000000" points="107.612,-337.2 107.612,-356.2 161.612,-356.2 161.612,-337.2 107.612,-337.2"/>
<text text-anchor="start" x="113.9927" y="-343.3" font-family="Helvetica,sans-Serif" font-size="11.00" fill="#000000">219 rows</text>
<polygon fill="#ffffff" stroke="transparent" points="161.612,-337.2 161.612,-356.2 187.612,-356.2 187.612,-337.2 161.612,-337.2"/>
<polygon fill="none" stroke="#000000" points="161.612,-337.2 161.612,-356.2 187.612,-356.2 187.612,-337.2 161.612,-337.2"/>
<text text-anchor="start" x="169.0173" y="-343.3" font-family="Helvetica,sans-Serif" font-size="11.00" fill="#000000">1 &gt;</text>
</a>
</g>
</g>
<!-- global_SiteMaster&#45;&gt;global_rivID -->
<g id="edge8" class="edge">
<title>global_SiteMaster:w&#45;&gt;global_rivID:e</title>
<path fill="none" stroke="#000000" d="M277.1685,-336.1982C241.3196,-341.4036 230.4572,-365.2 187.612,-365.2"/>
<polygon fill="#000000" stroke="#000000" points="283.6311,-335.7516 291.8603,-338.7914 287.6216,-335.4758 291.612,-335.2 291.612,-335.2 291.612,-335.2 287.6216,-335.4758 291.3638,-331.6086 283.6311,-335.7516 283.6311,-335.7516"/>
<ellipse fill="none" stroke="#000000" cx="280.4387" cy="-335.9722" rx="3.2" ry="3.2"/>
</g>
<!-- crn_Sample -->
<g id="node3" class="node">
<title>crn_Sample</title>
<g id="a_node3"><a xlink:href="../../tables/crn_Sample.html" xlink:title="crn_Sample" target="_top">
<polygon fill="#ffffff" stroke="transparent" points="481.612,-433.7 481.612,-494.7 582.612,-494.7 582.612,-433.7 481.612,-433.7"/>
<polygon fill="#f5f5f5" stroke="transparent" points="482.112,-471.2 482.112,-494.2 583.112,-494.2 583.112,-471.2 482.112,-471.2"/>
<polygon fill="none" stroke="#000000" points="482.112,-471.2 482.112,-494.2 583.112,-494.2 583.112,-471.2 482.112,-471.2"/>
<text text-anchor="start" x="486.7745" y="-480.3" font-family="Helvetica,sans-Serif" font-weight="bold" font-size="11.00" fill="#000000">crn_Sample</text>
<text text-anchor="start" x="548.6339" y="-479.3" font-family="Helvetica,sans-Serif" font-size="11.00" fill="#000000">[table]</text>
<polygon fill="none" stroke="#000000" points="482.112,-452.2 482.112,-471.2 583.112,-471.2 583.112,-452.2 482.112,-452.2"/>
<text text-anchor="start" x="485.112" y="-458.3" font-family="Helvetica,sans-Serif" font-size="11.00" fill="#000000">...</text>
<polygon fill="#ffffff" stroke="transparent" points="482.112,-433.2 482.112,-452.2 503.112,-452.2 503.112,-433.2 482.112,-433.2"/>
<polygon fill="none" stroke="#000000" points="482.112,-433.2 482.112,-452.2 503.112,-452.2 503.112,-433.2 482.112,-433.2"/>
<text text-anchor="start" x="484.8147" y="-439.3" font-family="Helvetica,sans-Serif" font-size="11.00" fill="#000000">&lt; 3</text>
<polygon fill="#ffffff" stroke="transparent" points="503.112,-433.2 503.112,-452.2 562.112,-452.2 562.112,-433.2 503.112,-433.2"/>
<polygon fill="none" stroke="#000000" points="503.112,-433.2 503.112,-452.2 562.112,-452.2 562.112,-433.2 503.112,-433.2"/>
<text text-anchor="start" x="505.7165" y="-439.3" font-family="Helvetica,sans-Serif" font-size="11.00" fill="#000000">4,588 rows</text>
<polygon fill="#ffffff" stroke="transparent" points="562.112,-433.2 562.112,-452.2 583.112,-452.2 583.112,-433.2 562.112,-433.2"/>
<polygon fill="none" stroke="#000000" points="562.112,-433.2 562.112,-452.2 583.112,-452.2 583.112,-433.2 562.112,-433.2"/>
<text text-anchor="start" x="564.8147" y="-439.3" font-family="Helvetica,sans-Serif" font-size="11.00" fill="#000000">2 &gt;</text>
</a>
</g>
</g>
<!-- crn_Sample&#45;&gt;global_SiteMaster -->
<g id="edge2" class="edge">
<title>crn_Sample:w&#45;&gt;global_SiteMaster:e</title>
<path fill="none" stroke="#000000" d="M468.143,-457.4636C443.7059,-441.422 461.8355,-379.2 422.612,-379.2"/>
<polygon fill="#000000" stroke="#000000" points="474.3837,-459.1328 481.1818,-464.6777 478.2479,-460.1664 482.112,-461.2 482.112,-461.2 482.112,-461.2 478.2479,-460.1664 483.0423,-457.7223 474.3837,-459.1328 474.3837,-459.1328"/>
<ellipse fill="none" stroke="#000000" cx="471.2924" cy="-458.3059" rx="3.2" ry="3.2"/>
</g>
<!-- expage_Sample -->
<g id="node4" class="node">
<title>expage_Sample</title>
<g id="a_node4"><a xlink:href="../../tables/expage_Sample.html" xlink:title="expage_Sample" target="_top">
<polygon fill="#ffffff" stroke="transparent" points="471.112,-351.7 471.112,-412.7 593.112,-412.7 593.112,-351.7 471.112,-351.7"/>
<polygon fill="#f5f5f5" stroke="transparent" points="471.112,-389.2 471.112,-412.2 593.112,-412.2 593.112,-389.2 471.112,-389.2"/>
<polygon fill="none" stroke="#000000" points="471.112,-389.2 471.112,-412.2 593.112,-412.2 593.112,-389.2 471.112,-389.2"/>
<text text-anchor="start" x="475.8756" y="-398.3" font-family="Helvetica,sans-Serif" font-weight="bold" font-size="11.00" fill="#000000">expage_Sample</text>
<text text-anchor="start" x="558.6339" y="-397.3" font-family="Helvetica,sans-Serif" font-size="11.00" fill="#000000">[table]</text>
<polygon fill="none" stroke="#000000" points="471.112,-370.2 471.112,-389.2 593.112,-389.2 593.112,-370.2 471.112,-370.2"/>
<text text-anchor="start" x="474.112" y="-376.3" font-family="Helvetica,sans-Serif" font-size="11.00" fill="#000000">...</text>
<polygon fill="#ffffff" stroke="transparent" points="471.112,-351.2 471.112,-370.2 499.112,-370.2 499.112,-351.2 471.112,-351.2"/>
<polygon fill="none" stroke="#000000" points="471.112,-351.2 471.112,-370.2 499.112,-370.2 499.112,-351.2 471.112,-351.2"/>
<text text-anchor="start" x="474.112" y="-357.3" font-family="Helvetica,sans-Serif" font-size="11.00" fill="#000000">&lt; 2</text>
<polygon fill="#ffffff" stroke="transparent" points="499.112,-351.2 499.112,-370.2 568.112,-370.2 568.112,-351.2 499.112,-351.2"/>
<polygon fill="none" stroke="#000000" points="499.112,-351.2 499.112,-370.2 568.112,-370.2 568.112,-351.2 499.112,-351.2"/>
<text text-anchor="start" x="505.206" y="-357.3" font-family="Helvetica,sans-Serif" font-size="11.00" fill="#000000">15,805 rows</text>
<polygon fill="#ffffff" stroke="transparent" points="568.112,-351.2 568.112,-370.2 593.112,-370.2 593.112,-351.2 568.112,-351.2"/>
<polygon fill="none" stroke="#000000" points="568.112,-351.2 568.112,-370.2 593.112,-370.2 593.112,-351.2 568.112,-351.2"/>
<text text-anchor="start" x="574.5173" y="-357.3" font-family="Helvetica,sans-Serif" font-size="11.00" fill="#000000">1 &gt;</text>
</a>
</g>
</g>
<!-- expage_Sample&#45;&gt;global_SiteMaster -->
<g id="edge3" class="edge">
<title>expage_Sample:w&#45;&gt;global_SiteMaster:e</title>
<path fill="none" stroke="#000000" d="M456.395,-379.2C445.4007,-379.2 438.2735,-379.2 422.612,-379.2"/>
<polygon fill="#000000" stroke="#000000" points="463.112,-379.2001 471.1121,-382.8 467.112,-379.2 471.112,-379.2 471.112,-379.2 471.112,-379.2 467.112,-379.2 471.112,-375.6 463.112,-379.2001 463.112,-379.2001"/>
<ellipse fill="none" stroke="#000000" cx="459.912" cy="-379.2001" rx="3.2" ry="3.2"/>
</g>
<!-- fos_Sample -->
<g id="node5" class="node">
<title>fos_Sample</title>
<g id="a_node5"><a xlink:href="../../tables/fos_Sample.html" xlink:title="fos_Sample" target="_top">
<polygon fill="#ffffff" stroke="transparent" points="481.612,-269.7 481.612,-330.7 582.612,-330.7 582.612,-269.7 481.612,-269.7"/>
<polygon fill="#f5f5f5" stroke="transparent" points="482.112,-307.2 482.112,-330.2 583.112,-330.2 583.112,-307.2 482.112,-307.2"/>
<polygon fill="none" stroke="#000000" points="482.112,-307.2 482.112,-330.2 583.112,-330.2 583.112,-307.2 482.112,-307.2"/>
<text text-anchor="start" x="487.077" y="-316.3" font-family="Helvetica,sans-Serif" font-weight="bold" font-size="11.00" fill="#000000">fos_Sample</text>
<text text-anchor="start" x="548.6339" y="-315.3" font-family="Helvetica,sans-Serif" font-size="11.00" fill="#000000">[table]</text>
<polygon fill="none" stroke="#000000" points="482.112,-288.2 482.112,-307.2 583.112,-307.2 583.112,-288.2 482.112,-288.2"/>
<text text-anchor="start" x="485.112" y="-294.3" font-family="Helvetica,sans-Serif" font-size="11.00" fill="#000000">...</text>
<polygon fill="#ffffff" stroke="transparent" points="482.112,-269.2 482.112,-288.2 503.112,-288.2 503.112,-269.2 482.112,-269.2"/>
<polygon fill="none" stroke="#000000" points="482.112,-269.2 482.112,-288.2 503.112,-288.2 503.112,-269.2 482.112,-269.2"/>
<text text-anchor="start" x="484.8147" y="-275.3" font-family="Helvetica,sans-Serif" font-size="11.00" fill="#000000">&lt; 1</text>
<polygon fill="#ffffff" stroke="transparent" points="503.112,-269.2 503.112,-288.2 562.112,-288.2 562.112,-269.2 503.112,-269.2"/>
<polygon fill="none" stroke="#000000" points="503.112,-269.2 503.112,-288.2 562.112,-288.2 562.112,-269.2 503.112,-269.2"/>
<text text-anchor="start" x="505.7165" y="-275.3" font-family="Helvetica,sans-Serif" font-size="11.00" fill="#000000">2,235 rows</text>
<polygon fill="#ffffff" stroke="transparent" points="562.112,-269.2 562.112,-288.2 583.112,-288.2 583.112,-269.2 562.112,-269.2"/>
<polygon fill="none" stroke="#000000" points="562.112,-269.2 562.112,-288.2 583.112,-288.2 583.112,-269.2 562.112,-269.2"/>
<text text-anchor="start" x="564.8147" y="-275.3" font-family="Helvetica,sans-Serif" font-size="11.00" fill="#000000">1 &gt;</text>
</a>
</g>
</g>
<!-- fos_Sample&#45;&gt;global_SiteMaster -->
<g id="edge4" class="edge">
<title>fos_Sample:w&#45;&gt;global_SiteMaster:e</title>
<path fill="none" stroke="#000000" d="M468.143,-300.9364C443.7059,-316.978 461.8355,-379.2 422.612,-379.2"/>
<polygon fill="#000000" stroke="#000000" points="474.3837,-299.2672 483.0423,-300.6777 478.2479,-298.2336 482.112,-297.2 482.112,-297.2 482.112,-297.2 478.2479,-298.2336 481.1818,-293.7223 474.3837,-299.2672 474.3837,-299.2672"/>
<ellipse fill="none" stroke="#000000" cx="471.2924" cy="-300.0941" rx="3.2" ry="3.2"/>
</g>
<!-- global_SiteCode&#45;&gt;global_SiteCode -->
<g id="edge5" class="edge">
<title>global_SiteCode:w&#45;&gt;global_SiteCode:e</title>
<path fill="none" stroke="#000000" d="M22.3172,-101.1575C-20.5149,-142.6362 -9.6243,-233.2 137.112,-233.2 295.612,-233.2 295.612,-215.5333 240.612,-180.2"/>
<polygon fill="#000000" stroke="#000000" points="27.3439,-97.171 35.849,-95.0207 30.478,-94.6855 33.612,-92.2 33.612,-92.2 33.612,-92.2 30.478,-94.6855 31.3751,-89.3793 27.3439,-97.171 27.3439,-97.171"/>
<ellipse fill="none" stroke="#000000" cx="24.8367" cy="-99.1594" rx="3.2" ry="3.2"/>
</g>
<!-- sed_Sample -->
<g id="node10" class="node">
<title>sed_Sample</title>
<g id="a_node10"><a xlink:href="../../tables/sed_Sample.html" xlink:title="sed_Sample" target="_top">
<polygon fill="#ffffff" stroke="transparent" points="480.112,-187.7 480.112,-248.7 584.112,-248.7 584.112,-187.7 480.112,-187.7"/>
<polygon fill="#f5f5f5" stroke="transparent" points="480.112,-225.2 480.112,-248.2 584.112,-248.2 584.112,-225.2 480.112,-225.2"/>
<polygon fill="none" stroke="#000000" points="480.112,-225.2 480.112,-248.2 584.112,-248.2 584.112,-225.2 480.112,-225.2"/>
<text text-anchor="start" x="485.048" y="-234.3" font-family="Helvetica,sans-Serif" font-weight="bold" font-size="11.00" fill="#000000">sed_Sample</text>
<text text-anchor="start" x="549.6339" y="-233.3" font-family="Helvetica,sans-Serif" font-size="11.00" fill="#000000">[table]</text>
<polygon fill="none" stroke="#000000" points="480.112,-206.2 480.112,-225.2 584.112,-225.2 584.112,-206.2 480.112,-206.2"/>
<text text-anchor="start" x="483.112" y="-212.3" font-family="Helvetica,sans-Serif" font-size="11.00" fill="#000000">...</text>
<polygon fill="#ffffff" stroke="transparent" points="480.112,-187.2 480.112,-206.2 502.112,-206.2 502.112,-187.2 480.112,-187.2"/>
<polygon fill="none" stroke="#000000" points="480.112,-187.2 480.112,-206.2 502.112,-206.2 502.112,-187.2 480.112,-187.2"/>
<text text-anchor="start" x="483.112" y="-193.3" font-family="Helvetica,sans-Serif" font-size="11.00" fill="#000000">&lt; 9</text>
<polygon fill="#ffffff" stroke="transparent" points="502.112,-187.2 502.112,-206.2 562.112,-206.2 562.112,-187.2 502.112,-187.2"/>
<polygon fill="none" stroke="#000000" points="502.112,-187.2 502.112,-206.2 562.112,-206.2 562.112,-187.2 502.112,-187.2"/>
<text text-anchor="start" x="505.3209" y="-193.3" font-family="Helvetica,sans-Serif" font-size="11.00" fill="#000000">3,181 rows</text>
<polygon fill="#ffffff" stroke="transparent" points="562.112,-187.2 562.112,-206.2 584.112,-206.2 584.112,-187.2 562.112,-187.2"/>
<polygon fill="none" stroke="#000000" points="562.112,-187.2 562.112,-206.2 584.112,-206.2 584.112,-187.2 562.112,-187.2"/>
<text text-anchor="start" x="565.5173" y="-193.3" font-family="Helvetica,sans-Serif" font-size="11.00" fill="#000000">2 &gt;</text>
</a>
</g>
</g>
<!-- sed_Sample&#45;&gt;global_SiteMaster -->
<g id="edge10" class="edge">
<title>sed_Sample:w&#45;&gt;global_SiteMaster:e</title>
<path fill="none" stroke="#000000" d="M465.6508,-217.776C416.3085,-238.6404 494.1185,-379.2 422.612,-379.2"/>
<polygon fill="#000000" stroke="#000000" points="472.236,-216.603 480.7434,-218.7442 476.174,-215.9015 480.112,-215.2 480.112,-215.2 480.112,-215.2 476.174,-215.9015 479.4807,-211.6558 472.236,-216.603 472.236,-216.603"/>
<ellipse fill="none" stroke="#000000" cx="469.0856" cy="-217.1643" rx="3.2" ry="3.2"/>
</g>
</g>
</svg>
