<?xml version="1.0" encoding="UTF-8" standalone="no"?>
<!DOCTYPE svg PUBLIC "-//W3C//DTD SVG 1.1//EN"
 "http://www.w3.org/Graphics/SVG/1.1/DTD/svg11.dtd">
<!-- Generated by graphviz version 2.40.1 (20161225.0304)
 -->
<!-- Title: twoDegreesRelationshipsDiagram Pages: 1 -->
<svg width="771pt" height="726pt"
 viewBox="0.00 0.00 771.00 726.20" xmlns="http://www.w3.org/2000/svg" xmlns:xlink="http://www.w3.org/1999/xlink">
<g id="graph0" class="graph" transform="scale(1 1) rotate(0) translate(4 722.2)">
<title>twoDegreesRelationshipsDiagram</title>
<polygon fill="#ffffff" stroke="transparent" points="-4,4 -4,-722.2 767,-722.2 767,4 -4,4"/>
<text text-anchor="middle" x="72.4936" y="-7.3" font-family="Helvetica,sans-Serif" font-size="11.00" fill="#000000">Generated by SchemaSpy</text>
<!-- arch_Sample -->
<g id="node1" class="node">
<title>arch_Sample</title>
<g id="a_node1"><a xlink:href="../../tables/arch_Sample.html" xlink:title="arch_Sample" target="_top">
<polygon fill="#ffffff" stroke="transparent" points="634,-576.2 634,-637.2 747,-637.2 747,-576.2 634,-576.2"/>
<polygon fill="#f5f5f5" stroke="transparent" points="634.5,-613.7 634.5,-636.7 747.5,-636.7 747.5,-613.7 634.5,-613.7"/>
<polygon fill="none" stroke="#000000" points="634.5,-613.7 634.5,-636.7 747.5,-636.7 747.5,-613.7 634.5,-613.7"/>
<text text-anchor="start" x="639.5" y="-622.3" font-family="Helvetica,sans-Serif" font-weight="bold" font-size="11.00" fill="#000000">arch_Sample</text>
<text text-anchor="start" x="713.0219" y="-621.8" font-family="Helvetica,sans-Serif" font-size="11.00" fill="#000000">[table]</text>
<polygon fill="none" stroke="#000000" points="634.5,-594.7 634.5,-613.7 747.5,-613.7 747.5,-594.7 634.5,-594.7"/>
<text text-anchor="start" x="637.5" y="-600.8" font-family="Helvetica,sans-Serif" font-size="11.00" fill="#000000">...</text>
<polygon fill="#ffffff" stroke="transparent" points="634.5,-575.7 634.5,-594.7 658.5,-594.7 658.5,-575.7 634.5,-575.7"/>
<polygon fill="none" stroke="#000000" points="634.5,-575.7 634.5,-594.7 658.5,-594.7 658.5,-575.7 634.5,-575.7"/>
<text text-anchor="start" x="637.5" y="-581.8" font-family="Helvetica,sans-Serif" font-size="11.00" fill="#000000">&lt; 2</text>
<polygon fill="#ffffff" stroke="transparent" points="658.5,-575.7 658.5,-594.7 724.5,-594.7 724.5,-575.7 658.5,-575.7"/>
<polygon fill="none" stroke="#000000" points="658.5,-575.7 658.5,-594.7 724.5,-594.7 724.5,-575.7 658.5,-575.7"/>
<text text-anchor="start" x="661.594" y="-581.8" font-family="Helvetica,sans-Serif" font-size="11.00" fill="#000000">10.412 rows</text>
<polygon fill="#ffffff" stroke="transparent" points="724.5,-575.7 724.5,-594.7 747.5,-594.7 747.5,-575.7 724.5,-575.7"/>
<polygon fill="none" stroke="#000000" points="724.5,-575.7 724.5,-594.7 747.5,-594.7 747.5,-575.7 724.5,-575.7"/>
<text text-anchor="start" x="728.9053" y="-581.8" font-family="Helvetica,sans-Serif" font-size="11.00" fill="#000000">3 &gt;</text>
</a>
</g>
</g>
<!-- global_SiteMaster -->
<g id="node2" class="node">
<title>global_SiteMaster</title>
<g id="a_node2"><a xlink:href="../../tables/global_SiteMaster.html" xlink:title="global_SiteMaster" target="_top">
<polygon fill="#ffffff" stroke="transparent" points="436,-215.2 436,-474.2 577,-474.2 577,-215.2 436,-215.2"/>
<polygon fill="#f5f5f5" stroke="transparent" points="436.5,-450.7 436.5,-473.7 577.5,-473.7 577.5,-450.7 436.5,-450.7"/>
<polygon fill="none" stroke="#000000" points="436.5,-450.7 436.5,-473.7 577.5,-473.7 577.5,-450.7 436.5,-450.7"/>
<text text-anchor="start" x="441.5" y="-459.3" font-family="Helvetica,sans-Serif" font-weight="bold" font-size="11.00" fill="#000000">global_SiteMaster</text>
<text text-anchor="start" x="543.0219" y="-458.8" font-family="Helvetica,sans-Serif" font-size="11.00" fill="#000000">[table]</text>
<polygon fill="none" stroke="#000000" points="436.5,-428.7 436.5,-450.7 577.5,-450.7 577.5,-428.7 436.5,-428.7"/>
<image xlink:href="../../images/primaryKeys.png" width="11px" height="12px" preserveAspectRatio="xMinYMin meet" x="441.5" y="-445.7"/>
<text text-anchor="start" x="465.5" y="-435.8" font-family="Helvetica,sans-Serif" font-size="11.00" fill="#000000">SITEID</text>
<polygon fill="none" stroke="#000000" points="436.5,-406.7 436.5,-428.7 577.5,-428.7 577.5,-406.7 436.5,-406.7"/>
<image xlink:href="../../images/foreignKeys.png" width="11px" height="12px" preserveAspectRatio="xMinYMin meet" x="441.5" y="-423.7"/>
<text text-anchor="start" x="465.5" y="-413.8" font-family="Helvetica,sans-Serif" font-size="11.00" fill="#000000">METASITEID</text>
<polygon fill="none" stroke="#000000" points="436.5,-384.7 436.5,-406.7 577.5,-406.7 577.5,-384.7 436.5,-384.7"/>
<image xlink:href="../../images/foreignKeys.png" width="11px" height="12px" preserveAspectRatio="xMinYMin meet" x="441.5" y="-401.7"/>
<text text-anchor="start" x="465.5" y="-391.8" font-family="Helvetica,sans-Serif" font-size="11.00" fill="#000000">RIVID</text>
<polygon fill="none" stroke="#000000" points="436.5,-362.7 436.5,-384.7 577.5,-384.7 577.5,-362.7 436.5,-362.7"/>
<image xlink:href="../../images/foreignKeys.png" width="11px" height="12px" preserveAspectRatio="xMinYMin meet" x="441.5" y="-379.7"/>
<text text-anchor="start" x="465.5" y="-369.8" font-family="Helvetica,sans-Serif" font-size="11.00" fill="#000000">IBRAID</text>
<polygon fill="none" stroke="#000000" points="436.5,-340.7 436.5,-362.7 577.5,-362.7 577.5,-340.7 436.5,-340.7"/>
<image xlink:href="../../images/foreignKeys.png" width="11px" height="12px" preserveAspectRatio="xMinYMin meet" x="441.5" y="-357.7"/>
<text text-anchor="start" x="465.5" y="-347.8" font-family="Helvetica,sans-Serif" font-size="11.00" fill="#000000">SITECODEID</text>
<polygon fill="none" stroke="#000000" points="436.5,-318.7 436.5,-340.7 577.5,-340.7 577.5,-318.7 436.5,-318.7"/>
<image xlink:href="../../images/foreignKeys.png" width="11px" height="12px" preserveAspectRatio="xMinYMin meet" x="441.5" y="-335.7"/>
<text text-anchor="start" x="465.5" y="-325.8" font-family="Helvetica,sans-Serif" font-size="11.00" fill="#000000">BIOMEID</text>
<polygon fill="none" stroke="#000000" points="436.5,-296.7 436.5,-318.7 577.5,-318.7 577.5,-296.7 436.5,-296.7"/>
<image xlink:href="../../images/foreignKeys.png" width="11px" height="12px" preserveAspectRatio="xMinYMin meet" x="441.5" y="-313.7"/>
<text text-anchor="start" x="465.5" y="-303.8" font-family="Helvetica,sans-Serif" font-size="11.00" fill="#000000">CATCHSZEID</text>
<polygon fill="none" stroke="#000000" points="436.5,-274.7 436.5,-296.7 577.5,-296.7 577.5,-274.7 436.5,-274.7"/>
<image xlink:href="../../images/foreignKeys.png" width="11px" height="12px" preserveAspectRatio="xMinYMin meet" x="441.5" y="-291.7"/>
<text text-anchor="start" x="465.5" y="-281.8" font-family="Helvetica,sans-Serif" font-size="11.00" fill="#000000">BASINSZEID</text>
<polygon fill="none" stroke="#000000" points="436.5,-252.7 436.5,-274.7 577.5,-274.7 577.5,-252.7 436.5,-252.7"/>
<image xlink:href="../../images/foreignKeys.png" width="11px" height="12px" preserveAspectRatio="xMinYMin meet" x="441.5" y="-269.7"/>
<text text-anchor="start" x="465.5" y="-259.8" font-family="Helvetica,sans-Serif" font-size="11.00" fill="#000000">FLOWTYPEID</text>
<polygon fill="none" stroke="#000000" points="436.5,-233.7 436.5,-252.7 577.5,-252.7 577.5,-233.7 436.5,-233.7"/>
<text text-anchor="start" x="439.5" y="-239.8" font-family="Helvetica,sans-Serif" font-size="11.00" fill="#000000">...</text>
<polygon fill="#ffffff" stroke="transparent" points="436.5,-214.7 436.5,-233.7 474.5,-233.7 474.5,-214.7 436.5,-214.7"/>
<polygon fill="none" stroke="#000000" points="436.5,-214.7 436.5,-233.7 474.5,-233.7 474.5,-214.7 436.5,-214.7"/>
<text text-anchor="start" x="439.5" y="-220.8" font-family="Helvetica,sans-Serif" font-size="11.00" fill="#000000">&lt; 8</text>
<polygon fill="#ffffff" stroke="transparent" points="474.5,-214.7 474.5,-233.7 547.5,-233.7 547.5,-214.7 474.5,-214.7"/>
<polygon fill="none" stroke="#000000" points="474.5,-214.7 474.5,-233.7 547.5,-233.7 547.5,-214.7 474.5,-214.7"/>
<text text-anchor="start" x="484.594" y="-220.8" font-family="Helvetica,sans-Serif" font-size="11.00" fill="#000000">23.734 rows</text>
<polygon fill="#ffffff" stroke="transparent" points="547.5,-214.7 547.5,-233.7 577.5,-233.7 577.5,-214.7 547.5,-214.7"/>
<polygon fill="none" stroke="#000000" points="547.5,-214.7 547.5,-233.7 577.5,-233.7 577.5,-214.7 547.5,-214.7"/>
<text text-anchor="start" x="558.9053" y="-220.8" font-family="Helvetica,sans-Serif" font-size="11.00" fill="#000000">5 &gt;</text>
</a>
</g>
</g>
<!-- arch_Sample&#45;&gt;global_SiteMaster -->
<g id="edge1" class="edge">
<title>arch_Sample:w&#45;&gt;global_SiteMaster:e</title>
<path fill="none" stroke="#000000" d="M620.0595,-601.124C570.8206,-580.2596 648.9387,-439.7 577.5,-439.7"/>
<polygon fill="#000000" stroke="#000000" points="626.6243,-602.295 633.8678,-607.2441 630.5622,-602.9975 634.5,-603.7 634.5,-603.7 634.5,-603.7 630.5622,-602.9975 635.1322,-600.1559 626.6243,-602.295 626.6243,-602.295"/>
<ellipse fill="none" stroke="#000000" cx="623.4741" cy="-601.733" rx="3.2" ry="3.2"/>
</g>
<!-- global_MetaSite -->
<g id="node6" class="node">
<title>global_MetaSite</title>
<g id="a_node6"><a xlink:href="../../tables/global_MetaSite.html" xlink:title="global_MetaSite" target="_top">
<polygon fill="#ffffff" stroke="transparent" points="223.5,-653.2 223.5,-714.2 353.5,-714.2 353.5,-653.2 223.5,-653.2"/>
<polygon fill="#f5f5f5" stroke="transparent" points="223.5,-690.7 223.5,-713.7 353.5,-713.7 353.5,-690.7 223.5,-690.7"/>
<polygon fill="none" stroke="#000000" points="223.5,-690.7 223.5,-713.7 353.5,-713.7 353.5,-690.7 223.5,-690.7"/>
<text text-anchor="start" x="228.5" y="-699.3" font-family="Helvetica,sans-Serif" font-weight="bold" font-size="11.00" fill="#000000">global_MetaSite</text>
<text text-anchor="start" x="319.0219" y="-698.8" font-family="Helvetica,sans-Serif" font-size="11.00" fill="#000000">[table]</text>
<polygon fill="none" stroke="#000000" points="223.5,-671.7 223.5,-690.7 353.5,-690.7 353.5,-671.7 223.5,-671.7"/>
<text text-anchor="start" x="226.5" y="-677.8" font-family="Helvetica,sans-Serif" font-size="11.00" fill="#000000">...</text>
<polygon fill="#ffffff" stroke="transparent" points="223.5,-652.7 223.5,-671.7 255.5,-671.7 255.5,-652.7 223.5,-652.7"/>
<polygon fill="none" stroke="#000000" points="223.5,-652.7 223.5,-671.7 255.5,-671.7 255.5,-652.7 223.5,-652.7"/>
<text text-anchor="start" x="226.5" y="-658.8" font-family="Helvetica,sans-Serif" font-size="11.00" fill="#000000">&lt; 2</text>
<polygon fill="#ffffff" stroke="transparent" points="255.5,-652.7 255.5,-671.7 326.5,-671.7 326.5,-652.7 255.5,-652.7"/>
<polygon fill="none" stroke="#000000" points="255.5,-652.7 255.5,-671.7 326.5,-671.7 326.5,-652.7 255.5,-652.7"/>
<text text-anchor="start" x="263.594" y="-658.8" font-family="Helvetica,sans-Serif" font-size="11.00" fill="#000000">12.140 rows</text>
<polygon fill="#ffffff" stroke="transparent" points="326.5,-652.7 326.5,-671.7 353.5,-671.7 353.5,-652.7 326.5,-652.7"/>
<polygon fill="none" stroke="#000000" points="326.5,-652.7 326.5,-671.7 353.5,-671.7 353.5,-652.7 326.5,-652.7"/>
<text text-anchor="start" x="334.9053" y="-658.8" font-family="Helvetica,sans-Serif" font-size="11.00" fill="#000000">1 &gt;</text>
</a>
</g>
</g>
<!-- global_SiteMaster&#45;&gt;global_MetaSite -->
<g id="edge11" class="edge">
<title>global_SiteMaster:w&#45;&gt;global_MetaSite:e</title>
<path fill="none" stroke="#000000" d="M423.0752,-423.3529C392.1725,-454.2662 417.0396,-602.9159 395,-642.7 382.8811,-664.5761 378.5086,-680.7 353.5,-680.7"/>
<polygon fill="#000000" stroke="#000000" points="429.127,-420.8047 437.8971,-421.0179 432.8135,-419.2523 436.5,-417.7 436.5,-417.7 436.5,-417.7 432.8135,-419.2523 435.1029,-414.3821 429.127,-420.8047 429.127,-420.8047"/>
<ellipse fill="none" stroke="#000000" cx="426.1778" cy="-422.0465" rx="3.2" ry="3.2"/>
</g>
<!-- global_SiteCode -->
<g id="node7" class="node">
<title>global_SiteCode</title>
<g id="a_node7"><a xlink:href="../../tables/global_SiteCode.html" xlink:title="global_SiteCode" target="_top">
<polygon fill="#ffffff" stroke="transparent" points="8,-497.2 8,-558.2 141,-558.2 141,-497.2 8,-497.2"/>
<polygon fill="#f5f5f5" stroke="transparent" points="8.5,-534.7 8.5,-557.7 141.5,-557.7 141.5,-534.7 8.5,-534.7"/>
<polygon fill="none" stroke="#000000" points="8.5,-534.7 8.5,-557.7 141.5,-557.7 141.5,-534.7 8.5,-534.7"/>
<text text-anchor="start" x="13.5" y="-543.3" font-family="Helvetica,sans-Serif" font-weight="bold" font-size="11.00" fill="#000000">global_SiteCode</text>
<text text-anchor="start" x="107.0219" y="-542.8" font-family="Helvetica,sans-Serif" font-size="11.00" fill="#000000">[table]</text>
<polygon fill="none" stroke="#000000" points="8.5,-515.7 8.5,-534.7 141.5,-534.7 141.5,-515.7 8.5,-515.7"/>
<text text-anchor="start" x="11.5" y="-521.8" font-family="Helvetica,sans-Serif" font-size="11.00" fill="#000000">...</text>
<polygon fill="#ffffff" stroke="transparent" points="8.5,-496.7 8.5,-515.7 52.5,-515.7 52.5,-496.7 8.5,-496.7"/>
<polygon fill="none" stroke="#000000" points="8.5,-496.7 8.5,-515.7 52.5,-515.7 52.5,-496.7 8.5,-496.7"/>
<text text-anchor="start" x="11.5" y="-502.8" font-family="Helvetica,sans-Serif" font-size="11.00" fill="#000000">&lt; 1</text>
<polygon fill="#ffffff" stroke="transparent" points="52.5,-496.7 52.5,-515.7 108.5,-515.7 108.5,-496.7 52.5,-496.7"/>
<polygon fill="none" stroke="#000000" points="52.5,-496.7 52.5,-515.7 108.5,-515.7 108.5,-496.7 52.5,-496.7"/>
<text text-anchor="start" x="66.9956" y="-502.8" font-family="Helvetica,sans-Serif" font-size="11.00" fill="#000000">87 rows</text>
<polygon fill="#ffffff" stroke="transparent" points="108.5,-496.7 108.5,-515.7 141.5,-515.7 141.5,-496.7 108.5,-496.7"/>
<polygon fill="none" stroke="#000000" points="108.5,-496.7 108.5,-515.7 141.5,-515.7 141.5,-496.7 108.5,-496.7"/>
<text text-anchor="start" x="122.9053" y="-502.8" font-family="Helvetica,sans-Serif" font-size="11.00" fill="#000000">3 &gt;</text>
</a>
</g>
</g>
<!-- global_SiteMaster&#45;&gt;global_SiteCode -->
<g id="edge13" class="edge">
<title>global_SiteMaster:w&#45;&gt;global_SiteCode:e</title>
<path fill="none" stroke="#000000" d="M421.9779,-353.0684C368.4546,-358.6631 186.6829,-379.6905 182,-383.7 132.4731,-426.1052 206.7005,-524.7 141.5,-524.7"/>
<polygon fill="#000000" stroke="#000000" points="428.5353,-352.4506 436.8378,-355.2841 432.5176,-352.0753 436.5,-351.7 436.5,-351.7 436.5,-351.7 432.5176,-352.0753 436.1622,-348.1159 428.5353,-352.4506 428.5353,-352.4506"/>
<ellipse fill="none" stroke="#000000" cx="425.3494" cy="-352.7508" rx="3.2" ry="3.2"/>
</g>
<!-- cabah_basinsizeID -->
<g id="node8" class="node">
<title>cabah_basinsizeID</title>
<g id="a_node8"><a xlink:href="../../tables/cabah_basinsizeID.html" xlink:title="cabah_basinsizeID" target="_top">
<polygon fill="#ffffff" stroke="transparent" points="215.5,-120.2 215.5,-181.2 361.5,-181.2 361.5,-120.2 215.5,-120.2"/>
<polygon fill="#f5f5f5" stroke="transparent" points="215.5,-157.7 215.5,-180.7 361.5,-180.7 361.5,-157.7 215.5,-157.7"/>
<polygon fill="none" stroke="#000000" points="215.5,-157.7 215.5,-180.7 361.5,-180.7 361.5,-157.7 215.5,-157.7"/>
<text text-anchor="start" x="220.5" y="-166.3" font-family="Helvetica,sans-Serif" font-weight="bold" font-size="11.00" fill="#000000">cabah_basinsizeID</text>
<text text-anchor="start" x="327.0219" y="-165.8" font-family="Helvetica,sans-Serif" font-size="11.00" fill="#000000">[table]</text>
<polygon fill="none" stroke="#000000" points="215.5,-138.7 215.5,-157.7 361.5,-157.7 361.5,-138.7 215.5,-138.7"/>
<text text-anchor="start" x="218.5" y="-144.8" font-family="Helvetica,sans-Serif" font-size="11.00" fill="#000000">...</text>
<polygon fill="#ffffff" stroke="transparent" points="215.5,-119.7 215.5,-138.7 264.5,-138.7 264.5,-119.7 215.5,-119.7"/>
<polygon fill="none" stroke="#000000" points="215.5,-119.7 215.5,-138.7 264.5,-138.7 264.5,-119.7 215.5,-119.7"/>
<text text-anchor="start" x="218.5" y="-125.8" font-family="Helvetica,sans-Serif" font-size="11.00" fill="#000000"> &#160;</text>
<polygon fill="#ffffff" stroke="transparent" points="264.5,-119.7 264.5,-138.7 321.5,-138.7 321.5,-119.7 264.5,-119.7"/>
<polygon fill="none" stroke="#000000" points="264.5,-119.7 264.5,-138.7 321.5,-138.7 321.5,-119.7 264.5,-119.7"/>
<text text-anchor="start" x="286.1105" y="-125.8" font-family="Helvetica,sans-Serif" font-size="11.00" fill="#000000">6 rows</text>
<polygon fill="#ffffff" stroke="transparent" points="321.5,-119.7 321.5,-138.7 361.5,-138.7 361.5,-119.7 321.5,-119.7"/>
<polygon fill="none" stroke="#000000" points="321.5,-119.7 321.5,-138.7 361.5,-138.7 361.5,-119.7 321.5,-119.7"/>
<text text-anchor="start" x="342.9053" y="-125.8" font-family="Helvetica,sans-Serif" font-size="11.00" fill="#000000">1 &gt;</text>
</a>
</g>
</g>
<!-- global_SiteMaster&#45;&gt;cabah_basinsizeID -->
<g id="edge6" class="edge">
<title>global_SiteMaster:w&#45;&gt;cabah_basinsizeID:e</title>
<path fill="none" stroke="#000000" d="M422.178,-283.1869C376.18,-264.4834 425.7161,-147.7 361.5,-147.7"/>
<polygon fill="#000000" stroke="#000000" points="428.6204,-284.3173 435.8778,-289.2458 432.5602,-285.0087 436.5,-285.7 436.5,-285.7 436.5,-285.7 432.5602,-285.0087 437.1222,-282.1542 428.6204,-284.3173 428.6204,-284.3173"/>
<ellipse fill="none" stroke="#000000" cx="425.4685" cy="-283.7643" rx="3.2" ry="3.2"/>
</g>
<!-- global_biomeID -->
<g id="node9" class="node">
<title>global_biomeID</title>
<g id="a_node9"><a xlink:href="../../tables/global_biomeID.html" xlink:title="global_biomeID" target="_top">
<polygon fill="#ffffff" stroke="transparent" points="224.5,-284.2 224.5,-345.2 352.5,-345.2 352.5,-284.2 224.5,-284.2"/>
<polygon fill="#f5f5f5" stroke="transparent" points="224.5,-321.7 224.5,-344.7 352.5,-344.7 352.5,-321.7 224.5,-321.7"/>
<polygon fill="none" stroke="#000000" points="224.5,-321.7 224.5,-344.7 352.5,-344.7 352.5,-321.7 224.5,-321.7"/>
<text text-anchor="start" x="229.5" y="-330.3" font-family="Helvetica,sans-Serif" font-weight="bold" font-size="11.00" fill="#000000">global_biomeID</text>
<text text-anchor="start" x="318.0219" y="-329.8" font-family="Helvetica,sans-Serif" font-size="11.00" fill="#000000">[table]</text>
<polygon fill="none" stroke="#000000" points="224.5,-302.7 224.5,-321.7 352.5,-321.7 352.5,-302.7 224.5,-302.7"/>
<text text-anchor="start" x="227.5" y="-308.8" font-family="Helvetica,sans-Serif" font-size="11.00" fill="#000000">...</text>
<polygon fill="#ffffff" stroke="transparent" points="224.5,-283.7 224.5,-302.7 266.5,-302.7 266.5,-283.7 224.5,-283.7"/>
<polygon fill="none" stroke="#000000" points="224.5,-283.7 224.5,-302.7 266.5,-302.7 266.5,-283.7 224.5,-283.7"/>
<text text-anchor="start" x="227.5" y="-289.8" font-family="Helvetica,sans-Serif" font-size="11.00" fill="#000000">&lt; 1</text>
<polygon fill="#ffffff" stroke="transparent" points="266.5,-283.7 266.5,-302.7 320.5,-302.7 320.5,-283.7 266.5,-283.7"/>
<polygon fill="none" stroke="#000000" points="266.5,-283.7 266.5,-302.7 320.5,-302.7 320.5,-283.7 266.5,-283.7"/>
<text text-anchor="start" x="278.9956" y="-289.8" font-family="Helvetica,sans-Serif" font-size="11.00" fill="#000000">65 rows</text>
<polygon fill="#ffffff" stroke="transparent" points="320.5,-283.7 320.5,-302.7 352.5,-302.7 352.5,-283.7 320.5,-283.7"/>
<polygon fill="none" stroke="#000000" points="320.5,-283.7 320.5,-302.7 352.5,-302.7 352.5,-283.7 320.5,-283.7"/>
<text text-anchor="start" x="333.9053" y="-289.8" font-family="Helvetica,sans-Serif" font-size="11.00" fill="#000000">2 &gt;</text>
</a>
</g>
</g>
<!-- global_SiteMaster&#45;&gt;global_biomeID -->
<g id="edge7" class="edge">
<title>global_SiteMaster:w&#45;&gt;global_biomeID:e</title>
<path fill="none" stroke="#000000" d="M422.0346,-328.7322C395.5669,-324.9935 385.3117,-311.7 352.5,-311.7"/>
<polygon fill="#000000" stroke="#000000" points="428.5178,-329.1659 436.2597,-333.292 432.5089,-329.433 436.5,-329.7 436.5,-329.7 436.5,-329.7 432.5089,-329.433 436.7403,-326.108 428.5178,-329.1659 428.5178,-329.1659"/>
<ellipse fill="none" stroke="#000000" cx="425.325" cy="-328.9523" rx="3.2" ry="3.2"/>
</g>
<!-- cabah_catchmentsizeID -->
<g id="node10" class="node">
<title>cabah_catchmentsizeID</title>
<g id="a_node10"><a xlink:href="../../tables/cabah_catchmentsizeID.html" xlink:title="cabah_catchmentsizeID" target="_top">
<polygon fill="#ffffff" stroke="transparent" points="201,-202.2 201,-263.2 376,-263.2 376,-202.2 201,-202.2"/>
<polygon fill="#f5f5f5" stroke="transparent" points="201.5,-239.7 201.5,-262.7 376.5,-262.7 376.5,-239.7 201.5,-239.7"/>
<polygon fill="none" stroke="#000000" points="201.5,-239.7 201.5,-262.7 376.5,-262.7 376.5,-239.7 201.5,-239.7"/>
<text text-anchor="start" x="206.5" y="-248.3" font-family="Helvetica,sans-Serif" font-weight="bold" font-size="11.00" fill="#000000">cabah_catchmentsizeID</text>
<text text-anchor="start" x="342.0219" y="-247.8" font-family="Helvetica,sans-Serif" font-size="11.00" fill="#000000">[table]</text>
<polygon fill="none" stroke="#000000" points="201.5,-220.7 201.5,-239.7 376.5,-239.7 376.5,-220.7 201.5,-220.7"/>
<text text-anchor="start" x="204.5" y="-226.8" font-family="Helvetica,sans-Serif" font-size="11.00" fill="#000000">...</text>
<polygon fill="#ffffff" stroke="transparent" points="201.5,-201.7 201.5,-220.7 265.5,-220.7 265.5,-201.7 201.5,-201.7"/>
<polygon fill="none" stroke="#000000" points="201.5,-201.7 201.5,-220.7 265.5,-220.7 265.5,-201.7 201.5,-201.7"/>
<text text-anchor="start" x="204.5" y="-207.8" font-family="Helvetica,sans-Serif" font-size="11.00" fill="#000000"> &#160;</text>
<polygon fill="#ffffff" stroke="transparent" points="265.5,-201.7 265.5,-220.7 329.5,-220.7 329.5,-201.7 265.5,-201.7"/>
<polygon fill="none" stroke="#000000" points="265.5,-201.7 265.5,-220.7 329.5,-220.7 329.5,-201.7 265.5,-201.7"/>
<text text-anchor="start" x="294.1105" y="-207.8" font-family="Helvetica,sans-Serif" font-size="11.00" fill="#000000">4 rows</text>
<polygon fill="#ffffff" stroke="transparent" points="329.5,-201.7 329.5,-220.7 376.5,-220.7 376.5,-201.7 329.5,-201.7"/>
<polygon fill="none" stroke="#000000" points="329.5,-201.7 329.5,-220.7 376.5,-220.7 376.5,-201.7 329.5,-201.7"/>
<text text-anchor="start" x="357.9053" y="-207.8" font-family="Helvetica,sans-Serif" font-size="11.00" fill="#000000">1 &gt;</text>
</a>
</g>
</g>
<!-- global_SiteMaster&#45;&gt;cabah_catchmentsizeID -->
<g id="edge8" class="edge">
<title>global_SiteMaster:w&#45;&gt;cabah_catchmentsizeID:e</title>
<path fill="none" stroke="#000000" d="M422.5083,-303.9379C398.8049,-288.3571 414.4278,-229.7 376.5,-229.7"/>
<polygon fill="#000000" stroke="#000000" points="428.7744,-305.6227 435.5652,-311.1765 432.6372,-306.6613 436.5,-307.7 436.5,-307.7 436.5,-307.7 432.6372,-306.6613 437.4348,-304.2235 428.7744,-305.6227 428.7744,-305.6227"/>
<ellipse fill="none" stroke="#000000" cx="425.6842" cy="-304.7918" rx="3.2" ry="3.2"/>
</g>
<!-- cabah_flowtypeID -->
<g id="node11" class="node">
<title>cabah_flowtypeID</title>
<g id="a_node11"><a xlink:href="../../tables/cabah_flowtypeID.html" xlink:title="cabah_flowtypeID" target="_top">
<polygon fill="#ffffff" stroke="transparent" points="218,-38.2 218,-99.2 359,-99.2 359,-38.2 218,-38.2"/>
<polygon fill="#f5f5f5" stroke="transparent" points="218.5,-75.7 218.5,-98.7 359.5,-98.7 359.5,-75.7 218.5,-75.7"/>
<polygon fill="none" stroke="#000000" points="218.5,-75.7 218.5,-98.7 359.5,-98.7 359.5,-75.7 218.5,-75.7"/>
<text text-anchor="start" x="223.5" y="-84.3" font-family="Helvetica,sans-Serif" font-weight="bold" font-size="11.00" fill="#000000">cabah_flowtypeID</text>
<text text-anchor="start" x="325.0219" y="-83.8" font-family="Helvetica,sans-Serif" font-size="11.00" fill="#000000">[table]</text>
<polygon fill="none" stroke="#000000" points="218.5,-56.7 218.5,-75.7 359.5,-75.7 359.5,-56.7 218.5,-56.7"/>
<text text-anchor="start" x="221.5" y="-62.8" font-family="Helvetica,sans-Serif" font-size="11.00" fill="#000000">...</text>
<polygon fill="#ffffff" stroke="transparent" points="218.5,-37.7 218.5,-56.7 265.5,-56.7 265.5,-37.7 218.5,-37.7"/>
<polygon fill="none" stroke="#000000" points="218.5,-37.7 218.5,-56.7 265.5,-56.7 265.5,-37.7 218.5,-37.7"/>
<text text-anchor="start" x="221.5" y="-43.8" font-family="Helvetica,sans-Serif" font-size="11.00" fill="#000000"> &#160;</text>
<polygon fill="#ffffff" stroke="transparent" points="265.5,-37.7 265.5,-56.7 320.5,-56.7 320.5,-37.7 265.5,-37.7"/>
<polygon fill="none" stroke="#000000" points="265.5,-37.7 265.5,-56.7 320.5,-56.7 320.5,-37.7 265.5,-37.7"/>
<text text-anchor="start" x="285.1105" y="-43.8" font-family="Helvetica,sans-Serif" font-size="11.00" fill="#000000">6 rows</text>
<polygon fill="#ffffff" stroke="transparent" points="320.5,-37.7 320.5,-56.7 359.5,-56.7 359.5,-37.7 320.5,-37.7"/>
<polygon fill="none" stroke="#000000" points="320.5,-37.7 320.5,-56.7 359.5,-56.7 359.5,-37.7 320.5,-37.7"/>
<text text-anchor="start" x="340.9053" y="-43.8" font-family="Helvetica,sans-Serif" font-size="11.00" fill="#000000">1 &gt;</text>
</a>
</g>
</g>
<!-- global_SiteMaster&#45;&gt;cabah_flowtypeID -->
<g id="edge9" class="edge">
<title>global_SiteMaster:w&#45;&gt;cabah_flowtypeID:e</title>
<path fill="none" stroke="#000000" d="M421.9441,-261.7403C354.478,-241.1767 448.3877,-65.7 359.5,-65.7"/>
<polygon fill="#000000" stroke="#000000" points="428.5715,-262.6325 436.0196,-267.2678 432.5358,-263.1663 436.5,-263.7 436.5,-263.7 436.5,-263.7 432.5358,-263.1663 436.9804,-260.1322 428.5715,-262.6325 428.5715,-262.6325"/>
<ellipse fill="none" stroke="#000000" cx="425.4001" cy="-262.2055" rx="3.2" ry="3.2"/>
</g>
<!-- global_ibraID -->
<g id="node12" class="node">
<title>global_ibraID</title>
<g id="a_node12"><a xlink:href="../../tables/global_ibraID.html" xlink:title="global_ibraID" target="_top">
<polygon fill="#ffffff" stroke="transparent" points="190,-393.7 190,-549.7 387,-549.7 387,-393.7 190,-393.7"/>
<polygon fill="#f5f5f5" stroke="transparent" points="192.5,-524.7 192.5,-547.7 385.5,-547.7 385.5,-524.7 192.5,-524.7"/>
<polygon fill="none" stroke="#000000" points="192.5,-524.7 192.5,-547.7 385.5,-547.7 385.5,-524.7 192.5,-524.7"/>
<text text-anchor="start" x="197.5" y="-533.3" font-family="Helvetica,sans-Serif" font-weight="bold" font-size="11.00" fill="#000000">global_ibraID</text>
<text text-anchor="start" x="350.5437" y="-532.8" font-family="Helvetica,sans-Serif" font-size="11.00" fill="#000000">[table]</text>
<polygon fill="none" stroke="#000000" points="192.5,-502.7 192.5,-524.7 293.5,-524.7 293.5,-502.7 192.5,-502.7"/>
<image xlink:href="../../images/primaryKeys.png" width="11px" height="12px" preserveAspectRatio="xMinYMin meet" x="197.5" y="-519.7"/>
<text text-anchor="start" x="212.5" y="-509.8" font-family="Helvetica,sans-Serif" font-size="11.00" fill="#000000">IBRAID</text>
<polygon fill="none" stroke="#000000" points="293.5,-502.7 293.5,-524.7 385.5,-524.7 385.5,-502.7 293.5,-502.7"/>
<text text-anchor="start" x="296.5" y="-510.4" font-family="Helvetica,sans-Serif" font-size="11.00" fill="#000000">int2[5]</text>
<polygon fill="#ffffff" stroke="transparent" points="192.5,-480.7 192.5,-502.7 293.5,-502.7 293.5,-480.7 192.5,-480.7"/>
<polygon fill="none" stroke="#000000" points="192.5,-480.7 192.5,-502.7 293.5,-502.7 293.5,-480.7 192.5,-480.7"/>
<text text-anchor="start" x="212.5" y="-487.8" font-family="Helvetica,sans-Serif" font-size="11.00" fill="#000000">IBRACODE</text>
<polygon fill="none" stroke="#000000" points="293.5,-480.7 293.5,-502.7 385.5,-502.7 385.5,-480.7 293.5,-480.7"/>
<text text-anchor="start" x="296.5" y="-488.4" font-family="Helvetica,sans-Serif" font-size="11.00" fill="#000000">varchar[3]</text>
<polygon fill="#ffffff" stroke="transparent" points="192.5,-458.7 192.5,-480.7 293.5,-480.7 293.5,-458.7 192.5,-458.7"/>
<polygon fill="none" stroke="#000000" points="192.5,-458.7 192.5,-480.7 293.5,-480.7 293.5,-458.7 192.5,-458.7"/>
<text text-anchor="start" x="212.5" y="-465.8" font-family="Helvetica,sans-Serif" font-size="11.00" fill="#000000">IBRAREGION</text>
<polygon fill="none" stroke="#000000" points="293.5,-458.7 293.5,-480.7 385.5,-480.7 385.5,-458.7 293.5,-458.7"/>
<text text-anchor="start" x="296.5" y="-466.4" font-family="Helvetica,sans-Serif" font-size="11.00" fill="#000000">text[2147483647]</text>
<polygon fill="none" stroke="#000000" points="192.5,-436.7 192.5,-458.7 293.5,-458.7 293.5,-436.7 192.5,-436.7"/>
<text text-anchor="start" x="212.5" y="-443.8" font-family="Helvetica,sans-Serif" font-size="11.00" fill="#000000">CREATED_AT</text>
<polygon fill="none" stroke="#000000" points="293.5,-436.7 293.5,-458.7 385.5,-458.7 385.5,-436.7 293.5,-436.7"/>
<text text-anchor="start" x="296.1023" y="-444.4" font-family="Helvetica,sans-Serif" font-size="11.00" fill="#000000">timestamptz[35,6]</text>
<polygon fill="none" stroke="#000000" points="192.5,-414.7 192.5,-436.7 293.5,-436.7 293.5,-414.7 192.5,-414.7"/>
<text text-anchor="start" x="212.5" y="-421.8" font-family="Helvetica,sans-Serif" font-size="11.00" fill="#000000">UPDATED_AT</text>
<polygon fill="none" stroke="#000000" points="293.5,-414.7 293.5,-436.7 385.5,-436.7 385.5,-414.7 293.5,-414.7"/>
<text text-anchor="start" x="296.1023" y="-422.4" font-family="Helvetica,sans-Serif" font-size="11.00" fill="#000000">timestamptz[35,6]</text>
<polygon fill="#ffffff" stroke="transparent" points="192.5,-395.7 192.5,-414.7 231.5,-414.7 231.5,-395.7 192.5,-395.7"/>
<polygon fill="none" stroke="#000000" points="192.5,-395.7 192.5,-414.7 231.5,-414.7 231.5,-395.7 192.5,-395.7"/>
<text text-anchor="start" x="195.5" y="-401.8" font-family="Helvetica,sans-Serif" font-size="11.00" fill="#000000">&lt; 0</text>
<polygon fill="#ffffff" stroke="transparent" points="231.5,-395.7 231.5,-414.7 293.5,-414.7 293.5,-395.7 231.5,-395.7"/>
<polygon fill="none" stroke="#000000" points="231.5,-395.7 231.5,-414.7 293.5,-414.7 293.5,-395.7 231.5,-395.7"/>
<text text-anchor="start" x="251.9956" y="-401.8" font-family="Helvetica,sans-Serif" font-size="11.00" fill="#000000">90 rows</text>
<polygon fill="#ffffff" stroke="transparent" points="293.5,-395.7 293.5,-414.7 385.5,-414.7 385.5,-395.7 293.5,-395.7"/>
<polygon fill="none" stroke="#000000" points="293.5,-395.7 293.5,-414.7 385.5,-414.7 385.5,-395.7 293.5,-395.7"/>
<text text-anchor="start" x="366.9053" y="-401.8" font-family="Helvetica,sans-Serif" font-size="11.00" fill="#000000">1 &gt;</text>
<polygon fill="none" stroke="#000000" stroke-width="2" points="191,-394.7 191,-548.7 386,-548.7 386,-394.7 191,-394.7"/>
</a>
</g>
</g>
<!-- global_SiteMaster&#45;&gt;global_ibraID -->
<g id="edge10" class="edge">
<title>global_SiteMaster:w&#45;&gt;global_ibraID:e</title>
<path fill="none" stroke="#000000" d="M422.0127,-376.8871C383.7204,-397.7262 445.7726,-513.7 385.5,-513.7"/>
<polygon fill="#000000" stroke="#000000" points="428.6868,-375.4189 437.2735,-377.2159 432.5934,-374.5595 436.5,-373.7 436.5,-373.7 436.5,-373.7 432.5934,-374.5595 435.7265,-370.1841 428.6868,-375.4189 428.6868,-375.4189"/>
<ellipse fill="none" stroke="#000000" cx="425.5616" cy="-376.1065" rx="3.2" ry="3.2"/>
</g>
<!-- global_rivID -->
<g id="node13" class="node">
<title>global_rivID</title>
<g id="a_node13"><a xlink:href="../../tables/global_rivID.html" xlink:title="global_rivID" target="_top">
<polygon fill="#ffffff" stroke="transparent" points="235,-571.2 235,-632.2 342,-632.2 342,-571.2 235,-571.2"/>
<polygon fill="#f5f5f5" stroke="transparent" points="235.5,-608.7 235.5,-631.7 342.5,-631.7 342.5,-608.7 235.5,-608.7"/>
<polygon fill="none" stroke="#000000" points="235.5,-608.7 235.5,-631.7 342.5,-631.7 342.5,-608.7 235.5,-608.7"/>
<text text-anchor="start" x="240.5" y="-617.3" font-family="Helvetica,sans-Serif" font-weight="bold" font-size="11.00" fill="#000000">global_rivID</text>
<text text-anchor="start" x="308.0219" y="-616.8" font-family="Helvetica,sans-Serif" font-size="11.00" fill="#000000">[table]</text>
<polygon fill="none" stroke="#000000" points="235.5,-589.7 235.5,-608.7 342.5,-608.7 342.5,-589.7 235.5,-589.7"/>
<text text-anchor="start" x="238.5" y="-595.8" font-family="Helvetica,sans-Serif" font-size="11.00" fill="#000000">...</text>
<polygon fill="#ffffff" stroke="transparent" points="235.5,-570.7 235.5,-589.7 259.5,-589.7 259.5,-570.7 235.5,-570.7"/>
<polygon fill="none" stroke="#000000" points="235.5,-570.7 235.5,-589.7 259.5,-589.7 259.5,-570.7 235.5,-570.7"/>
<text text-anchor="start" x="238.5" y="-576.8" font-family="Helvetica,sans-Serif" font-size="11.00" fill="#000000"> &#160;</text>
<polygon fill="#ffffff" stroke="transparent" points="259.5,-570.7 259.5,-589.7 315.5,-589.7 315.5,-570.7 259.5,-570.7"/>
<polygon fill="none" stroke="#000000" points="259.5,-570.7 259.5,-589.7 315.5,-589.7 315.5,-570.7 259.5,-570.7"/>
<text text-anchor="start" x="267.8807" y="-576.8" font-family="Helvetica,sans-Serif" font-size="11.00" fill="#000000">219 rows</text>
<polygon fill="#ffffff" stroke="transparent" points="315.5,-570.7 315.5,-589.7 342.5,-589.7 342.5,-570.7 315.5,-570.7"/>
<polygon fill="none" stroke="#000000" points="315.5,-570.7 315.5,-589.7 342.5,-589.7 342.5,-570.7 315.5,-570.7"/>
<text text-anchor="start" x="323.9053" y="-576.8" font-family="Helvetica,sans-Serif" font-size="11.00" fill="#000000">1 &gt;</text>
</a>
</g>
</g>
<!-- global_SiteMaster&#45;&gt;global_rivID -->
<g id="edge12" class="edge">
<title>global_SiteMaster:w&#45;&gt;global_rivID:e</title>
<path fill="none" stroke="#000000" d="M422.0667,-397.3339C371.5864,-410.6797 434.258,-502.7386 395,-560.7 378.847,-584.5487 371.3041,-598.7 342.5,-598.7"/>
<polygon fill="#000000" stroke="#000000" points="428.5508,-396.5999 436.905,-399.2772 432.5254,-396.15 436.5,-395.7 436.5,-395.7 436.5,-395.7 432.5254,-396.15 436.095,-392.1228 428.5508,-396.5999 428.5508,-396.5999"/>
<ellipse fill="none" stroke="#000000" cx="425.3711" cy="-396.9599" rx="3.2" ry="3.2"/>
</g>
<!-- crn_Sample -->
<g id="node3" class="node">
<title>crn_Sample</title>
<g id="a_node3"><a xlink:href="../../tables/crn_Sample.html" xlink:title="crn_Sample" target="_top">
<polygon fill="#ffffff" stroke="transparent" points="637,-494.2 637,-555.2 744,-555.2 744,-494.2 637,-494.2"/>
<polygon fill="#f5f5f5" stroke="transparent" points="637.5,-531.7 637.5,-554.7 744.5,-554.7 744.5,-531.7 637.5,-531.7"/>
<polygon fill="none" stroke="#000000" points="637.5,-531.7 637.5,-554.7 744.5,-554.7 744.5,-531.7 637.5,-531.7"/>
<text text-anchor="start" x="642.5" y="-540.3" font-family="Helvetica,sans-Serif" font-weight="bold" font-size="11.00" fill="#000000">crn_Sample</text>
<text text-anchor="start" x="710.0219" y="-539.8" font-family="Helvetica,sans-Serif" font-size="11.00" fill="#000000">[table]</text>
<polygon fill="none" stroke="#000000" points="637.5,-512.7 637.5,-531.7 744.5,-531.7 744.5,-512.7 637.5,-512.7"/>
<text text-anchor="start" x="640.5" y="-518.8" font-family="Helvetica,sans-Serif" font-size="11.00" fill="#000000">...</text>
<polygon fill="#ffffff" stroke="transparent" points="637.5,-493.7 637.5,-512.7 661.5,-512.7 661.5,-493.7 637.5,-493.7"/>
<polygon fill="none" stroke="#000000" points="637.5,-493.7 637.5,-512.7 661.5,-512.7 661.5,-493.7 637.5,-493.7"/>
<text text-anchor="start" x="640.5" y="-499.8" font-family="Helvetica,sans-Serif" font-size="11.00" fill="#000000">&lt; 3</text>
<polygon fill="#ffffff" stroke="transparent" points="661.5,-493.7 661.5,-512.7 721.5,-512.7 721.5,-493.7 661.5,-493.7"/>
<polygon fill="none" stroke="#000000" points="661.5,-493.7 661.5,-512.7 721.5,-512.7 721.5,-493.7 661.5,-493.7"/>
<text text-anchor="start" x="664.7089" y="-499.8" font-family="Helvetica,sans-Serif" font-size="11.00" fill="#000000">4.588 rows</text>
<polygon fill="#ffffff" stroke="transparent" points="721.5,-493.7 721.5,-512.7 744.5,-512.7 744.5,-493.7 721.5,-493.7"/>
<polygon fill="none" stroke="#000000" points="721.5,-493.7 721.5,-512.7 744.5,-512.7 744.5,-493.7 721.5,-493.7"/>
<text text-anchor="start" x="725.9053" y="-499.8" font-family="Helvetica,sans-Serif" font-size="11.00" fill="#000000">2 &gt;</text>
</a>
</g>
</g>
<!-- crn_Sample&#45;&gt;global_SiteMaster -->
<g id="edge2" class="edge">
<title>crn_Sample:w&#45;&gt;global_SiteMaster:e</title>
<path fill="none" stroke="#000000" d="M623.4755,-517.9636C598.9033,-501.922 616.8375,-439.7 577.5,-439.7"/>
<polygon fill="#000000" stroke="#000000" points="629.7696,-519.6404 636.5732,-525.1787 633.6348,-520.6702 637.5,-521.7 637.5,-521.7 637.5,-521.7 633.6348,-520.6702 638.4268,-518.2213 629.7696,-519.6404 629.7696,-519.6404"/>
<ellipse fill="none" stroke="#000000" cx="626.6775" cy="-518.8166" rx="3.2" ry="3.2"/>
</g>
<!-- expage_Sample -->
<g id="node4" class="node">
<title>expage_Sample</title>
<g id="a_node4"><a xlink:href="../../tables/expage_Sample.html" xlink:title="expage_Sample" target="_top">
<polygon fill="#ffffff" stroke="transparent" points="626,-412.2 626,-473.2 755,-473.2 755,-412.2 626,-412.2"/>
<polygon fill="#f5f5f5" stroke="transparent" points="626.5,-449.7 626.5,-472.7 755.5,-472.7 755.5,-449.7 626.5,-449.7"/>
<polygon fill="none" stroke="#000000" points="626.5,-449.7 626.5,-472.7 755.5,-472.7 755.5,-449.7 626.5,-449.7"/>
<text text-anchor="start" x="631.5" y="-458.3" font-family="Helvetica,sans-Serif" font-weight="bold" font-size="11.00" fill="#000000">expage_Sample</text>
<text text-anchor="start" x="721.0219" y="-457.8" font-family="Helvetica,sans-Serif" font-size="11.00" fill="#000000">[table]</text>
<polygon fill="none" stroke="#000000" points="626.5,-430.7 626.5,-449.7 755.5,-449.7 755.5,-430.7 626.5,-430.7"/>
<text text-anchor="start" x="629.5" y="-436.8" font-family="Helvetica,sans-Serif" font-size="11.00" fill="#000000">...</text>
<polygon fill="#ffffff" stroke="transparent" points="626.5,-411.7 626.5,-430.7 658.5,-430.7 658.5,-411.7 626.5,-411.7"/>
<polygon fill="none" stroke="#000000" points="626.5,-411.7 626.5,-430.7 658.5,-430.7 658.5,-411.7 626.5,-411.7"/>
<text text-anchor="start" x="629.5" y="-417.8" font-family="Helvetica,sans-Serif" font-size="11.00" fill="#000000">&lt; 2</text>
<polygon fill="#ffffff" stroke="transparent" points="658.5,-411.7 658.5,-430.7 728.5,-430.7 728.5,-411.7 658.5,-411.7"/>
<polygon fill="none" stroke="#000000" points="658.5,-411.7 658.5,-430.7 728.5,-430.7 728.5,-411.7 658.5,-411.7"/>
<text text-anchor="start" x="665.594" y="-417.8" font-family="Helvetica,sans-Serif" font-size="11.00" fill="#000000">15.805 rows</text>
<polygon fill="#ffffff" stroke="transparent" points="728.5,-411.7 728.5,-430.7 755.5,-430.7 755.5,-411.7 728.5,-411.7"/>
<polygon fill="none" stroke="#000000" points="728.5,-411.7 728.5,-430.7 755.5,-430.7 755.5,-411.7 728.5,-411.7"/>
<text text-anchor="start" x="736.9053" y="-417.8" font-family="Helvetica,sans-Serif" font-size="11.00" fill="#000000">1 &gt;</text>
</a>
</g>
</g>
<!-- expage_Sample&#45;&gt;global_SiteMaster -->
<g id="edge3" class="edge">
<title>expage_Sample:w&#45;&gt;global_SiteMaster:e</title>
<path fill="none" stroke="#000000" d="M611.9909,-439.7C600.6774,-439.7 593.4931,-439.7 577.5,-439.7"/>
<polygon fill="#000000" stroke="#000000" points="618.5,-439.7001 626.5,-443.3 622.5,-439.7 626.5,-439.7 626.5,-439.7 626.5,-439.7 622.5,-439.7 626.5,-436.1 618.5,-439.7001 618.5,-439.7001"/>
<ellipse fill="none" stroke="#000000" cx="615.3" cy="-439.7001" rx="3.2" ry="3.2"/>
</g>
<!-- fos_Sample -->
<g id="node5" class="node">
<title>fos_Sample</title>
<g id="a_node5"><a xlink:href="../../tables/fos_Sample.html" xlink:title="fos_Sample" target="_top">
<polygon fill="#ffffff" stroke="transparent" points="637.5,-330.2 637.5,-391.2 743.5,-391.2 743.5,-330.2 637.5,-330.2"/>
<polygon fill="#f5f5f5" stroke="transparent" points="637.5,-367.7 637.5,-390.7 743.5,-390.7 743.5,-367.7 637.5,-367.7"/>
<polygon fill="none" stroke="#000000" points="637.5,-367.7 637.5,-390.7 743.5,-390.7 743.5,-367.7 637.5,-367.7"/>
<text text-anchor="start" x="642.5" y="-376.3" font-family="Helvetica,sans-Serif" font-weight="bold" font-size="11.00" fill="#000000">fos_Sample</text>
<text text-anchor="start" x="709.0219" y="-375.8" font-family="Helvetica,sans-Serif" font-size="11.00" fill="#000000">[table]</text>
<polygon fill="none" stroke="#000000" points="637.5,-348.7 637.5,-367.7 743.5,-367.7 743.5,-348.7 637.5,-348.7"/>
<text text-anchor="start" x="640.5" y="-354.8" font-family="Helvetica,sans-Serif" font-size="11.00" fill="#000000">...</text>
<polygon fill="#ffffff" stroke="transparent" points="637.5,-329.7 637.5,-348.7 660.5,-348.7 660.5,-329.7 637.5,-329.7"/>
<polygon fill="none" stroke="#000000" points="637.5,-329.7 637.5,-348.7 660.5,-348.7 660.5,-329.7 637.5,-329.7"/>
<text text-anchor="start" x="640.5" y="-335.8" font-family="Helvetica,sans-Serif" font-size="11.00" fill="#000000">&lt; 1</text>
<polygon fill="#ffffff" stroke="transparent" points="660.5,-329.7 660.5,-348.7 720.5,-348.7 720.5,-329.7 660.5,-329.7"/>
<polygon fill="none" stroke="#000000" points="660.5,-329.7 660.5,-348.7 720.5,-348.7 720.5,-329.7 660.5,-329.7"/>
<text text-anchor="start" x="663.7089" y="-335.8" font-family="Helvetica,sans-Serif" font-size="11.00" fill="#000000">2.235 rows</text>
<polygon fill="#ffffff" stroke="transparent" points="720.5,-329.7 720.5,-348.7 743.5,-348.7 743.5,-329.7 720.5,-329.7"/>
<polygon fill="none" stroke="#000000" points="720.5,-329.7 720.5,-348.7 743.5,-348.7 743.5,-329.7 720.5,-329.7"/>
<text text-anchor="start" x="724.9053" y="-335.8" font-family="Helvetica,sans-Serif" font-size="11.00" fill="#000000">1 &gt;</text>
</a>
</g>
</g>
<!-- fos_Sample&#45;&gt;global_SiteMaster -->
<g id="edge4" class="edge">
<title>fos_Sample:w&#45;&gt;global_SiteMaster:e</title>
<path fill="none" stroke="#000000" d="M623.4755,-361.4364C598.9033,-377.478 616.8375,-439.7 577.5,-439.7"/>
<polygon fill="#000000" stroke="#000000" points="629.7696,-359.7596 638.4268,-361.1787 633.6348,-358.7298 637.5,-357.7 637.5,-357.7 637.5,-357.7 633.6348,-358.7298 636.5732,-354.2213 629.7696,-359.7596 629.7696,-359.7596"/>
<ellipse fill="none" stroke="#000000" cx="626.6775" cy="-360.5834" rx="3.2" ry="3.2"/>
</g>
<!-- global_MetaSite&#45;&gt;global_SiteCode -->
<g id="edge5" class="edge">
<title>global_MetaSite:w&#45;&gt;global_SiteCode:e</title>
<path fill="none" stroke="#000000" d="M209.1513,-678.0556C196.5857,-672.4823 192.4933,-658.7159 182,-642.7 151.6131,-596.3205 196.9475,-524.7 141.5,-524.7"/>
<polygon fill="#000000" stroke="#000000" points="215.6325,-679.25 222.8475,-684.2404 219.5662,-679.975 223.5,-680.7 223.5,-680.7 223.5,-680.7 219.5662,-679.975 224.1525,-677.1596 215.6325,-679.25 215.6325,-679.25"/>
<ellipse fill="none" stroke="#000000" cx="212.4855" cy="-678.67" rx="3.2" ry="3.2"/>
</g>
<!-- sed_Sample -->
<g id="node14" class="node">
<title>sed_Sample</title>
<g id="a_node14"><a xlink:href="../../tables/sed_Sample.html" xlink:title="sed_Sample" target="_top">
<polygon fill="#ffffff" stroke="transparent" points="636,-248.2 636,-309.2 745,-309.2 745,-248.2 636,-248.2"/>
<polygon fill="#f5f5f5" stroke="transparent" points="636.5,-285.7 636.5,-308.7 745.5,-308.7 745.5,-285.7 636.5,-285.7"/>
<polygon fill="none" stroke="#000000" points="636.5,-285.7 636.5,-308.7 745.5,-308.7 745.5,-285.7 636.5,-285.7"/>
<text text-anchor="start" x="641.5" y="-294.3" font-family="Helvetica,sans-Serif" font-weight="bold" font-size="11.00" fill="#000000">sed_Sample</text>
<text text-anchor="start" x="711.0219" y="-293.8" font-family="Helvetica,sans-Serif" font-size="11.00" fill="#000000">[table]</text>
<polygon fill="none" stroke="#000000" points="636.5,-266.7 636.5,-285.7 745.5,-285.7 745.5,-266.7 636.5,-266.7"/>
<text text-anchor="start" x="639.5" y="-272.8" font-family="Helvetica,sans-Serif" font-size="11.00" fill="#000000">...</text>
<polygon fill="#ffffff" stroke="transparent" points="636.5,-247.7 636.5,-266.7 661.5,-266.7 661.5,-247.7 636.5,-247.7"/>
<polygon fill="none" stroke="#000000" points="636.5,-247.7 636.5,-266.7 661.5,-266.7 661.5,-247.7 636.5,-247.7"/>
<text text-anchor="start" x="639.5" y="-253.8" font-family="Helvetica,sans-Serif" font-size="11.00" fill="#000000">&lt; 9</text>
<polygon fill="#ffffff" stroke="transparent" points="661.5,-247.7 661.5,-266.7 722.5,-266.7 722.5,-247.7 661.5,-247.7"/>
<polygon fill="none" stroke="#000000" points="661.5,-247.7 661.5,-266.7 722.5,-266.7 722.5,-247.7 661.5,-247.7"/>
<text text-anchor="start" x="665.7089" y="-253.8" font-family="Helvetica,sans-Serif" font-size="11.00" fill="#000000">3.181 rows</text>
<polygon fill="#ffffff" stroke="transparent" points="722.5,-247.7 722.5,-266.7 745.5,-266.7 745.5,-247.7 722.5,-247.7"/>
<polygon fill="none" stroke="#000000" points="722.5,-247.7 722.5,-266.7 745.5,-266.7 745.5,-247.7 722.5,-247.7"/>
<text text-anchor="start" x="726.9053" y="-253.8" font-family="Helvetica,sans-Serif" font-size="11.00" fill="#000000">2 &gt;</text>
</a>
</g>
</g>
<!-- sed_Sample&#45;&gt;global_SiteMaster -->
<g id="edge14" class="edge">
<title>sed_Sample:w&#45;&gt;global_SiteMaster:e</title>
<path fill="none" stroke="#000000" d="M622.292,-278.1456C571.9964,-298.5467 649.3644,-439.7 577.5,-439.7"/>
<polygon fill="#000000" stroke="#000000" points="628.6159,-277.0571 637.1107,-279.2478 632.558,-276.3786 636.5,-275.7 636.5,-275.7 636.5,-275.7 632.558,-276.3786 635.8893,-272.1522 628.6159,-277.0571 628.6159,-277.0571"/>
<ellipse fill="none" stroke="#000000" cx="625.4623" cy="-277.6" rx="3.2" ry="3.2"/>
</g>
</g>
</svg>
