<?xml version="1.0" encoding="UTF-8" standalone="no"?>
<!DOCTYPE svg PUBLIC "-//W3C//DTD SVG 1.1//EN"
 "http://www.w3.org/Graphics/SVG/1.1/DTD/svg11.dtd">
<!-- Generated by graphviz version 2.40.1 (20161225.0304)
 -->
<!-- Title: twoDegreesRelationshipsDiagram Pages: 1 -->
<svg width="584pt" height="1089pt"
 viewBox="0.00 0.00 584.00 1089.11" xmlns="http://www.w3.org/2000/svg" xmlns:xlink="http://www.w3.org/1999/xlink">
<g id="graph0" class="graph" transform="scale(1 1) rotate(0) translate(4 1085.1059)">
<title>twoDegreesRelationshipsDiagram</title>
<polygon fill="#ffffff" stroke="transparent" points="-4,4 -4,-1085.1059 580,-1085.1059 580,4 -4,4"/>
<text text-anchor="middle" x="72.4936" y="-7.3" font-family="Helvetica,sans-Serif" font-size="11.00" fill="#000000">Generated by SchemaSpy</text>
<!-- c14_calcurve -->
<g id="node1" class="node">
<title>c14_calcurve</title>
<g id="a_node1"><a xlink:href="../../tables/c14_calcurve.html" xlink:title="c14_calcurve" target="_top">
<polygon fill="#ffffff" stroke="transparent" points="232.5,-606.1059 232.5,-667.1059 346.5,-667.1059 346.5,-606.1059 232.5,-606.1059"/>
<polygon fill="#f5f5f5" stroke="transparent" points="232.5,-643.6059 232.5,-666.6059 346.5,-666.6059 346.5,-643.6059 232.5,-643.6059"/>
<polygon fill="none" stroke="#000000" points="232.5,-643.6059 232.5,-666.6059 346.5,-666.6059 346.5,-643.6059 232.5,-643.6059"/>
<text text-anchor="start" x="237.5" y="-652.2059" font-family="Helvetica,sans-Serif" font-weight="bold" font-size="11.00" fill="#000000">c14_calcurve</text>
<text text-anchor="start" x="312.0219" y="-651.7059" font-family="Helvetica,sans-Serif" font-size="11.00" fill="#000000">[table]</text>
<polygon fill="none" stroke="#000000" points="232.5,-624.6059 232.5,-643.6059 346.5,-643.6059 346.5,-624.6059 232.5,-624.6059"/>
<text text-anchor="start" x="235.5" y="-630.7059" font-family="Helvetica,sans-Serif" font-size="11.00" fill="#000000">...</text>
<polygon fill="#ffffff" stroke="transparent" points="232.5,-605.6059 232.5,-624.6059 270.5,-624.6059 270.5,-605.6059 232.5,-605.6059"/>
<polygon fill="none" stroke="#000000" points="232.5,-605.6059 232.5,-624.6059 270.5,-624.6059 270.5,-605.6059 232.5,-605.6059"/>
<text text-anchor="start" x="235.5" y="-611.7059" font-family="Helvetica,sans-Serif" font-size="11.00" fill="#000000">&lt; 1</text>
<polygon fill="#ffffff" stroke="transparent" points="270.5,-605.6059 270.5,-624.6059 316.5,-624.6059 316.5,-605.6059 270.5,-605.6059"/>
<polygon fill="none" stroke="#000000" points="270.5,-605.6059 270.5,-624.6059 316.5,-624.6059 316.5,-605.6059 270.5,-605.6059"/>
<text text-anchor="start" x="281.1105" y="-611.7059" font-family="Helvetica,sans-Serif" font-size="11.00" fill="#000000">0 rows</text>
<polygon fill="#ffffff" stroke="transparent" points="316.5,-605.6059 316.5,-624.6059 346.5,-624.6059 346.5,-605.6059 316.5,-605.6059"/>
<polygon fill="none" stroke="#000000" points="316.5,-605.6059 316.5,-624.6059 346.5,-624.6059 346.5,-605.6059 316.5,-605.6059"/>
<text text-anchor="start" x="327.9053" y="-611.7059" font-family="Helvetica,sans-Serif" font-size="11.00" fill="#000000">1 &gt;</text>
</a>
</g>
</g>
<!-- global_RefCore -->
<g id="node2" class="node">
<title>global_RefCore</title>
<g id="a_node2"><a xlink:href="../../tables/global_RefCore.html" xlink:title="global_RefCore" target="_top">
<polygon fill="#ffffff" stroke="transparent" points="8,-90.1059 8,-151.1059 135,-151.1059 135,-90.1059 8,-90.1059"/>
<polygon fill="#f5f5f5" stroke="transparent" points="8.5,-127.6059 8.5,-150.6059 135.5,-150.6059 135.5,-127.6059 8.5,-127.6059"/>
<polygon fill="none" stroke="#000000" points="8.5,-127.6059 8.5,-150.6059 135.5,-150.6059 135.5,-127.6059 8.5,-127.6059"/>
<text text-anchor="start" x="13.5" y="-136.2059" font-family="Helvetica,sans-Serif" font-weight="bold" font-size="11.00" fill="#000000">global_RefCore</text>
<text text-anchor="start" x="101.0219" y="-135.7059" font-family="Helvetica,sans-Serif" font-size="11.00" fill="#000000">[table]</text>
<polygon fill="none" stroke="#000000" points="8.5,-108.6059 8.5,-127.6059 135.5,-127.6059 135.5,-108.6059 8.5,-108.6059"/>
<text text-anchor="start" x="11.5" y="-114.7059" font-family="Helvetica,sans-Serif" font-size="11.00" fill="#000000">...</text>
<polygon fill="#ffffff" stroke="transparent" points="8.5,-89.6059 8.5,-108.6059 39.5,-108.6059 39.5,-89.6059 8.5,-89.6059"/>
<polygon fill="none" stroke="#000000" points="8.5,-89.6059 8.5,-108.6059 39.5,-108.6059 39.5,-89.6059 8.5,-89.6059"/>
<text text-anchor="start" x="11.5" y="-95.7059" font-family="Helvetica,sans-Serif" font-size="11.00" fill="#000000">&lt; 5</text>
<polygon fill="#ffffff" stroke="transparent" points="39.5,-89.6059 39.5,-108.6059 103.5,-108.6059 103.5,-89.6059 39.5,-89.6059"/>
<polygon fill="none" stroke="#000000" points="39.5,-89.6059 39.5,-108.6059 103.5,-108.6059 103.5,-89.6059 39.5,-89.6059"/>
<text text-anchor="start" x="46.7089" y="-95.7059" font-family="Helvetica,sans-Serif" font-size="11.00" fill="#000000">3.860 rows</text>
<polygon fill="#ffffff" stroke="transparent" points="103.5,-89.6059 103.5,-108.6059 135.5,-108.6059 135.5,-89.6059 103.5,-89.6059"/>
<polygon fill="none" stroke="#000000" points="103.5,-89.6059 103.5,-108.6059 135.5,-108.6059 135.5,-89.6059 103.5,-89.6059"/>
<text text-anchor="start" x="110.7904" y="-95.7059" font-family="Helvetica,sans-Serif" font-size="11.00" fill="#000000">35 &gt;</text>
</a>
</g>
</g>
<!-- c14_calcurve&#45;&gt;global_RefCore -->
<g id="edge1" class="edge">
<title>c14_calcurve:w&#45;&gt;global_RefCore:e</title>
<path fill="none" stroke="#000000" d="M217.9244,-632.4387C198.1782,-628.8666 188.5844,-617.0042 176,-595.6059 148.9797,-549.6609 188.8014,-117.6059 135.5,-117.6059"/>
<polygon fill="#000000" stroke="#000000" points="224.5255,-632.9673 232.2126,-637.1944 228.5128,-633.2866 232.5,-633.6059 232.5,-633.6059 232.5,-633.6059 228.5128,-633.2866 232.7874,-630.0174 224.5255,-632.9673 224.5255,-632.9673"/>
<ellipse fill="none" stroke="#000000" cx="221.3357" cy="-632.7118" rx="3.2" ry="3.2"/>
</g>
<!-- c14_calprogram -->
<g id="node3" class="node">
<title>c14_calprogram</title>
<g id="a_node3"><a xlink:href="../../tables/c14_calprogram.html" xlink:title="c14_calprogram" target="_top">
<polygon fill="#ffffff" stroke="transparent" points="224,-524.1059 224,-585.1059 355,-585.1059 355,-524.1059 224,-524.1059"/>
<polygon fill="#f5f5f5" stroke="transparent" points="224.5,-561.6059 224.5,-584.6059 355.5,-584.6059 355.5,-561.6059 224.5,-561.6059"/>
<polygon fill="none" stroke="#000000" points="224.5,-561.6059 224.5,-584.6059 355.5,-584.6059 355.5,-561.6059 224.5,-561.6059"/>
<text text-anchor="start" x="229.5" y="-570.2059" font-family="Helvetica,sans-Serif" font-weight="bold" font-size="11.00" fill="#000000">c14_calprogram</text>
<text text-anchor="start" x="321.0219" y="-569.7059" font-family="Helvetica,sans-Serif" font-size="11.00" fill="#000000">[table]</text>
<polygon fill="none" stroke="#000000" points="224.5,-542.6059 224.5,-561.6059 355.5,-561.6059 355.5,-542.6059 224.5,-542.6059"/>
<text text-anchor="start" x="227.5" y="-548.7059" font-family="Helvetica,sans-Serif" font-size="11.00" fill="#000000">...</text>
<polygon fill="#ffffff" stroke="transparent" points="224.5,-523.6059 224.5,-542.6059 264.5,-542.6059 264.5,-523.6059 224.5,-523.6059"/>
<polygon fill="none" stroke="#000000" points="224.5,-523.6059 224.5,-542.6059 264.5,-542.6059 264.5,-523.6059 224.5,-523.6059"/>
<text text-anchor="start" x="227.5" y="-529.7059" font-family="Helvetica,sans-Serif" font-size="11.00" fill="#000000">&lt; 2</text>
<polygon fill="#ffffff" stroke="transparent" points="264.5,-523.6059 264.5,-542.6059 324.5,-542.6059 324.5,-523.6059 264.5,-523.6059"/>
<polygon fill="none" stroke="#000000" points="264.5,-523.6059 264.5,-542.6059 324.5,-542.6059 324.5,-523.6059 264.5,-523.6059"/>
<text text-anchor="start" x="276.8807" y="-529.7059" font-family="Helvetica,sans-Serif" font-size="11.00" fill="#000000">195 rows</text>
<polygon fill="#ffffff" stroke="transparent" points="324.5,-523.6059 324.5,-542.6059 355.5,-542.6059 355.5,-523.6059 324.5,-523.6059"/>
<polygon fill="none" stroke="#000000" points="324.5,-523.6059 324.5,-542.6059 355.5,-542.6059 355.5,-523.6059 324.5,-523.6059"/>
<text text-anchor="start" x="336.9053" y="-529.7059" font-family="Helvetica,sans-Serif" font-size="11.00" fill="#000000">2 &gt;</text>
</a>
</g>
</g>
<!-- c14_calprogram&#45;&gt;global_RefCore -->
<g id="edge2" class="edge">
<title>c14_calprogram:w&#45;&gt;global_RefCore:e</title>
<path fill="none" stroke="#000000" d="M210.0178,-549.9043C193.6906,-545.4987 186.5394,-532.7135 176,-513.6059 133.2759,-436.1485 223.959,-117.6059 135.5,-117.6059"/>
<polygon fill="#000000" stroke="#000000" points="216.5547,-550.6723 224.0799,-555.1813 220.5273,-551.1391 224.5,-551.6059 224.5,-551.6059 224.5,-551.6059 220.5273,-551.1391 224.9201,-548.0305 216.5547,-550.6723 216.5547,-550.6723"/>
<ellipse fill="none" stroke="#000000" cx="213.3765" cy="-550.2989" rx="3.2" ry="3.2"/>
</g>
<!-- char_DataCore -->
<g id="node4" class="node">
<title>char_DataCore</title>
<g id="a_node4"><a xlink:href="../../tables/char_DataCore.html" xlink:title="char_DataCore" target="_top">
<polygon fill="#ffffff" stroke="transparent" points="444,-289.1059 444,-702.1059 568,-702.1059 568,-289.1059 444,-289.1059"/>
<polygon fill="#f5f5f5" stroke="transparent" points="444,-678.6059 444,-701.6059 568,-701.6059 568,-678.6059 444,-678.6059"/>
<polygon fill="none" stroke="#000000" points="444,-678.6059 444,-701.6059 568,-701.6059 568,-678.6059 444,-678.6059"/>
<text text-anchor="start" x="449" y="-687.2059" font-family="Helvetica,sans-Serif" font-weight="bold" font-size="11.00" fill="#000000">char_DataCore</text>
<text text-anchor="start" x="533.5219" y="-686.7059" font-family="Helvetica,sans-Serif" font-size="11.00" fill="#000000">[table]</text>
<polygon fill="none" stroke="#000000" points="444,-656.6059 444,-678.6059 568,-678.6059 568,-656.6059 444,-656.6059"/>
<image xlink:href="../../images/primaryKeys.png" width="11px" height="12px" preserveAspectRatio="xMinYMin meet" x="449" y="-673.606"/>
<text text-anchor="start" x="473" y="-663.7059" font-family="Helvetica,sans-Serif" font-size="11.00" fill="#000000">OBSID</text>
<polygon fill="none" stroke="#000000" points="444,-634.6059 444,-656.6059 568,-656.6059 568,-634.6059 444,-634.6059"/>
<image xlink:href="../../images/foreignKeys.png" width="11px" height="12px" preserveAspectRatio="xMinYMin meet" x="449" y="-651.606"/>
<text text-anchor="start" x="473" y="-641.7059" font-family="Helvetica,sans-Serif" font-size="11.00" fill="#000000">SMPID</text>
<polygon fill="none" stroke="#000000" points="444,-612.6059 444,-634.6059 568,-634.6059 568,-612.6059 444,-612.6059"/>
<image xlink:href="../../images/foreignKeys.png" width="11px" height="12px" preserveAspectRatio="xMinYMin meet" x="449" y="-629.606"/>
<text text-anchor="start" x="473" y="-619.7059" font-family="Helvetica,sans-Serif" font-size="11.00" fill="#000000">LAB_ORIGID</text>
<polygon fill="none" stroke="#000000" points="444,-590.6059 444,-612.6059 568,-612.6059 568,-590.6059 444,-590.6059"/>
<image xlink:href="../../images/foreignKeys.png" width="11px" height="12px" preserveAspectRatio="xMinYMin meet" x="449" y="-607.606"/>
<text text-anchor="start" x="473" y="-597.7059" font-family="Helvetica,sans-Serif" font-size="11.00" fill="#000000">WHATAMI</text>
<polygon fill="none" stroke="#000000" points="444,-568.6059 444,-590.6059 568,-590.6059 568,-568.6059 444,-568.6059"/>
<image xlink:href="../../images/foreignKeys.png" width="11px" height="12px" preserveAspectRatio="xMinYMin meet" x="449" y="-585.606"/>
<text text-anchor="start" x="473" y="-575.7059" font-family="Helvetica,sans-Serif" font-size="11.00" fill="#000000">AGETYPEID</text>
<polygon fill="none" stroke="#000000" points="444,-546.6059 444,-568.6059 568,-568.6059 568,-546.6059 444,-546.6059"/>
<image xlink:href="../../images/foreignKeys.png" width="11px" height="12px" preserveAspectRatio="xMinYMin meet" x="449" y="-563.606"/>
<text text-anchor="start" x="473" y="-553.7059" font-family="Helvetica,sans-Serif" font-size="11.00" fill="#000000">METHODID</text>
<polygon fill="none" stroke="#000000" points="444,-524.6059 444,-546.6059 568,-546.6059 568,-524.6059 444,-524.6059"/>
<image xlink:href="../../images/foreignKeys.png" width="11px" height="12px" preserveAspectRatio="xMinYMin meet" x="449" y="-541.606"/>
<text text-anchor="start" x="473" y="-531.7059" font-family="Helvetica,sans-Serif" font-size="11.00" fill="#000000">MATERIA2ID</text>
<polygon fill="none" stroke="#000000" points="444,-502.6059 444,-524.6059 568,-524.6059 568,-502.6059 444,-502.6059"/>
<image xlink:href="../../images/foreignKeys.png" width="11px" height="12px" preserveAspectRatio="xMinYMin meet" x="449" y="-519.606"/>
<text text-anchor="start" x="473" y="-509.7059" font-family="Helvetica,sans-Serif" font-size="11.00" fill="#000000">CALCURVEID</text>
<polygon fill="none" stroke="#000000" points="444,-480.6059 444,-502.6059 568,-502.6059 568,-480.6059 444,-480.6059"/>
<image xlink:href="../../images/foreignKeys.png" width="11px" height="12px" preserveAspectRatio="xMinYMin meet" x="449" y="-497.606"/>
<text text-anchor="start" x="473" y="-487.7059" font-family="Helvetica,sans-Serif" font-size="11.00" fill="#000000">CALPROGID</text>
<polygon fill="none" stroke="#000000" points="444,-458.6059 444,-480.6059 568,-480.6059 568,-458.6059 444,-458.6059"/>
<image xlink:href="../../images/foreignKeys.png" width="11px" height="12px" preserveAspectRatio="xMinYMin meet" x="449" y="-475.606"/>
<text text-anchor="start" x="473" y="-465.7059" font-family="Helvetica,sans-Serif" font-size="11.00" fill="#000000">CHARMTDID</text>
<polygon fill="none" stroke="#000000" points="444,-436.6059 444,-458.6059 568,-458.6059 568,-436.6059 444,-436.6059"/>
<image xlink:href="../../images/foreignKeys.png" width="11px" height="12px" preserveAspectRatio="xMinYMin meet" x="449" y="-453.606"/>
<text text-anchor="start" x="473" y="-443.7059" font-family="Helvetica,sans-Serif" font-size="11.00" fill="#000000">CHARMEASID</text>
<polygon fill="none" stroke="#000000" points="444,-414.6059 444,-436.6059 568,-436.6059 568,-414.6059 444,-414.6059"/>
<image xlink:href="../../images/foreignKeys.png" width="11px" height="12px" preserveAspectRatio="xMinYMin meet" x="449" y="-431.606"/>
<text text-anchor="start" x="473" y="-421.7059" font-family="Helvetica,sans-Serif" font-size="11.00" fill="#000000">CHARSIZEID</text>
<polygon fill="none" stroke="#000000" points="444,-392.6059 444,-414.6059 568,-414.6059 568,-392.6059 444,-392.6059"/>
<image xlink:href="../../images/foreignKeys.png" width="11px" height="12px" preserveAspectRatio="xMinYMin meet" x="449" y="-409.606"/>
<text text-anchor="start" x="473" y="-399.7059" font-family="Helvetica,sans-Serif" font-size="11.00" fill="#000000">DATASRCID</text>
<polygon fill="none" stroke="#000000" points="444,-370.6059 444,-392.6059 568,-392.6059 568,-370.6059 444,-370.6059"/>
<image xlink:href="../../images/foreignKeys.png" width="11px" height="12px" preserveAspectRatio="xMinYMin meet" x="449" y="-387.606"/>
<text text-anchor="start" x="473" y="-377.7059" font-family="Helvetica,sans-Serif" font-size="11.00" fill="#000000">REF1</text>
<polygon fill="none" stroke="#000000" points="444,-348.6059 444,-370.6059 568,-370.6059 568,-348.6059 444,-348.6059"/>
<image xlink:href="../../images/foreignKeys.png" width="11px" height="12px" preserveAspectRatio="xMinYMin meet" x="449" y="-365.606"/>
<text text-anchor="start" x="473" y="-355.7059" font-family="Helvetica,sans-Serif" font-size="11.00" fill="#000000">REF2</text>
<polygon fill="none" stroke="#000000" points="444,-326.6059 444,-348.6059 568,-348.6059 568,-326.6059 444,-326.6059"/>
<image xlink:href="../../images/foreignKeys.png" width="11px" height="12px" preserveAspectRatio="xMinYMin meet" x="449" y="-343.606"/>
<text text-anchor="start" x="473" y="-333.7059" font-family="Helvetica,sans-Serif" font-size="11.00" fill="#000000">REF3</text>
<polygon fill="none" stroke="#000000" points="444,-307.6059 444,-326.6059 568,-326.6059 568,-307.6059 444,-307.6059"/>
<text text-anchor="start" x="447" y="-313.7059" font-family="Helvetica,sans-Serif" font-size="11.00" fill="#000000">...</text>
<polygon fill="#ffffff" stroke="transparent" points="444,-288.6059 444,-307.6059 481,-307.6059 481,-288.6059 444,-288.6059"/>
<polygon fill="none" stroke="#000000" points="444,-288.6059 444,-307.6059 481,-307.6059 481,-288.6059 444,-288.6059"/>
<text text-anchor="start" x="447" y="-294.7059" font-family="Helvetica,sans-Serif" font-size="11.00" fill="#000000">&lt; 15</text>
<polygon fill="#ffffff" stroke="transparent" points="481,-288.6059 481,-307.6059 551,-307.6059 551,-288.6059 481,-288.6059"/>
<polygon fill="none" stroke="#000000" points="481,-288.6059 481,-307.6059 551,-307.6059 551,-288.6059 481,-288.6059"/>
<text text-anchor="start" x="488.094" y="-294.7059" font-family="Helvetica,sans-Serif" font-size="11.00" fill="#000000">48.234 rows</text>
<polygon fill="#ffffff" stroke="transparent" points="551,-288.6059 551,-307.6059 568,-307.6059 568,-288.6059 551,-288.6059"/>
<polygon fill="none" stroke="#000000" points="551,-288.6059 551,-307.6059 568,-307.6059 568,-288.6059 551,-288.6059"/>
<text text-anchor="start" x="558.8862" y="-294.7059" font-family="Helvetica,sans-Serif" font-size="11.00" fill="#000000"> &#160;</text>
</a>
</g>
</g>
<!-- char_DataCore&#45;&gt;c14_calcurve -->
<g id="edge4" class="edge">
<title>char_DataCore:w&#45;&gt;c14_calcurve:e</title>
<path fill="none" stroke="#000000" d="M429.9146,-516.7673C409.9855,-528.4066 425.9101,-569.5469 403,-595.6059 383.0186,-618.3336 376.7622,-633.6059 346.5,-633.6059"/>
<polygon fill="#000000" stroke="#000000" points="436.1942,-515.3579 444.7884,-517.1185 440.0971,-514.4819 444,-513.6059 444,-513.6059 444,-513.6059 440.0971,-514.4819 443.2116,-510.0933 436.1942,-515.3579 436.1942,-515.3579"/>
<ellipse fill="none" stroke="#000000" cx="433.0719" cy="-516.0587" rx="3.2" ry="3.2"/>
</g>
<!-- char_DataCore&#45;&gt;global_RefCore -->
<g id="edge13" class="edge">
<title>char_DataCore:w&#45;&gt;global_RefCore:e</title>
<path fill="none" stroke="#000000" d="M430.5567,-375.8885C397.936,-341.7805 440.8458,-165.4929 403,-131.6059 358.6535,-91.8981 195.0258,-117.6059 135.5,-117.6059"/>
<polygon fill="#000000" stroke="#000000" points="436.6381,-378.4749 442.591,-384.9187 440.3191,-380.0404 444,-381.6059 444,-381.6059 444,-381.6059 440.3191,-380.0404 445.409,-378.293 436.6381,-378.4749 436.6381,-378.4749"/>
<ellipse fill="none" stroke="#000000" cx="433.6934" cy="-377.2225" rx="3.2" ry="3.2"/>
</g>
<!-- char_DataCore&#45;&gt;global_RefCore -->
<g id="edge14" class="edge">
<title>char_DataCore:w&#45;&gt;global_RefCore:e</title>
<path fill="none" stroke="#000000" d="M430.4368,-353.7917C397.653,-319.11 442.1397,-139.9134 403,-106.6059 326.1664,-41.2212 276.0032,-93.2668 176,-106.6059 157.5116,-109.072 154.1521,-117.6059 135.5,-117.6059"/>
<polygon fill="#000000" stroke="#000000" points="436.6471,-356.4539 442.5816,-362.9147 440.3236,-358.0299 444,-359.6059 444,-359.6059 444,-359.6059 440.3236,-358.0299 445.4184,-356.2971 436.6471,-356.4539 436.6471,-356.4539"/>
<ellipse fill="none" stroke="#000000" cx="433.706" cy="-355.193" rx="3.2" ry="3.2"/>
</g>
<!-- char_DataCore&#45;&gt;global_RefCore -->
<g id="edge15" class="edge">
<title>char_DataCore:w&#45;&gt;global_RefCore:e</title>
<path fill="none" stroke="#000000" d="M430.3972,-332.024C395.7282,-297.1418 443.7192,-109.4691 403,-74.6059 326.3632,-8.9906 268.621,-34.6068 176,-74.6059 151.8982,-85.0144 161.7533,-117.6059 135.5,-117.6059"/>
<polygon fill="#000000" stroke="#000000" points="436.5989,-334.5688 442.6333,-340.9364 440.2994,-336.0874 444,-337.6059 444,-337.6059 444,-337.6059 440.2994,-336.0874 445.3667,-334.2754 436.5989,-334.5688 436.5989,-334.5688"/>
<ellipse fill="none" stroke="#000000" cx="433.6384" cy="-333.354" rx="3.2" ry="3.2"/>
</g>
<!-- char_DataCore&#45;&gt;c14_calprogram -->
<g id="edge5" class="edge">
<title>char_DataCore:w&#45;&gt;c14_calprogram:e</title>
<path fill="none" stroke="#000000" d="M429.3468,-493.8847C397.27,-504.8444 397.4519,-551.6059 355.5,-551.6059"/>
<polygon fill="#000000" stroke="#000000" points="436.095,-492.8353 444.5532,-495.1631 440.0475,-492.2206 444,-491.6059 444,-491.6059 444,-491.6059 440.0475,-492.2206 443.4468,-488.0486 436.095,-492.8353 436.095,-492.8353"/>
<ellipse fill="none" stroke="#000000" cx="432.933" cy="-493.327" rx="3.2" ry="3.2"/>
</g>
<!-- cabah_agetypeID -->
<g id="node5" class="node">
<title>cabah_agetypeID</title>
<g id="a_node5"><a xlink:href="../../tables/cabah_agetypeID.html" xlink:title="cabah_agetypeID" target="_top">
<polygon fill="#ffffff" stroke="transparent" points="221,-852.1059 221,-913.1059 358,-913.1059 358,-852.1059 221,-852.1059"/>
<polygon fill="#f5f5f5" stroke="transparent" points="221.5,-889.6059 221.5,-912.6059 358.5,-912.6059 358.5,-889.6059 221.5,-889.6059"/>
<polygon fill="none" stroke="#000000" points="221.5,-889.6059 221.5,-912.6059 358.5,-912.6059 358.5,-889.6059 221.5,-889.6059"/>
<text text-anchor="start" x="226.5" y="-898.2059" font-family="Helvetica,sans-Serif" font-weight="bold" font-size="11.00" fill="#000000">cabah_agetypeID</text>
<text text-anchor="start" x="324.0219" y="-897.7059" font-family="Helvetica,sans-Serif" font-size="11.00" fill="#000000">[table]</text>
<polygon fill="none" stroke="#000000" points="221.5,-870.6059 221.5,-889.6059 358.5,-889.6059 358.5,-870.6059 221.5,-870.6059"/>
<text text-anchor="start" x="224.5" y="-876.7059" font-family="Helvetica,sans-Serif" font-size="11.00" fill="#000000">...</text>
<polygon fill="#ffffff" stroke="transparent" points="221.5,-851.6059 221.5,-870.6059 263.5,-870.6059 263.5,-851.6059 221.5,-851.6059"/>
<polygon fill="none" stroke="#000000" points="221.5,-851.6059 221.5,-870.6059 263.5,-870.6059 263.5,-851.6059 221.5,-851.6059"/>
<text text-anchor="start" x="224.5" y="-857.7059" font-family="Helvetica,sans-Serif" font-size="11.00" fill="#000000"> &#160;</text>
<polygon fill="#ffffff" stroke="transparent" points="263.5,-851.6059 263.5,-870.6059 322.5,-870.6059 322.5,-851.6059 263.5,-851.6059"/>
<polygon fill="none" stroke="#000000" points="263.5,-851.6059 263.5,-870.6059 322.5,-870.6059 322.5,-851.6059 263.5,-851.6059"/>
<text text-anchor="start" x="280.9956" y="-857.7059" font-family="Helvetica,sans-Serif" font-size="11.00" fill="#000000">11 rows</text>
<polygon fill="#ffffff" stroke="transparent" points="322.5,-851.6059 322.5,-870.6059 358.5,-870.6059 358.5,-851.6059 322.5,-851.6059"/>
<polygon fill="none" stroke="#000000" points="322.5,-851.6059 322.5,-870.6059 358.5,-870.6059 358.5,-851.6059 322.5,-851.6059"/>
<text text-anchor="start" x="339.9053" y="-857.7059" font-family="Helvetica,sans-Serif" font-size="11.00" fill="#000000">1 &gt;</text>
</a>
</g>
</g>
<!-- char_DataCore&#45;&gt;cabah_agetypeID -->
<g id="edge3" class="edge">
<title>char_DataCore:w&#45;&gt;cabah_agetypeID:e</title>
<path fill="none" stroke="#000000" d="M430.0612,-584.8531C393.1588,-617.687 429.0542,-794.9863 403,-841.6059 390.3122,-864.3086 384.5076,-879.6059 358.5,-879.6059"/>
<polygon fill="#000000" stroke="#000000" points="436.5129,-582.4244 445.2683,-582.9751 440.2565,-581.0151 444,-579.6059 444,-579.6059 444,-579.6059 440.2565,-581.0151 442.7317,-576.2367 436.5129,-582.4244 436.5129,-582.4244"/>
<ellipse fill="none" stroke="#000000" cx="433.5181" cy="-583.5518" rx="3.2" ry="3.2"/>
</g>
<!-- global_varunitID -->
<g id="node6" class="node">
<title>global_varunitID</title>
<g id="a_node6"><a xlink:href="../../tables/global_varunitID.html" xlink:title="global_varunitID" target="_top">
<polygon fill="#ffffff" stroke="transparent" points="184,-224.6059 184,-402.6059 395,-402.6059 395,-224.6059 184,-224.6059"/>
<polygon fill="#f5f5f5" stroke="transparent" points="186.5,-377.6059 186.5,-400.6059 393.5,-400.6059 393.5,-377.6059 186.5,-377.6059"/>
<polygon fill="none" stroke="#000000" points="186.5,-377.6059 186.5,-400.6059 393.5,-400.6059 393.5,-377.6059 186.5,-377.6059"/>
<text text-anchor="start" x="191.5" y="-386.2059" font-family="Helvetica,sans-Serif" font-weight="bold" font-size="11.00" fill="#000000">global_varunitID</text>
<text text-anchor="start" x="358.5437" y="-385.7059" font-family="Helvetica,sans-Serif" font-size="11.00" fill="#000000">[table]</text>
<polygon fill="none" stroke="#000000" points="186.5,-355.6059 186.5,-377.6059 301.5,-377.6059 301.5,-355.6059 186.5,-355.6059"/>
<image xlink:href="../../images/primaryKeys.png" width="11px" height="12px" preserveAspectRatio="xMinYMin meet" x="191.5" y="-372.606"/>
<text text-anchor="start" x="206.5" y="-362.7059" font-family="Helvetica,sans-Serif" font-size="11.00" fill="#000000">V_UNITID</text>
<polygon fill="none" stroke="#000000" points="301.5,-355.6059 301.5,-377.6059 393.5,-377.6059 393.5,-355.6059 301.5,-355.6059"/>
<text text-anchor="start" x="304.5" y="-363.3059" font-family="Helvetica,sans-Serif" font-size="11.00" fill="#000000">serial[10]</text>
<polygon fill="#ffffff" stroke="transparent" points="186.5,-333.6059 186.5,-355.6059 301.5,-355.6059 301.5,-333.6059 186.5,-333.6059"/>
<polygon fill="none" stroke="#000000" points="186.5,-333.6059 186.5,-355.6059 301.5,-355.6059 301.5,-333.6059 186.5,-333.6059"/>
<text text-anchor="start" x="206.5" y="-340.7059" font-family="Helvetica,sans-Serif" font-size="11.00" fill="#000000">V_UNITABBR</text>
<polygon fill="none" stroke="#000000" points="301.5,-333.6059 301.5,-355.6059 393.5,-355.6059 393.5,-333.6059 301.5,-333.6059"/>
<text text-anchor="start" x="304.5" y="-341.3059" font-family="Helvetica,sans-Serif" font-size="11.00" fill="#000000">text[2147483647]</text>
<polygon fill="#ffffff" stroke="transparent" points="186.5,-311.6059 186.5,-333.6059 301.5,-333.6059 301.5,-311.6059 186.5,-311.6059"/>
<polygon fill="none" stroke="#000000" points="186.5,-311.6059 186.5,-333.6059 301.5,-333.6059 301.5,-311.6059 186.5,-311.6059"/>
<text text-anchor="start" x="206.5" y="-318.7059" font-family="Helvetica,sans-Serif" font-size="11.00" fill="#000000">V_UNITNAME</text>
<polygon fill="none" stroke="#000000" points="301.5,-311.6059 301.5,-333.6059 393.5,-333.6059 393.5,-311.6059 301.5,-311.6059"/>
<text text-anchor="start" x="304.5" y="-319.3059" font-family="Helvetica,sans-Serif" font-size="11.00" fill="#000000">text[2147483647]</text>
<polygon fill="none" stroke="#000000" points="186.5,-289.6059 186.5,-311.6059 301.5,-311.6059 301.5,-289.6059 186.5,-289.6059"/>
<image xlink:href="../../images/foreignKeys.png" width="11px" height="12px" preserveAspectRatio="xMinYMin meet" x="191.5" y="-306.606"/>
<text text-anchor="start" x="206.5" y="-296.7059" font-family="Helvetica,sans-Serif" font-size="11.00" fill="#000000">PARENTID</text>
<polygon fill="none" stroke="#000000" points="301.5,-289.6059 301.5,-311.6059 393.5,-311.6059 393.5,-289.6059 301.5,-289.6059"/>
<text text-anchor="start" x="304.5" y="-297.3059" font-family="Helvetica,sans-Serif" font-size="11.00" fill="#000000">int2[5]</text>
<polygon fill="none" stroke="#000000" points="186.5,-267.6059 186.5,-289.6059 301.5,-289.6059 301.5,-267.6059 186.5,-267.6059"/>
<text text-anchor="start" x="206.5" y="-274.7059" font-family="Helvetica,sans-Serif" font-size="11.00" fill="#000000">CREATED_AT</text>
<polygon fill="none" stroke="#000000" points="301.5,-267.6059 301.5,-289.6059 393.5,-289.6059 393.5,-267.6059 301.5,-267.6059"/>
<text text-anchor="start" x="304.1023" y="-275.3059" font-family="Helvetica,sans-Serif" font-size="11.00" fill="#000000">timestamptz[35,6]</text>
<polygon fill="none" stroke="#000000" points="186.5,-245.6059 186.5,-267.6059 301.5,-267.6059 301.5,-245.6059 186.5,-245.6059"/>
<text text-anchor="start" x="206.5" y="-252.7059" font-family="Helvetica,sans-Serif" font-size="11.00" fill="#000000">UPDATED_AT</text>
<polygon fill="none" stroke="#000000" points="301.5,-245.6059 301.5,-267.6059 393.5,-267.6059 393.5,-245.6059 301.5,-245.6059"/>
<text text-anchor="start" x="304.1023" y="-253.3059" font-family="Helvetica,sans-Serif" font-size="11.00" fill="#000000">timestamptz[35,6]</text>
<polygon fill="#ffffff" stroke="transparent" points="186.5,-226.6059 186.5,-245.6059 229.5,-245.6059 229.5,-226.6059 186.5,-226.6059"/>
<polygon fill="none" stroke="#000000" points="186.5,-226.6059 186.5,-245.6059 229.5,-245.6059 229.5,-226.6059 186.5,-226.6059"/>
<text text-anchor="start" x="189.5" y="-232.7059" font-family="Helvetica,sans-Serif" font-size="11.00" fill="#000000">&lt; 1</text>
<polygon fill="#ffffff" stroke="transparent" points="229.5,-226.6059 229.5,-245.6059 301.5,-245.6059 301.5,-226.6059 229.5,-226.6059"/>
<polygon fill="none" stroke="#000000" points="229.5,-226.6059 229.5,-245.6059 301.5,-245.6059 301.5,-226.6059 229.5,-226.6059"/>
<text text-anchor="start" x="253.8807" y="-232.7059" font-family="Helvetica,sans-Serif" font-size="11.00" fill="#000000">192 rows</text>
<polygon fill="#ffffff" stroke="transparent" points="301.5,-226.6059 301.5,-245.6059 393.5,-245.6059 393.5,-226.6059 301.5,-226.6059"/>
<polygon fill="none" stroke="#000000" points="301.5,-226.6059 301.5,-245.6059 393.5,-245.6059 393.5,-226.6059 301.5,-226.6059"/>
<text text-anchor="start" x="374.9053" y="-232.7059" font-family="Helvetica,sans-Serif" font-size="11.00" fill="#000000">4 &gt;</text>
<polygon fill="none" stroke="#000000" stroke-width="2" points="185,-225.6059 185,-401.6059 394,-401.6059 394,-225.6059 185,-225.6059"/>
</a>
</g>
</g>
<!-- char_DataCore&#45;&gt;global_varunitID -->
<g id="edge6" class="edge">
<title>char_DataCore:w&#45;&gt;global_varunitID:e</title>
<path fill="none" stroke="#000000" d="M430.2301,-443.251C409.7184,-426.4264 429.9577,-366.6059 393.5,-366.6059"/>
<polygon fill="#000000" stroke="#000000" points="436.3724,-445.1935 442.9144,-451.0383 440.1862,-446.3997 444,-447.6059 444,-447.6059 444,-447.6059 440.1862,-446.3997 445.0856,-444.1735 436.3724,-445.1935 436.3724,-445.1935"/>
<ellipse fill="none" stroke="#000000" cx="433.3213" cy="-444.2286" rx="3.2" ry="3.2"/>
</g>
<!-- char_DataCore&#45;&gt;global_varunitID -->
<g id="edge8" class="edge">
<title>char_DataCore:w&#45;&gt;global_varunitID:e</title>
<path fill="none" stroke="#000000" d="M429.9165,-420.5756C414.4311,-406.3077 421.814,-366.6059 393.5,-366.6059"/>
<polygon fill="#000000" stroke="#000000" points="436.4661,-422.9149 442.7891,-428.9961 440.2331,-424.2604 444,-425.6059 444,-425.6059 444,-425.6059 440.2331,-424.2604 445.2109,-422.2157 436.4661,-422.9149 436.4661,-422.9149"/>
<ellipse fill="none" stroke="#000000" cx="433.4526" cy="-421.8385" rx="3.2" ry="3.2"/>
</g>
<!-- char_DataCore&#45;&gt;global_varunitID -->
<g id="edge17" class="edge">
<title>char_DataCore:w&#45;&gt;global_varunitID:e</title>
<path fill="none" stroke="#000000" d="M429.2726,-599.7143C353.6284,-577.4742 494.6953,-366.6059 393.5,-366.6059"/>
<polygon fill="#000000" stroke="#000000" points="436.0652,-600.5867 443.5414,-605.1766 440.0326,-601.0963 444,-601.6059 444,-601.6059 444,-601.6059 440.0326,-601.0963 444.4586,-598.0352 436.0652,-600.5867 436.0652,-600.5867"/>
<ellipse fill="none" stroke="#000000" cx="432.8913" cy="-600.179" rx="3.2" ry="3.2"/>
</g>
<!-- cabah_charmethodID -->
<g id="node7" class="node">
<title>cabah_charmethodID</title>
<g id="a_node7"><a xlink:href="../../tables/cabah_charmethodID.html" xlink:title="cabah_charmethodID" target="_top">
<polygon fill="#ffffff" stroke="transparent" points="209,-442.1059 209,-503.1059 370,-503.1059 370,-442.1059 209,-442.1059"/>
<polygon fill="#f5f5f5" stroke="transparent" points="209.5,-479.6059 209.5,-502.6059 370.5,-502.6059 370.5,-479.6059 209.5,-479.6059"/>
<polygon fill="none" stroke="#000000" points="209.5,-479.6059 209.5,-502.6059 370.5,-502.6059 370.5,-479.6059 209.5,-479.6059"/>
<text text-anchor="start" x="214.5" y="-488.2059" font-family="Helvetica,sans-Serif" font-weight="bold" font-size="11.00" fill="#000000">cabah_charmethodID</text>
<text text-anchor="start" x="336.0219" y="-487.7059" font-family="Helvetica,sans-Serif" font-size="11.00" fill="#000000">[table]</text>
<polygon fill="none" stroke="#000000" points="209.5,-460.6059 209.5,-479.6059 370.5,-479.6059 370.5,-460.6059 209.5,-460.6059"/>
<text text-anchor="start" x="212.5" y="-466.7059" font-family="Helvetica,sans-Serif" font-size="11.00" fill="#000000">...</text>
<polygon fill="#ffffff" stroke="transparent" points="209.5,-441.6059 209.5,-460.6059 263.5,-460.6059 263.5,-441.6059 209.5,-441.6059"/>
<polygon fill="none" stroke="#000000" points="209.5,-441.6059 209.5,-460.6059 263.5,-460.6059 263.5,-441.6059 209.5,-441.6059"/>
<text text-anchor="start" x="212.5" y="-447.7059" font-family="Helvetica,sans-Serif" font-size="11.00" fill="#000000"> &#160;</text>
<polygon fill="#ffffff" stroke="transparent" points="263.5,-441.6059 263.5,-460.6059 328.5,-460.6059 328.5,-441.6059 263.5,-441.6059"/>
<polygon fill="none" stroke="#000000" points="263.5,-441.6059 263.5,-460.6059 328.5,-460.6059 328.5,-441.6059 263.5,-441.6059"/>
<text text-anchor="start" x="286.9956" y="-447.7059" font-family="Helvetica,sans-Serif" font-size="11.00" fill="#000000">12 rows</text>
<polygon fill="#ffffff" stroke="transparent" points="328.5,-441.6059 328.5,-460.6059 370.5,-460.6059 370.5,-441.6059 328.5,-441.6059"/>
<polygon fill="none" stroke="#000000" points="328.5,-441.6059 328.5,-460.6059 370.5,-460.6059 370.5,-441.6059 328.5,-441.6059"/>
<text text-anchor="start" x="351.9053" y="-447.7059" font-family="Helvetica,sans-Serif" font-size="11.00" fill="#000000">1 &gt;</text>
</a>
</g>
</g>
<!-- char_DataCore&#45;&gt;cabah_charmethodID -->
<g id="edge7" class="edge">
<title>char_DataCore:w&#45;&gt;cabah_charmethodID:e</title>
<path fill="none" stroke="#000000" d="M429.3805,-469.6059C407.8986,-469.6059 397.6797,-469.6059 370.5,-469.6059"/>
<polygon fill="#000000" stroke="#000000" points="436,-469.6059 444,-473.2059 440,-469.6059 444,-469.6059 444,-469.6059 444,-469.6059 440,-469.6059 444,-466.0059 436,-469.6059 436,-469.6059"/>
<ellipse fill="none" stroke="#000000" cx="432.8" cy="-469.606" rx="3.2" ry="3.2"/>
</g>
<!-- cabah_datasourceID -->
<g id="node8" class="node">
<title>cabah_datasourceID</title>
<g id="a_node8"><a xlink:href="../../tables/cabah_datasourceID.html" xlink:title="cabah_datasourceID" target="_top">
<polygon fill="#ffffff" stroke="transparent" points="211.5,-142.1059 211.5,-203.1059 367.5,-203.1059 367.5,-142.1059 211.5,-142.1059"/>
<polygon fill="#f5f5f5" stroke="transparent" points="211.5,-179.6059 211.5,-202.6059 367.5,-202.6059 367.5,-179.6059 211.5,-179.6059"/>
<polygon fill="none" stroke="#000000" points="211.5,-179.6059 211.5,-202.6059 367.5,-202.6059 367.5,-179.6059 211.5,-179.6059"/>
<text text-anchor="start" x="216.5" y="-188.2059" font-family="Helvetica,sans-Serif" font-weight="bold" font-size="11.00" fill="#000000">cabah_datasourceID</text>
<text text-anchor="start" x="333.0219" y="-187.7059" font-family="Helvetica,sans-Serif" font-size="11.00" fill="#000000">[table]</text>
<polygon fill="none" stroke="#000000" points="211.5,-160.6059 211.5,-179.6059 367.5,-179.6059 367.5,-160.6059 211.5,-160.6059"/>
<text text-anchor="start" x="214.5" y="-166.7059" font-family="Helvetica,sans-Serif" font-size="11.00" fill="#000000">...</text>
<polygon fill="#ffffff" stroke="transparent" points="211.5,-141.6059 211.5,-160.6059 262.5,-160.6059 262.5,-141.6059 211.5,-141.6059"/>
<polygon fill="none" stroke="#000000" points="211.5,-141.6059 211.5,-160.6059 262.5,-160.6059 262.5,-141.6059 211.5,-141.6059"/>
<text text-anchor="start" x="214.5" y="-147.7059" font-family="Helvetica,sans-Serif" font-size="11.00" fill="#000000"> &#160;</text>
<polygon fill="#ffffff" stroke="transparent" points="262.5,-141.6059 262.5,-160.6059 326.5,-160.6059 326.5,-141.6059 262.5,-141.6059"/>
<polygon fill="none" stroke="#000000" points="262.5,-141.6059 262.5,-160.6059 326.5,-160.6059 326.5,-141.6059 262.5,-141.6059"/>
<text text-anchor="start" x="284.9956" y="-147.7059" font-family="Helvetica,sans-Serif" font-size="11.00" fill="#000000">10 rows</text>
<polygon fill="#ffffff" stroke="transparent" points="326.5,-141.6059 326.5,-160.6059 367.5,-160.6059 367.5,-141.6059 326.5,-141.6059"/>
<polygon fill="none" stroke="#000000" points="326.5,-141.6059 326.5,-160.6059 367.5,-160.6059 367.5,-141.6059 326.5,-141.6059"/>
<text text-anchor="start" x="348.9053" y="-147.7059" font-family="Helvetica,sans-Serif" font-size="11.00" fill="#000000">2 &gt;</text>
</a>
</g>
</g>
<!-- char_DataCore&#45;&gt;cabah_datasourceID -->
<g id="edge9" class="edge">
<title>char_DataCore:w&#45;&gt;cabah_datasourceID:e</title>
<path fill="none" stroke="#000000" d="M430.9405,-397.4292C405.2688,-368.6724 419.3659,-247.8606 403,-213.6059 392.1679,-190.9338 392.6268,-169.6059 367.5,-169.6059"/>
<polygon fill="#000000" stroke="#000000" points="436.7681,-400.1854 442.4608,-406.8603 440.384,-401.8957 444,-403.6059 444,-403.6059 444,-403.6059 440.384,-401.8957 445.5392,-400.3515 436.7681,-400.1854 436.7681,-400.1854"/>
<ellipse fill="none" stroke="#000000" cx="433.8753" cy="-398.8172" rx="3.2" ry="3.2"/>
</g>
<!-- cabah_LabCodes -->
<g id="node9" class="node">
<title>cabah_LabCodes</title>
<g id="a_node9"><a xlink:href="../../tables/cabah_LabCodes.html" xlink:title="cabah_LabCodes" target="_top">
<polygon fill="#ffffff" stroke="transparent" points="220.5,-934.1059 220.5,-995.1059 358.5,-995.1059 358.5,-934.1059 220.5,-934.1059"/>
<polygon fill="#f5f5f5" stroke="transparent" points="220.5,-971.6059 220.5,-994.6059 358.5,-994.6059 358.5,-971.6059 220.5,-971.6059"/>
<polygon fill="none" stroke="#000000" points="220.5,-971.6059 220.5,-994.6059 358.5,-994.6059 358.5,-971.6059 220.5,-971.6059"/>
<text text-anchor="start" x="225.5" y="-980.2059" font-family="Helvetica,sans-Serif" font-weight="bold" font-size="11.00" fill="#000000">cabah_LabCodes</text>
<text text-anchor="start" x="324.0219" y="-979.7059" font-family="Helvetica,sans-Serif" font-size="11.00" fill="#000000">[table]</text>
<polygon fill="none" stroke="#000000" points="220.5,-952.6059 220.5,-971.6059 358.5,-971.6059 358.5,-952.6059 220.5,-952.6059"/>
<text text-anchor="start" x="223.5" y="-958.7059" font-family="Helvetica,sans-Serif" font-size="11.00" fill="#000000">...</text>
<polygon fill="#ffffff" stroke="transparent" points="220.5,-933.6059 220.5,-952.6059 259.5,-952.6059 259.5,-933.6059 220.5,-933.6059"/>
<polygon fill="none" stroke="#000000" points="220.5,-933.6059 220.5,-952.6059 259.5,-952.6059 259.5,-933.6059 220.5,-933.6059"/>
<text text-anchor="start" x="223.5" y="-939.7059" font-family="Helvetica,sans-Serif" font-size="11.00" fill="#000000"> &#160;</text>
<polygon fill="#ffffff" stroke="transparent" points="259.5,-933.6059 259.5,-952.6059 323.5,-952.6059 323.5,-933.6059 259.5,-933.6059"/>
<polygon fill="none" stroke="#000000" points="259.5,-933.6059 259.5,-952.6059 323.5,-952.6059 323.5,-933.6059 259.5,-933.6059"/>
<text text-anchor="start" x="275.8807" y="-939.7059" font-family="Helvetica,sans-Serif" font-size="11.00" fill="#000000">352 rows</text>
<polygon fill="#ffffff" stroke="transparent" points="323.5,-933.6059 323.5,-952.6059 358.5,-952.6059 358.5,-933.6059 323.5,-933.6059"/>
<polygon fill="none" stroke="#000000" points="323.5,-933.6059 323.5,-952.6059 358.5,-952.6059 358.5,-933.6059 323.5,-933.6059"/>
<text text-anchor="start" x="339.9053" y="-939.7059" font-family="Helvetica,sans-Serif" font-size="11.00" fill="#000000">7 &gt;</text>
</a>
</g>
</g>
<!-- char_DataCore&#45;&gt;cabah_LabCodes -->
<g id="edge10" class="edge">
<title>char_DataCore:w&#45;&gt;cabah_LabCodes:e</title>
<path fill="none" stroke="#000000" d="M430.1449,-628.024C385.5071,-661.0288 432.6715,-869.2829 403,-923.6059 390.533,-946.4306 384.5076,-961.6059 358.5,-961.6059"/>
<polygon fill="#000000" stroke="#000000" points="436.3781,-626.0364 445.0937,-627.0357 440.1891,-624.8211 444,-623.6059 444,-623.6059 444,-623.6059 440.1891,-624.8211 442.9063,-620.176 436.3781,-626.0364 436.3781,-626.0364"/>
<ellipse fill="none" stroke="#000000" cx="433.3294" cy="-627.0086" rx="3.2" ry="3.2"/>
</g>
<!-- c14_materia2ID -->
<g id="node10" class="node">
<title>c14_materia2ID</title>
<g id="a_node10"><a xlink:href="../../tables/c14_materia2ID.html" xlink:title="c14_materia2ID" target="_top">
<polygon fill="#ffffff" stroke="transparent" points="226,-688.1059 226,-749.1059 353,-749.1059 353,-688.1059 226,-688.1059"/>
<polygon fill="#f5f5f5" stroke="transparent" points="226.5,-725.6059 226.5,-748.6059 353.5,-748.6059 353.5,-725.6059 226.5,-725.6059"/>
<polygon fill="none" stroke="#000000" points="226.5,-725.6059 226.5,-748.6059 353.5,-748.6059 353.5,-725.6059 226.5,-725.6059"/>
<text text-anchor="start" x="231.5" y="-734.2059" font-family="Helvetica,sans-Serif" font-weight="bold" font-size="11.00" fill="#000000">c14_materia2ID</text>
<text text-anchor="start" x="319.0219" y="-733.7059" font-family="Helvetica,sans-Serif" font-size="11.00" fill="#000000">[table]</text>
<polygon fill="none" stroke="#000000" points="226.5,-706.6059 226.5,-725.6059 353.5,-725.6059 353.5,-706.6059 226.5,-706.6059"/>
<text text-anchor="start" x="229.5" y="-712.7059" font-family="Helvetica,sans-Serif" font-size="11.00" fill="#000000">...</text>
<polygon fill="#ffffff" stroke="transparent" points="226.5,-687.6059 226.5,-706.6059 267.5,-706.6059 267.5,-687.6059 226.5,-687.6059"/>
<polygon fill="none" stroke="#000000" points="226.5,-687.6059 226.5,-706.6059 267.5,-706.6059 267.5,-687.6059 226.5,-687.6059"/>
<text text-anchor="start" x="229.5" y="-693.7059" font-family="Helvetica,sans-Serif" font-size="11.00" fill="#000000">&lt; 1</text>
<polygon fill="#ffffff" stroke="transparent" points="267.5,-687.6059 267.5,-706.6059 321.5,-706.6059 321.5,-687.6059 267.5,-687.6059"/>
<polygon fill="none" stroke="#000000" points="267.5,-687.6059 267.5,-706.6059 321.5,-706.6059 321.5,-687.6059 267.5,-687.6059"/>
<text text-anchor="start" x="279.9956" y="-693.7059" font-family="Helvetica,sans-Serif" font-size="11.00" fill="#000000">60 rows</text>
<polygon fill="#ffffff" stroke="transparent" points="321.5,-687.6059 321.5,-706.6059 353.5,-706.6059 353.5,-687.6059 321.5,-687.6059"/>
<polygon fill="none" stroke="#000000" points="321.5,-687.6059 321.5,-706.6059 353.5,-706.6059 353.5,-687.6059 321.5,-687.6059"/>
<text text-anchor="start" x="334.9053" y="-693.7059" font-family="Helvetica,sans-Serif" font-size="11.00" fill="#000000">3 &gt;</text>
</a>
</g>
</g>
<!-- char_DataCore&#45;&gt;c14_materia2ID -->
<g id="edge11" class="edge">
<title>char_DataCore:w&#45;&gt;c14_materia2ID:e</title>
<path fill="none" stroke="#000000" d="M429.4783,-537.5567C388.3946,-550.769 436.7608,-628.1075 403,-677.6059 387.3721,-700.5188 381.2351,-715.6059 353.5,-715.6059"/>
<polygon fill="#000000" stroke="#000000" points="436.0712,-536.6711 444.4793,-539.1738 440.0356,-536.1385 444,-535.6059 444,-535.6059 444,-535.6059 440.0356,-536.1385 443.5207,-532.0379 436.0712,-536.6711 436.0712,-536.6711"/>
<ellipse fill="none" stroke="#000000" cx="432.8997" cy="-537.0972" rx="3.2" ry="3.2"/>
</g>
<!-- cabah_methodID -->
<g id="node11" class="node">
<title>cabah_methodID</title>
<g id="a_node11"><a xlink:href="../../tables/cabah_methodID.html" xlink:title="cabah_methodID" target="_top">
<polygon fill="#ffffff" stroke="transparent" points="222,-770.1059 222,-831.1059 357,-831.1059 357,-770.1059 222,-770.1059"/>
<polygon fill="#f5f5f5" stroke="transparent" points="222.5,-807.6059 222.5,-830.6059 357.5,-830.6059 357.5,-807.6059 222.5,-807.6059"/>
<polygon fill="none" stroke="#000000" points="222.5,-807.6059 222.5,-830.6059 357.5,-830.6059 357.5,-807.6059 222.5,-807.6059"/>
<text text-anchor="start" x="227.5" y="-816.2059" font-family="Helvetica,sans-Serif" font-weight="bold" font-size="11.00" fill="#000000">cabah_methodID</text>
<text text-anchor="start" x="323.0219" y="-815.7059" font-family="Helvetica,sans-Serif" font-size="11.00" fill="#000000">[table]</text>
<polygon fill="none" stroke="#000000" points="222.5,-788.6059 222.5,-807.6059 357.5,-807.6059 357.5,-788.6059 222.5,-788.6059"/>
<text text-anchor="start" x="225.5" y="-794.7059" font-family="Helvetica,sans-Serif" font-size="11.00" fill="#000000">...</text>
<polygon fill="#ffffff" stroke="transparent" points="222.5,-769.6059 222.5,-788.6059 264.5,-788.6059 264.5,-769.6059 222.5,-769.6059"/>
<polygon fill="none" stroke="#000000" points="222.5,-769.6059 222.5,-788.6059 264.5,-788.6059 264.5,-769.6059 222.5,-769.6059"/>
<text text-anchor="start" x="225.5" y="-775.7059" font-family="Helvetica,sans-Serif" font-size="11.00" fill="#000000">&lt; 1</text>
<polygon fill="#ffffff" stroke="transparent" points="264.5,-769.6059 264.5,-788.6059 325.5,-788.6059 325.5,-769.6059 264.5,-769.6059"/>
<polygon fill="none" stroke="#000000" points="264.5,-769.6059 264.5,-788.6059 325.5,-788.6059 325.5,-769.6059 264.5,-769.6059"/>
<text text-anchor="start" x="277.8807" y="-775.7059" font-family="Helvetica,sans-Serif" font-size="11.00" fill="#000000">102 rows</text>
<polygon fill="#ffffff" stroke="transparent" points="325.5,-769.6059 325.5,-788.6059 357.5,-788.6059 357.5,-769.6059 325.5,-769.6059"/>
<polygon fill="none" stroke="#000000" points="325.5,-769.6059 325.5,-788.6059 357.5,-788.6059 357.5,-769.6059 325.5,-769.6059"/>
<text text-anchor="start" x="338.9053" y="-775.7059" font-family="Helvetica,sans-Serif" font-size="11.00" fill="#000000">8 &gt;</text>
</a>
</g>
</g>
<!-- char_DataCore&#45;&gt;cabah_methodID -->
<g id="edge12" class="edge">
<title>char_DataCore:w&#45;&gt;cabah_methodID:e</title>
<path fill="none" stroke="#000000" d="M429.3661,-558.9248C363.6712,-572.3749 447.0712,-685.6846 403,-759.6059 389.5079,-782.2363 383.8472,-797.6059 357.5,-797.6059"/>
<polygon fill="#000000" stroke="#000000" points="436.0323,-558.324 444.3232,-561.1914 440.0161,-557.965 444,-557.6059 444,-557.6059 444,-557.6059 440.0161,-557.965 443.6768,-554.0204 436.0323,-558.324 436.0323,-558.324"/>
<ellipse fill="none" stroke="#000000" cx="432.8452" cy="-558.6113" rx="3.2" ry="3.2"/>
</g>
<!-- char_Sample -->
<g id="node12" class="node">
<title>char_Sample</title>
<g id="a_node12"><a xlink:href="../../tables/char_Sample.html" xlink:title="char_Sample" target="_top">
<polygon fill="#ffffff" stroke="transparent" points="233,-1016.1059 233,-1077.1059 346,-1077.1059 346,-1016.1059 233,-1016.1059"/>
<polygon fill="#f5f5f5" stroke="transparent" points="233.5,-1053.6059 233.5,-1076.6059 346.5,-1076.6059 346.5,-1053.6059 233.5,-1053.6059"/>
<polygon fill="none" stroke="#000000" points="233.5,-1053.6059 233.5,-1076.6059 346.5,-1076.6059 346.5,-1053.6059 233.5,-1053.6059"/>
<text text-anchor="start" x="238.5" y="-1062.2059" font-family="Helvetica,sans-Serif" font-weight="bold" font-size="11.00" fill="#000000">char_Sample</text>
<text text-anchor="start" x="312.0219" y="-1061.7059" font-family="Helvetica,sans-Serif" font-size="11.00" fill="#000000">[table]</text>
<polygon fill="none" stroke="#000000" points="233.5,-1034.6059 233.5,-1053.6059 346.5,-1053.6059 346.5,-1034.6059 233.5,-1034.6059"/>
<text text-anchor="start" x="236.5" y="-1040.7059" font-family="Helvetica,sans-Serif" font-size="11.00" fill="#000000">...</text>
<polygon fill="#ffffff" stroke="transparent" points="233.5,-1015.6059 233.5,-1034.6059 257.5,-1034.6059 257.5,-1015.6059 233.5,-1015.6059"/>
<polygon fill="none" stroke="#000000" points="233.5,-1015.6059 233.5,-1034.6059 257.5,-1034.6059 257.5,-1015.6059 233.5,-1015.6059"/>
<text text-anchor="start" x="236.5" y="-1021.7059" font-family="Helvetica,sans-Serif" font-size="11.00" fill="#000000">&lt; 1</text>
<polygon fill="#ffffff" stroke="transparent" points="257.5,-1015.6059 257.5,-1034.6059 323.5,-1034.6059 323.5,-1015.6059 257.5,-1015.6059"/>
<polygon fill="none" stroke="#000000" points="257.5,-1015.6059 257.5,-1034.6059 323.5,-1034.6059 323.5,-1015.6059 257.5,-1015.6059"/>
<text text-anchor="start" x="260.594" y="-1021.7059" font-family="Helvetica,sans-Serif" font-size="11.00" fill="#000000">41.793 rows</text>
<polygon fill="#ffffff" stroke="transparent" points="323.5,-1015.6059 323.5,-1034.6059 346.5,-1034.6059 346.5,-1015.6059 323.5,-1015.6059"/>
<polygon fill="none" stroke="#000000" points="323.5,-1015.6059 323.5,-1034.6059 346.5,-1034.6059 346.5,-1015.6059 323.5,-1015.6059"/>
<text text-anchor="start" x="327.9053" y="-1021.7059" font-family="Helvetica,sans-Serif" font-size="11.00" fill="#000000">1 &gt;</text>
</a>
</g>
</g>
<!-- char_DataCore&#45;&gt;char_Sample -->
<g id="edge16" class="edge">
<title>char_DataCore:w&#45;&gt;char_Sample:e</title>
<path fill="none" stroke="#000000" d="M430.0172,-649.3078C373.7417,-683.2991 442.0378,-941.3671 403,-1005.6059 387.2841,-1031.4673 376.7622,-1043.6059 346.5,-1043.6059"/>
<polygon fill="#000000" stroke="#000000" points="436.2664,-647.6534 444.9214,-649.086 440.1332,-646.6296 444,-645.6059 444,-645.6059 444,-645.6059 440.1332,-646.6296 443.0786,-642.1258 436.2664,-647.6534 436.2664,-647.6534"/>
<ellipse fill="none" stroke="#000000" cx="433.173" cy="-648.4723" rx="3.2" ry="3.2"/>
</g>
<!-- global_varunitID&#45;&gt;global_varunitID -->
<g id="edge18" class="edge">
<title>global_varunitID:w&#45;&gt;global_varunitID:e</title>
<path fill="none" stroke="#000000" d="M175.1458,-309.4631C133.4138,-348.1999 144.4971,-419.6059 290,-419.6059 447.5,-419.6059 447.5,-401.9392 393.5,-366.6059"/>
<polygon fill="#000000" stroke="#000000" points="180.1922,-305.5265 188.7143,-303.4444 183.3461,-303.0662 186.5,-300.6059 186.5,-300.6059 186.5,-300.6059 183.3461,-303.0662 184.2857,-297.7674 180.1922,-305.5265 180.1922,-305.5265"/>
<ellipse fill="none" stroke="#000000" cx="177.6691" cy="-307.4947" rx="3.2" ry="3.2"/>
</g>
</g>
</svg>
