<?xml version="1.0" encoding="UTF-8" standalone="no"?>
<!DOCTYPE svg PUBLIC "-//W3C//DTD SVG 1.1//EN"
 "http://www.w3.org/Graphics/SVG/1.1/DTD/svg11.dtd">
<!-- Generated by graphviz version 2.40.1 (20161225.0304)
 -->
<!-- Title: oneDegreeRelationshipsDiagram Pages: 1 -->
<svg width="514pt" height="369pt"
 viewBox="0.00 0.00 514.00 369.20" xmlns="http://www.w3.org/2000/svg" xmlns:xlink="http://www.w3.org/1999/xlink">
<g id="graph0" class="graph" transform="scale(1 1) rotate(0) translate(4 365.2)">
<title>oneDegreeRelationshipsDiagram</title>
<polygon fill="#ffffff" stroke="transparent" points="-4,4 -4,-365.2 510,-365.2 510,4 -4,4"/>
<text text-anchor="middle" x="72.4936" y="-7.3" font-family="Helvetica,sans-Serif" font-size="11.00" fill="#000000">Generated by SchemaSpy</text>
<!-- global_datasetpublicationID -->
<g id="node1" class="node">
<title>global_datasetpublicationID</title>
<g id="a_node1"><a xlink:href="../../tables/global_datasetpublicationID.html" xlink:title="global_datasetpublicationID" target="_top">
<polygon fill="#ffffff" stroke="transparent" points="221,-84.7 221,-284.7 498,-284.7 498,-84.7 221,-84.7"/>
<polygon fill="#f5f5f5" stroke="transparent" points="223.5,-259.7 223.5,-282.7 496.5,-282.7 496.5,-259.7 223.5,-259.7"/>
<polygon fill="none" stroke="#000000" points="223.5,-259.7 223.5,-282.7 496.5,-282.7 496.5,-259.7 223.5,-259.7"/>
<text text-anchor="start" x="228.5" y="-268.3" font-family="Helvetica,sans-Serif" font-weight="bold" font-size="11.00" fill="#000000">global_datasetpublicationID</text>
<text text-anchor="start" x="461.5437" y="-267.8" font-family="Helvetica,sans-Serif" font-size="11.00" fill="#000000">[table]</text>
<polygon fill="none" stroke="#000000" points="223.5,-237.7 223.5,-259.7 404.5,-259.7 404.5,-237.7 223.5,-237.7"/>
<image xlink:href="../../images/primaryKeys.png" width="11px" height="12px" preserveAspectRatio="xMinYMin meet" x="228.5" y="-254.7"/>
<text text-anchor="start" x="243.5" y="-244.8" font-family="Helvetica,sans-Serif" font-size="11.00" fill="#000000">DATASETID</text>
<polygon fill="none" stroke="#000000" points="404.5,-237.7 404.5,-259.7 496.5,-259.7 496.5,-237.7 404.5,-237.7"/>
<text text-anchor="start" x="407.5" y="-245.4" font-family="Helvetica,sans-Serif" font-size="11.00" fill="#000000">int4[10]</text>
<polygon fill="none" stroke="#000000" points="223.5,-215.7 223.5,-237.7 404.5,-237.7 404.5,-215.7 223.5,-215.7"/>
<image xlink:href="../../images/primaryKeys.png" width="11px" height="12px" preserveAspectRatio="xMinYMin meet" x="228.5" y="-232.7"/>
<text text-anchor="start" x="243.5" y="-222.8" font-family="Helvetica,sans-Serif" font-size="11.00" fill="#000000">REFDBID</text>
<polygon fill="none" stroke="#000000" points="404.5,-215.7 404.5,-237.7 496.5,-237.7 496.5,-215.7 404.5,-215.7"/>
<text text-anchor="start" x="407.5" y="-223.4" font-family="Helvetica,sans-Serif" font-size="11.00" fill="#000000">text[2147483647]</text>
<polygon fill="none" stroke="#000000" points="223.5,-193.7 223.5,-215.7 404.5,-215.7 404.5,-193.7 223.5,-193.7"/>
<text text-anchor="start" x="243.5" y="-200.8" font-family="Helvetica,sans-Serif" font-size="11.00" fill="#000000">NEODSETID</text>
<polygon fill="none" stroke="#000000" points="404.5,-193.7 404.5,-215.7 496.5,-215.7 496.5,-193.7 404.5,-193.7"/>
<text text-anchor="start" x="407.5" y="-201.4" font-family="Helvetica,sans-Serif" font-size="11.00" fill="#000000">int4[10]</text>
<polygon fill="none" stroke="#000000" points="223.5,-171.7 223.5,-193.7 404.5,-193.7 404.5,-171.7 223.5,-171.7"/>
<text text-anchor="start" x="243.5" y="-178.8" font-family="Helvetica,sans-Serif" font-size="11.00" fill="#000000">NEO_REFID</text>
<polygon fill="none" stroke="#000000" points="404.5,-171.7 404.5,-193.7 496.5,-193.7 496.5,-171.7 404.5,-171.7"/>
<text text-anchor="start" x="407.5" y="-179.4" font-family="Helvetica,sans-Serif" font-size="11.00" fill="#000000">int4[10]</text>
<polygon fill="none" stroke="#000000" points="223.5,-149.7 223.5,-171.7 404.5,-171.7 404.5,-149.7 223.5,-149.7"/>
<text text-anchor="start" x="243.5" y="-156.8" font-family="Helvetica,sans-Serif" font-size="11.00" fill="#000000">PRIMARYPUB</text>
<polygon fill="none" stroke="#000000" points="404.5,-149.7 404.5,-171.7 496.5,-171.7 496.5,-149.7 404.5,-149.7"/>
<text text-anchor="start" x="407.5" y="-157.4" font-family="Helvetica,sans-Serif" font-size="11.00" fill="#000000">bool[1]</text>
<polygon fill="none" stroke="#000000" points="223.5,-127.7 223.5,-149.7 404.5,-149.7 404.5,-127.7 223.5,-127.7"/>
<text text-anchor="start" x="243.5" y="-134.8" font-family="Helvetica,sans-Serif" font-size="11.00" fill="#000000">CREATED_AT</text>
<polygon fill="none" stroke="#000000" points="404.5,-127.7 404.5,-149.7 496.5,-149.7 496.5,-127.7 404.5,-127.7"/>
<text text-anchor="start" x="407.1023" y="-135.4" font-family="Helvetica,sans-Serif" font-size="11.00" fill="#000000">timestamptz[35,6]</text>
<polygon fill="none" stroke="#000000" points="223.5,-105.7 223.5,-127.7 404.5,-127.7 404.5,-105.7 223.5,-105.7"/>
<text text-anchor="start" x="243.5" y="-112.8" font-family="Helvetica,sans-Serif" font-size="11.00" fill="#000000">UPDATED_AT</text>
<polygon fill="none" stroke="#000000" points="404.5,-105.7 404.5,-127.7 496.5,-127.7 496.5,-105.7 404.5,-105.7"/>
<text text-anchor="start" x="407.1023" y="-113.4" font-family="Helvetica,sans-Serif" font-size="11.00" fill="#000000">timestamptz[35,6]</text>
<polygon fill="#ffffff" stroke="transparent" points="223.5,-86.7 223.5,-105.7 299.5,-105.7 299.5,-86.7 223.5,-86.7"/>
<polygon fill="none" stroke="#000000" points="223.5,-86.7 223.5,-105.7 299.5,-105.7 299.5,-86.7 223.5,-86.7"/>
<text text-anchor="start" x="226.5" y="-92.8" font-family="Helvetica,sans-Serif" font-size="11.00" fill="#000000">&lt; 2</text>
<polygon fill="#ffffff" stroke="transparent" points="299.5,-86.7 299.5,-105.7 404.5,-105.7 404.5,-86.7 299.5,-86.7"/>
<polygon fill="none" stroke="#000000" points="299.5,-86.7 299.5,-105.7 404.5,-105.7 404.5,-86.7 299.5,-86.7"/>
<text text-anchor="start" x="356.8807" y="-92.8" font-family="Helvetica,sans-Serif" font-size="11.00" fill="#000000">218 rows</text>
<polygon fill="#ffffff" stroke="transparent" points="404.5,-86.7 404.5,-105.7 496.5,-105.7 496.5,-86.7 404.5,-86.7"/>
<polygon fill="none" stroke="#000000" points="404.5,-86.7 404.5,-105.7 496.5,-105.7 496.5,-86.7 404.5,-86.7"/>
<text text-anchor="start" x="477.9053" y="-92.8" font-family="Helvetica,sans-Serif" font-size="11.00" fill="#000000">0 &gt;</text>
<polygon fill="none" stroke="#000000" stroke-width="2" points="222,-85.7 222,-283.7 497,-283.7 497,-85.7 222,-85.7"/>
</a>
</g>
</g>
<!-- global_DataSetMaster -->
<g id="node2" class="node">
<title>global_DataSetMaster</title>
<g id="a_node2"><a xlink:href="../../tables/global_DataSetMaster.html" xlink:title="global_DataSetMaster" target="_top">
<polygon fill="#ffffff" stroke="transparent" points="8,-208.2 8,-357.2 172,-357.2 172,-208.2 8,-208.2"/>
<polygon fill="#f5f5f5" stroke="transparent" points="8,-333.7 8,-356.7 172,-356.7 172,-333.7 8,-333.7"/>
<polygon fill="none" stroke="#000000" points="8,-333.7 8,-356.7 172,-356.7 172,-333.7 8,-333.7"/>
<text text-anchor="start" x="13" y="-342.3" font-family="Helvetica,sans-Serif" font-weight="bold" font-size="11.00" fill="#000000">global_DataSetMaster</text>
<text text-anchor="start" x="137.5219" y="-341.8" font-family="Helvetica,sans-Serif" font-size="11.00" fill="#000000">[table]</text>
<polygon fill="none" stroke="#000000" points="8,-311.7 8,-333.7 172,-333.7 172,-311.7 8,-311.7"/>
<image xlink:href="../../images/primaryKeys.png" width="11px" height="12px" preserveAspectRatio="xMinYMin meet" x="13" y="-328.7"/>
<text text-anchor="start" x="37" y="-318.8" font-family="Helvetica,sans-Serif" font-size="11.00" fill="#000000">DATASETID</text>
<polygon fill="none" stroke="#000000" points="8,-289.7 8,-311.7 172,-311.7 172,-289.7 8,-289.7"/>
<image xlink:href="../../images/foreignKeys.png" width="11px" height="12px" preserveAspectRatio="xMinYMin meet" x="13" y="-306.7"/>
<text text-anchor="start" x="37" y="-296.8" font-family="Helvetica,sans-Serif" font-size="11.00" fill="#000000">UNITID</text>
<polygon fill="none" stroke="#000000" points="8,-267.7 8,-289.7 172,-289.7 172,-267.7 8,-267.7"/>
<image xlink:href="../../images/foreignKeys.png" width="11px" height="12px" preserveAspectRatio="xMinYMin meet" x="13" y="-284.7"/>
<text text-anchor="start" x="37" y="-274.8" font-family="Helvetica,sans-Serif" font-size="11.00" fill="#000000">DSETTYPEID</text>
<polygon fill="none" stroke="#000000" points="8,-245.7 8,-267.7 172,-267.7 172,-245.7 8,-245.7"/>
<image xlink:href="../../images/foreignKeys.png" width="11px" height="12px" preserveAspectRatio="xMinYMin meet" x="13" y="-262.7"/>
<text text-anchor="start" x="37" y="-252.8" font-family="Helvetica,sans-Serif" font-size="11.00" fill="#000000">DSETSOURCE</text>
<polygon fill="none" stroke="#000000" points="8,-226.7 8,-245.7 172,-245.7 172,-226.7 8,-226.7"/>
<text text-anchor="start" x="11" y="-232.8" font-family="Helvetica,sans-Serif" font-size="11.00" fill="#000000">...</text>
<polygon fill="#ffffff" stroke="transparent" points="8,-207.7 8,-226.7 65,-226.7 65,-207.7 8,-207.7"/>
<polygon fill="none" stroke="#000000" points="8,-207.7 8,-226.7 65,-226.7 65,-207.7 8,-207.7"/>
<text text-anchor="start" x="11" y="-213.8" font-family="Helvetica,sans-Serif" font-size="11.00" fill="#000000">&lt; 3</text>
<polygon fill="#ffffff" stroke="transparent" points="65,-207.7 65,-226.7 133,-226.7 133,-207.7 65,-207.7"/>
<polygon fill="none" stroke="#000000" points="65,-207.7 65,-226.7 133,-226.7 133,-207.7 65,-207.7"/>
<text text-anchor="start" x="85.3807" y="-213.8" font-family="Helvetica,sans-Serif" font-size="11.00" fill="#000000">148 rows</text>
<polygon fill="#ffffff" stroke="transparent" points="133,-207.7 133,-226.7 172,-226.7 172,-207.7 133,-207.7"/>
<polygon fill="none" stroke="#000000" points="133,-207.7 133,-226.7 172,-226.7 172,-207.7 133,-207.7"/>
<text text-anchor="start" x="153.4053" y="-213.8" font-family="Helvetica,sans-Serif" font-size="11.00" fill="#000000">1 &gt;</text>
</a>
</g>
</g>
<!-- global_datasetpublicationID&#45;&gt;global_DataSetMaster -->
<g id="edge1" class="edge">
<title>global_datasetpublicationID:w&#45;&gt;global_DataSetMaster:e</title>
<path fill="none" stroke="#000000" d="M209.7488,-253.1074C190.4187,-269.0383 206.1218,-322.7 172,-322.7"/>
<polygon fill="#000000" stroke="#000000" points="215.8817,-251.1418 224.5988,-252.1282 219.6909,-249.9209 223.5,-248.7 223.5,-248.7 223.5,-248.7 219.6909,-249.9209 222.4012,-245.2718 215.8817,-251.1418 215.8817,-251.1418"/>
<ellipse fill="none" stroke="#000000" cx="212.8344" cy="-252.1185" rx="3.2" ry="3.2"/>
</g>
<!-- global_RefCore -->
<g id="node3" class="node">
<title>global_RefCore</title>
<g id="a_node3"><a xlink:href="../../tables/global_RefCore.html" xlink:title="global_RefCore" target="_top">
<polygon fill="#ffffff" stroke="transparent" points="26.5,-38.2 26.5,-187.2 153.5,-187.2 153.5,-38.2 26.5,-38.2"/>
<polygon fill="#f5f5f5" stroke="transparent" points="27,-163.7 27,-186.7 154,-186.7 154,-163.7 27,-163.7"/>
<polygon fill="none" stroke="#000000" points="27,-163.7 27,-186.7 154,-186.7 154,-163.7 27,-163.7"/>
<text text-anchor="start" x="32" y="-172.3" font-family="Helvetica,sans-Serif" font-weight="bold" font-size="11.00" fill="#000000">global_RefCore</text>
<text text-anchor="start" x="119.5219" y="-171.8" font-family="Helvetica,sans-Serif" font-size="11.00" fill="#000000">[table]</text>
<polygon fill="none" stroke="#000000" points="27,-141.7 27,-163.7 154,-163.7 154,-141.7 27,-141.7"/>
<image xlink:href="../../images/primaryKeys.png" width="11px" height="12px" preserveAspectRatio="xMinYMin meet" x="32" y="-158.7"/>
<text text-anchor="start" x="56" y="-148.8" font-family="Helvetica,sans-Serif" font-size="11.00" fill="#000000">REFDBID</text>
<polygon fill="none" stroke="#000000" points="27,-119.7 27,-141.7 154,-141.7 154,-119.7 27,-119.7"/>
<image xlink:href="../../images/foreignKeys.png" width="11px" height="12px" preserveAspectRatio="xMinYMin meet" x="32" y="-136.7"/>
<text text-anchor="start" x="56" y="-126.8" font-family="Helvetica,sans-Serif" font-size="11.00" fill="#000000">OAID</text>
<polygon fill="none" stroke="#000000" points="27,-97.7 27,-119.7 154,-119.7 154,-97.7 27,-97.7"/>
<image xlink:href="../../images/foreignKeys.png" width="11px" height="12px" preserveAspectRatio="xMinYMin meet" x="32" y="-114.7"/>
<text text-anchor="start" x="56" y="-104.8" font-family="Helvetica,sans-Serif" font-size="11.00" fill="#000000">PUBTYPEID</text>
<polygon fill="none" stroke="#000000" points="27,-75.7 27,-97.7 154,-97.7 154,-75.7 27,-75.7"/>
<image xlink:href="../../images/foreignKeys.png" width="11px" height="12px" preserveAspectRatio="xMinYMin meet" x="32" y="-92.7"/>
<text text-anchor="start" x="56" y="-82.8" font-family="Helvetica,sans-Serif" font-size="11.00" fill="#000000">JOURNALID</text>
<polygon fill="none" stroke="#000000" points="27,-56.7 27,-75.7 154,-75.7 154,-56.7 27,-56.7"/>
<text text-anchor="start" x="30" y="-62.8" font-family="Helvetica,sans-Serif" font-size="11.00" fill="#000000">...</text>
<polygon fill="#ffffff" stroke="transparent" points="27,-37.7 27,-56.7 58,-56.7 58,-37.7 27,-37.7"/>
<polygon fill="none" stroke="#000000" points="27,-37.7 27,-56.7 58,-56.7 58,-37.7 27,-37.7"/>
<text text-anchor="start" x="30" y="-43.8" font-family="Helvetica,sans-Serif" font-size="11.00" fill="#000000">&lt; 5</text>
<polygon fill="#ffffff" stroke="transparent" points="58,-37.7 58,-56.7 122,-56.7 122,-37.7 58,-37.7"/>
<polygon fill="none" stroke="#000000" points="58,-37.7 58,-56.7 122,-56.7 122,-37.7 58,-37.7"/>
<text text-anchor="start" x="65.2089" y="-43.8" font-family="Helvetica,sans-Serif" font-size="11.00" fill="#000000">3.943 rows</text>
<polygon fill="#ffffff" stroke="transparent" points="122,-37.7 122,-56.7 154,-56.7 154,-37.7 122,-37.7"/>
<polygon fill="none" stroke="#000000" points="122,-37.7 122,-56.7 154,-56.7 154,-37.7 122,-37.7"/>
<text text-anchor="start" x="129.2904" y="-43.8" font-family="Helvetica,sans-Serif" font-size="11.00" fill="#000000">37 &gt;</text>
</a>
</g>
</g>
<!-- global_datasetpublicationID&#45;&gt;global_RefCore -->
<g id="edge2" class="edge">
<title>global_datasetpublicationID:w&#45;&gt;global_RefCore:e</title>
<path fill="none" stroke="#000000" d="M209.41,-223.5203C182.536,-209.3563 193.4799,-152.7 154,-152.7"/>
<polygon fill="#000000" stroke="#000000" points="215.6962,-224.9389 222.7075,-230.2117 219.5981,-225.8194 223.5,-226.7 223.5,-226.7 223.5,-226.7 219.5981,-225.8194 224.2925,-223.1883 215.6962,-224.9389 215.6962,-224.9389"/>
<ellipse fill="none" stroke="#000000" cx="212.5747" cy="-224.2344" rx="3.2" ry="3.2"/>
</g>
</g>
</svg>
