<?xml version="1.0" encoding="UTF-8" standalone="no"?>
<!DOCTYPE svg PUBLIC "-//W3C//DTD SVG 1.1//EN"
 "http://www.w3.org/Graphics/SVG/1.1/DTD/svg11.dtd">
<!-- Generated by graphviz version 2.40.1 (20161225.0304)
 -->
<!-- Title: oneDegreeRelationshipsDiagramImplied Pages: 1 -->
<svg width="654pt" height="649pt"
 viewBox="0.00 0.00 654.00 649.20" xmlns="http://www.w3.org/2000/svg" xmlns:xlink="http://www.w3.org/1999/xlink">
<g id="graph0" class="graph" transform="scale(1 1) rotate(0) translate(4 645.2)">
<title>oneDegreeRelationshipsDiagramImplied</title>
<polygon fill="#ffffff" stroke="transparent" points="-4,4 -4,-645.2 650,-645.2 650,4 -4,4"/>
<text text-anchor="middle" x="72.4936" y="-7.3" font-family="Helvetica,sans-Serif" font-size="11.00" fill="#000000">Generated by SchemaSpy</text>
<!-- ippd_DataCore -->
<g id="node1" class="node">
<title>ippd_DataCore</title>
<g id="a_node1"><a xlink:href="../../tables/ippd_DataCore.html" xlink:title="ippd_DataCore" target="_top">
<polygon fill="#ffffff" stroke="transparent" points="492.5,-510.2 492.5,-637.2 616.5,-637.2 616.5,-510.2 492.5,-510.2"/>
<polygon fill="#f5f5f5" stroke="transparent" points="492.5,-613.7 492.5,-636.7 616.5,-636.7 616.5,-613.7 492.5,-613.7"/>
<polygon fill="none" stroke="#000000" points="492.5,-613.7 492.5,-636.7 616.5,-636.7 616.5,-613.7 492.5,-613.7"/>
<text text-anchor="start" x="497.5" y="-622.3" font-family="Helvetica,sans-Serif" font-weight="bold" font-size="11.00" fill="#000000">ippd_DataCore</text>
<text text-anchor="start" x="582.0219" y="-621.8" font-family="Helvetica,sans-Serif" font-size="11.00" fill="#000000">[table]</text>
<polygon fill="none" stroke="#000000" points="492.5,-591.7 492.5,-613.7 616.5,-613.7 616.5,-591.7 492.5,-591.7"/>
<image xlink:href="../../images/primaryKeys.png" width="11px" height="12px" preserveAspectRatio="xMinYMin meet" x="497.5" y="-608.7"/>
<text text-anchor="start" x="521.5" y="-598.8" font-family="Helvetica,sans-Serif" font-size="11.00" fill="#000000">DATAID</text>
<polygon fill="none" stroke="#000000" points="492.5,-569.7 492.5,-591.7 616.5,-591.7 616.5,-569.7 492.5,-569.7"/>
<image xlink:href="../../images/foreignKeys.png" width="11px" height="12px" preserveAspectRatio="xMinYMin meet" x="497.5" y="-586.7"/>
<text text-anchor="start" x="521.5" y="-576.8" font-family="Helvetica,sans-Serif" font-size="11.00" fill="#000000">SAMPLEID</text>
<polygon fill="none" stroke="#000000" points="492.5,-547.7 492.5,-569.7 616.5,-569.7 616.5,-547.7 492.5,-547.7"/>
<image xlink:href="../../images/foreignKeys.png" width="11px" height="12px" preserveAspectRatio="xMinYMin meet" x="497.5" y="-564.7"/>
<text text-anchor="start" x="521.5" y="-554.8" font-family="Helvetica,sans-Serif" font-size="11.00" fill="#000000">VARIABLEID</text>
<polygon fill="none" stroke="#000000" points="492.5,-528.7 492.5,-547.7 616.5,-547.7 616.5,-528.7 492.5,-528.7"/>
<text text-anchor="start" x="495.5" y="-534.8" font-family="Helvetica,sans-Serif" font-size="11.00" fill="#000000">...</text>
<polygon fill="#ffffff" stroke="transparent" points="492.5,-509.7 492.5,-528.7 522.5,-528.7 522.5,-509.7 492.5,-509.7"/>
<polygon fill="none" stroke="#000000" points="492.5,-509.7 492.5,-528.7 522.5,-528.7 522.5,-509.7 492.5,-509.7"/>
<text text-anchor="start" x="495.5" y="-515.8" font-family="Helvetica,sans-Serif" font-size="11.00" fill="#000000">&lt; 2</text>
<polygon fill="#ffffff" stroke="transparent" points="522.5,-509.7 522.5,-528.7 599.5,-528.7 599.5,-509.7 522.5,-509.7"/>
<polygon fill="none" stroke="#000000" points="522.5,-509.7 522.5,-528.7 599.5,-528.7 599.5,-509.7 522.5,-509.7"/>
<text text-anchor="start" x="530.4791" y="-515.8" font-family="Helvetica,sans-Serif" font-size="11.00" fill="#000000">384.434 rows</text>
<polygon fill="#ffffff" stroke="transparent" points="599.5,-509.7 599.5,-528.7 616.5,-528.7 616.5,-509.7 599.5,-509.7"/>
<polygon fill="none" stroke="#000000" points="599.5,-509.7 599.5,-528.7 616.5,-528.7 616.5,-509.7 599.5,-509.7"/>
<text text-anchor="start" x="607.3862" y="-515.8" font-family="Helvetica,sans-Serif" font-size="11.00" fill="#000000"> &#160;</text>
</a>
</g>
</g>
<!-- ippd_Sample -->
<g id="node2" class="node">
<title>ippd_Sample</title>
<g id="a_node2"><a xlink:href="../../tables/ippd_Sample.html" xlink:title="ippd_Sample" target="_top">
<polygon fill="#ffffff" stroke="transparent" points="221,-136.7 221,-468.7 422,-468.7 422,-136.7 221,-136.7"/>
<polygon fill="#f5f5f5" stroke="transparent" points="223.5,-443.7 223.5,-466.7 420.5,-466.7 420.5,-443.7 223.5,-443.7"/>
<polygon fill="none" stroke="#000000" points="223.5,-443.7 223.5,-466.7 420.5,-466.7 420.5,-443.7 223.5,-443.7"/>
<text text-anchor="start" x="228.5" y="-452.3" font-family="Helvetica,sans-Serif" font-weight="bold" font-size="11.00" fill="#000000">ippd_Sample</text>
<text text-anchor="start" x="385.5437" y="-451.8" font-family="Helvetica,sans-Serif" font-size="11.00" fill="#000000">[table]</text>
<polygon fill="none" stroke="#000000" points="223.5,-421.7 223.5,-443.7 328.5,-443.7 328.5,-421.7 223.5,-421.7"/>
<image xlink:href="../../images/primaryKeys.png" width="11px" height="12px" preserveAspectRatio="xMinYMin meet" x="228.5" y="-438.7"/>
<text text-anchor="start" x="243.5" y="-428.8" font-family="Helvetica,sans-Serif" font-size="11.00" fill="#000000">SAMPLEID</text>
<polygon fill="none" stroke="#000000" points="328.5,-421.7 328.5,-443.7 420.5,-443.7 420.5,-421.7 328.5,-421.7"/>
<text text-anchor="start" x="331.5" y="-429.4" font-family="Helvetica,sans-Serif" font-size="11.00" fill="#000000">int4[10]</text>
<polygon fill="none" stroke="#000000" points="223.5,-399.7 223.5,-421.7 328.5,-421.7 328.5,-399.7 223.5,-399.7"/>
<image xlink:href="../../images/foreignKeys.png" width="11px" height="12px" preserveAspectRatio="xMinYMin meet" x="228.5" y="-416.7"/>
<text text-anchor="start" x="243.5" y="-406.8" font-family="Helvetica,sans-Serif" font-size="11.00" fill="#000000">ANLYSUNTID</text>
<polygon fill="none" stroke="#000000" points="328.5,-399.7 328.5,-421.7 420.5,-421.7 420.5,-399.7 328.5,-399.7"/>
<text text-anchor="start" x="331.5" y="-407.4" font-family="Helvetica,sans-Serif" font-size="11.00" fill="#000000">int4[10]</text>
<polygon fill="none" stroke="#000000" points="223.5,-377.7 223.5,-399.7 328.5,-399.7 328.5,-377.7 223.5,-377.7"/>
<image xlink:href="../../images/foreignKeys.png" width="11px" height="12px" preserveAspectRatio="xMinYMin meet" x="228.5" y="-394.7"/>
<text text-anchor="start" x="243.5" y="-384.8" font-family="Helvetica,sans-Serif" font-size="11.00" fill="#000000">NEODSETID</text>
<polygon fill="none" stroke="#000000" points="328.5,-377.7 328.5,-399.7 420.5,-399.7 420.5,-377.7 328.5,-377.7"/>
<text text-anchor="start" x="331.5" y="-385.4" font-family="Helvetica,sans-Serif" font-size="11.00" fill="#000000">int4[10]</text>
<polygon fill="none" stroke="#000000" points="223.5,-355.7 223.5,-377.7 328.5,-377.7 328.5,-355.7 223.5,-355.7"/>
<text text-anchor="start" x="243.5" y="-362.8" font-family="Helvetica,sans-Serif" font-size="11.00" fill="#000000">SMPNAME</text>
<polygon fill="none" stroke="#000000" points="328.5,-355.7 328.5,-377.7 420.5,-377.7 420.5,-355.7 328.5,-355.7"/>
<text text-anchor="start" x="331.5" y="-363.4" font-family="Helvetica,sans-Serif" font-size="11.00" fill="#000000">text[2147483647]</text>
<polygon fill="none" stroke="#000000" points="223.5,-333.7 223.5,-355.7 328.5,-355.7 328.5,-333.7 223.5,-333.7"/>
<text text-anchor="start" x="243.5" y="-340.8" font-family="Helvetica,sans-Serif" font-size="11.00" fill="#000000">ANLYSDATE</text>
<polygon fill="none" stroke="#000000" points="328.5,-333.7 328.5,-355.7 420.5,-355.7 420.5,-333.7 328.5,-333.7"/>
<text text-anchor="start" x="331.5" y="-341.4" font-family="Helvetica,sans-Serif" font-size="11.00" fill="#000000">varchar[10]</text>
<polygon fill="none" stroke="#000000" points="223.5,-311.7 223.5,-333.7 328.5,-333.7 328.5,-311.7 223.5,-311.7"/>
<text text-anchor="start" x="243.5" y="-318.8" font-family="Helvetica,sans-Serif" font-size="11.00" fill="#000000">LABNUMBER</text>
<polygon fill="none" stroke="#000000" points="328.5,-311.7 328.5,-333.7 420.5,-333.7 420.5,-311.7 328.5,-311.7"/>
<text text-anchor="start" x="331.5" y="-319.4" font-family="Helvetica,sans-Serif" font-size="11.00" fill="#000000">text[2147483647]</text>
<polygon fill="none" stroke="#000000" points="223.5,-289.7 223.5,-311.7 328.5,-311.7 328.5,-289.7 223.5,-289.7"/>
<text text-anchor="start" x="243.5" y="-296.8" font-family="Helvetica,sans-Serif" font-size="11.00" fill="#000000">PREPMETHOD</text>
<polygon fill="none" stroke="#000000" points="328.5,-289.7 328.5,-311.7 420.5,-311.7 420.5,-289.7 328.5,-289.7"/>
<text text-anchor="start" x="331.5" y="-297.4" font-family="Helvetica,sans-Serif" font-size="11.00" fill="#000000">text[2147483647]</text>
<polygon fill="none" stroke="#000000" points="223.5,-267.7 223.5,-289.7 328.5,-289.7 328.5,-267.7 223.5,-267.7"/>
<text text-anchor="start" x="243.5" y="-274.8" font-family="Helvetica,sans-Serif" font-size="11.00" fill="#000000">SMPNOTE</text>
<polygon fill="none" stroke="#000000" points="328.5,-267.7 328.5,-289.7 420.5,-289.7 420.5,-267.7 328.5,-267.7"/>
<text text-anchor="start" x="331.5" y="-275.4" font-family="Helvetica,sans-Serif" font-size="11.00" fill="#000000">text[2147483647]</text>
<polygon fill="none" stroke="#000000" points="223.5,-245.7 223.5,-267.7 328.5,-267.7 328.5,-245.7 223.5,-245.7"/>
<text text-anchor="start" x="243.5" y="-252.8" font-family="Helvetica,sans-Serif" font-size="11.00" fill="#000000">SMPDATE</text>
<polygon fill="none" stroke="#000000" points="328.5,-245.7 328.5,-267.7 420.5,-267.7 420.5,-245.7 328.5,-245.7"/>
<text text-anchor="start" x="331.5" y="-253.4" font-family="Helvetica,sans-Serif" font-size="11.00" fill="#000000">varchar[10]</text>
<polygon fill="none" stroke="#000000" points="223.5,-223.7 223.5,-245.7 328.5,-245.7 328.5,-223.7 223.5,-223.7"/>
<image xlink:href="../../images/foreignKeys.png" width="11px" height="12px" preserveAspectRatio="xMinYMin meet" x="228.5" y="-240.7"/>
<text text-anchor="start" x="243.5" y="-230.8" font-family="Helvetica,sans-Serif" font-size="11.00" fill="#000000">TAXONID</text>
<polygon fill="none" stroke="#000000" points="328.5,-223.7 328.5,-245.7 420.5,-245.7 420.5,-223.7 328.5,-223.7"/>
<text text-anchor="start" x="331.5" y="-231.4" font-family="Helvetica,sans-Serif" font-size="11.00" fill="#000000">int4[10]</text>
<polygon fill="none" stroke="#000000" points="223.5,-201.7 223.5,-223.7 328.5,-223.7 328.5,-201.7 223.5,-201.7"/>
<text text-anchor="start" x="243.5" y="-208.8" font-family="Helvetica,sans-Serif" font-size="11.00" fill="#000000">CREATED_AT</text>
<polygon fill="none" stroke="#000000" points="328.5,-201.7 328.5,-223.7 420.5,-223.7 420.5,-201.7 328.5,-201.7"/>
<text text-anchor="start" x="331.1023" y="-209.4" font-family="Helvetica,sans-Serif" font-size="11.00" fill="#000000">timestamptz[35,6]</text>
<polygon fill="none" stroke="#000000" points="223.5,-179.7 223.5,-201.7 328.5,-201.7 328.5,-179.7 223.5,-179.7"/>
<text text-anchor="start" x="243.5" y="-186.8" font-family="Helvetica,sans-Serif" font-size="11.00" fill="#000000">UPDATED_AT</text>
<polygon fill="none" stroke="#000000" points="328.5,-179.7 328.5,-201.7 420.5,-201.7 420.5,-179.7 328.5,-179.7"/>
<text text-anchor="start" x="331.1023" y="-187.4" font-family="Helvetica,sans-Serif" font-size="11.00" fill="#000000">timestamptz[35,6]</text>
<polygon fill="none" stroke="#000000" points="223.5,-157.7 223.5,-179.7 328.5,-179.7 328.5,-157.7 223.5,-157.7"/>
<image xlink:href="../../images/foreignKeys.png" width="11px" height="12px" preserveAspectRatio="xMinYMin meet" x="228.5" y="-174.7"/>
<text text-anchor="start" x="243.5" y="-164.8" font-family="Helvetica,sans-Serif" font-size="11.00" fill="#000000">DATASETID</text>
<polygon fill="none" stroke="#000000" points="328.5,-157.7 328.5,-179.7 420.5,-179.7 420.5,-157.7 328.5,-157.7"/>
<text text-anchor="start" x="331.5" y="-165.4" font-family="Helvetica,sans-Serif" font-size="11.00" fill="#000000">int4[10]</text>
<polygon fill="#ffffff" stroke="transparent" points="223.5,-138.7 223.5,-157.7 253.5,-157.7 253.5,-138.7 223.5,-138.7"/>
<polygon fill="none" stroke="#000000" points="223.5,-138.7 223.5,-157.7 253.5,-157.7 253.5,-138.7 223.5,-138.7"/>
<text text-anchor="start" x="226.5" y="-144.8" font-family="Helvetica,sans-Serif" font-size="11.00" fill="#000000">&lt; 4</text>
<polygon fill="#ffffff" stroke="transparent" points="253.5,-138.7 253.5,-157.7 328.5,-157.7 328.5,-138.7 253.5,-138.7"/>
<polygon fill="none" stroke="#000000" points="253.5,-138.7 253.5,-157.7 328.5,-157.7 328.5,-138.7 253.5,-138.7"/>
<text text-anchor="start" x="265.594" y="-144.8" font-family="Helvetica,sans-Serif" font-size="11.00" fill="#000000">18.370 rows</text>
<polygon fill="#ffffff" stroke="transparent" points="328.5,-138.7 328.5,-157.7 420.5,-157.7 420.5,-138.7 328.5,-138.7"/>
<polygon fill="none" stroke="#000000" points="328.5,-138.7 328.5,-157.7 420.5,-157.7 420.5,-138.7 328.5,-138.7"/>
<text text-anchor="start" x="401.9053" y="-144.8" font-family="Helvetica,sans-Serif" font-size="11.00" fill="#000000">3 &gt;</text>
<polygon fill="none" stroke="#000000" stroke-width="2" points="222,-137.7 222,-467.7 421,-467.7 421,-137.7 222,-137.7"/>
</a>
</g>
</g>
<!-- ippd_DataCore&#45;&gt;ippd_Sample -->
<g id="edge1" class="edge">
<title>ippd_DataCore:w&#45;&gt;ippd_Sample:e</title>
<path fill="none" stroke="#000000" d="M478.2206,-578.2547C429.8146,-559.0118 488.0767,-432.7 420.5,-432.7"/>
<polygon fill="#000000" stroke="#000000" points="484.6148,-579.3496 491.8923,-584.2483 488.5574,-580.0248 492.5,-580.7 492.5,-580.7 492.5,-580.7 488.5574,-580.0248 493.1077,-577.1517 484.6148,-579.3496 484.6148,-579.3496"/>
<ellipse fill="none" stroke="#000000" cx="481.4607" cy="-578.8095" rx="3.2" ry="3.2"/>
</g>
<!-- cabah_AnalysisUnit -->
<g id="node3" class="node">
<title>cabah_AnalysisUnit</title>
<g id="a_node3"><a xlink:href="../../tables/cabah_AnalysisUnit.html" xlink:title="cabah_AnalysisUnit" target="_top">
<polygon fill="#ffffff" stroke="transparent" points="13.5,-400.2 13.5,-527.2 166.5,-527.2 166.5,-400.2 13.5,-400.2"/>
<polygon fill="#f5f5f5" stroke="transparent" points="14,-503.7 14,-526.7 167,-526.7 167,-503.7 14,-503.7"/>
<polygon fill="none" stroke="#000000" points="14,-503.7 14,-526.7 167,-526.7 167,-503.7 14,-503.7"/>
<text text-anchor="start" x="19" y="-512.3" font-family="Helvetica,sans-Serif" font-weight="bold" font-size="11.00" fill="#000000">cabah_AnalysisUnit</text>
<text text-anchor="start" x="132.5219" y="-511.8" font-family="Helvetica,sans-Serif" font-size="11.00" fill="#000000">[table]</text>
<polygon fill="none" stroke="#000000" points="14,-481.7 14,-503.7 167,-503.7 167,-481.7 14,-481.7"/>
<image xlink:href="../../images/primaryKeys.png" width="11px" height="12px" preserveAspectRatio="xMinYMin meet" x="19" y="-498.7"/>
<text text-anchor="start" x="43" y="-488.8" font-family="Helvetica,sans-Serif" font-size="11.00" fill="#000000">ANLYSUNTID</text>
<polygon fill="none" stroke="#000000" points="14,-459.7 14,-481.7 167,-481.7 167,-459.7 14,-459.7"/>
<image xlink:href="../../images/foreignKeys.png" width="11px" height="12px" preserveAspectRatio="xMinYMin meet" x="19" y="-476.7"/>
<text text-anchor="start" x="43" y="-466.8" font-family="Helvetica,sans-Serif" font-size="11.00" fill="#000000">NEO_UNITID</text>
<polygon fill="none" stroke="#000000" points="14,-437.7 14,-459.7 167,-459.7 167,-437.7 14,-437.7"/>
<image xlink:href="../../images/foreignKeys.png" width="11px" height="12px" preserveAspectRatio="xMinYMin meet" x="19" y="-454.7"/>
<text text-anchor="start" x="43" y="-444.8" font-family="Helvetica,sans-Serif" font-size="11.00" fill="#000000">FACIESID</text>
<polygon fill="none" stroke="#000000" points="14,-418.7 14,-437.7 167,-437.7 167,-418.7 14,-418.7"/>
<text text-anchor="start" x="17" y="-424.8" font-family="Helvetica,sans-Serif" font-size="11.00" fill="#000000">...</text>
<polygon fill="#ffffff" stroke="transparent" points="14,-399.7 14,-418.7 58,-418.7 58,-399.7 14,-399.7"/>
<polygon fill="none" stroke="#000000" points="14,-399.7 14,-418.7 58,-418.7 58,-399.7 14,-399.7"/>
<text text-anchor="start" x="17" y="-405.8" font-family="Helvetica,sans-Serif" font-size="11.00" fill="#000000">&lt; 2</text>
<polygon fill="#ffffff" stroke="transparent" points="58,-399.7 58,-418.7 134,-418.7 134,-399.7 58,-399.7"/>
<polygon fill="none" stroke="#000000" points="58,-399.7 58,-418.7 134,-418.7 134,-399.7 58,-399.7"/>
<text text-anchor="start" x="71.094" y="-405.8" font-family="Helvetica,sans-Serif" font-size="11.00" fill="#000000">15.022 rows</text>
<polygon fill="#ffffff" stroke="transparent" points="134,-399.7 134,-418.7 167,-418.7 167,-399.7 134,-399.7"/>
<polygon fill="none" stroke="#000000" points="134,-399.7 134,-418.7 167,-418.7 167,-399.7 134,-399.7"/>
<text text-anchor="start" x="148.4053" y="-405.8" font-family="Helvetica,sans-Serif" font-size="11.00" fill="#000000">1 &gt;</text>
</a>
</g>
</g>
<!-- ippd_Sample&#45;&gt;cabah_AnalysisUnit -->
<g id="edge2" class="edge">
<title>ippd_Sample:w&#45;&gt;cabah_AnalysisUnit:e</title>
<path fill="none" stroke="#000000" d="M209.5448,-414.655C186.4009,-431.0348 205.3799,-492.7 167,-492.7"/>
<polygon fill="#000000" stroke="#000000" points="215.8031,-412.8814 224.4816,-414.1636 219.6516,-411.7907 223.5,-410.7 223.5,-410.7 223.5,-410.7 219.6516,-411.7907 222.5184,-407.2364 215.8031,-412.8814 215.8031,-412.8814"/>
<ellipse fill="none" stroke="#000000" cx="212.7244" cy="-413.754" rx="3.2" ry="3.2"/>
</g>
<!-- global_DataSetMaster -->
<g id="node4" class="node">
<title>global_DataSetMaster</title>
<g id="a_node4"><a xlink:href="../../tables/global_DataSetMaster.html" xlink:title="global_DataSetMaster" target="_top">
<polygon fill="#ffffff" stroke="transparent" points="8,-208.2 8,-379.2 172,-379.2 172,-208.2 8,-208.2"/>
<polygon fill="#f5f5f5" stroke="transparent" points="8,-355.7 8,-378.7 172,-378.7 172,-355.7 8,-355.7"/>
<polygon fill="none" stroke="#000000" points="8,-355.7 8,-378.7 172,-378.7 172,-355.7 8,-355.7"/>
<text text-anchor="start" x="13" y="-364.3" font-family="Helvetica,sans-Serif" font-weight="bold" font-size="11.00" fill="#000000">global_DataSetMaster</text>
<text text-anchor="start" x="137.5219" y="-363.8" font-family="Helvetica,sans-Serif" font-size="11.00" fill="#000000">[table]</text>
<polygon fill="none" stroke="#000000" points="8,-333.7 8,-355.7 172,-355.7 172,-333.7 8,-333.7"/>
<image xlink:href="../../images/primaryKeys.png" width="11px" height="12px" preserveAspectRatio="xMinYMin meet" x="13" y="-350.7"/>
<text text-anchor="start" x="37" y="-340.8" font-family="Helvetica,sans-Serif" font-size="11.00" fill="#000000">DATASETID</text>
<polygon fill="none" stroke="#000000" points="8,-311.7 8,-333.7 172,-333.7 172,-311.7 8,-311.7"/>
<image xlink:href="../../images/foreignKeys.png" width="11px" height="12px" preserveAspectRatio="xMinYMin meet" x="13" y="-328.7"/>
<text text-anchor="start" x="37" y="-318.8" font-family="Helvetica,sans-Serif" font-size="11.00" fill="#000000">UNITID</text>
<polygon fill="none" stroke="#000000" points="8,-289.7 8,-311.7 172,-311.7 172,-289.7 8,-289.7"/>
<image xlink:href="../../images/foreignKeys.png" width="11px" height="12px" preserveAspectRatio="xMinYMin meet" x="13" y="-306.7"/>
<text text-anchor="start" x="37" y="-296.8" font-family="Helvetica,sans-Serif" font-size="11.00" fill="#000000">DSETTYPEID</text>
<polygon fill="#ffffff" stroke="transparent" points="8,-267.7 8,-289.7 172,-289.7 172,-267.7 8,-267.7"/>
<polygon fill="none" stroke="#000000" points="8,-267.7 8,-289.7 172,-289.7 172,-267.7 8,-267.7"/>
<text text-anchor="start" x="37" y="-274.8" font-family="Helvetica,sans-Serif" font-size="11.00" fill="#000000">NEODSETID</text>
<polygon fill="none" stroke="#000000" points="8,-245.7 8,-267.7 172,-267.7 172,-245.7 8,-245.7"/>
<image xlink:href="../../images/foreignKeys.png" width="11px" height="12px" preserveAspectRatio="xMinYMin meet" x="13" y="-262.7"/>
<text text-anchor="start" x="37" y="-252.8" font-family="Helvetica,sans-Serif" font-size="11.00" fill="#000000">DSETSOURCE</text>
<polygon fill="none" stroke="#000000" points="8,-226.7 8,-245.7 172,-245.7 172,-226.7 8,-226.7"/>
<text text-anchor="start" x="11" y="-232.8" font-family="Helvetica,sans-Serif" font-size="11.00" fill="#000000">...</text>
<polygon fill="#ffffff" stroke="transparent" points="8,-207.7 8,-226.7 65,-226.7 65,-207.7 8,-207.7"/>
<polygon fill="none" stroke="#000000" points="8,-207.7 8,-226.7 65,-226.7 65,-207.7 8,-207.7"/>
<text text-anchor="start" x="11" y="-213.8" font-family="Helvetica,sans-Serif" font-size="11.00" fill="#000000">&lt; 3</text>
<polygon fill="#ffffff" stroke="transparent" points="65,-207.7 65,-226.7 133,-226.7 133,-207.7 65,-207.7"/>
<polygon fill="none" stroke="#000000" points="65,-207.7 65,-226.7 133,-226.7 133,-207.7 65,-207.7"/>
<text text-anchor="start" x="85.3807" y="-213.8" font-family="Helvetica,sans-Serif" font-size="11.00" fill="#000000">311 rows</text>
<polygon fill="#ffffff" stroke="transparent" points="133,-207.7 133,-226.7 172,-226.7 172,-207.7 133,-207.7"/>
<polygon fill="none" stroke="#000000" points="133,-207.7 133,-226.7 172,-226.7 172,-207.7 133,-207.7"/>
<text text-anchor="start" x="153.4053" y="-213.8" font-family="Helvetica,sans-Serif" font-size="11.00" fill="#000000">4 &gt;</text>
</a>
</g>
</g>
<!-- ippd_Sample&#45;&gt;global_DataSetMaster -->
<g id="edge3" class="edge">
<title>ippd_Sample:w&#45;&gt;global_DataSetMaster:e</title>
<path fill="none" stroke="#000000" stroke-dasharray="5,2" d="M209.0365,-171.188C156.7239,-192.5799 247.7716,-344.7 172,-344.7"/>
<polygon fill="#000000" stroke="#000000" points="215.6158,-170.0563 224.1103,-172.2479 219.5579,-169.3781 223.5,-168.7 223.5,-168.7 223.5,-168.7 219.5579,-169.3781 222.8897,-165.1521 215.6158,-170.0563 215.6158,-170.0563"/>
<ellipse fill="none" stroke="#000000" cx="212.4621" cy="-170.5988" rx="3.2" ry="3.2"/>
</g>
<!-- ippd_Sample&#45;&gt;global_DataSetMaster -->
<g id="edge4" class="edge">
<title>ippd_Sample:w&#45;&gt;global_DataSetMaster:e</title>
<path fill="none" stroke="#000000" d="M209.462,-385.0401C180.5484,-365.9534 220.0775,-278.7 172,-278.7"/>
<polygon fill="#000000" stroke="#000000" points="215.7588,-386.6817 222.5918,-392.1836 219.6294,-387.6909 223.5,-388.7 223.5,-388.7 223.5,-388.7 219.6294,-387.6909 224.4082,-385.2164 215.7588,-386.6817 215.7588,-386.6817"/>
<ellipse fill="none" stroke="#000000" cx="212.6623" cy="-385.8744" rx="3.2" ry="3.2"/>
</g>
<!-- cabah_taxaID -->
<g id="node5" class="node">
<title>cabah_taxaID</title>
<g id="a_node5"><a xlink:href="../../tables/cabah_taxaID.html" xlink:title="cabah_taxaID" target="_top">
<polygon fill="#ffffff" stroke="transparent" points="32,-38.2 32,-187.2 148,-187.2 148,-38.2 32,-38.2"/>
<polygon fill="#f5f5f5" stroke="transparent" points="32,-163.7 32,-186.7 148,-186.7 148,-163.7 32,-163.7"/>
<polygon fill="none" stroke="#000000" points="32,-163.7 32,-186.7 148,-186.7 148,-163.7 32,-163.7"/>
<text text-anchor="start" x="37" y="-172.3" font-family="Helvetica,sans-Serif" font-weight="bold" font-size="11.00" fill="#000000">cabah_taxaID</text>
<text text-anchor="start" x="113.5219" y="-171.8" font-family="Helvetica,sans-Serif" font-size="11.00" fill="#000000">[table]</text>
<polygon fill="none" stroke="#000000" points="32,-141.7 32,-163.7 148,-163.7 148,-141.7 32,-141.7"/>
<image xlink:href="../../images/primaryKeys.png" width="11px" height="12px" preserveAspectRatio="xMinYMin meet" x="37" y="-158.7"/>
<text text-anchor="start" x="60" y="-148.8" font-family="Helvetica,sans-Serif" font-size="11.00" fill="#000000">TAXONID</text>
<polygon fill="none" stroke="#000000" points="32,-119.7 32,-141.7 148,-141.7 148,-119.7 32,-119.7"/>
<image xlink:href="../../images/foreignKeys.png" width="11px" height="12px" preserveAspectRatio="xMinYMin meet" x="37" y="-136.7"/>
<text text-anchor="start" x="60" y="-126.8" font-family="Helvetica,sans-Serif" font-size="11.00" fill="#000000">PARENTID</text>
<polygon fill="none" stroke="#000000" points="32,-97.7 32,-119.7 148,-119.7 148,-97.7 32,-97.7"/>
<image xlink:href="../../images/foreignKeys.png" width="11px" height="12px" preserveAspectRatio="xMinYMin meet" x="37" y="-114.7"/>
<text text-anchor="start" x="60" y="-104.8" font-family="Helvetica,sans-Serif" font-size="11.00" fill="#000000">TAXAGRPID</text>
<polygon fill="none" stroke="#000000" points="32,-75.7 32,-97.7 148,-97.7 148,-75.7 32,-75.7"/>
<image xlink:href="../../images/foreignKeys.png" width="11px" height="12px" preserveAspectRatio="xMinYMin meet" x="37" y="-92.7"/>
<text text-anchor="start" x="60" y="-82.8" font-family="Helvetica,sans-Serif" font-size="11.00" fill="#000000">NEOVALORID</text>
<polygon fill="none" stroke="#000000" points="32,-56.7 32,-75.7 148,-75.7 148,-56.7 32,-56.7"/>
<text text-anchor="start" x="35" y="-62.8" font-family="Helvetica,sans-Serif" font-size="11.00" fill="#000000">...</text>
<polygon fill="#ffffff" stroke="transparent" points="32,-37.7 32,-56.7 57,-56.7 57,-37.7 32,-37.7"/>
<polygon fill="none" stroke="#000000" points="32,-37.7 32,-56.7 57,-56.7 57,-37.7 32,-37.7"/>
<text text-anchor="start" x="35" y="-43.8" font-family="Helvetica,sans-Serif" font-size="11.00" fill="#000000">&lt; 3</text>
<polygon fill="#ffffff" stroke="transparent" points="57,-37.7 57,-56.7 124,-56.7 124,-37.7 57,-37.7"/>
<polygon fill="none" stroke="#000000" points="57,-37.7 57,-56.7 124,-56.7 124,-37.7 57,-37.7"/>
<text text-anchor="start" x="61.094" y="-43.8" font-family="Helvetica,sans-Serif" font-size="11.00" fill="#000000">47.144 rows</text>
<polygon fill="#ffffff" stroke="transparent" points="124,-37.7 124,-56.7 148,-56.7 148,-37.7 124,-37.7"/>
<polygon fill="none" stroke="#000000" points="124,-37.7 124,-56.7 148,-56.7 148,-37.7 124,-37.7"/>
<text text-anchor="start" x="129.4053" y="-43.8" font-family="Helvetica,sans-Serif" font-size="11.00" fill="#000000">3 &gt;</text>
</a>
</g>
</g>
<!-- ippd_Sample&#45;&gt;cabah_taxaID -->
<g id="edge5" class="edge">
<title>ippd_Sample:w&#45;&gt;cabah_taxaID:e</title>
<path fill="none" stroke="#000000" d="M209.2666,-231.7816C178.3642,-217.1742 191.9277,-152.7 148,-152.7"/>
<polygon fill="#000000" stroke="#000000" points="215.663,-233.0931 222.7769,-238.2266 219.5815,-233.8965 223.5,-234.7 223.5,-234.7 223.5,-234.7 219.5815,-233.8965 224.2231,-231.1734 215.663,-233.0931 215.663,-233.0931"/>
<ellipse fill="none" stroke="#000000" cx="212.5283" cy="-232.4503" rx="3.2" ry="3.2"/>
</g>
<!-- ippd_sampleages -->
<g id="node6" class="node">
<title>ippd_sampleages</title>
<g id="a_node6"><a xlink:href="../../tables/ippd_sampleages.html" xlink:title="ippd_sampleages" target="_top">
<polygon fill="#ffffff" stroke="transparent" points="485,-362.2 485,-489.2 624,-489.2 624,-362.2 485,-362.2"/>
<polygon fill="#f5f5f5" stroke="transparent" points="485.5,-465.7 485.5,-488.7 624.5,-488.7 624.5,-465.7 485.5,-465.7"/>
<polygon fill="none" stroke="#000000" points="485.5,-465.7 485.5,-488.7 624.5,-488.7 624.5,-465.7 485.5,-465.7"/>
<text text-anchor="start" x="490.5" y="-474.3" font-family="Helvetica,sans-Serif" font-weight="bold" font-size="11.00" fill="#000000">ippd_sampleages</text>
<text text-anchor="start" x="590.0219" y="-473.8" font-family="Helvetica,sans-Serif" font-size="11.00" fill="#000000">[table]</text>
<polygon fill="none" stroke="#000000" points="485.5,-443.7 485.5,-465.7 624.5,-465.7 624.5,-443.7 485.5,-443.7"/>
<image xlink:href="../../images/primaryKeys.png" width="11px" height="12px" preserveAspectRatio="xMinYMin meet" x="490.5" y="-460.7"/>
<text text-anchor="start" x="514.5" y="-450.8" font-family="Helvetica,sans-Serif" font-size="11.00" fill="#000000">SMPAGEID</text>
<polygon fill="none" stroke="#000000" points="485.5,-421.7 485.5,-443.7 624.5,-443.7 624.5,-421.7 485.5,-421.7"/>
<image xlink:href="../../images/foreignKeys.png" width="11px" height="12px" preserveAspectRatio="xMinYMin meet" x="490.5" y="-438.7"/>
<text text-anchor="start" x="514.5" y="-428.8" font-family="Helvetica,sans-Serif" font-size="11.00" fill="#000000">SAMPLEID</text>
<polygon fill="none" stroke="#000000" points="485.5,-399.7 485.5,-421.7 624.5,-421.7 624.5,-399.7 485.5,-399.7"/>
<image xlink:href="../../images/foreignKeys.png" width="11px" height="12px" preserveAspectRatio="xMinYMin meet" x="490.5" y="-416.7"/>
<text text-anchor="start" x="514.5" y="-406.8" font-family="Helvetica,sans-Serif" font-size="11.00" fill="#000000">CHRONLGYID</text>
<polygon fill="none" stroke="#000000" points="485.5,-380.7 485.5,-399.7 624.5,-399.7 624.5,-380.7 485.5,-380.7"/>
<text text-anchor="start" x="488.5" y="-386.8" font-family="Helvetica,sans-Serif" font-size="11.00" fill="#000000">...</text>
<polygon fill="#ffffff" stroke="transparent" points="485.5,-361.7 485.5,-380.7 526.5,-380.7 526.5,-361.7 485.5,-361.7"/>
<polygon fill="none" stroke="#000000" points="485.5,-361.7 485.5,-380.7 526.5,-380.7 526.5,-361.7 485.5,-361.7"/>
<text text-anchor="start" x="488.5" y="-367.8" font-family="Helvetica,sans-Serif" font-size="11.00" fill="#000000">&lt; 2</text>
<polygon fill="#ffffff" stroke="transparent" points="526.5,-361.7 526.5,-380.7 601.5,-380.7 601.5,-361.7 526.5,-361.7"/>
<polygon fill="none" stroke="#000000" points="526.5,-361.7 526.5,-380.7 601.5,-380.7 601.5,-361.7 526.5,-361.7"/>
<text text-anchor="start" x="538.594" y="-367.8" font-family="Helvetica,sans-Serif" font-size="11.00" fill="#000000">18.794 rows</text>
<polygon fill="#ffffff" stroke="transparent" points="601.5,-361.7 601.5,-380.7 624.5,-380.7 624.5,-361.7 601.5,-361.7"/>
<polygon fill="none" stroke="#000000" points="601.5,-361.7 601.5,-380.7 624.5,-380.7 624.5,-361.7 601.5,-361.7"/>
<text text-anchor="start" x="615.3862" y="-367.8" font-family="Helvetica,sans-Serif" font-size="11.00" fill="#000000"> &#160;</text>
</a>
</g>
</g>
<!-- ippd_sampleages&#45;&gt;ippd_Sample -->
<g id="edge6" class="edge">
<title>ippd_sampleages:w&#45;&gt;ippd_Sample:e</title>
<path fill="none" stroke="#000000" d="M470.9889,-432.7C453.0526,-432.7 443.8594,-432.7 420.5,-432.7"/>
<polygon fill="#000000" stroke="#000000" points="477.5,-432.7001 485.5,-436.3 481.5,-432.7 485.5,-432.7 485.5,-432.7 485.5,-432.7 481.5,-432.7 485.5,-429.1 477.5,-432.7001 477.5,-432.7001"/>
<ellipse fill="none" stroke="#000000" cx="474.3" cy="-432.7001" rx="3.2" ry="3.2"/>
</g>
<!-- ippd_samplekeywords -->
<g id="node7" class="node">
<title>ippd_samplekeywords</title>
<g id="a_node7"><a xlink:href="../../tables/ippd_samplekeywords.html" xlink:title="ippd_samplekeywords" target="_top">
<polygon fill="#ffffff" stroke="transparent" points="471,-236.2 471,-341.2 638,-341.2 638,-236.2 471,-236.2"/>
<polygon fill="#f5f5f5" stroke="transparent" points="471.5,-317.7 471.5,-340.7 638.5,-340.7 638.5,-317.7 471.5,-317.7"/>
<polygon fill="none" stroke="#000000" points="471.5,-317.7 471.5,-340.7 638.5,-340.7 638.5,-317.7 471.5,-317.7"/>
<text text-anchor="start" x="476.5" y="-326.3" font-family="Helvetica,sans-Serif" font-weight="bold" font-size="11.00" fill="#000000">ippd_samplekeywords</text>
<text text-anchor="start" x="604.0219" y="-325.8" font-family="Helvetica,sans-Serif" font-size="11.00" fill="#000000">[table]</text>
<polygon fill="none" stroke="#000000" points="471.5,-295.7 471.5,-317.7 638.5,-317.7 638.5,-295.7 471.5,-295.7"/>
<image xlink:href="../../images/primaryKeys.png" width="11px" height="12px" preserveAspectRatio="xMinYMin meet" x="476.5" y="-312.7"/>
<text text-anchor="start" x="500.5" y="-302.8" font-family="Helvetica,sans-Serif" font-size="11.00" fill="#000000">SAMPLEID</text>
<polygon fill="none" stroke="#000000" points="471.5,-273.7 471.5,-295.7 638.5,-295.7 638.5,-273.7 471.5,-273.7"/>
<image xlink:href="../../images/primaryKeys.png" width="11px" height="12px" preserveAspectRatio="xMinYMin meet" x="476.5" y="-290.7"/>
<text text-anchor="start" x="500.5" y="-280.8" font-family="Helvetica,sans-Serif" font-size="11.00" fill="#000000">KEYWORDID</text>
<polygon fill="none" stroke="#000000" points="471.5,-254.7 471.5,-273.7 638.5,-273.7 638.5,-254.7 471.5,-254.7"/>
<text text-anchor="start" x="474.5" y="-260.8" font-family="Helvetica,sans-Serif" font-size="11.00" fill="#000000">...</text>
<polygon fill="#ffffff" stroke="transparent" points="471.5,-235.7 471.5,-254.7 537.5,-254.7 537.5,-235.7 471.5,-235.7"/>
<polygon fill="none" stroke="#000000" points="471.5,-235.7 471.5,-254.7 537.5,-254.7 537.5,-235.7 471.5,-235.7"/>
<text text-anchor="start" x="474.5" y="-241.8" font-family="Helvetica,sans-Serif" font-size="11.00" fill="#000000">&lt; 2</text>
<polygon fill="#ffffff" stroke="transparent" points="537.5,-235.7 537.5,-254.7 603.5,-254.7 603.5,-235.7 537.5,-235.7"/>
<polygon fill="none" stroke="#000000" points="537.5,-235.7 537.5,-254.7 603.5,-254.7 603.5,-235.7 537.5,-235.7"/>
<text text-anchor="start" x="561.9956" y="-241.8" font-family="Helvetica,sans-Serif" font-size="11.00" fill="#000000">68 rows</text>
<polygon fill="#ffffff" stroke="transparent" points="603.5,-235.7 603.5,-254.7 638.5,-254.7 638.5,-235.7 603.5,-235.7"/>
<polygon fill="none" stroke="#000000" points="603.5,-235.7 603.5,-254.7 638.5,-254.7 638.5,-235.7 603.5,-235.7"/>
<text text-anchor="start" x="629.3862" y="-241.8" font-family="Helvetica,sans-Serif" font-size="11.00" fill="#000000"> &#160;</text>
</a>
</g>
</g>
<!-- ippd_samplekeywords&#45;&gt;ippd_Sample -->
<g id="edge7" class="edge">
<title>ippd_samplekeywords:w&#45;&gt;ippd_Sample:e</title>
<path fill="none" stroke="#000000" d="M457.2844,-310.0702C423.4826,-330.1077 475.0136,-432.7 420.5,-432.7"/>
<polygon fill="#000000" stroke="#000000" points="463.7158,-308.5455 472.3305,-310.2029 467.6079,-307.6228 471.5,-306.7 471.5,-306.7 471.5,-306.7 467.6079,-307.6228 470.6695,-303.1971 463.7158,-308.5455 463.7158,-308.5455"/>
<ellipse fill="none" stroke="#000000" cx="460.6021" cy="-309.2837" rx="3.2" ry="3.2"/>
</g>
</g>
</svg>
