<?xml version="1.0" encoding="UTF-8" standalone="no"?>
<!DOCTYPE svg PUBLIC "-//W3C//DTD SVG 1.1//EN"
 "http://www.w3.org/Graphics/SVG/1.1/DTD/svg11.dtd">
<!-- Generated by graphviz version 2.40.1 (20161225.0304)
 -->
<!-- Title: twoDegreesRelationshipsDiagramImplied Pages: 1 -->
<svg width="808pt" height="537pt"
 viewBox="0.00 0.00 808.00 537.20" xmlns="http://www.w3.org/2000/svg" xmlns:xlink="http://www.w3.org/1999/xlink">
<g id="graph0" class="graph" transform="scale(1 1) rotate(0) translate(4 533.2)">
<title>twoDegreesRelationshipsDiagramImplied</title>
<polygon fill="#ffffff" stroke="transparent" points="-4,4 -4,-533.2 804,-533.2 804,4 -4,4"/>
<text text-anchor="middle" x="72.4936" y="-7.3" font-family="Helvetica,sans-Serif" font-size="11.00" fill="#000000">Generated by SchemaSpy</text>
<!-- cabah_AnalysisUnit -->
<g id="node1" class="node">
<title>cabah_AnalysisUnit</title>
<g id="a_node1"><a xlink:href="../../tables/cabah_AnalysisUnit.html" xlink:title="cabah_AnalysisUnit" target="_top">
<polygon fill="#ffffff" stroke="transparent" points="205.5,-394.2 205.5,-455.2 358.5,-455.2 358.5,-394.2 205.5,-394.2"/>
<polygon fill="#f5f5f5" stroke="transparent" points="206,-431.7 206,-454.7 359,-454.7 359,-431.7 206,-431.7"/>
<polygon fill="none" stroke="#000000" points="206,-431.7 206,-454.7 359,-454.7 359,-431.7 206,-431.7"/>
<text text-anchor="start" x="211" y="-440.3" font-family="Helvetica,sans-Serif" font-weight="bold" font-size="11.00" fill="#000000">cabah_AnalysisUnit</text>
<text text-anchor="start" x="324.5219" y="-439.8" font-family="Helvetica,sans-Serif" font-size="11.00" fill="#000000">[table]</text>
<polygon fill="none" stroke="#000000" points="206,-412.7 206,-431.7 359,-431.7 359,-412.7 206,-412.7"/>
<text text-anchor="start" x="209" y="-418.8" font-family="Helvetica,sans-Serif" font-size="11.00" fill="#000000">...</text>
<polygon fill="#ffffff" stroke="transparent" points="206,-393.7 206,-412.7 250,-412.7 250,-393.7 206,-393.7"/>
<polygon fill="none" stroke="#000000" points="206,-393.7 206,-412.7 250,-412.7 250,-393.7 206,-393.7"/>
<text text-anchor="start" x="209" y="-399.8" font-family="Helvetica,sans-Serif" font-size="11.00" fill="#000000">&lt; 2</text>
<polygon fill="#ffffff" stroke="transparent" points="250,-393.7 250,-412.7 326,-412.7 326,-393.7 250,-393.7"/>
<polygon fill="none" stroke="#000000" points="250,-393.7 250,-412.7 326,-412.7 326,-393.7 250,-393.7"/>
<text text-anchor="start" x="263.094" y="-399.8" font-family="Helvetica,sans-Serif" font-size="11.00" fill="#000000">15.022 rows</text>
<polygon fill="#ffffff" stroke="transparent" points="326,-393.7 326,-412.7 359,-412.7 359,-393.7 326,-393.7"/>
<polygon fill="none" stroke="#000000" points="326,-393.7 326,-412.7 359,-412.7 359,-393.7 326,-393.7"/>
<text text-anchor="start" x="340.4053" y="-399.8" font-family="Helvetica,sans-Serif" font-size="11.00" fill="#000000">1 &gt;</text>
</a>
</g>
</g>
<!-- global_UnitMaster -->
<g id="node2" class="node">
<title>global_UnitMaster</title>
<g id="a_node2"><a xlink:href="../../tables/global_UnitMaster.html" xlink:title="global_UnitMaster" target="_top">
<polygon fill="#ffffff" stroke="transparent" points="8,-289.2 8,-350.2 151,-350.2 151,-289.2 8,-289.2"/>
<polygon fill="#f5f5f5" stroke="transparent" points="8.5,-326.7 8.5,-349.7 151.5,-349.7 151.5,-326.7 8.5,-326.7"/>
<polygon fill="none" stroke="#000000" points="8.5,-326.7 8.5,-349.7 151.5,-349.7 151.5,-326.7 8.5,-326.7"/>
<text text-anchor="start" x="13.5" y="-335.3" font-family="Helvetica,sans-Serif" font-weight="bold" font-size="11.00" fill="#000000">global_UnitMaster</text>
<text text-anchor="start" x="117.0219" y="-334.8" font-family="Helvetica,sans-Serif" font-size="11.00" fill="#000000">[table]</text>
<polygon fill="none" stroke="#000000" points="8.5,-307.7 8.5,-326.7 151.5,-326.7 151.5,-307.7 8.5,-307.7"/>
<text text-anchor="start" x="11.5" y="-313.8" font-family="Helvetica,sans-Serif" font-size="11.00" fill="#000000">...</text>
<polygon fill="#ffffff" stroke="transparent" points="8.5,-288.7 8.5,-307.7 54.5,-307.7 54.5,-288.7 8.5,-288.7"/>
<polygon fill="none" stroke="#000000" points="8.5,-288.7 8.5,-307.7 54.5,-307.7 54.5,-288.7 8.5,-288.7"/>
<text text-anchor="start" x="11.5" y="-294.8" font-family="Helvetica,sans-Serif" font-size="11.00" fill="#000000">&lt; 5</text>
<polygon fill="#ffffff" stroke="transparent" points="54.5,-288.7 54.5,-307.7 117.5,-307.7 117.5,-288.7 54.5,-288.7"/>
<polygon fill="none" stroke="#000000" points="54.5,-288.7 54.5,-307.7 117.5,-307.7 117.5,-288.7 54.5,-288.7"/>
<text text-anchor="start" x="69.8807" y="-294.8" font-family="Helvetica,sans-Serif" font-size="11.00" fill="#000000">607 rows</text>
<polygon fill="#ffffff" stroke="transparent" points="117.5,-288.7 117.5,-307.7 151.5,-307.7 151.5,-288.7 117.5,-288.7"/>
<polygon fill="none" stroke="#000000" points="117.5,-288.7 117.5,-307.7 151.5,-307.7 151.5,-288.7 117.5,-288.7"/>
<text text-anchor="start" x="132.9053" y="-294.8" font-family="Helvetica,sans-Serif" font-size="11.00" fill="#000000">9 &gt;</text>
</a>
</g>
</g>
<!-- cabah_AnalysisUnit&#45;&gt;global_UnitMaster -->
<g id="edge1" class="edge">
<title>cabah_AnalysisUnit:w&#45;&gt;global_UnitMaster:e</title>
<path fill="none" stroke="#000000" d="M191.8057,-417.963C163.5737,-399.2584 198.1223,-316.7 151.5,-316.7"/>
<polygon fill="#000000" stroke="#000000" points="198.2636,-419.6632 205.0834,-425.1814 202.1318,-420.6816 206,-421.7 206,-421.7 206,-421.7 202.1318,-420.6816 206.9166,-418.2186 198.2636,-419.6632 198.2636,-419.6632"/>
<ellipse fill="none" stroke="#000000" cx="195.1691" cy="-418.8484" rx="3.2" ry="3.2"/>
</g>
<!-- cabah_taxaID -->
<g id="node3" class="node">
<title>cabah_taxaID</title>
<g id="a_node3"><a xlink:href="../../tables/cabah_taxaID.html" xlink:title="cabah_taxaID" target="_top">
<polygon fill="#ffffff" stroke="transparent" points="224,-38.2 224,-99.2 340,-99.2 340,-38.2 224,-38.2"/>
<polygon fill="#f5f5f5" stroke="transparent" points="224,-75.7 224,-98.7 340,-98.7 340,-75.7 224,-75.7"/>
<polygon fill="none" stroke="#000000" points="224,-75.7 224,-98.7 340,-98.7 340,-75.7 224,-75.7"/>
<text text-anchor="start" x="229" y="-84.3" font-family="Helvetica,sans-Serif" font-weight="bold" font-size="11.00" fill="#000000">cabah_taxaID</text>
<text text-anchor="start" x="305.5219" y="-83.8" font-family="Helvetica,sans-Serif" font-size="11.00" fill="#000000">[table]</text>
<polygon fill="none" stroke="#000000" points="224,-56.7 224,-75.7 340,-75.7 340,-56.7 224,-56.7"/>
<text text-anchor="start" x="227" y="-62.8" font-family="Helvetica,sans-Serif" font-size="11.00" fill="#000000">...</text>
<polygon fill="#ffffff" stroke="transparent" points="224,-37.7 224,-56.7 249,-56.7 249,-37.7 224,-37.7"/>
<polygon fill="none" stroke="#000000" points="224,-37.7 224,-56.7 249,-56.7 249,-37.7 224,-37.7"/>
<text text-anchor="start" x="227" y="-43.8" font-family="Helvetica,sans-Serif" font-size="11.00" fill="#000000">&lt; 3</text>
<polygon fill="#ffffff" stroke="transparent" points="249,-37.7 249,-56.7 316,-56.7 316,-37.7 249,-37.7"/>
<polygon fill="none" stroke="#000000" points="249,-37.7 249,-56.7 316,-56.7 316,-37.7 249,-37.7"/>
<text text-anchor="start" x="253.094" y="-43.8" font-family="Helvetica,sans-Serif" font-size="11.00" fill="#000000">47.144 rows</text>
<polygon fill="#ffffff" stroke="transparent" points="316,-37.7 316,-56.7 340,-56.7 340,-37.7 316,-37.7"/>
<polygon fill="none" stroke="#000000" points="316,-37.7 316,-56.7 340,-56.7 340,-37.7 316,-37.7"/>
<text text-anchor="start" x="321.4053" y="-43.8" font-family="Helvetica,sans-Serif" font-size="11.00" fill="#000000">3 &gt;</text>
</a>
</g>
</g>
<!-- neo_contacts -->
<g id="node4" class="node">
<title>neo_contacts</title>
<g id="a_node4"><a xlink:href="../../tables/neo_contacts.html" xlink:title="neo_contacts" target="_top">
<polygon fill="#ffffff" stroke="transparent" points="21.5,-71.2 21.5,-132.2 137.5,-132.2 137.5,-71.2 21.5,-71.2"/>
<polygon fill="#f5f5f5" stroke="transparent" points="21.5,-108.7 21.5,-131.7 137.5,-131.7 137.5,-108.7 21.5,-108.7"/>
<polygon fill="none" stroke="#000000" points="21.5,-108.7 21.5,-131.7 137.5,-131.7 137.5,-108.7 21.5,-108.7"/>
<text text-anchor="start" x="26.5" y="-117.3" font-family="Helvetica,sans-Serif" font-weight="bold" font-size="11.00" fill="#000000">neo_contacts</text>
<text text-anchor="start" x="103.0219" y="-116.8" font-family="Helvetica,sans-Serif" font-size="11.00" fill="#000000">[table]</text>
<polygon fill="none" stroke="#000000" points="21.5,-89.7 21.5,-108.7 137.5,-108.7 137.5,-89.7 21.5,-89.7"/>
<text text-anchor="start" x="24.5" y="-95.8" font-family="Helvetica,sans-Serif" font-size="11.00" fill="#000000">...</text>
<polygon fill="#ffffff" stroke="transparent" points="21.5,-70.7 21.5,-89.7 46.5,-89.7 46.5,-70.7 21.5,-70.7"/>
<polygon fill="none" stroke="#000000" points="21.5,-70.7 21.5,-89.7 46.5,-89.7 46.5,-70.7 21.5,-70.7"/>
<text text-anchor="start" x="24.5" y="-76.8" font-family="Helvetica,sans-Serif" font-size="11.00" fill="#000000">&lt; 1</text>
<polygon fill="#ffffff" stroke="transparent" points="46.5,-70.7 46.5,-89.7 113.5,-89.7 113.5,-70.7 46.5,-70.7"/>
<polygon fill="none" stroke="#000000" points="46.5,-70.7 46.5,-89.7 113.5,-89.7 113.5,-70.7 46.5,-70.7"/>
<text text-anchor="start" x="50.594" y="-76.8" font-family="Helvetica,sans-Serif" font-size="11.00" fill="#000000">13.396 rows</text>
<polygon fill="#ffffff" stroke="transparent" points="113.5,-70.7 113.5,-89.7 137.5,-89.7 137.5,-70.7 113.5,-70.7"/>
<polygon fill="none" stroke="#000000" points="113.5,-70.7 113.5,-89.7 137.5,-89.7 137.5,-70.7 113.5,-70.7"/>
<text text-anchor="start" x="118.9053" y="-76.8" font-family="Helvetica,sans-Serif" font-size="11.00" fill="#000000">2 &gt;</text>
</a>
</g>
</g>
<!-- cabah_taxaID&#45;&gt;neo_contacts -->
<g id="edge2" class="edge">
<title>cabah_taxaID:w&#45;&gt;neo_contacts:e</title>
<path fill="none" stroke="#000000" d="M209.3872,-67.2917C181.0841,-73.8835 173.1823,-98.7 137.5,-98.7"/>
<polygon fill="#000000" stroke="#000000" points="216.047,-66.5663 224.3898,-69.2788 220.0235,-66.1332 224,-65.7 224,-65.7 224,-65.7 220.0235,-66.1332 223.6102,-62.1212 216.047,-66.5663 216.047,-66.5663"/>
<ellipse fill="none" stroke="#000000" cx="212.8659" cy="-66.9128" rx="3.2" ry="3.2"/>
</g>
<!-- global_DataSetMaster -->
<g id="node5" class="node">
<title>global_DataSetMaster</title>
<g id="a_node5"><a xlink:href="../../tables/global_DataSetMaster.html" xlink:title="global_DataSetMaster" target="_top">
<polygon fill="#ffffff" stroke="transparent" points="200,-312.2 200,-373.2 364,-373.2 364,-312.2 200,-312.2"/>
<polygon fill="#f5f5f5" stroke="transparent" points="200,-349.7 200,-372.7 364,-372.7 364,-349.7 200,-349.7"/>
<polygon fill="none" stroke="#000000" points="200,-349.7 200,-372.7 364,-372.7 364,-349.7 200,-349.7"/>
<text text-anchor="start" x="205" y="-358.3" font-family="Helvetica,sans-Serif" font-weight="bold" font-size="11.00" fill="#000000">global_DataSetMaster</text>
<text text-anchor="start" x="329.5219" y="-357.8" font-family="Helvetica,sans-Serif" font-size="11.00" fill="#000000">[table]</text>
<polygon fill="none" stroke="#000000" points="200,-330.7 200,-349.7 364,-349.7 364,-330.7 200,-330.7"/>
<text text-anchor="start" x="203" y="-336.8" font-family="Helvetica,sans-Serif" font-size="11.00" fill="#000000">...</text>
<polygon fill="#ffffff" stroke="transparent" points="200,-311.7 200,-330.7 257,-330.7 257,-311.7 200,-311.7"/>
<polygon fill="none" stroke="#000000" points="200,-311.7 200,-330.7 257,-330.7 257,-311.7 200,-311.7"/>
<text text-anchor="start" x="203" y="-317.8" font-family="Helvetica,sans-Serif" font-size="11.00" fill="#000000">&lt; 3</text>
<polygon fill="#ffffff" stroke="transparent" points="257,-311.7 257,-330.7 325,-330.7 325,-311.7 257,-311.7"/>
<polygon fill="none" stroke="#000000" points="257,-311.7 257,-330.7 325,-330.7 325,-311.7 257,-311.7"/>
<text text-anchor="start" x="277.3807" y="-317.8" font-family="Helvetica,sans-Serif" font-size="11.00" fill="#000000">311 rows</text>
<polygon fill="#ffffff" stroke="transparent" points="325,-311.7 325,-330.7 364,-330.7 364,-311.7 325,-311.7"/>
<polygon fill="none" stroke="#000000" points="325,-311.7 325,-330.7 364,-330.7 364,-311.7 325,-311.7"/>
<text text-anchor="start" x="345.4053" y="-317.8" font-family="Helvetica,sans-Serif" font-size="11.00" fill="#000000">4 &gt;</text>
</a>
</g>
</g>
<!-- global_DataSetMaster&#45;&gt;global_UnitMaster -->
<g id="edge3" class="edge">
<title>global_DataSetMaster:w&#45;&gt;global_UnitMaster:e</title>
<path fill="none" stroke="#000000" d="M185.7122,-336.1063C174.3081,-329.6375 169.3924,-316.7 151.5,-316.7"/>
<polygon fill="#000000" stroke="#000000" points="192.2417,-337.7485 199.1218,-343.1913 196.1208,-338.7243 200,-339.7 200,-339.7 200,-339.7 196.1208,-338.7243 200.8782,-336.2087 192.2417,-337.7485 192.2417,-337.7485"/>
<ellipse fill="none" stroke="#000000" cx="189.1383" cy="-336.9679" rx="3.2" ry="3.2"/>
</g>
<!-- ippd_DataCore -->
<g id="node6" class="node">
<title>ippd_DataCore</title>
<g id="a_node6"><a xlink:href="../../tables/ippd_DataCore.html" xlink:title="ippd_DataCore" target="_top">
<polygon fill="#ffffff" stroke="transparent" points="621.5,-382.2 621.5,-443.2 745.5,-443.2 745.5,-382.2 621.5,-382.2"/>
<polygon fill="#f5f5f5" stroke="transparent" points="621.5,-419.7 621.5,-442.7 745.5,-442.7 745.5,-419.7 621.5,-419.7"/>
<polygon fill="none" stroke="#000000" points="621.5,-419.7 621.5,-442.7 745.5,-442.7 745.5,-419.7 621.5,-419.7"/>
<text text-anchor="start" x="626.5" y="-428.3" font-family="Helvetica,sans-Serif" font-weight="bold" font-size="11.00" fill="#000000">ippd_DataCore</text>
<text text-anchor="start" x="711.0219" y="-427.8" font-family="Helvetica,sans-Serif" font-size="11.00" fill="#000000">[table]</text>
<polygon fill="none" stroke="#000000" points="621.5,-400.7 621.5,-419.7 745.5,-419.7 745.5,-400.7 621.5,-400.7"/>
<text text-anchor="start" x="624.5" y="-406.8" font-family="Helvetica,sans-Serif" font-size="11.00" fill="#000000">...</text>
<polygon fill="#ffffff" stroke="transparent" points="621.5,-381.7 621.5,-400.7 651.5,-400.7 651.5,-381.7 621.5,-381.7"/>
<polygon fill="none" stroke="#000000" points="621.5,-381.7 621.5,-400.7 651.5,-400.7 651.5,-381.7 621.5,-381.7"/>
<text text-anchor="start" x="624.5" y="-387.8" font-family="Helvetica,sans-Serif" font-size="11.00" fill="#000000">&lt; 2</text>
<polygon fill="#ffffff" stroke="transparent" points="651.5,-381.7 651.5,-400.7 728.5,-400.7 728.5,-381.7 651.5,-381.7"/>
<polygon fill="none" stroke="#000000" points="651.5,-381.7 651.5,-400.7 728.5,-400.7 728.5,-381.7 651.5,-381.7"/>
<text text-anchor="start" x="659.4791" y="-387.8" font-family="Helvetica,sans-Serif" font-size="11.00" fill="#000000">384.434 rows</text>
<polygon fill="#ffffff" stroke="transparent" points="728.5,-381.7 728.5,-400.7 745.5,-400.7 745.5,-381.7 728.5,-381.7"/>
<polygon fill="none" stroke="#000000" points="728.5,-381.7 728.5,-400.7 745.5,-400.7 745.5,-381.7 728.5,-381.7"/>
<text text-anchor="start" x="736.3862" y="-387.8" font-family="Helvetica,sans-Serif" font-size="11.00" fill="#000000"> &#160;</text>
</a>
</g>
</g>
<!-- ippd_Sample -->
<g id="node7" class="node">
<title>ippd_Sample</title>
<g id="a_node7"><a xlink:href="../../tables/ippd_Sample.html" xlink:title="ippd_Sample" target="_top">
<polygon fill="#ffffff" stroke="transparent" points="413,-281.2 413,-452.2 526,-452.2 526,-281.2 413,-281.2"/>
<polygon fill="#f5f5f5" stroke="transparent" points="413.5,-428.7 413.5,-451.7 526.5,-451.7 526.5,-428.7 413.5,-428.7"/>
<polygon fill="none" stroke="#000000" points="413.5,-428.7 413.5,-451.7 526.5,-451.7 526.5,-428.7 413.5,-428.7"/>
<text text-anchor="start" x="418.5" y="-437.3" font-family="Helvetica,sans-Serif" font-weight="bold" font-size="11.00" fill="#000000">ippd_Sample</text>
<text text-anchor="start" x="492.0219" y="-436.8" font-family="Helvetica,sans-Serif" font-size="11.00" fill="#000000">[table]</text>
<polygon fill="none" stroke="#000000" points="413.5,-406.7 413.5,-428.7 526.5,-428.7 526.5,-406.7 413.5,-406.7"/>
<image xlink:href="../../images/primaryKeys.png" width="11px" height="12px" preserveAspectRatio="xMinYMin meet" x="418.5" y="-423.7"/>
<text text-anchor="start" x="437.5" y="-413.8" font-family="Helvetica,sans-Serif" font-size="11.00" fill="#000000">SAMPLEID</text>
<polygon fill="none" stroke="#000000" points="413.5,-384.7 413.5,-406.7 526.5,-406.7 526.5,-384.7 413.5,-384.7"/>
<image xlink:href="../../images/foreignKeys.png" width="11px" height="12px" preserveAspectRatio="xMinYMin meet" x="418.5" y="-401.7"/>
<text text-anchor="start" x="437.5" y="-391.8" font-family="Helvetica,sans-Serif" font-size="11.00" fill="#000000">ANLYSUNTID</text>
<polygon fill="none" stroke="#000000" points="413.5,-362.7 413.5,-384.7 526.5,-384.7 526.5,-362.7 413.5,-362.7"/>
<image xlink:href="../../images/foreignKeys.png" width="11px" height="12px" preserveAspectRatio="xMinYMin meet" x="418.5" y="-379.7"/>
<text text-anchor="start" x="437.5" y="-369.8" font-family="Helvetica,sans-Serif" font-size="11.00" fill="#000000">NEODSETID</text>
<polygon fill="none" stroke="#000000" points="413.5,-340.7 413.5,-362.7 526.5,-362.7 526.5,-340.7 413.5,-340.7"/>
<image xlink:href="../../images/foreignKeys.png" width="11px" height="12px" preserveAspectRatio="xMinYMin meet" x="418.5" y="-357.7"/>
<text text-anchor="start" x="437.5" y="-347.8" font-family="Helvetica,sans-Serif" font-size="11.00" fill="#000000">TAXONID</text>
<polygon fill="none" stroke="#000000" points="413.5,-318.7 413.5,-340.7 526.5,-340.7 526.5,-318.7 413.5,-318.7"/>
<image xlink:href="../../images/foreignKeys.png" width="11px" height="12px" preserveAspectRatio="xMinYMin meet" x="418.5" y="-335.7"/>
<text text-anchor="start" x="437.5" y="-325.8" font-family="Helvetica,sans-Serif" font-size="11.00" fill="#000000">DATASETID</text>
<polygon fill="none" stroke="#000000" points="413.5,-299.7 413.5,-318.7 526.5,-318.7 526.5,-299.7 413.5,-299.7"/>
<text text-anchor="start" x="416.5" y="-305.8" font-family="Helvetica,sans-Serif" font-size="11.00" fill="#000000">...</text>
<polygon fill="#ffffff" stroke="transparent" points="413.5,-280.7 413.5,-299.7 437.5,-299.7 437.5,-280.7 413.5,-280.7"/>
<polygon fill="none" stroke="#000000" points="413.5,-280.7 413.5,-299.7 437.5,-299.7 437.5,-280.7 413.5,-280.7"/>
<text text-anchor="start" x="416.5" y="-286.8" font-family="Helvetica,sans-Serif" font-size="11.00" fill="#000000">&lt; 4</text>
<polygon fill="#ffffff" stroke="transparent" points="437.5,-280.7 437.5,-299.7 503.5,-299.7 503.5,-280.7 437.5,-280.7"/>
<polygon fill="none" stroke="#000000" points="437.5,-280.7 437.5,-299.7 503.5,-299.7 503.5,-280.7 437.5,-280.7"/>
<text text-anchor="start" x="440.594" y="-286.8" font-family="Helvetica,sans-Serif" font-size="11.00" fill="#000000">18.370 rows</text>
<polygon fill="#ffffff" stroke="transparent" points="503.5,-280.7 503.5,-299.7 526.5,-299.7 526.5,-280.7 503.5,-280.7"/>
<polygon fill="none" stroke="#000000" points="503.5,-280.7 503.5,-299.7 526.5,-299.7 526.5,-280.7 503.5,-280.7"/>
<text text-anchor="start" x="507.9053" y="-286.8" font-family="Helvetica,sans-Serif" font-size="11.00" fill="#000000">3 &gt;</text>
</a>
</g>
</g>
<!-- ippd_DataCore&#45;&gt;ippd_Sample -->
<g id="edge4" class="edge">
<title>ippd_DataCore:w&#45;&gt;ippd_Sample:e</title>
<path fill="none" stroke="#000000" d="M606.9906,-410.0438C576.0624,-411.575 563.5752,-417.7 526.5,-417.7"/>
<polygon fill="#000000" stroke="#000000" points="613.5022,-409.8895 621.5853,-413.299 617.5011,-409.7948 621.5,-409.7 621.5,-409.7 621.5,-409.7 617.5011,-409.7948 621.4147,-406.101 613.5022,-409.8895 613.5022,-409.8895"/>
<ellipse fill="none" stroke="#000000" cx="610.3031" cy="-409.9653" rx="3.2" ry="3.2"/>
</g>
<!-- ippd_Sample&#45;&gt;cabah_AnalysisUnit -->
<g id="edge5" class="edge">
<title>ippd_Sample:w&#45;&gt;cabah_AnalysisUnit:e</title>
<path fill="none" stroke="#000000" d="M399.0776,-398.8881C385.0568,-405.8309 379.9667,-421.7 359,-421.7"/>
<polygon fill="#000000" stroke="#000000" points="405.6886,-397.4268 414.277,-399.2151 409.5943,-396.5634 413.5,-395.7 413.5,-395.7 413.5,-395.7 409.5943,-396.5634 412.723,-392.1849 405.6886,-397.4268 405.6886,-397.4268"/>
<ellipse fill="none" stroke="#000000" cx="402.564" cy="-398.1175" rx="3.2" ry="3.2"/>
</g>
<!-- ippd_Sample&#45;&gt;cabah_taxaID -->
<g id="edge8" class="edge">
<title>ippd_Sample:w&#45;&gt;cabah_taxaID:e</title>
<path fill="none" stroke="#000000" d="M399.9221,-346.5249C365.1026,-315.6018 391.1418,-155.061 372,-109.7 362.5989,-87.4219 364.1804,-65.7 340,-65.7"/>
<polygon fill="#000000" stroke="#000000" points="406.0246,-348.8508 412.2178,-355.0639 409.7623,-350.2754 413.5,-351.7 413.5,-351.7 413.5,-351.7 409.7623,-350.2754 414.7822,-348.3361 406.0246,-348.8508 406.0246,-348.8508"/>
<ellipse fill="none" stroke="#000000" cx="403.0344" cy="-347.7111" rx="3.2" ry="3.2"/>
</g>
<!-- ippd_Sample&#45;&gt;global_DataSetMaster -->
<g id="edge6" class="edge">
<title>ippd_Sample:w&#45;&gt;global_DataSetMaster:e</title>
<path fill="none" stroke="#000000" stroke-dasharray="5,2" d="M399.0854,-331.3513C387.4926,-334.1916 380.658,-339.7 364,-339.7"/>
<polygon fill="#000000" stroke="#000000" points="405.552,-330.6106 413.9097,-333.2766 409.526,-330.1553 413.5,-329.7 413.5,-329.7 413.5,-329.7 409.526,-330.1553 413.0903,-326.1234 405.552,-330.6106 405.552,-330.6106"/>
<ellipse fill="none" stroke="#000000" cx="402.3728" cy="-330.9748" rx="3.2" ry="3.2"/>
</g>
<!-- ippd_Sample&#45;&gt;global_DataSetMaster -->
<g id="edge7" class="edge">
<title>ippd_Sample:w&#45;&gt;global_DataSetMaster:e</title>
<path fill="none" stroke="#000000" d="M399.3557,-369.2551C386.999,-360.039 384.6429,-339.7 364,-339.7"/>
<polygon fill="#000000" stroke="#000000" points="405.868,-371.3016 412.4207,-377.1344 409.684,-372.5008 413.5,-373.7 413.5,-373.7 413.5,-373.7 409.684,-372.5008 414.5793,-370.2656 405.868,-371.3016 405.868,-371.3016"/>
<ellipse fill="none" stroke="#000000" cx="402.8152" cy="-370.3422" rx="3.2" ry="3.2"/>
</g>
<!-- ippd_sampleages -->
<g id="node8" class="node">
<title>ippd_sampleages</title>
<g id="a_node8"><a xlink:href="../../tables/ippd_sampleages.html" xlink:title="ippd_sampleages" target="_top">
<polygon fill="#ffffff" stroke="transparent" points="575,-130.7 575,-352.7 792,-352.7 792,-130.7 575,-130.7"/>
<polygon fill="#f5f5f5" stroke="transparent" points="577.5,-327.7 577.5,-350.7 790.5,-350.7 790.5,-327.7 577.5,-327.7"/>
<polygon fill="none" stroke="#000000" points="577.5,-327.7 577.5,-350.7 790.5,-350.7 790.5,-327.7 577.5,-327.7"/>
<text text-anchor="start" x="582.5" y="-336.3" font-family="Helvetica,sans-Serif" font-weight="bold" font-size="11.00" fill="#000000">ippd_sampleages</text>
<text text-anchor="start" x="755.5437" y="-335.8" font-family="Helvetica,sans-Serif" font-size="11.00" fill="#000000">[table]</text>
<polygon fill="none" stroke="#000000" points="577.5,-305.7 577.5,-327.7 698.5,-327.7 698.5,-305.7 577.5,-305.7"/>
<image xlink:href="../../images/primaryKeys.png" width="11px" height="12px" preserveAspectRatio="xMinYMin meet" x="582.5" y="-322.7"/>
<text text-anchor="start" x="597.5" y="-312.8" font-family="Helvetica,sans-Serif" font-size="11.00" fill="#000000">SMPAGEID</text>
<polygon fill="none" stroke="#000000" points="698.5,-305.7 698.5,-327.7 790.5,-327.7 790.5,-305.7 698.5,-305.7"/>
<text text-anchor="start" x="701.5" y="-313.4" font-family="Helvetica,sans-Serif" font-size="11.00" fill="#000000">int4[10]</text>
<polygon fill="none" stroke="#000000" points="577.5,-283.7 577.5,-305.7 698.5,-305.7 698.5,-283.7 577.5,-283.7"/>
<image xlink:href="../../images/foreignKeys.png" width="11px" height="12px" preserveAspectRatio="xMinYMin meet" x="582.5" y="-300.7"/>
<text text-anchor="start" x="597.5" y="-290.8" font-family="Helvetica,sans-Serif" font-size="11.00" fill="#000000">SAMPLEID</text>
<polygon fill="none" stroke="#000000" points="698.5,-283.7 698.5,-305.7 790.5,-305.7 790.5,-283.7 698.5,-283.7"/>
<text text-anchor="start" x="701.5" y="-291.4" font-family="Helvetica,sans-Serif" font-size="11.00" fill="#000000">int4[10]</text>
<polygon fill="none" stroke="#000000" points="577.5,-261.7 577.5,-283.7 698.5,-283.7 698.5,-261.7 577.5,-261.7"/>
<image xlink:href="../../images/foreignKeys.png" width="11px" height="12px" preserveAspectRatio="xMinYMin meet" x="582.5" y="-278.7"/>
<text text-anchor="start" x="597.5" y="-268.8" font-family="Helvetica,sans-Serif" font-size="11.00" fill="#000000">CHRONLGYID</text>
<polygon fill="none" stroke="#000000" points="698.5,-261.7 698.5,-283.7 790.5,-283.7 790.5,-261.7 698.5,-261.7"/>
<text text-anchor="start" x="701.5" y="-269.4" font-family="Helvetica,sans-Serif" font-size="11.00" fill="#000000">int4[10]</text>
<polygon fill="none" stroke="#000000" points="577.5,-239.7 577.5,-261.7 698.5,-261.7 698.5,-239.7 577.5,-239.7"/>
<text text-anchor="start" x="597.5" y="-246.8" font-family="Helvetica,sans-Serif" font-size="11.00" fill="#000000">AGE</text>
<polygon fill="none" stroke="#000000" points="698.5,-239.7 698.5,-261.7 790.5,-261.7 790.5,-239.7 698.5,-239.7"/>
<text text-anchor="start" x="701.5" y="-247.4" font-family="Helvetica,sans-Serif" font-size="11.00" fill="#000000">numeric[0]</text>
<polygon fill="none" stroke="#000000" points="577.5,-217.7 577.5,-239.7 698.5,-239.7 698.5,-217.7 577.5,-217.7"/>
<text text-anchor="start" x="597.5" y="-224.8" font-family="Helvetica,sans-Serif" font-size="11.00" fill="#000000">AGEYOUNGER</text>
<polygon fill="none" stroke="#000000" points="698.5,-217.7 698.5,-239.7 790.5,-239.7 790.5,-217.7 698.5,-217.7"/>
<text text-anchor="start" x="701.5" y="-225.4" font-family="Helvetica,sans-Serif" font-size="11.00" fill="#000000">numeric[0]</text>
<polygon fill="none" stroke="#000000" points="577.5,-195.7 577.5,-217.7 698.5,-217.7 698.5,-195.7 577.5,-195.7"/>
<text text-anchor="start" x="597.5" y="-202.8" font-family="Helvetica,sans-Serif" font-size="11.00" fill="#000000">AGEOLDER</text>
<polygon fill="none" stroke="#000000" points="698.5,-195.7 698.5,-217.7 790.5,-217.7 790.5,-195.7 698.5,-195.7"/>
<text text-anchor="start" x="701.5" y="-203.4" font-family="Helvetica,sans-Serif" font-size="11.00" fill="#000000">numeric[0]</text>
<polygon fill="none" stroke="#000000" points="577.5,-173.7 577.5,-195.7 698.5,-195.7 698.5,-173.7 577.5,-173.7"/>
<text text-anchor="start" x="597.5" y="-180.8" font-family="Helvetica,sans-Serif" font-size="11.00" fill="#000000">CREATED_AT</text>
<polygon fill="none" stroke="#000000" points="698.5,-173.7 698.5,-195.7 790.5,-195.7 790.5,-173.7 698.5,-173.7"/>
<text text-anchor="start" x="701.1023" y="-181.4" font-family="Helvetica,sans-Serif" font-size="11.00" fill="#000000">timestamptz[35,6]</text>
<polygon fill="none" stroke="#000000" points="577.5,-151.7 577.5,-173.7 698.5,-173.7 698.5,-151.7 577.5,-151.7"/>
<text text-anchor="start" x="597.5" y="-158.8" font-family="Helvetica,sans-Serif" font-size="11.00" fill="#000000">UPDATED_AT</text>
<polygon fill="none" stroke="#000000" points="698.5,-151.7 698.5,-173.7 790.5,-173.7 790.5,-151.7 698.5,-151.7"/>
<text text-anchor="start" x="701.1023" y="-159.4" font-family="Helvetica,sans-Serif" font-size="11.00" fill="#000000">timestamptz[35,6]</text>
<polygon fill="#ffffff" stroke="transparent" points="577.5,-132.7 577.5,-151.7 615.5,-151.7 615.5,-132.7 577.5,-132.7"/>
<polygon fill="none" stroke="#000000" points="577.5,-132.7 577.5,-151.7 615.5,-151.7 615.5,-132.7 577.5,-132.7"/>
<text text-anchor="start" x="580.5" y="-138.8" font-family="Helvetica,sans-Serif" font-size="11.00" fill="#000000">&lt; 2</text>
<polygon fill="#ffffff" stroke="transparent" points="615.5,-132.7 615.5,-151.7 698.5,-151.7 698.5,-132.7 615.5,-132.7"/>
<polygon fill="none" stroke="#000000" points="615.5,-132.7 615.5,-151.7 698.5,-151.7 698.5,-132.7 615.5,-132.7"/>
<text text-anchor="start" x="635.594" y="-138.8" font-family="Helvetica,sans-Serif" font-size="11.00" fill="#000000">18.794 rows</text>
<polygon fill="#ffffff" stroke="transparent" points="698.5,-132.7 698.5,-151.7 790.5,-151.7 790.5,-132.7 698.5,-132.7"/>
<polygon fill="none" stroke="#000000" points="698.5,-132.7 698.5,-151.7 790.5,-151.7 790.5,-132.7 698.5,-132.7"/>
<text text-anchor="start" x="771.9053" y="-138.8" font-family="Helvetica,sans-Serif" font-size="11.00" fill="#000000">0 &gt;</text>
<polygon fill="none" stroke="#000000" stroke-width="2" points="576,-131.7 576,-351.7 791,-351.7 791,-131.7 576,-131.7"/>
</a>
</g>
</g>
<!-- ippd_sampleages&#45;&gt;ippd_Sample -->
<g id="edge10" class="edge">
<title>ippd_sampleages:w&#45;&gt;ippd_Sample:e</title>
<path fill="none" stroke="#000000" d="M563.1193,-298.2485C530.6975,-318.4156 579.6692,-417.7 526.5,-417.7"/>
<polygon fill="#000000" stroke="#000000" points="569.733,-296.6166 578.3625,-298.1952 573.6165,-295.6583 577.5,-294.7 577.5,-294.7 577.5,-294.7 573.6165,-295.6583 576.6375,-291.2048 569.733,-296.6166 569.733,-296.6166"/>
<ellipse fill="none" stroke="#000000" cx="566.6261" cy="-297.3832" rx="3.2" ry="3.2"/>
</g>
<!-- neo_chronologies -->
<g id="node9" class="node">
<title>neo_chronologies</title>
<g id="a_node9"><a xlink:href="../../tables/neo_chronologies.html" xlink:title="neo_chronologies" target="_top">
<polygon fill="#ffffff" stroke="transparent" points="211,-120.2 211,-291.2 353,-291.2 353,-120.2 211,-120.2"/>
<polygon fill="#f5f5f5" stroke="transparent" points="211,-267.7 211,-290.7 353,-290.7 353,-267.7 211,-267.7"/>
<polygon fill="none" stroke="#000000" points="211,-267.7 211,-290.7 353,-290.7 353,-267.7 211,-267.7"/>
<text text-anchor="start" x="216" y="-276.3" font-family="Helvetica,sans-Serif" font-weight="bold" font-size="11.00" fill="#000000">neo_chronologies</text>
<text text-anchor="start" x="318.5219" y="-275.8" font-family="Helvetica,sans-Serif" font-size="11.00" fill="#000000">[table]</text>
<polygon fill="none" stroke="#000000" points="211,-245.7 211,-267.7 353,-267.7 353,-245.7 211,-245.7"/>
<image xlink:href="../../images/primaryKeys.png" width="11px" height="12px" preserveAspectRatio="xMinYMin meet" x="216" y="-262.7"/>
<text text-anchor="start" x="240" y="-252.8" font-family="Helvetica,sans-Serif" font-size="11.00" fill="#000000">CHRONLGYID</text>
<polygon fill="none" stroke="#000000" points="211,-223.7 211,-245.7 353,-245.7 353,-223.7 211,-223.7"/>
<image xlink:href="../../images/foreignKeys.png" width="11px" height="12px" preserveAspectRatio="xMinYMin meet" x="216" y="-240.7"/>
<text text-anchor="start" x="240" y="-230.8" font-family="Helvetica,sans-Serif" font-size="11.00" fill="#000000">NEO_UNITID</text>
<polygon fill="none" stroke="#000000" points="211,-201.7 211,-223.7 353,-223.7 353,-201.7 211,-201.7"/>
<image xlink:href="../../images/foreignKeys.png" width="11px" height="12px" preserveAspectRatio="xMinYMin meet" x="216" y="-218.7"/>
<text text-anchor="start" x="240" y="-208.8" font-family="Helvetica,sans-Serif" font-size="11.00" fill="#000000">AGETYPEID</text>
<polygon fill="none" stroke="#000000" points="211,-179.7 211,-201.7 353,-201.7 353,-179.7 211,-179.7"/>
<image xlink:href="../../images/foreignKeys.png" width="11px" height="12px" preserveAspectRatio="xMinYMin meet" x="216" y="-196.7"/>
<text text-anchor="start" x="240" y="-186.8" font-family="Helvetica,sans-Serif" font-size="11.00" fill="#000000">CONTACTID</text>
<polygon fill="none" stroke="#000000" points="211,-157.7 211,-179.7 353,-179.7 353,-157.7 211,-157.7"/>
<image xlink:href="../../images/foreignKeys.png" width="11px" height="12px" preserveAspectRatio="xMinYMin meet" x="216" y="-174.7"/>
<text text-anchor="start" x="240" y="-164.8" font-family="Helvetica,sans-Serif" font-size="11.00" fill="#000000">UNITID</text>
<polygon fill="none" stroke="#000000" points="211,-138.7 211,-157.7 353,-157.7 353,-138.7 211,-138.7"/>
<text text-anchor="start" x="214" y="-144.8" font-family="Helvetica,sans-Serif" font-size="11.00" fill="#000000">...</text>
<polygon fill="#ffffff" stroke="transparent" points="211,-119.7 211,-138.7 249,-138.7 249,-119.7 211,-119.7"/>
<polygon fill="none" stroke="#000000" points="211,-119.7 211,-138.7 249,-138.7 249,-119.7 211,-119.7"/>
<text text-anchor="start" x="214" y="-125.8" font-family="Helvetica,sans-Serif" font-size="11.00" fill="#000000">&lt; 4</text>
<polygon fill="#ffffff" stroke="transparent" points="249,-119.7 249,-138.7 323,-138.7 323,-119.7 249,-119.7"/>
<polygon fill="none" stroke="#000000" points="249,-119.7 249,-138.7 323,-138.7 323,-119.7 249,-119.7"/>
<text text-anchor="start" x="260.094" y="-125.8" font-family="Helvetica,sans-Serif" font-size="11.00" fill="#000000">31.641 rows</text>
<polygon fill="#ffffff" stroke="transparent" points="323,-119.7 323,-138.7 353,-138.7 353,-119.7 323,-119.7"/>
<polygon fill="none" stroke="#000000" points="323,-119.7 323,-138.7 353,-138.7 353,-119.7 323,-119.7"/>
<text text-anchor="start" x="334.4053" y="-125.8" font-family="Helvetica,sans-Serif" font-size="11.00" fill="#000000">1 &gt;</text>
</a>
</g>
</g>
<!-- ippd_sampleages&#45;&gt;neo_chronologies -->
<g id="edge9" class="edge">
<title>ippd_sampleages:w&#45;&gt;neo_chronologies:e</title>
<path fill="none" stroke="#000000" d="M563.0503,-272.3658C506.6413,-270.0682 398.7172,-256.7 353,-256.7"/>
<polygon fill="#000000" stroke="#000000" points="569.5021,-272.515 577.4167,-276.299 573.5011,-272.6075 577.5,-272.7 577.5,-272.7 577.5,-272.7 573.5011,-272.6075 577.5833,-269.101 569.5021,-272.515 569.5021,-272.515"/>
<ellipse fill="none" stroke="#000000" cx="566.303" cy="-272.441" rx="3.2" ry="3.2"/>
</g>
<!-- neo_chronologies&#45;&gt;global_UnitMaster -->
<g id="edge14" class="edge">
<title>neo_chronologies:w&#45;&gt;global_UnitMaster:e</title>
<path fill="none" stroke="#000000" stroke-dasharray="5,2" d="M197.031,-238.4364C172.5938,-254.478 190.7235,-316.7 151.5,-316.7"/>
<polygon fill="#000000" stroke="#000000" points="203.2717,-236.7672 211.9302,-238.1777 207.1358,-235.7336 211,-234.7 211,-234.7 211,-234.7 207.1358,-235.7336 210.0698,-231.2223 203.2717,-236.7672 203.2717,-236.7672"/>
<ellipse fill="none" stroke="#000000" cx="200.1804" cy="-237.5941" rx="3.2" ry="3.2"/>
</g>
<!-- neo_chronologies&#45;&gt;global_UnitMaster -->
<g id="edge15" class="edge">
<title>neo_chronologies:w&#45;&gt;global_UnitMaster:e</title>
<path fill="none" stroke="#000000" d="M196.7583,-171.3952C152.3023,-191.4541 216.7174,-316.7 151.5,-316.7"/>
<polygon fill="#000000" stroke="#000000" points="203.1395,-170.1876 211.6694,-172.2372 207.0698,-169.4438 211,-168.7 211,-168.7 211,-168.7 207.0698,-169.4438 210.3306,-165.1628 203.1395,-170.1876 203.1395,-170.1876"/>
<ellipse fill="none" stroke="#000000" cx="199.9953" cy="-170.7826" rx="3.2" ry="3.2"/>
</g>
<!-- neo_chronologies&#45;&gt;neo_contacts -->
<g id="edge13" class="edge">
<title>neo_chronologies:w&#45;&gt;neo_contacts:e</title>
<path fill="none" stroke="#000000" d="M196.6058,-187.639C164.4841,-171.6756 184.1114,-98.7 137.5,-98.7"/>
<polygon fill="#000000" stroke="#000000" points="203.175,-189.0359 210.2512,-194.2213 207.0875,-189.868 211,-190.7 211,-190.7 211,-190.7 207.0875,-189.868 211.7488,-187.1787 203.175,-189.0359 203.175,-189.0359"/>
<ellipse fill="none" stroke="#000000" cx="200.045" cy="-188.3703" rx="3.2" ry="3.2"/>
</g>
<!-- cabah_agetypeID -->
<g id="node11" class="node">
<title>cabah_agetypeID</title>
<g id="a_node11"><a xlink:href="../../tables/cabah_agetypeID.html" xlink:title="cabah_agetypeID" target="_top">
<polygon fill="#ffffff" stroke="transparent" points="11,-185.2 11,-246.2 148,-246.2 148,-185.2 11,-185.2"/>
<polygon fill="#f5f5f5" stroke="transparent" points="11.5,-222.7 11.5,-245.7 148.5,-245.7 148.5,-222.7 11.5,-222.7"/>
<polygon fill="none" stroke="#000000" points="11.5,-222.7 11.5,-245.7 148.5,-245.7 148.5,-222.7 11.5,-222.7"/>
<text text-anchor="start" x="16.5" y="-231.3" font-family="Helvetica,sans-Serif" font-weight="bold" font-size="11.00" fill="#000000">cabah_agetypeID</text>
<text text-anchor="start" x="114.0219" y="-230.8" font-family="Helvetica,sans-Serif" font-size="11.00" fill="#000000">[table]</text>
<polygon fill="none" stroke="#000000" points="11.5,-203.7 11.5,-222.7 148.5,-222.7 148.5,-203.7 11.5,-203.7"/>
<text text-anchor="start" x="14.5" y="-209.8" font-family="Helvetica,sans-Serif" font-size="11.00" fill="#000000">...</text>
<polygon fill="#ffffff" stroke="transparent" points="11.5,-184.7 11.5,-203.7 53.5,-203.7 53.5,-184.7 11.5,-184.7"/>
<polygon fill="none" stroke="#000000" points="11.5,-184.7 11.5,-203.7 53.5,-203.7 53.5,-184.7 11.5,-184.7"/>
<text text-anchor="start" x="14.5" y="-190.8" font-family="Helvetica,sans-Serif" font-size="11.00" fill="#000000"> &#160;</text>
<polygon fill="#ffffff" stroke="transparent" points="53.5,-184.7 53.5,-203.7 112.5,-203.7 112.5,-184.7 53.5,-184.7"/>
<polygon fill="none" stroke="#000000" points="53.5,-184.7 53.5,-203.7 112.5,-203.7 112.5,-184.7 53.5,-184.7"/>
<text text-anchor="start" x="70.9956" y="-190.8" font-family="Helvetica,sans-Serif" font-size="11.00" fill="#000000">11 rows</text>
<polygon fill="#ffffff" stroke="transparent" points="112.5,-184.7 112.5,-203.7 148.5,-203.7 148.5,-184.7 112.5,-184.7"/>
<polygon fill="none" stroke="#000000" points="112.5,-184.7 112.5,-203.7 148.5,-203.7 148.5,-184.7 112.5,-184.7"/>
<text text-anchor="start" x="129.9053" y="-190.8" font-family="Helvetica,sans-Serif" font-size="11.00" fill="#000000">2 &gt;</text>
</a>
</g>
</g>
<!-- neo_chronologies&#45;&gt;cabah_agetypeID -->
<g id="edge12" class="edge">
<title>neo_chronologies:w&#45;&gt;cabah_agetypeID:e</title>
<path fill="none" stroke="#000000" d="M196.3024,-212.7C179.5415,-212.7 170.6354,-212.7 148.5,-212.7"/>
<polygon fill="#000000" stroke="#000000" points="203,-212.7001 211,-216.3 207,-212.7 211,-212.7 211,-212.7 211,-212.7 207,-212.7 211,-209.1 203,-212.7001 203,-212.7001"/>
<ellipse fill="none" stroke="#000000" cx="199.8" cy="-212.7001" rx="3.2" ry="3.2"/>
</g>
<!-- ippd_samplekeywords -->
<g id="node10" class="node">
<title>ippd_samplekeywords</title>
<g id="a_node10"><a xlink:href="../../tables/ippd_samplekeywords.html" xlink:title="ippd_samplekeywords" target="_top">
<polygon fill="#ffffff" stroke="transparent" points="600,-464.2 600,-525.2 767,-525.2 767,-464.2 600,-464.2"/>
<polygon fill="#f5f5f5" stroke="transparent" points="600.5,-501.7 600.5,-524.7 767.5,-524.7 767.5,-501.7 600.5,-501.7"/>
<polygon fill="none" stroke="#000000" points="600.5,-501.7 600.5,-524.7 767.5,-524.7 767.5,-501.7 600.5,-501.7"/>
<text text-anchor="start" x="605.5" y="-510.3" font-family="Helvetica,sans-Serif" font-weight="bold" font-size="11.00" fill="#000000">ippd_samplekeywords</text>
<text text-anchor="start" x="733.0219" y="-509.8" font-family="Helvetica,sans-Serif" font-size="11.00" fill="#000000">[table]</text>
<polygon fill="none" stroke="#000000" points="600.5,-482.7 600.5,-501.7 767.5,-501.7 767.5,-482.7 600.5,-482.7"/>
<text text-anchor="start" x="603.5" y="-488.8" font-family="Helvetica,sans-Serif" font-size="11.00" fill="#000000">...</text>
<polygon fill="#ffffff" stroke="transparent" points="600.5,-463.7 600.5,-482.7 666.5,-482.7 666.5,-463.7 600.5,-463.7"/>
<polygon fill="none" stroke="#000000" points="600.5,-463.7 600.5,-482.7 666.5,-482.7 666.5,-463.7 600.5,-463.7"/>
<text text-anchor="start" x="603.5" y="-469.8" font-family="Helvetica,sans-Serif" font-size="11.00" fill="#000000">&lt; 2</text>
<polygon fill="#ffffff" stroke="transparent" points="666.5,-463.7 666.5,-482.7 732.5,-482.7 732.5,-463.7 666.5,-463.7"/>
<polygon fill="none" stroke="#000000" points="666.5,-463.7 666.5,-482.7 732.5,-482.7 732.5,-463.7 666.5,-463.7"/>
<text text-anchor="start" x="690.9956" y="-469.8" font-family="Helvetica,sans-Serif" font-size="11.00" fill="#000000">68 rows</text>
<polygon fill="#ffffff" stroke="transparent" points="732.5,-463.7 732.5,-482.7 767.5,-482.7 767.5,-463.7 732.5,-463.7"/>
<polygon fill="none" stroke="#000000" points="732.5,-463.7 732.5,-482.7 767.5,-482.7 767.5,-463.7 732.5,-463.7"/>
<text text-anchor="start" x="758.3862" y="-469.8" font-family="Helvetica,sans-Serif" font-size="11.00" fill="#000000"> &#160;</text>
</a>
</g>
</g>
<!-- ippd_samplekeywords&#45;&gt;ippd_Sample -->
<g id="edge11" class="edge">
<title>ippd_samplekeywords:w&#45;&gt;ippd_Sample:e</title>
<path fill="none" stroke="#000000" d="M586.2533,-488.7075C557.6344,-474.8632 567.3796,-417.7 526.5,-417.7"/>
<polygon fill="#000000" stroke="#000000" points="592.6709,-490.0554 599.7599,-495.2231 596.5854,-490.8777 600.5,-491.7 600.5,-491.7 600.5,-491.7 596.5854,-490.8777 601.2401,-488.1769 592.6709,-490.0554 592.6709,-490.0554"/>
<ellipse fill="none" stroke="#000000" cx="589.5392" cy="-489.3976" rx="3.2" ry="3.2"/>
</g>
</g>
</svg>
