<?xml version="1.0" encoding="UTF-8" standalone="no"?>
<!DOCTYPE svg PUBLIC "-//W3C//DTD SVG 1.1//EN"
 "http://www.w3.org/Graphics/SVG/1.1/DTD/svg11.dtd">
<!-- Generated by graphviz version 2.40.1 (20161225.0304)
 -->
<!-- Title: oneDegreeRelationshipsDiagram Pages: 1 -->
<svg width="611pt" height="599pt"
 viewBox="0.00 0.00 611.00 599.20" xmlns="http://www.w3.org/2000/svg" xmlns:xlink="http://www.w3.org/1999/xlink">
<g id="graph0" class="graph" transform="scale(1 1) rotate(0) translate(4 595.2)">
<title>oneDegreeRelationshipsDiagram</title>
<polygon fill="#ffffff" stroke="transparent" points="-4,4 -4,-595.2 607,-595.2 607,4 -4,4"/>
<text text-anchor="middle" x="72.4936" y="-7.3" font-family="Helvetica,sans-Serif" font-size="11.00" fill="#000000">Generated by SchemaSpy</text>
<!-- ippd_DataCore -->
<g id="node1" class="node">
<title>ippd_DataCore</title>
<g id="a_node1"><a xlink:href="../../tables/ippd_DataCore.html" xlink:title="ippd_DataCore" target="_top">
<polygon fill="#ffffff" stroke="transparent" points="471,-293.2 471,-420.2 595,-420.2 595,-293.2 471,-293.2"/>
<polygon fill="#f5f5f5" stroke="transparent" points="471,-396.7 471,-419.7 595,-419.7 595,-396.7 471,-396.7"/>
<polygon fill="none" stroke="#000000" points="471,-396.7 471,-419.7 595,-419.7 595,-396.7 471,-396.7"/>
<text text-anchor="start" x="476" y="-405.3" font-family="Helvetica,sans-Serif" font-weight="bold" font-size="11.00" fill="#000000">ippd_DataCore</text>
<text text-anchor="start" x="560.5219" y="-404.8" font-family="Helvetica,sans-Serif" font-size="11.00" fill="#000000">[table]</text>
<polygon fill="none" stroke="#000000" points="471,-374.7 471,-396.7 595,-396.7 595,-374.7 471,-374.7"/>
<image xlink:href="../../images/primaryKeys.png" width="11px" height="12px" preserveAspectRatio="xMinYMin meet" x="476" y="-391.7"/>
<text text-anchor="start" x="500" y="-381.8" font-family="Helvetica,sans-Serif" font-size="11.00" fill="#000000">DATAID</text>
<polygon fill="none" stroke="#000000" points="471,-352.7 471,-374.7 595,-374.7 595,-352.7 471,-352.7"/>
<image xlink:href="../../images/foreignKeys.png" width="11px" height="12px" preserveAspectRatio="xMinYMin meet" x="476" y="-369.7"/>
<text text-anchor="start" x="500" y="-359.8" font-family="Helvetica,sans-Serif" font-size="11.00" fill="#000000">SAMPLEID</text>
<polygon fill="none" stroke="#000000" points="471,-330.7 471,-352.7 595,-352.7 595,-330.7 471,-330.7"/>
<image xlink:href="../../images/foreignKeys.png" width="11px" height="12px" preserveAspectRatio="xMinYMin meet" x="476" y="-347.7"/>
<text text-anchor="start" x="500" y="-337.8" font-family="Helvetica,sans-Serif" font-size="11.00" fill="#000000">VARIABLEID</text>
<polygon fill="none" stroke="#000000" points="471,-311.7 471,-330.7 595,-330.7 595,-311.7 471,-311.7"/>
<text text-anchor="start" x="474" y="-317.8" font-family="Helvetica,sans-Serif" font-size="11.00" fill="#000000">...</text>
<polygon fill="#ffffff" stroke="transparent" points="471,-292.7 471,-311.7 501,-311.7 501,-292.7 471,-292.7"/>
<polygon fill="none" stroke="#000000" points="471,-292.7 471,-311.7 501,-311.7 501,-292.7 471,-292.7"/>
<text text-anchor="start" x="474" y="-298.8" font-family="Helvetica,sans-Serif" font-size="11.00" fill="#000000">&lt; 2</text>
<polygon fill="#ffffff" stroke="transparent" points="501,-292.7 501,-311.7 578,-311.7 578,-292.7 501,-292.7"/>
<polygon fill="none" stroke="#000000" points="501,-292.7 501,-311.7 578,-311.7 578,-292.7 501,-292.7"/>
<text text-anchor="start" x="508.9791" y="-298.8" font-family="Helvetica,sans-Serif" font-size="11.00" fill="#000000">384.434 rows</text>
<polygon fill="#ffffff" stroke="transparent" points="578,-292.7 578,-311.7 595,-311.7 595,-292.7 578,-292.7"/>
<polygon fill="none" stroke="#000000" points="578,-292.7 578,-311.7 595,-311.7 595,-292.7 578,-292.7"/>
<text text-anchor="start" x="585.8862" y="-298.8" font-family="Helvetica,sans-Serif" font-size="11.00" fill="#000000"> &#160;</text>
</a>
</g>
</g>
<!-- ippd_variables -->
<g id="node2" class="node">
<title>ippd_variables</title>
<g id="a_node2"><a xlink:href="../../tables/ippd_variables.html" xlink:title="ippd_variables" target="_top">
<polygon fill="#ffffff" stroke="transparent" points="221,-177.7 221,-377.7 422,-377.7 422,-177.7 221,-177.7"/>
<polygon fill="#f5f5f5" stroke="transparent" points="223.5,-352.7 223.5,-375.7 420.5,-375.7 420.5,-352.7 223.5,-352.7"/>
<polygon fill="none" stroke="#000000" points="223.5,-352.7 223.5,-375.7 420.5,-375.7 420.5,-352.7 223.5,-352.7"/>
<text text-anchor="start" x="228.5" y="-361.3" font-family="Helvetica,sans-Serif" font-weight="bold" font-size="11.00" fill="#000000">ippd_variables</text>
<text text-anchor="start" x="385.5437" y="-360.8" font-family="Helvetica,sans-Serif" font-size="11.00" fill="#000000">[table]</text>
<polygon fill="none" stroke="#000000" points="223.5,-330.7 223.5,-352.7 328.5,-352.7 328.5,-330.7 223.5,-330.7"/>
<image xlink:href="../../images/primaryKeys.png" width="11px" height="12px" preserveAspectRatio="xMinYMin meet" x="228.5" y="-347.7"/>
<text text-anchor="start" x="243.5" y="-337.8" font-family="Helvetica,sans-Serif" font-size="11.00" fill="#000000">VARIABLEID</text>
<polygon fill="none" stroke="#000000" points="328.5,-330.7 328.5,-352.7 420.5,-352.7 420.5,-330.7 328.5,-330.7"/>
<text text-anchor="start" x="331.5" y="-338.4" font-family="Helvetica,sans-Serif" font-size="11.00" fill="#000000">int4[10]</text>
<polygon fill="none" stroke="#000000" points="223.5,-308.7 223.5,-330.7 328.5,-330.7 328.5,-308.7 223.5,-308.7"/>
<image xlink:href="../../images/foreignKeys.png" width="11px" height="12px" preserveAspectRatio="xMinYMin meet" x="228.5" y="-325.7"/>
<text text-anchor="start" x="243.5" y="-315.8" font-family="Helvetica,sans-Serif" font-size="11.00" fill="#000000">TAXONID</text>
<polygon fill="none" stroke="#000000" points="328.5,-308.7 328.5,-330.7 420.5,-330.7 420.5,-308.7 328.5,-308.7"/>
<text text-anchor="start" x="331.5" y="-316.4" font-family="Helvetica,sans-Serif" font-size="11.00" fill="#000000">int4[10]</text>
<polygon fill="none" stroke="#000000" points="223.5,-286.7 223.5,-308.7 328.5,-308.7 328.5,-286.7 223.5,-286.7"/>
<image xlink:href="../../images/foreignKeys.png" width="11px" height="12px" preserveAspectRatio="xMinYMin meet" x="228.5" y="-303.7"/>
<text text-anchor="start" x="243.5" y="-293.8" font-family="Helvetica,sans-Serif" font-size="11.00" fill="#000000">VARELEMTID</text>
<polygon fill="none" stroke="#000000" points="328.5,-286.7 328.5,-308.7 420.5,-308.7 420.5,-286.7 328.5,-286.7"/>
<text text-anchor="start" x="331.5" y="-294.4" font-family="Helvetica,sans-Serif" font-size="11.00" fill="#000000">int4[10]</text>
<polygon fill="none" stroke="#000000" points="223.5,-264.7 223.5,-286.7 328.5,-286.7 328.5,-264.7 223.5,-264.7"/>
<image xlink:href="../../images/foreignKeys.png" width="11px" height="12px" preserveAspectRatio="xMinYMin meet" x="228.5" y="-281.7"/>
<text text-anchor="start" x="243.5" y="-271.8" font-family="Helvetica,sans-Serif" font-size="11.00" fill="#000000">VARUNITID</text>
<polygon fill="none" stroke="#000000" points="328.5,-264.7 328.5,-286.7 420.5,-286.7 420.5,-264.7 328.5,-264.7"/>
<text text-anchor="start" x="331.5" y="-272.4" font-family="Helvetica,sans-Serif" font-size="11.00" fill="#000000">int2[5]</text>
<polygon fill="none" stroke="#000000" points="223.5,-242.7 223.5,-264.7 328.5,-264.7 328.5,-242.7 223.5,-242.7"/>
<image xlink:href="../../images/foreignKeys.png" width="11px" height="12px" preserveAspectRatio="xMinYMin meet" x="228.5" y="-259.7"/>
<text text-anchor="start" x="243.5" y="-249.8" font-family="Helvetica,sans-Serif" font-size="11.00" fill="#000000">VARCONTXID</text>
<polygon fill="none" stroke="#000000" points="328.5,-242.7 328.5,-264.7 420.5,-264.7 420.5,-242.7 328.5,-242.7"/>
<text text-anchor="start" x="331.5" y="-250.4" font-family="Helvetica,sans-Serif" font-size="11.00" fill="#000000">int2[5]</text>
<polygon fill="none" stroke="#000000" points="223.5,-220.7 223.5,-242.7 328.5,-242.7 328.5,-220.7 223.5,-220.7"/>
<text text-anchor="start" x="243.5" y="-227.8" font-family="Helvetica,sans-Serif" font-size="11.00" fill="#000000">CREATED_AT</text>
<polygon fill="none" stroke="#000000" points="328.5,-220.7 328.5,-242.7 420.5,-242.7 420.5,-220.7 328.5,-220.7"/>
<text text-anchor="start" x="331.1023" y="-228.4" font-family="Helvetica,sans-Serif" font-size="11.00" fill="#000000">timestamptz[35,6]</text>
<polygon fill="none" stroke="#000000" points="223.5,-198.7 223.5,-220.7 328.5,-220.7 328.5,-198.7 223.5,-198.7"/>
<text text-anchor="start" x="243.5" y="-205.8" font-family="Helvetica,sans-Serif" font-size="11.00" fill="#000000">UPDATED_AT</text>
<polygon fill="none" stroke="#000000" points="328.5,-198.7 328.5,-220.7 420.5,-220.7 420.5,-198.7 328.5,-198.7"/>
<text text-anchor="start" x="331.1023" y="-206.4" font-family="Helvetica,sans-Serif" font-size="11.00" fill="#000000">timestamptz[35,6]</text>
<polygon fill="#ffffff" stroke="transparent" points="223.5,-179.7 223.5,-198.7 256.5,-198.7 256.5,-179.7 223.5,-179.7"/>
<polygon fill="none" stroke="#000000" points="223.5,-179.7 223.5,-198.7 256.5,-198.7 256.5,-179.7 223.5,-179.7"/>
<text text-anchor="start" x="226.5" y="-185.8" font-family="Helvetica,sans-Serif" font-size="11.00" fill="#000000">&lt; 4</text>
<polygon fill="#ffffff" stroke="transparent" points="256.5,-179.7 256.5,-198.7 328.5,-198.7 328.5,-179.7 256.5,-179.7"/>
<polygon fill="none" stroke="#000000" points="256.5,-179.7 256.5,-198.7 328.5,-198.7 328.5,-179.7 256.5,-179.7"/>
<text text-anchor="start" x="271.7089" y="-185.8" font-family="Helvetica,sans-Serif" font-size="11.00" fill="#000000">2.734 rows</text>
<polygon fill="#ffffff" stroke="transparent" points="328.5,-179.7 328.5,-198.7 420.5,-198.7 420.5,-179.7 328.5,-179.7"/>
<polygon fill="none" stroke="#000000" points="328.5,-179.7 328.5,-198.7 420.5,-198.7 420.5,-179.7 328.5,-179.7"/>
<text text-anchor="start" x="401.9053" y="-185.8" font-family="Helvetica,sans-Serif" font-size="11.00" fill="#000000">1 &gt;</text>
<polygon fill="none" stroke="#000000" stroke-width="2" points="222,-178.7 222,-376.7 421,-376.7 421,-178.7 222,-178.7"/>
</a>
</g>
</g>
<!-- ippd_DataCore&#45;&gt;ippd_variables -->
<g id="edge1" class="edge">
<title>ippd_DataCore:w&#45;&gt;ippd_variables:e</title>
<path fill="none" stroke="#000000" d="M456.4203,-341.7C444.5435,-341.7 437.158,-341.7 420.5,-341.7"/>
<polygon fill="#000000" stroke="#000000" points="463,-341.7001 471,-345.3 467,-341.7 471,-341.7 471,-341.7 471,-341.7 467,-341.7 471,-338.1 463,-341.7001 463,-341.7001"/>
<ellipse fill="none" stroke="#000000" cx="459.8" cy="-341.7001" rx="3.2" ry="3.2"/>
</g>
<!-- cabah_taxaID -->
<g id="node3" class="node">
<title>cabah_taxaID</title>
<g id="a_node3"><a xlink:href="../../tables/cabah_taxaID.html" xlink:title="cabah_taxaID" target="_top">
<polygon fill="#ffffff" stroke="transparent" points="32,-438.2 32,-587.2 148,-587.2 148,-438.2 32,-438.2"/>
<polygon fill="#f5f5f5" stroke="transparent" points="32,-563.7 32,-586.7 148,-586.7 148,-563.7 32,-563.7"/>
<polygon fill="none" stroke="#000000" points="32,-563.7 32,-586.7 148,-586.7 148,-563.7 32,-563.7"/>
<text text-anchor="start" x="37" y="-572.3" font-family="Helvetica,sans-Serif" font-weight="bold" font-size="11.00" fill="#000000">cabah_taxaID</text>
<text text-anchor="start" x="113.5219" y="-571.8" font-family="Helvetica,sans-Serif" font-size="11.00" fill="#000000">[table]</text>
<polygon fill="none" stroke="#000000" points="32,-541.7 32,-563.7 148,-563.7 148,-541.7 32,-541.7"/>
<image xlink:href="../../images/primaryKeys.png" width="11px" height="12px" preserveAspectRatio="xMinYMin meet" x="37" y="-558.7"/>
<text text-anchor="start" x="60" y="-548.8" font-family="Helvetica,sans-Serif" font-size="11.00" fill="#000000">TAXONID</text>
<polygon fill="none" stroke="#000000" points="32,-519.7 32,-541.7 148,-541.7 148,-519.7 32,-519.7"/>
<image xlink:href="../../images/foreignKeys.png" width="11px" height="12px" preserveAspectRatio="xMinYMin meet" x="37" y="-536.7"/>
<text text-anchor="start" x="60" y="-526.8" font-family="Helvetica,sans-Serif" font-size="11.00" fill="#000000">PARENTID</text>
<polygon fill="none" stroke="#000000" points="32,-497.7 32,-519.7 148,-519.7 148,-497.7 32,-497.7"/>
<image xlink:href="../../images/foreignKeys.png" width="11px" height="12px" preserveAspectRatio="xMinYMin meet" x="37" y="-514.7"/>
<text text-anchor="start" x="60" y="-504.8" font-family="Helvetica,sans-Serif" font-size="11.00" fill="#000000">TAXAGRPID</text>
<polygon fill="none" stroke="#000000" points="32,-475.7 32,-497.7 148,-497.7 148,-475.7 32,-475.7"/>
<image xlink:href="../../images/foreignKeys.png" width="11px" height="12px" preserveAspectRatio="xMinYMin meet" x="37" y="-492.7"/>
<text text-anchor="start" x="60" y="-482.8" font-family="Helvetica,sans-Serif" font-size="11.00" fill="#000000">NEOVALORID</text>
<polygon fill="none" stroke="#000000" points="32,-456.7 32,-475.7 148,-475.7 148,-456.7 32,-456.7"/>
<text text-anchor="start" x="35" y="-462.8" font-family="Helvetica,sans-Serif" font-size="11.00" fill="#000000">...</text>
<polygon fill="#ffffff" stroke="transparent" points="32,-437.7 32,-456.7 57,-456.7 57,-437.7 32,-437.7"/>
<polygon fill="none" stroke="#000000" points="32,-437.7 32,-456.7 57,-456.7 57,-437.7 32,-437.7"/>
<text text-anchor="start" x="35" y="-443.8" font-family="Helvetica,sans-Serif" font-size="11.00" fill="#000000">&lt; 3</text>
<polygon fill="#ffffff" stroke="transparent" points="57,-437.7 57,-456.7 124,-456.7 124,-437.7 57,-437.7"/>
<polygon fill="none" stroke="#000000" points="57,-437.7 57,-456.7 124,-456.7 124,-437.7 57,-437.7"/>
<text text-anchor="start" x="61.094" y="-443.8" font-family="Helvetica,sans-Serif" font-size="11.00" fill="#000000">47.144 rows</text>
<polygon fill="#ffffff" stroke="transparent" points="124,-437.7 124,-456.7 148,-456.7 148,-437.7 124,-437.7"/>
<polygon fill="none" stroke="#000000" points="124,-437.7 124,-456.7 148,-456.7 148,-437.7 124,-437.7"/>
<text text-anchor="start" x="129.4053" y="-443.8" font-family="Helvetica,sans-Serif" font-size="11.00" fill="#000000">3 &gt;</text>
</a>
</g>
</g>
<!-- ippd_variables&#45;&gt;cabah_taxaID -->
<g id="edge2" class="edge">
<title>ippd_variables:w&#45;&gt;cabah_taxaID:e</title>
<path fill="none" stroke="#000000" d="M209.9023,-325.9322C174.7495,-362.9858 197.113,-552.7 148,-552.7"/>
<polygon fill="#000000" stroke="#000000" points="216.2275,-323.0332 224.9999,-322.9726 219.8637,-321.3666 223.5,-319.7 223.5,-319.7 223.5,-319.7 219.8637,-321.3666 222.0001,-316.4274 216.2275,-323.0332 216.2275,-323.0332"/>
<ellipse fill="none" stroke="#000000" cx="213.3184" cy="-324.3665" rx="3.2" ry="3.2"/>
</g>
<!-- neo_variablecontexts -->
<g id="node4" class="node">
<title>neo_variablecontexts</title>
<g id="a_node4"><a xlink:href="../../tables/neo_variablecontexts.html" xlink:title="neo_variablecontexts" target="_top">
<polygon fill="#ffffff" stroke="transparent" points="9.5,-38.2 9.5,-121.2 170.5,-121.2 170.5,-38.2 9.5,-38.2"/>
<polygon fill="#f5f5f5" stroke="transparent" points="10,-97.7 10,-120.7 171,-120.7 171,-97.7 10,-97.7"/>
<polygon fill="none" stroke="#000000" points="10,-97.7 10,-120.7 171,-120.7 171,-97.7 10,-97.7"/>
<text text-anchor="start" x="15" y="-106.3" font-family="Helvetica,sans-Serif" font-weight="bold" font-size="11.00" fill="#000000">neo_variablecontexts</text>
<text text-anchor="start" x="136.5219" y="-105.8" font-family="Helvetica,sans-Serif" font-size="11.00" fill="#000000">[table]</text>
<polygon fill="none" stroke="#000000" points="10,-75.7 10,-97.7 171,-97.7 171,-75.7 10,-75.7"/>
<image xlink:href="../../images/primaryKeys.png" width="11px" height="12px" preserveAspectRatio="xMinYMin meet" x="15" y="-92.7"/>
<text text-anchor="start" x="39" y="-82.8" font-family="Helvetica,sans-Serif" font-size="11.00" fill="#000000">VARCONTXID</text>
<polygon fill="none" stroke="#000000" points="10,-56.7 10,-75.7 171,-75.7 171,-56.7 10,-56.7"/>
<text text-anchor="start" x="13" y="-62.8" font-family="Helvetica,sans-Serif" font-size="11.00" fill="#000000">...</text>
<polygon fill="#ffffff" stroke="transparent" points="10,-37.7 10,-56.7 64,-56.7 64,-37.7 10,-37.7"/>
<polygon fill="none" stroke="#000000" points="10,-37.7 10,-56.7 64,-56.7 64,-37.7 10,-37.7"/>
<text text-anchor="start" x="13" y="-43.8" font-family="Helvetica,sans-Serif" font-size="11.00" fill="#000000"> &#160;</text>
<polygon fill="#ffffff" stroke="transparent" points="64,-37.7 64,-56.7 129,-56.7 129,-37.7 64,-37.7"/>
<polygon fill="none" stroke="#000000" points="64,-37.7 64,-56.7 129,-56.7 129,-37.7 64,-37.7"/>
<text text-anchor="start" x="87.4956" y="-43.8" font-family="Helvetica,sans-Serif" font-size="11.00" fill="#000000">88 rows</text>
<polygon fill="#ffffff" stroke="transparent" points="129,-37.7 129,-56.7 171,-56.7 171,-37.7 129,-37.7"/>
<polygon fill="none" stroke="#000000" points="129,-37.7 129,-56.7 171,-56.7 171,-37.7 129,-37.7"/>
<text text-anchor="start" x="152.4053" y="-43.8" font-family="Helvetica,sans-Serif" font-size="11.00" fill="#000000">1 &gt;</text>
</a>
</g>
</g>
<!-- ippd_variables&#45;&gt;neo_variablecontexts -->
<g id="edge3" class="edge">
<title>ippd_variables:w&#45;&gt;neo_variablecontexts:e</title>
<path fill="none" stroke="#000000" d="M209.0182,-251.0768C160.0049,-229.8308 243.029,-86.7 171,-86.7"/>
<polygon fill="#000000" stroke="#000000" points="215.6281,-252.2741 222.8583,-257.2424 219.564,-252.987 223.5,-253.7 223.5,-253.7 223.5,-253.7 219.564,-252.987 224.1417,-250.1576 215.6281,-252.2741 215.6281,-252.2741"/>
<ellipse fill="none" stroke="#000000" cx="212.4793" cy="-251.7037" rx="3.2" ry="3.2"/>
</g>
<!-- neo_variableelements -->
<g id="node5" class="node">
<title>neo_variableelements</title>
<g id="a_node5"><a xlink:href="../../tables/neo_variableelements.html" xlink:title="neo_variableelements" target="_top">
<polygon fill="#ffffff" stroke="transparent" points="8,-246.2 8,-417.2 172,-417.2 172,-246.2 8,-246.2"/>
<polygon fill="#f5f5f5" stroke="transparent" points="8,-393.7 8,-416.7 172,-416.7 172,-393.7 8,-393.7"/>
<polygon fill="none" stroke="#000000" points="8,-393.7 8,-416.7 172,-416.7 172,-393.7 8,-393.7"/>
<text text-anchor="start" x="13" y="-402.3" font-family="Helvetica,sans-Serif" font-weight="bold" font-size="11.00" fill="#000000">neo_variableelements</text>
<text text-anchor="start" x="137.5219" y="-401.8" font-family="Helvetica,sans-Serif" font-size="11.00" fill="#000000">[table]</text>
<polygon fill="none" stroke="#000000" points="8,-371.7 8,-393.7 172,-393.7 172,-371.7 8,-371.7"/>
<image xlink:href="../../images/primaryKeys.png" width="11px" height="12px" preserveAspectRatio="xMinYMin meet" x="13" y="-388.7"/>
<text text-anchor="start" x="37" y="-378.8" font-family="Helvetica,sans-Serif" font-size="11.00" fill="#000000">VARELEMTID</text>
<polygon fill="none" stroke="#000000" points="8,-349.7 8,-371.7 172,-371.7 172,-349.7 8,-349.7"/>
<image xlink:href="../../images/foreignKeys.png" width="11px" height="12px" preserveAspectRatio="xMinYMin meet" x="13" y="-366.7"/>
<text text-anchor="start" x="37" y="-356.8" font-family="Helvetica,sans-Serif" font-size="11.00" fill="#000000">ELEMTYPEID</text>
<polygon fill="none" stroke="#000000" points="8,-327.7 8,-349.7 172,-349.7 172,-327.7 8,-327.7"/>
<image xlink:href="../../images/foreignKeys.png" width="11px" height="12px" preserveAspectRatio="xMinYMin meet" x="13" y="-344.7"/>
<text text-anchor="start" x="37" y="-334.8" font-family="Helvetica,sans-Serif" font-size="11.00" fill="#000000">SYMMETRYID</text>
<polygon fill="none" stroke="#000000" points="8,-305.7 8,-327.7 172,-327.7 172,-305.7 8,-305.7"/>
<image xlink:href="../../images/foreignKeys.png" width="11px" height="12px" preserveAspectRatio="xMinYMin meet" x="13" y="-322.7"/>
<text text-anchor="start" x="37" y="-312.8" font-family="Helvetica,sans-Serif" font-size="11.00" fill="#000000">PORTIONID</text>
<polygon fill="none" stroke="#000000" points="8,-283.7 8,-305.7 172,-305.7 172,-283.7 8,-283.7"/>
<image xlink:href="../../images/foreignKeys.png" width="11px" height="12px" preserveAspectRatio="xMinYMin meet" x="13" y="-300.7"/>
<text text-anchor="start" x="37" y="-290.8" font-family="Helvetica,sans-Serif" font-size="11.00" fill="#000000">MATURITYID</text>
<polygon fill="none" stroke="#000000" points="8,-264.7 8,-283.7 172,-283.7 172,-264.7 8,-264.7"/>
<text text-anchor="start" x="11" y="-270.8" font-family="Helvetica,sans-Serif" font-size="11.00" fill="#000000">...</text>
<polygon fill="#ffffff" stroke="transparent" points="8,-245.7 8,-264.7 65,-264.7 65,-245.7 8,-245.7"/>
<polygon fill="none" stroke="#000000" points="8,-245.7 8,-264.7 65,-264.7 65,-245.7 8,-245.7"/>
<text text-anchor="start" x="11" y="-251.8" font-family="Helvetica,sans-Serif" font-size="11.00" fill="#000000">&lt; 4</text>
<polygon fill="#ffffff" stroke="transparent" points="65,-245.7 65,-264.7 133,-264.7 133,-245.7 65,-245.7"/>
<polygon fill="none" stroke="#000000" points="65,-245.7 65,-264.7 133,-264.7 133,-245.7 65,-245.7"/>
<text text-anchor="start" x="85.3807" y="-251.8" font-family="Helvetica,sans-Serif" font-size="11.00" fill="#000000">983 rows</text>
<polygon fill="#ffffff" stroke="transparent" points="133,-245.7 133,-264.7 172,-264.7 172,-245.7 133,-245.7"/>
<polygon fill="none" stroke="#000000" points="133,-245.7 133,-264.7 172,-264.7 172,-245.7 133,-245.7"/>
<text text-anchor="start" x="153.4053" y="-251.8" font-family="Helvetica,sans-Serif" font-size="11.00" fill="#000000">1 &gt;</text>
</a>
</g>
</g>
<!-- ippd_variables&#45;&gt;neo_variableelements -->
<g id="edge4" class="edge">
<title>ippd_variables:w&#45;&gt;neo_variableelements:e</title>
<path fill="none" stroke="#000000" d="M209.5119,-302.032C187.8888,-319.3534 210.1318,-382.7 172,-382.7"/>
<polygon fill="#000000" stroke="#000000" points="215.8581,-300.0667 224.565,-301.1389 219.679,-298.8833 223.5,-297.7 223.5,-297.7 223.5,-297.7 219.679,-298.8833 222.435,-294.2611 215.8581,-300.0667 215.8581,-300.0667"/>
<ellipse fill="none" stroke="#000000" cx="212.8013" cy="-301.0134" rx="3.2" ry="3.2"/>
</g>
<!-- neo_variableunits -->
<g id="node6" class="node">
<title>neo_variableunits</title>
<g id="a_node6"><a xlink:href="../../tables/neo_variableunits.html" xlink:title="neo_variableunits" target="_top">
<polygon fill="#ffffff" stroke="transparent" points="19.5,-142.2 19.5,-225.2 160.5,-225.2 160.5,-142.2 19.5,-142.2"/>
<polygon fill="#f5f5f5" stroke="transparent" points="20,-201.7 20,-224.7 161,-224.7 161,-201.7 20,-201.7"/>
<polygon fill="none" stroke="#000000" points="20,-201.7 20,-224.7 161,-224.7 161,-201.7 20,-201.7"/>
<text text-anchor="start" x="25" y="-210.3" font-family="Helvetica,sans-Serif" font-weight="bold" font-size="11.00" fill="#000000">neo_variableunits</text>
<text text-anchor="start" x="126.5219" y="-209.8" font-family="Helvetica,sans-Serif" font-size="11.00" fill="#000000">[table]</text>
<polygon fill="none" stroke="#000000" points="20,-179.7 20,-201.7 161,-201.7 161,-179.7 20,-179.7"/>
<image xlink:href="../../images/primaryKeys.png" width="11px" height="12px" preserveAspectRatio="xMinYMin meet" x="25" y="-196.7"/>
<text text-anchor="start" x="49" y="-186.8" font-family="Helvetica,sans-Serif" font-size="11.00" fill="#000000">VARUNITID</text>
<polygon fill="none" stroke="#000000" points="20,-160.7 20,-179.7 161,-179.7 161,-160.7 20,-160.7"/>
<text text-anchor="start" x="23" y="-166.8" font-family="Helvetica,sans-Serif" font-size="11.00" fill="#000000">...</text>
<polygon fill="#ffffff" stroke="transparent" points="20,-141.7 20,-160.7 61,-160.7 61,-141.7 20,-141.7"/>
<polygon fill="none" stroke="#000000" points="20,-141.7 20,-160.7 61,-160.7 61,-141.7 20,-141.7"/>
<text text-anchor="start" x="23" y="-147.8" font-family="Helvetica,sans-Serif" font-size="11.00" fill="#000000"> &#160;</text>
<polygon fill="#ffffff" stroke="transparent" points="61,-141.7 61,-160.7 125,-160.7 125,-141.7 61,-141.7"/>
<polygon fill="none" stroke="#000000" points="61,-141.7 61,-160.7 125,-160.7 125,-141.7 61,-141.7"/>
<text text-anchor="start" x="77.3807" y="-147.8" font-family="Helvetica,sans-Serif" font-size="11.00" fill="#000000">210 rows</text>
<polygon fill="#ffffff" stroke="transparent" points="125,-141.7 125,-160.7 161,-160.7 161,-141.7 125,-141.7"/>
<polygon fill="none" stroke="#000000" points="125,-141.7 125,-160.7 161,-160.7 161,-141.7 125,-141.7"/>
<text text-anchor="start" x="142.4053" y="-147.8" font-family="Helvetica,sans-Serif" font-size="11.00" fill="#000000">1 &gt;</text>
</a>
</g>
</g>
<!-- ippd_variables&#45;&gt;neo_variableunits -->
<g id="edge5" class="edge">
<title>ippd_variables:w&#45;&gt;neo_variableunits:e</title>
<path fill="none" stroke="#000000" d="M209.2749,-272.0477C183.208,-255.7781 202.0296,-190.7 161,-190.7"/>
<polygon fill="#000000" stroke="#000000" points="215.7513,-273.7105 222.6047,-279.1869 219.6257,-274.7052 223.5,-275.7 223.5,-275.7 223.5,-275.7 219.6257,-274.7052 224.3953,-272.2131 215.7513,-273.7105 215.7513,-273.7105"/>
<ellipse fill="none" stroke="#000000" cx="212.6519" cy="-272.9147" rx="3.2" ry="3.2"/>
</g>
</g>
</svg>
