<?xml version="1.0" encoding="UTF-8" standalone="no"?>
<!DOCTYPE svg PUBLIC "-//W3C//DTD SVG 1.1//EN"
 "http://www.w3.org/Graphics/SVG/1.1/DTD/svg11.dtd">
<!-- Generated by graphviz version 2.40.1 (20161225.0304)
 -->
<!-- Title: oneDegreeRelationshipsDiagram Pages: 1 -->
<svg width="290pt" height="712pt"
 viewBox="0.00 0.00 290.00 712.20" xmlns="http://www.w3.org/2000/svg" xmlns:xlink="http://www.w3.org/1999/xlink">
<g id="graph0" class="graph" transform="scale(1 1) rotate(0) translate(4 708.2)">
<title>oneDegreeRelationshipsDiagram</title>
<polygon fill="#ffffff" stroke="transparent" points="-4,4 -4,-708.2 286,-708.2 286,4 -4,4"/>
<text text-anchor="middle" x="72.4936" y="-7.3" font-family="Helvetica,sans-Serif" font-size="11.00" fill="#000000">Generated by SchemaSpy</text>
<!-- ippd_baseline_pollen -->
<g id="node1" class="node">
<title>ippd_baseline_pollen</title>
<g id="a_node1"><a xlink:href="../../tables/ippd_baseline_pollen.html" xlink:title="ippd_baseline_pollen" target="_top">
<polygon fill="#ffffff" stroke="transparent" points="8,-38.2 8,-700.2 274,-700.2 274,-38.2 8,-38.2"/>
<polygon fill="#f5f5f5" stroke="transparent" points="10,-675.2 10,-698.2 272,-698.2 272,-675.2 10,-675.2"/>
<polygon fill="none" stroke="#000000" points="10,-675.2 10,-698.2 272,-698.2 272,-675.2 10,-675.2"/>
<text text-anchor="start" x="15" y="-683.8" font-family="Helvetica,sans-Serif" font-weight="bold" font-size="11.00" fill="#000000">ippd_baseline_pollen</text>
<text text-anchor="start" x="237.0437" y="-683.3" font-family="Helvetica,sans-Serif" font-size="11.00" fill="#000000">[table]</text>
<polygon fill="#ffffff" stroke="transparent" points="10,-653.2 10,-675.2 153,-675.2 153,-653.2 10,-653.2"/>
<polygon fill="none" stroke="#000000" points="10,-653.2 10,-675.2 153,-675.2 153,-653.2 10,-653.2"/>
<text text-anchor="start" x="30" y="-660.3" font-family="Helvetica,sans-Serif" font-size="11.00" fill="#000000">geom</text>
<polygon fill="none" stroke="#000000" points="153,-653.2 153,-675.2 272,-675.2 272,-653.2 153,-653.2"/>
<text text-anchor="start" x="155.9485" y="-660.9" font-family="Helvetica,sans-Serif" font-size="11.00" fill="#000000">geometry[2147483647]</text>
<polygon fill="none" stroke="#000000" points="10,-631.2 10,-653.2 153,-653.2 153,-631.2 10,-631.2"/>
<image xlink:href="../../images/foreignKeys.png" width="11px" height="12px" preserveAspectRatio="xMinYMin meet" x="15" y="-648.2"/>
<text text-anchor="start" x="30" y="-638.3" font-family="Helvetica,sans-Serif" font-size="11.00" fill="#000000">DATAID</text>
<polygon fill="none" stroke="#000000" points="153,-631.2 153,-653.2 272,-653.2 272,-631.2 153,-631.2"/>
<text text-anchor="start" x="156" y="-638.9" font-family="Helvetica,sans-Serif" font-size="11.00" fill="#000000">int4[10]</text>
<polygon fill="none" stroke="#000000" points="10,-609.2 10,-631.2 153,-631.2 153,-609.2 10,-609.2"/>
<text text-anchor="start" x="30" y="-616.3" font-family="Helvetica,sans-Serif" font-size="11.00" fill="#000000">SITENAME</text>
<polygon fill="none" stroke="#000000" points="153,-609.2 153,-631.2 272,-631.2 272,-609.2 153,-609.2"/>
<text text-anchor="start" x="156" y="-616.9" font-family="Helvetica,sans-Serif" font-size="11.00" fill="#000000">text[2147483647]</text>
<polygon fill="none" stroke="#000000" points="10,-587.2 10,-609.2 153,-609.2 153,-587.2 10,-587.2"/>
<image xlink:href="../../images/foreignKeys.png" width="11px" height="12px" preserveAspectRatio="xMinYMin meet" x="15" y="-604.2"/>
<text text-anchor="start" x="30" y="-594.3" font-family="Helvetica,sans-Serif" font-size="11.00" fill="#000000">SITEID</text>
<polygon fill="none" stroke="#000000" points="153,-587.2 153,-609.2 272,-609.2 272,-587.2 153,-587.2"/>
<text text-anchor="start" x="156" y="-594.9" font-family="Helvetica,sans-Serif" font-size="11.00" fill="#000000">text[2147483647]</text>
<polygon fill="none" stroke="#000000" points="10,-565.2 10,-587.2 153,-587.2 153,-565.2 10,-565.2"/>
<text text-anchor="start" x="30" y="-572.3" font-family="Helvetica,sans-Serif" font-size="11.00" fill="#000000">UNITHANDLE</text>
<polygon fill="none" stroke="#000000" points="153,-565.2 153,-587.2 272,-587.2 272,-565.2 153,-565.2"/>
<text text-anchor="start" x="156" y="-572.9" font-family="Helvetica,sans-Serif" font-size="11.00" fill="#000000">varchar[10]</text>
<polygon fill="none" stroke="#000000" points="10,-543.2 10,-565.2 153,-565.2 153,-543.2 10,-543.2"/>
<image xlink:href="../../images/foreignKeys.png" width="11px" height="12px" preserveAspectRatio="xMinYMin meet" x="15" y="-560.2"/>
<text text-anchor="start" x="30" y="-550.3" font-family="Helvetica,sans-Serif" font-size="11.00" fill="#000000">UNITID</text>
<polygon fill="none" stroke="#000000" points="153,-543.2 153,-565.2 272,-565.2 272,-543.2 153,-543.2"/>
<text text-anchor="start" x="156" y="-550.9" font-family="Helvetica,sans-Serif" font-size="11.00" fill="#000000">int4[10]</text>
<polygon fill="none" stroke="#000000" points="10,-521.2 10,-543.2 153,-543.2 153,-521.2 10,-521.2"/>
<image xlink:href="../../images/foreignKeys.png" width="11px" height="12px" preserveAspectRatio="xMinYMin meet" x="15" y="-538.2"/>
<text text-anchor="start" x="30" y="-528.3" font-family="Helvetica,sans-Serif" font-size="11.00" fill="#000000">DATASETID</text>
<polygon fill="none" stroke="#000000" points="153,-521.2 153,-543.2 272,-543.2 272,-521.2 153,-521.2"/>
<text text-anchor="start" x="156" y="-528.9" font-family="Helvetica,sans-Serif" font-size="11.00" fill="#000000">int4[10]</text>
<polygon fill="none" stroke="#000000" points="10,-499.2 10,-521.2 153,-521.2 153,-499.2 10,-499.2"/>
<image xlink:href="../../images/foreignKeys.png" width="11px" height="12px" preserveAspectRatio="xMinYMin meet" x="15" y="-516.2"/>
<text text-anchor="start" x="30" y="-506.3" font-family="Helvetica,sans-Serif" font-size="11.00" fill="#000000">CHRONLGYID</text>
<polygon fill="none" stroke="#000000" points="153,-499.2 153,-521.2 272,-521.2 272,-499.2 153,-499.2"/>
<text text-anchor="start" x="156" y="-506.9" font-family="Helvetica,sans-Serif" font-size="11.00" fill="#000000">int4[10]</text>
<polygon fill="none" stroke="#000000" points="10,-477.2 10,-499.2 153,-499.2 153,-477.2 10,-477.2"/>
<text text-anchor="start" x="30" y="-484.3" font-family="Helvetica,sans-Serif" font-size="11.00" fill="#000000">CHRONOLOGY</text>
<polygon fill="none" stroke="#000000" points="153,-477.2 153,-499.2 272,-499.2 272,-477.2 153,-477.2"/>
<text text-anchor="start" x="156" y="-484.9" font-family="Helvetica,sans-Serif" font-size="11.00" fill="#000000">varchar[80]</text>
<polygon fill="none" stroke="#000000" points="10,-455.2 10,-477.2 153,-477.2 153,-455.2 10,-455.2"/>
<text text-anchor="start" x="30" y="-462.3" font-family="Helvetica,sans-Serif" font-size="11.00" fill="#000000">X_WGS84</text>
<polygon fill="none" stroke="#000000" points="153,-455.2 153,-477.2 272,-477.2 272,-455.2 153,-455.2"/>
<text text-anchor="start" x="156" y="-462.9" font-family="Helvetica,sans-Serif" font-size="11.00" fill="#000000">numeric[10,6]</text>
<polygon fill="none" stroke="#000000" points="10,-433.2 10,-455.2 153,-455.2 153,-433.2 10,-433.2"/>
<text text-anchor="start" x="30" y="-440.3" font-family="Helvetica,sans-Serif" font-size="11.00" fill="#000000">Y_WGS84</text>
<polygon fill="none" stroke="#000000" points="153,-433.2 153,-455.2 272,-455.2 272,-433.2 153,-433.2"/>
<text text-anchor="start" x="156" y="-440.9" font-family="Helvetica,sans-Serif" font-size="11.00" fill="#000000">numeric[10,6]</text>
<polygon fill="none" stroke="#000000" points="10,-411.2 10,-433.2 153,-433.2 153,-411.2 10,-411.2"/>
<text text-anchor="start" x="30" y="-418.3" font-family="Helvetica,sans-Serif" font-size="11.00" fill="#000000">ELEVATION</text>
<polygon fill="none" stroke="#000000" points="153,-411.2 153,-433.2 272,-433.2 272,-411.2 153,-411.2"/>
<text text-anchor="start" x="156" y="-418.9" font-family="Helvetica,sans-Serif" font-size="11.00" fill="#000000">numeric[6,2]</text>
<polygon fill="none" stroke="#000000" points="10,-389.2 10,-411.2 153,-411.2 153,-389.2 10,-389.2"/>
<text text-anchor="start" x="30" y="-396.3" font-family="Helvetica,sans-Serif" font-size="11.00" fill="#000000">DATASETREF</text>
<polygon fill="none" stroke="#000000" points="153,-389.2 153,-411.2 272,-411.2 272,-389.2 153,-389.2"/>
<text text-anchor="start" x="156" y="-396.9" font-family="Helvetica,sans-Serif" font-size="11.00" fill="#000000">text[2147483647]</text>
<polygon fill="none" stroke="#000000" points="10,-367.2 10,-389.2 153,-389.2 153,-367.2 10,-367.2"/>
<text text-anchor="start" x="30" y="-374.3" font-family="Helvetica,sans-Serif" font-size="11.00" fill="#000000">AUHTORID</text>
<polygon fill="none" stroke="#000000" points="153,-367.2 153,-389.2 272,-389.2 272,-367.2 153,-367.2"/>
<text text-anchor="start" x="156" y="-374.9" font-family="Helvetica,sans-Serif" font-size="11.00" fill="#000000">varchar[11]</text>
<polygon fill="none" stroke="#000000" points="10,-345.2 10,-367.2 153,-367.2 153,-345.2 10,-345.2"/>
<text text-anchor="start" x="30" y="-352.3" font-family="Helvetica,sans-Serif" font-size="11.00" fill="#000000">AUHTOR</text>
<polygon fill="none" stroke="#000000" points="153,-345.2 153,-367.2 272,-367.2 272,-345.2 153,-345.2"/>
<text text-anchor="start" x="156" y="-352.9" font-family="Helvetica,sans-Serif" font-size="11.00" fill="#000000">text[2147483647]</text>
<polygon fill="none" stroke="#000000" points="10,-323.2 10,-345.2 153,-345.2 153,-323.2 10,-323.2"/>
<text text-anchor="start" x="30" y="-330.3" font-family="Helvetica,sans-Serif" font-size="11.00" fill="#000000">PUBYEAR</text>
<polygon fill="none" stroke="#000000" points="153,-323.2 153,-345.2 272,-345.2 272,-323.2 153,-323.2"/>
<text text-anchor="start" x="156" y="-330.9" font-family="Helvetica,sans-Serif" font-size="11.00" fill="#000000">int2[5]</text>
<polygon fill="none" stroke="#000000" points="10,-301.2 10,-323.2 153,-323.2 153,-301.2 10,-301.2"/>
<text text-anchor="start" x="30" y="-308.3" font-family="Helvetica,sans-Serif" font-size="11.00" fill="#000000">REFID</text>
<polygon fill="none" stroke="#000000" points="153,-301.2 153,-323.2 272,-323.2 272,-301.2 153,-301.2"/>
<text text-anchor="start" x="156" y="-308.9" font-family="Helvetica,sans-Serif" font-size="11.00" fill="#000000">text[2147483647]</text>
<polygon fill="none" stroke="#000000" points="10,-279.2 10,-301.2 153,-301.2 153,-279.2 10,-279.2"/>
<text text-anchor="start" x="30" y="-286.3" font-family="Helvetica,sans-Serif" font-size="11.00" fill="#000000">REFDOI</text>
<polygon fill="none" stroke="#000000" points="153,-279.2 153,-301.2 272,-301.2 272,-279.2 153,-279.2"/>
<text text-anchor="start" x="156" y="-286.9" font-family="Helvetica,sans-Serif" font-size="11.00" fill="#000000">text[2147483647]</text>
<polygon fill="none" stroke="#000000" points="10,-257.2 10,-279.2 153,-279.2 153,-257.2 10,-257.2"/>
<text text-anchor="start" x="30" y="-264.3" font-family="Helvetica,sans-Serif" font-size="11.00" fill="#000000">TAXONNAME</text>
<polygon fill="none" stroke="#000000" points="153,-257.2 153,-279.2 272,-279.2 272,-257.2 153,-257.2"/>
<text text-anchor="start" x="156" y="-264.9" font-family="Helvetica,sans-Serif" font-size="11.00" fill="#000000">text[2147483647]</text>
<polygon fill="none" stroke="#000000" points="10,-235.2 10,-257.2 153,-257.2 153,-235.2 10,-235.2"/>
<text text-anchor="start" x="30" y="-242.3" font-family="Helvetica,sans-Serif" font-size="11.00" fill="#000000">TAXACOUNT</text>
<polygon fill="none" stroke="#000000" points="153,-235.2 153,-257.2 272,-257.2 272,-235.2 153,-235.2"/>
<text text-anchor="start" x="156" y="-242.9" font-family="Helvetica,sans-Serif" font-size="11.00" fill="#000000">numeric[0]</text>
<polygon fill="none" stroke="#000000" points="10,-213.2 10,-235.2 153,-235.2 153,-213.2 10,-213.2"/>
<text text-anchor="start" x="30" y="-220.3" font-family="Helvetica,sans-Serif" font-size="11.00" fill="#000000">VARUNIT</text>
<polygon fill="none" stroke="#000000" points="153,-213.2 153,-235.2 272,-235.2 272,-213.2 153,-213.2"/>
<text text-anchor="start" x="156" y="-220.9" font-family="Helvetica,sans-Serif" font-size="11.00" fill="#000000">text[2147483647]</text>
<polygon fill="none" stroke="#000000" points="10,-191.2 10,-213.2 153,-213.2 153,-191.2 10,-191.2"/>
<text text-anchor="start" x="30" y="-198.3" font-family="Helvetica,sans-Serif" font-size="11.00" fill="#000000">AGE</text>
<polygon fill="none" stroke="#000000" points="153,-191.2 153,-213.2 272,-213.2 272,-191.2 153,-191.2"/>
<text text-anchor="start" x="156" y="-198.9" font-family="Helvetica,sans-Serif" font-size="11.00" fill="#000000">numeric[0]</text>
<polygon fill="none" stroke="#000000" points="10,-169.2 10,-191.2 153,-191.2 153,-169.2 10,-169.2"/>
<text text-anchor="start" x="30" y="-176.3" font-family="Helvetica,sans-Serif" font-size="11.00" fill="#000000">AGEYOUNGER</text>
<polygon fill="none" stroke="#000000" points="153,-169.2 153,-191.2 272,-191.2 272,-169.2 153,-169.2"/>
<text text-anchor="start" x="156" y="-176.9" font-family="Helvetica,sans-Serif" font-size="11.00" fill="#000000">numeric[0]</text>
<polygon fill="none" stroke="#000000" points="10,-147.2 10,-169.2 153,-169.2 153,-147.2 10,-147.2"/>
<text text-anchor="start" x="30" y="-154.3" font-family="Helvetica,sans-Serif" font-size="11.00" fill="#000000">AGEOLDER</text>
<polygon fill="none" stroke="#000000" points="153,-147.2 153,-169.2 272,-169.2 272,-147.2 153,-147.2"/>
<text text-anchor="start" x="156" y="-154.9" font-family="Helvetica,sans-Serif" font-size="11.00" fill="#000000">numeric[0]</text>
<polygon fill="none" stroke="#000000" points="10,-125.2 10,-147.2 153,-147.2 153,-125.2 10,-125.2"/>
<text text-anchor="start" x="30" y="-132.3" font-family="Helvetica,sans-Serif" font-size="11.00" fill="#000000">AGETYPE</text>
<polygon fill="none" stroke="#000000" points="153,-125.2 153,-147.2 272,-147.2 272,-125.2 153,-125.2"/>
<text text-anchor="start" x="156" y="-132.9" font-family="Helvetica,sans-Serif" font-size="11.00" fill="#000000">text[2147483647]</text>
<polygon fill="none" stroke="#000000" points="10,-103.2 10,-125.2 153,-125.2 153,-103.2 10,-103.2"/>
<text text-anchor="start" x="30" y="-110.3" font-family="Helvetica,sans-Serif" font-size="11.00" fill="#000000">AGEMODEL</text>
<polygon fill="none" stroke="#000000" points="153,-103.2 153,-125.2 272,-125.2 272,-103.2 153,-103.2"/>
<text text-anchor="start" x="156" y="-110.9" font-family="Helvetica,sans-Serif" font-size="11.00" fill="#000000">varchar[80]</text>
<polygon fill="none" stroke="#000000" points="10,-81.2 10,-103.2 153,-103.2 153,-81.2 10,-81.2"/>
<text text-anchor="start" x="30" y="-88.3" font-family="Helvetica,sans-Serif" font-size="11.00" fill="#000000">DEPTH</text>
<polygon fill="none" stroke="#000000" points="153,-81.2 153,-103.2 272,-103.2 272,-81.2 153,-81.2"/>
<text text-anchor="start" x="156" y="-88.9" font-family="Helvetica,sans-Serif" font-size="11.00" fill="#000000">numeric[0]</text>
<polygon fill="none" stroke="#000000" points="10,-59.2 10,-81.2 153,-81.2 153,-59.2 10,-59.2"/>
<image xlink:href="../../images/primaryKeys.png" width="11px" height="12px" preserveAspectRatio="xMinYMin meet" x="15" y="-76.2"/>
<text text-anchor="start" x="30" y="-66.3" font-family="Helvetica,sans-Serif" font-size="11.00" fill="#000000">id</text>
<polygon fill="none" stroke="#000000" points="153,-59.2 153,-81.2 272,-81.2 272,-59.2 153,-59.2"/>
<text text-anchor="start" x="156" y="-66.9" font-family="Helvetica,sans-Serif" font-size="11.00" fill="#000000">serial[10]</text>
<polygon fill="#ffffff" stroke="transparent" points="10,-40.2 10,-59.2 56,-59.2 56,-40.2 10,-40.2"/>
<polygon fill="none" stroke="#000000" points="10,-40.2 10,-59.2 56,-59.2 56,-40.2 10,-40.2"/>
<text text-anchor="start" x="13" y="-46.3" font-family="Helvetica,sans-Serif" font-size="11.00" fill="#000000">&lt; 0</text>
<polygon fill="#ffffff" stroke="transparent" points="56,-40.2 56,-59.2 153,-59.2 153,-40.2 56,-40.2"/>
<polygon fill="none" stroke="#000000" points="56,-40.2 56,-59.2 153,-59.2 153,-40.2 56,-40.2"/>
<text text-anchor="start" x="83.9791" y="-46.3" font-family="Helvetica,sans-Serif" font-size="11.00" fill="#000000">155.952 rows</text>
<polygon fill="#ffffff" stroke="transparent" points="153,-40.2 153,-59.2 272,-59.2 272,-40.2 153,-40.2"/>
<polygon fill="none" stroke="#000000" points="153,-40.2 153,-59.2 272,-59.2 272,-40.2 153,-40.2"/>
<text text-anchor="start" x="253.4053" y="-46.3" font-family="Helvetica,sans-Serif" font-size="11.00" fill="#000000">0 &gt;</text>
<polygon fill="none" stroke="#000000" stroke-width="2" points="9,-39.2 9,-699.2 273,-699.2 273,-39.2 9,-39.2"/>
</a>
</g>
</g>
</g>
</svg>
