<?xml version="1.0" encoding="UTF-8" standalone="no"?>
<!DOCTYPE svg PUBLIC "-//W3C//DTD SVG 1.1//EN"
 "http://www.w3.org/Graphics/SVG/1.1/DTD/svg11.dtd">
<!-- Generated by graphviz version 2.40.1 (20161225.0304)
 -->
<!-- Title: twoDegreesRelationshipsDiagram Pages: 1 -->
<svg width="647pt" height="431pt"
 viewBox="0.00 0.00 647.00 431.20" xmlns="http://www.w3.org/2000/svg" xmlns:xlink="http://www.w3.org/1999/xlink">
<g id="graph0" class="graph" transform="scale(1 1) rotate(0) translate(4 427.2)">
<title>twoDegreesRelationshipsDiagram</title>
<polygon fill="#ffffff" stroke="transparent" points="-4,4 -4,-427.2 643,-427.2 643,4 -4,4"/>
<text text-anchor="middle" x="72.4936" y="-7.3" font-family="Helvetica,sans-Serif" font-size="11.00" fill="#000000">Generated by SchemaSpy</text>
<!-- ippd_variables -->
<g id="node1" class="node">
<title>ippd_variables</title>
<g id="a_node1"><a xlink:href="../../tables/ippd_variables.html" xlink:title="ippd_variables" target="_top">
<polygon fill="#ffffff" stroke="transparent" points="508,-288.2 508,-349.2 631,-349.2 631,-288.2 508,-288.2"/>
<polygon fill="#f5f5f5" stroke="transparent" points="508.5,-325.7 508.5,-348.7 631.5,-348.7 631.5,-325.7 508.5,-325.7"/>
<polygon fill="none" stroke="#000000" points="508.5,-325.7 508.5,-348.7 631.5,-348.7 631.5,-325.7 508.5,-325.7"/>
<text text-anchor="start" x="513.5" y="-334.3" font-family="Helvetica,sans-Serif" font-weight="bold" font-size="11.00" fill="#000000">ippd_variables</text>
<text text-anchor="start" x="597.0219" y="-333.8" font-family="Helvetica,sans-Serif" font-size="11.00" fill="#000000">[table]</text>
<polygon fill="none" stroke="#000000" points="508.5,-306.7 508.5,-325.7 631.5,-325.7 631.5,-306.7 508.5,-306.7"/>
<text text-anchor="start" x="511.5" y="-312.8" font-family="Helvetica,sans-Serif" font-size="11.00" fill="#000000">...</text>
<polygon fill="#ffffff" stroke="transparent" points="508.5,-287.7 508.5,-306.7 540.5,-306.7 540.5,-287.7 508.5,-287.7"/>
<polygon fill="none" stroke="#000000" points="508.5,-287.7 508.5,-306.7 540.5,-306.7 540.5,-287.7 508.5,-287.7"/>
<text text-anchor="start" x="511.5" y="-293.8" font-family="Helvetica,sans-Serif" font-size="11.00" fill="#000000">&lt; 4</text>
<polygon fill="#ffffff" stroke="transparent" points="540.5,-287.7 540.5,-306.7 604.5,-306.7 604.5,-287.7 540.5,-287.7"/>
<polygon fill="none" stroke="#000000" points="540.5,-287.7 540.5,-306.7 604.5,-306.7 604.5,-287.7 540.5,-287.7"/>
<text text-anchor="start" x="547.7089" y="-293.8" font-family="Helvetica,sans-Serif" font-size="11.00" fill="#000000">2.734 rows</text>
<polygon fill="#ffffff" stroke="transparent" points="604.5,-287.7 604.5,-306.7 631.5,-306.7 631.5,-287.7 604.5,-287.7"/>
<polygon fill="none" stroke="#000000" points="604.5,-287.7 604.5,-306.7 631.5,-306.7 631.5,-287.7 604.5,-287.7"/>
<text text-anchor="start" x="612.9053" y="-293.8" font-family="Helvetica,sans-Serif" font-size="11.00" fill="#000000">1 &gt;</text>
</a>
</g>
</g>
<!-- neo_variableelements -->
<g id="node2" class="node">
<title>neo_variableelements</title>
<g id="a_node2"><a xlink:href="../../tables/neo_variableelements.html" xlink:title="neo_variableelements" target="_top">
<polygon fill="#ffffff" stroke="transparent" points="295,-179.2 295,-350.2 459,-350.2 459,-179.2 295,-179.2"/>
<polygon fill="#f5f5f5" stroke="transparent" points="295,-326.7 295,-349.7 459,-349.7 459,-326.7 295,-326.7"/>
<polygon fill="none" stroke="#000000" points="295,-326.7 295,-349.7 459,-349.7 459,-326.7 295,-326.7"/>
<text text-anchor="start" x="300" y="-335.3" font-family="Helvetica,sans-Serif" font-weight="bold" font-size="11.00" fill="#000000">neo_variableelements</text>
<text text-anchor="start" x="424.5219" y="-334.8" font-family="Helvetica,sans-Serif" font-size="11.00" fill="#000000">[table]</text>
<polygon fill="none" stroke="#000000" points="295,-304.7 295,-326.7 459,-326.7 459,-304.7 295,-304.7"/>
<image xlink:href="../../images/primaryKeys.png" width="11px" height="12px" preserveAspectRatio="xMinYMin meet" x="300" y="-321.7"/>
<text text-anchor="start" x="324" y="-311.8" font-family="Helvetica,sans-Serif" font-size="11.00" fill="#000000">VARELEMTID</text>
<polygon fill="none" stroke="#000000" points="295,-282.7 295,-304.7 459,-304.7 459,-282.7 295,-282.7"/>
<image xlink:href="../../images/foreignKeys.png" width="11px" height="12px" preserveAspectRatio="xMinYMin meet" x="300" y="-299.7"/>
<text text-anchor="start" x="324" y="-289.8" font-family="Helvetica,sans-Serif" font-size="11.00" fill="#000000">ELEMTYPEID</text>
<polygon fill="none" stroke="#000000" points="295,-260.7 295,-282.7 459,-282.7 459,-260.7 295,-260.7"/>
<image xlink:href="../../images/foreignKeys.png" width="11px" height="12px" preserveAspectRatio="xMinYMin meet" x="300" y="-277.7"/>
<text text-anchor="start" x="324" y="-267.8" font-family="Helvetica,sans-Serif" font-size="11.00" fill="#000000">SYMMETRYID</text>
<polygon fill="none" stroke="#000000" points="295,-238.7 295,-260.7 459,-260.7 459,-238.7 295,-238.7"/>
<image xlink:href="../../images/foreignKeys.png" width="11px" height="12px" preserveAspectRatio="xMinYMin meet" x="300" y="-255.7"/>
<text text-anchor="start" x="324" y="-245.8" font-family="Helvetica,sans-Serif" font-size="11.00" fill="#000000">PORTIONID</text>
<polygon fill="none" stroke="#000000" points="295,-216.7 295,-238.7 459,-238.7 459,-216.7 295,-216.7"/>
<image xlink:href="../../images/foreignKeys.png" width="11px" height="12px" preserveAspectRatio="xMinYMin meet" x="300" y="-233.7"/>
<text text-anchor="start" x="324" y="-223.8" font-family="Helvetica,sans-Serif" font-size="11.00" fill="#000000">MATURITYID</text>
<polygon fill="none" stroke="#000000" points="295,-197.7 295,-216.7 459,-216.7 459,-197.7 295,-197.7"/>
<text text-anchor="start" x="298" y="-203.8" font-family="Helvetica,sans-Serif" font-size="11.00" fill="#000000">...</text>
<polygon fill="#ffffff" stroke="transparent" points="295,-178.7 295,-197.7 352,-197.7 352,-178.7 295,-178.7"/>
<polygon fill="none" stroke="#000000" points="295,-178.7 295,-197.7 352,-197.7 352,-178.7 295,-178.7"/>
<text text-anchor="start" x="298" y="-184.8" font-family="Helvetica,sans-Serif" font-size="11.00" fill="#000000">&lt; 4</text>
<polygon fill="#ffffff" stroke="transparent" points="352,-178.7 352,-197.7 420,-197.7 420,-178.7 352,-178.7"/>
<polygon fill="none" stroke="#000000" points="352,-178.7 352,-197.7 420,-197.7 420,-178.7 352,-178.7"/>
<text text-anchor="start" x="372.3807" y="-184.8" font-family="Helvetica,sans-Serif" font-size="11.00" fill="#000000">983 rows</text>
<polygon fill="#ffffff" stroke="transparent" points="420,-178.7 420,-197.7 459,-197.7 459,-178.7 420,-178.7"/>
<polygon fill="none" stroke="#000000" points="420,-178.7 420,-197.7 459,-197.7 459,-178.7 420,-178.7"/>
<text text-anchor="start" x="440.4053" y="-184.8" font-family="Helvetica,sans-Serif" font-size="11.00" fill="#000000">1 &gt;</text>
</a>
</g>
</g>
<!-- ippd_variables&#45;&gt;neo_variableelements -->
<g id="edge1" class="edge">
<title>ippd_variables:w&#45;&gt;neo_variableelements:e</title>
<path fill="none" stroke="#000000" d="M493.8428,-315.7C482.4139,-315.7 475.1563,-315.7 459,-315.7"/>
<polygon fill="#000000" stroke="#000000" points="500.5,-315.7001 508.5,-319.3 504.5,-315.7 508.5,-315.7 508.5,-315.7 508.5,-315.7 504.5,-315.7 508.5,-312.1 500.5,-315.7001 500.5,-315.7001"/>
<ellipse fill="none" stroke="#000000" cx="497.3" cy="-315.7001" rx="3.2" ry="3.2"/>
</g>
<!-- neo_elementtypes -->
<g id="node3" class="node">
<title>neo_elementtypes</title>
<g id="a_node3"><a xlink:href="../../tables/neo_elementtypes.html" xlink:title="neo_elementtypes" target="_top">
<polygon fill="#ffffff" stroke="transparent" points="55.5,-358.2 55.5,-419.2 198.5,-419.2 198.5,-358.2 55.5,-358.2"/>
<polygon fill="#f5f5f5" stroke="transparent" points="56,-395.7 56,-418.7 199,-418.7 199,-395.7 56,-395.7"/>
<polygon fill="none" stroke="#000000" points="56,-395.7 56,-418.7 199,-418.7 199,-395.7 56,-395.7"/>
<text text-anchor="start" x="61" y="-404.3" font-family="Helvetica,sans-Serif" font-weight="bold" font-size="11.00" fill="#000000">neo_elementtypes</text>
<text text-anchor="start" x="164.5219" y="-403.8" font-family="Helvetica,sans-Serif" font-size="11.00" fill="#000000">[table]</text>
<polygon fill="none" stroke="#000000" points="56,-376.7 56,-395.7 199,-395.7 199,-376.7 56,-376.7"/>
<text text-anchor="start" x="59" y="-382.8" font-family="Helvetica,sans-Serif" font-size="11.00" fill="#000000">...</text>
<polygon fill="#ffffff" stroke="transparent" points="56,-357.7 56,-376.7 102,-376.7 102,-357.7 56,-357.7"/>
<polygon fill="none" stroke="#000000" points="56,-357.7 56,-376.7 102,-376.7 102,-357.7 56,-357.7"/>
<text text-anchor="start" x="59" y="-363.8" font-family="Helvetica,sans-Serif" font-size="11.00" fill="#000000">&lt; 1</text>
<polygon fill="#ffffff" stroke="transparent" points="102,-357.7 102,-376.7 165,-376.7 165,-357.7 102,-357.7"/>
<polygon fill="none" stroke="#000000" points="102,-357.7 102,-376.7 165,-376.7 165,-357.7 102,-357.7"/>
<text text-anchor="start" x="117.3807" y="-363.8" font-family="Helvetica,sans-Serif" font-size="11.00" fill="#000000">939 rows</text>
<polygon fill="#ffffff" stroke="transparent" points="165,-357.7 165,-376.7 199,-376.7 199,-357.7 165,-357.7"/>
<polygon fill="none" stroke="#000000" points="165,-357.7 165,-376.7 199,-376.7 199,-357.7 165,-357.7"/>
<text text-anchor="start" x="180.4053" y="-363.8" font-family="Helvetica,sans-Serif" font-size="11.00" fill="#000000">1 &gt;</text>
</a>
</g>
</g>
<!-- neo_variableelements&#45;&gt;neo_elementtypes -->
<g id="edge2" class="edge">
<title>neo_variableelements:w&#45;&gt;neo_elementtypes:e</title>
<path fill="none" stroke="#000000" d="M280.718,-297.701C268.0157,-307.1461 271.1856,-331.2676 254,-347.7 232.5256,-368.2333 228.7114,-385.7 199,-385.7"/>
<polygon fill="#000000" stroke="#000000" points="287.2966,-295.8581 295.9711,-297.1665 291.1483,-294.7791 295,-293.7 295,-293.7 295,-293.7 291.1483,-294.7791 294.0289,-290.2335 287.2966,-295.8581 287.2966,-295.8581"/>
<ellipse fill="none" stroke="#000000" cx="284.2152" cy="-296.7214" rx="3.2" ry="3.2"/>
</g>
<!-- neo_elementmaturities -->
<g id="node4" class="node">
<title>neo_elementmaturities</title>
<g id="a_node4"><a xlink:href="../../tables/neo_elementmaturities.html" xlink:title="neo_elementmaturities" target="_top">
<polygon fill="#ffffff" stroke="transparent" points="42.5,-38.2 42.5,-99.2 211.5,-99.2 211.5,-38.2 42.5,-38.2"/>
<polygon fill="#f5f5f5" stroke="transparent" points="43,-75.7 43,-98.7 212,-98.7 212,-75.7 43,-75.7"/>
<polygon fill="none" stroke="#000000" points="43,-75.7 43,-98.7 212,-98.7 212,-75.7 43,-75.7"/>
<text text-anchor="start" x="48" y="-84.3" font-family="Helvetica,sans-Serif" font-weight="bold" font-size="11.00" fill="#000000">neo_elementmaturities</text>
<text text-anchor="start" x="177.5219" y="-83.8" font-family="Helvetica,sans-Serif" font-size="11.00" fill="#000000">[table]</text>
<polygon fill="none" stroke="#000000" points="43,-56.7 43,-75.7 212,-75.7 212,-56.7 43,-56.7"/>
<text text-anchor="start" x="46" y="-62.8" font-family="Helvetica,sans-Serif" font-size="11.00" fill="#000000">...</text>
<polygon fill="#ffffff" stroke="transparent" points="43,-37.7 43,-56.7 104,-56.7 104,-37.7 43,-37.7"/>
<polygon fill="none" stroke="#000000" points="43,-37.7 43,-56.7 104,-56.7 104,-37.7 43,-37.7"/>
<text text-anchor="start" x="46" y="-43.8" font-family="Helvetica,sans-Serif" font-size="11.00" fill="#000000"> &#160;</text>
<polygon fill="#ffffff" stroke="transparent" points="104,-37.7 104,-56.7 166,-56.7 166,-37.7 104,-37.7"/>
<polygon fill="none" stroke="#000000" points="104,-37.7 104,-56.7 166,-56.7 166,-37.7 104,-37.7"/>
<text text-anchor="start" x="130.6105" y="-43.8" font-family="Helvetica,sans-Serif" font-size="11.00" fill="#000000">0 rows</text>
<polygon fill="#ffffff" stroke="transparent" points="166,-37.7 166,-56.7 212,-56.7 212,-37.7 166,-37.7"/>
<polygon fill="none" stroke="#000000" points="166,-37.7 166,-56.7 212,-56.7 212,-37.7 166,-37.7"/>
<text text-anchor="start" x="193.4053" y="-43.8" font-family="Helvetica,sans-Serif" font-size="11.00" fill="#000000">1 &gt;</text>
</a>
</g>
</g>
<!-- neo_variableelements&#45;&gt;neo_elementmaturities -->
<g id="edge3" class="edge">
<title>neo_variableelements:w&#45;&gt;neo_elementmaturities:e</title>
<path fill="none" stroke="#000000" d="M280.5351,-225.4535C247.8416,-213.0625 279.886,-152.0847 254,-109.7 239.9091,-86.6281 239.0345,-65.7 212,-65.7"/>
<polygon fill="#000000" stroke="#000000" points="287.0948,-226.4722 294.4475,-231.2574 291.0474,-227.0861 295,-227.7 295,-227.7 295,-227.7 291.0474,-227.0861 295.5525,-224.1426 287.0948,-226.4722 287.0948,-226.4722"/>
<ellipse fill="none" stroke="#000000" cx="283.9327" cy="-225.9811" rx="3.2" ry="3.2"/>
</g>
<!-- neo_elementportions -->
<g id="node5" class="node">
<title>neo_elementportions</title>
<g id="a_node5"><a xlink:href="../../tables/neo_elementportions.html" xlink:title="neo_elementportions" target="_top">
<polygon fill="#ffffff" stroke="transparent" points="8,-120.7 8,-254.7 246,-254.7 246,-120.7 8,-120.7"/>
<polygon fill="#f5f5f5" stroke="transparent" points="10,-229.7 10,-252.7 244,-252.7 244,-229.7 10,-229.7"/>
<polygon fill="none" stroke="#000000" points="10,-229.7 10,-252.7 244,-252.7 244,-229.7 10,-229.7"/>
<text text-anchor="start" x="15" y="-238.3" font-family="Helvetica,sans-Serif" font-weight="bold" font-size="11.00" fill="#000000">neo_elementportions</text>
<text text-anchor="start" x="209.0437" y="-237.8" font-family="Helvetica,sans-Serif" font-size="11.00" fill="#000000">[table]</text>
<polygon fill="none" stroke="#000000" points="10,-207.7 10,-229.7 152,-229.7 152,-207.7 10,-207.7"/>
<image xlink:href="../../images/primaryKeys.png" width="11px" height="12px" preserveAspectRatio="xMinYMin meet" x="15" y="-224.7"/>
<text text-anchor="start" x="30" y="-214.8" font-family="Helvetica,sans-Serif" font-size="11.00" fill="#000000">PORTIONID</text>
<polygon fill="none" stroke="#000000" points="152,-207.7 152,-229.7 244,-229.7 244,-207.7 152,-207.7"/>
<text text-anchor="start" x="155" y="-215.4" font-family="Helvetica,sans-Serif" font-size="11.00" fill="#000000">int2[5]</text>
<polygon fill="none" stroke="#000000" points="10,-185.7 10,-207.7 152,-207.7 152,-185.7 10,-185.7"/>
<text text-anchor="start" x="30" y="-192.8" font-family="Helvetica,sans-Serif" font-size="11.00" fill="#000000">PORTION</text>
<polygon fill="none" stroke="#000000" points="152,-185.7 152,-207.7 244,-207.7 244,-185.7 152,-185.7"/>
<text text-anchor="start" x="155" y="-193.4" font-family="Helvetica,sans-Serif" font-size="11.00" fill="#000000">text[2147483647]</text>
<polygon fill="none" stroke="#000000" points="10,-163.7 10,-185.7 152,-185.7 152,-163.7 10,-163.7"/>
<text text-anchor="start" x="30" y="-170.8" font-family="Helvetica,sans-Serif" font-size="11.00" fill="#000000">CREATED_AT</text>
<polygon fill="none" stroke="#000000" points="152,-163.7 152,-185.7 244,-185.7 244,-163.7 152,-163.7"/>
<text text-anchor="start" x="154.6023" y="-171.4" font-family="Helvetica,sans-Serif" font-size="11.00" fill="#000000">timestamptz[35,6]</text>
<polygon fill="none" stroke="#000000" points="10,-141.7 10,-163.7 152,-163.7 152,-141.7 10,-141.7"/>
<text text-anchor="start" x="30" y="-148.8" font-family="Helvetica,sans-Serif" font-size="11.00" fill="#000000">UPDATED_AT</text>
<polygon fill="none" stroke="#000000" points="152,-141.7 152,-163.7 244,-163.7 244,-141.7 152,-141.7"/>
<text text-anchor="start" x="154.6023" y="-149.4" font-family="Helvetica,sans-Serif" font-size="11.00" fill="#000000">timestamptz[35,6]</text>
<polygon fill="#ffffff" stroke="transparent" points="10,-122.7 10,-141.7 69,-141.7 69,-122.7 10,-122.7"/>
<polygon fill="none" stroke="#000000" points="10,-122.7 10,-141.7 69,-141.7 69,-122.7 10,-122.7"/>
<text text-anchor="start" x="13" y="-128.8" font-family="Helvetica,sans-Serif" font-size="11.00" fill="#000000">&lt; 0</text>
<polygon fill="#ffffff" stroke="transparent" points="69,-122.7 69,-141.7 152,-141.7 152,-122.7 69,-122.7"/>
<polygon fill="none" stroke="#000000" points="69,-122.7 69,-141.7 152,-141.7 152,-122.7 69,-122.7"/>
<text text-anchor="start" x="110.4956" y="-128.8" font-family="Helvetica,sans-Serif" font-size="11.00" fill="#000000">54 rows</text>
<polygon fill="#ffffff" stroke="transparent" points="152,-122.7 152,-141.7 244,-141.7 244,-122.7 152,-122.7"/>
<polygon fill="none" stroke="#000000" points="152,-122.7 152,-141.7 244,-141.7 244,-122.7 152,-122.7"/>
<text text-anchor="start" x="225.4053" y="-128.8" font-family="Helvetica,sans-Serif" font-size="11.00" fill="#000000">1 &gt;</text>
<polygon fill="none" stroke="#000000" stroke-width="2" points="9,-121.7 9,-253.7 245,-253.7 245,-121.7 9,-121.7"/>
</a>
</g>
</g>
<!-- neo_variableelements&#45;&gt;neo_elementportions -->
<g id="edge4" class="edge">
<title>neo_variableelements:w&#45;&gt;neo_elementportions:e</title>
<path fill="none" stroke="#000000" d="M281.0967,-245.8988C268.0044,-237.6209 264.7231,-218.7 244,-218.7"/>
<polygon fill="#000000" stroke="#000000" points="287.2832,-247.5902 294.0506,-253.1726 291.1416,-248.6451 295,-249.7 295,-249.7 295,-249.7 291.1416,-248.6451 295.9494,-246.2274 287.2832,-247.5902 287.2832,-247.5902"/>
<ellipse fill="none" stroke="#000000" cx="284.1965" cy="-246.7462" rx="3.2" ry="3.2"/>
</g>
<!-- neo_elementsymmetries -->
<g id="node6" class="node">
<title>neo_elementsymmetries</title>
<g id="a_node6"><a xlink:href="../../tables/neo_elementsymmetries.html" xlink:title="neo_elementsymmetries" target="_top">
<polygon fill="#ffffff" stroke="transparent" points="37.5,-276.2 37.5,-337.2 216.5,-337.2 216.5,-276.2 37.5,-276.2"/>
<polygon fill="#f5f5f5" stroke="transparent" points="38,-313.7 38,-336.7 217,-336.7 217,-313.7 38,-313.7"/>
<polygon fill="none" stroke="#000000" points="38,-313.7 38,-336.7 217,-336.7 217,-313.7 38,-313.7"/>
<text text-anchor="start" x="43" y="-322.3" font-family="Helvetica,sans-Serif" font-weight="bold" font-size="11.00" fill="#000000">neo_elementsymmetries</text>
<text text-anchor="start" x="182.5219" y="-321.8" font-family="Helvetica,sans-Serif" font-size="11.00" fill="#000000">[table]</text>
<polygon fill="none" stroke="#000000" points="38,-294.7 38,-313.7 217,-313.7 217,-294.7 38,-294.7"/>
<text text-anchor="start" x="41" y="-300.8" font-family="Helvetica,sans-Serif" font-size="11.00" fill="#000000">...</text>
<polygon fill="#ffffff" stroke="transparent" points="38,-275.7 38,-294.7 104,-294.7 104,-275.7 38,-275.7"/>
<polygon fill="none" stroke="#000000" points="38,-275.7 38,-294.7 104,-294.7 104,-275.7 38,-275.7"/>
<text text-anchor="start" x="41" y="-281.8" font-family="Helvetica,sans-Serif" font-size="11.00" fill="#000000"> &#160;</text>
<polygon fill="#ffffff" stroke="transparent" points="104,-275.7 104,-294.7 169,-294.7 169,-275.7 104,-275.7"/>
<polygon fill="none" stroke="#000000" points="104,-275.7 104,-294.7 169,-294.7 169,-275.7 104,-275.7"/>
<text text-anchor="start" x="133.6105" y="-281.8" font-family="Helvetica,sans-Serif" font-size="11.00" fill="#000000">0 rows</text>
<polygon fill="#ffffff" stroke="transparent" points="169,-275.7 169,-294.7 217,-294.7 217,-275.7 169,-275.7"/>
<polygon fill="none" stroke="#000000" points="169,-275.7 169,-294.7 217,-294.7 217,-275.7 169,-275.7"/>
<text text-anchor="start" x="198.4053" y="-281.8" font-family="Helvetica,sans-Serif" font-size="11.00" fill="#000000">1 &gt;</text>
</a>
</g>
</g>
<!-- neo_variableelements&#45;&gt;neo_elementsymmetries -->
<g id="edge5" class="edge">
<title>neo_variableelements:w&#45;&gt;neo_elementsymmetries:e</title>
<path fill="none" stroke="#000000" d="M280.7017,-273.5121C255.9264,-280.2815 249.055,-303.7 217,-303.7"/>
<polygon fill="#000000" stroke="#000000" points="287.0635,-272.7059 295.4527,-275.2714 291.0317,-272.203 295,-271.7 295,-271.7 295,-271.7 291.0317,-272.203 294.5473,-268.1286 287.0635,-272.7059 287.0635,-272.7059"/>
<ellipse fill="none" stroke="#000000" cx="283.8889" cy="-273.1083" rx="3.2" ry="3.2"/>
</g>
</g>
</svg>
