<?xml version="1.0" encoding="UTF-8" standalone="no"?>
<!DOCTYPE svg PUBLIC "-//W3C//DTD SVG 1.1//EN"
 "http://www.w3.org/Graphics/SVG/1.1/DTD/svg11.dtd">
<!-- Generated by graphviz version 2.40.1 (20161225.0304)
 -->
<!-- Title: twoDegreesRelationshipsDiagram Pages: 1 -->
<svg width="1044pt" height="536pt"
 viewBox="0.00 0.00 1044.00 536.20" xmlns="http://www.w3.org/2000/svg" xmlns:xlink="http://www.w3.org/1999/xlink">
<g id="graph0" class="graph" transform="scale(1 1) rotate(0) translate(4 532.2)">
<title>twoDegreesRelationshipsDiagram</title>
<polygon fill="#ffffff" stroke="transparent" points="-4,4 -4,-532.2 1040,-532.2 1040,4 -4,4"/>
<text text-anchor="middle" x="72.4936" y="-7.3" font-family="Helvetica,sans-Serif" font-size="11.00" fill="#000000">Generated by SchemaSpy</text>
<!-- ippd_DataCore -->
<g id="node1" class="node">
<title>ippd_DataCore</title>
<g id="a_node1"><a xlink:href="../../tables/ippd_DataCore.html" xlink:title="ippd_DataCore" target="_top">
<polygon fill="#ffffff" stroke="transparent" points="904,-295.2 904,-356.2 1028,-356.2 1028,-295.2 904,-295.2"/>
<polygon fill="#f5f5f5" stroke="transparent" points="904,-332.7 904,-355.7 1028,-355.7 1028,-332.7 904,-332.7"/>
<polygon fill="none" stroke="#000000" points="904,-332.7 904,-355.7 1028,-355.7 1028,-332.7 904,-332.7"/>
<text text-anchor="start" x="909" y="-341.3" font-family="Helvetica,sans-Serif" font-weight="bold" font-size="11.00" fill="#000000">ippd_DataCore</text>
<text text-anchor="start" x="993.5219" y="-340.8" font-family="Helvetica,sans-Serif" font-size="11.00" fill="#000000">[table]</text>
<polygon fill="none" stroke="#000000" points="904,-313.7 904,-332.7 1028,-332.7 1028,-313.7 904,-313.7"/>
<text text-anchor="start" x="907" y="-319.8" font-family="Helvetica,sans-Serif" font-size="11.00" fill="#000000">...</text>
<polygon fill="#ffffff" stroke="transparent" points="904,-294.7 904,-313.7 934,-313.7 934,-294.7 904,-294.7"/>
<polygon fill="none" stroke="#000000" points="904,-294.7 904,-313.7 934,-313.7 934,-294.7 904,-294.7"/>
<text text-anchor="start" x="907" y="-300.8" font-family="Helvetica,sans-Serif" font-size="11.00" fill="#000000">&lt; 2</text>
<polygon fill="#ffffff" stroke="transparent" points="934,-294.7 934,-313.7 1011,-313.7 1011,-294.7 934,-294.7"/>
<polygon fill="none" stroke="#000000" points="934,-294.7 934,-313.7 1011,-313.7 1011,-294.7 934,-294.7"/>
<text text-anchor="start" x="941.9791" y="-300.8" font-family="Helvetica,sans-Serif" font-size="11.00" fill="#000000">384.434 rows</text>
<polygon fill="#ffffff" stroke="transparent" points="1011,-294.7 1011,-313.7 1028,-313.7 1028,-294.7 1011,-294.7"/>
<polygon fill="none" stroke="#000000" points="1011,-294.7 1011,-313.7 1028,-313.7 1028,-294.7 1011,-294.7"/>
<text text-anchor="start" x="1018.8862" y="-300.8" font-family="Helvetica,sans-Serif" font-size="11.00" fill="#000000"> &#160;</text>
</a>
</g>
</g>
<!-- ippd_variables -->
<g id="node2" class="node">
<title>ippd_variables</title>
<g id="a_node2"><a xlink:href="../../tables/ippd_variables.html" xlink:title="ippd_variables" target="_top">
<polygon fill="#ffffff" stroke="transparent" points="732,-186.2 732,-357.2 855,-357.2 855,-186.2 732,-186.2"/>
<polygon fill="#f5f5f5" stroke="transparent" points="732.5,-333.7 732.5,-356.7 855.5,-356.7 855.5,-333.7 732.5,-333.7"/>
<polygon fill="none" stroke="#000000" points="732.5,-333.7 732.5,-356.7 855.5,-356.7 855.5,-333.7 732.5,-333.7"/>
<text text-anchor="start" x="737.5" y="-342.3" font-family="Helvetica,sans-Serif" font-weight="bold" font-size="11.00" fill="#000000">ippd_variables</text>
<text text-anchor="start" x="821.0219" y="-341.8" font-family="Helvetica,sans-Serif" font-size="11.00" fill="#000000">[table]</text>
<polygon fill="none" stroke="#000000" points="732.5,-311.7 732.5,-333.7 855.5,-333.7 855.5,-311.7 732.5,-311.7"/>
<image xlink:href="../../images/primaryKeys.png" width="11px" height="12px" preserveAspectRatio="xMinYMin meet" x="737.5" y="-328.7"/>
<text text-anchor="start" x="761.5" y="-318.8" font-family="Helvetica,sans-Serif" font-size="11.00" fill="#000000">VARIABLEID</text>
<polygon fill="none" stroke="#000000" points="732.5,-289.7 732.5,-311.7 855.5,-311.7 855.5,-289.7 732.5,-289.7"/>
<image xlink:href="../../images/foreignKeys.png" width="11px" height="12px" preserveAspectRatio="xMinYMin meet" x="737.5" y="-306.7"/>
<text text-anchor="start" x="761.5" y="-296.8" font-family="Helvetica,sans-Serif" font-size="11.00" fill="#000000">TAXONID</text>
<polygon fill="none" stroke="#000000" points="732.5,-267.7 732.5,-289.7 855.5,-289.7 855.5,-267.7 732.5,-267.7"/>
<image xlink:href="../../images/foreignKeys.png" width="11px" height="12px" preserveAspectRatio="xMinYMin meet" x="737.5" y="-284.7"/>
<text text-anchor="start" x="761.5" y="-274.8" font-family="Helvetica,sans-Serif" font-size="11.00" fill="#000000">VARELEMTID</text>
<polygon fill="none" stroke="#000000" points="732.5,-245.7 732.5,-267.7 855.5,-267.7 855.5,-245.7 732.5,-245.7"/>
<image xlink:href="../../images/foreignKeys.png" width="11px" height="12px" preserveAspectRatio="xMinYMin meet" x="737.5" y="-262.7"/>
<text text-anchor="start" x="761.5" y="-252.8" font-family="Helvetica,sans-Serif" font-size="11.00" fill="#000000">VARUNITID</text>
<polygon fill="none" stroke="#000000" points="732.5,-223.7 732.5,-245.7 855.5,-245.7 855.5,-223.7 732.5,-223.7"/>
<image xlink:href="../../images/foreignKeys.png" width="11px" height="12px" preserveAspectRatio="xMinYMin meet" x="737.5" y="-240.7"/>
<text text-anchor="start" x="761.5" y="-230.8" font-family="Helvetica,sans-Serif" font-size="11.00" fill="#000000">VARCONTXID</text>
<polygon fill="none" stroke="#000000" points="732.5,-204.7 732.5,-223.7 855.5,-223.7 855.5,-204.7 732.5,-204.7"/>
<text text-anchor="start" x="735.5" y="-210.8" font-family="Helvetica,sans-Serif" font-size="11.00" fill="#000000">...</text>
<polygon fill="#ffffff" stroke="transparent" points="732.5,-185.7 732.5,-204.7 764.5,-204.7 764.5,-185.7 732.5,-185.7"/>
<polygon fill="none" stroke="#000000" points="732.5,-185.7 732.5,-204.7 764.5,-204.7 764.5,-185.7 732.5,-185.7"/>
<text text-anchor="start" x="735.5" y="-191.8" font-family="Helvetica,sans-Serif" font-size="11.00" fill="#000000">&lt; 4</text>
<polygon fill="#ffffff" stroke="transparent" points="764.5,-185.7 764.5,-204.7 828.5,-204.7 828.5,-185.7 764.5,-185.7"/>
<polygon fill="none" stroke="#000000" points="764.5,-185.7 764.5,-204.7 828.5,-204.7 828.5,-185.7 764.5,-185.7"/>
<text text-anchor="start" x="771.7089" y="-191.8" font-family="Helvetica,sans-Serif" font-size="11.00" fill="#000000">2.734 rows</text>
<polygon fill="#ffffff" stroke="transparent" points="828.5,-185.7 828.5,-204.7 855.5,-204.7 855.5,-185.7 828.5,-185.7"/>
<polygon fill="none" stroke="#000000" points="828.5,-185.7 828.5,-204.7 855.5,-204.7 855.5,-185.7 828.5,-185.7"/>
<text text-anchor="start" x="836.9053" y="-191.8" font-family="Helvetica,sans-Serif" font-size="11.00" fill="#000000">1 &gt;</text>
</a>
</g>
</g>
<!-- ippd_DataCore&#45;&gt;ippd_variables -->
<g id="edge1" class="edge">
<title>ippd_DataCore:w&#45;&gt;ippd_variables:e</title>
<path fill="none" stroke="#000000" d="M889.2829,-322.7C878.2886,-322.7 871.1615,-322.7 855.5,-322.7"/>
<polygon fill="#000000" stroke="#000000" points="896,-322.7001 904,-326.3 900,-322.7 904,-322.7 904,-322.7 904,-322.7 900,-322.7 904,-319.1 896,-322.7001 896,-322.7001"/>
<ellipse fill="none" stroke="#000000" cx="892.8" cy="-322.7001" rx="3.2" ry="3.2"/>
</g>
<!-- cabah_taxaID -->
<g id="node3" class="node">
<title>cabah_taxaID</title>
<g id="a_node3"><a xlink:href="../../tables/cabah_taxaID.html" xlink:title="cabah_taxaID" target="_top">
<polygon fill="#ffffff" stroke="transparent" points="504,-446.2 504,-507.2 620,-507.2 620,-446.2 504,-446.2"/>
<polygon fill="#f5f5f5" stroke="transparent" points="504,-483.7 504,-506.7 620,-506.7 620,-483.7 504,-483.7"/>
<polygon fill="none" stroke="#000000" points="504,-483.7 504,-506.7 620,-506.7 620,-483.7 504,-483.7"/>
<text text-anchor="start" x="509" y="-492.3" font-family="Helvetica,sans-Serif" font-weight="bold" font-size="11.00" fill="#000000">cabah_taxaID</text>
<text text-anchor="start" x="585.5219" y="-491.8" font-family="Helvetica,sans-Serif" font-size="11.00" fill="#000000">[table]</text>
<polygon fill="none" stroke="#000000" points="504,-464.7 504,-483.7 620,-483.7 620,-464.7 504,-464.7"/>
<text text-anchor="start" x="507" y="-470.8" font-family="Helvetica,sans-Serif" font-size="11.00" fill="#000000">...</text>
<polygon fill="#ffffff" stroke="transparent" points="504,-445.7 504,-464.7 529,-464.7 529,-445.7 504,-445.7"/>
<polygon fill="none" stroke="#000000" points="504,-445.7 504,-464.7 529,-464.7 529,-445.7 504,-445.7"/>
<text text-anchor="start" x="507" y="-451.8" font-family="Helvetica,sans-Serif" font-size="11.00" fill="#000000">&lt; 3</text>
<polygon fill="#ffffff" stroke="transparent" points="529,-445.7 529,-464.7 596,-464.7 596,-445.7 529,-445.7"/>
<polygon fill="none" stroke="#000000" points="529,-445.7 529,-464.7 596,-464.7 596,-445.7 529,-445.7"/>
<text text-anchor="start" x="533.094" y="-451.8" font-family="Helvetica,sans-Serif" font-size="11.00" fill="#000000">47.144 rows</text>
<polygon fill="#ffffff" stroke="transparent" points="596,-445.7 596,-464.7 620,-464.7 620,-445.7 596,-445.7"/>
<polygon fill="none" stroke="#000000" points="596,-445.7 596,-464.7 620,-464.7 620,-445.7 596,-445.7"/>
<text text-anchor="start" x="601.4053" y="-451.8" font-family="Helvetica,sans-Serif" font-size="11.00" fill="#000000">3 &gt;</text>
</a>
</g>
</g>
<!-- ippd_variables&#45;&gt;cabah_taxaID -->
<g id="edge2" class="edge">
<title>ippd_variables:w&#45;&gt;cabah_taxaID:e</title>
<path fill="none" stroke="#000000" d="M718.1726,-302.7913C680.1077,-316.2674 727.2358,-391.689 691,-435.7 668.2507,-463.3307 655.7909,-473.7 620,-473.7"/>
<polygon fill="#000000" stroke="#000000" points="724.5839,-301.8555 733.02,-304.2623 728.5419,-301.2778 732.5,-300.7 732.5,-300.7 732.5,-300.7 728.5419,-301.2778 731.98,-297.1377 724.5839,-301.8555 724.5839,-301.8555"/>
<ellipse fill="none" stroke="#000000" cx="721.4174" cy="-302.3178" rx="3.2" ry="3.2"/>
</g>
<!-- neo_variablecontexts -->
<g id="node4" class="node">
<title>neo_variablecontexts</title>
<g id="a_node4"><a xlink:href="../../tables/neo_variablecontexts.html" xlink:title="neo_variablecontexts" target="_top">
<polygon fill="#ffffff" stroke="transparent" points="481.5,-38.2 481.5,-99.2 642.5,-99.2 642.5,-38.2 481.5,-38.2"/>
<polygon fill="#f5f5f5" stroke="transparent" points="482,-75.7 482,-98.7 643,-98.7 643,-75.7 482,-75.7"/>
<polygon fill="none" stroke="#000000" points="482,-75.7 482,-98.7 643,-98.7 643,-75.7 482,-75.7"/>
<text text-anchor="start" x="487" y="-84.3" font-family="Helvetica,sans-Serif" font-weight="bold" font-size="11.00" fill="#000000">neo_variablecontexts</text>
<text text-anchor="start" x="608.5219" y="-83.8" font-family="Helvetica,sans-Serif" font-size="11.00" fill="#000000">[table]</text>
<polygon fill="none" stroke="#000000" points="482,-56.7 482,-75.7 643,-75.7 643,-56.7 482,-56.7"/>
<text text-anchor="start" x="485" y="-62.8" font-family="Helvetica,sans-Serif" font-size="11.00" fill="#000000">...</text>
<polygon fill="#ffffff" stroke="transparent" points="482,-37.7 482,-56.7 536,-56.7 536,-37.7 482,-37.7"/>
<polygon fill="none" stroke="#000000" points="482,-37.7 482,-56.7 536,-56.7 536,-37.7 482,-37.7"/>
<text text-anchor="start" x="485" y="-43.8" font-family="Helvetica,sans-Serif" font-size="11.00" fill="#000000"> &#160;</text>
<polygon fill="#ffffff" stroke="transparent" points="536,-37.7 536,-56.7 601,-56.7 601,-37.7 536,-37.7"/>
<polygon fill="none" stroke="#000000" points="536,-37.7 536,-56.7 601,-56.7 601,-37.7 536,-37.7"/>
<text text-anchor="start" x="559.4956" y="-43.8" font-family="Helvetica,sans-Serif" font-size="11.00" fill="#000000">88 rows</text>
<polygon fill="#ffffff" stroke="transparent" points="601,-37.7 601,-56.7 643,-56.7 643,-37.7 601,-37.7"/>
<polygon fill="none" stroke="#000000" points="601,-37.7 601,-56.7 643,-56.7 643,-37.7 601,-37.7"/>
<text text-anchor="start" x="624.4053" y="-43.8" font-family="Helvetica,sans-Serif" font-size="11.00" fill="#000000">1 &gt;</text>
</a>
</g>
</g>
<!-- ippd_variables&#45;&gt;neo_variablecontexts -->
<g id="edge3" class="edge">
<title>ippd_variables:w&#45;&gt;neo_variablecontexts:e</title>
<path fill="none" stroke="#000000" d="M718.2478,-232.625C682.7357,-220.1373 719.7125,-154.0354 691,-109.7 675.2687,-85.4089 671.9401,-65.7 643,-65.7"/>
<polygon fill="#000000" stroke="#000000" points="724.5835,-233.5474 731.9813,-238.2624 728.5417,-234.1237 732.5,-234.7 732.5,-234.7 732.5,-234.7 728.5417,-234.1237 733.0187,-231.1376 724.5835,-233.5474 724.5835,-233.5474"/>
<ellipse fill="none" stroke="#000000" cx="721.4168" cy="-233.0863" rx="3.2" ry="3.2"/>
</g>
<!-- neo_variableelements -->
<g id="node5" class="node">
<title>neo_variableelements</title>
<g id="a_node5"><a xlink:href="../../tables/neo_variableelements.html" xlink:title="neo_variableelements" target="_top">
<polygon fill="#ffffff" stroke="transparent" points="441,-202.7 441,-424.7 683,-424.7 683,-202.7 441,-202.7"/>
<polygon fill="#f5f5f5" stroke="transparent" points="443,-399.7 443,-422.7 681,-422.7 681,-399.7 443,-399.7"/>
<polygon fill="none" stroke="#000000" points="443,-399.7 443,-422.7 681,-422.7 681,-399.7 443,-399.7"/>
<text text-anchor="start" x="448" y="-408.3" font-family="Helvetica,sans-Serif" font-weight="bold" font-size="11.00" fill="#000000">neo_variableelements</text>
<text text-anchor="start" x="646.0437" y="-407.8" font-family="Helvetica,sans-Serif" font-size="11.00" fill="#000000">[table]</text>
<polygon fill="none" stroke="#000000" points="443,-377.7 443,-399.7 589,-399.7 589,-377.7 443,-377.7"/>
<image xlink:href="../../images/primaryKeys.png" width="11px" height="12px" preserveAspectRatio="xMinYMin meet" x="448" y="-394.7"/>
<text text-anchor="start" x="463" y="-384.8" font-family="Helvetica,sans-Serif" font-size="11.00" fill="#000000">VARELEMTID</text>
<polygon fill="none" stroke="#000000" points="589,-377.7 589,-399.7 681,-399.7 681,-377.7 589,-377.7"/>
<text text-anchor="start" x="592" y="-385.4" font-family="Helvetica,sans-Serif" font-size="11.00" fill="#000000">int4[10]</text>
<polygon fill="none" stroke="#000000" points="443,-355.7 443,-377.7 589,-377.7 589,-355.7 443,-355.7"/>
<text text-anchor="start" x="463" y="-362.8" font-family="Helvetica,sans-Serif" font-size="11.00" fill="#000000">VARELEMENT</text>
<polygon fill="none" stroke="#000000" points="589,-355.7 589,-377.7 681,-377.7 681,-355.7 589,-355.7"/>
<text text-anchor="start" x="592" y="-363.4" font-family="Helvetica,sans-Serif" font-size="11.00" fill="#000000">text[2147483647]</text>
<polygon fill="none" stroke="#000000" points="443,-333.7 443,-355.7 589,-355.7 589,-333.7 443,-333.7"/>
<image xlink:href="../../images/foreignKeys.png" width="11px" height="12px" preserveAspectRatio="xMinYMin meet" x="448" y="-350.7"/>
<text text-anchor="start" x="463" y="-340.8" font-family="Helvetica,sans-Serif" font-size="11.00" fill="#000000">ELEMTYPEID</text>
<polygon fill="none" stroke="#000000" points="589,-333.7 589,-355.7 681,-355.7 681,-333.7 589,-333.7"/>
<text text-anchor="start" x="592" y="-341.4" font-family="Helvetica,sans-Serif" font-size="11.00" fill="#000000">int2[5]</text>
<polygon fill="none" stroke="#000000" points="443,-311.7 443,-333.7 589,-333.7 589,-311.7 443,-311.7"/>
<image xlink:href="../../images/foreignKeys.png" width="11px" height="12px" preserveAspectRatio="xMinYMin meet" x="448" y="-328.7"/>
<text text-anchor="start" x="463" y="-318.8" font-family="Helvetica,sans-Serif" font-size="11.00" fill="#000000">SYMMETRYID</text>
<polygon fill="none" stroke="#000000" points="589,-311.7 589,-333.7 681,-333.7 681,-311.7 589,-311.7"/>
<text text-anchor="start" x="592" y="-319.4" font-family="Helvetica,sans-Serif" font-size="11.00" fill="#000000">int2[5]</text>
<polygon fill="none" stroke="#000000" points="443,-289.7 443,-311.7 589,-311.7 589,-289.7 443,-289.7"/>
<image xlink:href="../../images/foreignKeys.png" width="11px" height="12px" preserveAspectRatio="xMinYMin meet" x="448" y="-306.7"/>
<text text-anchor="start" x="463" y="-296.8" font-family="Helvetica,sans-Serif" font-size="11.00" fill="#000000">PORTIONID</text>
<polygon fill="none" stroke="#000000" points="589,-289.7 589,-311.7 681,-311.7 681,-289.7 589,-289.7"/>
<text text-anchor="start" x="592" y="-297.4" font-family="Helvetica,sans-Serif" font-size="11.00" fill="#000000">int2[5]</text>
<polygon fill="none" stroke="#000000" points="443,-267.7 443,-289.7 589,-289.7 589,-267.7 443,-267.7"/>
<image xlink:href="../../images/foreignKeys.png" width="11px" height="12px" preserveAspectRatio="xMinYMin meet" x="448" y="-284.7"/>
<text text-anchor="start" x="463" y="-274.8" font-family="Helvetica,sans-Serif" font-size="11.00" fill="#000000">MATURITYID</text>
<polygon fill="none" stroke="#000000" points="589,-267.7 589,-289.7 681,-289.7 681,-267.7 589,-267.7"/>
<text text-anchor="start" x="592" y="-275.4" font-family="Helvetica,sans-Serif" font-size="11.00" fill="#000000">int2[5]</text>
<polygon fill="none" stroke="#000000" points="443,-245.7 443,-267.7 589,-267.7 589,-245.7 443,-245.7"/>
<text text-anchor="start" x="463" y="-252.8" font-family="Helvetica,sans-Serif" font-size="11.00" fill="#000000">CREATED_AT</text>
<polygon fill="none" stroke="#000000" points="589,-245.7 589,-267.7 681,-267.7 681,-245.7 589,-245.7"/>
<text text-anchor="start" x="591.6023" y="-253.4" font-family="Helvetica,sans-Serif" font-size="11.00" fill="#000000">timestamptz[35,6]</text>
<polygon fill="none" stroke="#000000" points="443,-223.7 443,-245.7 589,-245.7 589,-223.7 443,-223.7"/>
<text text-anchor="start" x="463" y="-230.8" font-family="Helvetica,sans-Serif" font-size="11.00" fill="#000000">UPDATED_AT</text>
<polygon fill="none" stroke="#000000" points="589,-223.7 589,-245.7 681,-245.7 681,-223.7 589,-223.7"/>
<text text-anchor="start" x="591.6023" y="-231.4" font-family="Helvetica,sans-Serif" font-size="11.00" fill="#000000">timestamptz[35,6]</text>
<polygon fill="#ffffff" stroke="transparent" points="443,-204.7 443,-223.7 501,-223.7 501,-204.7 443,-204.7"/>
<polygon fill="none" stroke="#000000" points="443,-204.7 443,-223.7 501,-223.7 501,-204.7 443,-204.7"/>
<text text-anchor="start" x="446" y="-210.8" font-family="Helvetica,sans-Serif" font-size="11.00" fill="#000000">&lt; 4</text>
<polygon fill="#ffffff" stroke="transparent" points="501,-204.7 501,-223.7 589,-223.7 589,-204.7 501,-204.7"/>
<polygon fill="none" stroke="#000000" points="501,-204.7 501,-223.7 589,-223.7 589,-204.7 501,-204.7"/>
<text text-anchor="start" x="541.3807" y="-210.8" font-family="Helvetica,sans-Serif" font-size="11.00" fill="#000000">983 rows</text>
<polygon fill="#ffffff" stroke="transparent" points="589,-204.7 589,-223.7 681,-223.7 681,-204.7 589,-204.7"/>
<polygon fill="none" stroke="#000000" points="589,-204.7 589,-223.7 681,-223.7 681,-204.7 589,-204.7"/>
<text text-anchor="start" x="662.4053" y="-210.8" font-family="Helvetica,sans-Serif" font-size="11.00" fill="#000000">1 &gt;</text>
<polygon fill="none" stroke="#000000" stroke-width="2" points="442,-203.7 442,-423.7 682,-423.7 682,-203.7 442,-203.7"/>
</a>
</g>
</g>
<!-- ippd_variables&#45;&gt;neo_variableelements -->
<g id="edge4" class="edge">
<title>ippd_variables:w&#45;&gt;neo_variableelements:e</title>
<path fill="none" stroke="#000000" d="M718.462,-282.3599C689.5484,-301.4466 729.0775,-388.7 681,-388.7"/>
<polygon fill="#000000" stroke="#000000" points="724.7588,-280.7183 733.4082,-282.1836 728.6294,-279.7091 732.5,-278.7 732.5,-278.7 732.5,-278.7 728.6294,-279.7091 731.5918,-275.2164 724.7588,-280.7183 724.7588,-280.7183"/>
<ellipse fill="none" stroke="#000000" cx="721.6623" cy="-281.5256" rx="3.2" ry="3.2"/>
</g>
<!-- neo_variableunits -->
<g id="node6" class="node">
<title>neo_variableunits</title>
<g id="a_node6"><a xlink:href="../../tables/neo_variableunits.html" xlink:title="neo_variableunits" target="_top">
<polygon fill="#ffffff" stroke="transparent" points="491.5,-120.2 491.5,-181.2 632.5,-181.2 632.5,-120.2 491.5,-120.2"/>
<polygon fill="#f5f5f5" stroke="transparent" points="492,-157.7 492,-180.7 633,-180.7 633,-157.7 492,-157.7"/>
<polygon fill="none" stroke="#000000" points="492,-157.7 492,-180.7 633,-180.7 633,-157.7 492,-157.7"/>
<text text-anchor="start" x="497" y="-166.3" font-family="Helvetica,sans-Serif" font-weight="bold" font-size="11.00" fill="#000000">neo_variableunits</text>
<text text-anchor="start" x="598.5219" y="-165.8" font-family="Helvetica,sans-Serif" font-size="11.00" fill="#000000">[table]</text>
<polygon fill="none" stroke="#000000" points="492,-138.7 492,-157.7 633,-157.7 633,-138.7 492,-138.7"/>
<text text-anchor="start" x="495" y="-144.8" font-family="Helvetica,sans-Serif" font-size="11.00" fill="#000000">...</text>
<polygon fill="#ffffff" stroke="transparent" points="492,-119.7 492,-138.7 533,-138.7 533,-119.7 492,-119.7"/>
<polygon fill="none" stroke="#000000" points="492,-119.7 492,-138.7 533,-138.7 533,-119.7 492,-119.7"/>
<text text-anchor="start" x="495" y="-125.8" font-family="Helvetica,sans-Serif" font-size="11.00" fill="#000000"> &#160;</text>
<polygon fill="#ffffff" stroke="transparent" points="533,-119.7 533,-138.7 597,-138.7 597,-119.7 533,-119.7"/>
<polygon fill="none" stroke="#000000" points="533,-119.7 533,-138.7 597,-138.7 597,-119.7 533,-119.7"/>
<text text-anchor="start" x="549.3807" y="-125.8" font-family="Helvetica,sans-Serif" font-size="11.00" fill="#000000">210 rows</text>
<polygon fill="#ffffff" stroke="transparent" points="597,-119.7 597,-138.7 633,-138.7 633,-119.7 597,-119.7"/>
<polygon fill="none" stroke="#000000" points="597,-119.7 597,-138.7 633,-138.7 633,-119.7 597,-119.7"/>
<text text-anchor="start" x="614.4053" y="-125.8" font-family="Helvetica,sans-Serif" font-size="11.00" fill="#000000">1 &gt;</text>
</a>
</g>
</g>
<!-- ippd_variables&#45;&gt;neo_variableunits -->
<g id="edge5" class="edge">
<title>ippd_variables:w&#45;&gt;neo_variableunits:e</title>
<path fill="none" stroke="#000000" d="M718.3752,-253.1601C702.7124,-242.8667 710.0621,-212.3676 691,-191.7 669.0633,-167.9157 665.356,-147.7 633,-147.7"/>
<polygon fill="#000000" stroke="#000000" points="724.74,-254.7552 731.6248,-260.192 728.62,-255.7276 732.5,-256.7 732.5,-256.7 732.5,-256.7 728.62,-255.7276 733.3752,-253.208 724.74,-254.7552 724.74,-254.7552"/>
<ellipse fill="none" stroke="#000000" cx="721.636" cy="-253.9772" rx="3.2" ry="3.2"/>
</g>
<!-- neo_elementtypes -->
<g id="node7" class="node">
<title>neo_elementtypes</title>
<g id="a_node7"><a xlink:href="../../tables/neo_elementtypes.html" xlink:title="neo_elementtypes" target="_top">
<polygon fill="#ffffff" stroke="transparent" points="231,-419.2 231,-524.2 374,-524.2 374,-419.2 231,-419.2"/>
<polygon fill="#f5f5f5" stroke="transparent" points="231.5,-500.7 231.5,-523.7 374.5,-523.7 374.5,-500.7 231.5,-500.7"/>
<polygon fill="none" stroke="#000000" points="231.5,-500.7 231.5,-523.7 374.5,-523.7 374.5,-500.7 231.5,-500.7"/>
<text text-anchor="start" x="236.5" y="-509.3" font-family="Helvetica,sans-Serif" font-weight="bold" font-size="11.00" fill="#000000">neo_elementtypes</text>
<text text-anchor="start" x="340.0219" y="-508.8" font-family="Helvetica,sans-Serif" font-size="11.00" fill="#000000">[table]</text>
<polygon fill="none" stroke="#000000" points="231.5,-478.7 231.5,-500.7 374.5,-500.7 374.5,-478.7 231.5,-478.7"/>
<image xlink:href="../../images/primaryKeys.png" width="11px" height="12px" preserveAspectRatio="xMinYMin meet" x="236.5" y="-495.7"/>
<text text-anchor="start" x="260.5" y="-485.8" font-family="Helvetica,sans-Serif" font-size="11.00" fill="#000000">ELEMTYPEID</text>
<polygon fill="none" stroke="#000000" points="231.5,-456.7 231.5,-478.7 374.5,-478.7 374.5,-456.7 231.5,-456.7"/>
<image xlink:href="../../images/foreignKeys.png" width="11px" height="12px" preserveAspectRatio="xMinYMin meet" x="236.5" y="-473.7"/>
<text text-anchor="start" x="260.5" y="-463.8" font-family="Helvetica,sans-Serif" font-size="11.00" fill="#000000">DATASRCID</text>
<polygon fill="none" stroke="#000000" points="231.5,-437.7 231.5,-456.7 374.5,-456.7 374.5,-437.7 231.5,-437.7"/>
<text text-anchor="start" x="234.5" y="-443.8" font-family="Helvetica,sans-Serif" font-size="11.00" fill="#000000">...</text>
<polygon fill="#ffffff" stroke="transparent" points="231.5,-418.7 231.5,-437.7 277.5,-437.7 277.5,-418.7 231.5,-418.7"/>
<polygon fill="none" stroke="#000000" points="231.5,-418.7 231.5,-437.7 277.5,-437.7 277.5,-418.7 231.5,-418.7"/>
<text text-anchor="start" x="234.5" y="-424.8" font-family="Helvetica,sans-Serif" font-size="11.00" fill="#000000">&lt; 1</text>
<polygon fill="#ffffff" stroke="transparent" points="277.5,-418.7 277.5,-437.7 340.5,-437.7 340.5,-418.7 277.5,-418.7"/>
<polygon fill="none" stroke="#000000" points="277.5,-418.7 277.5,-437.7 340.5,-437.7 340.5,-418.7 277.5,-418.7"/>
<text text-anchor="start" x="292.8807" y="-424.8" font-family="Helvetica,sans-Serif" font-size="11.00" fill="#000000">939 rows</text>
<polygon fill="#ffffff" stroke="transparent" points="340.5,-418.7 340.5,-437.7 374.5,-437.7 374.5,-418.7 340.5,-418.7"/>
<polygon fill="none" stroke="#000000" points="340.5,-418.7 340.5,-437.7 374.5,-437.7 374.5,-418.7 340.5,-418.7"/>
<text text-anchor="start" x="355.9053" y="-424.8" font-family="Helvetica,sans-Serif" font-size="11.00" fill="#000000">1 &gt;</text>
</a>
</g>
</g>
<!-- neo_variableelements&#45;&gt;neo_elementtypes -->
<g id="edge7" class="edge">
<title>neo_variableelements:w&#45;&gt;neo_elementtypes:e</title>
<path fill="none" stroke="#000000" d="M428.8175,-347.2167C382.4092,-366.4712 440.2055,-489.7 374.5,-489.7"/>
<polygon fill="#000000" stroke="#000000" points="435.1231,-346.0978 443.629,-348.2446 439.0615,-345.3989 443,-344.7 443,-344.7 443,-344.7 439.0615,-345.3989 442.371,-341.1554 435.1231,-346.0978 435.1231,-346.0978"/>
<ellipse fill="none" stroke="#000000" cx="431.9723" cy="-346.657" rx="3.2" ry="3.2"/>
</g>
<!-- neo_elementmaturities -->
<g id="node9" class="node">
<title>neo_elementmaturities</title>
<g id="a_node9"><a xlink:href="../../tables/neo_elementmaturities.html" xlink:title="neo_elementmaturities" target="_top">
<polygon fill="#ffffff" stroke="transparent" points="218,-107.2 218,-190.2 387,-190.2 387,-107.2 218,-107.2"/>
<polygon fill="#f5f5f5" stroke="transparent" points="218.5,-166.7 218.5,-189.7 387.5,-189.7 387.5,-166.7 218.5,-166.7"/>
<polygon fill="none" stroke="#000000" points="218.5,-166.7 218.5,-189.7 387.5,-189.7 387.5,-166.7 218.5,-166.7"/>
<text text-anchor="start" x="223.5" y="-175.3" font-family="Helvetica,sans-Serif" font-weight="bold" font-size="11.00" fill="#000000">neo_elementmaturities</text>
<text text-anchor="start" x="353.0219" y="-174.8" font-family="Helvetica,sans-Serif" font-size="11.00" fill="#000000">[table]</text>
<polygon fill="none" stroke="#000000" points="218.5,-144.7 218.5,-166.7 387.5,-166.7 387.5,-144.7 218.5,-144.7"/>
<image xlink:href="../../images/primaryKeys.png" width="11px" height="12px" preserveAspectRatio="xMinYMin meet" x="223.5" y="-161.7"/>
<text text-anchor="start" x="247.5" y="-151.8" font-family="Helvetica,sans-Serif" font-size="11.00" fill="#000000">MATURITYID</text>
<polygon fill="none" stroke="#000000" points="218.5,-125.7 218.5,-144.7 387.5,-144.7 387.5,-125.7 218.5,-125.7"/>
<text text-anchor="start" x="221.5" y="-131.8" font-family="Helvetica,sans-Serif" font-size="11.00" fill="#000000">...</text>
<polygon fill="#ffffff" stroke="transparent" points="218.5,-106.7 218.5,-125.7 279.5,-125.7 279.5,-106.7 218.5,-106.7"/>
<polygon fill="none" stroke="#000000" points="218.5,-106.7 218.5,-125.7 279.5,-125.7 279.5,-106.7 218.5,-106.7"/>
<text text-anchor="start" x="221.5" y="-112.8" font-family="Helvetica,sans-Serif" font-size="11.00" fill="#000000"> &#160;</text>
<polygon fill="#ffffff" stroke="transparent" points="279.5,-106.7 279.5,-125.7 341.5,-125.7 341.5,-106.7 279.5,-106.7"/>
<polygon fill="none" stroke="#000000" points="279.5,-106.7 279.5,-125.7 341.5,-125.7 341.5,-106.7 279.5,-106.7"/>
<text text-anchor="start" x="306.1105" y="-112.8" font-family="Helvetica,sans-Serif" font-size="11.00" fill="#000000">0 rows</text>
<polygon fill="#ffffff" stroke="transparent" points="341.5,-106.7 341.5,-125.7 387.5,-125.7 387.5,-106.7 341.5,-106.7"/>
<polygon fill="none" stroke="#000000" points="341.5,-106.7 341.5,-125.7 387.5,-125.7 387.5,-106.7 341.5,-106.7"/>
<text text-anchor="start" x="368.9053" y="-112.8" font-family="Helvetica,sans-Serif" font-size="11.00" fill="#000000">1 &gt;</text>
</a>
</g>
</g>
<!-- neo_variableelements&#45;&gt;neo_elementmaturities -->
<g id="edge8" class="edge">
<title>neo_variableelements:w&#45;&gt;neo_elementmaturities:e</title>
<path fill="none" stroke="#000000" d="M428.7575,-275.41C394.4269,-255.8496 441.6172,-155.7 387.5,-155.7"/>
<polygon fill="#000000" stroke="#000000" points="435.2053,-276.8994 442.1897,-282.2076 439.1026,-277.7997 443,-278.7 443,-278.7 443,-278.7 439.1026,-277.7997 443.8103,-275.1924 435.2053,-276.8994 435.2053,-276.8994"/>
<ellipse fill="none" stroke="#000000" cx="432.0874" cy="-276.1792" rx="3.2" ry="3.2"/>
</g>
<!-- neo_elementportions -->
<g id="node10" class="node">
<title>neo_elementportions</title>
<g id="a_node10"><a xlink:href="../../tables/neo_elementportions.html" xlink:title="neo_elementportions" target="_top">
<polygon fill="#ffffff" stroke="transparent" points="222.5,-211.2 222.5,-294.2 382.5,-294.2 382.5,-211.2 222.5,-211.2"/>
<polygon fill="#f5f5f5" stroke="transparent" points="222.5,-270.7 222.5,-293.7 382.5,-293.7 382.5,-270.7 222.5,-270.7"/>
<polygon fill="none" stroke="#000000" points="222.5,-270.7 222.5,-293.7 382.5,-293.7 382.5,-270.7 222.5,-270.7"/>
<text text-anchor="start" x="227.5" y="-279.3" font-family="Helvetica,sans-Serif" font-weight="bold" font-size="11.00" fill="#000000">neo_elementportions</text>
<text text-anchor="start" x="348.0219" y="-278.8" font-family="Helvetica,sans-Serif" font-size="11.00" fill="#000000">[table]</text>
<polygon fill="none" stroke="#000000" points="222.5,-248.7 222.5,-270.7 382.5,-270.7 382.5,-248.7 222.5,-248.7"/>
<image xlink:href="../../images/primaryKeys.png" width="11px" height="12px" preserveAspectRatio="xMinYMin meet" x="227.5" y="-265.7"/>
<text text-anchor="start" x="251.5" y="-255.8" font-family="Helvetica,sans-Serif" font-size="11.00" fill="#000000">PORTIONID</text>
<polygon fill="none" stroke="#000000" points="222.5,-229.7 222.5,-248.7 382.5,-248.7 382.5,-229.7 222.5,-229.7"/>
<text text-anchor="start" x="225.5" y="-235.8" font-family="Helvetica,sans-Serif" font-size="11.00" fill="#000000">...</text>
<polygon fill="#ffffff" stroke="transparent" points="222.5,-210.7 222.5,-229.7 275.5,-229.7 275.5,-210.7 222.5,-210.7"/>
<polygon fill="none" stroke="#000000" points="222.5,-210.7 222.5,-229.7 275.5,-229.7 275.5,-210.7 222.5,-210.7"/>
<text text-anchor="start" x="225.5" y="-216.8" font-family="Helvetica,sans-Serif" font-size="11.00" fill="#000000"> &#160;</text>
<polygon fill="#ffffff" stroke="transparent" points="275.5,-210.7 275.5,-229.7 340.5,-229.7 340.5,-210.7 275.5,-210.7"/>
<polygon fill="none" stroke="#000000" points="275.5,-210.7 275.5,-229.7 340.5,-229.7 340.5,-210.7 275.5,-210.7"/>
<text text-anchor="start" x="298.9956" y="-216.8" font-family="Helvetica,sans-Serif" font-size="11.00" fill="#000000">54 rows</text>
<polygon fill="#ffffff" stroke="transparent" points="340.5,-210.7 340.5,-229.7 382.5,-229.7 382.5,-210.7 340.5,-210.7"/>
<polygon fill="none" stroke="#000000" points="340.5,-210.7 340.5,-229.7 382.5,-229.7 382.5,-210.7 340.5,-210.7"/>
<text text-anchor="start" x="363.9053" y="-216.8" font-family="Helvetica,sans-Serif" font-size="11.00" fill="#000000">1 &gt;</text>
</a>
</g>
</g>
<!-- neo_variableelements&#45;&gt;neo_elementportions -->
<g id="edge9" class="edge">
<title>neo_variableelements:w&#45;&gt;neo_elementportions:e</title>
<path fill="none" stroke="#000000" d="M428.8943,-297.3448C410.9459,-287.5528 409.272,-259.7 382.5,-259.7"/>
<polygon fill="#000000" stroke="#000000" points="435.2171,-298.8487 442.1669,-304.2023 439.1086,-299.7744 443,-300.7 443,-300.7 443,-300.7 439.1086,-299.7744 443.8331,-297.1977 435.2171,-298.8487 435.2171,-298.8487"/>
<ellipse fill="none" stroke="#000000" cx="432.104" cy="-298.1082" rx="3.2" ry="3.2"/>
</g>
<!-- neo_elementsymmetries -->
<g id="node11" class="node">
<title>neo_elementsymmetries</title>
<g id="a_node11"><a xlink:href="../../tables/neo_elementsymmetries.html" xlink:title="neo_elementsymmetries" target="_top">
<polygon fill="#ffffff" stroke="transparent" points="213,-315.2 213,-398.2 392,-398.2 392,-315.2 213,-315.2"/>
<polygon fill="#f5f5f5" stroke="transparent" points="213.5,-374.7 213.5,-397.7 392.5,-397.7 392.5,-374.7 213.5,-374.7"/>
<polygon fill="none" stroke="#000000" points="213.5,-374.7 213.5,-397.7 392.5,-397.7 392.5,-374.7 213.5,-374.7"/>
<text text-anchor="start" x="218.5" y="-383.3" font-family="Helvetica,sans-Serif" font-weight="bold" font-size="11.00" fill="#000000">neo_elementsymmetries</text>
<text text-anchor="start" x="358.0219" y="-382.8" font-family="Helvetica,sans-Serif" font-size="11.00" fill="#000000">[table]</text>
<polygon fill="none" stroke="#000000" points="213.5,-352.7 213.5,-374.7 392.5,-374.7 392.5,-352.7 213.5,-352.7"/>
<image xlink:href="../../images/primaryKeys.png" width="11px" height="12px" preserveAspectRatio="xMinYMin meet" x="218.5" y="-369.7"/>
<text text-anchor="start" x="242.5" y="-359.8" font-family="Helvetica,sans-Serif" font-size="11.00" fill="#000000">SYMMETRYID</text>
<polygon fill="none" stroke="#000000" points="213.5,-333.7 213.5,-352.7 392.5,-352.7 392.5,-333.7 213.5,-333.7"/>
<text text-anchor="start" x="216.5" y="-339.8" font-family="Helvetica,sans-Serif" font-size="11.00" fill="#000000">...</text>
<polygon fill="#ffffff" stroke="transparent" points="213.5,-314.7 213.5,-333.7 279.5,-333.7 279.5,-314.7 213.5,-314.7"/>
<polygon fill="none" stroke="#000000" points="213.5,-314.7 213.5,-333.7 279.5,-333.7 279.5,-314.7 213.5,-314.7"/>
<text text-anchor="start" x="216.5" y="-320.8" font-family="Helvetica,sans-Serif" font-size="11.00" fill="#000000"> &#160;</text>
<polygon fill="#ffffff" stroke="transparent" points="279.5,-314.7 279.5,-333.7 344.5,-333.7 344.5,-314.7 279.5,-314.7"/>
<polygon fill="none" stroke="#000000" points="279.5,-314.7 279.5,-333.7 344.5,-333.7 344.5,-314.7 279.5,-314.7"/>
<text text-anchor="start" x="309.1105" y="-320.8" font-family="Helvetica,sans-Serif" font-size="11.00" fill="#000000">0 rows</text>
<polygon fill="#ffffff" stroke="transparent" points="344.5,-314.7 344.5,-333.7 392.5,-333.7 392.5,-314.7 344.5,-314.7"/>
<polygon fill="none" stroke="#000000" points="344.5,-314.7 344.5,-333.7 392.5,-333.7 392.5,-314.7 344.5,-314.7"/>
<text text-anchor="start" x="373.9053" y="-320.8" font-family="Helvetica,sans-Serif" font-size="11.00" fill="#000000">1 &gt;</text>
</a>
</g>
</g>
<!-- neo_variableelements&#45;&gt;neo_elementsymmetries -->
<g id="edge10" class="edge">
<title>neo_variableelements:w&#45;&gt;neo_elementsymmetries:e</title>
<path fill="none" stroke="#000000" d="M429.2601,-327.0877C415.5688,-337.6646 415.5379,-363.7 392.5,-363.7"/>
<polygon fill="#000000" stroke="#000000" points="435.3792,-325.1337 444.0952,-326.1294 439.1896,-323.9168 443,-322.7 443,-322.7 443,-322.7 439.1896,-323.9168 441.9048,-319.2706 435.3792,-325.1337 435.3792,-325.1337"/>
<ellipse fill="none" stroke="#000000" cx="432.3308" cy="-326.1072" rx="3.2" ry="3.2"/>
</g>
<!-- cabah_datasourceID -->
<g id="node8" class="node">
<title>cabah_datasourceID</title>
<g id="a_node8"><a xlink:href="../../tables/cabah_datasourceID.html" xlink:title="cabah_datasourceID" target="_top">
<polygon fill="#ffffff" stroke="transparent" points="8,-440.2 8,-501.2 164,-501.2 164,-440.2 8,-440.2"/>
<polygon fill="#f5f5f5" stroke="transparent" points="8,-477.7 8,-500.7 164,-500.7 164,-477.7 8,-477.7"/>
<polygon fill="none" stroke="#000000" points="8,-477.7 8,-500.7 164,-500.7 164,-477.7 8,-477.7"/>
<text text-anchor="start" x="13" y="-486.3" font-family="Helvetica,sans-Serif" font-weight="bold" font-size="11.00" fill="#000000">cabah_datasourceID</text>
<text text-anchor="start" x="129.5219" y="-485.8" font-family="Helvetica,sans-Serif" font-size="11.00" fill="#000000">[table]</text>
<polygon fill="none" stroke="#000000" points="8,-458.7 8,-477.7 164,-477.7 164,-458.7 8,-458.7"/>
<text text-anchor="start" x="11" y="-464.8" font-family="Helvetica,sans-Serif" font-size="11.00" fill="#000000">...</text>
<polygon fill="#ffffff" stroke="transparent" points="8,-439.7 8,-458.7 59,-458.7 59,-439.7 8,-439.7"/>
<polygon fill="none" stroke="#000000" points="8,-439.7 8,-458.7 59,-458.7 59,-439.7 8,-439.7"/>
<text text-anchor="start" x="11" y="-445.8" font-family="Helvetica,sans-Serif" font-size="11.00" fill="#000000"> &#160;</text>
<polygon fill="#ffffff" stroke="transparent" points="59,-439.7 59,-458.7 123,-458.7 123,-439.7 59,-439.7"/>
<polygon fill="none" stroke="#000000" points="59,-439.7 59,-458.7 123,-458.7 123,-439.7 59,-439.7"/>
<text text-anchor="start" x="81.4956" y="-445.8" font-family="Helvetica,sans-Serif" font-size="11.00" fill="#000000">12 rows</text>
<polygon fill="#ffffff" stroke="transparent" points="123,-439.7 123,-458.7 164,-458.7 164,-439.7 123,-439.7"/>
<polygon fill="none" stroke="#000000" points="123,-439.7 123,-458.7 164,-458.7 164,-439.7 123,-439.7"/>
<text text-anchor="start" x="145.4053" y="-445.8" font-family="Helvetica,sans-Serif" font-size="11.00" fill="#000000">6 &gt;</text>
</a>
</g>
</g>
<!-- neo_elementtypes&#45;&gt;cabah_datasourceID -->
<g id="edge6" class="edge">
<title>neo_elementtypes:w&#45;&gt;cabah_datasourceID:e</title>
<path fill="none" stroke="#000000" d="M216.9733,-467.7C197.9877,-467.7 188.4922,-467.7 164,-467.7"/>
<polygon fill="#000000" stroke="#000000" points="223.5,-467.7001 231.5,-471.3 227.5,-467.7 231.5,-467.7 231.5,-467.7 231.5,-467.7 227.5,-467.7 231.5,-464.1 223.5,-467.7001 223.5,-467.7001"/>
<ellipse fill="none" stroke="#000000" cx="220.3" cy="-467.7001" rx="3.2" ry="3.2"/>
</g>
</g>
</svg>
