<?xml version="1.0" encoding="UTF-8" standalone="no"?>
<!DOCTYPE svg PUBLIC "-//W3C//DTD SVG 1.1//EN"
 "http://www.w3.org/Graphics/SVG/1.1/DTD/svg11.dtd">
<!-- Generated by graphviz version 2.40.1 (20161225.0304)
 -->
<!-- Title: twoDegreesRelationshipsDiagramImplied Pages: 1 -->
<svg width="637pt" height="739pt"
 viewBox="0.00 0.00 637.00 739.20" xmlns="http://www.w3.org/2000/svg" xmlns:xlink="http://www.w3.org/1999/xlink">
<g id="graph0" class="graph" transform="scale(1 1) rotate(0) translate(4 735.2)">
<title>twoDegreesRelationshipsDiagramImplied</title>
<polygon fill="#ffffff" stroke="transparent" points="-4,4 -4,-735.2 633,-735.2 633,4 -4,4"/>
<text text-anchor="middle" x="72.4936" y="-7.3" font-family="Helvetica,sans-Serif" font-size="11.00" fill="#000000">Generated by SchemaSpy</text>
<!-- cabah_taxaID -->
<g id="node1" class="node">
<title>cabah_taxaID</title>
<g id="a_node1"><a xlink:href="../../tables/cabah_taxaID.html" xlink:title="cabah_taxaID" target="_top">
<polygon fill="#ffffff" stroke="transparent" points="492,-161.2 492,-310.2 608,-310.2 608,-161.2 492,-161.2"/>
<polygon fill="#f5f5f5" stroke="transparent" points="492,-286.7 492,-309.7 608,-309.7 608,-286.7 492,-286.7"/>
<polygon fill="none" stroke="#000000" points="492,-286.7 492,-309.7 608,-309.7 608,-286.7 492,-286.7"/>
<text text-anchor="start" x="497" y="-295.3" font-family="Helvetica,sans-Serif" font-weight="bold" font-size="11.00" fill="#000000">cabah_taxaID</text>
<text text-anchor="start" x="573.5219" y="-294.8" font-family="Helvetica,sans-Serif" font-size="11.00" fill="#000000">[table]</text>
<polygon fill="none" stroke="#000000" points="492,-264.7 492,-286.7 608,-286.7 608,-264.7 492,-264.7"/>
<image xlink:href="../../images/primaryKeys.png" width="11px" height="12px" preserveAspectRatio="xMinYMin meet" x="497" y="-281.7"/>
<text text-anchor="start" x="520" y="-271.8" font-family="Helvetica,sans-Serif" font-size="11.00" fill="#000000">TAXONID</text>
<polygon fill="none" stroke="#000000" points="492,-242.7 492,-264.7 608,-264.7 608,-242.7 492,-242.7"/>
<image xlink:href="../../images/foreignKeys.png" width="11px" height="12px" preserveAspectRatio="xMinYMin meet" x="497" y="-259.7"/>
<text text-anchor="start" x="520" y="-249.8" font-family="Helvetica,sans-Serif" font-size="11.00" fill="#000000">PARENTID</text>
<polygon fill="none" stroke="#000000" points="492,-220.7 492,-242.7 608,-242.7 608,-220.7 492,-220.7"/>
<image xlink:href="../../images/foreignKeys.png" width="11px" height="12px" preserveAspectRatio="xMinYMin meet" x="497" y="-237.7"/>
<text text-anchor="start" x="520" y="-227.8" font-family="Helvetica,sans-Serif" font-size="11.00" fill="#000000">TAXAGRPID</text>
<polygon fill="none" stroke="#000000" points="492,-198.7 492,-220.7 608,-220.7 608,-198.7 492,-198.7"/>
<image xlink:href="../../images/foreignKeys.png" width="11px" height="12px" preserveAspectRatio="xMinYMin meet" x="497" y="-215.7"/>
<text text-anchor="start" x="520" y="-205.8" font-family="Helvetica,sans-Serif" font-size="11.00" fill="#000000">NEOVALORID</text>
<polygon fill="none" stroke="#000000" points="492,-179.7 492,-198.7 608,-198.7 608,-179.7 492,-179.7"/>
<text text-anchor="start" x="495" y="-185.8" font-family="Helvetica,sans-Serif" font-size="11.00" fill="#000000">...</text>
<polygon fill="#ffffff" stroke="transparent" points="492,-160.7 492,-179.7 517,-179.7 517,-160.7 492,-160.7"/>
<polygon fill="none" stroke="#000000" points="492,-160.7 492,-179.7 517,-179.7 517,-160.7 492,-160.7"/>
<text text-anchor="start" x="495" y="-166.8" font-family="Helvetica,sans-Serif" font-size="11.00" fill="#000000">&lt; 3</text>
<polygon fill="#ffffff" stroke="transparent" points="517,-160.7 517,-179.7 584,-179.7 584,-160.7 517,-160.7"/>
<polygon fill="none" stroke="#000000" points="517,-160.7 517,-179.7 584,-179.7 584,-160.7 517,-160.7"/>
<text text-anchor="start" x="521.094" y="-166.8" font-family="Helvetica,sans-Serif" font-size="11.00" fill="#000000">47.144 rows</text>
<polygon fill="#ffffff" stroke="transparent" points="584,-160.7 584,-179.7 608,-179.7 608,-160.7 584,-160.7"/>
<polygon fill="none" stroke="#000000" points="584,-160.7 584,-179.7 608,-179.7 608,-160.7 584,-160.7"/>
<text text-anchor="start" x="589.4053" y="-166.8" font-family="Helvetica,sans-Serif" font-size="11.00" fill="#000000">1 &gt;</text>
</a>
</g>
</g>
<!-- neo_contacts -->
<g id="node2" class="node">
<title>neo_contacts</title>
<g id="a_node2"><a xlink:href="../../tables/neo_contacts.html" xlink:title="neo_contacts" target="_top">
<polygon fill="#ffffff" stroke="transparent" points="228,-120.7 228,-562.7 430,-562.7 430,-120.7 228,-120.7"/>
<polygon fill="#f5f5f5" stroke="transparent" points="230,-537.7 230,-560.7 428,-560.7 428,-537.7 230,-537.7"/>
<polygon fill="none" stroke="#000000" points="230,-537.7 230,-560.7 428,-560.7 428,-537.7 230,-537.7"/>
<text text-anchor="start" x="235" y="-546.3" font-family="Helvetica,sans-Serif" font-weight="bold" font-size="11.00" fill="#000000">neo_contacts</text>
<text text-anchor="start" x="393.0437" y="-545.8" font-family="Helvetica,sans-Serif" font-size="11.00" fill="#000000">[table]</text>
<polygon fill="none" stroke="#000000" points="230,-515.7 230,-537.7 336,-537.7 336,-515.7 230,-515.7"/>
<image xlink:href="../../images/primaryKeys.png" width="11px" height="12px" preserveAspectRatio="xMinYMin meet" x="235" y="-532.7"/>
<text text-anchor="start" x="250" y="-522.8" font-family="Helvetica,sans-Serif" font-size="11.00" fill="#000000">CONTACTID</text>
<polygon fill="none" stroke="#000000" points="336,-515.7 336,-537.7 428,-537.7 428,-515.7 336,-515.7"/>
<text text-anchor="start" x="339" y="-523.4" font-family="Helvetica,sans-Serif" font-size="11.00" fill="#000000">int4[10]</text>
<polygon fill="none" stroke="#000000" points="230,-493.7 230,-515.7 336,-515.7 336,-493.7 230,-493.7"/>
<text text-anchor="start" x="250" y="-500.8" font-family="Helvetica,sans-Serif" font-size="11.00" fill="#000000">ALIASID</text>
<polygon fill="none" stroke="#000000" points="336,-493.7 336,-515.7 428,-515.7 428,-493.7 336,-493.7"/>
<text text-anchor="start" x="339" y="-501.4" font-family="Helvetica,sans-Serif" font-size="11.00" fill="#000000">int4[10]</text>
<polygon fill="none" stroke="#000000" points="230,-471.7 230,-493.7 336,-493.7 336,-471.7 230,-471.7"/>
<text text-anchor="start" x="250" y="-478.8" font-family="Helvetica,sans-Serif" font-size="11.00" fill="#000000">CONTACTNAM</text>
<polygon fill="none" stroke="#000000" points="336,-471.7 336,-493.7 428,-493.7 428,-471.7 336,-471.7"/>
<text text-anchor="start" x="339" y="-479.4" font-family="Helvetica,sans-Serif" font-size="11.00" fill="#000000">text[2147483647]</text>
<polygon fill="none" stroke="#000000" points="230,-449.7 230,-471.7 336,-471.7 336,-449.7 230,-449.7"/>
<image xlink:href="../../images/foreignKeys.png" width="11px" height="12px" preserveAspectRatio="xMinYMin meet" x="235" y="-466.7"/>
<text text-anchor="start" x="250" y="-456.8" font-family="Helvetica,sans-Serif" font-size="11.00" fill="#000000">CSTATUSID</text>
<polygon fill="none" stroke="#000000" points="336,-449.7 336,-471.7 428,-471.7 428,-449.7 336,-449.7"/>
<text text-anchor="start" x="339" y="-457.4" font-family="Helvetica,sans-Serif" font-size="11.00" fill="#000000">int2[5]</text>
<polygon fill="none" stroke="#000000" points="230,-427.7 230,-449.7 336,-449.7 336,-427.7 230,-427.7"/>
<text text-anchor="start" x="250" y="-434.8" font-family="Helvetica,sans-Serif" font-size="11.00" fill="#000000">FAMILYNAME</text>
<polygon fill="none" stroke="#000000" points="336,-427.7 336,-449.7 428,-449.7 428,-427.7 336,-427.7"/>
<text text-anchor="start" x="339" y="-435.4" font-family="Helvetica,sans-Serif" font-size="11.00" fill="#000000">text[2147483647]</text>
<polygon fill="none" stroke="#000000" points="230,-405.7 230,-427.7 336,-427.7 336,-405.7 230,-405.7"/>
<text text-anchor="start" x="250" y="-412.8" font-family="Helvetica,sans-Serif" font-size="11.00" fill="#000000">PHONE</text>
<polygon fill="none" stroke="#000000" points="336,-405.7 336,-427.7 428,-427.7 428,-405.7 336,-405.7"/>
<text text-anchor="start" x="339" y="-413.4" font-family="Helvetica,sans-Serif" font-size="11.00" fill="#000000">text[2147483647]</text>
<polygon fill="none" stroke="#000000" points="230,-383.7 230,-405.7 336,-405.7 336,-383.7 230,-383.7"/>
<text text-anchor="start" x="250" y="-390.8" font-family="Helvetica,sans-Serif" font-size="11.00" fill="#000000">FAX</text>
<polygon fill="none" stroke="#000000" points="336,-383.7 336,-405.7 428,-405.7 428,-383.7 336,-383.7"/>
<text text-anchor="start" x="339" y="-391.4" font-family="Helvetica,sans-Serif" font-size="11.00" fill="#000000">text[2147483647]</text>
<polygon fill="none" stroke="#000000" points="230,-361.7 230,-383.7 336,-383.7 336,-361.7 230,-361.7"/>
<text text-anchor="start" x="250" y="-368.8" font-family="Helvetica,sans-Serif" font-size="11.00" fill="#000000">EMAIL</text>
<polygon fill="none" stroke="#000000" points="336,-361.7 336,-383.7 428,-383.7 428,-361.7 336,-361.7"/>
<text text-anchor="start" x="339" y="-369.4" font-family="Helvetica,sans-Serif" font-size="11.00" fill="#000000">text[2147483647]</text>
<polygon fill="none" stroke="#000000" points="230,-339.7 230,-361.7 336,-361.7 336,-339.7 230,-339.7"/>
<text text-anchor="start" x="250" y="-346.8" font-family="Helvetica,sans-Serif" font-size="11.00" fill="#000000">URL</text>
<polygon fill="none" stroke="#000000" points="336,-339.7 336,-361.7 428,-361.7 428,-339.7 336,-339.7"/>
<text text-anchor="start" x="339" y="-347.4" font-family="Helvetica,sans-Serif" font-size="11.00" fill="#000000">text[2147483647]</text>
<polygon fill="none" stroke="#000000" points="230,-317.7 230,-339.7 336,-339.7 336,-317.7 230,-317.7"/>
<text text-anchor="start" x="250" y="-324.8" font-family="Helvetica,sans-Serif" font-size="11.00" fill="#000000">ADDRESS</text>
<polygon fill="none" stroke="#000000" points="336,-317.7 336,-339.7 428,-339.7 428,-317.7 336,-317.7"/>
<text text-anchor="start" x="339" y="-325.4" font-family="Helvetica,sans-Serif" font-size="11.00" fill="#000000">text[2147483647]</text>
<polygon fill="none" stroke="#000000" points="230,-295.7 230,-317.7 336,-317.7 336,-295.7 230,-295.7"/>
<text text-anchor="start" x="250" y="-302.8" font-family="Helvetica,sans-Serif" font-size="11.00" fill="#000000">LEADINITIA</text>
<polygon fill="none" stroke="#000000" points="336,-295.7 336,-317.7 428,-317.7 428,-295.7 336,-295.7"/>
<text text-anchor="start" x="339" y="-303.4" font-family="Helvetica,sans-Serif" font-size="11.00" fill="#000000">varchar[24]</text>
<polygon fill="none" stroke="#000000" points="230,-273.7 230,-295.7 336,-295.7 336,-273.7 230,-273.7"/>
<text text-anchor="start" x="250" y="-280.8" font-family="Helvetica,sans-Serif" font-size="11.00" fill="#000000">GIVENNAMES</text>
<polygon fill="none" stroke="#000000" points="336,-273.7 336,-295.7 428,-295.7 428,-273.7 336,-273.7"/>
<text text-anchor="start" x="339" y="-281.4" font-family="Helvetica,sans-Serif" font-size="11.00" fill="#000000">text[2147483647]</text>
<polygon fill="none" stroke="#000000" points="230,-251.7 230,-273.7 336,-273.7 336,-251.7 230,-251.7"/>
<text text-anchor="start" x="250" y="-258.8" font-family="Helvetica,sans-Serif" font-size="11.00" fill="#000000">TITLE</text>
<polygon fill="none" stroke="#000000" points="336,-251.7 336,-273.7 428,-273.7 428,-251.7 336,-251.7"/>
<text text-anchor="start" x="339" y="-259.4" font-family="Helvetica,sans-Serif" font-size="11.00" fill="#000000">varchar[24]</text>
<polygon fill="none" stroke="#000000" points="230,-229.7 230,-251.7 336,-251.7 336,-229.7 230,-229.7"/>
<text text-anchor="start" x="250" y="-236.8" font-family="Helvetica,sans-Serif" font-size="11.00" fill="#000000">SUFFIX</text>
<polygon fill="none" stroke="#000000" points="336,-229.7 336,-251.7 428,-251.7 428,-229.7 336,-229.7"/>
<text text-anchor="start" x="339" y="-237.4" font-family="Helvetica,sans-Serif" font-size="11.00" fill="#000000">varchar[24]</text>
<polygon fill="none" stroke="#000000" points="230,-207.7 230,-229.7 336,-229.7 336,-207.7 230,-207.7"/>
<text text-anchor="start" x="250" y="-214.8" font-family="Helvetica,sans-Serif" font-size="11.00" fill="#000000">NOTES</text>
<polygon fill="none" stroke="#000000" points="336,-207.7 336,-229.7 428,-229.7 428,-207.7 336,-207.7"/>
<text text-anchor="start" x="339" y="-215.4" font-family="Helvetica,sans-Serif" font-size="11.00" fill="#000000">text[2147483647]</text>
<polygon fill="none" stroke="#000000" points="230,-185.7 230,-207.7 336,-207.7 336,-185.7 230,-185.7"/>
<text text-anchor="start" x="250" y="-192.8" font-family="Helvetica,sans-Serif" font-size="11.00" fill="#000000">OAID</text>
<polygon fill="none" stroke="#000000" points="336,-185.7 336,-207.7 428,-207.7 428,-185.7 336,-185.7"/>
<text text-anchor="start" x="339" y="-193.4" font-family="Helvetica,sans-Serif" font-size="11.00" fill="#000000">varchar[19]</text>
<polygon fill="none" stroke="#000000" points="230,-163.7 230,-185.7 336,-185.7 336,-163.7 230,-163.7"/>
<text text-anchor="start" x="250" y="-170.8" font-family="Helvetica,sans-Serif" font-size="11.00" fill="#000000">CREATED_AT</text>
<polygon fill="none" stroke="#000000" points="336,-163.7 336,-185.7 428,-185.7 428,-163.7 336,-163.7"/>
<text text-anchor="start" x="338.6023" y="-171.4" font-family="Helvetica,sans-Serif" font-size="11.00" fill="#000000">timestamptz[35,6]</text>
<polygon fill="none" stroke="#000000" points="230,-141.7 230,-163.7 336,-163.7 336,-141.7 230,-141.7"/>
<text text-anchor="start" x="250" y="-148.8" font-family="Helvetica,sans-Serif" font-size="11.00" fill="#000000">UPDATED_AT</text>
<polygon fill="none" stroke="#000000" points="336,-141.7 336,-163.7 428,-163.7 428,-141.7 336,-141.7"/>
<text text-anchor="start" x="338.6023" y="-149.4" font-family="Helvetica,sans-Serif" font-size="11.00" fill="#000000">timestamptz[35,6]</text>
<polygon fill="#ffffff" stroke="transparent" points="230,-122.7 230,-141.7 261,-141.7 261,-122.7 230,-122.7"/>
<polygon fill="none" stroke="#000000" points="230,-122.7 230,-141.7 261,-141.7 261,-122.7 230,-122.7"/>
<text text-anchor="start" x="233" y="-128.8" font-family="Helvetica,sans-Serif" font-size="11.00" fill="#000000">&lt; 1</text>
<polygon fill="#ffffff" stroke="transparent" points="261,-122.7 261,-141.7 336,-141.7 336,-122.7 261,-122.7"/>
<polygon fill="none" stroke="#000000" points="261,-122.7 261,-141.7 336,-141.7 336,-122.7 261,-122.7"/>
<text text-anchor="start" x="273.094" y="-128.8" font-family="Helvetica,sans-Serif" font-size="11.00" fill="#000000">13.396 rows</text>
<polygon fill="#ffffff" stroke="transparent" points="336,-122.7 336,-141.7 428,-141.7 428,-122.7 336,-122.7"/>
<polygon fill="none" stroke="#000000" points="336,-122.7 336,-141.7 428,-141.7 428,-122.7 336,-122.7"/>
<text text-anchor="start" x="409.4053" y="-128.8" font-family="Helvetica,sans-Serif" font-size="11.00" fill="#000000">2 &gt;</text>
<polygon fill="none" stroke="#000000" stroke-width="2" points="229,-121.7 229,-561.7 429,-561.7 429,-121.7 229,-121.7"/>
</a>
</g>
</g>
<!-- cabah_taxaID&#45;&gt;neo_contacts -->
<g id="edge1" class="edge">
<title>cabah_taxaID:w&#45;&gt;neo_contacts:e</title>
<path fill="none" stroke="#000000" d="M477.4781,-210.9772C364.3479,-232.7908 566.3978,-526.7 428,-526.7"/>
<polygon fill="#000000" stroke="#000000" points="484.0308,-210.401 492.3154,-213.2862 488.0154,-210.0505 492,-209.7 492,-209.7 492,-209.7 488.0154,-210.0505 491.6846,-206.1138 484.0308,-210.401 484.0308,-210.401"/>
<ellipse fill="none" stroke="#000000" cx="480.8431" cy="-210.6813" rx="3.2" ry="3.2"/>
</g>
<!-- cabah_taxagroupID -->
<g id="node3" class="node">
<title>cabah_taxagroupID</title>
<g id="a_node3"><a xlink:href="../../tables/cabah_taxagroupID.html" xlink:title="cabah_taxagroupID" target="_top">
<polygon fill="#ffffff" stroke="transparent" points="254,-38.2 254,-99.2 404,-99.2 404,-38.2 254,-38.2"/>
<polygon fill="#f5f5f5" stroke="transparent" points="254,-75.7 254,-98.7 404,-98.7 404,-75.7 254,-75.7"/>
<polygon fill="none" stroke="#000000" points="254,-75.7 254,-98.7 404,-98.7 404,-75.7 254,-75.7"/>
<text text-anchor="start" x="259" y="-84.3" font-family="Helvetica,sans-Serif" font-weight="bold" font-size="11.00" fill="#000000">cabah_taxagroupID</text>
<text text-anchor="start" x="369.5219" y="-83.8" font-family="Helvetica,sans-Serif" font-size="11.00" fill="#000000">[table]</text>
<polygon fill="none" stroke="#000000" points="254,-56.7 254,-75.7 404,-75.7 404,-56.7 254,-56.7"/>
<text text-anchor="start" x="257" y="-62.8" font-family="Helvetica,sans-Serif" font-size="11.00" fill="#000000">...</text>
<polygon fill="#ffffff" stroke="transparent" points="254,-37.7 254,-56.7 307,-56.7 307,-37.7 254,-37.7"/>
<polygon fill="none" stroke="#000000" points="254,-37.7 254,-56.7 307,-56.7 307,-37.7 254,-37.7"/>
<text text-anchor="start" x="257" y="-43.8" font-family="Helvetica,sans-Serif" font-size="11.00" fill="#000000">&lt; 1</text>
<polygon fill="#ffffff" stroke="transparent" points="307,-37.7 307,-56.7 367,-56.7 367,-37.7 307,-37.7"/>
<polygon fill="none" stroke="#000000" points="307,-37.7 307,-56.7 367,-56.7 367,-37.7 307,-37.7"/>
<text text-anchor="start" x="325.4956" y="-43.8" font-family="Helvetica,sans-Serif" font-size="11.00" fill="#000000">56 rows</text>
<polygon fill="#ffffff" stroke="transparent" points="367,-37.7 367,-56.7 404,-56.7 404,-37.7 367,-37.7"/>
<polygon fill="none" stroke="#000000" points="367,-37.7 367,-56.7 404,-56.7 404,-37.7 367,-37.7"/>
<text text-anchor="start" x="385.4053" y="-43.8" font-family="Helvetica,sans-Serif" font-size="11.00" fill="#000000">1 &gt;</text>
</a>
</g>
</g>
<!-- cabah_taxaID&#45;&gt;cabah_taxagroupID -->
<g id="edge2" class="edge">
<title>cabah_taxaID:w&#45;&gt;cabah_taxagroupID:e</title>
<path fill="none" stroke="#000000" d="M477.4193,-229.6011C418.273,-210.3852 481.9584,-65.7 404,-65.7"/>
<polygon fill="#000000" stroke="#000000" points="484.0816,-230.5601 491.4871,-235.2633 488.0408,-231.1301 492,-231.7 492,-231.7 492,-231.7 488.0408,-231.1301 492.5129,-228.1367 484.0816,-230.5601 484.0816,-230.5601"/>
<ellipse fill="none" stroke="#000000" cx="480.9143" cy="-230.1042" rx="3.2" ry="3.2"/>
</g>
<!-- global_contactstatusID -->
<g id="node7" class="node">
<title>global_contactstatusID</title>
<g id="a_node7"><a xlink:href="../../tables/global_contactstatusID.html" xlink:title="global_contactstatusID" target="_top">
<polygon fill="#ffffff" stroke="transparent" points="8,-412.2 8,-495.2 179,-495.2 179,-412.2 8,-412.2"/>
<polygon fill="#f5f5f5" stroke="transparent" points="8.5,-471.7 8.5,-494.7 179.5,-494.7 179.5,-471.7 8.5,-471.7"/>
<polygon fill="none" stroke="#000000" points="8.5,-471.7 8.5,-494.7 179.5,-494.7 179.5,-471.7 8.5,-471.7"/>
<text text-anchor="start" x="13.5" y="-480.3" font-family="Helvetica,sans-Serif" font-weight="bold" font-size="11.00" fill="#000000">global_contactstatusID</text>
<text text-anchor="start" x="145.0219" y="-479.8" font-family="Helvetica,sans-Serif" font-size="11.00" fill="#000000">[table]</text>
<polygon fill="none" stroke="#000000" points="8.5,-449.7 8.5,-471.7 179.5,-471.7 179.5,-449.7 8.5,-449.7"/>
<image xlink:href="../../images/primaryKeys.png" width="11px" height="12px" preserveAspectRatio="xMinYMin meet" x="13.5" y="-466.7"/>
<text text-anchor="start" x="37.5" y="-456.8" font-family="Helvetica,sans-Serif" font-size="11.00" fill="#000000">CSTATUSID</text>
<polygon fill="none" stroke="#000000" points="8.5,-430.7 8.5,-449.7 179.5,-449.7 179.5,-430.7 8.5,-430.7"/>
<text text-anchor="start" x="11.5" y="-436.8" font-family="Helvetica,sans-Serif" font-size="11.00" fill="#000000">...</text>
<polygon fill="#ffffff" stroke="transparent" points="8.5,-411.7 8.5,-430.7 70.5,-430.7 70.5,-411.7 8.5,-411.7"/>
<polygon fill="none" stroke="#000000" points="8.5,-411.7 8.5,-430.7 70.5,-430.7 70.5,-411.7 8.5,-411.7"/>
<text text-anchor="start" x="11.5" y="-417.8" font-family="Helvetica,sans-Serif" font-size="11.00" fill="#000000"> &#160;</text>
<polygon fill="#ffffff" stroke="transparent" points="70.5,-411.7 70.5,-430.7 133.5,-430.7 133.5,-411.7 70.5,-411.7"/>
<polygon fill="none" stroke="#000000" points="70.5,-411.7 70.5,-430.7 133.5,-430.7 133.5,-411.7 70.5,-411.7"/>
<text text-anchor="start" x="98.1105" y="-417.8" font-family="Helvetica,sans-Serif" font-size="11.00" fill="#000000">7 rows</text>
<polygon fill="#ffffff" stroke="transparent" points="133.5,-411.7 133.5,-430.7 179.5,-430.7 179.5,-411.7 133.5,-411.7"/>
<polygon fill="none" stroke="#000000" points="133.5,-411.7 133.5,-430.7 179.5,-430.7 179.5,-411.7 133.5,-411.7"/>
<text text-anchor="start" x="160.9053" y="-417.8" font-family="Helvetica,sans-Serif" font-size="11.00" fill="#000000">1 &gt;</text>
</a>
</g>
</g>
<!-- neo_contacts&#45;&gt;global_contactstatusID -->
<g id="edge7" class="edge">
<title>neo_contacts:w&#45;&gt;global_contactstatusID:e</title>
<path fill="none" stroke="#000000" d="M215.4203,-460.7C203.5435,-460.7 196.158,-460.7 179.5,-460.7"/>
<polygon fill="#000000" stroke="#000000" points="222,-460.7001 230,-464.3 226,-460.7 230,-460.7 230,-460.7 230,-460.7 226,-460.7 230,-457.1 222,-460.7001 222,-460.7001"/>
<ellipse fill="none" stroke="#000000" cx="218.8" cy="-460.7001" rx="3.2" ry="3.2"/>
</g>
<!-- neo_chronologies -->
<g id="node4" class="node">
<title>neo_chronologies</title>
<g id="a_node4"><a xlink:href="../../tables/neo_chronologies.html" xlink:title="neo_chronologies" target="_top">
<polygon fill="#ffffff" stroke="transparent" points="479,-530.2 479,-701.2 621,-701.2 621,-530.2 479,-530.2"/>
<polygon fill="#f5f5f5" stroke="transparent" points="479,-677.7 479,-700.7 621,-700.7 621,-677.7 479,-677.7"/>
<polygon fill="none" stroke="#000000" points="479,-677.7 479,-700.7 621,-700.7 621,-677.7 479,-677.7"/>
<text text-anchor="start" x="484" y="-686.3" font-family="Helvetica,sans-Serif" font-weight="bold" font-size="11.00" fill="#000000">neo_chronologies</text>
<text text-anchor="start" x="586.5219" y="-685.8" font-family="Helvetica,sans-Serif" font-size="11.00" fill="#000000">[table]</text>
<polygon fill="none" stroke="#000000" points="479,-655.7 479,-677.7 621,-677.7 621,-655.7 479,-655.7"/>
<image xlink:href="../../images/primaryKeys.png" width="11px" height="12px" preserveAspectRatio="xMinYMin meet" x="484" y="-672.7"/>
<text text-anchor="start" x="508" y="-662.8" font-family="Helvetica,sans-Serif" font-size="11.00" fill="#000000">CHRONLGYID</text>
<polygon fill="none" stroke="#000000" points="479,-633.7 479,-655.7 621,-655.7 621,-633.7 479,-633.7"/>
<image xlink:href="../../images/foreignKeys.png" width="11px" height="12px" preserveAspectRatio="xMinYMin meet" x="484" y="-650.7"/>
<text text-anchor="start" x="508" y="-640.8" font-family="Helvetica,sans-Serif" font-size="11.00" fill="#000000">NEO_UNITID</text>
<polygon fill="none" stroke="#000000" points="479,-611.7 479,-633.7 621,-633.7 621,-611.7 479,-611.7"/>
<image xlink:href="../../images/foreignKeys.png" width="11px" height="12px" preserveAspectRatio="xMinYMin meet" x="484" y="-628.7"/>
<text text-anchor="start" x="508" y="-618.8" font-family="Helvetica,sans-Serif" font-size="11.00" fill="#000000">AGETYPEID</text>
<polygon fill="none" stroke="#000000" points="479,-589.7 479,-611.7 621,-611.7 621,-589.7 479,-589.7"/>
<image xlink:href="../../images/foreignKeys.png" width="11px" height="12px" preserveAspectRatio="xMinYMin meet" x="484" y="-606.7"/>
<text text-anchor="start" x="508" y="-596.8" font-family="Helvetica,sans-Serif" font-size="11.00" fill="#000000">CONTACTID</text>
<polygon fill="none" stroke="#000000" points="479,-567.7 479,-589.7 621,-589.7 621,-567.7 479,-567.7"/>
<image xlink:href="../../images/foreignKeys.png" width="11px" height="12px" preserveAspectRatio="xMinYMin meet" x="484" y="-584.7"/>
<text text-anchor="start" x="508" y="-574.8" font-family="Helvetica,sans-Serif" font-size="11.00" fill="#000000">UNITID</text>
<polygon fill="none" stroke="#000000" points="479,-548.7 479,-567.7 621,-567.7 621,-548.7 479,-548.7"/>
<text text-anchor="start" x="482" y="-554.8" font-family="Helvetica,sans-Serif" font-size="11.00" fill="#000000">...</text>
<polygon fill="#ffffff" stroke="transparent" points="479,-529.7 479,-548.7 522,-548.7 522,-529.7 479,-529.7"/>
<polygon fill="none" stroke="#000000" points="479,-529.7 479,-548.7 522,-548.7 522,-529.7 479,-529.7"/>
<text text-anchor="start" x="482" y="-535.8" font-family="Helvetica,sans-Serif" font-size="11.00" fill="#000000">&lt; 4</text>
<polygon fill="#ffffff" stroke="transparent" points="522,-529.7 522,-548.7 598,-548.7 598,-529.7 522,-529.7"/>
<polygon fill="none" stroke="#000000" points="522,-529.7 522,-548.7 598,-548.7 598,-529.7 522,-529.7"/>
<text text-anchor="start" x="535.094" y="-535.8" font-family="Helvetica,sans-Serif" font-size="11.00" fill="#000000">31.641 rows</text>
<polygon fill="#ffffff" stroke="transparent" points="598,-529.7 598,-548.7 621,-548.7 621,-529.7 598,-529.7"/>
<polygon fill="none" stroke="#000000" points="598,-529.7 598,-548.7 621,-548.7 621,-529.7 598,-529.7"/>
<text text-anchor="start" x="611.8862" y="-535.8" font-family="Helvetica,sans-Serif" font-size="11.00" fill="#000000"> &#160;</text>
</a>
</g>
</g>
<!-- neo_chronologies&#45;&gt;neo_contacts -->
<g id="edge4" class="edge">
<title>neo_chronologies:w&#45;&gt;neo_contacts:e</title>
<path fill="none" stroke="#000000" d="M465.0503,-596.071C446.2607,-579.8706 461.8581,-526.7 428,-526.7"/>
<polygon fill="#000000" stroke="#000000" points="471.4071,-598.1804 477.8662,-604.1168 475.2036,-599.4402 479,-600.7 479,-600.7 479,-600.7 475.2036,-599.4402 480.1338,-597.2832 471.4071,-598.1804 471.4071,-598.1804"/>
<ellipse fill="none" stroke="#000000" cx="468.37" cy="-597.1725" rx="3.2" ry="3.2"/>
</g>
<!-- cabah_agetypeID -->
<g id="node5" class="node">
<title>cabah_agetypeID</title>
<g id="a_node5"><a xlink:href="../../tables/cabah_agetypeID.html" xlink:title="cabah_agetypeID" target="_top">
<polygon fill="#ffffff" stroke="transparent" points="260.5,-666.2 260.5,-727.2 397.5,-727.2 397.5,-666.2 260.5,-666.2"/>
<polygon fill="#f5f5f5" stroke="transparent" points="261,-703.7 261,-726.7 398,-726.7 398,-703.7 261,-703.7"/>
<polygon fill="none" stroke="#000000" points="261,-703.7 261,-726.7 398,-726.7 398,-703.7 261,-703.7"/>
<text text-anchor="start" x="266" y="-712.3" font-family="Helvetica,sans-Serif" font-weight="bold" font-size="11.00" fill="#000000">cabah_agetypeID</text>
<text text-anchor="start" x="363.5219" y="-711.8" font-family="Helvetica,sans-Serif" font-size="11.00" fill="#000000">[table]</text>
<polygon fill="none" stroke="#000000" points="261,-684.7 261,-703.7 398,-703.7 398,-684.7 261,-684.7"/>
<text text-anchor="start" x="264" y="-690.8" font-family="Helvetica,sans-Serif" font-size="11.00" fill="#000000">...</text>
<polygon fill="#ffffff" stroke="transparent" points="261,-665.7 261,-684.7 303,-684.7 303,-665.7 261,-665.7"/>
<polygon fill="none" stroke="#000000" points="261,-665.7 261,-684.7 303,-684.7 303,-665.7 261,-665.7"/>
<text text-anchor="start" x="264" y="-671.8" font-family="Helvetica,sans-Serif" font-size="11.00" fill="#000000"> &#160;</text>
<polygon fill="#ffffff" stroke="transparent" points="303,-665.7 303,-684.7 362,-684.7 362,-665.7 303,-665.7"/>
<polygon fill="none" stroke="#000000" points="303,-665.7 303,-684.7 362,-684.7 362,-665.7 303,-665.7"/>
<text text-anchor="start" x="320.4956" y="-671.8" font-family="Helvetica,sans-Serif" font-size="11.00" fill="#000000">11 rows</text>
<polygon fill="#ffffff" stroke="transparent" points="362,-665.7 362,-684.7 398,-684.7 398,-665.7 362,-665.7"/>
<polygon fill="none" stroke="#000000" points="362,-665.7 362,-684.7 398,-684.7 398,-665.7 362,-665.7"/>
<text text-anchor="start" x="379.4053" y="-671.8" font-family="Helvetica,sans-Serif" font-size="11.00" fill="#000000">2 &gt;</text>
</a>
</g>
</g>
<!-- neo_chronologies&#45;&gt;cabah_agetypeID -->
<g id="edge3" class="edge">
<title>neo_chronologies:w&#45;&gt;cabah_agetypeID:e</title>
<path fill="none" stroke="#000000" d="M464.5481,-625.3966C433.7236,-638.3656 440.2622,-693.7 398,-693.7"/>
<polygon fill="#000000" stroke="#000000" points="471.1357,-624.1674 479.6603,-626.2389 475.0679,-623.4337 479,-622.7 479,-622.7 479,-622.7 475.0679,-623.4337 478.3397,-619.1611 471.1357,-624.1674 471.1357,-624.1674"/>
<ellipse fill="none" stroke="#000000" cx="467.99" cy="-624.7544" rx="3.2" ry="3.2"/>
</g>
<!-- global_UnitMaster -->
<g id="node6" class="node">
<title>global_UnitMaster</title>
<g id="a_node6"><a xlink:href="../../tables/global_UnitMaster.html" xlink:title="global_UnitMaster" target="_top">
<polygon fill="#ffffff" stroke="transparent" points="257.5,-584.2 257.5,-645.2 400.5,-645.2 400.5,-584.2 257.5,-584.2"/>
<polygon fill="#f5f5f5" stroke="transparent" points="258,-621.7 258,-644.7 401,-644.7 401,-621.7 258,-621.7"/>
<polygon fill="none" stroke="#000000" points="258,-621.7 258,-644.7 401,-644.7 401,-621.7 258,-621.7"/>
<text text-anchor="start" x="263" y="-630.3" font-family="Helvetica,sans-Serif" font-weight="bold" font-size="11.00" fill="#000000">global_UnitMaster</text>
<text text-anchor="start" x="366.5219" y="-629.8" font-family="Helvetica,sans-Serif" font-size="11.00" fill="#000000">[table]</text>
<polygon fill="none" stroke="#000000" points="258,-602.7 258,-621.7 401,-621.7 401,-602.7 258,-602.7"/>
<text text-anchor="start" x="261" y="-608.8" font-family="Helvetica,sans-Serif" font-size="11.00" fill="#000000">...</text>
<polygon fill="#ffffff" stroke="transparent" points="258,-583.7 258,-602.7 304,-602.7 304,-583.7 258,-583.7"/>
<polygon fill="none" stroke="#000000" points="258,-583.7 258,-602.7 304,-602.7 304,-583.7 258,-583.7"/>
<text text-anchor="start" x="261" y="-589.8" font-family="Helvetica,sans-Serif" font-size="11.00" fill="#000000">&lt; 5</text>
<polygon fill="#ffffff" stroke="transparent" points="304,-583.7 304,-602.7 367,-602.7 367,-583.7 304,-583.7"/>
<polygon fill="none" stroke="#000000" points="304,-583.7 304,-602.7 367,-602.7 367,-583.7 304,-583.7"/>
<text text-anchor="start" x="319.3807" y="-589.8" font-family="Helvetica,sans-Serif" font-size="11.00" fill="#000000">597 rows</text>
<polygon fill="#ffffff" stroke="transparent" points="367,-583.7 367,-602.7 401,-602.7 401,-583.7 367,-583.7"/>
<polygon fill="none" stroke="#000000" points="367,-583.7 367,-602.7 401,-602.7 401,-583.7 367,-583.7"/>
<text text-anchor="start" x="382.4053" y="-589.8" font-family="Helvetica,sans-Serif" font-size="11.00" fill="#000000">8 &gt;</text>
</a>
</g>
</g>
<!-- neo_chronologies&#45;&gt;global_UnitMaster -->
<g id="edge5" class="edge">
<title>neo_chronologies:w&#45;&gt;global_UnitMaster:e</title>
<path fill="none" stroke="#000000" stroke-dasharray="5,2" d="M464.6566,-642.8312C439.8435,-635.8503 433.2012,-611.7 401,-611.7"/>
<polygon fill="#000000" stroke="#000000" points="471.067,-643.6664 478.5349,-648.2698 475.0335,-644.1832 479,-644.7 479,-644.7 479,-644.7 475.0335,-644.1832 479.4651,-641.1302 471.067,-643.6664 471.067,-643.6664"/>
<ellipse fill="none" stroke="#000000" cx="467.8939" cy="-643.2529" rx="3.2" ry="3.2"/>
</g>
<!-- neo_chronologies&#45;&gt;global_UnitMaster -->
<g id="edge6" class="edge">
<title>neo_chronologies:w&#45;&gt;global_UnitMaster:e</title>
<path fill="none" stroke="#000000" d="M464.6566,-580.5688C439.8435,-587.5497 433.2012,-611.7 401,-611.7"/>
<polygon fill="#000000" stroke="#000000" points="471.067,-579.7336 479.4651,-582.2698 475.0335,-579.2168 479,-578.7 479,-578.7 479,-578.7 475.0335,-579.2168 478.5349,-575.1302 471.067,-579.7336 471.067,-579.7336"/>
<ellipse fill="none" stroke="#000000" cx="467.8939" cy="-580.1471" rx="3.2" ry="3.2"/>
</g>
</g>
</svg>
