<?xml version="1.0" encoding="UTF-8" standalone="no"?>
<!DOCTYPE svg PUBLIC "-//W3C//DTD SVG 1.1//EN"
 "http://www.w3.org/Graphics/SVG/1.1/DTD/svg11.dtd">
<!-- Generated by graphviz version 2.40.1 (20161225.0304)
 -->
<!-- Title: twoDegreesRelationshipsDiagram Pages: 1 -->
<svg width="608pt" height="431pt"
 viewBox="0.00 0.00 608.00 430.70" xmlns="http://www.w3.org/2000/svg" xmlns:xlink="http://www.w3.org/1999/xlink">
<g id="graph0" class="graph" transform="scale(1 1) rotate(0) translate(4 426.7)">
<title>twoDegreesRelationshipsDiagram</title>
<polygon fill="#ffffff" stroke="transparent" points="-4,4 -4,-426.7 604,-426.7 604,4 -4,4"/>
<text text-anchor="middle" x="72.4936" y="-7.3" font-family="Helvetica,sans-Serif" font-size="11.00" fill="#000000">Generated by SchemaSpy</text>
<!-- ippd_DataCore -->
<g id="node1" class="node">
<title>ippd_DataCore</title>
<g id="a_node1"><a xlink:href="../../tables/ippd_DataCore.html" xlink:title="ippd_DataCore" target="_top">
<polygon fill="#ffffff" stroke="transparent" points="468,-289.7 468,-350.7 592,-350.7 592,-289.7 468,-289.7"/>
<polygon fill="#f5f5f5" stroke="transparent" points="468,-327.2 468,-350.2 592,-350.2 592,-327.2 468,-327.2"/>
<polygon fill="none" stroke="#000000" points="468,-327.2 468,-350.2 592,-350.2 592,-327.2 468,-327.2"/>
<text text-anchor="start" x="473" y="-335.8" font-family="Helvetica,sans-Serif" font-weight="bold" font-size="11.00" fill="#000000">ippd_DataCore</text>
<text text-anchor="start" x="557.5219" y="-335.3" font-family="Helvetica,sans-Serif" font-size="11.00" fill="#000000">[table]</text>
<polygon fill="none" stroke="#000000" points="468,-308.2 468,-327.2 592,-327.2 592,-308.2 468,-308.2"/>
<text text-anchor="start" x="471" y="-314.3" font-family="Helvetica,sans-Serif" font-size="11.00" fill="#000000">...</text>
<polygon fill="#ffffff" stroke="transparent" points="468,-289.2 468,-308.2 498,-308.2 498,-289.2 468,-289.2"/>
<polygon fill="none" stroke="#000000" points="468,-289.2 468,-308.2 498,-308.2 498,-289.2 468,-289.2"/>
<text text-anchor="start" x="471" y="-295.3" font-family="Helvetica,sans-Serif" font-size="11.00" fill="#000000">&lt; 2</text>
<polygon fill="#ffffff" stroke="transparent" points="498,-289.2 498,-308.2 575,-308.2 575,-289.2 498,-289.2"/>
<polygon fill="none" stroke="#000000" points="498,-289.2 498,-308.2 575,-308.2 575,-289.2 498,-289.2"/>
<text text-anchor="start" x="505.9791" y="-295.3" font-family="Helvetica,sans-Serif" font-size="11.00" fill="#000000">384.434 rows</text>
<polygon fill="#ffffff" stroke="transparent" points="575,-289.2 575,-308.2 592,-308.2 592,-289.2 575,-289.2"/>
<polygon fill="none" stroke="#000000" points="575,-289.2 575,-308.2 592,-308.2 592,-289.2 575,-289.2"/>
<text text-anchor="start" x="582.8862" y="-295.3" font-family="Helvetica,sans-Serif" font-size="11.00" fill="#000000"> &#160;</text>
</a>
</g>
</g>
<!-- ippd_variables -->
<g id="node2" class="node">
<title>ippd_variables</title>
<g id="a_node2"><a xlink:href="../../tables/ippd_variables.html" xlink:title="ippd_variables" target="_top">
<polygon fill="#ffffff" stroke="transparent" points="296,-180.7 296,-351.7 419,-351.7 419,-180.7 296,-180.7"/>
<polygon fill="#f5f5f5" stroke="transparent" points="296.5,-328.2 296.5,-351.2 419.5,-351.2 419.5,-328.2 296.5,-328.2"/>
<polygon fill="none" stroke="#000000" points="296.5,-328.2 296.5,-351.2 419.5,-351.2 419.5,-328.2 296.5,-328.2"/>
<text text-anchor="start" x="301.5" y="-336.8" font-family="Helvetica,sans-Serif" font-weight="bold" font-size="11.00" fill="#000000">ippd_variables</text>
<text text-anchor="start" x="385.0219" y="-336.3" font-family="Helvetica,sans-Serif" font-size="11.00" fill="#000000">[table]</text>
<polygon fill="none" stroke="#000000" points="296.5,-306.2 296.5,-328.2 419.5,-328.2 419.5,-306.2 296.5,-306.2"/>
<image xlink:href="../../images/primaryKeys.png" width="11px" height="12px" preserveAspectRatio="xMinYMin meet" x="301.5" y="-323.2"/>
<text text-anchor="start" x="325.5" y="-313.3" font-family="Helvetica,sans-Serif" font-size="11.00" fill="#000000">VARIABLEID</text>
<polygon fill="none" stroke="#000000" points="296.5,-284.2 296.5,-306.2 419.5,-306.2 419.5,-284.2 296.5,-284.2"/>
<image xlink:href="../../images/foreignKeys.png" width="11px" height="12px" preserveAspectRatio="xMinYMin meet" x="301.5" y="-301.2"/>
<text text-anchor="start" x="325.5" y="-291.3" font-family="Helvetica,sans-Serif" font-size="11.00" fill="#000000">TAXONID</text>
<polygon fill="none" stroke="#000000" points="296.5,-262.2 296.5,-284.2 419.5,-284.2 419.5,-262.2 296.5,-262.2"/>
<image xlink:href="../../images/foreignKeys.png" width="11px" height="12px" preserveAspectRatio="xMinYMin meet" x="301.5" y="-279.2"/>
<text text-anchor="start" x="325.5" y="-269.3" font-family="Helvetica,sans-Serif" font-size="11.00" fill="#000000">VARELEMTID</text>
<polygon fill="none" stroke="#000000" points="296.5,-240.2 296.5,-262.2 419.5,-262.2 419.5,-240.2 296.5,-240.2"/>
<image xlink:href="../../images/foreignKeys.png" width="11px" height="12px" preserveAspectRatio="xMinYMin meet" x="301.5" y="-257.2"/>
<text text-anchor="start" x="325.5" y="-247.3" font-family="Helvetica,sans-Serif" font-size="11.00" fill="#000000">VARUNITID</text>
<polygon fill="none" stroke="#000000" points="296.5,-218.2 296.5,-240.2 419.5,-240.2 419.5,-218.2 296.5,-218.2"/>
<image xlink:href="../../images/foreignKeys.png" width="11px" height="12px" preserveAspectRatio="xMinYMin meet" x="301.5" y="-235.2"/>
<text text-anchor="start" x="325.5" y="-225.3" font-family="Helvetica,sans-Serif" font-size="11.00" fill="#000000">VARCONTXID</text>
<polygon fill="none" stroke="#000000" points="296.5,-199.2 296.5,-218.2 419.5,-218.2 419.5,-199.2 296.5,-199.2"/>
<text text-anchor="start" x="299.5" y="-205.3" font-family="Helvetica,sans-Serif" font-size="11.00" fill="#000000">...</text>
<polygon fill="#ffffff" stroke="transparent" points="296.5,-180.2 296.5,-199.2 328.5,-199.2 328.5,-180.2 296.5,-180.2"/>
<polygon fill="none" stroke="#000000" points="296.5,-180.2 296.5,-199.2 328.5,-199.2 328.5,-180.2 296.5,-180.2"/>
<text text-anchor="start" x="299.5" y="-186.3" font-family="Helvetica,sans-Serif" font-size="11.00" fill="#000000">&lt; 4</text>
<polygon fill="#ffffff" stroke="transparent" points="328.5,-180.2 328.5,-199.2 392.5,-199.2 392.5,-180.2 328.5,-180.2"/>
<polygon fill="none" stroke="#000000" points="328.5,-180.2 328.5,-199.2 392.5,-199.2 392.5,-180.2 328.5,-180.2"/>
<text text-anchor="start" x="335.7089" y="-186.3" font-family="Helvetica,sans-Serif" font-size="11.00" fill="#000000">2.734 rows</text>
<polygon fill="#ffffff" stroke="transparent" points="392.5,-180.2 392.5,-199.2 419.5,-199.2 419.5,-180.2 392.5,-180.2"/>
<polygon fill="none" stroke="#000000" points="392.5,-180.2 392.5,-199.2 419.5,-199.2 419.5,-180.2 392.5,-180.2"/>
<text text-anchor="start" x="400.9053" y="-186.3" font-family="Helvetica,sans-Serif" font-size="11.00" fill="#000000">1 &gt;</text>
</a>
</g>
</g>
<!-- ippd_DataCore&#45;&gt;ippd_variables -->
<g id="edge1" class="edge">
<title>ippd_DataCore:w&#45;&gt;ippd_variables:e</title>
<path fill="none" stroke="#000000" d="M453.2829,-317.2C442.2886,-317.2 435.1615,-317.2 419.5,-317.2"/>
<polygon fill="#000000" stroke="#000000" points="460,-317.2001 468,-320.8 464,-317.2 468,-317.2 468,-317.2 468,-317.2 464,-317.2 468,-313.6 460,-317.2001 460,-317.2001"/>
<ellipse fill="none" stroke="#000000" cx="456.8" cy="-317.2001" rx="3.2" ry="3.2"/>
</g>
<!-- cabah_taxaID -->
<g id="node3" class="node">
<title>cabah_taxaID</title>
<g id="a_node3"><a xlink:href="../../tables/cabah_taxaID.html" xlink:title="cabah_taxaID" target="_top">
<polygon fill="#ffffff" stroke="transparent" points="69.5,-357.7 69.5,-418.7 185.5,-418.7 185.5,-357.7 69.5,-357.7"/>
<polygon fill="#f5f5f5" stroke="transparent" points="69.5,-395.2 69.5,-418.2 185.5,-418.2 185.5,-395.2 69.5,-395.2"/>
<polygon fill="none" stroke="#000000" points="69.5,-395.2 69.5,-418.2 185.5,-418.2 185.5,-395.2 69.5,-395.2"/>
<text text-anchor="start" x="74.5" y="-403.8" font-family="Helvetica,sans-Serif" font-weight="bold" font-size="11.00" fill="#000000">cabah_taxaID</text>
<text text-anchor="start" x="151.0219" y="-403.3" font-family="Helvetica,sans-Serif" font-size="11.00" fill="#000000">[table]</text>
<polygon fill="none" stroke="#000000" points="69.5,-376.2 69.5,-395.2 185.5,-395.2 185.5,-376.2 69.5,-376.2"/>
<text text-anchor="start" x="72.5" y="-382.3" font-family="Helvetica,sans-Serif" font-size="11.00" fill="#000000">...</text>
<polygon fill="#ffffff" stroke="transparent" points="69.5,-357.2 69.5,-376.2 94.5,-376.2 94.5,-357.2 69.5,-357.2"/>
<polygon fill="none" stroke="#000000" points="69.5,-357.2 69.5,-376.2 94.5,-376.2 94.5,-357.2 69.5,-357.2"/>
<text text-anchor="start" x="72.5" y="-363.3" font-family="Helvetica,sans-Serif" font-size="11.00" fill="#000000">&lt; 3</text>
<polygon fill="#ffffff" stroke="transparent" points="94.5,-357.2 94.5,-376.2 161.5,-376.2 161.5,-357.2 94.5,-357.2"/>
<polygon fill="none" stroke="#000000" points="94.5,-357.2 94.5,-376.2 161.5,-376.2 161.5,-357.2 94.5,-357.2"/>
<text text-anchor="start" x="98.594" y="-363.3" font-family="Helvetica,sans-Serif" font-size="11.00" fill="#000000">47.144 rows</text>
<polygon fill="#ffffff" stroke="transparent" points="161.5,-357.2 161.5,-376.2 185.5,-376.2 185.5,-357.2 161.5,-357.2"/>
<polygon fill="none" stroke="#000000" points="161.5,-357.2 161.5,-376.2 185.5,-376.2 185.5,-357.2 161.5,-357.2"/>
<text text-anchor="start" x="166.9053" y="-363.3" font-family="Helvetica,sans-Serif" font-size="11.00" fill="#000000">3 &gt;</text>
</a>
</g>
</g>
<!-- ippd_variables&#45;&gt;cabah_taxaID -->
<g id="edge2" class="edge">
<title>ippd_variables:w&#45;&gt;cabah_taxaID:e</title>
<path fill="none" stroke="#000000" d="M282.4737,-299.1616C269.9646,-308.4918 272.8632,-332.1909 255,-347.2 228.0467,-369.8468 220.7045,-385.2 185.5,-385.2"/>
<polygon fill="#000000" stroke="#000000" points="288.8012,-297.3745 297.4785,-298.6645 292.6506,-296.2872 296.5,-295.2 296.5,-295.2 296.5,-295.2 292.6506,-296.2872 295.5215,-291.7355 288.8012,-297.3745 288.8012,-297.3745"/>
<ellipse fill="none" stroke="#000000" cx="285.7217" cy="-298.2443" rx="3.2" ry="3.2"/>
</g>
<!-- neo_variablecontexts -->
<g id="node4" class="node">
<title>neo_variablecontexts</title>
<g id="a_node4"><a xlink:href="../../tables/neo_variablecontexts.html" xlink:title="neo_variablecontexts" target="_top">
<polygon fill="#ffffff" stroke="transparent" points="8,-38.2 8,-172.2 247,-172.2 247,-38.2 8,-38.2"/>
<polygon fill="#f5f5f5" stroke="transparent" points="10.5,-147.2 10.5,-170.2 245.5,-170.2 245.5,-147.2 10.5,-147.2"/>
<polygon fill="none" stroke="#000000" points="10.5,-147.2 10.5,-170.2 245.5,-170.2 245.5,-147.2 10.5,-147.2"/>
<text text-anchor="start" x="15.5" y="-155.8" font-family="Helvetica,sans-Serif" font-weight="bold" font-size="11.00" fill="#000000">neo_variablecontexts</text>
<text text-anchor="start" x="210.5437" y="-155.3" font-family="Helvetica,sans-Serif" font-size="11.00" fill="#000000">[table]</text>
<polygon fill="none" stroke="#000000" points="10.5,-125.2 10.5,-147.2 153.5,-147.2 153.5,-125.2 10.5,-125.2"/>
<image xlink:href="../../images/primaryKeys.png" width="11px" height="12px" preserveAspectRatio="xMinYMin meet" x="15.5" y="-142.2"/>
<text text-anchor="start" x="30.5" y="-132.3" font-family="Helvetica,sans-Serif" font-size="11.00" fill="#000000">VARCONTXID</text>
<polygon fill="none" stroke="#000000" points="153.5,-125.2 153.5,-147.2 245.5,-147.2 245.5,-125.2 153.5,-125.2"/>
<text text-anchor="start" x="156.5" y="-132.9" font-family="Helvetica,sans-Serif" font-size="11.00" fill="#000000">int4[10]</text>
<polygon fill="none" stroke="#000000" points="10.5,-103.2 10.5,-125.2 153.5,-125.2 153.5,-103.2 10.5,-103.2"/>
<text text-anchor="start" x="30.5" y="-110.3" font-family="Helvetica,sans-Serif" font-size="11.00" fill="#000000">VARCONTEXT</text>
<polygon fill="none" stroke="#000000" points="153.5,-103.2 153.5,-125.2 245.5,-125.2 245.5,-103.2 153.5,-103.2"/>
<text text-anchor="start" x="156.5" y="-110.9" font-family="Helvetica,sans-Serif" font-size="11.00" fill="#000000">text[2147483647]</text>
<polygon fill="none" stroke="#000000" points="10.5,-81.2 10.5,-103.2 153.5,-103.2 153.5,-81.2 10.5,-81.2"/>
<text text-anchor="start" x="30.5" y="-88.3" font-family="Helvetica,sans-Serif" font-size="11.00" fill="#000000">CREATED_AT</text>
<polygon fill="none" stroke="#000000" points="153.5,-81.2 153.5,-103.2 245.5,-103.2 245.5,-81.2 153.5,-81.2"/>
<text text-anchor="start" x="156.1023" y="-88.9" font-family="Helvetica,sans-Serif" font-size="11.00" fill="#000000">timestamptz[35,6]</text>
<polygon fill="none" stroke="#000000" points="10.5,-59.2 10.5,-81.2 153.5,-81.2 153.5,-59.2 10.5,-59.2"/>
<text text-anchor="start" x="30.5" y="-66.3" font-family="Helvetica,sans-Serif" font-size="11.00" fill="#000000">UPDATED_AT</text>
<polygon fill="none" stroke="#000000" points="153.5,-59.2 153.5,-81.2 245.5,-81.2 245.5,-59.2 153.5,-59.2"/>
<text text-anchor="start" x="156.1023" y="-66.9" font-family="Helvetica,sans-Serif" font-size="11.00" fill="#000000">timestamptz[35,6]</text>
<polygon fill="#ffffff" stroke="transparent" points="10.5,-40.2 10.5,-59.2 70.5,-59.2 70.5,-40.2 10.5,-40.2"/>
<polygon fill="none" stroke="#000000" points="10.5,-40.2 10.5,-59.2 70.5,-59.2 70.5,-40.2 10.5,-40.2"/>
<text text-anchor="start" x="13.5" y="-46.3" font-family="Helvetica,sans-Serif" font-size="11.00" fill="#000000">&lt; 0</text>
<polygon fill="#ffffff" stroke="transparent" points="70.5,-40.2 70.5,-59.2 153.5,-59.2 153.5,-40.2 70.5,-40.2"/>
<polygon fill="none" stroke="#000000" points="70.5,-40.2 70.5,-59.2 153.5,-59.2 153.5,-40.2 70.5,-40.2"/>
<text text-anchor="start" x="111.9956" y="-46.3" font-family="Helvetica,sans-Serif" font-size="11.00" fill="#000000">88 rows</text>
<polygon fill="#ffffff" stroke="transparent" points="153.5,-40.2 153.5,-59.2 245.5,-59.2 245.5,-40.2 153.5,-40.2"/>
<polygon fill="none" stroke="#000000" points="153.5,-40.2 153.5,-59.2 245.5,-59.2 245.5,-40.2 153.5,-40.2"/>
<text text-anchor="start" x="226.9053" y="-46.3" font-family="Helvetica,sans-Serif" font-size="11.00" fill="#000000">1 &gt;</text>
<polygon fill="none" stroke="#000000" stroke-width="2" points="9,-39.2 9,-171.2 246,-171.2 246,-39.2 9,-39.2"/>
</a>
</g>
</g>
<!-- ippd_variables&#45;&gt;neo_variablecontexts -->
<g id="edge3" class="edge">
<title>ippd_variables:w&#45;&gt;neo_variablecontexts:e</title>
<path fill="none" stroke="#000000" d="M282.3901,-224.9623C259.0154,-206.7688 286.5638,-136.2 245.5,-136.2"/>
<polygon fill="#000000" stroke="#000000" points="288.8381,-226.8988 295.4645,-232.6479 292.669,-228.0494 296.5,-229.2 296.5,-229.2 296.5,-229.2 292.669,-228.0494 297.5355,-225.7521 288.8381,-226.8988 288.8381,-226.8988"/>
<ellipse fill="none" stroke="#000000" cx="285.7733" cy="-225.9784" rx="3.2" ry="3.2"/>
</g>
<!-- neo_variableelements -->
<g id="node5" class="node">
<title>neo_variableelements</title>
<g id="a_node5"><a xlink:href="../../tables/neo_variableelements.html" xlink:title="neo_variableelements" target="_top">
<polygon fill="#ffffff" stroke="transparent" points="45.5,-275.7 45.5,-336.7 209.5,-336.7 209.5,-275.7 45.5,-275.7"/>
<polygon fill="#f5f5f5" stroke="transparent" points="45.5,-313.2 45.5,-336.2 209.5,-336.2 209.5,-313.2 45.5,-313.2"/>
<polygon fill="none" stroke="#000000" points="45.5,-313.2 45.5,-336.2 209.5,-336.2 209.5,-313.2 45.5,-313.2"/>
<text text-anchor="start" x="50.5" y="-321.8" font-family="Helvetica,sans-Serif" font-weight="bold" font-size="11.00" fill="#000000">neo_variableelements</text>
<text text-anchor="start" x="175.0219" y="-321.3" font-family="Helvetica,sans-Serif" font-size="11.00" fill="#000000">[table]</text>
<polygon fill="none" stroke="#000000" points="45.5,-294.2 45.5,-313.2 209.5,-313.2 209.5,-294.2 45.5,-294.2"/>
<text text-anchor="start" x="48.5" y="-300.3" font-family="Helvetica,sans-Serif" font-size="11.00" fill="#000000">...</text>
<polygon fill="#ffffff" stroke="transparent" points="45.5,-275.2 45.5,-294.2 102.5,-294.2 102.5,-275.2 45.5,-275.2"/>
<polygon fill="none" stroke="#000000" points="45.5,-275.2 45.5,-294.2 102.5,-294.2 102.5,-275.2 45.5,-275.2"/>
<text text-anchor="start" x="48.5" y="-281.3" font-family="Helvetica,sans-Serif" font-size="11.00" fill="#000000">&lt; 4</text>
<polygon fill="#ffffff" stroke="transparent" points="102.5,-275.2 102.5,-294.2 170.5,-294.2 170.5,-275.2 102.5,-275.2"/>
<polygon fill="none" stroke="#000000" points="102.5,-275.2 102.5,-294.2 170.5,-294.2 170.5,-275.2 102.5,-275.2"/>
<text text-anchor="start" x="122.8807" y="-281.3" font-family="Helvetica,sans-Serif" font-size="11.00" fill="#000000">983 rows</text>
<polygon fill="#ffffff" stroke="transparent" points="170.5,-275.2 170.5,-294.2 209.5,-294.2 209.5,-275.2 170.5,-275.2"/>
<polygon fill="none" stroke="#000000" points="170.5,-275.2 170.5,-294.2 209.5,-294.2 209.5,-275.2 170.5,-275.2"/>
<text text-anchor="start" x="190.9053" y="-281.3" font-family="Helvetica,sans-Serif" font-size="11.00" fill="#000000">1 &gt;</text>
</a>
</g>
</g>
<!-- ippd_variables&#45;&gt;neo_variableelements -->
<g id="edge4" class="edge">
<title>ippd_variables:w&#45;&gt;neo_variableelements:e</title>
<path fill="none" stroke="#000000" d="M281.9255,-274.647C253.5885,-280.6396 244.9688,-303.2 209.5,-303.2"/>
<polygon fill="#000000" stroke="#000000" points="288.5391,-273.9904 296.8557,-276.7824 292.5196,-273.5952 296.5,-273.2 296.5,-273.2 296.5,-273.2 292.5196,-273.5952 296.1443,-269.6176 288.5391,-273.9904 288.5391,-273.9904"/>
<ellipse fill="none" stroke="#000000" cx="285.3548" cy="-274.3066" rx="3.2" ry="3.2"/>
</g>
<!-- neo_variableunits -->
<g id="node6" class="node">
<title>neo_variableunits</title>
<g id="a_node6"><a xlink:href="../../tables/neo_variableunits.html" xlink:title="neo_variableunits" target="_top">
<polygon fill="#ffffff" stroke="transparent" points="57,-193.7 57,-254.7 198,-254.7 198,-193.7 57,-193.7"/>
<polygon fill="#f5f5f5" stroke="transparent" points="57.5,-231.2 57.5,-254.2 198.5,-254.2 198.5,-231.2 57.5,-231.2"/>
<polygon fill="none" stroke="#000000" points="57.5,-231.2 57.5,-254.2 198.5,-254.2 198.5,-231.2 57.5,-231.2"/>
<text text-anchor="start" x="62.5" y="-239.8" font-family="Helvetica,sans-Serif" font-weight="bold" font-size="11.00" fill="#000000">neo_variableunits</text>
<text text-anchor="start" x="164.0219" y="-239.3" font-family="Helvetica,sans-Serif" font-size="11.00" fill="#000000">[table]</text>
<polygon fill="none" stroke="#000000" points="57.5,-212.2 57.5,-231.2 198.5,-231.2 198.5,-212.2 57.5,-212.2"/>
<text text-anchor="start" x="60.5" y="-218.3" font-family="Helvetica,sans-Serif" font-size="11.00" fill="#000000">...</text>
<polygon fill="#ffffff" stroke="transparent" points="57.5,-193.2 57.5,-212.2 98.5,-212.2 98.5,-193.2 57.5,-193.2"/>
<polygon fill="none" stroke="#000000" points="57.5,-193.2 57.5,-212.2 98.5,-212.2 98.5,-193.2 57.5,-193.2"/>
<text text-anchor="start" x="60.5" y="-199.3" font-family="Helvetica,sans-Serif" font-size="11.00" fill="#000000"> &#160;</text>
<polygon fill="#ffffff" stroke="transparent" points="98.5,-193.2 98.5,-212.2 162.5,-212.2 162.5,-193.2 98.5,-193.2"/>
<polygon fill="none" stroke="#000000" points="98.5,-193.2 98.5,-212.2 162.5,-212.2 162.5,-193.2 98.5,-193.2"/>
<text text-anchor="start" x="114.8807" y="-199.3" font-family="Helvetica,sans-Serif" font-size="11.00" fill="#000000">210 rows</text>
<polygon fill="#ffffff" stroke="transparent" points="162.5,-193.2 162.5,-212.2 198.5,-212.2 198.5,-193.2 162.5,-193.2"/>
<polygon fill="none" stroke="#000000" points="162.5,-193.2 162.5,-212.2 198.5,-212.2 198.5,-193.2 162.5,-193.2"/>
<text text-anchor="start" x="179.9053" y="-199.3" font-family="Helvetica,sans-Serif" font-size="11.00" fill="#000000">1 &gt;</text>
</a>
</g>
</g>
<!-- ippd_variables&#45;&gt;neo_variableunits -->
<g id="edge5" class="edge">
<title>ippd_variables:w&#45;&gt;neo_variableunits:e</title>
<path fill="none" stroke="#000000" d="M281.9541,-250.0606C248.8016,-244.5807 238.7127,-221.2 198.5,-221.2"/>
<polygon fill="#000000" stroke="#000000" points="288.5244,-250.5752 296.2188,-254.789 292.5122,-250.8876 296.5,-251.2 296.5,-251.2 296.5,-251.2 292.5122,-250.8876 296.7812,-247.611 288.5244,-250.5752 288.5244,-250.5752"/>
<ellipse fill="none" stroke="#000000" cx="285.3342" cy="-250.3253" rx="3.2" ry="3.2"/>
</g>
</g>
</svg>
