<?xml version="1.0" encoding="UTF-8" standalone="no"?>
<!DOCTYPE svg PUBLIC "-//W3C//DTD SVG 1.1//EN"
 "http://www.w3.org/Graphics/SVG/1.1/DTD/svg11.dtd">
<!-- Generated by graphviz version 2.40.1 (20161225.0304)
 -->
<!-- Title: oneDegreeRelationshipsDiagram Pages: 1 -->
<svg width="494pt" height="227pt"
 viewBox="0.00 0.00 494.00 226.70" xmlns="http://www.w3.org/2000/svg" xmlns:xlink="http://www.w3.org/1999/xlink">
<g id="graph0" class="graph" transform="scale(1 1) rotate(0) translate(4 222.7)">
<title>oneDegreeRelationshipsDiagram</title>
<polygon fill="#ffffff" stroke="transparent" points="-4,4 -4,-222.7 490,-222.7 490,4 -4,4"/>
<text text-anchor="middle" x="72.4936" y="-7.3" font-family="Helvetica,sans-Serif" font-size="11.00" fill="#000000">Generated by SchemaSpy</text>
<!-- neo_variableelements -->
<g id="node1" class="node">
<title>neo_variableelements</title>
<g id="a_node1"><a xlink:href="../../tables/neo_variableelements.html" xlink:title="neo_variableelements" target="_top">
<polygon fill="#ffffff" stroke="transparent" points="314,-43.7 314,-214.7 478,-214.7 478,-43.7 314,-43.7"/>
<polygon fill="#f5f5f5" stroke="transparent" points="314,-191.2 314,-214.2 478,-214.2 478,-191.2 314,-191.2"/>
<polygon fill="none" stroke="#000000" points="314,-191.2 314,-214.2 478,-214.2 478,-191.2 314,-191.2"/>
<text text-anchor="start" x="319" y="-199.8" font-family="Helvetica,sans-Serif" font-weight="bold" font-size="11.00" fill="#000000">neo_variableelements</text>
<text text-anchor="start" x="443.5219" y="-199.3" font-family="Helvetica,sans-Serif" font-size="11.00" fill="#000000">[table]</text>
<polygon fill="none" stroke="#000000" points="314,-169.2 314,-191.2 478,-191.2 478,-169.2 314,-169.2"/>
<image xlink:href="../../images/primaryKeys.png" width="11px" height="12px" preserveAspectRatio="xMinYMin meet" x="319" y="-186.2"/>
<text text-anchor="start" x="343" y="-176.3" font-family="Helvetica,sans-Serif" font-size="11.00" fill="#000000">VARELEMTID</text>
<polygon fill="none" stroke="#000000" points="314,-147.2 314,-169.2 478,-169.2 478,-147.2 314,-147.2"/>
<image xlink:href="../../images/foreignKeys.png" width="11px" height="12px" preserveAspectRatio="xMinYMin meet" x="319" y="-164.2"/>
<text text-anchor="start" x="343" y="-154.3" font-family="Helvetica,sans-Serif" font-size="11.00" fill="#000000">ELEMTYPEID</text>
<polygon fill="none" stroke="#000000" points="314,-125.2 314,-147.2 478,-147.2 478,-125.2 314,-125.2"/>
<image xlink:href="../../images/foreignKeys.png" width="11px" height="12px" preserveAspectRatio="xMinYMin meet" x="319" y="-142.2"/>
<text text-anchor="start" x="343" y="-132.3" font-family="Helvetica,sans-Serif" font-size="11.00" fill="#000000">SYMMETRYID</text>
<polygon fill="none" stroke="#000000" points="314,-103.2 314,-125.2 478,-125.2 478,-103.2 314,-103.2"/>
<image xlink:href="../../images/foreignKeys.png" width="11px" height="12px" preserveAspectRatio="xMinYMin meet" x="319" y="-120.2"/>
<text text-anchor="start" x="343" y="-110.3" font-family="Helvetica,sans-Serif" font-size="11.00" fill="#000000">PORTIONID</text>
<polygon fill="none" stroke="#000000" points="314,-81.2 314,-103.2 478,-103.2 478,-81.2 314,-81.2"/>
<image xlink:href="../../images/foreignKeys.png" width="11px" height="12px" preserveAspectRatio="xMinYMin meet" x="319" y="-98.2"/>
<text text-anchor="start" x="343" y="-88.3" font-family="Helvetica,sans-Serif" font-size="11.00" fill="#000000">MATURITYID</text>
<polygon fill="none" stroke="#000000" points="314,-62.2 314,-81.2 478,-81.2 478,-62.2 314,-62.2"/>
<text text-anchor="start" x="317" y="-68.3" font-family="Helvetica,sans-Serif" font-size="11.00" fill="#000000">...</text>
<polygon fill="#ffffff" stroke="transparent" points="314,-43.2 314,-62.2 371,-62.2 371,-43.2 314,-43.2"/>
<polygon fill="none" stroke="#000000" points="314,-43.2 314,-62.2 371,-62.2 371,-43.2 314,-43.2"/>
<text text-anchor="start" x="317" y="-49.3" font-family="Helvetica,sans-Serif" font-size="11.00" fill="#000000">&lt; 4</text>
<polygon fill="#ffffff" stroke="transparent" points="371,-43.2 371,-62.2 439,-62.2 439,-43.2 371,-43.2"/>
<polygon fill="none" stroke="#000000" points="371,-43.2 371,-62.2 439,-62.2 439,-43.2 371,-43.2"/>
<text text-anchor="start" x="391.3807" y="-49.3" font-family="Helvetica,sans-Serif" font-size="11.00" fill="#000000">983 rows</text>
<polygon fill="#ffffff" stroke="transparent" points="439,-43.2 439,-62.2 478,-62.2 478,-43.2 439,-43.2"/>
<polygon fill="none" stroke="#000000" points="439,-43.2 439,-62.2 478,-62.2 478,-43.2 439,-43.2"/>
<text text-anchor="start" x="459.4053" y="-49.3" font-family="Helvetica,sans-Serif" font-size="11.00" fill="#000000">1 &gt;</text>
</a>
</g>
</g>
<!-- neo_elementsymmetries -->
<g id="node2" class="node">
<title>neo_elementsymmetries</title>
<g id="a_node2"><a xlink:href="../../tables/neo_elementsymmetries.html" xlink:title="neo_elementsymmetries" target="_top">
<polygon fill="#ffffff" stroke="transparent" points="8,-38.2 8,-172.2 265,-172.2 265,-38.2 8,-38.2"/>
<polygon fill="#f5f5f5" stroke="transparent" points="10.5,-147.2 10.5,-170.2 263.5,-170.2 263.5,-147.2 10.5,-147.2"/>
<polygon fill="none" stroke="#000000" points="10.5,-147.2 10.5,-170.2 263.5,-170.2 263.5,-147.2 10.5,-147.2"/>
<text text-anchor="start" x="15.5" y="-155.8" font-family="Helvetica,sans-Serif" font-weight="bold" font-size="11.00" fill="#000000">neo_elementsymmetries</text>
<text text-anchor="start" x="228.5437" y="-155.3" font-family="Helvetica,sans-Serif" font-size="11.00" fill="#000000">[table]</text>
<polygon fill="none" stroke="#000000" points="10.5,-125.2 10.5,-147.2 171.5,-147.2 171.5,-125.2 10.5,-125.2"/>
<image xlink:href="../../images/primaryKeys.png" width="11px" height="12px" preserveAspectRatio="xMinYMin meet" x="15.5" y="-142.2"/>
<text text-anchor="start" x="30.5" y="-132.3" font-family="Helvetica,sans-Serif" font-size="11.00" fill="#000000">SYMMETRYID</text>
<polygon fill="none" stroke="#000000" points="171.5,-125.2 171.5,-147.2 263.5,-147.2 263.5,-125.2 171.5,-125.2"/>
<text text-anchor="start" x="174.5" y="-132.9" font-family="Helvetica,sans-Serif" font-size="11.00" fill="#000000">int2[5]</text>
<polygon fill="none" stroke="#000000" points="10.5,-103.2 10.5,-125.2 171.5,-125.2 171.5,-103.2 10.5,-103.2"/>
<text text-anchor="start" x="30.5" y="-110.3" font-family="Helvetica,sans-Serif" font-size="11.00" fill="#000000">SYMMETRY</text>
<polygon fill="none" stroke="#000000" points="171.5,-103.2 171.5,-125.2 263.5,-125.2 263.5,-103.2 171.5,-103.2"/>
<text text-anchor="start" x="174.5" y="-110.9" font-family="Helvetica,sans-Serif" font-size="11.00" fill="#000000">text[2147483647]</text>
<polygon fill="none" stroke="#000000" points="10.5,-81.2 10.5,-103.2 171.5,-103.2 171.5,-81.2 10.5,-81.2"/>
<text text-anchor="start" x="30.5" y="-88.3" font-family="Helvetica,sans-Serif" font-size="11.00" fill="#000000">CREATED_AT</text>
<polygon fill="none" stroke="#000000" points="171.5,-81.2 171.5,-103.2 263.5,-103.2 263.5,-81.2 171.5,-81.2"/>
<text text-anchor="start" x="174.1023" y="-88.9" font-family="Helvetica,sans-Serif" font-size="11.00" fill="#000000">timestamptz[35,6]</text>
<polygon fill="none" stroke="#000000" points="10.5,-59.2 10.5,-81.2 171.5,-81.2 171.5,-59.2 10.5,-59.2"/>
<text text-anchor="start" x="30.5" y="-66.3" font-family="Helvetica,sans-Serif" font-size="11.00" fill="#000000">UPDATED_AT</text>
<polygon fill="none" stroke="#000000" points="171.5,-59.2 171.5,-81.2 263.5,-81.2 263.5,-59.2 171.5,-59.2"/>
<text text-anchor="start" x="174.1023" y="-66.9" font-family="Helvetica,sans-Serif" font-size="11.00" fill="#000000">timestamptz[35,6]</text>
<polygon fill="#ffffff" stroke="transparent" points="10.5,-40.2 10.5,-59.2 82.5,-59.2 82.5,-40.2 10.5,-40.2"/>
<polygon fill="none" stroke="#000000" points="10.5,-40.2 10.5,-59.2 82.5,-59.2 82.5,-40.2 10.5,-40.2"/>
<text text-anchor="start" x="13.5" y="-46.3" font-family="Helvetica,sans-Serif" font-size="11.00" fill="#000000">&lt; 0</text>
<polygon fill="#ffffff" stroke="transparent" points="82.5,-40.2 82.5,-59.2 171.5,-59.2 171.5,-40.2 82.5,-40.2"/>
<polygon fill="none" stroke="#000000" points="82.5,-40.2 82.5,-59.2 171.5,-59.2 171.5,-40.2 82.5,-40.2"/>
<text text-anchor="start" x="136.1105" y="-46.3" font-family="Helvetica,sans-Serif" font-size="11.00" fill="#000000">0 rows</text>
<polygon fill="#ffffff" stroke="transparent" points="171.5,-40.2 171.5,-59.2 263.5,-59.2 263.5,-40.2 171.5,-40.2"/>
<polygon fill="none" stroke="#000000" points="171.5,-40.2 171.5,-59.2 263.5,-59.2 263.5,-40.2 171.5,-40.2"/>
<text text-anchor="start" x="244.9053" y="-46.3" font-family="Helvetica,sans-Serif" font-size="11.00" fill="#000000">1 &gt;</text>
<polygon fill="none" stroke="#000000" stroke-width="2" points="9,-39.2 9,-171.2 264,-171.2 264,-39.2 9,-39.2"/>
</a>
</g>
</g>
<!-- neo_variableelements&#45;&gt;neo_elementsymmetries -->
<g id="edge1" class="edge">
<title>neo_variableelements:w&#45;&gt;neo_elementsymmetries:e</title>
<path fill="none" stroke="#000000" d="M299.4203,-136.2C287.5435,-136.2 280.158,-136.2 263.5,-136.2"/>
<polygon fill="#000000" stroke="#000000" points="306,-136.2001 314,-139.8 310,-136.2 314,-136.2 314,-136.2 314,-136.2 310,-136.2 314,-132.6 306,-136.2001 306,-136.2001"/>
<ellipse fill="none" stroke="#000000" cx="302.8" cy="-136.2001" rx="3.2" ry="3.2"/>
</g>
</g>
</svg>
