<?xml version="1.0" encoding="UTF-8" standalone="no"?>
<!DOCTYPE svg PUBLIC "-//W3C//DTD SVG 1.1//EN"
 "http://www.w3.org/Graphics/SVG/1.1/DTD/svg11.dtd">
<!-- Generated by graphviz version 2.40.1 (20161225.0304)
 -->
<!-- Title: twoDegreesRelationshipsDiagramImplied Pages: 1 -->
<svg width="1512pt" height="1041pt"
 viewBox="0.00 0.00 1512.00 1040.50" xmlns="http://www.w3.org/2000/svg" xmlns:xlink="http://www.w3.org/1999/xlink">
<g id="graph0" class="graph" transform="scale(1 1) rotate(0) translate(4 1036.5032)">
<title>twoDegreesRelationshipsDiagramImplied</title>
<polygon fill="#ffffff" stroke="transparent" points="-4,4 -4,-1036.5032 1508,-1036.5032 1508,4 -4,4"/>
<text text-anchor="middle" x="72.4936" y="-7.3" font-family="Helvetica,sans-Serif" font-size="11.00" fill="#000000">Generated by SchemaSpy</text>
<!-- cabah_AnalysisUnit -->
<g id="node1" class="node">
<title>cabah_AnalysisUnit</title>
<g id="a_node1"><a xlink:href="../../tables/cabah_AnalysisUnit.html" xlink:title="cabah_AnalysisUnit" target="_top">
<polygon fill="#ffffff" stroke="transparent" points="632.5,-747.5032 632.5,-808.5032 785.5,-808.5032 785.5,-747.5032 632.5,-747.5032"/>
<polygon fill="#f5f5f5" stroke="transparent" points="633,-785.0032 633,-808.0032 786,-808.0032 786,-785.0032 633,-785.0032"/>
<polygon fill="none" stroke="#000000" points="633,-785.0032 633,-808.0032 786,-808.0032 786,-785.0032 633,-785.0032"/>
<text text-anchor="start" x="638" y="-793.6032" font-family="Helvetica,sans-Serif" font-weight="bold" font-size="11.00" fill="#000000">cabah_AnalysisUnit</text>
<text text-anchor="start" x="751.5219" y="-793.1032" font-family="Helvetica,sans-Serif" font-size="11.00" fill="#000000">[table]</text>
<polygon fill="none" stroke="#000000" points="633,-766.0032 633,-785.0032 786,-785.0032 786,-766.0032 633,-766.0032"/>
<text text-anchor="start" x="636" y="-772.1032" font-family="Helvetica,sans-Serif" font-size="11.00" fill="#000000">...</text>
<polygon fill="#ffffff" stroke="transparent" points="633,-747.0032 633,-766.0032 677,-766.0032 677,-747.0032 633,-747.0032"/>
<polygon fill="none" stroke="#000000" points="633,-747.0032 633,-766.0032 677,-766.0032 677,-747.0032 633,-747.0032"/>
<text text-anchor="start" x="636" y="-753.1032" font-family="Helvetica,sans-Serif" font-size="11.00" fill="#000000">&lt; 3</text>
<polygon fill="#ffffff" stroke="transparent" points="677,-747.0032 677,-766.0032 753,-766.0032 753,-747.0032 677,-747.0032"/>
<polygon fill="none" stroke="#000000" points="677,-747.0032 677,-766.0032 753,-766.0032 753,-747.0032 677,-747.0032"/>
<text text-anchor="start" x="690.094" y="-753.1032" font-family="Helvetica,sans-Serif" font-size="11.00" fill="#000000">15.022 rows</text>
<polygon fill="#ffffff" stroke="transparent" points="753,-747.0032 753,-766.0032 786,-766.0032 786,-747.0032 753,-747.0032"/>
<polygon fill="none" stroke="#000000" points="753,-747.0032 753,-766.0032 786,-766.0032 786,-747.0032 753,-747.0032"/>
<text text-anchor="start" x="767.4053" y="-753.1032" font-family="Helvetica,sans-Serif" font-size="11.00" fill="#000000">1 &gt;</text>
</a>
</g>
</g>
<!-- cabah_depositID -->
<g id="node2" class="node">
<title>cabah_depositID</title>
<g id="a_node2"><a xlink:href="../../tables/cabah_depositID.html" xlink:title="cabah_depositID" target="_top">
<polygon fill="#ffffff" stroke="transparent" points="195,-681.5032 195,-742.5032 330,-742.5032 330,-681.5032 195,-681.5032"/>
<polygon fill="#f5f5f5" stroke="transparent" points="195.5,-719.0032 195.5,-742.0032 330.5,-742.0032 330.5,-719.0032 195.5,-719.0032"/>
<polygon fill="none" stroke="#000000" points="195.5,-719.0032 195.5,-742.0032 330.5,-742.0032 330.5,-719.0032 195.5,-719.0032"/>
<text text-anchor="start" x="200.5" y="-727.6032" font-family="Helvetica,sans-Serif" font-weight="bold" font-size="11.00" fill="#000000">cabah_depositID</text>
<text text-anchor="start" x="296.0219" y="-727.1032" font-family="Helvetica,sans-Serif" font-size="11.00" fill="#000000">[table]</text>
<polygon fill="none" stroke="#000000" points="195.5,-700.0032 195.5,-719.0032 330.5,-719.0032 330.5,-700.0032 195.5,-700.0032"/>
<text text-anchor="start" x="198.5" y="-706.1032" font-family="Helvetica,sans-Serif" font-size="11.00" fill="#000000">...</text>
<polygon fill="#ffffff" stroke="transparent" points="195.5,-681.0032 195.5,-700.0032 237.5,-700.0032 237.5,-681.0032 195.5,-681.0032"/>
<polygon fill="none" stroke="#000000" points="195.5,-681.0032 195.5,-700.0032 237.5,-700.0032 237.5,-681.0032 195.5,-681.0032"/>
<text text-anchor="start" x="198.5" y="-687.1032" font-family="Helvetica,sans-Serif" font-size="11.00" fill="#000000">&lt; 1</text>
<polygon fill="#ffffff" stroke="transparent" points="237.5,-681.0032 237.5,-700.0032 298.5,-700.0032 298.5,-681.0032 237.5,-681.0032"/>
<polygon fill="none" stroke="#000000" points="237.5,-681.0032 237.5,-700.0032 298.5,-700.0032 298.5,-681.0032 237.5,-681.0032"/>
<text text-anchor="start" x="250.8807" y="-687.1032" font-family="Helvetica,sans-Serif" font-size="11.00" fill="#000000">119 rows</text>
<polygon fill="#ffffff" stroke="transparent" points="298.5,-681.0032 298.5,-700.0032 330.5,-700.0032 330.5,-681.0032 298.5,-681.0032"/>
<polygon fill="none" stroke="#000000" points="298.5,-681.0032 298.5,-700.0032 330.5,-700.0032 330.5,-681.0032 298.5,-681.0032"/>
<text text-anchor="start" x="311.9053" y="-687.1032" font-family="Helvetica,sans-Serif" font-size="11.00" fill="#000000">3 &gt;</text>
</a>
</g>
</g>
<!-- cabah_AnalysisUnit&#45;&gt;cabah_depositID -->
<g id="edge1" class="edge">
<title>cabah_AnalysisUnit:w&#45;&gt;cabah_depositID:e</title>
<path fill="none" stroke="#000000" d="M618.5053,-774.7509C493.2769,-770.3198 463.1351,-709.0032 330.5,-709.0032"/>
<polygon fill="#000000" stroke="#000000" points="625.0012,-774.8639 632.9373,-778.6026 629.0006,-774.9335 633,-775.0032 633,-775.0032 633,-775.0032 629.0006,-774.9335 633.0627,-771.4037 625.0012,-774.8639 625.0012,-774.8639"/>
<ellipse fill="none" stroke="#000000" cx="621.8017" cy="-774.8082" rx="3.2" ry="3.2"/>
</g>
<!-- global_UnitMaster -->
<g id="node3" class="node">
<title>global_UnitMaster</title>
<g id="a_node3"><a xlink:href="../../tables/global_UnitMaster.html" xlink:title="global_UnitMaster" target="_top">
<polygon fill="#ffffff" stroke="transparent" points="397,-533.5032 397,-594.5032 540,-594.5032 540,-533.5032 397,-533.5032"/>
<polygon fill="#f5f5f5" stroke="transparent" points="397.5,-571.0032 397.5,-594.0032 540.5,-594.0032 540.5,-571.0032 397.5,-571.0032"/>
<polygon fill="none" stroke="#000000" points="397.5,-571.0032 397.5,-594.0032 540.5,-594.0032 540.5,-571.0032 397.5,-571.0032"/>
<text text-anchor="start" x="402.5" y="-579.6032" font-family="Helvetica,sans-Serif" font-weight="bold" font-size="11.00" fill="#000000">global_UnitMaster</text>
<text text-anchor="start" x="506.0219" y="-579.1032" font-family="Helvetica,sans-Serif" font-size="11.00" fill="#000000">[table]</text>
<polygon fill="none" stroke="#000000" points="397.5,-552.0032 397.5,-571.0032 540.5,-571.0032 540.5,-552.0032 397.5,-552.0032"/>
<text text-anchor="start" x="400.5" y="-558.1032" font-family="Helvetica,sans-Serif" font-size="11.00" fill="#000000">...</text>
<polygon fill="#ffffff" stroke="transparent" points="397.5,-533.0032 397.5,-552.0032 440.5,-552.0032 440.5,-533.0032 397.5,-533.0032"/>
<polygon fill="none" stroke="#000000" points="397.5,-533.0032 397.5,-552.0032 440.5,-552.0032 440.5,-533.0032 397.5,-533.0032"/>
<text text-anchor="start" x="400.5" y="-539.1032" font-family="Helvetica,sans-Serif" font-size="11.00" fill="#000000">&lt; 5</text>
<polygon fill="#ffffff" stroke="transparent" points="440.5,-533.0032 440.5,-552.0032 501.5,-552.0032 501.5,-533.0032 440.5,-533.0032"/>
<polygon fill="none" stroke="#000000" points="440.5,-533.0032 440.5,-552.0032 501.5,-552.0032 501.5,-533.0032 440.5,-533.0032"/>
<text text-anchor="start" x="453.8807" y="-539.1032" font-family="Helvetica,sans-Serif" font-size="11.00" fill="#000000">607 rows</text>
<polygon fill="#ffffff" stroke="transparent" points="501.5,-533.0032 501.5,-552.0032 540.5,-552.0032 540.5,-533.0032 501.5,-533.0032"/>
<polygon fill="none" stroke="#000000" points="501.5,-533.0032 501.5,-552.0032 540.5,-552.0032 540.5,-533.0032 501.5,-533.0032"/>
<text text-anchor="start" x="515.7904" y="-539.1032" font-family="Helvetica,sans-Serif" font-size="11.00" fill="#000000">11 &gt;</text>
</a>
</g>
</g>
<!-- cabah_AnalysisUnit&#45;&gt;global_UnitMaster -->
<g id="edge2" class="edge">
<title>cabah_AnalysisUnit:w&#45;&gt;global_UnitMaster:e</title>
<path fill="none" stroke="#000000" d="M619.1151,-770.4755C576.3244,-748.2048 518.7774,-651.4877 488.7125,-598.6536"/>
<polygon fill="#000000" stroke="#000000" points="625.3942,-772.5229 631.8839,-778.4258 629.1971,-773.763 633,-775.0032 633,-775.0032 633,-775.0032 629.1971,-773.763 634.1161,-771.5805 625.3942,-772.5229 625.3942,-772.5229"/>
<ellipse fill="none" stroke="#000000" cx="622.3518" cy="-771.5309" rx="3.2" ry="3.2"/>
</g>
<!-- cabah_AnalysisUnit&#45;&gt;global_UnitMaster -->
<g id="edge3" class="edge">
<title>cabah_AnalysisUnit:w&#45;&gt;global_UnitMaster:e</title>
<path fill="none" stroke="#000000" stroke-dasharray="5,2" d="M618.4916,-772.9234C573.7172,-756.4518 513.1161,-653.5766 484.5988,-598.5173"/>
<polygon fill="#000000" stroke="#000000" points="625.0809,-773.8679 632.4891,-778.5667 629.0405,-774.4355 633,-775.0032 633,-775.0032 633,-775.0032 629.0405,-774.4355 633.5109,-771.4396 625.0809,-773.8679 625.0809,-773.8679"/>
<ellipse fill="none" stroke="#000000" cx="621.9133" cy="-773.4138" rx="3.2" ry="3.2"/>
</g>
<!-- global_UnitMaster&#45;&gt;cabah_depositID -->
<g id="edge14" class="edge">
<title>global_UnitMaster:w&#45;&gt;cabah_depositID:e</title>
<path fill="none" stroke="#000000" d="M447.3683,-611.6424C425.0056,-653.9096 385.3388,-709.0032 330.5,-709.0032"/>
<polygon fill="#000000" stroke="#000000" points="450.2792,-605.8759 457.0981,-600.3566 452.0818,-602.3051 453.8844,-598.7343 453.8844,-598.7343 453.8844,-598.7343 452.0818,-602.3051 450.6707,-597.1119 450.2792,-605.8759 450.2792,-605.8759"/>
<ellipse fill="none" stroke="#000000" cx="448.8372" cy="-608.7326" rx="3.2" ry="3.2"/>
</g>
<!-- global_RefCore -->
<g id="node8" class="node">
<title>global_RefCore</title>
<g id="a_node8"><a xlink:href="../../tables/global_RefCore.html" xlink:title="global_RefCore" target="_top">
<polygon fill="#ffffff" stroke="transparent" points="199,-210.5032 199,-271.5032 326,-271.5032 326,-210.5032 199,-210.5032"/>
<polygon fill="#f5f5f5" stroke="transparent" points="199.5,-248.0032 199.5,-271.0032 326.5,-271.0032 326.5,-248.0032 199.5,-248.0032"/>
<polygon fill="none" stroke="#000000" points="199.5,-248.0032 199.5,-271.0032 326.5,-271.0032 326.5,-248.0032 199.5,-248.0032"/>
<text text-anchor="start" x="204.5" y="-256.6032" font-family="Helvetica,sans-Serif" font-weight="bold" font-size="11.00" fill="#000000">global_RefCore</text>
<text text-anchor="start" x="292.0219" y="-256.1032" font-family="Helvetica,sans-Serif" font-size="11.00" fill="#000000">[table]</text>
<polygon fill="none" stroke="#000000" points="199.5,-229.0032 199.5,-248.0032 326.5,-248.0032 326.5,-229.0032 199.5,-229.0032"/>
<text text-anchor="start" x="202.5" y="-235.1032" font-family="Helvetica,sans-Serif" font-size="11.00" fill="#000000">...</text>
<polygon fill="#ffffff" stroke="transparent" points="199.5,-210.0032 199.5,-229.0032 230.5,-229.0032 230.5,-210.0032 199.5,-210.0032"/>
<polygon fill="none" stroke="#000000" points="199.5,-210.0032 199.5,-229.0032 230.5,-229.0032 230.5,-210.0032 199.5,-210.0032"/>
<text text-anchor="start" x="202.5" y="-216.1032" font-family="Helvetica,sans-Serif" font-size="11.00" fill="#000000">&lt; 5</text>
<polygon fill="#ffffff" stroke="transparent" points="230.5,-210.0032 230.5,-229.0032 294.5,-229.0032 294.5,-210.0032 230.5,-210.0032"/>
<polygon fill="none" stroke="#000000" points="230.5,-210.0032 230.5,-229.0032 294.5,-229.0032 294.5,-210.0032 230.5,-210.0032"/>
<text text-anchor="start" x="237.7089" y="-216.1032" font-family="Helvetica,sans-Serif" font-size="11.00" fill="#000000">3.958 rows</text>
<polygon fill="#ffffff" stroke="transparent" points="294.5,-210.0032 294.5,-229.0032 326.5,-229.0032 326.5,-210.0032 294.5,-210.0032"/>
<polygon fill="none" stroke="#000000" points="294.5,-210.0032 294.5,-229.0032 326.5,-229.0032 326.5,-210.0032 294.5,-210.0032"/>
<text text-anchor="start" x="301.7904" y="-216.1032" font-family="Helvetica,sans-Serif" font-size="11.00" fill="#000000">37 &gt;</text>
</a>
</g>
</g>
<!-- global_UnitMaster&#45;&gt;global_RefCore -->
<g id="edge16" class="edge">
<title>global_UnitMaster:w&#45;&gt;global_RefCore:e</title>
<path fill="none" stroke="#000000" d="M457.9143,-515.1681C436.7805,-424.2142 386.2205,-238.0032 326.5,-238.0032"/>
<polygon fill="#000000" stroke="#000000" points="459.3873,-521.6245 457.657,-530.2248 460.277,-525.5243 461.1668,-529.4241 461.1668,-529.4241 461.1668,-529.4241 460.277,-525.5243 464.6766,-528.6233 459.3873,-521.6245 459.3873,-521.6245"/>
<ellipse fill="none" stroke="#000000" cx="458.6755" cy="-518.5047" rx="3.2" ry="3.2"/>
</g>
<!-- cabah_col_mtdID -->
<g id="node12" class="node">
<title>cabah_col_mtdID</title>
<g id="a_node12"><a xlink:href="../../tables/cabah_col_mtdID.html" xlink:title="cabah_col_mtdID" target="_top">
<polygon fill="#ffffff" stroke="transparent" points="193.5,-465.5032 193.5,-526.5032 331.5,-526.5032 331.5,-465.5032 193.5,-465.5032"/>
<polygon fill="#f5f5f5" stroke="transparent" points="193.5,-503.0032 193.5,-526.0032 331.5,-526.0032 331.5,-503.0032 193.5,-503.0032"/>
<polygon fill="none" stroke="#000000" points="193.5,-503.0032 193.5,-526.0032 331.5,-526.0032 331.5,-503.0032 193.5,-503.0032"/>
<text text-anchor="start" x="198.5" y="-511.6032" font-family="Helvetica,sans-Serif" font-weight="bold" font-size="11.00" fill="#000000">cabah_col_mtdID</text>
<text text-anchor="start" x="297.0219" y="-511.1032" font-family="Helvetica,sans-Serif" font-size="11.00" fill="#000000">[table]</text>
<polygon fill="none" stroke="#000000" points="193.5,-484.0032 193.5,-503.0032 331.5,-503.0032 331.5,-484.0032 193.5,-484.0032"/>
<text text-anchor="start" x="196.5" y="-490.1032" font-family="Helvetica,sans-Serif" font-size="11.00" fill="#000000">...</text>
<polygon fill="#ffffff" stroke="transparent" points="193.5,-465.0032 193.5,-484.0032 240.5,-484.0032 240.5,-465.0032 193.5,-465.0032"/>
<polygon fill="none" stroke="#000000" points="193.5,-465.0032 193.5,-484.0032 240.5,-484.0032 240.5,-465.0032 193.5,-465.0032"/>
<text text-anchor="start" x="196.5" y="-471.1032" font-family="Helvetica,sans-Serif" font-size="11.00" fill="#000000">&lt; 1</text>
<polygon fill="#ffffff" stroke="transparent" points="240.5,-465.0032 240.5,-484.0032 297.5,-484.0032 297.5,-465.0032 240.5,-465.0032"/>
<polygon fill="none" stroke="#000000" points="240.5,-465.0032 240.5,-484.0032 297.5,-484.0032 297.5,-465.0032 240.5,-465.0032"/>
<text text-anchor="start" x="255.9956" y="-471.1032" font-family="Helvetica,sans-Serif" font-size="11.00" fill="#000000">44 rows</text>
<polygon fill="#ffffff" stroke="transparent" points="297.5,-465.0032 297.5,-484.0032 331.5,-484.0032 331.5,-465.0032 297.5,-465.0032"/>
<polygon fill="none" stroke="#000000" points="297.5,-465.0032 297.5,-484.0032 331.5,-484.0032 331.5,-465.0032 297.5,-465.0032"/>
<text text-anchor="start" x="312.9053" y="-471.1032" font-family="Helvetica,sans-Serif" font-size="11.00" fill="#000000">7 &gt;</text>
</a>
</g>
</g>
<!-- global_UnitMaster&#45;&gt;cabah_col_mtdID -->
<g id="edge13" class="edge">
<title>global_UnitMaster:w&#45;&gt;cabah_col_mtdID:e</title>
<path fill="none" stroke="#000000" d="M414.8594,-521.3512C390.7827,-506.2801 361.1563,-493.0032 331.5,-493.0032"/>
<polygon fill="#000000" stroke="#000000" points="420.2449,-524.9178 424.927,-532.3366 423.5798,-527.1265 426.9148,-529.3351 426.9148,-529.3351 426.9148,-529.3351 423.5798,-527.1265 428.9026,-526.3337 420.2449,-524.9178 420.2449,-524.9178"/>
<ellipse fill="none" stroke="#000000" cx="417.5769" cy="-523.1509" rx="3.2" ry="3.2"/>
</g>
<!-- global_SiteMaster -->
<g id="node13" class="node">
<title>global_SiteMaster</title>
<g id="a_node13"><a xlink:href="../../tables/global_SiteMaster.html" xlink:title="global_SiteMaster" target="_top">
<polygon fill="#ffffff" stroke="transparent" points="192,-128.5032 192,-189.5032 333,-189.5032 333,-128.5032 192,-128.5032"/>
<polygon fill="#f5f5f5" stroke="transparent" points="192.5,-166.0032 192.5,-189.0032 333.5,-189.0032 333.5,-166.0032 192.5,-166.0032"/>
<polygon fill="none" stroke="#000000" points="192.5,-166.0032 192.5,-189.0032 333.5,-189.0032 333.5,-166.0032 192.5,-166.0032"/>
<text text-anchor="start" x="197.5" y="-174.6032" font-family="Helvetica,sans-Serif" font-weight="bold" font-size="11.00" fill="#000000">global_SiteMaster</text>
<text text-anchor="start" x="299.0219" y="-174.1032" font-family="Helvetica,sans-Serif" font-size="11.00" fill="#000000">[table]</text>
<polygon fill="none" stroke="#000000" points="192.5,-147.0032 192.5,-166.0032 333.5,-166.0032 333.5,-147.0032 192.5,-147.0032"/>
<text text-anchor="start" x="195.5" y="-153.1032" font-family="Helvetica,sans-Serif" font-size="11.00" fill="#000000">...</text>
<polygon fill="#ffffff" stroke="transparent" points="192.5,-128.0032 192.5,-147.0032 227.5,-147.0032 227.5,-128.0032 192.5,-128.0032"/>
<polygon fill="none" stroke="#000000" points="192.5,-128.0032 192.5,-147.0032 227.5,-147.0032 227.5,-128.0032 192.5,-128.0032"/>
<text text-anchor="start" x="195.5" y="-134.1032" font-family="Helvetica,sans-Serif" font-size="11.00" fill="#000000">&lt; 8</text>
<polygon fill="#ffffff" stroke="transparent" points="227.5,-128.0032 227.5,-147.0032 299.5,-147.0032 299.5,-128.0032 227.5,-128.0032"/>
<polygon fill="none" stroke="#000000" points="227.5,-128.0032 227.5,-147.0032 299.5,-147.0032 299.5,-128.0032 227.5,-128.0032"/>
<text text-anchor="start" x="236.594" y="-134.1032" font-family="Helvetica,sans-Serif" font-size="11.00" fill="#000000">26.209 rows</text>
<polygon fill="#ffffff" stroke="transparent" points="299.5,-128.0032 299.5,-147.0032 333.5,-147.0032 333.5,-128.0032 299.5,-128.0032"/>
<polygon fill="none" stroke="#000000" points="299.5,-128.0032 299.5,-147.0032 333.5,-147.0032 333.5,-128.0032 299.5,-128.0032"/>
<text text-anchor="start" x="308.7904" y="-134.1032" font-family="Helvetica,sans-Serif" font-size="11.00" fill="#000000">23 &gt;</text>
</a>
</g>
</g>
<!-- global_UnitMaster&#45;&gt;global_SiteMaster -->
<g id="edge15" class="edge">
<title>global_UnitMaster:w&#45;&gt;global_SiteMaster:e</title>
<path fill="none" stroke="#000000" d="M462.7763,-514.8966C448.7681,-406.4391 408.3215,-156.0032 333.5,-156.0032"/>
<polygon fill="#000000" stroke="#000000" points="463.5795,-521.2799 461.0064,-529.6668 464.0789,-525.2486 464.5783,-529.2173 464.5783,-529.2173 464.5783,-529.2173 464.0789,-525.2486 468.1501,-528.7678 463.5795,-521.2799 463.5795,-521.2799"/>
<ellipse fill="none" stroke="#000000" cx="463.1799" cy="-518.1049" rx="3.2" ry="3.2"/>
</g>
<!-- cabah_unittypeID -->
<g id="node14" class="node">
<title>cabah_unittypeID</title>
<g id="a_node14"><a xlink:href="../../tables/cabah_unittypeID.html" xlink:title="cabah_unittypeID" target="_top">
<polygon fill="#ffffff" stroke="transparent" points="193,-547.5032 193,-608.5032 332,-608.5032 332,-547.5032 193,-547.5032"/>
<polygon fill="#f5f5f5" stroke="transparent" points="193.5,-585.0032 193.5,-608.0032 332.5,-608.0032 332.5,-585.0032 193.5,-585.0032"/>
<polygon fill="none" stroke="#000000" points="193.5,-585.0032 193.5,-608.0032 332.5,-608.0032 332.5,-585.0032 193.5,-585.0032"/>
<text text-anchor="start" x="198.5" y="-593.6032" font-family="Helvetica,sans-Serif" font-weight="bold" font-size="11.00" fill="#000000">cabah_unittypeID</text>
<text text-anchor="start" x="298.0219" y="-593.1032" font-family="Helvetica,sans-Serif" font-size="11.00" fill="#000000">[table]</text>
<polygon fill="none" stroke="#000000" points="193.5,-566.0032 193.5,-585.0032 332.5,-585.0032 332.5,-566.0032 193.5,-566.0032"/>
<text text-anchor="start" x="196.5" y="-572.1032" font-family="Helvetica,sans-Serif" font-size="11.00" fill="#000000">...</text>
<polygon fill="#ffffff" stroke="transparent" points="193.5,-547.0032 193.5,-566.0032 236.5,-566.0032 236.5,-547.0032 193.5,-547.0032"/>
<polygon fill="none" stroke="#000000" points="193.5,-547.0032 193.5,-566.0032 236.5,-566.0032 236.5,-547.0032 193.5,-547.0032"/>
<text text-anchor="start" x="196.5" y="-553.1032" font-family="Helvetica,sans-Serif" font-size="11.00" fill="#000000"> &#160;</text>
<polygon fill="#ffffff" stroke="transparent" points="236.5,-547.0032 236.5,-566.0032 295.5,-566.0032 295.5,-547.0032 236.5,-547.0032"/>
<polygon fill="none" stroke="#000000" points="236.5,-547.0032 236.5,-566.0032 295.5,-566.0032 295.5,-547.0032 236.5,-547.0032"/>
<text text-anchor="start" x="253.9956" y="-553.1032" font-family="Helvetica,sans-Serif" font-size="11.00" fill="#000000">16 rows</text>
<polygon fill="#ffffff" stroke="transparent" points="295.5,-547.0032 295.5,-566.0032 332.5,-566.0032 332.5,-547.0032 295.5,-547.0032"/>
<polygon fill="none" stroke="#000000" points="295.5,-547.0032 295.5,-566.0032 332.5,-566.0032 332.5,-547.0032 295.5,-547.0032"/>
<text text-anchor="start" x="313.9053" y="-553.1032" font-family="Helvetica,sans-Serif" font-size="11.00" fill="#000000">1 &gt;</text>
</a>
</g>
</g>
<!-- global_UnitMaster&#45;&gt;cabah_unittypeID -->
<g id="edge17" class="edge">
<title>global_UnitMaster:w&#45;&gt;cabah_unittypeID:e</title>
<path fill="none" stroke="#000000" d="M374.3104,-573.6034C360.3083,-574.455 346.0374,-575.0032 332.5,-575.0032"/>
<polygon fill="#000000" stroke="#000000" points="380.7814,-573.1615 389.0082,-576.208 384.7721,-572.8889 388.7629,-572.6163 388.7629,-572.6163 388.7629,-572.6163 384.7721,-572.8889 388.5175,-569.0247 380.7814,-573.1615 380.7814,-573.1615"/>
<ellipse fill="none" stroke="#000000" cx="377.5889" cy="-573.3795" rx="3.2" ry="3.2"/>
</g>
<!-- cabah_taxaID -->
<g id="node4" class="node">
<title>cabah_taxaID</title>
<g id="a_node4"><a xlink:href="../../tables/cabah_taxaID.html" xlink:title="cabah_taxaID" target="_top">
<polygon fill="#ffffff" stroke="transparent" points="651,-967.5032 651,-1028.5032 767,-1028.5032 767,-967.5032 651,-967.5032"/>
<polygon fill="#f5f5f5" stroke="transparent" points="651,-1005.0032 651,-1028.0032 767,-1028.0032 767,-1005.0032 651,-1005.0032"/>
<polygon fill="none" stroke="#000000" points="651,-1005.0032 651,-1028.0032 767,-1028.0032 767,-1005.0032 651,-1005.0032"/>
<text text-anchor="start" x="656" y="-1013.6032" font-family="Helvetica,sans-Serif" font-weight="bold" font-size="11.00" fill="#000000">cabah_taxaID</text>
<text text-anchor="start" x="732.5219" y="-1013.1032" font-family="Helvetica,sans-Serif" font-size="11.00" fill="#000000">[table]</text>
<polygon fill="none" stroke="#000000" points="651,-986.0032 651,-1005.0032 767,-1005.0032 767,-986.0032 651,-986.0032"/>
<text text-anchor="start" x="654" y="-992.1032" font-family="Helvetica,sans-Serif" font-size="11.00" fill="#000000">...</text>
<polygon fill="#ffffff" stroke="transparent" points="651,-967.0032 651,-986.0032 676,-986.0032 676,-967.0032 651,-967.0032"/>
<polygon fill="none" stroke="#000000" points="651,-967.0032 651,-986.0032 676,-986.0032 676,-967.0032 651,-967.0032"/>
<text text-anchor="start" x="654" y="-973.1032" font-family="Helvetica,sans-Serif" font-size="11.00" fill="#000000">&lt; 3</text>
<polygon fill="#ffffff" stroke="transparent" points="676,-967.0032 676,-986.0032 743,-986.0032 743,-967.0032 676,-967.0032"/>
<polygon fill="none" stroke="#000000" points="676,-967.0032 676,-986.0032 743,-986.0032 743,-967.0032 676,-967.0032"/>
<text text-anchor="start" x="680.094" y="-973.1032" font-family="Helvetica,sans-Serif" font-size="11.00" fill="#000000">47.144 rows</text>
<polygon fill="#ffffff" stroke="transparent" points="743,-967.0032 743,-986.0032 767,-986.0032 767,-967.0032 743,-967.0032"/>
<polygon fill="none" stroke="#000000" points="743,-967.0032 743,-986.0032 767,-986.0032 767,-967.0032 743,-967.0032"/>
<text text-anchor="start" x="748.4053" y="-973.1032" font-family="Helvetica,sans-Serif" font-size="11.00" fill="#000000">3 &gt;</text>
</a>
</g>
</g>
<!-- neo_contacts -->
<g id="node5" class="node">
<title>neo_contacts</title>
<g id="a_node5"><a xlink:href="../../tables/neo_contacts.html" xlink:title="neo_contacts" target="_top">
<polygon fill="#ffffff" stroke="transparent" points="410.5,-828.5032 410.5,-977.5032 526.5,-977.5032 526.5,-828.5032 410.5,-828.5032"/>
<polygon fill="#f5f5f5" stroke="transparent" points="410.5,-954.0032 410.5,-977.0032 526.5,-977.0032 526.5,-954.0032 410.5,-954.0032"/>
<polygon fill="none" stroke="#000000" points="410.5,-954.0032 410.5,-977.0032 526.5,-977.0032 526.5,-954.0032 410.5,-954.0032"/>
<text text-anchor="start" x="415.5" y="-962.6032" font-family="Helvetica,sans-Serif" font-weight="bold" font-size="11.00" fill="#000000">neo_contacts</text>
<text text-anchor="start" x="492.0219" y="-962.1032" font-family="Helvetica,sans-Serif" font-size="11.00" fill="#000000">[table]</text>
<polygon fill="none" stroke="#000000" points="410.5,-932.0032 410.5,-954.0032 526.5,-954.0032 526.5,-932.0032 410.5,-932.0032"/>
<image xlink:href="../../images/primaryKeys.png" width="11px" height="12px" preserveAspectRatio="xMinYMin meet" x="415.5" y="-949.003"/>
<text text-anchor="start" x="435.5" y="-939.1032" font-family="Helvetica,sans-Serif" font-size="11.00" fill="#000000">CONTACTID</text>
<polygon fill="none" stroke="#000000" points="410.5,-910.0032 410.5,-932.0032 526.5,-932.0032 526.5,-910.0032 410.5,-910.0032"/>
<image xlink:href="../../images/foreignKeys.png" width="11px" height="12px" preserveAspectRatio="xMinYMin meet" x="415.5" y="-927.003"/>
<text text-anchor="start" x="435.5" y="-917.1032" font-family="Helvetica,sans-Serif" font-size="11.00" fill="#000000">ALIASID</text>
<polygon fill="none" stroke="#000000" points="410.5,-888.0032 410.5,-910.0032 526.5,-910.0032 526.5,-888.0032 410.5,-888.0032"/>
<image xlink:href="../../images/foreignKeys.png" width="11px" height="12px" preserveAspectRatio="xMinYMin meet" x="415.5" y="-905.003"/>
<text text-anchor="start" x="435.5" y="-895.1032" font-family="Helvetica,sans-Serif" font-size="11.00" fill="#000000">CSTATUSID</text>
<polygon fill="none" stroke="#000000" points="410.5,-866.0032 410.5,-888.0032 526.5,-888.0032 526.5,-866.0032 410.5,-866.0032"/>
<image xlink:href="../../images/foreignKeys.png" width="11px" height="12px" preserveAspectRatio="xMinYMin meet" x="415.5" y="-883.003"/>
<text text-anchor="start" x="435.5" y="-873.1032" font-family="Helvetica,sans-Serif" font-size="11.00" fill="#000000">OAID</text>
<polygon fill="none" stroke="#000000" points="410.5,-847.0032 410.5,-866.0032 526.5,-866.0032 526.5,-847.0032 410.5,-847.0032"/>
<text text-anchor="start" x="413.5" y="-853.1032" font-family="Helvetica,sans-Serif" font-size="11.00" fill="#000000">...</text>
<polygon fill="#ffffff" stroke="transparent" points="410.5,-828.0032 410.5,-847.0032 435.5,-847.0032 435.5,-828.0032 410.5,-828.0032"/>
<polygon fill="none" stroke="#000000" points="410.5,-828.0032 410.5,-847.0032 435.5,-847.0032 435.5,-828.0032 410.5,-828.0032"/>
<text text-anchor="start" x="413.5" y="-834.1032" font-family="Helvetica,sans-Serif" font-size="11.00" fill="#000000">&lt; 3</text>
<polygon fill="#ffffff" stroke="transparent" points="435.5,-828.0032 435.5,-847.0032 502.5,-847.0032 502.5,-828.0032 435.5,-828.0032"/>
<polygon fill="none" stroke="#000000" points="435.5,-828.0032 435.5,-847.0032 502.5,-847.0032 502.5,-828.0032 435.5,-828.0032"/>
<text text-anchor="start" x="439.594" y="-834.1032" font-family="Helvetica,sans-Serif" font-size="11.00" fill="#000000">13.396 rows</text>
<polygon fill="#ffffff" stroke="transparent" points="502.5,-828.0032 502.5,-847.0032 526.5,-847.0032 526.5,-828.0032 502.5,-828.0032"/>
<polygon fill="none" stroke="#000000" points="502.5,-828.0032 502.5,-847.0032 526.5,-847.0032 526.5,-828.0032 502.5,-828.0032"/>
<text text-anchor="start" x="507.9053" y="-834.1032" font-family="Helvetica,sans-Serif" font-size="11.00" fill="#000000">3 &gt;</text>
</a>
</g>
</g>
<!-- cabah_taxaID&#45;&gt;neo_contacts -->
<g id="edge4" class="edge">
<title>cabah_taxaID:w&#45;&gt;neo_contacts:e</title>
<path fill="none" stroke="#000000" d="M636.3973,-993.8687C589.8032,-986.2642 581.1954,-943.0032 526.5,-943.0032"/>
<polygon fill="#000000" stroke="#000000" points="643.024,-994.3835 650.7211,-998.5923 647.012,-994.6933 651,-995.0032 651,-995.0032 651,-995.0032 647.012,-994.6933 651.2789,-991.414 643.024,-994.3835 643.024,-994.3835"/>
<ellipse fill="none" stroke="#000000" cx="639.8336" cy="-994.1356" rx="3.2" ry="3.2"/>
</g>
<!-- global_Author -->
<g id="node11" class="node">
<title>global_Author</title>
<g id="a_node11"><a xlink:href="../../tables/global_Author.html" xlink:title="global_Author" target="_top">
<polygon fill="#ffffff" stroke="transparent" points="8,-210.5032 8,-271.5032 128,-271.5032 128,-210.5032 8,-210.5032"/>
<polygon fill="#f5f5f5" stroke="transparent" points="8,-248.0032 8,-271.0032 128,-271.0032 128,-248.0032 8,-248.0032"/>
<polygon fill="none" stroke="#000000" points="8,-248.0032 8,-271.0032 128,-271.0032 128,-248.0032 8,-248.0032"/>
<text text-anchor="start" x="13" y="-256.6032" font-family="Helvetica,sans-Serif" font-weight="bold" font-size="11.00" fill="#000000">global_Author</text>
<text text-anchor="start" x="93.5219" y="-256.1032" font-family="Helvetica,sans-Serif" font-size="11.00" fill="#000000">[table]</text>
<polygon fill="none" stroke="#000000" points="8,-229.0032 8,-248.0032 128,-248.0032 128,-229.0032 8,-229.0032"/>
<text text-anchor="start" x="11" y="-235.1032" font-family="Helvetica,sans-Serif" font-size="11.00" fill="#000000">...</text>
<polygon fill="#ffffff" stroke="transparent" points="8,-210.0032 8,-229.0032 34,-229.0032 34,-210.0032 8,-210.0032"/>
<polygon fill="none" stroke="#000000" points="8,-210.0032 8,-229.0032 34,-229.0032 34,-210.0032 8,-210.0032"/>
<text text-anchor="start" x="11" y="-216.1032" font-family="Helvetica,sans-Serif" font-size="11.00" fill="#000000"> &#160;</text>
<polygon fill="#ffffff" stroke="transparent" points="34,-210.0032 34,-229.0032 100,-229.0032 100,-210.0032 34,-210.0032"/>
<polygon fill="none" stroke="#000000" points="34,-210.0032 34,-229.0032 100,-229.0032 100,-210.0032 34,-210.0032"/>
<text text-anchor="start" x="43.2089" y="-216.1032" font-family="Helvetica,sans-Serif" font-size="11.00" fill="#000000">1.737 rows</text>
<polygon fill="#ffffff" stroke="transparent" points="100,-210.0032 100,-229.0032 128,-229.0032 128,-210.0032 100,-210.0032"/>
<polygon fill="none" stroke="#000000" points="100,-210.0032 100,-229.0032 128,-229.0032 128,-210.0032 100,-210.0032"/>
<text text-anchor="start" x="109.4053" y="-216.1032" font-family="Helvetica,sans-Serif" font-size="11.00" fill="#000000">8 &gt;</text>
</a>
</g>
</g>
<!-- neo_contacts&#45;&gt;global_Author -->
<g id="edge40" class="edge">
<title>neo_contacts:w&#45;&gt;global_Author:e</title>
<path fill="none" stroke="#000000" d="M396.326,-872.8861C344.7229,-857.4975 169.9353,-804.1765 169,-803.0032 129.768,-753.7827 190.9429,-238.0032 128,-238.0032"/>
<polygon fill="#000000" stroke="#000000" points="402.8175,-874.7716 409.4958,-880.4603 406.6588,-875.8874 410.5,-877.0032 410.5,-877.0032 410.5,-877.0032 406.6588,-875.8874 411.5042,-873.546 402.8175,-874.7716 402.8175,-874.7716"/>
<ellipse fill="none" stroke="#000000" cx="399.7445" cy="-873.879" rx="3.2" ry="3.2"/>
</g>
<!-- global_contactstatusID -->
<g id="node21" class="node">
<title>global_contactstatusID</title>
<g id="a_node21"><a xlink:href="../../tables/global_contactstatusID.html" xlink:title="global_contactstatusID" target="_top">
<polygon fill="#ffffff" stroke="transparent" points="177,-871.5032 177,-932.5032 348,-932.5032 348,-871.5032 177,-871.5032"/>
<polygon fill="#f5f5f5" stroke="transparent" points="177.5,-909.0032 177.5,-932.0032 348.5,-932.0032 348.5,-909.0032 177.5,-909.0032"/>
<polygon fill="none" stroke="#000000" points="177.5,-909.0032 177.5,-932.0032 348.5,-932.0032 348.5,-909.0032 177.5,-909.0032"/>
<text text-anchor="start" x="182.5" y="-917.6032" font-family="Helvetica,sans-Serif" font-weight="bold" font-size="11.00" fill="#000000">global_contactstatusID</text>
<text text-anchor="start" x="314.0219" y="-917.1032" font-family="Helvetica,sans-Serif" font-size="11.00" fill="#000000">[table]</text>
<polygon fill="none" stroke="#000000" points="177.5,-890.0032 177.5,-909.0032 348.5,-909.0032 348.5,-890.0032 177.5,-890.0032"/>
<text text-anchor="start" x="180.5" y="-896.1032" font-family="Helvetica,sans-Serif" font-size="11.00" fill="#000000">...</text>
<polygon fill="#ffffff" stroke="transparent" points="177.5,-871.0032 177.5,-890.0032 239.5,-890.0032 239.5,-871.0032 177.5,-871.0032"/>
<polygon fill="none" stroke="#000000" points="177.5,-871.0032 177.5,-890.0032 239.5,-890.0032 239.5,-871.0032 177.5,-871.0032"/>
<text text-anchor="start" x="180.5" y="-877.1032" font-family="Helvetica,sans-Serif" font-size="11.00" fill="#000000"> &#160;</text>
<polygon fill="#ffffff" stroke="transparent" points="239.5,-871.0032 239.5,-890.0032 302.5,-890.0032 302.5,-871.0032 239.5,-871.0032"/>
<polygon fill="none" stroke="#000000" points="239.5,-871.0032 239.5,-890.0032 302.5,-890.0032 302.5,-871.0032 239.5,-871.0032"/>
<text text-anchor="start" x="267.1105" y="-877.1032" font-family="Helvetica,sans-Serif" font-size="11.00" fill="#000000">7 rows</text>
<polygon fill="#ffffff" stroke="transparent" points="302.5,-871.0032 302.5,-890.0032 348.5,-890.0032 348.5,-871.0032 302.5,-871.0032"/>
<polygon fill="none" stroke="#000000" points="302.5,-871.0032 302.5,-890.0032 348.5,-890.0032 348.5,-871.0032 302.5,-871.0032"/>
<text text-anchor="start" x="329.9053" y="-877.1032" font-family="Helvetica,sans-Serif" font-size="11.00" fill="#000000">1 &gt;</text>
</a>
</g>
</g>
<!-- neo_contacts&#45;&gt;global_contactstatusID -->
<g id="edge39" class="edge">
<title>neo_contacts:w&#45;&gt;global_contactstatusID:e</title>
<path fill="none" stroke="#000000" d="M395.92,-899.0032C379.2931,-899.0032 370.4583,-899.0032 348.5,-899.0032"/>
<polygon fill="#000000" stroke="#000000" points="402.5,-899.0032 410.5,-902.6032 406.5,-899.0032 410.5,-899.0032 410.5,-899.0032 410.5,-899.0032 406.5,-899.0032 410.5,-895.4032 402.5,-899.0032 402.5,-899.0032"/>
<ellipse fill="none" stroke="#000000" cx="399.3" cy="-899.0032" rx="3.2" ry="3.2"/>
</g>
<!-- char_DataCore -->
<g id="node6" class="node">
<title>char_DataCore</title>
<g id="a_node6"><a xlink:href="../../tables/char_DataCore.html" xlink:title="char_DataCore" target="_top">
<polygon fill="#ffffff" stroke="transparent" points="926,-215.5032 926,-276.5032 1050,-276.5032 1050,-215.5032 926,-215.5032"/>
<polygon fill="#f5f5f5" stroke="transparent" points="926,-253.0032 926,-276.0032 1050,-276.0032 1050,-253.0032 926,-253.0032"/>
<polygon fill="none" stroke="#000000" points="926,-253.0032 926,-276.0032 1050,-276.0032 1050,-253.0032 926,-253.0032"/>
<text text-anchor="start" x="931" y="-261.6032" font-family="Helvetica,sans-Serif" font-weight="bold" font-size="11.00" fill="#000000">char_DataCore</text>
<text text-anchor="start" x="1015.5219" y="-261.1032" font-family="Helvetica,sans-Serif" font-size="11.00" fill="#000000">[table]</text>
<polygon fill="none" stroke="#000000" points="926,-234.0032 926,-253.0032 1050,-253.0032 1050,-234.0032 926,-234.0032"/>
<text text-anchor="start" x="929" y="-240.1032" font-family="Helvetica,sans-Serif" font-size="11.00" fill="#000000">...</text>
<polygon fill="#ffffff" stroke="transparent" points="926,-215.0032 926,-234.0032 958,-234.0032 958,-215.0032 926,-215.0032"/>
<polygon fill="none" stroke="#000000" points="926,-215.0032 926,-234.0032 958,-234.0032 958,-215.0032 926,-215.0032"/>
<text text-anchor="start" x="929" y="-221.1032" font-family="Helvetica,sans-Serif" font-size="11.00" fill="#000000">&lt; 15</text>
<polygon fill="#ffffff" stroke="transparent" points="958,-215.0032 958,-234.0032 1026,-234.0032 1026,-215.0032 958,-215.0032"/>
<polygon fill="none" stroke="#000000" points="958,-215.0032 958,-234.0032 1026,-234.0032 1026,-215.0032 958,-215.0032"/>
<text text-anchor="start" x="963.094" y="-221.1032" font-family="Helvetica,sans-Serif" font-size="11.00" fill="#000000">48.234 rows</text>
<polygon fill="#ffffff" stroke="transparent" points="1026,-215.0032 1026,-234.0032 1050,-234.0032 1050,-215.0032 1026,-215.0032"/>
<polygon fill="none" stroke="#000000" points="1026,-215.0032 1026,-234.0032 1050,-234.0032 1050,-215.0032 1026,-215.0032"/>
<text text-anchor="start" x="1031.4053" y="-221.1032" font-family="Helvetica,sans-Serif" font-size="11.00" fill="#000000">1 &gt;</text>
</a>
</g>
</g>
<!-- cabah_agetypeID -->
<g id="node7" class="node">
<title>cabah_agetypeID</title>
<g id="a_node7"><a xlink:href="../../tables/cabah_agetypeID.html" xlink:title="cabah_agetypeID" target="_top">
<polygon fill="#ffffff" stroke="transparent" points="640.5,-375.5032 640.5,-480.5032 777.5,-480.5032 777.5,-375.5032 640.5,-375.5032"/>
<polygon fill="#f5f5f5" stroke="transparent" points="641,-457.0032 641,-480.0032 778,-480.0032 778,-457.0032 641,-457.0032"/>
<polygon fill="none" stroke="#000000" points="641,-457.0032 641,-480.0032 778,-480.0032 778,-457.0032 641,-457.0032"/>
<text text-anchor="start" x="646" y="-465.6032" font-family="Helvetica,sans-Serif" font-weight="bold" font-size="11.00" fill="#000000">cabah_agetypeID</text>
<text text-anchor="start" x="743.5219" y="-465.1032" font-family="Helvetica,sans-Serif" font-size="11.00" fill="#000000">[table]</text>
<polygon fill="none" stroke="#000000" points="641,-435.0032 641,-457.0032 778,-457.0032 778,-435.0032 641,-435.0032"/>
<image xlink:href="../../images/primaryKeys.png" width="11px" height="12px" preserveAspectRatio="xMinYMin meet" x="646" y="-452.003"/>
<text text-anchor="start" x="670" y="-442.1032" font-family="Helvetica,sans-Serif" font-size="11.00" fill="#000000">AGETYPEID</text>
<polygon fill="#ffffff" stroke="transparent" points="641,-413.0032 641,-435.0032 778,-435.0032 778,-413.0032 641,-413.0032"/>
<polygon fill="none" stroke="#000000" points="641,-413.0032 641,-435.0032 778,-435.0032 778,-413.0032 641,-413.0032"/>
<text text-anchor="start" x="670" y="-420.1032" font-family="Helvetica,sans-Serif" font-size="11.00" fill="#000000">AGETYPE</text>
<polygon fill="none" stroke="#000000" points="641,-394.0032 641,-413.0032 778,-413.0032 778,-394.0032 641,-394.0032"/>
<text text-anchor="start" x="644" y="-400.1032" font-family="Helvetica,sans-Serif" font-size="11.00" fill="#000000">...</text>
<polygon fill="#ffffff" stroke="transparent" points="641,-375.0032 641,-394.0032 683,-394.0032 683,-375.0032 641,-375.0032"/>
<polygon fill="none" stroke="#000000" points="641,-375.0032 641,-394.0032 683,-394.0032 683,-375.0032 641,-375.0032"/>
<text text-anchor="start" x="644" y="-381.1032" font-family="Helvetica,sans-Serif" font-size="11.00" fill="#000000"> &#160;</text>
<polygon fill="#ffffff" stroke="transparent" points="683,-375.0032 683,-394.0032 742,-394.0032 742,-375.0032 683,-375.0032"/>
<polygon fill="none" stroke="#000000" points="683,-375.0032 683,-394.0032 742,-394.0032 742,-375.0032 683,-375.0032"/>
<text text-anchor="start" x="700.4956" y="-381.1032" font-family="Helvetica,sans-Serif" font-size="11.00" fill="#000000">11 rows</text>
<polygon fill="#ffffff" stroke="transparent" points="742,-375.0032 742,-394.0032 778,-394.0032 778,-375.0032 742,-375.0032"/>
<polygon fill="none" stroke="#000000" points="742,-375.0032 742,-394.0032 778,-394.0032 778,-375.0032 742,-375.0032"/>
<text text-anchor="start" x="759.4053" y="-381.1032" font-family="Helvetica,sans-Serif" font-size="11.00" fill="#000000">2 &gt;</text>
</a>
</g>
</g>
<!-- char_DataCore&#45;&gt;cabah_agetypeID -->
<g id="edge5" class="edge">
<title>char_DataCore:w&#45;&gt;cabah_agetypeID:e</title>
<path fill="none" stroke="#000000" d="M911.4925,-244.2995C820.9948,-261.5884 884.4209,-446.0032 778,-446.0032"/>
<polygon fill="#000000" stroke="#000000" points="918.0317,-243.7152 926.3204,-246.5889 922.0159,-243.3592 926,-243.0032 926,-243.0032 926,-243.0032 922.0159,-243.3592 925.6796,-239.4174 918.0317,-243.7152 918.0317,-243.7152"/>
<ellipse fill="none" stroke="#000000" cx="914.8444" cy="-244" rx="3.2" ry="3.2"/>
</g>
<!-- char_DataCore&#45;&gt;global_RefCore -->
<g id="edge6" class="edge">
<title>char_DataCore:w&#45;&gt;global_RefCore:e</title>
<path fill="none" stroke="#000000" d="M911.372,-242.9981C657.0063,-242.8193 588.0097,-238.0032 326.5,-238.0032"/>
<polygon fill="#000000" stroke="#000000" points="918,-243.0003 925.9987,-246.6032 922,-243.0017 926,-243.0032 926,-243.0032 926,-243.0032 922,-243.0017 926.0013,-239.4032 918,-243.0003 918,-243.0003"/>
<ellipse fill="none" stroke="#000000" cx="914.8" cy="-242.9992" rx="3.2" ry="3.2"/>
</g>
<!-- char_DataCore&#45;&gt;global_RefCore -->
<g id="edge7" class="edge">
<title>char_DataCore:w&#45;&gt;global_RefCore:e</title>
<path fill="none" stroke="#000000" d="M911.372,-242.6703C657.0063,-236.8214 588.0097,-232.1145 326.5,-238.0032"/>
<polygon fill="#000000" stroke="#000000" points="918.0021,-242.8211 925.9181,-246.6022 922.001,-242.9121 926,-243.0032 926,-243.0032 926,-243.0032 922.001,-242.9121 926.0819,-239.4041 918.0021,-242.8211 918.0021,-242.8211"/>
<ellipse fill="none" stroke="#000000" cx="914.8029" cy="-242.7483" rx="3.2" ry="3.2"/>
</g>
<!-- char_DataCore&#45;&gt;global_RefCore -->
<g id="edge8" class="edge">
<title>char_DataCore:w&#45;&gt;global_RefCore:e</title>
<path fill="none" stroke="#000000" d="M911.372,-243.3805C657.0063,-249.8169 588.0097,-244.8733 326.5,-238.0032"/>
<polygon fill="#000000" stroke="#000000" points="918.0027,-243.2095 926.0929,-246.602 922.0013,-243.1063 926,-243.0032 926,-243.0032 926,-243.0032 922.0013,-243.1063 925.9071,-239.4043 918.0027,-243.2095 918.0027,-243.2095"/>
<ellipse fill="none" stroke="#000000" cx="914.8037" cy="-243.292" rx="3.2" ry="3.2"/>
</g>
<!-- char_Sample -->
<g id="node9" class="node">
<title>char_Sample</title>
<g id="a_node9"><a xlink:href="../../tables/char_Sample.html" xlink:title="char_Sample" target="_top">
<polygon fill="#ffffff" stroke="transparent" points="652.5,-293.5032 652.5,-354.5032 765.5,-354.5032 765.5,-293.5032 652.5,-293.5032"/>
<polygon fill="#f5f5f5" stroke="transparent" points="653,-331.0032 653,-354.0032 766,-354.0032 766,-331.0032 653,-331.0032"/>
<polygon fill="none" stroke="#000000" points="653,-331.0032 653,-354.0032 766,-354.0032 766,-331.0032 653,-331.0032"/>
<text text-anchor="start" x="658" y="-339.6032" font-family="Helvetica,sans-Serif" font-weight="bold" font-size="11.00" fill="#000000">char_Sample</text>
<text text-anchor="start" x="731.5219" y="-339.1032" font-family="Helvetica,sans-Serif" font-size="11.00" fill="#000000">[table]</text>
<polygon fill="none" stroke="#000000" points="653,-312.0032 653,-331.0032 766,-331.0032 766,-312.0032 653,-312.0032"/>
<text text-anchor="start" x="656" y="-318.1032" font-family="Helvetica,sans-Serif" font-size="11.00" fill="#000000">...</text>
<polygon fill="#ffffff" stroke="transparent" points="653,-293.0032 653,-312.0032 677,-312.0032 677,-293.0032 653,-293.0032"/>
<polygon fill="none" stroke="#000000" points="653,-293.0032 653,-312.0032 677,-312.0032 677,-293.0032 653,-293.0032"/>
<text text-anchor="start" x="656" y="-299.1032" font-family="Helvetica,sans-Serif" font-size="11.00" fill="#000000">&lt; 1</text>
<polygon fill="#ffffff" stroke="transparent" points="677,-293.0032 677,-312.0032 743,-312.0032 743,-293.0032 677,-293.0032"/>
<polygon fill="none" stroke="#000000" points="677,-293.0032 677,-312.0032 743,-312.0032 743,-293.0032 677,-293.0032"/>
<text text-anchor="start" x="680.094" y="-299.1032" font-family="Helvetica,sans-Serif" font-size="11.00" fill="#000000">41.793 rows</text>
<polygon fill="#ffffff" stroke="transparent" points="743,-293.0032 743,-312.0032 766,-312.0032 766,-293.0032 743,-293.0032"/>
<polygon fill="none" stroke="#000000" points="743,-293.0032 743,-312.0032 766,-312.0032 766,-293.0032 743,-293.0032"/>
<text text-anchor="start" x="747.4053" y="-299.1032" font-family="Helvetica,sans-Serif" font-size="11.00" fill="#000000">2 &gt;</text>
</a>
</g>
</g>
<!-- char_DataCore&#45;&gt;char_Sample -->
<g id="edge9" class="edge">
<title>char_DataCore:w&#45;&gt;char_Sample:e</title>
<path fill="none" stroke="#000000" d="M911.6255,-243.9335C846.3385,-252.7338 840.0122,-321.0032 766,-321.0032"/>
<polygon fill="#000000" stroke="#000000" points="918.0167,-243.5199 926.2325,-246.5956 922.0084,-243.2615 926,-243.0032 926,-243.0032 926,-243.0032 922.0084,-243.2615 925.7675,-239.4107 918.0167,-243.5199 918.0167,-243.5199"/>
<ellipse fill="none" stroke="#000000" cx="914.8234" cy="-243.7266" rx="3.2" ry="3.2"/>
</g>
<!-- global_RefCore&#45;&gt;global_Author -->
<g id="edge12" class="edge">
<title>global_RefCore:w&#45;&gt;global_Author:e</title>
<path fill="none" stroke="#000000" d="M184.9847,-238.0032C164.2873,-238.0032 154.316,-238.0032 128,-238.0032"/>
<polygon fill="#000000" stroke="#000000" points="191.5,-238.0032 199.5,-241.6032 195.5,-238.0032 199.5,-238.0032 199.5,-238.0032 199.5,-238.0032 195.5,-238.0032 199.5,-234.4032 191.5,-238.0032 191.5,-238.0032"/>
<ellipse fill="none" stroke="#000000" cx="188.3" cy="-238.0032" rx="3.2" ry="3.2"/>
</g>
<!-- char_Sample&#45;&gt;global_UnitMaster -->
<g id="edge10" class="edge">
<title>char_Sample:w&#45;&gt;global_UnitMaster:e</title>
<path fill="none" stroke="#000000" d="M638.4977,-321.9505C544.5828,-334.3611 495.6652,-465.5675 477.266,-529.4452"/>
<polygon fill="#000000" stroke="#000000" points="645.017,-321.5247 653.2347,-324.5955 649.0085,-321.2639 653,-321.0032 653,-321.0032 653,-321.0032 649.0085,-321.2639 652.7653,-317.4108 645.017,-321.5247 645.017,-321.5247"/>
<ellipse fill="none" stroke="#000000" cx="641.8238" cy="-321.7333" rx="3.2" ry="3.2"/>
</g>
<!-- global_DataSetMaster -->
<g id="node10" class="node">
<title>global_DataSetMaster</title>
<g id="a_node10"><a xlink:href="../../tables/global_DataSetMaster.html" xlink:title="global_DataSetMaster" target="_top">
<polygon fill="#ffffff" stroke="transparent" points="627,-583.5032 627,-644.5032 791,-644.5032 791,-583.5032 627,-583.5032"/>
<polygon fill="#f5f5f5" stroke="transparent" points="627,-621.0032 627,-644.0032 791,-644.0032 791,-621.0032 627,-621.0032"/>
<polygon fill="none" stroke="#000000" points="627,-621.0032 627,-644.0032 791,-644.0032 791,-621.0032 627,-621.0032"/>
<text text-anchor="start" x="632" y="-629.6032" font-family="Helvetica,sans-Serif" font-weight="bold" font-size="11.00" fill="#000000">global_DataSetMaster</text>
<text text-anchor="start" x="756.5219" y="-629.1032" font-family="Helvetica,sans-Serif" font-size="11.00" fill="#000000">[table]</text>
<polygon fill="none" stroke="#000000" points="627,-602.0032 627,-621.0032 791,-621.0032 791,-602.0032 627,-602.0032"/>
<text text-anchor="start" x="630" y="-608.1032" font-family="Helvetica,sans-Serif" font-size="11.00" fill="#000000">...</text>
<polygon fill="#ffffff" stroke="transparent" points="627,-583.0032 627,-602.0032 684,-602.0032 684,-583.0032 627,-583.0032"/>
<polygon fill="none" stroke="#000000" points="627,-583.0032 627,-602.0032 684,-602.0032 684,-583.0032 627,-583.0032"/>
<text text-anchor="start" x="630" y="-589.1032" font-family="Helvetica,sans-Serif" font-size="11.00" fill="#000000">&lt; 3</text>
<polygon fill="#ffffff" stroke="transparent" points="684,-583.0032 684,-602.0032 752,-602.0032 752,-583.0032 684,-583.0032"/>
<polygon fill="none" stroke="#000000" points="684,-583.0032 684,-602.0032 752,-602.0032 752,-583.0032 684,-583.0032"/>
<text text-anchor="start" x="704.3807" y="-589.1032" font-family="Helvetica,sans-Serif" font-size="11.00" fill="#000000">311 rows</text>
<polygon fill="#ffffff" stroke="transparent" points="752,-583.0032 752,-602.0032 791,-602.0032 791,-583.0032 752,-583.0032"/>
<polygon fill="none" stroke="#000000" points="752,-583.0032 752,-602.0032 791,-602.0032 791,-583.0032 752,-583.0032"/>
<text text-anchor="start" x="772.4053" y="-589.1032" font-family="Helvetica,sans-Serif" font-size="11.00" fill="#000000">5 &gt;</text>
</a>
</g>
</g>
<!-- global_DataSetMaster&#45;&gt;global_UnitMaster -->
<g id="edge11" class="edge">
<title>global_DataSetMaster:w&#45;&gt;global_UnitMaster:e</title>
<path fill="none" stroke="#000000" d="M612.4135,-610.4226C590.6521,-608.7407 568.4471,-603.5822 548.1979,-597.2825"/>
<polygon fill="#000000" stroke="#000000" points="619.0063,-610.6849 626.8568,-614.6003 623.0032,-610.844 627,-611.0032 627,-611.0032 627,-611.0032 623.0032,-610.844 627.1432,-607.406 619.0063,-610.6849 619.0063,-610.6849"/>
<ellipse fill="none" stroke="#000000" cx="615.8089" cy="-610.5576" rx="3.2" ry="3.2"/>
</g>
<!-- ippd_baseline_pollen -->
<g id="node15" class="node">
<title>ippd_baseline_pollen</title>
<g id="a_node15"><a xlink:href="../../tables/ippd_baseline_pollen.html" xlink:title="ippd_baseline_pollen" target="_top">
<polygon fill="#ffffff" stroke="transparent" points="1335,-721.5032 1335,-782.5032 1496,-782.5032 1496,-721.5032 1335,-721.5032"/>
<polygon fill="#f5f5f5" stroke="transparent" points="1335.5,-759.0032 1335.5,-782.0032 1496.5,-782.0032 1496.5,-759.0032 1335.5,-759.0032"/>
<polygon fill="none" stroke="#000000" points="1335.5,-759.0032 1335.5,-782.0032 1496.5,-782.0032 1496.5,-759.0032 1335.5,-759.0032"/>
<text text-anchor="start" x="1340.5" y="-767.6032" font-family="Helvetica,sans-Serif" font-weight="bold" font-size="11.00" fill="#000000">ippd_baseline_pollen</text>
<text text-anchor="start" x="1462.0219" y="-767.1032" font-family="Helvetica,sans-Serif" font-size="11.00" fill="#000000">[table]</text>
<polygon fill="none" stroke="#000000" points="1335.5,-740.0032 1335.5,-759.0032 1496.5,-759.0032 1496.5,-740.0032 1335.5,-740.0032"/>
<text text-anchor="start" x="1338.5" y="-746.1032" font-family="Helvetica,sans-Serif" font-size="11.00" fill="#000000">...</text>
<polygon fill="#ffffff" stroke="transparent" points="1335.5,-721.0032 1335.5,-740.0032 1384.5,-740.0032 1384.5,-721.0032 1335.5,-721.0032"/>
<polygon fill="none" stroke="#000000" points="1335.5,-721.0032 1335.5,-740.0032 1384.5,-740.0032 1384.5,-721.0032 1335.5,-721.0032"/>
<text text-anchor="start" x="1338.5" y="-727.1032" font-family="Helvetica,sans-Serif" font-size="11.00" fill="#000000">&lt; 5</text>
<polygon fill="#ffffff" stroke="transparent" points="1384.5,-721.0032 1384.5,-740.0032 1470.5,-740.0032 1470.5,-721.0032 1384.5,-721.0032"/>
<polygon fill="none" stroke="#000000" points="1384.5,-721.0032 1384.5,-740.0032 1470.5,-740.0032 1470.5,-721.0032 1384.5,-721.0032"/>
<text text-anchor="start" x="1401.4791" y="-727.1032" font-family="Helvetica,sans-Serif" font-size="11.00" fill="#000000">155.952 rows</text>
<polygon fill="#ffffff" stroke="transparent" points="1470.5,-721.0032 1470.5,-740.0032 1496.5,-740.0032 1496.5,-721.0032 1470.5,-721.0032"/>
<polygon fill="none" stroke="#000000" points="1470.5,-721.0032 1470.5,-740.0032 1496.5,-740.0032 1496.5,-721.0032 1470.5,-721.0032"/>
<text text-anchor="start" x="1487.3862" y="-727.1032" font-family="Helvetica,sans-Serif" font-size="11.00" fill="#000000"> &#160;</text>
</a>
</g>
</g>
<!-- ippd_baseline_pollen&#45;&gt;global_UnitMaster -->
<g id="edge22" class="edge">
<title>ippd_baseline_pollen:w&#45;&gt;global_UnitMaster:e</title>
<path fill="none" stroke="#000000" stroke-dasharray="5,2" d="M1373.5017,-796.7862C1351.8902,-816.5576 1323.8429,-837.6361 1294,-848.0032 1115.9906,-909.8413 1058.2089,-857.4225 870,-848.0032 837.768,-846.39 604.3934,-841.235 581,-819.0032 510.2862,-751.8005 606.0951,-680.3715 548,-602.0032 547.1801,-600.8971 546.3196,-599.8219 545.4223,-598.7767"/>
<polygon fill="#000000" stroke="#000000" points="1378.3921,-792.1401 1386.6715,-789.2399 1381.292,-789.385 1384.1919,-786.6299 1384.1919,-786.6299 1384.1919,-786.6299 1381.292,-789.385 1381.7124,-784.02 1378.3921,-792.1401 1378.3921,-792.1401"/>
<ellipse fill="none" stroke="#000000" cx="1376.0722" cy="-794.3442" rx="3.2" ry="3.2"/>
</g>
<!-- ippd_baseline_pollen&#45;&gt;global_DataSetMaster -->
<g id="edge20" class="edge">
<title>ippd_baseline_pollen:w&#45;&gt;global_DataSetMaster:e</title>
<path fill="none" stroke="#000000" stroke-dasharray="5,2" d="M1312.3514,-755.3948C1164.2545,-759.3588 905.2263,-762.5718 870,-738.0032 837.4395,-715.2938 859.1858,-687.9226 837,-655.0032 821.1889,-631.5425 819.2913,-611.0032 791,-611.0032"/>
<polygon fill="#000000" stroke="#000000" points="1318.7678,-755.2179 1326.8641,-758.5959 1322.7663,-755.1076 1326.7648,-754.9973 1326.7648,-754.9973 1326.7648,-754.9973 1322.7663,-755.1076 1326.6655,-751.3986 1318.7678,-755.2179 1318.7678,-755.2179"/>
<ellipse fill="none" stroke="#000000" cx="1315.569" cy="-755.3061" rx="3.2" ry="3.2"/>
</g>
<!-- ippd_baseline_pollen&#45;&gt;global_SiteMaster -->
<g id="edge21" class="edge">
<title>ippd_baseline_pollen:w&#45;&gt;global_SiteMaster:e</title>
<path fill="none" stroke="#000000" stroke-dasharray="5,2" d="M1408.3938,-702.8712C1391.2621,-589.211 1345.2876,-311.8993 1294,-234.0032 1236.8562,-147.2126 1204.6929,-127.526 1106,-95.0032 1006.3808,-62.175 974.7209,-89.0689 870,-95.0032 840.0505,-96.7003 363.4976,-156.0032 333.5,-156.0032"/>
<polygon fill="#000000" stroke="#000000" points="1409.3446,-709.2455 1406.9642,-717.6891 1409.9347,-713.2018 1410.5248,-717.158 1410.5248,-717.158 1410.5248,-717.158 1409.9347,-713.2018 1414.0854,-716.6269 1409.3446,-709.2455 1409.3446,-709.2455"/>
<ellipse fill="none" stroke="#000000" cx="1408.8725" cy="-706.0805" rx="3.2" ry="3.2"/>
</g>
<!-- neo_chronologies -->
<g id="node16" class="node">
<title>neo_chronologies</title>
<g id="a_node16"><a xlink:href="../../tables/neo_chronologies.html" xlink:title="neo_chronologies" target="_top">
<polygon fill="#ffffff" stroke="transparent" points="878,-352.0032 878,-728.0032 1098,-728.0032 1098,-352.0032 878,-352.0032"/>
<polygon fill="#f5f5f5" stroke="transparent" points="880,-703.0032 880,-726.0032 1096,-726.0032 1096,-703.0032 880,-703.0032"/>
<polygon fill="none" stroke="#000000" points="880,-703.0032 880,-726.0032 1096,-726.0032 1096,-703.0032 880,-703.0032"/>
<text text-anchor="start" x="885" y="-711.6032" font-family="Helvetica,sans-Serif" font-weight="bold" font-size="11.00" fill="#000000">neo_chronologies</text>
<text text-anchor="start" x="1061.0437" y="-711.1032" font-family="Helvetica,sans-Serif" font-size="11.00" fill="#000000">[table]</text>
<polygon fill="none" stroke="#000000" points="880,-681.0032 880,-703.0032 1004,-703.0032 1004,-681.0032 880,-681.0032"/>
<image xlink:href="../../images/primaryKeys.png" width="11px" height="12px" preserveAspectRatio="xMinYMin meet" x="885" y="-698.003"/>
<text text-anchor="start" x="900" y="-688.1032" font-family="Helvetica,sans-Serif" font-size="11.00" fill="#000000">CHRONLGYID</text>
<polygon fill="none" stroke="#000000" points="1004,-681.0032 1004,-703.0032 1096,-703.0032 1096,-681.0032 1004,-681.0032"/>
<text text-anchor="start" x="1007" y="-688.7032" font-family="Helvetica,sans-Serif" font-size="11.00" fill="#000000">int4[10]</text>
<polygon fill="none" stroke="#000000" points="880,-659.0032 880,-681.0032 1004,-681.0032 1004,-659.0032 880,-659.0032"/>
<image xlink:href="../../images/foreignKeys.png" width="11px" height="12px" preserveAspectRatio="xMinYMin meet" x="885" y="-676.003"/>
<text text-anchor="start" x="900" y="-666.1032" font-family="Helvetica,sans-Serif" font-size="11.00" fill="#000000">NEO_UNITID</text>
<polygon fill="none" stroke="#000000" points="1004,-659.0032 1004,-681.0032 1096,-681.0032 1096,-659.0032 1004,-659.0032"/>
<text text-anchor="start" x="1007" y="-666.7032" font-family="Helvetica,sans-Serif" font-size="11.00" fill="#000000">int4[10]</text>
<polygon fill="none" stroke="#000000" points="880,-637.0032 880,-659.0032 1004,-659.0032 1004,-637.0032 880,-637.0032"/>
<image xlink:href="../../images/foreignKeys.png" width="11px" height="12px" preserveAspectRatio="xMinYMin meet" x="885" y="-654.003"/>
<text text-anchor="start" x="900" y="-644.1032" font-family="Helvetica,sans-Serif" font-size="11.00" fill="#000000">AGETYPEID</text>
<polygon fill="none" stroke="#000000" points="1004,-637.0032 1004,-659.0032 1096,-659.0032 1096,-637.0032 1004,-637.0032"/>
<text text-anchor="start" x="1007" y="-644.7032" font-family="Helvetica,sans-Serif" font-size="11.00" fill="#000000">int4[10]</text>
<polygon fill="none" stroke="#000000" points="880,-615.0032 880,-637.0032 1004,-637.0032 1004,-615.0032 880,-615.0032"/>
<image xlink:href="../../images/foreignKeys.png" width="11px" height="12px" preserveAspectRatio="xMinYMin meet" x="885" y="-632.003"/>
<text text-anchor="start" x="900" y="-622.1032" font-family="Helvetica,sans-Serif" font-size="11.00" fill="#000000">CONTACTID</text>
<polygon fill="none" stroke="#000000" points="1004,-615.0032 1004,-637.0032 1096,-637.0032 1096,-615.0032 1004,-615.0032"/>
<text text-anchor="start" x="1007" y="-622.7032" font-family="Helvetica,sans-Serif" font-size="11.00" fill="#000000">int4[10]</text>
<polygon fill="none" stroke="#000000" points="880,-593.0032 880,-615.0032 1004,-615.0032 1004,-593.0032 880,-593.0032"/>
<text text-anchor="start" x="900" y="-600.1032" font-family="Helvetica,sans-Serif" font-size="11.00" fill="#000000">IS_DEFAULT</text>
<polygon fill="none" stroke="#000000" points="1004,-593.0032 1004,-615.0032 1096,-615.0032 1096,-593.0032 1004,-593.0032"/>
<text text-anchor="start" x="1007" y="-600.7032" font-family="Helvetica,sans-Serif" font-size="11.00" fill="#000000">bool[1]</text>
<polygon fill="none" stroke="#000000" points="880,-571.0032 880,-593.0032 1004,-593.0032 1004,-571.0032 880,-571.0032"/>
<text text-anchor="start" x="900" y="-578.1032" font-family="Helvetica,sans-Serif" font-size="11.00" fill="#000000">CHRONNAME</text>
<polygon fill="none" stroke="#000000" points="1004,-571.0032 1004,-593.0032 1096,-593.0032 1096,-571.0032 1004,-571.0032"/>
<text text-anchor="start" x="1007" y="-578.7032" font-family="Helvetica,sans-Serif" font-size="11.00" fill="#000000">varchar[80]</text>
<polygon fill="none" stroke="#000000" points="880,-549.0032 880,-571.0032 1004,-571.0032 1004,-549.0032 880,-549.0032"/>
<text text-anchor="start" x="900" y="-556.1032" font-family="Helvetica,sans-Serif" font-size="11.00" fill="#000000">PREPDATE</text>
<polygon fill="none" stroke="#000000" points="1004,-549.0032 1004,-571.0032 1096,-571.0032 1096,-549.0032 1004,-549.0032"/>
<text text-anchor="start" x="1007" y="-556.7032" font-family="Helvetica,sans-Serif" font-size="11.00" fill="#000000">text[2147483647]</text>
<polygon fill="none" stroke="#000000" points="880,-527.0032 880,-549.0032 1004,-549.0032 1004,-527.0032 880,-527.0032"/>
<text text-anchor="start" x="900" y="-534.1032" font-family="Helvetica,sans-Serif" font-size="11.00" fill="#000000">AGEMODEL</text>
<polygon fill="none" stroke="#000000" points="1004,-527.0032 1004,-549.0032 1096,-549.0032 1096,-527.0032 1004,-527.0032"/>
<text text-anchor="start" x="1007" y="-534.7032" font-family="Helvetica,sans-Serif" font-size="11.00" fill="#000000">varchar[80]</text>
<polygon fill="none" stroke="#000000" points="880,-505.0032 880,-527.0032 1004,-527.0032 1004,-505.0032 880,-505.0032"/>
<text text-anchor="start" x="900" y="-512.1032" font-family="Helvetica,sans-Serif" font-size="11.00" fill="#000000">AGEYOUNG</text>
<polygon fill="none" stroke="#000000" points="1004,-505.0032 1004,-527.0032 1096,-527.0032 1096,-505.0032 1004,-505.0032"/>
<text text-anchor="start" x="1007" y="-512.7032" font-family="Helvetica,sans-Serif" font-size="11.00" fill="#000000">int4[10]</text>
<polygon fill="none" stroke="#000000" points="880,-483.0032 880,-505.0032 1004,-505.0032 1004,-483.0032 880,-483.0032"/>
<text text-anchor="start" x="900" y="-490.1032" font-family="Helvetica,sans-Serif" font-size="11.00" fill="#000000">AGEOLD</text>
<polygon fill="none" stroke="#000000" points="1004,-483.0032 1004,-505.0032 1096,-505.0032 1096,-483.0032 1004,-483.0032"/>
<text text-anchor="start" x="1007" y="-490.7032" font-family="Helvetica,sans-Serif" font-size="11.00" fill="#000000">int4[10]</text>
<polygon fill="none" stroke="#000000" points="880,-461.0032 880,-483.0032 1004,-483.0032 1004,-461.0032 880,-461.0032"/>
<text text-anchor="start" x="900" y="-468.1032" font-family="Helvetica,sans-Serif" font-size="11.00" fill="#000000">CHRONNOTE</text>
<polygon fill="none" stroke="#000000" points="1004,-461.0032 1004,-483.0032 1096,-483.0032 1096,-461.0032 1004,-461.0032"/>
<text text-anchor="start" x="1007" y="-468.7032" font-family="Helvetica,sans-Serif" font-size="11.00" fill="#000000">text[2147483647]</text>
<polygon fill="none" stroke="#000000" points="880,-439.0032 880,-461.0032 1004,-461.0032 1004,-439.0032 880,-439.0032"/>
<image xlink:href="../../images/foreignKeys.png" width="11px" height="12px" preserveAspectRatio="xMinYMin meet" x="885" y="-456.003"/>
<text text-anchor="start" x="900" y="-446.1032" font-family="Helvetica,sans-Serif" font-size="11.00" fill="#000000">UNITID</text>
<polygon fill="none" stroke="#000000" points="1004,-439.0032 1004,-461.0032 1096,-461.0032 1096,-439.0032 1004,-439.0032"/>
<text text-anchor="start" x="1007" y="-446.7032" font-family="Helvetica,sans-Serif" font-size="11.00" fill="#000000">int4[10]</text>
<polygon fill="none" stroke="#000000" points="880,-417.0032 880,-439.0032 1004,-439.0032 1004,-417.0032 880,-417.0032"/>
<text text-anchor="start" x="900" y="-424.1032" font-family="Helvetica,sans-Serif" font-size="11.00" fill="#000000">CREATED_AT</text>
<polygon fill="none" stroke="#000000" points="1004,-417.0032 1004,-439.0032 1096,-439.0032 1096,-417.0032 1004,-417.0032"/>
<text text-anchor="start" x="1006.6023" y="-424.7032" font-family="Helvetica,sans-Serif" font-size="11.00" fill="#000000">timestamptz[35,6]</text>
<polygon fill="none" stroke="#000000" points="880,-395.0032 880,-417.0032 1004,-417.0032 1004,-395.0032 880,-395.0032"/>
<text text-anchor="start" x="900" y="-402.1032" font-family="Helvetica,sans-Serif" font-size="11.00" fill="#000000">UPDATED_AT</text>
<polygon fill="none" stroke="#000000" points="1004,-395.0032 1004,-417.0032 1096,-417.0032 1096,-395.0032 1004,-395.0032"/>
<text text-anchor="start" x="1006.6023" y="-402.7032" font-family="Helvetica,sans-Serif" font-size="11.00" fill="#000000">timestamptz[35,6]</text>
<polygon fill="none" stroke="#000000" points="880,-373.0032 880,-395.0032 1004,-395.0032 1004,-373.0032 880,-373.0032"/>
<text text-anchor="start" x="900" y="-380.1032" font-family="Helvetica,sans-Serif" font-size="11.00" fill="#000000">TECH_NOTE</text>
<polygon fill="none" stroke="#000000" points="1004,-373.0032 1004,-395.0032 1096,-395.0032 1096,-373.0032 1004,-373.0032"/>
<text text-anchor="start" x="1007" y="-380.7032" font-family="Helvetica,sans-Serif" font-size="11.00" fill="#000000">text[2147483647]</text>
<polygon fill="#ffffff" stroke="transparent" points="880,-354.0032 880,-373.0032 920,-373.0032 920,-354.0032 880,-354.0032"/>
<polygon fill="none" stroke="#000000" points="880,-354.0032 880,-373.0032 920,-373.0032 920,-354.0032 880,-354.0032"/>
<text text-anchor="start" x="883" y="-360.1032" font-family="Helvetica,sans-Serif" font-size="11.00" fill="#000000">&lt; 4</text>
<polygon fill="#ffffff" stroke="transparent" points="920,-354.0032 920,-373.0032 1004,-373.0032 1004,-354.0032 920,-354.0032"/>
<polygon fill="none" stroke="#000000" points="920,-354.0032 920,-373.0032 1004,-373.0032 1004,-354.0032 920,-354.0032"/>
<text text-anchor="start" x="941.094" y="-360.1032" font-family="Helvetica,sans-Serif" font-size="11.00" fill="#000000">31.641 rows</text>
<polygon fill="#ffffff" stroke="transparent" points="1004,-354.0032 1004,-373.0032 1096,-373.0032 1096,-354.0032 1004,-354.0032"/>
<polygon fill="none" stroke="#000000" points="1004,-354.0032 1004,-373.0032 1096,-373.0032 1096,-354.0032 1004,-354.0032"/>
<text text-anchor="start" x="1077.4053" y="-360.1032" font-family="Helvetica,sans-Serif" font-size="11.00" fill="#000000">2 &gt;</text>
<polygon fill="none" stroke="#000000" stroke-width="2" points="879,-353.0032 879,-727.0032 1097,-727.0032 1097,-353.0032 879,-353.0032"/>
</a>
</g>
</g>
<!-- ippd_baseline_pollen&#45;&gt;neo_chronologies -->
<g id="edge18" class="edge">
<title>ippd_baseline_pollen:w&#45;&gt;neo_chronologies:e</title>
<path fill="none" stroke="#000000" stroke-dasharray="5,2" d="M1394.8046,-704.3727C1375.1001,-665.6531 1341.3961,-613.7012 1294,-590.0032 1232.3839,-559.1951 1196.3986,-551.9101 1139,-590.0032 1098.0088,-617.2073 1145.197,-692.0032 1096,-692.0032"/>
<polygon fill="#000000" stroke="#000000" points="1397.6795,-710.2598 1397.9552,-719.0282 1399.4348,-713.8542 1401.19,-717.4485 1401.19,-717.4485 1401.19,-717.4485 1399.4348,-713.8542 1404.4249,-715.8687 1397.6795,-710.2598 1397.6795,-710.2598"/>
<ellipse fill="none" stroke="#000000" cx="1396.2753" cy="-707.3844" rx="3.2" ry="3.2"/>
</g>
<!-- ippd_DataCore -->
<g id="node17" class="node">
<title>ippd_DataCore</title>
<g id="a_node17"><a xlink:href="../../tables/ippd_DataCore.html" xlink:title="ippd_DataCore" target="_top">
<polygon fill="#ffffff" stroke="transparent" points="1154.5,-776.5032 1154.5,-837.5032 1278.5,-837.5032 1278.5,-776.5032 1154.5,-776.5032"/>
<polygon fill="#f5f5f5" stroke="transparent" points="1154.5,-814.0032 1154.5,-837.0032 1278.5,-837.0032 1278.5,-814.0032 1154.5,-814.0032"/>
<polygon fill="none" stroke="#000000" points="1154.5,-814.0032 1154.5,-837.0032 1278.5,-837.0032 1278.5,-814.0032 1154.5,-814.0032"/>
<text text-anchor="start" x="1159.5" y="-822.6032" font-family="Helvetica,sans-Serif" font-weight="bold" font-size="11.00" fill="#000000">ippd_DataCore</text>
<text text-anchor="start" x="1244.0219" y="-822.1032" font-family="Helvetica,sans-Serif" font-size="11.00" fill="#000000">[table]</text>
<polygon fill="none" stroke="#000000" points="1154.5,-795.0032 1154.5,-814.0032 1278.5,-814.0032 1278.5,-795.0032 1154.5,-795.0032"/>
<text text-anchor="start" x="1157.5" y="-801.1032" font-family="Helvetica,sans-Serif" font-size="11.00" fill="#000000">...</text>
<polygon fill="#ffffff" stroke="transparent" points="1154.5,-776.0032 1154.5,-795.0032 1180.5,-795.0032 1180.5,-776.0032 1154.5,-776.0032"/>
<polygon fill="none" stroke="#000000" points="1154.5,-776.0032 1154.5,-795.0032 1180.5,-795.0032 1180.5,-776.0032 1154.5,-776.0032"/>
<text text-anchor="start" x="1157.5" y="-782.1032" font-family="Helvetica,sans-Serif" font-size="11.00" fill="#000000">&lt; 2</text>
<polygon fill="#ffffff" stroke="transparent" points="1180.5,-776.0032 1180.5,-795.0032 1254.5,-795.0032 1254.5,-776.0032 1180.5,-776.0032"/>
<polygon fill="none" stroke="#000000" points="1180.5,-776.0032 1180.5,-795.0032 1254.5,-795.0032 1254.5,-776.0032 1180.5,-776.0032"/>
<text text-anchor="start" x="1185.4791" y="-782.1032" font-family="Helvetica,sans-Serif" font-size="11.00" fill="#000000">384.434 rows</text>
<polygon fill="#ffffff" stroke="transparent" points="1254.5,-776.0032 1254.5,-795.0032 1278.5,-795.0032 1278.5,-776.0032 1254.5,-776.0032"/>
<polygon fill="none" stroke="#000000" points="1254.5,-776.0032 1254.5,-795.0032 1278.5,-795.0032 1278.5,-776.0032 1254.5,-776.0032"/>
<text text-anchor="start" x="1259.9053" y="-782.1032" font-family="Helvetica,sans-Serif" font-size="11.00" fill="#000000">1 &gt;</text>
</a>
</g>
</g>
<!-- ippd_baseline_pollen&#45;&gt;ippd_DataCore -->
<g id="edge19" class="edge">
<title>ippd_baseline_pollen:w&#45;&gt;ippd_DataCore:e</title>
<path fill="none" stroke="#000000" stroke-dasharray="5,2" d="M1339.4625,-791.8233C1320.1024,-798.8671 1298.9681,-804.0032 1278.5,-804.0032"/>
<polygon fill="#000000" stroke="#000000" points="1345.4361,-789.4727 1354.1987,-789.8932 1349.1582,-788.008 1352.8804,-786.5432 1352.8804,-786.5432 1352.8804,-786.5432 1349.1582,-788.008 1351.5622,-783.1933 1345.4361,-789.4727 1345.4361,-789.4727"/>
<ellipse fill="none" stroke="#000000" cx="1342.4583" cy="-790.6445" rx="3.2" ry="3.2"/>
</g>
<!-- neo_chronologies&#45;&gt;global_UnitMaster -->
<g id="edge37" class="edge">
<title>neo_chronologies:w&#45;&gt;global_UnitMaster:e</title>
<path fill="none" stroke="#000000" stroke-dasharray="5,2" d="M865.9054,-666.7208C842.6516,-652.4903 871.1571,-595.8225 837,-573.0032 791.5034,-542.6082 642.3693,-548.8034 548.3506,-556.2682"/>
<polygon fill="#000000" stroke="#000000" points="872.2085,-668.1886 879.1835,-673.5093 876.1042,-669.0959 880,-670.0032 880,-670.0032 880,-670.0032 876.1042,-669.0959 880.8165,-666.497 872.2085,-668.1886 872.2085,-668.1886"/>
<ellipse fill="none" stroke="#000000" cx="869.0919" cy="-667.4628" rx="3.2" ry="3.2"/>
</g>
<!-- neo_chronologies&#45;&gt;global_UnitMaster -->
<g id="edge38" class="edge">
<title>neo_chronologies:w&#45;&gt;global_UnitMaster:e</title>
<path fill="none" stroke="#000000" d="M866.105,-454.0894C851.2931,-465.8633 861.115,-499.9756 837,-515.0032 788.319,-545.3393 637.8397,-540.2981 581,-548.0032 570.3458,-549.4474 559.1292,-551.0019 548.0725,-552.5542"/>
<polygon fill="#000000" stroke="#000000" points="872.325,-452.2603 881.0157,-453.4569 876.1625,-451.1317 880,-450.0032 880,-450.0032 880,-450.0032 876.1625,-451.1317 878.9843,-446.5494 872.325,-452.2603 872.325,-452.2603"/>
<ellipse fill="none" stroke="#000000" cx="869.255" cy="-453.1631" rx="3.2" ry="3.2"/>
</g>
<!-- neo_chronologies&#45;&gt;neo_contacts -->
<g id="edge36" class="edge">
<title>neo_chronologies:w&#45;&gt;neo_contacts:e</title>
<path fill="none" stroke="#000000" d="M866.2818,-630.7117C823.2533,-665.8503 883.3079,-886.9367 837,-929.0032 785.8749,-975.4456 595.5701,-943.0032 526.5,-943.0032"/>
<polygon fill="#000000" stroke="#000000" points="872.4333,-628.6003 881.1687,-629.4082 876.2167,-627.3017 880,-626.0032 880,-626.0032 880,-626.0032 876.2167,-627.3017 878.8313,-622.5981 872.4333,-628.6003 872.4333,-628.6003"/>
<ellipse fill="none" stroke="#000000" cx="869.4066" cy="-629.6392" rx="3.2" ry="3.2"/>
</g>
<!-- neo_chronologies&#45;&gt;cabah_agetypeID -->
<g id="edge35" class="edge">
<title>neo_chronologies:w&#45;&gt;cabah_agetypeID:e</title>
<path fill="none" stroke="#000000" d="M865.46,-645.9775C828.7822,-633.7744 862.34,-568.9997 837,-522.0032 816.7056,-484.3643 820.7615,-446.0032 778,-446.0032"/>
<polygon fill="#000000" stroke="#000000" points="872.0765,-646.8993 879.5032,-651.5687 876.0383,-647.4512 880,-648.0032 880,-648.0032 880,-648.0032 876.0383,-647.4512 880.4968,-644.4376 872.0765,-646.8993 872.0765,-646.8993"/>
<ellipse fill="none" stroke="#000000" cx="868.9071" cy="-646.4577" rx="3.2" ry="3.2"/>
</g>
<!-- ippd_Sample -->
<g id="node18" class="node">
<title>ippd_Sample</title>
<g id="a_node18"><a xlink:href="../../tables/ippd_Sample.html" xlink:title="ippd_Sample" target="_top">
<polygon fill="#ffffff" stroke="transparent" points="931.5,-776.5032 931.5,-837.5032 1044.5,-837.5032 1044.5,-776.5032 931.5,-776.5032"/>
<polygon fill="#f5f5f5" stroke="transparent" points="932,-814.0032 932,-837.0032 1045,-837.0032 1045,-814.0032 932,-814.0032"/>
<polygon fill="none" stroke="#000000" points="932,-814.0032 932,-837.0032 1045,-837.0032 1045,-814.0032 932,-814.0032"/>
<text text-anchor="start" x="937" y="-822.6032" font-family="Helvetica,sans-Serif" font-weight="bold" font-size="11.00" fill="#000000">ippd_Sample</text>
<text text-anchor="start" x="1010.5219" y="-822.1032" font-family="Helvetica,sans-Serif" font-size="11.00" fill="#000000">[table]</text>
<polygon fill="none" stroke="#000000" points="932,-795.0032 932,-814.0032 1045,-814.0032 1045,-795.0032 932,-795.0032"/>
<text text-anchor="start" x="935" y="-801.1032" font-family="Helvetica,sans-Serif" font-size="11.00" fill="#000000">...</text>
<polygon fill="#ffffff" stroke="transparent" points="932,-776.0032 932,-795.0032 956,-795.0032 956,-776.0032 932,-776.0032"/>
<polygon fill="none" stroke="#000000" points="932,-776.0032 932,-795.0032 956,-795.0032 956,-776.0032 932,-776.0032"/>
<text text-anchor="start" x="935" y="-782.1032" font-family="Helvetica,sans-Serif" font-size="11.00" fill="#000000">&lt; 4</text>
<polygon fill="#ffffff" stroke="transparent" points="956,-776.0032 956,-795.0032 1022,-795.0032 1022,-776.0032 956,-776.0032"/>
<polygon fill="none" stroke="#000000" points="956,-776.0032 956,-795.0032 1022,-795.0032 1022,-776.0032 956,-776.0032"/>
<text text-anchor="start" x="959.094" y="-782.1032" font-family="Helvetica,sans-Serif" font-size="11.00" fill="#000000">18.370 rows</text>
<polygon fill="#ffffff" stroke="transparent" points="1022,-776.0032 1022,-795.0032 1045,-795.0032 1045,-776.0032 1022,-776.0032"/>
<polygon fill="none" stroke="#000000" points="1022,-776.0032 1022,-795.0032 1045,-795.0032 1045,-776.0032 1022,-776.0032"/>
<text text-anchor="start" x="1026.4053" y="-782.1032" font-family="Helvetica,sans-Serif" font-size="11.00" fill="#000000">3 &gt;</text>
</a>
</g>
</g>
<!-- ippd_DataCore&#45;&gt;ippd_Sample -->
<g id="edge23" class="edge">
<title>ippd_DataCore:w&#45;&gt;ippd_Sample:e</title>
<path fill="none" stroke="#000000" d="M1139.7457,-804.0032C1102.7352,-804.0032 1088.3438,-804.0032 1045,-804.0032"/>
<polygon fill="#000000" stroke="#000000" points="1146.5,-804.0032 1154.5,-807.6032 1150.5,-804.0032 1154.5,-804.0032 1154.5,-804.0032 1154.5,-804.0032 1150.5,-804.0032 1154.5,-800.4032 1146.5,-804.0032 1146.5,-804.0032"/>
<ellipse fill="none" stroke="#000000" cx="1143.3" cy="-804.0032" rx="3.2" ry="3.2"/>
</g>
<!-- ippd_Sample&#45;&gt;cabah_AnalysisUnit -->
<g id="edge29" class="edge">
<title>ippd_Sample:w&#45;&gt;cabah_AnalysisUnit:e</title>
<path fill="none" stroke="#000000" d="M917.4053,-803.4998C863.3846,-799.6489 846.9881,-775.0032 786,-775.0032"/>
<polygon fill="#000000" stroke="#000000" points="924.0048,-803.7274 931.8759,-807.601 928.0024,-803.8653 932,-804.0032 932,-804.0032 932,-804.0032 928.0024,-803.8653 932.1241,-800.4053 924.0048,-803.7274 924.0048,-803.7274"/>
<ellipse fill="none" stroke="#000000" cx="920.8067" cy="-803.617" rx="3.2" ry="3.2"/>
</g>
<!-- ippd_Sample&#45;&gt;cabah_taxaID -->
<g id="edge32" class="edge">
<title>ippd_Sample:w&#45;&gt;cabah_taxaID:e</title>
<path fill="none" stroke="#000000" d="M917.4845,-805.2814C858.4579,-816.7012 889.4362,-901.973 837,-953.0032 810.9989,-978.3071 803.2815,-995.0032 767,-995.0032"/>
<polygon fill="#000000" stroke="#000000" points="924.0308,-804.705 932.3158,-807.5893 928.0154,-804.3541 932,-804.0032 932,-804.0032 932,-804.0032 928.0154,-804.3541 931.6842,-800.417 924.0308,-804.705 924.0308,-804.705"/>
<ellipse fill="none" stroke="#000000" cx="920.8432" cy="-804.9857" rx="3.2" ry="3.2"/>
</g>
<!-- ippd_Sample&#45;&gt;global_DataSetMaster -->
<g id="edge30" class="edge">
<title>ippd_Sample:w&#45;&gt;global_DataSetMaster:e</title>
<path fill="none" stroke="#000000" d="M917.739,-800.3993C895.5826,-792.8235 886.6318,-778.4692 870,-756.0032 824.9338,-695.1284 866.7409,-605.0032 791,-611.0032"/>
<polygon fill="#000000" stroke="#000000" points="924.2438,-802.0431 931.118,-807.4934 928.1219,-803.0231 932,-804.0032 932,-804.0032 932,-804.0032 928.1219,-803.0231 932.882,-800.5129 924.2438,-802.0431 924.2438,-802.0431"/>
<ellipse fill="none" stroke="#000000" cx="921.1413" cy="-801.2591" rx="3.2" ry="3.2"/>
</g>
<!-- ippd_Sample&#45;&gt;global_DataSetMaster -->
<g id="edge31" class="edge">
<title>ippd_Sample:w&#45;&gt;global_DataSetMaster:e</title>
<path fill="none" stroke="#000000" d="M917.4307,-805.6993C895.4992,-805.6898 886.5545,-791.3647 870,-769.0032 824.9338,-708.1284 866.7409,-618.0032 791,-611.0032"/>
<polygon fill="#000000" stroke="#000000" points="924.0537,-804.9283 932.4163,-807.579 928.0268,-804.4657 932,-804.0032 932,-804.0032 932,-804.0032 928.0268,-804.4657 931.5837,-800.4273 924.0537,-804.9283 924.0537,-804.9283"/>
<ellipse fill="none" stroke="#000000" cx="920.8751" cy="-805.2983" rx="3.2" ry="3.2"/>
</g>
<!-- ippd_datasets -->
<g id="node19" class="node">
<title>ippd_datasets</title>
<g id="a_node19"><a xlink:href="../../tables/ippd_datasets.html" xlink:title="ippd_datasets" target="_top">
<polygon fill="#ffffff" stroke="transparent" points="928.5,-105.5032 928.5,-166.5032 1047.5,-166.5032 1047.5,-105.5032 928.5,-105.5032"/>
<polygon fill="#f5f5f5" stroke="transparent" points="929,-143.0032 929,-166.0032 1048,-166.0032 1048,-143.0032 929,-143.0032"/>
<polygon fill="none" stroke="#000000" points="929,-143.0032 929,-166.0032 1048,-166.0032 1048,-143.0032 929,-143.0032"/>
<text text-anchor="start" x="934" y="-151.6032" font-family="Helvetica,sans-Serif" font-weight="bold" font-size="11.00" fill="#000000">ippd_datasets</text>
<text text-anchor="start" x="1013.5219" y="-151.1032" font-family="Helvetica,sans-Serif" font-size="11.00" fill="#000000">[table]</text>
<polygon fill="none" stroke="#000000" points="929,-124.0032 929,-143.0032 1048,-143.0032 1048,-124.0032 929,-124.0032"/>
<text text-anchor="start" x="932" y="-130.1032" font-family="Helvetica,sans-Serif" font-size="11.00" fill="#000000">...</text>
<polygon fill="#ffffff" stroke="transparent" points="929,-105.0032 929,-124.0032 968,-124.0032 968,-105.0032 929,-105.0032"/>
<polygon fill="none" stroke="#000000" points="929,-105.0032 929,-124.0032 968,-124.0032 968,-105.0032 929,-105.0032"/>
<text text-anchor="start" x="932" y="-111.1032" font-family="Helvetica,sans-Serif" font-size="11.00" fill="#000000">&lt; 6</text>
<polygon fill="#ffffff" stroke="transparent" points="968,-105.0032 968,-124.0032 1027,-124.0032 1027,-105.0032 968,-105.0032"/>
<polygon fill="none" stroke="#000000" points="968,-105.0032 968,-124.0032 1027,-124.0032 1027,-105.0032 968,-105.0032"/>
<text text-anchor="start" x="979.3807" y="-111.1032" font-family="Helvetica,sans-Serif" font-size="11.00" fill="#000000">311 rows</text>
<polygon fill="#ffffff" stroke="transparent" points="1027,-105.0032 1027,-124.0032 1048,-124.0032 1048,-105.0032 1027,-105.0032"/>
<polygon fill="none" stroke="#000000" points="1027,-105.0032 1027,-124.0032 1048,-124.0032 1048,-105.0032 1027,-105.0032"/>
<text text-anchor="start" x="1038.8862" y="-111.1032" font-family="Helvetica,sans-Serif" font-size="11.00" fill="#000000"> &#160;</text>
</a>
</g>
</g>
<!-- ippd_datasets&#45;&gt;global_UnitMaster -->
<g id="edge28" class="edge">
<title>ippd_datasets:w&#45;&gt;global_UnitMaster:e</title>
<path fill="none" stroke="#000000" stroke-dasharray="5,2" d="M915.0491,-136.626C849.7974,-158.2118 594.256,-269.3958 581,-283.0032 512.4294,-353.3912 484.0079,-470.884 473.6684,-529.1065"/>
<polygon fill="#000000" stroke="#000000" points="921.2568,-135.014 929.9049,-136.4876 925.1284,-134.0086 929,-133.0032 929,-133.0032 929,-133.0032 925.1284,-134.0086 928.0951,-129.5187 921.2568,-135.014 921.2568,-135.014"/>
<ellipse fill="none" stroke="#000000" cx="918.1596" cy="-135.8183" rx="3.2" ry="3.2"/>
</g>
<!-- ippd_datasets&#45;&gt;global_DataSetMaster -->
<g id="edge24" class="edge">
<title>ippd_datasets:w&#45;&gt;global_DataSetMaster:e</title>
<path fill="none" stroke="#000000" stroke-dasharray="5,2" d="M914.4182,-133.8453C805.6709,-147.2162 879.5058,-317.6595 837,-491.0032 823.3971,-546.4773 848.1176,-611.0032 791,-611.0032"/>
<polygon fill="#000000" stroke="#000000" points="921.0133,-133.4644 929.2076,-136.5972 925.0067,-133.2338 929,-133.0032 929,-133.0032 929,-133.0032 925.0067,-133.2338 928.7924,-129.4091 921.0133,-133.4644 921.0133,-133.4644"/>
<ellipse fill="none" stroke="#000000" cx="917.8186" cy="-133.649" rx="3.2" ry="3.2"/>
</g>
<!-- ippd_datasets&#45;&gt;global_Author -->
<g id="edge25" class="edge">
<title>ippd_datasets:w&#45;&gt;global_Author:e</title>
<path fill="none" stroke="#000000" stroke-dasharray="5,2" d="M914.275,-132.8689C586.8123,-126.894 439.7844,75.6323 169,-118.0032 123.1551,-150.7864 184.3604,-238.0032 128,-238.0032"/>
<polygon fill="#000000" stroke="#000000" points="921.0003,-132.9302 928.9672,-136.603 925.0002,-132.9667 929,-133.0032 929,-133.0032 929,-133.0032 925.0002,-132.9667 929.0328,-129.4033 921.0003,-132.9302 921.0003,-132.9302"/>
<ellipse fill="none" stroke="#000000" cx="917.8005" cy="-132.901" rx="3.2" ry="3.2"/>
</g>
<!-- ippd_datasets&#45;&gt;global_Author -->
<g id="edge26" class="edge">
<title>ippd_datasets:w&#45;&gt;global_Author:e</title>
<path fill="none" stroke="#000000" stroke-dasharray="5,2" d="M914.2769,-132.8724C586.8708,-127.0526 440.7739,70.1891 169,-122.0032 124.3545,-153.5754 182.6811,-238.0032 128,-238.0032"/>
<polygon fill="#000000" stroke="#000000" points="921.0003,-132.9321 928.968,-136.603 925.0002,-132.9676 929,-133.0032 929,-133.0032 929,-133.0032 925.0002,-132.9676 929.032,-129.4033 921.0003,-132.9321 921.0003,-132.9321"/>
<ellipse fill="none" stroke="#000000" cx="917.8004" cy="-132.9036" rx="3.2" ry="3.2"/>
</g>
<!-- ippd_datasets&#45;&gt;global_SiteMaster -->
<g id="edge27" class="edge">
<title>ippd_datasets:w&#45;&gt;global_SiteMaster:e</title>
<path fill="none" stroke="#000000" stroke-dasharray="5,2" d="M914.561,-133.1886C884.9085,-133.9956 872.6501,-137.2392 837,-139.0032 613.3683,-150.0681 557.4053,-156.0032 333.5,-156.0032"/>
<polygon fill="#000000" stroke="#000000" points="921.0007,-133.106 929.0463,-136.6029 925.0003,-133.0546 929,-133.0032 929,-133.0032 929,-133.0032 925.0003,-133.0546 928.9537,-129.4034 921.0007,-133.106 921.0007,-133.106"/>
<ellipse fill="none" stroke="#000000" cx="917.8009" cy="-133.1471" rx="3.2" ry="3.2"/>
</g>
<!-- ippd_sampleages -->
<g id="node20" class="node">
<title>ippd_sampleages</title>
<g id="a_node20"><a xlink:href="../../tables/ippd_sampleages.html" xlink:title="ippd_sampleages" target="_top">
<polygon fill="#ffffff" stroke="transparent" points="1147,-600.5032 1147,-727.5032 1286,-727.5032 1286,-600.5032 1147,-600.5032"/>
<polygon fill="#f5f5f5" stroke="transparent" points="1147.5,-704.0032 1147.5,-727.0032 1286.5,-727.0032 1286.5,-704.0032 1147.5,-704.0032"/>
<polygon fill="none" stroke="#000000" points="1147.5,-704.0032 1147.5,-727.0032 1286.5,-727.0032 1286.5,-704.0032 1147.5,-704.0032"/>
<text text-anchor="start" x="1152.5" y="-712.6032" font-family="Helvetica,sans-Serif" font-weight="bold" font-size="11.00" fill="#000000">ippd_sampleages</text>
<text text-anchor="start" x="1252.0219" y="-712.1032" font-family="Helvetica,sans-Serif" font-size="11.00" fill="#000000">[table]</text>
<polygon fill="none" stroke="#000000" points="1147.5,-682.0032 1147.5,-704.0032 1286.5,-704.0032 1286.5,-682.0032 1147.5,-682.0032"/>
<image xlink:href="../../images/primaryKeys.png" width="11px" height="12px" preserveAspectRatio="xMinYMin meet" x="1152.5" y="-699.003"/>
<text text-anchor="start" x="1176.5" y="-689.1032" font-family="Helvetica,sans-Serif" font-size="11.00" fill="#000000">SMPAGEID</text>
<polygon fill="none" stroke="#000000" points="1147.5,-660.0032 1147.5,-682.0032 1286.5,-682.0032 1286.5,-660.0032 1147.5,-660.0032"/>
<image xlink:href="../../images/foreignKeys.png" width="11px" height="12px" preserveAspectRatio="xMinYMin meet" x="1152.5" y="-677.003"/>
<text text-anchor="start" x="1176.5" y="-667.1032" font-family="Helvetica,sans-Serif" font-size="11.00" fill="#000000">SAMPLEID</text>
<polygon fill="none" stroke="#000000" points="1147.5,-638.0032 1147.5,-660.0032 1286.5,-660.0032 1286.5,-638.0032 1147.5,-638.0032"/>
<image xlink:href="../../images/foreignKeys.png" width="11px" height="12px" preserveAspectRatio="xMinYMin meet" x="1152.5" y="-655.003"/>
<text text-anchor="start" x="1176.5" y="-645.1032" font-family="Helvetica,sans-Serif" font-size="11.00" fill="#000000">CHRONLGYID</text>
<polygon fill="none" stroke="#000000" points="1147.5,-619.0032 1147.5,-638.0032 1286.5,-638.0032 1286.5,-619.0032 1147.5,-619.0032"/>
<text text-anchor="start" x="1150.5" y="-625.1032" font-family="Helvetica,sans-Serif" font-size="11.00" fill="#000000">...</text>
<polygon fill="#ffffff" stroke="transparent" points="1147.5,-600.0032 1147.5,-619.0032 1188.5,-619.0032 1188.5,-600.0032 1147.5,-600.0032"/>
<polygon fill="none" stroke="#000000" points="1147.5,-600.0032 1147.5,-619.0032 1188.5,-619.0032 1188.5,-600.0032 1147.5,-600.0032"/>
<text text-anchor="start" x="1150.5" y="-606.1032" font-family="Helvetica,sans-Serif" font-size="11.00" fill="#000000">&lt; 2</text>
<polygon fill="#ffffff" stroke="transparent" points="1188.5,-600.0032 1188.5,-619.0032 1263.5,-619.0032 1263.5,-600.0032 1188.5,-600.0032"/>
<polygon fill="none" stroke="#000000" points="1188.5,-600.0032 1188.5,-619.0032 1263.5,-619.0032 1263.5,-600.0032 1188.5,-600.0032"/>
<text text-anchor="start" x="1200.594" y="-606.1032" font-family="Helvetica,sans-Serif" font-size="11.00" fill="#000000">18.794 rows</text>
<polygon fill="#ffffff" stroke="transparent" points="1263.5,-600.0032 1263.5,-619.0032 1286.5,-619.0032 1286.5,-600.0032 1263.5,-600.0032"/>
<polygon fill="none" stroke="#000000" points="1263.5,-600.0032 1263.5,-619.0032 1286.5,-619.0032 1286.5,-600.0032 1263.5,-600.0032"/>
<text text-anchor="start" x="1277.3862" y="-606.1032" font-family="Helvetica,sans-Serif" font-size="11.00" fill="#000000"> &#160;</text>
</a>
</g>
</g>
<!-- ippd_sampleages&#45;&gt;neo_chronologies -->
<g id="edge33" class="edge">
<title>ippd_sampleages:w&#45;&gt;neo_chronologies:e</title>
<path fill="none" stroke="#000000" d="M1133.3913,-653.6049C1119.4212,-664.6977 1119.7615,-692.0032 1096,-692.0032"/>
<polygon fill="#000000" stroke="#000000" points="1139.8943,-651.4839 1148.6163,-652.4257 1143.6972,-650.2435 1147.5,-649.0032 1147.5,-649.0032 1147.5,-649.0032 1143.6972,-650.2435 1146.3837,-645.5806 1139.8943,-651.4839 1139.8943,-651.4839"/>
<ellipse fill="none" stroke="#000000" cx="1136.8521" cy="-652.4762" rx="3.2" ry="3.2"/>
</g>
<!-- ippd_sampleages&#45;&gt;ippd_Sample -->
<g id="edge34" class="edge">
<title>ippd_sampleages:w&#45;&gt;ippd_Sample:e</title>
<path fill="none" stroke="#000000" d="M1133.4139,-674.2145C1116.4757,-684.1191 1123.5617,-714.9165 1106,-738.0032 1081.8172,-769.7939 1084.9432,-804.0032 1045,-804.0032"/>
<polygon fill="#000000" stroke="#000000" points="1139.7001,-672.7814 1148.3002,-674.5131 1143.6001,-671.8923 1147.5,-671.0032 1147.5,-671.0032 1147.5,-671.0032 1143.6001,-671.8923 1146.6998,-667.4932 1139.7001,-672.7814 1139.7001,-672.7814"/>
<ellipse fill="none" stroke="#000000" cx="1136.5802" cy="-673.4927" rx="3.2" ry="3.2"/>
</g>
<!-- sahulchar -->
<g id="node22" class="node">
<title>sahulchar</title>
<g id="a_node22"><a xlink:href="../../tables/sahulchar.html" xlink:title="sahulchar" target="_top">
<polygon fill="#ffffff" stroke="transparent" points="1167.5,-244.5032 1167.5,-305.5032 1265.5,-305.5032 1265.5,-244.5032 1167.5,-244.5032"/>
<polygon fill="#f5f5f5" stroke="transparent" points="1167.5,-282.0032 1167.5,-305.0032 1265.5,-305.0032 1265.5,-282.0032 1167.5,-282.0032"/>
<polygon fill="none" stroke="#000000" points="1167.5,-282.0032 1167.5,-305.0032 1265.5,-305.0032 1265.5,-282.0032 1167.5,-282.0032"/>
<text text-anchor="start" x="1172.5" y="-290.6032" font-family="Helvetica,sans-Serif" font-weight="bold" font-size="11.00" fill="#000000">sahulchar</text>
<text text-anchor="start" x="1230.5437" y="-290.1032" font-family="Helvetica,sans-Serif" font-size="11.00" fill="#000000">[table]</text>
<polygon fill="none" stroke="#000000" points="1167.5,-263.0032 1167.5,-282.0032 1265.5,-282.0032 1265.5,-263.0032 1167.5,-263.0032"/>
<text text-anchor="start" x="1170.5" y="-269.1032" font-family="Helvetica,sans-Serif" font-size="11.00" fill="#000000">...</text>
<polygon fill="#ffffff" stroke="transparent" points="1167.5,-244.0032 1167.5,-263.0032 1188.5,-263.0032 1188.5,-244.0032 1167.5,-244.0032"/>
<polygon fill="none" stroke="#000000" points="1167.5,-244.0032 1167.5,-263.0032 1188.5,-263.0032 1188.5,-244.0032 1167.5,-244.0032"/>
<text text-anchor="start" x="1170.2027" y="-250.1032" font-family="Helvetica,sans-Serif" font-size="11.00" fill="#000000">&lt; 5</text>
<polygon fill="#ffffff" stroke="transparent" points="1188.5,-244.0032 1188.5,-263.0032 1253.5,-263.0032 1253.5,-244.0032 1188.5,-244.0032"/>
<polygon fill="none" stroke="#000000" points="1188.5,-244.0032 1188.5,-263.0032 1253.5,-263.0032 1253.5,-244.0032 1188.5,-244.0032"/>
<text text-anchor="start" x="1191.047" y="-250.1032" font-family="Helvetica,sans-Serif" font-size="11.00" fill="#000000">48.234 rows</text>
<polygon fill="#ffffff" stroke="transparent" points="1253.5,-244.0032 1253.5,-263.0032 1265.5,-263.0032 1265.5,-244.0032 1253.5,-244.0032"/>
<polygon fill="none" stroke="#000000" points="1253.5,-244.0032 1253.5,-263.0032 1265.5,-263.0032 1265.5,-244.0032 1253.5,-244.0032"/>
<text text-anchor="start" x="1256.4431" y="-250.1032" font-family="Helvetica,sans-Serif" font-size="11.00" fill="#000000"> &#160;</text>
</a>
</g>
</g>
<!-- sahulchar&#45;&gt;global_UnitMaster -->
<g id="edge44" class="edge">
<title>sahulchar:w&#45;&gt;global_UnitMaster:e</title>
<path fill="none" stroke="#000000" stroke-dasharray="5,2" d="M1153.1988,-274.3565C1134.6152,-281.3302 1131.0975,-301.9612 1106,-311.0032 1056.2629,-328.922 909.028,-305.3425 870,-341.0032 819.6072,-387.048 888.0572,-445.6962 837,-491.0032 794.2464,-528.9417 636.3781,-501.8442 581,-516.0032 567.6276,-519.4222 553.7932,-524.1995 540.5934,-529.4248"/>
<polygon fill="#000000" stroke="#000000" points="1159.6062,-273.3022 1168.0846,-275.5554 1163.5531,-272.6527 1167.5,-272.0032 1167.5,-272.0032 1167.5,-272.0032 1163.5531,-272.6527 1166.9154,-268.4509 1159.6062,-273.3022 1159.6062,-273.3022"/>
<ellipse fill="none" stroke="#000000" cx="1156.4486" cy="-273.8218" rx="3.2" ry="3.2"/>
</g>
<!-- sahulchar&#45;&gt;char_DataCore -->
<g id="edge41" class="edge">
<title>sahulchar:w&#45;&gt;char_DataCore:e</title>
<path fill="none" stroke="#000000" stroke-dasharray="5,2" d="M1152.9148,-271.2275C1111.3546,-266.6157 1098.5364,-243.0032 1050,-243.0032"/>
<polygon fill="#000000" stroke="#000000" points="1159.5113,-271.5782 1167.3088,-275.5981 1163.5056,-271.7907 1167.5,-272.0032 1167.5,-272.0032 1167.5,-272.0032 1163.5056,-271.7907 1167.6912,-268.4082 1159.5113,-271.5782 1159.5113,-271.5782"/>
<ellipse fill="none" stroke="#000000" cx="1156.3158" cy="-271.4083" rx="3.2" ry="3.2"/>
</g>
<!-- sahulchar&#45;&gt;char_Sample -->
<g id="edge43" class="edge">
<title>sahulchar:w&#45;&gt;char_Sample:e</title>
<path fill="none" stroke="#000000" stroke-dasharray="5,2" d="M1152.7668,-273.1404C1136.1649,-275.942 1128.0987,-283.2223 1106,-287.0032 1031.1551,-299.8084 841.9324,-321.0032 766,-321.0032"/>
<polygon fill="#000000" stroke="#000000" points="1159.5237,-272.6189 1167.7771,-275.5925 1163.5119,-272.311 1167.5,-272.0032 1167.5,-272.0032 1167.5,-272.0032 1163.5119,-272.311 1167.2229,-268.4138 1159.5237,-272.6189 1159.5237,-272.6189"/>
<ellipse fill="none" stroke="#000000" cx="1156.3332" cy="-272.8652" rx="3.2" ry="3.2"/>
</g>
<!-- sahulchar&#45;&gt;global_SiteMaster -->
<g id="edge42" class="edge">
<title>sahulchar:w&#45;&gt;global_SiteMaster:e</title>
<path fill="none" stroke="#000000" stroke-dasharray="5,2" d="M1153.15,-269.1358C1130.4615,-258.3106 1137.2562,-219.7926 1106,-205.0032 1033.8758,-170.8764 468.3235,-173.6233 389,-165.0032 364.1574,-162.3035 358.4889,-156.0032 333.5,-156.0032"/>
<polygon fill="#000000" stroke="#000000" points="1159.6551,-270.4356 1166.7946,-275.5334 1163.5775,-271.2194 1167.5,-272.0032 1167.5,-272.0032 1167.5,-272.0032 1163.5775,-271.2194 1168.2054,-268.4729 1159.6551,-270.4356 1159.6551,-270.4356"/>
<ellipse fill="none" stroke="#000000" cx="1156.5171" cy="-269.8085" rx="3.2" ry="3.2"/>
</g>
<!-- sahulchar_units -->
<g id="node23" class="node">
<title>sahulchar_units</title>
<g id="a_node23"><a xlink:href="../../tables/sahulchar_units.html" xlink:title="sahulchar_units" target="_top">
<polygon fill="#ffffff" stroke="transparent" points="643.5,-857.5032 643.5,-918.5032 774.5,-918.5032 774.5,-857.5032 643.5,-857.5032"/>
<polygon fill="#f5f5f5" stroke="transparent" points="644,-895.0032 644,-918.0032 775,-918.0032 775,-895.0032 644,-895.0032"/>
<polygon fill="none" stroke="#000000" points="644,-895.0032 644,-918.0032 775,-918.0032 775,-895.0032 644,-895.0032"/>
<text text-anchor="start" x="649" y="-903.6032" font-family="Helvetica,sans-Serif" font-weight="bold" font-size="11.00" fill="#000000">sahulchar_units</text>
<text text-anchor="start" x="740.5219" y="-903.1032" font-family="Helvetica,sans-Serif" font-size="11.00" fill="#000000">[table]</text>
<polygon fill="none" stroke="#000000" points="644,-876.0032 644,-895.0032 775,-895.0032 775,-876.0032 644,-876.0032"/>
<text text-anchor="start" x="647" y="-882.1032" font-family="Helvetica,sans-Serif" font-size="11.00" fill="#000000">...</text>
<polygon fill="#ffffff" stroke="transparent" points="644,-857.0032 644,-876.0032 689,-876.0032 689,-857.0032 644,-857.0032"/>
<polygon fill="none" stroke="#000000" points="644,-857.0032 644,-876.0032 689,-876.0032 689,-857.0032 644,-857.0032"/>
<text text-anchor="start" x="647" y="-863.1032" font-family="Helvetica,sans-Serif" font-size="11.00" fill="#000000">&lt; 4</text>
<polygon fill="#ffffff" stroke="transparent" points="689,-857.0032 689,-876.0032 751,-876.0032 751,-857.0032 689,-857.0032"/>
<polygon fill="none" stroke="#000000" points="689,-857.0032 689,-876.0032 751,-876.0032 751,-857.0032 689,-857.0032"/>
<text text-anchor="start" x="703.3807" y="-863.1032" font-family="Helvetica,sans-Serif" font-size="11.00" fill="#000000">535 rows</text>
<polygon fill="#ffffff" stroke="transparent" points="751,-857.0032 751,-876.0032 775,-876.0032 775,-857.0032 751,-857.0032"/>
<polygon fill="none" stroke="#000000" points="751,-857.0032 751,-876.0032 775,-876.0032 775,-857.0032 751,-857.0032"/>
<text text-anchor="start" x="765.8862" y="-863.1032" font-family="Helvetica,sans-Serif" font-size="11.00" fill="#000000"> &#160;</text>
</a>
</g>
</g>
<!-- sahulchar_units&#45;&gt;global_UnitMaster -->
<g id="edge47" class="edge">
<title>sahulchar_units:w&#45;&gt;global_UnitMaster:e</title>
<path fill="none" stroke="#000000" stroke-dasharray="5,2" d="M629.5105,-883.8994C606.8833,-880.0496 597.1809,-866.175 581,-843.0032 545.1425,-791.6533 570.8452,-764.3184 548,-706.0032 532.902,-667.4637 509.0489,-626.5306 491.4055,-598.5646"/>
<polygon fill="#000000" stroke="#000000" points="636.0231,-884.3955 643.7265,-888.5928 640.0116,-884.6993 644,-885.0032 644,-885.0032 644,-885.0032 640.0116,-884.6993 644.2735,-881.4136 636.0231,-884.3955 636.0231,-884.3955"/>
<ellipse fill="none" stroke="#000000" cx="632.8324" cy="-884.1524" rx="3.2" ry="3.2"/>
</g>
<!-- sahulchar_units&#45;&gt;global_Author -->
<g id="edge45" class="edge">
<title>sahulchar_units:w&#45;&gt;global_Author:e</title>
<path fill="none" stroke="#000000" stroke-dasharray="5,2" d="M629.4569,-883.2198C608.9824,-877.5299 603.8179,-859.23 581,-843.0032 566.0049,-832.3394 564.8819,-825.3223 548,-818.0032 469.5994,-784.0124 226.6314,-816.0955 169,-753.0032 130.2854,-710.6202 185.4033,-238.0032 128,-238.0032"/>
<polygon fill="#000000" stroke="#000000" points="636.0595,-884.0294 643.5618,-888.5764 640.0297,-884.5163 644,-885.0032 644,-885.0032 644,-885.0032 640.0297,-884.5163 644.4382,-881.4299 636.0595,-884.0294 636.0595,-884.0294"/>
<ellipse fill="none" stroke="#000000" cx="632.8833" cy="-883.6399" rx="3.2" ry="3.2"/>
</g>
<!-- sahulchar_units&#45;&gt;global_SiteMaster -->
<g id="edge46" class="edge">
<title>sahulchar_units:w&#45;&gt;global_SiteMaster:e</title>
<path fill="none" stroke="#000000" stroke-dasharray="5,2" d="M629.4315,-883.6558C607.7514,-879.1512 600.0267,-863.7233 581,-843.0032 560.4155,-820.5866 565.583,-807.8439 548,-783.0032 486.7147,-696.421 430.8149,-702.4909 389,-605.0032 349.3689,-512.6068 434.0371,-156.0032 333.5,-156.0032"/>
<polygon fill="#000000" stroke="#000000" points="636.034,-884.2664 643.6684,-888.5879 640.017,-884.6348 644,-885.0032 644,-885.0032 644,-885.0032 640.017,-884.6348 644.3316,-881.4185 636.034,-884.2664 636.034,-884.2664"/>
<ellipse fill="none" stroke="#000000" cx="632.8476" cy="-883.9716" rx="3.2" ry="3.2"/>
</g>
<!-- sahulchar_units_points_EPSG3857 -->
<g id="node24" class="node">
<title>sahulchar_units_points_EPSG3857</title>
<g id="a_node24"><a xlink:href="../../tables/sahulchar_units_points_EPSG3857.html" xlink:title="sahulchar_units_points_EPSG3857" target="_top">
<polygon fill="#ffffff" stroke="transparent" points="589,-665.5032 589,-726.5032 829,-726.5032 829,-665.5032 589,-665.5032"/>
<polygon fill="#f5f5f5" stroke="transparent" points="589,-703.0032 589,-726.0032 829,-726.0032 829,-703.0032 589,-703.0032"/>
<polygon fill="none" stroke="#000000" points="589,-703.0032 589,-726.0032 829,-726.0032 829,-703.0032 589,-703.0032"/>
<text text-anchor="start" x="594" y="-711.6032" font-family="Helvetica,sans-Serif" font-weight="bold" font-size="11.00" fill="#000000">sahulchar_units_points_EPSG3857</text>
<text text-anchor="start" x="794.5219" y="-711.1032" font-family="Helvetica,sans-Serif" font-size="11.00" fill="#000000">[table]</text>
<polygon fill="none" stroke="#000000" points="589,-684.0032 589,-703.0032 829,-703.0032 829,-684.0032 589,-684.0032"/>
<text text-anchor="start" x="592" y="-690.1032" font-family="Helvetica,sans-Serif" font-size="11.00" fill="#000000">...</text>
<polygon fill="#ffffff" stroke="transparent" points="589,-665.0032 589,-684.0032 688,-684.0032 688,-665.0032 589,-665.0032"/>
<polygon fill="none" stroke="#000000" points="589,-665.0032 589,-684.0032 688,-684.0032 688,-665.0032 589,-665.0032"/>
<text text-anchor="start" x="592" y="-671.1032" font-family="Helvetica,sans-Serif" font-size="11.00" fill="#000000">&lt; 1</text>
<polygon fill="#ffffff" stroke="transparent" points="688,-665.0032 688,-684.0032 777,-684.0032 777,-665.0032 688,-665.0032"/>
<polygon fill="none" stroke="#000000" points="688,-665.0032 688,-684.0032 777,-684.0032 777,-665.0032 688,-665.0032"/>
<text text-anchor="start" x="729.3807" y="-671.1032" font-family="Helvetica,sans-Serif" font-size="11.00" fill="#000000">531 rows</text>
<polygon fill="#ffffff" stroke="transparent" points="777,-665.0032 777,-684.0032 829,-684.0032 829,-665.0032 777,-665.0032"/>
<polygon fill="none" stroke="#000000" points="777,-665.0032 777,-684.0032 829,-684.0032 829,-665.0032 777,-665.0032"/>
<text text-anchor="start" x="819.8862" y="-671.1032" font-family="Helvetica,sans-Serif" font-size="11.00" fill="#000000"> &#160;</text>
</a>
</g>
</g>
<!-- sahulchar_units_points_EPSG3857&#45;&gt;global_UnitMaster -->
<g id="edge48" class="edge">
<title>sahulchar_units_points_EPSG3857:w&#45;&gt;global_UnitMaster:e</title>
<path fill="none" stroke="#000000" stroke-dasharray="5,2" d="M578.6014,-692.2387C532.3771,-685.4011 500.022,-634.172 482.8465,-598.5728"/>
<polygon fill="#000000" stroke="#000000" points="588.4954,-688.9553 587.9089,-696.9337 586.3132,-696.8164 586.8998,-688.8379 588.4954,-688.9553"/>
<polyline fill="none" stroke="#000000" points="589,-693.0032 585.0108,-692.7099 "/>
<ellipse fill="none" stroke="#000000" cx="581.8194" cy="-692.4752" rx="3.2" ry="3.2"/>
</g>
</g>
</svg>
