<?xml version="1.0" encoding="UTF-8" standalone="no"?>
<!DOCTYPE svg PUBLIC "-//W3C//DTD SVG 1.1//EN"
 "http://www.w3.org/Graphics/SVG/1.1/DTD/svg11.dtd">
<!-- Generated by graphviz version 2.40.1 (20161225.0304)
 -->
<!-- Title: twoDegreesRelationshipsDiagram Pages: 1 -->
<svg width="835pt" height="863pt"
 viewBox="0.00 0.00 835.00 863.20" xmlns="http://www.w3.org/2000/svg" xmlns:xlink="http://www.w3.org/1999/xlink">
<g id="graph0" class="graph" transform="scale(1 1) rotate(0) translate(4 859.2)">
<title>twoDegreesRelationshipsDiagram</title>
<polygon fill="#ffffff" stroke="transparent" points="-4,4 -4,-859.2 831,-859.2 831,4 -4,4"/>
<text text-anchor="middle" x="72.4936" y="-7.3" font-family="Helvetica,sans-Serif" font-size="11.00" fill="#000000">Generated by SchemaSpy</text>
<!-- cabah_ecolgroupID -->
<g id="node1" class="node">
<title>cabah_ecolgroupID</title>
<g id="a_node1"><a xlink:href="../../tables/cabah_ecolgroupID.html" xlink:title="cabah_ecolgroupID" target="_top">
<polygon fill="#ffffff" stroke="transparent" points="248.5,-790.2 248.5,-851.2 398.5,-851.2 398.5,-790.2 248.5,-790.2"/>
<polygon fill="#f5f5f5" stroke="transparent" points="248.5,-827.7 248.5,-850.7 398.5,-850.7 398.5,-827.7 248.5,-827.7"/>
<polygon fill="none" stroke="#000000" points="248.5,-827.7 248.5,-850.7 398.5,-850.7 398.5,-827.7 248.5,-827.7"/>
<text text-anchor="start" x="253.5" y="-836.3" font-family="Helvetica,sans-Serif" font-weight="bold" font-size="11.00" fill="#000000">cabah_ecolgroupID</text>
<text text-anchor="start" x="364.0219" y="-835.8" font-family="Helvetica,sans-Serif" font-size="11.00" fill="#000000">[table]</text>
<polygon fill="none" stroke="#000000" points="248.5,-808.7 248.5,-827.7 398.5,-827.7 398.5,-808.7 248.5,-808.7"/>
<text text-anchor="start" x="251.5" y="-814.8" font-family="Helvetica,sans-Serif" font-size="11.00" fill="#000000">...</text>
<polygon fill="#ffffff" stroke="transparent" points="248.5,-789.7 248.5,-808.7 302.5,-808.7 302.5,-789.7 248.5,-789.7"/>
<polygon fill="none" stroke="#000000" points="248.5,-789.7 248.5,-808.7 302.5,-808.7 302.5,-789.7 248.5,-789.7"/>
<text text-anchor="start" x="251.5" y="-795.8" font-family="Helvetica,sans-Serif" font-size="11.00" fill="#000000">&lt; 1</text>
<polygon fill="#ffffff" stroke="transparent" points="302.5,-789.7 302.5,-808.7 369.5,-808.7 369.5,-789.7 302.5,-789.7"/>
<polygon fill="none" stroke="#000000" points="302.5,-789.7 302.5,-808.7 369.5,-808.7 369.5,-789.7 302.5,-789.7"/>
<text text-anchor="start" x="321.8807" y="-795.8" font-family="Helvetica,sans-Serif" font-size="11.00" fill="#000000">194 rows</text>
<polygon fill="#ffffff" stroke="transparent" points="369.5,-789.7 369.5,-808.7 398.5,-808.7 398.5,-789.7 369.5,-789.7"/>
<polygon fill="none" stroke="#000000" points="369.5,-789.7 369.5,-808.7 398.5,-808.7 398.5,-789.7 369.5,-789.7"/>
<text text-anchor="start" x="389.3862" y="-795.8" font-family="Helvetica,sans-Serif" font-size="11.00" fill="#000000"> &#160;</text>
</a>
</g>
</g>
<!-- cabah_datasourceID -->
<g id="node2" class="node">
<title>cabah_datasourceID</title>
<g id="a_node2"><a xlink:href="../../tables/cabah_datasourceID.html" xlink:title="cabah_datasourceID" target="_top">
<polygon fill="#ffffff" stroke="transparent" points="8,-542.2 8,-647.2 164,-647.2 164,-542.2 8,-542.2"/>
<polygon fill="#f5f5f5" stroke="transparent" points="8,-623.7 8,-646.7 164,-646.7 164,-623.7 8,-623.7"/>
<polygon fill="none" stroke="#000000" points="8,-623.7 8,-646.7 164,-646.7 164,-623.7 8,-623.7"/>
<text text-anchor="start" x="13" y="-632.3" font-family="Helvetica,sans-Serif" font-weight="bold" font-size="11.00" fill="#000000">cabah_datasourceID</text>
<text text-anchor="start" x="129.5219" y="-631.8" font-family="Helvetica,sans-Serif" font-size="11.00" fill="#000000">[table]</text>
<polygon fill="none" stroke="#000000" points="8,-601.7 8,-623.7 164,-623.7 164,-601.7 8,-601.7"/>
<image xlink:href="../../images/primaryKeys.png" width="11px" height="12px" preserveAspectRatio="xMinYMin meet" x="13" y="-618.7"/>
<text text-anchor="start" x="37" y="-608.8" font-family="Helvetica,sans-Serif" font-size="11.00" fill="#000000">DATASRCID</text>
<polygon fill="#ffffff" stroke="transparent" points="8,-579.7 8,-601.7 164,-601.7 164,-579.7 8,-579.7"/>
<polygon fill="none" stroke="#000000" points="8,-579.7 8,-601.7 164,-601.7 164,-579.7 8,-579.7"/>
<text text-anchor="start" x="37" y="-586.8" font-family="Helvetica,sans-Serif" font-size="11.00" fill="#000000">DATASOURCE</text>
<polygon fill="none" stroke="#000000" points="8,-560.7 8,-579.7 164,-579.7 164,-560.7 8,-560.7"/>
<text text-anchor="start" x="11" y="-566.8" font-family="Helvetica,sans-Serif" font-size="11.00" fill="#000000">...</text>
<polygon fill="#ffffff" stroke="transparent" points="8,-541.7 8,-560.7 59,-560.7 59,-541.7 8,-541.7"/>
<polygon fill="none" stroke="#000000" points="8,-541.7 8,-560.7 59,-560.7 59,-541.7 8,-541.7"/>
<text text-anchor="start" x="11" y="-547.8" font-family="Helvetica,sans-Serif" font-size="11.00" fill="#000000"> &#160;</text>
<polygon fill="#ffffff" stroke="transparent" points="59,-541.7 59,-560.7 123,-560.7 123,-541.7 59,-541.7"/>
<polygon fill="none" stroke="#000000" points="59,-541.7 59,-560.7 123,-560.7 123,-541.7 59,-541.7"/>
<text text-anchor="start" x="81.4956" y="-547.8" font-family="Helvetica,sans-Serif" font-size="11.00" fill="#000000">11 rows</text>
<polygon fill="#ffffff" stroke="transparent" points="123,-541.7 123,-560.7 164,-560.7 164,-541.7 123,-541.7"/>
<polygon fill="none" stroke="#000000" points="123,-541.7 123,-560.7 164,-560.7 164,-541.7 123,-541.7"/>
<text text-anchor="start" x="145.4053" y="-547.8" font-family="Helvetica,sans-Serif" font-size="11.00" fill="#000000">6 &gt;</text>
</a>
</g>
</g>
<!-- cabah_ecolgroupID&#45;&gt;cabah_datasourceID -->
<g id="edge1" class="edge">
<title>cabah_ecolgroupID:w&#45;&gt;cabah_datasourceID:e</title>
<path fill="none" stroke="#000000" d="M233.9651,-815.3439C220.343,-810.117 215.3232,-796.6605 205,-779.7 165.264,-714.4157 240.4264,-612.7 164,-612.7"/>
<polygon fill="#000000" stroke="#000000" points="240.6031,-816.4199 247.9239,-821.2536 244.5515,-817.0599 248.5,-817.7 248.5,-817.7 248.5,-817.7 244.5515,-817.0599 249.0761,-814.1464 240.6031,-816.4199 240.6031,-816.4199"/>
<ellipse fill="none" stroke="#000000" cx="237.4443" cy="-815.9078" rx="3.2" ry="3.2"/>
</g>
<!-- cabah_taxagroupID -->
<g id="node3" class="node">
<title>cabah_taxagroupID</title>
<g id="a_node3"><a xlink:href="../../tables/cabah_taxagroupID.html" xlink:title="cabah_taxagroupID" target="_top">
<polygon fill="#ffffff" stroke="transparent" points="248.5,-708.2 248.5,-769.2 398.5,-769.2 398.5,-708.2 248.5,-708.2"/>
<polygon fill="#f5f5f5" stroke="transparent" points="248.5,-745.7 248.5,-768.7 398.5,-768.7 398.5,-745.7 248.5,-745.7"/>
<polygon fill="none" stroke="#000000" points="248.5,-745.7 248.5,-768.7 398.5,-768.7 398.5,-745.7 248.5,-745.7"/>
<text text-anchor="start" x="253.5" y="-754.3" font-family="Helvetica,sans-Serif" font-weight="bold" font-size="11.00" fill="#000000">cabah_taxagroupID</text>
<text text-anchor="start" x="364.0219" y="-753.8" font-family="Helvetica,sans-Serif" font-size="11.00" fill="#000000">[table]</text>
<polygon fill="none" stroke="#000000" points="248.5,-726.7 248.5,-745.7 398.5,-745.7 398.5,-726.7 248.5,-726.7"/>
<text text-anchor="start" x="251.5" y="-732.8" font-family="Helvetica,sans-Serif" font-size="11.00" fill="#000000">...</text>
<polygon fill="#ffffff" stroke="transparent" points="248.5,-707.7 248.5,-726.7 301.5,-726.7 301.5,-707.7 248.5,-707.7"/>
<polygon fill="none" stroke="#000000" points="248.5,-707.7 248.5,-726.7 301.5,-726.7 301.5,-707.7 248.5,-707.7"/>
<text text-anchor="start" x="251.5" y="-713.8" font-family="Helvetica,sans-Serif" font-size="11.00" fill="#000000">&lt; 1</text>
<polygon fill="#ffffff" stroke="transparent" points="301.5,-707.7 301.5,-726.7 361.5,-726.7 361.5,-707.7 301.5,-707.7"/>
<polygon fill="none" stroke="#000000" points="301.5,-707.7 301.5,-726.7 361.5,-726.7 361.5,-707.7 301.5,-707.7"/>
<text text-anchor="start" x="319.9956" y="-713.8" font-family="Helvetica,sans-Serif" font-size="11.00" fill="#000000">56 rows</text>
<polygon fill="#ffffff" stroke="transparent" points="361.5,-707.7 361.5,-726.7 398.5,-726.7 398.5,-707.7 361.5,-707.7"/>
<polygon fill="none" stroke="#000000" points="361.5,-707.7 361.5,-726.7 398.5,-726.7 398.5,-707.7 361.5,-707.7"/>
<text text-anchor="start" x="379.9053" y="-713.8" font-family="Helvetica,sans-Serif" font-size="11.00" fill="#000000">1 &gt;</text>
</a>
</g>
</g>
<!-- cabah_taxagroupID&#45;&gt;cabah_datasourceID -->
<g id="edge2" class="edge">
<title>cabah_taxagroupID:w&#45;&gt;cabah_datasourceID:e</title>
<path fill="none" stroke="#000000" d="M234.2285,-733.1642C221.1179,-727.588 217.0335,-713.493 205,-697.7 179.5798,-664.338 205.9429,-612.7 164,-612.7"/>
<polygon fill="#000000" stroke="#000000" points="240.6234,-734.3004 247.8702,-739.2445 244.5617,-735.0002 248.5,-735.7 248.5,-735.7 248.5,-735.7 244.5617,-735.0002 249.1298,-732.1555 240.6234,-734.3004 240.6234,-734.3004"/>
<ellipse fill="none" stroke="#000000" cx="237.4727" cy="-733.7406" rx="3.2" ry="3.2"/>
</g>
<!-- char_DataCore -->
<g id="node4" class="node">
<title>char_DataCore</title>
<g id="a_node4"><a xlink:href="../../tables/char_DataCore.html" xlink:title="char_DataCore" target="_top">
<polygon fill="#ffffff" stroke="transparent" points="261.5,-626.2 261.5,-687.2 385.5,-687.2 385.5,-626.2 261.5,-626.2"/>
<polygon fill="#f5f5f5" stroke="transparent" points="261.5,-663.7 261.5,-686.7 385.5,-686.7 385.5,-663.7 261.5,-663.7"/>
<polygon fill="none" stroke="#000000" points="261.5,-663.7 261.5,-686.7 385.5,-686.7 385.5,-663.7 261.5,-663.7"/>
<text text-anchor="start" x="266.5" y="-672.3" font-family="Helvetica,sans-Serif" font-weight="bold" font-size="11.00" fill="#000000">char_DataCore</text>
<text text-anchor="start" x="351.0219" y="-671.8" font-family="Helvetica,sans-Serif" font-size="11.00" fill="#000000">[table]</text>
<polygon fill="none" stroke="#000000" points="261.5,-644.7 261.5,-663.7 385.5,-663.7 385.5,-644.7 261.5,-644.7"/>
<text text-anchor="start" x="264.5" y="-650.8" font-family="Helvetica,sans-Serif" font-size="11.00" fill="#000000">...</text>
<polygon fill="#ffffff" stroke="transparent" points="261.5,-625.7 261.5,-644.7 298.5,-644.7 298.5,-625.7 261.5,-625.7"/>
<polygon fill="none" stroke="#000000" points="261.5,-625.7 261.5,-644.7 298.5,-644.7 298.5,-625.7 261.5,-625.7"/>
<text text-anchor="start" x="264.5" y="-631.8" font-family="Helvetica,sans-Serif" font-size="11.00" fill="#000000">&lt; 16</text>
<polygon fill="#ffffff" stroke="transparent" points="298.5,-625.7 298.5,-644.7 368.5,-644.7 368.5,-625.7 298.5,-625.7"/>
<polygon fill="none" stroke="#000000" points="298.5,-625.7 298.5,-644.7 368.5,-644.7 368.5,-625.7 298.5,-625.7"/>
<text text-anchor="start" x="305.594" y="-631.8" font-family="Helvetica,sans-Serif" font-size="11.00" fill="#000000">48.234 rows</text>
<polygon fill="#ffffff" stroke="transparent" points="368.5,-625.7 368.5,-644.7 385.5,-644.7 385.5,-625.7 368.5,-625.7"/>
<polygon fill="none" stroke="#000000" points="368.5,-625.7 368.5,-644.7 385.5,-644.7 385.5,-625.7 368.5,-625.7"/>
<text text-anchor="start" x="376.3862" y="-631.8" font-family="Helvetica,sans-Serif" font-size="11.00" fill="#000000"> &#160;</text>
</a>
</g>
</g>
<!-- char_DataCore&#45;&gt;cabah_datasourceID -->
<g id="edge3" class="edge">
<title>char_DataCore:w&#45;&gt;cabah_datasourceID:e</title>
<path fill="none" stroke="#000000" d="M247.0735,-652.2408C213.1437,-644.9371 205.6836,-612.7 164,-612.7"/>
<polygon fill="#000000" stroke="#000000" points="253.5406,-652.8949 261.1377,-657.2817 257.5203,-653.2974 261.5,-653.7 261.5,-653.7 261.5,-653.7 257.5203,-653.2974 261.8623,-650.1183 253.5406,-652.8949 253.5406,-652.8949"/>
<ellipse fill="none" stroke="#000000" cx="250.3569" cy="-652.5728" rx="3.2" ry="3.2"/>
</g>
<!-- global_DataSetMaster -->
<g id="node5" class="node">
<title>global_DataSetMaster</title>
<g id="a_node5"><a xlink:href="../../tables/global_DataSetMaster.html" xlink:title="global_DataSetMaster" target="_top">
<polygon fill="#ffffff" stroke="transparent" points="241.5,-544.2 241.5,-605.2 405.5,-605.2 405.5,-544.2 241.5,-544.2"/>
<polygon fill="#f5f5f5" stroke="transparent" points="241.5,-581.7 241.5,-604.7 405.5,-604.7 405.5,-581.7 241.5,-581.7"/>
<polygon fill="none" stroke="#000000" points="241.5,-581.7 241.5,-604.7 405.5,-604.7 405.5,-581.7 241.5,-581.7"/>
<text text-anchor="start" x="246.5" y="-590.3" font-family="Helvetica,sans-Serif" font-weight="bold" font-size="11.00" fill="#000000">global_DataSetMaster</text>
<text text-anchor="start" x="371.0219" y="-589.8" font-family="Helvetica,sans-Serif" font-size="11.00" fill="#000000">[table]</text>
<polygon fill="none" stroke="#000000" points="241.5,-562.7 241.5,-581.7 405.5,-581.7 405.5,-562.7 241.5,-562.7"/>
<text text-anchor="start" x="244.5" y="-568.8" font-family="Helvetica,sans-Serif" font-size="11.00" fill="#000000">...</text>
<polygon fill="#ffffff" stroke="transparent" points="241.5,-543.7 241.5,-562.7 298.5,-562.7 298.5,-543.7 241.5,-543.7"/>
<polygon fill="none" stroke="#000000" points="241.5,-543.7 241.5,-562.7 298.5,-562.7 298.5,-543.7 241.5,-543.7"/>
<text text-anchor="start" x="244.5" y="-549.8" font-family="Helvetica,sans-Serif" font-size="11.00" fill="#000000">&lt; 3</text>
<polygon fill="#ffffff" stroke="transparent" points="298.5,-543.7 298.5,-562.7 366.5,-562.7 366.5,-543.7 298.5,-543.7"/>
<polygon fill="none" stroke="#000000" points="298.5,-543.7 298.5,-562.7 366.5,-562.7 366.5,-543.7 298.5,-543.7"/>
<text text-anchor="start" x="318.8807" y="-549.8" font-family="Helvetica,sans-Serif" font-size="11.00" fill="#000000">311 rows</text>
<polygon fill="#ffffff" stroke="transparent" points="366.5,-543.7 366.5,-562.7 405.5,-562.7 405.5,-543.7 366.5,-543.7"/>
<polygon fill="none" stroke="#000000" points="366.5,-543.7 366.5,-562.7 405.5,-562.7 405.5,-543.7 366.5,-543.7"/>
<text text-anchor="start" x="386.9053" y="-549.8" font-family="Helvetica,sans-Serif" font-size="11.00" fill="#000000">2 &gt;</text>
</a>
</g>
</g>
<!-- global_DataSetMaster&#45;&gt;cabah_datasourceID -->
<g id="edge4" class="edge">
<title>global_DataSetMaster:w&#45;&gt;cabah_datasourceID:e</title>
<path fill="none" stroke="#000000" d="M227.179,-573.9043C201.8756,-582.4205 197.4877,-612.7 164,-612.7"/>
<polygon fill="#000000" stroke="#000000" points="233.5931,-572.9171 242.0477,-575.2581 237.5466,-572.3086 241.5,-571.7 241.5,-571.7 241.5,-571.7 237.5466,-572.3086 240.9523,-568.1419 233.5931,-572.9171 233.5931,-572.9171"/>
<ellipse fill="none" stroke="#000000" cx="230.4304" cy="-573.4039" rx="3.2" ry="3.2"/>
</g>
<!-- global_MetaSite -->
<g id="node6" class="node">
<title>global_MetaSite</title>
<g id="a_node6"><a xlink:href="../../tables/global_MetaSite.html" xlink:title="global_MetaSite" target="_top">
<polygon fill="#ffffff" stroke="transparent" points="258.5,-462.2 258.5,-523.2 388.5,-523.2 388.5,-462.2 258.5,-462.2"/>
<polygon fill="#f5f5f5" stroke="transparent" points="258.5,-499.7 258.5,-522.7 388.5,-522.7 388.5,-499.7 258.5,-499.7"/>
<polygon fill="none" stroke="#000000" points="258.5,-499.7 258.5,-522.7 388.5,-522.7 388.5,-499.7 258.5,-499.7"/>
<text text-anchor="start" x="263.5" y="-508.3" font-family="Helvetica,sans-Serif" font-weight="bold" font-size="11.00" fill="#000000">global_MetaSite</text>
<text text-anchor="start" x="354.0219" y="-507.8" font-family="Helvetica,sans-Serif" font-size="11.00" fill="#000000">[table]</text>
<polygon fill="none" stroke="#000000" points="258.5,-480.7 258.5,-499.7 388.5,-499.7 388.5,-480.7 258.5,-480.7"/>
<text text-anchor="start" x="261.5" y="-486.8" font-family="Helvetica,sans-Serif" font-size="11.00" fill="#000000">...</text>
<polygon fill="#ffffff" stroke="transparent" points="258.5,-461.7 258.5,-480.7 290.5,-480.7 290.5,-461.7 258.5,-461.7"/>
<polygon fill="none" stroke="#000000" points="258.5,-461.7 258.5,-480.7 290.5,-480.7 290.5,-461.7 258.5,-461.7"/>
<text text-anchor="start" x="261.5" y="-467.8" font-family="Helvetica,sans-Serif" font-size="11.00" fill="#000000">&lt; 2</text>
<polygon fill="#ffffff" stroke="transparent" points="290.5,-461.7 290.5,-480.7 361.5,-480.7 361.5,-461.7 290.5,-461.7"/>
<polygon fill="none" stroke="#000000" points="290.5,-461.7 290.5,-480.7 361.5,-480.7 361.5,-461.7 290.5,-461.7"/>
<text text-anchor="start" x="298.594" y="-467.8" font-family="Helvetica,sans-Serif" font-size="11.00" fill="#000000">12.144 rows</text>
<polygon fill="#ffffff" stroke="transparent" points="361.5,-461.7 361.5,-480.7 388.5,-480.7 388.5,-461.7 361.5,-461.7"/>
<polygon fill="none" stroke="#000000" points="361.5,-461.7 361.5,-480.7 388.5,-480.7 388.5,-461.7 361.5,-461.7"/>
<text text-anchor="start" x="369.9053" y="-467.8" font-family="Helvetica,sans-Serif" font-size="11.00" fill="#000000">1 &gt;</text>
</a>
</g>
</g>
<!-- global_MetaSite&#45;&gt;cabah_datasourceID -->
<g id="edge5" class="edge">
<title>global_MetaSite:w&#45;&gt;cabah_datasourceID:e</title>
<path fill="none" stroke="#000000" d="M244.0497,-491.6294C225.9466,-497.2006 220.8164,-514.1662 205,-533.7 180.107,-564.4437 203.5581,-612.7 164,-612.7"/>
<polygon fill="#000000" stroke="#000000" points="250.5704,-490.7588 258.9765,-493.2683 254.5352,-490.2294 258.5,-489.7 258.5,-489.7 258.5,-489.7 254.5352,-490.2294 258.0235,-486.1317 250.5704,-490.7588 250.5704,-490.7588"/>
<ellipse fill="none" stroke="#000000" cx="247.3985" cy="-491.1824" rx="3.2" ry="3.2"/>
</g>
<!-- ippd_variables -->
<g id="node7" class="node">
<title>ippd_variables</title>
<g id="a_node7"><a xlink:href="../../tables/ippd_variables.html" xlink:title="ippd_variables" target="_top">
<polygon fill="#ffffff" stroke="transparent" points="696,-216.2 696,-277.2 819,-277.2 819,-216.2 696,-216.2"/>
<polygon fill="#f5f5f5" stroke="transparent" points="696.5,-253.7 696.5,-276.7 819.5,-276.7 819.5,-253.7 696.5,-253.7"/>
<polygon fill="none" stroke="#000000" points="696.5,-253.7 696.5,-276.7 819.5,-276.7 819.5,-253.7 696.5,-253.7"/>
<text text-anchor="start" x="701.5" y="-262.3" font-family="Helvetica,sans-Serif" font-weight="bold" font-size="11.00" fill="#000000">ippd_variables</text>
<text text-anchor="start" x="785.0219" y="-261.8" font-family="Helvetica,sans-Serif" font-size="11.00" fill="#000000">[table]</text>
<polygon fill="none" stroke="#000000" points="696.5,-234.7 696.5,-253.7 819.5,-253.7 819.5,-234.7 696.5,-234.7"/>
<text text-anchor="start" x="699.5" y="-240.8" font-family="Helvetica,sans-Serif" font-size="11.00" fill="#000000">...</text>
<polygon fill="#ffffff" stroke="transparent" points="696.5,-215.7 696.5,-234.7 728.5,-234.7 728.5,-215.7 696.5,-215.7"/>
<polygon fill="none" stroke="#000000" points="696.5,-215.7 696.5,-234.7 728.5,-234.7 728.5,-215.7 696.5,-215.7"/>
<text text-anchor="start" x="699.5" y="-221.8" font-family="Helvetica,sans-Serif" font-size="11.00" fill="#000000">&lt; 4</text>
<polygon fill="#ffffff" stroke="transparent" points="728.5,-215.7 728.5,-234.7 792.5,-234.7 792.5,-215.7 728.5,-215.7"/>
<polygon fill="none" stroke="#000000" points="728.5,-215.7 728.5,-234.7 792.5,-234.7 792.5,-215.7 728.5,-215.7"/>
<text text-anchor="start" x="735.7089" y="-221.8" font-family="Helvetica,sans-Serif" font-size="11.00" fill="#000000">2.734 rows</text>
<polygon fill="#ffffff" stroke="transparent" points="792.5,-215.7 792.5,-234.7 819.5,-234.7 819.5,-215.7 792.5,-215.7"/>
<polygon fill="none" stroke="#000000" points="792.5,-215.7 792.5,-234.7 819.5,-234.7 819.5,-215.7 792.5,-215.7"/>
<text text-anchor="start" x="800.9053" y="-221.8" font-family="Helvetica,sans-Serif" font-size="11.00" fill="#000000">1 &gt;</text>
</a>
</g>
</g>
<!-- neo_variableelements -->
<g id="node8" class="node">
<title>neo_variableelements</title>
<g id="a_node8"><a xlink:href="../../tables/neo_variableelements.html" xlink:title="neo_variableelements" target="_top">
<polygon fill="#ffffff" stroke="transparent" points="483,-107.2 483,-278.2 647,-278.2 647,-107.2 483,-107.2"/>
<polygon fill="#f5f5f5" stroke="transparent" points="483,-254.7 483,-277.7 647,-277.7 647,-254.7 483,-254.7"/>
<polygon fill="none" stroke="#000000" points="483,-254.7 483,-277.7 647,-277.7 647,-254.7 483,-254.7"/>
<text text-anchor="start" x="488" y="-263.3" font-family="Helvetica,sans-Serif" font-weight="bold" font-size="11.00" fill="#000000">neo_variableelements</text>
<text text-anchor="start" x="612.5219" y="-262.8" font-family="Helvetica,sans-Serif" font-size="11.00" fill="#000000">[table]</text>
<polygon fill="none" stroke="#000000" points="483,-232.7 483,-254.7 647,-254.7 647,-232.7 483,-232.7"/>
<image xlink:href="../../images/primaryKeys.png" width="11px" height="12px" preserveAspectRatio="xMinYMin meet" x="488" y="-249.7"/>
<text text-anchor="start" x="512" y="-239.8" font-family="Helvetica,sans-Serif" font-size="11.00" fill="#000000">VARELEMTID</text>
<polygon fill="none" stroke="#000000" points="483,-210.7 483,-232.7 647,-232.7 647,-210.7 483,-210.7"/>
<image xlink:href="../../images/foreignKeys.png" width="11px" height="12px" preserveAspectRatio="xMinYMin meet" x="488" y="-227.7"/>
<text text-anchor="start" x="512" y="-217.8" font-family="Helvetica,sans-Serif" font-size="11.00" fill="#000000">ELEMTYPEID</text>
<polygon fill="none" stroke="#000000" points="483,-188.7 483,-210.7 647,-210.7 647,-188.7 483,-188.7"/>
<image xlink:href="../../images/foreignKeys.png" width="11px" height="12px" preserveAspectRatio="xMinYMin meet" x="488" y="-205.7"/>
<text text-anchor="start" x="512" y="-195.8" font-family="Helvetica,sans-Serif" font-size="11.00" fill="#000000">SYMMETRYID</text>
<polygon fill="none" stroke="#000000" points="483,-166.7 483,-188.7 647,-188.7 647,-166.7 483,-166.7"/>
<image xlink:href="../../images/foreignKeys.png" width="11px" height="12px" preserveAspectRatio="xMinYMin meet" x="488" y="-183.7"/>
<text text-anchor="start" x="512" y="-173.8" font-family="Helvetica,sans-Serif" font-size="11.00" fill="#000000">PORTIONID</text>
<polygon fill="none" stroke="#000000" points="483,-144.7 483,-166.7 647,-166.7 647,-144.7 483,-144.7"/>
<image xlink:href="../../images/foreignKeys.png" width="11px" height="12px" preserveAspectRatio="xMinYMin meet" x="488" y="-161.7"/>
<text text-anchor="start" x="512" y="-151.8" font-family="Helvetica,sans-Serif" font-size="11.00" fill="#000000">MATURITYID</text>
<polygon fill="none" stroke="#000000" points="483,-125.7 483,-144.7 647,-144.7 647,-125.7 483,-125.7"/>
<text text-anchor="start" x="486" y="-131.8" font-family="Helvetica,sans-Serif" font-size="11.00" fill="#000000">...</text>
<polygon fill="#ffffff" stroke="transparent" points="483,-106.7 483,-125.7 540,-125.7 540,-106.7 483,-106.7"/>
<polygon fill="none" stroke="#000000" points="483,-106.7 483,-125.7 540,-125.7 540,-106.7 483,-106.7"/>
<text text-anchor="start" x="486" y="-112.8" font-family="Helvetica,sans-Serif" font-size="11.00" fill="#000000">&lt; 4</text>
<polygon fill="#ffffff" stroke="transparent" points="540,-106.7 540,-125.7 608,-125.7 608,-106.7 540,-106.7"/>
<polygon fill="none" stroke="#000000" points="540,-106.7 540,-125.7 608,-125.7 608,-106.7 540,-106.7"/>
<text text-anchor="start" x="560.3807" y="-112.8" font-family="Helvetica,sans-Serif" font-size="11.00" fill="#000000">983 rows</text>
<polygon fill="#ffffff" stroke="transparent" points="608,-106.7 608,-125.7 647,-125.7 647,-106.7 608,-106.7"/>
<polygon fill="none" stroke="#000000" points="608,-106.7 608,-125.7 647,-125.7 647,-106.7 608,-106.7"/>
<text text-anchor="start" x="628.4053" y="-112.8" font-family="Helvetica,sans-Serif" font-size="11.00" fill="#000000">1 &gt;</text>
</a>
</g>
</g>
<!-- ippd_variables&#45;&gt;neo_variableelements -->
<g id="edge6" class="edge">
<title>ippd_variables:w&#45;&gt;neo_variableelements:e</title>
<path fill="none" stroke="#000000" d="M681.8428,-243.7C670.4139,-243.7 663.1563,-243.7 647,-243.7"/>
<polygon fill="#000000" stroke="#000000" points="688.5,-243.7001 696.5,-247.3 692.5,-243.7 696.5,-243.7 696.5,-243.7 696.5,-243.7 692.5,-243.7 696.5,-240.1 688.5,-243.7001 688.5,-243.7001"/>
<ellipse fill="none" stroke="#000000" cx="685.3" cy="-243.7001" rx="3.2" ry="3.2"/>
</g>
<!-- neo_elementtypes -->
<g id="node9" class="node">
<title>neo_elementtypes</title>
<g id="a_node9"><a xlink:href="../../tables/neo_elementtypes.html" xlink:title="neo_elementtypes" target="_top">
<polygon fill="#ffffff" stroke="transparent" points="213,-284.7 213,-440.7 434,-440.7 434,-284.7 213,-284.7"/>
<polygon fill="#f5f5f5" stroke="transparent" points="215.5,-415.7 215.5,-438.7 432.5,-438.7 432.5,-415.7 215.5,-415.7"/>
<polygon fill="none" stroke="#000000" points="215.5,-415.7 215.5,-438.7 432.5,-438.7 432.5,-415.7 215.5,-415.7"/>
<text text-anchor="start" x="220.5" y="-424.3" font-family="Helvetica,sans-Serif" font-weight="bold" font-size="11.00" fill="#000000">neo_elementtypes</text>
<text text-anchor="start" x="397.5437" y="-423.8" font-family="Helvetica,sans-Serif" font-size="11.00" fill="#000000">[table]</text>
<polygon fill="none" stroke="#000000" points="215.5,-393.7 215.5,-415.7 340.5,-415.7 340.5,-393.7 215.5,-393.7"/>
<image xlink:href="../../images/primaryKeys.png" width="11px" height="12px" preserveAspectRatio="xMinYMin meet" x="220.5" y="-410.7"/>
<text text-anchor="start" x="235.5" y="-400.8" font-family="Helvetica,sans-Serif" font-size="11.00" fill="#000000">ELEMTYPEID</text>
<polygon fill="none" stroke="#000000" points="340.5,-393.7 340.5,-415.7 432.5,-415.7 432.5,-393.7 340.5,-393.7"/>
<text text-anchor="start" x="343.5" y="-401.4" font-family="Helvetica,sans-Serif" font-size="11.00" fill="#000000">int4[10]</text>
<polygon fill="none" stroke="#000000" points="215.5,-371.7 215.5,-393.7 340.5,-393.7 340.5,-371.7 215.5,-371.7"/>
<text text-anchor="start" x="235.5" y="-378.8" font-family="Helvetica,sans-Serif" font-size="11.00" fill="#000000">ELEMENTYPE</text>
<polygon fill="none" stroke="#000000" points="340.5,-371.7 340.5,-393.7 432.5,-393.7 432.5,-371.7 340.5,-371.7"/>
<text text-anchor="start" x="343.5" y="-379.4" font-family="Helvetica,sans-Serif" font-size="11.00" fill="#000000">text[2147483647]</text>
<polygon fill="none" stroke="#000000" points="215.5,-349.7 215.5,-371.7 340.5,-371.7 340.5,-349.7 215.5,-349.7"/>
<image xlink:href="../../images/foreignKeys.png" width="11px" height="12px" preserveAspectRatio="xMinYMin meet" x="220.5" y="-366.7"/>
<text text-anchor="start" x="235.5" y="-356.8" font-family="Helvetica,sans-Serif" font-size="11.00" fill="#000000">DATASRCID</text>
<polygon fill="none" stroke="#000000" points="340.5,-349.7 340.5,-371.7 432.5,-371.7 432.5,-349.7 340.5,-349.7"/>
<text text-anchor="start" x="343.5" y="-357.4" font-family="Helvetica,sans-Serif" font-size="11.00" fill="#000000">int2[5]</text>
<polygon fill="none" stroke="#000000" points="215.5,-327.7 215.5,-349.7 340.5,-349.7 340.5,-327.7 215.5,-327.7"/>
<text text-anchor="start" x="235.5" y="-334.8" font-family="Helvetica,sans-Serif" font-size="11.00" fill="#000000">CREATED_AT</text>
<polygon fill="none" stroke="#000000" points="340.5,-327.7 340.5,-349.7 432.5,-349.7 432.5,-327.7 340.5,-327.7"/>
<text text-anchor="start" x="343.1023" y="-335.4" font-family="Helvetica,sans-Serif" font-size="11.00" fill="#000000">timestamptz[35,6]</text>
<polygon fill="none" stroke="#000000" points="215.5,-305.7 215.5,-327.7 340.5,-327.7 340.5,-305.7 215.5,-305.7"/>
<text text-anchor="start" x="235.5" y="-312.8" font-family="Helvetica,sans-Serif" font-size="11.00" fill="#000000">UPDATED_AT</text>
<polygon fill="none" stroke="#000000" points="340.5,-305.7 340.5,-327.7 432.5,-327.7 432.5,-305.7 340.5,-305.7"/>
<text text-anchor="start" x="343.1023" y="-313.4" font-family="Helvetica,sans-Serif" font-size="11.00" fill="#000000">timestamptz[35,6]</text>
<polygon fill="#ffffff" stroke="transparent" points="215.5,-286.7 215.5,-305.7 263.5,-305.7 263.5,-286.7 215.5,-286.7"/>
<polygon fill="none" stroke="#000000" points="215.5,-286.7 215.5,-305.7 263.5,-305.7 263.5,-286.7 215.5,-286.7"/>
<text text-anchor="start" x="218.5" y="-292.8" font-family="Helvetica,sans-Serif" font-size="11.00" fill="#000000">&lt; 1</text>
<polygon fill="#ffffff" stroke="transparent" points="263.5,-286.7 263.5,-305.7 340.5,-305.7 340.5,-286.7 263.5,-286.7"/>
<polygon fill="none" stroke="#000000" points="263.5,-286.7 263.5,-305.7 340.5,-305.7 340.5,-286.7 263.5,-286.7"/>
<text text-anchor="start" x="292.8807" y="-292.8" font-family="Helvetica,sans-Serif" font-size="11.00" fill="#000000">939 rows</text>
<polygon fill="#ffffff" stroke="transparent" points="340.5,-286.7 340.5,-305.7 432.5,-305.7 432.5,-286.7 340.5,-286.7"/>
<polygon fill="none" stroke="#000000" points="340.5,-286.7 340.5,-305.7 432.5,-305.7 432.5,-286.7 340.5,-286.7"/>
<text text-anchor="start" x="413.9053" y="-292.8" font-family="Helvetica,sans-Serif" font-size="11.00" fill="#000000">1 &gt;</text>
<polygon fill="none" stroke="#000000" stroke-width="2" points="214,-285.7 214,-439.7 433,-439.7 433,-285.7 214,-285.7"/>
</a>
</g>
</g>
<!-- neo_variableelements&#45;&gt;neo_elementtypes -->
<g id="edge8" class="edge">
<title>neo_variableelements:w&#45;&gt;neo_elementtypes:e</title>
<path fill="none" stroke="#000000" d="M468.7531,-224.0138C413.4378,-245.1977 511.2704,-404.7 432.5,-404.7"/>
<polygon fill="#000000" stroke="#000000" points="475.1035,-222.9825 483.5771,-225.2534 479.0517,-222.3413 483,-221.7 483,-221.7 483,-221.7 479.0517,-222.3413 482.4229,-218.1466 475.1035,-222.9825 475.1035,-222.9825"/>
<ellipse fill="none" stroke="#000000" cx="471.9448" cy="-223.4955" rx="3.2" ry="3.2"/>
</g>
<!-- neo_elementmaturities -->
<g id="node10" class="node">
<title>neo_elementmaturities</title>
<g id="a_node10"><a xlink:href="../../tables/neo_elementmaturities.html" xlink:title="neo_elementmaturities" target="_top">
<polygon fill="#ffffff" stroke="transparent" points="239,-38.2 239,-99.2 408,-99.2 408,-38.2 239,-38.2"/>
<polygon fill="#f5f5f5" stroke="transparent" points="239.5,-75.7 239.5,-98.7 408.5,-98.7 408.5,-75.7 239.5,-75.7"/>
<polygon fill="none" stroke="#000000" points="239.5,-75.7 239.5,-98.7 408.5,-98.7 408.5,-75.7 239.5,-75.7"/>
<text text-anchor="start" x="244.5" y="-84.3" font-family="Helvetica,sans-Serif" font-weight="bold" font-size="11.00" fill="#000000">neo_elementmaturities</text>
<text text-anchor="start" x="374.0219" y="-83.8" font-family="Helvetica,sans-Serif" font-size="11.00" fill="#000000">[table]</text>
<polygon fill="none" stroke="#000000" points="239.5,-56.7 239.5,-75.7 408.5,-75.7 408.5,-56.7 239.5,-56.7"/>
<text text-anchor="start" x="242.5" y="-62.8" font-family="Helvetica,sans-Serif" font-size="11.00" fill="#000000">...</text>
<polygon fill="#ffffff" stroke="transparent" points="239.5,-37.7 239.5,-56.7 300.5,-56.7 300.5,-37.7 239.5,-37.7"/>
<polygon fill="none" stroke="#000000" points="239.5,-37.7 239.5,-56.7 300.5,-56.7 300.5,-37.7 239.5,-37.7"/>
<text text-anchor="start" x="242.5" y="-43.8" font-family="Helvetica,sans-Serif" font-size="11.00" fill="#000000"> &#160;</text>
<polygon fill="#ffffff" stroke="transparent" points="300.5,-37.7 300.5,-56.7 362.5,-56.7 362.5,-37.7 300.5,-37.7"/>
<polygon fill="none" stroke="#000000" points="300.5,-37.7 300.5,-56.7 362.5,-56.7 362.5,-37.7 300.5,-37.7"/>
<text text-anchor="start" x="327.1105" y="-43.8" font-family="Helvetica,sans-Serif" font-size="11.00" fill="#000000">0 rows</text>
<polygon fill="#ffffff" stroke="transparent" points="362.5,-37.7 362.5,-56.7 408.5,-56.7 408.5,-37.7 362.5,-37.7"/>
<polygon fill="none" stroke="#000000" points="362.5,-37.7 362.5,-56.7 408.5,-56.7 408.5,-37.7 362.5,-37.7"/>
<text text-anchor="start" x="389.9053" y="-43.8" font-family="Helvetica,sans-Serif" font-size="11.00" fill="#000000">1 &gt;</text>
</a>
</g>
</g>
<!-- neo_variableelements&#45;&gt;neo_elementmaturities -->
<g id="edge9" class="edge">
<title>neo_variableelements:w&#45;&gt;neo_elementmaturities:e</title>
<path fill="none" stroke="#000000" d="M468.666,-152.7055C436.5222,-137.0892 454.7469,-65.7 408.5,-65.7"/>
<polygon fill="#000000" stroke="#000000" points="475.1691,-154.064 482.2638,-159.2239 479.0845,-154.882 483,-155.7 483,-155.7 483,-155.7 479.0845,-154.882 483.7362,-152.1761 475.1691,-154.064 475.1691,-154.064"/>
<ellipse fill="none" stroke="#000000" cx="472.0367" cy="-153.4096" rx="3.2" ry="3.2"/>
</g>
<!-- neo_elementportions -->
<g id="node11" class="node">
<title>neo_elementportions</title>
<g id="a_node11"><a xlink:href="../../tables/neo_elementportions.html" xlink:title="neo_elementportions" target="_top">
<polygon fill="#ffffff" stroke="transparent" points="243.5,-120.2 243.5,-181.2 403.5,-181.2 403.5,-120.2 243.5,-120.2"/>
<polygon fill="#f5f5f5" stroke="transparent" points="243.5,-157.7 243.5,-180.7 403.5,-180.7 403.5,-157.7 243.5,-157.7"/>
<polygon fill="none" stroke="#000000" points="243.5,-157.7 243.5,-180.7 403.5,-180.7 403.5,-157.7 243.5,-157.7"/>
<text text-anchor="start" x="248.5" y="-166.3" font-family="Helvetica,sans-Serif" font-weight="bold" font-size="11.00" fill="#000000">neo_elementportions</text>
<text text-anchor="start" x="369.0219" y="-165.8" font-family="Helvetica,sans-Serif" font-size="11.00" fill="#000000">[table]</text>
<polygon fill="none" stroke="#000000" points="243.5,-138.7 243.5,-157.7 403.5,-157.7 403.5,-138.7 243.5,-138.7"/>
<text text-anchor="start" x="246.5" y="-144.8" font-family="Helvetica,sans-Serif" font-size="11.00" fill="#000000">...</text>
<polygon fill="#ffffff" stroke="transparent" points="243.5,-119.7 243.5,-138.7 296.5,-138.7 296.5,-119.7 243.5,-119.7"/>
<polygon fill="none" stroke="#000000" points="243.5,-119.7 243.5,-138.7 296.5,-138.7 296.5,-119.7 243.5,-119.7"/>
<text text-anchor="start" x="246.5" y="-125.8" font-family="Helvetica,sans-Serif" font-size="11.00" fill="#000000"> &#160;</text>
<polygon fill="#ffffff" stroke="transparent" points="296.5,-119.7 296.5,-138.7 361.5,-138.7 361.5,-119.7 296.5,-119.7"/>
<polygon fill="none" stroke="#000000" points="296.5,-119.7 296.5,-138.7 361.5,-138.7 361.5,-119.7 296.5,-119.7"/>
<text text-anchor="start" x="319.9956" y="-125.8" font-family="Helvetica,sans-Serif" font-size="11.00" fill="#000000">54 rows</text>
<polygon fill="#ffffff" stroke="transparent" points="361.5,-119.7 361.5,-138.7 403.5,-138.7 403.5,-119.7 361.5,-119.7"/>
<polygon fill="none" stroke="#000000" points="361.5,-119.7 361.5,-138.7 403.5,-138.7 403.5,-119.7 361.5,-119.7"/>
<text text-anchor="start" x="384.9053" y="-125.8" font-family="Helvetica,sans-Serif" font-size="11.00" fill="#000000">1 &gt;</text>
</a>
</g>
</g>
<!-- neo_variableelements&#45;&gt;neo_elementportions -->
<g id="edge10" class="edge">
<title>neo_variableelements:w&#45;&gt;neo_elementportions:e</title>
<path fill="none" stroke="#000000" d="M468.539,-176.0011C443.3813,-169.6548 435.8071,-147.7 403.5,-147.7"/>
<polygon fill="#000000" stroke="#000000" points="475.0546,-176.7665 482.5799,-181.2754 479.0273,-177.2333 483,-177.7 483,-177.7 483,-177.7 479.0273,-177.2333 483.4201,-174.1246 475.0546,-176.7665 475.0546,-176.7665"/>
<ellipse fill="none" stroke="#000000" cx="471.8765" cy="-176.3931" rx="3.2" ry="3.2"/>
</g>
<!-- neo_elementsymmetries -->
<g id="node12" class="node">
<title>neo_elementsymmetries</title>
<g id="a_node12"><a xlink:href="../../tables/neo_elementsymmetries.html" xlink:title="neo_elementsymmetries" target="_top">
<polygon fill="#ffffff" stroke="transparent" points="234,-202.2 234,-263.2 413,-263.2 413,-202.2 234,-202.2"/>
<polygon fill="#f5f5f5" stroke="transparent" points="234.5,-239.7 234.5,-262.7 413.5,-262.7 413.5,-239.7 234.5,-239.7"/>
<polygon fill="none" stroke="#000000" points="234.5,-239.7 234.5,-262.7 413.5,-262.7 413.5,-239.7 234.5,-239.7"/>
<text text-anchor="start" x="239.5" y="-248.3" font-family="Helvetica,sans-Serif" font-weight="bold" font-size="11.00" fill="#000000">neo_elementsymmetries</text>
<text text-anchor="start" x="379.0219" y="-247.8" font-family="Helvetica,sans-Serif" font-size="11.00" fill="#000000">[table]</text>
<polygon fill="none" stroke="#000000" points="234.5,-220.7 234.5,-239.7 413.5,-239.7 413.5,-220.7 234.5,-220.7"/>
<text text-anchor="start" x="237.5" y="-226.8" font-family="Helvetica,sans-Serif" font-size="11.00" fill="#000000">...</text>
<polygon fill="#ffffff" stroke="transparent" points="234.5,-201.7 234.5,-220.7 300.5,-220.7 300.5,-201.7 234.5,-201.7"/>
<polygon fill="none" stroke="#000000" points="234.5,-201.7 234.5,-220.7 300.5,-220.7 300.5,-201.7 234.5,-201.7"/>
<text text-anchor="start" x="237.5" y="-207.8" font-family="Helvetica,sans-Serif" font-size="11.00" fill="#000000"> &#160;</text>
<polygon fill="#ffffff" stroke="transparent" points="300.5,-201.7 300.5,-220.7 365.5,-220.7 365.5,-201.7 300.5,-201.7"/>
<polygon fill="none" stroke="#000000" points="300.5,-201.7 300.5,-220.7 365.5,-220.7 365.5,-201.7 300.5,-201.7"/>
<text text-anchor="start" x="330.1105" y="-207.8" font-family="Helvetica,sans-Serif" font-size="11.00" fill="#000000">0 rows</text>
<polygon fill="#ffffff" stroke="transparent" points="365.5,-201.7 365.5,-220.7 413.5,-220.7 413.5,-201.7 365.5,-201.7"/>
<polygon fill="none" stroke="#000000" points="365.5,-201.7 365.5,-220.7 413.5,-220.7 413.5,-201.7 365.5,-201.7"/>
<text text-anchor="start" x="394.9053" y="-207.8" font-family="Helvetica,sans-Serif" font-size="11.00" fill="#000000">1 &gt;</text>
</a>
</g>
</g>
<!-- neo_variableelements&#45;&gt;neo_elementsymmetries -->
<g id="edge11" class="edge">
<title>neo_variableelements:w&#45;&gt;neo_elementsymmetries:e</title>
<path fill="none" stroke="#000000" d="M468.7014,-201.8575C447.7843,-208.7363 441.6241,-229.7 413.5,-229.7"/>
<polygon fill="#000000" stroke="#000000" points="475.0895,-200.8937 483.5371,-203.2597 479.0448,-200.2968 483,-199.7 483,-199.7 483,-199.7 479.0448,-200.2968 482.4629,-196.1403 475.0895,-200.8937 475.0895,-200.8937"/>
<ellipse fill="none" stroke="#000000" cx="471.9254" cy="-201.3711" rx="3.2" ry="3.2"/>
</g>
<!-- neo_elementtypes&#45;&gt;cabah_datasourceID -->
<g id="edge7" class="edge">
<title>neo_elementtypes:w&#45;&gt;cabah_datasourceID:e</title>
<path fill="none" stroke="#000000" d="M201.0277,-362.3758C117.4696,-384.2402 272.8448,-612.7 164,-612.7"/>
<polygon fill="#000000" stroke="#000000" points="207.5531,-361.6203 215.9141,-364.2761 211.5266,-361.1601 215.5,-360.7 215.5,-360.7 215.5,-360.7 211.5266,-361.1601 215.0859,-357.1239 207.5531,-361.6203 207.5531,-361.6203"/>
<ellipse fill="none" stroke="#000000" cx="204.3743" cy="-361.9884" rx="3.2" ry="3.2"/>
</g>
</g>
</svg>
