<?xml version="1.0" encoding="UTF-8" standalone="no"?>
<!DOCTYPE svg PUBLIC "-//W3C//DTD SVG 1.1//EN"
 "http://www.w3.org/Graphics/SVG/1.1/DTD/svg11.dtd">
<!-- Generated by graphviz version 2.40.1 (20161225.0304)
 -->
<!-- Title: twoDegreesRelationshipsDiagram Pages: 1 -->
<svg width="588pt" height="431pt"
 viewBox="0.00 0.00 588.00 431.20" xmlns="http://www.w3.org/2000/svg" xmlns:xlink="http://www.w3.org/1999/xlink">
<g id="graph0" class="graph" transform="scale(1 1) rotate(0) translate(4 427.2)">
<title>twoDegreesRelationshipsDiagram</title>
<polygon fill="#ffffff" stroke="transparent" points="-4,4 -4,-427.2 584,-427.2 584,4 -4,4"/>
<text text-anchor="middle" x="72.4936" y="-7.3" font-family="Helvetica,sans-Serif" font-size="11.00" fill="#000000">Generated by SchemaSpy</text>
<!-- ippd_DataCore -->
<g id="node1" class="node">
<title>ippd_DataCore</title>
<g id="a_node1"><a xlink:href="../../tables/ippd_DataCore.html" xlink:title="ippd_DataCore" target="_top">
<polygon fill="#ffffff" stroke="transparent" points="448,-288.2 448,-349.2 572,-349.2 572,-288.2 448,-288.2"/>
<polygon fill="#f5f5f5" stroke="transparent" points="448,-325.7 448,-348.7 572,-348.7 572,-325.7 448,-325.7"/>
<polygon fill="none" stroke="#000000" points="448,-325.7 448,-348.7 572,-348.7 572,-325.7 448,-325.7"/>
<text text-anchor="start" x="453" y="-334.3" font-family="Helvetica,sans-Serif" font-weight="bold" font-size="11.00" fill="#000000">ippd_DataCore</text>
<text text-anchor="start" x="537.5219" y="-333.8" font-family="Helvetica,sans-Serif" font-size="11.00" fill="#000000">[table]</text>
<polygon fill="none" stroke="#000000" points="448,-306.7 448,-325.7 572,-325.7 572,-306.7 448,-306.7"/>
<text text-anchor="start" x="451" y="-312.8" font-family="Helvetica,sans-Serif" font-size="11.00" fill="#000000">...</text>
<polygon fill="#ffffff" stroke="transparent" points="448,-287.7 448,-306.7 478,-306.7 478,-287.7 448,-287.7"/>
<polygon fill="none" stroke="#000000" points="448,-287.7 448,-306.7 478,-306.7 478,-287.7 448,-287.7"/>
<text text-anchor="start" x="451" y="-293.8" font-family="Helvetica,sans-Serif" font-size="11.00" fill="#000000">&lt; 2</text>
<polygon fill="#ffffff" stroke="transparent" points="478,-287.7 478,-306.7 555,-306.7 555,-287.7 478,-287.7"/>
<polygon fill="none" stroke="#000000" points="478,-287.7 478,-306.7 555,-306.7 555,-287.7 478,-287.7"/>
<text text-anchor="start" x="485.9791" y="-293.8" font-family="Helvetica,sans-Serif" font-size="11.00" fill="#000000">384.434 rows</text>
<polygon fill="#ffffff" stroke="transparent" points="555,-287.7 555,-306.7 572,-306.7 572,-287.7 555,-287.7"/>
<polygon fill="none" stroke="#000000" points="555,-287.7 555,-306.7 572,-306.7 572,-287.7 555,-287.7"/>
<text text-anchor="start" x="562.8862" y="-293.8" font-family="Helvetica,sans-Serif" font-size="11.00" fill="#000000"> &#160;</text>
</a>
</g>
</g>
<!-- ippd_variables -->
<g id="node2" class="node">
<title>ippd_variables</title>
<g id="a_node2"><a xlink:href="../../tables/ippd_variables.html" xlink:title="ippd_variables" target="_top">
<polygon fill="#ffffff" stroke="transparent" points="276,-179.2 276,-350.2 399,-350.2 399,-179.2 276,-179.2"/>
<polygon fill="#f5f5f5" stroke="transparent" points="276.5,-326.7 276.5,-349.7 399.5,-349.7 399.5,-326.7 276.5,-326.7"/>
<polygon fill="none" stroke="#000000" points="276.5,-326.7 276.5,-349.7 399.5,-349.7 399.5,-326.7 276.5,-326.7"/>
<text text-anchor="start" x="281.5" y="-335.3" font-family="Helvetica,sans-Serif" font-weight="bold" font-size="11.00" fill="#000000">ippd_variables</text>
<text text-anchor="start" x="365.0219" y="-334.8" font-family="Helvetica,sans-Serif" font-size="11.00" fill="#000000">[table]</text>
<polygon fill="none" stroke="#000000" points="276.5,-304.7 276.5,-326.7 399.5,-326.7 399.5,-304.7 276.5,-304.7"/>
<image xlink:href="../../images/primaryKeys.png" width="11px" height="12px" preserveAspectRatio="xMinYMin meet" x="281.5" y="-321.7"/>
<text text-anchor="start" x="305.5" y="-311.8" font-family="Helvetica,sans-Serif" font-size="11.00" fill="#000000">VARIABLEID</text>
<polygon fill="none" stroke="#000000" points="276.5,-282.7 276.5,-304.7 399.5,-304.7 399.5,-282.7 276.5,-282.7"/>
<image xlink:href="../../images/foreignKeys.png" width="11px" height="12px" preserveAspectRatio="xMinYMin meet" x="281.5" y="-299.7"/>
<text text-anchor="start" x="305.5" y="-289.8" font-family="Helvetica,sans-Serif" font-size="11.00" fill="#000000">TAXONID</text>
<polygon fill="none" stroke="#000000" points="276.5,-260.7 276.5,-282.7 399.5,-282.7 399.5,-260.7 276.5,-260.7"/>
<image xlink:href="../../images/foreignKeys.png" width="11px" height="12px" preserveAspectRatio="xMinYMin meet" x="281.5" y="-277.7"/>
<text text-anchor="start" x="305.5" y="-267.8" font-family="Helvetica,sans-Serif" font-size="11.00" fill="#000000">VARELEMTID</text>
<polygon fill="none" stroke="#000000" points="276.5,-238.7 276.5,-260.7 399.5,-260.7 399.5,-238.7 276.5,-238.7"/>
<image xlink:href="../../images/foreignKeys.png" width="11px" height="12px" preserveAspectRatio="xMinYMin meet" x="281.5" y="-255.7"/>
<text text-anchor="start" x="305.5" y="-245.8" font-family="Helvetica,sans-Serif" font-size="11.00" fill="#000000">VARUNITID</text>
<polygon fill="none" stroke="#000000" points="276.5,-216.7 276.5,-238.7 399.5,-238.7 399.5,-216.7 276.5,-216.7"/>
<image xlink:href="../../images/foreignKeys.png" width="11px" height="12px" preserveAspectRatio="xMinYMin meet" x="281.5" y="-233.7"/>
<text text-anchor="start" x="305.5" y="-223.8" font-family="Helvetica,sans-Serif" font-size="11.00" fill="#000000">VARCONTXID</text>
<polygon fill="none" stroke="#000000" points="276.5,-197.7 276.5,-216.7 399.5,-216.7 399.5,-197.7 276.5,-197.7"/>
<text text-anchor="start" x="279.5" y="-203.8" font-family="Helvetica,sans-Serif" font-size="11.00" fill="#000000">...</text>
<polygon fill="#ffffff" stroke="transparent" points="276.5,-178.7 276.5,-197.7 308.5,-197.7 308.5,-178.7 276.5,-178.7"/>
<polygon fill="none" stroke="#000000" points="276.5,-178.7 276.5,-197.7 308.5,-197.7 308.5,-178.7 276.5,-178.7"/>
<text text-anchor="start" x="279.5" y="-184.8" font-family="Helvetica,sans-Serif" font-size="11.00" fill="#000000">&lt; 4</text>
<polygon fill="#ffffff" stroke="transparent" points="308.5,-178.7 308.5,-197.7 372.5,-197.7 372.5,-178.7 308.5,-178.7"/>
<polygon fill="none" stroke="#000000" points="308.5,-178.7 308.5,-197.7 372.5,-197.7 372.5,-178.7 308.5,-178.7"/>
<text text-anchor="start" x="315.7089" y="-184.8" font-family="Helvetica,sans-Serif" font-size="11.00" fill="#000000">2.734 rows</text>
<polygon fill="#ffffff" stroke="transparent" points="372.5,-178.7 372.5,-197.7 399.5,-197.7 399.5,-178.7 372.5,-178.7"/>
<polygon fill="none" stroke="#000000" points="372.5,-178.7 372.5,-197.7 399.5,-197.7 399.5,-178.7 372.5,-178.7"/>
<text text-anchor="start" x="380.9053" y="-184.8" font-family="Helvetica,sans-Serif" font-size="11.00" fill="#000000">1 &gt;</text>
</a>
</g>
</g>
<!-- ippd_DataCore&#45;&gt;ippd_variables -->
<g id="edge1" class="edge">
<title>ippd_DataCore:w&#45;&gt;ippd_variables:e</title>
<path fill="none" stroke="#000000" d="M433.2829,-315.7C422.2886,-315.7 415.1615,-315.7 399.5,-315.7"/>
<polygon fill="#000000" stroke="#000000" points="440,-315.7001 448,-319.3 444,-315.7 448,-315.7 448,-315.7 448,-315.7 444,-315.7 448,-312.1 440,-315.7001 440,-315.7001"/>
<ellipse fill="none" stroke="#000000" cx="436.8" cy="-315.7001" rx="3.2" ry="3.2"/>
</g>
<!-- cabah_taxaID -->
<g id="node3" class="node">
<title>cabah_taxaID</title>
<g id="a_node3"><a xlink:href="../../tables/cabah_taxaID.html" xlink:title="cabah_taxaID" target="_top">
<polygon fill="#ffffff" stroke="transparent" points="59.5,-358.2 59.5,-419.2 175.5,-419.2 175.5,-358.2 59.5,-358.2"/>
<polygon fill="#f5f5f5" stroke="transparent" points="59.5,-395.7 59.5,-418.7 175.5,-418.7 175.5,-395.7 59.5,-395.7"/>
<polygon fill="none" stroke="#000000" points="59.5,-395.7 59.5,-418.7 175.5,-418.7 175.5,-395.7 59.5,-395.7"/>
<text text-anchor="start" x="64.5" y="-404.3" font-family="Helvetica,sans-Serif" font-weight="bold" font-size="11.00" fill="#000000">cabah_taxaID</text>
<text text-anchor="start" x="141.0219" y="-403.8" font-family="Helvetica,sans-Serif" font-size="11.00" fill="#000000">[table]</text>
<polygon fill="none" stroke="#000000" points="59.5,-376.7 59.5,-395.7 175.5,-395.7 175.5,-376.7 59.5,-376.7"/>
<text text-anchor="start" x="62.5" y="-382.8" font-family="Helvetica,sans-Serif" font-size="11.00" fill="#000000">...</text>
<polygon fill="#ffffff" stroke="transparent" points="59.5,-357.7 59.5,-376.7 84.5,-376.7 84.5,-357.7 59.5,-357.7"/>
<polygon fill="none" stroke="#000000" points="59.5,-357.7 59.5,-376.7 84.5,-376.7 84.5,-357.7 59.5,-357.7"/>
<text text-anchor="start" x="62.5" y="-363.8" font-family="Helvetica,sans-Serif" font-size="11.00" fill="#000000">&lt; 3</text>
<polygon fill="#ffffff" stroke="transparent" points="84.5,-357.7 84.5,-376.7 151.5,-376.7 151.5,-357.7 84.5,-357.7"/>
<polygon fill="none" stroke="#000000" points="84.5,-357.7 84.5,-376.7 151.5,-376.7 151.5,-357.7 84.5,-357.7"/>
<text text-anchor="start" x="88.594" y="-363.8" font-family="Helvetica,sans-Serif" font-size="11.00" fill="#000000">47.144 rows</text>
<polygon fill="#ffffff" stroke="transparent" points="151.5,-357.7 151.5,-376.7 175.5,-376.7 175.5,-357.7 151.5,-357.7"/>
<polygon fill="none" stroke="#000000" points="151.5,-357.7 151.5,-376.7 175.5,-376.7 175.5,-357.7 151.5,-357.7"/>
<text text-anchor="start" x="156.9053" y="-363.8" font-family="Helvetica,sans-Serif" font-size="11.00" fill="#000000">3 &gt;</text>
</a>
</g>
</g>
<!-- ippd_variables&#45;&gt;cabah_taxaID -->
<g id="edge2" class="edge">
<title>ippd_variables:w&#45;&gt;cabah_taxaID:e</title>
<path fill="none" stroke="#000000" d="M262.5468,-297.4615C249.3552,-306.7881 252.7804,-331.4011 235,-347.7 211.8701,-368.9026 206.8774,-385.7 175.5,-385.7"/>
<polygon fill="#000000" stroke="#000000" points="268.7757,-295.7823 277.4371,-297.1759 272.6379,-294.7412 276.5,-293.7 276.5,-293.7 276.5,-293.7 272.6379,-294.7412 275.5629,-290.2241 268.7757,-295.7823 268.7757,-295.7823"/>
<ellipse fill="none" stroke="#000000" cx="265.686" cy="-296.6153" rx="3.2" ry="3.2"/>
</g>
<!-- neo_variablecontexts -->
<g id="node4" class="node">
<title>neo_variablecontexts</title>
<g id="a_node4"><a xlink:href="../../tables/neo_variablecontexts.html" xlink:title="neo_variablecontexts" target="_top">
<polygon fill="#ffffff" stroke="transparent" points="37,-38.2 37,-99.2 198,-99.2 198,-38.2 37,-38.2"/>
<polygon fill="#f5f5f5" stroke="transparent" points="37.5,-75.7 37.5,-98.7 198.5,-98.7 198.5,-75.7 37.5,-75.7"/>
<polygon fill="none" stroke="#000000" points="37.5,-75.7 37.5,-98.7 198.5,-98.7 198.5,-75.7 37.5,-75.7"/>
<text text-anchor="start" x="42.5" y="-84.3" font-family="Helvetica,sans-Serif" font-weight="bold" font-size="11.00" fill="#000000">neo_variablecontexts</text>
<text text-anchor="start" x="164.0219" y="-83.8" font-family="Helvetica,sans-Serif" font-size="11.00" fill="#000000">[table]</text>
<polygon fill="none" stroke="#000000" points="37.5,-56.7 37.5,-75.7 198.5,-75.7 198.5,-56.7 37.5,-56.7"/>
<text text-anchor="start" x="40.5" y="-62.8" font-family="Helvetica,sans-Serif" font-size="11.00" fill="#000000">...</text>
<polygon fill="#ffffff" stroke="transparent" points="37.5,-37.7 37.5,-56.7 91.5,-56.7 91.5,-37.7 37.5,-37.7"/>
<polygon fill="none" stroke="#000000" points="37.5,-37.7 37.5,-56.7 91.5,-56.7 91.5,-37.7 37.5,-37.7"/>
<text text-anchor="start" x="40.5" y="-43.8" font-family="Helvetica,sans-Serif" font-size="11.00" fill="#000000"> &#160;</text>
<polygon fill="#ffffff" stroke="transparent" points="91.5,-37.7 91.5,-56.7 156.5,-56.7 156.5,-37.7 91.5,-37.7"/>
<polygon fill="none" stroke="#000000" points="91.5,-37.7 91.5,-56.7 156.5,-56.7 156.5,-37.7 91.5,-37.7"/>
<text text-anchor="start" x="114.9956" y="-43.8" font-family="Helvetica,sans-Serif" font-size="11.00" fill="#000000">88 rows</text>
<polygon fill="#ffffff" stroke="transparent" points="156.5,-37.7 156.5,-56.7 198.5,-56.7 198.5,-37.7 156.5,-37.7"/>
<polygon fill="none" stroke="#000000" points="156.5,-37.7 156.5,-56.7 198.5,-56.7 198.5,-37.7 156.5,-37.7"/>
<text text-anchor="start" x="179.9053" y="-43.8" font-family="Helvetica,sans-Serif" font-size="11.00" fill="#000000">1 &gt;</text>
</a>
</g>
</g>
<!-- ippd_variables&#45;&gt;neo_variablecontexts -->
<g id="edge3" class="edge">
<title>ippd_variables:w&#45;&gt;neo_variablecontexts:e</title>
<path fill="none" stroke="#000000" d="M261.9301,-225.4099C207.2956,-205.7197 272.7923,-65.7 198.5,-65.7"/>
<polygon fill="#000000" stroke="#000000" points="268.597,-226.4578 275.941,-231.2563 272.5485,-227.0789 276.5,-227.7 276.5,-227.7 276.5,-227.7 272.5485,-227.0789 277.059,-224.1437 268.597,-226.4578 268.597,-226.4578"/>
<ellipse fill="none" stroke="#000000" cx="265.4358" cy="-225.9609" rx="3.2" ry="3.2"/>
</g>
<!-- neo_variableelements -->
<g id="node5" class="node">
<title>neo_variableelements</title>
<g id="a_node5"><a xlink:href="../../tables/neo_variableelements.html" xlink:title="neo_variableelements" target="_top">
<polygon fill="#ffffff" stroke="transparent" points="35.5,-276.2 35.5,-337.2 199.5,-337.2 199.5,-276.2 35.5,-276.2"/>
<polygon fill="#f5f5f5" stroke="transparent" points="35.5,-313.7 35.5,-336.7 199.5,-336.7 199.5,-313.7 35.5,-313.7"/>
<polygon fill="none" stroke="#000000" points="35.5,-313.7 35.5,-336.7 199.5,-336.7 199.5,-313.7 35.5,-313.7"/>
<text text-anchor="start" x="40.5" y="-322.3" font-family="Helvetica,sans-Serif" font-weight="bold" font-size="11.00" fill="#000000">neo_variableelements</text>
<text text-anchor="start" x="165.0219" y="-321.8" font-family="Helvetica,sans-Serif" font-size="11.00" fill="#000000">[table]</text>
<polygon fill="none" stroke="#000000" points="35.5,-294.7 35.5,-313.7 199.5,-313.7 199.5,-294.7 35.5,-294.7"/>
<text text-anchor="start" x="38.5" y="-300.8" font-family="Helvetica,sans-Serif" font-size="11.00" fill="#000000">...</text>
<polygon fill="#ffffff" stroke="transparent" points="35.5,-275.7 35.5,-294.7 92.5,-294.7 92.5,-275.7 35.5,-275.7"/>
<polygon fill="none" stroke="#000000" points="35.5,-275.7 35.5,-294.7 92.5,-294.7 92.5,-275.7 35.5,-275.7"/>
<text text-anchor="start" x="38.5" y="-281.8" font-family="Helvetica,sans-Serif" font-size="11.00" fill="#000000">&lt; 4</text>
<polygon fill="#ffffff" stroke="transparent" points="92.5,-275.7 92.5,-294.7 160.5,-294.7 160.5,-275.7 92.5,-275.7"/>
<polygon fill="none" stroke="#000000" points="92.5,-275.7 92.5,-294.7 160.5,-294.7 160.5,-275.7 92.5,-275.7"/>
<text text-anchor="start" x="112.8807" y="-281.8" font-family="Helvetica,sans-Serif" font-size="11.00" fill="#000000">983 rows</text>
<polygon fill="#ffffff" stroke="transparent" points="160.5,-275.7 160.5,-294.7 199.5,-294.7 199.5,-275.7 160.5,-275.7"/>
<polygon fill="none" stroke="#000000" points="160.5,-275.7 160.5,-294.7 199.5,-294.7 199.5,-275.7 160.5,-275.7"/>
<text text-anchor="start" x="180.9053" y="-281.8" font-family="Helvetica,sans-Serif" font-size="11.00" fill="#000000">1 &gt;</text>
</a>
</g>
</g>
<!-- ippd_variables&#45;&gt;neo_variableelements -->
<g id="edge4" class="edge">
<title>ippd_variables:w&#45;&gt;neo_variableelements:e</title>
<path fill="none" stroke="#000000" d="M262.0325,-273.6059C237.832,-280.4949 231.0588,-303.7 199.5,-303.7"/>
<polygon fill="#000000" stroke="#000000" points="268.5685,-272.7449 276.9702,-275.2692 272.5343,-272.2225 276.5,-271.7 276.5,-271.7 276.5,-271.7 272.5343,-272.2225 276.0298,-268.1308 268.5685,-272.7449 268.5685,-272.7449"/>
<ellipse fill="none" stroke="#000000" cx="265.3959" cy="-273.1629" rx="3.2" ry="3.2"/>
</g>
<!-- neo_variableunits -->
<g id="node6" class="node">
<title>neo_variableunits</title>
<g id="a_node6"><a xlink:href="../../tables/neo_variableunits.html" xlink:title="neo_variableunits" target="_top">
<polygon fill="#ffffff" stroke="transparent" points="8,-120.7 8,-254.7 227,-254.7 227,-120.7 8,-120.7"/>
<polygon fill="#f5f5f5" stroke="transparent" points="10.5,-229.7 10.5,-252.7 225.5,-252.7 225.5,-229.7 10.5,-229.7"/>
<polygon fill="none" stroke="#000000" points="10.5,-229.7 10.5,-252.7 225.5,-252.7 225.5,-229.7 10.5,-229.7"/>
<text text-anchor="start" x="15.5" y="-238.3" font-family="Helvetica,sans-Serif" font-weight="bold" font-size="11.00" fill="#000000">neo_variableunits</text>
<text text-anchor="start" x="190.5437" y="-237.8" font-family="Helvetica,sans-Serif" font-size="11.00" fill="#000000">[table]</text>
<polygon fill="none" stroke="#000000" points="10.5,-207.7 10.5,-229.7 133.5,-229.7 133.5,-207.7 10.5,-207.7"/>
<image xlink:href="../../images/primaryKeys.png" width="11px" height="12px" preserveAspectRatio="xMinYMin meet" x="15.5" y="-224.7"/>
<text text-anchor="start" x="30.5" y="-214.8" font-family="Helvetica,sans-Serif" font-size="11.00" fill="#000000">VARUNITID</text>
<polygon fill="none" stroke="#000000" points="133.5,-207.7 133.5,-229.7 225.5,-229.7 225.5,-207.7 133.5,-207.7"/>
<text text-anchor="start" x="136.5" y="-215.4" font-family="Helvetica,sans-Serif" font-size="11.00" fill="#000000">int4[10]</text>
<polygon fill="none" stroke="#000000" points="10.5,-185.7 10.5,-207.7 133.5,-207.7 133.5,-185.7 10.5,-185.7"/>
<text text-anchor="start" x="30.5" y="-192.8" font-family="Helvetica,sans-Serif" font-size="11.00" fill="#000000">VARUNIT</text>
<polygon fill="none" stroke="#000000" points="133.5,-185.7 133.5,-207.7 225.5,-207.7 225.5,-185.7 133.5,-185.7"/>
<text text-anchor="start" x="136.5" y="-193.4" font-family="Helvetica,sans-Serif" font-size="11.00" fill="#000000">text[2147483647]</text>
<polygon fill="none" stroke="#000000" points="10.5,-163.7 10.5,-185.7 133.5,-185.7 133.5,-163.7 10.5,-163.7"/>
<text text-anchor="start" x="30.5" y="-170.8" font-family="Helvetica,sans-Serif" font-size="11.00" fill="#000000">CREATED_AT</text>
<polygon fill="none" stroke="#000000" points="133.5,-163.7 133.5,-185.7 225.5,-185.7 225.5,-163.7 133.5,-163.7"/>
<text text-anchor="start" x="136.1023" y="-171.4" font-family="Helvetica,sans-Serif" font-size="11.00" fill="#000000">timestamptz[35,6]</text>
<polygon fill="none" stroke="#000000" points="10.5,-141.7 10.5,-163.7 133.5,-163.7 133.5,-141.7 10.5,-141.7"/>
<text text-anchor="start" x="30.5" y="-148.8" font-family="Helvetica,sans-Serif" font-size="11.00" fill="#000000">UPDATED_AT</text>
<polygon fill="none" stroke="#000000" points="133.5,-141.7 133.5,-163.7 225.5,-163.7 225.5,-141.7 133.5,-141.7"/>
<text text-anchor="start" x="136.1023" y="-149.4" font-family="Helvetica,sans-Serif" font-size="11.00" fill="#000000">timestamptz[35,6]</text>
<polygon fill="#ffffff" stroke="transparent" points="10.5,-122.7 10.5,-141.7 57.5,-141.7 57.5,-122.7 10.5,-122.7"/>
<polygon fill="none" stroke="#000000" points="10.5,-122.7 10.5,-141.7 57.5,-141.7 57.5,-122.7 10.5,-122.7"/>
<text text-anchor="start" x="13.5" y="-128.8" font-family="Helvetica,sans-Serif" font-size="11.00" fill="#000000">&lt; 0</text>
<polygon fill="#ffffff" stroke="transparent" points="57.5,-122.7 57.5,-141.7 133.5,-141.7 133.5,-122.7 57.5,-122.7"/>
<polygon fill="none" stroke="#000000" points="57.5,-122.7 57.5,-141.7 133.5,-141.7 133.5,-122.7 57.5,-122.7"/>
<text text-anchor="start" x="85.8807" y="-128.8" font-family="Helvetica,sans-Serif" font-size="11.00" fill="#000000">210 rows</text>
<polygon fill="#ffffff" stroke="transparent" points="133.5,-122.7 133.5,-141.7 225.5,-141.7 225.5,-122.7 133.5,-122.7"/>
<polygon fill="none" stroke="#000000" points="133.5,-122.7 133.5,-141.7 225.5,-141.7 225.5,-122.7 133.5,-122.7"/>
<text text-anchor="start" x="206.9053" y="-128.8" font-family="Helvetica,sans-Serif" font-size="11.00" fill="#000000">1 &gt;</text>
<polygon fill="none" stroke="#000000" stroke-width="2" points="9,-121.7 9,-253.7 226,-253.7 226,-121.7 9,-121.7"/>
</a>
</g>
</g>
<!-- ippd_variables&#45;&gt;neo_variableunits -->
<g id="edge5" class="edge">
<title>ippd_variables:w&#45;&gt;neo_variableunits:e</title>
<path fill="none" stroke="#000000" d="M262.5967,-245.8988C249.5044,-237.6209 246.2231,-218.7 225.5,-218.7"/>
<polygon fill="#000000" stroke="#000000" points="268.7832,-247.5902 275.5506,-253.1726 272.6416,-248.6451 276.5,-249.7 276.5,-249.7 276.5,-249.7 272.6416,-248.6451 277.4494,-246.2274 268.7832,-247.5902 268.7832,-247.5902"/>
<ellipse fill="none" stroke="#000000" cx="265.6965" cy="-246.7462" rx="3.2" ry="3.2"/>
</g>
</g>
</svg>
