<?xml version="1.0" encoding="UTF-8" standalone="no"?>
<!DOCTYPE svg PUBLIC "-//W3C//DTD SVG 1.1//EN"
 "http://www.w3.org/Graphics/SVG/1.1/DTD/svg11.dtd">
<!-- Generated by graphviz version 2.40.1 (20161225.0304)
 -->
<!-- Title: oneDegreeRelationshipsDiagram Pages: 1 -->
<svg width="666pt" height="467pt"
 viewBox="0.00 0.00 666.00 467.20" xmlns="http://www.w3.org/2000/svg" xmlns:xlink="http://www.w3.org/1999/xlink">
<g id="graph0" class="graph" transform="scale(1 1) rotate(0) translate(4 463.2)">
<title>oneDegreeRelationshipsDiagram</title>
<polygon fill="#ffffff" stroke="transparent" points="-4,4 -4,-463.2 662,-463.2 662,4 -4,4"/>
<text text-anchor="middle" x="72.4936" y="-7.3" font-family="Helvetica,sans-Serif" font-size="11.00" fill="#000000">Generated by SchemaSpy</text>
<!-- ippd_variables -->
<g id="node1" class="node">
<title>ippd_variables</title>
<g id="a_node1"><a xlink:href="../../tables/ippd_variables.html" xlink:title="ippd_variables" target="_top">
<polygon fill="#ffffff" stroke="transparent" points="527,-227.2 527,-398.2 650,-398.2 650,-227.2 527,-227.2"/>
<polygon fill="#f5f5f5" stroke="transparent" points="527.5,-374.7 527.5,-397.7 650.5,-397.7 650.5,-374.7 527.5,-374.7"/>
<polygon fill="none" stroke="#000000" points="527.5,-374.7 527.5,-397.7 650.5,-397.7 650.5,-374.7 527.5,-374.7"/>
<text text-anchor="start" x="532.5" y="-383.3" font-family="Helvetica,sans-Serif" font-weight="bold" font-size="11.00" fill="#000000">ippd_variables</text>
<text text-anchor="start" x="616.0219" y="-382.8" font-family="Helvetica,sans-Serif" font-size="11.00" fill="#000000">[table]</text>
<polygon fill="none" stroke="#000000" points="527.5,-352.7 527.5,-374.7 650.5,-374.7 650.5,-352.7 527.5,-352.7"/>
<image xlink:href="../../images/primaryKeys.png" width="11px" height="12px" preserveAspectRatio="xMinYMin meet" x="532.5" y="-369.7"/>
<text text-anchor="start" x="556.5" y="-359.8" font-family="Helvetica,sans-Serif" font-size="11.00" fill="#000000">VARIABLEID</text>
<polygon fill="none" stroke="#000000" points="527.5,-330.7 527.5,-352.7 650.5,-352.7 650.5,-330.7 527.5,-330.7"/>
<image xlink:href="../../images/foreignKeys.png" width="11px" height="12px" preserveAspectRatio="xMinYMin meet" x="532.5" y="-347.7"/>
<text text-anchor="start" x="556.5" y="-337.8" font-family="Helvetica,sans-Serif" font-size="11.00" fill="#000000">TAXONID</text>
<polygon fill="none" stroke="#000000" points="527.5,-308.7 527.5,-330.7 650.5,-330.7 650.5,-308.7 527.5,-308.7"/>
<image xlink:href="../../images/foreignKeys.png" width="11px" height="12px" preserveAspectRatio="xMinYMin meet" x="532.5" y="-325.7"/>
<text text-anchor="start" x="556.5" y="-315.8" font-family="Helvetica,sans-Serif" font-size="11.00" fill="#000000">VARELEMTID</text>
<polygon fill="none" stroke="#000000" points="527.5,-286.7 527.5,-308.7 650.5,-308.7 650.5,-286.7 527.5,-286.7"/>
<image xlink:href="../../images/foreignKeys.png" width="11px" height="12px" preserveAspectRatio="xMinYMin meet" x="532.5" y="-303.7"/>
<text text-anchor="start" x="556.5" y="-293.8" font-family="Helvetica,sans-Serif" font-size="11.00" fill="#000000">VARUNITID</text>
<polygon fill="none" stroke="#000000" points="527.5,-264.7 527.5,-286.7 650.5,-286.7 650.5,-264.7 527.5,-264.7"/>
<image xlink:href="../../images/foreignKeys.png" width="11px" height="12px" preserveAspectRatio="xMinYMin meet" x="532.5" y="-281.7"/>
<text text-anchor="start" x="556.5" y="-271.8" font-family="Helvetica,sans-Serif" font-size="11.00" fill="#000000">VARCONTXID</text>
<polygon fill="none" stroke="#000000" points="527.5,-245.7 527.5,-264.7 650.5,-264.7 650.5,-245.7 527.5,-245.7"/>
<text text-anchor="start" x="530.5" y="-251.8" font-family="Helvetica,sans-Serif" font-size="11.00" fill="#000000">...</text>
<polygon fill="#ffffff" stroke="transparent" points="527.5,-226.7 527.5,-245.7 559.5,-245.7 559.5,-226.7 527.5,-226.7"/>
<polygon fill="none" stroke="#000000" points="527.5,-226.7 527.5,-245.7 559.5,-245.7 559.5,-226.7 527.5,-226.7"/>
<text text-anchor="start" x="530.5" y="-232.8" font-family="Helvetica,sans-Serif" font-size="11.00" fill="#000000">&lt; 4</text>
<polygon fill="#ffffff" stroke="transparent" points="559.5,-226.7 559.5,-245.7 623.5,-245.7 623.5,-226.7 559.5,-226.7"/>
<polygon fill="none" stroke="#000000" points="559.5,-226.7 559.5,-245.7 623.5,-245.7 623.5,-226.7 559.5,-226.7"/>
<text text-anchor="start" x="566.7089" y="-232.8" font-family="Helvetica,sans-Serif" font-size="11.00" fill="#000000">2.734 rows</text>
<polygon fill="#ffffff" stroke="transparent" points="623.5,-226.7 623.5,-245.7 650.5,-245.7 650.5,-226.7 623.5,-226.7"/>
<polygon fill="none" stroke="#000000" points="623.5,-226.7 623.5,-245.7 650.5,-245.7 650.5,-226.7 623.5,-226.7"/>
<text text-anchor="start" x="631.9053" y="-232.8" font-family="Helvetica,sans-Serif" font-size="11.00" fill="#000000">1 &gt;</text>
</a>
</g>
</g>
<!-- neo_variableelements -->
<g id="node2" class="node">
<title>neo_variableelements</title>
<g id="a_node2"><a xlink:href="../../tables/neo_variableelements.html" xlink:title="neo_variableelements" target="_top">
<polygon fill="#ffffff" stroke="transparent" points="236,-133.7 236,-355.7 478,-355.7 478,-133.7 236,-133.7"/>
<polygon fill="#f5f5f5" stroke="transparent" points="238,-330.7 238,-353.7 476,-353.7 476,-330.7 238,-330.7"/>
<polygon fill="none" stroke="#000000" points="238,-330.7 238,-353.7 476,-353.7 476,-330.7 238,-330.7"/>
<text text-anchor="start" x="243" y="-339.3" font-family="Helvetica,sans-Serif" font-weight="bold" font-size="11.00" fill="#000000">neo_variableelements</text>
<text text-anchor="start" x="441.0437" y="-338.8" font-family="Helvetica,sans-Serif" font-size="11.00" fill="#000000">[table]</text>
<polygon fill="none" stroke="#000000" points="238,-308.7 238,-330.7 384,-330.7 384,-308.7 238,-308.7"/>
<image xlink:href="../../images/primaryKeys.png" width="11px" height="12px" preserveAspectRatio="xMinYMin meet" x="243" y="-325.7"/>
<text text-anchor="start" x="258" y="-315.8" font-family="Helvetica,sans-Serif" font-size="11.00" fill="#000000">VARELEMTID</text>
<polygon fill="none" stroke="#000000" points="384,-308.7 384,-330.7 476,-330.7 476,-308.7 384,-308.7"/>
<text text-anchor="start" x="387" y="-316.4" font-family="Helvetica,sans-Serif" font-size="11.00" fill="#000000">int4[10]</text>
<polygon fill="none" stroke="#000000" points="238,-286.7 238,-308.7 384,-308.7 384,-286.7 238,-286.7"/>
<text text-anchor="start" x="258" y="-293.8" font-family="Helvetica,sans-Serif" font-size="11.00" fill="#000000">VARELEMENT</text>
<polygon fill="none" stroke="#000000" points="384,-286.7 384,-308.7 476,-308.7 476,-286.7 384,-286.7"/>
<text text-anchor="start" x="387" y="-294.4" font-family="Helvetica,sans-Serif" font-size="11.00" fill="#000000">text[2147483647]</text>
<polygon fill="none" stroke="#000000" points="238,-264.7 238,-286.7 384,-286.7 384,-264.7 238,-264.7"/>
<image xlink:href="../../images/foreignKeys.png" width="11px" height="12px" preserveAspectRatio="xMinYMin meet" x="243" y="-281.7"/>
<text text-anchor="start" x="258" y="-271.8" font-family="Helvetica,sans-Serif" font-size="11.00" fill="#000000">ELEMTYPEID</text>
<polygon fill="none" stroke="#000000" points="384,-264.7 384,-286.7 476,-286.7 476,-264.7 384,-264.7"/>
<text text-anchor="start" x="387" y="-272.4" font-family="Helvetica,sans-Serif" font-size="11.00" fill="#000000">int2[5]</text>
<polygon fill="none" stroke="#000000" points="238,-242.7 238,-264.7 384,-264.7 384,-242.7 238,-242.7"/>
<image xlink:href="../../images/foreignKeys.png" width="11px" height="12px" preserveAspectRatio="xMinYMin meet" x="243" y="-259.7"/>
<text text-anchor="start" x="258" y="-249.8" font-family="Helvetica,sans-Serif" font-size="11.00" fill="#000000">SYMMETRYID</text>
<polygon fill="none" stroke="#000000" points="384,-242.7 384,-264.7 476,-264.7 476,-242.7 384,-242.7"/>
<text text-anchor="start" x="387" y="-250.4" font-family="Helvetica,sans-Serif" font-size="11.00" fill="#000000">int2[5]</text>
<polygon fill="none" stroke="#000000" points="238,-220.7 238,-242.7 384,-242.7 384,-220.7 238,-220.7"/>
<image xlink:href="../../images/foreignKeys.png" width="11px" height="12px" preserveAspectRatio="xMinYMin meet" x="243" y="-237.7"/>
<text text-anchor="start" x="258" y="-227.8" font-family="Helvetica,sans-Serif" font-size="11.00" fill="#000000">PORTIONID</text>
<polygon fill="none" stroke="#000000" points="384,-220.7 384,-242.7 476,-242.7 476,-220.7 384,-220.7"/>
<text text-anchor="start" x="387" y="-228.4" font-family="Helvetica,sans-Serif" font-size="11.00" fill="#000000">int2[5]</text>
<polygon fill="none" stroke="#000000" points="238,-198.7 238,-220.7 384,-220.7 384,-198.7 238,-198.7"/>
<image xlink:href="../../images/foreignKeys.png" width="11px" height="12px" preserveAspectRatio="xMinYMin meet" x="243" y="-215.7"/>
<text text-anchor="start" x="258" y="-205.8" font-family="Helvetica,sans-Serif" font-size="11.00" fill="#000000">MATURITYID</text>
<polygon fill="none" stroke="#000000" points="384,-198.7 384,-220.7 476,-220.7 476,-198.7 384,-198.7"/>
<text text-anchor="start" x="387" y="-206.4" font-family="Helvetica,sans-Serif" font-size="11.00" fill="#000000">int2[5]</text>
<polygon fill="none" stroke="#000000" points="238,-176.7 238,-198.7 384,-198.7 384,-176.7 238,-176.7"/>
<text text-anchor="start" x="258" y="-183.8" font-family="Helvetica,sans-Serif" font-size="11.00" fill="#000000">CREATED_AT</text>
<polygon fill="none" stroke="#000000" points="384,-176.7 384,-198.7 476,-198.7 476,-176.7 384,-176.7"/>
<text text-anchor="start" x="386.6023" y="-184.4" font-family="Helvetica,sans-Serif" font-size="11.00" fill="#000000">timestamptz[35,6]</text>
<polygon fill="none" stroke="#000000" points="238,-154.7 238,-176.7 384,-176.7 384,-154.7 238,-154.7"/>
<text text-anchor="start" x="258" y="-161.8" font-family="Helvetica,sans-Serif" font-size="11.00" fill="#000000">UPDATED_AT</text>
<polygon fill="none" stroke="#000000" points="384,-154.7 384,-176.7 476,-176.7 476,-154.7 384,-154.7"/>
<text text-anchor="start" x="386.6023" y="-162.4" font-family="Helvetica,sans-Serif" font-size="11.00" fill="#000000">timestamptz[35,6]</text>
<polygon fill="#ffffff" stroke="transparent" points="238,-135.7 238,-154.7 296,-154.7 296,-135.7 238,-135.7"/>
<polygon fill="none" stroke="#000000" points="238,-135.7 238,-154.7 296,-154.7 296,-135.7 238,-135.7"/>
<text text-anchor="start" x="241" y="-141.8" font-family="Helvetica,sans-Serif" font-size="11.00" fill="#000000">&lt; 4</text>
<polygon fill="#ffffff" stroke="transparent" points="296,-135.7 296,-154.7 384,-154.7 384,-135.7 296,-135.7"/>
<polygon fill="none" stroke="#000000" points="296,-135.7 296,-154.7 384,-154.7 384,-135.7 296,-135.7"/>
<text text-anchor="start" x="336.3807" y="-141.8" font-family="Helvetica,sans-Serif" font-size="11.00" fill="#000000">983 rows</text>
<polygon fill="#ffffff" stroke="transparent" points="384,-135.7 384,-154.7 476,-154.7 476,-135.7 384,-135.7"/>
<polygon fill="none" stroke="#000000" points="384,-135.7 384,-154.7 476,-154.7 476,-135.7 384,-135.7"/>
<text text-anchor="start" x="457.4053" y="-141.8" font-family="Helvetica,sans-Serif" font-size="11.00" fill="#000000">1 &gt;</text>
<polygon fill="none" stroke="#000000" stroke-width="2" points="237,-134.7 237,-354.7 477,-354.7 477,-134.7 237,-134.7"/>
</a>
</g>
</g>
<!-- ippd_variables&#45;&gt;neo_variableelements -->
<g id="edge1" class="edge">
<title>ippd_variables:w&#45;&gt;neo_variableelements:e</title>
<path fill="none" stroke="#000000" d="M513.0156,-319.7C500.6771,-319.7 493.1667,-319.7 476,-319.7"/>
<polygon fill="#000000" stroke="#000000" points="519.5,-319.7001 527.5,-323.3 523.5,-319.7 527.5,-319.7 527.5,-319.7 527.5,-319.7 523.5,-319.7 527.5,-316.1 519.5,-319.7001 519.5,-319.7001"/>
<ellipse fill="none" stroke="#000000" cx="516.3" cy="-319.7001" rx="3.2" ry="3.2"/>
</g>
<!-- neo_elementtypes -->
<g id="node3" class="node">
<title>neo_elementtypes</title>
<g id="a_node3"><a xlink:href="../../tables/neo_elementtypes.html" xlink:title="neo_elementtypes" target="_top">
<polygon fill="#ffffff" stroke="transparent" points="26,-350.2 26,-455.2 169,-455.2 169,-350.2 26,-350.2"/>
<polygon fill="#f5f5f5" stroke="transparent" points="26.5,-431.7 26.5,-454.7 169.5,-454.7 169.5,-431.7 26.5,-431.7"/>
<polygon fill="none" stroke="#000000" points="26.5,-431.7 26.5,-454.7 169.5,-454.7 169.5,-431.7 26.5,-431.7"/>
<text text-anchor="start" x="31.5" y="-440.3" font-family="Helvetica,sans-Serif" font-weight="bold" font-size="11.00" fill="#000000">neo_elementtypes</text>
<text text-anchor="start" x="135.0219" y="-439.8" font-family="Helvetica,sans-Serif" font-size="11.00" fill="#000000">[table]</text>
<polygon fill="none" stroke="#000000" points="26.5,-409.7 26.5,-431.7 169.5,-431.7 169.5,-409.7 26.5,-409.7"/>
<image xlink:href="../../images/primaryKeys.png" width="11px" height="12px" preserveAspectRatio="xMinYMin meet" x="31.5" y="-426.7"/>
<text text-anchor="start" x="55.5" y="-416.8" font-family="Helvetica,sans-Serif" font-size="11.00" fill="#000000">ELEMTYPEID</text>
<polygon fill="none" stroke="#000000" points="26.5,-387.7 26.5,-409.7 169.5,-409.7 169.5,-387.7 26.5,-387.7"/>
<image xlink:href="../../images/foreignKeys.png" width="11px" height="12px" preserveAspectRatio="xMinYMin meet" x="31.5" y="-404.7"/>
<text text-anchor="start" x="55.5" y="-394.8" font-family="Helvetica,sans-Serif" font-size="11.00" fill="#000000">DATASRCID</text>
<polygon fill="none" stroke="#000000" points="26.5,-368.7 26.5,-387.7 169.5,-387.7 169.5,-368.7 26.5,-368.7"/>
<text text-anchor="start" x="29.5" y="-374.8" font-family="Helvetica,sans-Serif" font-size="11.00" fill="#000000">...</text>
<polygon fill="#ffffff" stroke="transparent" points="26.5,-349.7 26.5,-368.7 72.5,-368.7 72.5,-349.7 26.5,-349.7"/>
<polygon fill="none" stroke="#000000" points="26.5,-349.7 26.5,-368.7 72.5,-368.7 72.5,-349.7 26.5,-349.7"/>
<text text-anchor="start" x="29.5" y="-355.8" font-family="Helvetica,sans-Serif" font-size="11.00" fill="#000000">&lt; 1</text>
<polygon fill="#ffffff" stroke="transparent" points="72.5,-349.7 72.5,-368.7 135.5,-368.7 135.5,-349.7 72.5,-349.7"/>
<polygon fill="none" stroke="#000000" points="72.5,-349.7 72.5,-368.7 135.5,-368.7 135.5,-349.7 72.5,-349.7"/>
<text text-anchor="start" x="87.8807" y="-355.8" font-family="Helvetica,sans-Serif" font-size="11.00" fill="#000000">939 rows</text>
<polygon fill="#ffffff" stroke="transparent" points="135.5,-349.7 135.5,-368.7 169.5,-368.7 169.5,-349.7 135.5,-349.7"/>
<polygon fill="none" stroke="#000000" points="135.5,-349.7 135.5,-368.7 169.5,-368.7 169.5,-349.7 135.5,-349.7"/>
<text text-anchor="start" x="150.9053" y="-355.8" font-family="Helvetica,sans-Serif" font-size="11.00" fill="#000000">1 &gt;</text>
</a>
</g>
</g>
<!-- neo_variableelements&#45;&gt;neo_elementtypes -->
<g id="edge2" class="edge">
<title>neo_variableelements:w&#45;&gt;neo_elementtypes:e</title>
<path fill="none" stroke="#000000" d="M223.8175,-278.2167C177.4092,-297.4712 235.2055,-420.7 169.5,-420.7"/>
<polygon fill="#000000" stroke="#000000" points="230.1231,-277.0978 238.629,-279.2446 234.0615,-276.3989 238,-275.7 238,-275.7 238,-275.7 234.0615,-276.3989 237.371,-272.1554 230.1231,-277.0978 230.1231,-277.0978"/>
<ellipse fill="none" stroke="#000000" cx="226.9723" cy="-277.657" rx="3.2" ry="3.2"/>
</g>
<!-- neo_elementmaturities -->
<g id="node4" class="node">
<title>neo_elementmaturities</title>
<g id="a_node4"><a xlink:href="../../tables/neo_elementmaturities.html" xlink:title="neo_elementmaturities" target="_top">
<polygon fill="#ffffff" stroke="transparent" points="13,-38.2 13,-121.2 182,-121.2 182,-38.2 13,-38.2"/>
<polygon fill="#f5f5f5" stroke="transparent" points="13.5,-97.7 13.5,-120.7 182.5,-120.7 182.5,-97.7 13.5,-97.7"/>
<polygon fill="none" stroke="#000000" points="13.5,-97.7 13.5,-120.7 182.5,-120.7 182.5,-97.7 13.5,-97.7"/>
<text text-anchor="start" x="18.5" y="-106.3" font-family="Helvetica,sans-Serif" font-weight="bold" font-size="11.00" fill="#000000">neo_elementmaturities</text>
<text text-anchor="start" x="148.0219" y="-105.8" font-family="Helvetica,sans-Serif" font-size="11.00" fill="#000000">[table]</text>
<polygon fill="none" stroke="#000000" points="13.5,-75.7 13.5,-97.7 182.5,-97.7 182.5,-75.7 13.5,-75.7"/>
<image xlink:href="../../images/primaryKeys.png" width="11px" height="12px" preserveAspectRatio="xMinYMin meet" x="18.5" y="-92.7"/>
<text text-anchor="start" x="42.5" y="-82.8" font-family="Helvetica,sans-Serif" font-size="11.00" fill="#000000">MATURITYID</text>
<polygon fill="none" stroke="#000000" points="13.5,-56.7 13.5,-75.7 182.5,-75.7 182.5,-56.7 13.5,-56.7"/>
<text text-anchor="start" x="16.5" y="-62.8" font-family="Helvetica,sans-Serif" font-size="11.00" fill="#000000">...</text>
<polygon fill="#ffffff" stroke="transparent" points="13.5,-37.7 13.5,-56.7 74.5,-56.7 74.5,-37.7 13.5,-37.7"/>
<polygon fill="none" stroke="#000000" points="13.5,-37.7 13.5,-56.7 74.5,-56.7 74.5,-37.7 13.5,-37.7"/>
<text text-anchor="start" x="16.5" y="-43.8" font-family="Helvetica,sans-Serif" font-size="11.00" fill="#000000"> &#160;</text>
<polygon fill="#ffffff" stroke="transparent" points="74.5,-37.7 74.5,-56.7 136.5,-56.7 136.5,-37.7 74.5,-37.7"/>
<polygon fill="none" stroke="#000000" points="74.5,-37.7 74.5,-56.7 136.5,-56.7 136.5,-37.7 74.5,-37.7"/>
<text text-anchor="start" x="101.1105" y="-43.8" font-family="Helvetica,sans-Serif" font-size="11.00" fill="#000000">0 rows</text>
<polygon fill="#ffffff" stroke="transparent" points="136.5,-37.7 136.5,-56.7 182.5,-56.7 182.5,-37.7 136.5,-37.7"/>
<polygon fill="none" stroke="#000000" points="136.5,-37.7 136.5,-56.7 182.5,-56.7 182.5,-37.7 136.5,-37.7"/>
<text text-anchor="start" x="163.9053" y="-43.8" font-family="Helvetica,sans-Serif" font-size="11.00" fill="#000000">1 &gt;</text>
</a>
</g>
</g>
<!-- neo_variableelements&#45;&gt;neo_elementmaturities -->
<g id="edge3" class="edge">
<title>neo_variableelements:w&#45;&gt;neo_elementmaturities:e</title>
<path fill="none" stroke="#000000" d="M223.7575,-206.41C189.4269,-186.8496 236.6172,-86.7 182.5,-86.7"/>
<polygon fill="#000000" stroke="#000000" points="230.2053,-207.8994 237.1897,-213.2076 234.1026,-208.7997 238,-209.7 238,-209.7 238,-209.7 234.1026,-208.7997 238.8103,-206.1924 230.2053,-207.8994 230.2053,-207.8994"/>
<ellipse fill="none" stroke="#000000" cx="227.0874" cy="-207.1792" rx="3.2" ry="3.2"/>
</g>
<!-- neo_elementportions -->
<g id="node5" class="node">
<title>neo_elementportions</title>
<g id="a_node5"><a xlink:href="../../tables/neo_elementportions.html" xlink:title="neo_elementportions" target="_top">
<polygon fill="#ffffff" stroke="transparent" points="17.5,-142.2 17.5,-225.2 177.5,-225.2 177.5,-142.2 17.5,-142.2"/>
<polygon fill="#f5f5f5" stroke="transparent" points="17.5,-201.7 17.5,-224.7 177.5,-224.7 177.5,-201.7 17.5,-201.7"/>
<polygon fill="none" stroke="#000000" points="17.5,-201.7 17.5,-224.7 177.5,-224.7 177.5,-201.7 17.5,-201.7"/>
<text text-anchor="start" x="22.5" y="-210.3" font-family="Helvetica,sans-Serif" font-weight="bold" font-size="11.00" fill="#000000">neo_elementportions</text>
<text text-anchor="start" x="143.0219" y="-209.8" font-family="Helvetica,sans-Serif" font-size="11.00" fill="#000000">[table]</text>
<polygon fill="none" stroke="#000000" points="17.5,-179.7 17.5,-201.7 177.5,-201.7 177.5,-179.7 17.5,-179.7"/>
<image xlink:href="../../images/primaryKeys.png" width="11px" height="12px" preserveAspectRatio="xMinYMin meet" x="22.5" y="-196.7"/>
<text text-anchor="start" x="46.5" y="-186.8" font-family="Helvetica,sans-Serif" font-size="11.00" fill="#000000">PORTIONID</text>
<polygon fill="none" stroke="#000000" points="17.5,-160.7 17.5,-179.7 177.5,-179.7 177.5,-160.7 17.5,-160.7"/>
<text text-anchor="start" x="20.5" y="-166.8" font-family="Helvetica,sans-Serif" font-size="11.00" fill="#000000">...</text>
<polygon fill="#ffffff" stroke="transparent" points="17.5,-141.7 17.5,-160.7 70.5,-160.7 70.5,-141.7 17.5,-141.7"/>
<polygon fill="none" stroke="#000000" points="17.5,-141.7 17.5,-160.7 70.5,-160.7 70.5,-141.7 17.5,-141.7"/>
<text text-anchor="start" x="20.5" y="-147.8" font-family="Helvetica,sans-Serif" font-size="11.00" fill="#000000"> &#160;</text>
<polygon fill="#ffffff" stroke="transparent" points="70.5,-141.7 70.5,-160.7 135.5,-160.7 135.5,-141.7 70.5,-141.7"/>
<polygon fill="none" stroke="#000000" points="70.5,-141.7 70.5,-160.7 135.5,-160.7 135.5,-141.7 70.5,-141.7"/>
<text text-anchor="start" x="93.9956" y="-147.8" font-family="Helvetica,sans-Serif" font-size="11.00" fill="#000000">54 rows</text>
<polygon fill="#ffffff" stroke="transparent" points="135.5,-141.7 135.5,-160.7 177.5,-160.7 177.5,-141.7 135.5,-141.7"/>
<polygon fill="none" stroke="#000000" points="135.5,-141.7 135.5,-160.7 177.5,-160.7 177.5,-141.7 135.5,-141.7"/>
<text text-anchor="start" x="158.9053" y="-147.8" font-family="Helvetica,sans-Serif" font-size="11.00" fill="#000000">1 &gt;</text>
</a>
</g>
</g>
<!-- neo_variableelements&#45;&gt;neo_elementportions -->
<g id="edge4" class="edge">
<title>neo_variableelements:w&#45;&gt;neo_elementportions:e</title>
<path fill="none" stroke="#000000" d="M223.8943,-228.3448C205.9459,-218.5528 204.272,-190.7 177.5,-190.7"/>
<polygon fill="#000000" stroke="#000000" points="230.2171,-229.8487 237.1669,-235.2023 234.1086,-230.7744 238,-231.7 238,-231.7 238,-231.7 234.1086,-230.7744 238.8331,-228.1977 230.2171,-229.8487 230.2171,-229.8487"/>
<ellipse fill="none" stroke="#000000" cx="227.104" cy="-229.1082" rx="3.2" ry="3.2"/>
</g>
<!-- neo_elementsymmetries -->
<g id="node6" class="node">
<title>neo_elementsymmetries</title>
<g id="a_node6"><a xlink:href="../../tables/neo_elementsymmetries.html" xlink:title="neo_elementsymmetries" target="_top">
<polygon fill="#ffffff" stroke="transparent" points="8,-246.2 8,-329.2 187,-329.2 187,-246.2 8,-246.2"/>
<polygon fill="#f5f5f5" stroke="transparent" points="8.5,-305.7 8.5,-328.7 187.5,-328.7 187.5,-305.7 8.5,-305.7"/>
<polygon fill="none" stroke="#000000" points="8.5,-305.7 8.5,-328.7 187.5,-328.7 187.5,-305.7 8.5,-305.7"/>
<text text-anchor="start" x="13.5" y="-314.3" font-family="Helvetica,sans-Serif" font-weight="bold" font-size="11.00" fill="#000000">neo_elementsymmetries</text>
<text text-anchor="start" x="153.0219" y="-313.8" font-family="Helvetica,sans-Serif" font-size="11.00" fill="#000000">[table]</text>
<polygon fill="none" stroke="#000000" points="8.5,-283.7 8.5,-305.7 187.5,-305.7 187.5,-283.7 8.5,-283.7"/>
<image xlink:href="../../images/primaryKeys.png" width="11px" height="12px" preserveAspectRatio="xMinYMin meet" x="13.5" y="-300.7"/>
<text text-anchor="start" x="37.5" y="-290.8" font-family="Helvetica,sans-Serif" font-size="11.00" fill="#000000">SYMMETRYID</text>
<polygon fill="none" stroke="#000000" points="8.5,-264.7 8.5,-283.7 187.5,-283.7 187.5,-264.7 8.5,-264.7"/>
<text text-anchor="start" x="11.5" y="-270.8" font-family="Helvetica,sans-Serif" font-size="11.00" fill="#000000">...</text>
<polygon fill="#ffffff" stroke="transparent" points="8.5,-245.7 8.5,-264.7 74.5,-264.7 74.5,-245.7 8.5,-245.7"/>
<polygon fill="none" stroke="#000000" points="8.5,-245.7 8.5,-264.7 74.5,-264.7 74.5,-245.7 8.5,-245.7"/>
<text text-anchor="start" x="11.5" y="-251.8" font-family="Helvetica,sans-Serif" font-size="11.00" fill="#000000"> &#160;</text>
<polygon fill="#ffffff" stroke="transparent" points="74.5,-245.7 74.5,-264.7 139.5,-264.7 139.5,-245.7 74.5,-245.7"/>
<polygon fill="none" stroke="#000000" points="74.5,-245.7 74.5,-264.7 139.5,-264.7 139.5,-245.7 74.5,-245.7"/>
<text text-anchor="start" x="104.1105" y="-251.8" font-family="Helvetica,sans-Serif" font-size="11.00" fill="#000000">0 rows</text>
<polygon fill="#ffffff" stroke="transparent" points="139.5,-245.7 139.5,-264.7 187.5,-264.7 187.5,-245.7 139.5,-245.7"/>
<polygon fill="none" stroke="#000000" points="139.5,-245.7 139.5,-264.7 187.5,-264.7 187.5,-245.7 139.5,-245.7"/>
<text text-anchor="start" x="168.9053" y="-251.8" font-family="Helvetica,sans-Serif" font-size="11.00" fill="#000000">1 &gt;</text>
</a>
</g>
</g>
<!-- neo_variableelements&#45;&gt;neo_elementsymmetries -->
<g id="edge5" class="edge">
<title>neo_variableelements:w&#45;&gt;neo_elementsymmetries:e</title>
<path fill="none" stroke="#000000" d="M224.2601,-258.0877C210.5688,-268.6646 210.5379,-294.7 187.5,-294.7"/>
<polygon fill="#000000" stroke="#000000" points="230.3792,-256.1337 239.0952,-257.1294 234.1896,-254.9168 238,-253.7 238,-253.7 238,-253.7 234.1896,-254.9168 236.9048,-250.2706 230.3792,-256.1337 230.3792,-256.1337"/>
<ellipse fill="none" stroke="#000000" cx="227.3308" cy="-257.1072" rx="3.2" ry="3.2"/>
</g>
</g>
</svg>
