<?xml version="1.0" encoding="UTF-8" standalone="no"?>
<!DOCTYPE svg PUBLIC "-//W3C//DTD SVG 1.1//EN"
 "http://www.w3.org/Graphics/SVG/1.1/DTD/svg11.dtd">
<!-- Generated by graphviz version 2.40.1 (20161225.0304)
 -->
<!-- Title: oneDegreeRelationshipsDiagram Pages: 1 -->
<svg width="484pt" height="271pt"
 viewBox="0.00 0.00 484.00 270.70" xmlns="http://www.w3.org/2000/svg" xmlns:xlink="http://www.w3.org/1999/xlink">
<g id="graph0" class="graph" transform="scale(1 1) rotate(0) translate(4 266.7)">
<title>oneDegreeRelationshipsDiagram</title>
<polygon fill="#ffffff" stroke="transparent" points="-4,4 -4,-266.7 480,-266.7 480,4 -4,4"/>
<text text-anchor="middle" x="72.4936" y="-7.3" font-family="Helvetica,sans-Serif" font-size="11.00" fill="#000000">Generated by SchemaSpy</text>
<!-- neo_variableelements -->
<g id="node1" class="node">
<title>neo_variableelements</title>
<g id="a_node1"><a xlink:href="../../tables/neo_variableelements.html" xlink:title="neo_variableelements" target="_top">
<polygon fill="#ffffff" stroke="transparent" points="304,-87.7 304,-258.7 468,-258.7 468,-87.7 304,-87.7"/>
<polygon fill="#f5f5f5" stroke="transparent" points="304,-235.2 304,-258.2 468,-258.2 468,-235.2 304,-235.2"/>
<polygon fill="none" stroke="#000000" points="304,-235.2 304,-258.2 468,-258.2 468,-235.2 304,-235.2"/>
<text text-anchor="start" x="309" y="-243.8" font-family="Helvetica,sans-Serif" font-weight="bold" font-size="11.00" fill="#000000">neo_variableelements</text>
<text text-anchor="start" x="433.5219" y="-243.3" font-family="Helvetica,sans-Serif" font-size="11.00" fill="#000000">[table]</text>
<polygon fill="none" stroke="#000000" points="304,-213.2 304,-235.2 468,-235.2 468,-213.2 304,-213.2"/>
<image xlink:href="../../images/primaryKeys.png" width="11px" height="12px" preserveAspectRatio="xMinYMin meet" x="309" y="-230.2"/>
<text text-anchor="start" x="333" y="-220.3" font-family="Helvetica,sans-Serif" font-size="11.00" fill="#000000">VARELEMTID</text>
<polygon fill="none" stroke="#000000" points="304,-191.2 304,-213.2 468,-213.2 468,-191.2 304,-191.2"/>
<image xlink:href="../../images/foreignKeys.png" width="11px" height="12px" preserveAspectRatio="xMinYMin meet" x="309" y="-208.2"/>
<text text-anchor="start" x="333" y="-198.3" font-family="Helvetica,sans-Serif" font-size="11.00" fill="#000000">ELEMTYPEID</text>
<polygon fill="none" stroke="#000000" points="304,-169.2 304,-191.2 468,-191.2 468,-169.2 304,-169.2"/>
<image xlink:href="../../images/foreignKeys.png" width="11px" height="12px" preserveAspectRatio="xMinYMin meet" x="309" y="-186.2"/>
<text text-anchor="start" x="333" y="-176.3" font-family="Helvetica,sans-Serif" font-size="11.00" fill="#000000">SYMMETRYID</text>
<polygon fill="none" stroke="#000000" points="304,-147.2 304,-169.2 468,-169.2 468,-147.2 304,-147.2"/>
<image xlink:href="../../images/foreignKeys.png" width="11px" height="12px" preserveAspectRatio="xMinYMin meet" x="309" y="-164.2"/>
<text text-anchor="start" x="333" y="-154.3" font-family="Helvetica,sans-Serif" font-size="11.00" fill="#000000">PORTIONID</text>
<polygon fill="none" stroke="#000000" points="304,-125.2 304,-147.2 468,-147.2 468,-125.2 304,-125.2"/>
<image xlink:href="../../images/foreignKeys.png" width="11px" height="12px" preserveAspectRatio="xMinYMin meet" x="309" y="-142.2"/>
<text text-anchor="start" x="333" y="-132.3" font-family="Helvetica,sans-Serif" font-size="11.00" fill="#000000">MATURITYID</text>
<polygon fill="none" stroke="#000000" points="304,-106.2 304,-125.2 468,-125.2 468,-106.2 304,-106.2"/>
<text text-anchor="start" x="307" y="-112.3" font-family="Helvetica,sans-Serif" font-size="11.00" fill="#000000">...</text>
<polygon fill="#ffffff" stroke="transparent" points="304,-87.2 304,-106.2 361,-106.2 361,-87.2 304,-87.2"/>
<polygon fill="none" stroke="#000000" points="304,-87.2 304,-106.2 361,-106.2 361,-87.2 304,-87.2"/>
<text text-anchor="start" x="307" y="-93.3" font-family="Helvetica,sans-Serif" font-size="11.00" fill="#000000">&lt; 4</text>
<polygon fill="#ffffff" stroke="transparent" points="361,-87.2 361,-106.2 429,-106.2 429,-87.2 361,-87.2"/>
<polygon fill="none" stroke="#000000" points="361,-87.2 361,-106.2 429,-106.2 429,-87.2 361,-87.2"/>
<text text-anchor="start" x="381.3807" y="-93.3" font-family="Helvetica,sans-Serif" font-size="11.00" fill="#000000">983 rows</text>
<polygon fill="#ffffff" stroke="transparent" points="429,-87.2 429,-106.2 468,-106.2 468,-87.2 429,-87.2"/>
<polygon fill="none" stroke="#000000" points="429,-87.2 429,-106.2 468,-106.2 468,-87.2 429,-87.2"/>
<text text-anchor="start" x="449.4053" y="-93.3" font-family="Helvetica,sans-Serif" font-size="11.00" fill="#000000">1 &gt;</text>
</a>
</g>
</g>
<!-- neo_elementmaturities -->
<g id="node2" class="node">
<title>neo_elementmaturities</title>
<g id="a_node2"><a xlink:href="../../tables/neo_elementmaturities.html" xlink:title="neo_elementmaturities" target="_top">
<polygon fill="#ffffff" stroke="transparent" points="8,-38.2 8,-172.2 255,-172.2 255,-38.2 8,-38.2"/>
<polygon fill="#f5f5f5" stroke="transparent" points="10.5,-147.2 10.5,-170.2 253.5,-170.2 253.5,-147.2 10.5,-147.2"/>
<polygon fill="none" stroke="#000000" points="10.5,-147.2 10.5,-170.2 253.5,-170.2 253.5,-147.2 10.5,-147.2"/>
<text text-anchor="start" x="15.5" y="-155.8" font-family="Helvetica,sans-Serif" font-weight="bold" font-size="11.00" fill="#000000">neo_elementmaturities</text>
<text text-anchor="start" x="218.5437" y="-155.3" font-family="Helvetica,sans-Serif" font-size="11.00" fill="#000000">[table]</text>
<polygon fill="none" stroke="#000000" points="10.5,-125.2 10.5,-147.2 161.5,-147.2 161.5,-125.2 10.5,-125.2"/>
<image xlink:href="../../images/primaryKeys.png" width="11px" height="12px" preserveAspectRatio="xMinYMin meet" x="15.5" y="-142.2"/>
<text text-anchor="start" x="30.5" y="-132.3" font-family="Helvetica,sans-Serif" font-size="11.00" fill="#000000">MATURITYID</text>
<polygon fill="none" stroke="#000000" points="161.5,-125.2 161.5,-147.2 253.5,-147.2 253.5,-125.2 161.5,-125.2"/>
<text text-anchor="start" x="164.5" y="-132.9" font-family="Helvetica,sans-Serif" font-size="11.00" fill="#000000">int2[5]</text>
<polygon fill="none" stroke="#000000" points="10.5,-103.2 10.5,-125.2 161.5,-125.2 161.5,-103.2 10.5,-103.2"/>
<text text-anchor="start" x="30.5" y="-110.3" font-family="Helvetica,sans-Serif" font-size="11.00" fill="#000000">MATURITY</text>
<polygon fill="none" stroke="#000000" points="161.5,-103.2 161.5,-125.2 253.5,-125.2 253.5,-103.2 161.5,-103.2"/>
<text text-anchor="start" x="164.5" y="-110.9" font-family="Helvetica,sans-Serif" font-size="11.00" fill="#000000">text[2147483647]</text>
<polygon fill="none" stroke="#000000" points="10.5,-81.2 10.5,-103.2 161.5,-103.2 161.5,-81.2 10.5,-81.2"/>
<text text-anchor="start" x="30.5" y="-88.3" font-family="Helvetica,sans-Serif" font-size="11.00" fill="#000000">CREATED_AT</text>
<polygon fill="none" stroke="#000000" points="161.5,-81.2 161.5,-103.2 253.5,-103.2 253.5,-81.2 161.5,-81.2"/>
<text text-anchor="start" x="164.1023" y="-88.9" font-family="Helvetica,sans-Serif" font-size="11.00" fill="#000000">timestamptz[35,6]</text>
<polygon fill="none" stroke="#000000" points="10.5,-59.2 10.5,-81.2 161.5,-81.2 161.5,-59.2 10.5,-59.2"/>
<text text-anchor="start" x="30.5" y="-66.3" font-family="Helvetica,sans-Serif" font-size="11.00" fill="#000000">UPDATED_AT</text>
<polygon fill="none" stroke="#000000" points="161.5,-59.2 161.5,-81.2 253.5,-81.2 253.5,-59.2 161.5,-59.2"/>
<text text-anchor="start" x="164.1023" y="-66.9" font-family="Helvetica,sans-Serif" font-size="11.00" fill="#000000">timestamptz[35,6]</text>
<polygon fill="#ffffff" stroke="transparent" points="10.5,-40.2 10.5,-59.2 77.5,-59.2 77.5,-40.2 10.5,-40.2"/>
<polygon fill="none" stroke="#000000" points="10.5,-40.2 10.5,-59.2 77.5,-59.2 77.5,-40.2 10.5,-40.2"/>
<text text-anchor="start" x="13.5" y="-46.3" font-family="Helvetica,sans-Serif" font-size="11.00" fill="#000000">&lt; 0</text>
<polygon fill="#ffffff" stroke="transparent" points="77.5,-40.2 77.5,-59.2 161.5,-59.2 161.5,-40.2 77.5,-40.2"/>
<polygon fill="none" stroke="#000000" points="77.5,-40.2 77.5,-59.2 161.5,-59.2 161.5,-40.2 77.5,-40.2"/>
<text text-anchor="start" x="126.1105" y="-46.3" font-family="Helvetica,sans-Serif" font-size="11.00" fill="#000000">0 rows</text>
<polygon fill="#ffffff" stroke="transparent" points="161.5,-40.2 161.5,-59.2 253.5,-59.2 253.5,-40.2 161.5,-40.2"/>
<polygon fill="none" stroke="#000000" points="161.5,-40.2 161.5,-59.2 253.5,-59.2 253.5,-40.2 161.5,-40.2"/>
<text text-anchor="start" x="234.9053" y="-46.3" font-family="Helvetica,sans-Serif" font-size="11.00" fill="#000000">1 &gt;</text>
<polygon fill="none" stroke="#000000" stroke-width="2" points="9,-39.2 9,-171.2 254,-171.2 254,-39.2 9,-39.2"/>
</a>
</g>
</g>
<!-- neo_variableelements&#45;&gt;neo_elementmaturities -->
<g id="edge1" class="edge">
<title>neo_variableelements:w&#45;&gt;neo_elementmaturities:e</title>
<path fill="none" stroke="#000000" d="M289.4203,-136.2C277.5435,-136.2 270.158,-136.2 253.5,-136.2"/>
<polygon fill="#000000" stroke="#000000" points="296,-136.2001 304,-139.8 300,-136.2 304,-136.2 304,-136.2 304,-136.2 300,-136.2 304,-132.6 296,-136.2001 296,-136.2001"/>
<ellipse fill="none" stroke="#000000" cx="292.8" cy="-136.2001" rx="3.2" ry="3.2"/>
</g>
</g>
</svg>
