<?xml version="1.0" encoding="UTF-8" standalone="no"?>
<!DOCTYPE svg PUBLIC "-//W3C//DTD SVG 1.1//EN"
 "http://www.w3.org/Graphics/SVG/1.1/DTD/svg11.dtd">
<!-- Generated by graphviz version 2.40.1 (20161225.0304)
 -->
<!-- Title: twoDegreesRelationshipsDiagram Pages: 1 -->
<svg width="440pt" height="267pt"
 viewBox="0.00 0.00 440.00 266.70" xmlns="http://www.w3.org/2000/svg" xmlns:xlink="http://www.w3.org/1999/xlink">
<g id="graph0" class="graph" transform="scale(1 1) rotate(0) translate(4 262.7)">
<title>twoDegreesRelationshipsDiagram</title>
<polygon fill="#ffffff" stroke="transparent" points="-4,4 -4,-262.7 436,-262.7 436,4 -4,4"/>
<text text-anchor="middle" x="72.4936" y="-7.3" font-family="Helvetica,sans-Serif" font-size="11.00" fill="#000000">Generated by SchemaSpy</text>
<!-- ippd_samplekeywords -->
<g id="node1" class="node">
<title>ippd_samplekeywords</title>
<g id="a_node1"><a xlink:href="../../tables/ippd_samplekeywords.html" xlink:title="ippd_samplekeywords" target="_top">
<polygon fill="#ffffff" stroke="transparent" points="257,-118.7 257,-223.7 424,-223.7 424,-118.7 257,-118.7"/>
<polygon fill="#f5f5f5" stroke="transparent" points="257.5,-200.2 257.5,-223.2 424.5,-223.2 424.5,-200.2 257.5,-200.2"/>
<polygon fill="none" stroke="#000000" points="257.5,-200.2 257.5,-223.2 424.5,-223.2 424.5,-200.2 257.5,-200.2"/>
<text text-anchor="start" x="262.5" y="-208.8" font-family="Helvetica,sans-Serif" font-weight="bold" font-size="11.00" fill="#000000">ippd_samplekeywords</text>
<text text-anchor="start" x="390.0219" y="-208.3" font-family="Helvetica,sans-Serif" font-size="11.00" fill="#000000">[table]</text>
<polygon fill="none" stroke="#000000" points="257.5,-178.2 257.5,-200.2 424.5,-200.2 424.5,-178.2 257.5,-178.2"/>
<image xlink:href="../../images/primaryKeys.png" width="11px" height="12px" preserveAspectRatio="xMinYMin meet" x="262.5" y="-195.2"/>
<text text-anchor="start" x="286.5" y="-185.3" font-family="Helvetica,sans-Serif" font-size="11.00" fill="#000000">SAMPLEID</text>
<polygon fill="none" stroke="#000000" points="257.5,-156.2 257.5,-178.2 424.5,-178.2 424.5,-156.2 257.5,-156.2"/>
<image xlink:href="../../images/primaryKeys.png" width="11px" height="12px" preserveAspectRatio="xMinYMin meet" x="262.5" y="-173.2"/>
<text text-anchor="start" x="286.5" y="-163.3" font-family="Helvetica,sans-Serif" font-size="11.00" fill="#000000">KEYWORDID</text>
<polygon fill="none" stroke="#000000" points="257.5,-137.2 257.5,-156.2 424.5,-156.2 424.5,-137.2 257.5,-137.2"/>
<text text-anchor="start" x="260.5" y="-143.3" font-family="Helvetica,sans-Serif" font-size="11.00" fill="#000000">...</text>
<polygon fill="#ffffff" stroke="transparent" points="257.5,-118.2 257.5,-137.2 323.5,-137.2 323.5,-118.2 257.5,-118.2"/>
<polygon fill="none" stroke="#000000" points="257.5,-118.2 257.5,-137.2 323.5,-137.2 323.5,-118.2 257.5,-118.2"/>
<text text-anchor="start" x="260.5" y="-124.3" font-family="Helvetica,sans-Serif" font-size="11.00" fill="#000000">&lt; 2</text>
<polygon fill="#ffffff" stroke="transparent" points="323.5,-118.2 323.5,-137.2 389.5,-137.2 389.5,-118.2 323.5,-118.2"/>
<polygon fill="none" stroke="#000000" points="323.5,-118.2 323.5,-137.2 389.5,-137.2 389.5,-118.2 323.5,-118.2"/>
<text text-anchor="start" x="347.9956" y="-124.3" font-family="Helvetica,sans-Serif" font-size="11.00" fill="#000000">68 rows</text>
<polygon fill="#ffffff" stroke="transparent" points="389.5,-118.2 389.5,-137.2 424.5,-137.2 424.5,-118.2 389.5,-118.2"/>
<polygon fill="none" stroke="#000000" points="389.5,-118.2 389.5,-137.2 424.5,-137.2 424.5,-118.2 389.5,-118.2"/>
<text text-anchor="start" x="415.3862" y="-124.3" font-family="Helvetica,sans-Serif" font-size="11.00" fill="#000000"> &#160;</text>
</a>
</g>
</g>
<!-- neo_keywords -->
<g id="node2" class="node">
<title>neo_keywords</title>
<g id="a_node2"><a xlink:href="../../tables/neo_keywords.html" xlink:title="neo_keywords" target="_top">
<polygon fill="#ffffff" stroke="transparent" points="8,-38.2 8,-172.2 208,-172.2 208,-38.2 8,-38.2"/>
<polygon fill="#f5f5f5" stroke="transparent" points="10,-147.2 10,-170.2 206,-170.2 206,-147.2 10,-147.2"/>
<polygon fill="none" stroke="#000000" points="10,-147.2 10,-170.2 206,-170.2 206,-147.2 10,-147.2"/>
<text text-anchor="start" x="15" y="-155.8" font-family="Helvetica,sans-Serif" font-weight="bold" font-size="11.00" fill="#000000">neo_keywords</text>
<text text-anchor="start" x="171.0437" y="-155.3" font-family="Helvetica,sans-Serif" font-size="11.00" fill="#000000">[table]</text>
<polygon fill="none" stroke="#000000" points="10,-125.2 10,-147.2 114,-147.2 114,-125.2 10,-125.2"/>
<image xlink:href="../../images/primaryKeys.png" width="11px" height="12px" preserveAspectRatio="xMinYMin meet" x="15" y="-142.2"/>
<text text-anchor="start" x="30" y="-132.3" font-family="Helvetica,sans-Serif" font-size="11.00" fill="#000000">KEYWORDID</text>
<polygon fill="none" stroke="#000000" points="114,-125.2 114,-147.2 206,-147.2 206,-125.2 114,-125.2"/>
<text text-anchor="start" x="117" y="-132.9" font-family="Helvetica,sans-Serif" font-size="11.00" fill="#000000">int2[5]</text>
<polygon fill="none" stroke="#000000" points="10,-103.2 10,-125.2 114,-125.2 114,-103.2 10,-103.2"/>
<text text-anchor="start" x="30" y="-110.3" font-family="Helvetica,sans-Serif" font-size="11.00" fill="#000000">KEYWORD</text>
<polygon fill="none" stroke="#000000" points="114,-103.2 114,-125.2 206,-125.2 206,-103.2 114,-103.2"/>
<text text-anchor="start" x="117" y="-110.9" font-family="Helvetica,sans-Serif" font-size="11.00" fill="#000000">text[2147483647]</text>
<polygon fill="none" stroke="#000000" points="10,-81.2 10,-103.2 114,-103.2 114,-81.2 10,-81.2"/>
<text text-anchor="start" x="30" y="-88.3" font-family="Helvetica,sans-Serif" font-size="11.00" fill="#000000">CREATED_AT</text>
<polygon fill="none" stroke="#000000" points="114,-81.2 114,-103.2 206,-103.2 206,-81.2 114,-81.2"/>
<text text-anchor="start" x="116.6023" y="-88.9" font-family="Helvetica,sans-Serif" font-size="11.00" fill="#000000">timestamptz[35,6]</text>
<polygon fill="none" stroke="#000000" points="10,-59.2 10,-81.2 114,-81.2 114,-59.2 10,-59.2"/>
<text text-anchor="start" x="30" y="-66.3" font-family="Helvetica,sans-Serif" font-size="11.00" fill="#000000">UPDATED_AT</text>
<polygon fill="none" stroke="#000000" points="114,-59.2 114,-81.2 206,-81.2 206,-59.2 114,-59.2"/>
<text text-anchor="start" x="116.6023" y="-66.9" font-family="Helvetica,sans-Serif" font-size="11.00" fill="#000000">timestamptz[35,6]</text>
<polygon fill="#ffffff" stroke="transparent" points="10,-40.2 10,-59.2 53,-59.2 53,-40.2 10,-40.2"/>
<polygon fill="none" stroke="#000000" points="10,-40.2 10,-59.2 53,-59.2 53,-40.2 10,-40.2"/>
<text text-anchor="start" x="13" y="-46.3" font-family="Helvetica,sans-Serif" font-size="11.00" fill="#000000">&lt; 0</text>
<polygon fill="#ffffff" stroke="transparent" points="53,-40.2 53,-59.2 114,-59.2 114,-40.2 53,-40.2"/>
<polygon fill="none" stroke="#000000" points="53,-40.2 53,-59.2 114,-59.2 114,-40.2 53,-40.2"/>
<text text-anchor="start" x="78.6105" y="-46.3" font-family="Helvetica,sans-Serif" font-size="11.00" fill="#000000">0 rows</text>
<polygon fill="#ffffff" stroke="transparent" points="114,-40.2 114,-59.2 206,-59.2 206,-40.2 114,-40.2"/>
<polygon fill="none" stroke="#000000" points="114,-40.2 114,-59.2 206,-59.2 206,-40.2 114,-40.2"/>
<text text-anchor="start" x="187.4053" y="-46.3" font-family="Helvetica,sans-Serif" font-size="11.00" fill="#000000">1 &gt;</text>
<polygon fill="none" stroke="#000000" stroke-width="2" points="9,-39.2 9,-171.2 207,-171.2 207,-39.2 9,-39.2"/>
</a>
</g>
</g>
<!-- ippd_samplekeywords&#45;&gt;neo_keywords -->
<g id="edge1" class="edge">
<title>ippd_samplekeywords:w&#45;&gt;neo_keywords:e</title>
<path fill="none" stroke="#000000" d="M243.4805,-163.3988C230.2585,-155.1209 226.8716,-136.2 206,-136.2"/>
<polygon fill="#000000" stroke="#000000" points="249.7788,-165.1064 256.5579,-170.6745 253.6394,-166.1532 257.5,-167.2 257.5,-167.2 257.5,-167.2 253.6394,-166.1532 258.4421,-163.7255 249.7788,-165.1064 249.7788,-165.1064"/>
<ellipse fill="none" stroke="#000000" cx="246.6903" cy="-164.269" rx="3.2" ry="3.2"/>
</g>
<!-- ippd_Sample -->
<g id="node3" class="node">
<title>ippd_Sample</title>
<g id="a_node3"><a xlink:href="../../tables/ippd_Sample.html" xlink:title="ippd_Sample" target="_top">
<polygon fill="#ffffff" stroke="transparent" points="51.5,-193.7 51.5,-254.7 164.5,-254.7 164.5,-193.7 51.5,-193.7"/>
<polygon fill="#f5f5f5" stroke="transparent" points="52,-231.2 52,-254.2 165,-254.2 165,-231.2 52,-231.2"/>
<polygon fill="none" stroke="#000000" points="52,-231.2 52,-254.2 165,-254.2 165,-231.2 52,-231.2"/>
<text text-anchor="start" x="57" y="-239.8" font-family="Helvetica,sans-Serif" font-weight="bold" font-size="11.00" fill="#000000">ippd_Sample</text>
<text text-anchor="start" x="130.5219" y="-239.3" font-family="Helvetica,sans-Serif" font-size="11.00" fill="#000000">[table]</text>
<polygon fill="none" stroke="#000000" points="52,-212.2 52,-231.2 165,-231.2 165,-212.2 52,-212.2"/>
<text text-anchor="start" x="55" y="-218.3" font-family="Helvetica,sans-Serif" font-size="11.00" fill="#000000">...</text>
<polygon fill="#ffffff" stroke="transparent" points="52,-193.2 52,-212.2 76,-212.2 76,-193.2 52,-193.2"/>
<polygon fill="none" stroke="#000000" points="52,-193.2 52,-212.2 76,-212.2 76,-193.2 52,-193.2"/>
<text text-anchor="start" x="55" y="-199.3" font-family="Helvetica,sans-Serif" font-size="11.00" fill="#000000">&lt; 4</text>
<polygon fill="#ffffff" stroke="transparent" points="76,-193.2 76,-212.2 142,-212.2 142,-193.2 76,-193.2"/>
<polygon fill="none" stroke="#000000" points="76,-193.2 76,-212.2 142,-212.2 142,-193.2 76,-193.2"/>
<text text-anchor="start" x="79.094" y="-199.3" font-family="Helvetica,sans-Serif" font-size="11.00" fill="#000000">18.370 rows</text>
<polygon fill="#ffffff" stroke="transparent" points="142,-193.2 142,-212.2 165,-212.2 165,-193.2 142,-193.2"/>
<polygon fill="none" stroke="#000000" points="142,-193.2 142,-212.2 165,-212.2 165,-193.2 142,-193.2"/>
<text text-anchor="start" x="146.4053" y="-199.3" font-family="Helvetica,sans-Serif" font-size="11.00" fill="#000000">3 &gt;</text>
</a>
</g>
</g>
<!-- ippd_samplekeywords&#45;&gt;ippd_Sample -->
<g id="edge2" class="edge">
<title>ippd_samplekeywords:w&#45;&gt;ippd_Sample:e</title>
<path fill="none" stroke="#000000" d="M242.8199,-190.575C212.0303,-196.7 203.064,-221.2 165,-221.2"/>
<polygon fill="#000000" stroke="#000000" points="249.5349,-189.9461 257.8357,-192.7843 253.5174,-189.573 257.5,-189.2 257.5,-189.2 257.5,-189.2 253.5174,-189.573 257.1643,-185.6157 249.5349,-189.9461 249.5349,-189.9461"/>
<ellipse fill="none" stroke="#000000" cx="246.3488" cy="-190.2445" rx="3.2" ry="3.2"/>
</g>
</g>
</svg>
