<?xml version="1.0" encoding="UTF-8" standalone="no"?>
<!DOCTYPE svg PUBLIC "-//W3C//DTD SVG 1.1//EN"
 "http://www.w3.org/Graphics/SVG/1.1/DTD/svg11.dtd">
<!-- Generated by graphviz version 2.40.1 (20161225.0304)
 -->
<!-- Title: oneDegreeRelationshipsDiagram Pages: 1 -->
<svg width="432pt" height="2205pt"
 viewBox="0.00 0.00 432.00 2205.20" xmlns="http://www.w3.org/2000/svg" xmlns:xlink="http://www.w3.org/1999/xlink">
<g id="graph0" class="graph" transform="scale(1 1) rotate(0) translate(4 2201.2)">
<title>oneDegreeRelationshipsDiagram</title>
<polygon fill="#ffffff" stroke="transparent" points="-4,4 -4,-2201.2 428,-2201.2 428,4 -4,4"/>
<text text-anchor="middle" x="72.4936" y="-7.3" font-family="Helvetica,sans-Serif" font-size="11.00" fill="#000000">Generated by SchemaSpy</text>
<!-- arch_osl_DataCore -->
<g id="node1" class="node">
<title>arch_osl_DataCore</title>
<g id="a_node1"><a xlink:href="../../tables/arch_osl_DataCore.html" xlink:title="arch_osl_DataCore" target="_top">
<polygon fill="#ffffff" stroke="transparent" points="268,-1670.2 268,-2193.2 416,-2193.2 416,-1670.2 268,-1670.2"/>
<polygon fill="#f5f5f5" stroke="transparent" points="268,-2169.7 268,-2192.7 416,-2192.7 416,-2169.7 268,-2169.7"/>
<polygon fill="none" stroke="#000000" points="268,-2169.7 268,-2192.7 416,-2192.7 416,-2169.7 268,-2169.7"/>
<text text-anchor="start" x="273" y="-2178.3" font-family="Helvetica,sans-Serif" font-weight="bold" font-size="11.00" fill="#000000">arch_osl_DataCore</text>
<text text-anchor="start" x="381.5219" y="-2177.8" font-family="Helvetica,sans-Serif" font-size="11.00" fill="#000000">[table]</text>
<polygon fill="none" stroke="#000000" points="268,-2147.7 268,-2169.7 416,-2169.7 416,-2147.7 268,-2147.7"/>
<image xlink:href="../../images/primaryKeys.png" width="11px" height="12px" preserveAspectRatio="xMinYMin meet" x="273" y="-2164.7"/>
<text text-anchor="start" x="297" y="-2154.8" font-family="Helvetica,sans-Serif" font-size="11.00" fill="#000000">OBSID1</text>
<polygon fill="none" stroke="#000000" points="268,-2125.7 268,-2147.7 416,-2147.7 416,-2125.7 268,-2125.7"/>
<image xlink:href="../../images/foreignKeys.png" width="11px" height="12px" preserveAspectRatio="xMinYMin meet" x="273" y="-2142.7"/>
<text text-anchor="start" x="297" y="-2132.8" font-family="Helvetica,sans-Serif" font-size="11.00" fill="#000000">SMPID</text>
<polygon fill="none" stroke="#000000" points="268,-2103.7 268,-2125.7 416,-2125.7 416,-2103.7 268,-2103.7"/>
<image xlink:href="../../images/foreignKeys.png" width="11px" height="12px" preserveAspectRatio="xMinYMin meet" x="273" y="-2120.7"/>
<text text-anchor="start" x="297" y="-2110.8" font-family="Helvetica,sans-Serif" font-size="11.00" fill="#000000">LAB_ORIGID</text>
<polygon fill="none" stroke="#000000" points="268,-2081.7 268,-2103.7 416,-2103.7 416,-2081.7 268,-2081.7"/>
<image xlink:href="../../images/foreignKeys.png" width="11px" height="12px" preserveAspectRatio="xMinYMin meet" x="273" y="-2098.7"/>
<text text-anchor="start" x="297" y="-2088.8" font-family="Helvetica,sans-Serif" font-size="11.00" fill="#000000">METHODID</text>
<polygon fill="none" stroke="#000000" points="268,-2059.7 268,-2081.7 416,-2081.7 416,-2059.7 268,-2059.7"/>
<image xlink:href="../../images/foreignKeys.png" width="11px" height="12px" preserveAspectRatio="xMinYMin meet" x="273" y="-2076.7"/>
<text text-anchor="start" x="297" y="-2066.8" font-family="Helvetica,sans-Serif" font-size="11.00" fill="#000000">DBDOI</text>
<polygon fill="none" stroke="#000000" points="268,-2037.7 268,-2059.7 416,-2059.7 416,-2037.7 268,-2037.7"/>
<image xlink:href="../../images/foreignKeys.png" width="11px" height="12px" preserveAspectRatio="xMinYMin meet" x="273" y="-2054.7"/>
<text text-anchor="start" x="297" y="-2044.8" font-family="Helvetica,sans-Serif" font-size="11.00" fill="#000000">REFDBID1</text>
<polygon fill="none" stroke="#000000" points="268,-2015.7 268,-2037.7 416,-2037.7 416,-2015.7 268,-2015.7"/>
<image xlink:href="../../images/foreignKeys.png" width="11px" height="12px" preserveAspectRatio="xMinYMin meet" x="273" y="-2032.7"/>
<text text-anchor="start" x="297" y="-2022.8" font-family="Helvetica,sans-Serif" font-size="11.00" fill="#000000">REFDBID2</text>
<polygon fill="none" stroke="#000000" points="268,-1993.7 268,-2015.7 416,-2015.7 416,-1993.7 268,-1993.7"/>
<image xlink:href="../../images/foreignKeys.png" width="11px" height="12px" preserveAspectRatio="xMinYMin meet" x="273" y="-2010.7"/>
<text text-anchor="start" x="297" y="-2000.8" font-family="Helvetica,sans-Serif" font-size="11.00" fill="#000000">REFDBID3</text>
<polygon fill="none" stroke="#000000" points="268,-1971.7 268,-1993.7 416,-1993.7 416,-1971.7 268,-1971.7"/>
<image xlink:href="../../images/foreignKeys.png" width="11px" height="12px" preserveAspectRatio="xMinYMin meet" x="273" y="-1988.7"/>
<text text-anchor="start" x="297" y="-1978.8" font-family="Helvetica,sans-Serif" font-size="11.00" fill="#000000">REFDBID4</text>
<polygon fill="none" stroke="#000000" points="268,-1949.7 268,-1971.7 416,-1971.7 416,-1949.7 268,-1949.7"/>
<image xlink:href="../../images/foreignKeys.png" width="11px" height="12px" preserveAspectRatio="xMinYMin meet" x="273" y="-1966.7"/>
<text text-anchor="start" x="297" y="-1956.8" font-family="Helvetica,sans-Serif" font-size="11.00" fill="#000000">COL_MTDID</text>
<polygon fill="none" stroke="#000000" points="268,-1927.7 268,-1949.7 416,-1949.7 416,-1927.7 268,-1927.7"/>
<image xlink:href="../../images/foreignKeys.png" width="11px" height="12px" preserveAspectRatio="xMinYMin meet" x="273" y="-1944.7"/>
<text text-anchor="start" x="297" y="-1934.8" font-family="Helvetica,sans-Serif" font-size="11.00" fill="#000000">LUM_MATID</text>
<polygon fill="none" stroke="#000000" points="268,-1905.7 268,-1927.7 416,-1927.7 416,-1905.7 268,-1905.7"/>
<image xlink:href="../../images/foreignKeys.png" width="11px" height="12px" preserveAspectRatio="xMinYMin meet" x="273" y="-1922.7"/>
<text text-anchor="start" x="297" y="-1912.8" font-family="Helvetica,sans-Serif" font-size="11.00" fill="#000000">MINERALID</text>
<polygon fill="none" stroke="#000000" points="268,-1883.7 268,-1905.7 416,-1905.7 416,-1883.7 268,-1883.7"/>
<image xlink:href="../../images/foreignKeys.png" width="11px" height="12px" preserveAspectRatio="xMinYMin meet" x="273" y="-1900.7"/>
<text text-anchor="start" x="297" y="-1890.8" font-family="Helvetica,sans-Serif" font-size="11.00" fill="#000000">OSL_TYPEID</text>
<polygon fill="none" stroke="#000000" points="268,-1861.7 268,-1883.7 416,-1883.7 416,-1861.7 268,-1861.7"/>
<image xlink:href="../../images/foreignKeys.png" width="11px" height="12px" preserveAspectRatio="xMinYMin meet" x="273" y="-1878.7"/>
<text text-anchor="start" x="297" y="-1868.8" font-family="Helvetica,sans-Serif" font-size="11.00" fill="#000000">ED_PROCID</text>
<polygon fill="none" stroke="#000000" points="268,-1839.7 268,-1861.7 416,-1861.7 416,-1839.7 268,-1839.7"/>
<image xlink:href="../../images/foreignKeys.png" width="11px" height="12px" preserveAspectRatio="xMinYMin meet" x="273" y="-1856.7"/>
<text text-anchor="start" x="297" y="-1846.8" font-family="Helvetica,sans-Serif" font-size="11.00" fill="#000000">AGEMODELID</text>
<polygon fill="none" stroke="#000000" points="268,-1817.7 268,-1839.7 416,-1839.7 416,-1817.7 268,-1817.7"/>
<image xlink:href="../../images/foreignKeys.png" width="11px" height="12px" preserveAspectRatio="xMinYMin meet" x="273" y="-1834.7"/>
<text text-anchor="start" x="297" y="-1824.8" font-family="Helvetica,sans-Serif" font-size="11.00" fill="#000000">U_MTDID</text>
<polygon fill="none" stroke="#000000" points="268,-1795.7 268,-1817.7 416,-1817.7 416,-1795.7 268,-1795.7"/>
<image xlink:href="../../images/foreignKeys.png" width="11px" height="12px" preserveAspectRatio="xMinYMin meet" x="273" y="-1812.7"/>
<text text-anchor="start" x="297" y="-1802.8" font-family="Helvetica,sans-Serif" font-size="11.00" fill="#000000">TH_MTDID</text>
<polygon fill="none" stroke="#000000" points="268,-1773.7 268,-1795.7 416,-1795.7 416,-1773.7 268,-1773.7"/>
<image xlink:href="../../images/foreignKeys.png" width="11px" height="12px" preserveAspectRatio="xMinYMin meet" x="273" y="-1790.7"/>
<text text-anchor="start" x="297" y="-1780.8" font-family="Helvetica,sans-Serif" font-size="11.00" fill="#000000">K_MTDID</text>
<polygon fill="none" stroke="#000000" points="268,-1751.7 268,-1773.7 416,-1773.7 416,-1751.7 268,-1751.7"/>
<image xlink:href="../../images/foreignKeys.png" width="11px" height="12px" preserveAspectRatio="xMinYMin meet" x="273" y="-1768.7"/>
<text text-anchor="start" x="297" y="-1758.8" font-family="Helvetica,sans-Serif" font-size="11.00" fill="#000000">ALPH_MTDID</text>
<polygon fill="none" stroke="#000000" points="268,-1729.7 268,-1751.7 416,-1751.7 416,-1729.7 268,-1729.7"/>
<image xlink:href="../../images/foreignKeys.png" width="11px" height="12px" preserveAspectRatio="xMinYMin meet" x="273" y="-1746.7"/>
<text text-anchor="start" x="297" y="-1736.8" font-family="Helvetica,sans-Serif" font-size="11.00" fill="#000000">BETA_MTDID</text>
<polygon fill="none" stroke="#000000" points="268,-1707.7 268,-1729.7 416,-1729.7 416,-1707.7 268,-1707.7"/>
<image xlink:href="../../images/foreignKeys.png" width="11px" height="12px" preserveAspectRatio="xMinYMin meet" x="273" y="-1724.7"/>
<text text-anchor="start" x="297" y="-1714.8" font-family="Helvetica,sans-Serif" font-size="11.00" fill="#000000">GMMA_MTDID</text>
<polygon fill="none" stroke="#000000" points="268,-1688.7 268,-1707.7 416,-1707.7 416,-1688.7 268,-1688.7"/>
<text text-anchor="start" x="271" y="-1694.8" font-family="Helvetica,sans-Serif" font-size="11.00" fill="#000000">...</text>
<polygon fill="#ffffff" stroke="transparent" points="268,-1669.7 268,-1688.7 320,-1688.7 320,-1669.7 268,-1669.7"/>
<polygon fill="none" stroke="#000000" points="268,-1669.7 268,-1688.7 320,-1688.7 320,-1669.7 268,-1669.7"/>
<text text-anchor="start" x="271" y="-1675.8" font-family="Helvetica,sans-Serif" font-size="11.00" fill="#000000">&lt; 20</text>
<polygon fill="#ffffff" stroke="transparent" points="320,-1669.7 320,-1688.7 382,-1688.7 382,-1669.7 320,-1669.7"/>
<polygon fill="none" stroke="#000000" points="320,-1669.7 320,-1688.7 382,-1688.7 382,-1669.7 320,-1669.7"/>
<text text-anchor="start" x="334.3807" y="-1675.8" font-family="Helvetica,sans-Serif" font-size="11.00" fill="#000000">973 rows</text>
<polygon fill="#ffffff" stroke="transparent" points="382,-1669.7 382,-1688.7 416,-1688.7 416,-1669.7 382,-1669.7"/>
<polygon fill="none" stroke="#000000" points="382,-1669.7 382,-1688.7 416,-1688.7 416,-1669.7 382,-1669.7"/>
<text text-anchor="start" x="397.4053" y="-1675.8" font-family="Helvetica,sans-Serif" font-size="11.00" fill="#000000">1 &gt;</text>
</a>
</g>
</g>
<!-- osl&#45;tl_ed_procID -->
<g id="node2" class="node">
<title>osl&#45;tl_ed_procID</title>
<g id="a_node2"><a xlink:href="../../tables/osl-tl_ed_procID.html" xlink:title="osl&#45;tl_ed_procID" target="_top">
<polygon fill="#ffffff" stroke="transparent" points="8,-947.7 8,-1103.7 219,-1103.7 219,-947.7 8,-947.7"/>
<polygon fill="#f5f5f5" stroke="transparent" points="10.5,-1078.7 10.5,-1101.7 217.5,-1101.7 217.5,-1078.7 10.5,-1078.7"/>
<polygon fill="none" stroke="#000000" points="10.5,-1078.7 10.5,-1101.7 217.5,-1101.7 217.5,-1078.7 10.5,-1078.7"/>
<text text-anchor="start" x="15.5" y="-1087.3" font-family="Helvetica,sans-Serif" font-weight="bold" font-size="11.00" fill="#000000">osl&#45;tl_ed_procID</text>
<text text-anchor="start" x="182.5437" y="-1086.8" font-family="Helvetica,sans-Serif" font-size="11.00" fill="#000000">[table]</text>
<polygon fill="none" stroke="#000000" points="10.5,-1056.7 10.5,-1078.7 125.5,-1078.7 125.5,-1056.7 10.5,-1056.7"/>
<image xlink:href="../../images/primaryKeys.png" width="11px" height="12px" preserveAspectRatio="xMinYMin meet" x="15.5" y="-1073.7"/>
<text text-anchor="start" x="30.5" y="-1063.8" font-family="Helvetica,sans-Serif" font-size="11.00" fill="#000000">ED_PROCID</text>
<polygon fill="none" stroke="#000000" points="125.5,-1056.7 125.5,-1078.7 217.5,-1078.7 217.5,-1056.7 125.5,-1056.7"/>
<text text-anchor="start" x="128.5" y="-1064.4" font-family="Helvetica,sans-Serif" font-size="11.00" fill="#000000">smallserial[5]</text>
<polygon fill="#ffffff" stroke="transparent" points="10.5,-1034.7 10.5,-1056.7 125.5,-1056.7 125.5,-1034.7 10.5,-1034.7"/>
<polygon fill="none" stroke="#000000" points="10.5,-1034.7 10.5,-1056.7 125.5,-1056.7 125.5,-1034.7 10.5,-1034.7"/>
<text text-anchor="start" x="30.5" y="-1041.8" font-family="Helvetica,sans-Serif" font-size="11.00" fill="#000000">ED_PROC</text>
<polygon fill="none" stroke="#000000" points="125.5,-1034.7 125.5,-1056.7 217.5,-1056.7 217.5,-1034.7 125.5,-1034.7"/>
<text text-anchor="start" x="128.5" y="-1042.4" font-family="Helvetica,sans-Serif" font-size="11.00" fill="#000000">text[2147483647]</text>
<polygon fill="#ffffff" stroke="transparent" points="10.5,-1012.7 10.5,-1034.7 125.5,-1034.7 125.5,-1012.7 10.5,-1012.7"/>
<polygon fill="none" stroke="#000000" points="10.5,-1012.7 10.5,-1034.7 125.5,-1034.7 125.5,-1012.7 10.5,-1012.7"/>
<text text-anchor="start" x="30.5" y="-1019.8" font-family="Helvetica,sans-Serif" font-size="11.00" fill="#000000">ED_PROCABR</text>
<polygon fill="none" stroke="#000000" points="125.5,-1012.7 125.5,-1034.7 217.5,-1034.7 217.5,-1012.7 125.5,-1012.7"/>
<text text-anchor="start" x="128.5" y="-1020.4" font-family="Helvetica,sans-Serif" font-size="11.00" fill="#000000">text[2147483647]</text>
<polygon fill="none" stroke="#000000" points="10.5,-990.7 10.5,-1012.7 125.5,-1012.7 125.5,-990.7 10.5,-990.7"/>
<text text-anchor="start" x="30.5" y="-997.8" font-family="Helvetica,sans-Serif" font-size="11.00" fill="#000000">CREATED_AT</text>
<polygon fill="none" stroke="#000000" points="125.5,-990.7 125.5,-1012.7 217.5,-1012.7 217.5,-990.7 125.5,-990.7"/>
<text text-anchor="start" x="128.1023" y="-998.4" font-family="Helvetica,sans-Serif" font-size="11.00" fill="#000000">timestamptz[35,6]</text>
<polygon fill="none" stroke="#000000" points="10.5,-968.7 10.5,-990.7 125.5,-990.7 125.5,-968.7 10.5,-968.7"/>
<text text-anchor="start" x="30.5" y="-975.8" font-family="Helvetica,sans-Serif" font-size="11.00" fill="#000000">UPDATED_AT</text>
<polygon fill="none" stroke="#000000" points="125.5,-968.7 125.5,-990.7 217.5,-990.7 217.5,-968.7 125.5,-968.7"/>
<text text-anchor="start" x="128.1023" y="-976.4" font-family="Helvetica,sans-Serif" font-size="11.00" fill="#000000">timestamptz[35,6]</text>
<polygon fill="#ffffff" stroke="transparent" points="10.5,-949.7 10.5,-968.7 59.5,-968.7 59.5,-949.7 10.5,-949.7"/>
<polygon fill="none" stroke="#000000" points="10.5,-949.7 10.5,-968.7 59.5,-968.7 59.5,-949.7 10.5,-949.7"/>
<text text-anchor="start" x="13.5" y="-955.8" font-family="Helvetica,sans-Serif" font-size="11.00" fill="#000000">&lt; 0</text>
<polygon fill="#ffffff" stroke="transparent" points="59.5,-949.7 59.5,-968.7 125.5,-968.7 125.5,-949.7 59.5,-949.7"/>
<polygon fill="none" stroke="#000000" points="59.5,-949.7 59.5,-968.7 125.5,-968.7 125.5,-949.7 59.5,-949.7"/>
<text text-anchor="start" x="90.1105" y="-955.8" font-family="Helvetica,sans-Serif" font-size="11.00" fill="#000000">7 rows</text>
<polygon fill="#ffffff" stroke="transparent" points="125.5,-949.7 125.5,-968.7 217.5,-968.7 217.5,-949.7 125.5,-949.7"/>
<polygon fill="none" stroke="#000000" points="125.5,-949.7 125.5,-968.7 217.5,-968.7 217.5,-949.7 125.5,-949.7"/>
<text text-anchor="start" x="198.9053" y="-955.8" font-family="Helvetica,sans-Serif" font-size="11.00" fill="#000000">4 &gt;</text>
<polygon fill="none" stroke="#000000" stroke-width="2" points="9,-948.7 9,-1102.7 218,-1102.7 218,-948.7 9,-948.7"/>
</a>
</g>
</g>
<!-- arch_osl_DataCore&#45;&gt;osl&#45;tl_ed_procID -->
<g id="edge1" class="edge">
<title>arch_osl_DataCore:w&#45;&gt;osl&#45;tl_ed_procID:e</title>
<path fill="none" stroke="#000000" d="M255.1844,-1865.7407C191.8077,-1787.0607 302.2192,-1067.7 217.5,-1067.7"/>
<polygon fill="#000000" stroke="#000000" points="260.9697,-1868.8823 266.282,-1875.8636 264.4848,-1870.7911 268,-1872.7 268,-1872.7 268,-1872.7 264.4848,-1870.7911 269.718,-1869.5364 260.9697,-1868.8823 260.9697,-1868.8823"/>
<ellipse fill="none" stroke="#000000" cx="258.1576" cy="-1867.3552" rx="3.2" ry="3.2"/>
</g>
<!-- arch_tl_DataCore -->
<g id="node3" class="node">
<title>arch_tl_DataCore</title>
<g id="a_node3"><a xlink:href="../../tables/arch_tl_DataCore.html" xlink:title="arch_tl_DataCore" target="_top">
<polygon fill="#ffffff" stroke="transparent" points="273,-1126.2 273,-1649.2 411,-1649.2 411,-1126.2 273,-1126.2"/>
<polygon fill="#f5f5f5" stroke="transparent" points="273,-1625.7 273,-1648.7 411,-1648.7 411,-1625.7 273,-1625.7"/>
<polygon fill="none" stroke="#000000" points="273,-1625.7 273,-1648.7 411,-1648.7 411,-1625.7 273,-1625.7"/>
<text text-anchor="start" x="278" y="-1634.3" font-family="Helvetica,sans-Serif" font-weight="bold" font-size="11.00" fill="#000000">arch_tl_DataCore</text>
<text text-anchor="start" x="376.5219" y="-1633.8" font-family="Helvetica,sans-Serif" font-size="11.00" fill="#000000">[table]</text>
<polygon fill="none" stroke="#000000" points="273,-1603.7 273,-1625.7 411,-1625.7 411,-1603.7 273,-1603.7"/>
<image xlink:href="../../images/primaryKeys.png" width="11px" height="12px" preserveAspectRatio="xMinYMin meet" x="278" y="-1620.7"/>
<text text-anchor="start" x="302" y="-1610.8" font-family="Helvetica,sans-Serif" font-size="11.00" fill="#000000">OBSID1</text>
<polygon fill="none" stroke="#000000" points="273,-1581.7 273,-1603.7 411,-1603.7 411,-1581.7 273,-1581.7"/>
<image xlink:href="../../images/foreignKeys.png" width="11px" height="12px" preserveAspectRatio="xMinYMin meet" x="278" y="-1598.7"/>
<text text-anchor="start" x="302" y="-1588.8" font-family="Helvetica,sans-Serif" font-size="11.00" fill="#000000">SMPID</text>
<polygon fill="none" stroke="#000000" points="273,-1559.7 273,-1581.7 411,-1581.7 411,-1559.7 273,-1559.7"/>
<image xlink:href="../../images/foreignKeys.png" width="11px" height="12px" preserveAspectRatio="xMinYMin meet" x="278" y="-1576.7"/>
<text text-anchor="start" x="302" y="-1566.8" font-family="Helvetica,sans-Serif" font-size="11.00" fill="#000000">LAB_ORIGID</text>
<polygon fill="none" stroke="#000000" points="273,-1537.7 273,-1559.7 411,-1559.7 411,-1537.7 273,-1537.7"/>
<image xlink:href="../../images/foreignKeys.png" width="11px" height="12px" preserveAspectRatio="xMinYMin meet" x="278" y="-1554.7"/>
<text text-anchor="start" x="302" y="-1544.8" font-family="Helvetica,sans-Serif" font-size="11.00" fill="#000000">METHODID</text>
<polygon fill="none" stroke="#000000" points="273,-1515.7 273,-1537.7 411,-1537.7 411,-1515.7 273,-1515.7"/>
<image xlink:href="../../images/foreignKeys.png" width="11px" height="12px" preserveAspectRatio="xMinYMin meet" x="278" y="-1532.7"/>
<text text-anchor="start" x="302" y="-1522.8" font-family="Helvetica,sans-Serif" font-size="11.00" fill="#000000">DBDOI</text>
<polygon fill="none" stroke="#000000" points="273,-1493.7 273,-1515.7 411,-1515.7 411,-1493.7 273,-1493.7"/>
<image xlink:href="../../images/foreignKeys.png" width="11px" height="12px" preserveAspectRatio="xMinYMin meet" x="278" y="-1510.7"/>
<text text-anchor="start" x="302" y="-1500.8" font-family="Helvetica,sans-Serif" font-size="11.00" fill="#000000">REFDBID1</text>
<polygon fill="none" stroke="#000000" points="273,-1471.7 273,-1493.7 411,-1493.7 411,-1471.7 273,-1471.7"/>
<image xlink:href="../../images/foreignKeys.png" width="11px" height="12px" preserveAspectRatio="xMinYMin meet" x="278" y="-1488.7"/>
<text text-anchor="start" x="302" y="-1478.8" font-family="Helvetica,sans-Serif" font-size="11.00" fill="#000000">REFDBID2</text>
<polygon fill="none" stroke="#000000" points="273,-1449.7 273,-1471.7 411,-1471.7 411,-1449.7 273,-1449.7"/>
<image xlink:href="../../images/foreignKeys.png" width="11px" height="12px" preserveAspectRatio="xMinYMin meet" x="278" y="-1466.7"/>
<text text-anchor="start" x="302" y="-1456.8" font-family="Helvetica,sans-Serif" font-size="11.00" fill="#000000">REFDBID3</text>
<polygon fill="none" stroke="#000000" points="273,-1427.7 273,-1449.7 411,-1449.7 411,-1427.7 273,-1427.7"/>
<image xlink:href="../../images/foreignKeys.png" width="11px" height="12px" preserveAspectRatio="xMinYMin meet" x="278" y="-1444.7"/>
<text text-anchor="start" x="302" y="-1434.8" font-family="Helvetica,sans-Serif" font-size="11.00" fill="#000000">REFDBID4</text>
<polygon fill="none" stroke="#000000" points="273,-1405.7 273,-1427.7 411,-1427.7 411,-1405.7 273,-1405.7"/>
<image xlink:href="../../images/foreignKeys.png" width="11px" height="12px" preserveAspectRatio="xMinYMin meet" x="278" y="-1422.7"/>
<text text-anchor="start" x="302" y="-1412.8" font-family="Helvetica,sans-Serif" font-size="11.00" fill="#000000">COL_MTDID</text>
<polygon fill="none" stroke="#000000" points="273,-1383.7 273,-1405.7 411,-1405.7 411,-1383.7 273,-1383.7"/>
<image xlink:href="../../images/foreignKeys.png" width="11px" height="12px" preserveAspectRatio="xMinYMin meet" x="278" y="-1400.7"/>
<text text-anchor="start" x="302" y="-1390.8" font-family="Helvetica,sans-Serif" font-size="11.00" fill="#000000">LUM_MATID</text>
<polygon fill="none" stroke="#000000" points="273,-1361.7 273,-1383.7 411,-1383.7 411,-1361.7 273,-1361.7"/>
<image xlink:href="../../images/foreignKeys.png" width="11px" height="12px" preserveAspectRatio="xMinYMin meet" x="278" y="-1378.7"/>
<text text-anchor="start" x="302" y="-1368.8" font-family="Helvetica,sans-Serif" font-size="11.00" fill="#000000">MINERALID</text>
<polygon fill="none" stroke="#000000" points="273,-1339.7 273,-1361.7 411,-1361.7 411,-1339.7 273,-1339.7"/>
<image xlink:href="../../images/foreignKeys.png" width="11px" height="12px" preserveAspectRatio="xMinYMin meet" x="278" y="-1356.7"/>
<text text-anchor="start" x="302" y="-1346.8" font-family="Helvetica,sans-Serif" font-size="11.00" fill="#000000">ED_PROCID</text>
<polygon fill="none" stroke="#000000" points="273,-1317.7 273,-1339.7 411,-1339.7 411,-1317.7 273,-1317.7"/>
<image xlink:href="../../images/foreignKeys.png" width="11px" height="12px" preserveAspectRatio="xMinYMin meet" x="278" y="-1334.7"/>
<text text-anchor="start" x="302" y="-1324.8" font-family="Helvetica,sans-Serif" font-size="11.00" fill="#000000">AGEMODELID</text>
<polygon fill="none" stroke="#000000" points="273,-1295.7 273,-1317.7 411,-1317.7 411,-1295.7 273,-1295.7"/>
<image xlink:href="../../images/foreignKeys.png" width="11px" height="12px" preserveAspectRatio="xMinYMin meet" x="278" y="-1312.7"/>
<text text-anchor="start" x="302" y="-1302.8" font-family="Helvetica,sans-Serif" font-size="11.00" fill="#000000">U_MTDID</text>
<polygon fill="none" stroke="#000000" points="273,-1273.7 273,-1295.7 411,-1295.7 411,-1273.7 273,-1273.7"/>
<image xlink:href="../../images/foreignKeys.png" width="11px" height="12px" preserveAspectRatio="xMinYMin meet" x="278" y="-1290.7"/>
<text text-anchor="start" x="302" y="-1280.8" font-family="Helvetica,sans-Serif" font-size="11.00" fill="#000000">TH_MTDID</text>
<polygon fill="none" stroke="#000000" points="273,-1251.7 273,-1273.7 411,-1273.7 411,-1251.7 273,-1251.7"/>
<image xlink:href="../../images/foreignKeys.png" width="11px" height="12px" preserveAspectRatio="xMinYMin meet" x="278" y="-1268.7"/>
<text text-anchor="start" x="302" y="-1258.8" font-family="Helvetica,sans-Serif" font-size="11.00" fill="#000000">U_TH_MTDID</text>
<polygon fill="none" stroke="#000000" points="273,-1229.7 273,-1251.7 411,-1251.7 411,-1229.7 273,-1229.7"/>
<image xlink:href="../../images/foreignKeys.png" width="11px" height="12px" preserveAspectRatio="xMinYMin meet" x="278" y="-1246.7"/>
<text text-anchor="start" x="302" y="-1236.8" font-family="Helvetica,sans-Serif" font-size="11.00" fill="#000000">K_MTDID</text>
<polygon fill="none" stroke="#000000" points="273,-1207.7 273,-1229.7 411,-1229.7 411,-1207.7 273,-1207.7"/>
<image xlink:href="../../images/foreignKeys.png" width="11px" height="12px" preserveAspectRatio="xMinYMin meet" x="278" y="-1224.7"/>
<text text-anchor="start" x="302" y="-1214.8" font-family="Helvetica,sans-Serif" font-size="11.00" fill="#000000">ALPH_MTDID</text>
<polygon fill="none" stroke="#000000" points="273,-1185.7 273,-1207.7 411,-1207.7 411,-1185.7 273,-1185.7"/>
<image xlink:href="../../images/foreignKeys.png" width="11px" height="12px" preserveAspectRatio="xMinYMin meet" x="278" y="-1202.7"/>
<text text-anchor="start" x="302" y="-1192.8" font-family="Helvetica,sans-Serif" font-size="11.00" fill="#000000">BETA_MTDID</text>
<polygon fill="none" stroke="#000000" points="273,-1163.7 273,-1185.7 411,-1185.7 411,-1163.7 273,-1163.7"/>
<image xlink:href="../../images/foreignKeys.png" width="11px" height="12px" preserveAspectRatio="xMinYMin meet" x="278" y="-1180.7"/>
<text text-anchor="start" x="302" y="-1170.8" font-family="Helvetica,sans-Serif" font-size="11.00" fill="#000000">GMMA_MTDID</text>
<polygon fill="none" stroke="#000000" points="273,-1144.7 273,-1163.7 411,-1163.7 411,-1144.7 273,-1144.7"/>
<text text-anchor="start" x="276" y="-1150.8" font-family="Helvetica,sans-Serif" font-size="11.00" fill="#000000">...</text>
<polygon fill="#ffffff" stroke="transparent" points="273,-1125.7 273,-1144.7 320,-1144.7 320,-1125.7 273,-1125.7"/>
<polygon fill="none" stroke="#000000" points="273,-1125.7 273,-1144.7 320,-1144.7 320,-1125.7 273,-1125.7"/>
<text text-anchor="start" x="276" y="-1131.8" font-family="Helvetica,sans-Serif" font-size="11.00" fill="#000000">&lt; 20</text>
<polygon fill="#ffffff" stroke="transparent" points="320,-1125.7 320,-1144.7 380,-1144.7 380,-1125.7 320,-1125.7"/>
<polygon fill="none" stroke="#000000" points="320,-1125.7 320,-1144.7 380,-1144.7 380,-1125.7 320,-1125.7"/>
<text text-anchor="start" x="332.3807" y="-1131.8" font-family="Helvetica,sans-Serif" font-size="11.00" fill="#000000">240 rows</text>
<polygon fill="#ffffff" stroke="transparent" points="380,-1125.7 380,-1144.7 411,-1144.7 411,-1125.7 380,-1125.7"/>
<polygon fill="none" stroke="#000000" points="380,-1125.7 380,-1144.7 411,-1144.7 411,-1125.7 380,-1125.7"/>
<text text-anchor="start" x="392.4053" y="-1131.8" font-family="Helvetica,sans-Serif" font-size="11.00" fill="#000000">1 &gt;</text>
</a>
</g>
</g>
<!-- arch_tl_DataCore&#45;&gt;osl&#45;tl_ed_procID -->
<g id="edge2" class="edge">
<title>arch_tl_DataCore:w&#45;&gt;osl&#45;tl_ed_procID:e</title>
<path fill="none" stroke="#000000" d="M259.585,-1345.047C220.1554,-1305.1609 276.2045,-1067.7 217.5,-1067.7"/>
<polygon fill="#000000" stroke="#000000" points="265.6278,-1347.5934 271.602,-1354.0175 269.3139,-1349.1467 273,-1350.7 273,-1350.7 273,-1350.7 269.3139,-1349.1467 274.398,-1347.3825 265.6278,-1347.5934 265.6278,-1347.5934"/>
<ellipse fill="none" stroke="#000000" cx="262.6789" cy="-1346.3507" rx="3.2" ry="3.2"/>
</g>
<!-- sed&#45;osl_DataCore -->
<g id="node4" class="node">
<title>sed&#45;osl_DataCore</title>
<g id="a_node4"><a xlink:href="../../tables/sed-osl_DataCore.html" xlink:title="sed&#45;osl_DataCore" target="_top">
<polygon fill="#ffffff" stroke="transparent" points="271.5,-582.2 271.5,-1105.2 412.5,-1105.2 412.5,-582.2 271.5,-582.2"/>
<polygon fill="#f5f5f5" stroke="transparent" points="272,-1081.7 272,-1104.7 413,-1104.7 413,-1081.7 272,-1081.7"/>
<polygon fill="none" stroke="#000000" points="272,-1081.7 272,-1104.7 413,-1104.7 413,-1081.7 272,-1081.7"/>
<text text-anchor="start" x="277" y="-1090.3" font-family="Helvetica,sans-Serif" font-weight="bold" font-size="11.00" fill="#000000">sed&#45;osl_DataCore</text>
<text text-anchor="start" x="378.5219" y="-1089.8" font-family="Helvetica,sans-Serif" font-size="11.00" fill="#000000">[table]</text>
<polygon fill="none" stroke="#000000" points="272,-1059.7 272,-1081.7 413,-1081.7 413,-1059.7 272,-1059.7"/>
<image xlink:href="../../images/primaryKeys.png" width="11px" height="12px" preserveAspectRatio="xMinYMin meet" x="277" y="-1076.7"/>
<text text-anchor="start" x="301" y="-1066.8" font-family="Helvetica,sans-Serif" font-size="11.00" fill="#000000">OBSID1</text>
<polygon fill="none" stroke="#000000" points="272,-1037.7 272,-1059.7 413,-1059.7 413,-1037.7 272,-1037.7"/>
<image xlink:href="../../images/foreignKeys.png" width="11px" height="12px" preserveAspectRatio="xMinYMin meet" x="277" y="-1054.7"/>
<text text-anchor="start" x="301" y="-1044.8" font-family="Helvetica,sans-Serif" font-size="11.00" fill="#000000">SMPID</text>
<polygon fill="none" stroke="#000000" points="272,-1015.7 272,-1037.7 413,-1037.7 413,-1015.7 272,-1015.7"/>
<image xlink:href="../../images/foreignKeys.png" width="11px" height="12px" preserveAspectRatio="xMinYMin meet" x="277" y="-1032.7"/>
<text text-anchor="start" x="301" y="-1022.8" font-family="Helvetica,sans-Serif" font-size="11.00" fill="#000000">LAB_ORIGID</text>
<polygon fill="none" stroke="#000000" points="272,-993.7 272,-1015.7 413,-1015.7 413,-993.7 272,-993.7"/>
<image xlink:href="../../images/foreignKeys.png" width="11px" height="12px" preserveAspectRatio="xMinYMin meet" x="277" y="-1010.7"/>
<text text-anchor="start" x="301" y="-1000.8" font-family="Helvetica,sans-Serif" font-size="11.00" fill="#000000">METHODID</text>
<polygon fill="none" stroke="#000000" points="272,-971.7 272,-993.7 413,-993.7 413,-971.7 272,-971.7"/>
<image xlink:href="../../images/foreignKeys.png" width="11px" height="12px" preserveAspectRatio="xMinYMin meet" x="277" y="-988.7"/>
<text text-anchor="start" x="301" y="-978.8" font-family="Helvetica,sans-Serif" font-size="11.00" fill="#000000">DBDOI</text>
<polygon fill="none" stroke="#000000" points="272,-949.7 272,-971.7 413,-971.7 413,-949.7 272,-949.7"/>
<image xlink:href="../../images/foreignKeys.png" width="11px" height="12px" preserveAspectRatio="xMinYMin meet" x="277" y="-966.7"/>
<text text-anchor="start" x="301" y="-956.8" font-family="Helvetica,sans-Serif" font-size="11.00" fill="#000000">REFDBID1</text>
<polygon fill="none" stroke="#000000" points="272,-927.7 272,-949.7 413,-949.7 413,-927.7 272,-927.7"/>
<image xlink:href="../../images/foreignKeys.png" width="11px" height="12px" preserveAspectRatio="xMinYMin meet" x="277" y="-944.7"/>
<text text-anchor="start" x="301" y="-934.8" font-family="Helvetica,sans-Serif" font-size="11.00" fill="#000000">REFDBID2</text>
<polygon fill="none" stroke="#000000" points="272,-905.7 272,-927.7 413,-927.7 413,-905.7 272,-905.7"/>
<image xlink:href="../../images/foreignKeys.png" width="11px" height="12px" preserveAspectRatio="xMinYMin meet" x="277" y="-922.7"/>
<text text-anchor="start" x="301" y="-912.8" font-family="Helvetica,sans-Serif" font-size="11.00" fill="#000000">REFDBID3</text>
<polygon fill="none" stroke="#000000" points="272,-883.7 272,-905.7 413,-905.7 413,-883.7 272,-883.7"/>
<image xlink:href="../../images/foreignKeys.png" width="11px" height="12px" preserveAspectRatio="xMinYMin meet" x="277" y="-900.7"/>
<text text-anchor="start" x="301" y="-890.8" font-family="Helvetica,sans-Serif" font-size="11.00" fill="#000000">REFDBID4</text>
<polygon fill="none" stroke="#000000" points="272,-861.7 272,-883.7 413,-883.7 413,-861.7 272,-861.7"/>
<image xlink:href="../../images/foreignKeys.png" width="11px" height="12px" preserveAspectRatio="xMinYMin meet" x="277" y="-878.7"/>
<text text-anchor="start" x="301" y="-868.8" font-family="Helvetica,sans-Serif" font-size="11.00" fill="#000000">COL_MTDID</text>
<polygon fill="none" stroke="#000000" points="272,-839.7 272,-861.7 413,-861.7 413,-839.7 272,-839.7"/>
<image xlink:href="../../images/foreignKeys.png" width="11px" height="12px" preserveAspectRatio="xMinYMin meet" x="277" y="-856.7"/>
<text text-anchor="start" x="301" y="-846.8" font-family="Helvetica,sans-Serif" font-size="11.00" fill="#000000">LUM_MATID</text>
<polygon fill="none" stroke="#000000" points="272,-817.7 272,-839.7 413,-839.7 413,-817.7 272,-817.7"/>
<image xlink:href="../../images/foreignKeys.png" width="11px" height="12px" preserveAspectRatio="xMinYMin meet" x="277" y="-834.7"/>
<text text-anchor="start" x="301" y="-824.8" font-family="Helvetica,sans-Serif" font-size="11.00" fill="#000000">MINERALID</text>
<polygon fill="none" stroke="#000000" points="272,-795.7 272,-817.7 413,-817.7 413,-795.7 272,-795.7"/>
<image xlink:href="../../images/foreignKeys.png" width="11px" height="12px" preserveAspectRatio="xMinYMin meet" x="277" y="-812.7"/>
<text text-anchor="start" x="301" y="-802.8" font-family="Helvetica,sans-Serif" font-size="11.00" fill="#000000">OSL_TYPEID</text>
<polygon fill="none" stroke="#000000" points="272,-773.7 272,-795.7 413,-795.7 413,-773.7 272,-773.7"/>
<image xlink:href="../../images/foreignKeys.png" width="11px" height="12px" preserveAspectRatio="xMinYMin meet" x="277" y="-790.7"/>
<text text-anchor="start" x="301" y="-780.8" font-family="Helvetica,sans-Serif" font-size="11.00" fill="#000000">ED_PROCID</text>
<polygon fill="none" stroke="#000000" points="272,-751.7 272,-773.7 413,-773.7 413,-751.7 272,-751.7"/>
<image xlink:href="../../images/foreignKeys.png" width="11px" height="12px" preserveAspectRatio="xMinYMin meet" x="277" y="-768.7"/>
<text text-anchor="start" x="301" y="-758.8" font-family="Helvetica,sans-Serif" font-size="11.00" fill="#000000">AGEMODELID</text>
<polygon fill="none" stroke="#000000" points="272,-729.7 272,-751.7 413,-751.7 413,-729.7 272,-729.7"/>
<image xlink:href="../../images/foreignKeys.png" width="11px" height="12px" preserveAspectRatio="xMinYMin meet" x="277" y="-746.7"/>
<text text-anchor="start" x="301" y="-736.8" font-family="Helvetica,sans-Serif" font-size="11.00" fill="#000000">U_MTDID</text>
<polygon fill="none" stroke="#000000" points="272,-707.7 272,-729.7 413,-729.7 413,-707.7 272,-707.7"/>
<image xlink:href="../../images/foreignKeys.png" width="11px" height="12px" preserveAspectRatio="xMinYMin meet" x="277" y="-724.7"/>
<text text-anchor="start" x="301" y="-714.8" font-family="Helvetica,sans-Serif" font-size="11.00" fill="#000000">TH_MTDID</text>
<polygon fill="none" stroke="#000000" points="272,-685.7 272,-707.7 413,-707.7 413,-685.7 272,-685.7"/>
<image xlink:href="../../images/foreignKeys.png" width="11px" height="12px" preserveAspectRatio="xMinYMin meet" x="277" y="-702.7"/>
<text text-anchor="start" x="301" y="-692.8" font-family="Helvetica,sans-Serif" font-size="11.00" fill="#000000">K_MTDID</text>
<polygon fill="none" stroke="#000000" points="272,-663.7 272,-685.7 413,-685.7 413,-663.7 272,-663.7"/>
<image xlink:href="../../images/foreignKeys.png" width="11px" height="12px" preserveAspectRatio="xMinYMin meet" x="277" y="-680.7"/>
<text text-anchor="start" x="301" y="-670.8" font-family="Helvetica,sans-Serif" font-size="11.00" fill="#000000">ALPH_MTDID</text>
<polygon fill="none" stroke="#000000" points="272,-641.7 272,-663.7 413,-663.7 413,-641.7 272,-641.7"/>
<image xlink:href="../../images/foreignKeys.png" width="11px" height="12px" preserveAspectRatio="xMinYMin meet" x="277" y="-658.7"/>
<text text-anchor="start" x="301" y="-648.8" font-family="Helvetica,sans-Serif" font-size="11.00" fill="#000000">BETA_MTDID</text>
<polygon fill="none" stroke="#000000" points="272,-619.7 272,-641.7 413,-641.7 413,-619.7 272,-619.7"/>
<image xlink:href="../../images/foreignKeys.png" width="11px" height="12px" preserveAspectRatio="xMinYMin meet" x="277" y="-636.7"/>
<text text-anchor="start" x="301" y="-626.8" font-family="Helvetica,sans-Serif" font-size="11.00" fill="#000000">GMMA_MTDID</text>
<polygon fill="none" stroke="#000000" points="272,-600.7 272,-619.7 413,-619.7 413,-600.7 272,-600.7"/>
<text text-anchor="start" x="275" y="-606.8" font-family="Helvetica,sans-Serif" font-size="11.00" fill="#000000">...</text>
<polygon fill="#ffffff" stroke="transparent" points="272,-581.7 272,-600.7 316,-600.7 316,-581.7 272,-581.7"/>
<polygon fill="none" stroke="#000000" points="272,-581.7 272,-600.7 316,-600.7 316,-581.7 272,-581.7"/>
<text text-anchor="start" x="275" y="-587.8" font-family="Helvetica,sans-Serif" font-size="11.00" fill="#000000">&lt; 20</text>
<polygon fill="#ffffff" stroke="transparent" points="316,-581.7 316,-600.7 383,-600.7 383,-581.7 316,-581.7"/>
<polygon fill="none" stroke="#000000" points="316,-581.7 316,-600.7 383,-600.7 383,-581.7 316,-581.7"/>
<text text-anchor="start" x="326.2089" y="-587.8" font-family="Helvetica,sans-Serif" font-size="11.00" fill="#000000">2.458 rows</text>
<polygon fill="#ffffff" stroke="transparent" points="383,-581.7 383,-600.7 413,-600.7 413,-581.7 383,-581.7"/>
<polygon fill="none" stroke="#000000" points="383,-581.7 383,-600.7 413,-600.7 413,-581.7 383,-581.7"/>
<text text-anchor="start" x="394.4053" y="-587.8" font-family="Helvetica,sans-Serif" font-size="11.00" fill="#000000">1 &gt;</text>
</a>
</g>
</g>
<!-- sed&#45;osl_DataCore&#45;&gt;osl&#45;tl_ed_procID -->
<g id="edge3" class="edge">
<title>sed&#45;osl_DataCore:w&#45;&gt;osl&#45;tl_ed_procID:e</title>
<path fill="none" stroke="#000000" d="M257.5594,-786.1552C160.2674,-807.9686 340.2102,-1067.7 217.5,-1067.7"/>
<polygon fill="#000000" stroke="#000000" points="264.0403,-785.5021 272.361,-788.2819 268.0202,-785.1011 272,-784.7 272,-784.7 272,-784.7 268.0202,-785.1011 271.639,-781.1181 264.0403,-785.5021 264.0403,-785.5021"/>
<ellipse fill="none" stroke="#000000" cx="260.8564" cy="-785.823" rx="3.2" ry="3.2"/>
</g>
<!-- sed&#45;tl_DataCore -->
<g id="node5" class="node">
<title>sed&#45;tl_DataCore</title>
<g id="a_node5"><a xlink:href="../../tables/sed-tl_DataCore.html" xlink:title="sed&#45;tl_DataCore" target="_top">
<polygon fill="#ffffff" stroke="transparent" points="276.5,-38.2 276.5,-561.2 407.5,-561.2 407.5,-38.2 276.5,-38.2"/>
<polygon fill="#f5f5f5" stroke="transparent" points="277,-537.7 277,-560.7 408,-560.7 408,-537.7 277,-537.7"/>
<polygon fill="none" stroke="#000000" points="277,-537.7 277,-560.7 408,-560.7 408,-537.7 277,-537.7"/>
<text text-anchor="start" x="282" y="-546.3" font-family="Helvetica,sans-Serif" font-weight="bold" font-size="11.00" fill="#000000">sed&#45;tl_DataCore</text>
<text text-anchor="start" x="373.5219" y="-545.8" font-family="Helvetica,sans-Serif" font-size="11.00" fill="#000000">[table]</text>
<polygon fill="none" stroke="#000000" points="277,-515.7 277,-537.7 408,-537.7 408,-515.7 277,-515.7"/>
<image xlink:href="../../images/primaryKeys.png" width="11px" height="12px" preserveAspectRatio="xMinYMin meet" x="282" y="-532.7"/>
<text text-anchor="start" x="306" y="-522.8" font-family="Helvetica,sans-Serif" font-size="11.00" fill="#000000">OBSID1</text>
<polygon fill="none" stroke="#000000" points="277,-493.7 277,-515.7 408,-515.7 408,-493.7 277,-493.7"/>
<image xlink:href="../../images/foreignKeys.png" width="11px" height="12px" preserveAspectRatio="xMinYMin meet" x="282" y="-510.7"/>
<text text-anchor="start" x="306" y="-500.8" font-family="Helvetica,sans-Serif" font-size="11.00" fill="#000000">SMPID</text>
<polygon fill="none" stroke="#000000" points="277,-471.7 277,-493.7 408,-493.7 408,-471.7 277,-471.7"/>
<image xlink:href="../../images/foreignKeys.png" width="11px" height="12px" preserveAspectRatio="xMinYMin meet" x="282" y="-488.7"/>
<text text-anchor="start" x="306" y="-478.8" font-family="Helvetica,sans-Serif" font-size="11.00" fill="#000000">LAB_ORIGID</text>
<polygon fill="none" stroke="#000000" points="277,-449.7 277,-471.7 408,-471.7 408,-449.7 277,-449.7"/>
<image xlink:href="../../images/foreignKeys.png" width="11px" height="12px" preserveAspectRatio="xMinYMin meet" x="282" y="-466.7"/>
<text text-anchor="start" x="306" y="-456.8" font-family="Helvetica,sans-Serif" font-size="11.00" fill="#000000">METHODID</text>
<polygon fill="none" stroke="#000000" points="277,-427.7 277,-449.7 408,-449.7 408,-427.7 277,-427.7"/>
<image xlink:href="../../images/foreignKeys.png" width="11px" height="12px" preserveAspectRatio="xMinYMin meet" x="282" y="-444.7"/>
<text text-anchor="start" x="306" y="-434.8" font-family="Helvetica,sans-Serif" font-size="11.00" fill="#000000">DBDOI</text>
<polygon fill="none" stroke="#000000" points="277,-405.7 277,-427.7 408,-427.7 408,-405.7 277,-405.7"/>
<image xlink:href="../../images/foreignKeys.png" width="11px" height="12px" preserveAspectRatio="xMinYMin meet" x="282" y="-422.7"/>
<text text-anchor="start" x="306" y="-412.8" font-family="Helvetica,sans-Serif" font-size="11.00" fill="#000000">REFDBID1</text>
<polygon fill="none" stroke="#000000" points="277,-383.7 277,-405.7 408,-405.7 408,-383.7 277,-383.7"/>
<image xlink:href="../../images/foreignKeys.png" width="11px" height="12px" preserveAspectRatio="xMinYMin meet" x="282" y="-400.7"/>
<text text-anchor="start" x="306" y="-390.8" font-family="Helvetica,sans-Serif" font-size="11.00" fill="#000000">REFDBID2</text>
<polygon fill="none" stroke="#000000" points="277,-361.7 277,-383.7 408,-383.7 408,-361.7 277,-361.7"/>
<image xlink:href="../../images/foreignKeys.png" width="11px" height="12px" preserveAspectRatio="xMinYMin meet" x="282" y="-378.7"/>
<text text-anchor="start" x="306" y="-368.8" font-family="Helvetica,sans-Serif" font-size="11.00" fill="#000000">REFDBID3</text>
<polygon fill="none" stroke="#000000" points="277,-339.7 277,-361.7 408,-361.7 408,-339.7 277,-339.7"/>
<image xlink:href="../../images/foreignKeys.png" width="11px" height="12px" preserveAspectRatio="xMinYMin meet" x="282" y="-356.7"/>
<text text-anchor="start" x="306" y="-346.8" font-family="Helvetica,sans-Serif" font-size="11.00" fill="#000000">REFDBID4</text>
<polygon fill="none" stroke="#000000" points="277,-317.7 277,-339.7 408,-339.7 408,-317.7 277,-317.7"/>
<image xlink:href="../../images/foreignKeys.png" width="11px" height="12px" preserveAspectRatio="xMinYMin meet" x="282" y="-334.7"/>
<text text-anchor="start" x="306" y="-324.8" font-family="Helvetica,sans-Serif" font-size="11.00" fill="#000000">COL_MTDID</text>
<polygon fill="none" stroke="#000000" points="277,-295.7 277,-317.7 408,-317.7 408,-295.7 277,-295.7"/>
<image xlink:href="../../images/foreignKeys.png" width="11px" height="12px" preserveAspectRatio="xMinYMin meet" x="282" y="-312.7"/>
<text text-anchor="start" x="306" y="-302.8" font-family="Helvetica,sans-Serif" font-size="11.00" fill="#000000">LUM_MATID</text>
<polygon fill="none" stroke="#000000" points="277,-273.7 277,-295.7 408,-295.7 408,-273.7 277,-273.7"/>
<image xlink:href="../../images/foreignKeys.png" width="11px" height="12px" preserveAspectRatio="xMinYMin meet" x="282" y="-290.7"/>
<text text-anchor="start" x="306" y="-280.8" font-family="Helvetica,sans-Serif" font-size="11.00" fill="#000000">MINERALID</text>
<polygon fill="none" stroke="#000000" points="277,-251.7 277,-273.7 408,-273.7 408,-251.7 277,-251.7"/>
<image xlink:href="../../images/foreignKeys.png" width="11px" height="12px" preserveAspectRatio="xMinYMin meet" x="282" y="-268.7"/>
<text text-anchor="start" x="306" y="-258.8" font-family="Helvetica,sans-Serif" font-size="11.00" fill="#000000">ED_PROCID</text>
<polygon fill="none" stroke="#000000" points="277,-229.7 277,-251.7 408,-251.7 408,-229.7 277,-229.7"/>
<image xlink:href="../../images/foreignKeys.png" width="11px" height="12px" preserveAspectRatio="xMinYMin meet" x="282" y="-246.7"/>
<text text-anchor="start" x="306" y="-236.8" font-family="Helvetica,sans-Serif" font-size="11.00" fill="#000000">AGEMODELID</text>
<polygon fill="none" stroke="#000000" points="277,-207.7 277,-229.7 408,-229.7 408,-207.7 277,-207.7"/>
<image xlink:href="../../images/foreignKeys.png" width="11px" height="12px" preserveAspectRatio="xMinYMin meet" x="282" y="-224.7"/>
<text text-anchor="start" x="306" y="-214.8" font-family="Helvetica,sans-Serif" font-size="11.00" fill="#000000">U_MTDID</text>
<polygon fill="none" stroke="#000000" points="277,-185.7 277,-207.7 408,-207.7 408,-185.7 277,-185.7"/>
<image xlink:href="../../images/foreignKeys.png" width="11px" height="12px" preserveAspectRatio="xMinYMin meet" x="282" y="-202.7"/>
<text text-anchor="start" x="306" y="-192.8" font-family="Helvetica,sans-Serif" font-size="11.00" fill="#000000">TH_MTDID</text>
<polygon fill="none" stroke="#000000" points="277,-163.7 277,-185.7 408,-185.7 408,-163.7 277,-163.7"/>
<image xlink:href="../../images/foreignKeys.png" width="11px" height="12px" preserveAspectRatio="xMinYMin meet" x="282" y="-180.7"/>
<text text-anchor="start" x="306" y="-170.8" font-family="Helvetica,sans-Serif" font-size="11.00" fill="#000000">U_TH_MTDID</text>
<polygon fill="none" stroke="#000000" points="277,-141.7 277,-163.7 408,-163.7 408,-141.7 277,-141.7"/>
<image xlink:href="../../images/foreignKeys.png" width="11px" height="12px" preserveAspectRatio="xMinYMin meet" x="282" y="-158.7"/>
<text text-anchor="start" x="306" y="-148.8" font-family="Helvetica,sans-Serif" font-size="11.00" fill="#000000">K_MTDID</text>
<polygon fill="none" stroke="#000000" points="277,-119.7 277,-141.7 408,-141.7 408,-119.7 277,-119.7"/>
<image xlink:href="../../images/foreignKeys.png" width="11px" height="12px" preserveAspectRatio="xMinYMin meet" x="282" y="-136.7"/>
<text text-anchor="start" x="306" y="-126.8" font-family="Helvetica,sans-Serif" font-size="11.00" fill="#000000">ALPH_MTDID</text>
<polygon fill="none" stroke="#000000" points="277,-97.7 277,-119.7 408,-119.7 408,-97.7 277,-97.7"/>
<image xlink:href="../../images/foreignKeys.png" width="11px" height="12px" preserveAspectRatio="xMinYMin meet" x="282" y="-114.7"/>
<text text-anchor="start" x="306" y="-104.8" font-family="Helvetica,sans-Serif" font-size="11.00" fill="#000000">BETA_MTDID</text>
<polygon fill="none" stroke="#000000" points="277,-75.7 277,-97.7 408,-97.7 408,-75.7 277,-75.7"/>
<image xlink:href="../../images/foreignKeys.png" width="11px" height="12px" preserveAspectRatio="xMinYMin meet" x="282" y="-92.7"/>
<text text-anchor="start" x="306" y="-82.8" font-family="Helvetica,sans-Serif" font-size="11.00" fill="#000000">GMMA_MTDID</text>
<polygon fill="none" stroke="#000000" points="277,-56.7 277,-75.7 408,-75.7 408,-56.7 277,-56.7"/>
<text text-anchor="start" x="280" y="-62.8" font-family="Helvetica,sans-Serif" font-size="11.00" fill="#000000">...</text>
<polygon fill="#ffffff" stroke="transparent" points="277,-37.7 277,-56.7 320,-56.7 320,-37.7 277,-37.7"/>
<polygon fill="none" stroke="#000000" points="277,-37.7 277,-56.7 320,-56.7 320,-37.7 277,-37.7"/>
<text text-anchor="start" x="280" y="-43.8" font-family="Helvetica,sans-Serif" font-size="11.00" fill="#000000">&lt; 20</text>
<polygon fill="#ffffff" stroke="transparent" points="320,-37.7 320,-56.7 378,-56.7 378,-37.7 320,-37.7"/>
<polygon fill="none" stroke="#000000" points="320,-37.7 320,-56.7 378,-56.7 378,-37.7 320,-37.7"/>
<text text-anchor="start" x="330.3807" y="-43.8" font-family="Helvetica,sans-Serif" font-size="11.00" fill="#000000">966 rows</text>
<polygon fill="#ffffff" stroke="transparent" points="378,-37.7 378,-56.7 408,-56.7 408,-37.7 378,-37.7"/>
<polygon fill="none" stroke="#000000" points="378,-37.7 378,-56.7 408,-56.7 408,-37.7 378,-37.7"/>
<text text-anchor="start" x="389.4053" y="-43.8" font-family="Helvetica,sans-Serif" font-size="11.00" fill="#000000">1 &gt;</text>
</a>
</g>
</g>
<!-- sed&#45;tl_DataCore&#45;&gt;osl&#45;tl_ed_procID -->
<g id="edge4" class="edge">
<title>sed&#45;tl_DataCore:w&#45;&gt;osl&#45;tl_ed_procID:e</title>
<path fill="none" stroke="#000000" d="M264.0972,-269.6593C199.7963,-348.3393 302.2836,-1067.7 217.5,-1067.7"/>
<polygon fill="#000000" stroke="#000000" points="269.9589,-266.4977 278.709,-265.8685 273.4794,-264.5989 277,-262.7 277,-262.7 277,-262.7 273.4794,-264.5989 275.291,-259.5315 269.9589,-266.4977 269.9589,-266.4977"/>
<ellipse fill="none" stroke="#000000" cx="267.1424" cy="-268.0168" rx="3.2" ry="3.2"/>
</g>
</g>
</svg>
