<?xml version="1.0" encoding="UTF-8" standalone="no"?>
<!DOCTYPE svg PUBLIC "-//W3C//DTD SVG 1.1//EN"
 "http://www.w3.org/Graphics/SVG/1.1/DTD/svg11.dtd">
<!-- Generated by graphviz version 2.40.1 (20161225.0304)
 -->
<!-- Title: oneDegreeRelationshipsDiagram Pages: 1 -->
<svg width="430pt" height="2205pt"
 viewBox="0.00 0.00 430.00 2205.20" xmlns="http://www.w3.org/2000/svg" xmlns:xlink="http://www.w3.org/1999/xlink">
<g id="graph0" class="graph" transform="scale(1 1) rotate(0) translate(4 2201.2)">
<title>oneDegreeRelationshipsDiagram</title>
<polygon fill="#ffffff" stroke="transparent" points="-4,4 -4,-2201.2 426,-2201.2 426,4 -4,4"/>
<text text-anchor="middle" x="72.4936" y="-7.3" font-family="Helvetica,sans-Serif" font-size="11.00" fill="#000000">Generated by SchemaSpy</text>
<!-- arch_osl_DataCore -->
<g id="node1" class="node">
<title>arch_osl_DataCore</title>
<g id="a_node1"><a xlink:href="../../tables/arch_osl_DataCore.html" xlink:title="arch_osl_DataCore" target="_top">
<polygon fill="#ffffff" stroke="transparent" points="277,-1670.2 277,-2193.2 414,-2193.2 414,-1670.2 277,-1670.2"/>
<polygon fill="#f5f5f5" stroke="transparent" points="277.5,-2169.7 277.5,-2192.7 414.5,-2192.7 414.5,-2169.7 277.5,-2169.7"/>
<polygon fill="none" stroke="#000000" points="277.5,-2169.7 277.5,-2192.7 414.5,-2192.7 414.5,-2169.7 277.5,-2169.7"/>
<text text-anchor="start" x="282.1313" y="-2178.8" font-family="Helvetica,sans-Serif" font-weight="bold" font-size="11.00" fill="#000000">arch_osl_DataCore</text>
<text text-anchor="start" x="380.0219" y="-2177.8" font-family="Helvetica,sans-Serif" font-size="11.00" fill="#000000">[table]</text>
<polygon fill="none" stroke="#000000" points="277.5,-2147.7 277.5,-2169.7 414.5,-2169.7 414.5,-2147.7 277.5,-2147.7"/>
<image xlink:href="../../images/primaryKeys.png" width="11px" height="12px" preserveAspectRatio="xMinYMin meet" x="282.5" y="-2164.7"/>
<text text-anchor="start" x="301.5" y="-2154.8" font-family="Helvetica,sans-Serif" font-size="11.00" fill="#000000">OBSID1</text>
<polygon fill="none" stroke="#000000" points="277.5,-2125.7 277.5,-2147.7 414.5,-2147.7 414.5,-2125.7 277.5,-2125.7"/>
<image xlink:href="../../images/foreignKeys.png" width="11px" height="12px" preserveAspectRatio="xMinYMin meet" x="282.5" y="-2142.7"/>
<text text-anchor="start" x="301.5" y="-2132.8" font-family="Helvetica,sans-Serif" font-size="11.00" fill="#000000">SMPID</text>
<polygon fill="none" stroke="#000000" points="277.5,-2103.7 277.5,-2125.7 414.5,-2125.7 414.5,-2103.7 277.5,-2103.7"/>
<image xlink:href="../../images/foreignKeys.png" width="11px" height="12px" preserveAspectRatio="xMinYMin meet" x="282.5" y="-2120.7"/>
<text text-anchor="start" x="301.5" y="-2110.8" font-family="Helvetica,sans-Serif" font-size="11.00" fill="#000000">LAB_ORIGID</text>
<polygon fill="none" stroke="#000000" points="277.5,-2081.7 277.5,-2103.7 414.5,-2103.7 414.5,-2081.7 277.5,-2081.7"/>
<image xlink:href="../../images/foreignKeys.png" width="11px" height="12px" preserveAspectRatio="xMinYMin meet" x="282.5" y="-2098.7"/>
<text text-anchor="start" x="301.5" y="-2088.8" font-family="Helvetica,sans-Serif" font-size="11.00" fill="#000000">METHODID</text>
<polygon fill="none" stroke="#000000" points="277.5,-2059.7 277.5,-2081.7 414.5,-2081.7 414.5,-2059.7 277.5,-2059.7"/>
<image xlink:href="../../images/foreignKeys.png" width="11px" height="12px" preserveAspectRatio="xMinYMin meet" x="282.5" y="-2076.7"/>
<text text-anchor="start" x="301.5" y="-2066.8" font-family="Helvetica,sans-Serif" font-size="11.00" fill="#000000">DBDOI</text>
<polygon fill="none" stroke="#000000" points="277.5,-2037.7 277.5,-2059.7 414.5,-2059.7 414.5,-2037.7 277.5,-2037.7"/>
<image xlink:href="../../images/foreignKeys.png" width="11px" height="12px" preserveAspectRatio="xMinYMin meet" x="282.5" y="-2054.7"/>
<text text-anchor="start" x="301.5" y="-2044.8" font-family="Helvetica,sans-Serif" font-size="11.00" fill="#000000">REFDBID1</text>
<polygon fill="none" stroke="#000000" points="277.5,-2015.7 277.5,-2037.7 414.5,-2037.7 414.5,-2015.7 277.5,-2015.7"/>
<image xlink:href="../../images/foreignKeys.png" width="11px" height="12px" preserveAspectRatio="xMinYMin meet" x="282.5" y="-2032.7"/>
<text text-anchor="start" x="301.5" y="-2022.8" font-family="Helvetica,sans-Serif" font-size="11.00" fill="#000000">REFDBID2</text>
<polygon fill="none" stroke="#000000" points="277.5,-1993.7 277.5,-2015.7 414.5,-2015.7 414.5,-1993.7 277.5,-1993.7"/>
<image xlink:href="../../images/foreignKeys.png" width="11px" height="12px" preserveAspectRatio="xMinYMin meet" x="282.5" y="-2010.7"/>
<text text-anchor="start" x="301.5" y="-2000.8" font-family="Helvetica,sans-Serif" font-size="11.00" fill="#000000">REFDBID3</text>
<polygon fill="none" stroke="#000000" points="277.5,-1971.7 277.5,-1993.7 414.5,-1993.7 414.5,-1971.7 277.5,-1971.7"/>
<image xlink:href="../../images/foreignKeys.png" width="11px" height="12px" preserveAspectRatio="xMinYMin meet" x="282.5" y="-1988.7"/>
<text text-anchor="start" x="301.5" y="-1978.8" font-family="Helvetica,sans-Serif" font-size="11.00" fill="#000000">REFDBID4</text>
<polygon fill="none" stroke="#000000" points="277.5,-1949.7 277.5,-1971.7 414.5,-1971.7 414.5,-1949.7 277.5,-1949.7"/>
<image xlink:href="../../images/foreignKeys.png" width="11px" height="12px" preserveAspectRatio="xMinYMin meet" x="282.5" y="-1966.7"/>
<text text-anchor="start" x="301.5" y="-1956.8" font-family="Helvetica,sans-Serif" font-size="11.00" fill="#000000">COL_MTDID</text>
<polygon fill="none" stroke="#000000" points="277.5,-1927.7 277.5,-1949.7 414.5,-1949.7 414.5,-1927.7 277.5,-1927.7"/>
<image xlink:href="../../images/foreignKeys.png" width="11px" height="12px" preserveAspectRatio="xMinYMin meet" x="282.5" y="-1944.7"/>
<text text-anchor="start" x="301.5" y="-1934.8" font-family="Helvetica,sans-Serif" font-size="11.00" fill="#000000">LUM_MATID</text>
<polygon fill="none" stroke="#000000" points="277.5,-1905.7 277.5,-1927.7 414.5,-1927.7 414.5,-1905.7 277.5,-1905.7"/>
<image xlink:href="../../images/foreignKeys.png" width="11px" height="12px" preserveAspectRatio="xMinYMin meet" x="282.5" y="-1922.7"/>
<text text-anchor="start" x="301.5" y="-1912.8" font-family="Helvetica,sans-Serif" font-size="11.00" fill="#000000">MINERALID</text>
<polygon fill="none" stroke="#000000" points="277.5,-1883.7 277.5,-1905.7 414.5,-1905.7 414.5,-1883.7 277.5,-1883.7"/>
<image xlink:href="../../images/foreignKeys.png" width="11px" height="12px" preserveAspectRatio="xMinYMin meet" x="282.5" y="-1900.7"/>
<text text-anchor="start" x="301.5" y="-1890.8" font-family="Helvetica,sans-Serif" font-size="11.00" fill="#000000">OSL_TYPEID</text>
<polygon fill="none" stroke="#000000" points="277.5,-1861.7 277.5,-1883.7 414.5,-1883.7 414.5,-1861.7 277.5,-1861.7"/>
<image xlink:href="../../images/foreignKeys.png" width="11px" height="12px" preserveAspectRatio="xMinYMin meet" x="282.5" y="-1878.7"/>
<text text-anchor="start" x="301.5" y="-1868.8" font-family="Helvetica,sans-Serif" font-size="11.00" fill="#000000">ED_PROCID</text>
<polygon fill="none" stroke="#000000" points="277.5,-1839.7 277.5,-1861.7 414.5,-1861.7 414.5,-1839.7 277.5,-1839.7"/>
<image xlink:href="../../images/foreignKeys.png" width="11px" height="12px" preserveAspectRatio="xMinYMin meet" x="282.5" y="-1856.7"/>
<text text-anchor="start" x="301.5" y="-1846.8" font-family="Helvetica,sans-Serif" font-size="11.00" fill="#000000">AGEMODELID</text>
<polygon fill="none" stroke="#000000" points="277.5,-1817.7 277.5,-1839.7 414.5,-1839.7 414.5,-1817.7 277.5,-1817.7"/>
<image xlink:href="../../images/foreignKeys.png" width="11px" height="12px" preserveAspectRatio="xMinYMin meet" x="282.5" y="-1834.7"/>
<text text-anchor="start" x="301.5" y="-1824.8" font-family="Helvetica,sans-Serif" font-size="11.00" fill="#000000">U_MTDID</text>
<polygon fill="none" stroke="#000000" points="277.5,-1795.7 277.5,-1817.7 414.5,-1817.7 414.5,-1795.7 277.5,-1795.7"/>
<image xlink:href="../../images/foreignKeys.png" width="11px" height="12px" preserveAspectRatio="xMinYMin meet" x="282.5" y="-1812.7"/>
<text text-anchor="start" x="301.5" y="-1802.8" font-family="Helvetica,sans-Serif" font-size="11.00" fill="#000000">TH_MTDID</text>
<polygon fill="none" stroke="#000000" points="277.5,-1773.7 277.5,-1795.7 414.5,-1795.7 414.5,-1773.7 277.5,-1773.7"/>
<image xlink:href="../../images/foreignKeys.png" width="11px" height="12px" preserveAspectRatio="xMinYMin meet" x="282.5" y="-1790.7"/>
<text text-anchor="start" x="301.5" y="-1780.8" font-family="Helvetica,sans-Serif" font-size="11.00" fill="#000000">K_MTDID</text>
<polygon fill="none" stroke="#000000" points="277.5,-1751.7 277.5,-1773.7 414.5,-1773.7 414.5,-1751.7 277.5,-1751.7"/>
<image xlink:href="../../images/foreignKeys.png" width="11px" height="12px" preserveAspectRatio="xMinYMin meet" x="282.5" y="-1768.7"/>
<text text-anchor="start" x="301.5" y="-1758.8" font-family="Helvetica,sans-Serif" font-size="11.00" fill="#000000">ALPH_MTDID</text>
<polygon fill="none" stroke="#000000" points="277.5,-1729.7 277.5,-1751.7 414.5,-1751.7 414.5,-1729.7 277.5,-1729.7"/>
<image xlink:href="../../images/foreignKeys.png" width="11px" height="12px" preserveAspectRatio="xMinYMin meet" x="282.5" y="-1746.7"/>
<text text-anchor="start" x="301.5" y="-1736.8" font-family="Helvetica,sans-Serif" font-size="11.00" fill="#000000">BETA_MTDID</text>
<polygon fill="none" stroke="#000000" points="277.5,-1707.7 277.5,-1729.7 414.5,-1729.7 414.5,-1707.7 277.5,-1707.7"/>
<image xlink:href="../../images/foreignKeys.png" width="11px" height="12px" preserveAspectRatio="xMinYMin meet" x="282.5" y="-1724.7"/>
<text text-anchor="start" x="301.5" y="-1714.8" font-family="Helvetica,sans-Serif" font-size="11.00" fill="#000000">GMMA_MTDID</text>
<polygon fill="none" stroke="#000000" points="277.5,-1688.7 277.5,-1707.7 414.5,-1707.7 414.5,-1688.7 277.5,-1688.7"/>
<text text-anchor="start" x="280.5" y="-1694.8" font-family="Helvetica,sans-Serif" font-size="11.00" fill="#000000">...</text>
<polygon fill="#ffffff" stroke="transparent" points="277.5,-1669.7 277.5,-1688.7 323.5,-1688.7 323.5,-1669.7 277.5,-1669.7"/>
<polygon fill="none" stroke="#000000" points="277.5,-1669.7 277.5,-1688.7 323.5,-1688.7 323.5,-1669.7 277.5,-1669.7"/>
<text text-anchor="start" x="280.5" y="-1675.8" font-family="Helvetica,sans-Serif" font-size="11.00" fill="#000000">&lt; 20</text>
<polygon fill="#ffffff" stroke="transparent" points="323.5,-1669.7 323.5,-1688.7 383.5,-1688.7 383.5,-1669.7 323.5,-1669.7"/>
<polygon fill="none" stroke="#000000" points="323.5,-1669.7 323.5,-1688.7 383.5,-1688.7 383.5,-1669.7 323.5,-1669.7"/>
<text text-anchor="start" x="335.8807" y="-1675.8" font-family="Helvetica,sans-Serif" font-size="11.00" fill="#000000">973 rows</text>
<polygon fill="#ffffff" stroke="transparent" points="383.5,-1669.7 383.5,-1688.7 414.5,-1688.7 414.5,-1669.7 383.5,-1669.7"/>
<polygon fill="none" stroke="#000000" points="383.5,-1669.7 383.5,-1688.7 414.5,-1688.7 414.5,-1669.7 383.5,-1669.7"/>
<text text-anchor="start" x="395.9053" y="-1675.8" font-family="Helvetica,sans-Serif" font-size="11.00" fill="#000000">1 &gt;</text>
</a>
</g>
</g>
<!-- osl&#45;tl_agemodelID -->
<g id="node2" class="node">
<title>osl&#45;tl_agemodelID</title>
<g id="a_node2"><a xlink:href="../../tables/osl-tl_agemodelID.html" xlink:title="osl&#45;tl_agemodelID" target="_top">
<polygon fill="#ffffff" stroke="transparent" points="8,-925.7 8,-1081.7 228,-1081.7 228,-925.7 8,-925.7"/>
<polygon fill="#f5f5f5" stroke="transparent" points="10,-1056.7 10,-1079.7 226,-1079.7 226,-1056.7 10,-1056.7"/>
<polygon fill="none" stroke="#000000" points="10,-1056.7 10,-1079.7 226,-1079.7 226,-1056.7 10,-1056.7"/>
<text text-anchor="start" x="15" y="-1065.8" font-family="Helvetica,sans-Serif" font-weight="bold" font-size="11.00" fill="#000000">osl&#45;tl_agemodelID</text>
<text text-anchor="start" x="191.0437" y="-1064.8" font-family="Helvetica,sans-Serif" font-size="11.00" fill="#000000">[table]</text>
<polygon fill="none" stroke="#000000" points="10,-1034.7 10,-1056.7 134,-1056.7 134,-1034.7 10,-1034.7"/>
<image xlink:href="../../images/primaryKeys.png" width="11px" height="12px" preserveAspectRatio="xMinYMin meet" x="15" y="-1051.7"/>
<text text-anchor="start" x="30" y="-1041.8" font-family="Helvetica,sans-Serif" font-size="11.00" fill="#000000">AGEMODELID</text>
<polygon fill="none" stroke="#000000" points="134,-1034.7 134,-1056.7 226,-1056.7 226,-1034.7 134,-1034.7"/>
<text text-anchor="start" x="137" y="-1042.4" font-family="Helvetica,sans-Serif" font-size="11.00" fill="#000000">smallserial[5]</text>
<polygon fill="#ffffff" stroke="transparent" points="10,-1012.7 10,-1034.7 134,-1034.7 134,-1012.7 10,-1012.7"/>
<polygon fill="none" stroke="#000000" points="10,-1012.7 10,-1034.7 134,-1034.7 134,-1012.7 10,-1012.7"/>
<text text-anchor="start" x="30" y="-1019.8" font-family="Helvetica,sans-Serif" font-size="11.00" fill="#000000">AGEMODEL</text>
<polygon fill="none" stroke="#000000" points="134,-1012.7 134,-1034.7 226,-1034.7 226,-1012.7 134,-1012.7"/>
<text text-anchor="start" x="137" y="-1020.4" font-family="Helvetica,sans-Serif" font-size="11.00" fill="#000000">text[2147483647]</text>
<polygon fill="#ffffff" stroke="transparent" points="10,-990.7 10,-1012.7 134,-1012.7 134,-990.7 10,-990.7"/>
<polygon fill="none" stroke="#000000" points="10,-990.7 10,-1012.7 134,-1012.7 134,-990.7 10,-990.7"/>
<text text-anchor="start" x="30" y="-997.8" font-family="Helvetica,sans-Serif" font-size="11.00" fill="#000000">AGEMODELAB</text>
<polygon fill="none" stroke="#000000" points="134,-990.7 134,-1012.7 226,-1012.7 226,-990.7 134,-990.7"/>
<text text-anchor="start" x="137" y="-998.4" font-family="Helvetica,sans-Serif" font-size="11.00" fill="#000000">text[2147483647]</text>
<polygon fill="none" stroke="#000000" points="10,-968.7 10,-990.7 134,-990.7 134,-968.7 10,-968.7"/>
<text text-anchor="start" x="30" y="-975.8" font-family="Helvetica,sans-Serif" font-size="11.00" fill="#000000">CREATED_AT</text>
<polygon fill="none" stroke="#000000" points="134,-968.7 134,-990.7 226,-990.7 226,-968.7 134,-968.7"/>
<text text-anchor="start" x="136.6023" y="-976.4" font-family="Helvetica,sans-Serif" font-size="11.00" fill="#000000">timestamptz[35,6]</text>
<polygon fill="none" stroke="#000000" points="10,-946.7 10,-968.7 134,-968.7 134,-946.7 10,-946.7"/>
<text text-anchor="start" x="30" y="-953.8" font-family="Helvetica,sans-Serif" font-size="11.00" fill="#000000">UPDATED_AT</text>
<polygon fill="none" stroke="#000000" points="134,-946.7 134,-968.7 226,-968.7 226,-946.7 134,-946.7"/>
<text text-anchor="start" x="136.6023" y="-954.4" font-family="Helvetica,sans-Serif" font-size="11.00" fill="#000000">timestamptz[35,6]</text>
<polygon fill="#ffffff" stroke="transparent" points="10,-927.7 10,-946.7 60,-946.7 60,-927.7 10,-927.7"/>
<polygon fill="none" stroke="#000000" points="10,-927.7 10,-946.7 60,-946.7 60,-927.7 10,-927.7"/>
<text text-anchor="start" x="13" y="-933.8" font-family="Helvetica,sans-Serif" font-size="11.00" fill="#000000">&lt; 0</text>
<polygon fill="#ffffff" stroke="transparent" points="60,-927.7 60,-946.7 134,-946.7 134,-927.7 60,-927.7"/>
<polygon fill="none" stroke="#000000" points="60,-927.7 60,-946.7 134,-946.7 134,-927.7 60,-927.7"/>
<text text-anchor="start" x="92.4956" y="-933.8" font-family="Helvetica,sans-Serif" font-size="11.00" fill="#000000">15 rows</text>
<polygon fill="#ffffff" stroke="transparent" points="134,-927.7 134,-946.7 226,-946.7 226,-927.7 134,-927.7"/>
<polygon fill="none" stroke="#000000" points="134,-927.7 134,-946.7 226,-946.7 226,-927.7 134,-927.7"/>
<text text-anchor="start" x="207.4053" y="-933.8" font-family="Helvetica,sans-Serif" font-size="11.00" fill="#000000">4 &gt;</text>
<polygon fill="none" stroke="#000000" stroke-width="2" points="9,-926.7 9,-1080.7 227,-1080.7 227,-926.7 9,-926.7"/>
</a>
</g>
</g>
<!-- arch_osl_DataCore&#45;&gt;osl&#45;tl_agemodelID -->
<g id="edge1" class="edge">
<title>arch_osl_DataCore:w&#45;&gt;osl&#45;tl_agemodelID:e</title>
<path fill="none" stroke="#000000" d="M264.6748,-1843.7407C201.1957,-1765.0607 310.7258,-1045.7 226,-1045.7"/>
<polygon fill="#000000" stroke="#000000" points="270.4685,-1846.8845 275.783,-1853.8642 273.9842,-1848.7922 277.5,-1850.7 277.5,-1850.7 277.5,-1850.7 273.9842,-1848.7922 279.217,-1847.5358 270.4685,-1846.8845 270.4685,-1846.8845"/>
<ellipse fill="none" stroke="#000000" cx="267.6559" cy="-1845.3583" rx="3.2" ry="3.2"/>
</g>
<!-- arch_tl_DataCore -->
<g id="node3" class="node">
<title>arch_tl_DataCore</title>
<g id="a_node3"><a xlink:href="../../tables/arch_tl_DataCore.html" xlink:title="arch_tl_DataCore" target="_top">
<polygon fill="#ffffff" stroke="transparent" points="281,-1126.2 281,-1649.2 410,-1649.2 410,-1126.2 281,-1126.2"/>
<polygon fill="#f5f5f5" stroke="transparent" points="281.5,-1625.7 281.5,-1648.7 410.5,-1648.7 410.5,-1625.7 281.5,-1625.7"/>
<polygon fill="none" stroke="#000000" points="281.5,-1625.7 281.5,-1648.7 410.5,-1648.7 410.5,-1625.7 281.5,-1625.7"/>
<text text-anchor="start" x="286.4103" y="-1634.8" font-family="Helvetica,sans-Serif" font-weight="bold" font-size="11.00" fill="#000000">arch_tl_DataCore</text>
<text text-anchor="start" x="376.0219" y="-1633.8" font-family="Helvetica,sans-Serif" font-size="11.00" fill="#000000">[table]</text>
<polygon fill="none" stroke="#000000" points="281.5,-1603.7 281.5,-1625.7 410.5,-1625.7 410.5,-1603.7 281.5,-1603.7"/>
<image xlink:href="../../images/primaryKeys.png" width="11px" height="12px" preserveAspectRatio="xMinYMin meet" x="286.5" y="-1620.7"/>
<text text-anchor="start" x="306.5" y="-1610.8" font-family="Helvetica,sans-Serif" font-size="11.00" fill="#000000">OBSID1</text>
<polygon fill="none" stroke="#000000" points="281.5,-1581.7 281.5,-1603.7 410.5,-1603.7 410.5,-1581.7 281.5,-1581.7"/>
<image xlink:href="../../images/foreignKeys.png" width="11px" height="12px" preserveAspectRatio="xMinYMin meet" x="286.5" y="-1598.7"/>
<text text-anchor="start" x="306.5" y="-1588.8" font-family="Helvetica,sans-Serif" font-size="11.00" fill="#000000">SMPID</text>
<polygon fill="none" stroke="#000000" points="281.5,-1559.7 281.5,-1581.7 410.5,-1581.7 410.5,-1559.7 281.5,-1559.7"/>
<image xlink:href="../../images/foreignKeys.png" width="11px" height="12px" preserveAspectRatio="xMinYMin meet" x="286.5" y="-1576.7"/>
<text text-anchor="start" x="306.5" y="-1566.8" font-family="Helvetica,sans-Serif" font-size="11.00" fill="#000000">LAB_ORIGID</text>
<polygon fill="none" stroke="#000000" points="281.5,-1537.7 281.5,-1559.7 410.5,-1559.7 410.5,-1537.7 281.5,-1537.7"/>
<image xlink:href="../../images/foreignKeys.png" width="11px" height="12px" preserveAspectRatio="xMinYMin meet" x="286.5" y="-1554.7"/>
<text text-anchor="start" x="306.5" y="-1544.8" font-family="Helvetica,sans-Serif" font-size="11.00" fill="#000000">METHODID</text>
<polygon fill="none" stroke="#000000" points="281.5,-1515.7 281.5,-1537.7 410.5,-1537.7 410.5,-1515.7 281.5,-1515.7"/>
<image xlink:href="../../images/foreignKeys.png" width="11px" height="12px" preserveAspectRatio="xMinYMin meet" x="286.5" y="-1532.7"/>
<text text-anchor="start" x="306.5" y="-1522.8" font-family="Helvetica,sans-Serif" font-size="11.00" fill="#000000">DBDOI</text>
<polygon fill="none" stroke="#000000" points="281.5,-1493.7 281.5,-1515.7 410.5,-1515.7 410.5,-1493.7 281.5,-1493.7"/>
<image xlink:href="../../images/foreignKeys.png" width="11px" height="12px" preserveAspectRatio="xMinYMin meet" x="286.5" y="-1510.7"/>
<text text-anchor="start" x="306.5" y="-1500.8" font-family="Helvetica,sans-Serif" font-size="11.00" fill="#000000">REFDBID1</text>
<polygon fill="none" stroke="#000000" points="281.5,-1471.7 281.5,-1493.7 410.5,-1493.7 410.5,-1471.7 281.5,-1471.7"/>
<image xlink:href="../../images/foreignKeys.png" width="11px" height="12px" preserveAspectRatio="xMinYMin meet" x="286.5" y="-1488.7"/>
<text text-anchor="start" x="306.5" y="-1478.8" font-family="Helvetica,sans-Serif" font-size="11.00" fill="#000000">REFDBID2</text>
<polygon fill="none" stroke="#000000" points="281.5,-1449.7 281.5,-1471.7 410.5,-1471.7 410.5,-1449.7 281.5,-1449.7"/>
<image xlink:href="../../images/foreignKeys.png" width="11px" height="12px" preserveAspectRatio="xMinYMin meet" x="286.5" y="-1466.7"/>
<text text-anchor="start" x="306.5" y="-1456.8" font-family="Helvetica,sans-Serif" font-size="11.00" fill="#000000">REFDBID3</text>
<polygon fill="none" stroke="#000000" points="281.5,-1427.7 281.5,-1449.7 410.5,-1449.7 410.5,-1427.7 281.5,-1427.7"/>
<image xlink:href="../../images/foreignKeys.png" width="11px" height="12px" preserveAspectRatio="xMinYMin meet" x="286.5" y="-1444.7"/>
<text text-anchor="start" x="306.5" y="-1434.8" font-family="Helvetica,sans-Serif" font-size="11.00" fill="#000000">REFDBID4</text>
<polygon fill="none" stroke="#000000" points="281.5,-1405.7 281.5,-1427.7 410.5,-1427.7 410.5,-1405.7 281.5,-1405.7"/>
<image xlink:href="../../images/foreignKeys.png" width="11px" height="12px" preserveAspectRatio="xMinYMin meet" x="286.5" y="-1422.7"/>
<text text-anchor="start" x="306.5" y="-1412.8" font-family="Helvetica,sans-Serif" font-size="11.00" fill="#000000">COL_MTDID</text>
<polygon fill="none" stroke="#000000" points="281.5,-1383.7 281.5,-1405.7 410.5,-1405.7 410.5,-1383.7 281.5,-1383.7"/>
<image xlink:href="../../images/foreignKeys.png" width="11px" height="12px" preserveAspectRatio="xMinYMin meet" x="286.5" y="-1400.7"/>
<text text-anchor="start" x="306.5" y="-1390.8" font-family="Helvetica,sans-Serif" font-size="11.00" fill="#000000">LUM_MATID</text>
<polygon fill="none" stroke="#000000" points="281.5,-1361.7 281.5,-1383.7 410.5,-1383.7 410.5,-1361.7 281.5,-1361.7"/>
<image xlink:href="../../images/foreignKeys.png" width="11px" height="12px" preserveAspectRatio="xMinYMin meet" x="286.5" y="-1378.7"/>
<text text-anchor="start" x="306.5" y="-1368.8" font-family="Helvetica,sans-Serif" font-size="11.00" fill="#000000">MINERALID</text>
<polygon fill="none" stroke="#000000" points="281.5,-1339.7 281.5,-1361.7 410.5,-1361.7 410.5,-1339.7 281.5,-1339.7"/>
<image xlink:href="../../images/foreignKeys.png" width="11px" height="12px" preserveAspectRatio="xMinYMin meet" x="286.5" y="-1356.7"/>
<text text-anchor="start" x="306.5" y="-1346.8" font-family="Helvetica,sans-Serif" font-size="11.00" fill="#000000">ED_PROCID</text>
<polygon fill="none" stroke="#000000" points="281.5,-1317.7 281.5,-1339.7 410.5,-1339.7 410.5,-1317.7 281.5,-1317.7"/>
<image xlink:href="../../images/foreignKeys.png" width="11px" height="12px" preserveAspectRatio="xMinYMin meet" x="286.5" y="-1334.7"/>
<text text-anchor="start" x="306.5" y="-1324.8" font-family="Helvetica,sans-Serif" font-size="11.00" fill="#000000">AGEMODELID</text>
<polygon fill="none" stroke="#000000" points="281.5,-1295.7 281.5,-1317.7 410.5,-1317.7 410.5,-1295.7 281.5,-1295.7"/>
<image xlink:href="../../images/foreignKeys.png" width="11px" height="12px" preserveAspectRatio="xMinYMin meet" x="286.5" y="-1312.7"/>
<text text-anchor="start" x="306.5" y="-1302.8" font-family="Helvetica,sans-Serif" font-size="11.00" fill="#000000">U_MTDID</text>
<polygon fill="none" stroke="#000000" points="281.5,-1273.7 281.5,-1295.7 410.5,-1295.7 410.5,-1273.7 281.5,-1273.7"/>
<image xlink:href="../../images/foreignKeys.png" width="11px" height="12px" preserveAspectRatio="xMinYMin meet" x="286.5" y="-1290.7"/>
<text text-anchor="start" x="306.5" y="-1280.8" font-family="Helvetica,sans-Serif" font-size="11.00" fill="#000000">TH_MTDID</text>
<polygon fill="none" stroke="#000000" points="281.5,-1251.7 281.5,-1273.7 410.5,-1273.7 410.5,-1251.7 281.5,-1251.7"/>
<image xlink:href="../../images/foreignKeys.png" width="11px" height="12px" preserveAspectRatio="xMinYMin meet" x="286.5" y="-1268.7"/>
<text text-anchor="start" x="306.5" y="-1258.8" font-family="Helvetica,sans-Serif" font-size="11.00" fill="#000000">U_TH_MTDID</text>
<polygon fill="none" stroke="#000000" points="281.5,-1229.7 281.5,-1251.7 410.5,-1251.7 410.5,-1229.7 281.5,-1229.7"/>
<image xlink:href="../../images/foreignKeys.png" width="11px" height="12px" preserveAspectRatio="xMinYMin meet" x="286.5" y="-1246.7"/>
<text text-anchor="start" x="306.5" y="-1236.8" font-family="Helvetica,sans-Serif" font-size="11.00" fill="#000000">K_MTDID</text>
<polygon fill="none" stroke="#000000" points="281.5,-1207.7 281.5,-1229.7 410.5,-1229.7 410.5,-1207.7 281.5,-1207.7"/>
<image xlink:href="../../images/foreignKeys.png" width="11px" height="12px" preserveAspectRatio="xMinYMin meet" x="286.5" y="-1224.7"/>
<text text-anchor="start" x="306.5" y="-1214.8" font-family="Helvetica,sans-Serif" font-size="11.00" fill="#000000">ALPH_MTDID</text>
<polygon fill="none" stroke="#000000" points="281.5,-1185.7 281.5,-1207.7 410.5,-1207.7 410.5,-1185.7 281.5,-1185.7"/>
<image xlink:href="../../images/foreignKeys.png" width="11px" height="12px" preserveAspectRatio="xMinYMin meet" x="286.5" y="-1202.7"/>
<text text-anchor="start" x="306.5" y="-1192.8" font-family="Helvetica,sans-Serif" font-size="11.00" fill="#000000">BETA_MTDID</text>
<polygon fill="none" stroke="#000000" points="281.5,-1163.7 281.5,-1185.7 410.5,-1185.7 410.5,-1163.7 281.5,-1163.7"/>
<image xlink:href="../../images/foreignKeys.png" width="11px" height="12px" preserveAspectRatio="xMinYMin meet" x="286.5" y="-1180.7"/>
<text text-anchor="start" x="306.5" y="-1170.8" font-family="Helvetica,sans-Serif" font-size="11.00" fill="#000000">GMMA_MTDID</text>
<polygon fill="none" stroke="#000000" points="281.5,-1144.7 281.5,-1163.7 410.5,-1163.7 410.5,-1144.7 281.5,-1144.7"/>
<text text-anchor="start" x="284.5" y="-1150.8" font-family="Helvetica,sans-Serif" font-size="11.00" fill="#000000">...</text>
<polygon fill="#ffffff" stroke="transparent" points="281.5,-1125.7 281.5,-1144.7 323.5,-1144.7 323.5,-1125.7 281.5,-1125.7"/>
<polygon fill="none" stroke="#000000" points="281.5,-1125.7 281.5,-1144.7 323.5,-1144.7 323.5,-1125.7 281.5,-1125.7"/>
<text text-anchor="start" x="284.5" y="-1131.8" font-family="Helvetica,sans-Serif" font-size="11.00" fill="#000000">&lt; 20</text>
<polygon fill="#ffffff" stroke="transparent" points="323.5,-1125.7 323.5,-1144.7 381.5,-1144.7 381.5,-1125.7 323.5,-1125.7"/>
<polygon fill="none" stroke="#000000" points="323.5,-1125.7 323.5,-1144.7 381.5,-1144.7 381.5,-1125.7 323.5,-1125.7"/>
<text text-anchor="start" x="333.8807" y="-1131.8" font-family="Helvetica,sans-Serif" font-size="11.00" fill="#000000">240 rows</text>
<polygon fill="#ffffff" stroke="transparent" points="381.5,-1125.7 381.5,-1144.7 410.5,-1144.7 410.5,-1125.7 381.5,-1125.7"/>
<polygon fill="none" stroke="#000000" points="381.5,-1125.7 381.5,-1144.7 410.5,-1144.7 410.5,-1125.7 381.5,-1125.7"/>
<text text-anchor="start" x="391.9053" y="-1131.8" font-family="Helvetica,sans-Serif" font-size="11.00" fill="#000000">1 &gt;</text>
</a>
</g>
</g>
<!-- arch_tl_DataCore&#45;&gt;osl&#45;tl_agemodelID -->
<g id="edge2" class="edge">
<title>arch_tl_DataCore:w&#45;&gt;osl&#45;tl_agemodelID:e</title>
<path fill="none" stroke="#000000" d="M268.085,-1323.047C228.6554,-1283.1609 284.7045,-1045.7 226,-1045.7"/>
<polygon fill="#000000" stroke="#000000" points="274.1278,-1325.5934 280.102,-1332.0175 277.8139,-1327.1467 281.5,-1328.7 281.5,-1328.7 281.5,-1328.7 277.8139,-1327.1467 282.898,-1325.3825 274.1278,-1325.5934 274.1278,-1325.5934"/>
<ellipse fill="none" stroke="#000000" cx="271.1789" cy="-1324.3507" rx="3.2" ry="3.2"/>
</g>
<!-- sed&#45;osl_DataCore -->
<g id="node4" class="node">
<title>sed&#45;osl_DataCore</title>
<g id="a_node4"><a xlink:href="../../tables/sed-osl_DataCore.html" xlink:title="sed&#45;osl_DataCore" target="_top">
<polygon fill="#ffffff" stroke="transparent" points="280,-582.2 280,-1105.2 411,-1105.2 411,-582.2 280,-582.2"/>
<polygon fill="#f5f5f5" stroke="transparent" points="280.5,-1081.7 280.5,-1104.7 411.5,-1104.7 411.5,-1081.7 280.5,-1081.7"/>
<polygon fill="none" stroke="#000000" points="280.5,-1081.7 280.5,-1104.7 411.5,-1104.7 411.5,-1081.7 280.5,-1081.7"/>
<text text-anchor="start" x="285.1887" y="-1090.8" font-family="Helvetica,sans-Serif" font-weight="bold" font-size="11.00" fill="#000000">sed&#45;osl_DataCore</text>
<text text-anchor="start" x="377.0219" y="-1089.8" font-family="Helvetica,sans-Serif" font-size="11.00" fill="#000000">[table]</text>
<polygon fill="none" stroke="#000000" points="280.5,-1059.7 280.5,-1081.7 411.5,-1081.7 411.5,-1059.7 280.5,-1059.7"/>
<image xlink:href="../../images/primaryKeys.png" width="11px" height="12px" preserveAspectRatio="xMinYMin meet" x="285.5" y="-1076.7"/>
<text text-anchor="start" x="304.5" y="-1066.8" font-family="Helvetica,sans-Serif" font-size="11.00" fill="#000000">OBSID1</text>
<polygon fill="none" stroke="#000000" points="280.5,-1037.7 280.5,-1059.7 411.5,-1059.7 411.5,-1037.7 280.5,-1037.7"/>
<image xlink:href="../../images/foreignKeys.png" width="11px" height="12px" preserveAspectRatio="xMinYMin meet" x="285.5" y="-1054.7"/>
<text text-anchor="start" x="304.5" y="-1044.8" font-family="Helvetica,sans-Serif" font-size="11.00" fill="#000000">SMPID</text>
<polygon fill="none" stroke="#000000" points="280.5,-1015.7 280.5,-1037.7 411.5,-1037.7 411.5,-1015.7 280.5,-1015.7"/>
<image xlink:href="../../images/foreignKeys.png" width="11px" height="12px" preserveAspectRatio="xMinYMin meet" x="285.5" y="-1032.7"/>
<text text-anchor="start" x="304.5" y="-1022.8" font-family="Helvetica,sans-Serif" font-size="11.00" fill="#000000">LAB_ORIGID</text>
<polygon fill="none" stroke="#000000" points="280.5,-993.7 280.5,-1015.7 411.5,-1015.7 411.5,-993.7 280.5,-993.7"/>
<image xlink:href="../../images/foreignKeys.png" width="11px" height="12px" preserveAspectRatio="xMinYMin meet" x="285.5" y="-1010.7"/>
<text text-anchor="start" x="304.5" y="-1000.8" font-family="Helvetica,sans-Serif" font-size="11.00" fill="#000000">METHODID</text>
<polygon fill="none" stroke="#000000" points="280.5,-971.7 280.5,-993.7 411.5,-993.7 411.5,-971.7 280.5,-971.7"/>
<image xlink:href="../../images/foreignKeys.png" width="11px" height="12px" preserveAspectRatio="xMinYMin meet" x="285.5" y="-988.7"/>
<text text-anchor="start" x="304.5" y="-978.8" font-family="Helvetica,sans-Serif" font-size="11.00" fill="#000000">DBDOI</text>
<polygon fill="none" stroke="#000000" points="280.5,-949.7 280.5,-971.7 411.5,-971.7 411.5,-949.7 280.5,-949.7"/>
<image xlink:href="../../images/foreignKeys.png" width="11px" height="12px" preserveAspectRatio="xMinYMin meet" x="285.5" y="-966.7"/>
<text text-anchor="start" x="304.5" y="-956.8" font-family="Helvetica,sans-Serif" font-size="11.00" fill="#000000">REFDBID1</text>
<polygon fill="none" stroke="#000000" points="280.5,-927.7 280.5,-949.7 411.5,-949.7 411.5,-927.7 280.5,-927.7"/>
<image xlink:href="../../images/foreignKeys.png" width="11px" height="12px" preserveAspectRatio="xMinYMin meet" x="285.5" y="-944.7"/>
<text text-anchor="start" x="304.5" y="-934.8" font-family="Helvetica,sans-Serif" font-size="11.00" fill="#000000">REFDBID2</text>
<polygon fill="none" stroke="#000000" points="280.5,-905.7 280.5,-927.7 411.5,-927.7 411.5,-905.7 280.5,-905.7"/>
<image xlink:href="../../images/foreignKeys.png" width="11px" height="12px" preserveAspectRatio="xMinYMin meet" x="285.5" y="-922.7"/>
<text text-anchor="start" x="304.5" y="-912.8" font-family="Helvetica,sans-Serif" font-size="11.00" fill="#000000">REFDBID3</text>
<polygon fill="none" stroke="#000000" points="280.5,-883.7 280.5,-905.7 411.5,-905.7 411.5,-883.7 280.5,-883.7"/>
<image xlink:href="../../images/foreignKeys.png" width="11px" height="12px" preserveAspectRatio="xMinYMin meet" x="285.5" y="-900.7"/>
<text text-anchor="start" x="304.5" y="-890.8" font-family="Helvetica,sans-Serif" font-size="11.00" fill="#000000">REFDBID4</text>
<polygon fill="none" stroke="#000000" points="280.5,-861.7 280.5,-883.7 411.5,-883.7 411.5,-861.7 280.5,-861.7"/>
<image xlink:href="../../images/foreignKeys.png" width="11px" height="12px" preserveAspectRatio="xMinYMin meet" x="285.5" y="-878.7"/>
<text text-anchor="start" x="304.5" y="-868.8" font-family="Helvetica,sans-Serif" font-size="11.00" fill="#000000">COL_MTDID</text>
<polygon fill="none" stroke="#000000" points="280.5,-839.7 280.5,-861.7 411.5,-861.7 411.5,-839.7 280.5,-839.7"/>
<image xlink:href="../../images/foreignKeys.png" width="11px" height="12px" preserveAspectRatio="xMinYMin meet" x="285.5" y="-856.7"/>
<text text-anchor="start" x="304.5" y="-846.8" font-family="Helvetica,sans-Serif" font-size="11.00" fill="#000000">LUM_MATID</text>
<polygon fill="none" stroke="#000000" points="280.5,-817.7 280.5,-839.7 411.5,-839.7 411.5,-817.7 280.5,-817.7"/>
<image xlink:href="../../images/foreignKeys.png" width="11px" height="12px" preserveAspectRatio="xMinYMin meet" x="285.5" y="-834.7"/>
<text text-anchor="start" x="304.5" y="-824.8" font-family="Helvetica,sans-Serif" font-size="11.00" fill="#000000">MINERALID</text>
<polygon fill="none" stroke="#000000" points="280.5,-795.7 280.5,-817.7 411.5,-817.7 411.5,-795.7 280.5,-795.7"/>
<image xlink:href="../../images/foreignKeys.png" width="11px" height="12px" preserveAspectRatio="xMinYMin meet" x="285.5" y="-812.7"/>
<text text-anchor="start" x="304.5" y="-802.8" font-family="Helvetica,sans-Serif" font-size="11.00" fill="#000000">OSL_TYPEID</text>
<polygon fill="none" stroke="#000000" points="280.5,-773.7 280.5,-795.7 411.5,-795.7 411.5,-773.7 280.5,-773.7"/>
<image xlink:href="../../images/foreignKeys.png" width="11px" height="12px" preserveAspectRatio="xMinYMin meet" x="285.5" y="-790.7"/>
<text text-anchor="start" x="304.5" y="-780.8" font-family="Helvetica,sans-Serif" font-size="11.00" fill="#000000">ED_PROCID</text>
<polygon fill="none" stroke="#000000" points="280.5,-751.7 280.5,-773.7 411.5,-773.7 411.5,-751.7 280.5,-751.7"/>
<image xlink:href="../../images/foreignKeys.png" width="11px" height="12px" preserveAspectRatio="xMinYMin meet" x="285.5" y="-768.7"/>
<text text-anchor="start" x="304.5" y="-758.8" font-family="Helvetica,sans-Serif" font-size="11.00" fill="#000000">AGEMODELID</text>
<polygon fill="none" stroke="#000000" points="280.5,-729.7 280.5,-751.7 411.5,-751.7 411.5,-729.7 280.5,-729.7"/>
<image xlink:href="../../images/foreignKeys.png" width="11px" height="12px" preserveAspectRatio="xMinYMin meet" x="285.5" y="-746.7"/>
<text text-anchor="start" x="304.5" y="-736.8" font-family="Helvetica,sans-Serif" font-size="11.00" fill="#000000">U_MTDID</text>
<polygon fill="none" stroke="#000000" points="280.5,-707.7 280.5,-729.7 411.5,-729.7 411.5,-707.7 280.5,-707.7"/>
<image xlink:href="../../images/foreignKeys.png" width="11px" height="12px" preserveAspectRatio="xMinYMin meet" x="285.5" y="-724.7"/>
<text text-anchor="start" x="304.5" y="-714.8" font-family="Helvetica,sans-Serif" font-size="11.00" fill="#000000">TH_MTDID</text>
<polygon fill="none" stroke="#000000" points="280.5,-685.7 280.5,-707.7 411.5,-707.7 411.5,-685.7 280.5,-685.7"/>
<image xlink:href="../../images/foreignKeys.png" width="11px" height="12px" preserveAspectRatio="xMinYMin meet" x="285.5" y="-702.7"/>
<text text-anchor="start" x="304.5" y="-692.8" font-family="Helvetica,sans-Serif" font-size="11.00" fill="#000000">K_MTDID</text>
<polygon fill="none" stroke="#000000" points="280.5,-663.7 280.5,-685.7 411.5,-685.7 411.5,-663.7 280.5,-663.7"/>
<image xlink:href="../../images/foreignKeys.png" width="11px" height="12px" preserveAspectRatio="xMinYMin meet" x="285.5" y="-680.7"/>
<text text-anchor="start" x="304.5" y="-670.8" font-family="Helvetica,sans-Serif" font-size="11.00" fill="#000000">ALPH_MTDID</text>
<polygon fill="none" stroke="#000000" points="280.5,-641.7 280.5,-663.7 411.5,-663.7 411.5,-641.7 280.5,-641.7"/>
<image xlink:href="../../images/foreignKeys.png" width="11px" height="12px" preserveAspectRatio="xMinYMin meet" x="285.5" y="-658.7"/>
<text text-anchor="start" x="304.5" y="-648.8" font-family="Helvetica,sans-Serif" font-size="11.00" fill="#000000">BETA_MTDID</text>
<polygon fill="none" stroke="#000000" points="280.5,-619.7 280.5,-641.7 411.5,-641.7 411.5,-619.7 280.5,-619.7"/>
<image xlink:href="../../images/foreignKeys.png" width="11px" height="12px" preserveAspectRatio="xMinYMin meet" x="285.5" y="-636.7"/>
<text text-anchor="start" x="304.5" y="-626.8" font-family="Helvetica,sans-Serif" font-size="11.00" fill="#000000">GMMA_MTDID</text>
<polygon fill="none" stroke="#000000" points="280.5,-600.7 280.5,-619.7 411.5,-619.7 411.5,-600.7 280.5,-600.7"/>
<text text-anchor="start" x="283.5" y="-606.8" font-family="Helvetica,sans-Serif" font-size="11.00" fill="#000000">...</text>
<polygon fill="#ffffff" stroke="transparent" points="280.5,-581.7 280.5,-600.7 319.5,-600.7 319.5,-581.7 280.5,-581.7"/>
<polygon fill="none" stroke="#000000" points="280.5,-581.7 280.5,-600.7 319.5,-600.7 319.5,-581.7 280.5,-581.7"/>
<text text-anchor="start" x="283.5" y="-587.8" font-family="Helvetica,sans-Serif" font-size="11.00" fill="#000000">&lt; 20</text>
<polygon fill="#ffffff" stroke="transparent" points="319.5,-581.7 319.5,-600.7 384.5,-600.7 384.5,-581.7 319.5,-581.7"/>
<polygon fill="none" stroke="#000000" points="319.5,-581.7 319.5,-600.7 384.5,-600.7 384.5,-581.7 319.5,-581.7"/>
<text text-anchor="start" x="327.7089" y="-587.8" font-family="Helvetica,sans-Serif" font-size="11.00" fill="#000000">2,458 rows</text>
<polygon fill="#ffffff" stroke="transparent" points="384.5,-581.7 384.5,-600.7 411.5,-600.7 411.5,-581.7 384.5,-581.7"/>
<polygon fill="none" stroke="#000000" points="384.5,-581.7 384.5,-600.7 411.5,-600.7 411.5,-581.7 384.5,-581.7"/>
<text text-anchor="start" x="392.9053" y="-587.8" font-family="Helvetica,sans-Serif" font-size="11.00" fill="#000000">1 &gt;</text>
</a>
</g>
</g>
<!-- sed&#45;osl_DataCore&#45;&gt;osl&#45;tl_agemodelID -->
<g id="edge3" class="edge">
<title>sed&#45;osl_DataCore:w&#45;&gt;osl&#45;tl_agemodelID:e</title>
<path fill="none" stroke="#000000" d="M266.0594,-764.1552C168.7674,-785.9686 348.7102,-1045.7 226,-1045.7"/>
<polygon fill="#000000" stroke="#000000" points="272.5403,-763.5021 280.861,-766.2819 276.5202,-763.1011 280.5,-762.7 280.5,-762.7 280.5,-762.7 276.5202,-763.1011 280.139,-759.1181 272.5403,-763.5021 272.5403,-763.5021"/>
<ellipse fill="none" stroke="#000000" cx="269.3564" cy="-763.823" rx="3.2" ry="3.2"/>
</g>
<!-- sed&#45;tl_DataCore -->
<g id="node5" class="node">
<title>sed&#45;tl_DataCore</title>
<g id="a_node5"><a xlink:href="../../tables/sed-tl_DataCore.html" xlink:title="sed&#45;tl_DataCore" target="_top">
<polygon fill="#ffffff" stroke="transparent" points="284,-38.2 284,-561.2 407,-561.2 407,-38.2 284,-38.2"/>
<polygon fill="#f5f5f5" stroke="transparent" points="284.5,-537.7 284.5,-560.7 407.5,-560.7 407.5,-537.7 284.5,-537.7"/>
<polygon fill="none" stroke="#000000" points="284.5,-537.7 284.5,-560.7 407.5,-560.7 407.5,-537.7 284.5,-537.7"/>
<text text-anchor="start" x="289.4677" y="-546.8" font-family="Helvetica,sans-Serif" font-weight="bold" font-size="11.00" fill="#000000">sed&#45;tl_DataCore</text>
<text text-anchor="start" x="373.0219" y="-545.8" font-family="Helvetica,sans-Serif" font-size="11.00" fill="#000000">[table]</text>
<polygon fill="none" stroke="#000000" points="284.5,-515.7 284.5,-537.7 407.5,-537.7 407.5,-515.7 284.5,-515.7"/>
<image xlink:href="../../images/primaryKeys.png" width="11px" height="12px" preserveAspectRatio="xMinYMin meet" x="289.5" y="-532.7"/>
<text text-anchor="start" x="309.5" y="-522.8" font-family="Helvetica,sans-Serif" font-size="11.00" fill="#000000">OBSID1</text>
<polygon fill="none" stroke="#000000" points="284.5,-493.7 284.5,-515.7 407.5,-515.7 407.5,-493.7 284.5,-493.7"/>
<image xlink:href="../../images/foreignKeys.png" width="11px" height="12px" preserveAspectRatio="xMinYMin meet" x="289.5" y="-510.7"/>
<text text-anchor="start" x="309.5" y="-500.8" font-family="Helvetica,sans-Serif" font-size="11.00" fill="#000000">SMPID</text>
<polygon fill="none" stroke="#000000" points="284.5,-471.7 284.5,-493.7 407.5,-493.7 407.5,-471.7 284.5,-471.7"/>
<image xlink:href="../../images/foreignKeys.png" width="11px" height="12px" preserveAspectRatio="xMinYMin meet" x="289.5" y="-488.7"/>
<text text-anchor="start" x="309.5" y="-478.8" font-family="Helvetica,sans-Serif" font-size="11.00" fill="#000000">LAB_ORIGID</text>
<polygon fill="none" stroke="#000000" points="284.5,-449.7 284.5,-471.7 407.5,-471.7 407.5,-449.7 284.5,-449.7"/>
<image xlink:href="../../images/foreignKeys.png" width="11px" height="12px" preserveAspectRatio="xMinYMin meet" x="289.5" y="-466.7"/>
<text text-anchor="start" x="309.5" y="-456.8" font-family="Helvetica,sans-Serif" font-size="11.00" fill="#000000">METHODID</text>
<polygon fill="none" stroke="#000000" points="284.5,-427.7 284.5,-449.7 407.5,-449.7 407.5,-427.7 284.5,-427.7"/>
<image xlink:href="../../images/foreignKeys.png" width="11px" height="12px" preserveAspectRatio="xMinYMin meet" x="289.5" y="-444.7"/>
<text text-anchor="start" x="309.5" y="-434.8" font-family="Helvetica,sans-Serif" font-size="11.00" fill="#000000">DBDOI</text>
<polygon fill="none" stroke="#000000" points="284.5,-405.7 284.5,-427.7 407.5,-427.7 407.5,-405.7 284.5,-405.7"/>
<image xlink:href="../../images/foreignKeys.png" width="11px" height="12px" preserveAspectRatio="xMinYMin meet" x="289.5" y="-422.7"/>
<text text-anchor="start" x="309.5" y="-412.8" font-family="Helvetica,sans-Serif" font-size="11.00" fill="#000000">REFDBID1</text>
<polygon fill="none" stroke="#000000" points="284.5,-383.7 284.5,-405.7 407.5,-405.7 407.5,-383.7 284.5,-383.7"/>
<image xlink:href="../../images/foreignKeys.png" width="11px" height="12px" preserveAspectRatio="xMinYMin meet" x="289.5" y="-400.7"/>
<text text-anchor="start" x="309.5" y="-390.8" font-family="Helvetica,sans-Serif" font-size="11.00" fill="#000000">REFDBID2</text>
<polygon fill="none" stroke="#000000" points="284.5,-361.7 284.5,-383.7 407.5,-383.7 407.5,-361.7 284.5,-361.7"/>
<image xlink:href="../../images/foreignKeys.png" width="11px" height="12px" preserveAspectRatio="xMinYMin meet" x="289.5" y="-378.7"/>
<text text-anchor="start" x="309.5" y="-368.8" font-family="Helvetica,sans-Serif" font-size="11.00" fill="#000000">REFDBID3</text>
<polygon fill="none" stroke="#000000" points="284.5,-339.7 284.5,-361.7 407.5,-361.7 407.5,-339.7 284.5,-339.7"/>
<image xlink:href="../../images/foreignKeys.png" width="11px" height="12px" preserveAspectRatio="xMinYMin meet" x="289.5" y="-356.7"/>
<text text-anchor="start" x="309.5" y="-346.8" font-family="Helvetica,sans-Serif" font-size="11.00" fill="#000000">REFDBID4</text>
<polygon fill="none" stroke="#000000" points="284.5,-317.7 284.5,-339.7 407.5,-339.7 407.5,-317.7 284.5,-317.7"/>
<image xlink:href="../../images/foreignKeys.png" width="11px" height="12px" preserveAspectRatio="xMinYMin meet" x="289.5" y="-334.7"/>
<text text-anchor="start" x="309.5" y="-324.8" font-family="Helvetica,sans-Serif" font-size="11.00" fill="#000000">COL_MTDID</text>
<polygon fill="none" stroke="#000000" points="284.5,-295.7 284.5,-317.7 407.5,-317.7 407.5,-295.7 284.5,-295.7"/>
<image xlink:href="../../images/foreignKeys.png" width="11px" height="12px" preserveAspectRatio="xMinYMin meet" x="289.5" y="-312.7"/>
<text text-anchor="start" x="309.5" y="-302.8" font-family="Helvetica,sans-Serif" font-size="11.00" fill="#000000">LUM_MATID</text>
<polygon fill="none" stroke="#000000" points="284.5,-273.7 284.5,-295.7 407.5,-295.7 407.5,-273.7 284.5,-273.7"/>
<image xlink:href="../../images/foreignKeys.png" width="11px" height="12px" preserveAspectRatio="xMinYMin meet" x="289.5" y="-290.7"/>
<text text-anchor="start" x="309.5" y="-280.8" font-family="Helvetica,sans-Serif" font-size="11.00" fill="#000000">MINERALID</text>
<polygon fill="none" stroke="#000000" points="284.5,-251.7 284.5,-273.7 407.5,-273.7 407.5,-251.7 284.5,-251.7"/>
<image xlink:href="../../images/foreignKeys.png" width="11px" height="12px" preserveAspectRatio="xMinYMin meet" x="289.5" y="-268.7"/>
<text text-anchor="start" x="309.5" y="-258.8" font-family="Helvetica,sans-Serif" font-size="11.00" fill="#000000">ED_PROCID</text>
<polygon fill="none" stroke="#000000" points="284.5,-229.7 284.5,-251.7 407.5,-251.7 407.5,-229.7 284.5,-229.7"/>
<image xlink:href="../../images/foreignKeys.png" width="11px" height="12px" preserveAspectRatio="xMinYMin meet" x="289.5" y="-246.7"/>
<text text-anchor="start" x="309.5" y="-236.8" font-family="Helvetica,sans-Serif" font-size="11.00" fill="#000000">AGEMODELID</text>
<polygon fill="none" stroke="#000000" points="284.5,-207.7 284.5,-229.7 407.5,-229.7 407.5,-207.7 284.5,-207.7"/>
<image xlink:href="../../images/foreignKeys.png" width="11px" height="12px" preserveAspectRatio="xMinYMin meet" x="289.5" y="-224.7"/>
<text text-anchor="start" x="309.5" y="-214.8" font-family="Helvetica,sans-Serif" font-size="11.00" fill="#000000">U_MTDID</text>
<polygon fill="none" stroke="#000000" points="284.5,-185.7 284.5,-207.7 407.5,-207.7 407.5,-185.7 284.5,-185.7"/>
<image xlink:href="../../images/foreignKeys.png" width="11px" height="12px" preserveAspectRatio="xMinYMin meet" x="289.5" y="-202.7"/>
<text text-anchor="start" x="309.5" y="-192.8" font-family="Helvetica,sans-Serif" font-size="11.00" fill="#000000">TH_MTDID</text>
<polygon fill="none" stroke="#000000" points="284.5,-163.7 284.5,-185.7 407.5,-185.7 407.5,-163.7 284.5,-163.7"/>
<image xlink:href="../../images/foreignKeys.png" width="11px" height="12px" preserveAspectRatio="xMinYMin meet" x="289.5" y="-180.7"/>
<text text-anchor="start" x="309.5" y="-170.8" font-family="Helvetica,sans-Serif" font-size="11.00" fill="#000000">U_TH_MTDID</text>
<polygon fill="none" stroke="#000000" points="284.5,-141.7 284.5,-163.7 407.5,-163.7 407.5,-141.7 284.5,-141.7"/>
<image xlink:href="../../images/foreignKeys.png" width="11px" height="12px" preserveAspectRatio="xMinYMin meet" x="289.5" y="-158.7"/>
<text text-anchor="start" x="309.5" y="-148.8" font-family="Helvetica,sans-Serif" font-size="11.00" fill="#000000">K_MTDID</text>
<polygon fill="none" stroke="#000000" points="284.5,-119.7 284.5,-141.7 407.5,-141.7 407.5,-119.7 284.5,-119.7"/>
<image xlink:href="../../images/foreignKeys.png" width="11px" height="12px" preserveAspectRatio="xMinYMin meet" x="289.5" y="-136.7"/>
<text text-anchor="start" x="309.5" y="-126.8" font-family="Helvetica,sans-Serif" font-size="11.00" fill="#000000">ALPH_MTDID</text>
<polygon fill="none" stroke="#000000" points="284.5,-97.7 284.5,-119.7 407.5,-119.7 407.5,-97.7 284.5,-97.7"/>
<image xlink:href="../../images/foreignKeys.png" width="11px" height="12px" preserveAspectRatio="xMinYMin meet" x="289.5" y="-114.7"/>
<text text-anchor="start" x="309.5" y="-104.8" font-family="Helvetica,sans-Serif" font-size="11.00" fill="#000000">BETA_MTDID</text>
<polygon fill="none" stroke="#000000" points="284.5,-75.7 284.5,-97.7 407.5,-97.7 407.5,-75.7 284.5,-75.7"/>
<image xlink:href="../../images/foreignKeys.png" width="11px" height="12px" preserveAspectRatio="xMinYMin meet" x="289.5" y="-92.7"/>
<text text-anchor="start" x="309.5" y="-82.8" font-family="Helvetica,sans-Serif" font-size="11.00" fill="#000000">GMMA_MTDID</text>
<polygon fill="none" stroke="#000000" points="284.5,-56.7 284.5,-75.7 407.5,-75.7 407.5,-56.7 284.5,-56.7"/>
<text text-anchor="start" x="287.5" y="-62.8" font-family="Helvetica,sans-Serif" font-size="11.00" fill="#000000">...</text>
<polygon fill="#ffffff" stroke="transparent" points="284.5,-37.7 284.5,-56.7 323.5,-56.7 323.5,-37.7 284.5,-37.7"/>
<polygon fill="none" stroke="#000000" points="284.5,-37.7 284.5,-56.7 323.5,-56.7 323.5,-37.7 284.5,-37.7"/>
<text text-anchor="start" x="287.5" y="-43.8" font-family="Helvetica,sans-Serif" font-size="11.00" fill="#000000">&lt; 20</text>
<polygon fill="#ffffff" stroke="transparent" points="323.5,-37.7 323.5,-56.7 379.5,-56.7 379.5,-37.7 323.5,-37.7"/>
<polygon fill="none" stroke="#000000" points="323.5,-37.7 323.5,-56.7 379.5,-56.7 379.5,-37.7 323.5,-37.7"/>
<text text-anchor="start" x="331.8807" y="-43.8" font-family="Helvetica,sans-Serif" font-size="11.00" fill="#000000">966 rows</text>
<polygon fill="#ffffff" stroke="transparent" points="379.5,-37.7 379.5,-56.7 407.5,-56.7 407.5,-37.7 379.5,-37.7"/>
<polygon fill="none" stroke="#000000" points="379.5,-37.7 379.5,-56.7 407.5,-56.7 407.5,-37.7 379.5,-37.7"/>
<text text-anchor="start" x="388.9053" y="-43.8" font-family="Helvetica,sans-Serif" font-size="11.00" fill="#000000">1 &gt;</text>
</a>
</g>
</g>
<!-- sed&#45;tl_DataCore&#45;&gt;osl&#45;tl_agemodelID -->
<g id="edge4" class="edge">
<title>sed&#45;tl_DataCore:w&#45;&gt;osl&#45;tl_agemodelID:e</title>
<path fill="none" stroke="#000000" d="M271.607,-247.6593C207.4091,-326.3393 310.7759,-1045.7 226,-1045.7"/>
<polygon fill="#000000" stroke="#000000" points="277.4601,-244.5 286.21,-243.868 280.98,-242.6 284.5,-240.7 284.5,-240.7 284.5,-240.7 280.98,-242.6 282.79,-237.532 277.4601,-244.5 277.4601,-244.5"/>
<ellipse fill="none" stroke="#000000" cx="274.6441" cy="-246.02" rx="3.2" ry="3.2"/>
</g>
</g>
</svg>
