<?xml version="1.0" encoding="UTF-8" standalone="no"?>
<!DOCTYPE svg PUBLIC "-//W3C//DTD SVG 1.1//EN"
 "http://www.w3.org/Graphics/SVG/1.1/DTD/svg11.dtd">
<!-- Generated by graphviz version 2.40.1 (20161225.0304)
 -->
<!-- Title: oneDegreeRelationshipsDiagram Pages: 1 -->
<svg width="423pt" height="2205pt"
 viewBox="0.00 0.00 423.00 2205.20" xmlns="http://www.w3.org/2000/svg" xmlns:xlink="http://www.w3.org/1999/xlink">
<g id="graph0" class="graph" transform="scale(1 1) rotate(0) translate(4 2201.2)">
<title>oneDegreeRelationshipsDiagram</title>
<polygon fill="#ffffff" stroke="transparent" points="-4,4 -4,-2201.2 419,-2201.2 419,4 -4,4"/>
<text text-anchor="middle" x="72.4936" y="-7.3" font-family="Helvetica,sans-Serif" font-size="11.00" fill="#000000">Generated by SchemaSpy</text>
<!-- arch_osl_DataCore -->
<g id="node1" class="node">
<title>arch_osl_DataCore</title>
<g id="a_node1"><a xlink:href="../../tables/arch_osl_DataCore.html" xlink:title="arch_osl_DataCore" target="_top">
<polygon fill="#ffffff" stroke="transparent" points="270,-1670.2 270,-2193.2 407,-2193.2 407,-1670.2 270,-1670.2"/>
<polygon fill="#f5f5f5" stroke="transparent" points="270.5,-2169.7 270.5,-2192.7 407.5,-2192.7 407.5,-2169.7 270.5,-2169.7"/>
<polygon fill="none" stroke="#000000" points="270.5,-2169.7 270.5,-2192.7 407.5,-2192.7 407.5,-2169.7 270.5,-2169.7"/>
<text text-anchor="start" x="275.1313" y="-2178.8" font-family="Helvetica,sans-Serif" font-weight="bold" font-size="11.00" fill="#000000">arch_osl_DataCore</text>
<text text-anchor="start" x="373.0219" y="-2177.8" font-family="Helvetica,sans-Serif" font-size="11.00" fill="#000000">[table]</text>
<polygon fill="none" stroke="#000000" points="270.5,-2147.7 270.5,-2169.7 407.5,-2169.7 407.5,-2147.7 270.5,-2147.7"/>
<image xlink:href="../../images/primaryKeys.png" width="11px" height="12px" preserveAspectRatio="xMinYMin meet" x="275.5" y="-2164.7"/>
<text text-anchor="start" x="294.5" y="-2154.8" font-family="Helvetica,sans-Serif" font-size="11.00" fill="#000000">OBSID1</text>
<polygon fill="none" stroke="#000000" points="270.5,-2125.7 270.5,-2147.7 407.5,-2147.7 407.5,-2125.7 270.5,-2125.7"/>
<image xlink:href="../../images/foreignKeys.png" width="11px" height="12px" preserveAspectRatio="xMinYMin meet" x="275.5" y="-2142.7"/>
<text text-anchor="start" x="294.5" y="-2132.8" font-family="Helvetica,sans-Serif" font-size="11.00" fill="#000000">SMPID</text>
<polygon fill="none" stroke="#000000" points="270.5,-2103.7 270.5,-2125.7 407.5,-2125.7 407.5,-2103.7 270.5,-2103.7"/>
<image xlink:href="../../images/foreignKeys.png" width="11px" height="12px" preserveAspectRatio="xMinYMin meet" x="275.5" y="-2120.7"/>
<text text-anchor="start" x="294.5" y="-2110.8" font-family="Helvetica,sans-Serif" font-size="11.00" fill="#000000">LAB_ORIGID</text>
<polygon fill="none" stroke="#000000" points="270.5,-2081.7 270.5,-2103.7 407.5,-2103.7 407.5,-2081.7 270.5,-2081.7"/>
<image xlink:href="../../images/foreignKeys.png" width="11px" height="12px" preserveAspectRatio="xMinYMin meet" x="275.5" y="-2098.7"/>
<text text-anchor="start" x="294.5" y="-2088.8" font-family="Helvetica,sans-Serif" font-size="11.00" fill="#000000">METHODID</text>
<polygon fill="none" stroke="#000000" points="270.5,-2059.7 270.5,-2081.7 407.5,-2081.7 407.5,-2059.7 270.5,-2059.7"/>
<image xlink:href="../../images/foreignKeys.png" width="11px" height="12px" preserveAspectRatio="xMinYMin meet" x="275.5" y="-2076.7"/>
<text text-anchor="start" x="294.5" y="-2066.8" font-family="Helvetica,sans-Serif" font-size="11.00" fill="#000000">DBDOI</text>
<polygon fill="none" stroke="#000000" points="270.5,-2037.7 270.5,-2059.7 407.5,-2059.7 407.5,-2037.7 270.5,-2037.7"/>
<image xlink:href="../../images/foreignKeys.png" width="11px" height="12px" preserveAspectRatio="xMinYMin meet" x="275.5" y="-2054.7"/>
<text text-anchor="start" x="294.5" y="-2044.8" font-family="Helvetica,sans-Serif" font-size="11.00" fill="#000000">REFDBID1</text>
<polygon fill="none" stroke="#000000" points="270.5,-2015.7 270.5,-2037.7 407.5,-2037.7 407.5,-2015.7 270.5,-2015.7"/>
<image xlink:href="../../images/foreignKeys.png" width="11px" height="12px" preserveAspectRatio="xMinYMin meet" x="275.5" y="-2032.7"/>
<text text-anchor="start" x="294.5" y="-2022.8" font-family="Helvetica,sans-Serif" font-size="11.00" fill="#000000">REFDBID2</text>
<polygon fill="none" stroke="#000000" points="270.5,-1993.7 270.5,-2015.7 407.5,-2015.7 407.5,-1993.7 270.5,-1993.7"/>
<image xlink:href="../../images/foreignKeys.png" width="11px" height="12px" preserveAspectRatio="xMinYMin meet" x="275.5" y="-2010.7"/>
<text text-anchor="start" x="294.5" y="-2000.8" font-family="Helvetica,sans-Serif" font-size="11.00" fill="#000000">REFDBID3</text>
<polygon fill="none" stroke="#000000" points="270.5,-1971.7 270.5,-1993.7 407.5,-1993.7 407.5,-1971.7 270.5,-1971.7"/>
<image xlink:href="../../images/foreignKeys.png" width="11px" height="12px" preserveAspectRatio="xMinYMin meet" x="275.5" y="-1988.7"/>
<text text-anchor="start" x="294.5" y="-1978.8" font-family="Helvetica,sans-Serif" font-size="11.00" fill="#000000">REFDBID4</text>
<polygon fill="none" stroke="#000000" points="270.5,-1949.7 270.5,-1971.7 407.5,-1971.7 407.5,-1949.7 270.5,-1949.7"/>
<image xlink:href="../../images/foreignKeys.png" width="11px" height="12px" preserveAspectRatio="xMinYMin meet" x="275.5" y="-1966.7"/>
<text text-anchor="start" x="294.5" y="-1956.8" font-family="Helvetica,sans-Serif" font-size="11.00" fill="#000000">COL_MTDID</text>
<polygon fill="none" stroke="#000000" points="270.5,-1927.7 270.5,-1949.7 407.5,-1949.7 407.5,-1927.7 270.5,-1927.7"/>
<image xlink:href="../../images/foreignKeys.png" width="11px" height="12px" preserveAspectRatio="xMinYMin meet" x="275.5" y="-1944.7"/>
<text text-anchor="start" x="294.5" y="-1934.8" font-family="Helvetica,sans-Serif" font-size="11.00" fill="#000000">LUM_MATID</text>
<polygon fill="none" stroke="#000000" points="270.5,-1905.7 270.5,-1927.7 407.5,-1927.7 407.5,-1905.7 270.5,-1905.7"/>
<image xlink:href="../../images/foreignKeys.png" width="11px" height="12px" preserveAspectRatio="xMinYMin meet" x="275.5" y="-1922.7"/>
<text text-anchor="start" x="294.5" y="-1912.8" font-family="Helvetica,sans-Serif" font-size="11.00" fill="#000000">MINERALID</text>
<polygon fill="none" stroke="#000000" points="270.5,-1883.7 270.5,-1905.7 407.5,-1905.7 407.5,-1883.7 270.5,-1883.7"/>
<image xlink:href="../../images/foreignKeys.png" width="11px" height="12px" preserveAspectRatio="xMinYMin meet" x="275.5" y="-1900.7"/>
<text text-anchor="start" x="294.5" y="-1890.8" font-family="Helvetica,sans-Serif" font-size="11.00" fill="#000000">OSL_TYPEID</text>
<polygon fill="none" stroke="#000000" points="270.5,-1861.7 270.5,-1883.7 407.5,-1883.7 407.5,-1861.7 270.5,-1861.7"/>
<image xlink:href="../../images/foreignKeys.png" width="11px" height="12px" preserveAspectRatio="xMinYMin meet" x="275.5" y="-1878.7"/>
<text text-anchor="start" x="294.5" y="-1868.8" font-family="Helvetica,sans-Serif" font-size="11.00" fill="#000000">ED_PROCID</text>
<polygon fill="none" stroke="#000000" points="270.5,-1839.7 270.5,-1861.7 407.5,-1861.7 407.5,-1839.7 270.5,-1839.7"/>
<image xlink:href="../../images/foreignKeys.png" width="11px" height="12px" preserveAspectRatio="xMinYMin meet" x="275.5" y="-1856.7"/>
<text text-anchor="start" x="294.5" y="-1846.8" font-family="Helvetica,sans-Serif" font-size="11.00" fill="#000000">AGEMODELID</text>
<polygon fill="none" stroke="#000000" points="270.5,-1817.7 270.5,-1839.7 407.5,-1839.7 407.5,-1817.7 270.5,-1817.7"/>
<image xlink:href="../../images/foreignKeys.png" width="11px" height="12px" preserveAspectRatio="xMinYMin meet" x="275.5" y="-1834.7"/>
<text text-anchor="start" x="294.5" y="-1824.8" font-family="Helvetica,sans-Serif" font-size="11.00" fill="#000000">U_MTDID</text>
<polygon fill="none" stroke="#000000" points="270.5,-1795.7 270.5,-1817.7 407.5,-1817.7 407.5,-1795.7 270.5,-1795.7"/>
<image xlink:href="../../images/foreignKeys.png" width="11px" height="12px" preserveAspectRatio="xMinYMin meet" x="275.5" y="-1812.7"/>
<text text-anchor="start" x="294.5" y="-1802.8" font-family="Helvetica,sans-Serif" font-size="11.00" fill="#000000">TH_MTDID</text>
<polygon fill="none" stroke="#000000" points="270.5,-1773.7 270.5,-1795.7 407.5,-1795.7 407.5,-1773.7 270.5,-1773.7"/>
<image xlink:href="../../images/foreignKeys.png" width="11px" height="12px" preserveAspectRatio="xMinYMin meet" x="275.5" y="-1790.7"/>
<text text-anchor="start" x="294.5" y="-1780.8" font-family="Helvetica,sans-Serif" font-size="11.00" fill="#000000">K_MTDID</text>
<polygon fill="none" stroke="#000000" points="270.5,-1751.7 270.5,-1773.7 407.5,-1773.7 407.5,-1751.7 270.5,-1751.7"/>
<image xlink:href="../../images/foreignKeys.png" width="11px" height="12px" preserveAspectRatio="xMinYMin meet" x="275.5" y="-1768.7"/>
<text text-anchor="start" x="294.5" y="-1758.8" font-family="Helvetica,sans-Serif" font-size="11.00" fill="#000000">ALPH_MTDID</text>
<polygon fill="none" stroke="#000000" points="270.5,-1729.7 270.5,-1751.7 407.5,-1751.7 407.5,-1729.7 270.5,-1729.7"/>
<image xlink:href="../../images/foreignKeys.png" width="11px" height="12px" preserveAspectRatio="xMinYMin meet" x="275.5" y="-1746.7"/>
<text text-anchor="start" x="294.5" y="-1736.8" font-family="Helvetica,sans-Serif" font-size="11.00" fill="#000000">BETA_MTDID</text>
<polygon fill="none" stroke="#000000" points="270.5,-1707.7 270.5,-1729.7 407.5,-1729.7 407.5,-1707.7 270.5,-1707.7"/>
<image xlink:href="../../images/foreignKeys.png" width="11px" height="12px" preserveAspectRatio="xMinYMin meet" x="275.5" y="-1724.7"/>
<text text-anchor="start" x="294.5" y="-1714.8" font-family="Helvetica,sans-Serif" font-size="11.00" fill="#000000">GMMA_MTDID</text>
<polygon fill="none" stroke="#000000" points="270.5,-1688.7 270.5,-1707.7 407.5,-1707.7 407.5,-1688.7 270.5,-1688.7"/>
<text text-anchor="start" x="273.5" y="-1694.8" font-family="Helvetica,sans-Serif" font-size="11.00" fill="#000000">...</text>
<polygon fill="#ffffff" stroke="transparent" points="270.5,-1669.7 270.5,-1688.7 316.5,-1688.7 316.5,-1669.7 270.5,-1669.7"/>
<polygon fill="none" stroke="#000000" points="270.5,-1669.7 270.5,-1688.7 316.5,-1688.7 316.5,-1669.7 270.5,-1669.7"/>
<text text-anchor="start" x="273.5" y="-1675.8" font-family="Helvetica,sans-Serif" font-size="11.00" fill="#000000">&lt; 20</text>
<polygon fill="#ffffff" stroke="transparent" points="316.5,-1669.7 316.5,-1688.7 376.5,-1688.7 376.5,-1669.7 316.5,-1669.7"/>
<polygon fill="none" stroke="#000000" points="316.5,-1669.7 316.5,-1688.7 376.5,-1688.7 376.5,-1669.7 316.5,-1669.7"/>
<text text-anchor="start" x="328.8807" y="-1675.8" font-family="Helvetica,sans-Serif" font-size="11.00" fill="#000000">973 rows</text>
<polygon fill="#ffffff" stroke="transparent" points="376.5,-1669.7 376.5,-1688.7 407.5,-1688.7 407.5,-1669.7 376.5,-1669.7"/>
<polygon fill="none" stroke="#000000" points="376.5,-1669.7 376.5,-1688.7 407.5,-1688.7 407.5,-1669.7 376.5,-1669.7"/>
<text text-anchor="start" x="388.9053" y="-1675.8" font-family="Helvetica,sans-Serif" font-size="11.00" fill="#000000">1 &gt;</text>
</a>
</g>
</g>
<!-- osl&#45;tl_lum_matID -->
<g id="node2" class="node">
<title>osl&#45;tl_lum_matID</title>
<g id="a_node2"><a xlink:href="../../tables/osl-tl_lum_matID.html" xlink:title="osl&#45;tl_lum_matID" target="_top">
<polygon fill="#ffffff" stroke="transparent" points="8,-1002.7 8,-1158.7 221,-1158.7 221,-1002.7 8,-1002.7"/>
<polygon fill="#f5f5f5" stroke="transparent" points="10.5,-1133.7 10.5,-1156.7 219.5,-1156.7 219.5,-1133.7 10.5,-1133.7"/>
<polygon fill="none" stroke="#000000" points="10.5,-1133.7 10.5,-1156.7 219.5,-1156.7 219.5,-1133.7 10.5,-1133.7"/>
<text text-anchor="start" x="15.5" y="-1142.8" font-family="Helvetica,sans-Serif" font-weight="bold" font-size="11.00" fill="#000000">osl&#45;tl_lum_matID</text>
<text text-anchor="start" x="184.5437" y="-1141.8" font-family="Helvetica,sans-Serif" font-size="11.00" fill="#000000">[table]</text>
<polygon fill="none" stroke="#000000" points="10.5,-1111.7 10.5,-1133.7 127.5,-1133.7 127.5,-1111.7 10.5,-1111.7"/>
<image xlink:href="../../images/primaryKeys.png" width="11px" height="12px" preserveAspectRatio="xMinYMin meet" x="15.5" y="-1128.7"/>
<text text-anchor="start" x="30.5" y="-1118.8" font-family="Helvetica,sans-Serif" font-size="11.00" fill="#000000">LUM_MATID</text>
<polygon fill="none" stroke="#000000" points="127.5,-1111.7 127.5,-1133.7 219.5,-1133.7 219.5,-1111.7 127.5,-1111.7"/>
<text text-anchor="start" x="130.5" y="-1119.4" font-family="Helvetica,sans-Serif" font-size="11.00" fill="#000000">smallserial[5]</text>
<polygon fill="#ffffff" stroke="transparent" points="10.5,-1089.7 10.5,-1111.7 127.5,-1111.7 127.5,-1089.7 10.5,-1089.7"/>
<polygon fill="none" stroke="#000000" points="10.5,-1089.7 10.5,-1111.7 127.5,-1111.7 127.5,-1089.7 10.5,-1089.7"/>
<text text-anchor="start" x="30.5" y="-1096.8" font-family="Helvetica,sans-Serif" font-size="11.00" fill="#000000">LUM_MAT</text>
<polygon fill="none" stroke="#000000" points="127.5,-1089.7 127.5,-1111.7 219.5,-1111.7 219.5,-1089.7 127.5,-1089.7"/>
<text text-anchor="start" x="130.5" y="-1097.4" font-family="Helvetica,sans-Serif" font-size="11.00" fill="#000000">text[2147483647]</text>
<polygon fill="#ffffff" stroke="transparent" points="10.5,-1067.7 10.5,-1089.7 127.5,-1089.7 127.5,-1067.7 10.5,-1067.7"/>
<polygon fill="none" stroke="#000000" points="10.5,-1067.7 10.5,-1089.7 127.5,-1089.7 127.5,-1067.7 10.5,-1067.7"/>
<text text-anchor="start" x="30.5" y="-1074.8" font-family="Helvetica,sans-Serif" font-size="11.00" fill="#000000">LUM_MATABB</text>
<polygon fill="none" stroke="#000000" points="127.5,-1067.7 127.5,-1089.7 219.5,-1089.7 219.5,-1067.7 127.5,-1067.7"/>
<text text-anchor="start" x="130.5" y="-1075.4" font-family="Helvetica,sans-Serif" font-size="11.00" fill="#000000">text[2147483647]</text>
<polygon fill="none" stroke="#000000" points="10.5,-1045.7 10.5,-1067.7 127.5,-1067.7 127.5,-1045.7 10.5,-1045.7"/>
<text text-anchor="start" x="30.5" y="-1052.8" font-family="Helvetica,sans-Serif" font-size="11.00" fill="#000000">CREATED_AT</text>
<polygon fill="none" stroke="#000000" points="127.5,-1045.7 127.5,-1067.7 219.5,-1067.7 219.5,-1045.7 127.5,-1045.7"/>
<text text-anchor="start" x="130.1023" y="-1053.4" font-family="Helvetica,sans-Serif" font-size="11.00" fill="#000000">timestamptz[35,6]</text>
<polygon fill="none" stroke="#000000" points="10.5,-1023.7 10.5,-1045.7 127.5,-1045.7 127.5,-1023.7 10.5,-1023.7"/>
<text text-anchor="start" x="30.5" y="-1030.8" font-family="Helvetica,sans-Serif" font-size="11.00" fill="#000000">UPDATED_AT</text>
<polygon fill="none" stroke="#000000" points="127.5,-1023.7 127.5,-1045.7 219.5,-1045.7 219.5,-1023.7 127.5,-1023.7"/>
<text text-anchor="start" x="130.1023" y="-1031.4" font-family="Helvetica,sans-Serif" font-size="11.00" fill="#000000">timestamptz[35,6]</text>
<polygon fill="#ffffff" stroke="transparent" points="10.5,-1004.7 10.5,-1023.7 60.5,-1023.7 60.5,-1004.7 10.5,-1004.7"/>
<polygon fill="none" stroke="#000000" points="10.5,-1004.7 10.5,-1023.7 60.5,-1023.7 60.5,-1004.7 10.5,-1004.7"/>
<text text-anchor="start" x="13.5" y="-1010.8" font-family="Helvetica,sans-Serif" font-size="11.00" fill="#000000">&lt; 0</text>
<polygon fill="#ffffff" stroke="transparent" points="60.5,-1004.7 60.5,-1023.7 127.5,-1023.7 127.5,-1004.7 60.5,-1004.7"/>
<polygon fill="none" stroke="#000000" points="60.5,-1004.7 60.5,-1023.7 127.5,-1023.7 127.5,-1004.7 60.5,-1004.7"/>
<text text-anchor="start" x="92.1105" y="-1010.8" font-family="Helvetica,sans-Serif" font-size="11.00" fill="#000000">7 rows</text>
<polygon fill="#ffffff" stroke="transparent" points="127.5,-1004.7 127.5,-1023.7 219.5,-1023.7 219.5,-1004.7 127.5,-1004.7"/>
<polygon fill="none" stroke="#000000" points="127.5,-1004.7 127.5,-1023.7 219.5,-1023.7 219.5,-1004.7 127.5,-1004.7"/>
<text text-anchor="start" x="200.9053" y="-1010.8" font-family="Helvetica,sans-Serif" font-size="11.00" fill="#000000">4 &gt;</text>
<polygon fill="none" stroke="#000000" stroke-width="2" points="9,-1003.7 9,-1157.7 220,-1157.7 220,-1003.7 9,-1003.7"/>
</a>
</g>
</g>
<!-- arch_osl_DataCore&#45;&gt;osl&#45;tl_lum_matID -->
<g id="edge1" class="edge">
<title>arch_osl_DataCore:w&#45;&gt;osl&#45;tl_lum_matID:e</title>
<path fill="none" stroke="#000000" d="M257.5111,-1931.6456C193.2878,-1851.8904 305.3756,-1122.7 219.5,-1122.7"/>
<polygon fill="#000000" stroke="#000000" points="263.4699,-1934.8819 268.7818,-1941.8635 266.985,-1936.7909 270.5,-1938.7 270.5,-1938.7 270.5,-1938.7 266.985,-1936.7909 272.2182,-1935.5365 263.4699,-1934.8819 263.4699,-1934.8819"/>
<ellipse fill="none" stroke="#000000" cx="260.6579" cy="-1933.3546" rx="3.2" ry="3.2"/>
</g>
<!-- arch_tl_DataCore -->
<g id="node3" class="node">
<title>arch_tl_DataCore</title>
<g id="a_node3"><a xlink:href="../../tables/arch_tl_DataCore.html" xlink:title="arch_tl_DataCore" target="_top">
<polygon fill="#ffffff" stroke="transparent" points="274,-1126.2 274,-1649.2 403,-1649.2 403,-1126.2 274,-1126.2"/>
<polygon fill="#f5f5f5" stroke="transparent" points="274.5,-1625.7 274.5,-1648.7 403.5,-1648.7 403.5,-1625.7 274.5,-1625.7"/>
<polygon fill="none" stroke="#000000" points="274.5,-1625.7 274.5,-1648.7 403.5,-1648.7 403.5,-1625.7 274.5,-1625.7"/>
<text text-anchor="start" x="279.4103" y="-1634.8" font-family="Helvetica,sans-Serif" font-weight="bold" font-size="11.00" fill="#000000">arch_tl_DataCore</text>
<text text-anchor="start" x="369.0219" y="-1633.8" font-family="Helvetica,sans-Serif" font-size="11.00" fill="#000000">[table]</text>
<polygon fill="none" stroke="#000000" points="274.5,-1603.7 274.5,-1625.7 403.5,-1625.7 403.5,-1603.7 274.5,-1603.7"/>
<image xlink:href="../../images/primaryKeys.png" width="11px" height="12px" preserveAspectRatio="xMinYMin meet" x="279.5" y="-1620.7"/>
<text text-anchor="start" x="299.5" y="-1610.8" font-family="Helvetica,sans-Serif" font-size="11.00" fill="#000000">OBSID1</text>
<polygon fill="none" stroke="#000000" points="274.5,-1581.7 274.5,-1603.7 403.5,-1603.7 403.5,-1581.7 274.5,-1581.7"/>
<image xlink:href="../../images/foreignKeys.png" width="11px" height="12px" preserveAspectRatio="xMinYMin meet" x="279.5" y="-1598.7"/>
<text text-anchor="start" x="299.5" y="-1588.8" font-family="Helvetica,sans-Serif" font-size="11.00" fill="#000000">SMPID</text>
<polygon fill="none" stroke="#000000" points="274.5,-1559.7 274.5,-1581.7 403.5,-1581.7 403.5,-1559.7 274.5,-1559.7"/>
<image xlink:href="../../images/foreignKeys.png" width="11px" height="12px" preserveAspectRatio="xMinYMin meet" x="279.5" y="-1576.7"/>
<text text-anchor="start" x="299.5" y="-1566.8" font-family="Helvetica,sans-Serif" font-size="11.00" fill="#000000">LAB_ORIGID</text>
<polygon fill="none" stroke="#000000" points="274.5,-1537.7 274.5,-1559.7 403.5,-1559.7 403.5,-1537.7 274.5,-1537.7"/>
<image xlink:href="../../images/foreignKeys.png" width="11px" height="12px" preserveAspectRatio="xMinYMin meet" x="279.5" y="-1554.7"/>
<text text-anchor="start" x="299.5" y="-1544.8" font-family="Helvetica,sans-Serif" font-size="11.00" fill="#000000">METHODID</text>
<polygon fill="none" stroke="#000000" points="274.5,-1515.7 274.5,-1537.7 403.5,-1537.7 403.5,-1515.7 274.5,-1515.7"/>
<image xlink:href="../../images/foreignKeys.png" width="11px" height="12px" preserveAspectRatio="xMinYMin meet" x="279.5" y="-1532.7"/>
<text text-anchor="start" x="299.5" y="-1522.8" font-family="Helvetica,sans-Serif" font-size="11.00" fill="#000000">DBDOI</text>
<polygon fill="none" stroke="#000000" points="274.5,-1493.7 274.5,-1515.7 403.5,-1515.7 403.5,-1493.7 274.5,-1493.7"/>
<image xlink:href="../../images/foreignKeys.png" width="11px" height="12px" preserveAspectRatio="xMinYMin meet" x="279.5" y="-1510.7"/>
<text text-anchor="start" x="299.5" y="-1500.8" font-family="Helvetica,sans-Serif" font-size="11.00" fill="#000000">REFDBID1</text>
<polygon fill="none" stroke="#000000" points="274.5,-1471.7 274.5,-1493.7 403.5,-1493.7 403.5,-1471.7 274.5,-1471.7"/>
<image xlink:href="../../images/foreignKeys.png" width="11px" height="12px" preserveAspectRatio="xMinYMin meet" x="279.5" y="-1488.7"/>
<text text-anchor="start" x="299.5" y="-1478.8" font-family="Helvetica,sans-Serif" font-size="11.00" fill="#000000">REFDBID2</text>
<polygon fill="none" stroke="#000000" points="274.5,-1449.7 274.5,-1471.7 403.5,-1471.7 403.5,-1449.7 274.5,-1449.7"/>
<image xlink:href="../../images/foreignKeys.png" width="11px" height="12px" preserveAspectRatio="xMinYMin meet" x="279.5" y="-1466.7"/>
<text text-anchor="start" x="299.5" y="-1456.8" font-family="Helvetica,sans-Serif" font-size="11.00" fill="#000000">REFDBID3</text>
<polygon fill="none" stroke="#000000" points="274.5,-1427.7 274.5,-1449.7 403.5,-1449.7 403.5,-1427.7 274.5,-1427.7"/>
<image xlink:href="../../images/foreignKeys.png" width="11px" height="12px" preserveAspectRatio="xMinYMin meet" x="279.5" y="-1444.7"/>
<text text-anchor="start" x="299.5" y="-1434.8" font-family="Helvetica,sans-Serif" font-size="11.00" fill="#000000">REFDBID4</text>
<polygon fill="none" stroke="#000000" points="274.5,-1405.7 274.5,-1427.7 403.5,-1427.7 403.5,-1405.7 274.5,-1405.7"/>
<image xlink:href="../../images/foreignKeys.png" width="11px" height="12px" preserveAspectRatio="xMinYMin meet" x="279.5" y="-1422.7"/>
<text text-anchor="start" x="299.5" y="-1412.8" font-family="Helvetica,sans-Serif" font-size="11.00" fill="#000000">COL_MTDID</text>
<polygon fill="none" stroke="#000000" points="274.5,-1383.7 274.5,-1405.7 403.5,-1405.7 403.5,-1383.7 274.5,-1383.7"/>
<image xlink:href="../../images/foreignKeys.png" width="11px" height="12px" preserveAspectRatio="xMinYMin meet" x="279.5" y="-1400.7"/>
<text text-anchor="start" x="299.5" y="-1390.8" font-family="Helvetica,sans-Serif" font-size="11.00" fill="#000000">LUM_MATID</text>
<polygon fill="none" stroke="#000000" points="274.5,-1361.7 274.5,-1383.7 403.5,-1383.7 403.5,-1361.7 274.5,-1361.7"/>
<image xlink:href="../../images/foreignKeys.png" width="11px" height="12px" preserveAspectRatio="xMinYMin meet" x="279.5" y="-1378.7"/>
<text text-anchor="start" x="299.5" y="-1368.8" font-family="Helvetica,sans-Serif" font-size="11.00" fill="#000000">MINERALID</text>
<polygon fill="none" stroke="#000000" points="274.5,-1339.7 274.5,-1361.7 403.5,-1361.7 403.5,-1339.7 274.5,-1339.7"/>
<image xlink:href="../../images/foreignKeys.png" width="11px" height="12px" preserveAspectRatio="xMinYMin meet" x="279.5" y="-1356.7"/>
<text text-anchor="start" x="299.5" y="-1346.8" font-family="Helvetica,sans-Serif" font-size="11.00" fill="#000000">ED_PROCID</text>
<polygon fill="none" stroke="#000000" points="274.5,-1317.7 274.5,-1339.7 403.5,-1339.7 403.5,-1317.7 274.5,-1317.7"/>
<image xlink:href="../../images/foreignKeys.png" width="11px" height="12px" preserveAspectRatio="xMinYMin meet" x="279.5" y="-1334.7"/>
<text text-anchor="start" x="299.5" y="-1324.8" font-family="Helvetica,sans-Serif" font-size="11.00" fill="#000000">AGEMODELID</text>
<polygon fill="none" stroke="#000000" points="274.5,-1295.7 274.5,-1317.7 403.5,-1317.7 403.5,-1295.7 274.5,-1295.7"/>
<image xlink:href="../../images/foreignKeys.png" width="11px" height="12px" preserveAspectRatio="xMinYMin meet" x="279.5" y="-1312.7"/>
<text text-anchor="start" x="299.5" y="-1302.8" font-family="Helvetica,sans-Serif" font-size="11.00" fill="#000000">U_MTDID</text>
<polygon fill="none" stroke="#000000" points="274.5,-1273.7 274.5,-1295.7 403.5,-1295.7 403.5,-1273.7 274.5,-1273.7"/>
<image xlink:href="../../images/foreignKeys.png" width="11px" height="12px" preserveAspectRatio="xMinYMin meet" x="279.5" y="-1290.7"/>
<text text-anchor="start" x="299.5" y="-1280.8" font-family="Helvetica,sans-Serif" font-size="11.00" fill="#000000">TH_MTDID</text>
<polygon fill="none" stroke="#000000" points="274.5,-1251.7 274.5,-1273.7 403.5,-1273.7 403.5,-1251.7 274.5,-1251.7"/>
<image xlink:href="../../images/foreignKeys.png" width="11px" height="12px" preserveAspectRatio="xMinYMin meet" x="279.5" y="-1268.7"/>
<text text-anchor="start" x="299.5" y="-1258.8" font-family="Helvetica,sans-Serif" font-size="11.00" fill="#000000">U_TH_MTDID</text>
<polygon fill="none" stroke="#000000" points="274.5,-1229.7 274.5,-1251.7 403.5,-1251.7 403.5,-1229.7 274.5,-1229.7"/>
<image xlink:href="../../images/foreignKeys.png" width="11px" height="12px" preserveAspectRatio="xMinYMin meet" x="279.5" y="-1246.7"/>
<text text-anchor="start" x="299.5" y="-1236.8" font-family="Helvetica,sans-Serif" font-size="11.00" fill="#000000">K_MTDID</text>
<polygon fill="none" stroke="#000000" points="274.5,-1207.7 274.5,-1229.7 403.5,-1229.7 403.5,-1207.7 274.5,-1207.7"/>
<image xlink:href="../../images/foreignKeys.png" width="11px" height="12px" preserveAspectRatio="xMinYMin meet" x="279.5" y="-1224.7"/>
<text text-anchor="start" x="299.5" y="-1214.8" font-family="Helvetica,sans-Serif" font-size="11.00" fill="#000000">ALPH_MTDID</text>
<polygon fill="none" stroke="#000000" points="274.5,-1185.7 274.5,-1207.7 403.5,-1207.7 403.5,-1185.7 274.5,-1185.7"/>
<image xlink:href="../../images/foreignKeys.png" width="11px" height="12px" preserveAspectRatio="xMinYMin meet" x="279.5" y="-1202.7"/>
<text text-anchor="start" x="299.5" y="-1192.8" font-family="Helvetica,sans-Serif" font-size="11.00" fill="#000000">BETA_MTDID</text>
<polygon fill="none" stroke="#000000" points="274.5,-1163.7 274.5,-1185.7 403.5,-1185.7 403.5,-1163.7 274.5,-1163.7"/>
<image xlink:href="../../images/foreignKeys.png" width="11px" height="12px" preserveAspectRatio="xMinYMin meet" x="279.5" y="-1180.7"/>
<text text-anchor="start" x="299.5" y="-1170.8" font-family="Helvetica,sans-Serif" font-size="11.00" fill="#000000">GMMA_MTDID</text>
<polygon fill="none" stroke="#000000" points="274.5,-1144.7 274.5,-1163.7 403.5,-1163.7 403.5,-1144.7 274.5,-1144.7"/>
<text text-anchor="start" x="277.5" y="-1150.8" font-family="Helvetica,sans-Serif" font-size="11.00" fill="#000000">...</text>
<polygon fill="#ffffff" stroke="transparent" points="274.5,-1125.7 274.5,-1144.7 316.5,-1144.7 316.5,-1125.7 274.5,-1125.7"/>
<polygon fill="none" stroke="#000000" points="274.5,-1125.7 274.5,-1144.7 316.5,-1144.7 316.5,-1125.7 274.5,-1125.7"/>
<text text-anchor="start" x="277.5" y="-1131.8" font-family="Helvetica,sans-Serif" font-size="11.00" fill="#000000">&lt; 20</text>
<polygon fill="#ffffff" stroke="transparent" points="316.5,-1125.7 316.5,-1144.7 374.5,-1144.7 374.5,-1125.7 316.5,-1125.7"/>
<polygon fill="none" stroke="#000000" points="316.5,-1125.7 316.5,-1144.7 374.5,-1144.7 374.5,-1125.7 316.5,-1125.7"/>
<text text-anchor="start" x="326.8807" y="-1131.8" font-family="Helvetica,sans-Serif" font-size="11.00" fill="#000000">240 rows</text>
<polygon fill="#ffffff" stroke="transparent" points="374.5,-1125.7 374.5,-1144.7 403.5,-1144.7 403.5,-1125.7 374.5,-1125.7"/>
<polygon fill="none" stroke="#000000" points="374.5,-1125.7 374.5,-1144.7 403.5,-1144.7 403.5,-1125.7 374.5,-1125.7"/>
<text text-anchor="start" x="384.9053" y="-1131.8" font-family="Helvetica,sans-Serif" font-size="11.00" fill="#000000">1 &gt;</text>
</a>
</g>
</g>
<!-- arch_tl_DataCore&#45;&gt;osl&#45;tl_lum_matID -->
<g id="edge2" class="edge">
<title>arch_tl_DataCore:w&#45;&gt;osl&#45;tl_lum_matID:e</title>
<path fill="none" stroke="#000000" d="M260.0115,-1393.1703C167.4022,-1371.319 337.4155,-1122.7 219.5,-1122.7"/>
<polygon fill="#000000" stroke="#000000" points="266.5442,-1393.86 274.122,-1398.2801 270.5221,-1394.28 274.5,-1394.7 274.5,-1394.7 274.5,-1394.7 270.5221,-1394.28 274.878,-1391.1199 266.5442,-1393.86 266.5442,-1393.86"/>
<ellipse fill="none" stroke="#000000" cx="263.3619" cy="-1393.524" rx="3.2" ry="3.2"/>
</g>
<!-- sed&#45;osl_DataCore -->
<g id="node4" class="node">
<title>sed&#45;osl_DataCore</title>
<g id="a_node4"><a xlink:href="../../tables/sed-osl_DataCore.html" xlink:title="sed&#45;osl_DataCore" target="_top">
<polygon fill="#ffffff" stroke="transparent" points="273,-582.2 273,-1105.2 404,-1105.2 404,-582.2 273,-582.2"/>
<polygon fill="#f5f5f5" stroke="transparent" points="273.5,-1081.7 273.5,-1104.7 404.5,-1104.7 404.5,-1081.7 273.5,-1081.7"/>
<polygon fill="none" stroke="#000000" points="273.5,-1081.7 273.5,-1104.7 404.5,-1104.7 404.5,-1081.7 273.5,-1081.7"/>
<text text-anchor="start" x="278.1887" y="-1090.8" font-family="Helvetica,sans-Serif" font-weight="bold" font-size="11.00" fill="#000000">sed&#45;osl_DataCore</text>
<text text-anchor="start" x="370.0219" y="-1089.8" font-family="Helvetica,sans-Serif" font-size="11.00" fill="#000000">[table]</text>
<polygon fill="none" stroke="#000000" points="273.5,-1059.7 273.5,-1081.7 404.5,-1081.7 404.5,-1059.7 273.5,-1059.7"/>
<image xlink:href="../../images/primaryKeys.png" width="11px" height="12px" preserveAspectRatio="xMinYMin meet" x="278.5" y="-1076.7"/>
<text text-anchor="start" x="297.5" y="-1066.8" font-family="Helvetica,sans-Serif" font-size="11.00" fill="#000000">OBSID1</text>
<polygon fill="none" stroke="#000000" points="273.5,-1037.7 273.5,-1059.7 404.5,-1059.7 404.5,-1037.7 273.5,-1037.7"/>
<image xlink:href="../../images/foreignKeys.png" width="11px" height="12px" preserveAspectRatio="xMinYMin meet" x="278.5" y="-1054.7"/>
<text text-anchor="start" x="297.5" y="-1044.8" font-family="Helvetica,sans-Serif" font-size="11.00" fill="#000000">SMPID</text>
<polygon fill="none" stroke="#000000" points="273.5,-1015.7 273.5,-1037.7 404.5,-1037.7 404.5,-1015.7 273.5,-1015.7"/>
<image xlink:href="../../images/foreignKeys.png" width="11px" height="12px" preserveAspectRatio="xMinYMin meet" x="278.5" y="-1032.7"/>
<text text-anchor="start" x="297.5" y="-1022.8" font-family="Helvetica,sans-Serif" font-size="11.00" fill="#000000">LAB_ORIGID</text>
<polygon fill="none" stroke="#000000" points="273.5,-993.7 273.5,-1015.7 404.5,-1015.7 404.5,-993.7 273.5,-993.7"/>
<image xlink:href="../../images/foreignKeys.png" width="11px" height="12px" preserveAspectRatio="xMinYMin meet" x="278.5" y="-1010.7"/>
<text text-anchor="start" x="297.5" y="-1000.8" font-family="Helvetica,sans-Serif" font-size="11.00" fill="#000000">METHODID</text>
<polygon fill="none" stroke="#000000" points="273.5,-971.7 273.5,-993.7 404.5,-993.7 404.5,-971.7 273.5,-971.7"/>
<image xlink:href="../../images/foreignKeys.png" width="11px" height="12px" preserveAspectRatio="xMinYMin meet" x="278.5" y="-988.7"/>
<text text-anchor="start" x="297.5" y="-978.8" font-family="Helvetica,sans-Serif" font-size="11.00" fill="#000000">DBDOI</text>
<polygon fill="none" stroke="#000000" points="273.5,-949.7 273.5,-971.7 404.5,-971.7 404.5,-949.7 273.5,-949.7"/>
<image xlink:href="../../images/foreignKeys.png" width="11px" height="12px" preserveAspectRatio="xMinYMin meet" x="278.5" y="-966.7"/>
<text text-anchor="start" x="297.5" y="-956.8" font-family="Helvetica,sans-Serif" font-size="11.00" fill="#000000">REFDBID1</text>
<polygon fill="none" stroke="#000000" points="273.5,-927.7 273.5,-949.7 404.5,-949.7 404.5,-927.7 273.5,-927.7"/>
<image xlink:href="../../images/foreignKeys.png" width="11px" height="12px" preserveAspectRatio="xMinYMin meet" x="278.5" y="-944.7"/>
<text text-anchor="start" x="297.5" y="-934.8" font-family="Helvetica,sans-Serif" font-size="11.00" fill="#000000">REFDBID2</text>
<polygon fill="none" stroke="#000000" points="273.5,-905.7 273.5,-927.7 404.5,-927.7 404.5,-905.7 273.5,-905.7"/>
<image xlink:href="../../images/foreignKeys.png" width="11px" height="12px" preserveAspectRatio="xMinYMin meet" x="278.5" y="-922.7"/>
<text text-anchor="start" x="297.5" y="-912.8" font-family="Helvetica,sans-Serif" font-size="11.00" fill="#000000">REFDBID3</text>
<polygon fill="none" stroke="#000000" points="273.5,-883.7 273.5,-905.7 404.5,-905.7 404.5,-883.7 273.5,-883.7"/>
<image xlink:href="../../images/foreignKeys.png" width="11px" height="12px" preserveAspectRatio="xMinYMin meet" x="278.5" y="-900.7"/>
<text text-anchor="start" x="297.5" y="-890.8" font-family="Helvetica,sans-Serif" font-size="11.00" fill="#000000">REFDBID4</text>
<polygon fill="none" stroke="#000000" points="273.5,-861.7 273.5,-883.7 404.5,-883.7 404.5,-861.7 273.5,-861.7"/>
<image xlink:href="../../images/foreignKeys.png" width="11px" height="12px" preserveAspectRatio="xMinYMin meet" x="278.5" y="-878.7"/>
<text text-anchor="start" x="297.5" y="-868.8" font-family="Helvetica,sans-Serif" font-size="11.00" fill="#000000">COL_MTDID</text>
<polygon fill="none" stroke="#000000" points="273.5,-839.7 273.5,-861.7 404.5,-861.7 404.5,-839.7 273.5,-839.7"/>
<image xlink:href="../../images/foreignKeys.png" width="11px" height="12px" preserveAspectRatio="xMinYMin meet" x="278.5" y="-856.7"/>
<text text-anchor="start" x="297.5" y="-846.8" font-family="Helvetica,sans-Serif" font-size="11.00" fill="#000000">LUM_MATID</text>
<polygon fill="none" stroke="#000000" points="273.5,-817.7 273.5,-839.7 404.5,-839.7 404.5,-817.7 273.5,-817.7"/>
<image xlink:href="../../images/foreignKeys.png" width="11px" height="12px" preserveAspectRatio="xMinYMin meet" x="278.5" y="-834.7"/>
<text text-anchor="start" x="297.5" y="-824.8" font-family="Helvetica,sans-Serif" font-size="11.00" fill="#000000">MINERALID</text>
<polygon fill="none" stroke="#000000" points="273.5,-795.7 273.5,-817.7 404.5,-817.7 404.5,-795.7 273.5,-795.7"/>
<image xlink:href="../../images/foreignKeys.png" width="11px" height="12px" preserveAspectRatio="xMinYMin meet" x="278.5" y="-812.7"/>
<text text-anchor="start" x="297.5" y="-802.8" font-family="Helvetica,sans-Serif" font-size="11.00" fill="#000000">OSL_TYPEID</text>
<polygon fill="none" stroke="#000000" points="273.5,-773.7 273.5,-795.7 404.5,-795.7 404.5,-773.7 273.5,-773.7"/>
<image xlink:href="../../images/foreignKeys.png" width="11px" height="12px" preserveAspectRatio="xMinYMin meet" x="278.5" y="-790.7"/>
<text text-anchor="start" x="297.5" y="-780.8" font-family="Helvetica,sans-Serif" font-size="11.00" fill="#000000">ED_PROCID</text>
<polygon fill="none" stroke="#000000" points="273.5,-751.7 273.5,-773.7 404.5,-773.7 404.5,-751.7 273.5,-751.7"/>
<image xlink:href="../../images/foreignKeys.png" width="11px" height="12px" preserveAspectRatio="xMinYMin meet" x="278.5" y="-768.7"/>
<text text-anchor="start" x="297.5" y="-758.8" font-family="Helvetica,sans-Serif" font-size="11.00" fill="#000000">AGEMODELID</text>
<polygon fill="none" stroke="#000000" points="273.5,-729.7 273.5,-751.7 404.5,-751.7 404.5,-729.7 273.5,-729.7"/>
<image xlink:href="../../images/foreignKeys.png" width="11px" height="12px" preserveAspectRatio="xMinYMin meet" x="278.5" y="-746.7"/>
<text text-anchor="start" x="297.5" y="-736.8" font-family="Helvetica,sans-Serif" font-size="11.00" fill="#000000">U_MTDID</text>
<polygon fill="none" stroke="#000000" points="273.5,-707.7 273.5,-729.7 404.5,-729.7 404.5,-707.7 273.5,-707.7"/>
<image xlink:href="../../images/foreignKeys.png" width="11px" height="12px" preserveAspectRatio="xMinYMin meet" x="278.5" y="-724.7"/>
<text text-anchor="start" x="297.5" y="-714.8" font-family="Helvetica,sans-Serif" font-size="11.00" fill="#000000">TH_MTDID</text>
<polygon fill="none" stroke="#000000" points="273.5,-685.7 273.5,-707.7 404.5,-707.7 404.5,-685.7 273.5,-685.7"/>
<image xlink:href="../../images/foreignKeys.png" width="11px" height="12px" preserveAspectRatio="xMinYMin meet" x="278.5" y="-702.7"/>
<text text-anchor="start" x="297.5" y="-692.8" font-family="Helvetica,sans-Serif" font-size="11.00" fill="#000000">K_MTDID</text>
<polygon fill="none" stroke="#000000" points="273.5,-663.7 273.5,-685.7 404.5,-685.7 404.5,-663.7 273.5,-663.7"/>
<image xlink:href="../../images/foreignKeys.png" width="11px" height="12px" preserveAspectRatio="xMinYMin meet" x="278.5" y="-680.7"/>
<text text-anchor="start" x="297.5" y="-670.8" font-family="Helvetica,sans-Serif" font-size="11.00" fill="#000000">ALPH_MTDID</text>
<polygon fill="none" stroke="#000000" points="273.5,-641.7 273.5,-663.7 404.5,-663.7 404.5,-641.7 273.5,-641.7"/>
<image xlink:href="../../images/foreignKeys.png" width="11px" height="12px" preserveAspectRatio="xMinYMin meet" x="278.5" y="-658.7"/>
<text text-anchor="start" x="297.5" y="-648.8" font-family="Helvetica,sans-Serif" font-size="11.00" fill="#000000">BETA_MTDID</text>
<polygon fill="none" stroke="#000000" points="273.5,-619.7 273.5,-641.7 404.5,-641.7 404.5,-619.7 273.5,-619.7"/>
<image xlink:href="../../images/foreignKeys.png" width="11px" height="12px" preserveAspectRatio="xMinYMin meet" x="278.5" y="-636.7"/>
<text text-anchor="start" x="297.5" y="-626.8" font-family="Helvetica,sans-Serif" font-size="11.00" fill="#000000">GMMA_MTDID</text>
<polygon fill="none" stroke="#000000" points="273.5,-600.7 273.5,-619.7 404.5,-619.7 404.5,-600.7 273.5,-600.7"/>
<text text-anchor="start" x="276.5" y="-606.8" font-family="Helvetica,sans-Serif" font-size="11.00" fill="#000000">...</text>
<polygon fill="#ffffff" stroke="transparent" points="273.5,-581.7 273.5,-600.7 312.5,-600.7 312.5,-581.7 273.5,-581.7"/>
<polygon fill="none" stroke="#000000" points="273.5,-581.7 273.5,-600.7 312.5,-600.7 312.5,-581.7 273.5,-581.7"/>
<text text-anchor="start" x="276.5" y="-587.8" font-family="Helvetica,sans-Serif" font-size="11.00" fill="#000000">&lt; 20</text>
<polygon fill="#ffffff" stroke="transparent" points="312.5,-581.7 312.5,-600.7 377.5,-600.7 377.5,-581.7 312.5,-581.7"/>
<polygon fill="none" stroke="#000000" points="312.5,-581.7 312.5,-600.7 377.5,-600.7 377.5,-581.7 312.5,-581.7"/>
<text text-anchor="start" x="320.7089" y="-587.8" font-family="Helvetica,sans-Serif" font-size="11.00" fill="#000000">2,458 rows</text>
<polygon fill="#ffffff" stroke="transparent" points="377.5,-581.7 377.5,-600.7 404.5,-600.7 404.5,-581.7 377.5,-581.7"/>
<polygon fill="none" stroke="#000000" points="377.5,-581.7 377.5,-600.7 404.5,-600.7 404.5,-581.7 377.5,-581.7"/>
<text text-anchor="start" x="385.9053" y="-587.8" font-family="Helvetica,sans-Serif" font-size="11.00" fill="#000000">1 &gt;</text>
</a>
</g>
</g>
<!-- sed&#45;osl_DataCore&#45;&gt;osl&#45;tl_lum_matID -->
<g id="edge3" class="edge">
<title>sed&#45;osl_DataCore:w&#45;&gt;osl&#45;tl_lum_matID:e</title>
<path fill="none" stroke="#000000" d="M259.0272,-852.2297C166.5607,-874.081 337.332,-1122.7 219.5,-1122.7"/>
<polygon fill="#000000" stroke="#000000" points="265.5443,-851.5409 273.8784,-854.2801 269.5222,-851.1205 273.5,-850.7 273.5,-850.7 273.5,-850.7 269.5222,-851.1205 273.1216,-847.1199 265.5443,-851.5409 265.5443,-851.5409"/>
<ellipse fill="none" stroke="#000000" cx="262.362" cy="-851.8773" rx="3.2" ry="3.2"/>
</g>
<!-- sed&#45;tl_DataCore -->
<g id="node5" class="node">
<title>sed&#45;tl_DataCore</title>
<g id="a_node5"><a xlink:href="../../tables/sed-tl_DataCore.html" xlink:title="sed&#45;tl_DataCore" target="_top">
<polygon fill="#ffffff" stroke="transparent" points="277,-38.2 277,-561.2 400,-561.2 400,-38.2 277,-38.2"/>
<polygon fill="#f5f5f5" stroke="transparent" points="277.5,-537.7 277.5,-560.7 400.5,-560.7 400.5,-537.7 277.5,-537.7"/>
<polygon fill="none" stroke="#000000" points="277.5,-537.7 277.5,-560.7 400.5,-560.7 400.5,-537.7 277.5,-537.7"/>
<text text-anchor="start" x="282.4677" y="-546.8" font-family="Helvetica,sans-Serif" font-weight="bold" font-size="11.00" fill="#000000">sed&#45;tl_DataCore</text>
<text text-anchor="start" x="366.0219" y="-545.8" font-family="Helvetica,sans-Serif" font-size="11.00" fill="#000000">[table]</text>
<polygon fill="none" stroke="#000000" points="277.5,-515.7 277.5,-537.7 400.5,-537.7 400.5,-515.7 277.5,-515.7"/>
<image xlink:href="../../images/primaryKeys.png" width="11px" height="12px" preserveAspectRatio="xMinYMin meet" x="282.5" y="-532.7"/>
<text text-anchor="start" x="302.5" y="-522.8" font-family="Helvetica,sans-Serif" font-size="11.00" fill="#000000">OBSID1</text>
<polygon fill="none" stroke="#000000" points="277.5,-493.7 277.5,-515.7 400.5,-515.7 400.5,-493.7 277.5,-493.7"/>
<image xlink:href="../../images/foreignKeys.png" width="11px" height="12px" preserveAspectRatio="xMinYMin meet" x="282.5" y="-510.7"/>
<text text-anchor="start" x="302.5" y="-500.8" font-family="Helvetica,sans-Serif" font-size="11.00" fill="#000000">SMPID</text>
<polygon fill="none" stroke="#000000" points="277.5,-471.7 277.5,-493.7 400.5,-493.7 400.5,-471.7 277.5,-471.7"/>
<image xlink:href="../../images/foreignKeys.png" width="11px" height="12px" preserveAspectRatio="xMinYMin meet" x="282.5" y="-488.7"/>
<text text-anchor="start" x="302.5" y="-478.8" font-family="Helvetica,sans-Serif" font-size="11.00" fill="#000000">LAB_ORIGID</text>
<polygon fill="none" stroke="#000000" points="277.5,-449.7 277.5,-471.7 400.5,-471.7 400.5,-449.7 277.5,-449.7"/>
<image xlink:href="../../images/foreignKeys.png" width="11px" height="12px" preserveAspectRatio="xMinYMin meet" x="282.5" y="-466.7"/>
<text text-anchor="start" x="302.5" y="-456.8" font-family="Helvetica,sans-Serif" font-size="11.00" fill="#000000">METHODID</text>
<polygon fill="none" stroke="#000000" points="277.5,-427.7 277.5,-449.7 400.5,-449.7 400.5,-427.7 277.5,-427.7"/>
<image xlink:href="../../images/foreignKeys.png" width="11px" height="12px" preserveAspectRatio="xMinYMin meet" x="282.5" y="-444.7"/>
<text text-anchor="start" x="302.5" y="-434.8" font-family="Helvetica,sans-Serif" font-size="11.00" fill="#000000">DBDOI</text>
<polygon fill="none" stroke="#000000" points="277.5,-405.7 277.5,-427.7 400.5,-427.7 400.5,-405.7 277.5,-405.7"/>
<image xlink:href="../../images/foreignKeys.png" width="11px" height="12px" preserveAspectRatio="xMinYMin meet" x="282.5" y="-422.7"/>
<text text-anchor="start" x="302.5" y="-412.8" font-family="Helvetica,sans-Serif" font-size="11.00" fill="#000000">REFDBID1</text>
<polygon fill="none" stroke="#000000" points="277.5,-383.7 277.5,-405.7 400.5,-405.7 400.5,-383.7 277.5,-383.7"/>
<image xlink:href="../../images/foreignKeys.png" width="11px" height="12px" preserveAspectRatio="xMinYMin meet" x="282.5" y="-400.7"/>
<text text-anchor="start" x="302.5" y="-390.8" font-family="Helvetica,sans-Serif" font-size="11.00" fill="#000000">REFDBID2</text>
<polygon fill="none" stroke="#000000" points="277.5,-361.7 277.5,-383.7 400.5,-383.7 400.5,-361.7 277.5,-361.7"/>
<image xlink:href="../../images/foreignKeys.png" width="11px" height="12px" preserveAspectRatio="xMinYMin meet" x="282.5" y="-378.7"/>
<text text-anchor="start" x="302.5" y="-368.8" font-family="Helvetica,sans-Serif" font-size="11.00" fill="#000000">REFDBID3</text>
<polygon fill="none" stroke="#000000" points="277.5,-339.7 277.5,-361.7 400.5,-361.7 400.5,-339.7 277.5,-339.7"/>
<image xlink:href="../../images/foreignKeys.png" width="11px" height="12px" preserveAspectRatio="xMinYMin meet" x="282.5" y="-356.7"/>
<text text-anchor="start" x="302.5" y="-346.8" font-family="Helvetica,sans-Serif" font-size="11.00" fill="#000000">REFDBID4</text>
<polygon fill="none" stroke="#000000" points="277.5,-317.7 277.5,-339.7 400.5,-339.7 400.5,-317.7 277.5,-317.7"/>
<image xlink:href="../../images/foreignKeys.png" width="11px" height="12px" preserveAspectRatio="xMinYMin meet" x="282.5" y="-334.7"/>
<text text-anchor="start" x="302.5" y="-324.8" font-family="Helvetica,sans-Serif" font-size="11.00" fill="#000000">COL_MTDID</text>
<polygon fill="none" stroke="#000000" points="277.5,-295.7 277.5,-317.7 400.5,-317.7 400.5,-295.7 277.5,-295.7"/>
<image xlink:href="../../images/foreignKeys.png" width="11px" height="12px" preserveAspectRatio="xMinYMin meet" x="282.5" y="-312.7"/>
<text text-anchor="start" x="302.5" y="-302.8" font-family="Helvetica,sans-Serif" font-size="11.00" fill="#000000">LUM_MATID</text>
<polygon fill="none" stroke="#000000" points="277.5,-273.7 277.5,-295.7 400.5,-295.7 400.5,-273.7 277.5,-273.7"/>
<image xlink:href="../../images/foreignKeys.png" width="11px" height="12px" preserveAspectRatio="xMinYMin meet" x="282.5" y="-290.7"/>
<text text-anchor="start" x="302.5" y="-280.8" font-family="Helvetica,sans-Serif" font-size="11.00" fill="#000000">MINERALID</text>
<polygon fill="none" stroke="#000000" points="277.5,-251.7 277.5,-273.7 400.5,-273.7 400.5,-251.7 277.5,-251.7"/>
<image xlink:href="../../images/foreignKeys.png" width="11px" height="12px" preserveAspectRatio="xMinYMin meet" x="282.5" y="-268.7"/>
<text text-anchor="start" x="302.5" y="-258.8" font-family="Helvetica,sans-Serif" font-size="11.00" fill="#000000">ED_PROCID</text>
<polygon fill="none" stroke="#000000" points="277.5,-229.7 277.5,-251.7 400.5,-251.7 400.5,-229.7 277.5,-229.7"/>
<image xlink:href="../../images/foreignKeys.png" width="11px" height="12px" preserveAspectRatio="xMinYMin meet" x="282.5" y="-246.7"/>
<text text-anchor="start" x="302.5" y="-236.8" font-family="Helvetica,sans-Serif" font-size="11.00" fill="#000000">AGEMODELID</text>
<polygon fill="none" stroke="#000000" points="277.5,-207.7 277.5,-229.7 400.5,-229.7 400.5,-207.7 277.5,-207.7"/>
<image xlink:href="../../images/foreignKeys.png" width="11px" height="12px" preserveAspectRatio="xMinYMin meet" x="282.5" y="-224.7"/>
<text text-anchor="start" x="302.5" y="-214.8" font-family="Helvetica,sans-Serif" font-size="11.00" fill="#000000">U_MTDID</text>
<polygon fill="none" stroke="#000000" points="277.5,-185.7 277.5,-207.7 400.5,-207.7 400.5,-185.7 277.5,-185.7"/>
<image xlink:href="../../images/foreignKeys.png" width="11px" height="12px" preserveAspectRatio="xMinYMin meet" x="282.5" y="-202.7"/>
<text text-anchor="start" x="302.5" y="-192.8" font-family="Helvetica,sans-Serif" font-size="11.00" fill="#000000">TH_MTDID</text>
<polygon fill="none" stroke="#000000" points="277.5,-163.7 277.5,-185.7 400.5,-185.7 400.5,-163.7 277.5,-163.7"/>
<image xlink:href="../../images/foreignKeys.png" width="11px" height="12px" preserveAspectRatio="xMinYMin meet" x="282.5" y="-180.7"/>
<text text-anchor="start" x="302.5" y="-170.8" font-family="Helvetica,sans-Serif" font-size="11.00" fill="#000000">U_TH_MTDID</text>
<polygon fill="none" stroke="#000000" points="277.5,-141.7 277.5,-163.7 400.5,-163.7 400.5,-141.7 277.5,-141.7"/>
<image xlink:href="../../images/foreignKeys.png" width="11px" height="12px" preserveAspectRatio="xMinYMin meet" x="282.5" y="-158.7"/>
<text text-anchor="start" x="302.5" y="-148.8" font-family="Helvetica,sans-Serif" font-size="11.00" fill="#000000">K_MTDID</text>
<polygon fill="none" stroke="#000000" points="277.5,-119.7 277.5,-141.7 400.5,-141.7 400.5,-119.7 277.5,-119.7"/>
<image xlink:href="../../images/foreignKeys.png" width="11px" height="12px" preserveAspectRatio="xMinYMin meet" x="282.5" y="-136.7"/>
<text text-anchor="start" x="302.5" y="-126.8" font-family="Helvetica,sans-Serif" font-size="11.00" fill="#000000">ALPH_MTDID</text>
<polygon fill="none" stroke="#000000" points="277.5,-97.7 277.5,-119.7 400.5,-119.7 400.5,-97.7 277.5,-97.7"/>
<image xlink:href="../../images/foreignKeys.png" width="11px" height="12px" preserveAspectRatio="xMinYMin meet" x="282.5" y="-114.7"/>
<text text-anchor="start" x="302.5" y="-104.8" font-family="Helvetica,sans-Serif" font-size="11.00" fill="#000000">BETA_MTDID</text>
<polygon fill="none" stroke="#000000" points="277.5,-75.7 277.5,-97.7 400.5,-97.7 400.5,-75.7 277.5,-75.7"/>
<image xlink:href="../../images/foreignKeys.png" width="11px" height="12px" preserveAspectRatio="xMinYMin meet" x="282.5" y="-92.7"/>
<text text-anchor="start" x="302.5" y="-82.8" font-family="Helvetica,sans-Serif" font-size="11.00" fill="#000000">GMMA_MTDID</text>
<polygon fill="none" stroke="#000000" points="277.5,-56.7 277.5,-75.7 400.5,-75.7 400.5,-56.7 277.5,-56.7"/>
<text text-anchor="start" x="280.5" y="-62.8" font-family="Helvetica,sans-Serif" font-size="11.00" fill="#000000">...</text>
<polygon fill="#ffffff" stroke="transparent" points="277.5,-37.7 277.5,-56.7 316.5,-56.7 316.5,-37.7 277.5,-37.7"/>
<polygon fill="none" stroke="#000000" points="277.5,-37.7 277.5,-56.7 316.5,-56.7 316.5,-37.7 277.5,-37.7"/>
<text text-anchor="start" x="280.5" y="-43.8" font-family="Helvetica,sans-Serif" font-size="11.00" fill="#000000">&lt; 20</text>
<polygon fill="#ffffff" stroke="transparent" points="316.5,-37.7 316.5,-56.7 372.5,-56.7 372.5,-37.7 316.5,-37.7"/>
<polygon fill="none" stroke="#000000" points="316.5,-37.7 316.5,-56.7 372.5,-56.7 372.5,-37.7 316.5,-37.7"/>
<text text-anchor="start" x="324.8807" y="-43.8" font-family="Helvetica,sans-Serif" font-size="11.00" fill="#000000">966 rows</text>
<polygon fill="#ffffff" stroke="transparent" points="372.5,-37.7 372.5,-56.7 400.5,-56.7 400.5,-37.7 372.5,-37.7"/>
<polygon fill="none" stroke="#000000" points="372.5,-37.7 372.5,-56.7 400.5,-56.7 400.5,-37.7 372.5,-37.7"/>
<text text-anchor="start" x="381.9053" y="-43.8" font-family="Helvetica,sans-Serif" font-size="11.00" fill="#000000">1 &gt;</text>
</a>
</g>
</g>
<!-- sed&#45;tl_DataCore&#45;&gt;osl&#45;tl_lum_matID -->
<g id="edge4" class="edge">
<title>sed&#45;tl_DataCore:w&#45;&gt;osl&#45;tl_lum_matID:e</title>
<path fill="none" stroke="#000000" d="M264.4434,-313.7544C199.5021,-393.5096 305.4246,-1122.7 219.5,-1122.7"/>
<polygon fill="#000000" stroke="#000000" points="270.4616,-310.5028 279.2113,-309.8673 273.9808,-308.6014 277.5,-306.7 277.5,-306.7 277.5,-306.7 273.9808,-308.6014 275.7887,-303.5327 270.4616,-310.5028 270.4616,-310.5028"/>
<ellipse fill="none" stroke="#000000" cx="267.6463" cy="-312.0239" rx="3.2" ry="3.2"/>
</g>
</g>
</svg>
