<?xml version="1.0" encoding="UTF-8" standalone="no"?>
<!DOCTYPE svg PUBLIC "-//W3C//DTD SVG 1.1//EN"
 "http://www.w3.org/Graphics/SVG/1.1/DTD/svg11.dtd">
<!-- Generated by graphviz version 2.40.1 (20161225.0304)
 -->
<!-- Title: twoDegreesRelationshipsDiagramImplied Pages: 1 -->
<svg width="898pt" height="708pt"
 viewBox="0.00 0.00 898.00 708.16" xmlns="http://www.w3.org/2000/svg" xmlns:xlink="http://www.w3.org/1999/xlink">
<g id="graph0" class="graph" transform="scale(1 1) rotate(0) translate(4 704.1563)">
<title>twoDegreesRelationshipsDiagramImplied</title>
<polygon fill="#ffffff" stroke="transparent" points="-4,4 -4,-704.1563 894,-704.1563 894,4 -4,4"/>
<text text-anchor="middle" x="72.4936" y="-7.3" font-family="Helvetica,sans-Serif" font-size="11.00" fill="#000000">Generated by SchemaSpy</text>
<!-- cabah_AnalysisUnit -->
<g id="node1" class="node">
<title>cabah_AnalysisUnit</title>
<g id="a_node1"><a xlink:href="../../tables/cabah_AnalysisUnit.html" xlink:title="cabah_AnalysisUnit" target="_top">
<polygon fill="#ffffff" stroke="transparent" points="486,-38.2 486,-99.2 639,-99.2 639,-38.2 486,-38.2"/>
<polygon fill="#f5f5f5" stroke="transparent" points="486.5,-75.7 486.5,-98.7 639.5,-98.7 639.5,-75.7 486.5,-75.7"/>
<polygon fill="none" stroke="#000000" points="486.5,-75.7 486.5,-98.7 639.5,-98.7 639.5,-75.7 486.5,-75.7"/>
<text text-anchor="start" x="491.5" y="-84.3" font-family="Helvetica,sans-Serif" font-weight="bold" font-size="11.00" fill="#000000">cabah_AnalysisUnit</text>
<text text-anchor="start" x="605.0219" y="-83.8" font-family="Helvetica,sans-Serif" font-size="11.00" fill="#000000">[table]</text>
<polygon fill="none" stroke="#000000" points="486.5,-56.7 486.5,-75.7 639.5,-75.7 639.5,-56.7 486.5,-56.7"/>
<text text-anchor="start" x="489.5" y="-62.8" font-family="Helvetica,sans-Serif" font-size="11.00" fill="#000000">...</text>
<polygon fill="#ffffff" stroke="transparent" points="486.5,-37.7 486.5,-56.7 534.5,-56.7 534.5,-37.7 486.5,-37.7"/>
<polygon fill="none" stroke="#000000" points="486.5,-37.7 486.5,-56.7 534.5,-56.7 534.5,-37.7 486.5,-37.7"/>
<text text-anchor="start" x="489.5" y="-43.8" font-family="Helvetica,sans-Serif" font-size="11.00" fill="#000000">&lt; 2</text>
<polygon fill="#ffffff" stroke="transparent" points="534.5,-37.7 534.5,-56.7 613.5,-56.7 613.5,-37.7 534.5,-37.7"/>
<polygon fill="none" stroke="#000000" points="534.5,-37.7 534.5,-56.7 613.5,-56.7 613.5,-37.7 534.5,-37.7"/>
<text text-anchor="start" x="550.594" y="-43.8" font-family="Helvetica,sans-Serif" font-size="11.00" fill="#000000">14.167 rows</text>
<polygon fill="#ffffff" stroke="transparent" points="613.5,-37.7 613.5,-56.7 639.5,-56.7 639.5,-37.7 613.5,-37.7"/>
<polygon fill="none" stroke="#000000" points="613.5,-37.7 613.5,-56.7 639.5,-56.7 639.5,-37.7 613.5,-37.7"/>
<text text-anchor="start" x="630.3862" y="-43.8" font-family="Helvetica,sans-Serif" font-size="11.00" fill="#000000"> &#160;</text>
</a>
</g>
</g>
<!-- cabah_depositID -->
<g id="node2" class="node">
<title>cabah_depositID</title>
<g id="a_node2"><a xlink:href="../../tables/cabah_depositID.html" xlink:title="cabah_depositID" target="_top">
<polygon fill="#ffffff" stroke="transparent" points="11,-205.2 11,-266.2 146,-266.2 146,-205.2 11,-205.2"/>
<polygon fill="#f5f5f5" stroke="transparent" points="11.5,-242.7 11.5,-265.7 146.5,-265.7 146.5,-242.7 11.5,-242.7"/>
<polygon fill="none" stroke="#000000" points="11.5,-242.7 11.5,-265.7 146.5,-265.7 146.5,-242.7 11.5,-242.7"/>
<text text-anchor="start" x="16.5" y="-251.3" font-family="Helvetica,sans-Serif" font-weight="bold" font-size="11.00" fill="#000000">cabah_depositID</text>
<text text-anchor="start" x="112.0219" y="-250.8" font-family="Helvetica,sans-Serif" font-size="11.00" fill="#000000">[table]</text>
<polygon fill="none" stroke="#000000" points="11.5,-223.7 11.5,-242.7 146.5,-242.7 146.5,-223.7 11.5,-223.7"/>
<text text-anchor="start" x="14.5" y="-229.8" font-family="Helvetica,sans-Serif" font-size="11.00" fill="#000000">...</text>
<polygon fill="#ffffff" stroke="transparent" points="11.5,-204.7 11.5,-223.7 53.5,-223.7 53.5,-204.7 11.5,-204.7"/>
<polygon fill="none" stroke="#000000" points="11.5,-204.7 11.5,-223.7 53.5,-223.7 53.5,-204.7 11.5,-204.7"/>
<text text-anchor="start" x="14.5" y="-210.8" font-family="Helvetica,sans-Serif" font-size="11.00" fill="#000000">&lt; 1</text>
<polygon fill="#ffffff" stroke="transparent" points="53.5,-204.7 53.5,-223.7 114.5,-223.7 114.5,-204.7 53.5,-204.7"/>
<polygon fill="none" stroke="#000000" points="53.5,-204.7 53.5,-223.7 114.5,-223.7 114.5,-204.7 53.5,-204.7"/>
<text text-anchor="start" x="66.8807" y="-210.8" font-family="Helvetica,sans-Serif" font-size="11.00" fill="#000000">119 rows</text>
<polygon fill="#ffffff" stroke="transparent" points="114.5,-204.7 114.5,-223.7 146.5,-223.7 146.5,-204.7 114.5,-204.7"/>
<polygon fill="none" stroke="#000000" points="114.5,-204.7 114.5,-223.7 146.5,-223.7 146.5,-204.7 114.5,-204.7"/>
<text text-anchor="start" x="127.9053" y="-210.8" font-family="Helvetica,sans-Serif" font-size="11.00" fill="#000000">3 &gt;</text>
</a>
</g>
</g>
<!-- cabah_AnalysisUnit&#45;&gt;cabah_depositID -->
<g id="edge1" class="edge">
<title>cabah_AnalysisUnit:w&#45;&gt;cabah_depositID:e</title>
<path fill="none" stroke="#000000" d="M471.7493,-65.7689C343.6828,-67.0158 296.4275,-85.7512 190,-167.7 162.4576,-188.9076 181.2613,-232.7 146.5,-232.7"/>
<polygon fill="#000000" stroke="#000000" points="478.5001,-65.7374 486.5168,-69.3 482.5,-65.7187 486.5,-65.7 486.5,-65.7 486.5,-65.7 482.5,-65.7187 486.4832,-62.1 478.5001,-65.7374 478.5001,-65.7374"/>
<ellipse fill="none" stroke="#000000" cx="475.3001" cy="-65.7524" rx="3.2" ry="3.2"/>
</g>
<!-- global_UnitMaster -->
<g id="node3" class="node">
<title>global_UnitMaster</title>
<g id="a_node3"><a xlink:href="../../tables/global_UnitMaster.html" xlink:title="global_UnitMaster" target="_top">
<polygon fill="#ffffff" stroke="transparent" points="198,-178.2 198,-437.2 341,-437.2 341,-178.2 198,-178.2"/>
<polygon fill="#f5f5f5" stroke="transparent" points="198.5,-413.7 198.5,-436.7 341.5,-436.7 341.5,-413.7 198.5,-413.7"/>
<polygon fill="none" stroke="#000000" points="198.5,-413.7 198.5,-436.7 341.5,-436.7 341.5,-413.7 198.5,-413.7"/>
<text text-anchor="start" x="203.5" y="-422.3" font-family="Helvetica,sans-Serif" font-weight="bold" font-size="11.00" fill="#000000">global_UnitMaster</text>
<text text-anchor="start" x="307.0219" y="-421.8" font-family="Helvetica,sans-Serif" font-size="11.00" fill="#000000">[table]</text>
<polygon fill="none" stroke="#000000" points="198.5,-391.7 198.5,-413.7 341.5,-413.7 341.5,-391.7 198.5,-391.7"/>
<image xlink:href="../../images/primaryKeys.png" width="11px" height="12px" preserveAspectRatio="xMinYMin meet" x="203.5" y="-408.7"/>
<text text-anchor="start" x="227.5" y="-398.8" font-family="Helvetica,sans-Serif" font-size="11.00" fill="#000000">UNITID</text>
<polygon fill="none" stroke="#000000" points="198.5,-369.7 198.5,-391.7 341.5,-391.7 341.5,-369.7 198.5,-369.7"/>
<image xlink:href="../../images/foreignKeys.png" width="11px" height="12px" preserveAspectRatio="xMinYMin meet" x="203.5" y="-386.7"/>
<text text-anchor="start" x="227.5" y="-376.8" font-family="Helvetica,sans-Serif" font-size="11.00" fill="#000000">SITEID</text>
<polygon fill="#ffffff" stroke="transparent" points="198.5,-347.7 198.5,-369.7 341.5,-369.7 341.5,-347.7 198.5,-347.7"/>
<polygon fill="none" stroke="#000000" points="198.5,-347.7 198.5,-369.7 341.5,-369.7 341.5,-347.7 198.5,-347.7"/>
<text text-anchor="start" x="227.5" y="-354.8" font-family="Helvetica,sans-Serif" font-size="11.00" fill="#000000">UNITHANDLE</text>
<polygon fill="none" stroke="#000000" points="198.5,-325.7 198.5,-347.7 341.5,-347.7 341.5,-325.7 198.5,-325.7"/>
<image xlink:href="../../images/foreignKeys.png" width="11px" height="12px" preserveAspectRatio="xMinYMin meet" x="203.5" y="-342.7"/>
<text text-anchor="start" x="227.5" y="-332.8" font-family="Helvetica,sans-Serif" font-size="11.00" fill="#000000">UNITTYPEID</text>
<polygon fill="none" stroke="#000000" points="198.5,-303.7 198.5,-325.7 341.5,-325.7 341.5,-303.7 198.5,-303.7"/>
<image xlink:href="../../images/foreignKeys.png" width="11px" height="12px" preserveAspectRatio="xMinYMin meet" x="203.5" y="-320.7"/>
<text text-anchor="start" x="227.5" y="-310.8" font-family="Helvetica,sans-Serif" font-size="11.00" fill="#000000">COLLECTID</text>
<polygon fill="none" stroke="#000000" points="198.5,-281.7 198.5,-303.7 341.5,-303.7 341.5,-281.7 198.5,-281.7"/>
<image xlink:href="../../images/foreignKeys.png" width="11px" height="12px" preserveAspectRatio="xMinYMin meet" x="203.5" y="-298.7"/>
<text text-anchor="start" x="227.5" y="-288.8" font-family="Helvetica,sans-Serif" font-size="11.00" fill="#000000">DEPOSITID</text>
<polygon fill="#ffffff" stroke="transparent" points="198.5,-259.7 198.5,-281.7 341.5,-281.7 341.5,-259.7 198.5,-259.7"/>
<polygon fill="none" stroke="#000000" points="198.5,-259.7 198.5,-281.7 341.5,-281.7 341.5,-259.7 198.5,-259.7"/>
<text text-anchor="start" x="227.5" y="-266.8" font-family="Helvetica,sans-Serif" font-size="11.00" fill="#000000">NEO_HANDLE</text>
<polygon fill="none" stroke="#000000" points="198.5,-237.7 198.5,-259.7 341.5,-259.7 341.5,-237.7 198.5,-237.7"/>
<image xlink:href="../../images/foreignKeys.png" width="11px" height="12px" preserveAspectRatio="xMinYMin meet" x="203.5" y="-254.7"/>
<text text-anchor="start" x="227.5" y="-244.8" font-family="Helvetica,sans-Serif" font-size="11.00" fill="#000000">UNIT_REF</text>
<polygon fill="#ffffff" stroke="transparent" points="198.5,-215.7 198.5,-237.7 341.5,-237.7 341.5,-215.7 198.5,-215.7"/>
<polygon fill="none" stroke="#000000" points="198.5,-215.7 198.5,-237.7 341.5,-237.7 341.5,-215.7 198.5,-215.7"/>
<text text-anchor="start" x="227.5" y="-222.8" font-family="Helvetica,sans-Serif" font-size="11.00" fill="#000000">NEO_UNITID</text>
<polygon fill="none" stroke="#000000" points="198.5,-196.7 198.5,-215.7 341.5,-215.7 341.5,-196.7 198.5,-196.7"/>
<text text-anchor="start" x="201.5" y="-202.8" font-family="Helvetica,sans-Serif" font-size="11.00" fill="#000000">...</text>
<polygon fill="#ffffff" stroke="transparent" points="198.5,-177.7 198.5,-196.7 244.5,-196.7 244.5,-177.7 198.5,-177.7"/>
<polygon fill="none" stroke="#000000" points="198.5,-177.7 198.5,-196.7 244.5,-196.7 244.5,-177.7 198.5,-177.7"/>
<text text-anchor="start" x="201.5" y="-183.8" font-family="Helvetica,sans-Serif" font-size="11.00" fill="#000000">&lt; 5</text>
<polygon fill="#ffffff" stroke="transparent" points="244.5,-177.7 244.5,-196.7 307.5,-196.7 307.5,-177.7 244.5,-177.7"/>
<polygon fill="none" stroke="#000000" points="244.5,-177.7 244.5,-196.7 307.5,-196.7 307.5,-177.7 244.5,-177.7"/>
<text text-anchor="start" x="259.8807" y="-183.8" font-family="Helvetica,sans-Serif" font-size="11.00" fill="#000000">597 rows</text>
<polygon fill="#ffffff" stroke="transparent" points="307.5,-177.7 307.5,-196.7 341.5,-196.7 341.5,-177.7 307.5,-177.7"/>
<polygon fill="none" stroke="#000000" points="307.5,-177.7 307.5,-196.7 341.5,-196.7 341.5,-177.7 307.5,-177.7"/>
<text text-anchor="start" x="322.9053" y="-183.8" font-family="Helvetica,sans-Serif" font-size="11.00" fill="#000000">8 &gt;</text>
</a>
</g>
</g>
<!-- cabah_AnalysisUnit&#45;&gt;global_UnitMaster -->
<g id="edge2" class="edge">
<title>cabah_AnalysisUnit:w&#45;&gt;global_UnitMaster:e</title>
<path fill="none" stroke="#000000" d="M471.8757,-66.0375C431.4004,-68.0807 413.0363,-79.8579 382,-113.7 345.9407,-153.0192 394.8505,-226.7 341.5,-226.7"/>
<polygon fill="#000000" stroke="#000000" points="478.5021,-65.8847 486.5831,-69.299 482.5011,-65.7923 486.5,-65.7 486.5,-65.7 486.5,-65.7 482.5011,-65.7923 486.4169,-62.101 478.5021,-65.8847 478.5021,-65.8847"/>
<ellipse fill="none" stroke="#000000" cx="475.303" cy="-65.9585" rx="3.2" ry="3.2"/>
</g>
<!-- global_UnitMaster&#45;&gt;cabah_depositID -->
<g id="edge6" class="edge">
<title>global_UnitMaster:w&#45;&gt;cabah_depositID:e</title>
<path fill="none" stroke="#000000" d="M184.5313,-287.9919C168.0064,-273.8475 175.7228,-232.7 146.5,-232.7"/>
<polygon fill="#000000" stroke="#000000" points="190.919,-290.1448 197.3502,-296.1114 194.7095,-291.4224 198.5,-292.7 198.5,-292.7 198.5,-292.7 194.7095,-291.4224 199.6498,-289.2886 190.919,-290.1448 190.919,-290.1448"/>
<ellipse fill="none" stroke="#000000" cx="187.8866" cy="-289.1228" rx="3.2" ry="3.2"/>
</g>
<!-- cabah_col_mtdID -->
<g id="node6" class="node">
<title>cabah_col_mtdID</title>
<g id="a_node6"><a xlink:href="../../tables/cabah_col_mtdID.html" xlink:title="cabah_col_mtdID" target="_top">
<polygon fill="#ffffff" stroke="transparent" points="9.5,-287.2 9.5,-348.2 147.5,-348.2 147.5,-287.2 9.5,-287.2"/>
<polygon fill="#f5f5f5" stroke="transparent" points="9.5,-324.7 9.5,-347.7 147.5,-347.7 147.5,-324.7 9.5,-324.7"/>
<polygon fill="none" stroke="#000000" points="9.5,-324.7 9.5,-347.7 147.5,-347.7 147.5,-324.7 9.5,-324.7"/>
<text text-anchor="start" x="14.5" y="-333.3" font-family="Helvetica,sans-Serif" font-weight="bold" font-size="11.00" fill="#000000">cabah_col_mtdID</text>
<text text-anchor="start" x="113.0219" y="-332.8" font-family="Helvetica,sans-Serif" font-size="11.00" fill="#000000">[table]</text>
<polygon fill="none" stroke="#000000" points="9.5,-305.7 9.5,-324.7 147.5,-324.7 147.5,-305.7 9.5,-305.7"/>
<text text-anchor="start" x="12.5" y="-311.8" font-family="Helvetica,sans-Serif" font-size="11.00" fill="#000000">...</text>
<polygon fill="#ffffff" stroke="transparent" points="9.5,-286.7 9.5,-305.7 56.5,-305.7 56.5,-286.7 9.5,-286.7"/>
<polygon fill="none" stroke="#000000" points="9.5,-286.7 9.5,-305.7 56.5,-305.7 56.5,-286.7 9.5,-286.7"/>
<text text-anchor="start" x="12.5" y="-292.8" font-family="Helvetica,sans-Serif" font-size="11.00" fill="#000000">&lt; 1</text>
<polygon fill="#ffffff" stroke="transparent" points="56.5,-286.7 56.5,-305.7 113.5,-305.7 113.5,-286.7 56.5,-286.7"/>
<polygon fill="none" stroke="#000000" points="56.5,-286.7 56.5,-305.7 113.5,-305.7 113.5,-286.7 56.5,-286.7"/>
<text text-anchor="start" x="71.9956" y="-292.8" font-family="Helvetica,sans-Serif" font-size="11.00" fill="#000000">44 rows</text>
<polygon fill="#ffffff" stroke="transparent" points="113.5,-286.7 113.5,-305.7 147.5,-305.7 147.5,-286.7 113.5,-286.7"/>
<polygon fill="none" stroke="#000000" points="113.5,-286.7 113.5,-305.7 147.5,-305.7 147.5,-286.7 113.5,-286.7"/>
<text text-anchor="start" x="128.9053" y="-292.8" font-family="Helvetica,sans-Serif" font-size="11.00" fill="#000000">7 &gt;</text>
</a>
</g>
</g>
<!-- global_UnitMaster&#45;&gt;cabah_col_mtdID -->
<g id="edge5" class="edge">
<title>global_UnitMaster:w&#45;&gt;cabah_col_mtdID:e</title>
<path fill="none" stroke="#000000" d="M183.776,-314.7C171.7815,-314.7 164.3229,-314.7 147.5,-314.7"/>
<polygon fill="#000000" stroke="#000000" points="190.5,-314.7001 198.5,-318.3 194.5,-314.7 198.5,-314.7 198.5,-314.7 198.5,-314.7 194.5,-314.7 198.5,-311.1 190.5,-314.7001 190.5,-314.7001"/>
<ellipse fill="none" stroke="#000000" cx="187.3" cy="-314.7001" rx="3.2" ry="3.2"/>
</g>
<!-- global_SiteMaster -->
<g id="node7" class="node">
<title>global_SiteMaster</title>
<g id="a_node7"><a xlink:href="../../tables/global_SiteMaster.html" xlink:title="global_SiteMaster" target="_top">
<polygon fill="#ffffff" stroke="transparent" points="8,-594.2 8,-655.2 149,-655.2 149,-594.2 8,-594.2"/>
<polygon fill="#f5f5f5" stroke="transparent" points="8.5,-631.7 8.5,-654.7 149.5,-654.7 149.5,-631.7 8.5,-631.7"/>
<polygon fill="none" stroke="#000000" points="8.5,-631.7 8.5,-654.7 149.5,-654.7 149.5,-631.7 8.5,-631.7"/>
<text text-anchor="start" x="13.5" y="-640.3" font-family="Helvetica,sans-Serif" font-weight="bold" font-size="11.00" fill="#000000">global_SiteMaster</text>
<text text-anchor="start" x="115.0219" y="-639.8" font-family="Helvetica,sans-Serif" font-size="11.00" fill="#000000">[table]</text>
<polygon fill="none" stroke="#000000" points="8.5,-612.7 8.5,-631.7 149.5,-631.7 149.5,-612.7 8.5,-612.7"/>
<text text-anchor="start" x="11.5" y="-618.8" font-family="Helvetica,sans-Serif" font-size="11.00" fill="#000000">...</text>
<polygon fill="#ffffff" stroke="transparent" points="8.5,-593.7 8.5,-612.7 43.5,-612.7 43.5,-593.7 8.5,-593.7"/>
<polygon fill="none" stroke="#000000" points="8.5,-593.7 8.5,-612.7 43.5,-612.7 43.5,-593.7 8.5,-593.7"/>
<text text-anchor="start" x="11.5" y="-599.8" font-family="Helvetica,sans-Serif" font-size="11.00" fill="#000000">&lt; 8</text>
<polygon fill="#ffffff" stroke="transparent" points="43.5,-593.7 43.5,-612.7 115.5,-612.7 115.5,-593.7 43.5,-593.7"/>
<polygon fill="none" stroke="#000000" points="43.5,-593.7 43.5,-612.7 115.5,-612.7 115.5,-593.7 43.5,-593.7"/>
<text text-anchor="start" x="52.594" y="-599.8" font-family="Helvetica,sans-Serif" font-size="11.00" fill="#000000">23.782 rows</text>
<polygon fill="#ffffff" stroke="transparent" points="115.5,-593.7 115.5,-612.7 149.5,-612.7 149.5,-593.7 115.5,-593.7"/>
<polygon fill="none" stroke="#000000" points="115.5,-593.7 115.5,-612.7 149.5,-612.7 149.5,-593.7 115.5,-593.7"/>
<text text-anchor="start" x="124.7904" y="-599.8" font-family="Helvetica,sans-Serif" font-size="11.00" fill="#000000">23 &gt;</text>
</a>
</g>
</g>
<!-- global_UnitMaster&#45;&gt;global_SiteMaster -->
<g id="edge7" class="edge">
<title>global_UnitMaster:w&#45;&gt;global_SiteMaster:e</title>
<path fill="none" stroke="#000000" d="M183.9331,-382.5013C105.7037,-404.5551 253.2521,-621.7 149.5,-621.7"/>
<polygon fill="#000000" stroke="#000000" points="190.5605,-381.6818 198.9418,-384.2728 194.5302,-381.1909 198.5,-380.7 198.5,-380.7 198.5,-380.7 194.5302,-381.1909 198.0582,-377.1272 190.5605,-381.6818 190.5605,-381.6818"/>
<ellipse fill="none" stroke="#000000" cx="187.3847" cy="-382.0746" rx="3.2" ry="3.2"/>
</g>
<!-- global_RefCore -->
<g id="node8" class="node">
<title>global_RefCore</title>
<g id="a_node8"><a xlink:href="../../tables/global_RefCore.html" xlink:title="global_RefCore" target="_top">
<polygon fill="#ffffff" stroke="transparent" points="15,-123.2 15,-184.2 142,-184.2 142,-123.2 15,-123.2"/>
<polygon fill="#f5f5f5" stroke="transparent" points="15.5,-160.7 15.5,-183.7 142.5,-183.7 142.5,-160.7 15.5,-160.7"/>
<polygon fill="none" stroke="#000000" points="15.5,-160.7 15.5,-183.7 142.5,-183.7 142.5,-160.7 15.5,-160.7"/>
<text text-anchor="start" x="20.5" y="-169.3" font-family="Helvetica,sans-Serif" font-weight="bold" font-size="11.00" fill="#000000">global_RefCore</text>
<text text-anchor="start" x="108.0219" y="-168.8" font-family="Helvetica,sans-Serif" font-size="11.00" fill="#000000">[table]</text>
<polygon fill="none" stroke="#000000" points="15.5,-141.7 15.5,-160.7 142.5,-160.7 142.5,-141.7 15.5,-141.7"/>
<text text-anchor="start" x="18.5" y="-147.8" font-family="Helvetica,sans-Serif" font-size="11.00" fill="#000000">...</text>
<polygon fill="#ffffff" stroke="transparent" points="15.5,-122.7 15.5,-141.7 46.5,-141.7 46.5,-122.7 15.5,-122.7"/>
<polygon fill="none" stroke="#000000" points="15.5,-122.7 15.5,-141.7 46.5,-141.7 46.5,-122.7 15.5,-122.7"/>
<text text-anchor="start" x="18.5" y="-128.8" font-family="Helvetica,sans-Serif" font-size="11.00" fill="#000000">&lt; 5</text>
<polygon fill="#ffffff" stroke="transparent" points="46.5,-122.7 46.5,-141.7 110.5,-141.7 110.5,-122.7 46.5,-122.7"/>
<polygon fill="none" stroke="#000000" points="46.5,-122.7 46.5,-141.7 110.5,-141.7 110.5,-122.7 46.5,-122.7"/>
<text text-anchor="start" x="53.7089" y="-128.8" font-family="Helvetica,sans-Serif" font-size="11.00" fill="#000000">3.943 rows</text>
<polygon fill="#ffffff" stroke="transparent" points="110.5,-122.7 110.5,-141.7 142.5,-141.7 142.5,-122.7 110.5,-122.7"/>
<polygon fill="none" stroke="#000000" points="110.5,-122.7 110.5,-141.7 142.5,-141.7 142.5,-122.7 110.5,-122.7"/>
<text text-anchor="start" x="117.7904" y="-128.8" font-family="Helvetica,sans-Serif" font-size="11.00" fill="#000000">37 &gt;</text>
</a>
</g>
</g>
<!-- global_UnitMaster&#45;&gt;global_RefCore -->
<g id="edge8" class="edge">
<title>global_UnitMaster:w&#45;&gt;global_RefCore:e</title>
<path fill="none" stroke="#000000" d="M184.4528,-244.978C157.4271,-227.0771 186.7864,-150.7 142.5,-150.7"/>
<polygon fill="#000000" stroke="#000000" points="190.7669,-246.6509 197.5779,-252.1799 194.6334,-247.6755 198.5,-248.7 198.5,-248.7 198.5,-248.7 194.6334,-247.6755 199.4221,-245.2201 190.7669,-246.6509 190.7669,-246.6509"/>
<ellipse fill="none" stroke="#000000" cx="187.6736" cy="-245.8313" rx="3.2" ry="3.2"/>
</g>
<!-- cabah_unittypeID -->
<g id="node9" class="node">
<title>cabah_unittypeID</title>
<g id="a_node9"><a xlink:href="../../tables/cabah_unittypeID.html" xlink:title="cabah_unittypeID" target="_top">
<polygon fill="#ffffff" stroke="transparent" points="9,-369.2 9,-430.2 148,-430.2 148,-369.2 9,-369.2"/>
<polygon fill="#f5f5f5" stroke="transparent" points="9.5,-406.7 9.5,-429.7 148.5,-429.7 148.5,-406.7 9.5,-406.7"/>
<polygon fill="none" stroke="#000000" points="9.5,-406.7 9.5,-429.7 148.5,-429.7 148.5,-406.7 9.5,-406.7"/>
<text text-anchor="start" x="14.5" y="-415.3" font-family="Helvetica,sans-Serif" font-weight="bold" font-size="11.00" fill="#000000">cabah_unittypeID</text>
<text text-anchor="start" x="114.0219" y="-414.8" font-family="Helvetica,sans-Serif" font-size="11.00" fill="#000000">[table]</text>
<polygon fill="none" stroke="#000000" points="9.5,-387.7 9.5,-406.7 148.5,-406.7 148.5,-387.7 9.5,-387.7"/>
<text text-anchor="start" x="12.5" y="-393.8" font-family="Helvetica,sans-Serif" font-size="11.00" fill="#000000">...</text>
<polygon fill="#ffffff" stroke="transparent" points="9.5,-368.7 9.5,-387.7 52.5,-387.7 52.5,-368.7 9.5,-368.7"/>
<polygon fill="none" stroke="#000000" points="9.5,-368.7 9.5,-387.7 52.5,-387.7 52.5,-368.7 9.5,-368.7"/>
<text text-anchor="start" x="12.5" y="-374.8" font-family="Helvetica,sans-Serif" font-size="11.00" fill="#000000"> &#160;</text>
<polygon fill="#ffffff" stroke="transparent" points="52.5,-368.7 52.5,-387.7 111.5,-387.7 111.5,-368.7 52.5,-368.7"/>
<polygon fill="none" stroke="#000000" points="52.5,-368.7 52.5,-387.7 111.5,-387.7 111.5,-368.7 52.5,-368.7"/>
<text text-anchor="start" x="69.9956" y="-374.8" font-family="Helvetica,sans-Serif" font-size="11.00" fill="#000000">16 rows</text>
<polygon fill="#ffffff" stroke="transparent" points="111.5,-368.7 111.5,-387.7 148.5,-387.7 148.5,-368.7 111.5,-368.7"/>
<polygon fill="none" stroke="#000000" points="111.5,-368.7 111.5,-387.7 148.5,-387.7 148.5,-368.7 111.5,-368.7"/>
<text text-anchor="start" x="129.9053" y="-374.8" font-family="Helvetica,sans-Serif" font-size="11.00" fill="#000000">1 &gt;</text>
</a>
</g>
</g>
<!-- global_UnitMaster&#45;&gt;cabah_unittypeID -->
<g id="edge9" class="edge">
<title>global_UnitMaster:w&#45;&gt;cabah_unittypeID:e</title>
<path fill="none" stroke="#000000" d="M184.8495,-341.4081C168.8657,-355.5525 177.2461,-396.7 148.5,-396.7"/>
<polygon fill="#000000" stroke="#000000" points="190.9372,-339.3085 199.6738,-340.1033 194.7186,-338.0042 198.5,-336.7 198.5,-336.7 198.5,-336.7 194.7186,-338.0042 197.3262,-333.2967 190.9372,-339.3085 190.9372,-339.3085"/>
<ellipse fill="none" stroke="#000000" cx="187.9121" cy="-340.3519" rx="3.2" ry="3.2"/>
</g>
<!-- char_Sample -->
<g id="node4" class="node">
<title>char_Sample</title>
<g id="a_node4"><a xlink:href="../../tables/char_Sample.html" xlink:title="char_Sample" target="_top">
<polygon fill="#ffffff" stroke="transparent" points="506,-230.2 506,-291.2 619,-291.2 619,-230.2 506,-230.2"/>
<polygon fill="#f5f5f5" stroke="transparent" points="506.5,-267.7 506.5,-290.7 619.5,-290.7 619.5,-267.7 506.5,-267.7"/>
<polygon fill="none" stroke="#000000" points="506.5,-267.7 506.5,-290.7 619.5,-290.7 619.5,-267.7 506.5,-267.7"/>
<text text-anchor="start" x="511.5" y="-276.3" font-family="Helvetica,sans-Serif" font-weight="bold" font-size="11.00" fill="#000000">char_Sample</text>
<text text-anchor="start" x="585.0219" y="-275.8" font-family="Helvetica,sans-Serif" font-size="11.00" fill="#000000">[table]</text>
<polygon fill="none" stroke="#000000" points="506.5,-248.7 506.5,-267.7 619.5,-267.7 619.5,-248.7 506.5,-248.7"/>
<text text-anchor="start" x="509.5" y="-254.8" font-family="Helvetica,sans-Serif" font-size="11.00" fill="#000000">...</text>
<polygon fill="#ffffff" stroke="transparent" points="506.5,-229.7 506.5,-248.7 530.5,-248.7 530.5,-229.7 506.5,-229.7"/>
<polygon fill="none" stroke="#000000" points="506.5,-229.7 506.5,-248.7 530.5,-248.7 530.5,-229.7 506.5,-229.7"/>
<text text-anchor="start" x="509.5" y="-235.8" font-family="Helvetica,sans-Serif" font-size="11.00" fill="#000000">&lt; 1</text>
<polygon fill="#ffffff" stroke="transparent" points="530.5,-229.7 530.5,-248.7 596.5,-248.7 596.5,-229.7 530.5,-229.7"/>
<polygon fill="none" stroke="#000000" points="530.5,-229.7 530.5,-248.7 596.5,-248.7 596.5,-229.7 530.5,-229.7"/>
<text text-anchor="start" x="533.594" y="-235.8" font-family="Helvetica,sans-Serif" font-size="11.00" fill="#000000">41.793 rows</text>
<polygon fill="#ffffff" stroke="transparent" points="596.5,-229.7 596.5,-248.7 619.5,-248.7 619.5,-229.7 596.5,-229.7"/>
<polygon fill="none" stroke="#000000" points="596.5,-229.7 596.5,-248.7 619.5,-248.7 619.5,-229.7 596.5,-229.7"/>
<text text-anchor="start" x="600.9053" y="-235.8" font-family="Helvetica,sans-Serif" font-size="11.00" fill="#000000">2 &gt;</text>
</a>
</g>
</g>
<!-- char_Sample&#45;&gt;global_UnitMaster -->
<g id="edge3" class="edge">
<title>char_Sample:w&#45;&gt;global_UnitMaster:e</title>
<path fill="none" stroke="#000000" d="M491.8054,-257.8012C443.543,-258.581 420.6308,-264.6455 382,-301.7 347.0973,-335.1786 389.8633,-402.7 341.5,-402.7"/>
<polygon fill="#000000" stroke="#000000" points="498.5002,-257.7552 506.5248,-261.2999 502.5001,-257.7276 506.5,-257.7 506.5,-257.7 506.5,-257.7 502.5001,-257.7276 506.4752,-254.1001 498.5002,-257.7552 498.5002,-257.7552"/>
<ellipse fill="none" stroke="#000000" cx="495.3003" cy="-257.7772" rx="3.2" ry="3.2"/>
</g>
<!-- global_DataSetMaster -->
<g id="node5" class="node">
<title>global_DataSetMaster</title>
<g id="a_node5"><a xlink:href="../../tables/global_DataSetMaster.html" xlink:title="global_DataSetMaster" target="_top">
<polygon fill="#ffffff" stroke="transparent" points="480.5,-148.2 480.5,-209.2 644.5,-209.2 644.5,-148.2 480.5,-148.2"/>
<polygon fill="#f5f5f5" stroke="transparent" points="480.5,-185.7 480.5,-208.7 644.5,-208.7 644.5,-185.7 480.5,-185.7"/>
<polygon fill="none" stroke="#000000" points="480.5,-185.7 480.5,-208.7 644.5,-208.7 644.5,-185.7 480.5,-185.7"/>
<text text-anchor="start" x="485.5" y="-194.3" font-family="Helvetica,sans-Serif" font-weight="bold" font-size="11.00" fill="#000000">global_DataSetMaster</text>
<text text-anchor="start" x="610.0219" y="-193.8" font-family="Helvetica,sans-Serif" font-size="11.00" fill="#000000">[table]</text>
<polygon fill="none" stroke="#000000" points="480.5,-166.7 480.5,-185.7 644.5,-185.7 644.5,-166.7 480.5,-166.7"/>
<text text-anchor="start" x="483.5" y="-172.8" font-family="Helvetica,sans-Serif" font-size="11.00" fill="#000000">...</text>
<polygon fill="#ffffff" stroke="transparent" points="480.5,-147.7 480.5,-166.7 537.5,-166.7 537.5,-147.7 480.5,-147.7"/>
<polygon fill="none" stroke="#000000" points="480.5,-147.7 480.5,-166.7 537.5,-166.7 537.5,-147.7 480.5,-147.7"/>
<text text-anchor="start" x="483.5" y="-153.8" font-family="Helvetica,sans-Serif" font-size="11.00" fill="#000000">&lt; 3</text>
<polygon fill="#ffffff" stroke="transparent" points="537.5,-147.7 537.5,-166.7 605.5,-166.7 605.5,-147.7 537.5,-147.7"/>
<polygon fill="none" stroke="#000000" points="537.5,-147.7 537.5,-166.7 605.5,-166.7 605.5,-147.7 537.5,-147.7"/>
<text text-anchor="start" x="557.8807" y="-153.8" font-family="Helvetica,sans-Serif" font-size="11.00" fill="#000000">148 rows</text>
<polygon fill="#ffffff" stroke="transparent" points="605.5,-147.7 605.5,-166.7 644.5,-166.7 644.5,-147.7 605.5,-147.7"/>
<polygon fill="none" stroke="#000000" points="605.5,-147.7 605.5,-166.7 644.5,-166.7 644.5,-147.7 605.5,-147.7"/>
<text text-anchor="start" x="625.9053" y="-153.8" font-family="Helvetica,sans-Serif" font-size="11.00" fill="#000000">1 &gt;</text>
</a>
</g>
</g>
<!-- global_DataSetMaster&#45;&gt;global_UnitMaster -->
<g id="edge4" class="edge">
<title>global_DataSetMaster:w&#45;&gt;global_UnitMaster:e</title>
<path fill="none" stroke="#000000" d="M465.7121,-175.9764C428.0038,-177.5601 408.9919,-186.6098 382,-219.7 329.3462,-284.2499 424.8013,-402.7 341.5,-402.7"/>
<polygon fill="#000000" stroke="#000000" points="472.5014,-175.8496 480.5673,-179.2994 476.5007,-175.7748 480.5,-175.7 480.5,-175.7 480.5,-175.7 476.5007,-175.7748 480.4327,-172.1006 472.5014,-175.8496 472.5014,-175.8496"/>
<ellipse fill="none" stroke="#000000" cx="469.302" cy="-175.9094" rx="3.2" ry="3.2"/>
</g>
<!-- neo_chronologies -->
<g id="node10" class="node">
<title>neo_chronologies</title>
<g id="a_node10"><a xlink:href="../../tables/neo_chronologies.html" xlink:title="neo_chronologies" target="_top">
<polygon fill="#ffffff" stroke="transparent" points="491.5,-512.2 491.5,-573.2 633.5,-573.2 633.5,-512.2 491.5,-512.2"/>
<polygon fill="#f5f5f5" stroke="transparent" points="491.5,-549.7 491.5,-572.7 633.5,-572.7 633.5,-549.7 491.5,-549.7"/>
<polygon fill="none" stroke="#000000" points="491.5,-549.7 491.5,-572.7 633.5,-572.7 633.5,-549.7 491.5,-549.7"/>
<text text-anchor="start" x="496.5" y="-558.3" font-family="Helvetica,sans-Serif" font-weight="bold" font-size="11.00" fill="#000000">neo_chronologies</text>
<text text-anchor="start" x="599.0219" y="-557.8" font-family="Helvetica,sans-Serif" font-size="11.00" fill="#000000">[table]</text>
<polygon fill="none" stroke="#000000" points="491.5,-530.7 491.5,-549.7 633.5,-549.7 633.5,-530.7 491.5,-530.7"/>
<text text-anchor="start" x="494.5" y="-536.8" font-family="Helvetica,sans-Serif" font-size="11.00" fill="#000000">...</text>
<polygon fill="#ffffff" stroke="transparent" points="491.5,-511.7 491.5,-530.7 534.5,-530.7 534.5,-511.7 491.5,-511.7"/>
<polygon fill="none" stroke="#000000" points="491.5,-511.7 491.5,-530.7 534.5,-530.7 534.5,-511.7 491.5,-511.7"/>
<text text-anchor="start" x="494.5" y="-517.8" font-family="Helvetica,sans-Serif" font-size="11.00" fill="#000000">&lt; 4</text>
<polygon fill="#ffffff" stroke="transparent" points="534.5,-511.7 534.5,-530.7 610.5,-530.7 610.5,-511.7 534.5,-511.7"/>
<polygon fill="none" stroke="#000000" points="534.5,-511.7 534.5,-530.7 610.5,-530.7 610.5,-511.7 534.5,-511.7"/>
<text text-anchor="start" x="547.594" y="-517.8" font-family="Helvetica,sans-Serif" font-size="11.00" fill="#000000">31.641 rows</text>
<polygon fill="#ffffff" stroke="transparent" points="610.5,-511.7 610.5,-530.7 633.5,-530.7 633.5,-511.7 610.5,-511.7"/>
<polygon fill="none" stroke="#000000" points="610.5,-511.7 610.5,-530.7 633.5,-530.7 633.5,-511.7 610.5,-511.7"/>
<text text-anchor="start" x="624.3862" y="-517.8" font-family="Helvetica,sans-Serif" font-size="11.00" fill="#000000"> &#160;</text>
</a>
</g>
</g>
<!-- neo_chronologies&#45;&gt;global_UnitMaster -->
<g id="edge10" class="edge">
<title>neo_chronologies:w&#45;&gt;global_UnitMaster:e</title>
<path fill="none" stroke="#000000" stroke-dasharray="5,2" d="M476.9796,-537.9731C435.7183,-532.8608 415.6756,-527.5952 382,-495.7 347.4845,-463.0093 389.0395,-396.7 341.5,-402.7"/>
<polygon fill="#000000" stroke="#000000" points="483.556,-538.7552 491.0748,-543.2748 487.528,-539.2276 491.5,-539.7 491.5,-539.7 491.5,-539.7 487.528,-539.2276 491.9252,-536.1252 483.556,-538.7552 483.556,-538.7552"/>
<ellipse fill="none" stroke="#000000" cx="480.3784" cy="-538.3772" rx="3.2" ry="3.2"/>
</g>
<!-- neo_chronologies&#45;&gt;global_UnitMaster -->
<g id="edge11" class="edge">
<title>neo_chronologies:w&#45;&gt;global_UnitMaster:e</title>
<path fill="none" stroke="#000000" d="M476.9796,-541.4837C435.7183,-545.8608 415.6756,-540.5952 382,-508.7 347.4845,-476.0093 389.0395,-409.7 341.5,-402.7"/>
<polygon fill="#000000" stroke="#000000" points="483.5597,-540.6755 491.939,-543.2731 487.5298,-540.1877 491.5,-539.7 491.5,-539.7 491.5,-539.7 487.5298,-540.1877 491.061,-536.1269 483.5597,-540.6755 483.5597,-540.6755"/>
<ellipse fill="none" stroke="#000000" cx="480.3836" cy="-541.0657" rx="3.2" ry="3.2"/>
</g>
<!-- sahulchar -->
<g id="node11" class="node">
<title>sahulchar</title>
<g id="a_node11"><a xlink:href="../../tables/sahulchar.html" xlink:title="sahulchar" target="_top">
<polygon fill="#ffffff" stroke="transparent" points="784,-230.2 784,-291.2 882,-291.2 882,-230.2 784,-230.2"/>
<polygon fill="#f5f5f5" stroke="transparent" points="784,-267.7 784,-290.7 882,-290.7 882,-267.7 784,-267.7"/>
<polygon fill="none" stroke="#000000" points="784,-267.7 784,-290.7 882,-290.7 882,-267.7 784,-267.7"/>
<text text-anchor="start" x="789" y="-276.3" font-family="Helvetica,sans-Serif" font-weight="bold" font-size="11.00" fill="#000000">sahulchar</text>
<text text-anchor="start" x="847.0437" y="-275.8" font-family="Helvetica,sans-Serif" font-size="11.00" fill="#000000">[table]</text>
<polygon fill="none" stroke="#000000" points="784,-248.7 784,-267.7 882,-267.7 882,-248.7 784,-248.7"/>
<text text-anchor="start" x="787" y="-254.8" font-family="Helvetica,sans-Serif" font-size="11.00" fill="#000000">...</text>
<polygon fill="#ffffff" stroke="transparent" points="784,-229.7 784,-248.7 805,-248.7 805,-229.7 784,-229.7"/>
<polygon fill="none" stroke="#000000" points="784,-229.7 784,-248.7 805,-248.7 805,-229.7 784,-229.7"/>
<text text-anchor="start" x="786.7026" y="-235.8" font-family="Helvetica,sans-Serif" font-size="11.00" fill="#000000">&lt; 6</text>
<polygon fill="#ffffff" stroke="transparent" points="805,-229.7 805,-248.7 870,-248.7 870,-229.7 805,-229.7"/>
<polygon fill="none" stroke="#000000" points="805,-229.7 805,-248.7 870,-248.7 870,-229.7 805,-229.7"/>
<text text-anchor="start" x="807.547" y="-235.8" font-family="Helvetica,sans-Serif" font-size="11.00" fill="#000000">48.234 rows</text>
<polygon fill="#ffffff" stroke="transparent" points="870,-229.7 870,-248.7 882,-248.7 882,-229.7 870,-229.7"/>
<polygon fill="none" stroke="#000000" points="870,-229.7 870,-248.7 882,-248.7 882,-229.7 870,-229.7"/>
<text text-anchor="start" x="872.9431" y="-235.8" font-family="Helvetica,sans-Serif" font-size="11.00" fill="#000000"> &#160;</text>
</a>
</g>
</g>
<!-- sahulchar&#45;&gt;global_UnitMaster -->
<g id="edge14" class="edge">
<title>sahulchar:w&#45;&gt;global_UnitMaster:e</title>
<path fill="none" stroke="#000000" stroke-dasharray="5,2" d="M769.827,-254.9557C739.3593,-239.9082 784.0097,-167.0256 743,-137.7 710.3727,-114.3685 412.43,-111.5673 382,-137.7 336.8057,-176.512 401.0727,-402.7 341.5,-402.7"/>
<polygon fill="#000000" stroke="#000000" points="776.1459,-256.1792 783.3156,-261.2344 780.0729,-256.9396 784,-257.7 784,-257.7 784,-257.7 780.0729,-256.9396 784.6844,-254.1656 776.1459,-256.1792 776.1459,-256.1792"/>
<ellipse fill="none" stroke="#000000" cx="773.0042" cy="-255.5708" rx="3.2" ry="3.2"/>
</g>
<!-- sahulchar&#45;&gt;char_Sample -->
<g id="edge13" class="edge">
<title>sahulchar:w&#45;&gt;char_Sample:e</title>
<path fill="none" stroke="#000000" stroke-dasharray="5,2" d="M769.3533,-257.7C708.0475,-257.7 687.4705,-257.7 619.5,-257.7"/>
<polygon fill="#000000" stroke="#000000" points="776,-257.7001 784,-261.3 780,-257.7 784,-257.7 784,-257.7 784,-257.7 780,-257.7 784,-254.1 776,-257.7001 776,-257.7001"/>
<ellipse fill="none" stroke="#000000" cx="772.8" cy="-257.7001" rx="3.2" ry="3.2"/>
</g>
<!-- sahulchar&#45;&gt;global_SiteMaster -->
<g id="edge12" class="edge">
<title>sahulchar:w&#45;&gt;global_SiteMaster:e</title>
<path fill="none" stroke="#000000" stroke-dasharray="5,2" d="M769.6574,-261.3744C706.4504,-298.6565 806.4868,-608.2733 743,-665.7 651.6916,-748.2927 310.4501,-657.2055 190,-631.7 171.8616,-627.8592 168.0406,-621.7 149.5,-621.7"/>
<polygon fill="#000000" stroke="#000000" points="776.2503,-259.6854 784.8934,-261.1874 780.1251,-258.6927 784,-257.7 784,-257.7 784,-257.7 780.1251,-258.6927 783.1066,-254.2126 776.2503,-259.6854 776.2503,-259.6854"/>
<ellipse fill="none" stroke="#000000" cx="773.1504" cy="-260.4796" rx="3.2" ry="3.2"/>
</g>
<!-- sahulchar_units -->
<g id="node12" class="node">
<title>sahulchar_units</title>
<g id="a_node12"><a xlink:href="../../tables/sahulchar_units.html" xlink:title="sahulchar_units" target="_top">
<polygon fill="#ffffff" stroke="transparent" points="497,-594.2 497,-655.2 628,-655.2 628,-594.2 497,-594.2"/>
<polygon fill="#f5f5f5" stroke="transparent" points="497.5,-631.7 497.5,-654.7 628.5,-654.7 628.5,-631.7 497.5,-631.7"/>
<polygon fill="none" stroke="#000000" points="497.5,-631.7 497.5,-654.7 628.5,-654.7 628.5,-631.7 497.5,-631.7"/>
<text text-anchor="start" x="502.5" y="-640.3" font-family="Helvetica,sans-Serif" font-weight="bold" font-size="11.00" fill="#000000">sahulchar_units</text>
<text text-anchor="start" x="594.0219" y="-639.8" font-family="Helvetica,sans-Serif" font-size="11.00" fill="#000000">[table]</text>
<polygon fill="none" stroke="#000000" points="497.5,-612.7 497.5,-631.7 628.5,-631.7 628.5,-612.7 497.5,-612.7"/>
<text text-anchor="start" x="500.5" y="-618.8" font-family="Helvetica,sans-Serif" font-size="11.00" fill="#000000">...</text>
<polygon fill="#ffffff" stroke="transparent" points="497.5,-593.7 497.5,-612.7 542.5,-612.7 542.5,-593.7 497.5,-593.7"/>
<polygon fill="none" stroke="#000000" points="497.5,-593.7 497.5,-612.7 542.5,-612.7 542.5,-593.7 497.5,-593.7"/>
<text text-anchor="start" x="500.5" y="-599.8" font-family="Helvetica,sans-Serif" font-size="11.00" fill="#000000">&lt; 4</text>
<polygon fill="#ffffff" stroke="transparent" points="542.5,-593.7 542.5,-612.7 604.5,-612.7 604.5,-593.7 542.5,-593.7"/>
<polygon fill="none" stroke="#000000" points="542.5,-593.7 542.5,-612.7 604.5,-612.7 604.5,-593.7 542.5,-593.7"/>
<text text-anchor="start" x="556.8807" y="-599.8" font-family="Helvetica,sans-Serif" font-size="11.00" fill="#000000">535 rows</text>
<polygon fill="#ffffff" stroke="transparent" points="604.5,-593.7 604.5,-612.7 628.5,-612.7 628.5,-593.7 604.5,-593.7"/>
<polygon fill="none" stroke="#000000" points="604.5,-593.7 604.5,-612.7 628.5,-612.7 628.5,-593.7 604.5,-593.7"/>
<text text-anchor="start" x="619.3862" y="-599.8" font-family="Helvetica,sans-Serif" font-size="11.00" fill="#000000"> &#160;</text>
</a>
</g>
</g>
<!-- sahulchar_units&#45;&gt;global_UnitMaster -->
<g id="edge16" class="edge">
<title>sahulchar_units:w&#45;&gt;global_UnitMaster:e</title>
<path fill="none" stroke="#000000" stroke-dasharray="5,2" d="M483.0297,-621.7173C438.6445,-621.7114 414.8972,-619.9798 382,-583.7 326.627,-522.6333 423.9337,-402.7 341.5,-402.7"/>
<polygon fill="#000000" stroke="#000000" points="489.5,-621.7096 497.5043,-625.3 493.5,-621.7048 497.5,-621.7 497.5,-621.7 497.5,-621.7 493.5,-621.7048 497.4957,-618.1 489.5,-621.7096 489.5,-621.7096"/>
<ellipse fill="none" stroke="#000000" cx="486.3" cy="-621.7134" rx="3.2" ry="3.2"/>
</g>
<!-- sahulchar_units&#45;&gt;global_SiteMaster -->
<g id="edge15" class="edge">
<title>sahulchar_units:w&#45;&gt;global_SiteMaster:e</title>
<path fill="none" stroke="#000000" stroke-dasharray="5,2" d="M482.9005,-621.7C340.2207,-621.7 299.1823,-621.7 149.5,-621.7"/>
<polygon fill="#000000" stroke="#000000" points="489.5,-621.7001 497.5,-625.3 493.5,-621.7 497.5,-621.7 497.5,-621.7 497.5,-621.7 493.5,-621.7 497.5,-618.1 489.5,-621.7001 489.5,-621.7001"/>
<ellipse fill="none" stroke="#000000" cx="486.3" cy="-621.7001" rx="3.2" ry="3.2"/>
</g>
<!-- sahulchar_units_points_EPSG3857 -->
<g id="node13" class="node">
<title>sahulchar_units_points_EPSG3857</title>
<g id="a_node13"><a xlink:href="../../tables/sahulchar_units_points_EPSG3857.html" xlink:title="sahulchar_units_points_EPSG3857" target="_top">
<polygon fill="#ffffff" stroke="transparent" points="390,-312.7 390,-490.7 735,-490.7 735,-312.7 390,-312.7"/>
<polygon fill="#f5f5f5" stroke="transparent" points="392.5,-465.7 392.5,-488.7 733.5,-488.7 733.5,-465.7 392.5,-465.7"/>
<polygon fill="none" stroke="#000000" points="392.5,-465.7 392.5,-488.7 733.5,-488.7 733.5,-465.7 392.5,-465.7"/>
<text text-anchor="start" x="397.5" y="-474.3" font-family="Helvetica,sans-Serif" font-weight="bold" font-size="11.00" fill="#000000">sahulchar_units_points_EPSG3857</text>
<text text-anchor="start" x="698.5437" y="-473.8" font-family="Helvetica,sans-Serif" font-size="11.00" fill="#000000">[table]</text>
<polygon fill="none" stroke="#000000" points="392.5,-443.7 392.5,-465.7 614.5,-465.7 614.5,-443.7 392.5,-443.7"/>
<image xlink:href="../../images/primaryKeys.png" width="11px" height="12px" preserveAspectRatio="xMinYMin meet" x="397.5" y="-460.7"/>
<text text-anchor="start" x="412.5" y="-450.8" font-family="Helvetica,sans-Serif" font-size="11.00" fill="#000000">id</text>
<polygon fill="none" stroke="#000000" points="614.5,-443.7 614.5,-465.7 733.5,-465.7 733.5,-443.7 614.5,-443.7"/>
<text text-anchor="start" x="617.5" y="-451.4" font-family="Helvetica,sans-Serif" font-size="11.00" fill="#000000">serial[10]</text>
<polygon fill="#ffffff" stroke="transparent" points="392.5,-421.7 392.5,-443.7 614.5,-443.7 614.5,-421.7 392.5,-421.7"/>
<polygon fill="none" stroke="#000000" points="392.5,-421.7 392.5,-443.7 614.5,-443.7 614.5,-421.7 392.5,-421.7"/>
<image xlink:href="../../images/foreignKeys.png" width="11px" height="12px" preserveAspectRatio="xMinYMin meet" x="397.5" y="-438.7"/>
<text text-anchor="start" x="412.5" y="-428.8" font-family="Helvetica,sans-Serif" font-size="11.00" fill="#000000">UNITID</text>
<polygon fill="none" stroke="#000000" points="614.5,-421.7 614.5,-443.7 733.5,-443.7 733.5,-421.7 614.5,-421.7"/>
<text text-anchor="start" x="617.5" y="-429.4" font-family="Helvetica,sans-Serif" font-size="11.00" fill="#000000">int4[10]</text>
<polygon fill="#ffffff" stroke="transparent" points="392.5,-399.7 392.5,-421.7 614.5,-421.7 614.5,-399.7 392.5,-399.7"/>
<polygon fill="none" stroke="#000000" points="392.5,-399.7 392.5,-421.7 614.5,-421.7 614.5,-399.7 392.5,-399.7"/>
<text text-anchor="start" x="412.5" y="-406.8" font-family="Helvetica,sans-Serif" font-size="11.00" fill="#000000">UNITHANDLE</text>
<polygon fill="none" stroke="#000000" points="614.5,-399.7 614.5,-421.7 733.5,-421.7 733.5,-399.7 614.5,-399.7"/>
<text text-anchor="start" x="617.5" y="-407.4" font-family="Helvetica,sans-Serif" font-size="11.00" fill="#000000">varchar[10]</text>
<polygon fill="none" stroke="#000000" points="392.5,-377.7 392.5,-399.7 614.5,-399.7 614.5,-377.7 392.5,-377.7"/>
<text text-anchor="start" x="412.5" y="-384.8" font-family="Helvetica,sans-Serif" font-size="11.00" fill="#000000">geom</text>
<polygon fill="none" stroke="#000000" points="614.5,-377.7 614.5,-399.7 733.5,-399.7 733.5,-377.7 614.5,-377.7"/>
<text text-anchor="start" x="617.4485" y="-385.4" font-family="Helvetica,sans-Serif" font-size="11.00" fill="#000000">geometry[2147483647]</text>
<polygon fill="none" stroke="#000000" points="392.5,-355.7 392.5,-377.7 614.5,-377.7 614.5,-355.7 392.5,-355.7"/>
<text text-anchor="start" x="412.5" y="-362.8" font-family="Helvetica,sans-Serif" font-size="11.00" fill="#000000">CREATED_AT</text>
<polygon fill="none" stroke="#000000" points="614.5,-355.7 614.5,-377.7 733.5,-377.7 733.5,-355.7 614.5,-355.7"/>
<text text-anchor="start" x="617.5" y="-363.4" font-family="Helvetica,sans-Serif" font-size="11.00" fill="#000000">timestamptz[35,6]</text>
<polygon fill="none" stroke="#000000" points="392.5,-333.7 392.5,-355.7 614.5,-355.7 614.5,-333.7 392.5,-333.7"/>
<text text-anchor="start" x="412.5" y="-340.8" font-family="Helvetica,sans-Serif" font-size="11.00" fill="#000000">UPDATED_AT</text>
<polygon fill="none" stroke="#000000" points="614.5,-333.7 614.5,-355.7 733.5,-355.7 733.5,-333.7 614.5,-333.7"/>
<text text-anchor="start" x="617.5" y="-341.4" font-family="Helvetica,sans-Serif" font-size="11.00" fill="#000000">timestamptz[35,6]</text>
<polygon fill="#ffffff" stroke="transparent" points="392.5,-314.7 392.5,-333.7 488.5,-333.7 488.5,-314.7 392.5,-314.7"/>
<polygon fill="none" stroke="#000000" points="392.5,-314.7 392.5,-333.7 488.5,-333.7 488.5,-314.7 392.5,-314.7"/>
<text text-anchor="start" x="395.5" y="-320.8" font-family="Helvetica,sans-Serif" font-size="11.00" fill="#000000">&lt; 1</text>
<polygon fill="#ffffff" stroke="transparent" points="488.5,-314.7 488.5,-333.7 614.5,-333.7 614.5,-314.7 488.5,-314.7"/>
<polygon fill="none" stroke="#000000" points="488.5,-314.7 488.5,-333.7 614.5,-333.7 614.5,-314.7 488.5,-314.7"/>
<text text-anchor="start" x="566.8807" y="-320.8" font-family="Helvetica,sans-Serif" font-size="11.00" fill="#000000">531 rows</text>
<polygon fill="#ffffff" stroke="transparent" points="614.5,-314.7 614.5,-333.7 733.5,-333.7 733.5,-314.7 614.5,-314.7"/>
<polygon fill="none" stroke="#000000" points="614.5,-314.7 614.5,-333.7 733.5,-333.7 733.5,-314.7 614.5,-314.7"/>
<text text-anchor="start" x="714.9053" y="-320.8" font-family="Helvetica,sans-Serif" font-size="11.00" fill="#000000">0 &gt;</text>
<polygon fill="none" stroke="#000000" stroke-width="2" points="391,-313.7 391,-489.7 734,-489.7 734,-313.7 391,-313.7"/>
</a>
</g>
</g>
<!-- sahulchar_units_points_EPSG3857&#45;&gt;global_UnitMaster -->
<g id="edge17" class="edge">
<title>sahulchar_units_points_EPSG3857:w&#45;&gt;global_UnitMaster:e</title>
<path fill="none" stroke="#000000" stroke-dasharray="5,2" d="M382.0032,-430.7316C366.02,-424.0574 363.6885,-402.7 341.5,-402.7"/>
<polygon fill="#000000" stroke="#000000" points="392.451,-428.6211 390.9764,-436.484 389.4038,-436.1891 390.8784,-428.3262 392.451,-428.6211"/>
<polyline fill="none" stroke="#000000" points="392.5,-432.7 388.5685,-431.9627 "/>
<ellipse fill="none" stroke="#000000" cx="385.4233" cy="-431.3729" rx="3.2" ry="3.2"/>
</g>
</g>
</svg>
