<?xml version="1.0" encoding="UTF-8" standalone="no"?>
<!DOCTYPE svg PUBLIC "-//W3C//DTD SVG 1.1//EN"
 "http://www.w3.org/Graphics/SVG/1.1/DTD/svg11.dtd">
<!-- Generated by graphviz version 2.40.1 (20161225.0304)
 -->
<!-- Title: twoDegreesRelationshipsDiagramImplied Pages: 1 -->
<svg width="898pt" height="572pt"
 viewBox="0.00 0.00 898.00 572.11" xmlns="http://www.w3.org/2000/svg" xmlns:xlink="http://www.w3.org/1999/xlink">
<g id="graph0" class="graph" transform="scale(1 1) rotate(0) translate(4 568.1087)">
<title>twoDegreesRelationshipsDiagramImplied</title>
<polygon fill="#ffffff" stroke="transparent" points="-4,4 -4,-568.1087 894,-568.1087 894,4 -4,4"/>
<text text-anchor="middle" x="72.4936" y="-7.3" font-family="Helvetica,sans-Serif" font-size="11.00" fill="#000000">Generated by SchemaSpy</text>
<!-- char_Sample -->
<g id="node1" class="node">
<title>char_Sample</title>
<g id="a_node1"><a xlink:href="../../tables/char_Sample.html" xlink:title="char_Sample" target="_top">
<polygon fill="#ffffff" stroke="transparent" points="506,-254.2 506,-315.2 619,-315.2 619,-254.2 506,-254.2"/>
<polygon fill="#f5f5f5" stroke="transparent" points="506.5,-291.7 506.5,-314.7 619.5,-314.7 619.5,-291.7 506.5,-291.7"/>
<polygon fill="none" stroke="#000000" points="506.5,-291.7 506.5,-314.7 619.5,-314.7 619.5,-291.7 506.5,-291.7"/>
<text text-anchor="start" x="511.5" y="-300.3" font-family="Helvetica,sans-Serif" font-weight="bold" font-size="11.00" fill="#000000">char_Sample</text>
<text text-anchor="start" x="585.0219" y="-299.8" font-family="Helvetica,sans-Serif" font-size="11.00" fill="#000000">[table]</text>
<polygon fill="none" stroke="#000000" points="506.5,-272.7 506.5,-291.7 619.5,-291.7 619.5,-272.7 506.5,-272.7"/>
<text text-anchor="start" x="509.5" y="-278.8" font-family="Helvetica,sans-Serif" font-size="11.00" fill="#000000">...</text>
<polygon fill="#ffffff" stroke="transparent" points="506.5,-253.7 506.5,-272.7 530.5,-272.7 530.5,-253.7 506.5,-253.7"/>
<polygon fill="none" stroke="#000000" points="506.5,-253.7 506.5,-272.7 530.5,-272.7 530.5,-253.7 506.5,-253.7"/>
<text text-anchor="start" x="509.5" y="-259.8" font-family="Helvetica,sans-Serif" font-size="11.00" fill="#000000">&lt; 1</text>
<polygon fill="#ffffff" stroke="transparent" points="530.5,-253.7 530.5,-272.7 596.5,-272.7 596.5,-253.7 530.5,-253.7"/>
<polygon fill="none" stroke="#000000" points="530.5,-253.7 530.5,-272.7 596.5,-272.7 596.5,-253.7 530.5,-253.7"/>
<text text-anchor="start" x="533.594" y="-259.8" font-family="Helvetica,sans-Serif" font-size="11.00" fill="#000000">41.793 rows</text>
<polygon fill="#ffffff" stroke="transparent" points="596.5,-253.7 596.5,-272.7 619.5,-272.7 619.5,-253.7 596.5,-253.7"/>
<polygon fill="none" stroke="#000000" points="596.5,-253.7 596.5,-272.7 619.5,-272.7 619.5,-253.7 596.5,-253.7"/>
<text text-anchor="start" x="600.9053" y="-259.8" font-family="Helvetica,sans-Serif" font-size="11.00" fill="#000000">2 &gt;</text>
</a>
</g>
</g>
<!-- global_UnitMaster -->
<g id="node2" class="node">
<title>global_UnitMaster</title>
<g id="a_node2"><a xlink:href="../../tables/global_UnitMaster.html" xlink:title="global_UnitMaster" target="_top">
<polygon fill="#ffffff" stroke="transparent" points="198,-132.2 198,-369.2 341,-369.2 341,-132.2 198,-132.2"/>
<polygon fill="#f5f5f5" stroke="transparent" points="198.5,-345.7 198.5,-368.7 341.5,-368.7 341.5,-345.7 198.5,-345.7"/>
<polygon fill="none" stroke="#000000" points="198.5,-345.7 198.5,-368.7 341.5,-368.7 341.5,-345.7 198.5,-345.7"/>
<text text-anchor="start" x="203.5" y="-354.3" font-family="Helvetica,sans-Serif" font-weight="bold" font-size="11.00" fill="#000000">global_UnitMaster</text>
<text text-anchor="start" x="307.0219" y="-353.8" font-family="Helvetica,sans-Serif" font-size="11.00" fill="#000000">[table]</text>
<polygon fill="none" stroke="#000000" points="198.5,-323.7 198.5,-345.7 341.5,-345.7 341.5,-323.7 198.5,-323.7"/>
<image xlink:href="../../images/primaryKeys.png" width="11px" height="12px" preserveAspectRatio="xMinYMin meet" x="203.5" y="-340.7"/>
<text text-anchor="start" x="227.5" y="-330.8" font-family="Helvetica,sans-Serif" font-size="11.00" fill="#000000">UNITID</text>
<polygon fill="none" stroke="#000000" points="198.5,-301.7 198.5,-323.7 341.5,-323.7 341.5,-301.7 198.5,-301.7"/>
<image xlink:href="../../images/foreignKeys.png" width="11px" height="12px" preserveAspectRatio="xMinYMin meet" x="203.5" y="-318.7"/>
<text text-anchor="start" x="227.5" y="-308.8" font-family="Helvetica,sans-Serif" font-size="11.00" fill="#000000">SITEID</text>
<polygon fill="#ffffff" stroke="transparent" points="198.5,-279.7 198.5,-301.7 341.5,-301.7 341.5,-279.7 198.5,-279.7"/>
<polygon fill="none" stroke="#000000" points="198.5,-279.7 198.5,-301.7 341.5,-301.7 341.5,-279.7 198.5,-279.7"/>
<text text-anchor="start" x="227.5" y="-286.8" font-family="Helvetica,sans-Serif" font-size="11.00" fill="#000000">UNITHANDLE</text>
<polygon fill="none" stroke="#000000" points="198.5,-257.7 198.5,-279.7 341.5,-279.7 341.5,-257.7 198.5,-257.7"/>
<image xlink:href="../../images/foreignKeys.png" width="11px" height="12px" preserveAspectRatio="xMinYMin meet" x="203.5" y="-274.7"/>
<text text-anchor="start" x="227.5" y="-264.8" font-family="Helvetica,sans-Serif" font-size="11.00" fill="#000000">UNITTYPEID</text>
<polygon fill="none" stroke="#000000" points="198.5,-235.7 198.5,-257.7 341.5,-257.7 341.5,-235.7 198.5,-235.7"/>
<image xlink:href="../../images/foreignKeys.png" width="11px" height="12px" preserveAspectRatio="xMinYMin meet" x="203.5" y="-252.7"/>
<text text-anchor="start" x="227.5" y="-242.8" font-family="Helvetica,sans-Serif" font-size="11.00" fill="#000000">COLLECTID</text>
<polygon fill="none" stroke="#000000" points="198.5,-213.7 198.5,-235.7 341.5,-235.7 341.5,-213.7 198.5,-213.7"/>
<image xlink:href="../../images/foreignKeys.png" width="11px" height="12px" preserveAspectRatio="xMinYMin meet" x="203.5" y="-230.7"/>
<text text-anchor="start" x="227.5" y="-220.8" font-family="Helvetica,sans-Serif" font-size="11.00" fill="#000000">DEPOSITID</text>
<polygon fill="#ffffff" stroke="transparent" points="198.5,-191.7 198.5,-213.7 341.5,-213.7 341.5,-191.7 198.5,-191.7"/>
<polygon fill="none" stroke="#000000" points="198.5,-191.7 198.5,-213.7 341.5,-213.7 341.5,-191.7 198.5,-191.7"/>
<text text-anchor="start" x="227.5" y="-198.8" font-family="Helvetica,sans-Serif" font-size="11.00" fill="#000000">NEO_HANDLE</text>
<polygon fill="none" stroke="#000000" points="198.5,-169.7 198.5,-191.7 341.5,-191.7 341.5,-169.7 198.5,-169.7"/>
<image xlink:href="../../images/foreignKeys.png" width="11px" height="12px" preserveAspectRatio="xMinYMin meet" x="203.5" y="-186.7"/>
<text text-anchor="start" x="227.5" y="-176.8" font-family="Helvetica,sans-Serif" font-size="11.00" fill="#000000">UNIT_REF</text>
<polygon fill="none" stroke="#000000" points="198.5,-150.7 198.5,-169.7 341.5,-169.7 341.5,-150.7 198.5,-150.7"/>
<text text-anchor="start" x="201.5" y="-156.8" font-family="Helvetica,sans-Serif" font-size="11.00" fill="#000000">...</text>
<polygon fill="#ffffff" stroke="transparent" points="198.5,-131.7 198.5,-150.7 244.5,-150.7 244.5,-131.7 198.5,-131.7"/>
<polygon fill="none" stroke="#000000" points="198.5,-131.7 198.5,-150.7 244.5,-150.7 244.5,-131.7 198.5,-131.7"/>
<text text-anchor="start" x="201.5" y="-137.8" font-family="Helvetica,sans-Serif" font-size="11.00" fill="#000000">&lt; 5</text>
<polygon fill="#ffffff" stroke="transparent" points="244.5,-131.7 244.5,-150.7 307.5,-150.7 307.5,-131.7 244.5,-131.7"/>
<polygon fill="none" stroke="#000000" points="244.5,-131.7 244.5,-150.7 307.5,-150.7 307.5,-131.7 244.5,-131.7"/>
<text text-anchor="start" x="259.8807" y="-137.8" font-family="Helvetica,sans-Serif" font-size="11.00" fill="#000000">597 rows</text>
<polygon fill="#ffffff" stroke="transparent" points="307.5,-131.7 307.5,-150.7 341.5,-150.7 341.5,-131.7 307.5,-131.7"/>
<polygon fill="none" stroke="#000000" points="307.5,-131.7 307.5,-150.7 341.5,-150.7 341.5,-131.7 307.5,-131.7"/>
<text text-anchor="start" x="322.9053" y="-137.8" font-family="Helvetica,sans-Serif" font-size="11.00" fill="#000000">5 &gt;</text>
</a>
</g>
</g>
<!-- char_Sample&#45;&gt;global_UnitMaster -->
<g id="edge1" class="edge">
<title>char_Sample:w&#45;&gt;global_UnitMaster:e</title>
<path fill="none" stroke="#000000" d="M491.935,-283.5244C449.0128,-292.8439 375.7244,-334.7 341.5,-334.7"/>
<polygon fill="#000000" stroke="#000000" points="498.562,-282.6943 506.9475,-285.2721 502.531,-282.1972 506.5,-281.7 506.5,-281.7 506.5,-281.7 502.531,-282.1972 506.0525,-278.1279 498.562,-282.6943 498.562,-282.6943"/>
<ellipse fill="none" stroke="#000000" cx="495.3868" cy="-283.0921" rx="3.2" ry="3.2"/>
</g>
<!-- cabah_col_mtdID -->
<g id="node4" class="node">
<title>cabah_col_mtdID</title>
<g id="a_node4"><a xlink:href="../../tables/cabah_col_mtdID.html" xlink:title="cabah_col_mtdID" target="_top">
<polygon fill="#ffffff" stroke="transparent" points="9.5,-284.2 9.5,-345.2 147.5,-345.2 147.5,-284.2 9.5,-284.2"/>
<polygon fill="#f5f5f5" stroke="transparent" points="9.5,-321.7 9.5,-344.7 147.5,-344.7 147.5,-321.7 9.5,-321.7"/>
<polygon fill="none" stroke="#000000" points="9.5,-321.7 9.5,-344.7 147.5,-344.7 147.5,-321.7 9.5,-321.7"/>
<text text-anchor="start" x="14.5" y="-330.3" font-family="Helvetica,sans-Serif" font-weight="bold" font-size="11.00" fill="#000000">cabah_col_mtdID</text>
<text text-anchor="start" x="113.0219" y="-329.8" font-family="Helvetica,sans-Serif" font-size="11.00" fill="#000000">[table]</text>
<polygon fill="none" stroke="#000000" points="9.5,-302.7 9.5,-321.7 147.5,-321.7 147.5,-302.7 9.5,-302.7"/>
<text text-anchor="start" x="12.5" y="-308.8" font-family="Helvetica,sans-Serif" font-size="11.00" fill="#000000">...</text>
<polygon fill="#ffffff" stroke="transparent" points="9.5,-283.7 9.5,-302.7 56.5,-302.7 56.5,-283.7 9.5,-283.7"/>
<polygon fill="none" stroke="#000000" points="9.5,-283.7 9.5,-302.7 56.5,-302.7 56.5,-283.7 9.5,-283.7"/>
<text text-anchor="start" x="12.5" y="-289.8" font-family="Helvetica,sans-Serif" font-size="11.00" fill="#000000">&lt; 1</text>
<polygon fill="#ffffff" stroke="transparent" points="56.5,-283.7 56.5,-302.7 113.5,-302.7 113.5,-283.7 56.5,-283.7"/>
<polygon fill="none" stroke="#000000" points="56.5,-283.7 56.5,-302.7 113.5,-302.7 113.5,-283.7 56.5,-283.7"/>
<text text-anchor="start" x="71.9956" y="-289.8" font-family="Helvetica,sans-Serif" font-size="11.00" fill="#000000">44 rows</text>
<polygon fill="#ffffff" stroke="transparent" points="113.5,-283.7 113.5,-302.7 147.5,-302.7 147.5,-283.7 113.5,-283.7"/>
<polygon fill="none" stroke="#000000" points="113.5,-283.7 113.5,-302.7 147.5,-302.7 147.5,-283.7 113.5,-283.7"/>
<text text-anchor="start" x="128.9053" y="-289.8" font-family="Helvetica,sans-Serif" font-size="11.00" fill="#000000">7 &gt;</text>
</a>
</g>
</g>
<!-- global_UnitMaster&#45;&gt;cabah_col_mtdID -->
<g id="edge3" class="edge">
<title>global_UnitMaster:w&#45;&gt;cabah_col_mtdID:e</title>
<path fill="none" stroke="#000000" d="M184.6816,-251.3746C167.5508,-266.2786 178.1955,-311.7 147.5,-311.7"/>
<polygon fill="#000000" stroke="#000000" points="190.9219,-249.2636 199.6536,-250.1102 194.7109,-247.9818 198.5,-246.7 198.5,-246.7 198.5,-246.7 194.7109,-247.9818 197.3464,-243.2898 190.9219,-249.2636 190.9219,-249.2636"/>
<ellipse fill="none" stroke="#000000" cx="187.8906" cy="-250.2891" rx="3.2" ry="3.2"/>
</g>
<!-- cabah_depositID -->
<g id="node5" class="node">
<title>cabah_depositID</title>
<g id="a_node5"><a xlink:href="../../tables/cabah_depositID.html" xlink:title="cabah_depositID" target="_top">
<polygon fill="#ffffff" stroke="transparent" points="11,-202.2 11,-263.2 146,-263.2 146,-202.2 11,-202.2"/>
<polygon fill="#f5f5f5" stroke="transparent" points="11.5,-239.7 11.5,-262.7 146.5,-262.7 146.5,-239.7 11.5,-239.7"/>
<polygon fill="none" stroke="#000000" points="11.5,-239.7 11.5,-262.7 146.5,-262.7 146.5,-239.7 11.5,-239.7"/>
<text text-anchor="start" x="16.5" y="-248.3" font-family="Helvetica,sans-Serif" font-weight="bold" font-size="11.00" fill="#000000">cabah_depositID</text>
<text text-anchor="start" x="112.0219" y="-247.8" font-family="Helvetica,sans-Serif" font-size="11.00" fill="#000000">[table]</text>
<polygon fill="none" stroke="#000000" points="11.5,-220.7 11.5,-239.7 146.5,-239.7 146.5,-220.7 11.5,-220.7"/>
<text text-anchor="start" x="14.5" y="-226.8" font-family="Helvetica,sans-Serif" font-size="11.00" fill="#000000">...</text>
<polygon fill="#ffffff" stroke="transparent" points="11.5,-201.7 11.5,-220.7 53.5,-220.7 53.5,-201.7 11.5,-201.7"/>
<polygon fill="none" stroke="#000000" points="11.5,-201.7 11.5,-220.7 53.5,-220.7 53.5,-201.7 11.5,-201.7"/>
<text text-anchor="start" x="14.5" y="-207.8" font-family="Helvetica,sans-Serif" font-size="11.00" fill="#000000">&lt; 1</text>
<polygon fill="#ffffff" stroke="transparent" points="53.5,-201.7 53.5,-220.7 114.5,-220.7 114.5,-201.7 53.5,-201.7"/>
<polygon fill="none" stroke="#000000" points="53.5,-201.7 53.5,-220.7 114.5,-220.7 114.5,-201.7 53.5,-201.7"/>
<text text-anchor="start" x="66.8807" y="-207.8" font-family="Helvetica,sans-Serif" font-size="11.00" fill="#000000">117 rows</text>
<polygon fill="#ffffff" stroke="transparent" points="114.5,-201.7 114.5,-220.7 146.5,-220.7 146.5,-201.7 114.5,-201.7"/>
<polygon fill="none" stroke="#000000" points="114.5,-201.7 114.5,-220.7 146.5,-220.7 146.5,-201.7 114.5,-201.7"/>
<text text-anchor="start" x="127.9053" y="-207.8" font-family="Helvetica,sans-Serif" font-size="11.00" fill="#000000">2 &gt;</text>
</a>
</g>
</g>
<!-- global_UnitMaster&#45;&gt;cabah_depositID -->
<g id="edge4" class="edge">
<title>global_UnitMaster:w&#45;&gt;cabah_depositID:e</title>
<path fill="none" stroke="#000000" d="M183.845,-225.4813C171.3967,-226.8875 163.9133,-229.7 146.5,-229.7"/>
<polygon fill="#000000" stroke="#000000" points="190.5113,-225.1259 198.6917,-228.2949 194.5057,-224.913 198.5,-224.7 198.5,-224.7 198.5,-224.7 194.5057,-224.913 198.3083,-221.1051 190.5113,-225.1259 190.5113,-225.1259"/>
<ellipse fill="none" stroke="#000000" cx="187.3159" cy="-225.2963" rx="3.2" ry="3.2"/>
</g>
<!-- global_SiteMaster -->
<g id="node6" class="node">
<title>global_SiteMaster</title>
<g id="a_node6"><a xlink:href="../../tables/global_SiteMaster.html" xlink:title="global_SiteMaster" target="_top">
<polygon fill="#ffffff" stroke="transparent" points="8,-38.2 8,-99.2 149,-99.2 149,-38.2 8,-38.2"/>
<polygon fill="#f5f5f5" stroke="transparent" points="8.5,-75.7 8.5,-98.7 149.5,-98.7 149.5,-75.7 8.5,-75.7"/>
<polygon fill="none" stroke="#000000" points="8.5,-75.7 8.5,-98.7 149.5,-98.7 149.5,-75.7 8.5,-75.7"/>
<text text-anchor="start" x="13.5" y="-84.3" font-family="Helvetica,sans-Serif" font-weight="bold" font-size="11.00" fill="#000000">global_SiteMaster</text>
<text text-anchor="start" x="115.0219" y="-83.8" font-family="Helvetica,sans-Serif" font-size="11.00" fill="#000000">[table]</text>
<polygon fill="none" stroke="#000000" points="8.5,-56.7 8.5,-75.7 149.5,-75.7 149.5,-56.7 8.5,-56.7"/>
<text text-anchor="start" x="11.5" y="-62.8" font-family="Helvetica,sans-Serif" font-size="11.00" fill="#000000">...</text>
<polygon fill="#ffffff" stroke="transparent" points="8.5,-37.7 8.5,-56.7 43.5,-56.7 43.5,-37.7 8.5,-37.7"/>
<polygon fill="none" stroke="#000000" points="8.5,-37.7 8.5,-56.7 43.5,-56.7 43.5,-37.7 8.5,-37.7"/>
<text text-anchor="start" x="11.5" y="-43.8" font-family="Helvetica,sans-Serif" font-size="11.00" fill="#000000">&lt; 8</text>
<polygon fill="#ffffff" stroke="transparent" points="43.5,-37.7 43.5,-56.7 115.5,-56.7 115.5,-37.7 43.5,-37.7"/>
<polygon fill="none" stroke="#000000" points="43.5,-37.7 43.5,-56.7 115.5,-56.7 115.5,-37.7 43.5,-37.7"/>
<text text-anchor="start" x="52.594" y="-43.8" font-family="Helvetica,sans-Serif" font-size="11.00" fill="#000000">23.782 rows</text>
<polygon fill="#ffffff" stroke="transparent" points="115.5,-37.7 115.5,-56.7 149.5,-56.7 149.5,-37.7 115.5,-37.7"/>
<polygon fill="none" stroke="#000000" points="115.5,-37.7 115.5,-56.7 149.5,-56.7 149.5,-37.7 115.5,-37.7"/>
<text text-anchor="start" x="124.7904" y="-43.8" font-family="Helvetica,sans-Serif" font-size="11.00" fill="#000000">23 &gt;</text>
</a>
</g>
</g>
<!-- global_UnitMaster&#45;&gt;global_SiteMaster -->
<g id="edge5" class="edge">
<title>global_UnitMaster:w&#45;&gt;global_SiteMaster:e</title>
<path fill="none" stroke="#000000" d="M184.0901,-310.9908C102.9729,-289.1678 255.9524,-65.7 149.5,-65.7"/>
<polygon fill="#000000" stroke="#000000" points="190.5557,-311.7577 198.0759,-316.2749 194.5278,-312.2288 198.5,-312.7 198.5,-312.7 198.5,-312.7 194.5278,-312.2288 198.9241,-309.1251 190.5557,-311.7577 190.5557,-311.7577"/>
<ellipse fill="none" stroke="#000000" cx="187.378" cy="-311.3807" rx="3.2" ry="3.2"/>
</g>
<!-- global_RefCore -->
<g id="node7" class="node">
<title>global_RefCore</title>
<g id="a_node7"><a xlink:href="../../tables/global_RefCore.html" xlink:title="global_RefCore" target="_top">
<polygon fill="#ffffff" stroke="transparent" points="15,-120.2 15,-181.2 142,-181.2 142,-120.2 15,-120.2"/>
<polygon fill="#f5f5f5" stroke="transparent" points="15.5,-157.7 15.5,-180.7 142.5,-180.7 142.5,-157.7 15.5,-157.7"/>
<polygon fill="none" stroke="#000000" points="15.5,-157.7 15.5,-180.7 142.5,-180.7 142.5,-157.7 15.5,-157.7"/>
<text text-anchor="start" x="20.5" y="-166.3" font-family="Helvetica,sans-Serif" font-weight="bold" font-size="11.00" fill="#000000">global_RefCore</text>
<text text-anchor="start" x="108.0219" y="-165.8" font-family="Helvetica,sans-Serif" font-size="11.00" fill="#000000">[table]</text>
<polygon fill="none" stroke="#000000" points="15.5,-138.7 15.5,-157.7 142.5,-157.7 142.5,-138.7 15.5,-138.7"/>
<text text-anchor="start" x="18.5" y="-144.8" font-family="Helvetica,sans-Serif" font-size="11.00" fill="#000000">...</text>
<polygon fill="#ffffff" stroke="transparent" points="15.5,-119.7 15.5,-138.7 46.5,-138.7 46.5,-119.7 15.5,-119.7"/>
<polygon fill="none" stroke="#000000" points="15.5,-119.7 15.5,-138.7 46.5,-138.7 46.5,-119.7 15.5,-119.7"/>
<text text-anchor="start" x="18.5" y="-125.8" font-family="Helvetica,sans-Serif" font-size="11.00" fill="#000000">&lt; 5</text>
<polygon fill="#ffffff" stroke="transparent" points="46.5,-119.7 46.5,-138.7 110.5,-138.7 110.5,-119.7 46.5,-119.7"/>
<polygon fill="none" stroke="#000000" points="46.5,-119.7 46.5,-138.7 110.5,-138.7 110.5,-119.7 46.5,-119.7"/>
<text text-anchor="start" x="53.7089" y="-125.8" font-family="Helvetica,sans-Serif" font-size="11.00" fill="#000000">3.943 rows</text>
<polygon fill="#ffffff" stroke="transparent" points="110.5,-119.7 110.5,-138.7 142.5,-138.7 142.5,-119.7 110.5,-119.7"/>
<polygon fill="none" stroke="#000000" points="110.5,-119.7 110.5,-138.7 142.5,-138.7 142.5,-119.7 110.5,-119.7"/>
<text text-anchor="start" x="117.7904" y="-125.8" font-family="Helvetica,sans-Serif" font-size="11.00" fill="#000000">36 &gt;</text>
</a>
</g>
</g>
<!-- global_UnitMaster&#45;&gt;global_RefCore -->
<g id="edge6" class="edge">
<title>global_UnitMaster:w&#45;&gt;global_RefCore:e</title>
<path fill="none" stroke="#000000" d="M184.1777,-177.1684C169.068,-168.6553 165.5208,-147.7 142.5,-147.7"/>
<polygon fill="#000000" stroke="#000000" points="190.7326,-178.7847 197.6381,-184.1953 194.6163,-179.7423 198.5,-180.7 198.5,-180.7 198.5,-180.7 194.6163,-179.7423 199.3619,-177.2047 190.7326,-178.7847 190.7326,-178.7847"/>
<ellipse fill="none" stroke="#000000" cx="187.6257" cy="-178.0186" rx="3.2" ry="3.2"/>
</g>
<!-- cabah_unittypeID -->
<g id="node8" class="node">
<title>cabah_unittypeID</title>
<g id="a_node8"><a xlink:href="../../tables/cabah_unittypeID.html" xlink:title="cabah_unittypeID" target="_top">
<polygon fill="#ffffff" stroke="transparent" points="9,-366.2 9,-427.2 148,-427.2 148,-366.2 9,-366.2"/>
<polygon fill="#f5f5f5" stroke="transparent" points="9.5,-403.7 9.5,-426.7 148.5,-426.7 148.5,-403.7 9.5,-403.7"/>
<polygon fill="none" stroke="#000000" points="9.5,-403.7 9.5,-426.7 148.5,-426.7 148.5,-403.7 9.5,-403.7"/>
<text text-anchor="start" x="14.5" y="-412.3" font-family="Helvetica,sans-Serif" font-weight="bold" font-size="11.00" fill="#000000">cabah_unittypeID</text>
<text text-anchor="start" x="114.0219" y="-411.8" font-family="Helvetica,sans-Serif" font-size="11.00" fill="#000000">[table]</text>
<polygon fill="none" stroke="#000000" points="9.5,-384.7 9.5,-403.7 148.5,-403.7 148.5,-384.7 9.5,-384.7"/>
<text text-anchor="start" x="12.5" y="-390.8" font-family="Helvetica,sans-Serif" font-size="11.00" fill="#000000">...</text>
<polygon fill="#ffffff" stroke="transparent" points="9.5,-365.7 9.5,-384.7 52.5,-384.7 52.5,-365.7 9.5,-365.7"/>
<polygon fill="none" stroke="#000000" points="9.5,-365.7 9.5,-384.7 52.5,-384.7 52.5,-365.7 9.5,-365.7"/>
<text text-anchor="start" x="12.5" y="-371.8" font-family="Helvetica,sans-Serif" font-size="11.00" fill="#000000"> &#160;</text>
<polygon fill="#ffffff" stroke="transparent" points="52.5,-365.7 52.5,-384.7 111.5,-384.7 111.5,-365.7 52.5,-365.7"/>
<polygon fill="none" stroke="#000000" points="52.5,-365.7 52.5,-384.7 111.5,-384.7 111.5,-365.7 52.5,-365.7"/>
<text text-anchor="start" x="69.9956" y="-371.8" font-family="Helvetica,sans-Serif" font-size="11.00" fill="#000000">16 rows</text>
<polygon fill="#ffffff" stroke="transparent" points="111.5,-365.7 111.5,-384.7 148.5,-384.7 148.5,-365.7 111.5,-365.7"/>
<polygon fill="none" stroke="#000000" points="111.5,-365.7 111.5,-384.7 148.5,-384.7 148.5,-365.7 111.5,-365.7"/>
<text text-anchor="start" x="129.9053" y="-371.8" font-family="Helvetica,sans-Serif" font-size="11.00" fill="#000000">1 &gt;</text>
</a>
</g>
</g>
<!-- global_UnitMaster&#45;&gt;cabah_unittypeID -->
<g id="edge7" class="edge">
<title>global_UnitMaster:w&#45;&gt;cabah_unittypeID:e</title>
<path fill="none" stroke="#000000" d="M184.4341,-272.0434C151.0373,-291.922 202.4919,-393.7 148.5,-393.7"/>
<polygon fill="#000000" stroke="#000000" points="190.7169,-270.5501 199.3325,-272.2024 194.6084,-269.625 198.5,-268.7 198.5,-268.7 198.5,-268.7 194.6084,-269.625 197.6675,-265.1976 190.7169,-270.5501 190.7169,-270.5501"/>
<ellipse fill="none" stroke="#000000" cx="187.6036" cy="-271.2901" rx="3.2" ry="3.2"/>
</g>
<!-- global_DataSetID -->
<g id="node3" class="node">
<title>global_DataSetID</title>
<g id="a_node3"><a xlink:href="../../tables/global_DataSetID.html" xlink:title="global_DataSetID" target="_top">
<polygon fill="#ffffff" stroke="transparent" points="494,-172.2 494,-233.2 631,-233.2 631,-172.2 494,-172.2"/>
<polygon fill="#f5f5f5" stroke="transparent" points="494.5,-209.7 494.5,-232.7 631.5,-232.7 631.5,-209.7 494.5,-209.7"/>
<polygon fill="none" stroke="#000000" points="494.5,-209.7 494.5,-232.7 631.5,-232.7 631.5,-209.7 494.5,-209.7"/>
<text text-anchor="start" x="499.5" y="-218.3" font-family="Helvetica,sans-Serif" font-weight="bold" font-size="11.00" fill="#000000">global_DataSetID</text>
<text text-anchor="start" x="597.0219" y="-217.8" font-family="Helvetica,sans-Serif" font-size="11.00" fill="#000000">[table]</text>
<polygon fill="none" stroke="#000000" points="494.5,-190.7 494.5,-209.7 631.5,-209.7 631.5,-190.7 494.5,-190.7"/>
<text text-anchor="start" x="497.5" y="-196.8" font-family="Helvetica,sans-Serif" font-size="11.00" fill="#000000">...</text>
<polygon fill="#ffffff" stroke="transparent" points="494.5,-171.7 494.5,-190.7 542.5,-190.7 542.5,-171.7 494.5,-171.7"/>
<polygon fill="none" stroke="#000000" points="494.5,-171.7 494.5,-190.7 542.5,-190.7 542.5,-171.7 494.5,-171.7"/>
<text text-anchor="start" x="497.5" y="-177.8" font-family="Helvetica,sans-Serif" font-size="11.00" fill="#000000">&lt; 3</text>
<polygon fill="#ffffff" stroke="transparent" points="542.5,-171.7 542.5,-190.7 605.5,-190.7 605.5,-171.7 542.5,-171.7"/>
<polygon fill="none" stroke="#000000" points="542.5,-171.7 542.5,-190.7 605.5,-190.7 605.5,-171.7 542.5,-171.7"/>
<text text-anchor="start" x="557.8807" y="-177.8" font-family="Helvetica,sans-Serif" font-size="11.00" fill="#000000">154 rows</text>
<polygon fill="#ffffff" stroke="transparent" points="605.5,-171.7 605.5,-190.7 631.5,-190.7 631.5,-171.7 605.5,-171.7"/>
<polygon fill="none" stroke="#000000" points="605.5,-171.7 605.5,-190.7 631.5,-190.7 631.5,-171.7 605.5,-171.7"/>
<text text-anchor="start" x="622.3862" y="-177.8" font-family="Helvetica,sans-Serif" font-size="11.00" fill="#000000"> &#160;</text>
</a>
</g>
</g>
<!-- global_DataSetID&#45;&gt;global_UnitMaster -->
<g id="edge2" class="edge">
<title>global_DataSetID:w&#45;&gt;global_UnitMaster:e</title>
<path fill="none" stroke="#000000" d="M479.9656,-199.9105C436.8136,-201.3005 417.1091,-210.167 382,-243.7 349.9867,-274.2762 385.7691,-334.7 341.5,-334.7"/>
<polygon fill="#000000" stroke="#000000" points="486.5008,-199.8159 494.5521,-203.2996 490.5004,-199.7579 494.5,-199.7 494.5,-199.7 494.5,-199.7 490.5004,-199.7579 494.4479,-196.1004 486.5008,-199.8159 486.5008,-199.8159"/>
<ellipse fill="none" stroke="#000000" cx="483.3012" cy="-199.8622" rx="3.2" ry="3.2"/>
</g>
<!-- sahulchar -->
<g id="node9" class="node">
<title>sahulchar</title>
<g id="a_node9"><a xlink:href="../../tables/sahulchar.html" xlink:title="sahulchar" target="_top">
<polygon fill="#ffffff" stroke="transparent" points="784,-254.2 784,-315.2 882,-315.2 882,-254.2 784,-254.2"/>
<polygon fill="#f5f5f5" stroke="transparent" points="784,-291.7 784,-314.7 882,-314.7 882,-291.7 784,-291.7"/>
<polygon fill="none" stroke="#000000" points="784,-291.7 784,-314.7 882,-314.7 882,-291.7 784,-291.7"/>
<text text-anchor="start" x="789" y="-300.3" font-family="Helvetica,sans-Serif" font-weight="bold" font-size="11.00" fill="#000000">sahulchar</text>
<text text-anchor="start" x="847.0437" y="-299.8" font-family="Helvetica,sans-Serif" font-size="11.00" fill="#000000">[table]</text>
<polygon fill="none" stroke="#000000" points="784,-272.7 784,-291.7 882,-291.7 882,-272.7 784,-272.7"/>
<text text-anchor="start" x="787" y="-278.8" font-family="Helvetica,sans-Serif" font-size="11.00" fill="#000000">...</text>
<polygon fill="#ffffff" stroke="transparent" points="784,-253.7 784,-272.7 805,-272.7 805,-253.7 784,-253.7"/>
<polygon fill="none" stroke="#000000" points="784,-253.7 784,-272.7 805,-272.7 805,-253.7 784,-253.7"/>
<text text-anchor="start" x="786.7026" y="-259.8" font-family="Helvetica,sans-Serif" font-size="11.00" fill="#000000">&lt; 6</text>
<polygon fill="#ffffff" stroke="transparent" points="805,-253.7 805,-272.7 870,-272.7 870,-253.7 805,-253.7"/>
<polygon fill="none" stroke="#000000" points="805,-253.7 805,-272.7 870,-272.7 870,-253.7 805,-253.7"/>
<text text-anchor="start" x="807.547" y="-259.8" font-family="Helvetica,sans-Serif" font-size="11.00" fill="#000000">48.234 rows</text>
<polygon fill="#ffffff" stroke="transparent" points="870,-253.7 870,-272.7 882,-272.7 882,-253.7 870,-253.7"/>
<polygon fill="none" stroke="#000000" points="870,-253.7 870,-272.7 882,-272.7 882,-253.7 870,-253.7"/>
<text text-anchor="start" x="872.9431" y="-259.8" font-family="Helvetica,sans-Serif" font-size="11.00" fill="#000000"> &#160;</text>
</a>
</g>
</g>
<!-- sahulchar&#45;&gt;char_Sample -->
<g id="edge9" class="edge">
<title>sahulchar:w&#45;&gt;char_Sample:e</title>
<path fill="none" stroke="#000000" stroke-dasharray="5,2" d="M769.3533,-281.7C708.0475,-281.7 687.4705,-281.7 619.5,-281.7"/>
<polygon fill="#000000" stroke="#000000" points="776,-281.7001 784,-285.3 780,-281.7 784,-281.7 784,-281.7 784,-281.7 780,-281.7 784,-278.1 776,-281.7001 776,-281.7001"/>
<ellipse fill="none" stroke="#000000" cx="772.8" cy="-281.7001" rx="3.2" ry="3.2"/>
</g>
<!-- sahulchar&#45;&gt;global_UnitMaster -->
<g id="edge10" class="edge">
<title>sahulchar:w&#45;&gt;global_UnitMaster:e</title>
<path fill="none" stroke="#000000" stroke-dasharray="5,2" d="M770.4618,-287.752C739.374,-322.265 780.713,-493.7953 743,-525.7 681.7544,-577.5129 444.3319,-576.2008 382,-525.7 314.5756,-471.0733 428.2763,-334.7 341.5,-334.7"/>
<polygon fill="#000000" stroke="#000000" points="776.6965,-284.9649 785.4692,-284.9866 780.3483,-283.3325 784,-281.7 784,-281.7 784,-281.7 780.3483,-283.3325 782.5308,-278.4134 776.6965,-284.9649 776.6965,-284.9649"/>
<ellipse fill="none" stroke="#000000" cx="773.7751" cy="-286.2709" rx="3.2" ry="3.2"/>
</g>
<!-- sahulchar&#45;&gt;global_SiteMaster -->
<g id="edge8" class="edge">
<title>sahulchar:w&#45;&gt;global_SiteMaster:e</title>
<path fill="none" stroke="#000000" stroke-dasharray="5,2" d="M769.6072,-280.1757C706.3249,-264.6699 808.9861,-134.9491 743,-79.7 641.8488,4.9923 281.4256,-65.7 149.5,-65.7"/>
<polygon fill="#000000" stroke="#000000" points="776.0445,-280.8574 783.6208,-285.28 780.0222,-281.2787 784,-281.7 784,-281.7 784,-281.7 780.0222,-281.2787 784.3792,-278.12 776.0445,-280.8574 776.0445,-280.8574"/>
<ellipse fill="none" stroke="#000000" cx="772.8623" cy="-280.5204" rx="3.2" ry="3.2"/>
</g>
<!-- sahulchar_units -->
<g id="node10" class="node">
<title>sahulchar_units</title>
<g id="a_node10"><a xlink:href="../../tables/sahulchar_units.html" xlink:title="sahulchar_units" target="_top">
<polygon fill="#ffffff" stroke="transparent" points="497,-90.2 497,-151.2 628,-151.2 628,-90.2 497,-90.2"/>
<polygon fill="#f5f5f5" stroke="transparent" points="497.5,-127.7 497.5,-150.7 628.5,-150.7 628.5,-127.7 497.5,-127.7"/>
<polygon fill="none" stroke="#000000" points="497.5,-127.7 497.5,-150.7 628.5,-150.7 628.5,-127.7 497.5,-127.7"/>
<text text-anchor="start" x="502.5" y="-136.3" font-family="Helvetica,sans-Serif" font-weight="bold" font-size="11.00" fill="#000000">sahulchar_units</text>
<text text-anchor="start" x="594.0219" y="-135.8" font-family="Helvetica,sans-Serif" font-size="11.00" fill="#000000">[table]</text>
<polygon fill="none" stroke="#000000" points="497.5,-108.7 497.5,-127.7 628.5,-127.7 628.5,-108.7 497.5,-108.7"/>
<text text-anchor="start" x="500.5" y="-114.8" font-family="Helvetica,sans-Serif" font-size="11.00" fill="#000000">...</text>
<polygon fill="#ffffff" stroke="transparent" points="497.5,-89.7 497.5,-108.7 542.5,-108.7 542.5,-89.7 497.5,-89.7"/>
<polygon fill="none" stroke="#000000" points="497.5,-89.7 497.5,-108.7 542.5,-108.7 542.5,-89.7 497.5,-89.7"/>
<text text-anchor="start" x="500.5" y="-95.8" font-family="Helvetica,sans-Serif" font-size="11.00" fill="#000000">&lt; 4</text>
<polygon fill="#ffffff" stroke="transparent" points="542.5,-89.7 542.5,-108.7 604.5,-108.7 604.5,-89.7 542.5,-89.7"/>
<polygon fill="none" stroke="#000000" points="542.5,-89.7 542.5,-108.7 604.5,-108.7 604.5,-89.7 542.5,-89.7"/>
<text text-anchor="start" x="556.8807" y="-95.8" font-family="Helvetica,sans-Serif" font-size="11.00" fill="#000000">535 rows</text>
<polygon fill="#ffffff" stroke="transparent" points="604.5,-89.7 604.5,-108.7 628.5,-108.7 628.5,-89.7 604.5,-89.7"/>
<polygon fill="none" stroke="#000000" points="604.5,-89.7 604.5,-108.7 628.5,-108.7 628.5,-89.7 604.5,-89.7"/>
<text text-anchor="start" x="619.3862" y="-95.8" font-family="Helvetica,sans-Serif" font-size="11.00" fill="#000000"> &#160;</text>
</a>
</g>
</g>
<!-- sahulchar_units&#45;&gt;global_UnitMaster -->
<g id="edge12" class="edge">
<title>sahulchar_units:w&#45;&gt;global_UnitMaster:e</title>
<path fill="none" stroke="#000000" stroke-dasharray="5,2" d="M482.8202,-117.7994C437.8873,-118.5359 414.7653,-124.2207 382,-161.7 330.0255,-221.1521 420.4677,-334.7 341.5,-334.7"/>
<polygon fill="#000000" stroke="#000000" points="489.5002,-117.7542 497.5244,-121.2999 493.5001,-117.7271 497.5,-117.7 497.5,-117.7 497.5,-117.7 493.5001,-117.7271 497.4756,-114.1001 489.5002,-117.7542 489.5002,-117.7542"/>
<ellipse fill="none" stroke="#000000" cx="486.3003" cy="-117.7759" rx="3.2" ry="3.2"/>
</g>
<!-- sahulchar_units&#45;&gt;global_SiteMaster -->
<g id="edge11" class="edge">
<title>sahulchar_units:w&#45;&gt;global_SiteMaster:e</title>
<path fill="none" stroke="#000000" stroke-dasharray="5,2" d="M482.9451,-117.6372C356.969,-116.5239 320.5863,-100.6666 190,-75.7 171.7893,-72.2183 168.0406,-65.7 149.5,-65.7"/>
<polygon fill="#000000" stroke="#000000" points="489.5001,-117.6655 497.4845,-121.3 493.5,-117.6827 497.5,-117.7 497.5,-117.7 497.5,-117.7 493.5,-117.6827 497.5155,-114.1 489.5001,-117.6655 489.5001,-117.6655"/>
<ellipse fill="none" stroke="#000000" cx="486.3001" cy="-117.6516" rx="3.2" ry="3.2"/>
</g>
<!-- sahulchar_units_points_EPSG3857 -->
<g id="node11" class="node">
<title>sahulchar_units_points_EPSG3857</title>
<g id="a_node11"><a xlink:href="../../tables/sahulchar_units_points_EPSG3857.html" xlink:title="sahulchar_units_points_EPSG3857" target="_top">
<polygon fill="#ffffff" stroke="transparent" points="390,-336.7 390,-514.7 735,-514.7 735,-336.7 390,-336.7"/>
<polygon fill="#f5f5f5" stroke="transparent" points="392.5,-489.7 392.5,-512.7 733.5,-512.7 733.5,-489.7 392.5,-489.7"/>
<polygon fill="none" stroke="#000000" points="392.5,-489.7 392.5,-512.7 733.5,-512.7 733.5,-489.7 392.5,-489.7"/>
<text text-anchor="start" x="397.5" y="-498.3" font-family="Helvetica,sans-Serif" font-weight="bold" font-size="11.00" fill="#000000">sahulchar_units_points_EPSG3857</text>
<text text-anchor="start" x="698.5437" y="-497.8" font-family="Helvetica,sans-Serif" font-size="11.00" fill="#000000">[table]</text>
<polygon fill="none" stroke="#000000" points="392.5,-467.7 392.5,-489.7 614.5,-489.7 614.5,-467.7 392.5,-467.7"/>
<image xlink:href="../../images/primaryKeys.png" width="11px" height="12px" preserveAspectRatio="xMinYMin meet" x="397.5" y="-484.7"/>
<text text-anchor="start" x="412.5" y="-474.8" font-family="Helvetica,sans-Serif" font-size="11.00" fill="#000000">id</text>
<polygon fill="none" stroke="#000000" points="614.5,-467.7 614.5,-489.7 733.5,-489.7 733.5,-467.7 614.5,-467.7"/>
<text text-anchor="start" x="617.5" y="-475.4" font-family="Helvetica,sans-Serif" font-size="11.00" fill="#000000">serial[10]</text>
<polygon fill="#ffffff" stroke="transparent" points="392.5,-445.7 392.5,-467.7 614.5,-467.7 614.5,-445.7 392.5,-445.7"/>
<polygon fill="none" stroke="#000000" points="392.5,-445.7 392.5,-467.7 614.5,-467.7 614.5,-445.7 392.5,-445.7"/>
<image xlink:href="../../images/foreignKeys.png" width="11px" height="12px" preserveAspectRatio="xMinYMin meet" x="397.5" y="-462.7"/>
<text text-anchor="start" x="412.5" y="-452.8" font-family="Helvetica,sans-Serif" font-size="11.00" fill="#000000">UNITID</text>
<polygon fill="none" stroke="#000000" points="614.5,-445.7 614.5,-467.7 733.5,-467.7 733.5,-445.7 614.5,-445.7"/>
<text text-anchor="start" x="617.5" y="-453.4" font-family="Helvetica,sans-Serif" font-size="11.00" fill="#000000">int4[10]</text>
<polygon fill="#ffffff" stroke="transparent" points="392.5,-423.7 392.5,-445.7 614.5,-445.7 614.5,-423.7 392.5,-423.7"/>
<polygon fill="none" stroke="#000000" points="392.5,-423.7 392.5,-445.7 614.5,-445.7 614.5,-423.7 392.5,-423.7"/>
<text text-anchor="start" x="412.5" y="-430.8" font-family="Helvetica,sans-Serif" font-size="11.00" fill="#000000">UNITHANDLE</text>
<polygon fill="none" stroke="#000000" points="614.5,-423.7 614.5,-445.7 733.5,-445.7 733.5,-423.7 614.5,-423.7"/>
<text text-anchor="start" x="617.5" y="-431.4" font-family="Helvetica,sans-Serif" font-size="11.00" fill="#000000">varchar[10]</text>
<polygon fill="none" stroke="#000000" points="392.5,-401.7 392.5,-423.7 614.5,-423.7 614.5,-401.7 392.5,-401.7"/>
<text text-anchor="start" x="412.5" y="-408.8" font-family="Helvetica,sans-Serif" font-size="11.00" fill="#000000">geom</text>
<polygon fill="none" stroke="#000000" points="614.5,-401.7 614.5,-423.7 733.5,-423.7 733.5,-401.7 614.5,-401.7"/>
<text text-anchor="start" x="617.4485" y="-409.4" font-family="Helvetica,sans-Serif" font-size="11.00" fill="#000000">geometry[2147483647]</text>
<polygon fill="none" stroke="#000000" points="392.5,-379.7 392.5,-401.7 614.5,-401.7 614.5,-379.7 392.5,-379.7"/>
<text text-anchor="start" x="412.5" y="-386.8" font-family="Helvetica,sans-Serif" font-size="11.00" fill="#000000">CREATED_AT</text>
<polygon fill="none" stroke="#000000" points="614.5,-379.7 614.5,-401.7 733.5,-401.7 733.5,-379.7 614.5,-379.7"/>
<text text-anchor="start" x="617.5" y="-387.4" font-family="Helvetica,sans-Serif" font-size="11.00" fill="#000000">timestamptz[35,6]</text>
<polygon fill="none" stroke="#000000" points="392.5,-357.7 392.5,-379.7 614.5,-379.7 614.5,-357.7 392.5,-357.7"/>
<text text-anchor="start" x="412.5" y="-364.8" font-family="Helvetica,sans-Serif" font-size="11.00" fill="#000000">UPDATED_AT</text>
<polygon fill="none" stroke="#000000" points="614.5,-357.7 614.5,-379.7 733.5,-379.7 733.5,-357.7 614.5,-357.7"/>
<text text-anchor="start" x="617.5" y="-365.4" font-family="Helvetica,sans-Serif" font-size="11.00" fill="#000000">timestamptz[35,6]</text>
<polygon fill="#ffffff" stroke="transparent" points="392.5,-338.7 392.5,-357.7 488.5,-357.7 488.5,-338.7 392.5,-338.7"/>
<polygon fill="none" stroke="#000000" points="392.5,-338.7 392.5,-357.7 488.5,-357.7 488.5,-338.7 392.5,-338.7"/>
<text text-anchor="start" x="395.5" y="-344.8" font-family="Helvetica,sans-Serif" font-size="11.00" fill="#000000">&lt; 1</text>
<polygon fill="#ffffff" stroke="transparent" points="488.5,-338.7 488.5,-357.7 614.5,-357.7 614.5,-338.7 488.5,-338.7"/>
<polygon fill="none" stroke="#000000" points="488.5,-338.7 488.5,-357.7 614.5,-357.7 614.5,-338.7 488.5,-338.7"/>
<text text-anchor="start" x="566.8807" y="-344.8" font-family="Helvetica,sans-Serif" font-size="11.00" fill="#000000">531 rows</text>
<polygon fill="#ffffff" stroke="transparent" points="614.5,-338.7 614.5,-357.7 733.5,-357.7 733.5,-338.7 614.5,-338.7"/>
<polygon fill="none" stroke="#000000" points="614.5,-338.7 614.5,-357.7 733.5,-357.7 733.5,-338.7 614.5,-338.7"/>
<text text-anchor="start" x="714.9053" y="-344.8" font-family="Helvetica,sans-Serif" font-size="11.00" fill="#000000">0 &gt;</text>
<polygon fill="none" stroke="#000000" stroke-width="2" points="391,-337.7 391,-513.7 734,-513.7 734,-337.7 391,-337.7"/>
</a>
</g>
</g>
<!-- sahulchar_units_points_EPSG3857&#45;&gt;global_UnitMaster -->
<g id="edge13" class="edge">
<title>sahulchar_units_points_EPSG3857:w&#45;&gt;global_UnitMaster:e</title>
<path fill="none" stroke="#000000" stroke-dasharray="5,2" d="M382.1243,-455.0676C342.2422,-440.5904 396.2518,-334.7 341.5,-334.7"/>
<polygon fill="#000000" stroke="#000000" points="392.3314,-452.6243 391.088,-460.5271 389.5075,-460.2784 390.7509,-452.3756 392.3314,-452.6243"/>
<polyline fill="none" stroke="#000000" points="392.5,-456.7 388.5486,-456.0783 "/>
<ellipse fill="none" stroke="#000000" cx="385.3875" cy="-455.5809" rx="3.2" ry="3.2"/>
</g>
</g>
</svg>
