<?xml version="1.0" encoding="UTF-8" standalone="no"?>
<!DOCTYPE svg PUBLIC "-//W3C//DTD SVG 1.1//EN"
 "http://www.w3.org/Graphics/SVG/1.1/DTD/svg11.dtd">
<!-- Generated by graphviz version 2.40.1 (20161225.0304)
 -->
<!-- Title: oneDegreeRelationshipsDiagram Pages: 1 -->
<svg width="260pt" height="1218pt"
 viewBox="0.00 0.00 260.00 1218.20" xmlns="http://www.w3.org/2000/svg" xmlns:xlink="http://www.w3.org/1999/xlink">
<g id="graph0" class="graph" transform="scale(1 1) rotate(0) translate(4 1214.2)">
<title>oneDegreeRelationshipsDiagram</title>
<polygon fill="#ffffff" stroke="transparent" points="-4,4 -4,-1214.2 256,-1214.2 256,4 -4,4"/>
<text text-anchor="middle" x="72.4936" y="-7.3" font-family="Helvetica,sans-Serif" font-size="11.00" fill="#000000">Generated by SchemaSpy</text>
<!-- sahulchar_units -->
<g id="node1" class="node">
<title>sahulchar_units</title>
<g id="a_node1"><a xlink:href="../../tables/sahulchar_units.html" xlink:title="sahulchar_units" target="_top">
<polygon fill="#ffffff" stroke="transparent" points="8,-38.2 8,-1206.2 244,-1206.2 244,-38.2 8,-38.2"/>
<polygon fill="#f5f5f5" stroke="transparent" points="10,-1181.2 10,-1204.2 242,-1204.2 242,-1181.2 10,-1181.2"/>
<polygon fill="none" stroke="#000000" points="10,-1181.2 10,-1204.2 242,-1204.2 242,-1181.2 10,-1181.2"/>
<text text-anchor="start" x="15" y="-1189.8" font-family="Helvetica,sans-Serif" font-weight="bold" font-size="11.00" fill="#000000">sahulchar_units</text>
<text text-anchor="start" x="207.0437" y="-1189.3" font-family="Helvetica,sans-Serif" font-size="11.00" fill="#000000">[table]</text>
<polygon fill="none" stroke="#000000" points="10,-1159.2 10,-1181.2 123,-1181.2 123,-1159.2 10,-1159.2"/>
<text text-anchor="start" x="30" y="-1166.3" font-family="Helvetica,sans-Serif" font-size="11.00" fill="#000000">geom</text>
<polygon fill="none" stroke="#000000" points="123,-1159.2 123,-1181.2 242,-1181.2 242,-1159.2 123,-1159.2"/>
<text text-anchor="start" x="125.9485" y="-1166.9" font-family="Helvetica,sans-Serif" font-size="11.00" fill="#000000">geometry[2147483647]</text>
<polygon fill="none" stroke="#000000" points="10,-1137.2 10,-1159.2 123,-1159.2 123,-1137.2 10,-1137.2"/>
<image xlink:href="../../images/foreignKeys.png" width="11px" height="12px" preserveAspectRatio="xMinYMin meet" x="15" y="-1154.2"/>
<text text-anchor="start" x="30" y="-1144.3" font-family="Helvetica,sans-Serif" font-size="11.00" fill="#000000">UNITID</text>
<polygon fill="none" stroke="#000000" points="123,-1137.2 123,-1159.2 242,-1159.2 242,-1137.2 123,-1137.2"/>
<text text-anchor="start" x="126" y="-1144.9" font-family="Helvetica,sans-Serif" font-size="11.00" fill="#000000">int4[10]</text>
<polygon fill="none" stroke="#000000" points="10,-1115.2 10,-1137.2 123,-1137.2 123,-1115.2 10,-1115.2"/>
<text text-anchor="start" x="30" y="-1122.3" font-family="Helvetica,sans-Serif" font-size="11.00" fill="#000000">UNITNAME</text>
<polygon fill="none" stroke="#000000" points="123,-1115.2 123,-1137.2 242,-1137.2 242,-1115.2 123,-1115.2"/>
<text text-anchor="start" x="126" y="-1122.9" font-family="Helvetica,sans-Serif" font-size="11.00" fill="#000000">text[2147483647]</text>
<polygon fill="none" stroke="#000000" points="10,-1093.2 10,-1115.2 123,-1115.2 123,-1093.2 10,-1093.2"/>
<text text-anchor="start" x="30" y="-1100.3" font-family="Helvetica,sans-Serif" font-size="11.00" fill="#000000">UNITHANDLE</text>
<polygon fill="none" stroke="#000000" points="123,-1093.2 123,-1115.2 242,-1115.2 242,-1093.2 123,-1093.2"/>
<text text-anchor="start" x="126" y="-1100.9" font-family="Helvetica,sans-Serif" font-size="11.00" fill="#000000">varchar[10]</text>
<polygon fill="none" stroke="#000000" points="10,-1071.2 10,-1093.2 123,-1093.2 123,-1071.2 10,-1071.2"/>
<text text-anchor="start" x="30" y="-1078.3" font-family="Helvetica,sans-Serif" font-size="11.00" fill="#000000">UNITTYPE</text>
<polygon fill="none" stroke="#000000" points="123,-1071.2 123,-1093.2 242,-1093.2 242,-1071.2 123,-1071.2"/>
<text text-anchor="start" x="126" y="-1078.9" font-family="Helvetica,sans-Serif" font-size="11.00" fill="#000000">text[2147483647]</text>
<polygon fill="none" stroke="#000000" points="10,-1049.2 10,-1071.2 123,-1071.2 123,-1049.2 10,-1049.2"/>
<text text-anchor="start" x="30" y="-1056.3" font-family="Helvetica,sans-Serif" font-size="11.00" fill="#000000">COL_MTD</text>
<polygon fill="none" stroke="#000000" points="123,-1049.2 123,-1071.2 242,-1071.2 242,-1049.2 123,-1049.2"/>
<text text-anchor="start" x="126" y="-1056.9" font-family="Helvetica,sans-Serif" font-size="11.00" fill="#000000">text[2147483647]</text>
<polygon fill="none" stroke="#000000" points="10,-1027.2 10,-1049.2 123,-1049.2 123,-1027.2 10,-1027.2"/>
<text text-anchor="start" x="30" y="-1034.3" font-family="Helvetica,sans-Serif" font-size="11.00" fill="#000000">DEPOSIT</text>
<polygon fill="none" stroke="#000000" points="123,-1027.2 123,-1049.2 242,-1049.2 242,-1027.2 123,-1027.2"/>
<text text-anchor="start" x="126" y="-1034.9" font-family="Helvetica,sans-Serif" font-size="11.00" fill="#000000">text[2147483647]</text>
<polygon fill="none" stroke="#000000" points="10,-1005.2 10,-1027.2 123,-1027.2 123,-1005.2 10,-1005.2"/>
<text text-anchor="start" x="30" y="-1012.3" font-family="Helvetica,sans-Serif" font-size="11.00" fill="#000000">COLLDATE</text>
<polygon fill="none" stroke="#000000" points="123,-1005.2 123,-1027.2 242,-1027.2 242,-1005.2 123,-1005.2"/>
<text text-anchor="start" x="126" y="-1012.9" font-family="Helvetica,sans-Serif" font-size="11.00" fill="#000000">varchar[10]</text>
<polygon fill="none" stroke="#000000" points="10,-983.2 10,-1005.2 123,-1005.2 123,-983.2 10,-983.2"/>
<text text-anchor="start" x="30" y="-990.3" font-family="Helvetica,sans-Serif" font-size="11.00" fill="#000000">MAXAGE</text>
<polygon fill="none" stroke="#000000" points="123,-983.2 123,-1005.2 242,-1005.2 242,-983.2 123,-983.2"/>
<text text-anchor="start" x="126" y="-990.9" font-family="Helvetica,sans-Serif" font-size="11.00" fill="#000000">numeric[0]</text>
<polygon fill="none" stroke="#000000" points="10,-961.2 10,-983.2 123,-983.2 123,-961.2 10,-961.2"/>
<text text-anchor="start" x="30" y="-968.3" font-family="Helvetica,sans-Serif" font-size="11.00" fill="#000000">N_CHAR_REC</text>
<polygon fill="none" stroke="#000000" points="123,-961.2 123,-983.2 242,-983.2 242,-961.2 123,-961.2"/>
<text text-anchor="start" x="126" y="-968.9" font-family="Helvetica,sans-Serif" font-size="11.00" fill="#000000">int4[10]</text>
<polygon fill="none" stroke="#000000" points="10,-939.2 10,-961.2 123,-961.2 123,-939.2 10,-939.2"/>
<text text-anchor="start" x="30" y="-946.3" font-family="Helvetica,sans-Serif" font-size="11.00" fill="#000000">WATERDEPTH</text>
<polygon fill="none" stroke="#000000" points="123,-939.2 123,-961.2 242,-961.2 242,-939.2 123,-939.2"/>
<text text-anchor="start" x="126" y="-946.9" font-family="Helvetica,sans-Serif" font-size="11.00" fill="#000000">numeric[0]</text>
<polygon fill="none" stroke="#000000" points="10,-917.2 10,-939.2 123,-939.2 123,-917.2 10,-917.2"/>
<text text-anchor="start" x="30" y="-924.3" font-family="Helvetica,sans-Serif" font-size="11.00" fill="#000000">NEO_HANDLE</text>
<polygon fill="none" stroke="#000000" points="123,-917.2 123,-939.2 242,-939.2 242,-917.2 123,-917.2"/>
<text text-anchor="start" x="126" y="-924.9" font-family="Helvetica,sans-Serif" font-size="11.00" fill="#000000">varchar[10]</text>
<polygon fill="none" stroke="#000000" points="10,-895.2 10,-917.2 123,-917.2 123,-895.2 10,-895.2"/>
<text text-anchor="start" x="30" y="-902.3" font-family="Helvetica,sans-Serif" font-size="11.00" fill="#000000">COLL_SPEC</text>
<polygon fill="none" stroke="#000000" points="123,-895.2 123,-917.2 242,-917.2 242,-895.2 123,-895.2"/>
<text text-anchor="start" x="126" y="-902.9" font-family="Helvetica,sans-Serif" font-size="11.00" fill="#000000">text[2147483647]</text>
<polygon fill="none" stroke="#000000" points="10,-873.2 10,-895.2 123,-895.2 123,-873.2 10,-873.2"/>
<text text-anchor="start" x="30" y="-880.3" font-family="Helvetica,sans-Serif" font-size="11.00" fill="#000000">UNIT_COMMT</text>
<polygon fill="none" stroke="#000000" points="123,-873.2 123,-895.2 242,-895.2 242,-873.2 123,-873.2"/>
<text text-anchor="start" x="126" y="-880.9" font-family="Helvetica,sans-Serif" font-size="11.00" fill="#000000">text[2147483647]</text>
<polygon fill="none" stroke="#000000" points="10,-851.2 10,-873.2 123,-873.2 123,-851.2 10,-851.2"/>
<image xlink:href="../../images/foreignKeys.png" width="11px" height="12px" preserveAspectRatio="xMinYMin meet" x="15" y="-868.2"/>
<text text-anchor="start" x="30" y="-858.3" font-family="Helvetica,sans-Serif" font-size="11.00" fill="#000000">SITEID</text>
<polygon fill="none" stroke="#000000" points="123,-851.2 123,-873.2 242,-873.2 242,-851.2 123,-851.2"/>
<text text-anchor="start" x="126" y="-858.9" font-family="Helvetica,sans-Serif" font-size="11.00" fill="#000000">text[2147483647]</text>
<polygon fill="none" stroke="#000000" points="10,-829.2 10,-851.2 123,-851.2 123,-829.2 10,-829.2"/>
<text text-anchor="start" x="30" y="-836.3" font-family="Helvetica,sans-Serif" font-size="11.00" fill="#000000">SITENAME</text>
<polygon fill="none" stroke="#000000" points="123,-829.2 123,-851.2 242,-851.2 242,-829.2 123,-829.2"/>
<text text-anchor="start" x="126" y="-836.9" font-family="Helvetica,sans-Serif" font-size="11.00" fill="#000000">text[2147483647]</text>
<polygon fill="none" stroke="#000000" points="10,-807.2 10,-829.2 123,-829.2 123,-807.2 10,-807.2"/>
<text text-anchor="start" x="30" y="-814.3" font-family="Helvetica,sans-Serif" font-size="11.00" fill="#000000">SITECODE</text>
<polygon fill="none" stroke="#000000" points="123,-807.2 123,-829.2 242,-829.2 242,-807.2 123,-807.2"/>
<text text-anchor="start" x="126" y="-814.9" font-family="Helvetica,sans-Serif" font-size="11.00" fill="#000000">text[2147483647]</text>
<polygon fill="none" stroke="#000000" points="10,-785.2 10,-807.2 123,-807.2 123,-785.2 10,-785.2"/>
<text text-anchor="start" x="30" y="-792.3" font-family="Helvetica,sans-Serif" font-size="11.00" fill="#000000">SITE_COMMT</text>
<polygon fill="none" stroke="#000000" points="123,-785.2 123,-807.2 242,-807.2 242,-785.2 123,-785.2"/>
<text text-anchor="start" x="126" y="-792.9" font-family="Helvetica,sans-Serif" font-size="11.00" fill="#000000">text[2147483647]</text>
<polygon fill="none" stroke="#000000" points="10,-763.2 10,-785.2 123,-785.2 123,-763.2 10,-763.2"/>
<text text-anchor="start" x="30" y="-770.3" font-family="Helvetica,sans-Serif" font-size="11.00" fill="#000000">CNTRY</text>
<polygon fill="none" stroke="#000000" points="123,-763.2 123,-785.2 242,-785.2 242,-763.2 123,-763.2"/>
<text text-anchor="start" x="126" y="-770.9" font-family="Helvetica,sans-Serif" font-size="11.00" fill="#000000">varchar[2147483647]</text>
<polygon fill="none" stroke="#000000" points="10,-741.2 10,-763.2 123,-763.2 123,-741.2 10,-741.2"/>
<text text-anchor="start" x="30" y="-748.3" font-family="Helvetica,sans-Serif" font-size="11.00" fill="#000000">REGION_REG</text>
<polygon fill="none" stroke="#000000" points="123,-741.2 123,-763.2 242,-763.2 242,-741.2 123,-741.2"/>
<text text-anchor="start" x="126" y="-748.9" font-family="Helvetica,sans-Serif" font-size="11.00" fill="#000000">varchar[2147483647]</text>
<polygon fill="none" stroke="#000000" points="10,-719.2 10,-741.2 123,-741.2 123,-719.2 10,-719.2"/>
<text text-anchor="start" x="30" y="-726.3" font-family="Helvetica,sans-Serif" font-size="11.00" fill="#000000">DIV_ADMIN</text>
<polygon fill="none" stroke="#000000" points="123,-719.2 123,-741.2 242,-741.2 242,-719.2 123,-719.2"/>
<text text-anchor="start" x="126" y="-726.9" font-family="Helvetica,sans-Serif" font-size="11.00" fill="#000000">varchar[2147483647]</text>
<polygon fill="none" stroke="#000000" points="10,-697.2 10,-719.2 123,-719.2 123,-697.2 10,-697.2"/>
<text text-anchor="start" x="30" y="-704.3" font-family="Helvetica,sans-Serif" font-size="11.00" fill="#000000">DIV_OTHER</text>
<polygon fill="none" stroke="#000000" points="123,-697.2 123,-719.2 242,-719.2 242,-697.2 123,-697.2"/>
<text text-anchor="start" x="126" y="-704.9" font-family="Helvetica,sans-Serif" font-size="11.00" fill="#000000">text[2147483647]</text>
<polygon fill="none" stroke="#000000" points="10,-675.2 10,-697.2 123,-697.2 123,-675.2 10,-675.2"/>
<text text-anchor="start" x="30" y="-682.3" font-family="Helvetica,sans-Serif" font-size="11.00" fill="#000000">ISL_NAME</text>
<polygon fill="none" stroke="#000000" points="123,-675.2 123,-697.2 242,-697.2 242,-675.2 123,-675.2"/>
<text text-anchor="start" x="126" y="-682.9" font-family="Helvetica,sans-Serif" font-size="11.00" fill="#000000">text[2147483647]</text>
<polygon fill="none" stroke="#000000" points="10,-653.2 10,-675.2 123,-675.2 123,-653.2 10,-653.2"/>
<text text-anchor="start" x="30" y="-660.3" font-family="Helvetica,sans-Serif" font-size="11.00" fill="#000000">LAKE</text>
<polygon fill="none" stroke="#000000" points="123,-653.2 123,-675.2 242,-675.2 242,-653.2 123,-653.2"/>
<text text-anchor="start" x="126" y="-660.9" font-family="Helvetica,sans-Serif" font-size="11.00" fill="#000000">text[2147483647]</text>
<polygon fill="none" stroke="#000000" points="10,-631.2 10,-653.2 123,-653.2 123,-631.2 10,-631.2"/>
<text text-anchor="start" x="30" y="-638.3" font-family="Helvetica,sans-Serif" font-size="11.00" fill="#000000">AHGFL1</text>
<polygon fill="none" stroke="#000000" points="123,-631.2 123,-653.2 242,-653.2 242,-631.2 123,-631.2"/>
<text text-anchor="start" x="126" y="-638.9" font-family="Helvetica,sans-Serif" font-size="11.00" fill="#000000">varchar[3]</text>
<polygon fill="none" stroke="#000000" points="10,-609.2 10,-631.2 123,-631.2 123,-609.2 10,-609.2"/>
<text text-anchor="start" x="30" y="-616.3" font-family="Helvetica,sans-Serif" font-size="11.00" fill="#000000">AHGFL2</text>
<polygon fill="none" stroke="#000000" points="123,-609.2 123,-631.2 242,-631.2 242,-609.2 123,-609.2"/>
<text text-anchor="start" x="126" y="-616.9" font-family="Helvetica,sans-Serif" font-size="11.00" fill="#000000">varchar[6]</text>
<polygon fill="none" stroke="#000000" points="10,-587.2 10,-609.2 123,-609.2 123,-587.2 10,-587.2"/>
<text text-anchor="start" x="30" y="-594.3" font-family="Helvetica,sans-Serif" font-size="11.00" fill="#000000">RIVNAME</text>
<polygon fill="none" stroke="#000000" points="123,-587.2 123,-609.2 242,-609.2 242,-587.2 123,-587.2"/>
<text text-anchor="start" x="126" y="-594.9" font-family="Helvetica,sans-Serif" font-size="11.00" fill="#000000">text[2147483647]</text>
<polygon fill="none" stroke="#000000" points="10,-565.2 10,-587.2 123,-587.2 123,-565.2 10,-565.2"/>
<text text-anchor="start" x="30" y="-572.3" font-family="Helvetica,sans-Serif" font-size="11.00" fill="#000000">RIVDIV</text>
<polygon fill="none" stroke="#000000" points="123,-565.2 123,-587.2 242,-587.2 242,-565.2 123,-565.2"/>
<text text-anchor="start" x="126" y="-572.9" font-family="Helvetica,sans-Serif" font-size="11.00" fill="#000000">text[2147483647]</text>
<polygon fill="none" stroke="#000000" points="10,-543.2 10,-565.2 123,-565.2 123,-543.2 10,-543.2"/>
<text text-anchor="start" x="30" y="-550.3" font-family="Helvetica,sans-Serif" font-size="11.00" fill="#000000">IBRACODE</text>
<polygon fill="none" stroke="#000000" points="123,-543.2 123,-565.2 242,-565.2 242,-543.2 123,-543.2"/>
<text text-anchor="start" x="126" y="-550.9" font-family="Helvetica,sans-Serif" font-size="11.00" fill="#000000">varchar[3]</text>
<polygon fill="none" stroke="#000000" points="10,-521.2 10,-543.2 123,-543.2 123,-521.2 10,-521.2"/>
<text text-anchor="start" x="30" y="-528.3" font-family="Helvetica,sans-Serif" font-size="11.00" fill="#000000">IBRAREGION</text>
<polygon fill="none" stroke="#000000" points="123,-521.2 123,-543.2 242,-543.2 242,-521.2 123,-521.2"/>
<text text-anchor="start" x="126" y="-528.9" font-family="Helvetica,sans-Serif" font-size="11.00" fill="#000000">text[2147483647]</text>
<polygon fill="none" stroke="#000000" points="10,-499.2 10,-521.2 123,-521.2 123,-499.2 10,-499.2"/>
<text text-anchor="start" x="30" y="-506.3" font-family="Helvetica,sans-Serif" font-size="11.00" fill="#000000">X_WGS84</text>
<polygon fill="none" stroke="#000000" points="123,-499.2 123,-521.2 242,-521.2 242,-499.2 123,-499.2"/>
<text text-anchor="start" x="126" y="-506.9" font-family="Helvetica,sans-Serif" font-size="11.00" fill="#000000">numeric[10,6]</text>
<polygon fill="none" stroke="#000000" points="10,-477.2 10,-499.2 123,-499.2 123,-477.2 10,-477.2"/>
<text text-anchor="start" x="30" y="-484.3" font-family="Helvetica,sans-Serif" font-size="11.00" fill="#000000">Y_WGS84</text>
<polygon fill="none" stroke="#000000" points="123,-477.2 123,-499.2 242,-499.2 242,-477.2 123,-477.2"/>
<text text-anchor="start" x="126" y="-484.9" font-family="Helvetica,sans-Serif" font-size="11.00" fill="#000000">numeric[10,6]</text>
<polygon fill="none" stroke="#000000" points="10,-455.2 10,-477.2 123,-477.2 123,-455.2 10,-455.2"/>
<text text-anchor="start" x="30" y="-462.3" font-family="Helvetica,sans-Serif" font-size="11.00" fill="#000000">CORDS_ELEV</text>
<polygon fill="none" stroke="#000000" points="123,-455.2 123,-477.2 242,-477.2 242,-455.2 123,-455.2"/>
<text text-anchor="start" x="126" y="-462.9" font-family="Helvetica,sans-Serif" font-size="11.00" fill="#000000">varchar[2147483647]</text>
<polygon fill="none" stroke="#000000" points="10,-433.2 10,-455.2 123,-455.2 123,-433.2 10,-433.2"/>
<text text-anchor="start" x="30" y="-440.3" font-family="Helvetica,sans-Serif" font-size="11.00" fill="#000000">ELEVATION</text>
<polygon fill="none" stroke="#000000" points="123,-433.2 123,-455.2 242,-455.2 242,-433.2 123,-433.2"/>
<text text-anchor="start" x="126" y="-440.9" font-family="Helvetica,sans-Serif" font-size="11.00" fill="#000000">numeric[6,2]</text>
<polygon fill="none" stroke="#000000" points="10,-411.2 10,-433.2 123,-433.2 123,-411.2 10,-411.2"/>
<text text-anchor="start" x="30" y="-418.3" font-family="Helvetica,sans-Serif" font-size="11.00" fill="#000000">BIOME</text>
<polygon fill="none" stroke="#000000" points="123,-411.2 123,-433.2 242,-433.2 242,-411.2 123,-411.2"/>
<text text-anchor="start" x="126" y="-418.9" font-family="Helvetica,sans-Serif" font-size="11.00" fill="#000000">text[2147483647]</text>
<polygon fill="none" stroke="#000000" points="10,-389.2 10,-411.2 123,-411.2 123,-389.2 10,-389.2"/>
<text text-anchor="start" x="30" y="-396.3" font-family="Helvetica,sans-Serif" font-size="11.00" fill="#000000">CATCHSIZE</text>
<polygon fill="none" stroke="#000000" points="123,-389.2 123,-411.2 242,-411.2 242,-389.2 123,-389.2"/>
<text text-anchor="start" x="126" y="-396.9" font-family="Helvetica,sans-Serif" font-size="11.00" fill="#000000">varchar[3]</text>
<polygon fill="none" stroke="#000000" points="10,-367.2 10,-389.2 123,-389.2 123,-367.2 10,-367.2"/>
<text text-anchor="start" x="30" y="-374.3" font-family="Helvetica,sans-Serif" font-size="11.00" fill="#000000">BASINSIZE</text>
<polygon fill="none" stroke="#000000" points="123,-367.2 123,-389.2 242,-389.2 242,-367.2 123,-367.2"/>
<text text-anchor="start" x="126" y="-374.9" font-family="Helvetica,sans-Serif" font-size="11.00" fill="#000000">varchar[3]</text>
<polygon fill="none" stroke="#000000" points="10,-345.2 10,-367.2 123,-367.2 123,-345.2 10,-345.2"/>
<text text-anchor="start" x="30" y="-352.3" font-family="Helvetica,sans-Serif" font-size="11.00" fill="#000000">FLOWTYPE</text>
<polygon fill="none" stroke="#000000" points="123,-345.2 123,-367.2 242,-367.2 242,-345.2 123,-345.2"/>
<text text-anchor="start" x="126" y="-352.9" font-family="Helvetica,sans-Serif" font-size="11.00" fill="#000000">varchar[7]</text>
<polygon fill="none" stroke="#000000" points="10,-323.2 10,-345.2 123,-345.2 123,-323.2 10,-323.2"/>
<text text-anchor="start" x="30" y="-330.3" font-family="Helvetica,sans-Serif" font-size="11.00" fill="#000000">NEO_SITEID</text>
<polygon fill="none" stroke="#000000" points="123,-323.2 123,-345.2 242,-345.2 242,-323.2 123,-323.2"/>
<text text-anchor="start" x="126" y="-330.9" font-family="Helvetica,sans-Serif" font-size="11.00" fill="#000000">int4[10]</text>
<polygon fill="none" stroke="#000000" points="10,-301.2 10,-323.2 123,-323.2 123,-301.2 10,-301.2"/>
<text text-anchor="start" x="30" y="-308.3" font-family="Helvetica,sans-Serif" font-size="11.00" fill="#000000">SITEDESCR</text>
<polygon fill="none" stroke="#000000" points="123,-301.2 123,-323.2 242,-323.2 242,-301.2 123,-301.2"/>
<text text-anchor="start" x="126" y="-308.9" font-family="Helvetica,sans-Serif" font-size="11.00" fill="#000000">text[2147483647]</text>
<polygon fill="none" stroke="#000000" points="10,-279.2 10,-301.2 123,-301.2 123,-279.2 10,-279.2"/>
<text text-anchor="start" x="30" y="-286.3" font-family="Helvetica,sans-Serif" font-size="11.00" fill="#000000">SITE_SPEC</text>
<polygon fill="none" stroke="#000000" points="123,-279.2 123,-301.2 242,-301.2 242,-279.2 123,-279.2"/>
<text text-anchor="start" x="126" y="-286.9" font-family="Helvetica,sans-Serif" font-size="11.00" fill="#000000">text[2147483647]</text>
<polygon fill="none" stroke="#000000" points="10,-257.2 10,-279.2 123,-279.2 123,-257.2 10,-257.2"/>
<text text-anchor="start" x="30" y="-264.3" font-family="Helvetica,sans-Serif" font-size="11.00" fill="#000000">UNIT_REF</text>
<polygon fill="none" stroke="#000000" points="123,-257.2 123,-279.2 242,-279.2 242,-257.2 123,-257.2"/>
<text text-anchor="start" x="126" y="-264.9" font-family="Helvetica,sans-Serif" font-size="11.00" fill="#000000">text[2147483647]</text>
<polygon fill="none" stroke="#000000" points="10,-235.2 10,-257.2 123,-257.2 123,-235.2 10,-235.2"/>
<image xlink:href="../../images/foreignKeys.png" width="11px" height="12px" preserveAspectRatio="xMinYMin meet" x="15" y="-252.2"/>
<text text-anchor="start" x="30" y="-242.3" font-family="Helvetica,sans-Serif" font-size="11.00" fill="#000000">OAID</text>
<polygon fill="none" stroke="#000000" points="123,-235.2 123,-257.2 242,-257.2 242,-235.2 123,-235.2"/>
<text text-anchor="start" x="126" y="-242.9" font-family="Helvetica,sans-Serif" font-size="11.00" fill="#000000">varchar[11]</text>
<polygon fill="none" stroke="#000000" points="10,-213.2 10,-235.2 123,-235.2 123,-213.2 10,-213.2"/>
<text text-anchor="start" x="30" y="-220.3" font-family="Helvetica,sans-Serif" font-size="11.00" fill="#000000">AUTHOR</text>
<polygon fill="none" stroke="#000000" points="123,-213.2 123,-235.2 242,-235.2 242,-213.2 123,-213.2"/>
<text text-anchor="start" x="126" y="-220.9" font-family="Helvetica,sans-Serif" font-size="11.00" fill="#000000">text[2147483647]</text>
<polygon fill="none" stroke="#000000" points="10,-191.2 10,-213.2 123,-213.2 123,-191.2 10,-191.2"/>
<text text-anchor="start" x="30" y="-198.3" font-family="Helvetica,sans-Serif" font-size="11.00" fill="#000000">PUBYEAR</text>
<polygon fill="none" stroke="#000000" points="123,-191.2 123,-213.2 242,-213.2 242,-191.2 123,-191.2"/>
<text text-anchor="start" x="126" y="-198.9" font-family="Helvetica,sans-Serif" font-size="11.00" fill="#000000">int2[5]</text>
<polygon fill="none" stroke="#000000" points="10,-169.2 10,-191.2 123,-191.2 123,-169.2 10,-169.2"/>
<text text-anchor="start" x="30" y="-176.3" font-family="Helvetica,sans-Serif" font-size="11.00" fill="#000000">REFID</text>
<polygon fill="none" stroke="#000000" points="123,-169.2 123,-191.2 242,-191.2 242,-169.2 123,-169.2"/>
<text text-anchor="start" x="126" y="-176.9" font-family="Helvetica,sans-Serif" font-size="11.00" fill="#000000">text[2147483647]</text>
<polygon fill="none" stroke="#000000" points="10,-147.2 10,-169.2 123,-169.2 123,-147.2 10,-147.2"/>
<text text-anchor="start" x="30" y="-154.3" font-family="Helvetica,sans-Serif" font-size="11.00" fill="#000000">REFDOI</text>
<polygon fill="none" stroke="#000000" points="123,-147.2 123,-169.2 242,-169.2 242,-147.2 123,-147.2"/>
<text text-anchor="start" x="126" y="-154.9" font-family="Helvetica,sans-Serif" font-size="11.00" fill="#000000">text[2147483647]</text>
<polygon fill="none" stroke="#000000" points="10,-125.2 10,-147.2 123,-147.2 123,-125.2 10,-125.2"/>
<image xlink:href="../../images/foreignKeys.png" width="11px" height="12px" preserveAspectRatio="xMinYMin meet" x="15" y="-142.2"/>
<text text-anchor="start" x="30" y="-132.3" font-family="Helvetica,sans-Serif" font-size="11.00" fill="#000000">METASITEID</text>
<polygon fill="none" stroke="#000000" points="123,-125.2 123,-147.2 242,-147.2 242,-125.2 123,-125.2"/>
<text text-anchor="start" x="126" y="-132.9" font-family="Helvetica,sans-Serif" font-size="11.00" fill="#000000">text[2147483647]</text>
<polygon fill="none" stroke="#000000" points="10,-103.2 10,-125.2 123,-125.2 123,-103.2 10,-103.2"/>
<text text-anchor="start" x="30" y="-110.3" font-family="Helvetica,sans-Serif" font-size="11.00" fill="#000000">METANAME</text>
<polygon fill="none" stroke="#000000" points="123,-103.2 123,-125.2 242,-125.2 242,-103.2 123,-103.2"/>
<text text-anchor="start" x="126" y="-110.9" font-family="Helvetica,sans-Serif" font-size="11.00" fill="#000000">text[2147483647]</text>
<polygon fill="none" stroke="#000000" points="10,-81.2 10,-103.2 123,-103.2 123,-81.2 10,-81.2"/>
<text text-anchor="start" x="30" y="-88.3" font-family="Helvetica,sans-Serif" font-size="11.00" fill="#000000">META_DESCR</text>
<polygon fill="none" stroke="#000000" points="123,-81.2 123,-103.2 242,-103.2 242,-81.2 123,-81.2"/>
<text text-anchor="start" x="126" y="-88.9" font-family="Helvetica,sans-Serif" font-size="11.00" fill="#000000">text[2147483647]</text>
<polygon fill="none" stroke="#000000" points="10,-59.2 10,-81.2 123,-81.2 123,-59.2 10,-59.2"/>
<image xlink:href="../../images/primaryKeys.png" width="11px" height="12px" preserveAspectRatio="xMinYMin meet" x="15" y="-76.2"/>
<text text-anchor="start" x="30" y="-66.3" font-family="Helvetica,sans-Serif" font-size="11.00" fill="#000000">id</text>
<polygon fill="none" stroke="#000000" points="123,-59.2 123,-81.2 242,-81.2 242,-59.2 123,-59.2"/>
<text text-anchor="start" x="126" y="-66.9" font-family="Helvetica,sans-Serif" font-size="11.00" fill="#000000">serial[10]</text>
<polygon fill="#ffffff" stroke="transparent" points="10,-40.2 10,-59.2 52,-59.2 52,-40.2 10,-40.2"/>
<polygon fill="none" stroke="#000000" points="10,-40.2 10,-59.2 52,-59.2 52,-40.2 10,-40.2"/>
<text text-anchor="start" x="13" y="-46.3" font-family="Helvetica,sans-Serif" font-size="11.00" fill="#000000">&lt; 0</text>
<polygon fill="#ffffff" stroke="transparent" points="52,-40.2 52,-59.2 123,-59.2 123,-40.2 52,-40.2"/>
<polygon fill="none" stroke="#000000" points="52,-40.2 52,-59.2 123,-59.2 123,-40.2 52,-40.2"/>
<text text-anchor="start" x="75.3807" y="-46.3" font-family="Helvetica,sans-Serif" font-size="11.00" fill="#000000">535 rows</text>
<polygon fill="#ffffff" stroke="transparent" points="123,-40.2 123,-59.2 242,-59.2 242,-40.2 123,-40.2"/>
<polygon fill="none" stroke="#000000" points="123,-40.2 123,-59.2 242,-59.2 242,-40.2 123,-40.2"/>
<text text-anchor="start" x="223.4053" y="-46.3" font-family="Helvetica,sans-Serif" font-size="11.00" fill="#000000">0 &gt;</text>
<polygon fill="none" stroke="#000000" stroke-width="2" points="9,-39.2 9,-1205.2 243,-1205.2 243,-39.2 9,-39.2"/>
</a>
</g>
</g>
</g>
</svg>
