<?xml version="1.0" encoding="UTF-8" standalone="no"?>
<!DOCTYPE svg PUBLIC "-//W3C//DTD SVG 1.1//EN"
 "http://www.w3.org/Graphics/SVG/1.1/DTD/svg11.dtd">
<!-- Generated by graphviz version 2.40.1 (20161225.0304)
 -->
<!-- Title: twoDegreesRelationshipsDiagramImplied Pages: 1 -->
<svg width="961pt" height="852pt"
 viewBox="0.00 0.00 961.00 852.50" xmlns="http://www.w3.org/2000/svg" xmlns:xlink="http://www.w3.org/1999/xlink">
<g id="graph0" class="graph" transform="scale(1 1) rotate(0) translate(4 848.4957)">
<title>twoDegreesRelationshipsDiagramImplied</title>
<polygon fill="#ffffff" stroke="transparent" points="-4,4 -4,-848.4957 957,-848.4957 957,4 -4,4"/>
<text text-anchor="middle" x="72.4936" y="-7.3" font-family="Helvetica,sans-Serif" font-size="11.00" fill="#000000">Generated by SchemaSpy</text>
<!-- cabah_AnalysisUnit -->
<g id="node1" class="node">
<title>cabah_AnalysisUnit</title>
<g id="a_node1"><a xlink:href="../../tables/cabah_AnalysisUnit.html" xlink:title="cabah_AnalysisUnit" target="_top">
<polygon fill="#ffffff" stroke="transparent" points="486,-90.5921 486,-151.5921 639,-151.5921 639,-90.5921 486,-90.5921"/>
<polygon fill="#f5f5f5" stroke="transparent" points="486.5,-128.0921 486.5,-151.0921 639.5,-151.0921 639.5,-128.0921 486.5,-128.0921"/>
<polygon fill="none" stroke="#000000" points="486.5,-128.0921 486.5,-151.0921 639.5,-151.0921 639.5,-128.0921 486.5,-128.0921"/>
<text text-anchor="start" x="491.5" y="-136.6921" font-family="Helvetica,sans-Serif" font-weight="bold" font-size="11.00" fill="#000000">cabah_AnalysisUnit</text>
<text text-anchor="start" x="605.0219" y="-136.1921" font-family="Helvetica,sans-Serif" font-size="11.00" fill="#000000">[table]</text>
<polygon fill="none" stroke="#000000" points="486.5,-109.0921 486.5,-128.0921 639.5,-128.0921 639.5,-109.0921 486.5,-109.0921"/>
<text text-anchor="start" x="489.5" y="-115.1921" font-family="Helvetica,sans-Serif" font-size="11.00" fill="#000000">...</text>
<polygon fill="#ffffff" stroke="transparent" points="486.5,-90.0921 486.5,-109.0921 530.5,-109.0921 530.5,-90.0921 486.5,-90.0921"/>
<polygon fill="none" stroke="#000000" points="486.5,-90.0921 486.5,-109.0921 530.5,-109.0921 530.5,-90.0921 486.5,-90.0921"/>
<text text-anchor="start" x="489.5" y="-96.1921" font-family="Helvetica,sans-Serif" font-size="11.00" fill="#000000">&lt; 3</text>
<polygon fill="#ffffff" stroke="transparent" points="530.5,-90.0921 530.5,-109.0921 606.5,-109.0921 606.5,-90.0921 530.5,-90.0921"/>
<polygon fill="none" stroke="#000000" points="530.5,-90.0921 530.5,-109.0921 606.5,-109.0921 606.5,-90.0921 530.5,-90.0921"/>
<text text-anchor="start" x="543.594" y="-96.1921" font-family="Helvetica,sans-Serif" font-size="11.00" fill="#000000">15.022 rows</text>
<polygon fill="#ffffff" stroke="transparent" points="606.5,-90.0921 606.5,-109.0921 639.5,-109.0921 639.5,-90.0921 606.5,-90.0921"/>
<polygon fill="none" stroke="#000000" points="606.5,-90.0921 606.5,-109.0921 639.5,-109.0921 639.5,-90.0921 606.5,-90.0921"/>
<text text-anchor="start" x="620.9053" y="-96.1921" font-family="Helvetica,sans-Serif" font-size="11.00" fill="#000000">1 &gt;</text>
</a>
</g>
</g>
<!-- cabah_depositID -->
<g id="node2" class="node">
<title>cabah_depositID</title>
<g id="a_node2"><a xlink:href="../../tables/cabah_depositID.html" xlink:title="cabah_depositID" target="_top">
<polygon fill="#ffffff" stroke="transparent" points="11,-232.5921 11,-293.5921 146,-293.5921 146,-232.5921 11,-232.5921"/>
<polygon fill="#f5f5f5" stroke="transparent" points="11.5,-270.0921 11.5,-293.0921 146.5,-293.0921 146.5,-270.0921 11.5,-270.0921"/>
<polygon fill="none" stroke="#000000" points="11.5,-270.0921 11.5,-293.0921 146.5,-293.0921 146.5,-270.0921 11.5,-270.0921"/>
<text text-anchor="start" x="16.5" y="-278.6921" font-family="Helvetica,sans-Serif" font-weight="bold" font-size="11.00" fill="#000000">cabah_depositID</text>
<text text-anchor="start" x="112.0219" y="-278.1921" font-family="Helvetica,sans-Serif" font-size="11.00" fill="#000000">[table]</text>
<polygon fill="none" stroke="#000000" points="11.5,-251.0921 11.5,-270.0921 146.5,-270.0921 146.5,-251.0921 11.5,-251.0921"/>
<text text-anchor="start" x="14.5" y="-257.1921" font-family="Helvetica,sans-Serif" font-size="11.00" fill="#000000">...</text>
<polygon fill="#ffffff" stroke="transparent" points="11.5,-232.0921 11.5,-251.0921 53.5,-251.0921 53.5,-232.0921 11.5,-232.0921"/>
<polygon fill="none" stroke="#000000" points="11.5,-232.0921 11.5,-251.0921 53.5,-251.0921 53.5,-232.0921 11.5,-232.0921"/>
<text text-anchor="start" x="14.5" y="-238.1921" font-family="Helvetica,sans-Serif" font-size="11.00" fill="#000000">&lt; 1</text>
<polygon fill="#ffffff" stroke="transparent" points="53.5,-232.0921 53.5,-251.0921 114.5,-251.0921 114.5,-232.0921 53.5,-232.0921"/>
<polygon fill="none" stroke="#000000" points="53.5,-232.0921 53.5,-251.0921 114.5,-251.0921 114.5,-232.0921 53.5,-232.0921"/>
<text text-anchor="start" x="66.8807" y="-238.1921" font-family="Helvetica,sans-Serif" font-size="11.00" fill="#000000">119 rows</text>
<polygon fill="#ffffff" stroke="transparent" points="114.5,-232.0921 114.5,-251.0921 146.5,-251.0921 146.5,-232.0921 114.5,-232.0921"/>
<polygon fill="none" stroke="#000000" points="114.5,-232.0921 114.5,-251.0921 146.5,-251.0921 146.5,-232.0921 114.5,-232.0921"/>
<text text-anchor="start" x="127.9053" y="-238.1921" font-family="Helvetica,sans-Serif" font-size="11.00" fill="#000000">3 &gt;</text>
</a>
</g>
</g>
<!-- cabah_AnalysisUnit&#45;&gt;cabah_depositID -->
<g id="edge1" class="edge">
<title>cabah_AnalysisUnit:w&#45;&gt;cabah_depositID:e</title>
<path fill="none" stroke="#000000" d="M472.0746,-118.0888C346.7043,-118.0648 296.9912,-119.1048 190,-195.0921 161.6592,-215.2203 181.2613,-260.0921 146.5,-260.0921"/>
<polygon fill="#000000" stroke="#000000" points="478.5,-118.0902 486.4992,-121.6921 482.5,-118.0912 486.5,-118.0921 486.5,-118.0921 486.5,-118.0921 482.5,-118.0912 486.5008,-114.4921 478.5,-118.0902 478.5,-118.0902"/>
<ellipse fill="none" stroke="#000000" cx="475.3" cy="-118.0895" rx="3.2" ry="3.2"/>
</g>
<!-- global_UnitMaster -->
<g id="node3" class="node">
<title>global_UnitMaster</title>
<g id="a_node3"><a xlink:href="../../tables/global_UnitMaster.html" xlink:title="global_UnitMaster" target="_top">
<polygon fill="#ffffff" stroke="transparent" points="198,-205.5921 198,-464.5921 341,-464.5921 341,-205.5921 198,-205.5921"/>
<polygon fill="#f5f5f5" stroke="transparent" points="198.5,-441.0921 198.5,-464.0921 341.5,-464.0921 341.5,-441.0921 198.5,-441.0921"/>
<polygon fill="none" stroke="#000000" points="198.5,-441.0921 198.5,-464.0921 341.5,-464.0921 341.5,-441.0921 198.5,-441.0921"/>
<text text-anchor="start" x="203.5" y="-449.6921" font-family="Helvetica,sans-Serif" font-weight="bold" font-size="11.00" fill="#000000">global_UnitMaster</text>
<text text-anchor="start" x="307.0219" y="-449.1921" font-family="Helvetica,sans-Serif" font-size="11.00" fill="#000000">[table]</text>
<polygon fill="none" stroke="#000000" points="198.5,-419.0921 198.5,-441.0921 341.5,-441.0921 341.5,-419.0921 198.5,-419.0921"/>
<image xlink:href="../../images/primaryKeys.png" width="11px" height="12px" preserveAspectRatio="xMinYMin meet" x="203.5" y="-436.092"/>
<text text-anchor="start" x="227.5" y="-426.1921" font-family="Helvetica,sans-Serif" font-size="11.00" fill="#000000">UNITID</text>
<polygon fill="none" stroke="#000000" points="198.5,-397.0921 198.5,-419.0921 341.5,-419.0921 341.5,-397.0921 198.5,-397.0921"/>
<image xlink:href="../../images/foreignKeys.png" width="11px" height="12px" preserveAspectRatio="xMinYMin meet" x="203.5" y="-414.092"/>
<text text-anchor="start" x="227.5" y="-404.1921" font-family="Helvetica,sans-Serif" font-size="11.00" fill="#000000">SITEID</text>
<polygon fill="#ffffff" stroke="transparent" points="198.5,-375.0921 198.5,-397.0921 341.5,-397.0921 341.5,-375.0921 198.5,-375.0921"/>
<polygon fill="none" stroke="#000000" points="198.5,-375.0921 198.5,-397.0921 341.5,-397.0921 341.5,-375.0921 198.5,-375.0921"/>
<text text-anchor="start" x="227.5" y="-382.1921" font-family="Helvetica,sans-Serif" font-size="11.00" fill="#000000">UNITHANDLE</text>
<polygon fill="none" stroke="#000000" points="198.5,-353.0921 198.5,-375.0921 341.5,-375.0921 341.5,-353.0921 198.5,-353.0921"/>
<image xlink:href="../../images/foreignKeys.png" width="11px" height="12px" preserveAspectRatio="xMinYMin meet" x="203.5" y="-370.092"/>
<text text-anchor="start" x="227.5" y="-360.1921" font-family="Helvetica,sans-Serif" font-size="11.00" fill="#000000">UNITTYPEID</text>
<polygon fill="none" stroke="#000000" points="198.5,-331.0921 198.5,-353.0921 341.5,-353.0921 341.5,-331.0921 198.5,-331.0921"/>
<image xlink:href="../../images/foreignKeys.png" width="11px" height="12px" preserveAspectRatio="xMinYMin meet" x="203.5" y="-348.092"/>
<text text-anchor="start" x="227.5" y="-338.1921" font-family="Helvetica,sans-Serif" font-size="11.00" fill="#000000">COLLECTID</text>
<polygon fill="none" stroke="#000000" points="198.5,-309.0921 198.5,-331.0921 341.5,-331.0921 341.5,-309.0921 198.5,-309.0921"/>
<image xlink:href="../../images/foreignKeys.png" width="11px" height="12px" preserveAspectRatio="xMinYMin meet" x="203.5" y="-326.092"/>
<text text-anchor="start" x="227.5" y="-316.1921" font-family="Helvetica,sans-Serif" font-size="11.00" fill="#000000">DEPOSITID</text>
<polygon fill="#ffffff" stroke="transparent" points="198.5,-287.0921 198.5,-309.0921 341.5,-309.0921 341.5,-287.0921 198.5,-287.0921"/>
<polygon fill="none" stroke="#000000" points="198.5,-287.0921 198.5,-309.0921 341.5,-309.0921 341.5,-287.0921 198.5,-287.0921"/>
<text text-anchor="start" x="227.5" y="-294.1921" font-family="Helvetica,sans-Serif" font-size="11.00" fill="#000000">NEO_HANDLE</text>
<polygon fill="none" stroke="#000000" points="198.5,-265.0921 198.5,-287.0921 341.5,-287.0921 341.5,-265.0921 198.5,-265.0921"/>
<image xlink:href="../../images/foreignKeys.png" width="11px" height="12px" preserveAspectRatio="xMinYMin meet" x="203.5" y="-282.092"/>
<text text-anchor="start" x="227.5" y="-272.1921" font-family="Helvetica,sans-Serif" font-size="11.00" fill="#000000">UNIT_REF</text>
<polygon fill="#ffffff" stroke="transparent" points="198.5,-243.0921 198.5,-265.0921 341.5,-265.0921 341.5,-243.0921 198.5,-243.0921"/>
<polygon fill="none" stroke="#000000" points="198.5,-243.0921 198.5,-265.0921 341.5,-265.0921 341.5,-243.0921 198.5,-243.0921"/>
<text text-anchor="start" x="227.5" y="-250.1921" font-family="Helvetica,sans-Serif" font-size="11.00" fill="#000000">NEO_UNITID</text>
<polygon fill="none" stroke="#000000" points="198.5,-224.0921 198.5,-243.0921 341.5,-243.0921 341.5,-224.0921 198.5,-224.0921"/>
<text text-anchor="start" x="201.5" y="-230.1921" font-family="Helvetica,sans-Serif" font-size="11.00" fill="#000000">...</text>
<polygon fill="#ffffff" stroke="transparent" points="198.5,-205.0921 198.5,-224.0921 241.5,-224.0921 241.5,-205.0921 198.5,-205.0921"/>
<polygon fill="none" stroke="#000000" points="198.5,-205.0921 198.5,-224.0921 241.5,-224.0921 241.5,-205.0921 198.5,-205.0921"/>
<text text-anchor="start" x="201.5" y="-211.1921" font-family="Helvetica,sans-Serif" font-size="11.00" fill="#000000">&lt; 5</text>
<polygon fill="#ffffff" stroke="transparent" points="241.5,-205.0921 241.5,-224.0921 302.5,-224.0921 302.5,-205.0921 241.5,-205.0921"/>
<polygon fill="none" stroke="#000000" points="241.5,-205.0921 241.5,-224.0921 302.5,-224.0921 302.5,-205.0921 241.5,-205.0921"/>
<text text-anchor="start" x="254.8807" y="-211.1921" font-family="Helvetica,sans-Serif" font-size="11.00" fill="#000000">607 rows</text>
<polygon fill="#ffffff" stroke="transparent" points="302.5,-205.0921 302.5,-224.0921 341.5,-224.0921 341.5,-205.0921 302.5,-205.0921"/>
<polygon fill="none" stroke="#000000" points="302.5,-205.0921 302.5,-224.0921 341.5,-224.0921 341.5,-205.0921 302.5,-205.0921"/>
<text text-anchor="start" x="316.7904" y="-211.1921" font-family="Helvetica,sans-Serif" font-size="11.00" fill="#000000">11 &gt;</text>
</a>
</g>
</g>
<!-- cabah_AnalysisUnit&#45;&gt;global_UnitMaster -->
<g id="edge2" class="edge">
<title>cabah_AnalysisUnit:w&#45;&gt;global_UnitMaster:e</title>
<path fill="none" stroke="#000000" d="M471.9204,-118.4725C431.694,-120.7541 414.4815,-133.6346 382,-166.0921 351.5447,-196.5249 384.5544,-254.0921 341.5,-254.0921"/>
<polygon fill="#000000" stroke="#000000" points="478.5027,-118.3008 486.5939,-121.6909 482.5014,-118.1965 486.5,-118.0921 486.5,-118.0921 486.5,-118.0921 482.5014,-118.1965 486.4061,-114.4933 478.5027,-118.3008 478.5027,-118.3008"/>
<ellipse fill="none" stroke="#000000" cx="475.3038" cy="-118.3843" rx="3.2" ry="3.2"/>
</g>
<!-- cabah_AnalysisUnit&#45;&gt;global_UnitMaster -->
<g id="edge3" class="edge">
<title>cabah_AnalysisUnit:w&#45;&gt;global_UnitMaster:e</title>
<path fill="none" stroke="#000000" stroke-dasharray="5,2" d="M472.039,-118.3324C430.8043,-119.8591 409.7111,-129.3523 382,-166.0921 346.2594,-213.4776 400.853,-430.0921 341.5,-430.0921"/>
<polygon fill="#000000" stroke="#000000" points="478.5011,-118.2251 486.5598,-121.6916 482.5006,-118.1586 486.5,-118.0921 486.5,-118.0921 486.5,-118.0921 482.5006,-118.1586 486.4402,-114.4926 478.5011,-118.2251 478.5011,-118.2251"/>
<ellipse fill="none" stroke="#000000" cx="475.3015" cy="-118.2783" rx="3.2" ry="3.2"/>
</g>
<!-- global_UnitMaster&#45;&gt;cabah_depositID -->
<g id="edge7" class="edge">
<title>global_UnitMaster:w&#45;&gt;cabah_depositID:e</title>
<path fill="none" stroke="#000000" d="M184.5313,-315.384C168.0064,-301.2396 175.7228,-260.0921 146.5,-260.0921"/>
<polygon fill="#000000" stroke="#000000" points="190.919,-317.5369 197.3502,-323.5035 194.7095,-318.8145 198.5,-320.0921 198.5,-320.0921 198.5,-320.0921 194.7095,-318.8145 199.6498,-316.6807 190.919,-317.5369 190.919,-317.5369"/>
<ellipse fill="none" stroke="#000000" cx="187.8866" cy="-316.5149" rx="3.2" ry="3.2"/>
</g>
<!-- cabah_col_mtdID -->
<g id="node6" class="node">
<title>cabah_col_mtdID</title>
<g id="a_node6"><a xlink:href="../../tables/cabah_col_mtdID.html" xlink:title="cabah_col_mtdID" target="_top">
<polygon fill="#ffffff" stroke="transparent" points="9.5,-314.5921 9.5,-375.5921 147.5,-375.5921 147.5,-314.5921 9.5,-314.5921"/>
<polygon fill="#f5f5f5" stroke="transparent" points="9.5,-352.0921 9.5,-375.0921 147.5,-375.0921 147.5,-352.0921 9.5,-352.0921"/>
<polygon fill="none" stroke="#000000" points="9.5,-352.0921 9.5,-375.0921 147.5,-375.0921 147.5,-352.0921 9.5,-352.0921"/>
<text text-anchor="start" x="14.5" y="-360.6921" font-family="Helvetica,sans-Serif" font-weight="bold" font-size="11.00" fill="#000000">cabah_col_mtdID</text>
<text text-anchor="start" x="113.0219" y="-360.1921" font-family="Helvetica,sans-Serif" font-size="11.00" fill="#000000">[table]</text>
<polygon fill="none" stroke="#000000" points="9.5,-333.0921 9.5,-352.0921 147.5,-352.0921 147.5,-333.0921 9.5,-333.0921"/>
<text text-anchor="start" x="12.5" y="-339.1921" font-family="Helvetica,sans-Serif" font-size="11.00" fill="#000000">...</text>
<polygon fill="#ffffff" stroke="transparent" points="9.5,-314.0921 9.5,-333.0921 56.5,-333.0921 56.5,-314.0921 9.5,-314.0921"/>
<polygon fill="none" stroke="#000000" points="9.5,-314.0921 9.5,-333.0921 56.5,-333.0921 56.5,-314.0921 9.5,-314.0921"/>
<text text-anchor="start" x="12.5" y="-320.1921" font-family="Helvetica,sans-Serif" font-size="11.00" fill="#000000">&lt; 1</text>
<polygon fill="#ffffff" stroke="transparent" points="56.5,-314.0921 56.5,-333.0921 113.5,-333.0921 113.5,-314.0921 56.5,-314.0921"/>
<polygon fill="none" stroke="#000000" points="56.5,-314.0921 56.5,-333.0921 113.5,-333.0921 113.5,-314.0921 56.5,-314.0921"/>
<text text-anchor="start" x="71.9956" y="-320.1921" font-family="Helvetica,sans-Serif" font-size="11.00" fill="#000000">44 rows</text>
<polygon fill="#ffffff" stroke="transparent" points="113.5,-314.0921 113.5,-333.0921 147.5,-333.0921 147.5,-314.0921 113.5,-314.0921"/>
<polygon fill="none" stroke="#000000" points="113.5,-314.0921 113.5,-333.0921 147.5,-333.0921 147.5,-314.0921 113.5,-314.0921"/>
<text text-anchor="start" x="128.9053" y="-320.1921" font-family="Helvetica,sans-Serif" font-size="11.00" fill="#000000">7 &gt;</text>
</a>
</g>
</g>
<!-- global_UnitMaster&#45;&gt;cabah_col_mtdID -->
<g id="edge6" class="edge">
<title>global_UnitMaster:w&#45;&gt;cabah_col_mtdID:e</title>
<path fill="none" stroke="#000000" d="M183.776,-342.0921C171.7815,-342.0921 164.3229,-342.0921 147.5,-342.0921"/>
<polygon fill="#000000" stroke="#000000" points="190.5,-342.0922 198.5,-345.6921 194.5,-342.0921 198.5,-342.0921 198.5,-342.0921 198.5,-342.0921 194.5,-342.0921 198.5,-338.4921 190.5,-342.0922 190.5,-342.0922"/>
<ellipse fill="none" stroke="#000000" cx="187.3" cy="-342.0922" rx="3.2" ry="3.2"/>
</g>
<!-- global_SiteMaster -->
<g id="node7" class="node">
<title>global_SiteMaster</title>
<g id="a_node7"><a xlink:href="../../tables/global_SiteMaster.html" xlink:title="global_SiteMaster" target="_top">
<polygon fill="#ffffff" stroke="transparent" points="8,-701.5921 8,-762.5921 149,-762.5921 149,-701.5921 8,-701.5921"/>
<polygon fill="#f5f5f5" stroke="transparent" points="8.5,-739.0921 8.5,-762.0921 149.5,-762.0921 149.5,-739.0921 8.5,-739.0921"/>
<polygon fill="none" stroke="#000000" points="8.5,-739.0921 8.5,-762.0921 149.5,-762.0921 149.5,-739.0921 8.5,-739.0921"/>
<text text-anchor="start" x="13.5" y="-747.6921" font-family="Helvetica,sans-Serif" font-weight="bold" font-size="11.00" fill="#000000">global_SiteMaster</text>
<text text-anchor="start" x="115.0219" y="-747.1921" font-family="Helvetica,sans-Serif" font-size="11.00" fill="#000000">[table]</text>
<polygon fill="none" stroke="#000000" points="8.5,-720.0921 8.5,-739.0921 149.5,-739.0921 149.5,-720.0921 8.5,-720.0921"/>
<text text-anchor="start" x="11.5" y="-726.1921" font-family="Helvetica,sans-Serif" font-size="11.00" fill="#000000">...</text>
<polygon fill="#ffffff" stroke="transparent" points="8.5,-701.0921 8.5,-720.0921 43.5,-720.0921 43.5,-701.0921 8.5,-701.0921"/>
<polygon fill="none" stroke="#000000" points="8.5,-701.0921 8.5,-720.0921 43.5,-720.0921 43.5,-701.0921 8.5,-701.0921"/>
<text text-anchor="start" x="11.5" y="-707.1921" font-family="Helvetica,sans-Serif" font-size="11.00" fill="#000000">&lt; 8</text>
<polygon fill="#ffffff" stroke="transparent" points="43.5,-701.0921 43.5,-720.0921 115.5,-720.0921 115.5,-701.0921 43.5,-701.0921"/>
<polygon fill="none" stroke="#000000" points="43.5,-701.0921 43.5,-720.0921 115.5,-720.0921 115.5,-701.0921 43.5,-701.0921"/>
<text text-anchor="start" x="52.594" y="-707.1921" font-family="Helvetica,sans-Serif" font-size="11.00" fill="#000000">26.209 rows</text>
<polygon fill="#ffffff" stroke="transparent" points="115.5,-701.0921 115.5,-720.0921 149.5,-720.0921 149.5,-701.0921 115.5,-701.0921"/>
<polygon fill="none" stroke="#000000" points="115.5,-701.0921 115.5,-720.0921 149.5,-720.0921 149.5,-701.0921 115.5,-701.0921"/>
<text text-anchor="start" x="124.7904" y="-707.1921" font-family="Helvetica,sans-Serif" font-size="11.00" fill="#000000">23 &gt;</text>
</a>
</g>
</g>
<!-- global_UnitMaster&#45;&gt;global_SiteMaster -->
<g id="edge8" class="edge">
<title>global_UnitMaster:w&#45;&gt;global_SiteMaster:e</title>
<path fill="none" stroke="#000000" d="M184.7776,-413.3958C139.8899,-455.132 216.1631,-729.0921 149.5,-729.0921"/>
<polygon fill="#000000" stroke="#000000" points="191.038,-410.9762 199.7979,-411.45 194.769,-409.5342 198.5,-408.0921 198.5,-408.0921 198.5,-408.0921 194.769,-409.5342 197.2021,-404.7342 191.038,-410.9762 191.038,-410.9762"/>
<ellipse fill="none" stroke="#000000" cx="188.0531" cy="-412.1299" rx="3.2" ry="3.2"/>
</g>
<!-- global_RefCore -->
<g id="node8" class="node">
<title>global_RefCore</title>
<g id="a_node8"><a xlink:href="../../tables/global_RefCore.html" xlink:title="global_RefCore" target="_top">
<polygon fill="#ffffff" stroke="transparent" points="15,-150.5921 15,-211.5921 142,-211.5921 142,-150.5921 15,-150.5921"/>
<polygon fill="#f5f5f5" stroke="transparent" points="15.5,-188.0921 15.5,-211.0921 142.5,-211.0921 142.5,-188.0921 15.5,-188.0921"/>
<polygon fill="none" stroke="#000000" points="15.5,-188.0921 15.5,-211.0921 142.5,-211.0921 142.5,-188.0921 15.5,-188.0921"/>
<text text-anchor="start" x="20.5" y="-196.6921" font-family="Helvetica,sans-Serif" font-weight="bold" font-size="11.00" fill="#000000">global_RefCore</text>
<text text-anchor="start" x="108.0219" y="-196.1921" font-family="Helvetica,sans-Serif" font-size="11.00" fill="#000000">[table]</text>
<polygon fill="none" stroke="#000000" points="15.5,-169.0921 15.5,-188.0921 142.5,-188.0921 142.5,-169.0921 15.5,-169.0921"/>
<text text-anchor="start" x="18.5" y="-175.1921" font-family="Helvetica,sans-Serif" font-size="11.00" fill="#000000">...</text>
<polygon fill="#ffffff" stroke="transparent" points="15.5,-150.0921 15.5,-169.0921 46.5,-169.0921 46.5,-150.0921 15.5,-150.0921"/>
<polygon fill="none" stroke="#000000" points="15.5,-150.0921 15.5,-169.0921 46.5,-169.0921 46.5,-150.0921 15.5,-150.0921"/>
<text text-anchor="start" x="18.5" y="-156.1921" font-family="Helvetica,sans-Serif" font-size="11.00" fill="#000000">&lt; 5</text>
<polygon fill="#ffffff" stroke="transparent" points="46.5,-150.0921 46.5,-169.0921 110.5,-169.0921 110.5,-150.0921 46.5,-150.0921"/>
<polygon fill="none" stroke="#000000" points="46.5,-150.0921 46.5,-169.0921 110.5,-169.0921 110.5,-150.0921 46.5,-150.0921"/>
<text text-anchor="start" x="53.7089" y="-156.1921" font-family="Helvetica,sans-Serif" font-size="11.00" fill="#000000">3.958 rows</text>
<polygon fill="#ffffff" stroke="transparent" points="110.5,-150.0921 110.5,-169.0921 142.5,-169.0921 142.5,-150.0921 110.5,-150.0921"/>
<polygon fill="none" stroke="#000000" points="110.5,-150.0921 110.5,-169.0921 142.5,-169.0921 142.5,-150.0921 110.5,-150.0921"/>
<text text-anchor="start" x="117.7904" y="-156.1921" font-family="Helvetica,sans-Serif" font-size="11.00" fill="#000000">37 &gt;</text>
</a>
</g>
</g>
<!-- global_UnitMaster&#45;&gt;global_RefCore -->
<g id="edge9" class="edge">
<title>global_UnitMaster:w&#45;&gt;global_RefCore:e</title>
<path fill="none" stroke="#000000" d="M184.4528,-272.3701C157.4271,-254.4692 186.7864,-178.0921 142.5,-178.0921"/>
<polygon fill="#000000" stroke="#000000" points="190.7669,-274.043 197.5779,-279.572 194.6334,-275.0676 198.5,-276.0921 198.5,-276.0921 198.5,-276.0921 194.6334,-275.0676 199.4221,-272.6122 190.7669,-274.043 190.7669,-274.043"/>
<ellipse fill="none" stroke="#000000" cx="187.6736" cy="-273.2234" rx="3.2" ry="3.2"/>
</g>
<!-- cabah_unittypeID -->
<g id="node9" class="node">
<title>cabah_unittypeID</title>
<g id="a_node9"><a xlink:href="../../tables/cabah_unittypeID.html" xlink:title="cabah_unittypeID" target="_top">
<polygon fill="#ffffff" stroke="transparent" points="9,-396.5921 9,-457.5921 148,-457.5921 148,-396.5921 9,-396.5921"/>
<polygon fill="#f5f5f5" stroke="transparent" points="9.5,-434.0921 9.5,-457.0921 148.5,-457.0921 148.5,-434.0921 9.5,-434.0921"/>
<polygon fill="none" stroke="#000000" points="9.5,-434.0921 9.5,-457.0921 148.5,-457.0921 148.5,-434.0921 9.5,-434.0921"/>
<text text-anchor="start" x="14.5" y="-442.6921" font-family="Helvetica,sans-Serif" font-weight="bold" font-size="11.00" fill="#000000">cabah_unittypeID</text>
<text text-anchor="start" x="114.0219" y="-442.1921" font-family="Helvetica,sans-Serif" font-size="11.00" fill="#000000">[table]</text>
<polygon fill="none" stroke="#000000" points="9.5,-415.0921 9.5,-434.0921 148.5,-434.0921 148.5,-415.0921 9.5,-415.0921"/>
<text text-anchor="start" x="12.5" y="-421.1921" font-family="Helvetica,sans-Serif" font-size="11.00" fill="#000000">...</text>
<polygon fill="#ffffff" stroke="transparent" points="9.5,-396.0921 9.5,-415.0921 52.5,-415.0921 52.5,-396.0921 9.5,-396.0921"/>
<polygon fill="none" stroke="#000000" points="9.5,-396.0921 9.5,-415.0921 52.5,-415.0921 52.5,-396.0921 9.5,-396.0921"/>
<text text-anchor="start" x="12.5" y="-402.1921" font-family="Helvetica,sans-Serif" font-size="11.00" fill="#000000"> &#160;</text>
<polygon fill="#ffffff" stroke="transparent" points="52.5,-396.0921 52.5,-415.0921 111.5,-415.0921 111.5,-396.0921 52.5,-396.0921"/>
<polygon fill="none" stroke="#000000" points="52.5,-396.0921 52.5,-415.0921 111.5,-415.0921 111.5,-396.0921 52.5,-396.0921"/>
<text text-anchor="start" x="69.9956" y="-402.1921" font-family="Helvetica,sans-Serif" font-size="11.00" fill="#000000">16 rows</text>
<polygon fill="#ffffff" stroke="transparent" points="111.5,-396.0921 111.5,-415.0921 148.5,-415.0921 148.5,-396.0921 111.5,-396.0921"/>
<polygon fill="none" stroke="#000000" points="111.5,-396.0921 111.5,-415.0921 148.5,-415.0921 148.5,-396.0921 111.5,-396.0921"/>
<text text-anchor="start" x="129.9053" y="-402.1921" font-family="Helvetica,sans-Serif" font-size="11.00" fill="#000000">1 &gt;</text>
</a>
</g>
</g>
<!-- global_UnitMaster&#45;&gt;cabah_unittypeID -->
<g id="edge10" class="edge">
<title>global_UnitMaster:w&#45;&gt;cabah_unittypeID:e</title>
<path fill="none" stroke="#000000" d="M184.8495,-368.8002C168.8657,-382.9446 177.2461,-424.0921 148.5,-424.0921"/>
<polygon fill="#000000" stroke="#000000" points="190.9372,-366.7006 199.6738,-367.4954 194.7186,-365.3963 198.5,-364.0921 198.5,-364.0921 198.5,-364.0921 194.7186,-365.3963 197.3262,-360.6888 190.9372,-366.7006 190.9372,-366.7006"/>
<ellipse fill="none" stroke="#000000" cx="187.9121" cy="-367.744" rx="3.2" ry="3.2"/>
</g>
<!-- char_Sample -->
<g id="node4" class="node">
<title>char_Sample</title>
<g id="a_node4"><a xlink:href="../../tables/char_Sample.html" xlink:title="char_Sample" target="_top">
<polygon fill="#ffffff" stroke="transparent" points="506,-619.5921 506,-680.5921 619,-680.5921 619,-619.5921 506,-619.5921"/>
<polygon fill="#f5f5f5" stroke="transparent" points="506.5,-657.0921 506.5,-680.0921 619.5,-680.0921 619.5,-657.0921 506.5,-657.0921"/>
<polygon fill="none" stroke="#000000" points="506.5,-657.0921 506.5,-680.0921 619.5,-680.0921 619.5,-657.0921 506.5,-657.0921"/>
<text text-anchor="start" x="511.5" y="-665.6921" font-family="Helvetica,sans-Serif" font-weight="bold" font-size="11.00" fill="#000000">char_Sample</text>
<text text-anchor="start" x="585.0219" y="-665.1921" font-family="Helvetica,sans-Serif" font-size="11.00" fill="#000000">[table]</text>
<polygon fill="none" stroke="#000000" points="506.5,-638.0921 506.5,-657.0921 619.5,-657.0921 619.5,-638.0921 506.5,-638.0921"/>
<text text-anchor="start" x="509.5" y="-644.1921" font-family="Helvetica,sans-Serif" font-size="11.00" fill="#000000">...</text>
<polygon fill="#ffffff" stroke="transparent" points="506.5,-619.0921 506.5,-638.0921 530.5,-638.0921 530.5,-619.0921 506.5,-619.0921"/>
<polygon fill="none" stroke="#000000" points="506.5,-619.0921 506.5,-638.0921 530.5,-638.0921 530.5,-619.0921 506.5,-619.0921"/>
<text text-anchor="start" x="509.5" y="-625.1921" font-family="Helvetica,sans-Serif" font-size="11.00" fill="#000000">&lt; 1</text>
<polygon fill="#ffffff" stroke="transparent" points="530.5,-619.0921 530.5,-638.0921 596.5,-638.0921 596.5,-619.0921 530.5,-619.0921"/>
<polygon fill="none" stroke="#000000" points="530.5,-619.0921 530.5,-638.0921 596.5,-638.0921 596.5,-619.0921 530.5,-619.0921"/>
<text text-anchor="start" x="533.594" y="-625.1921" font-family="Helvetica,sans-Serif" font-size="11.00" fill="#000000">41.793 rows</text>
<polygon fill="#ffffff" stroke="transparent" points="596.5,-619.0921 596.5,-638.0921 619.5,-638.0921 619.5,-619.0921 596.5,-619.0921"/>
<polygon fill="none" stroke="#000000" points="596.5,-619.0921 596.5,-638.0921 619.5,-638.0921 619.5,-619.0921 596.5,-619.0921"/>
<text text-anchor="start" x="600.9053" y="-625.1921" font-family="Helvetica,sans-Serif" font-size="11.00" fill="#000000">2 &gt;</text>
</a>
</g>
</g>
<!-- char_Sample&#45;&gt;global_UnitMaster -->
<g id="edge4" class="edge">
<title>char_Sample:w&#45;&gt;global_UnitMaster:e</title>
<path fill="none" stroke="#000000" d="M491.8029,-647.0903C443.2824,-646.9704 417.775,-644.5543 382,-605.0921 328.3801,-545.9458 421.3335,-430.0921 341.5,-430.0921"/>
<polygon fill="#000000" stroke="#000000" points="498.5,-647.0911 506.4995,-650.6921 502.5,-647.0916 506.5,-647.0921 506.5,-647.0921 506.5,-647.0921 502.5,-647.0916 506.5005,-643.4921 498.5,-647.0911 498.5,-647.0911"/>
<ellipse fill="none" stroke="#000000" cx="495.3" cy="-647.0907" rx="3.2" ry="3.2"/>
</g>
<!-- global_DataSetMaster -->
<g id="node5" class="node">
<title>global_DataSetMaster</title>
<g id="a_node5"><a xlink:href="../../tables/global_DataSetMaster.html" xlink:title="global_DataSetMaster" target="_top">
<polygon fill="#ffffff" stroke="transparent" points="480.5,-200.5921 480.5,-261.5921 644.5,-261.5921 644.5,-200.5921 480.5,-200.5921"/>
<polygon fill="#f5f5f5" stroke="transparent" points="480.5,-238.0921 480.5,-261.0921 644.5,-261.0921 644.5,-238.0921 480.5,-238.0921"/>
<polygon fill="none" stroke="#000000" points="480.5,-238.0921 480.5,-261.0921 644.5,-261.0921 644.5,-238.0921 480.5,-238.0921"/>
<text text-anchor="start" x="485.5" y="-246.6921" font-family="Helvetica,sans-Serif" font-weight="bold" font-size="11.00" fill="#000000">global_DataSetMaster</text>
<text text-anchor="start" x="610.0219" y="-246.1921" font-family="Helvetica,sans-Serif" font-size="11.00" fill="#000000">[table]</text>
<polygon fill="none" stroke="#000000" points="480.5,-219.0921 480.5,-238.0921 644.5,-238.0921 644.5,-219.0921 480.5,-219.0921"/>
<text text-anchor="start" x="483.5" y="-225.1921" font-family="Helvetica,sans-Serif" font-size="11.00" fill="#000000">...</text>
<polygon fill="#ffffff" stroke="transparent" points="480.5,-200.0921 480.5,-219.0921 537.5,-219.0921 537.5,-200.0921 480.5,-200.0921"/>
<polygon fill="none" stroke="#000000" points="480.5,-200.0921 480.5,-219.0921 537.5,-219.0921 537.5,-200.0921 480.5,-200.0921"/>
<text text-anchor="start" x="483.5" y="-206.1921" font-family="Helvetica,sans-Serif" font-size="11.00" fill="#000000">&lt; 3</text>
<polygon fill="#ffffff" stroke="transparent" points="537.5,-200.0921 537.5,-219.0921 605.5,-219.0921 605.5,-200.0921 537.5,-200.0921"/>
<polygon fill="none" stroke="#000000" points="537.5,-200.0921 537.5,-219.0921 605.5,-219.0921 605.5,-200.0921 537.5,-200.0921"/>
<text text-anchor="start" x="557.8807" y="-206.1921" font-family="Helvetica,sans-Serif" font-size="11.00" fill="#000000">311 rows</text>
<polygon fill="#ffffff" stroke="transparent" points="605.5,-200.0921 605.5,-219.0921 644.5,-219.0921 644.5,-200.0921 605.5,-200.0921"/>
<polygon fill="none" stroke="#000000" points="605.5,-200.0921 605.5,-219.0921 644.5,-219.0921 644.5,-200.0921 605.5,-200.0921"/>
<text text-anchor="start" x="625.9053" y="-206.1921" font-family="Helvetica,sans-Serif" font-size="11.00" fill="#000000">5 &gt;</text>
</a>
</g>
</g>
<!-- global_DataSetMaster&#45;&gt;global_UnitMaster -->
<g id="edge5" class="edge">
<title>global_DataSetMaster:w&#45;&gt;global_UnitMaster:e</title>
<path fill="none" stroke="#000000" d="M466.0365,-228.4576C427.6797,-230.5801 409.6372,-242.4185 382,-276.0921 337.101,-330.7978 412.2718,-430.0921 341.5,-430.0921"/>
<polygon fill="#000000" stroke="#000000" points="472.5026,-228.2942 480.591,-231.691 476.5013,-228.1932 480.5,-228.0921 480.5,-228.0921 480.5,-228.0921 476.5013,-228.1932 480.409,-224.4932 472.5026,-228.2942 472.5026,-228.2942"/>
<ellipse fill="none" stroke="#000000" cx="469.3036" cy="-228.3751" rx="3.2" ry="3.2"/>
</g>
<!-- ippd_baseline_pollen -->
<g id="node10" class="node">
<title>ippd_baseline_pollen</title>
<g id="a_node10"><a xlink:href="../../tables/ippd_baseline_pollen.html" xlink:title="ippd_baseline_pollen" target="_top">
<polygon fill="#ffffff" stroke="transparent" points="784,-383.5921 784,-444.5921 945,-444.5921 945,-383.5921 784,-383.5921"/>
<polygon fill="#f5f5f5" stroke="transparent" points="784.5,-421.0921 784.5,-444.0921 945.5,-444.0921 945.5,-421.0921 784.5,-421.0921"/>
<polygon fill="none" stroke="#000000" points="784.5,-421.0921 784.5,-444.0921 945.5,-444.0921 945.5,-421.0921 784.5,-421.0921"/>
<text text-anchor="start" x="789.5" y="-429.6921" font-family="Helvetica,sans-Serif" font-weight="bold" font-size="11.00" fill="#000000">ippd_baseline_pollen</text>
<text text-anchor="start" x="911.0219" y="-429.1921" font-family="Helvetica,sans-Serif" font-size="11.00" fill="#000000">[table]</text>
<polygon fill="none" stroke="#000000" points="784.5,-402.0921 784.5,-421.0921 945.5,-421.0921 945.5,-402.0921 784.5,-402.0921"/>
<text text-anchor="start" x="787.5" y="-408.1921" font-family="Helvetica,sans-Serif" font-size="11.00" fill="#000000">...</text>
<polygon fill="#ffffff" stroke="transparent" points="784.5,-383.0921 784.5,-402.0921 833.5,-402.0921 833.5,-383.0921 784.5,-383.0921"/>
<polygon fill="none" stroke="#000000" points="784.5,-383.0921 784.5,-402.0921 833.5,-402.0921 833.5,-383.0921 784.5,-383.0921"/>
<text text-anchor="start" x="787.5" y="-389.1921" font-family="Helvetica,sans-Serif" font-size="11.00" fill="#000000">&lt; 5</text>
<polygon fill="#ffffff" stroke="transparent" points="833.5,-383.0921 833.5,-402.0921 919.5,-402.0921 919.5,-383.0921 833.5,-383.0921"/>
<polygon fill="none" stroke="#000000" points="833.5,-383.0921 833.5,-402.0921 919.5,-402.0921 919.5,-383.0921 833.5,-383.0921"/>
<text text-anchor="start" x="850.4791" y="-389.1921" font-family="Helvetica,sans-Serif" font-size="11.00" fill="#000000">155.952 rows</text>
<polygon fill="#ffffff" stroke="transparent" points="919.5,-383.0921 919.5,-402.0921 945.5,-402.0921 945.5,-383.0921 919.5,-383.0921"/>
<polygon fill="none" stroke="#000000" points="919.5,-383.0921 919.5,-402.0921 945.5,-402.0921 945.5,-383.0921 919.5,-383.0921"/>
<text text-anchor="start" x="936.3862" y="-389.1921" font-family="Helvetica,sans-Serif" font-size="11.00" fill="#000000"> &#160;</text>
</a>
</g>
</g>
<!-- ippd_baseline_pollen&#45;&gt;global_UnitMaster -->
<g id="edge14" class="edge">
<title>ippd_baseline_pollen:w&#45;&gt;global_UnitMaster:e</title>
<path fill="none" stroke="#000000" stroke-dasharray="5,2" d="M770.3256,-408.1411C742.6446,-393.246 781.6367,-325.9796 743,-299.0921 710.0765,-276.1804 414.2809,-275.2836 382,-299.0921 332.9553,-335.2645 402.4412,-430.0921 341.5,-430.0921"/>
<polygon fill="#000000" stroke="#000000" points="776.6679,-409.4615 783.7662,-414.6165 780.584,-410.2768 784.5,-411.0921 784.5,-411.0921 784.5,-411.0921 780.584,-410.2768 785.2338,-407.5677 776.6679,-409.4615 776.6679,-409.4615"/>
<ellipse fill="none" stroke="#000000" cx="773.5351" cy="-408.8092" rx="3.2" ry="3.2"/>
</g>
<!-- ippd_baseline_pollen&#45;&gt;global_DataSetMaster -->
<g id="edge12" class="edge">
<title>ippd_baseline_pollen:w&#45;&gt;global_DataSetMaster:e</title>
<path fill="none" stroke="#000000" stroke-dasharray="5,2" d="M769.95,-408.8946C732.4651,-395.0702 779.9852,-319.3141 743,-276.0921 711.3378,-239.0907 693.1991,-228.0921 644.5,-228.0921"/>
<polygon fill="#000000" stroke="#000000" points="776.5897,-409.8974 783.9624,-414.6517 780.5449,-410.4947 784.5,-411.0921 784.5,-411.0921 784.5,-411.0921 780.5449,-410.4947 785.0376,-407.5325 776.5897,-409.8974 776.5897,-409.8974"/>
<ellipse fill="none" stroke="#000000" cx="773.4256" cy="-409.4195" rx="3.2" ry="3.2"/>
</g>
<!-- ippd_baseline_pollen&#45;&gt;global_SiteMaster -->
<g id="edge13" class="edge">
<title>ippd_baseline_pollen:w&#45;&gt;global_SiteMaster:e</title>
<path fill="none" stroke="#000000" stroke-dasharray="5,2" d="M770.3212,-415.2318C716.4376,-452.0277 799.2972,-722.8801 743,-773.0921 713.0655,-799.7909 421.9572,-776.6027 382,-773.0921 295.6716,-765.5074 274.7811,-757.0446 190,-739.0921 171.8616,-735.2513 168.0406,-729.0921 149.5,-729.0921"/>
<polygon fill="#000000" stroke="#000000" points="776.8206,-413.3342 785.509,-414.5478 780.6603,-412.2132 784.5,-411.0921 784.5,-411.0921 784.5,-411.0921 780.6603,-412.2132 783.491,-407.6364 776.8206,-413.3342 776.8206,-413.3342"/>
<ellipse fill="none" stroke="#000000" cx="773.7489" cy="-414.2311" rx="3.2" ry="3.2"/>
</g>
<!-- neo_chronologies -->
<g id="node11" class="node">
<title>neo_chronologies</title>
<g id="a_node11"><a xlink:href="../../tables/neo_chronologies.html" xlink:title="neo_chronologies" target="_top">
<polygon fill="#ffffff" stroke="transparent" points="491.5,-509.5921 491.5,-570.5921 633.5,-570.5921 633.5,-509.5921 491.5,-509.5921"/>
<polygon fill="#f5f5f5" stroke="transparent" points="491.5,-547.0921 491.5,-570.0921 633.5,-570.0921 633.5,-547.0921 491.5,-547.0921"/>
<polygon fill="none" stroke="#000000" points="491.5,-547.0921 491.5,-570.0921 633.5,-570.0921 633.5,-547.0921 491.5,-547.0921"/>
<text text-anchor="start" x="496.5" y="-555.6921" font-family="Helvetica,sans-Serif" font-weight="bold" font-size="11.00" fill="#000000">neo_chronologies</text>
<text text-anchor="start" x="599.0219" y="-555.1921" font-family="Helvetica,sans-Serif" font-size="11.00" fill="#000000">[table]</text>
<polygon fill="none" stroke="#000000" points="491.5,-528.0921 491.5,-547.0921 633.5,-547.0921 633.5,-528.0921 491.5,-528.0921"/>
<text text-anchor="start" x="494.5" y="-534.1921" font-family="Helvetica,sans-Serif" font-size="11.00" fill="#000000">...</text>
<polygon fill="#ffffff" stroke="transparent" points="491.5,-509.0921 491.5,-528.0921 529.5,-528.0921 529.5,-509.0921 491.5,-509.0921"/>
<polygon fill="none" stroke="#000000" points="491.5,-509.0921 491.5,-528.0921 529.5,-528.0921 529.5,-509.0921 491.5,-509.0921"/>
<text text-anchor="start" x="494.5" y="-515.1921" font-family="Helvetica,sans-Serif" font-size="11.00" fill="#000000">&lt; 4</text>
<polygon fill="#ffffff" stroke="transparent" points="529.5,-509.0921 529.5,-528.0921 603.5,-528.0921 603.5,-509.0921 529.5,-509.0921"/>
<polygon fill="none" stroke="#000000" points="529.5,-509.0921 529.5,-528.0921 603.5,-528.0921 603.5,-509.0921 529.5,-509.0921"/>
<text text-anchor="start" x="540.594" y="-515.1921" font-family="Helvetica,sans-Serif" font-size="11.00" fill="#000000">31.641 rows</text>
<polygon fill="#ffffff" stroke="transparent" points="603.5,-509.0921 603.5,-528.0921 633.5,-528.0921 633.5,-509.0921 603.5,-509.0921"/>
<polygon fill="none" stroke="#000000" points="603.5,-509.0921 603.5,-528.0921 633.5,-528.0921 633.5,-509.0921 603.5,-509.0921"/>
<text text-anchor="start" x="614.9053" y="-515.1921" font-family="Helvetica,sans-Serif" font-size="11.00" fill="#000000">2 &gt;</text>
</a>
</g>
</g>
<!-- ippd_baseline_pollen&#45;&gt;neo_chronologies -->
<g id="edge11" class="edge">
<title>ippd_baseline_pollen:w&#45;&gt;neo_chronologies:e</title>
<path fill="none" stroke="#000000" stroke-dasharray="5,2" d="M770.4358,-414.3497C749.4872,-427.1158 770.6399,-474.2529 743,-499.0921 704.6847,-533.5249 685.0139,-537.0921 633.5,-537.0921"/>
<polygon fill="#000000" stroke="#000000" points="776.7063,-412.8974 785.3124,-414.5992 780.6032,-411.9947 784.5,-411.0921 784.5,-411.0921 784.5,-411.0921 780.6032,-411.9947 783.6876,-407.585 776.7063,-412.8974 776.7063,-412.8974"/>
<ellipse fill="none" stroke="#000000" cx="773.5889" cy="-413.6195" rx="3.2" ry="3.2"/>
</g>
<!-- neo_chronologies&#45;&gt;global_UnitMaster -->
<g id="edge18" class="edge">
<title>neo_chronologies:w&#45;&gt;global_UnitMaster:e</title>
<path fill="none" stroke="#000000" stroke-dasharray="5,2" d="M477.0447,-535.2914C436.1535,-529.7594 417.8601,-522.5098 382,-493.0921 354.508,-470.5391 377.059,-424.0921 341.5,-430.0921"/>
<polygon fill="#000000" stroke="#000000" points="483.5614,-536.1032 491.055,-540.6645 487.5307,-536.5976 491.5,-537.0921 491.5,-537.0921 491.5,-537.0921 487.5307,-536.5976 491.945,-533.5197 483.5614,-536.1032 483.5614,-536.1032"/>
<ellipse fill="none" stroke="#000000" cx="480.3859" cy="-535.7076" rx="3.2" ry="3.2"/>
</g>
<!-- neo_chronologies&#45;&gt;global_UnitMaster -->
<g id="edge19" class="edge">
<title>neo_chronologies:w&#45;&gt;global_UnitMaster:e</title>
<path fill="none" stroke="#000000" d="M477.0447,-538.8021C436.1535,-542.7594 417.8601,-535.5098 382,-506.0921 354.508,-483.5391 377.059,-437.0921 341.5,-430.0921"/>
<polygon fill="#000000" stroke="#000000" points="483.5554,-538.032 491.9229,-540.6672 487.5277,-537.562 491.5,-537.0921 491.5,-537.0921 491.5,-537.0921 487.5277,-537.562 491.0771,-533.517 483.5554,-538.032 483.5554,-538.032"/>
<ellipse fill="none" stroke="#000000" cx="480.3776" cy="-538.4079" rx="3.2" ry="3.2"/>
</g>
<!-- ippd_datasets -->
<g id="node12" class="node">
<title>ippd_datasets</title>
<g id="a_node12"><a xlink:href="../../tables/ippd_datasets.html" xlink:title="ippd_datasets" target="_top">
<polygon fill="#ffffff" stroke="transparent" points="805,-148.5921 805,-209.5921 924,-209.5921 924,-148.5921 805,-148.5921"/>
<polygon fill="#f5f5f5" stroke="transparent" points="805.5,-186.0921 805.5,-209.0921 924.5,-209.0921 924.5,-186.0921 805.5,-186.0921"/>
<polygon fill="none" stroke="#000000" points="805.5,-186.0921 805.5,-209.0921 924.5,-209.0921 924.5,-186.0921 805.5,-186.0921"/>
<text text-anchor="start" x="810.5" y="-194.6921" font-family="Helvetica,sans-Serif" font-weight="bold" font-size="11.00" fill="#000000">ippd_datasets</text>
<text text-anchor="start" x="890.0219" y="-194.1921" font-family="Helvetica,sans-Serif" font-size="11.00" fill="#000000">[table]</text>
<polygon fill="none" stroke="#000000" points="805.5,-167.0921 805.5,-186.0921 924.5,-186.0921 924.5,-167.0921 805.5,-167.0921"/>
<text text-anchor="start" x="808.5" y="-173.1921" font-family="Helvetica,sans-Serif" font-size="11.00" fill="#000000">...</text>
<polygon fill="#ffffff" stroke="transparent" points="805.5,-148.0921 805.5,-167.0921 844.5,-167.0921 844.5,-148.0921 805.5,-148.0921"/>
<polygon fill="none" stroke="#000000" points="805.5,-148.0921 805.5,-167.0921 844.5,-167.0921 844.5,-148.0921 805.5,-148.0921"/>
<text text-anchor="start" x="808.5" y="-154.1921" font-family="Helvetica,sans-Serif" font-size="11.00" fill="#000000">&lt; 6</text>
<polygon fill="#ffffff" stroke="transparent" points="844.5,-148.0921 844.5,-167.0921 903.5,-167.0921 903.5,-148.0921 844.5,-148.0921"/>
<polygon fill="none" stroke="#000000" points="844.5,-148.0921 844.5,-167.0921 903.5,-167.0921 903.5,-148.0921 844.5,-148.0921"/>
<text text-anchor="start" x="855.8807" y="-154.1921" font-family="Helvetica,sans-Serif" font-size="11.00" fill="#000000">311 rows</text>
<polygon fill="#ffffff" stroke="transparent" points="903.5,-148.0921 903.5,-167.0921 924.5,-167.0921 924.5,-148.0921 903.5,-148.0921"/>
<polygon fill="none" stroke="#000000" points="903.5,-148.0921 903.5,-167.0921 924.5,-167.0921 924.5,-148.0921 903.5,-148.0921"/>
<text text-anchor="start" x="915.3862" y="-154.1921" font-family="Helvetica,sans-Serif" font-size="11.00" fill="#000000"> &#160;</text>
</a>
</g>
</g>
<!-- ippd_datasets&#45;&gt;global_UnitMaster -->
<g id="edge17" class="edge">
<title>ippd_datasets:w&#45;&gt;global_UnitMaster:e</title>
<path fill="none" stroke="#000000" stroke-dasharray="5,2" d="M790.9148,-175.8505C710.7333,-173.8877 414.886,-161.3457 382,-190.0921 341.2774,-225.6887 395.5874,-430.0921 341.5,-430.0921"/>
<polygon fill="#000000" stroke="#000000" points="797.5011,-175.9595 805.4404,-179.6916 801.5005,-176.0258 805.5,-176.0921 805.5,-176.0921 805.5,-176.0921 801.5005,-176.0258 805.5596,-172.4926 797.5011,-175.9595 797.5011,-175.9595"/>
<ellipse fill="none" stroke="#000000" cx="794.3015" cy="-175.9065" rx="3.2" ry="3.2"/>
</g>
<!-- ippd_datasets&#45;&gt;global_DataSetMaster -->
<g id="edge15" class="edge">
<title>ippd_datasets:w&#45;&gt;global_DataSetMaster:e</title>
<path fill="none" stroke="#000000" stroke-dasharray="5,2" d="M790.9433,-176.7879C728.5524,-182.9585 714.5549,-228.0921 644.5,-228.0921"/>
<polygon fill="#000000" stroke="#000000" points="797.5091,-176.4741 805.6719,-179.688 801.5046,-176.2831 805.5,-176.0921 805.5,-176.0921 805.5,-176.0921 801.5046,-176.2831 805.3281,-172.4962 797.5091,-176.4741 797.5091,-176.4741"/>
<ellipse fill="none" stroke="#000000" cx="794.3128" cy="-176.6269" rx="3.2" ry="3.2"/>
</g>
<!-- ippd_datasets&#45;&gt;global_SiteMaster -->
<g id="edge16" class="edge">
<title>ippd_datasets:w&#45;&gt;global_SiteMaster:e</title>
<path fill="none" stroke="#000000" stroke-dasharray="5,2" d="M791.1992,-173.5038C761.1026,-160.4493 782.6864,-101.6105 743,-80.0921 601.9547,-3.6156 536.6391,-37.3233 382,-80.0921 286.1299,-106.607 242.281,-110.4705 190,-195.0921 158.7248,-245.7138 209.0037,-729.0921 149.5,-729.0921"/>
<polygon fill="#000000" stroke="#000000" points="797.6279,-174.6673 804.8588,-179.6345 801.5639,-175.3797 805.5,-176.0921 805.5,-176.0921 805.5,-176.0921 801.5639,-175.3797 806.1412,-172.5497 797.6279,-174.6673 797.6279,-174.6673"/>
<ellipse fill="none" stroke="#000000" cx="794.4791" cy="-174.0974" rx="3.2" ry="3.2"/>
</g>
<!-- sahulchar -->
<g id="node13" class="node">
<title>sahulchar</title>
<g id="a_node13"><a xlink:href="../../tables/sahulchar.html" xlink:title="sahulchar" target="_top">
<polygon fill="#ffffff" stroke="transparent" points="815.5,-619.5921 815.5,-680.5921 913.5,-680.5921 913.5,-619.5921 815.5,-619.5921"/>
<polygon fill="#f5f5f5" stroke="transparent" points="815.5,-657.0921 815.5,-680.0921 913.5,-680.0921 913.5,-657.0921 815.5,-657.0921"/>
<polygon fill="none" stroke="#000000" points="815.5,-657.0921 815.5,-680.0921 913.5,-680.0921 913.5,-657.0921 815.5,-657.0921"/>
<text text-anchor="start" x="820.5" y="-665.6921" font-family="Helvetica,sans-Serif" font-weight="bold" font-size="11.00" fill="#000000">sahulchar</text>
<text text-anchor="start" x="878.5437" y="-665.1921" font-family="Helvetica,sans-Serif" font-size="11.00" fill="#000000">[table]</text>
<polygon fill="none" stroke="#000000" points="815.5,-638.0921 815.5,-657.0921 913.5,-657.0921 913.5,-638.0921 815.5,-638.0921"/>
<text text-anchor="start" x="818.5" y="-644.1921" font-family="Helvetica,sans-Serif" font-size="11.00" fill="#000000">...</text>
<polygon fill="#ffffff" stroke="transparent" points="815.5,-619.0921 815.5,-638.0921 836.5,-638.0921 836.5,-619.0921 815.5,-619.0921"/>
<polygon fill="none" stroke="#000000" points="815.5,-619.0921 815.5,-638.0921 836.5,-638.0921 836.5,-619.0921 815.5,-619.0921"/>
<text text-anchor="start" x="818.2026" y="-625.1921" font-family="Helvetica,sans-Serif" font-size="11.00" fill="#000000">&lt; 5</text>
<polygon fill="#ffffff" stroke="transparent" points="836.5,-619.0921 836.5,-638.0921 901.5,-638.0921 901.5,-619.0921 836.5,-619.0921"/>
<polygon fill="none" stroke="#000000" points="836.5,-619.0921 836.5,-638.0921 901.5,-638.0921 901.5,-619.0921 836.5,-619.0921"/>
<text text-anchor="start" x="839.047" y="-625.1921" font-family="Helvetica,sans-Serif" font-size="11.00" fill="#000000">48.234 rows</text>
<polygon fill="#ffffff" stroke="transparent" points="901.5,-619.0921 901.5,-638.0921 913.5,-638.0921 913.5,-619.0921 901.5,-619.0921"/>
<polygon fill="none" stroke="#000000" points="901.5,-619.0921 901.5,-638.0921 913.5,-638.0921 913.5,-619.0921 901.5,-619.0921"/>
<text text-anchor="start" x="904.4431" y="-625.1921" font-family="Helvetica,sans-Serif" font-size="11.00" fill="#000000"> &#160;</text>
</a>
</g>
</g>
<!-- sahulchar&#45;&gt;global_UnitMaster -->
<g id="edge22" class="edge">
<title>sahulchar:w&#45;&gt;global_UnitMaster:e</title>
<path fill="none" stroke="#000000" stroke-dasharray="5,2" d="M801.0815,-645.3086C777.9827,-638.9933 772.636,-617.6169 743,-609.0921 665.6724,-586.8488 443.8989,-632.5008 382,-581.0921 328.5479,-536.6987 410.9831,-430.0921 341.5,-430.0921"/>
<polygon fill="#000000" stroke="#000000" points="807.5605,-646.11 815.058,-650.6649 811.5303,-646.601 815.5,-647.0921 815.5,-647.0921 815.5,-647.0921 811.5303,-646.601 815.942,-643.5193 807.5605,-646.11 807.5605,-646.11"/>
<ellipse fill="none" stroke="#000000" cx="804.3847" cy="-645.7171" rx="3.2" ry="3.2"/>
</g>
<!-- sahulchar&#45;&gt;char_Sample -->
<g id="edge21" class="edge">
<title>sahulchar:w&#45;&gt;char_Sample:e</title>
<path fill="none" stroke="#000000" stroke-dasharray="5,2" d="M800.8341,-647.0921C725.6125,-647.0921 701.5069,-647.0921 619.5,-647.0921"/>
<polygon fill="#000000" stroke="#000000" points="807.5,-647.0922 815.5,-650.6921 811.5,-647.0921 815.5,-647.0921 815.5,-647.0921 815.5,-647.0921 811.5,-647.0921 815.5,-643.4921 807.5,-647.0922 807.5,-647.0922"/>
<ellipse fill="none" stroke="#000000" cx="804.3" cy="-647.0922" rx="3.2" ry="3.2"/>
</g>
<!-- sahulchar&#45;&gt;global_SiteMaster -->
<g id="edge20" class="edge">
<title>sahulchar:w&#45;&gt;global_SiteMaster:e</title>
<path fill="none" stroke="#000000" stroke-dasharray="5,2" d="M801.1906,-648.8462C750.2951,-663.124 801.0688,-760.6628 743,-797.0921 638.9004,-862.3987 296.8394,-857.813 190,-797.0921 159.4177,-779.711 184.6765,-729.0921 149.5,-729.0921"/>
<polygon fill="#000000" stroke="#000000" points="807.5594,-648.0656 815.9381,-650.6654 811.5297,-647.5788 815.5,-647.0921 815.5,-647.0921 815.5,-647.0921 811.5297,-647.5788 815.0619,-643.5188 807.5594,-648.0656 807.5594,-648.0656"/>
<ellipse fill="none" stroke="#000000" cx="804.3832" cy="-648.4549" rx="3.2" ry="3.2"/>
</g>
<!-- sahulchar_units -->
<g id="node14" class="node">
<title>sahulchar_units</title>
<g id="a_node14"><a xlink:href="../../tables/sahulchar_units.html" xlink:title="sahulchar_units" target="_top">
<polygon fill="#ffffff" stroke="transparent" points="497,-701.5921 497,-762.5921 628,-762.5921 628,-701.5921 497,-701.5921"/>
<polygon fill="#f5f5f5" stroke="transparent" points="497.5,-739.0921 497.5,-762.0921 628.5,-762.0921 628.5,-739.0921 497.5,-739.0921"/>
<polygon fill="none" stroke="#000000" points="497.5,-739.0921 497.5,-762.0921 628.5,-762.0921 628.5,-739.0921 497.5,-739.0921"/>
<text text-anchor="start" x="502.5" y="-747.6921" font-family="Helvetica,sans-Serif" font-weight="bold" font-size="11.00" fill="#000000">sahulchar_units</text>
<text text-anchor="start" x="594.0219" y="-747.1921" font-family="Helvetica,sans-Serif" font-size="11.00" fill="#000000">[table]</text>
<polygon fill="none" stroke="#000000" points="497.5,-720.0921 497.5,-739.0921 628.5,-739.0921 628.5,-720.0921 497.5,-720.0921"/>
<text text-anchor="start" x="500.5" y="-726.1921" font-family="Helvetica,sans-Serif" font-size="11.00" fill="#000000">...</text>
<polygon fill="#ffffff" stroke="transparent" points="497.5,-701.0921 497.5,-720.0921 542.5,-720.0921 542.5,-701.0921 497.5,-701.0921"/>
<polygon fill="none" stroke="#000000" points="497.5,-701.0921 497.5,-720.0921 542.5,-720.0921 542.5,-701.0921 497.5,-701.0921"/>
<text text-anchor="start" x="500.5" y="-707.1921" font-family="Helvetica,sans-Serif" font-size="11.00" fill="#000000">&lt; 4</text>
<polygon fill="#ffffff" stroke="transparent" points="542.5,-701.0921 542.5,-720.0921 604.5,-720.0921 604.5,-701.0921 542.5,-701.0921"/>
<polygon fill="none" stroke="#000000" points="542.5,-701.0921 542.5,-720.0921 604.5,-720.0921 604.5,-701.0921 542.5,-701.0921"/>
<text text-anchor="start" x="556.8807" y="-707.1921" font-family="Helvetica,sans-Serif" font-size="11.00" fill="#000000">535 rows</text>
<polygon fill="#ffffff" stroke="transparent" points="604.5,-701.0921 604.5,-720.0921 628.5,-720.0921 628.5,-701.0921 604.5,-701.0921"/>
<polygon fill="none" stroke="#000000" points="604.5,-701.0921 604.5,-720.0921 628.5,-720.0921 628.5,-701.0921 604.5,-701.0921"/>
<text text-anchor="start" x="619.3862" y="-707.1921" font-family="Helvetica,sans-Serif" font-size="11.00" fill="#000000"> &#160;</text>
</a>
</g>
</g>
<!-- sahulchar_units&#45;&gt;global_UnitMaster -->
<g id="edge24" class="edge">
<title>sahulchar_units:w&#45;&gt;global_UnitMaster:e</title>
<path fill="none" stroke="#000000" stroke-dasharray="5,2" d="M482.9976,-729.1375C438.416,-729.3039 413.6788,-728.4405 382,-691.0921 344.0337,-646.3309 400.1941,-430.0921 341.5,-430.0921"/>
<polygon fill="#000000" stroke="#000000" points="489.5,-729.1172 497.5113,-732.6921 493.5,-729.1047 497.5,-729.0921 497.5,-729.0921 497.5,-729.0921 493.5,-729.1047 497.4887,-725.4921 489.5,-729.1172 489.5,-729.1172"/>
<ellipse fill="none" stroke="#000000" cx="486.3001" cy="-729.1273" rx="3.2" ry="3.2"/>
</g>
<!-- sahulchar_units&#45;&gt;global_SiteMaster -->
<g id="edge23" class="edge">
<title>sahulchar_units:w&#45;&gt;global_SiteMaster:e</title>
<path fill="none" stroke="#000000" stroke-dasharray="5,2" d="M482.9005,-729.0921C340.2207,-729.0921 299.1823,-729.0921 149.5,-729.0921"/>
<polygon fill="#000000" stroke="#000000" points="489.5,-729.0922 497.5,-732.6921 493.5,-729.0921 497.5,-729.0921 497.5,-729.0921 497.5,-729.0921 493.5,-729.0921 497.5,-725.4921 489.5,-729.0922 489.5,-729.0922"/>
<ellipse fill="none" stroke="#000000" cx="486.3" cy="-729.0922" rx="3.2" ry="3.2"/>
</g>
<!-- sahulchar_units_points_EPSG3857 -->
<g id="node15" class="node">
<title>sahulchar_units_points_EPSG3857</title>
<g id="a_node15"><a xlink:href="../../tables/sahulchar_units_points_EPSG3857.html" xlink:title="sahulchar_units_points_EPSG3857" target="_top">
<polygon fill="#ffffff" stroke="transparent" points="390,-310.0921 390,-488.0921 735,-488.0921 735,-310.0921 390,-310.0921"/>
<polygon fill="#f5f5f5" stroke="transparent" points="392.5,-463.0921 392.5,-486.0921 733.5,-486.0921 733.5,-463.0921 392.5,-463.0921"/>
<polygon fill="none" stroke="#000000" points="392.5,-463.0921 392.5,-486.0921 733.5,-486.0921 733.5,-463.0921 392.5,-463.0921"/>
<text text-anchor="start" x="397.5" y="-471.6921" font-family="Helvetica,sans-Serif" font-weight="bold" font-size="11.00" fill="#000000">sahulchar_units_points_EPSG3857</text>
<text text-anchor="start" x="698.5437" y="-471.1921" font-family="Helvetica,sans-Serif" font-size="11.00" fill="#000000">[table]</text>
<polygon fill="none" stroke="#000000" points="392.5,-441.0921 392.5,-463.0921 614.5,-463.0921 614.5,-441.0921 392.5,-441.0921"/>
<image xlink:href="../../images/primaryKeys.png" width="11px" height="12px" preserveAspectRatio="xMinYMin meet" x="397.5" y="-458.092"/>
<text text-anchor="start" x="412.5" y="-448.1921" font-family="Helvetica,sans-Serif" font-size="11.00" fill="#000000">id</text>
<polygon fill="none" stroke="#000000" points="614.5,-441.0921 614.5,-463.0921 733.5,-463.0921 733.5,-441.0921 614.5,-441.0921"/>
<text text-anchor="start" x="617.5" y="-448.7921" font-family="Helvetica,sans-Serif" font-size="11.00" fill="#000000">serial[10]</text>
<polygon fill="#ffffff" stroke="transparent" points="392.5,-419.0921 392.5,-441.0921 614.5,-441.0921 614.5,-419.0921 392.5,-419.0921"/>
<polygon fill="none" stroke="#000000" points="392.5,-419.0921 392.5,-441.0921 614.5,-441.0921 614.5,-419.0921 392.5,-419.0921"/>
<image xlink:href="../../images/foreignKeys.png" width="11px" height="12px" preserveAspectRatio="xMinYMin meet" x="397.5" y="-436.092"/>
<text text-anchor="start" x="412.5" y="-426.1921" font-family="Helvetica,sans-Serif" font-size="11.00" fill="#000000">UNITID</text>
<polygon fill="none" stroke="#000000" points="614.5,-419.0921 614.5,-441.0921 733.5,-441.0921 733.5,-419.0921 614.5,-419.0921"/>
<text text-anchor="start" x="617.5" y="-426.7921" font-family="Helvetica,sans-Serif" font-size="11.00" fill="#000000">int4[10]</text>
<polygon fill="#ffffff" stroke="transparent" points="392.5,-397.0921 392.5,-419.0921 614.5,-419.0921 614.5,-397.0921 392.5,-397.0921"/>
<polygon fill="none" stroke="#000000" points="392.5,-397.0921 392.5,-419.0921 614.5,-419.0921 614.5,-397.0921 392.5,-397.0921"/>
<text text-anchor="start" x="412.5" y="-404.1921" font-family="Helvetica,sans-Serif" font-size="11.00" fill="#000000">UNITHANDLE</text>
<polygon fill="none" stroke="#000000" points="614.5,-397.0921 614.5,-419.0921 733.5,-419.0921 733.5,-397.0921 614.5,-397.0921"/>
<text text-anchor="start" x="617.5" y="-404.7921" font-family="Helvetica,sans-Serif" font-size="11.00" fill="#000000">varchar[10]</text>
<polygon fill="none" stroke="#000000" points="392.5,-375.0921 392.5,-397.0921 614.5,-397.0921 614.5,-375.0921 392.5,-375.0921"/>
<text text-anchor="start" x="412.5" y="-382.1921" font-family="Helvetica,sans-Serif" font-size="11.00" fill="#000000">geom</text>
<polygon fill="none" stroke="#000000" points="614.5,-375.0921 614.5,-397.0921 733.5,-397.0921 733.5,-375.0921 614.5,-375.0921"/>
<text text-anchor="start" x="617.4485" y="-382.7921" font-family="Helvetica,sans-Serif" font-size="11.00" fill="#000000">geometry[2147483647]</text>
<polygon fill="none" stroke="#000000" points="392.5,-353.0921 392.5,-375.0921 614.5,-375.0921 614.5,-353.0921 392.5,-353.0921"/>
<text text-anchor="start" x="412.5" y="-360.1921" font-family="Helvetica,sans-Serif" font-size="11.00" fill="#000000">CREATED_AT</text>
<polygon fill="none" stroke="#000000" points="614.5,-353.0921 614.5,-375.0921 733.5,-375.0921 733.5,-353.0921 614.5,-353.0921"/>
<text text-anchor="start" x="617.5" y="-360.7921" font-family="Helvetica,sans-Serif" font-size="11.00" fill="#000000">timestamptz[35,6]</text>
<polygon fill="none" stroke="#000000" points="392.5,-331.0921 392.5,-353.0921 614.5,-353.0921 614.5,-331.0921 392.5,-331.0921"/>
<text text-anchor="start" x="412.5" y="-338.1921" font-family="Helvetica,sans-Serif" font-size="11.00" fill="#000000">UPDATED_AT</text>
<polygon fill="none" stroke="#000000" points="614.5,-331.0921 614.5,-353.0921 733.5,-353.0921 733.5,-331.0921 614.5,-331.0921"/>
<text text-anchor="start" x="617.5" y="-338.7921" font-family="Helvetica,sans-Serif" font-size="11.00" fill="#000000">timestamptz[35,6]</text>
<polygon fill="#ffffff" stroke="transparent" points="392.5,-312.0921 392.5,-331.0921 488.5,-331.0921 488.5,-312.0921 392.5,-312.0921"/>
<polygon fill="none" stroke="#000000" points="392.5,-312.0921 392.5,-331.0921 488.5,-331.0921 488.5,-312.0921 392.5,-312.0921"/>
<text text-anchor="start" x="395.5" y="-318.1921" font-family="Helvetica,sans-Serif" font-size="11.00" fill="#000000">&lt; 1</text>
<polygon fill="#ffffff" stroke="transparent" points="488.5,-312.0921 488.5,-331.0921 614.5,-331.0921 614.5,-312.0921 488.5,-312.0921"/>
<polygon fill="none" stroke="#000000" points="488.5,-312.0921 488.5,-331.0921 614.5,-331.0921 614.5,-312.0921 488.5,-312.0921"/>
<text text-anchor="start" x="566.8807" y="-318.1921" font-family="Helvetica,sans-Serif" font-size="11.00" fill="#000000">531 rows</text>
<polygon fill="#ffffff" stroke="transparent" points="614.5,-312.0921 614.5,-331.0921 733.5,-331.0921 733.5,-312.0921 614.5,-312.0921"/>
<polygon fill="none" stroke="#000000" points="614.5,-312.0921 614.5,-331.0921 733.5,-331.0921 733.5,-312.0921 614.5,-312.0921"/>
<text text-anchor="start" x="714.9053" y="-318.1921" font-family="Helvetica,sans-Serif" font-size="11.00" fill="#000000">0 &gt;</text>
<polygon fill="none" stroke="#000000" stroke-width="2" points="391,-311.0921 391,-487.0921 734,-487.0921 734,-311.0921 391,-311.0921"/>
</a>
</g>
</g>
<!-- sahulchar_units_points_EPSG3857&#45;&gt;global_UnitMaster -->
<g id="edge25" class="edge">
<title>sahulchar_units_points_EPSG3857:w&#45;&gt;global_UnitMaster:e</title>
<path fill="none" stroke="#000000" stroke-dasharray="5,2" d="M381.7307,-430.0921C367.248,-430.0921 360.0938,-430.0921 341.5,-430.0921"/>
<polygon fill="#000000" stroke="#000000" points="391.7,-426.0921 391.7,-434.0921 390.1,-434.0921 390.1,-426.0921 391.7,-426.0921"/>
<polyline fill="none" stroke="#000000" points="392.5,-430.0921 388.5,-430.0921 "/>
<ellipse fill="none" stroke="#000000" cx="385.3" cy="-430.0922" rx="3.2" ry="3.2"/>
</g>
</g>
</svg>
