<?xml version="1.0" encoding="UTF-8" standalone="no"?>
<!DOCTYPE svg PUBLIC "-//W3C//DTD SVG 1.1//EN"
 "http://www.w3.org/Graphics/SVG/1.1/DTD/svg11.dtd">
<!-- Generated by graphviz version 2.40.1 (20161225.0304)
 -->
<!-- Title: oneDegreeRelationshipsDiagram Pages: 1 -->
<svg width="481pt" height="619pt"
 viewBox="0.00 0.00 481.00 618.70" xmlns="http://www.w3.org/2000/svg" xmlns:xlink="http://www.w3.org/1999/xlink">
<g id="graph0" class="graph" transform="scale(1 1) rotate(0) translate(4 614.7)">
<title>oneDegreeRelationshipsDiagram</title>
<polygon fill="#ffffff" stroke="transparent" points="-4,4 -4,-614.7 477,-614.7 477,4 -4,4"/>
<text text-anchor="middle" x="72.4936" y="-7.3" font-family="Helvetica,sans-Serif" font-size="11.00" fill="#000000">Generated by SchemaSpy</text>
<!-- sed&#45;tl_points_EPSG3857 -->
<g id="node1" class="node">
<title>sed&#45;tl_points_EPSG3857</title>
<g id="a_node1"><a xlink:href="../../tables/sed-tl_points_EPSG3857.html" xlink:title="sed&#45;tl_points_EPSG3857" target="_top">
<polygon fill="#ffffff" stroke="transparent" points="180,-428.7 180,-606.7 465,-606.7 465,-428.7 180,-428.7"/>
<polygon fill="#f5f5f5" stroke="transparent" points="182.5,-581.7 182.5,-604.7 463.5,-604.7 463.5,-581.7 182.5,-581.7"/>
<polygon fill="none" stroke="#000000" points="182.5,-581.7 182.5,-604.7 463.5,-604.7 463.5,-581.7 182.5,-581.7"/>
<text text-anchor="start" x="187.5" y="-590.8" font-family="Helvetica,sans-Serif" font-weight="bold" font-size="11.00" fill="#000000">sed&#45;tl_points_EPSG3857</text>
<text text-anchor="start" x="428.5437" y="-589.8" font-family="Helvetica,sans-Serif" font-size="11.00" fill="#000000">[table]</text>
<polygon fill="none" stroke="#000000" points="182.5,-559.7 182.5,-581.7 344.5,-581.7 344.5,-559.7 182.5,-559.7"/>
<image xlink:href="../../images/primaryKeys.png" width="11px" height="12px" preserveAspectRatio="xMinYMin meet" x="187.5" y="-576.7"/>
<text text-anchor="start" x="202.5" y="-566.8" font-family="Helvetica,sans-Serif" font-size="11.00" fill="#000000">id</text>
<polygon fill="none" stroke="#000000" points="344.5,-559.7 344.5,-581.7 463.5,-581.7 463.5,-559.7 344.5,-559.7"/>
<text text-anchor="start" x="347.5" y="-567.4" font-family="Helvetica,sans-Serif" font-size="11.00" fill="#000000">serial[10]</text>
<polygon fill="#ffffff" stroke="transparent" points="182.5,-537.7 182.5,-559.7 344.5,-559.7 344.5,-537.7 182.5,-537.7"/>
<polygon fill="none" stroke="#000000" points="182.5,-537.7 182.5,-559.7 344.5,-559.7 344.5,-537.7 182.5,-537.7"/>
<text text-anchor="start" x="202.5" y="-544.8" font-family="Helvetica,sans-Serif" font-size="11.00" fill="#000000">geom</text>
<polygon fill="none" stroke="#000000" points="344.5,-537.7 344.5,-559.7 463.5,-559.7 463.5,-537.7 344.5,-537.7"/>
<text text-anchor="start" x="347.4485" y="-545.4" font-family="Helvetica,sans-Serif" font-size="11.00" fill="#000000">geometry[2147483647]</text>
<polygon fill="none" stroke="#000000" points="182.5,-515.7 182.5,-537.7 344.5,-537.7 344.5,-515.7 182.5,-515.7"/>
<image xlink:href="../../images/primaryKeys.png" width="11px" height="12px" preserveAspectRatio="xMinYMin meet" x="187.5" y="-532.7"/>
<text text-anchor="start" x="202.5" y="-522.8" font-family="Helvetica,sans-Serif" font-size="11.00" fill="#000000">OBSID1</text>
<polygon fill="none" stroke="#000000" points="344.5,-515.7 344.5,-537.7 463.5,-537.7 463.5,-515.7 344.5,-515.7"/>
<text text-anchor="start" x="347.5" y="-523.4" font-family="Helvetica,sans-Serif" font-size="11.00" fill="#000000">text[2147483647]</text>
<polygon fill="none" stroke="#000000" points="182.5,-493.7 182.5,-515.7 344.5,-515.7 344.5,-493.7 182.5,-493.7"/>
<text text-anchor="start" x="202.5" y="-500.8" font-family="Helvetica,sans-Serif" font-size="11.00" fill="#000000">OBSID2</text>
<polygon fill="none" stroke="#000000" points="344.5,-493.7 344.5,-515.7 463.5,-515.7 463.5,-493.7 344.5,-493.7"/>
<text text-anchor="start" x="347.5" y="-501.4" font-family="Helvetica,sans-Serif" font-size="11.00" fill="#000000">text[2147483647]</text>
<polygon fill="none" stroke="#000000" points="182.5,-471.7 182.5,-493.7 344.5,-493.7 344.5,-471.7 182.5,-471.7"/>
<text text-anchor="start" x="202.5" y="-478.8" font-family="Helvetica,sans-Serif" font-size="11.00" fill="#000000">CREATED_AT</text>
<polygon fill="none" stroke="#000000" points="344.5,-471.7 344.5,-493.7 463.5,-493.7 463.5,-471.7 344.5,-471.7"/>
<text text-anchor="start" x="347.5" y="-479.4" font-family="Helvetica,sans-Serif" font-size="11.00" fill="#000000">timestamptz[35,6]</text>
<polygon fill="none" stroke="#000000" points="182.5,-449.7 182.5,-471.7 344.5,-471.7 344.5,-449.7 182.5,-449.7"/>
<text text-anchor="start" x="202.5" y="-456.8" font-family="Helvetica,sans-Serif" font-size="11.00" fill="#000000">UPDATED_AT</text>
<polygon fill="none" stroke="#000000" points="344.5,-449.7 344.5,-471.7 463.5,-471.7 463.5,-449.7 344.5,-449.7"/>
<text text-anchor="start" x="347.5" y="-457.4" font-family="Helvetica,sans-Serif" font-size="11.00" fill="#000000">timestamptz[35,6]</text>
<polygon fill="#ffffff" stroke="transparent" points="182.5,-430.7 182.5,-449.7 248.5,-449.7 248.5,-430.7 182.5,-430.7"/>
<polygon fill="none" stroke="#000000" points="182.5,-430.7 182.5,-449.7 248.5,-449.7 248.5,-430.7 182.5,-430.7"/>
<text text-anchor="start" x="185.5" y="-436.8" font-family="Helvetica,sans-Serif" font-size="11.00" fill="#000000">&lt; 1</text>
<polygon fill="#ffffff" stroke="transparent" points="248.5,-430.7 248.5,-449.7 344.5,-449.7 344.5,-430.7 248.5,-430.7"/>
<polygon fill="none" stroke="#000000" points="248.5,-430.7 248.5,-449.7 344.5,-449.7 344.5,-430.7 248.5,-430.7"/>
<text text-anchor="start" x="296.8807" y="-436.8" font-family="Helvetica,sans-Serif" font-size="11.00" fill="#000000">966 rows</text>
<polygon fill="#ffffff" stroke="transparent" points="344.5,-430.7 344.5,-449.7 463.5,-449.7 463.5,-430.7 344.5,-430.7"/>
<polygon fill="none" stroke="#000000" points="344.5,-430.7 344.5,-449.7 463.5,-449.7 463.5,-430.7 344.5,-430.7"/>
<text text-anchor="start" x="444.9053" y="-436.8" font-family="Helvetica,sans-Serif" font-size="11.00" fill="#000000">0 &gt;</text>
<polygon fill="none" stroke="#000000" stroke-width="2" points="181,-429.7 181,-605.7 464,-605.7 464,-429.7 181,-429.7"/>
</a>
</g>
</g>
<!-- sed&#45;tl_DataCore -->
<g id="node2" class="node">
<title>sed&#45;tl_DataCore</title>
<g id="a_node2"><a xlink:href="../../tables/sed-tl_DataCore.html" xlink:title="sed&#45;tl_DataCore" target="_top">
<polygon fill="#ffffff" stroke="transparent" points="8,-38.2 8,-561.2 131,-561.2 131,-38.2 8,-38.2"/>
<polygon fill="#f5f5f5" stroke="transparent" points="8.5,-537.7 8.5,-560.7 131.5,-560.7 131.5,-537.7 8.5,-537.7"/>
<polygon fill="none" stroke="#000000" points="8.5,-537.7 8.5,-560.7 131.5,-560.7 131.5,-537.7 8.5,-537.7"/>
<text text-anchor="start" x="13.4677" y="-546.8" font-family="Helvetica,sans-Serif" font-weight="bold" font-size="11.00" fill="#000000">sed&#45;tl_DataCore</text>
<text text-anchor="start" x="97.0219" y="-545.8" font-family="Helvetica,sans-Serif" font-size="11.00" fill="#000000">[table]</text>
<polygon fill="none" stroke="#000000" points="8.5,-515.7 8.5,-537.7 131.5,-537.7 131.5,-515.7 8.5,-515.7"/>
<image xlink:href="../../images/primaryKeys.png" width="11px" height="12px" preserveAspectRatio="xMinYMin meet" x="13.5" y="-532.7"/>
<text text-anchor="start" x="33.5" y="-522.8" font-family="Helvetica,sans-Serif" font-size="11.00" fill="#000000">OBSID1</text>
<polygon fill="none" stroke="#000000" points="8.5,-493.7 8.5,-515.7 131.5,-515.7 131.5,-493.7 8.5,-493.7"/>
<image xlink:href="../../images/foreignKeys.png" width="11px" height="12px" preserveAspectRatio="xMinYMin meet" x="13.5" y="-510.7"/>
<text text-anchor="start" x="33.5" y="-500.8" font-family="Helvetica,sans-Serif" font-size="11.00" fill="#000000">SMPID</text>
<polygon fill="none" stroke="#000000" points="8.5,-471.7 8.5,-493.7 131.5,-493.7 131.5,-471.7 8.5,-471.7"/>
<image xlink:href="../../images/foreignKeys.png" width="11px" height="12px" preserveAspectRatio="xMinYMin meet" x="13.5" y="-488.7"/>
<text text-anchor="start" x="33.5" y="-478.8" font-family="Helvetica,sans-Serif" font-size="11.00" fill="#000000">LAB_ORIGID</text>
<polygon fill="none" stroke="#000000" points="8.5,-449.7 8.5,-471.7 131.5,-471.7 131.5,-449.7 8.5,-449.7"/>
<image xlink:href="../../images/foreignKeys.png" width="11px" height="12px" preserveAspectRatio="xMinYMin meet" x="13.5" y="-466.7"/>
<text text-anchor="start" x="33.5" y="-456.8" font-family="Helvetica,sans-Serif" font-size="11.00" fill="#000000">METHODID</text>
<polygon fill="none" stroke="#000000" points="8.5,-427.7 8.5,-449.7 131.5,-449.7 131.5,-427.7 8.5,-427.7"/>
<image xlink:href="../../images/foreignKeys.png" width="11px" height="12px" preserveAspectRatio="xMinYMin meet" x="13.5" y="-444.7"/>
<text text-anchor="start" x="33.5" y="-434.8" font-family="Helvetica,sans-Serif" font-size="11.00" fill="#000000">DBDOI</text>
<polygon fill="none" stroke="#000000" points="8.5,-405.7 8.5,-427.7 131.5,-427.7 131.5,-405.7 8.5,-405.7"/>
<image xlink:href="../../images/foreignKeys.png" width="11px" height="12px" preserveAspectRatio="xMinYMin meet" x="13.5" y="-422.7"/>
<text text-anchor="start" x="33.5" y="-412.8" font-family="Helvetica,sans-Serif" font-size="11.00" fill="#000000">REFDBID1</text>
<polygon fill="none" stroke="#000000" points="8.5,-383.7 8.5,-405.7 131.5,-405.7 131.5,-383.7 8.5,-383.7"/>
<image xlink:href="../../images/foreignKeys.png" width="11px" height="12px" preserveAspectRatio="xMinYMin meet" x="13.5" y="-400.7"/>
<text text-anchor="start" x="33.5" y="-390.8" font-family="Helvetica,sans-Serif" font-size="11.00" fill="#000000">REFDBID2</text>
<polygon fill="none" stroke="#000000" points="8.5,-361.7 8.5,-383.7 131.5,-383.7 131.5,-361.7 8.5,-361.7"/>
<image xlink:href="../../images/foreignKeys.png" width="11px" height="12px" preserveAspectRatio="xMinYMin meet" x="13.5" y="-378.7"/>
<text text-anchor="start" x="33.5" y="-368.8" font-family="Helvetica,sans-Serif" font-size="11.00" fill="#000000">REFDBID3</text>
<polygon fill="none" stroke="#000000" points="8.5,-339.7 8.5,-361.7 131.5,-361.7 131.5,-339.7 8.5,-339.7"/>
<image xlink:href="../../images/foreignKeys.png" width="11px" height="12px" preserveAspectRatio="xMinYMin meet" x="13.5" y="-356.7"/>
<text text-anchor="start" x="33.5" y="-346.8" font-family="Helvetica,sans-Serif" font-size="11.00" fill="#000000">REFDBID4</text>
<polygon fill="none" stroke="#000000" points="8.5,-317.7 8.5,-339.7 131.5,-339.7 131.5,-317.7 8.5,-317.7"/>
<image xlink:href="../../images/foreignKeys.png" width="11px" height="12px" preserveAspectRatio="xMinYMin meet" x="13.5" y="-334.7"/>
<text text-anchor="start" x="33.5" y="-324.8" font-family="Helvetica,sans-Serif" font-size="11.00" fill="#000000">COL_MTDID</text>
<polygon fill="none" stroke="#000000" points="8.5,-295.7 8.5,-317.7 131.5,-317.7 131.5,-295.7 8.5,-295.7"/>
<image xlink:href="../../images/foreignKeys.png" width="11px" height="12px" preserveAspectRatio="xMinYMin meet" x="13.5" y="-312.7"/>
<text text-anchor="start" x="33.5" y="-302.8" font-family="Helvetica,sans-Serif" font-size="11.00" fill="#000000">LUM_MATID</text>
<polygon fill="none" stroke="#000000" points="8.5,-273.7 8.5,-295.7 131.5,-295.7 131.5,-273.7 8.5,-273.7"/>
<image xlink:href="../../images/foreignKeys.png" width="11px" height="12px" preserveAspectRatio="xMinYMin meet" x="13.5" y="-290.7"/>
<text text-anchor="start" x="33.5" y="-280.8" font-family="Helvetica,sans-Serif" font-size="11.00" fill="#000000">MINERALID</text>
<polygon fill="none" stroke="#000000" points="8.5,-251.7 8.5,-273.7 131.5,-273.7 131.5,-251.7 8.5,-251.7"/>
<image xlink:href="../../images/foreignKeys.png" width="11px" height="12px" preserveAspectRatio="xMinYMin meet" x="13.5" y="-268.7"/>
<text text-anchor="start" x="33.5" y="-258.8" font-family="Helvetica,sans-Serif" font-size="11.00" fill="#000000">ED_PROCID</text>
<polygon fill="none" stroke="#000000" points="8.5,-229.7 8.5,-251.7 131.5,-251.7 131.5,-229.7 8.5,-229.7"/>
<image xlink:href="../../images/foreignKeys.png" width="11px" height="12px" preserveAspectRatio="xMinYMin meet" x="13.5" y="-246.7"/>
<text text-anchor="start" x="33.5" y="-236.8" font-family="Helvetica,sans-Serif" font-size="11.00" fill="#000000">AGEMODELID</text>
<polygon fill="none" stroke="#000000" points="8.5,-207.7 8.5,-229.7 131.5,-229.7 131.5,-207.7 8.5,-207.7"/>
<image xlink:href="../../images/foreignKeys.png" width="11px" height="12px" preserveAspectRatio="xMinYMin meet" x="13.5" y="-224.7"/>
<text text-anchor="start" x="33.5" y="-214.8" font-family="Helvetica,sans-Serif" font-size="11.00" fill="#000000">U_MTDID</text>
<polygon fill="none" stroke="#000000" points="8.5,-185.7 8.5,-207.7 131.5,-207.7 131.5,-185.7 8.5,-185.7"/>
<image xlink:href="../../images/foreignKeys.png" width="11px" height="12px" preserveAspectRatio="xMinYMin meet" x="13.5" y="-202.7"/>
<text text-anchor="start" x="33.5" y="-192.8" font-family="Helvetica,sans-Serif" font-size="11.00" fill="#000000">TH_MTDID</text>
<polygon fill="none" stroke="#000000" points="8.5,-163.7 8.5,-185.7 131.5,-185.7 131.5,-163.7 8.5,-163.7"/>
<image xlink:href="../../images/foreignKeys.png" width="11px" height="12px" preserveAspectRatio="xMinYMin meet" x="13.5" y="-180.7"/>
<text text-anchor="start" x="33.5" y="-170.8" font-family="Helvetica,sans-Serif" font-size="11.00" fill="#000000">U_TH_MTDID</text>
<polygon fill="none" stroke="#000000" points="8.5,-141.7 8.5,-163.7 131.5,-163.7 131.5,-141.7 8.5,-141.7"/>
<image xlink:href="../../images/foreignKeys.png" width="11px" height="12px" preserveAspectRatio="xMinYMin meet" x="13.5" y="-158.7"/>
<text text-anchor="start" x="33.5" y="-148.8" font-family="Helvetica,sans-Serif" font-size="11.00" fill="#000000">K_MTDID</text>
<polygon fill="none" stroke="#000000" points="8.5,-119.7 8.5,-141.7 131.5,-141.7 131.5,-119.7 8.5,-119.7"/>
<image xlink:href="../../images/foreignKeys.png" width="11px" height="12px" preserveAspectRatio="xMinYMin meet" x="13.5" y="-136.7"/>
<text text-anchor="start" x="33.5" y="-126.8" font-family="Helvetica,sans-Serif" font-size="11.00" fill="#000000">ALPH_MTDID</text>
<polygon fill="none" stroke="#000000" points="8.5,-97.7 8.5,-119.7 131.5,-119.7 131.5,-97.7 8.5,-97.7"/>
<image xlink:href="../../images/foreignKeys.png" width="11px" height="12px" preserveAspectRatio="xMinYMin meet" x="13.5" y="-114.7"/>
<text text-anchor="start" x="33.5" y="-104.8" font-family="Helvetica,sans-Serif" font-size="11.00" fill="#000000">BETA_MTDID</text>
<polygon fill="none" stroke="#000000" points="8.5,-75.7 8.5,-97.7 131.5,-97.7 131.5,-75.7 8.5,-75.7"/>
<image xlink:href="../../images/foreignKeys.png" width="11px" height="12px" preserveAspectRatio="xMinYMin meet" x="13.5" y="-92.7"/>
<text text-anchor="start" x="33.5" y="-82.8" font-family="Helvetica,sans-Serif" font-size="11.00" fill="#000000">GMMA_MTDID</text>
<polygon fill="none" stroke="#000000" points="8.5,-56.7 8.5,-75.7 131.5,-75.7 131.5,-56.7 8.5,-56.7"/>
<text text-anchor="start" x="11.5" y="-62.8" font-family="Helvetica,sans-Serif" font-size="11.00" fill="#000000">...</text>
<polygon fill="#ffffff" stroke="transparent" points="8.5,-37.7 8.5,-56.7 47.5,-56.7 47.5,-37.7 8.5,-37.7"/>
<polygon fill="none" stroke="#000000" points="8.5,-37.7 8.5,-56.7 47.5,-56.7 47.5,-37.7 8.5,-37.7"/>
<text text-anchor="start" x="11.5" y="-43.8" font-family="Helvetica,sans-Serif" font-size="11.00" fill="#000000">&lt; 20</text>
<polygon fill="#ffffff" stroke="transparent" points="47.5,-37.7 47.5,-56.7 103.5,-56.7 103.5,-37.7 47.5,-37.7"/>
<polygon fill="none" stroke="#000000" points="47.5,-37.7 47.5,-56.7 103.5,-56.7 103.5,-37.7 47.5,-37.7"/>
<text text-anchor="start" x="55.8807" y="-43.8" font-family="Helvetica,sans-Serif" font-size="11.00" fill="#000000">966 rows</text>
<polygon fill="#ffffff" stroke="transparent" points="103.5,-37.7 103.5,-56.7 131.5,-56.7 131.5,-37.7 103.5,-37.7"/>
<polygon fill="none" stroke="#000000" points="103.5,-37.7 103.5,-56.7 131.5,-56.7 131.5,-37.7 103.5,-37.7"/>
<text text-anchor="start" x="112.9053" y="-43.8" font-family="Helvetica,sans-Serif" font-size="11.00" fill="#000000">1 &gt;</text>
</a>
</g>
</g>
<!-- sed&#45;tl_points_EPSG3857&#45;&gt;sed&#45;tl_DataCore -->
<g id="edge1" class="edge">
<title>sed&#45;tl_points_EPSG3857:w&#45;&gt;sed&#45;tl_DataCore:e</title>
<path fill="none" stroke="#000000" d="M171.7307,-526.7C157.248,-526.7 150.0938,-526.7 131.5,-526.7"/>
<polygon fill="#000000" stroke="#000000" points="181.7,-522.7 181.7,-530.7 180.1,-530.7 180.1,-522.7 181.7,-522.7"/>
<polyline fill="none" stroke="#000000" points="182.5,-526.7 178.5,-526.7 "/>
<ellipse fill="none" stroke="#000000" cx="175.3" cy="-526.7001" rx="3.2" ry="3.2"/>
</g>
</g>
</svg>
