<?xml version="1.0" encoding="UTF-8" standalone="no"?>
<!DOCTYPE svg PUBLIC "-//W3C//DTD SVG 1.1//EN"
 "http://www.w3.org/Graphics/SVG/1.1/DTD/svg11.dtd">
<!-- Generated by graphviz version 2.40.1 (20161225.0304)
 -->
<!-- Title: oneDegreeRelationshipsDiagram Pages: 1 -->
<svg width="374pt" height="331pt"
 viewBox="0.00 0.00 374.00 331.20" xmlns="http://www.w3.org/2000/svg" xmlns:xlink="http://www.w3.org/1999/xlink">
<g id="graph0" class="graph" transform="scale(1 1) rotate(0) translate(4 327.2)">
<title>oneDegreeRelationshipsDiagram</title>
<polygon fill="#ffffff" stroke="transparent" points="-4,4 -4,-327.2 370,-327.2 370,4 -4,4"/>
<text text-anchor="middle" x="72.4936" y="-7.3" font-family="Helvetica,sans-Serif" font-size="11.00" fill="#000000">Generated by SchemaSpy</text>
<!-- sed_Sample -->
<g id="node1" class="node">
<title>sed_Sample</title>
<g id="a_node1"><a xlink:href="../../tables/sed_Sample.html" xlink:title="sed_Sample" target="_top">
<polygon fill="#ffffff" stroke="transparent" points="254,-38.2 254,-319.2 358,-319.2 358,-38.2 254,-38.2"/>
<polygon fill="#f5f5f5" stroke="transparent" points="254,-295.7 254,-318.7 358,-318.7 358,-295.7 254,-295.7"/>
<polygon fill="none" stroke="#000000" points="254,-295.7 254,-318.7 358,-318.7 358,-295.7 254,-295.7"/>
<text text-anchor="start" x="258.936" y="-304.8" font-family="Helvetica,sans-Serif" font-weight="bold" font-size="11.00" fill="#000000">sed_Sample</text>
<text text-anchor="start" x="323.5219" y="-303.8" font-family="Helvetica,sans-Serif" font-size="11.00" fill="#000000">[table]</text>
<polygon fill="none" stroke="#000000" points="254,-273.7 254,-295.7 358,-295.7 358,-273.7 254,-273.7"/>
<image xlink:href="../../images/primaryKeys.png" width="11px" height="12px" preserveAspectRatio="xMinYMin meet" x="259" y="-290.7"/>
<text text-anchor="start" x="276" y="-280.8" font-family="Helvetica,sans-Serif" font-size="11.00" fill="#000000">SMPID</text>
<polygon fill="none" stroke="#000000" points="254,-251.7 254,-273.7 358,-273.7 358,-251.7 254,-251.7"/>
<image xlink:href="../../images/foreignKeys.png" width="11px" height="12px" preserveAspectRatio="xMinYMin meet" x="259" y="-268.7"/>
<text text-anchor="start" x="276" y="-258.8" font-family="Helvetica,sans-Serif" font-size="11.00" fill="#000000">SITEID</text>
<polygon fill="none" stroke="#000000" points="254,-229.7 254,-251.7 358,-251.7 358,-229.7 254,-229.7"/>
<image xlink:href="../../images/foreignKeys.png" width="11px" height="12px" preserveAspectRatio="xMinYMin meet" x="259" y="-246.7"/>
<text text-anchor="start" x="276" y="-236.8" font-family="Helvetica,sans-Serif" font-size="11.00" fill="#000000">GEOTYPEID</text>
<polygon fill="none" stroke="#000000" points="254,-207.7 254,-229.7 358,-229.7 358,-207.7 254,-207.7"/>
<image xlink:href="../../images/foreignKeys.png" width="11px" height="12px" preserveAspectRatio="xMinYMin meet" x="259" y="-224.7"/>
<text text-anchor="start" x="276" y="-214.8" font-family="Helvetica,sans-Serif" font-size="11.00" fill="#000000">DEPCONID</text>
<polygon fill="none" stroke="#000000" points="254,-185.7 254,-207.7 358,-207.7 358,-185.7 254,-185.7"/>
<image xlink:href="../../images/foreignKeys.png" width="11px" height="12px" preserveAspectRatio="xMinYMin meet" x="259" y="-202.7"/>
<text text-anchor="start" x="276" y="-192.8" font-family="Helvetica,sans-Serif" font-size="11.00" fill="#000000">GEOMMODID</text>
<polygon fill="none" stroke="#000000" points="254,-163.7 254,-185.7 358,-185.7 358,-163.7 254,-163.7"/>
<image xlink:href="../../images/foreignKeys.png" width="11px" height="12px" preserveAspectRatio="xMinYMin meet" x="259" y="-180.7"/>
<text text-anchor="start" x="276" y="-170.8" font-family="Helvetica,sans-Serif" font-size="11.00" fill="#000000">MORPHID</text>
<polygon fill="none" stroke="#000000" points="254,-141.7 254,-163.7 358,-163.7 358,-141.7 254,-141.7"/>
<image xlink:href="../../images/foreignKeys.png" width="11px" height="12px" preserveAspectRatio="xMinYMin meet" x="259" y="-158.7"/>
<text text-anchor="start" x="276" y="-148.8" font-family="Helvetica,sans-Serif" font-size="11.00" fill="#000000">SITETYPEID</text>
<polygon fill="none" stroke="#000000" points="254,-119.7 254,-141.7 358,-141.7 358,-119.7 254,-119.7"/>
<image xlink:href="../../images/foreignKeys.png" width="11px" height="12px" preserveAspectRatio="xMinYMin meet" x="259" y="-136.7"/>
<text text-anchor="start" x="276" y="-126.8" font-family="Helvetica,sans-Serif" font-size="11.00" fill="#000000">SED_MATID</text>
<polygon fill="none" stroke="#000000" points="254,-97.7 254,-119.7 358,-119.7 358,-97.7 254,-97.7"/>
<image xlink:href="../../images/foreignKeys.png" width="11px" height="12px" preserveAspectRatio="xMinYMin meet" x="259" y="-114.7"/>
<text text-anchor="start" x="276" y="-104.8" font-family="Helvetica,sans-Serif" font-size="11.00" fill="#000000">FACIESID</text>
<polygon fill="none" stroke="#000000" points="254,-75.7 254,-97.7 358,-97.7 358,-75.7 254,-75.7"/>
<image xlink:href="../../images/foreignKeys.png" width="11px" height="12px" preserveAspectRatio="xMinYMin meet" x="259" y="-92.7"/>
<text text-anchor="start" x="276" y="-82.8" font-family="Helvetica,sans-Serif" font-size="11.00" fill="#000000">LAKETYPEID</text>
<polygon fill="none" stroke="#000000" points="254,-56.7 254,-75.7 358,-75.7 358,-56.7 254,-56.7"/>
<text text-anchor="start" x="257" y="-62.8" font-family="Helvetica,sans-Serif" font-size="11.00" fill="#000000">...</text>
<polygon fill="#ffffff" stroke="transparent" points="254,-37.7 254,-56.7 276,-56.7 276,-37.7 254,-37.7"/>
<polygon fill="none" stroke="#000000" points="254,-37.7 254,-56.7 276,-56.7 276,-37.7 254,-37.7"/>
<text text-anchor="start" x="257" y="-43.8" font-family="Helvetica,sans-Serif" font-size="11.00" fill="#000000">&lt; 9</text>
<polygon fill="#ffffff" stroke="transparent" points="276,-37.7 276,-56.7 336,-56.7 336,-37.7 276,-37.7"/>
<polygon fill="none" stroke="#000000" points="276,-37.7 276,-56.7 336,-56.7 336,-37.7 276,-37.7"/>
<text text-anchor="start" x="279.2089" y="-43.8" font-family="Helvetica,sans-Serif" font-size="11.00" fill="#000000">3,181 rows</text>
<polygon fill="#ffffff" stroke="transparent" points="336,-37.7 336,-56.7 358,-56.7 358,-37.7 336,-37.7"/>
<polygon fill="none" stroke="#000000" points="336,-37.7 336,-56.7 358,-56.7 358,-37.7 336,-37.7"/>
<text text-anchor="start" x="339.4053" y="-43.8" font-family="Helvetica,sans-Serif" font-size="11.00" fill="#000000">2 &gt;</text>
</a>
</g>
</g>
<!-- sed_morphID -->
<g id="node2" class="node">
<title>sed_morphID</title>
<g id="a_node2"><a xlink:href="../../tables/sed_morphID.html" xlink:title="sed_morphID" target="_top">
<polygon fill="#ffffff" stroke="transparent" points="8,-76.7 8,-210.7 205,-210.7 205,-76.7 8,-76.7"/>
<polygon fill="#f5f5f5" stroke="transparent" points="10.5,-185.7 10.5,-208.7 203.5,-208.7 203.5,-185.7 10.5,-185.7"/>
<polygon fill="none" stroke="#000000" points="10.5,-185.7 10.5,-208.7 203.5,-208.7 203.5,-185.7 10.5,-185.7"/>
<text text-anchor="start" x="15.5" y="-194.8" font-family="Helvetica,sans-Serif" font-weight="bold" font-size="11.00" fill="#000000">sed_morphID</text>
<text text-anchor="start" x="168.5437" y="-193.8" font-family="Helvetica,sans-Serif" font-size="11.00" fill="#000000">[table]</text>
<polygon fill="none" stroke="#000000" points="10.5,-163.7 10.5,-185.7 111.5,-185.7 111.5,-163.7 10.5,-163.7"/>
<image xlink:href="../../images/primaryKeys.png" width="11px" height="12px" preserveAspectRatio="xMinYMin meet" x="15.5" y="-180.7"/>
<text text-anchor="start" x="30.5" y="-170.8" font-family="Helvetica,sans-Serif" font-size="11.00" fill="#000000">MORPHID</text>
<polygon fill="none" stroke="#000000" points="111.5,-163.7 111.5,-185.7 203.5,-185.7 203.5,-163.7 111.5,-163.7"/>
<text text-anchor="start" x="114.5" y="-171.4" font-family="Helvetica,sans-Serif" font-size="11.00" fill="#000000">smallserial[5]</text>
<polygon fill="#ffffff" stroke="transparent" points="10.5,-141.7 10.5,-163.7 111.5,-163.7 111.5,-141.7 10.5,-141.7"/>
<polygon fill="none" stroke="#000000" points="10.5,-141.7 10.5,-163.7 111.5,-163.7 111.5,-141.7 10.5,-141.7"/>
<text text-anchor="start" x="30.5" y="-148.8" font-family="Helvetica,sans-Serif" font-size="11.00" fill="#000000">MORPH</text>
<polygon fill="none" stroke="#000000" points="111.5,-141.7 111.5,-163.7 203.5,-163.7 203.5,-141.7 111.5,-141.7"/>
<text text-anchor="start" x="114.5" y="-149.4" font-family="Helvetica,sans-Serif" font-size="11.00" fill="#000000">text[2147483647]</text>
<polygon fill="none" stroke="#000000" points="10.5,-119.7 10.5,-141.7 111.5,-141.7 111.5,-119.7 10.5,-119.7"/>
<text text-anchor="start" x="30.5" y="-126.8" font-family="Helvetica,sans-Serif" font-size="11.00" fill="#000000">CREATED_AT</text>
<polygon fill="none" stroke="#000000" points="111.5,-119.7 111.5,-141.7 203.5,-141.7 203.5,-119.7 111.5,-119.7"/>
<text text-anchor="start" x="114.1023" y="-127.4" font-family="Helvetica,sans-Serif" font-size="11.00" fill="#000000">timestamptz[35,6]</text>
<polygon fill="none" stroke="#000000" points="10.5,-97.7 10.5,-119.7 111.5,-119.7 111.5,-97.7 10.5,-97.7"/>
<text text-anchor="start" x="30.5" y="-104.8" font-family="Helvetica,sans-Serif" font-size="11.00" fill="#000000">UPDATED_AT</text>
<polygon fill="none" stroke="#000000" points="111.5,-97.7 111.5,-119.7 203.5,-119.7 203.5,-97.7 111.5,-97.7"/>
<text text-anchor="start" x="114.1023" y="-105.4" font-family="Helvetica,sans-Serif" font-size="11.00" fill="#000000">timestamptz[35,6]</text>
<polygon fill="#ffffff" stroke="transparent" points="10.5,-78.7 10.5,-97.7 49.5,-97.7 49.5,-78.7 10.5,-78.7"/>
<polygon fill="none" stroke="#000000" points="10.5,-78.7 10.5,-97.7 49.5,-97.7 49.5,-78.7 10.5,-78.7"/>
<text text-anchor="start" x="13.5" y="-84.8" font-family="Helvetica,sans-Serif" font-size="11.00" fill="#000000">&lt; 0</text>
<polygon fill="#ffffff" stroke="transparent" points="49.5,-78.7 49.5,-97.7 111.5,-97.7 111.5,-78.7 49.5,-78.7"/>
<polygon fill="none" stroke="#000000" points="49.5,-78.7 49.5,-97.7 111.5,-97.7 111.5,-78.7 49.5,-78.7"/>
<text text-anchor="start" x="69.9956" y="-84.8" font-family="Helvetica,sans-Serif" font-size="11.00" fill="#000000">13 rows</text>
<polygon fill="#ffffff" stroke="transparent" points="111.5,-78.7 111.5,-97.7 203.5,-97.7 203.5,-78.7 111.5,-78.7"/>
<polygon fill="none" stroke="#000000" points="111.5,-78.7 111.5,-97.7 203.5,-97.7 203.5,-78.7 111.5,-78.7"/>
<text text-anchor="start" x="184.9053" y="-84.8" font-family="Helvetica,sans-Serif" font-size="11.00" fill="#000000">1 &gt;</text>
<polygon fill="none" stroke="#000000" stroke-width="2" points="9,-77.7 9,-209.7 204,-209.7 204,-77.7 9,-77.7"/>
</a>
</g>
</g>
<!-- sed_Sample&#45;&gt;sed_morphID -->
<g id="edge1" class="edge">
<title>sed_Sample:w&#45;&gt;sed_morphID:e</title>
<path fill="none" stroke="#000000" d="M239.4203,-174.7C227.5435,-174.7 220.158,-174.7 203.5,-174.7"/>
<polygon fill="#000000" stroke="#000000" points="246,-174.7001 254,-178.3 250,-174.7 254,-174.7 254,-174.7 254,-174.7 250,-174.7 254,-171.1 246,-174.7001 246,-174.7001"/>
<ellipse fill="none" stroke="#000000" cx="242.8" cy="-174.7001" rx="3.2" ry="3.2"/>
</g>
</g>
</svg>
