<?xml version="1.0" encoding="UTF-8" standalone="no"?>
<!DOCTYPE svg PUBLIC "-//W3C//DTD SVG 1.1//EN"
 "http://www.w3.org/Graphics/SVG/1.1/DTD/svg11.dtd">
<!-- Generated by graphviz version 2.40.1 (20161225.0304)
 -->
<!-- Title: twoDegreesRelationshipsDiagram Pages: 1 -->
<svg width="569pt" height="841pt"
 viewBox="0.00 0.00 569.00 841.20" xmlns="http://www.w3.org/2000/svg" xmlns:xlink="http://www.w3.org/1999/xlink">
<g id="graph0" class="graph" transform="scale(1 1) rotate(0) translate(4 837.2)">
<title>twoDegreesRelationshipsDiagram</title>
<polygon fill="#ffffff" stroke="transparent" points="-4,4 -4,-837.2 565,-837.2 565,4 -4,4"/>
<text text-anchor="middle" x="72.4936" y="-7.3" font-family="Helvetica,sans-Serif" font-size="11.00" fill="#000000">Generated by SchemaSpy</text>
<!-- sed&#45;osl_DataCore -->
<g id="node1" class="node">
<title>sed&#45;osl_DataCore</title>
<g id="a_node1"><a xlink:href="../../tables/sed-osl_DataCore.html" xlink:title="sed&#45;osl_DataCore" target="_top">
<polygon fill="#ffffff" stroke="transparent" points="412,-591.2 412,-652.2 553,-652.2 553,-591.2 412,-591.2"/>
<polygon fill="#f5f5f5" stroke="transparent" points="412.5,-628.7 412.5,-651.7 553.5,-651.7 553.5,-628.7 412.5,-628.7"/>
<polygon fill="none" stroke="#000000" points="412.5,-628.7 412.5,-651.7 553.5,-651.7 553.5,-628.7 412.5,-628.7"/>
<text text-anchor="start" x="417.5" y="-637.3" font-family="Helvetica,sans-Serif" font-weight="bold" font-size="11.00" fill="#000000">sed&#45;osl_DataCore</text>
<text text-anchor="start" x="519.0219" y="-636.8" font-family="Helvetica,sans-Serif" font-size="11.00" fill="#000000">[table]</text>
<polygon fill="none" stroke="#000000" points="412.5,-609.7 412.5,-628.7 553.5,-628.7 553.5,-609.7 412.5,-609.7"/>
<text text-anchor="start" x="415.5" y="-615.8" font-family="Helvetica,sans-Serif" font-size="11.00" fill="#000000">...</text>
<polygon fill="#ffffff" stroke="transparent" points="412.5,-590.7 412.5,-609.7 456.5,-609.7 456.5,-590.7 412.5,-590.7"/>
<polygon fill="none" stroke="#000000" points="412.5,-590.7 412.5,-609.7 456.5,-609.7 456.5,-590.7 412.5,-590.7"/>
<text text-anchor="start" x="415.5" y="-596.8" font-family="Helvetica,sans-Serif" font-size="11.00" fill="#000000">&lt; 20</text>
<polygon fill="#ffffff" stroke="transparent" points="456.5,-590.7 456.5,-609.7 523.5,-609.7 523.5,-590.7 456.5,-590.7"/>
<polygon fill="none" stroke="#000000" points="456.5,-590.7 456.5,-609.7 523.5,-609.7 523.5,-590.7 456.5,-590.7"/>
<text text-anchor="start" x="466.7089" y="-596.8" font-family="Helvetica,sans-Serif" font-size="11.00" fill="#000000">2.458 rows</text>
<polygon fill="#ffffff" stroke="transparent" points="523.5,-590.7 523.5,-609.7 553.5,-609.7 553.5,-590.7 523.5,-590.7"/>
<polygon fill="none" stroke="#000000" points="523.5,-590.7 523.5,-609.7 553.5,-609.7 553.5,-590.7 523.5,-590.7"/>
<text text-anchor="start" x="534.9053" y="-596.8" font-family="Helvetica,sans-Serif" font-size="11.00" fill="#000000">1 &gt;</text>
</a>
</g>
</g>
<!-- sed_Sample -->
<g id="node2" class="node">
<title>sed_Sample</title>
<g id="a_node2"><a xlink:href="../../tables/sed_Sample.html" xlink:title="sed_Sample" target="_top">
<polygon fill="#ffffff" stroke="transparent" points="254,-331.2 254,-612.2 363,-612.2 363,-331.2 254,-331.2"/>
<polygon fill="#f5f5f5" stroke="transparent" points="254.5,-588.7 254.5,-611.7 363.5,-611.7 363.5,-588.7 254.5,-588.7"/>
<polygon fill="none" stroke="#000000" points="254.5,-588.7 254.5,-611.7 363.5,-611.7 363.5,-588.7 254.5,-588.7"/>
<text text-anchor="start" x="259.5" y="-597.3" font-family="Helvetica,sans-Serif" font-weight="bold" font-size="11.00" fill="#000000">sed_Sample</text>
<text text-anchor="start" x="329.0219" y="-596.8" font-family="Helvetica,sans-Serif" font-size="11.00" fill="#000000">[table]</text>
<polygon fill="none" stroke="#000000" points="254.5,-566.7 254.5,-588.7 363.5,-588.7 363.5,-566.7 254.5,-566.7"/>
<image xlink:href="../../images/primaryKeys.png" width="11px" height="12px" preserveAspectRatio="xMinYMin meet" x="259.5" y="-583.7"/>
<text text-anchor="start" x="278.5" y="-573.8" font-family="Helvetica,sans-Serif" font-size="11.00" fill="#000000">SMPID</text>
<polygon fill="none" stroke="#000000" points="254.5,-544.7 254.5,-566.7 363.5,-566.7 363.5,-544.7 254.5,-544.7"/>
<image xlink:href="../../images/foreignKeys.png" width="11px" height="12px" preserveAspectRatio="xMinYMin meet" x="259.5" y="-561.7"/>
<text text-anchor="start" x="278.5" y="-551.8" font-family="Helvetica,sans-Serif" font-size="11.00" fill="#000000">SITEID</text>
<polygon fill="none" stroke="#000000" points="254.5,-522.7 254.5,-544.7 363.5,-544.7 363.5,-522.7 254.5,-522.7"/>
<image xlink:href="../../images/foreignKeys.png" width="11px" height="12px" preserveAspectRatio="xMinYMin meet" x="259.5" y="-539.7"/>
<text text-anchor="start" x="278.5" y="-529.8" font-family="Helvetica,sans-Serif" font-size="11.00" fill="#000000">GEOTYPEID</text>
<polygon fill="none" stroke="#000000" points="254.5,-500.7 254.5,-522.7 363.5,-522.7 363.5,-500.7 254.5,-500.7"/>
<image xlink:href="../../images/foreignKeys.png" width="11px" height="12px" preserveAspectRatio="xMinYMin meet" x="259.5" y="-517.7"/>
<text text-anchor="start" x="278.5" y="-507.8" font-family="Helvetica,sans-Serif" font-size="11.00" fill="#000000">DEPCONID</text>
<polygon fill="none" stroke="#000000" points="254.5,-478.7 254.5,-500.7 363.5,-500.7 363.5,-478.7 254.5,-478.7"/>
<image xlink:href="../../images/foreignKeys.png" width="11px" height="12px" preserveAspectRatio="xMinYMin meet" x="259.5" y="-495.7"/>
<text text-anchor="start" x="278.5" y="-485.8" font-family="Helvetica,sans-Serif" font-size="11.00" fill="#000000">GEOMMODID</text>
<polygon fill="none" stroke="#000000" points="254.5,-456.7 254.5,-478.7 363.5,-478.7 363.5,-456.7 254.5,-456.7"/>
<image xlink:href="../../images/foreignKeys.png" width="11px" height="12px" preserveAspectRatio="xMinYMin meet" x="259.5" y="-473.7"/>
<text text-anchor="start" x="278.5" y="-463.8" font-family="Helvetica,sans-Serif" font-size="11.00" fill="#000000">MORPHID</text>
<polygon fill="none" stroke="#000000" points="254.5,-434.7 254.5,-456.7 363.5,-456.7 363.5,-434.7 254.5,-434.7"/>
<image xlink:href="../../images/foreignKeys.png" width="11px" height="12px" preserveAspectRatio="xMinYMin meet" x="259.5" y="-451.7"/>
<text text-anchor="start" x="278.5" y="-441.8" font-family="Helvetica,sans-Serif" font-size="11.00" fill="#000000">SITETYPEID</text>
<polygon fill="none" stroke="#000000" points="254.5,-412.7 254.5,-434.7 363.5,-434.7 363.5,-412.7 254.5,-412.7"/>
<image xlink:href="../../images/foreignKeys.png" width="11px" height="12px" preserveAspectRatio="xMinYMin meet" x="259.5" y="-429.7"/>
<text text-anchor="start" x="278.5" y="-419.8" font-family="Helvetica,sans-Serif" font-size="11.00" fill="#000000">SED_MATID</text>
<polygon fill="none" stroke="#000000" points="254.5,-390.7 254.5,-412.7 363.5,-412.7 363.5,-390.7 254.5,-390.7"/>
<image xlink:href="../../images/foreignKeys.png" width="11px" height="12px" preserveAspectRatio="xMinYMin meet" x="259.5" y="-407.7"/>
<text text-anchor="start" x="278.5" y="-397.8" font-family="Helvetica,sans-Serif" font-size="11.00" fill="#000000">FACIESID</text>
<polygon fill="none" stroke="#000000" points="254.5,-368.7 254.5,-390.7 363.5,-390.7 363.5,-368.7 254.5,-368.7"/>
<image xlink:href="../../images/foreignKeys.png" width="11px" height="12px" preserveAspectRatio="xMinYMin meet" x="259.5" y="-385.7"/>
<text text-anchor="start" x="278.5" y="-375.8" font-family="Helvetica,sans-Serif" font-size="11.00" fill="#000000">LAKETYPEID</text>
<polygon fill="none" stroke="#000000" points="254.5,-349.7 254.5,-368.7 363.5,-368.7 363.5,-349.7 254.5,-349.7"/>
<text text-anchor="start" x="257.5" y="-355.8" font-family="Helvetica,sans-Serif" font-size="11.00" fill="#000000">...</text>
<polygon fill="#ffffff" stroke="transparent" points="254.5,-330.7 254.5,-349.7 279.5,-349.7 279.5,-330.7 254.5,-330.7"/>
<polygon fill="none" stroke="#000000" points="254.5,-330.7 254.5,-349.7 279.5,-349.7 279.5,-330.7 254.5,-330.7"/>
<text text-anchor="start" x="257.5" y="-336.8" font-family="Helvetica,sans-Serif" font-size="11.00" fill="#000000">&lt; 9</text>
<polygon fill="#ffffff" stroke="transparent" points="279.5,-330.7 279.5,-349.7 340.5,-349.7 340.5,-330.7 279.5,-330.7"/>
<polygon fill="none" stroke="#000000" points="279.5,-330.7 279.5,-349.7 340.5,-349.7 340.5,-330.7 279.5,-330.7"/>
<text text-anchor="start" x="283.7089" y="-336.8" font-family="Helvetica,sans-Serif" font-size="11.00" fill="#000000">3.181 rows</text>
<polygon fill="#ffffff" stroke="transparent" points="340.5,-330.7 340.5,-349.7 363.5,-349.7 363.5,-330.7 340.5,-330.7"/>
<polygon fill="none" stroke="#000000" points="340.5,-330.7 340.5,-349.7 363.5,-349.7 363.5,-330.7 340.5,-330.7"/>
<text text-anchor="start" x="344.9053" y="-336.8" font-family="Helvetica,sans-Serif" font-size="11.00" fill="#000000">2 &gt;</text>
</a>
</g>
</g>
<!-- sed&#45;osl_DataCore&#45;&gt;sed_Sample -->
<g id="edge1" class="edge">
<title>sed&#45;osl_DataCore:w&#45;&gt;sed_Sample:e</title>
<path fill="none" stroke="#000000" d="M398.6819,-613.9968C385.7811,-603.2274 385.9061,-577.7 363.5,-577.7"/>
<polygon fill="#000000" stroke="#000000" points="404.9267,-616.1222 411.34,-622.108 408.7133,-617.4111 412.5,-618.7 412.5,-618.7 412.5,-618.7 408.7133,-617.4111 413.66,-615.292 404.9267,-616.1222 404.9267,-616.1222"/>
<ellipse fill="none" stroke="#000000" cx="401.8973" cy="-615.0911" rx="3.2" ry="3.2"/>
</g>
<!-- sed_depconID -->
<g id="node4" class="node">
<title>sed_depconID</title>
<g id="a_node4"><a xlink:href="../../tables/sed_depconID.html" xlink:title="sed_depconID" target="_top">
<polygon fill="#ffffff" stroke="transparent" points="46,-604.2 46,-665.2 167,-665.2 167,-604.2 46,-604.2"/>
<polygon fill="#f5f5f5" stroke="transparent" points="46.5,-641.7 46.5,-664.7 167.5,-664.7 167.5,-641.7 46.5,-641.7"/>
<polygon fill="none" stroke="#000000" points="46.5,-641.7 46.5,-664.7 167.5,-664.7 167.5,-641.7 46.5,-641.7"/>
<text text-anchor="start" x="51.5" y="-650.3" font-family="Helvetica,sans-Serif" font-weight="bold" font-size="11.00" fill="#000000">sed_depconID</text>
<text text-anchor="start" x="133.0219" y="-649.8" font-family="Helvetica,sans-Serif" font-size="11.00" fill="#000000">[table]</text>
<polygon fill="none" stroke="#000000" points="46.5,-622.7 46.5,-641.7 167.5,-641.7 167.5,-622.7 46.5,-622.7"/>
<text text-anchor="start" x="49.5" y="-628.8" font-family="Helvetica,sans-Serif" font-size="11.00" fill="#000000">...</text>
<polygon fill="#ffffff" stroke="transparent" points="46.5,-603.7 46.5,-622.7 83.5,-622.7 83.5,-603.7 46.5,-603.7"/>
<polygon fill="none" stroke="#000000" points="46.5,-603.7 46.5,-622.7 83.5,-622.7 83.5,-603.7 46.5,-603.7"/>
<text text-anchor="start" x="49.5" y="-609.8" font-family="Helvetica,sans-Serif" font-size="11.00" fill="#000000"> &#160;</text>
<polygon fill="#ffffff" stroke="transparent" points="83.5,-603.7 83.5,-622.7 133.5,-622.7 133.5,-603.7 83.5,-603.7"/>
<polygon fill="none" stroke="#000000" points="83.5,-603.7 83.5,-622.7 133.5,-622.7 133.5,-603.7 83.5,-603.7"/>
<text text-anchor="start" x="98.1105" y="-609.8" font-family="Helvetica,sans-Serif" font-size="11.00" fill="#000000">6 rows</text>
<polygon fill="#ffffff" stroke="transparent" points="133.5,-603.7 133.5,-622.7 167.5,-622.7 167.5,-603.7 133.5,-603.7"/>
<polygon fill="none" stroke="#000000" points="133.5,-603.7 133.5,-622.7 167.5,-622.7 167.5,-603.7 133.5,-603.7"/>
<text text-anchor="start" x="148.9053" y="-609.8" font-family="Helvetica,sans-Serif" font-size="11.00" fill="#000000">1 &gt;</text>
</a>
</g>
</g>
<!-- sed_Sample&#45;&gt;sed_depconID -->
<g id="edge3" class="edge">
<title>sed_Sample:w&#45;&gt;sed_depconID:e</title>
<path fill="none" stroke="#000000" d="M240.2691,-514.7842C219.9008,-526.1543 234.6473,-566.4742 213,-593.7 196.6028,-614.3229 193.8472,-631.7 167.5,-631.7"/>
<polygon fill="#000000" stroke="#000000" points="246.6815,-513.3945 255.2625,-515.2183 250.5908,-512.5473 254.5,-511.7 254.5,-511.7 254.5,-511.7 250.5908,-512.5473 253.7375,-508.1817 246.6815,-513.3945 246.6815,-513.3945"/>
<ellipse fill="none" stroke="#000000" cx="243.5541" cy="-514.0723" rx="3.2" ry="3.2"/>
</g>
<!-- sed_faciesID -->
<g id="node5" class="node">
<title>sed_faciesID</title>
<g id="a_node5"><a xlink:href="../../tables/sed_faciesID.html" xlink:title="sed_faciesID" target="_top">
<polygon fill="#ffffff" stroke="transparent" points="8,-120.7 8,-254.7 205,-254.7 205,-120.7 8,-120.7"/>
<polygon fill="#f5f5f5" stroke="transparent" points="10.5,-229.7 10.5,-252.7 203.5,-252.7 203.5,-229.7 10.5,-229.7"/>
<polygon fill="none" stroke="#000000" points="10.5,-229.7 10.5,-252.7 203.5,-252.7 203.5,-229.7 10.5,-229.7"/>
<text text-anchor="start" x="15.5" y="-238.3" font-family="Helvetica,sans-Serif" font-weight="bold" font-size="11.00" fill="#000000">sed_faciesID</text>
<text text-anchor="start" x="168.5437" y="-237.8" font-family="Helvetica,sans-Serif" font-size="11.00" fill="#000000">[table]</text>
<polygon fill="none" stroke="#000000" points="10.5,-207.7 10.5,-229.7 111.5,-229.7 111.5,-207.7 10.5,-207.7"/>
<image xlink:href="../../images/primaryKeys.png" width="11px" height="12px" preserveAspectRatio="xMinYMin meet" x="15.5" y="-224.7"/>
<text text-anchor="start" x="30.5" y="-214.8" font-family="Helvetica,sans-Serif" font-size="11.00" fill="#000000">FACIESID</text>
<polygon fill="none" stroke="#000000" points="111.5,-207.7 111.5,-229.7 203.5,-229.7 203.5,-207.7 111.5,-207.7"/>
<text text-anchor="start" x="114.5" y="-215.4" font-family="Helvetica,sans-Serif" font-size="11.00" fill="#000000">smallserial[5]</text>
<polygon fill="#ffffff" stroke="transparent" points="10.5,-185.7 10.5,-207.7 111.5,-207.7 111.5,-185.7 10.5,-185.7"/>
<polygon fill="none" stroke="#000000" points="10.5,-185.7 10.5,-207.7 111.5,-207.7 111.5,-185.7 10.5,-185.7"/>
<text text-anchor="start" x="30.5" y="-192.8" font-family="Helvetica,sans-Serif" font-size="11.00" fill="#000000">FACIES</text>
<polygon fill="none" stroke="#000000" points="111.5,-185.7 111.5,-207.7 203.5,-207.7 203.5,-185.7 111.5,-185.7"/>
<text text-anchor="start" x="114.5" y="-193.4" font-family="Helvetica,sans-Serif" font-size="11.00" fill="#000000">text[2147483647]</text>
<polygon fill="none" stroke="#000000" points="10.5,-163.7 10.5,-185.7 111.5,-185.7 111.5,-163.7 10.5,-163.7"/>
<text text-anchor="start" x="30.5" y="-170.8" font-family="Helvetica,sans-Serif" font-size="11.00" fill="#000000">CREATED_AT</text>
<polygon fill="none" stroke="#000000" points="111.5,-163.7 111.5,-185.7 203.5,-185.7 203.5,-163.7 111.5,-163.7"/>
<text text-anchor="start" x="114.1023" y="-171.4" font-family="Helvetica,sans-Serif" font-size="11.00" fill="#000000">timestamptz[35,6]</text>
<polygon fill="none" stroke="#000000" points="10.5,-141.7 10.5,-163.7 111.5,-163.7 111.5,-141.7 10.5,-141.7"/>
<text text-anchor="start" x="30.5" y="-148.8" font-family="Helvetica,sans-Serif" font-size="11.00" fill="#000000">UPDATED_AT</text>
<polygon fill="none" stroke="#000000" points="111.5,-141.7 111.5,-163.7 203.5,-163.7 203.5,-141.7 111.5,-141.7"/>
<text text-anchor="start" x="114.1023" y="-149.4" font-family="Helvetica,sans-Serif" font-size="11.00" fill="#000000">timestamptz[35,6]</text>
<polygon fill="#ffffff" stroke="transparent" points="10.5,-122.7 10.5,-141.7 49.5,-141.7 49.5,-122.7 10.5,-122.7"/>
<polygon fill="none" stroke="#000000" points="10.5,-122.7 10.5,-141.7 49.5,-141.7 49.5,-122.7 10.5,-122.7"/>
<text text-anchor="start" x="13.5" y="-128.8" font-family="Helvetica,sans-Serif" font-size="11.00" fill="#000000">&lt; 0</text>
<polygon fill="#ffffff" stroke="transparent" points="49.5,-122.7 49.5,-141.7 111.5,-141.7 111.5,-122.7 49.5,-122.7"/>
<polygon fill="none" stroke="#000000" points="49.5,-122.7 49.5,-141.7 111.5,-141.7 111.5,-122.7 49.5,-122.7"/>
<text text-anchor="start" x="69.9956" y="-128.8" font-family="Helvetica,sans-Serif" font-size="11.00" fill="#000000">10 rows</text>
<polygon fill="#ffffff" stroke="transparent" points="111.5,-122.7 111.5,-141.7 203.5,-141.7 203.5,-122.7 111.5,-122.7"/>
<polygon fill="none" stroke="#000000" points="111.5,-122.7 111.5,-141.7 203.5,-141.7 203.5,-122.7 111.5,-122.7"/>
<text text-anchor="start" x="184.9053" y="-128.8" font-family="Helvetica,sans-Serif" font-size="11.00" fill="#000000">1 &gt;</text>
<polygon fill="none" stroke="#000000" stroke-width="2" points="9,-121.7 9,-253.7 204,-253.7 204,-121.7 9,-121.7"/>
</a>
</g>
</g>
<!-- sed_Sample&#45;&gt;sed_faciesID -->
<g id="edge4" class="edge">
<title>sed_Sample:w&#45;&gt;sed_faciesID:e</title>
<path fill="none" stroke="#000000" d="M240.2372,-399.3862C184.8292,-378.2023 282.3259,-218.7 203.5,-218.7"/>
<polygon fill="#000000" stroke="#000000" points="246.6032,-400.4189 253.9235,-405.2535 250.5516,-401.0594 254.5,-401.7 254.5,-401.7 254.5,-401.7 250.5516,-401.0594 255.0765,-398.1465 246.6032,-400.4189 246.6032,-400.4189"/>
<ellipse fill="none" stroke="#000000" cx="243.4445" cy="-399.9064" rx="3.2" ry="3.2"/>
</g>
<!-- sed_geommodID -->
<g id="node6" class="node">
<title>sed_geommodID</title>
<g id="a_node6"><a xlink:href="../../tables/sed_geommodID.html" xlink:title="sed_geommodID" target="_top">
<polygon fill="#ffffff" stroke="transparent" points="39,-522.2 39,-583.2 174,-583.2 174,-522.2 39,-522.2"/>
<polygon fill="#f5f5f5" stroke="transparent" points="39.5,-559.7 39.5,-582.7 174.5,-582.7 174.5,-559.7 39.5,-559.7"/>
<polygon fill="none" stroke="#000000" points="39.5,-559.7 39.5,-582.7 174.5,-582.7 174.5,-559.7 39.5,-559.7"/>
<text text-anchor="start" x="44.5" y="-568.3" font-family="Helvetica,sans-Serif" font-weight="bold" font-size="11.00" fill="#000000">sed_geommodID</text>
<text text-anchor="start" x="140.0219" y="-567.8" font-family="Helvetica,sans-Serif" font-size="11.00" fill="#000000">[table]</text>
<polygon fill="none" stroke="#000000" points="39.5,-540.7 39.5,-559.7 174.5,-559.7 174.5,-540.7 39.5,-540.7"/>
<text text-anchor="start" x="42.5" y="-546.8" font-family="Helvetica,sans-Serif" font-size="11.00" fill="#000000">...</text>
<polygon fill="#ffffff" stroke="transparent" points="39.5,-521.7 39.5,-540.7 83.5,-540.7 83.5,-521.7 39.5,-521.7"/>
<polygon fill="none" stroke="#000000" points="39.5,-521.7 39.5,-540.7 83.5,-540.7 83.5,-521.7 39.5,-521.7"/>
<text text-anchor="start" x="42.5" y="-527.8" font-family="Helvetica,sans-Serif" font-size="11.00" fill="#000000"> &#160;</text>
<polygon fill="#ffffff" stroke="transparent" points="83.5,-521.7 83.5,-540.7 137.5,-540.7 137.5,-521.7 83.5,-521.7"/>
<polygon fill="none" stroke="#000000" points="83.5,-521.7 83.5,-540.7 137.5,-540.7 137.5,-521.7 83.5,-521.7"/>
<text text-anchor="start" x="102.1105" y="-527.8" font-family="Helvetica,sans-Serif" font-size="11.00" fill="#000000">8 rows</text>
<polygon fill="#ffffff" stroke="transparent" points="137.5,-521.7 137.5,-540.7 174.5,-540.7 174.5,-521.7 137.5,-521.7"/>
<polygon fill="none" stroke="#000000" points="137.5,-521.7 137.5,-540.7 174.5,-540.7 174.5,-521.7 137.5,-521.7"/>
<text text-anchor="start" x="155.9053" y="-527.8" font-family="Helvetica,sans-Serif" font-size="11.00" fill="#000000">1 &gt;</text>
</a>
</g>
</g>
<!-- sed_Sample&#45;&gt;sed_geommodID -->
<g id="edge5" class="edge">
<title>sed_Sample:w&#45;&gt;sed_geommodID:e</title>
<path fill="none" stroke="#000000" d="M240.125,-492.2781C211.4444,-503.7625 213.3889,-549.7 174.5,-549.7"/>
<polygon fill="#000000" stroke="#000000" points="246.6256,-491.1123 255.1355,-493.2435 250.5628,-490.4061 254.5,-489.7 254.5,-489.7 254.5,-489.7 250.5628,-490.4061 253.8645,-486.1565 246.6256,-491.1123 246.6256,-491.1123"/>
<ellipse fill="none" stroke="#000000" cx="243.4759" cy="-491.6772" rx="3.2" ry="3.2"/>
</g>
<!-- sed_geotypeID -->
<g id="node7" class="node">
<title>sed_geotypeID</title>
<g id="a_node7"><a xlink:href="../../tables/sed_geotypeID.html" xlink:title="sed_geotypeID" target="_top">
<polygon fill="#ffffff" stroke="transparent" points="44.5,-686.2 44.5,-747.2 168.5,-747.2 168.5,-686.2 44.5,-686.2"/>
<polygon fill="#f5f5f5" stroke="transparent" points="44.5,-723.7 44.5,-746.7 168.5,-746.7 168.5,-723.7 44.5,-723.7"/>
<polygon fill="none" stroke="#000000" points="44.5,-723.7 44.5,-746.7 168.5,-746.7 168.5,-723.7 44.5,-723.7"/>
<text text-anchor="start" x="49.5" y="-732.3" font-family="Helvetica,sans-Serif" font-weight="bold" font-size="11.00" fill="#000000">sed_geotypeID</text>
<text text-anchor="start" x="134.0219" y="-731.8" font-family="Helvetica,sans-Serif" font-size="11.00" fill="#000000">[table]</text>
<polygon fill="none" stroke="#000000" points="44.5,-704.7 44.5,-723.7 168.5,-723.7 168.5,-704.7 44.5,-704.7"/>
<text text-anchor="start" x="47.5" y="-710.8" font-family="Helvetica,sans-Serif" font-size="11.00" fill="#000000">...</text>
<polygon fill="#ffffff" stroke="transparent" points="44.5,-685.7 44.5,-704.7 79.5,-704.7 79.5,-685.7 44.5,-685.7"/>
<polygon fill="none" stroke="#000000" points="44.5,-685.7 44.5,-704.7 79.5,-704.7 79.5,-685.7 44.5,-685.7"/>
<text text-anchor="start" x="47.5" y="-691.8" font-family="Helvetica,sans-Serif" font-size="11.00" fill="#000000"> &#160;</text>
<polygon fill="#ffffff" stroke="transparent" points="79.5,-685.7 79.5,-704.7 135.5,-704.7 135.5,-685.7 79.5,-685.7"/>
<polygon fill="none" stroke="#000000" points="79.5,-685.7 79.5,-704.7 135.5,-704.7 135.5,-685.7 79.5,-685.7"/>
<text text-anchor="start" x="93.9956" y="-691.8" font-family="Helvetica,sans-Serif" font-size="11.00" fill="#000000">16 rows</text>
<polygon fill="#ffffff" stroke="transparent" points="135.5,-685.7 135.5,-704.7 168.5,-704.7 168.5,-685.7 135.5,-685.7"/>
<polygon fill="none" stroke="#000000" points="135.5,-685.7 135.5,-704.7 168.5,-704.7 168.5,-685.7 135.5,-685.7"/>
<text text-anchor="start" x="149.9053" y="-691.8" font-family="Helvetica,sans-Serif" font-size="11.00" fill="#000000">1 &gt;</text>
</a>
</g>
</g>
<!-- sed_Sample&#45;&gt;sed_geotypeID -->
<g id="edge6" class="edge">
<title>sed_Sample:w&#45;&gt;sed_geotypeID:e</title>
<path fill="none" stroke="#000000" d="M240.1933,-535.5478C198.3485,-548.3843 245.6434,-625.2372 213,-675.7 198.8741,-697.537 194.5076,-713.7 168.5,-713.7"/>
<polygon fill="#000000" stroke="#000000" points="246.5659,-534.7248 254.9612,-537.2703 250.533,-534.2124 254.5,-533.7 254.5,-533.7 254.5,-533.7 250.533,-534.2124 254.0388,-530.1297 246.5659,-534.7248 246.5659,-534.7248"/>
<ellipse fill="none" stroke="#000000" cx="243.3923" cy="-535.1347" rx="3.2" ry="3.2"/>
</g>
<!-- sed_laketypeID -->
<g id="node8" class="node">
<title>sed_laketypeID</title>
<g id="a_node8"><a xlink:href="../../tables/sed_laketypeID.html" xlink:title="sed_laketypeID" target="_top">
<polygon fill="#ffffff" stroke="transparent" points="43.5,-38.2 43.5,-99.2 169.5,-99.2 169.5,-38.2 43.5,-38.2"/>
<polygon fill="#f5f5f5" stroke="transparent" points="43.5,-75.7 43.5,-98.7 169.5,-98.7 169.5,-75.7 43.5,-75.7"/>
<polygon fill="none" stroke="#000000" points="43.5,-75.7 43.5,-98.7 169.5,-98.7 169.5,-75.7 43.5,-75.7"/>
<text text-anchor="start" x="48.5" y="-84.3" font-family="Helvetica,sans-Serif" font-weight="bold" font-size="11.00" fill="#000000">sed_laketypeID</text>
<text text-anchor="start" x="135.0219" y="-83.8" font-family="Helvetica,sans-Serif" font-size="11.00" fill="#000000">[table]</text>
<polygon fill="none" stroke="#000000" points="43.5,-56.7 43.5,-75.7 169.5,-75.7 169.5,-56.7 43.5,-56.7"/>
<text text-anchor="start" x="46.5" y="-62.8" font-family="Helvetica,sans-Serif" font-size="11.00" fill="#000000">...</text>
<polygon fill="#ffffff" stroke="transparent" points="43.5,-37.7 43.5,-56.7 84.5,-56.7 84.5,-37.7 43.5,-37.7"/>
<polygon fill="none" stroke="#000000" points="43.5,-37.7 43.5,-56.7 84.5,-56.7 84.5,-37.7 43.5,-37.7"/>
<text text-anchor="start" x="46.5" y="-43.8" font-family="Helvetica,sans-Serif" font-size="11.00" fill="#000000">&lt; 1</text>
<polygon fill="#ffffff" stroke="transparent" points="84.5,-37.7 84.5,-56.7 138.5,-56.7 138.5,-37.7 84.5,-37.7"/>
<polygon fill="none" stroke="#000000" points="84.5,-37.7 84.5,-56.7 138.5,-56.7 138.5,-37.7 84.5,-37.7"/>
<text text-anchor="start" x="96.9956" y="-43.8" font-family="Helvetica,sans-Serif" font-size="11.00" fill="#000000">58 rows</text>
<polygon fill="#ffffff" stroke="transparent" points="138.5,-37.7 138.5,-56.7 169.5,-56.7 169.5,-37.7 138.5,-37.7"/>
<polygon fill="none" stroke="#000000" points="138.5,-37.7 138.5,-56.7 169.5,-56.7 169.5,-37.7 138.5,-37.7"/>
<text text-anchor="start" x="150.9053" y="-43.8" font-family="Helvetica,sans-Serif" font-size="11.00" fill="#000000">2 &gt;</text>
</a>
</g>
</g>
<!-- sed_Sample&#45;&gt;sed_laketypeID -->
<g id="edge7" class="edge">
<title>sed_Sample:w&#45;&gt;sed_laketypeID:e</title>
<path fill="none" stroke="#000000" d="M240.8551,-374.9558C201.3968,-343.0194 237.8831,-159.163 213,-109.7 200.6418,-85.1343 196.999,-65.7 169.5,-65.7"/>
<polygon fill="#000000" stroke="#000000" points="246.9437,-377.0727 253.3177,-383.1003 250.7218,-378.3864 254.5,-379.7 254.5,-379.7 254.5,-379.7 250.7218,-378.3864 255.6823,-376.2997 246.9437,-377.0727 246.9437,-377.0727"/>
<ellipse fill="none" stroke="#000000" cx="243.9212" cy="-376.0218" rx="3.2" ry="3.2"/>
</g>
<!-- sed_morphID -->
<g id="node9" class="node">
<title>sed_morphID</title>
<g id="a_node9"><a xlink:href="../../tables/sed_morphID.html" xlink:title="sed_morphID" target="_top">
<polygon fill="#ffffff" stroke="transparent" points="49,-440.2 49,-501.2 164,-501.2 164,-440.2 49,-440.2"/>
<polygon fill="#f5f5f5" stroke="transparent" points="49.5,-477.7 49.5,-500.7 164.5,-500.7 164.5,-477.7 49.5,-477.7"/>
<polygon fill="none" stroke="#000000" points="49.5,-477.7 49.5,-500.7 164.5,-500.7 164.5,-477.7 49.5,-477.7"/>
<text text-anchor="start" x="54.5" y="-486.3" font-family="Helvetica,sans-Serif" font-weight="bold" font-size="11.00" fill="#000000">sed_morphID</text>
<text text-anchor="start" x="130.0219" y="-485.8" font-family="Helvetica,sans-Serif" font-size="11.00" fill="#000000">[table]</text>
<polygon fill="none" stroke="#000000" points="49.5,-458.7 49.5,-477.7 164.5,-477.7 164.5,-458.7 49.5,-458.7"/>
<text text-anchor="start" x="52.5" y="-464.8" font-family="Helvetica,sans-Serif" font-size="11.00" fill="#000000">...</text>
<polygon fill="#ffffff" stroke="transparent" points="49.5,-439.7 49.5,-458.7 80.5,-458.7 80.5,-439.7 49.5,-439.7"/>
<polygon fill="none" stroke="#000000" points="49.5,-439.7 49.5,-458.7 80.5,-458.7 80.5,-439.7 49.5,-439.7"/>
<text text-anchor="start" x="52.5" y="-445.8" font-family="Helvetica,sans-Serif" font-size="11.00" fill="#000000"> &#160;</text>
<polygon fill="#ffffff" stroke="transparent" points="80.5,-439.7 80.5,-458.7 133.5,-458.7 133.5,-439.7 80.5,-439.7"/>
<polygon fill="none" stroke="#000000" points="80.5,-439.7 80.5,-458.7 133.5,-458.7 133.5,-439.7 80.5,-439.7"/>
<text text-anchor="start" x="91.9956" y="-445.8" font-family="Helvetica,sans-Serif" font-size="11.00" fill="#000000">13 rows</text>
<polygon fill="#ffffff" stroke="transparent" points="133.5,-439.7 133.5,-458.7 164.5,-458.7 164.5,-439.7 133.5,-439.7"/>
<polygon fill="none" stroke="#000000" points="133.5,-439.7 133.5,-458.7 164.5,-458.7 164.5,-439.7 133.5,-439.7"/>
<text text-anchor="start" x="145.9053" y="-445.8" font-family="Helvetica,sans-Serif" font-size="11.00" fill="#000000">1 &gt;</text>
</a>
</g>
</g>
<!-- sed_Sample&#45;&gt;sed_morphID -->
<g id="edge8" class="edge">
<title>sed_Sample:w&#45;&gt;sed_morphID:e</title>
<path fill="none" stroke="#000000" d="M240.0095,-467.7C211.3146,-467.7 199.1875,-467.7 164.5,-467.7"/>
<polygon fill="#000000" stroke="#000000" points="246.5,-467.7001 254.5,-471.3 250.5,-467.7 254.5,-467.7 254.5,-467.7 254.5,-467.7 250.5,-467.7 254.5,-464.1 246.5,-467.7001 246.5,-467.7001"/>
<ellipse fill="none" stroke="#000000" cx="243.3" cy="-467.7001" rx="3.2" ry="3.2"/>
</g>
<!-- global_GrainSize -->
<g id="node10" class="node">
<title>global_GrainSize</title>
<g id="a_node10"><a xlink:href="../../tables/global_GrainSize.html" xlink:title="global_GrainSize" target="_top">
<polygon fill="#ffffff" stroke="transparent" points="38.5,-276.2 38.5,-337.2 174.5,-337.2 174.5,-276.2 38.5,-276.2"/>
<polygon fill="#f5f5f5" stroke="transparent" points="38.5,-313.7 38.5,-336.7 174.5,-336.7 174.5,-313.7 38.5,-313.7"/>
<polygon fill="none" stroke="#000000" points="38.5,-313.7 38.5,-336.7 174.5,-336.7 174.5,-313.7 38.5,-313.7"/>
<text text-anchor="start" x="43.5" y="-322.3" font-family="Helvetica,sans-Serif" font-weight="bold" font-size="11.00" fill="#000000">global_GrainSize</text>
<text text-anchor="start" x="140.0219" y="-321.8" font-family="Helvetica,sans-Serif" font-size="11.00" fill="#000000">[table]</text>
<polygon fill="none" stroke="#000000" points="38.5,-294.7 38.5,-313.7 174.5,-313.7 174.5,-294.7 38.5,-294.7"/>
<text text-anchor="start" x="41.5" y="-300.8" font-family="Helvetica,sans-Serif" font-size="11.00" fill="#000000">...</text>
<polygon fill="#ffffff" stroke="transparent" points="38.5,-275.7 38.5,-294.7 79.5,-294.7 79.5,-275.7 38.5,-275.7"/>
<polygon fill="none" stroke="#000000" points="38.5,-275.7 38.5,-294.7 79.5,-294.7 79.5,-275.7 38.5,-275.7"/>
<text text-anchor="start" x="41.5" y="-281.8" font-family="Helvetica,sans-Serif" font-size="11.00" fill="#000000"> &#160;</text>
<polygon fill="#ffffff" stroke="transparent" points="79.5,-275.7 79.5,-294.7 138.5,-294.7 138.5,-275.7 79.5,-275.7"/>
<polygon fill="none" stroke="#000000" points="79.5,-275.7 79.5,-294.7 138.5,-294.7 138.5,-275.7 79.5,-275.7"/>
<text text-anchor="start" x="96.9956" y="-281.8" font-family="Helvetica,sans-Serif" font-size="11.00" fill="#000000">29 rows</text>
<polygon fill="#ffffff" stroke="transparent" points="138.5,-275.7 138.5,-294.7 174.5,-294.7 174.5,-275.7 138.5,-275.7"/>
<polygon fill="none" stroke="#000000" points="138.5,-275.7 138.5,-294.7 174.5,-294.7 174.5,-275.7 138.5,-275.7"/>
<text text-anchor="start" x="155.9053" y="-281.8" font-family="Helvetica,sans-Serif" font-size="11.00" fill="#000000">3 &gt;</text>
</a>
</g>
</g>
<!-- sed_Sample&#45;&gt;global_GrainSize -->
<g id="edge9" class="edge">
<title>sed_Sample:w&#45;&gt;global_GrainSize:e</title>
<path fill="none" stroke="#000000" d="M240.2952,-420.6638C220.9536,-410.1268 231.5841,-374.3284 213,-347.7 198.1287,-326.3915 200.4848,-303.7 174.5,-303.7"/>
<polygon fill="#000000" stroke="#000000" points="246.6767,-422.0277 253.7475,-427.2205 250.5884,-422.8639 254.5,-423.7 254.5,-423.7 254.5,-423.7 250.5884,-422.8639 255.2525,-420.1795 246.6767,-422.0277 246.6767,-422.0277"/>
<ellipse fill="none" stroke="#000000" cx="243.5474" cy="-421.3588" rx="3.2" ry="3.2"/>
</g>
<!-- global_SiteMaster -->
<g id="node11" class="node">
<title>global_SiteMaster</title>
<g id="a_node11"><a xlink:href="../../tables/global_SiteMaster.html" xlink:title="global_SiteMaster" target="_top">
<polygon fill="#ffffff" stroke="transparent" points="36,-768.2 36,-829.2 177,-829.2 177,-768.2 36,-768.2"/>
<polygon fill="#f5f5f5" stroke="transparent" points="36.5,-805.7 36.5,-828.7 177.5,-828.7 177.5,-805.7 36.5,-805.7"/>
<polygon fill="none" stroke="#000000" points="36.5,-805.7 36.5,-828.7 177.5,-828.7 177.5,-805.7 36.5,-805.7"/>
<text text-anchor="start" x="41.5" y="-814.3" font-family="Helvetica,sans-Serif" font-weight="bold" font-size="11.00" fill="#000000">global_SiteMaster</text>
<text text-anchor="start" x="143.0219" y="-813.8" font-family="Helvetica,sans-Serif" font-size="11.00" fill="#000000">[table]</text>
<polygon fill="none" stroke="#000000" points="36.5,-786.7 36.5,-805.7 177.5,-805.7 177.5,-786.7 36.5,-786.7"/>
<text text-anchor="start" x="39.5" y="-792.8" font-family="Helvetica,sans-Serif" font-size="11.00" fill="#000000">...</text>
<polygon fill="#ffffff" stroke="transparent" points="36.5,-767.7 36.5,-786.7 74.5,-786.7 74.5,-767.7 36.5,-767.7"/>
<polygon fill="none" stroke="#000000" points="36.5,-767.7 36.5,-786.7 74.5,-786.7 74.5,-767.7 36.5,-767.7"/>
<text text-anchor="start" x="39.5" y="-773.8" font-family="Helvetica,sans-Serif" font-size="11.00" fill="#000000">&lt; 8</text>
<polygon fill="#ffffff" stroke="transparent" points="74.5,-767.7 74.5,-786.7 147.5,-786.7 147.5,-767.7 74.5,-767.7"/>
<polygon fill="none" stroke="#000000" points="74.5,-767.7 74.5,-786.7 147.5,-786.7 147.5,-767.7 74.5,-767.7"/>
<text text-anchor="start" x="84.594" y="-773.8" font-family="Helvetica,sans-Serif" font-size="11.00" fill="#000000">23.734 rows</text>
<polygon fill="#ffffff" stroke="transparent" points="147.5,-767.7 147.5,-786.7 177.5,-786.7 177.5,-767.7 147.5,-767.7"/>
<polygon fill="none" stroke="#000000" points="147.5,-767.7 147.5,-786.7 177.5,-786.7 177.5,-767.7 147.5,-767.7"/>
<text text-anchor="start" x="158.9053" y="-773.8" font-family="Helvetica,sans-Serif" font-size="11.00" fill="#000000">5 &gt;</text>
</a>
</g>
</g>
<!-- sed_Sample&#45;&gt;global_SiteMaster -->
<g id="edge10" class="edge">
<title>sed_Sample:w&#45;&gt;global_SiteMaster:e</title>
<path fill="none" stroke="#000000" d="M241.133,-561.8913C213.9816,-591.8463 231.5745,-721.7599 213,-757.7 202.3886,-778.2322 200.6122,-795.7 177.5,-795.7"/>
<polygon fill="#000000" stroke="#000000" points="247.2408,-559.0623 256.013,-558.9666 250.8704,-557.3811 254.5,-555.7 254.5,-555.7 254.5,-555.7 250.8704,-557.3811 252.987,-552.4334 247.2408,-559.0623 247.2408,-559.0623"/>
<ellipse fill="none" stroke="#000000" cx="244.3372" cy="-560.4072" rx="3.2" ry="3.2"/>
</g>
<!-- sed_sitetypeID -->
<g id="node12" class="node">
<title>sed_sitetypeID</title>
<g id="a_node12"><a xlink:href="../../tables/sed_sitetypeID.html" xlink:title="sed_sitetypeID" target="_top">
<polygon fill="#ffffff" stroke="transparent" points="45,-358.2 45,-419.2 168,-419.2 168,-358.2 45,-358.2"/>
<polygon fill="#f5f5f5" stroke="transparent" points="45.5,-395.7 45.5,-418.7 168.5,-418.7 168.5,-395.7 45.5,-395.7"/>
<polygon fill="none" stroke="#000000" points="45.5,-395.7 45.5,-418.7 168.5,-418.7 168.5,-395.7 45.5,-395.7"/>
<text text-anchor="start" x="50.5" y="-404.3" font-family="Helvetica,sans-Serif" font-weight="bold" font-size="11.00" fill="#000000">sed_sitetypeID</text>
<text text-anchor="start" x="134.0219" y="-403.8" font-family="Helvetica,sans-Serif" font-size="11.00" fill="#000000">[table]</text>
<polygon fill="none" stroke="#000000" points="45.5,-376.7 45.5,-395.7 168.5,-395.7 168.5,-376.7 45.5,-376.7"/>
<text text-anchor="start" x="48.5" y="-382.8" font-family="Helvetica,sans-Serif" font-size="11.00" fill="#000000">...</text>
<polygon fill="#ffffff" stroke="transparent" points="45.5,-357.7 45.5,-376.7 83.5,-376.7 83.5,-357.7 45.5,-357.7"/>
<polygon fill="none" stroke="#000000" points="45.5,-357.7 45.5,-376.7 83.5,-376.7 83.5,-357.7 45.5,-357.7"/>
<text text-anchor="start" x="48.5" y="-363.8" font-family="Helvetica,sans-Serif" font-size="11.00" fill="#000000"> &#160;</text>
<polygon fill="#ffffff" stroke="transparent" points="83.5,-357.7 83.5,-376.7 134.5,-376.7 134.5,-357.7 83.5,-357.7"/>
<polygon fill="none" stroke="#000000" points="83.5,-357.7 83.5,-376.7 134.5,-376.7 134.5,-357.7 83.5,-357.7"/>
<text text-anchor="start" x="99.1105" y="-363.8" font-family="Helvetica,sans-Serif" font-size="11.00" fill="#000000">6 rows</text>
<polygon fill="#ffffff" stroke="transparent" points="134.5,-357.7 134.5,-376.7 168.5,-376.7 168.5,-357.7 134.5,-357.7"/>
<polygon fill="none" stroke="#000000" points="134.5,-357.7 134.5,-376.7 168.5,-376.7 168.5,-357.7 134.5,-357.7"/>
<text text-anchor="start" x="149.9053" y="-363.8" font-family="Helvetica,sans-Serif" font-size="11.00" fill="#000000">1 &gt;</text>
</a>
</g>
</g>
<!-- sed_Sample&#45;&gt;sed_sitetypeID -->
<g id="edge11" class="edge">
<title>sed_Sample:w&#45;&gt;sed_sitetypeID:e</title>
<path fill="none" stroke="#000000" d="M240.1593,-443.4212C208.8457,-432.4615 209.6437,-385.7 168.5,-385.7"/>
<polygon fill="#000000" stroke="#000000" points="246.5991,-444.4445 253.935,-449.2554 250.5496,-445.0722 254.5,-445.7 254.5,-445.7 254.5,-445.7 250.5496,-445.0722 255.065,-442.1446 246.5991,-444.4445 246.5991,-444.4445"/>
<ellipse fill="none" stroke="#000000" cx="243.4388" cy="-443.9423" rx="3.2" ry="3.2"/>
</g>
<!-- sed&#45;tl_DataCore -->
<g id="node3" class="node">
<title>sed&#45;tl_DataCore</title>
<g id="a_node3"><a xlink:href="../../tables/sed-tl_DataCore.html" xlink:title="sed&#45;tl_DataCore" target="_top">
<polygon fill="#ffffff" stroke="transparent" points="417,-509.2 417,-570.2 548,-570.2 548,-509.2 417,-509.2"/>
<polygon fill="#f5f5f5" stroke="transparent" points="417.5,-546.7 417.5,-569.7 548.5,-569.7 548.5,-546.7 417.5,-546.7"/>
<polygon fill="none" stroke="#000000" points="417.5,-546.7 417.5,-569.7 548.5,-569.7 548.5,-546.7 417.5,-546.7"/>
<text text-anchor="start" x="422.5" y="-555.3" font-family="Helvetica,sans-Serif" font-weight="bold" font-size="11.00" fill="#000000">sed&#45;tl_DataCore</text>
<text text-anchor="start" x="514.0219" y="-554.8" font-family="Helvetica,sans-Serif" font-size="11.00" fill="#000000">[table]</text>
<polygon fill="none" stroke="#000000" points="417.5,-527.7 417.5,-546.7 548.5,-546.7 548.5,-527.7 417.5,-527.7"/>
<text text-anchor="start" x="420.5" y="-533.8" font-family="Helvetica,sans-Serif" font-size="11.00" fill="#000000">...</text>
<polygon fill="#ffffff" stroke="transparent" points="417.5,-508.7 417.5,-527.7 460.5,-527.7 460.5,-508.7 417.5,-508.7"/>
<polygon fill="none" stroke="#000000" points="417.5,-508.7 417.5,-527.7 460.5,-527.7 460.5,-508.7 417.5,-508.7"/>
<text text-anchor="start" x="420.5" y="-514.8" font-family="Helvetica,sans-Serif" font-size="11.00" fill="#000000">&lt; 20</text>
<polygon fill="#ffffff" stroke="transparent" points="460.5,-508.7 460.5,-527.7 518.5,-527.7 518.5,-508.7 460.5,-508.7"/>
<polygon fill="none" stroke="#000000" points="460.5,-508.7 460.5,-527.7 518.5,-527.7 518.5,-508.7 460.5,-508.7"/>
<text text-anchor="start" x="470.8807" y="-514.8" font-family="Helvetica,sans-Serif" font-size="11.00" fill="#000000">966 rows</text>
<polygon fill="#ffffff" stroke="transparent" points="518.5,-508.7 518.5,-527.7 548.5,-527.7 548.5,-508.7 518.5,-508.7"/>
<polygon fill="none" stroke="#000000" points="518.5,-508.7 518.5,-527.7 548.5,-527.7 548.5,-508.7 518.5,-508.7"/>
<text text-anchor="start" x="529.9053" y="-514.8" font-family="Helvetica,sans-Serif" font-size="11.00" fill="#000000">1 &gt;</text>
</a>
</g>
</g>
<!-- sed&#45;tl_DataCore&#45;&gt;sed_Sample -->
<g id="edge2" class="edge">
<title>sed&#45;tl_DataCore:w&#45;&gt;sed_Sample:e</title>
<path fill="none" stroke="#000000" d="M403.4668,-540.7811C388.4259,-551.1516 387.7483,-577.7 363.5,-577.7"/>
<polygon fill="#000000" stroke="#000000" points="409.8183,-538.934 418.5053,-540.1568 413.6591,-537.817 417.5,-536.7 417.5,-536.7 417.5,-536.7 413.6591,-537.817 416.4947,-533.2432 409.8183,-538.934 409.8183,-538.934"/>
<ellipse fill="none" stroke="#000000" cx="406.7456" cy="-539.8277" rx="3.2" ry="3.2"/>
</g>
</g>
</svg>
