<?xml version="1.0" encoding="UTF-8" standalone="no"?>
<!DOCTYPE svg PUBLIC "-//W3C//DTD SVG 1.1//EN"
 "http://www.w3.org/Graphics/SVG/1.1/DTD/svg11.dtd">
<!-- Generated by graphviz version 2.40.1 (20161225.0304)
 -->
<!-- Title: twoDegreesRelationshipsDiagram Pages: 1 -->
<svg width="554pt" height="841pt"
 viewBox="0.00 0.00 554.00 841.20" xmlns="http://www.w3.org/2000/svg" xmlns:xlink="http://www.w3.org/1999/xlink">
<g id="graph0" class="graph" transform="scale(1 1) rotate(0) translate(4 837.2)">
<title>twoDegreesRelationshipsDiagram</title>
<polygon fill="#ffffff" stroke="transparent" points="-4,4 -4,-837.2 550,-837.2 550,4 -4,4"/>
<text text-anchor="middle" x="72.4936" y="-7.3" font-family="Helvetica,sans-Serif" font-size="11.00" fill="#000000">Generated by SchemaSpy</text>
<!-- sed&#45;osl_DataCore -->
<g id="node1" class="node">
<title>sed&#45;osl_DataCore</title>
<g id="a_node1"><a xlink:href="../../tables/sed-osl_DataCore.html" xlink:title="sed&#45;osl_DataCore" target="_top">
<polygon fill="#ffffff" stroke="transparent" points="407,-591.2 407,-652.2 538,-652.2 538,-591.2 407,-591.2"/>
<polygon fill="#f5f5f5" stroke="transparent" points="407.5,-628.7 407.5,-651.7 538.5,-651.7 538.5,-628.7 407.5,-628.7"/>
<polygon fill="none" stroke="#000000" points="407.5,-628.7 407.5,-651.7 538.5,-651.7 538.5,-628.7 407.5,-628.7"/>
<text text-anchor="start" x="412.1887" y="-637.8" font-family="Helvetica,sans-Serif" font-weight="bold" font-size="11.00" fill="#000000">sed&#45;osl_DataCore</text>
<text text-anchor="start" x="504.0219" y="-636.8" font-family="Helvetica,sans-Serif" font-size="11.00" fill="#000000">[table]</text>
<polygon fill="none" stroke="#000000" points="407.5,-609.7 407.5,-628.7 538.5,-628.7 538.5,-609.7 407.5,-609.7"/>
<text text-anchor="start" x="410.5" y="-615.8" font-family="Helvetica,sans-Serif" font-size="11.00" fill="#000000">...</text>
<polygon fill="#ffffff" stroke="transparent" points="407.5,-590.7 407.5,-609.7 446.5,-609.7 446.5,-590.7 407.5,-590.7"/>
<polygon fill="none" stroke="#000000" points="407.5,-590.7 407.5,-609.7 446.5,-609.7 446.5,-590.7 407.5,-590.7"/>
<text text-anchor="start" x="410.5" y="-596.8" font-family="Helvetica,sans-Serif" font-size="11.00" fill="#000000">&lt; 20</text>
<polygon fill="#ffffff" stroke="transparent" points="446.5,-590.7 446.5,-609.7 511.5,-609.7 511.5,-590.7 446.5,-590.7"/>
<polygon fill="none" stroke="#000000" points="446.5,-590.7 446.5,-609.7 511.5,-609.7 511.5,-590.7 446.5,-590.7"/>
<text text-anchor="start" x="454.7089" y="-596.8" font-family="Helvetica,sans-Serif" font-size="11.00" fill="#000000">2,458 rows</text>
<polygon fill="#ffffff" stroke="transparent" points="511.5,-590.7 511.5,-609.7 538.5,-609.7 538.5,-590.7 511.5,-590.7"/>
<polygon fill="none" stroke="#000000" points="511.5,-590.7 511.5,-609.7 538.5,-609.7 538.5,-590.7 511.5,-590.7"/>
<text text-anchor="start" x="519.9053" y="-596.8" font-family="Helvetica,sans-Serif" font-size="11.00" fill="#000000">1 &gt;</text>
</a>
</g>
</g>
<!-- sed_Sample -->
<g id="node2" class="node">
<title>sed_Sample</title>
<g id="a_node2"><a xlink:href="../../tables/sed_Sample.html" xlink:title="sed_Sample" target="_top">
<polygon fill="#ffffff" stroke="transparent" points="254,-331.2 254,-612.2 358,-612.2 358,-331.2 254,-331.2"/>
<polygon fill="#f5f5f5" stroke="transparent" points="254,-588.7 254,-611.7 358,-611.7 358,-588.7 254,-588.7"/>
<polygon fill="none" stroke="#000000" points="254,-588.7 254,-611.7 358,-611.7 358,-588.7 254,-588.7"/>
<text text-anchor="start" x="258.936" y="-597.8" font-family="Helvetica,sans-Serif" font-weight="bold" font-size="11.00" fill="#000000">sed_Sample</text>
<text text-anchor="start" x="323.5219" y="-596.8" font-family="Helvetica,sans-Serif" font-size="11.00" fill="#000000">[table]</text>
<polygon fill="none" stroke="#000000" points="254,-566.7 254,-588.7 358,-588.7 358,-566.7 254,-566.7"/>
<image xlink:href="../../images/primaryKeys.png" width="11px" height="12px" preserveAspectRatio="xMinYMin meet" x="259" y="-583.7"/>
<text text-anchor="start" x="276" y="-573.8" font-family="Helvetica,sans-Serif" font-size="11.00" fill="#000000">SMPID</text>
<polygon fill="none" stroke="#000000" points="254,-544.7 254,-566.7 358,-566.7 358,-544.7 254,-544.7"/>
<image xlink:href="../../images/foreignKeys.png" width="11px" height="12px" preserveAspectRatio="xMinYMin meet" x="259" y="-561.7"/>
<text text-anchor="start" x="276" y="-551.8" font-family="Helvetica,sans-Serif" font-size="11.00" fill="#000000">SITEID</text>
<polygon fill="none" stroke="#000000" points="254,-522.7 254,-544.7 358,-544.7 358,-522.7 254,-522.7"/>
<image xlink:href="../../images/foreignKeys.png" width="11px" height="12px" preserveAspectRatio="xMinYMin meet" x="259" y="-539.7"/>
<text text-anchor="start" x="276" y="-529.8" font-family="Helvetica,sans-Serif" font-size="11.00" fill="#000000">GEOTYPEID</text>
<polygon fill="none" stroke="#000000" points="254,-500.7 254,-522.7 358,-522.7 358,-500.7 254,-500.7"/>
<image xlink:href="../../images/foreignKeys.png" width="11px" height="12px" preserveAspectRatio="xMinYMin meet" x="259" y="-517.7"/>
<text text-anchor="start" x="276" y="-507.8" font-family="Helvetica,sans-Serif" font-size="11.00" fill="#000000">DEPCONID</text>
<polygon fill="none" stroke="#000000" points="254,-478.7 254,-500.7 358,-500.7 358,-478.7 254,-478.7"/>
<image xlink:href="../../images/foreignKeys.png" width="11px" height="12px" preserveAspectRatio="xMinYMin meet" x="259" y="-495.7"/>
<text text-anchor="start" x="276" y="-485.8" font-family="Helvetica,sans-Serif" font-size="11.00" fill="#000000">GEOMMODID</text>
<polygon fill="none" stroke="#000000" points="254,-456.7 254,-478.7 358,-478.7 358,-456.7 254,-456.7"/>
<image xlink:href="../../images/foreignKeys.png" width="11px" height="12px" preserveAspectRatio="xMinYMin meet" x="259" y="-473.7"/>
<text text-anchor="start" x="276" y="-463.8" font-family="Helvetica,sans-Serif" font-size="11.00" fill="#000000">MORPHID</text>
<polygon fill="none" stroke="#000000" points="254,-434.7 254,-456.7 358,-456.7 358,-434.7 254,-434.7"/>
<image xlink:href="../../images/foreignKeys.png" width="11px" height="12px" preserveAspectRatio="xMinYMin meet" x="259" y="-451.7"/>
<text text-anchor="start" x="276" y="-441.8" font-family="Helvetica,sans-Serif" font-size="11.00" fill="#000000">SITETYPEID</text>
<polygon fill="none" stroke="#000000" points="254,-412.7 254,-434.7 358,-434.7 358,-412.7 254,-412.7"/>
<image xlink:href="../../images/foreignKeys.png" width="11px" height="12px" preserveAspectRatio="xMinYMin meet" x="259" y="-429.7"/>
<text text-anchor="start" x="276" y="-419.8" font-family="Helvetica,sans-Serif" font-size="11.00" fill="#000000">SED_MATID</text>
<polygon fill="none" stroke="#000000" points="254,-390.7 254,-412.7 358,-412.7 358,-390.7 254,-390.7"/>
<image xlink:href="../../images/foreignKeys.png" width="11px" height="12px" preserveAspectRatio="xMinYMin meet" x="259" y="-407.7"/>
<text text-anchor="start" x="276" y="-397.8" font-family="Helvetica,sans-Serif" font-size="11.00" fill="#000000">FACIESID</text>
<polygon fill="none" stroke="#000000" points="254,-368.7 254,-390.7 358,-390.7 358,-368.7 254,-368.7"/>
<image xlink:href="../../images/foreignKeys.png" width="11px" height="12px" preserveAspectRatio="xMinYMin meet" x="259" y="-385.7"/>
<text text-anchor="start" x="276" y="-375.8" font-family="Helvetica,sans-Serif" font-size="11.00" fill="#000000">LAKETYPEID</text>
<polygon fill="none" stroke="#000000" points="254,-349.7 254,-368.7 358,-368.7 358,-349.7 254,-349.7"/>
<text text-anchor="start" x="257" y="-355.8" font-family="Helvetica,sans-Serif" font-size="11.00" fill="#000000">...</text>
<polygon fill="#ffffff" stroke="transparent" points="254,-330.7 254,-349.7 276,-349.7 276,-330.7 254,-330.7"/>
<polygon fill="none" stroke="#000000" points="254,-330.7 254,-349.7 276,-349.7 276,-330.7 254,-330.7"/>
<text text-anchor="start" x="257" y="-336.8" font-family="Helvetica,sans-Serif" font-size="11.00" fill="#000000">&lt; 9</text>
<polygon fill="#ffffff" stroke="transparent" points="276,-330.7 276,-349.7 336,-349.7 336,-330.7 276,-330.7"/>
<polygon fill="none" stroke="#000000" points="276,-330.7 276,-349.7 336,-349.7 336,-330.7 276,-330.7"/>
<text text-anchor="start" x="279.2089" y="-336.8" font-family="Helvetica,sans-Serif" font-size="11.00" fill="#000000">3,181 rows</text>
<polygon fill="#ffffff" stroke="transparent" points="336,-330.7 336,-349.7 358,-349.7 358,-330.7 336,-330.7"/>
<polygon fill="none" stroke="#000000" points="336,-330.7 336,-349.7 358,-349.7 358,-330.7 336,-330.7"/>
<text text-anchor="start" x="339.4053" y="-336.8" font-family="Helvetica,sans-Serif" font-size="11.00" fill="#000000">2 &gt;</text>
</a>
</g>
</g>
<!-- sed&#45;osl_DataCore&#45;&gt;sed_Sample -->
<g id="edge1" class="edge">
<title>sed&#45;osl_DataCore:w&#45;&gt;sed_Sample:e</title>
<path fill="none" stroke="#000000" d="M393.5753,-613.9968C380.543,-603.2274 380.5408,-577.7 358,-577.7"/>
<polygon fill="#000000" stroke="#000000" points="399.9207,-616.14 406.348,-622.1107 403.7103,-617.42 407.5,-618.7 407.5,-618.7 407.5,-618.7 403.7103,-617.42 408.652,-615.2893 399.9207,-616.14 399.9207,-616.14"/>
<ellipse fill="none" stroke="#000000" cx="396.8889" cy="-615.1159" rx="3.2" ry="3.2"/>
</g>
<!-- sed_depconID -->
<g id="node4" class="node">
<title>sed_depconID</title>
<g id="a_node4"><a xlink:href="../../tables/sed_depconID.html" xlink:title="sed_depconID" target="_top">
<polygon fill="#ffffff" stroke="transparent" points="50,-604.2 50,-665.2 163,-665.2 163,-604.2 50,-604.2"/>
<polygon fill="#f5f5f5" stroke="transparent" points="50.5,-641.7 50.5,-664.7 163.5,-664.7 163.5,-641.7 50.5,-641.7"/>
<polygon fill="none" stroke="#000000" points="50.5,-641.7 50.5,-664.7 163.5,-664.7 163.5,-641.7 50.5,-641.7"/>
<text text-anchor="start" x="55.0415" y="-650.8" font-family="Helvetica,sans-Serif" font-weight="bold" font-size="11.00" fill="#000000">sed_depconID</text>
<text text-anchor="start" x="129.0219" y="-649.8" font-family="Helvetica,sans-Serif" font-size="11.00" fill="#000000">[table]</text>
<polygon fill="none" stroke="#000000" points="50.5,-622.7 50.5,-641.7 163.5,-641.7 163.5,-622.7 50.5,-622.7"/>
<text text-anchor="start" x="53.5" y="-628.8" font-family="Helvetica,sans-Serif" font-size="11.00" fill="#000000">...</text>
<polygon fill="#ffffff" stroke="transparent" points="50.5,-603.7 50.5,-622.7 83.5,-622.7 83.5,-603.7 50.5,-603.7"/>
<polygon fill="none" stroke="#000000" points="50.5,-603.7 50.5,-622.7 83.5,-622.7 83.5,-603.7 50.5,-603.7"/>
<text text-anchor="start" x="53.5" y="-609.8" font-family="Helvetica,sans-Serif" font-size="11.00" fill="#000000"> &#160;</text>
<polygon fill="#ffffff" stroke="transparent" points="83.5,-603.7 83.5,-622.7 131.5,-622.7 131.5,-603.7 83.5,-603.7"/>
<polygon fill="none" stroke="#000000" points="83.5,-603.7 83.5,-622.7 131.5,-622.7 131.5,-603.7 83.5,-603.7"/>
<text text-anchor="start" x="96.1105" y="-609.8" font-family="Helvetica,sans-Serif" font-size="11.00" fill="#000000">6 rows</text>
<polygon fill="#ffffff" stroke="transparent" points="131.5,-603.7 131.5,-622.7 163.5,-622.7 163.5,-603.7 131.5,-603.7"/>
<polygon fill="none" stroke="#000000" points="131.5,-603.7 131.5,-622.7 163.5,-622.7 163.5,-603.7 131.5,-603.7"/>
<text text-anchor="start" x="144.9053" y="-609.8" font-family="Helvetica,sans-Serif" font-size="11.00" fill="#000000">1 &gt;</text>
</a>
</g>
</g>
<!-- sed_Sample&#45;&gt;sed_depconID -->
<g id="edge3" class="edge">
<title>sed_Sample:w&#45;&gt;sed_depconID:e</title>
<path fill="none" stroke="#000000" d="M239.8599,-514.8148C219.7399,-526.2915 235.0828,-566.9364 213,-593.7 195.3485,-615.093 191.2351,-631.7 163.5,-631.7"/>
<polygon fill="#000000" stroke="#000000" points="246.1873,-513.421 254.7745,-515.2157 250.0937,-512.5605 254,-511.7 254,-511.7 254,-511.7 250.0937,-512.5605 253.2255,-508.1843 246.1873,-513.421 246.1873,-513.421"/>
<ellipse fill="none" stroke="#000000" cx="243.0622" cy="-514.1095" rx="3.2" ry="3.2"/>
</g>
<!-- sed_faciesID -->
<g id="node5" class="node">
<title>sed_faciesID</title>
<g id="a_node5"><a xlink:href="../../tables/sed_faciesID.html" xlink:title="sed_faciesID" target="_top">
<polygon fill="#ffffff" stroke="transparent" points="8,-120.7 8,-254.7 205,-254.7 205,-120.7 8,-120.7"/>
<polygon fill="#f5f5f5" stroke="transparent" points="10.5,-229.7 10.5,-252.7 203.5,-252.7 203.5,-229.7 10.5,-229.7"/>
<polygon fill="none" stroke="#000000" points="10.5,-229.7 10.5,-252.7 203.5,-252.7 203.5,-229.7 10.5,-229.7"/>
<text text-anchor="start" x="15.5" y="-238.8" font-family="Helvetica,sans-Serif" font-weight="bold" font-size="11.00" fill="#000000">sed_faciesID</text>
<text text-anchor="start" x="168.5437" y="-237.8" font-family="Helvetica,sans-Serif" font-size="11.00" fill="#000000">[table]</text>
<polygon fill="none" stroke="#000000" points="10.5,-207.7 10.5,-229.7 111.5,-229.7 111.5,-207.7 10.5,-207.7"/>
<image xlink:href="../../images/primaryKeys.png" width="11px" height="12px" preserveAspectRatio="xMinYMin meet" x="15.5" y="-224.7"/>
<text text-anchor="start" x="30.5" y="-214.8" font-family="Helvetica,sans-Serif" font-size="11.00" fill="#000000">FACIESID</text>
<polygon fill="none" stroke="#000000" points="111.5,-207.7 111.5,-229.7 203.5,-229.7 203.5,-207.7 111.5,-207.7"/>
<text text-anchor="start" x="114.5" y="-215.4" font-family="Helvetica,sans-Serif" font-size="11.00" fill="#000000">smallserial[5]</text>
<polygon fill="#ffffff" stroke="transparent" points="10.5,-185.7 10.5,-207.7 111.5,-207.7 111.5,-185.7 10.5,-185.7"/>
<polygon fill="none" stroke="#000000" points="10.5,-185.7 10.5,-207.7 111.5,-207.7 111.5,-185.7 10.5,-185.7"/>
<text text-anchor="start" x="30.5" y="-192.8" font-family="Helvetica,sans-Serif" font-size="11.00" fill="#000000">FACIES</text>
<polygon fill="none" stroke="#000000" points="111.5,-185.7 111.5,-207.7 203.5,-207.7 203.5,-185.7 111.5,-185.7"/>
<text text-anchor="start" x="114.5" y="-193.4" font-family="Helvetica,sans-Serif" font-size="11.00" fill="#000000">text[2147483647]</text>
<polygon fill="none" stroke="#000000" points="10.5,-163.7 10.5,-185.7 111.5,-185.7 111.5,-163.7 10.5,-163.7"/>
<text text-anchor="start" x="30.5" y="-170.8" font-family="Helvetica,sans-Serif" font-size="11.00" fill="#000000">CREATED_AT</text>
<polygon fill="none" stroke="#000000" points="111.5,-163.7 111.5,-185.7 203.5,-185.7 203.5,-163.7 111.5,-163.7"/>
<text text-anchor="start" x="114.1023" y="-171.4" font-family="Helvetica,sans-Serif" font-size="11.00" fill="#000000">timestamptz[35,6]</text>
<polygon fill="none" stroke="#000000" points="10.5,-141.7 10.5,-163.7 111.5,-163.7 111.5,-141.7 10.5,-141.7"/>
<text text-anchor="start" x="30.5" y="-148.8" font-family="Helvetica,sans-Serif" font-size="11.00" fill="#000000">UPDATED_AT</text>
<polygon fill="none" stroke="#000000" points="111.5,-141.7 111.5,-163.7 203.5,-163.7 203.5,-141.7 111.5,-141.7"/>
<text text-anchor="start" x="114.1023" y="-149.4" font-family="Helvetica,sans-Serif" font-size="11.00" fill="#000000">timestamptz[35,6]</text>
<polygon fill="#ffffff" stroke="transparent" points="10.5,-122.7 10.5,-141.7 49.5,-141.7 49.5,-122.7 10.5,-122.7"/>
<polygon fill="none" stroke="#000000" points="10.5,-122.7 10.5,-141.7 49.5,-141.7 49.5,-122.7 10.5,-122.7"/>
<text text-anchor="start" x="13.5" y="-128.8" font-family="Helvetica,sans-Serif" font-size="11.00" fill="#000000">&lt; 0</text>
<polygon fill="#ffffff" stroke="transparent" points="49.5,-122.7 49.5,-141.7 111.5,-141.7 111.5,-122.7 49.5,-122.7"/>
<polygon fill="none" stroke="#000000" points="49.5,-122.7 49.5,-141.7 111.5,-141.7 111.5,-122.7 49.5,-122.7"/>
<text text-anchor="start" x="69.9956" y="-128.8" font-family="Helvetica,sans-Serif" font-size="11.00" fill="#000000">10 rows</text>
<polygon fill="#ffffff" stroke="transparent" points="111.5,-122.7 111.5,-141.7 203.5,-141.7 203.5,-122.7 111.5,-122.7"/>
<polygon fill="none" stroke="#000000" points="111.5,-122.7 111.5,-141.7 203.5,-141.7 203.5,-122.7 111.5,-122.7"/>
<text text-anchor="start" x="184.9053" y="-128.8" font-family="Helvetica,sans-Serif" font-size="11.00" fill="#000000">1 &gt;</text>
<polygon fill="none" stroke="#000000" stroke-width="2" points="9,-121.7 9,-253.7 204,-253.7 204,-121.7 9,-121.7"/>
</a>
</g>
</g>
<!-- sed_Sample&#45;&gt;sed_faciesID -->
<g id="edge4" class="edge">
<title>sed_Sample:w&#45;&gt;sed_faciesID:e</title>
<path fill="none" stroke="#000000" d="M239.7531,-399.3862C184.4378,-378.2023 282.2704,-218.7 203.5,-218.7"/>
<polygon fill="#000000" stroke="#000000" points="246.1035,-400.4175 253.4229,-405.2534 250.0517,-401.0587 254,-401.7 254,-401.7 254,-401.7 250.0517,-401.0587 254.5771,-398.1466 246.1035,-400.4175 246.1035,-400.4175"/>
<ellipse fill="none" stroke="#000000" cx="242.9448" cy="-399.9045" rx="3.2" ry="3.2"/>
</g>
<!-- sed_geommodID -->
<g id="node6" class="node">
<title>sed_geommodID</title>
<g id="a_node6"><a xlink:href="../../tables/sed_geommodID.html" xlink:title="sed_geommodID" target="_top">
<polygon fill="#ffffff" stroke="transparent" points="43.5,-522.2 43.5,-583.2 169.5,-583.2 169.5,-522.2 43.5,-522.2"/>
<polygon fill="#f5f5f5" stroke="transparent" points="43.5,-559.7 43.5,-582.7 169.5,-582.7 169.5,-559.7 43.5,-559.7"/>
<polygon fill="none" stroke="#000000" points="43.5,-559.7 43.5,-582.7 169.5,-582.7 169.5,-559.7 43.5,-559.7"/>
<text text-anchor="start" x="48.1296" y="-568.8" font-family="Helvetica,sans-Serif" font-weight="bold" font-size="11.00" fill="#000000">sed_geommodID</text>
<text text-anchor="start" x="135.0219" y="-567.8" font-family="Helvetica,sans-Serif" font-size="11.00" fill="#000000">[table]</text>
<polygon fill="none" stroke="#000000" points="43.5,-540.7 43.5,-559.7 169.5,-559.7 169.5,-540.7 43.5,-540.7"/>
<text text-anchor="start" x="46.5" y="-546.8" font-family="Helvetica,sans-Serif" font-size="11.00" fill="#000000">...</text>
<polygon fill="#ffffff" stroke="transparent" points="43.5,-521.7 43.5,-540.7 82.5,-540.7 82.5,-521.7 43.5,-521.7"/>
<polygon fill="none" stroke="#000000" points="43.5,-521.7 43.5,-540.7 82.5,-540.7 82.5,-521.7 43.5,-521.7"/>
<text text-anchor="start" x="46.5" y="-527.8" font-family="Helvetica,sans-Serif" font-size="11.00" fill="#000000"> &#160;</text>
<polygon fill="#ffffff" stroke="transparent" points="82.5,-521.7 82.5,-540.7 134.5,-540.7 134.5,-521.7 82.5,-521.7"/>
<polygon fill="none" stroke="#000000" points="82.5,-521.7 82.5,-540.7 134.5,-540.7 134.5,-521.7 82.5,-521.7"/>
<text text-anchor="start" x="99.1105" y="-527.8" font-family="Helvetica,sans-Serif" font-size="11.00" fill="#000000">8 rows</text>
<polygon fill="#ffffff" stroke="transparent" points="134.5,-521.7 134.5,-540.7 169.5,-540.7 169.5,-521.7 134.5,-521.7"/>
<polygon fill="none" stroke="#000000" points="134.5,-521.7 134.5,-540.7 169.5,-540.7 169.5,-521.7 134.5,-521.7"/>
<text text-anchor="start" x="150.9053" y="-527.8" font-family="Helvetica,sans-Serif" font-size="11.00" fill="#000000">1 &gt;</text>
</a>
</g>
</g>
<!-- sed_Sample&#45;&gt;sed_geommodID -->
<g id="edge5" class="edge">
<title>sed_Sample:w&#45;&gt;sed_geommodID:e</title>
<path fill="none" stroke="#000000" d="M239.4381,-492.1264C208.9983,-503.3514 209.9825,-549.7 169.5,-549.7"/>
<polygon fill="#000000" stroke="#000000" points="246.1088,-491.0149 254.5917,-493.251 250.0544,-490.3575 254,-489.7 254,-489.7 254,-489.7 250.0544,-490.3575 253.4083,-486.149 246.1088,-491.0149 246.1088,-491.0149"/>
<ellipse fill="none" stroke="#000000" cx="242.9523" cy="-491.5409" rx="3.2" ry="3.2"/>
</g>
<!-- sed_geotypeID -->
<g id="node7" class="node">
<title>sed_geotypeID</title>
<g id="a_node7"><a xlink:href="../../tables/sed_geotypeID.html" xlink:title="sed_geotypeID" target="_top">
<polygon fill="#ffffff" stroke="transparent" points="48.5,-686.2 48.5,-747.2 164.5,-747.2 164.5,-686.2 48.5,-686.2"/>
<polygon fill="#f5f5f5" stroke="transparent" points="48.5,-723.7 48.5,-746.7 164.5,-746.7 164.5,-723.7 48.5,-723.7"/>
<polygon fill="none" stroke="#000000" points="48.5,-723.7 48.5,-746.7 164.5,-746.7 164.5,-723.7 48.5,-723.7"/>
<text text-anchor="start" x="53.0131" y="-732.8" font-family="Helvetica,sans-Serif" font-weight="bold" font-size="11.00" fill="#000000">sed_geotypeID</text>
<text text-anchor="start" x="130.0219" y="-731.8" font-family="Helvetica,sans-Serif" font-size="11.00" fill="#000000">[table]</text>
<polygon fill="none" stroke="#000000" points="48.5,-704.7 48.5,-723.7 164.5,-723.7 164.5,-704.7 48.5,-704.7"/>
<text text-anchor="start" x="51.5" y="-710.8" font-family="Helvetica,sans-Serif" font-size="11.00" fill="#000000">...</text>
<polygon fill="#ffffff" stroke="transparent" points="48.5,-685.7 48.5,-704.7 79.5,-704.7 79.5,-685.7 48.5,-685.7"/>
<polygon fill="none" stroke="#000000" points="48.5,-685.7 48.5,-704.7 79.5,-704.7 79.5,-685.7 48.5,-685.7"/>
<text text-anchor="start" x="51.5" y="-691.8" font-family="Helvetica,sans-Serif" font-size="11.00" fill="#000000"> &#160;</text>
<polygon fill="#ffffff" stroke="transparent" points="79.5,-685.7 79.5,-704.7 133.5,-704.7 133.5,-685.7 79.5,-685.7"/>
<polygon fill="none" stroke="#000000" points="79.5,-685.7 79.5,-704.7 133.5,-704.7 133.5,-685.7 79.5,-685.7"/>
<text text-anchor="start" x="91.9956" y="-691.8" font-family="Helvetica,sans-Serif" font-size="11.00" fill="#000000">16 rows</text>
<polygon fill="#ffffff" stroke="transparent" points="133.5,-685.7 133.5,-704.7 164.5,-704.7 164.5,-685.7 133.5,-685.7"/>
<polygon fill="none" stroke="#000000" points="133.5,-685.7 133.5,-704.7 164.5,-704.7 164.5,-685.7 133.5,-685.7"/>
<text text-anchor="start" x="145.9053" y="-691.8" font-family="Helvetica,sans-Serif" font-size="11.00" fill="#000000">1 &gt;</text>
</a>
</g>
</g>
<!-- sed_Sample&#45;&gt;sed_geotypeID -->
<g id="edge6" class="edge">
<title>sed_Sample:w&#45;&gt;sed_geotypeID:e</title>
<path fill="none" stroke="#000000" d="M239.4727,-535.647C198.3515,-548.8339 246.5158,-626.0353 213,-675.7 197.6819,-698.3988 191.8839,-713.7 164.5,-713.7"/>
<polygon fill="#000000" stroke="#000000" points="246.0709,-534.7627 254.4782,-537.2681 250.0354,-534.2314 254,-533.7 254,-533.7 254,-533.7 250.0354,-534.2314 253.5218,-530.1319 246.0709,-534.7627 246.0709,-534.7627"/>
<ellipse fill="none" stroke="#000000" cx="242.8993" cy="-535.1878" rx="3.2" ry="3.2"/>
</g>
<!-- sed_laketypeID -->
<g id="node8" class="node">
<title>sed_laketypeID</title>
<g id="a_node8"><a xlink:href="../../tables/sed_laketypeID.html" xlink:title="sed_laketypeID" target="_top">
<polygon fill="#ffffff" stroke="transparent" points="47.5,-38.2 47.5,-99.2 165.5,-99.2 165.5,-38.2 47.5,-38.2"/>
<polygon fill="#f5f5f5" stroke="transparent" points="47.5,-75.7 47.5,-98.7 165.5,-98.7 165.5,-75.7 47.5,-75.7"/>
<polygon fill="none" stroke="#000000" points="47.5,-75.7 47.5,-98.7 165.5,-98.7 165.5,-75.7 47.5,-75.7"/>
<text text-anchor="start" x="52.1001" y="-84.8" font-family="Helvetica,sans-Serif" font-weight="bold" font-size="11.00" fill="#000000">sed_laketypeID</text>
<text text-anchor="start" x="131.0219" y="-83.8" font-family="Helvetica,sans-Serif" font-size="11.00" fill="#000000">[table]</text>
<polygon fill="none" stroke="#000000" points="47.5,-56.7 47.5,-75.7 165.5,-75.7 165.5,-56.7 47.5,-56.7"/>
<text text-anchor="start" x="50.5" y="-62.8" font-family="Helvetica,sans-Serif" font-size="11.00" fill="#000000">...</text>
<polygon fill="#ffffff" stroke="transparent" points="47.5,-37.7 47.5,-56.7 84.5,-56.7 84.5,-37.7 47.5,-37.7"/>
<polygon fill="none" stroke="#000000" points="47.5,-37.7 47.5,-56.7 84.5,-56.7 84.5,-37.7 47.5,-37.7"/>
<text text-anchor="start" x="50.5" y="-43.8" font-family="Helvetica,sans-Serif" font-size="11.00" fill="#000000">&lt; 1</text>
<polygon fill="#ffffff" stroke="transparent" points="84.5,-37.7 84.5,-56.7 136.5,-56.7 136.5,-37.7 84.5,-37.7"/>
<polygon fill="none" stroke="#000000" points="84.5,-37.7 84.5,-56.7 136.5,-56.7 136.5,-37.7 84.5,-37.7"/>
<text text-anchor="start" x="94.9956" y="-43.8" font-family="Helvetica,sans-Serif" font-size="11.00" fill="#000000">58 rows</text>
<polygon fill="#ffffff" stroke="transparent" points="136.5,-37.7 136.5,-56.7 165.5,-56.7 165.5,-37.7 136.5,-37.7"/>
<polygon fill="none" stroke="#000000" points="136.5,-37.7 136.5,-56.7 165.5,-56.7 165.5,-37.7 136.5,-37.7"/>
<text text-anchor="start" x="146.9053" y="-43.8" font-family="Helvetica,sans-Serif" font-size="11.00" fill="#000000">2 &gt;</text>
</a>
</g>
</g>
<!-- sed_Sample&#45;&gt;sed_laketypeID -->
<g id="edge7" class="edge">
<title>sed_Sample:w&#45;&gt;sed_laketypeID:e</title>
<path fill="none" stroke="#000000" d="M240.3935,-374.9431C201.1758,-342.923 238.9125,-158.6142 213,-109.7 199.529,-84.2711 194.2767,-65.7 165.5,-65.7"/>
<polygon fill="#000000" stroke="#000000" points="246.4482,-377.0598 252.8119,-383.0983 250.2241,-378.3799 254,-379.7 254,-379.7 254,-379.7 250.2241,-378.3799 255.1881,-376.3017 246.4482,-377.0598 246.4482,-377.0598"/>
<ellipse fill="none" stroke="#000000" cx="243.4275" cy="-376.0037" rx="3.2" ry="3.2"/>
</g>
<!-- sed_morphID -->
<g id="node9" class="node">
<title>sed_morphID</title>
<g id="a_node9"><a xlink:href="../../tables/sed_morphID.html" xlink:title="sed_morphID" target="_top">
<polygon fill="#ffffff" stroke="transparent" points="52,-440.2 52,-501.2 161,-501.2 161,-440.2 52,-440.2"/>
<polygon fill="#f5f5f5" stroke="transparent" points="52.5,-477.7 52.5,-500.7 161.5,-500.7 161.5,-477.7 52.5,-477.7"/>
<polygon fill="none" stroke="#000000" points="52.5,-477.7 52.5,-500.7 161.5,-500.7 161.5,-477.7 52.5,-477.7"/>
<text text-anchor="start" x="57.4945" y="-486.8" font-family="Helvetica,sans-Serif" font-weight="bold" font-size="11.00" fill="#000000">sed_morphID</text>
<text text-anchor="start" x="127.0219" y="-485.8" font-family="Helvetica,sans-Serif" font-size="11.00" fill="#000000">[table]</text>
<polygon fill="none" stroke="#000000" points="52.5,-458.7 52.5,-477.7 161.5,-477.7 161.5,-458.7 52.5,-458.7"/>
<text text-anchor="start" x="55.5" y="-464.8" font-family="Helvetica,sans-Serif" font-size="11.00" fill="#000000">...</text>
<polygon fill="#ffffff" stroke="transparent" points="52.5,-439.7 52.5,-458.7 80.5,-458.7 80.5,-439.7 52.5,-439.7"/>
<polygon fill="none" stroke="#000000" points="52.5,-439.7 52.5,-458.7 80.5,-458.7 80.5,-439.7 52.5,-439.7"/>
<text text-anchor="start" x="55.5" y="-445.8" font-family="Helvetica,sans-Serif" font-size="11.00" fill="#000000"> &#160;</text>
<polygon fill="#ffffff" stroke="transparent" points="80.5,-439.7 80.5,-458.7 132.5,-458.7 132.5,-439.7 80.5,-439.7"/>
<polygon fill="none" stroke="#000000" points="80.5,-439.7 80.5,-458.7 132.5,-458.7 132.5,-439.7 80.5,-439.7"/>
<text text-anchor="start" x="90.9956" y="-445.8" font-family="Helvetica,sans-Serif" font-size="11.00" fill="#000000">13 rows</text>
<polygon fill="#ffffff" stroke="transparent" points="132.5,-439.7 132.5,-458.7 161.5,-458.7 161.5,-439.7 132.5,-439.7"/>
<polygon fill="none" stroke="#000000" points="132.5,-439.7 132.5,-458.7 161.5,-458.7 161.5,-439.7 132.5,-439.7"/>
<text text-anchor="start" x="142.9053" y="-445.8" font-family="Helvetica,sans-Serif" font-size="11.00" fill="#000000">1 &gt;</text>
</a>
</g>
</g>
<!-- sed_Sample&#45;&gt;sed_morphID -->
<g id="edge8" class="edge">
<title>sed_Sample:w&#45;&gt;sed_morphID:e</title>
<path fill="none" stroke="#000000" d="M239.5065,-467.7C209.7268,-467.7 197.3116,-467.7 161.5,-467.7"/>
<polygon fill="#000000" stroke="#000000" points="246,-467.7001 254,-471.3 250,-467.7 254,-467.7 254,-467.7 254,-467.7 250,-467.7 254,-464.1 246,-467.7001 246,-467.7001"/>
<ellipse fill="none" stroke="#000000" cx="242.8" cy="-467.7001" rx="3.2" ry="3.2"/>
</g>
<!-- global_GrainSize -->
<g id="node10" class="node">
<title>global_GrainSize</title>
<g id="a_node10"><a xlink:href="../../tables/global_GrainSize.html" xlink:title="global_GrainSize" target="_top">
<polygon fill="#ffffff" stroke="transparent" points="43.5,-276.2 43.5,-337.2 169.5,-337.2 169.5,-276.2 43.5,-276.2"/>
<polygon fill="#f5f5f5" stroke="transparent" points="43.5,-313.7 43.5,-336.7 169.5,-336.7 169.5,-313.7 43.5,-313.7"/>
<polygon fill="none" stroke="#000000" points="43.5,-313.7 43.5,-336.7 169.5,-336.7 169.5,-313.7 43.5,-313.7"/>
<text text-anchor="start" x="48.1313" y="-322.8" font-family="Helvetica,sans-Serif" font-weight="bold" font-size="11.00" fill="#000000">global_GrainSize</text>
<text text-anchor="start" x="135.0219" y="-321.8" font-family="Helvetica,sans-Serif" font-size="11.00" fill="#000000">[table]</text>
<polygon fill="none" stroke="#000000" points="43.5,-294.7 43.5,-313.7 169.5,-313.7 169.5,-294.7 43.5,-294.7"/>
<text text-anchor="start" x="46.5" y="-300.8" font-family="Helvetica,sans-Serif" font-size="11.00" fill="#000000">...</text>
<polygon fill="#ffffff" stroke="transparent" points="43.5,-275.7 43.5,-294.7 79.5,-294.7 79.5,-275.7 43.5,-275.7"/>
<polygon fill="none" stroke="#000000" points="43.5,-275.7 43.5,-294.7 79.5,-294.7 79.5,-275.7 43.5,-275.7"/>
<text text-anchor="start" x="46.5" y="-281.8" font-family="Helvetica,sans-Serif" font-size="11.00" fill="#000000"> &#160;</text>
<polygon fill="#ffffff" stroke="transparent" points="79.5,-275.7 79.5,-294.7 135.5,-294.7 135.5,-275.7 79.5,-275.7"/>
<polygon fill="none" stroke="#000000" points="79.5,-275.7 79.5,-294.7 135.5,-294.7 135.5,-275.7 79.5,-275.7"/>
<text text-anchor="start" x="93.9956" y="-281.8" font-family="Helvetica,sans-Serif" font-size="11.00" fill="#000000">29 rows</text>
<polygon fill="#ffffff" stroke="transparent" points="135.5,-275.7 135.5,-294.7 169.5,-294.7 169.5,-275.7 135.5,-275.7"/>
<polygon fill="none" stroke="#000000" points="135.5,-275.7 135.5,-294.7 169.5,-294.7 169.5,-275.7 135.5,-275.7"/>
<text text-anchor="start" x="150.9053" y="-281.8" font-family="Helvetica,sans-Serif" font-size="11.00" fill="#000000">3 &gt;</text>
</a>
</g>
</g>
<!-- sed_Sample&#45;&gt;global_GrainSize -->
<g id="edge9" class="edge">
<title>sed_Sample:w&#45;&gt;global_GrainSize:e</title>
<path fill="none" stroke="#000000" d="M239.9134,-420.6198C220.8862,-409.9392 232.2661,-373.728 213,-347.7 196.6394,-325.5973 196.999,-303.7 169.5,-303.7"/>
<polygon fill="#000000" stroke="#000000" points="246.1847,-421.991 253.231,-427.2169 250.0923,-422.8455 254,-423.7 254,-423.7 254,-423.7 250.0923,-422.8455 254.769,-420.1831 246.1847,-421.991 246.1847,-421.991"/>
<ellipse fill="none" stroke="#000000" cx="243.0585" cy="-421.3074" rx="3.2" ry="3.2"/>
</g>
<!-- global_SiteMaster -->
<g id="node11" class="node">
<title>global_SiteMaster</title>
<g id="a_node11"><a xlink:href="../../tables/global_SiteMaster.html" xlink:title="global_SiteMaster" target="_top">
<polygon fill="#ffffff" stroke="transparent" points="41,-768.2 41,-829.2 172,-829.2 172,-768.2 41,-768.2"/>
<polygon fill="#f5f5f5" stroke="transparent" points="41.5,-805.7 41.5,-828.7 172.5,-828.7 172.5,-805.7 41.5,-805.7"/>
<polygon fill="none" stroke="#000000" points="41.5,-805.7 41.5,-828.7 172.5,-828.7 172.5,-805.7 41.5,-805.7"/>
<text text-anchor="start" x="46.4923" y="-814.8" font-family="Helvetica,sans-Serif" font-weight="bold" font-size="11.00" fill="#000000">global_SiteMaster</text>
<text text-anchor="start" x="138.0219" y="-813.8" font-family="Helvetica,sans-Serif" font-size="11.00" fill="#000000">[table]</text>
<polygon fill="none" stroke="#000000" points="41.5,-786.7 41.5,-805.7 172.5,-805.7 172.5,-786.7 41.5,-786.7"/>
<text text-anchor="start" x="44.5" y="-792.8" font-family="Helvetica,sans-Serif" font-size="11.00" fill="#000000">...</text>
<polygon fill="#ffffff" stroke="transparent" points="41.5,-767.7 41.5,-786.7 74.5,-786.7 74.5,-767.7 41.5,-767.7"/>
<polygon fill="none" stroke="#000000" points="41.5,-767.7 41.5,-786.7 74.5,-786.7 74.5,-767.7 41.5,-767.7"/>
<text text-anchor="start" x="44.5" y="-773.8" font-family="Helvetica,sans-Serif" font-size="11.00" fill="#000000">&lt; 4</text>
<polygon fill="#ffffff" stroke="transparent" points="74.5,-767.7 74.5,-786.7 145.5,-786.7 145.5,-767.7 74.5,-767.7"/>
<polygon fill="none" stroke="#000000" points="74.5,-767.7 74.5,-786.7 145.5,-786.7 145.5,-767.7 74.5,-767.7"/>
<text text-anchor="start" x="82.594" y="-773.8" font-family="Helvetica,sans-Serif" font-size="11.00" fill="#000000">23,245 rows</text>
<polygon fill="#ffffff" stroke="transparent" points="145.5,-767.7 145.5,-786.7 172.5,-786.7 172.5,-767.7 145.5,-767.7"/>
<polygon fill="none" stroke="#000000" points="145.5,-767.7 145.5,-786.7 172.5,-786.7 172.5,-767.7 145.5,-767.7"/>
<text text-anchor="start" x="153.9053" y="-773.8" font-family="Helvetica,sans-Serif" font-size="11.00" fill="#000000">5 &gt;</text>
</a>
</g>
</g>
<!-- sed_Sample&#45;&gt;global_SiteMaster -->
<g id="edge10" class="edge">
<title>sed_Sample:w&#45;&gt;global_SiteMaster:e</title>
<path fill="none" stroke="#000000" d="M240.7042,-561.917C213.872,-591.9926 232.6958,-722.3844 213,-757.7 200.9776,-779.2568 197.1827,-795.7 172.5,-795.7"/>
<polygon fill="#000000" stroke="#000000" points="246.7531,-559.0886 255.5249,-558.9611 250.3766,-557.3943 254,-555.7 254,-555.7 254,-555.7 250.3766,-557.3943 252.4751,-552.4389 246.7531,-559.0886 246.7531,-559.0886"/>
<ellipse fill="none" stroke="#000000" cx="243.8543" cy="-560.4441" rx="3.2" ry="3.2"/>
</g>
<!-- sed_sitetypeID -->
<g id="node12" class="node">
<title>sed_sitetypeID</title>
<g id="a_node12"><a xlink:href="../../tables/sed_sitetypeID.html" xlink:title="sed_sitetypeID" target="_top">
<polygon fill="#ffffff" stroke="transparent" points="49,-358.2 49,-419.2 164,-419.2 164,-358.2 49,-358.2"/>
<polygon fill="#f5f5f5" stroke="transparent" points="49.5,-395.7 49.5,-418.7 164.5,-418.7 164.5,-395.7 49.5,-395.7"/>
<polygon fill="none" stroke="#000000" points="49.5,-395.7 49.5,-418.7 164.5,-418.7 164.5,-395.7 49.5,-395.7"/>
<text text-anchor="start" x="54.1291" y="-404.8" font-family="Helvetica,sans-Serif" font-weight="bold" font-size="11.00" fill="#000000">sed_sitetypeID</text>
<text text-anchor="start" x="130.0219" y="-403.8" font-family="Helvetica,sans-Serif" font-size="11.00" fill="#000000">[table]</text>
<polygon fill="none" stroke="#000000" points="49.5,-376.7 49.5,-395.7 164.5,-395.7 164.5,-376.7 49.5,-376.7"/>
<text text-anchor="start" x="52.5" y="-382.8" font-family="Helvetica,sans-Serif" font-size="11.00" fill="#000000">...</text>
<polygon fill="#ffffff" stroke="transparent" points="49.5,-357.7 49.5,-376.7 83.5,-376.7 83.5,-357.7 49.5,-357.7"/>
<polygon fill="none" stroke="#000000" points="49.5,-357.7 49.5,-376.7 83.5,-376.7 83.5,-357.7 49.5,-357.7"/>
<text text-anchor="start" x="52.5" y="-363.8" font-family="Helvetica,sans-Serif" font-size="11.00" fill="#000000"> &#160;</text>
<polygon fill="#ffffff" stroke="transparent" points="83.5,-357.7 83.5,-376.7 132.5,-376.7 132.5,-357.7 83.5,-357.7"/>
<polygon fill="none" stroke="#000000" points="83.5,-357.7 83.5,-376.7 132.5,-376.7 132.5,-357.7 83.5,-357.7"/>
<text text-anchor="start" x="97.1105" y="-363.8" font-family="Helvetica,sans-Serif" font-size="11.00" fill="#000000">6 rows</text>
<polygon fill="#ffffff" stroke="transparent" points="132.5,-357.7 132.5,-376.7 164.5,-376.7 164.5,-357.7 132.5,-357.7"/>
<polygon fill="none" stroke="#000000" points="132.5,-357.7 132.5,-376.7 164.5,-376.7 164.5,-357.7 132.5,-357.7"/>
<text text-anchor="start" x="145.9053" y="-363.8" font-family="Helvetica,sans-Serif" font-size="11.00" fill="#000000">1 &gt;</text>
</a>
</g>
</g>
<!-- sed_Sample&#45;&gt;sed_sitetypeID -->
<g id="edge11" class="edge">
<title>sed_Sample:w&#45;&gt;sed_sitetypeID:e</title>
<path fill="none" stroke="#000000" d="M239.653,-443.5646C206.8381,-432.8762 206.9643,-385.7 164.5,-385.7"/>
<polygon fill="#000000" stroke="#000000" points="246.0872,-444.5222 253.47,-449.2608 250.0436,-445.1111 254,-445.7 254,-445.7 254,-445.7 250.0436,-445.1111 254.53,-442.1392 246.0872,-444.5222 246.0872,-444.5222"/>
<ellipse fill="none" stroke="#000000" cx="242.922" cy="-444.0511" rx="3.2" ry="3.2"/>
</g>
<!-- sed&#45;tl_DataCore -->
<g id="node3" class="node">
<title>sed&#45;tl_DataCore</title>
<g id="a_node3"><a xlink:href="../../tables/sed-tl_DataCore.html" xlink:title="sed&#45;tl_DataCore" target="_top">
<polygon fill="#ffffff" stroke="transparent" points="411,-509.2 411,-570.2 534,-570.2 534,-509.2 411,-509.2"/>
<polygon fill="#f5f5f5" stroke="transparent" points="411.5,-546.7 411.5,-569.7 534.5,-569.7 534.5,-546.7 411.5,-546.7"/>
<polygon fill="none" stroke="#000000" points="411.5,-546.7 411.5,-569.7 534.5,-569.7 534.5,-546.7 411.5,-546.7"/>
<text text-anchor="start" x="416.4677" y="-555.8" font-family="Helvetica,sans-Serif" font-weight="bold" font-size="11.00" fill="#000000">sed&#45;tl_DataCore</text>
<text text-anchor="start" x="500.0219" y="-554.8" font-family="Helvetica,sans-Serif" font-size="11.00" fill="#000000">[table]</text>
<polygon fill="none" stroke="#000000" points="411.5,-527.7 411.5,-546.7 534.5,-546.7 534.5,-527.7 411.5,-527.7"/>
<text text-anchor="start" x="414.5" y="-533.8" font-family="Helvetica,sans-Serif" font-size="11.00" fill="#000000">...</text>
<polygon fill="#ffffff" stroke="transparent" points="411.5,-508.7 411.5,-527.7 450.5,-527.7 450.5,-508.7 411.5,-508.7"/>
<polygon fill="none" stroke="#000000" points="411.5,-508.7 411.5,-527.7 450.5,-527.7 450.5,-508.7 411.5,-508.7"/>
<text text-anchor="start" x="414.5" y="-514.8" font-family="Helvetica,sans-Serif" font-size="11.00" fill="#000000">&lt; 20</text>
<polygon fill="#ffffff" stroke="transparent" points="450.5,-508.7 450.5,-527.7 506.5,-527.7 506.5,-508.7 450.5,-508.7"/>
<polygon fill="none" stroke="#000000" points="450.5,-508.7 450.5,-527.7 506.5,-527.7 506.5,-508.7 450.5,-508.7"/>
<text text-anchor="start" x="458.8807" y="-514.8" font-family="Helvetica,sans-Serif" font-size="11.00" fill="#000000">966 rows</text>
<polygon fill="#ffffff" stroke="transparent" points="506.5,-508.7 506.5,-527.7 534.5,-527.7 534.5,-508.7 506.5,-508.7"/>
<polygon fill="none" stroke="#000000" points="506.5,-508.7 506.5,-527.7 534.5,-527.7 534.5,-508.7 506.5,-508.7"/>
<text text-anchor="start" x="515.9053" y="-514.8" font-family="Helvetica,sans-Serif" font-size="11.00" fill="#000000">1 &gt;</text>
</a>
</g>
</g>
<!-- sed&#45;tl_DataCore&#45;&gt;sed_Sample -->
<g id="edge2" class="edge">
<title>sed&#45;tl_DataCore:w&#45;&gt;sed_Sample:e</title>
<path fill="none" stroke="#000000" d="M397.5674,-540.7811C382.661,-551.1516 382.1062,-577.7 358,-577.7"/>
<polygon fill="#000000" stroke="#000000" points="403.8226,-538.9489 412.512,-540.1548 407.6613,-537.8244 411.5,-536.7 411.5,-536.7 411.5,-536.7 407.6613,-537.8244 410.488,-533.2452 403.8226,-538.9489 403.8226,-538.9489"/>
<ellipse fill="none" stroke="#000000" cx="400.7516" cy="-539.8485" rx="3.2" ry="3.2"/>
</g>
</g>
</svg>
