<?xml version="1.0" encoding="UTF-8" standalone="no"?>
<!DOCTYPE svg PUBLIC "-//W3C//DTD SVG 1.1//EN"
 "http://www.w3.org/Graphics/SVG/1.1/DTD/svg11.dtd">
<!-- Generated by graphviz version 2.40.1 (20161225.0304)
 -->
<!-- Title: oneDegreeRelationshipsDiagram Pages: 1 -->
<svg width="384pt" height="331pt"
 viewBox="0.00 0.00 384.00 331.20" xmlns="http://www.w3.org/2000/svg" xmlns:xlink="http://www.w3.org/1999/xlink">
<g id="graph0" class="graph" transform="scale(1 1) rotate(0) translate(4 327.2)">
<title>oneDegreeRelationshipsDiagram</title>
<polygon fill="#ffffff" stroke="transparent" points="-4,4 -4,-327.2 380,-327.2 380,4 -4,4"/>
<text text-anchor="middle" x="72.4936" y="-7.3" font-family="Helvetica,sans-Serif" font-size="11.00" fill="#000000">Generated by SchemaSpy</text>
<!-- sed_Sample -->
<g id="node1" class="node">
<title>sed_Sample</title>
<g id="a_node1"><a xlink:href="../../tables/sed_Sample.html" xlink:title="sed_Sample" target="_top">
<polygon fill="#ffffff" stroke="transparent" points="259,-38.2 259,-319.2 368,-319.2 368,-38.2 259,-38.2"/>
<polygon fill="#f5f5f5" stroke="transparent" points="259.5,-295.7 259.5,-318.7 368.5,-318.7 368.5,-295.7 259.5,-295.7"/>
<polygon fill="none" stroke="#000000" points="259.5,-295.7 259.5,-318.7 368.5,-318.7 368.5,-295.7 259.5,-295.7"/>
<text text-anchor="start" x="264.5" y="-304.3" font-family="Helvetica,sans-Serif" font-weight="bold" font-size="11.00" fill="#000000">sed_Sample</text>
<text text-anchor="start" x="334.0219" y="-303.8" font-family="Helvetica,sans-Serif" font-size="11.00" fill="#000000">[table]</text>
<polygon fill="none" stroke="#000000" points="259.5,-273.7 259.5,-295.7 368.5,-295.7 368.5,-273.7 259.5,-273.7"/>
<image xlink:href="../../images/primaryKeys.png" width="11px" height="12px" preserveAspectRatio="xMinYMin meet" x="264.5" y="-290.7"/>
<text text-anchor="start" x="283.5" y="-280.8" font-family="Helvetica,sans-Serif" font-size="11.00" fill="#000000">SMPID</text>
<polygon fill="none" stroke="#000000" points="259.5,-251.7 259.5,-273.7 368.5,-273.7 368.5,-251.7 259.5,-251.7"/>
<image xlink:href="../../images/foreignKeys.png" width="11px" height="12px" preserveAspectRatio="xMinYMin meet" x="264.5" y="-268.7"/>
<text text-anchor="start" x="283.5" y="-258.8" font-family="Helvetica,sans-Serif" font-size="11.00" fill="#000000">SITEID</text>
<polygon fill="none" stroke="#000000" points="259.5,-229.7 259.5,-251.7 368.5,-251.7 368.5,-229.7 259.5,-229.7"/>
<image xlink:href="../../images/foreignKeys.png" width="11px" height="12px" preserveAspectRatio="xMinYMin meet" x="264.5" y="-246.7"/>
<text text-anchor="start" x="283.5" y="-236.8" font-family="Helvetica,sans-Serif" font-size="11.00" fill="#000000">GEOTYPEID</text>
<polygon fill="none" stroke="#000000" points="259.5,-207.7 259.5,-229.7 368.5,-229.7 368.5,-207.7 259.5,-207.7"/>
<image xlink:href="../../images/foreignKeys.png" width="11px" height="12px" preserveAspectRatio="xMinYMin meet" x="264.5" y="-224.7"/>
<text text-anchor="start" x="283.5" y="-214.8" font-family="Helvetica,sans-Serif" font-size="11.00" fill="#000000">DEPCONID</text>
<polygon fill="none" stroke="#000000" points="259.5,-185.7 259.5,-207.7 368.5,-207.7 368.5,-185.7 259.5,-185.7"/>
<image xlink:href="../../images/foreignKeys.png" width="11px" height="12px" preserveAspectRatio="xMinYMin meet" x="264.5" y="-202.7"/>
<text text-anchor="start" x="283.5" y="-192.8" font-family="Helvetica,sans-Serif" font-size="11.00" fill="#000000">GEOMMODID</text>
<polygon fill="none" stroke="#000000" points="259.5,-163.7 259.5,-185.7 368.5,-185.7 368.5,-163.7 259.5,-163.7"/>
<image xlink:href="../../images/foreignKeys.png" width="11px" height="12px" preserveAspectRatio="xMinYMin meet" x="264.5" y="-180.7"/>
<text text-anchor="start" x="283.5" y="-170.8" font-family="Helvetica,sans-Serif" font-size="11.00" fill="#000000">MORPHID</text>
<polygon fill="none" stroke="#000000" points="259.5,-141.7 259.5,-163.7 368.5,-163.7 368.5,-141.7 259.5,-141.7"/>
<image xlink:href="../../images/foreignKeys.png" width="11px" height="12px" preserveAspectRatio="xMinYMin meet" x="264.5" y="-158.7"/>
<text text-anchor="start" x="283.5" y="-148.8" font-family="Helvetica,sans-Serif" font-size="11.00" fill="#000000">SITETYPEID</text>
<polygon fill="none" stroke="#000000" points="259.5,-119.7 259.5,-141.7 368.5,-141.7 368.5,-119.7 259.5,-119.7"/>
<image xlink:href="../../images/foreignKeys.png" width="11px" height="12px" preserveAspectRatio="xMinYMin meet" x="264.5" y="-136.7"/>
<text text-anchor="start" x="283.5" y="-126.8" font-family="Helvetica,sans-Serif" font-size="11.00" fill="#000000">SED_MATID</text>
<polygon fill="none" stroke="#000000" points="259.5,-97.7 259.5,-119.7 368.5,-119.7 368.5,-97.7 259.5,-97.7"/>
<image xlink:href="../../images/foreignKeys.png" width="11px" height="12px" preserveAspectRatio="xMinYMin meet" x="264.5" y="-114.7"/>
<text text-anchor="start" x="283.5" y="-104.8" font-family="Helvetica,sans-Serif" font-size="11.00" fill="#000000">FACIESID</text>
<polygon fill="none" stroke="#000000" points="259.5,-75.7 259.5,-97.7 368.5,-97.7 368.5,-75.7 259.5,-75.7"/>
<image xlink:href="../../images/foreignKeys.png" width="11px" height="12px" preserveAspectRatio="xMinYMin meet" x="264.5" y="-92.7"/>
<text text-anchor="start" x="283.5" y="-82.8" font-family="Helvetica,sans-Serif" font-size="11.00" fill="#000000">LAKETYPEID</text>
<polygon fill="none" stroke="#000000" points="259.5,-56.7 259.5,-75.7 368.5,-75.7 368.5,-56.7 259.5,-56.7"/>
<text text-anchor="start" x="262.5" y="-62.8" font-family="Helvetica,sans-Serif" font-size="11.00" fill="#000000">...</text>
<polygon fill="#ffffff" stroke="transparent" points="259.5,-37.7 259.5,-56.7 284.5,-56.7 284.5,-37.7 259.5,-37.7"/>
<polygon fill="none" stroke="#000000" points="259.5,-37.7 259.5,-56.7 284.5,-56.7 284.5,-37.7 259.5,-37.7"/>
<text text-anchor="start" x="262.5" y="-43.8" font-family="Helvetica,sans-Serif" font-size="11.00" fill="#000000">&lt; 9</text>
<polygon fill="#ffffff" stroke="transparent" points="284.5,-37.7 284.5,-56.7 345.5,-56.7 345.5,-37.7 284.5,-37.7"/>
<polygon fill="none" stroke="#000000" points="284.5,-37.7 284.5,-56.7 345.5,-56.7 345.5,-37.7 284.5,-37.7"/>
<text text-anchor="start" x="288.7089" y="-43.8" font-family="Helvetica,sans-Serif" font-size="11.00" fill="#000000">4.551 rows</text>
<polygon fill="#ffffff" stroke="transparent" points="345.5,-37.7 345.5,-56.7 368.5,-56.7 368.5,-37.7 345.5,-37.7"/>
<polygon fill="none" stroke="#000000" points="345.5,-37.7 345.5,-56.7 368.5,-56.7 368.5,-37.7 345.5,-37.7"/>
<text text-anchor="start" x="349.9053" y="-43.8" font-family="Helvetica,sans-Serif" font-size="11.00" fill="#000000">2 &gt;</text>
</a>
</g>
</g>
<!-- sed_geotypeID -->
<g id="node2" class="node">
<title>sed_geotypeID</title>
<g id="a_node2"><a xlink:href="../../tables/sed_geotypeID.html" xlink:title="sed_geotypeID" target="_top">
<polygon fill="#ffffff" stroke="transparent" points="8,-120.7 8,-276.7 210,-276.7 210,-120.7 8,-120.7"/>
<polygon fill="#f5f5f5" stroke="transparent" points="10,-251.7 10,-274.7 208,-274.7 208,-251.7 10,-251.7"/>
<polygon fill="none" stroke="#000000" points="10,-251.7 10,-274.7 208,-274.7 208,-251.7 10,-251.7"/>
<text text-anchor="start" x="15" y="-260.3" font-family="Helvetica,sans-Serif" font-weight="bold" font-size="11.00" fill="#000000">sed_geotypeID</text>
<text text-anchor="start" x="173.0437" y="-259.8" font-family="Helvetica,sans-Serif" font-size="11.00" fill="#000000">[table]</text>
<polygon fill="none" stroke="#000000" points="10,-229.7 10,-251.7 116,-251.7 116,-229.7 10,-229.7"/>
<image xlink:href="../../images/primaryKeys.png" width="11px" height="12px" preserveAspectRatio="xMinYMin meet" x="15" y="-246.7"/>
<text text-anchor="start" x="30" y="-236.8" font-family="Helvetica,sans-Serif" font-size="11.00" fill="#000000">GEOTYPEID</text>
<polygon fill="none" stroke="#000000" points="116,-229.7 116,-251.7 208,-251.7 208,-229.7 116,-229.7"/>
<text text-anchor="start" x="119" y="-237.4" font-family="Helvetica,sans-Serif" font-size="11.00" fill="#000000">smallserial[5]</text>
<polygon fill="#ffffff" stroke="transparent" points="10,-207.7 10,-229.7 116,-229.7 116,-207.7 10,-207.7"/>
<polygon fill="none" stroke="#000000" points="10,-207.7 10,-229.7 116,-229.7 116,-207.7 10,-207.7"/>
<text text-anchor="start" x="30" y="-214.8" font-family="Helvetica,sans-Serif" font-size="11.00" fill="#000000">GEOTYPE</text>
<polygon fill="none" stroke="#000000" points="116,-207.7 116,-229.7 208,-229.7 208,-207.7 116,-207.7"/>
<text text-anchor="start" x="119" y="-215.4" font-family="Helvetica,sans-Serif" font-size="11.00" fill="#000000">text[2147483647]</text>
<polygon fill="none" stroke="#000000" points="10,-185.7 10,-207.7 116,-207.7 116,-185.7 10,-185.7"/>
<text text-anchor="start" x="30" y="-192.8" font-family="Helvetica,sans-Serif" font-size="11.00" fill="#000000">CREATED_AT</text>
<polygon fill="none" stroke="#000000" points="116,-185.7 116,-207.7 208,-207.7 208,-185.7 116,-185.7"/>
<text text-anchor="start" x="118.6023" y="-193.4" font-family="Helvetica,sans-Serif" font-size="11.00" fill="#000000">timestamptz[35,6]</text>
<polygon fill="none" stroke="#000000" points="10,-163.7 10,-185.7 116,-185.7 116,-163.7 10,-163.7"/>
<text text-anchor="start" x="30" y="-170.8" font-family="Helvetica,sans-Serif" font-size="11.00" fill="#000000">UPDATED_AT</text>
<polygon fill="none" stroke="#000000" points="116,-163.7 116,-185.7 208,-185.7 208,-163.7 116,-163.7"/>
<text text-anchor="start" x="118.6023" y="-171.4" font-family="Helvetica,sans-Serif" font-size="11.00" fill="#000000">timestamptz[35,6]</text>
<polygon fill="none" stroke="#000000" points="10,-141.7 10,-163.7 116,-163.7 116,-141.7 10,-141.7"/>
<text text-anchor="start" x="30" y="-148.8" font-family="Helvetica,sans-Serif" font-size="11.00" fill="#000000">PARENTID</text>
<polygon fill="none" stroke="#000000" points="116,-141.7 116,-163.7 208,-163.7 208,-141.7 116,-141.7"/>
<text text-anchor="start" x="119" y="-149.4" font-family="Helvetica,sans-Serif" font-size="11.00" fill="#000000">int2[5]</text>
<polygon fill="#ffffff" stroke="transparent" points="10,-122.7 10,-141.7 51,-141.7 51,-122.7 10,-122.7"/>
<polygon fill="none" stroke="#000000" points="10,-122.7 10,-141.7 51,-141.7 51,-122.7 10,-122.7"/>
<text text-anchor="start" x="13" y="-128.8" font-family="Helvetica,sans-Serif" font-size="11.00" fill="#000000">&lt; 0</text>
<polygon fill="#ffffff" stroke="transparent" points="51,-122.7 51,-141.7 116,-141.7 116,-122.7 51,-122.7"/>
<polygon fill="none" stroke="#000000" points="51,-122.7 51,-141.7 116,-141.7 116,-122.7 51,-122.7"/>
<text text-anchor="start" x="74.4956" y="-128.8" font-family="Helvetica,sans-Serif" font-size="11.00" fill="#000000">32 rows</text>
<polygon fill="#ffffff" stroke="transparent" points="116,-122.7 116,-141.7 208,-141.7 208,-122.7 116,-122.7"/>
<polygon fill="none" stroke="#000000" points="116,-122.7 116,-141.7 208,-141.7 208,-122.7 116,-122.7"/>
<text text-anchor="start" x="189.4053" y="-128.8" font-family="Helvetica,sans-Serif" font-size="11.00" fill="#000000">1 &gt;</text>
<polygon fill="none" stroke="#000000" stroke-width="2" points="9,-121.7 9,-275.7 209,-275.7 209,-121.7 9,-121.7"/>
</a>
</g>
</g>
<!-- sed_Sample&#45;&gt;sed_geotypeID -->
<g id="edge1" class="edge">
<title>sed_Sample:w&#45;&gt;sed_geotypeID:e</title>
<path fill="none" stroke="#000000" d="M245.0156,-240.7C232.6771,-240.7 225.1667,-240.7 208,-240.7"/>
<polygon fill="#000000" stroke="#000000" points="251.5,-240.7001 259.5,-244.3 255.5,-240.7 259.5,-240.7 259.5,-240.7 259.5,-240.7 255.5,-240.7 259.5,-237.1 251.5,-240.7001 251.5,-240.7001"/>
<ellipse fill="none" stroke="#000000" cx="248.3" cy="-240.7001" rx="3.2" ry="3.2"/>
</g>
</g>
</svg>
