<?xml version="1.0" encoding="UTF-8" standalone="no"?>
<!DOCTYPE svg PUBLIC "-//W3C//DTD SVG 1.1//EN"
 "http://www.w3.org/Graphics/SVG/1.1/DTD/svg11.dtd">
<!-- Generated by graphviz version 2.40.1 (20161225.0304)
 -->
<!-- Title: twoDegreesRelationshipsDiagram Pages: 1 -->
<svg width="569pt" height="841pt"
 viewBox="0.00 0.00 569.00 841.20" xmlns="http://www.w3.org/2000/svg" xmlns:xlink="http://www.w3.org/1999/xlink">
<g id="graph0" class="graph" transform="scale(1 1) rotate(0) translate(4 837.2)">
<title>twoDegreesRelationshipsDiagram</title>
<polygon fill="#ffffff" stroke="transparent" points="-4,4 -4,-837.2 565,-837.2 565,4 -4,4"/>
<text text-anchor="middle" x="72.4936" y="-7.3" font-family="Helvetica,sans-Serif" font-size="11.00" fill="#000000">Generated by SchemaSpy</text>
<!-- sed&#45;osl_DataCore -->
<g id="node1" class="node">
<title>sed&#45;osl_DataCore</title>
<g id="a_node1"><a xlink:href="../../tables/sed-osl_DataCore.html" xlink:title="sed&#45;osl_DataCore" target="_top">
<polygon fill="#ffffff" stroke="transparent" points="412,-588.2 412,-649.2 553,-649.2 553,-588.2 412,-588.2"/>
<polygon fill="#f5f5f5" stroke="transparent" points="412.5,-625.7 412.5,-648.7 553.5,-648.7 553.5,-625.7 412.5,-625.7"/>
<polygon fill="none" stroke="#000000" points="412.5,-625.7 412.5,-648.7 553.5,-648.7 553.5,-625.7 412.5,-625.7"/>
<text text-anchor="start" x="417.5" y="-634.3" font-family="Helvetica,sans-Serif" font-weight="bold" font-size="11.00" fill="#000000">sed&#45;osl_DataCore</text>
<text text-anchor="start" x="519.0219" y="-633.8" font-family="Helvetica,sans-Serif" font-size="11.00" fill="#000000">[table]</text>
<polygon fill="none" stroke="#000000" points="412.5,-606.7 412.5,-625.7 553.5,-625.7 553.5,-606.7 412.5,-606.7"/>
<text text-anchor="start" x="415.5" y="-612.8" font-family="Helvetica,sans-Serif" font-size="11.00" fill="#000000">...</text>
<polygon fill="#ffffff" stroke="transparent" points="412.5,-587.7 412.5,-606.7 456.5,-606.7 456.5,-587.7 412.5,-587.7"/>
<polygon fill="none" stroke="#000000" points="412.5,-587.7 412.5,-606.7 456.5,-606.7 456.5,-587.7 412.5,-587.7"/>
<text text-anchor="start" x="415.5" y="-593.8" font-family="Helvetica,sans-Serif" font-size="11.00" fill="#000000">&lt; 20</text>
<polygon fill="#ffffff" stroke="transparent" points="456.5,-587.7 456.5,-606.7 523.5,-606.7 523.5,-587.7 456.5,-587.7"/>
<polygon fill="none" stroke="#000000" points="456.5,-587.7 456.5,-606.7 523.5,-606.7 523.5,-587.7 456.5,-587.7"/>
<text text-anchor="start" x="466.7089" y="-593.8" font-family="Helvetica,sans-Serif" font-size="11.00" fill="#000000">2.458 rows</text>
<polygon fill="#ffffff" stroke="transparent" points="523.5,-587.7 523.5,-606.7 553.5,-606.7 553.5,-587.7 523.5,-587.7"/>
<polygon fill="none" stroke="#000000" points="523.5,-587.7 523.5,-606.7 553.5,-606.7 553.5,-587.7 523.5,-587.7"/>
<text text-anchor="start" x="534.9053" y="-593.8" font-family="Helvetica,sans-Serif" font-size="11.00" fill="#000000">1 &gt;</text>
</a>
</g>
</g>
<!-- sed_Sample -->
<g id="node2" class="node">
<title>sed_Sample</title>
<g id="a_node2"><a xlink:href="../../tables/sed_Sample.html" xlink:title="sed_Sample" target="_top">
<polygon fill="#ffffff" stroke="transparent" points="254,-328.2 254,-609.2 363,-609.2 363,-328.2 254,-328.2"/>
<polygon fill="#f5f5f5" stroke="transparent" points="254.5,-585.7 254.5,-608.7 363.5,-608.7 363.5,-585.7 254.5,-585.7"/>
<polygon fill="none" stroke="#000000" points="254.5,-585.7 254.5,-608.7 363.5,-608.7 363.5,-585.7 254.5,-585.7"/>
<text text-anchor="start" x="259.5" y="-594.3" font-family="Helvetica,sans-Serif" font-weight="bold" font-size="11.00" fill="#000000">sed_Sample</text>
<text text-anchor="start" x="329.0219" y="-593.8" font-family="Helvetica,sans-Serif" font-size="11.00" fill="#000000">[table]</text>
<polygon fill="none" stroke="#000000" points="254.5,-563.7 254.5,-585.7 363.5,-585.7 363.5,-563.7 254.5,-563.7"/>
<image xlink:href="../../images/primaryKeys.png" width="11px" height="12px" preserveAspectRatio="xMinYMin meet" x="259.5" y="-580.7"/>
<text text-anchor="start" x="278.5" y="-570.8" font-family="Helvetica,sans-Serif" font-size="11.00" fill="#000000">SMPID</text>
<polygon fill="none" stroke="#000000" points="254.5,-541.7 254.5,-563.7 363.5,-563.7 363.5,-541.7 254.5,-541.7"/>
<image xlink:href="../../images/foreignKeys.png" width="11px" height="12px" preserveAspectRatio="xMinYMin meet" x="259.5" y="-558.7"/>
<text text-anchor="start" x="278.5" y="-548.8" font-family="Helvetica,sans-Serif" font-size="11.00" fill="#000000">SITEID</text>
<polygon fill="none" stroke="#000000" points="254.5,-519.7 254.5,-541.7 363.5,-541.7 363.5,-519.7 254.5,-519.7"/>
<image xlink:href="../../images/foreignKeys.png" width="11px" height="12px" preserveAspectRatio="xMinYMin meet" x="259.5" y="-536.7"/>
<text text-anchor="start" x="278.5" y="-526.8" font-family="Helvetica,sans-Serif" font-size="11.00" fill="#000000">GEOTYPEID</text>
<polygon fill="none" stroke="#000000" points="254.5,-497.7 254.5,-519.7 363.5,-519.7 363.5,-497.7 254.5,-497.7"/>
<image xlink:href="../../images/foreignKeys.png" width="11px" height="12px" preserveAspectRatio="xMinYMin meet" x="259.5" y="-514.7"/>
<text text-anchor="start" x="278.5" y="-504.8" font-family="Helvetica,sans-Serif" font-size="11.00" fill="#000000">DEPCONID</text>
<polygon fill="none" stroke="#000000" points="254.5,-475.7 254.5,-497.7 363.5,-497.7 363.5,-475.7 254.5,-475.7"/>
<image xlink:href="../../images/foreignKeys.png" width="11px" height="12px" preserveAspectRatio="xMinYMin meet" x="259.5" y="-492.7"/>
<text text-anchor="start" x="278.5" y="-482.8" font-family="Helvetica,sans-Serif" font-size="11.00" fill="#000000">GEOMMODID</text>
<polygon fill="none" stroke="#000000" points="254.5,-453.7 254.5,-475.7 363.5,-475.7 363.5,-453.7 254.5,-453.7"/>
<image xlink:href="../../images/foreignKeys.png" width="11px" height="12px" preserveAspectRatio="xMinYMin meet" x="259.5" y="-470.7"/>
<text text-anchor="start" x="278.5" y="-460.8" font-family="Helvetica,sans-Serif" font-size="11.00" fill="#000000">MORPHID</text>
<polygon fill="none" stroke="#000000" points="254.5,-431.7 254.5,-453.7 363.5,-453.7 363.5,-431.7 254.5,-431.7"/>
<image xlink:href="../../images/foreignKeys.png" width="11px" height="12px" preserveAspectRatio="xMinYMin meet" x="259.5" y="-448.7"/>
<text text-anchor="start" x="278.5" y="-438.8" font-family="Helvetica,sans-Serif" font-size="11.00" fill="#000000">SITETYPEID</text>
<polygon fill="none" stroke="#000000" points="254.5,-409.7 254.5,-431.7 363.5,-431.7 363.5,-409.7 254.5,-409.7"/>
<image xlink:href="../../images/foreignKeys.png" width="11px" height="12px" preserveAspectRatio="xMinYMin meet" x="259.5" y="-426.7"/>
<text text-anchor="start" x="278.5" y="-416.8" font-family="Helvetica,sans-Serif" font-size="11.00" fill="#000000">SED_MATID</text>
<polygon fill="none" stroke="#000000" points="254.5,-387.7 254.5,-409.7 363.5,-409.7 363.5,-387.7 254.5,-387.7"/>
<image xlink:href="../../images/foreignKeys.png" width="11px" height="12px" preserveAspectRatio="xMinYMin meet" x="259.5" y="-404.7"/>
<text text-anchor="start" x="278.5" y="-394.8" font-family="Helvetica,sans-Serif" font-size="11.00" fill="#000000">FACIESID</text>
<polygon fill="none" stroke="#000000" points="254.5,-365.7 254.5,-387.7 363.5,-387.7 363.5,-365.7 254.5,-365.7"/>
<image xlink:href="../../images/foreignKeys.png" width="11px" height="12px" preserveAspectRatio="xMinYMin meet" x="259.5" y="-382.7"/>
<text text-anchor="start" x="278.5" y="-372.8" font-family="Helvetica,sans-Serif" font-size="11.00" fill="#000000">LAKETYPEID</text>
<polygon fill="none" stroke="#000000" points="254.5,-346.7 254.5,-365.7 363.5,-365.7 363.5,-346.7 254.5,-346.7"/>
<text text-anchor="start" x="257.5" y="-352.8" font-family="Helvetica,sans-Serif" font-size="11.00" fill="#000000">...</text>
<polygon fill="#ffffff" stroke="transparent" points="254.5,-327.7 254.5,-346.7 279.5,-346.7 279.5,-327.7 254.5,-327.7"/>
<polygon fill="none" stroke="#000000" points="254.5,-327.7 254.5,-346.7 279.5,-346.7 279.5,-327.7 254.5,-327.7"/>
<text text-anchor="start" x="257.5" y="-333.8" font-family="Helvetica,sans-Serif" font-size="11.00" fill="#000000">&lt; 9</text>
<polygon fill="#ffffff" stroke="transparent" points="279.5,-327.7 279.5,-346.7 340.5,-346.7 340.5,-327.7 279.5,-327.7"/>
<polygon fill="none" stroke="#000000" points="279.5,-327.7 279.5,-346.7 340.5,-346.7 340.5,-327.7 279.5,-327.7"/>
<text text-anchor="start" x="283.7089" y="-333.8" font-family="Helvetica,sans-Serif" font-size="11.00" fill="#000000">3.181 rows</text>
<polygon fill="#ffffff" stroke="transparent" points="340.5,-327.7 340.5,-346.7 363.5,-346.7 363.5,-327.7 340.5,-327.7"/>
<polygon fill="none" stroke="#000000" points="340.5,-327.7 340.5,-346.7 363.5,-346.7 363.5,-327.7 340.5,-327.7"/>
<text text-anchor="start" x="344.9053" y="-333.8" font-family="Helvetica,sans-Serif" font-size="11.00" fill="#000000">2 &gt;</text>
</a>
</g>
</g>
<!-- sed&#45;osl_DataCore&#45;&gt;sed_Sample -->
<g id="edge1" class="edge">
<title>sed&#45;osl_DataCore:w&#45;&gt;sed_Sample:e</title>
<path fill="none" stroke="#000000" d="M398.6819,-610.9968C385.7811,-600.2274 385.9061,-574.7 363.5,-574.7"/>
<polygon fill="#000000" stroke="#000000" points="404.9267,-613.1222 411.34,-619.108 408.7133,-614.4111 412.5,-615.7 412.5,-615.7 412.5,-615.7 408.7133,-614.4111 413.66,-612.292 404.9267,-613.1222 404.9267,-613.1222"/>
<ellipse fill="none" stroke="#000000" cx="401.8973" cy="-612.0911" rx="3.2" ry="3.2"/>
</g>
<!-- sed_depconID -->
<g id="node4" class="node">
<title>sed_depconID</title>
<g id="a_node4"><a xlink:href="../../tables/sed_depconID.html" xlink:title="sed_depconID" target="_top">
<polygon fill="#ffffff" stroke="transparent" points="46,-604.2 46,-665.2 167,-665.2 167,-604.2 46,-604.2"/>
<polygon fill="#f5f5f5" stroke="transparent" points="46.5,-641.7 46.5,-664.7 167.5,-664.7 167.5,-641.7 46.5,-641.7"/>
<polygon fill="none" stroke="#000000" points="46.5,-641.7 46.5,-664.7 167.5,-664.7 167.5,-641.7 46.5,-641.7"/>
<text text-anchor="start" x="51.5" y="-650.3" font-family="Helvetica,sans-Serif" font-weight="bold" font-size="11.00" fill="#000000">sed_depconID</text>
<text text-anchor="start" x="133.0219" y="-649.8" font-family="Helvetica,sans-Serif" font-size="11.00" fill="#000000">[table]</text>
<polygon fill="none" stroke="#000000" points="46.5,-622.7 46.5,-641.7 167.5,-641.7 167.5,-622.7 46.5,-622.7"/>
<text text-anchor="start" x="49.5" y="-628.8" font-family="Helvetica,sans-Serif" font-size="11.00" fill="#000000">...</text>
<polygon fill="#ffffff" stroke="transparent" points="46.5,-603.7 46.5,-622.7 83.5,-622.7 83.5,-603.7 46.5,-603.7"/>
<polygon fill="none" stroke="#000000" points="46.5,-603.7 46.5,-622.7 83.5,-622.7 83.5,-603.7 46.5,-603.7"/>
<text text-anchor="start" x="49.5" y="-609.8" font-family="Helvetica,sans-Serif" font-size="11.00" fill="#000000"> &#160;</text>
<polygon fill="#ffffff" stroke="transparent" points="83.5,-603.7 83.5,-622.7 133.5,-622.7 133.5,-603.7 83.5,-603.7"/>
<polygon fill="none" stroke="#000000" points="83.5,-603.7 83.5,-622.7 133.5,-622.7 133.5,-603.7 83.5,-603.7"/>
<text text-anchor="start" x="98.1105" y="-609.8" font-family="Helvetica,sans-Serif" font-size="11.00" fill="#000000">6 rows</text>
<polygon fill="#ffffff" stroke="transparent" points="133.5,-603.7 133.5,-622.7 167.5,-622.7 167.5,-603.7 133.5,-603.7"/>
<polygon fill="none" stroke="#000000" points="133.5,-603.7 133.5,-622.7 167.5,-622.7 167.5,-603.7 133.5,-603.7"/>
<text text-anchor="start" x="148.9053" y="-609.8" font-family="Helvetica,sans-Serif" font-size="11.00" fill="#000000">1 &gt;</text>
</a>
</g>
</g>
<!-- sed_Sample&#45;&gt;sed_depconID -->
<g id="edge3" class="edge">
<title>sed_Sample:w&#45;&gt;sed_depconID:e</title>
<path fill="none" stroke="#000000" d="M240.1999,-511.7394C219.0163,-523.3114 235.1801,-565.3902 213,-593.7 196.7509,-614.4398 193.8472,-631.7 167.5,-631.7"/>
<polygon fill="#000000" stroke="#000000" points="246.6748,-510.3632 255.2485,-512.2213 250.5874,-509.5316 254.5,-508.7 254.5,-508.7 254.5,-508.7 250.5874,-509.5316 253.7515,-505.1787 246.6748,-510.3632 246.6748,-510.3632"/>
<ellipse fill="none" stroke="#000000" cx="243.5447" cy="-511.0285" rx="3.2" ry="3.2"/>
</g>
<!-- sed_faciesID -->
<g id="node5" class="node">
<title>sed_faciesID</title>
<g id="a_node5"><a xlink:href="../../tables/sed_faciesID.html" xlink:title="sed_faciesID" target="_top">
<polygon fill="#ffffff" stroke="transparent" points="50.5,-120.2 50.5,-181.2 162.5,-181.2 162.5,-120.2 50.5,-120.2"/>
<polygon fill="#f5f5f5" stroke="transparent" points="50.5,-157.7 50.5,-180.7 162.5,-180.7 162.5,-157.7 50.5,-157.7"/>
<polygon fill="none" stroke="#000000" points="50.5,-157.7 50.5,-180.7 162.5,-180.7 162.5,-157.7 50.5,-157.7"/>
<text text-anchor="start" x="55.5" y="-166.3" font-family="Helvetica,sans-Serif" font-weight="bold" font-size="11.00" fill="#000000">sed_faciesID</text>
<text text-anchor="start" x="128.0219" y="-165.8" font-family="Helvetica,sans-Serif" font-size="11.00" fill="#000000">[table]</text>
<polygon fill="none" stroke="#000000" points="50.5,-138.7 50.5,-157.7 162.5,-157.7 162.5,-138.7 50.5,-138.7"/>
<text text-anchor="start" x="53.5" y="-144.8" font-family="Helvetica,sans-Serif" font-size="11.00" fill="#000000">...</text>
<polygon fill="#ffffff" stroke="transparent" points="50.5,-119.7 50.5,-138.7 79.5,-138.7 79.5,-119.7 50.5,-119.7"/>
<polygon fill="none" stroke="#000000" points="50.5,-119.7 50.5,-138.7 79.5,-138.7 79.5,-119.7 50.5,-119.7"/>
<text text-anchor="start" x="53.5" y="-125.8" font-family="Helvetica,sans-Serif" font-size="11.00" fill="#000000"> &#160;</text>
<polygon fill="#ffffff" stroke="transparent" points="79.5,-119.7 79.5,-138.7 132.5,-138.7 132.5,-119.7 79.5,-119.7"/>
<polygon fill="none" stroke="#000000" points="79.5,-119.7 79.5,-138.7 132.5,-138.7 132.5,-119.7 79.5,-119.7"/>
<text text-anchor="start" x="90.9956" y="-125.8" font-family="Helvetica,sans-Serif" font-size="11.00" fill="#000000">10 rows</text>
<polygon fill="#ffffff" stroke="transparent" points="132.5,-119.7 132.5,-138.7 162.5,-138.7 162.5,-119.7 132.5,-119.7"/>
<polygon fill="none" stroke="#000000" points="132.5,-119.7 132.5,-138.7 162.5,-138.7 162.5,-119.7 132.5,-119.7"/>
<text text-anchor="start" x="143.9053" y="-125.8" font-family="Helvetica,sans-Serif" font-size="11.00" fill="#000000">1 &gt;</text>
</a>
</g>
</g>
<!-- sed_Sample&#45;&gt;sed_faciesID -->
<g id="edge4" class="edge">
<title>sed_Sample:w&#45;&gt;sed_faciesID:e</title>
<path fill="none" stroke="#000000" d="M241.2908,-392.7178C213.474,-362.6092 233.8856,-227.6779 213,-191.7 198.0547,-165.9549 192.2687,-147.7 162.5,-147.7"/>
<polygon fill="#000000" stroke="#000000" points="247.2125,-395.3996 253.0148,-401.9794 250.8562,-397.0498 254.5,-398.7 254.5,-398.7 254.5,-398.7 250.8562,-397.0498 255.9852,-395.4206 247.2125,-395.3996 247.2125,-395.3996"/>
<ellipse fill="none" stroke="#000000" cx="244.2975" cy="-394.0794" rx="3.2" ry="3.2"/>
</g>
<!-- sed_geommodID -->
<g id="node6" class="node">
<title>sed_geommodID</title>
<g id="a_node6"><a xlink:href="../../tables/sed_geommodID.html" xlink:title="sed_geommodID" target="_top">
<polygon fill="#ffffff" stroke="transparent" points="39,-522.2 39,-583.2 174,-583.2 174,-522.2 39,-522.2"/>
<polygon fill="#f5f5f5" stroke="transparent" points="39.5,-559.7 39.5,-582.7 174.5,-582.7 174.5,-559.7 39.5,-559.7"/>
<polygon fill="none" stroke="#000000" points="39.5,-559.7 39.5,-582.7 174.5,-582.7 174.5,-559.7 39.5,-559.7"/>
<text text-anchor="start" x="44.5" y="-568.3" font-family="Helvetica,sans-Serif" font-weight="bold" font-size="11.00" fill="#000000">sed_geommodID</text>
<text text-anchor="start" x="140.0219" y="-567.8" font-family="Helvetica,sans-Serif" font-size="11.00" fill="#000000">[table]</text>
<polygon fill="none" stroke="#000000" points="39.5,-540.7 39.5,-559.7 174.5,-559.7 174.5,-540.7 39.5,-540.7"/>
<text text-anchor="start" x="42.5" y="-546.8" font-family="Helvetica,sans-Serif" font-size="11.00" fill="#000000">...</text>
<polygon fill="#ffffff" stroke="transparent" points="39.5,-521.7 39.5,-540.7 83.5,-540.7 83.5,-521.7 39.5,-521.7"/>
<polygon fill="none" stroke="#000000" points="39.5,-521.7 39.5,-540.7 83.5,-540.7 83.5,-521.7 39.5,-521.7"/>
<text text-anchor="start" x="42.5" y="-527.8" font-family="Helvetica,sans-Serif" font-size="11.00" fill="#000000"> &#160;</text>
<polygon fill="#ffffff" stroke="transparent" points="83.5,-521.7 83.5,-540.7 137.5,-540.7 137.5,-521.7 83.5,-521.7"/>
<polygon fill="none" stroke="#000000" points="83.5,-521.7 83.5,-540.7 137.5,-540.7 137.5,-521.7 83.5,-521.7"/>
<text text-anchor="start" x="102.1105" y="-527.8" font-family="Helvetica,sans-Serif" font-size="11.00" fill="#000000">8 rows</text>
<polygon fill="#ffffff" stroke="transparent" points="137.5,-521.7 137.5,-540.7 174.5,-540.7 174.5,-521.7 137.5,-521.7"/>
<polygon fill="none" stroke="#000000" points="137.5,-521.7 137.5,-540.7 174.5,-540.7 174.5,-521.7 137.5,-521.7"/>
<text text-anchor="start" x="155.9053" y="-527.8" font-family="Helvetica,sans-Serif" font-size="11.00" fill="#000000">1 &gt;</text>
</a>
</g>
</g>
<!-- sed_Sample&#45;&gt;sed_geommodID -->
<g id="edge5" class="edge">
<title>sed_Sample:w&#45;&gt;sed_geommodID:e</title>
<path fill="none" stroke="#000000" d="M240.3143,-489.2477C210.9715,-501.034 214.2767,-549.7 174.5,-549.7"/>
<polygon fill="#000000" stroke="#000000" points="246.626,-488.1142 255.1364,-490.2433 250.563,-487.4071 254.5,-486.7 254.5,-486.7 254.5,-486.7 250.563,-487.4071 253.8636,-483.1567 246.626,-488.1142 246.626,-488.1142"/>
<ellipse fill="none" stroke="#000000" cx="243.4764" cy="-488.6799" rx="3.2" ry="3.2"/>
</g>
<!-- sed_geotypeID -->
<g id="node7" class="node">
<title>sed_geotypeID</title>
<g id="a_node7"><a xlink:href="../../tables/sed_geotypeID.html" xlink:title="sed_geotypeID" target="_top">
<polygon fill="#ffffff" stroke="transparent" points="44.5,-686.2 44.5,-747.2 168.5,-747.2 168.5,-686.2 44.5,-686.2"/>
<polygon fill="#f5f5f5" stroke="transparent" points="44.5,-723.7 44.5,-746.7 168.5,-746.7 168.5,-723.7 44.5,-723.7"/>
<polygon fill="none" stroke="#000000" points="44.5,-723.7 44.5,-746.7 168.5,-746.7 168.5,-723.7 44.5,-723.7"/>
<text text-anchor="start" x="49.5" y="-732.3" font-family="Helvetica,sans-Serif" font-weight="bold" font-size="11.00" fill="#000000">sed_geotypeID</text>
<text text-anchor="start" x="134.0219" y="-731.8" font-family="Helvetica,sans-Serif" font-size="11.00" fill="#000000">[table]</text>
<polygon fill="none" stroke="#000000" points="44.5,-704.7 44.5,-723.7 168.5,-723.7 168.5,-704.7 44.5,-704.7"/>
<text text-anchor="start" x="47.5" y="-710.8" font-family="Helvetica,sans-Serif" font-size="11.00" fill="#000000">...</text>
<polygon fill="#ffffff" stroke="transparent" points="44.5,-685.7 44.5,-704.7 79.5,-704.7 79.5,-685.7 44.5,-685.7"/>
<polygon fill="none" stroke="#000000" points="44.5,-685.7 44.5,-704.7 79.5,-704.7 79.5,-685.7 44.5,-685.7"/>
<text text-anchor="start" x="47.5" y="-691.8" font-family="Helvetica,sans-Serif" font-size="11.00" fill="#000000"> &#160;</text>
<polygon fill="#ffffff" stroke="transparent" points="79.5,-685.7 79.5,-704.7 135.5,-704.7 135.5,-685.7 79.5,-685.7"/>
<polygon fill="none" stroke="#000000" points="79.5,-685.7 79.5,-704.7 135.5,-704.7 135.5,-685.7 79.5,-685.7"/>
<text text-anchor="start" x="93.9956" y="-691.8" font-family="Helvetica,sans-Serif" font-size="11.00" fill="#000000">16 rows</text>
<polygon fill="#ffffff" stroke="transparent" points="135.5,-685.7 135.5,-704.7 168.5,-704.7 168.5,-685.7 135.5,-685.7"/>
<polygon fill="none" stroke="#000000" points="135.5,-685.7 135.5,-704.7 168.5,-704.7 168.5,-685.7 135.5,-685.7"/>
<text text-anchor="start" x="149.9053" y="-691.8" font-family="Helvetica,sans-Serif" font-size="11.00" fill="#000000">1 &gt;</text>
</a>
</g>
</g>
<!-- sed_Sample&#45;&gt;sed_geotypeID -->
<g id="edge6" class="edge">
<title>sed_Sample:w&#45;&gt;sed_geotypeID:e</title>
<path fill="none" stroke="#000000" d="M240.2024,-532.5035C197.1542,-545.3574 246.2065,-624.0514 213,-675.7 198.9351,-697.5763 194.5076,-713.7 168.5,-713.7"/>
<polygon fill="#000000" stroke="#000000" points="246.5629,-531.7013 254.9506,-534.2717 250.5314,-531.2006 254.5,-530.7 254.5,-530.7 254.5,-530.7 250.5314,-531.2006 254.0494,-527.1283 246.5629,-531.7013 246.5629,-531.7013"/>
<ellipse fill="none" stroke="#000000" cx="243.3881" cy="-532.1018" rx="3.2" ry="3.2"/>
</g>
<!-- sed_laketypeID -->
<g id="node8" class="node">
<title>sed_laketypeID</title>
<g id="a_node8"><a xlink:href="../../tables/sed_laketypeID.html" xlink:title="sed_laketypeID" target="_top">
<polygon fill="#ffffff" stroke="transparent" points="43.5,-38.2 43.5,-99.2 169.5,-99.2 169.5,-38.2 43.5,-38.2"/>
<polygon fill="#f5f5f5" stroke="transparent" points="43.5,-75.7 43.5,-98.7 169.5,-98.7 169.5,-75.7 43.5,-75.7"/>
<polygon fill="none" stroke="#000000" points="43.5,-75.7 43.5,-98.7 169.5,-98.7 169.5,-75.7 43.5,-75.7"/>
<text text-anchor="start" x="48.5" y="-84.3" font-family="Helvetica,sans-Serif" font-weight="bold" font-size="11.00" fill="#000000">sed_laketypeID</text>
<text text-anchor="start" x="135.0219" y="-83.8" font-family="Helvetica,sans-Serif" font-size="11.00" fill="#000000">[table]</text>
<polygon fill="none" stroke="#000000" points="43.5,-56.7 43.5,-75.7 169.5,-75.7 169.5,-56.7 43.5,-56.7"/>
<text text-anchor="start" x="46.5" y="-62.8" font-family="Helvetica,sans-Serif" font-size="11.00" fill="#000000">...</text>
<polygon fill="#ffffff" stroke="transparent" points="43.5,-37.7 43.5,-56.7 84.5,-56.7 84.5,-37.7 43.5,-37.7"/>
<polygon fill="none" stroke="#000000" points="43.5,-37.7 43.5,-56.7 84.5,-56.7 84.5,-37.7 43.5,-37.7"/>
<text text-anchor="start" x="46.5" y="-43.8" font-family="Helvetica,sans-Serif" font-size="11.00" fill="#000000">&lt; 1</text>
<polygon fill="#ffffff" stroke="transparent" points="84.5,-37.7 84.5,-56.7 138.5,-56.7 138.5,-37.7 84.5,-37.7"/>
<polygon fill="none" stroke="#000000" points="84.5,-37.7 84.5,-56.7 138.5,-56.7 138.5,-37.7 84.5,-37.7"/>
<text text-anchor="start" x="96.9956" y="-43.8" font-family="Helvetica,sans-Serif" font-size="11.00" fill="#000000">58 rows</text>
<polygon fill="#ffffff" stroke="transparent" points="138.5,-37.7 138.5,-56.7 169.5,-56.7 169.5,-37.7 138.5,-37.7"/>
<polygon fill="none" stroke="#000000" points="138.5,-37.7 138.5,-56.7 169.5,-56.7 169.5,-37.7 138.5,-37.7"/>
<text text-anchor="start" x="150.9053" y="-43.8" font-family="Helvetica,sans-Serif" font-size="11.00" fill="#000000">2 &gt;</text>
</a>
</g>
</g>
<!-- sed_Sample&#45;&gt;sed_laketypeID -->
<g id="edge7" class="edge">
<title>sed_Sample:w&#45;&gt;sed_laketypeID:e</title>
<path fill="none" stroke="#000000" d="M240.7442,-371.8034C202.0576,-339.6475 237.6015,-158.5006 213,-109.7 200.6211,-85.1447 196.999,-65.7 169.5,-65.7"/>
<polygon fill="#000000" stroke="#000000" points="246.9633,-374.0171 253.2927,-380.0915 250.7316,-375.3586 254.5,-376.7 254.5,-376.7 254.5,-376.7 250.7316,-375.3586 255.7073,-373.3085 246.9633,-374.0171 246.9633,-374.0171"/>
<ellipse fill="none" stroke="#000000" cx="243.9486" cy="-372.944" rx="3.2" ry="3.2"/>
</g>
<!-- sed_morphID -->
<g id="node9" class="node">
<title>sed_morphID</title>
<g id="a_node9"><a xlink:href="../../tables/sed_morphID.html" xlink:title="sed_morphID" target="_top">
<polygon fill="#ffffff" stroke="transparent" points="8,-366.7 8,-500.7 205,-500.7 205,-366.7 8,-366.7"/>
<polygon fill="#f5f5f5" stroke="transparent" points="10.5,-475.7 10.5,-498.7 203.5,-498.7 203.5,-475.7 10.5,-475.7"/>
<polygon fill="none" stroke="#000000" points="10.5,-475.7 10.5,-498.7 203.5,-498.7 203.5,-475.7 10.5,-475.7"/>
<text text-anchor="start" x="15.5" y="-484.3" font-family="Helvetica,sans-Serif" font-weight="bold" font-size="11.00" fill="#000000">sed_morphID</text>
<text text-anchor="start" x="168.5437" y="-483.8" font-family="Helvetica,sans-Serif" font-size="11.00" fill="#000000">[table]</text>
<polygon fill="none" stroke="#000000" points="10.5,-453.7 10.5,-475.7 111.5,-475.7 111.5,-453.7 10.5,-453.7"/>
<image xlink:href="../../images/primaryKeys.png" width="11px" height="12px" preserveAspectRatio="xMinYMin meet" x="15.5" y="-470.7"/>
<text text-anchor="start" x="30.5" y="-460.8" font-family="Helvetica,sans-Serif" font-size="11.00" fill="#000000">MORPHID</text>
<polygon fill="none" stroke="#000000" points="111.5,-453.7 111.5,-475.7 203.5,-475.7 203.5,-453.7 111.5,-453.7"/>
<text text-anchor="start" x="114.5" y="-461.4" font-family="Helvetica,sans-Serif" font-size="11.00" fill="#000000">smallserial[5]</text>
<polygon fill="#ffffff" stroke="transparent" points="10.5,-431.7 10.5,-453.7 111.5,-453.7 111.5,-431.7 10.5,-431.7"/>
<polygon fill="none" stroke="#000000" points="10.5,-431.7 10.5,-453.7 111.5,-453.7 111.5,-431.7 10.5,-431.7"/>
<text text-anchor="start" x="30.5" y="-438.8" font-family="Helvetica,sans-Serif" font-size="11.00" fill="#000000">MORPH</text>
<polygon fill="none" stroke="#000000" points="111.5,-431.7 111.5,-453.7 203.5,-453.7 203.5,-431.7 111.5,-431.7"/>
<text text-anchor="start" x="114.5" y="-439.4" font-family="Helvetica,sans-Serif" font-size="11.00" fill="#000000">text[2147483647]</text>
<polygon fill="none" stroke="#000000" points="10.5,-409.7 10.5,-431.7 111.5,-431.7 111.5,-409.7 10.5,-409.7"/>
<text text-anchor="start" x="30.5" y="-416.8" font-family="Helvetica,sans-Serif" font-size="11.00" fill="#000000">CREATED_AT</text>
<polygon fill="none" stroke="#000000" points="111.5,-409.7 111.5,-431.7 203.5,-431.7 203.5,-409.7 111.5,-409.7"/>
<text text-anchor="start" x="114.1023" y="-417.4" font-family="Helvetica,sans-Serif" font-size="11.00" fill="#000000">timestamptz[35,6]</text>
<polygon fill="none" stroke="#000000" points="10.5,-387.7 10.5,-409.7 111.5,-409.7 111.5,-387.7 10.5,-387.7"/>
<text text-anchor="start" x="30.5" y="-394.8" font-family="Helvetica,sans-Serif" font-size="11.00" fill="#000000">UPDATED_AT</text>
<polygon fill="none" stroke="#000000" points="111.5,-387.7 111.5,-409.7 203.5,-409.7 203.5,-387.7 111.5,-387.7"/>
<text text-anchor="start" x="114.1023" y="-395.4" font-family="Helvetica,sans-Serif" font-size="11.00" fill="#000000">timestamptz[35,6]</text>
<polygon fill="#ffffff" stroke="transparent" points="10.5,-368.7 10.5,-387.7 49.5,-387.7 49.5,-368.7 10.5,-368.7"/>
<polygon fill="none" stroke="#000000" points="10.5,-368.7 10.5,-387.7 49.5,-387.7 49.5,-368.7 10.5,-368.7"/>
<text text-anchor="start" x="13.5" y="-374.8" font-family="Helvetica,sans-Serif" font-size="11.00" fill="#000000">&lt; 0</text>
<polygon fill="#ffffff" stroke="transparent" points="49.5,-368.7 49.5,-387.7 111.5,-387.7 111.5,-368.7 49.5,-368.7"/>
<polygon fill="none" stroke="#000000" points="49.5,-368.7 49.5,-387.7 111.5,-387.7 111.5,-368.7 49.5,-368.7"/>
<text text-anchor="start" x="69.9956" y="-374.8" font-family="Helvetica,sans-Serif" font-size="11.00" fill="#000000">13 rows</text>
<polygon fill="#ffffff" stroke="transparent" points="111.5,-368.7 111.5,-387.7 203.5,-387.7 203.5,-368.7 111.5,-368.7"/>
<polygon fill="none" stroke="#000000" points="111.5,-368.7 111.5,-387.7 203.5,-387.7 203.5,-368.7 111.5,-368.7"/>
<text text-anchor="start" x="184.9053" y="-374.8" font-family="Helvetica,sans-Serif" font-size="11.00" fill="#000000">1 &gt;</text>
<polygon fill="none" stroke="#000000" stroke-width="2" points="9,-367.7 9,-499.7 204,-499.7 204,-367.7 9,-367.7"/>
</a>
</g>
</g>
<!-- sed_Sample&#45;&gt;sed_morphID -->
<g id="edge8" class="edge">
<title>sed_Sample:w&#45;&gt;sed_morphID:e</title>
<path fill="none" stroke="#000000" d="M239.776,-464.7C227.7815,-464.7 220.3229,-464.7 203.5,-464.7"/>
<polygon fill="#000000" stroke="#000000" points="246.5,-464.7001 254.5,-468.3 250.5,-464.7 254.5,-464.7 254.5,-464.7 254.5,-464.7 250.5,-464.7 254.5,-461.1 246.5,-464.7001 246.5,-464.7001"/>
<ellipse fill="none" stroke="#000000" cx="243.3" cy="-464.7001" rx="3.2" ry="3.2"/>
</g>
<!-- global_GrainSize -->
<g id="node10" class="node">
<title>global_GrainSize</title>
<g id="a_node10"><a xlink:href="../../tables/global_GrainSize.html" xlink:title="global_GrainSize" target="_top">
<polygon fill="#ffffff" stroke="transparent" points="38.5,-202.2 38.5,-263.2 174.5,-263.2 174.5,-202.2 38.5,-202.2"/>
<polygon fill="#f5f5f5" stroke="transparent" points="38.5,-239.7 38.5,-262.7 174.5,-262.7 174.5,-239.7 38.5,-239.7"/>
<polygon fill="none" stroke="#000000" points="38.5,-239.7 38.5,-262.7 174.5,-262.7 174.5,-239.7 38.5,-239.7"/>
<text text-anchor="start" x="43.5" y="-248.3" font-family="Helvetica,sans-Serif" font-weight="bold" font-size="11.00" fill="#000000">global_GrainSize</text>
<text text-anchor="start" x="140.0219" y="-247.8" font-family="Helvetica,sans-Serif" font-size="11.00" fill="#000000">[table]</text>
<polygon fill="none" stroke="#000000" points="38.5,-220.7 38.5,-239.7 174.5,-239.7 174.5,-220.7 38.5,-220.7"/>
<text text-anchor="start" x="41.5" y="-226.8" font-family="Helvetica,sans-Serif" font-size="11.00" fill="#000000">...</text>
<polygon fill="#ffffff" stroke="transparent" points="38.5,-201.7 38.5,-220.7 79.5,-220.7 79.5,-201.7 38.5,-201.7"/>
<polygon fill="none" stroke="#000000" points="38.5,-201.7 38.5,-220.7 79.5,-220.7 79.5,-201.7 38.5,-201.7"/>
<text text-anchor="start" x="41.5" y="-207.8" font-family="Helvetica,sans-Serif" font-size="11.00" fill="#000000"> &#160;</text>
<polygon fill="#ffffff" stroke="transparent" points="79.5,-201.7 79.5,-220.7 138.5,-220.7 138.5,-201.7 79.5,-201.7"/>
<polygon fill="none" stroke="#000000" points="79.5,-201.7 79.5,-220.7 138.5,-220.7 138.5,-201.7 79.5,-201.7"/>
<text text-anchor="start" x="96.9956" y="-207.8" font-family="Helvetica,sans-Serif" font-size="11.00" fill="#000000">29 rows</text>
<polygon fill="#ffffff" stroke="transparent" points="138.5,-201.7 138.5,-220.7 174.5,-220.7 174.5,-201.7 138.5,-201.7"/>
<polygon fill="none" stroke="#000000" points="138.5,-201.7 138.5,-220.7 174.5,-220.7 174.5,-201.7 138.5,-201.7"/>
<text text-anchor="start" x="155.9053" y="-207.8" font-family="Helvetica,sans-Serif" font-size="11.00" fill="#000000">3 &gt;</text>
</a>
</g>
</g>
<!-- sed_Sample&#45;&gt;global_GrainSize -->
<g id="edge9" class="edge">
<title>sed_Sample:w&#45;&gt;global_GrainSize:e</title>
<path fill="none" stroke="#000000" d="M239.8525,-418.6842C174.3488,-398.2713 260.962,-229.7 174.5,-229.7"/>
<polygon fill="#000000" stroke="#000000" points="246.5747,-419.6093 254.0092,-424.2664 250.5373,-420.1546 254.5,-420.7 254.5,-420.7 254.5,-420.7 250.5373,-420.1546 254.9908,-417.1336 246.5747,-419.6093 246.5747,-419.6093"/>
<ellipse fill="none" stroke="#000000" cx="243.4046" cy="-419.173" rx="3.2" ry="3.2"/>
</g>
<!-- global_SiteMaster -->
<g id="node11" class="node">
<title>global_SiteMaster</title>
<g id="a_node11"><a xlink:href="../../tables/global_SiteMaster.html" xlink:title="global_SiteMaster" target="_top">
<polygon fill="#ffffff" stroke="transparent" points="36,-768.2 36,-829.2 177,-829.2 177,-768.2 36,-768.2"/>
<polygon fill="#f5f5f5" stroke="transparent" points="36.5,-805.7 36.5,-828.7 177.5,-828.7 177.5,-805.7 36.5,-805.7"/>
<polygon fill="none" stroke="#000000" points="36.5,-805.7 36.5,-828.7 177.5,-828.7 177.5,-805.7 36.5,-805.7"/>
<text text-anchor="start" x="41.5" y="-814.3" font-family="Helvetica,sans-Serif" font-weight="bold" font-size="11.00" fill="#000000">global_SiteMaster</text>
<text text-anchor="start" x="143.0219" y="-813.8" font-family="Helvetica,sans-Serif" font-size="11.00" fill="#000000">[table]</text>
<polygon fill="none" stroke="#000000" points="36.5,-786.7 36.5,-805.7 177.5,-805.7 177.5,-786.7 36.5,-786.7"/>
<text text-anchor="start" x="39.5" y="-792.8" font-family="Helvetica,sans-Serif" font-size="11.00" fill="#000000">...</text>
<polygon fill="#ffffff" stroke="transparent" points="36.5,-767.7 36.5,-786.7 74.5,-786.7 74.5,-767.7 36.5,-767.7"/>
<polygon fill="none" stroke="#000000" points="36.5,-767.7 36.5,-786.7 74.5,-786.7 74.5,-767.7 36.5,-767.7"/>
<text text-anchor="start" x="39.5" y="-773.8" font-family="Helvetica,sans-Serif" font-size="11.00" fill="#000000">&lt; 4</text>
<polygon fill="#ffffff" stroke="transparent" points="74.5,-767.7 74.5,-786.7 147.5,-786.7 147.5,-767.7 74.5,-767.7"/>
<polygon fill="none" stroke="#000000" points="74.5,-767.7 74.5,-786.7 147.5,-786.7 147.5,-767.7 74.5,-767.7"/>
<text text-anchor="start" x="84.594" y="-773.8" font-family="Helvetica,sans-Serif" font-size="11.00" fill="#000000">23.245 rows</text>
<polygon fill="#ffffff" stroke="transparent" points="147.5,-767.7 147.5,-786.7 177.5,-786.7 177.5,-767.7 147.5,-767.7"/>
<polygon fill="none" stroke="#000000" points="147.5,-767.7 147.5,-786.7 177.5,-786.7 177.5,-767.7 147.5,-767.7"/>
<text text-anchor="start" x="158.9053" y="-773.8" font-family="Helvetica,sans-Serif" font-size="11.00" fill="#000000">5 &gt;</text>
</a>
</g>
</g>
<!-- sed_Sample&#45;&gt;global_SiteMaster -->
<g id="edge10" class="edge">
<title>sed_Sample:w&#45;&gt;global_SiteMaster:e</title>
<path fill="none" stroke="#000000" d="M241.3297,-558.5855C213.3598,-588.2132 231.8698,-721.0591 213,-757.7 202.4182,-778.2475 200.6122,-795.7 177.5,-795.7"/>
<polygon fill="#000000" stroke="#000000" points="247.1961,-555.9639 255.9688,-555.9868 250.848,-554.332 254.5,-552.7 254.5,-552.7 254.5,-552.7 250.848,-554.332 253.0312,-549.4132 247.1961,-555.9639 247.1961,-555.9639"/>
<ellipse fill="none" stroke="#000000" cx="244.2745" cy="-557.2695" rx="3.2" ry="3.2"/>
</g>
<!-- sed_sitetypeID -->
<g id="node12" class="node">
<title>sed_sitetypeID</title>
<g id="a_node12"><a xlink:href="../../tables/sed_sitetypeID.html" xlink:title="sed_sitetypeID" target="_top">
<polygon fill="#ffffff" stroke="transparent" points="45,-284.2 45,-345.2 168,-345.2 168,-284.2 45,-284.2"/>
<polygon fill="#f5f5f5" stroke="transparent" points="45.5,-321.7 45.5,-344.7 168.5,-344.7 168.5,-321.7 45.5,-321.7"/>
<polygon fill="none" stroke="#000000" points="45.5,-321.7 45.5,-344.7 168.5,-344.7 168.5,-321.7 45.5,-321.7"/>
<text text-anchor="start" x="50.5" y="-330.3" font-family="Helvetica,sans-Serif" font-weight="bold" font-size="11.00" fill="#000000">sed_sitetypeID</text>
<text text-anchor="start" x="134.0219" y="-329.8" font-family="Helvetica,sans-Serif" font-size="11.00" fill="#000000">[table]</text>
<polygon fill="none" stroke="#000000" points="45.5,-302.7 45.5,-321.7 168.5,-321.7 168.5,-302.7 45.5,-302.7"/>
<text text-anchor="start" x="48.5" y="-308.8" font-family="Helvetica,sans-Serif" font-size="11.00" fill="#000000">...</text>
<polygon fill="#ffffff" stroke="transparent" points="45.5,-283.7 45.5,-302.7 83.5,-302.7 83.5,-283.7 45.5,-283.7"/>
<polygon fill="none" stroke="#000000" points="45.5,-283.7 45.5,-302.7 83.5,-302.7 83.5,-283.7 45.5,-283.7"/>
<text text-anchor="start" x="48.5" y="-289.8" font-family="Helvetica,sans-Serif" font-size="11.00" fill="#000000"> &#160;</text>
<polygon fill="#ffffff" stroke="transparent" points="83.5,-283.7 83.5,-302.7 134.5,-302.7 134.5,-283.7 83.5,-283.7"/>
<polygon fill="none" stroke="#000000" points="83.5,-283.7 83.5,-302.7 134.5,-302.7 134.5,-283.7 83.5,-283.7"/>
<text text-anchor="start" x="99.1105" y="-289.8" font-family="Helvetica,sans-Serif" font-size="11.00" fill="#000000">6 rows</text>
<polygon fill="#ffffff" stroke="transparent" points="134.5,-283.7 134.5,-302.7 168.5,-302.7 168.5,-283.7 134.5,-283.7"/>
<polygon fill="none" stroke="#000000" points="134.5,-283.7 134.5,-302.7 168.5,-302.7 168.5,-283.7 134.5,-283.7"/>
<text text-anchor="start" x="149.9053" y="-289.8" font-family="Helvetica,sans-Serif" font-size="11.00" fill="#000000">1 &gt;</text>
</a>
</g>
</g>
<!-- sed_Sample&#45;&gt;sed_sitetypeID -->
<g id="edge11" class="edge">
<title>sed_Sample:w&#45;&gt;sed_sitetypeID:e</title>
<path fill="none" stroke="#000000" d="M240.1868,-439.8026C218.0101,-428.3906 234.3335,-385.7051 213,-355.7 196.8833,-333.0322 196.3133,-311.7 168.5,-311.7"/>
<polygon fill="#000000" stroke="#000000" points="246.659,-441.1127 253.7857,-446.2284 250.5795,-441.9064 254.5,-442.7 254.5,-442.7 254.5,-442.7 250.5795,-441.9064 255.2143,-439.1716 246.659,-441.1127 246.659,-441.1127"/>
<ellipse fill="none" stroke="#000000" cx="243.5227" cy="-440.4778" rx="3.2" ry="3.2"/>
</g>
<!-- sed&#45;tl_DataCore -->
<g id="node3" class="node">
<title>sed&#45;tl_DataCore</title>
<g id="a_node3"><a xlink:href="../../tables/sed-tl_DataCore.html" xlink:title="sed&#45;tl_DataCore" target="_top">
<polygon fill="#ffffff" stroke="transparent" points="417,-506.2 417,-567.2 548,-567.2 548,-506.2 417,-506.2"/>
<polygon fill="#f5f5f5" stroke="transparent" points="417.5,-543.7 417.5,-566.7 548.5,-566.7 548.5,-543.7 417.5,-543.7"/>
<polygon fill="none" stroke="#000000" points="417.5,-543.7 417.5,-566.7 548.5,-566.7 548.5,-543.7 417.5,-543.7"/>
<text text-anchor="start" x="422.5" y="-552.3" font-family="Helvetica,sans-Serif" font-weight="bold" font-size="11.00" fill="#000000">sed&#45;tl_DataCore</text>
<text text-anchor="start" x="514.0219" y="-551.8" font-family="Helvetica,sans-Serif" font-size="11.00" fill="#000000">[table]</text>
<polygon fill="none" stroke="#000000" points="417.5,-524.7 417.5,-543.7 548.5,-543.7 548.5,-524.7 417.5,-524.7"/>
<text text-anchor="start" x="420.5" y="-530.8" font-family="Helvetica,sans-Serif" font-size="11.00" fill="#000000">...</text>
<polygon fill="#ffffff" stroke="transparent" points="417.5,-505.7 417.5,-524.7 460.5,-524.7 460.5,-505.7 417.5,-505.7"/>
<polygon fill="none" stroke="#000000" points="417.5,-505.7 417.5,-524.7 460.5,-524.7 460.5,-505.7 417.5,-505.7"/>
<text text-anchor="start" x="420.5" y="-511.8" font-family="Helvetica,sans-Serif" font-size="11.00" fill="#000000">&lt; 20</text>
<polygon fill="#ffffff" stroke="transparent" points="460.5,-505.7 460.5,-524.7 518.5,-524.7 518.5,-505.7 460.5,-505.7"/>
<polygon fill="none" stroke="#000000" points="460.5,-505.7 460.5,-524.7 518.5,-524.7 518.5,-505.7 460.5,-505.7"/>
<text text-anchor="start" x="470.8807" y="-511.8" font-family="Helvetica,sans-Serif" font-size="11.00" fill="#000000">966 rows</text>
<polygon fill="#ffffff" stroke="transparent" points="518.5,-505.7 518.5,-524.7 548.5,-524.7 548.5,-505.7 518.5,-505.7"/>
<polygon fill="none" stroke="#000000" points="518.5,-505.7 518.5,-524.7 548.5,-524.7 548.5,-505.7 518.5,-505.7"/>
<text text-anchor="start" x="529.9053" y="-511.8" font-family="Helvetica,sans-Serif" font-size="11.00" fill="#000000">1 &gt;</text>
</a>
</g>
</g>
<!-- sed&#45;tl_DataCore&#45;&gt;sed_Sample -->
<g id="edge2" class="edge">
<title>sed&#45;tl_DataCore:w&#45;&gt;sed_Sample:e</title>
<path fill="none" stroke="#000000" d="M403.4668,-537.7811C388.4259,-548.1516 387.7483,-574.7 363.5,-574.7"/>
<polygon fill="#000000" stroke="#000000" points="409.8183,-535.934 418.5053,-537.1568 413.6591,-534.817 417.5,-533.7 417.5,-533.7 417.5,-533.7 413.6591,-534.817 416.4947,-530.2432 409.8183,-535.934 409.8183,-535.934"/>
<ellipse fill="none" stroke="#000000" cx="406.7456" cy="-536.8277" rx="3.2" ry="3.2"/>
</g>
</g>
</svg>
