<?xml version="1.0" encoding="UTF-8" standalone="no"?>
<!DOCTYPE svg PUBLIC "-//W3C//DTD SVG 1.1//EN"
 "http://www.w3.org/Graphics/SVG/1.1/DTD/svg11.dtd">
<!-- Generated by graphviz version 2.40.1 (20161225.0304)
 -->
<!-- Title: twoDegreesRelationshipsDiagram Pages: 1 -->
<svg width="589pt" height="881pt"
 viewBox="0.00 0.00 589.23 881.20" xmlns="http://www.w3.org/2000/svg" xmlns:xlink="http://www.w3.org/1999/xlink">
<g id="graph0" class="graph" transform="scale(1 1) rotate(0) translate(4 877.2)">
<title>twoDegreesRelationshipsDiagram</title>
<polygon fill="#ffffff" stroke="transparent" points="-4,4 -4,-877.2 585.2345,-877.2 585.2345,4 -4,4"/>
<text text-anchor="middle" x="72.4936" y="-7.3" font-family="Helvetica,sans-Serif" font-size="11.00" fill="#000000">Generated by SchemaSpy</text>
<!-- sed&#45;osl_DataCore -->
<g id="node1" class="node">
<title>sed&#45;osl_DataCore</title>
<g id="a_node1"><a xlink:href="../../tables/sed-osl_DataCore.html" xlink:title="sed&#45;osl_DataCore" target="_top">
<polygon fill="#ffffff" stroke="transparent" points="432.2345,-631.2 432.2345,-692.2 573.2345,-692.2 573.2345,-631.2 432.2345,-631.2"/>
<polygon fill="#f5f5f5" stroke="transparent" points="432.7345,-668.7 432.7345,-691.7 573.7345,-691.7 573.7345,-668.7 432.7345,-668.7"/>
<polygon fill="none" stroke="#000000" points="432.7345,-668.7 432.7345,-691.7 573.7345,-691.7 573.7345,-668.7 432.7345,-668.7"/>
<text text-anchor="start" x="437.7345" y="-677.3" font-family="Helvetica,sans-Serif" font-weight="bold" font-size="11.00" fill="#000000">sed&#45;osl_DataCore</text>
<text text-anchor="start" x="539.2563" y="-676.8" font-family="Helvetica,sans-Serif" font-size="11.00" fill="#000000">[table]</text>
<polygon fill="none" stroke="#000000" points="432.7345,-649.7 432.7345,-668.7 573.7345,-668.7 573.7345,-649.7 432.7345,-649.7"/>
<text text-anchor="start" x="435.7345" y="-655.8" font-family="Helvetica,sans-Serif" font-size="11.00" fill="#000000">...</text>
<polygon fill="#ffffff" stroke="transparent" points="432.7345,-630.7 432.7345,-649.7 476.7345,-649.7 476.7345,-630.7 432.7345,-630.7"/>
<polygon fill="none" stroke="#000000" points="432.7345,-630.7 432.7345,-649.7 476.7345,-649.7 476.7345,-630.7 432.7345,-630.7"/>
<text text-anchor="start" x="435.7345" y="-636.8" font-family="Helvetica,sans-Serif" font-size="11.00" fill="#000000">&lt; 20</text>
<polygon fill="#ffffff" stroke="transparent" points="476.7345,-630.7 476.7345,-649.7 543.7345,-649.7 543.7345,-630.7 476.7345,-630.7"/>
<polygon fill="none" stroke="#000000" points="476.7345,-630.7 476.7345,-649.7 543.7345,-649.7 543.7345,-630.7 476.7345,-630.7"/>
<text text-anchor="start" x="486.9434" y="-636.8" font-family="Helvetica,sans-Serif" font-size="11.00" fill="#000000">3.466 rows</text>
<polygon fill="#ffffff" stroke="transparent" points="543.7345,-630.7 543.7345,-649.7 573.7345,-649.7 573.7345,-630.7 543.7345,-630.7"/>
<polygon fill="none" stroke="#000000" points="543.7345,-630.7 543.7345,-649.7 573.7345,-649.7 573.7345,-630.7 543.7345,-630.7"/>
<text text-anchor="start" x="555.1398" y="-636.8" font-family="Helvetica,sans-Serif" font-size="11.00" fill="#000000">1 &gt;</text>
</a>
</g>
</g>
<!-- sed_Sample -->
<g id="node2" class="node">
<title>sed_Sample</title>
<g id="a_node2"><a xlink:href="../../tables/sed_Sample.html" xlink:title="sed_Sample" target="_top">
<polygon fill="#ffffff" stroke="transparent" points="274.2345,-371.2 274.2345,-652.2 383.2345,-652.2 383.2345,-371.2 274.2345,-371.2"/>
<polygon fill="#f5f5f5" stroke="transparent" points="274.7345,-628.7 274.7345,-651.7 383.7345,-651.7 383.7345,-628.7 274.7345,-628.7"/>
<polygon fill="none" stroke="#000000" points="274.7345,-628.7 274.7345,-651.7 383.7345,-651.7 383.7345,-628.7 274.7345,-628.7"/>
<text text-anchor="start" x="279.7345" y="-637.3" font-family="Helvetica,sans-Serif" font-weight="bold" font-size="11.00" fill="#000000">sed_Sample</text>
<text text-anchor="start" x="349.2563" y="-636.8" font-family="Helvetica,sans-Serif" font-size="11.00" fill="#000000">[table]</text>
<polygon fill="none" stroke="#000000" points="274.7345,-606.7 274.7345,-628.7 383.7345,-628.7 383.7345,-606.7 274.7345,-606.7"/>
<image xlink:href="../../images/primaryKeys.png" width="11px" height="12px" preserveAspectRatio="xMinYMin meet" x="279.734" y="-623.7"/>
<text text-anchor="start" x="298.7345" y="-613.8" font-family="Helvetica,sans-Serif" font-size="11.00" fill="#000000">SMPID</text>
<polygon fill="none" stroke="#000000" points="274.7345,-584.7 274.7345,-606.7 383.7345,-606.7 383.7345,-584.7 274.7345,-584.7"/>
<image xlink:href="../../images/foreignKeys.png" width="11px" height="12px" preserveAspectRatio="xMinYMin meet" x="279.734" y="-601.7"/>
<text text-anchor="start" x="298.7345" y="-591.8" font-family="Helvetica,sans-Serif" font-size="11.00" fill="#000000">SITEID</text>
<polygon fill="none" stroke="#000000" points="274.7345,-562.7 274.7345,-584.7 383.7345,-584.7 383.7345,-562.7 274.7345,-562.7"/>
<image xlink:href="../../images/foreignKeys.png" width="11px" height="12px" preserveAspectRatio="xMinYMin meet" x="279.734" y="-579.7"/>
<text text-anchor="start" x="298.7345" y="-569.8" font-family="Helvetica,sans-Serif" font-size="11.00" fill="#000000">GEOTYPEID</text>
<polygon fill="none" stroke="#000000" points="274.7345,-540.7 274.7345,-562.7 383.7345,-562.7 383.7345,-540.7 274.7345,-540.7"/>
<image xlink:href="../../images/foreignKeys.png" width="11px" height="12px" preserveAspectRatio="xMinYMin meet" x="279.734" y="-557.7"/>
<text text-anchor="start" x="298.7345" y="-547.8" font-family="Helvetica,sans-Serif" font-size="11.00" fill="#000000">DEPCONID</text>
<polygon fill="none" stroke="#000000" points="274.7345,-518.7 274.7345,-540.7 383.7345,-540.7 383.7345,-518.7 274.7345,-518.7"/>
<image xlink:href="../../images/foreignKeys.png" width="11px" height="12px" preserveAspectRatio="xMinYMin meet" x="279.734" y="-535.7"/>
<text text-anchor="start" x="298.7345" y="-525.8" font-family="Helvetica,sans-Serif" font-size="11.00" fill="#000000">GEOMMODID</text>
<polygon fill="none" stroke="#000000" points="274.7345,-496.7 274.7345,-518.7 383.7345,-518.7 383.7345,-496.7 274.7345,-496.7"/>
<image xlink:href="../../images/foreignKeys.png" width="11px" height="12px" preserveAspectRatio="xMinYMin meet" x="279.734" y="-513.7"/>
<text text-anchor="start" x="298.7345" y="-503.8" font-family="Helvetica,sans-Serif" font-size="11.00" fill="#000000">MORPHID</text>
<polygon fill="none" stroke="#000000" points="274.7345,-474.7 274.7345,-496.7 383.7345,-496.7 383.7345,-474.7 274.7345,-474.7"/>
<image xlink:href="../../images/foreignKeys.png" width="11px" height="12px" preserveAspectRatio="xMinYMin meet" x="279.734" y="-491.7"/>
<text text-anchor="start" x="298.7345" y="-481.8" font-family="Helvetica,sans-Serif" font-size="11.00" fill="#000000">SITETYPEID</text>
<polygon fill="none" stroke="#000000" points="274.7345,-452.7 274.7345,-474.7 383.7345,-474.7 383.7345,-452.7 274.7345,-452.7"/>
<image xlink:href="../../images/foreignKeys.png" width="11px" height="12px" preserveAspectRatio="xMinYMin meet" x="279.734" y="-469.7"/>
<text text-anchor="start" x="298.7345" y="-459.8" font-family="Helvetica,sans-Serif" font-size="11.00" fill="#000000">SED_MATID</text>
<polygon fill="none" stroke="#000000" points="274.7345,-430.7 274.7345,-452.7 383.7345,-452.7 383.7345,-430.7 274.7345,-430.7"/>
<image xlink:href="../../images/foreignKeys.png" width="11px" height="12px" preserveAspectRatio="xMinYMin meet" x="279.734" y="-447.7"/>
<text text-anchor="start" x="298.7345" y="-437.8" font-family="Helvetica,sans-Serif" font-size="11.00" fill="#000000">FACIESID</text>
<polygon fill="none" stroke="#000000" points="274.7345,-408.7 274.7345,-430.7 383.7345,-430.7 383.7345,-408.7 274.7345,-408.7"/>
<image xlink:href="../../images/foreignKeys.png" width="11px" height="12px" preserveAspectRatio="xMinYMin meet" x="279.734" y="-425.7"/>
<text text-anchor="start" x="298.7345" y="-415.8" font-family="Helvetica,sans-Serif" font-size="11.00" fill="#000000">LAKETYPEID</text>
<polygon fill="none" stroke="#000000" points="274.7345,-389.7 274.7345,-408.7 383.7345,-408.7 383.7345,-389.7 274.7345,-389.7"/>
<text text-anchor="start" x="277.7345" y="-395.8" font-family="Helvetica,sans-Serif" font-size="11.00" fill="#000000">...</text>
<polygon fill="#ffffff" stroke="transparent" points="274.7345,-370.7 274.7345,-389.7 299.7345,-389.7 299.7345,-370.7 274.7345,-370.7"/>
<polygon fill="none" stroke="#000000" points="274.7345,-370.7 274.7345,-389.7 299.7345,-389.7 299.7345,-370.7 274.7345,-370.7"/>
<text text-anchor="start" x="277.7345" y="-376.8" font-family="Helvetica,sans-Serif" font-size="11.00" fill="#000000">&lt; 9</text>
<polygon fill="#ffffff" stroke="transparent" points="299.7345,-370.7 299.7345,-389.7 360.7345,-389.7 360.7345,-370.7 299.7345,-370.7"/>
<polygon fill="none" stroke="#000000" points="299.7345,-370.7 299.7345,-389.7 360.7345,-389.7 360.7345,-370.7 299.7345,-370.7"/>
<text text-anchor="start" x="303.9434" y="-376.8" font-family="Helvetica,sans-Serif" font-size="11.00" fill="#000000">4.551 rows</text>
<polygon fill="#ffffff" stroke="transparent" points="360.7345,-370.7 360.7345,-389.7 383.7345,-389.7 383.7345,-370.7 360.7345,-370.7"/>
<polygon fill="none" stroke="#000000" points="360.7345,-370.7 360.7345,-389.7 383.7345,-389.7 383.7345,-370.7 360.7345,-370.7"/>
<text text-anchor="start" x="365.1398" y="-376.8" font-family="Helvetica,sans-Serif" font-size="11.00" fill="#000000">2 &gt;</text>
</a>
</g>
</g>
<!-- sed&#45;osl_DataCore&#45;&gt;sed_Sample -->
<g id="edge1" class="edge">
<title>sed&#45;osl_DataCore:w&#45;&gt;sed_Sample:e</title>
<path fill="none" stroke="#000000" d="M418.9164,-653.9968C406.0156,-643.2274 406.1405,-617.7 383.7345,-617.7"/>
<polygon fill="#000000" stroke="#000000" points="425.1612,-656.1222 431.5745,-662.108 428.9478,-657.4111 432.7345,-658.7 432.7345,-658.7 432.7345,-658.7 428.9478,-657.4111 433.8945,-655.292 425.1612,-656.1222 425.1612,-656.1222"/>
<ellipse fill="none" stroke="#000000" cx="422.1318" cy="-655.0911" rx="3.2" ry="3.2"/>
</g>
<!-- sed_faciesID -->
<g id="node4" class="node">
<title>sed_faciesID</title>
<g id="a_node4"><a xlink:href="../../tables/sed_faciesID.html" xlink:title="sed_faciesID" target="_top">
<polygon fill="#ffffff" stroke="transparent" points="28.2345,-120.7 28.2345,-276.7 225.2345,-276.7 225.2345,-120.7 28.2345,-120.7"/>
<polygon fill="#f5f5f5" stroke="transparent" points="30.7345,-251.7 30.7345,-274.7 223.7345,-274.7 223.7345,-251.7 30.7345,-251.7"/>
<polygon fill="none" stroke="#000000" points="30.7345,-251.7 30.7345,-274.7 223.7345,-274.7 223.7345,-251.7 30.7345,-251.7"/>
<text text-anchor="start" x="35.7345" y="-260.3" font-family="Helvetica,sans-Serif" font-weight="bold" font-size="11.00" fill="#000000">sed_faciesID</text>
<text text-anchor="start" x="188.7782" y="-259.8" font-family="Helvetica,sans-Serif" font-size="11.00" fill="#000000">[table]</text>
<polygon fill="none" stroke="#000000" points="30.7345,-229.7 30.7345,-251.7 131.7345,-251.7 131.7345,-229.7 30.7345,-229.7"/>
<image xlink:href="../../images/primaryKeys.png" width="11px" height="12px" preserveAspectRatio="xMinYMin meet" x="35.7345" y="-246.7"/>
<text text-anchor="start" x="50.7345" y="-236.8" font-family="Helvetica,sans-Serif" font-size="11.00" fill="#000000">FACIESID</text>
<polygon fill="none" stroke="#000000" points="131.7345,-229.7 131.7345,-251.7 223.7345,-251.7 223.7345,-229.7 131.7345,-229.7"/>
<text text-anchor="start" x="134.7345" y="-237.4" font-family="Helvetica,sans-Serif" font-size="11.00" fill="#000000">smallserial[5]</text>
<polygon fill="#ffffff" stroke="transparent" points="30.7345,-207.7 30.7345,-229.7 131.7345,-229.7 131.7345,-207.7 30.7345,-207.7"/>
<polygon fill="none" stroke="#000000" points="30.7345,-207.7 30.7345,-229.7 131.7345,-229.7 131.7345,-207.7 30.7345,-207.7"/>
<text text-anchor="start" x="50.7345" y="-214.8" font-family="Helvetica,sans-Serif" font-size="11.00" fill="#000000">FACIES</text>
<polygon fill="none" stroke="#000000" points="131.7345,-207.7 131.7345,-229.7 223.7345,-229.7 223.7345,-207.7 131.7345,-207.7"/>
<text text-anchor="start" x="134.7345" y="-215.4" font-family="Helvetica,sans-Serif" font-size="11.00" fill="#000000">text[2147483647]</text>
<polygon fill="none" stroke="#000000" points="30.7345,-185.7 30.7345,-207.7 131.7345,-207.7 131.7345,-185.7 30.7345,-185.7"/>
<text text-anchor="start" x="50.7345" y="-192.8" font-family="Helvetica,sans-Serif" font-size="11.00" fill="#000000">CREATED_AT</text>
<polygon fill="none" stroke="#000000" points="131.7345,-185.7 131.7345,-207.7 223.7345,-207.7 223.7345,-185.7 131.7345,-185.7"/>
<text text-anchor="start" x="134.3367" y="-193.4" font-family="Helvetica,sans-Serif" font-size="11.00" fill="#000000">timestamptz[35,6]</text>
<polygon fill="none" stroke="#000000" points="30.7345,-163.7 30.7345,-185.7 131.7345,-185.7 131.7345,-163.7 30.7345,-163.7"/>
<text text-anchor="start" x="50.7345" y="-170.8" font-family="Helvetica,sans-Serif" font-size="11.00" fill="#000000">UPDATED_AT</text>
<polygon fill="none" stroke="#000000" points="131.7345,-163.7 131.7345,-185.7 223.7345,-185.7 223.7345,-163.7 131.7345,-163.7"/>
<text text-anchor="start" x="134.3367" y="-171.4" font-family="Helvetica,sans-Serif" font-size="11.00" fill="#000000">timestamptz[35,6]</text>
<polygon fill="none" stroke="#000000" points="30.7345,-141.7 30.7345,-163.7 131.7345,-163.7 131.7345,-141.7 30.7345,-141.7"/>
<image xlink:href="../../images/foreignKeys.png" width="11px" height="12px" preserveAspectRatio="xMinYMin meet" x="35.7345" y="-158.7"/>
<text text-anchor="start" x="50.7345" y="-148.8" font-family="Helvetica,sans-Serif" font-size="11.00" fill="#000000">PARENTID</text>
<polygon fill="none" stroke="#000000" points="131.7345,-141.7 131.7345,-163.7 223.7345,-163.7 223.7345,-141.7 131.7345,-141.7"/>
<text text-anchor="start" x="134.7345" y="-149.4" font-family="Helvetica,sans-Serif" font-size="11.00" fill="#000000">int2[5]</text>
<polygon fill="#ffffff" stroke="transparent" points="30.7345,-122.7 30.7345,-141.7 69.7345,-141.7 69.7345,-122.7 30.7345,-122.7"/>
<polygon fill="none" stroke="#000000" points="30.7345,-122.7 30.7345,-141.7 69.7345,-141.7 69.7345,-122.7 30.7345,-122.7"/>
<text text-anchor="start" x="33.7345" y="-128.8" font-family="Helvetica,sans-Serif" font-size="11.00" fill="#000000">&lt; 1</text>
<polygon fill="#ffffff" stroke="transparent" points="69.7345,-122.7 69.7345,-141.7 131.7345,-141.7 131.7345,-122.7 69.7345,-122.7"/>
<polygon fill="none" stroke="#000000" points="69.7345,-122.7 69.7345,-141.7 131.7345,-141.7 131.7345,-122.7 69.7345,-122.7"/>
<text text-anchor="start" x="90.2301" y="-128.8" font-family="Helvetica,sans-Serif" font-size="11.00" fill="#000000">30 rows</text>
<polygon fill="#ffffff" stroke="transparent" points="131.7345,-122.7 131.7345,-141.7 223.7345,-141.7 223.7345,-122.7 131.7345,-122.7"/>
<polygon fill="none" stroke="#000000" points="131.7345,-122.7 131.7345,-141.7 223.7345,-141.7 223.7345,-122.7 131.7345,-122.7"/>
<text text-anchor="start" x="205.1398" y="-128.8" font-family="Helvetica,sans-Serif" font-size="11.00" fill="#000000">2 &gt;</text>
<polygon fill="none" stroke="#000000" stroke-width="2" points="29.2345,-121.7 29.2345,-275.7 224.2345,-275.7 224.2345,-121.7 29.2345,-121.7"/>
</a>
</g>
</g>
<!-- sed_Sample&#45;&gt;sed_faciesID -->
<g id="edge5" class="edge">
<title>sed_Sample:w&#45;&gt;sed_faciesID:e</title>
<path fill="none" stroke="#000000" d="M260.3736,-439.5787C197.889,-418.097 310.3183,-240.7 223.7345,-240.7"/>
<polygon fill="#000000" stroke="#000000" points="266.8204,-440.5309 274.2084,-445.2614 270.7774,-441.1155 274.7345,-441.7 274.7345,-441.7 274.7345,-441.7 270.7774,-441.1155 275.2606,-438.1386 266.8204,-440.5309 266.8204,-440.5309"/>
<ellipse fill="none" stroke="#000000" cx="263.6547" cy="-440.0633" rx="3.2" ry="3.2"/>
</g>
<!-- sed_depconID -->
<g id="node5" class="node">
<title>sed_depconID</title>
<g id="a_node5"><a xlink:href="../../tables/sed_depconID.html" xlink:title="sed_depconID" target="_top">
<polygon fill="#ffffff" stroke="transparent" points="66.2345,-644.2 66.2345,-705.2 187.2345,-705.2 187.2345,-644.2 66.2345,-644.2"/>
<polygon fill="#f5f5f5" stroke="transparent" points="66.7345,-681.7 66.7345,-704.7 187.7345,-704.7 187.7345,-681.7 66.7345,-681.7"/>
<polygon fill="none" stroke="#000000" points="66.7345,-681.7 66.7345,-704.7 187.7345,-704.7 187.7345,-681.7 66.7345,-681.7"/>
<text text-anchor="start" x="71.7345" y="-690.3" font-family="Helvetica,sans-Serif" font-weight="bold" font-size="11.00" fill="#000000">sed_depconID</text>
<text text-anchor="start" x="153.2563" y="-689.8" font-family="Helvetica,sans-Serif" font-size="11.00" fill="#000000">[table]</text>
<polygon fill="none" stroke="#000000" points="66.7345,-662.7 66.7345,-681.7 187.7345,-681.7 187.7345,-662.7 66.7345,-662.7"/>
<text text-anchor="start" x="69.7345" y="-668.8" font-family="Helvetica,sans-Serif" font-size="11.00" fill="#000000">...</text>
<polygon fill="#ffffff" stroke="transparent" points="66.7345,-643.7 66.7345,-662.7 103.7345,-662.7 103.7345,-643.7 66.7345,-643.7"/>
<polygon fill="none" stroke="#000000" points="66.7345,-643.7 66.7345,-662.7 103.7345,-662.7 103.7345,-643.7 66.7345,-643.7"/>
<text text-anchor="start" x="69.7345" y="-649.8" font-family="Helvetica,sans-Serif" font-size="11.00" fill="#000000"> &#160;</text>
<polygon fill="#ffffff" stroke="transparent" points="103.7345,-643.7 103.7345,-662.7 153.7345,-662.7 153.7345,-643.7 103.7345,-643.7"/>
<polygon fill="none" stroke="#000000" points="103.7345,-643.7 103.7345,-662.7 153.7345,-662.7 153.7345,-643.7 103.7345,-643.7"/>
<text text-anchor="start" x="118.345" y="-649.8" font-family="Helvetica,sans-Serif" font-size="11.00" fill="#000000">6 rows</text>
<polygon fill="#ffffff" stroke="transparent" points="153.7345,-643.7 153.7345,-662.7 187.7345,-662.7 187.7345,-643.7 153.7345,-643.7"/>
<polygon fill="none" stroke="#000000" points="153.7345,-643.7 153.7345,-662.7 187.7345,-662.7 187.7345,-643.7 153.7345,-643.7"/>
<text text-anchor="start" x="169.1398" y="-649.8" font-family="Helvetica,sans-Serif" font-size="11.00" fill="#000000">1 &gt;</text>
</a>
</g>
</g>
<!-- sed_Sample&#45;&gt;sed_depconID -->
<g id="edge4" class="edge">
<title>sed_Sample:w&#45;&gt;sed_depconID:e</title>
<path fill="none" stroke="#000000" d="M260.5036,-554.7842C240.1353,-566.1543 254.8818,-606.4742 233.2345,-633.7 216.8372,-654.3229 214.0817,-671.7 187.7345,-671.7"/>
<polygon fill="#000000" stroke="#000000" points="266.916,-553.3945 275.497,-555.2183 270.8252,-552.5473 274.7345,-551.7 274.7345,-551.7 274.7345,-551.7 270.8252,-552.5473 273.9719,-548.1817 266.916,-553.3945 266.916,-553.3945"/>
<ellipse fill="none" stroke="#000000" cx="263.7886" cy="-554.0723" rx="3.2" ry="3.2"/>
</g>
<!-- sed_geommodID -->
<g id="node6" class="node">
<title>sed_geommodID</title>
<g id="a_node6"><a xlink:href="../../tables/sed_geommodID.html" xlink:title="sed_geommodID" target="_top">
<polygon fill="#ffffff" stroke="transparent" points="59.2345,-562.2 59.2345,-623.2 194.2345,-623.2 194.2345,-562.2 59.2345,-562.2"/>
<polygon fill="#f5f5f5" stroke="transparent" points="59.7345,-599.7 59.7345,-622.7 194.7345,-622.7 194.7345,-599.7 59.7345,-599.7"/>
<polygon fill="none" stroke="#000000" points="59.7345,-599.7 59.7345,-622.7 194.7345,-622.7 194.7345,-599.7 59.7345,-599.7"/>
<text text-anchor="start" x="64.7345" y="-608.3" font-family="Helvetica,sans-Serif" font-weight="bold" font-size="11.00" fill="#000000">sed_geommodID</text>
<text text-anchor="start" x="160.2563" y="-607.8" font-family="Helvetica,sans-Serif" font-size="11.00" fill="#000000">[table]</text>
<polygon fill="none" stroke="#000000" points="59.7345,-580.7 59.7345,-599.7 194.7345,-599.7 194.7345,-580.7 59.7345,-580.7"/>
<text text-anchor="start" x="62.7345" y="-586.8" font-family="Helvetica,sans-Serif" font-size="11.00" fill="#000000">...</text>
<polygon fill="#ffffff" stroke="transparent" points="59.7345,-561.7 59.7345,-580.7 103.7345,-580.7 103.7345,-561.7 59.7345,-561.7"/>
<polygon fill="none" stroke="#000000" points="59.7345,-561.7 59.7345,-580.7 103.7345,-580.7 103.7345,-561.7 59.7345,-561.7"/>
<text text-anchor="start" x="62.7345" y="-567.8" font-family="Helvetica,sans-Serif" font-size="11.00" fill="#000000"> &#160;</text>
<polygon fill="#ffffff" stroke="transparent" points="103.7345,-561.7 103.7345,-580.7 157.7345,-580.7 157.7345,-561.7 103.7345,-561.7"/>
<polygon fill="none" stroke="#000000" points="103.7345,-561.7 103.7345,-580.7 157.7345,-580.7 157.7345,-561.7 103.7345,-561.7"/>
<text text-anchor="start" x="122.345" y="-567.8" font-family="Helvetica,sans-Serif" font-size="11.00" fill="#000000">8 rows</text>
<polygon fill="#ffffff" stroke="transparent" points="157.7345,-561.7 157.7345,-580.7 194.7345,-580.7 194.7345,-561.7 157.7345,-561.7"/>
<polygon fill="none" stroke="#000000" points="157.7345,-561.7 157.7345,-580.7 194.7345,-580.7 194.7345,-561.7 157.7345,-561.7"/>
<text text-anchor="start" x="176.1398" y="-567.8" font-family="Helvetica,sans-Serif" font-size="11.00" fill="#000000">1 &gt;</text>
</a>
</g>
</g>
<!-- sed_Sample&#45;&gt;sed_geommodID -->
<g id="edge6" class="edge">
<title>sed_Sample:w&#45;&gt;sed_geommodID:e</title>
<path fill="none" stroke="#000000" d="M260.3595,-532.2781C231.6789,-543.7625 233.6234,-589.7 194.7345,-589.7"/>
<polygon fill="#000000" stroke="#000000" points="266.8601,-531.1123 275.37,-533.2435 270.7973,-530.4061 274.7345,-529.7 274.7345,-529.7 274.7345,-529.7 270.7973,-530.4061 274.099,-526.1565 266.8601,-531.1123 266.8601,-531.1123"/>
<ellipse fill="none" stroke="#000000" cx="263.7104" cy="-531.6772" rx="3.2" ry="3.2"/>
</g>
<!-- sed_geotypeID -->
<g id="node7" class="node">
<title>sed_geotypeID</title>
<g id="a_node7"><a xlink:href="../../tables/sed_geotypeID.html" xlink:title="sed_geotypeID" target="_top">
<polygon fill="#ffffff" stroke="transparent" points="64.7345,-726.2 64.7345,-787.2 188.7345,-787.2 188.7345,-726.2 64.7345,-726.2"/>
<polygon fill="#f5f5f5" stroke="transparent" points="64.7345,-763.7 64.7345,-786.7 188.7345,-786.7 188.7345,-763.7 64.7345,-763.7"/>
<polygon fill="none" stroke="#000000" points="64.7345,-763.7 64.7345,-786.7 188.7345,-786.7 188.7345,-763.7 64.7345,-763.7"/>
<text text-anchor="start" x="69.7345" y="-772.3" font-family="Helvetica,sans-Serif" font-weight="bold" font-size="11.00" fill="#000000">sed_geotypeID</text>
<text text-anchor="start" x="154.2563" y="-771.8" font-family="Helvetica,sans-Serif" font-size="11.00" fill="#000000">[table]</text>
<polygon fill="none" stroke="#000000" points="64.7345,-744.7 64.7345,-763.7 188.7345,-763.7 188.7345,-744.7 64.7345,-744.7"/>
<text text-anchor="start" x="67.7345" y="-750.8" font-family="Helvetica,sans-Serif" font-size="11.00" fill="#000000">...</text>
<polygon fill="#ffffff" stroke="transparent" points="64.7345,-725.7 64.7345,-744.7 99.7345,-744.7 99.7345,-725.7 64.7345,-725.7"/>
<polygon fill="none" stroke="#000000" points="64.7345,-725.7 64.7345,-744.7 99.7345,-744.7 99.7345,-725.7 64.7345,-725.7"/>
<text text-anchor="start" x="67.7345" y="-731.8" font-family="Helvetica,sans-Serif" font-size="11.00" fill="#000000"> &#160;</text>
<polygon fill="#ffffff" stroke="transparent" points="99.7345,-725.7 99.7345,-744.7 155.7345,-744.7 155.7345,-725.7 99.7345,-725.7"/>
<polygon fill="none" stroke="#000000" points="99.7345,-725.7 99.7345,-744.7 155.7345,-744.7 155.7345,-725.7 99.7345,-725.7"/>
<text text-anchor="start" x="114.2301" y="-731.8" font-family="Helvetica,sans-Serif" font-size="11.00" fill="#000000">32 rows</text>
<polygon fill="#ffffff" stroke="transparent" points="155.7345,-725.7 155.7345,-744.7 188.7345,-744.7 188.7345,-725.7 155.7345,-725.7"/>
<polygon fill="none" stroke="#000000" points="155.7345,-725.7 155.7345,-744.7 188.7345,-744.7 188.7345,-725.7 155.7345,-725.7"/>
<text text-anchor="start" x="170.1398" y="-731.8" font-family="Helvetica,sans-Serif" font-size="11.00" fill="#000000">1 &gt;</text>
</a>
</g>
</g>
<!-- sed_Sample&#45;&gt;sed_geotypeID -->
<g id="edge7" class="edge">
<title>sed_Sample:w&#45;&gt;sed_geotypeID:e</title>
<path fill="none" stroke="#000000" d="M260.4278,-575.5478C218.583,-588.3843 265.8779,-665.2372 233.2345,-715.7 219.1086,-737.537 214.7421,-753.7 188.7345,-753.7"/>
<polygon fill="#000000" stroke="#000000" points="266.8004,-574.7248 275.1957,-577.2703 270.7674,-574.2124 274.7345,-573.7 274.7345,-573.7 274.7345,-573.7 270.7674,-574.2124 274.2733,-570.1297 266.8004,-574.7248 266.8004,-574.7248"/>
<ellipse fill="none" stroke="#000000" cx="263.6268" cy="-575.1347" rx="3.2" ry="3.2"/>
</g>
<!-- sed_laketypeID -->
<g id="node8" class="node">
<title>sed_laketypeID</title>
<g id="a_node8"><a xlink:href="../../tables/sed_laketypeID.html" xlink:title="sed_laketypeID" target="_top">
<polygon fill="#ffffff" stroke="transparent" points="63.7345,-38.2 63.7345,-99.2 189.7345,-99.2 189.7345,-38.2 63.7345,-38.2"/>
<polygon fill="#f5f5f5" stroke="transparent" points="63.7345,-75.7 63.7345,-98.7 189.7345,-98.7 189.7345,-75.7 63.7345,-75.7"/>
<polygon fill="none" stroke="#000000" points="63.7345,-75.7 63.7345,-98.7 189.7345,-98.7 189.7345,-75.7 63.7345,-75.7"/>
<text text-anchor="start" x="68.7345" y="-84.3" font-family="Helvetica,sans-Serif" font-weight="bold" font-size="11.00" fill="#000000">sed_laketypeID</text>
<text text-anchor="start" x="155.2563" y="-83.8" font-family="Helvetica,sans-Serif" font-size="11.00" fill="#000000">[table]</text>
<polygon fill="none" stroke="#000000" points="63.7345,-56.7 63.7345,-75.7 189.7345,-75.7 189.7345,-56.7 63.7345,-56.7"/>
<text text-anchor="start" x="66.7345" y="-62.8" font-family="Helvetica,sans-Serif" font-size="11.00" fill="#000000">...</text>
<polygon fill="#ffffff" stroke="transparent" points="63.7345,-37.7 63.7345,-56.7 104.7345,-56.7 104.7345,-37.7 63.7345,-37.7"/>
<polygon fill="none" stroke="#000000" points="63.7345,-37.7 63.7345,-56.7 104.7345,-56.7 104.7345,-37.7 63.7345,-37.7"/>
<text text-anchor="start" x="66.7345" y="-43.8" font-family="Helvetica,sans-Serif" font-size="11.00" fill="#000000">&lt; 1</text>
<polygon fill="#ffffff" stroke="transparent" points="104.7345,-37.7 104.7345,-56.7 158.7345,-56.7 158.7345,-37.7 104.7345,-37.7"/>
<polygon fill="none" stroke="#000000" points="104.7345,-37.7 104.7345,-56.7 158.7345,-56.7 158.7345,-37.7 104.7345,-37.7"/>
<text text-anchor="start" x="117.2301" y="-43.8" font-family="Helvetica,sans-Serif" font-size="11.00" fill="#000000">58 rows</text>
<polygon fill="#ffffff" stroke="transparent" points="158.7345,-37.7 158.7345,-56.7 189.7345,-56.7 189.7345,-37.7 158.7345,-37.7"/>
<polygon fill="none" stroke="#000000" points="158.7345,-37.7 158.7345,-56.7 189.7345,-56.7 189.7345,-37.7 158.7345,-37.7"/>
<text text-anchor="start" x="171.1398" y="-43.8" font-family="Helvetica,sans-Serif" font-size="11.00" fill="#000000">2 &gt;</text>
</a>
</g>
</g>
<!-- sed_Sample&#45;&gt;sed_laketypeID -->
<g id="edge8" class="edge">
<title>sed_Sample:w&#45;&gt;sed_laketypeID:e</title>
<path fill="none" stroke="#000000" d="M260.6872,-415.3725C213.8478,-382.1414 261.4719,-167.2158 233.2345,-109.7 221.1156,-85.0154 217.2335,-65.7 189.7345,-65.7"/>
<polygon fill="#000000" stroke="#000000" points="267.0891,-417.3447 273.6746,-423.1404 270.9118,-418.5223 274.7345,-419.7 274.7345,-419.7 274.7345,-419.7 270.9118,-418.5223 275.7944,-416.2596 267.0891,-417.3447 267.0891,-417.3447"/>
<ellipse fill="none" stroke="#000000" cx="264.0309" cy="-416.4025" rx="3.2" ry="3.2"/>
</g>
<!-- sed_morphID -->
<g id="node9" class="node">
<title>sed_morphID</title>
<g id="a_node9"><a xlink:href="../../tables/sed_morphID.html" xlink:title="sed_morphID" target="_top">
<polygon fill="#ffffff" stroke="transparent" points="69.2345,-480.2 69.2345,-541.2 184.2345,-541.2 184.2345,-480.2 69.2345,-480.2"/>
<polygon fill="#f5f5f5" stroke="transparent" points="69.7345,-517.7 69.7345,-540.7 184.7345,-540.7 184.7345,-517.7 69.7345,-517.7"/>
<polygon fill="none" stroke="#000000" points="69.7345,-517.7 69.7345,-540.7 184.7345,-540.7 184.7345,-517.7 69.7345,-517.7"/>
<text text-anchor="start" x="74.7345" y="-526.3" font-family="Helvetica,sans-Serif" font-weight="bold" font-size="11.00" fill="#000000">sed_morphID</text>
<text text-anchor="start" x="150.2563" y="-525.8" font-family="Helvetica,sans-Serif" font-size="11.00" fill="#000000">[table]</text>
<polygon fill="none" stroke="#000000" points="69.7345,-498.7 69.7345,-517.7 184.7345,-517.7 184.7345,-498.7 69.7345,-498.7"/>
<text text-anchor="start" x="72.7345" y="-504.8" font-family="Helvetica,sans-Serif" font-size="11.00" fill="#000000">...</text>
<polygon fill="#ffffff" stroke="transparent" points="69.7345,-479.7 69.7345,-498.7 100.7345,-498.7 100.7345,-479.7 69.7345,-479.7"/>
<polygon fill="none" stroke="#000000" points="69.7345,-479.7 69.7345,-498.7 100.7345,-498.7 100.7345,-479.7 69.7345,-479.7"/>
<text text-anchor="start" x="72.7345" y="-485.8" font-family="Helvetica,sans-Serif" font-size="11.00" fill="#000000"> &#160;</text>
<polygon fill="#ffffff" stroke="transparent" points="100.7345,-479.7 100.7345,-498.7 153.7345,-498.7 153.7345,-479.7 100.7345,-479.7"/>
<polygon fill="none" stroke="#000000" points="100.7345,-479.7 100.7345,-498.7 153.7345,-498.7 153.7345,-479.7 100.7345,-479.7"/>
<text text-anchor="start" x="112.2301" y="-485.8" font-family="Helvetica,sans-Serif" font-size="11.00" fill="#000000">13 rows</text>
<polygon fill="#ffffff" stroke="transparent" points="153.7345,-479.7 153.7345,-498.7 184.7345,-498.7 184.7345,-479.7 153.7345,-479.7"/>
<polygon fill="none" stroke="#000000" points="153.7345,-479.7 153.7345,-498.7 184.7345,-498.7 184.7345,-479.7 153.7345,-479.7"/>
<text text-anchor="start" x="166.1398" y="-485.8" font-family="Helvetica,sans-Serif" font-size="11.00" fill="#000000">1 &gt;</text>
</a>
</g>
</g>
<!-- sed_Sample&#45;&gt;sed_morphID -->
<g id="edge9" class="edge">
<title>sed_Sample:w&#45;&gt;sed_morphID:e</title>
<path fill="none" stroke="#000000" d="M260.244,-507.7C231.5491,-507.7 219.422,-507.7 184.7345,-507.7"/>
<polygon fill="#000000" stroke="#000000" points="266.7345,-507.7001 274.7345,-511.3 270.7345,-507.7 274.7345,-507.7 274.7345,-507.7 274.7345,-507.7 270.7345,-507.7 274.7345,-504.1 266.7345,-507.7001 266.7345,-507.7001"/>
<ellipse fill="none" stroke="#000000" cx="263.5345" cy="-507.7001" rx="3.2" ry="3.2"/>
</g>
<!-- global_GrainSize -->
<g id="node10" class="node">
<title>global_GrainSize</title>
<g id="a_node10"><a xlink:href="../../tables/global_GrainSize.html" xlink:title="global_GrainSize" target="_top">
<polygon fill="#ffffff" stroke="transparent" points="58.7345,-316.2 58.7345,-377.2 194.7345,-377.2 194.7345,-316.2 58.7345,-316.2"/>
<polygon fill="#f5f5f5" stroke="transparent" points="58.7345,-353.7 58.7345,-376.7 194.7345,-376.7 194.7345,-353.7 58.7345,-353.7"/>
<polygon fill="none" stroke="#000000" points="58.7345,-353.7 58.7345,-376.7 194.7345,-376.7 194.7345,-353.7 58.7345,-353.7"/>
<text text-anchor="start" x="63.7345" y="-362.3" font-family="Helvetica,sans-Serif" font-weight="bold" font-size="11.00" fill="#000000">global_GrainSize</text>
<text text-anchor="start" x="160.2563" y="-361.8" font-family="Helvetica,sans-Serif" font-size="11.00" fill="#000000">[table]</text>
<polygon fill="none" stroke="#000000" points="58.7345,-334.7 58.7345,-353.7 194.7345,-353.7 194.7345,-334.7 58.7345,-334.7"/>
<text text-anchor="start" x="61.7345" y="-340.8" font-family="Helvetica,sans-Serif" font-size="11.00" fill="#000000">...</text>
<polygon fill="#ffffff" stroke="transparent" points="58.7345,-315.7 58.7345,-334.7 99.7345,-334.7 99.7345,-315.7 58.7345,-315.7"/>
<polygon fill="none" stroke="#000000" points="58.7345,-315.7 58.7345,-334.7 99.7345,-334.7 99.7345,-315.7 58.7345,-315.7"/>
<text text-anchor="start" x="61.7345" y="-321.8" font-family="Helvetica,sans-Serif" font-size="11.00" fill="#000000"> &#160;</text>
<polygon fill="#ffffff" stroke="transparent" points="99.7345,-315.7 99.7345,-334.7 158.7345,-334.7 158.7345,-315.7 99.7345,-315.7"/>
<polygon fill="none" stroke="#000000" points="99.7345,-315.7 99.7345,-334.7 158.7345,-334.7 158.7345,-315.7 99.7345,-315.7"/>
<text text-anchor="start" x="117.2301" y="-321.8" font-family="Helvetica,sans-Serif" font-size="11.00" fill="#000000">29 rows</text>
<polygon fill="#ffffff" stroke="transparent" points="158.7345,-315.7 158.7345,-334.7 194.7345,-334.7 194.7345,-315.7 158.7345,-315.7"/>
<polygon fill="none" stroke="#000000" points="158.7345,-315.7 158.7345,-334.7 194.7345,-334.7 194.7345,-315.7 158.7345,-315.7"/>
<text text-anchor="start" x="176.1398" y="-321.8" font-family="Helvetica,sans-Serif" font-size="11.00" fill="#000000">3 &gt;</text>
</a>
</g>
</g>
<!-- sed_Sample&#45;&gt;global_GrainSize -->
<g id="edge10" class="edge">
<title>sed_Sample:w&#45;&gt;global_GrainSize:e</title>
<path fill="none" stroke="#000000" d="M260.5297,-460.6638C241.1881,-450.1268 251.8186,-414.3284 233.2345,-387.7 218.3632,-366.3915 220.7193,-343.7 194.7345,-343.7"/>
<polygon fill="#000000" stroke="#000000" points="266.9112,-462.0277 273.982,-467.2205 270.8229,-462.8639 274.7345,-463.7 274.7345,-463.7 274.7345,-463.7 270.8229,-462.8639 275.487,-460.1795 266.9112,-462.0277 266.9112,-462.0277"/>
<ellipse fill="none" stroke="#000000" cx="263.7819" cy="-461.3588" rx="3.2" ry="3.2"/>
</g>
<!-- global_SiteMaster -->
<g id="node11" class="node">
<title>global_SiteMaster</title>
<g id="a_node11"><a xlink:href="../../tables/global_SiteMaster.html" xlink:title="global_SiteMaster" target="_top">
<polygon fill="#ffffff" stroke="transparent" points="56.2345,-808.2 56.2345,-869.2 197.2345,-869.2 197.2345,-808.2 56.2345,-808.2"/>
<polygon fill="#f5f5f5" stroke="transparent" points="56.7345,-845.7 56.7345,-868.7 197.7345,-868.7 197.7345,-845.7 56.7345,-845.7"/>
<polygon fill="none" stroke="#000000" points="56.7345,-845.7 56.7345,-868.7 197.7345,-868.7 197.7345,-845.7 56.7345,-845.7"/>
<text text-anchor="start" x="61.7345" y="-854.3" font-family="Helvetica,sans-Serif" font-weight="bold" font-size="11.00" fill="#000000">global_SiteMaster</text>
<text text-anchor="start" x="163.2563" y="-853.8" font-family="Helvetica,sans-Serif" font-size="11.00" fill="#000000">[table]</text>
<polygon fill="none" stroke="#000000" points="56.7345,-826.7 56.7345,-845.7 197.7345,-845.7 197.7345,-826.7 56.7345,-826.7"/>
<text text-anchor="start" x="59.7345" y="-832.8" font-family="Helvetica,sans-Serif" font-size="11.00" fill="#000000">...</text>
<polygon fill="#ffffff" stroke="transparent" points="56.7345,-807.7 56.7345,-826.7 94.7345,-826.7 94.7345,-807.7 56.7345,-807.7"/>
<polygon fill="none" stroke="#000000" points="56.7345,-807.7 56.7345,-826.7 94.7345,-826.7 94.7345,-807.7 56.7345,-807.7"/>
<text text-anchor="start" x="59.7345" y="-813.8" font-family="Helvetica,sans-Serif" font-size="11.00" fill="#000000">&lt; 8</text>
<polygon fill="#ffffff" stroke="transparent" points="94.7345,-807.7 94.7345,-826.7 167.7345,-826.7 167.7345,-807.7 94.7345,-807.7"/>
<polygon fill="none" stroke="#000000" points="94.7345,-807.7 94.7345,-826.7 167.7345,-826.7 167.7345,-807.7 94.7345,-807.7"/>
<text text-anchor="start" x="104.8285" y="-813.8" font-family="Helvetica,sans-Serif" font-size="11.00" fill="#000000">26.209 rows</text>
<polygon fill="#ffffff" stroke="transparent" points="167.7345,-807.7 167.7345,-826.7 197.7345,-826.7 197.7345,-807.7 167.7345,-807.7"/>
<polygon fill="none" stroke="#000000" points="167.7345,-807.7 167.7345,-826.7 197.7345,-826.7 197.7345,-807.7 167.7345,-807.7"/>
<text text-anchor="start" x="179.1398" y="-813.8" font-family="Helvetica,sans-Serif" font-size="11.00" fill="#000000">6 &gt;</text>
</a>
</g>
</g>
<!-- sed_Sample&#45;&gt;global_SiteMaster -->
<g id="edge11" class="edge">
<title>sed_Sample:w&#45;&gt;global_SiteMaster:e</title>
<path fill="none" stroke="#000000" d="M261.3674,-601.8913C234.2161,-631.8463 251.809,-761.7599 233.2345,-797.7 222.6231,-818.2322 220.8467,-835.7 197.7345,-835.7"/>
<polygon fill="#000000" stroke="#000000" points="267.4753,-599.0623 276.2475,-598.9666 271.1049,-597.3811 274.7345,-595.7 274.7345,-595.7 274.7345,-595.7 271.1049,-597.3811 273.2215,-592.4334 267.4753,-599.0623 267.4753,-599.0623"/>
<ellipse fill="none" stroke="#000000" cx="264.5717" cy="-600.4072" rx="3.2" ry="3.2"/>
</g>
<!-- sed_sitetypeID -->
<g id="node12" class="node">
<title>sed_sitetypeID</title>
<g id="a_node12"><a xlink:href="../../tables/sed_sitetypeID.html" xlink:title="sed_sitetypeID" target="_top">
<polygon fill="#ffffff" stroke="transparent" points="65.2345,-398.2 65.2345,-459.2 188.2345,-459.2 188.2345,-398.2 65.2345,-398.2"/>
<polygon fill="#f5f5f5" stroke="transparent" points="65.7345,-435.7 65.7345,-458.7 188.7345,-458.7 188.7345,-435.7 65.7345,-435.7"/>
<polygon fill="none" stroke="#000000" points="65.7345,-435.7 65.7345,-458.7 188.7345,-458.7 188.7345,-435.7 65.7345,-435.7"/>
<text text-anchor="start" x="70.7345" y="-444.3" font-family="Helvetica,sans-Serif" font-weight="bold" font-size="11.00" fill="#000000">sed_sitetypeID</text>
<text text-anchor="start" x="154.2563" y="-443.8" font-family="Helvetica,sans-Serif" font-size="11.00" fill="#000000">[table]</text>
<polygon fill="none" stroke="#000000" points="65.7345,-416.7 65.7345,-435.7 188.7345,-435.7 188.7345,-416.7 65.7345,-416.7"/>
<text text-anchor="start" x="68.7345" y="-422.8" font-family="Helvetica,sans-Serif" font-size="11.00" fill="#000000">...</text>
<polygon fill="#ffffff" stroke="transparent" points="65.7345,-397.7 65.7345,-416.7 103.7345,-416.7 103.7345,-397.7 65.7345,-397.7"/>
<polygon fill="none" stroke="#000000" points="65.7345,-397.7 65.7345,-416.7 103.7345,-416.7 103.7345,-397.7 65.7345,-397.7"/>
<text text-anchor="start" x="68.7345" y="-403.8" font-family="Helvetica,sans-Serif" font-size="11.00" fill="#000000"> &#160;</text>
<polygon fill="#ffffff" stroke="transparent" points="103.7345,-397.7 103.7345,-416.7 154.7345,-416.7 154.7345,-397.7 103.7345,-397.7"/>
<polygon fill="none" stroke="#000000" points="103.7345,-397.7 103.7345,-416.7 154.7345,-416.7 154.7345,-397.7 103.7345,-397.7"/>
<text text-anchor="start" x="119.345" y="-403.8" font-family="Helvetica,sans-Serif" font-size="11.00" fill="#000000">6 rows</text>
<polygon fill="#ffffff" stroke="transparent" points="154.7345,-397.7 154.7345,-416.7 188.7345,-416.7 188.7345,-397.7 154.7345,-397.7"/>
<polygon fill="none" stroke="#000000" points="154.7345,-397.7 154.7345,-416.7 188.7345,-416.7 188.7345,-397.7 154.7345,-397.7"/>
<text text-anchor="start" x="170.1398" y="-403.8" font-family="Helvetica,sans-Serif" font-size="11.00" fill="#000000">1 &gt;</text>
</a>
</g>
</g>
<!-- sed_Sample&#45;&gt;sed_sitetypeID -->
<g id="edge12" class="edge">
<title>sed_Sample:w&#45;&gt;sed_sitetypeID:e</title>
<path fill="none" stroke="#000000" d="M260.3938,-483.4212C229.0802,-472.4615 229.8782,-425.7 188.7345,-425.7"/>
<polygon fill="#000000" stroke="#000000" points="266.8336,-484.4445 274.1695,-489.2554 270.7841,-485.0722 274.7345,-485.7 274.7345,-485.7 274.7345,-485.7 270.7841,-485.0722 275.2995,-482.1446 266.8336,-484.4445 266.8336,-484.4445"/>
<ellipse fill="none" stroke="#000000" cx="263.6733" cy="-483.9423" rx="3.2" ry="3.2"/>
</g>
<!-- sed&#45;tl_DataCore -->
<g id="node3" class="node">
<title>sed&#45;tl_DataCore</title>
<g id="a_node3"><a xlink:href="../../tables/sed-tl_DataCore.html" xlink:title="sed&#45;tl_DataCore" target="_top">
<polygon fill="#ffffff" stroke="transparent" points="437.2345,-549.2 437.2345,-610.2 568.2345,-610.2 568.2345,-549.2 437.2345,-549.2"/>
<polygon fill="#f5f5f5" stroke="transparent" points="437.7345,-586.7 437.7345,-609.7 568.7345,-609.7 568.7345,-586.7 437.7345,-586.7"/>
<polygon fill="none" stroke="#000000" points="437.7345,-586.7 437.7345,-609.7 568.7345,-609.7 568.7345,-586.7 437.7345,-586.7"/>
<text text-anchor="start" x="442.7345" y="-595.3" font-family="Helvetica,sans-Serif" font-weight="bold" font-size="11.00" fill="#000000">sed&#45;tl_DataCore</text>
<text text-anchor="start" x="534.2563" y="-594.8" font-family="Helvetica,sans-Serif" font-size="11.00" fill="#000000">[table]</text>
<polygon fill="none" stroke="#000000" points="437.7345,-567.7 437.7345,-586.7 568.7345,-586.7 568.7345,-567.7 437.7345,-567.7"/>
<text text-anchor="start" x="440.7345" y="-573.8" font-family="Helvetica,sans-Serif" font-size="11.00" fill="#000000">...</text>
<polygon fill="#ffffff" stroke="transparent" points="437.7345,-548.7 437.7345,-567.7 476.7345,-567.7 476.7345,-548.7 437.7345,-548.7"/>
<polygon fill="none" stroke="#000000" points="437.7345,-548.7 437.7345,-567.7 476.7345,-567.7 476.7345,-548.7 437.7345,-548.7"/>
<text text-anchor="start" x="440.7345" y="-554.8" font-family="Helvetica,sans-Serif" font-size="11.00" fill="#000000">&lt; 20</text>
<polygon fill="#ffffff" stroke="transparent" points="476.7345,-548.7 476.7345,-567.7 541.7345,-567.7 541.7345,-548.7 476.7345,-548.7"/>
<polygon fill="none" stroke="#000000" points="476.7345,-548.7 476.7345,-567.7 541.7345,-567.7 541.7345,-548.7 476.7345,-548.7"/>
<text text-anchor="start" x="484.9434" y="-554.8" font-family="Helvetica,sans-Serif" font-size="11.00" fill="#000000">1.328 rows</text>
<polygon fill="#ffffff" stroke="transparent" points="541.7345,-548.7 541.7345,-567.7 568.7345,-567.7 568.7345,-548.7 541.7345,-548.7"/>
<polygon fill="none" stroke="#000000" points="541.7345,-548.7 541.7345,-567.7 568.7345,-567.7 568.7345,-548.7 541.7345,-548.7"/>
<text text-anchor="start" x="550.1398" y="-554.8" font-family="Helvetica,sans-Serif" font-size="11.00" fill="#000000">1 &gt;</text>
</a>
</g>
</g>
<!-- sed&#45;tl_DataCore&#45;&gt;sed_Sample -->
<g id="edge2" class="edge">
<title>sed&#45;tl_DataCore:w&#45;&gt;sed_Sample:e</title>
<path fill="none" stroke="#000000" d="M423.7013,-580.7811C408.6603,-591.1516 407.9828,-617.7 383.7345,-617.7"/>
<polygon fill="#000000" stroke="#000000" points="430.0527,-578.934 438.7398,-580.1568 433.8936,-577.817 437.7345,-576.7 437.7345,-576.7 437.7345,-576.7 433.8936,-577.817 436.7292,-573.2432 430.0527,-578.934 430.0527,-578.934"/>
<ellipse fill="none" stroke="#000000" cx="426.98" cy="-579.8277" rx="3.2" ry="3.2"/>
</g>
<!-- sed_faciesID&#45;&gt;sed_faciesID -->
<g id="edge3" class="edge">
<title>sed_faciesID:w&#45;&gt;sed_faciesID:e</title>
<path fill="none" stroke="#000000" d="M19.3795,-161.9576C-18.7763,-201.5684 -7.7069,-293.7 127.2345,-293.7 274.2345,-293.7 274.2345,-272.3667 223.7345,-240.7"/>
<polygon fill="#000000" stroke="#000000" points="24.534,-157.7552 33.0093,-155.4902 27.6343,-155.2276 30.7345,-152.7 30.7345,-152.7 30.7345,-152.7 27.6343,-155.2276 28.4597,-149.9098 24.534,-157.7552 24.534,-157.7552"/>
<ellipse fill="none" stroke="#000000" cx="22.0539" cy="-159.7772" rx="3.2" ry="3.2"/>
</g>
</g>
</svg>
