<?xml version="1.0" encoding="UTF-8" standalone="no"?>
<!DOCTYPE svg PUBLIC "-//W3C//DTD SVG 1.1//EN"
 "http://www.w3.org/Graphics/SVG/1.1/DTD/svg11.dtd">
<!-- Generated by graphviz version 2.40.1 (20161225.0304)
 -->
<!-- Title: oneDegreeRelationshipsDiagramImplied Pages: 1 -->
<svg width="399pt" height="246pt"
 viewBox="0.00 0.00 399.00 246.20" xmlns="http://www.w3.org/2000/svg" xmlns:xlink="http://www.w3.org/1999/xlink">
<g id="graph0" class="graph" transform="scale(1 1) rotate(0) translate(4 242.2)">
<title>oneDegreeRelationshipsDiagramImplied</title>
<polygon fill="#ffffff" stroke="transparent" points="-4,4 -4,-242.2 395,-242.2 395,4 -4,4"/>
<text text-anchor="middle" x="72.4936" y="-7.3" font-family="Helvetica,sans-Serif" font-size="11.00" fill="#000000">Generated by SchemaSpy</text>
<!-- geography_columns -->
<g id="node1" class="node">
<title>geography_columns</title>
<g id="a_node1"><a xlink:href="../../tables/geography_columns.html" xlink:title="geography_columns" target="_top">
<polygon fill="#ffffff" stroke="transparent" points="241,-170.2 241,-234.2 383,-234.2 383,-170.2 241,-170.2"/>
<polygon fill="#f5f5f5" stroke="transparent" points="241,-211.2 241,-234.2 383,-234.2 383,-211.2 241,-211.2"/>
<polygon fill="none" stroke="#000000" points="241,-211.2 241,-234.2 383,-234.2 383,-211.2 241,-211.2"/>
<text text-anchor="start" x="246" y="-220.3" font-family="Helvetica,sans-Serif" font-weight="bold" font-size="11.00" fill="#000000">geography_columns</text>
<text text-anchor="start" x="349.9448" y="-219.3" font-family="Helvetica,sans-Serif" font-size="11.00" fill="#000000">[view]</text>
<polygon fill="none" stroke="#000000" points="241,-189.2 241,-211.2 383,-211.2 383,-189.2 241,-189.2"/>
<image xlink:href="../../images/foreignKeys.png" width="11px" height="12px" preserveAspectRatio="xMinYMin meet" x="246" y="-206.2"/>
<text text-anchor="start" x="261" y="-196.3" font-family="Helvetica,sans-Serif" font-size="11.00" fill="#000000">srid</text>
<polygon fill="none" stroke="#000000" points="241,-170.2 241,-189.2 383,-189.2 383,-170.2 241,-170.2"/>
<text text-anchor="start" x="244" y="-176.3" font-family="Helvetica,sans-Serif" font-size="11.00" fill="#000000">...</text>
</a>
</g>
</g>
<!-- spatial_ref_sys -->
<g id="node2" class="node">
<title>spatial_ref_sys</title>
<g id="a_node2"><a xlink:href="../../tables/spatial_ref_sys.html" xlink:title="spatial_ref_sys" target="_top">
<polygon fill="#ffffff" stroke="transparent" points="8,-38.2 8,-194.2 192,-194.2 192,-38.2 8,-38.2"/>
<polygon fill="#f5f5f5" stroke="transparent" points="10,-169.2 10,-192.2 190,-192.2 190,-169.2 10,-169.2"/>
<polygon fill="none" stroke="#000000" points="10,-169.2 10,-192.2 190,-192.2 190,-169.2 10,-169.2"/>
<text text-anchor="start" x="15" y="-178.3" font-family="Helvetica,sans-Serif" font-weight="bold" font-size="11.00" fill="#000000">spatial_ref_sys</text>
<text text-anchor="start" x="155.0437" y="-177.3" font-family="Helvetica,sans-Serif" font-size="11.00" fill="#000000">[table]</text>
<polygon fill="none" stroke="#000000" points="10,-147.2 10,-169.2 117,-169.2 117,-147.2 10,-147.2"/>
<image xlink:href="../../images/primaryKeys.png" width="11px" height="12px" preserveAspectRatio="xMinYMin meet" x="15" y="-164.2"/>
<text text-anchor="start" x="30" y="-154.3" font-family="Helvetica,sans-Serif" font-size="11.00" fill="#000000">srid</text>
<polygon fill="none" stroke="#000000" points="117,-147.2 117,-169.2 190,-169.2 190,-147.2 117,-147.2"/>
<text text-anchor="start" x="120" y="-154.9" font-family="Helvetica,sans-Serif" font-size="11.00" fill="#000000">int4[10]</text>
<polygon fill="none" stroke="#000000" points="10,-125.2 10,-147.2 117,-147.2 117,-125.2 10,-125.2"/>
<text text-anchor="start" x="30" y="-132.3" font-family="Helvetica,sans-Serif" font-size="11.00" fill="#000000">auth_name</text>
<polygon fill="none" stroke="#000000" points="117,-125.2 117,-147.2 190,-147.2 190,-125.2 117,-125.2"/>
<text text-anchor="start" x="120" y="-132.9" font-family="Helvetica,sans-Serif" font-size="11.00" fill="#000000">varchar[256]</text>
<polygon fill="none" stroke="#000000" points="10,-103.2 10,-125.2 117,-125.2 117,-103.2 10,-103.2"/>
<text text-anchor="start" x="30" y="-110.3" font-family="Helvetica,sans-Serif" font-size="11.00" fill="#000000">auth_srid</text>
<polygon fill="none" stroke="#000000" points="117,-103.2 117,-125.2 190,-125.2 190,-103.2 117,-103.2"/>
<text text-anchor="start" x="120" y="-110.9" font-family="Helvetica,sans-Serif" font-size="11.00" fill="#000000">int4[10]</text>
<polygon fill="none" stroke="#000000" points="10,-81.2 10,-103.2 117,-103.2 117,-81.2 10,-81.2"/>
<text text-anchor="start" x="30" y="-88.3" font-family="Helvetica,sans-Serif" font-size="11.00" fill="#000000">srtext</text>
<polygon fill="none" stroke="#000000" points="117,-81.2 117,-103.2 190,-103.2 190,-81.2 117,-81.2"/>
<text text-anchor="start" x="119.8791" y="-88.9" font-family="Helvetica,sans-Serif" font-size="11.00" fill="#000000">varchar[2048]</text>
<polygon fill="none" stroke="#000000" points="10,-59.2 10,-81.2 117,-81.2 117,-59.2 10,-59.2"/>
<text text-anchor="start" x="30" y="-66.3" font-family="Helvetica,sans-Serif" font-size="11.00" fill="#000000">proj4text</text>
<polygon fill="none" stroke="#000000" points="117,-59.2 117,-81.2 190,-81.2 190,-59.2 117,-59.2"/>
<text text-anchor="start" x="119.8791" y="-66.9" font-family="Helvetica,sans-Serif" font-size="11.00" fill="#000000">varchar[2048]</text>
<polygon fill="#ffffff" stroke="transparent" points="10,-40.2 10,-59.2 44,-59.2 44,-40.2 10,-40.2"/>
<polygon fill="none" stroke="#000000" points="10,-40.2 10,-59.2 44,-59.2 44,-40.2 10,-40.2"/>
<text text-anchor="start" x="13" y="-46.3" font-family="Helvetica,sans-Serif" font-size="11.00" fill="#000000">&lt; 0</text>
<polygon fill="#ffffff" stroke="transparent" points="44,-40.2 44,-59.2 117,-59.2 117,-40.2 44,-40.2"/>
<polygon fill="none" stroke="#000000" points="44,-40.2 44,-59.2 117,-59.2 117,-40.2 44,-40.2"/>
<text text-anchor="start" x="60.2089" y="-46.3" font-family="Helvetica,sans-Serif" font-size="11.00" fill="#000000">8,500 rows</text>
<polygon fill="#ffffff" stroke="transparent" points="117,-40.2 117,-59.2 190,-59.2 190,-40.2 117,-40.2"/>
<polygon fill="none" stroke="#000000" points="117,-40.2 117,-59.2 190,-59.2 190,-40.2 117,-40.2"/>
<text text-anchor="start" x="171.4053" y="-46.3" font-family="Helvetica,sans-Serif" font-size="11.00" fill="#000000">2 &gt;</text>
<polygon fill="none" stroke="#000000" stroke-width="2" points="9,-39.2 9,-193.2 191,-193.2 191,-39.2 9,-39.2"/>
</a>
</g>
</g>
<!-- geography_columns&#45;&gt;spatial_ref_sys -->
<g id="edge1" class="edge">
<title>geography_columns:w&#45;&gt;spatial_ref_sys:e</title>
<path fill="none" stroke="#000000" stroke-dasharray="5,2" d="M227.0759,-195.7053C213.2452,-184.8704 213.3991,-158.2 190,-158.2"/>
<polygon fill="#000000" stroke="#000000" points="233.3868,-197.7424 239.8941,-203.6259 237.1934,-198.9712 241,-200.2 241,-200.2 241,-200.2 237.1934,-198.9712 242.1059,-196.7741 233.3868,-197.7424 233.3868,-197.7424"/>
<ellipse fill="none" stroke="#000000" cx="230.3416" cy="-196.7594" rx="3.2" ry="3.2"/>
</g>
<!-- geometry_columns -->
<g id="node3" class="node">
<title>geometry_columns</title>
<g id="a_node3"><a xlink:href="../../tables/geometry_columns.html" xlink:title="geometry_columns" target="_top">
<polygon fill="#ffffff" stroke="transparent" points="244.5,-85.2 244.5,-149.2 379.5,-149.2 379.5,-85.2 244.5,-85.2"/>
<polygon fill="#f5f5f5" stroke="transparent" points="245,-126.2 245,-149.2 380,-149.2 380,-126.2 245,-126.2"/>
<polygon fill="none" stroke="#000000" points="245,-126.2 245,-149.2 380,-149.2 380,-126.2 245,-126.2"/>
<text text-anchor="start" x="250" y="-135.3" font-family="Helvetica,sans-Serif" font-weight="bold" font-size="11.00" fill="#000000">geometry_columns</text>
<text text-anchor="start" x="346.9448" y="-134.3" font-family="Helvetica,sans-Serif" font-size="11.00" fill="#000000">[view]</text>
<polygon fill="none" stroke="#000000" points="245,-104.2 245,-126.2 380,-126.2 380,-104.2 245,-104.2"/>
<image xlink:href="../../images/foreignKeys.png" width="11px" height="12px" preserveAspectRatio="xMinYMin meet" x="250" y="-121.2"/>
<text text-anchor="start" x="265" y="-111.3" font-family="Helvetica,sans-Serif" font-size="11.00" fill="#000000">srid</text>
<polygon fill="none" stroke="#000000" points="245,-85.2 245,-104.2 380,-104.2 380,-85.2 245,-85.2"/>
<text text-anchor="start" x="248" y="-91.3" font-family="Helvetica,sans-Serif" font-size="11.00" fill="#000000">...</text>
</a>
</g>
</g>
<!-- geometry_columns&#45;&gt;spatial_ref_sys -->
<g id="edge2" class="edge">
<title>geometry_columns:w&#45;&gt;spatial_ref_sys:e</title>
<path fill="none" stroke="#000000" stroke-dasharray="5,2" d="M231.0612,-119.1683C215.2789,-129.8133 215.2106,-158.2 190,-158.2"/>
<polygon fill="#000000" stroke="#000000" points="237.3057,-117.3905 245.9857,-118.6624 241.1529,-116.2953 245,-115.2 245,-115.2 245,-115.2 241.1529,-116.2953 244.0143,-111.7376 237.3057,-117.3905 237.3057,-117.3905"/>
<ellipse fill="none" stroke="#000000" cx="234.228" cy="-118.2667" rx="3.2" ry="3.2"/>
</g>
</g>
</svg>
