<?xml version="1.0" encoding="UTF-8" standalone="no"?>
<!DOCTYPE svg PUBLIC "-//W3C//DTD SVG 1.1//EN"
 "http://www.w3.org/Graphics/SVG/1.1/DTD/svg11.dtd">
<!-- Generated by graphviz version 2.40.1 (20161225.0304)
 -->
<!-- Title: global_agetypeID Pages: 1 -->
<svg width="240pt" height="194pt"
 viewBox="0.00 0.00 240.00 194.00" xmlns="http://www.w3.org/2000/svg" xmlns:xlink="http://www.w3.org/1999/xlink">
<g id="graph0" class="graph" transform="scale(1 1) rotate(0) translate(4 190)">
<title>global_agetypeID</title>
<polygon fill="#ffffff" stroke="transparent" points="-4,4 -4,-190 236,-190 236,4 -4,4"/>
<!-- global_agetypeID -->
<g id="node1" class="node">
<title>global_agetypeID</title>
<g id="a_node1"><a xlink:href="../../tables/global_agetypeID.html" xlink:title="global_agetypeID" target="_top">
<polygon fill="#ffffff" stroke="transparent" points="8,-4 8,-182 224,-182 224,-4 8,-4"/>
<polygon fill="#f5f5f5" stroke="transparent" points="10,-157 10,-180 222,-180 222,-157 10,-157"/>
<polygon fill="none" stroke="#000000" points="10,-157 10,-180 222,-180 222,-157 10,-157"/>
<text text-anchor="start" x="15" y="-166.1" font-family="Helvetica,sans-Serif" font-weight="bold" font-size="11.00" fill="#000000">global_agetypeID</text>
<text text-anchor="start" x="187.0437" y="-165.1" font-family="Helvetica,sans-Serif" font-size="11.00" fill="#000000">[table]</text>
<polygon fill="none" stroke="#000000" points="10,-135 10,-157 130,-157 130,-135 10,-135"/>
<image xlink:href="../../images/primaryKeys.png" width="11px" height="12px" preserveAspectRatio="xMinYMin meet" x="15" y="-152"/>
<text text-anchor="start" x="30" y="-142.1" font-family="Helvetica,sans-Serif" font-size="11.00" fill="#000000">AGETYPEID</text>
<polygon fill="none" stroke="#000000" points="130,-135 130,-157 222,-157 222,-135 130,-135"/>
<text text-anchor="start" x="133" y="-142.7" font-family="Helvetica,sans-Serif" font-size="11.00" fill="#000000">serial[10]</text>
<polygon fill="#ffffff" stroke="transparent" points="10,-113 10,-135 130,-135 130,-113 10,-113"/>
<polygon fill="none" stroke="#000000" points="10,-113 10,-135 130,-135 130,-113 10,-113"/>
<text text-anchor="start" x="30" y="-120.1" font-family="Helvetica,sans-Serif" font-size="11.00" fill="#000000">AGETYPE</text>
<polygon fill="none" stroke="#000000" points="130,-113 130,-135 222,-135 222,-113 130,-113"/>
<text text-anchor="start" x="133" y="-120.7" font-family="Helvetica,sans-Serif" font-size="11.00" fill="#000000">text[2147483647]</text>
<polygon fill="none" stroke="#000000" points="10,-91 10,-113 130,-113 130,-91 10,-91"/>
<text text-anchor="start" x="30" y="-98.1" font-family="Helvetica,sans-Serif" font-size="11.00" fill="#000000">AGETDESCR</text>
<polygon fill="none" stroke="#000000" points="130,-91 130,-113 222,-113 222,-91 130,-91"/>
<text text-anchor="start" x="133" y="-98.7" font-family="Helvetica,sans-Serif" font-size="11.00" fill="#000000">text[2147483647]</text>
<polygon fill="none" stroke="#000000" points="10,-69 10,-91 130,-91 130,-69 10,-69"/>
<text text-anchor="start" x="30" y="-76.1" font-family="Helvetica,sans-Serif" font-size="11.00" fill="#000000">AGETCOMMT</text>
<polygon fill="none" stroke="#000000" points="130,-69 130,-91 222,-91 222,-69 130,-69"/>
<text text-anchor="start" x="133" y="-76.7" font-family="Helvetica,sans-Serif" font-size="11.00" fill="#000000">text[2147483647]</text>
<polygon fill="none" stroke="#000000" points="10,-47 10,-69 130,-69 130,-47 10,-47"/>
<text text-anchor="start" x="30" y="-54.1" font-family="Helvetica,sans-Serif" font-size="11.00" fill="#000000">CREATED_AT</text>
<polygon fill="none" stroke="#000000" points="130,-47 130,-69 222,-69 222,-47 130,-47"/>
<text text-anchor="start" x="132.6023" y="-54.7" font-family="Helvetica,sans-Serif" font-size="11.00" fill="#000000">timestamptz[35,6]</text>
<polygon fill="none" stroke="#000000" points="10,-25 10,-47 130,-47 130,-25 10,-25"/>
<text text-anchor="start" x="30" y="-32.1" font-family="Helvetica,sans-Serif" font-size="11.00" fill="#000000">UPDATED_AT</text>
<polygon fill="none" stroke="#000000" points="130,-25 130,-47 222,-47 222,-25 130,-25"/>
<text text-anchor="start" x="132.6023" y="-32.7" font-family="Helvetica,sans-Serif" font-size="11.00" fill="#000000">timestamptz[35,6]</text>
<polygon fill="#ffffff" stroke="transparent" points="10,-6 10,-25 58,-25 58,-6 10,-6"/>
<polygon fill="none" stroke="#000000" points="10,-6 10,-25 58,-25 58,-6 10,-6"/>
<text text-anchor="start" x="13" y="-12.1" font-family="Helvetica,sans-Serif" font-size="11.00" fill="#000000">&lt; 0</text>
<polygon fill="#ffffff" stroke="transparent" points="58,-6 58,-25 130,-25 130,-6 58,-6"/>
<polygon fill="none" stroke="#000000" points="58,-6 58,-25 130,-25 130,-6 58,-6"/>
<text text-anchor="start" x="88.4956" y="-12.1" font-family="Helvetica,sans-Serif" font-size="11.00" fill="#000000">10 rows</text>
<polygon fill="#ffffff" stroke="transparent" points="130,-6 130,-25 222,-25 222,-6 130,-6"/>
<polygon fill="none" stroke="#000000" points="130,-6 130,-25 222,-25 222,-6 130,-6"/>
<text text-anchor="start" x="203.4053" y="-12.1" font-family="Helvetica,sans-Serif" font-size="11.00" fill="#000000">0 &gt;</text>
<polygon fill="none" stroke="#000000" stroke-width="2" points="9,-5 9,-181 223,-181 223,-5 9,-5"/>
</a>
</g>
</g>
</g>
</svg>
