<?xml version="1.0" encoding="UTF-8" standalone="no"?>
<!DOCTYPE svg PUBLIC "-//W3C//DTD SVG 1.1//EN"
 "http://www.w3.org/Graphics/SVG/1.1/DTD/svg11.dtd">
<!-- Generated by graphviz version 2.40.1 (20161225.0304)
 -->
<!-- Title: global_datasourceID Pages: 1 -->
<svg width="259pt" height="194pt"
 viewBox="0.00 0.00 259.00 194.00" xmlns="http://www.w3.org/2000/svg" xmlns:xlink="http://www.w3.org/1999/xlink">
<g id="graph0" class="graph" transform="scale(1 1) rotate(0) translate(4 190)">
<title>global_datasourceID</title>
<polygon fill="#ffffff" stroke="transparent" points="-4,4 -4,-190 255,-190 255,4 -4,4"/>
<!-- global_datasourceID -->
<g id="node1" class="node">
<title>global_datasourceID</title>
<g id="a_node1"><a xlink:href="../../tables/global_datasourceID.html" xlink:title="global_datasourceID" target="_top">
<polygon fill="#ffffff" stroke="transparent" points="8,-4 8,-182 243,-182 243,-4 8,-4"/>
<polygon fill="#f5f5f5" stroke="transparent" points="10.5,-157 10.5,-180 241.5,-180 241.5,-157 10.5,-157"/>
<polygon fill="none" stroke="#000000" points="10.5,-157 10.5,-180 241.5,-180 241.5,-157 10.5,-157"/>
<text text-anchor="start" x="15.5" y="-166.1" font-family="Helvetica,sans-Serif" font-weight="bold" font-size="11.00" fill="#000000">global_datasourceID</text>
<text text-anchor="start" x="206.5437" y="-165.1" font-family="Helvetica,sans-Serif" font-size="11.00" fill="#000000">[table]</text>
<polygon fill="none" stroke="#000000" points="10.5,-135 10.5,-157 149.5,-157 149.5,-135 10.5,-135"/>
<image xlink:href="../../images/primaryKeys.png" width="11px" height="12px" preserveAspectRatio="xMinYMin meet" x="15.5" y="-152"/>
<text text-anchor="start" x="30.5" y="-142.1" font-family="Helvetica,sans-Serif" font-size="11.00" fill="#000000">DATASRCID</text>
<polygon fill="none" stroke="#000000" points="149.5,-135 149.5,-157 241.5,-157 241.5,-135 149.5,-135"/>
<text text-anchor="start" x="152.5" y="-142.7" font-family="Helvetica,sans-Serif" font-size="11.00" fill="#000000">serial[10]</text>
<polygon fill="#ffffff" stroke="transparent" points="10.5,-113 10.5,-135 149.5,-135 149.5,-113 10.5,-113"/>
<polygon fill="none" stroke="#000000" points="10.5,-113 10.5,-135 149.5,-135 149.5,-113 10.5,-113"/>
<text text-anchor="start" x="30.5" y="-120.1" font-family="Helvetica,sans-Serif" font-size="11.00" fill="#000000">DATASOURCE</text>
<polygon fill="none" stroke="#000000" points="149.5,-113 149.5,-135 241.5,-135 241.5,-113 149.5,-113"/>
<text text-anchor="start" x="152.5" y="-120.7" font-family="Helvetica,sans-Serif" font-size="11.00" fill="#000000">text[2147483647]</text>
<polygon fill="none" stroke="#000000" points="10.5,-91 10.5,-113 149.5,-113 149.5,-91 10.5,-91"/>
<text text-anchor="start" x="30.5" y="-98.1" font-family="Helvetica,sans-Serif" font-size="11.00" fill="#000000">DATASRCDSC</text>
<polygon fill="none" stroke="#000000" points="149.5,-91 149.5,-113 241.5,-113 241.5,-91 149.5,-91"/>
<text text-anchor="start" x="152.5" y="-98.7" font-family="Helvetica,sans-Serif" font-size="11.00" fill="#000000">text[2147483647]</text>
<polygon fill="none" stroke="#000000" points="10.5,-69 10.5,-91 149.5,-91 149.5,-69 10.5,-69"/>
<text text-anchor="start" x="30.5" y="-76.1" font-family="Helvetica,sans-Serif" font-size="11.00" fill="#000000">DATASRCREF</text>
<polygon fill="none" stroke="#000000" points="149.5,-69 149.5,-91 241.5,-91 241.5,-69 149.5,-69"/>
<text text-anchor="start" x="152.5" y="-76.7" font-family="Helvetica,sans-Serif" font-size="11.00" fill="#000000">text[2147483647]</text>
<polygon fill="none" stroke="#000000" points="10.5,-47 10.5,-69 149.5,-69 149.5,-47 10.5,-47"/>
<text text-anchor="start" x="30.5" y="-54.1" font-family="Helvetica,sans-Serif" font-size="11.00" fill="#000000">CREATED_AT</text>
<polygon fill="none" stroke="#000000" points="149.5,-47 149.5,-69 241.5,-69 241.5,-47 149.5,-47"/>
<text text-anchor="start" x="152.1023" y="-54.7" font-family="Helvetica,sans-Serif" font-size="11.00" fill="#000000">timestamptz[35,6]</text>
<polygon fill="none" stroke="#000000" points="10.5,-25 10.5,-47 149.5,-47 149.5,-25 10.5,-25"/>
<text text-anchor="start" x="30.5" y="-32.1" font-family="Helvetica,sans-Serif" font-size="11.00" fill="#000000">UPDATED_AT</text>
<polygon fill="none" stroke="#000000" points="149.5,-25 149.5,-47 241.5,-47 241.5,-25 149.5,-25"/>
<text text-anchor="start" x="152.1023" y="-32.7" font-family="Helvetica,sans-Serif" font-size="11.00" fill="#000000">timestamptz[35,6]</text>
<polygon fill="#ffffff" stroke="transparent" points="10.5,-6 10.5,-25 71.5,-25 71.5,-6 10.5,-6"/>
<polygon fill="none" stroke="#000000" points="10.5,-6 10.5,-25 71.5,-25 71.5,-6 10.5,-6"/>
<text text-anchor="start" x="13.5" y="-12.1" font-family="Helvetica,sans-Serif" font-size="11.00" fill="#000000">&lt; 0</text>
<polygon fill="#ffffff" stroke="transparent" points="71.5,-6 71.5,-25 149.5,-25 149.5,-6 71.5,-6"/>
<polygon fill="none" stroke="#000000" points="71.5,-6 71.5,-25 149.5,-25 149.5,-6 71.5,-6"/>
<text text-anchor="start" x="114.1105" y="-12.1" font-family="Helvetica,sans-Serif" font-size="11.00" fill="#000000">7 rows</text>
<polygon fill="#ffffff" stroke="transparent" points="149.5,-6 149.5,-25 241.5,-25 241.5,-6 149.5,-6"/>
<polygon fill="none" stroke="#000000" points="149.5,-6 149.5,-25 241.5,-25 241.5,-6 149.5,-6"/>
<text text-anchor="start" x="222.9053" y="-12.1" font-family="Helvetica,sans-Serif" font-size="11.00" fill="#000000">0 &gt;</text>
<polygon fill="none" stroke="#000000" stroke-width="2" points="9,-5 9,-181 242,-181 242,-5 9,-5"/>
</a>
</g>
</g>
</g>
</svg>
